<svg width="241" height="153" viewBox="0 0 241 153" fill="none" xmlns="http://www.w3.org/2000/svg">
<g clip-path="url(#clip0_113_1908)">
<path d="M123 146.986V147.304C82.819 133.447 34.3862 142.803 17 146.986V152.68C34.3862 148.497 82.819 139.138 123 152.997V152.68C140.386 148.497 188.819 139.138 229 152.997V147.304C188.819 133.444 140.386 142.8 123 146.986Z" fill="#FF5F17"/>
</g>
<path d="M123 11.4635C66.4049 -14.3293 13 11.4635 13 11.4635V142.713C31.0423 138.925 81.3027 130.452 123 143V142.713C141.042 138.925 191.303 130.452 233 143V11.4635C176.405 -14.3293 123 11.4635 123 11.4635Z" fill="#FF5F17"/>
<rect x="55" y="81.001" width="125" height="32" rx="16" fill="#FF5F17" stroke="white" stroke-width="2"/>
<path d="M80.342 99.193V100.975H85.776V99.193H80.342ZM79 98.115H87.184V102.075H79V98.115ZM83.752 101.657H85.182V104.473C85.182 104.891 85.226 104.935 85.644 104.935C85.842 104.935 86.744 104.935 86.986 104.935C87.382 104.935 87.448 104.781 87.492 103.461C87.778 103.659 88.328 103.857 88.724 103.945C88.592 105.727 88.196 106.167 87.184 106.167C86.92 106.167 85.732 106.167 85.446 106.167C84.082 106.167 83.752 105.815 83.752 104.473V101.657ZM80.584 102.053H81.97C81.64 104.275 80.606 105.551 77.724 106.321C77.57 105.991 77.174 105.419 76.888 105.177C79.418 104.649 80.32 103.725 80.584 102.053ZM75.106 90.371H81.09V91.515H75.106V90.371ZM81.75 95.321H85.71V96.553H81.75V95.321ZM85.006 90.371H91.056V91.515H85.006V90.371ZM90.396 87.599H92.046V104.737C92.046 105.617 91.892 106.123 91.386 106.409C90.88 106.695 90.088 106.739 89.01 106.739C88.966 106.277 88.768 105.485 88.526 105.045C89.23 105.067 89.868 105.067 90.11 105.045C90.33 105.045 90.396 104.979 90.396 104.737V87.599ZM75.15 87.599H82.058V94.375H75.15V93.143H80.496V88.809H75.15V87.599ZM91.32 87.599V88.809H85.6V93.143H91.32V94.375H84.038V87.599H91.32ZM74.292 87.599H75.92V106.739H74.292V87.599ZM84.478 95.321H85.974C86.524 96.729 87.888 97.961 89.208 98.577C88.878 98.797 88.394 99.259 88.152 99.567C86.788 98.775 85.446 97.477 84.852 96.025H84.478V95.321ZM79.924 95.695L81.288 96.025C80.628 97.433 79.352 98.863 77.988 99.699C77.746 99.435 77.306 99.039 77.02 98.819C78.274 98.093 79.418 96.861 79.924 95.695ZM103.662 87.753H115.828V88.897H103.662V87.753ZM104.432 89.953H115.212V91.053H104.432V89.953ZM108.788 86.543H110.394V90.547H108.788V86.543ZM110.372 92.395H111.494V93.407C111.494 93.737 111.56 93.781 112.044 93.781C112.286 93.781 113.496 93.781 113.804 93.781C114.134 93.781 114.222 93.781 114.266 93.715C114.508 93.869 114.904 93.957 115.19 94.001C115.102 94.419 114.772 94.595 114.002 94.595C113.738 94.595 112.176 94.595 111.956 94.595C110.68 94.595 110.372 94.397 110.372 93.385V92.395ZM107.886 92.461H108.92C108.898 93.957 108.26 94.639 105.796 94.881C105.73 94.639 105.488 94.265 105.29 94.089C107.38 93.935 107.842 93.583 107.886 92.461ZM105.18 92.901V95.365H114.266V92.901H105.18ZM103.816 91.933H115.674V96.311H103.816V91.933ZM105.972 99.875V100.821H113.54V99.875H105.972ZM105.972 101.613V102.625H113.54V101.613H105.972ZM105.972 98.137V99.061H113.54V98.137H105.972ZM104.476 97.125H115.08V103.615H104.476V97.125ZM110.702 104.429L111.736 103.549C113.364 104.297 115.256 105.221 116.378 105.881L115.036 106.805C114.024 106.145 112.286 105.199 110.702 104.429ZM107.16 103.593L108.524 104.407C107.27 105.331 105.268 106.277 103.618 106.783C103.376 106.475 102.892 106.013 102.562 105.749C104.234 105.265 106.214 104.385 107.16 103.593ZM96.798 93.187H102.452V94.507H96.798V93.187ZM96.93 87.313H102.386V88.633H96.93V87.313ZM96.798 96.135H102.452V97.455H96.798V96.135ZM95.896 90.195H103.002V91.559H95.896V90.195ZM97.568 99.105H102.43V105.507H97.568V104.143H101.044V100.469H97.568V99.105ZM96.754 99.105H98.118V106.541H96.754V99.105ZM119.348 87.709H138.51V89.205H119.348V87.709ZM128.214 88.347H129.93V96.883C129.93 101.129 128.764 104.913 119.942 106.783C119.766 106.431 119.304 105.727 118.952 105.331C127.532 103.747 128.214 100.513 128.214 96.861V88.347ZM122.934 95.959V98.203H135.474V95.959H122.934ZM122.934 92.439V94.639H135.474V92.439H122.934ZM121.372 91.053H137.146V99.589H121.372V91.053ZM123.484 99.765C126.278 104.121 131.294 104.869 139.236 105.067C138.95 105.463 138.62 106.167 138.532 106.695C130.436 106.365 125.024 105.331 122.076 100.337L123.484 99.765ZM146.342 91.383L147.442 90.415C149.092 91.185 151.116 92.417 152.106 93.341L150.94 94.419C149.994 93.495 147.992 92.197 146.342 91.383ZM156.506 88.391H156.836L157.122 88.303L158.2 88.963C155.34 94.089 148.828 97.169 143.02 98.445C142.866 98.027 142.536 97.345 142.228 96.993C147.772 95.959 154.108 92.989 156.506 88.655V88.391ZM149.158 88.391H156.924V89.777H149.158V88.391ZM150.786 86.499L152.634 86.895C150.61 89.227 147.618 91.405 143.526 93.033C143.284 92.637 142.778 92.087 142.404 91.801C146.364 90.415 149.268 88.347 150.786 86.499ZM149.158 99.457L150.368 98.511C152.106 99.413 154.218 100.799 155.274 101.855L153.976 102.911C152.986 101.877 150.896 100.403 149.158 99.457ZM159.718 96.091H160.048L160.356 96.003L161.434 96.597C158.662 103.021 151.798 105.771 144.604 106.827C144.494 106.365 144.164 105.683 143.9 105.309C150.698 104.495 157.342 101.877 159.718 96.333V96.091ZM152.568 96.091H160.158V97.499H152.568V96.091ZM154.35 94.023L156.176 94.441C153.954 97.037 150.478 99.435 145.66 101.129C145.462 100.755 144.978 100.161 144.626 99.853C149.29 98.401 152.634 96.113 154.35 94.023Z" fill="white"/>
<circle cx="22" cy="53" r="22" fill="#39BF63"/>
<path d="M23.172 64.001L26.9902 40.7282H30.172L26.3538 64.001H23.172ZM12.6833 58.001L13.2174 54.8192H31.1265L30.5924 58.001H12.6833ZM14.9902 64.001L18.8083 40.7282H21.9902L18.172 64.001H14.9902ZM14.0356 49.9101L14.5583 46.7282H32.4674L31.9447 49.9101H14.0356ZM54.1944 49.665H62.7384V53.313H54.1944V49.665ZM58.6424 43.329H68.9784V47.009H58.6424V43.329ZM70.4504 44.737C72.4344 52.481 76.6584 58.849 83.8584 61.601C82.9944 62.369 81.7464 63.969 81.1704 65.025C73.5864 61.569 69.5544 54.625 67.2184 45.441L70.4504 44.737ZM79.2184 45.857L82.7704 48.449C80.0184 50.881 76.7224 53.569 74.1624 55.233L71.4424 52.993C73.9704 51.201 77.2664 48.225 79.2184 45.857ZM66.6744 43.329H70.8344V62.433C70.8344 64.481 70.3864 65.537 69.0424 66.177C67.6664 66.785 65.7464 66.849 63.0264 66.849C62.8664 65.729 62.2904 64.033 61.7144 62.977C63.3464 63.073 65.3624 63.073 65.9064 63.073C66.4824 63.041 66.6744 62.881 66.6744 62.369V43.329ZM61.1384 40.065L63.0584 36.929C66.8024 37.729 72.1464 39.457 74.8984 40.865L72.8504 44.449C70.2584 42.977 65.0424 41.057 61.1384 40.065ZM61.2984 49.665H62.0664L62.7384 49.537L65.3304 50.625C63.7944 57.313 60.4344 62.305 56.4984 64.961C55.8904 64.129 54.3224 62.657 53.3944 62.049C57.2024 59.809 60.1784 55.553 61.2984 50.401V49.665ZM103.186 56.961V57.985H111.474V56.961H103.186ZM103.186 59.553V60.609H111.474V59.553H103.186ZM103.186 54.401V55.393H111.474V54.401H103.186ZM99.8584 52.545H114.93V62.433H99.8584V52.545ZM108.114 63.745L110.514 61.793C112.818 62.785 115.602 64.065 117.17 64.961L113.938 66.913C112.626 66.049 110.226 64.705 108.114 63.745ZM105.266 36.833H109.042V43.137H105.266V36.833ZM98.0984 38.497H116.466V40.833H98.0984V38.497ZM99.6024 41.857H115.25V44.033H99.6024V41.857ZM101.682 46.881V49.697H112.914V46.881H101.682ZM98.7384 44.993H116.018V51.585H98.7384V44.993ZM104.498 46.113H106.77C106.514 48.033 105.618 49.025 102.802 49.601C102.61 49.153 102.066 48.513 101.618 48.161C103.698 47.841 104.338 47.297 104.498 46.113ZM107.954 45.697H110.61V47.009C110.61 47.585 110.674 47.649 111.122 47.649C111.346 47.649 112.338 47.649 112.594 47.649C112.946 47.649 113.074 47.649 113.17 47.521C113.65 47.713 114.514 47.905 115.154 47.969C115.026 48.769 114.386 49.025 112.978 49.025C112.562 49.025 111.154 49.025 110.738 49.025C108.434 49.025 107.954 48.641 107.954 46.945V45.697ZM103.474 61.793L106.29 63.681C104.37 64.929 101.298 66.209 98.9624 66.849C98.3864 66.209 97.3304 65.249 96.5624 64.673C98.9944 64.033 101.938 62.817 103.474 61.793ZM91.4744 36.865L94.7704 37.921C93.4904 40.417 91.9864 43.265 90.7704 45.089L88.2424 44.097C89.3624 42.177 90.7704 39.073 91.4744 36.865ZM94.8024 40.641L97.9384 41.953C95.7304 45.569 92.8824 50.049 90.5784 52.769L88.3704 51.617C90.6104 48.737 93.2664 44.065 94.8024 40.641ZM86.6744 44.353L88.5624 41.761C90.1944 43.265 92.1464 45.345 92.8824 46.817L90.8344 49.761C90.1304 48.225 88.2744 45.953 86.6744 44.353ZM93.8744 48.033L96.4024 47.137C97.5224 49.345 98.5464 52.193 98.8024 54.017L96.0824 55.073C95.8584 53.217 94.9304 50.305 93.8744 48.033ZM86.7064 51.073C89.3624 50.977 93.1704 50.753 96.9784 50.561V53.537C93.4904 53.825 89.9064 54.081 87.0904 54.273L86.7064 51.073ZM94.5464 56.225L97.0744 55.489C97.6824 57.121 98.2904 59.233 98.5464 60.609L95.9224 61.505C95.6984 60.065 95.1224 57.889 94.5464 56.225ZM87.8904 55.649L90.8984 56.161C90.5464 59.201 89.9064 62.369 89.0104 64.417C88.4024 64.001 87.0264 63.393 86.2904 63.105C87.1864 61.217 87.6664 58.337 87.8904 55.649ZM91.2504 52.577H94.4504V66.881H91.2504V52.577ZM121.394 39.681H133.586V42.849H121.394V39.681ZM121.042 57.761H133.874V60.993H121.042V57.761ZM134.258 43.009H145.874V46.561H134.258V43.009ZM120.114 44.897H134.866V48.129H120.114V44.897ZM120.754 52.289H134.258V55.521H120.754V52.289ZM125.81 36.801H129.362V46.145H125.81V36.801ZM125.81 53.345H129.362V66.785H125.81V53.345ZM133.65 52.577L135.634 49.825C138.77 51.649 142.834 54.433 144.69 56.513L142.514 59.649C140.754 57.537 136.818 54.561 133.65 52.577ZM130.226 47.681L133.426 48.449C132.786 50.081 132.146 51.681 131.602 52.833L128.882 52.065C129.362 50.849 129.97 48.961 130.226 47.681ZM122.098 48.481L124.946 47.713C125.586 49.089 126.194 50.881 126.354 52.065L123.346 52.961C123.218 51.809 122.674 49.921 122.098 48.481ZM143.954 43.009H147.634C147.346 51.713 147.282 62.657 148.338 63.041C148.53 63.105 148.658 60.577 148.69 58.113C149.298 58.977 150.29 60.321 150.834 60.769C150.578 66.337 148.946 67.553 146.898 66.689C143.57 65.345 143.922 54.081 143.954 43.009ZM138.066 36.865H141.65V46.721C141.65 53.185 140.818 61.601 134.29 66.913C133.65 66.209 132.242 65.089 131.346 64.545C137.458 59.777 138.066 52.225 138.066 46.689V36.865ZM166.706 38.657H182.354V42.305H166.706V38.657ZM174.834 48.609H178.77V62.433C178.77 64.481 178.354 65.569 176.946 66.177C175.57 66.753 173.554 66.785 170.674 66.785C170.546 65.665 170.034 64.001 169.522 62.881C171.346 62.977 173.458 62.977 174.034 62.977C174.642 62.945 174.834 62.817 174.834 62.337V48.609ZM165.33 47.521H183.186V51.169H165.33V47.521ZM158.162 51.297L161.522 47.937L162.002 48.129V66.913H158.162V51.297ZM161.778 43.809L165.426 45.185C162.898 49.441 158.962 53.921 155.538 56.737C154.994 55.937 153.682 54.209 152.914 53.441C156.178 51.137 159.666 47.425 161.778 43.809ZM160.562 36.833L164.242 38.337C161.906 41.377 158.45 44.705 155.41 46.817C154.898 45.953 153.906 44.449 153.266 43.681C155.922 41.953 158.994 39.073 160.562 36.833ZM188.114 43.489H212.626V47.425H188.114V43.489ZM211.058 43.489H215.058C215.058 43.489 215.026 44.801 214.962 45.345C214.322 58.145 213.682 63.009 212.242 64.705C211.314 65.921 210.386 66.273 208.978 66.465C207.762 66.657 205.778 66.625 203.826 66.529C203.762 65.409 203.218 63.681 202.482 62.561C204.53 62.721 206.418 62.753 207.282 62.753C207.922 62.753 208.306 62.625 208.754 62.209C209.874 61.121 210.514 56.065 211.058 44.257V43.489ZM197.938 36.897H202.002V43.489C202.002 50.753 200.978 60.897 190.098 67.041C189.49 66.113 188.05 64.609 187.09 63.937C197.042 58.529 197.938 49.665 197.938 43.489V36.897Z" fill="white"/>
<defs>
<clipPath id="clip0_113_1908">
<rect width="212" height="13" fill="white" transform="translate(17 140)"/>
</clipPath>
</defs>
</svg>
