<svg width="241" height="153" viewBox="0 0 241 153" fill="none" xmlns="http://www.w3.org/2000/svg">
<g clip-path="url(#clip0_113_1928)">
<path d="M123 146.986V147.304C82.819 133.447 34.3862 142.803 17 146.986V152.68C34.3862 148.497 82.819 139.138 123 152.997V152.68C140.386 148.497 188.819 139.138 229 152.997V147.304C188.819 133.444 140.386 142.8 123 146.986Z" fill="#39BF63"/>
</g>
<path d="M123 11.4635C66.4049 -14.3293 13 11.4635 13 11.4635V142.713C31.0423 138.925 81.3027 130.452 123 143V142.713C141.042 138.925 191.303 130.452 233 143V11.4635C176.405 -14.3293 123 11.4635 123 11.4635Z" fill="#39BF63"/>
<rect x="55" y="81.001" width="125" height="32" rx="16" fill="#39BF63" stroke="white" stroke-width="2"/>
<path d="M80.342 99.193V100.975H85.776V99.193H80.342ZM79 98.115H87.184V102.075H79V98.115ZM83.752 101.657H85.182V104.473C85.182 104.891 85.226 104.935 85.644 104.935C85.842 104.935 86.744 104.935 86.986 104.935C87.382 104.935 87.448 104.781 87.492 103.461C87.778 103.659 88.328 103.857 88.724 103.945C88.592 105.727 88.196 106.167 87.184 106.167C86.92 106.167 85.732 106.167 85.446 106.167C84.082 106.167 83.752 105.815 83.752 104.473V101.657ZM80.584 102.053H81.97C81.64 104.275 80.606 105.551 77.724 106.321C77.57 105.991 77.174 105.419 76.888 105.177C79.418 104.649 80.32 103.725 80.584 102.053ZM75.106 90.371H81.09V91.515H75.106V90.371ZM81.75 95.321H85.71V96.553H81.75V95.321ZM85.006 90.371H91.056V91.515H85.006V90.371ZM90.396 87.599H92.046V104.737C92.046 105.617 91.892 106.123 91.386 106.409C90.88 106.695 90.088 106.739 89.01 106.739C88.966 106.277 88.768 105.485 88.526 105.045C89.23 105.067 89.868 105.067 90.11 105.045C90.33 105.045 90.396 104.979 90.396 104.737V87.599ZM75.15 87.599H82.058V94.375H75.15V93.143H80.496V88.809H75.15V87.599ZM91.32 87.599V88.809H85.6V93.143H91.32V94.375H84.038V87.599H91.32ZM74.292 87.599H75.92V106.739H74.292V87.599ZM84.478 95.321H85.974C86.524 96.729 87.888 97.961 89.208 98.577C88.878 98.797 88.394 99.259 88.152 99.567C86.788 98.775 85.446 97.477 84.852 96.025H84.478V95.321ZM79.924 95.695L81.288 96.025C80.628 97.433 79.352 98.863 77.988 99.699C77.746 99.435 77.306 99.039 77.02 98.819C78.274 98.093 79.418 96.861 79.924 95.695ZM103.662 87.753H115.828V88.897H103.662V87.753ZM104.432 89.953H115.212V91.053H104.432V89.953ZM108.788 86.543H110.394V90.547H108.788V86.543ZM110.372 92.395H111.494V93.407C111.494 93.737 111.56 93.781 112.044 93.781C112.286 93.781 113.496 93.781 113.804 93.781C114.134 93.781 114.222 93.781 114.266 93.715C114.508 93.869 114.904 93.957 115.19 94.001C115.102 94.419 114.772 94.595 114.002 94.595C113.738 94.595 112.176 94.595 111.956 94.595C110.68 94.595 110.372 94.397 110.372 93.385V92.395ZM107.886 92.461H108.92C108.898 93.957 108.26 94.639 105.796 94.881C105.73 94.639 105.488 94.265 105.29 94.089C107.38 93.935 107.842 93.583 107.886 92.461ZM105.18 92.901V95.365H114.266V92.901H105.18ZM103.816 91.933H115.674V96.311H103.816V91.933ZM105.972 99.875V100.821H113.54V99.875H105.972ZM105.972 101.613V102.625H113.54V101.613H105.972ZM105.972 98.137V99.061H113.54V98.137H105.972ZM104.476 97.125H115.08V103.615H104.476V97.125ZM110.702 104.429L111.736 103.549C113.364 104.297 115.256 105.221 116.378 105.881L115.036 106.805C114.024 106.145 112.286 105.199 110.702 104.429ZM107.16 103.593L108.524 104.407C107.27 105.331 105.268 106.277 103.618 106.783C103.376 106.475 102.892 106.013 102.562 105.749C104.234 105.265 106.214 104.385 107.16 103.593ZM96.798 93.187H102.452V94.507H96.798V93.187ZM96.93 87.313H102.386V88.633H96.93V87.313ZM96.798 96.135H102.452V97.455H96.798V96.135ZM95.896 90.195H103.002V91.559H95.896V90.195ZM97.568 99.105H102.43V105.507H97.568V104.143H101.044V100.469H97.568V99.105ZM96.754 99.105H98.118V106.541H96.754V99.105ZM119.348 87.709H138.51V89.205H119.348V87.709ZM128.214 88.347H129.93V96.883C129.93 101.129 128.764 104.913 119.942 106.783C119.766 106.431 119.304 105.727 118.952 105.331C127.532 103.747 128.214 100.513 128.214 96.861V88.347ZM122.934 95.959V98.203H135.474V95.959H122.934ZM122.934 92.439V94.639H135.474V92.439H122.934ZM121.372 91.053H137.146V99.589H121.372V91.053ZM123.484 99.765C126.278 104.121 131.294 104.869 139.236 105.067C138.95 105.463 138.62 106.167 138.532 106.695C130.436 106.365 125.024 105.331 122.076 100.337L123.484 99.765ZM146.342 91.383L147.442 90.415C149.092 91.185 151.116 92.417 152.106 93.341L150.94 94.419C149.994 93.495 147.992 92.197 146.342 91.383ZM156.506 88.391H156.836L157.122 88.303L158.2 88.963C155.34 94.089 148.828 97.169 143.02 98.445C142.866 98.027 142.536 97.345 142.228 96.993C147.772 95.959 154.108 92.989 156.506 88.655V88.391ZM149.158 88.391H156.924V89.777H149.158V88.391ZM150.786 86.499L152.634 86.895C150.61 89.227 147.618 91.405 143.526 93.033C143.284 92.637 142.778 92.087 142.404 91.801C146.364 90.415 149.268 88.347 150.786 86.499ZM149.158 99.457L150.368 98.511C152.106 99.413 154.218 100.799 155.274 101.855L153.976 102.911C152.986 101.877 150.896 100.403 149.158 99.457ZM159.718 96.091H160.048L160.356 96.003L161.434 96.597C158.662 103.021 151.798 105.771 144.604 106.827C144.494 106.365 144.164 105.683 143.9 105.309C150.698 104.495 157.342 101.877 159.718 96.333V96.091ZM152.568 96.091H160.158V97.499H152.568V96.091ZM154.35 94.023L156.176 94.441C153.954 97.037 150.478 99.435 145.66 101.129C145.462 100.755 144.978 100.161 144.626 99.853C149.29 98.401 152.634 96.113 154.35 94.023Z" fill="white"/>
<circle cx="22" cy="53" r="22" fill="#FF5F17"/>
<path d="M23.172 64.001L26.9902 40.7282H30.172L26.3538 64.001H23.172ZM12.6833 58.001L13.2174 54.8192H31.1265L30.5924 58.001H12.6833ZM14.9902 64.001L18.8083 40.7282H21.9902L18.172 64.001H14.9902ZM14.0356 49.9101L14.5583 46.7282H32.4674L31.9447 49.9101H14.0356ZM66.5784 36.865H70.5144V41.441H66.5784V36.865ZM55.0264 39.361H82.2584V46.593H78.3544V42.849H58.7704V46.593H55.0264V39.361ZM59.8904 44.897H77.1704V48.161H59.8904V44.897ZM63.0264 50.593L65.9704 48.865C73.5224 54.113 73.4584 63.137 70.0344 65.601C68.8184 66.657 67.7944 66.945 66.0984 66.945C65.2984 66.977 64.3384 66.945 63.3784 66.881C63.3144 65.825 62.9624 64.289 62.2904 63.201C63.4744 63.329 64.5304 63.361 65.3624 63.361C66.1624 63.361 66.7704 63.265 67.3144 62.689C69.1384 61.281 69.1384 54.945 63.0264 50.593ZM68.0824 45.729L71.2504 47.041C67.8584 50.497 62.0344 52.961 56.6904 54.369C56.3384 53.633 55.3464 52.097 54.7384 51.393C59.8264 50.369 65.2984 48.385 68.0824 45.729ZM65.5864 52.097L68.0504 53.825C65.3944 55.873 60.6904 58.241 57.1064 59.489C56.6904 58.657 55.8904 57.345 55.1864 56.577C58.6744 55.745 63.3144 53.825 65.5864 52.097ZM68.1784 55.137L70.8024 57.089C67.3784 60.353 61.1384 63.745 56.0504 65.441C55.6024 64.481 54.7704 63.105 54.0344 62.273C59.0904 61.025 65.2024 58.017 68.1784 55.137ZM73.0424 46.273C74.5784 52.993 77.8744 58.721 83.5384 61.249C82.6744 62.017 81.4584 63.553 80.8824 64.609C74.8344 61.377 71.6344 54.977 69.8104 46.913L73.0424 46.273ZM79.2824 48.353L82.2904 50.945C80.0824 52.609 77.2984 54.401 75.2184 55.457L72.7544 53.153C74.7704 52.001 77.6184 49.953 79.2824 48.353ZM93.7464 44.545H99.2504V47.617H93.7464V44.545ZM95.9224 51.297H100.69V54.177H95.9224V51.297ZM103.09 50.785H116.466V54.049H103.09V50.785ZM103.698 57.665H115.858V60.865H103.698V57.665ZM107.826 46.305H111.378V59.329H107.826V46.305ZM98.2904 44.545H98.7384L99.2824 44.417L101.65 45.185C100.21 48.193 98.0984 52.033 96.2744 55.105L93.2664 54.177C95.0904 51.169 97.2024 47.105 98.2904 44.929V44.545ZM113.426 43.777L115.922 46.369C112.626 47.553 107.986 48.225 104.05 48.545C103.922 47.809 103.506 46.593 103.122 45.857C106.802 45.441 110.962 44.705 113.426 43.777ZM96.0824 55.553C97.8744 62.049 101.938 63.105 107.698 63.137C109.298 63.137 115.25 63.137 117.234 63.073C116.69 63.873 116.178 65.473 115.986 66.497H107.538C100.178 66.497 95.6664 64.865 93.2664 56.449L96.0824 55.553ZM99.4744 51.297H100.146L100.754 51.201L102.802 51.841C101.682 59.713 98.7384 64.577 94.4184 67.041C93.9384 66.305 92.7224 64.993 92.0184 64.481C96.0504 62.401 98.6424 58.305 99.4744 51.873V51.297ZM100.882 36.833H104.882V41.345H100.882V36.833ZM91.1224 39.585H116.466V43.009H91.1224V39.585ZM89.1704 39.585H92.8824V48.801C92.8824 54.017 92.4664 61.921 89.8424 66.945C89.1384 66.305 87.5064 65.185 86.6104 64.833C88.9784 60.225 89.1704 53.505 89.1704 48.801V39.585ZM134.93 62.337H146.13V65.729H134.93V62.337ZM138.578 36.833H142.29V42.209H138.578V36.833ZM132.978 54.753H148.114V66.753H144.338V58.113H136.594V66.881H132.978V54.753ZM131.762 40.417H149.426V43.777H131.762V40.417ZM130.834 49.025H150.194V52.449H130.834V49.025ZM143.538 43.425L147.154 44.289C146.482 46.145 145.81 48.033 145.234 49.313L142.098 48.513C142.61 47.105 143.25 44.961 143.538 43.425ZM133.938 44.353L137.202 43.585C137.874 45.089 138.45 47.105 138.642 48.449L135.154 49.313C135.058 48.001 134.514 45.889 133.938 44.353ZM121.426 38.209H128.978V41.633H124.786V66.913H121.426V38.209ZM127.794 38.209H128.466L129.01 38.081L131.634 39.553C130.77 42.369 129.682 45.921 128.722 48.449C130.77 50.945 131.122 53.153 131.122 55.009C131.122 57.121 130.674 58.465 129.65 59.233C129.138 59.617 128.498 59.809 127.794 59.937C127.186 60.033 126.418 60.033 125.65 60.001C125.618 59.041 125.33 57.537 124.786 56.577C125.362 56.609 125.81 56.641 126.194 56.609C126.546 56.609 126.834 56.545 127.09 56.353C127.474 56.065 127.666 55.425 127.666 54.497C127.666 53.025 127.218 51.009 125.362 48.833C126.29 45.953 127.346 41.409 127.794 39.393V38.209ZM171.058 37.249H174.93V66.881H171.058V37.249ZM163.89 46.945H182.226V50.497H163.89V46.945ZM162.61 54.817H183.538V58.369H162.61V54.817ZM163.794 39.617L167.026 38.433C168.146 40.513 169.298 43.297 169.682 45.121L166.226 46.497C165.906 44.705 164.85 41.825 163.794 39.617ZM178.93 38.177L182.866 39.553C181.682 41.985 180.402 44.609 179.378 46.337L176.242 45.121C177.202 43.233 178.354 40.321 178.93 38.177ZM160.562 36.897L164.146 38.049C161.97 43.489 158.45 49.217 154.802 52.833C154.482 51.937 153.458 49.825 152.818 48.897C155.858 46.017 158.834 41.473 160.562 36.897ZM157.49 45.761L161.106 42.113L161.138 42.145V66.785H157.49V45.761ZM188.114 43.489H212.626V47.425H188.114V43.489ZM211.058 43.489H215.058C215.058 43.489 215.026 44.801 214.962 45.345C214.322 58.145 213.682 63.009 212.242 64.705C211.314 65.921 210.386 66.273 208.978 66.465C207.762 66.657 205.778 66.625 203.826 66.529C203.762 65.409 203.218 63.681 202.482 62.561C204.53 62.721 206.418 62.753 207.282 62.753C207.922 62.753 208.306 62.625 208.754 62.209C209.874 61.121 210.514 56.065 211.058 44.257V43.489ZM197.938 36.897H202.002V43.489C202.002 50.753 200.978 60.897 190.098 67.041C189.49 66.113 188.05 64.609 187.09 63.937C197.042 58.529 197.938 49.665 197.938 43.489V36.897Z" fill="white"/>
<defs>
<clipPath id="clip0_113_1928">
<rect width="212" height="13" fill="white" transform="translate(17 140)"/>
</clipPath>
</defs>
</svg>
