<svg width="242" height="153" viewBox="0 0 242 153" fill="none" xmlns="http://www.w3.org/2000/svg">
<g clip-path="url(#clip0_192_1671)">
<path d="M123.605 146.987V147.304C83.4245 133.448 34.9917 142.804 17.6055 146.987V152.681C34.9917 148.497 83.4245 139.138 123.605 152.998V152.681C140.992 148.497 189.424 139.138 229.605 152.998V147.304C189.424 133.445 140.992 142.801 123.605 146.987Z" fill="#FF5F17"/>
</g>
<path d="M123.605 11.4635C67.0104 -14.3293 13.6055 11.4635 13.6055 11.4635V142.713C31.6478 138.925 81.9082 130.452 123.605 143V142.713C141.648 138.925 191.908 130.452 233.605 143V11.4635C177.01 -14.3293 123.605 11.4635 123.605 11.4635Z" fill="#FF5F17"/>
<circle cx="22.6055" cy="72" r="22" fill="#39BF63"/>
<path d="M23.7775 83L27.5956 59.7273H30.7775L26.9593 83H23.7775ZM13.2888 77L13.8229 73.8182H31.732L31.1979 77H13.2888ZM15.5956 83L19.4138 59.7273H22.5956L18.7775 83H15.5956ZM14.6411 68.9091L15.1638 65.7273H33.0729L32.5502 68.9091H14.6411ZM54.8318 68.664H63.3758V72.28H54.8318V68.664ZM59.2478 62.296H69.6158V65.976H59.2478V62.296ZM71.0558 63.704C71.7172 66.2853 72.6345 68.6853 73.8078 70.904C74.9812 73.1013 76.4532 75.0427 78.2238 76.728C79.9945 78.392 82.0852 79.6827 84.4958 80.6C84.2185 80.8347 83.8985 81.1547 83.5358 81.56C83.1945 81.9653 82.8638 82.392 82.5438 82.84C82.2452 83.2667 81.9998 83.6613 81.8078 84.024C79.2692 82.8507 77.1038 81.3253 75.3118 79.448C73.5198 77.5493 72.0158 75.3413 70.7998 72.824C69.6052 70.2853 68.6132 67.4907 67.8238 64.44L71.0558 63.704ZM79.8558 64.824L83.3758 67.448C82.4798 68.2587 81.5305 69.08 80.5278 69.912C79.5252 70.7227 78.5332 71.5013 77.5518 72.248C76.5705 72.9947 75.6425 73.656 74.7678 74.232L72.0798 71.992C72.9332 71.3947 73.8292 70.6907 74.7678 69.88C75.7065 69.0693 76.6238 68.2267 77.5198 67.352C78.4158 66.4773 79.1945 65.6347 79.8558 64.824ZM67.3118 62.296H71.4398V81.4C71.4398 82.424 71.3118 83.224 71.0558 83.8C70.7998 84.3973 70.3305 84.856 69.6478 85.176C68.9865 85.4747 68.1652 85.656 67.1838 85.72C66.2025 85.784 65.0292 85.816 63.6638 85.816C63.5785 85.2613 63.4078 84.6107 63.1518 83.864C62.8958 83.1173 62.6292 82.488 62.3518 81.976C62.8852 81.9973 63.4398 82.0187 64.0158 82.04C64.5918 82.0613 65.1038 82.072 65.5518 82.072C66.0212 82.0507 66.3518 82.04 66.5438 82.04C66.8425 82.0187 67.0452 81.9653 67.1518 81.88C67.2585 81.7733 67.3118 81.592 67.3118 81.336V62.296ZM61.7438 59.064L63.6958 55.928C64.6132 56.12 65.6158 56.3653 66.7038 56.664C67.7918 56.9627 68.8798 57.2933 69.9678 57.656C71.0558 58.0187 72.0798 58.392 73.0398 58.776C74.0212 59.1387 74.8425 59.5013 75.5038 59.864L73.4558 63.416C72.8158 63.0533 72.0265 62.6693 71.0878 62.264C70.1705 61.8587 69.1678 61.4533 68.0798 61.048C67.0132 60.6427 65.9358 60.2693 64.8478 59.928C63.7598 59.5867 62.7252 59.2987 61.7438 59.064ZM61.9358 68.664H62.7038L63.3758 68.504L65.9358 69.592C65.4238 71.832 64.7305 73.8693 63.8558 75.704C62.9812 77.5387 61.9678 79.1493 60.8158 80.536C59.6638 81.9013 58.4372 83.032 57.1358 83.928C56.9225 83.6507 56.6345 83.3307 56.2718 82.968C55.9092 82.584 55.5252 82.2213 55.1198 81.88C54.7145 81.5173 54.3518 81.24 54.0318 81.048C55.2905 80.28 56.4425 79.32 57.4878 78.168C58.5545 77.016 59.4718 75.6933 60.2398 74.2C61.0078 72.7067 61.5732 71.1067 61.9358 69.4V68.664ZM103.792 75.928V76.952H112.08V75.928H103.792ZM103.792 78.52V79.608H112.08V78.52H103.792ZM103.792 73.368V74.36H112.08V73.368H103.792ZM100.464 71.512H115.568V81.432H100.464V71.512ZM108.72 82.712L111.152 80.76C111.92 81.1013 112.709 81.464 113.52 81.848C114.352 82.2107 115.141 82.5733 115.888 82.936C116.635 83.2987 117.275 83.64 117.808 83.96L114.544 85.912C114.117 85.6133 113.584 85.2827 112.944 84.92C112.304 84.5573 111.611 84.1733 110.864 83.768C110.139 83.384 109.424 83.032 108.72 82.712ZM105.904 55.8H109.648V62.104H105.904V55.8ZM98.7038 57.496H117.104V59.832H98.7038V57.496ZM100.24 60.824H115.856V63.032H100.24V60.824ZM102.288 65.848V68.696H113.552V65.848H102.288ZM99.3758 63.96H116.656V70.552H99.3758V63.96ZM105.104 65.112H107.376C107.248 66.0507 106.907 66.7973 106.352 67.352C105.797 67.8853 104.827 68.3013 103.44 68.6C103.333 68.3653 103.163 68.1093 102.928 67.832C102.693 67.5547 102.469 67.3307 102.256 67.16C103.28 66.9893 103.984 66.7547 104.368 66.456C104.773 66.136 105.019 65.688 105.104 65.112ZM108.56 64.664H111.216V65.976C111.216 66.2747 111.248 66.4667 111.312 66.552C111.376 66.616 111.525 66.648 111.76 66.648C111.845 66.648 111.984 66.648 112.176 66.648C112.368 66.648 112.571 66.648 112.784 66.648C112.997 66.648 113.136 66.648 113.2 66.648C113.392 66.648 113.531 66.6373 113.616 66.616C113.701 66.5947 113.755 66.552 113.776 66.488C114.032 66.5947 114.352 66.6907 114.736 66.776C115.12 66.84 115.461 66.8933 115.76 66.936C115.696 67.3413 115.493 67.6293 115.152 67.8C114.832 67.9493 114.32 68.024 113.616 68.024C113.488 68.024 113.328 68.024 113.136 68.024C112.944 68.024 112.72 68.024 112.464 68.024C112.229 68.024 112.016 68.024 111.824 68.024C111.632 68.024 111.472 68.024 111.344 68.024C110.597 68.024 110.021 67.9707 109.616 67.864C109.211 67.736 108.933 67.5227 108.784 67.224C108.635 66.9253 108.56 66.4987 108.56 65.944V64.664ZM104.112 80.76L106.928 82.68C106.288 83.064 105.541 83.4587 104.688 83.864C103.835 84.2907 102.96 84.664 102.064 84.984C101.189 85.3253 100.357 85.6027 99.5678 85.816C99.2905 85.5173 98.9172 85.1547 98.4478 84.728C97.9785 84.3013 97.5518 83.9493 97.1678 83.672C97.9785 83.4587 98.8212 83.192 99.6958 82.872C100.571 82.552 101.392 82.2107 102.16 81.848C102.949 81.464 103.6 81.1013 104.112 80.76ZM92.1118 55.832L95.3758 56.92C94.9492 57.7307 94.5012 58.584 94.0318 59.48C93.5838 60.3547 93.1358 61.1867 92.6878 61.976C92.2398 62.7653 91.8025 63.4587 91.3758 64.056L88.8478 63.096C89.2318 62.4347 89.6265 61.688 90.0318 60.856C90.4372 60.024 90.8212 59.16 91.1838 58.264C91.5678 57.368 91.8772 56.5573 92.1118 55.832ZM95.4398 59.64L98.5438 60.952C97.8398 62.1467 97.0612 63.416 96.2078 64.76C95.3545 66.0827 94.5012 67.352 93.6478 68.568C92.7945 69.784 91.9838 70.8507 91.2158 71.768L89.0078 70.616C89.5625 69.8907 90.1385 69.08 90.7358 68.184C91.3332 67.2667 91.9092 66.3173 92.4638 65.336C93.0398 64.3333 93.5732 63.3413 94.0638 62.36C94.5758 61.3787 95.0345 60.472 95.4398 59.64ZM87.3118 63.32L89.1998 60.76C89.7332 61.2507 90.2772 61.7947 90.8318 62.392C91.4078 62.9893 91.9305 63.5867 92.3998 64.184C92.8905 64.76 93.2638 65.304 93.5198 65.816L91.4398 68.76C91.2265 68.2267 90.8852 67.6507 90.4158 67.032C89.9678 66.392 89.4665 65.752 88.9118 65.112C88.3785 64.4507 87.8452 63.8533 87.3118 63.32ZM94.4798 67L97.0078 66.136C97.3918 66.8613 97.7438 67.64 98.0638 68.472C98.4052 69.304 98.6932 70.1147 98.9278 70.904C99.1838 71.6933 99.3545 72.3973 99.4398 73.016L96.7198 74.04C96.6558 73.4213 96.5065 72.7173 96.2718 71.928C96.0585 71.1173 95.7918 70.2853 95.4718 69.432C95.1732 68.5573 94.8425 67.7467 94.4798 67ZM87.3118 70.04C88.6558 69.9973 90.2345 69.9333 92.0478 69.848C93.8612 69.7413 95.7172 69.6347 97.6158 69.528V72.536C95.8665 72.664 94.1278 72.792 92.3998 72.92C90.6932 73.048 89.1252 73.1653 87.6958 73.272L87.3118 70.04ZM95.1838 75.224L97.6798 74.456C97.9998 75.2667 98.2985 76.1627 98.5758 77.144C98.8532 78.104 99.0558 78.9253 99.1838 79.608L96.5598 80.504C96.4532 79.7787 96.2612 78.9253 95.9838 77.944C95.7278 76.9627 95.4612 76.056 95.1838 75.224ZM88.5278 74.616L91.5038 75.128C91.3332 76.664 91.0878 78.168 90.7678 79.64C90.4692 81.112 90.0958 82.36 89.6478 83.384C89.4345 83.256 89.1572 83.1173 88.8158 82.968C88.4745 82.7973 88.1332 82.6373 87.7918 82.488C87.4505 82.3173 87.1518 82.1893 86.8958 82.104C87.3652 81.144 87.7278 79.992 87.9838 78.648C88.2398 77.304 88.4212 75.96 88.5278 74.616ZM91.8878 71.576H95.0878V85.88H91.8878V71.576ZM122 58.648H134.192V61.848H122V58.648ZM121.68 76.728H134.512V79.96H121.68V76.728ZM134.864 61.976H146.48V65.528H134.864V61.976ZM120.72 63.864H135.472V67.096H120.72V63.864ZM121.392 71.288H134.896V74.52H121.392V71.288ZM126.448 55.768H130V65.112H126.448V55.768ZM126.448 72.344H130V85.784H126.448V72.344ZM134.256 71.576L136.272 68.824C137.317 69.4213 138.416 70.1147 139.568 70.904C140.741 71.672 141.84 72.4507 142.864 73.24C143.888 74.0293 144.709 74.776 145.328 75.48L143.152 78.648C142.555 77.9227 141.755 77.144 140.752 76.312C139.771 75.4587 138.704 74.616 137.552 73.784C136.421 72.952 135.323 72.216 134.256 71.576ZM130.864 66.648L134.064 67.448C133.723 68.2373 133.392 69.016 133.072 69.784C132.773 70.552 132.496 71.224 132.24 71.8L129.488 71.064C129.659 70.6373 129.829 70.168 130 69.656C130.171 69.144 130.331 68.6213 130.48 68.088C130.651 67.5547 130.779 67.0747 130.864 66.648ZM122.704 67.48L125.552 66.68C125.893 67.3627 126.192 68.12 126.448 68.952C126.725 69.7627 126.907 70.456 126.992 71.032L123.952 71.96C123.909 71.3627 123.76 70.648 123.504 69.816C123.269 68.9627 123.003 68.184 122.704 67.48ZM144.592 61.976H148.24C148.219 63.4267 148.187 64.92 148.144 66.456C148.101 67.992 148.08 69.496 148.08 70.968C148.08 72.44 148.091 73.8267 148.112 75.128C148.133 76.408 148.176 77.56 148.24 78.584C148.325 79.608 148.421 80.4187 148.528 81.016C148.635 81.6133 148.784 81.944 148.976 82.008C149.04 82.0293 149.093 81.8053 149.136 81.336C149.179 80.8453 149.221 80.2267 149.264 79.48C149.307 78.712 149.328 77.912 149.328 77.08C149.52 77.3787 149.744 77.7093 150 78.072C150.256 78.4347 150.512 78.7653 150.768 79.064C151.045 79.3627 151.269 79.5973 151.44 79.768C151.376 81.6027 151.152 82.9893 150.768 83.928C150.405 84.888 149.947 85.4853 149.392 85.72C148.837 85.976 148.219 85.9653 147.536 85.688C146.875 85.4107 146.341 84.7707 145.936 83.768C145.531 82.7653 145.232 81.496 145.04 79.96C144.848 78.4027 144.72 76.6533 144.656 74.712C144.592 72.7707 144.56 70.7227 144.56 68.568C144.581 66.392 144.592 64.1947 144.592 61.976ZM138.672 55.864H142.256V65.72C142.256 67.32 142.171 69.0267 142 70.84C141.851 72.632 141.52 74.4347 141.008 76.248C140.517 78.04 139.781 79.768 138.8 81.432C137.84 83.0747 136.539 84.5573 134.896 85.88C134.683 85.6453 134.405 85.3787 134.064 85.08C133.723 84.7813 133.36 84.4933 132.976 84.216C132.613 83.9387 132.283 83.7147 131.984 83.544C133.499 82.3493 134.704 81.016 135.6 79.544C136.496 78.0507 137.157 76.504 137.584 74.904C138.032 73.2827 138.32 71.6933 138.448 70.136C138.597 68.5573 138.672 67.0747 138.672 65.688V55.864ZM167.344 57.624H182.96V61.304H167.344V57.624ZM175.44 67.608H179.376V81.432C179.376 82.4347 179.248 83.224 178.992 83.8C178.757 84.3973 178.288 84.8453 177.584 85.144C176.88 85.4213 176.016 85.592 174.992 85.656C173.968 85.7413 172.741 85.784 171.312 85.784C171.226 85.2293 171.066 84.568 170.832 83.8C170.618 83.0533 170.384 82.4133 170.128 81.88C170.746 81.9013 171.365 81.9227 171.984 81.944C172.602 81.9653 173.157 81.976 173.648 81.976C174.138 81.9547 174.48 81.944 174.672 81.944C174.97 81.944 175.173 81.9013 175.28 81.816C175.386 81.7093 175.44 81.5493 175.44 81.336V67.608ZM165.968 66.52H183.792V70.168H165.968V66.52ZM158.768 70.296L162.128 66.904L162.608 67.096V85.912H158.768V70.296ZM162.384 62.776L166.032 64.184C165.2 65.592 164.229 67.0107 163.12 68.44C162.032 69.848 160.88 71.1813 159.664 72.44C158.469 73.6987 157.296 74.7973 156.144 75.736C155.973 75.4587 155.728 75.1173 155.408 74.712C155.088 74.2853 154.757 73.8587 154.416 73.432C154.096 73.0053 153.797 72.664 153.52 72.408C154.629 71.64 155.728 70.744 156.816 69.72C157.904 68.6747 158.928 67.5653 159.888 66.392C160.848 65.1973 161.68 63.992 162.384 62.776ZM161.168 55.8L164.88 57.336C164.09 58.3387 163.205 59.3627 162.224 60.408C161.242 61.432 160.218 62.4133 159.152 63.352C158.085 64.2907 157.04 65.112 156.016 65.816C155.866 65.5173 155.664 65.176 155.408 64.792C155.152 64.3867 154.885 63.992 154.608 63.608C154.352 63.224 154.106 62.904 153.872 62.648C154.768 62.0933 155.674 61.4213 156.592 60.632C157.509 59.8427 158.373 59.032 159.184 58.2C159.994 57.3467 160.656 56.5467 161.168 55.8ZM188.72 62.488H213.264V66.424H188.72V62.488ZM211.664 62.488H215.664C215.664 62.488 215.664 62.6053 215.664 62.84C215.664 63.0747 215.653 63.3413 215.632 63.64C215.632 63.9173 215.621 64.1413 215.6 64.312C215.429 67.512 215.259 70.2533 215.088 72.536C214.917 74.7973 214.725 76.6747 214.512 78.168C214.32 79.6613 214.085 80.8453 213.808 81.72C213.552 82.5947 213.243 83.2453 212.88 83.672C212.389 84.2907 211.888 84.7173 211.376 84.952C210.885 85.1867 210.288 85.3467 209.584 85.432C209.008 85.5173 208.251 85.56 207.312 85.56C206.373 85.56 205.413 85.5493 204.432 85.528C204.411 84.952 204.272 84.28 204.016 83.512C203.781 82.744 203.483 82.0933 203.12 81.56C204.144 81.6453 205.083 81.6987 205.936 81.72C206.811 81.72 207.461 81.72 207.888 81.72C208.208 81.72 208.485 81.688 208.72 81.624C208.955 81.56 209.168 81.4213 209.36 81.208C209.637 80.9307 209.893 80.3973 210.128 79.608C210.363 78.7973 210.565 77.6773 210.736 76.248C210.928 74.8187 211.099 73.0373 211.248 70.904C211.397 68.7493 211.536 66.2 211.664 63.256V62.488ZM198.544 55.864H202.64V62.488C202.64 63.9387 202.565 65.4853 202.416 67.128C202.288 68.7707 202.011 70.4453 201.584 72.152C201.157 73.8373 200.507 75.512 199.632 77.176C198.757 78.84 197.595 80.4293 196.144 81.944C194.715 83.4587 192.912 84.824 190.736 86.04C190.523 85.72 190.235 85.3573 189.872 84.952C189.531 84.5467 189.157 84.1627 188.752 83.8C188.368 83.4373 188.016 83.1387 187.696 82.904C189.701 81.8373 191.355 80.6427 192.656 79.32C193.979 77.9973 195.035 76.6213 195.824 75.192C196.613 73.7413 197.2 72.28 197.584 70.808C197.989 69.3147 198.245 67.864 198.352 66.456C198.48 65.0267 198.544 63.704 198.544 62.488V55.864Z" fill="white"/>
<defs>
<clipPath id="clip0_192_1671">
<rect width="212" height="13" fill="white" transform="translate(17.6055 140)"/>
</clipPath>
</defs>
</svg>
