<svg width="1920" height="114" viewBox="0 0 1920 114" fill="none" xmlns="http://www.w3.org/2000/svg">
<path fill-rule="evenodd" clip-rule="evenodd" d="M1917.81 33.6035C1906.13 66.7383 1835.75 81.8408 1775.07 84.3363C1701.23 87.3678 1626.1 80.3712 1558.11 64.1226C1525.28 56.2756 1493.81 46.2751 1459.16 41.3858C1431.05 37.4207 1401.35 36.9863 1372.88 40.1195C1317.04 46.2566 1269.19 65.3888 1217.52 78.652C1112.99 105.483 988.794 107.683 881.404 84.6135C825.053 72.5056 770.783 53.5028 710.35 53.6137C651.95 53.7246 599.363 71.683 546.226 85.131C454.228 108.432 350.386 119.199 250.625 109.957C150.865 100.714 56.0183 70.3428 -0.000236357 23.6213C560.785 -3.45956 1124.68 -0.603541 1687.57 2.27097C1744.12 2.55749 1800.67 2.84402 1857.22 3.13979C1879.13 3.25071 1903.41 3.88845 1919 12.4286C1934.6 20.9688 1929.4 39.9347 1907.53 40.554" fill="#E1F9E9"/>
</svg>
