<svg width="395" height="270" viewBox="0 0 395 270" fill="none" xmlns="http://www.w3.org/2000/svg">
<g clip-path="url(#clip0_1145_161)">
<path fill-rule="evenodd" clip-rule="evenodd" d="M338.5 131.04C328.51 131.04 319.14 133.64 311 138.18C311 138.13 311 138.09 311 138.04C311 117.05 293.99 100.04 273 100.04C262.1 100.04 252.27 104.64 245.34 111.99C231.05 90.9 206.89 77.04 179.5 77.04C144.03 77.04 113.99 100.28 103.76 132.36C98.13 128.98 91.55 127.04 84.5 127.04C71.38 127.04 59.83 133.79 53.13 144C50.18 143.38 47.13 143.04 44 143.04C19.7 143.04 0 162.74 0 187.04C0 211.34 19.7 231.04 44 231.04C45.69 231.04 47.35 230.94 48.99 230.75C57.85 250.37 77.57 264.04 100.5 264.04C118.93 264.04 135.3 255.21 145.61 241.55C155.83 251.74 169.93 258.04 185.5 258.04C196.86 258.04 207.42 254.68 216.28 248.91C226.64 261.21 242.16 269.04 259.5 269.04C282.07 269.04 301.55 255.8 310.6 236.66C318.83 241.35 328.35 244.04 338.5 244.04C369.7 244.04 395 218.74 395 187.54C395 156.34 369.7 131.04 338.5 131.04Z" fill="#7B4122"/>
<path fill-rule="evenodd" clip-rule="evenodd" d="M338.5 121.04C328.51 121.04 319.14 123.64 311 128.18C311 128.13 311 128.09 311 128.04C311 107.05 293.99 90.04 273 90.04C262.1 90.04 252.27 94.64 245.34 101.99C231.05 80.9 206.89 67.04 179.5 67.04C144.03 67.04 113.99 90.28 103.76 122.36C98.13 118.98 91.55 117.04 84.5 117.04C71.38 117.04 59.83 123.79 53.13 134C50.18 133.38 47.13 133.04 44 133.04C19.7 133.04 0 152.74 0 177.04C0 201.34 19.7 221.04 44 221.04C45.69 221.04 47.35 220.94 48.99 220.75C57.85 240.37 77.57 254.04 100.5 254.04C118.93 254.04 135.3 245.21 145.61 231.55C155.83 241.74 169.93 248.04 185.5 248.04C196.86 248.04 207.42 244.68 216.28 238.91C226.64 251.21 242.16 259.04 259.5 259.04C282.07 259.04 301.55 245.8 310.6 226.66C318.83 231.35 328.35 234.04 338.5 234.04C369.7 234.04 395 208.74 395 177.54C395 146.34 369.7 121.04 338.5 121.04Z" fill="#FF5F17"/>
<path fill-rule="evenodd" clip-rule="evenodd" d="M180.26 66.69C179.83 68.83 179.01 72.61 179.4 74.86C179.66 76.33 180.09 77.19 181.85 76.85C183.37 76.56 186.73 74.81 188.07 73.95C191.6 71.7 190.14 72.69 193.43 75.42C195.84 77.41 200.5 80.15 202.04 75.73C202.82 73.51 201.78 68.62 202.38 67.49C202.86 66.61 206.73 64.53 207.89 63.87C210.34 62.48 210.71 62.73 212.33 64.7C213.34 65.93 214.43 67.04 215.44 68.43C216.2 69.47 216.27 70.15 215.61 71.84C214.86 73.76 213.51 76.79 213.8 79.17C214.22 82.68 217.1 81.74 219.33 80.52C220.38 79.95 221.21 79.47 222.21 78.84C225.42 76.81 225.11 77.29 226.44 78.89L229.71 82.45C230.35 83.06 231.38 83.95 232.4 84.32C234.21 84.97 234.49 84.08 234.94 82.71C235.91 79.76 235.79 76.13 236.87 75.52C238.41 74.65 240.55 73.98 242.98 72.52C244.34 71.71 247.94 69.32 245 67.7C243.27 66.75 240.5 65.71 238.4 65.19C236.55 64.74 236.81 64.36 236.37 62.66C235.64 59.87 234.09 54.64 232.46 52.76C230.57 50.59 229.88 51.69 227.31 54.29L224.96 56.5C224.27 57.28 223.45 58.08 222.8 58.9C221.91 60.03 221.6 60.35 219.6 60.29C218.31 60.25 217.03 59.79 215.81 59.49C212.66 58.71 207.87 57.59 204.61 57.01C200.69 56.32 200.21 57.05 198.95 53.56C198.2 51.5 197.29 49.01 196.25 47.14C195.71 46.17 195.44 44.73 193.91 45.1C191.88 45.59 190.26 47.75 188.89 49.27C188.18 50.06 187.54 50.87 186.82 51.76C186.49 52.17 186.2 52.53 185.83 53.05C185.35 53.71 185.26 53.75 184.31 53.6C182.64 53.32 177.2 53.44 176.01 54.36C173.57 56.23 177.94 61.47 179.29 63.18C180.05 64.14 180.64 64.9 180.28 66.69H180.26Z" fill="#864322" stroke="#864322" stroke-width="4.09" stroke-miterlimit="10" stroke-linecap="round"/>
<path fill-rule="evenodd" clip-rule="evenodd" d="M207.38 38.41C207.62 38.69 207.75 38.81 207.98 39.17C208.11 39.38 208.26 39.73 208.45 39.98C210.04 38.75 209.95 37.89 213.24 38.73C213.61 39.03 214 39.17 214.43 39.55C214.88 39.95 215.01 40.23 215.42 40.75C217.41 39.72 217.89 39.13 220.8 40.22C221.3 40.64 221.62 40.8 222.08 41.28C222.89 42.13 222.72 42.26 223.06 42.66C223.81 42.1 224.41 41.39 226.29 41.54C228.73 41.93 228.86 42.73 229.77 43.74C230.13 43.46 230.34 43.18 230.87 42.87C231.46 42.53 231.9 42.61 232.41 42.25C232.53 41.69 232.12 38.68 231.92 38.14L231.3 32.12L230.7 26.11L230.45 23.84C230.43 21.82 230.05 19.09 229.84 17.08C229.61 14.86 229.36 12.65 229.07 10.45C227.59 10.3 227.44 9.96 226.41 9.64C223.78 11.48 220.02 15.16 217.83 17.65C217.33 18.21 217.1 18.53 216.48 19.11C215.96 19.6 215.65 20.1 215.15 20.61C214.57 21.12 214.26 21.64 213.69 22.21C213.37 22.53 212.45 23.55 212.21 23.92C211.58 24.38 211.02 25.26 210.47 25.83C210.12 26.19 210 26.4 209.66 26.76C209.3 27.14 209.12 27.35 208.8 27.84C208.54 28.02 204.61 32.67 204.3 33.19C203.72 33.68 201 37.07 200.67 37.76L201.18 38.75C202.11 38.19 203.65 35.53 207.38 38.41Z" fill="#864322" stroke="#864322" stroke-width="4.09" stroke-miterlimit="10" stroke-linecap="round"/>
<path fill-rule="evenodd" clip-rule="evenodd" d="M244.05 74.28C242.25 75.38 240.1 76.24 238.15 77.23C237.79 79.3 237.55 81.21 236.95 83.14C236.34 85.1 235.68 86.64 233.27 86.57C230.46 86.48 227.63 83.59 225.97 81.53C225.59 81.05 225.12 80.35 224.61 79.92C223.88 80.22 223.38 80.53 223.02 80.8C221.86 81.33 220.64 82.24 219.24 82.87C217.5 83.65 216.46 83.99 214.39 83.47C213.52 82.7 212.73 82.77 212.01 80.6C211.27 78.36 212.15 76.66 212.04 75.6L213.4 71.93C213.52 71.64 214.04 70.38 214.04 70.19C214.04 69.88 213.84 69.7 213.64 69.44C213.51 69.26 213.52 69.26 213.35 69.06L213 68.7C212.72 68.09 210.86 66.29 210.08 65.12C209.45 65.23 204.96 67.94 204.24 68.46C204.31 71.45 205.37 77.67 201.51 79.61C199.76 80.49 199.17 80.03 197.4 79.97C196.8 79.63 195.91 79.36 195.3 79.07C194.63 78.76 194.04 78.4 193.43 77.99C192.51 77.37 190.67 75.9 190.29 75.11C189.69 75.26 188.54 76.09 187.89 76.45C185.65 77.68 181.98 79.68 179.6 78.68C175.74 77.05 177.86 69.83 177.99 67.26C177.08 68.67 176.3 70.42 174.94 72.49C171.82 77.25 167.64 83.46 166.63 89.38C166.15 90.4 165.42 95.03 165.34 96.35C165.05 101.43 165.8 106.17 168.16 110.49C168.68 111.45 169.23 112.3 169.79 113.15C170.88 114.83 170.45 114.2 171.66 115.57C174.4 118.66 177.46 120.97 181.28 122.98C186.05 125.48 194.85 127.89 200.64 129.09C202.38 129.45 206.92 129.14 208.99 129.11C220.25 128.94 226.28 127.67 235.24 121.26C236.93 120.05 238.66 118.86 239.79 117.37C240.45 116.49 242.75 113.26 243.03 112.07C244.39 110.69 245.53 106.08 245.96 104.1C247.62 96.48 246.22 81.17 245.8 73.19C245.37 73.28 244.56 73.98 244.04 74.3L244.05 74.28Z" fill="#864322" stroke="#864322" stroke-width="4.09" stroke-miterlimit="10" stroke-linecap="round"/>
<path fill-rule="evenodd" clip-rule="evenodd" d="M252.73 42.43C249.88 37.78 244.89 38.67 240.9 41.11C240 41.66 239.11 42.35 238.52 43.02C238.12 43.47 236.82 44.84 236.81 45.48C236.79 46.99 236.9 47.73 236.02 48.83C235.44 49.56 234.45 50.19 233.09 50.36C233.63 51.21 234.16 51.46 235.06 52.99C236.72 55.82 237.46 59.44 238.43 62.61C238.72 63.56 239.44 63.28 241.96 64.2C242.95 64.56 244.38 65.27 245.25 65.5C245.32 62.07 244.16 60.39 246.4 58.4C248.16 56.84 248.76 56.83 251.09 54.51C254.4 51.22 255.85 47.52 252.73 42.43Z" fill="#864322" stroke="#864322" stroke-width="4.09" stroke-miterlimit="10" stroke-linecap="round"/>
<path fill-rule="evenodd" clip-rule="evenodd" d="M182.76 46.69C183.33 48.97 184.25 48.43 184.04 51.57C184.65 51.51 184.55 51.32 185.29 50.4L188.64 46.51C190.02 44.96 191.46 43.11 194.76 43.01C194.16 41.61 192.88 38.96 195.41 37.18C196.16 36.65 196.59 36.75 197.37 36.41C197.26 35.02 196.49 32.91 195.92 31.78C193.86 27.67 187.86 27.27 184.25 31.78C182.12 34.44 181.7 37.15 181.98 41.4C182.1 43.26 182.33 44.96 182.76 46.68V46.69Z" fill="#864322" stroke="#864322" stroke-width="4.09" stroke-miterlimit="10" stroke-linecap="round"/>
<path fill-rule="evenodd" clip-rule="evenodd" d="M199.05 48.24C202.15 54.84 199.93 54.34 203.98 54.87C205.61 55.08 207.18 55.47 208.84 55.8L215.77 57.37C216.88 57.8 219.62 58.56 220.68 58.01C221.15 57.76 223.26 55.41 223.72 54.88C224.65 53.81 225.84 52.99 226.82 51.95C227.7 51.02 228.75 49.82 230.54 49.52C228.6 47.27 228.82 49.89 226.16 49.96C225.12 49.99 224.2 49.68 223.61 49.15C222.71 48.35 222.89 47.9 222.27 47.11C220.79 47.94 220.55 48.68 218.04 48.48C216.35 48.11 215.23 47.21 214.77 45.66C214.31 45.9 214.16 46.19 213.66 46.57C213.22 46.91 212.9 46.97 212.42 47.22C209.92 47.56 208.41 46.32 207.81 44.43C207.09 44.9 206.02 46.46 203.41 45.87C201.75 45.49 201.18 44.29 200.65 42.73C199.77 43.71 199.03 44.43 197.16 44.38C197.61 45.57 198.47 46.98 199.05 48.23V48.24Z" fill="#864322" stroke="#864322" stroke-width="4.09" stroke-miterlimit="10" stroke-linecap="round"/>
<path fill-rule="evenodd" clip-rule="evenodd" d="M230.24 8.31C230.85 8.16 231.8 7.41 232.04 7.04C233.21 5.25 231.53 1.21 228.46 2.2C226.59 2.8 226.01 4.38 226.25 6.27C226.37 7.18 228.26 8.79 230.24 8.31Z" fill="#864322" stroke="#864322" stroke-width="4.09" stroke-miterlimit="10" stroke-linecap="round"/>
<path fill-rule="evenodd" clip-rule="evenodd" d="M217.94 41.88C217.13 42.35 216.31 43.64 216.71 45.06C217.04 46.2 218.41 46.9 219.79 46.27C223.14 44.75 219.91 40.72 217.94 41.88Z" fill="#864322" stroke="#864322" stroke-width="4.09" stroke-miterlimit="10" stroke-linecap="round"/>
<path fill-rule="evenodd" clip-rule="evenodd" d="M203.55 39.28C201.68 40.57 202.61 45.34 205.53 43.69C206.37 43.22 206.97 41.67 206.37 40.51C206.04 39.88 204.63 38.54 203.55 39.28Z" fill="#864322" stroke="#864322" stroke-width="4.09" stroke-miterlimit="10" stroke-linecap="round"/>
<path fill-rule="evenodd" clip-rule="evenodd" d="M211.1 40.51C208.57 41.41 209.65 46.39 212.2 45.11C215.01 43.7 213.48 39.66 211.1 40.51Z" fill="#864322" stroke="#864322" stroke-width="4.09" stroke-miterlimit="10" stroke-linecap="round"/>
<path fill-rule="evenodd" clip-rule="evenodd" d="M225.02 43.8C224.52 44.01 224.87 43.61 224.49 44.28C223.42 46.16 225.03 49.04 227.09 47.54C229.33 45.9 227.58 42.71 225.02 43.8Z" fill="#864322" stroke="#864322" stroke-width="4.09" stroke-miterlimit="10" stroke-linecap="round"/>
<path fill-rule="evenodd" clip-rule="evenodd" d="M231.03 46.1C230.82 48.77 234.57 49.11 234.8 46.48C234.9 45.39 234.08 44.12 233.16 44.31C231.94 44.56 231.13 44.8 231.02 46.11L231.03 46.1Z" fill="#864322" stroke="#864322" stroke-width="4.09" stroke-miterlimit="10" stroke-linecap="round"/>
<path fill-rule="evenodd" clip-rule="evenodd" d="M198.35 42.13C198.88 41.81 199.6 40.77 199.25 39.72C198.86 38.56 197.67 38.32 196.96 38.68C194.8 39.76 196.45 43.29 198.35 42.13Z" fill="#864322" stroke="#864322" stroke-width="4.09" stroke-miterlimit="10" stroke-linecap="round"/>
<path fill-rule="evenodd" clip-rule="evenodd" d="M197.7 80.03C197.02 80.26 196.57 80.62 195.89 80.86C194.02 81.5 191.85 82.04 189.91 82.39C184.71 83.33 176.64 83.59 172.66 85.11C170.71 85.86 169.55 86.63 168.14 88.11C167.92 88.34 167.74 88.49 167.53 88.7L167.01 89.33C167.01 89.33 166.96 89.4 166.93 89.43C166.45 90.45 165.72 95.08 165.64 96.4C165.35 101.48 166.1 106.22 168.46 110.54C168.98 111.5 169.53 112.35 170.09 113.2C171.18 114.88 170.75 114.25 171.96 115.62C174.7 118.71 177.76 121.02 181.58 123.03C186.35 125.53 195.15 127.94 200.94 129.14C202.68 129.5 207.22 129.19 209.29 129.16C220.55 128.99 226.58 127.72 235.54 121.31C237.23 120.1 238.96 118.91 240.09 117.42C240.75 116.54 243.05 113.31 243.33 112.12C243.19 108.8 240.95 103.77 239.46 101.63C235.94 96.57 232.84 94.69 227.9 91.74C225.43 90.27 224.78 90.18 223.23 89.31C220.43 87.74 219.17 87.3 216.51 85.3C215.82 84.78 215.1 84.14 214.68 83.53C213.81 82.76 213.02 82.83 212.3 80.66C211.56 78.42 212.44 76.72 212.33 75.66L213.28 68.77C213 68.16 211.14 66.36 210.36 65.19C209.73 65.3 205.24 68.01 204.52 68.53C204.59 71.52 205.65 77.74 201.79 79.68C200.04 80.56 199.45 80.1 197.68 80.04L197.7 80.03Z" fill="#FBDAD1"/>
<path fill-rule="evenodd" clip-rule="evenodd" d="M194.2 45.18C192.17 45.67 190.55 47.83 189.18 49.35C188.47 50.14 187.83 50.95 187.11 51.84C186.78 52.25 186.49 52.61 186.12 53.13C185.64 53.79 185.55 53.83 184.6 53.68C182.92 53.4 177.49 53.52 176.3 54.44C173.86 56.31 178.23 61.55 179.58 63.26C180.34 64.22 180.93 64.98 180.57 66.77C180.14 68.91 179.32 72.69 179.71 74.94C179.97 76.41 180.4 77.27 182.17 76.93C183.69 76.64 187.05 74.89 188.39 74.03C191.92 71.78 190.46 72.77 193.75 75.5C196.16 77.49 200.82 80.23 202.36 75.81C203.14 73.59 202.1 68.7 202.7 67.57C203.18 66.69 207.05 64.61 208.21 63.95C210.66 62.56 211.03 62.81 212.65 64.78C213.66 66.01 214.75 67.12 215.76 68.51C216.52 69.55 216.59 70.23 215.93 71.92C215.18 73.84 213.83 76.87 214.12 79.25C214.54 82.76 217.42 81.82 219.65 80.6C220.7 80.03 221.53 79.55 222.53 78.92C225.74 76.89 225.43 77.37 226.76 78.97L230.03 82.53C230.67 83.14 231.7 84.03 232.72 84.4C234.53 85.05 234.81 84.16 235.26 82.79C236.23 79.84 236.11 76.21 237.19 75.6C238.73 74.73 240.87 74.06 243.3 72.6C244.66 71.79 248.26 69.4 245.32 67.78C243.59 66.83 240.82 65.79 238.72 65.27C236.87 64.82 237.13 64.44 236.69 62.74C235.96 59.95 234.41 54.72 232.78 52.84C230.89 50.67 230.2 51.77 227.63 54.37L225.28 56.58C224.59 57.36 223.76 58.16 223.12 58.98C222.23 60.11 221.92 60.43 219.92 60.37C218.63 60.33 217.35 59.87 216.13 59.57C212.98 58.79 208.19 57.67 204.93 57.09C201.01 56.4 200.53 57.13 199.27 53.64C198.52 51.58 197.61 49.09 196.57 47.22C196.03 46.25 195.76 44.81 194.23 45.18H194.2Z" fill="#8EBBE5"/>
<path fill-rule="evenodd" clip-rule="evenodd" d="M182.08 103.22C182.86 104.9 181.86 105.46 185.9 111.88C191.27 120.41 200.86 125.5 211.52 121.8C215.82 120.31 221.69 116.32 224.47 112.91C224.96 112.31 225.56 111.8 225.97 111.2C226.85 109.93 226.12 110.36 227.9 110.04C230.46 109.58 232.32 108.43 233.87 106.49C234.36 105.88 234.73 105.36 235.19 104.72C235.55 104.21 236.36 103.11 235.61 102.4C234.69 101.53 234 102.79 233.77 103.17C233.4 103.8 232.83 104.51 232.42 105.04C230.38 107.67 227.84 108.58 223.22 108.11C215.36 107.31 206.18 102.53 191.76 101.72C187.73 101.49 184.13 101.72 180.3 100.72C176.96 99.84 174.53 98.49 172.99 95.43C172.8 95.06 172.32 93.31 172.14 93.19C171.48 92.74 171.05 93.84 171.28 95.14C171.91 98.66 174.14 100.5 177.2 101.82C179.66 102.88 180.22 102.66 182.07 103.23L182.08 103.22Z" fill="#864322"/>
<path fill-rule="evenodd" clip-rule="evenodd" d="M215.46 20.67C218.31 20.49 219.99 23.77 217.94 25.82C217.25 26.51 215.64 27.22 214.35 26.72C213.44 26.37 212.62 25.24 212.51 23.98C211.88 24.44 211.32 25.32 210.77 25.89C210.42 26.25 210.3 26.46 209.96 26.82C209.6 27.2 209.42 27.41 209.1 27.9C210.43 28.81 210.53 31.57 209.46 32.75C208.28 34.04 206.21 34.32 204.61 33.25C204.03 33.74 201.31 37.13 200.98 37.82L201.49 38.81C202.42 38.25 203.96 35.59 207.69 38.47C207.83 37.25 209.27 36 210.77 36.06C212.35 36.12 213.46 37.24 213.55 38.79C213.92 39.09 214.31 39.23 214.74 39.61C215.19 40.01 215.32 40.29 215.73 40.81C217.72 39.78 218.2 39.19 221.11 40.28C221.63 39.49 223.2 39.07 224.38 39.35C225.46 39.61 226.44 40.51 226.6 41.6C229.04 41.99 229.17 42.79 230.08 43.8C230.44 43.52 230.65 43.24 231.18 42.93C231.77 42.59 232.21 42.67 232.72 42.31C232.84 41.75 232.43 38.74 232.23 38.2C231.01 38.59 230.23 38.78 229.07 38.14C228.32 37.73 227.55 36.89 227.32 35.86C226.75 33.3 229.25 32.05 231.61 32.17L231.01 26.16C230.53 26.99 230.17 28.99 227.9 29.19C224.49 29.48 222.56 24.68 226.43 22.89C228.97 21.72 230.03 23.23 230.77 23.89C230.75 21.87 230.37 19.14 230.16 17.13C229.93 14.91 229.68 12.7 229.39 10.5C227.91 10.35 227.76 10 226.73 9.69C224.1 11.53 220.34 15.21 218.15 17.7C217.65 18.26 217.42 18.58 216.8 19.16C216.28 19.65 215.97 20.15 215.47 20.66L215.46 20.67Z" fill="#E64F0A"/>
<path fill-rule="evenodd" clip-rule="evenodd" d="M224.91 79.97C224.18 80.27 223.68 80.58 223.32 80.85C222.16 81.38 220.94 82.29 219.54 82.92C217.8 83.7 216.76 84.04 214.69 83.52C215.11 84.13 215.83 84.77 216.52 85.29C219.18 87.29 220.44 87.73 223.24 89.3C224.79 90.17 225.45 90.26 227.91 91.73C232.85 94.68 235.95 96.57 239.47 101.62C240.96 103.76 243.2 108.79 243.34 112.11C244.7 110.73 245.84 106.12 246.27 104.14C247.93 96.52 246.53 81.21 246.11 73.23C245.68 73.32 244.87 74.02 244.35 74.34C242.55 75.44 240.4 76.3 238.45 77.29C238.09 79.36 237.85 81.27 237.25 83.2C236.64 85.16 235.98 86.7 233.56 86.63C230.75 86.54 227.92 83.65 226.26 81.59C225.88 81.11 225.41 80.41 224.9 79.98L224.91 79.97Z" fill="#C7C8C2"/>
<path fill-rule="evenodd" clip-rule="evenodd" d="M230.1 54.82C229.06 55.26 225.86 58.8 224.94 59.89C224.57 60.32 224.33 60.55 223.91 61.01C223.32 61.65 222.8 62.75 221.37 62.69C219.37 62.61 216.63 61.19 214.66 61.14C213.1 61.1 213.22 62.73 213.89 63.67C215.06 65.29 216.45 66.84 217.46 68.28C218.2 69.33 218.38 70.06 217.92 71.52C217.38 73.22 215.94 75.97 215.8 77.7C215.54 81.05 219.54 78.47 220.67 77.9C221.67 77.39 222.41 76.95 223.27 76.34C226.05 74.38 225.05 75.03 228.74 78.87C229.09 79.23 229.47 79.54 229.8 79.96C230.37 80.71 233.67 84.52 234.15 81.09C234.32 79.88 234.27 78.57 234.43 77.32C234.64 75.64 234.43 75.02 235.58 74.3C238.15 72.7 248.08 70.4 241.4 68.09C239.72 67.51 236.04 66.66 235.37 65.82C234.7 64.98 233.88 60.98 233.44 59.58C232.94 57.99 231.89 54.1 230.11 54.84L230.1 54.82Z" fill="#5A8CC6"/>
<path fill-rule="evenodd" clip-rule="evenodd" d="M185.16 56.68C183.5 56.68 180.36 56.24 179.12 56.99C179.2 58.48 182.82 62.67 183.65 63.73C184.98 65.42 182.34 69.32 183.04 73.44C185.11 73.29 189.98 68.55 191.92 69.94C192.17 70.12 192.51 70.52 192.74 70.73L195.29 73.01C195.82 73.49 198.4 75.66 199.53 75.11C200.84 73.24 198.71 66.47 200.2 65.19C200.76 64.71 205.16 62.39 206.45 61.65L207.34 61.02C207.14 60.73 207.38 60.9 206.95 60.69C206.83 60.63 206.47 60.54 206.31 60.51C204.83 60.21 204.05 60.2 202.26 59.74C196.79 58.32 197.99 59.29 196.02 53.37C195.69 52.36 194.72 49.49 194.23 48.88C192.89 48.87 190.6 51.75 189.8 52.79C189.35 53.37 187.38 55.89 186.81 56.24C186.48 56.44 185.55 56.69 185.16 56.69V56.68Z" fill="#FFEB7C"/>
<path fill-rule="evenodd" clip-rule="evenodd" d="M185.16 57.29C184.76 57.29 184.24 57.26 183.67 57.23C182.33 57.16 180.73 57.07 179.82 57.35C180.3 58.66 182.49 61.35 183.61 62.72C183.82 62.98 183.99 63.19 184.13 63.36C184.98 64.44 184.61 65.98 184.16 67.85C183.81 69.3 183.41 70.99 183.56 72.7C184.25 72.44 185.19 71.86 186.17 71.25C188.38 69.88 190.79 68.39 192.28 69.45C192.48 69.59 192.69 69.81 192.88 70.01C192.98 70.11 193.07 70.21 193.16 70.28L195.7 72.56C196.02 72.85 197.12 73.78 198.14 74.29C198.53 74.48 198.89 74.62 199.13 74.6C199.53 73.77 199.36 71.92 199.21 70.11C199.01 67.82 198.81 65.59 199.81 64.73C200.24 64.36 202.42 63.17 204.19 62.21C205 61.77 205.72 61.38 206.12 61.15L206.19 61.1C205.64 60.99 205.19 60.92 204.74 60.85C203.99 60.73 203.25 60.62 202.12 60.33C201.52 60.17 200.99 60.04 200.53 59.93C198.85 59.52 198.04 59.32 197.43 58.7C196.87 58.13 196.63 57.33 196.16 55.8C195.98 55.22 195.77 54.53 195.45 53.56C195.28 53.04 194.95 52.06 194.62 51.19C194.38 50.54 194.13 49.92 193.93 49.54C193.47 49.72 192.84 50.25 192.24 50.86C191.42 51.68 190.67 52.64 190.27 53.15C189.99 53.52 189.09 54.67 188.31 55.56C187.83 56.11 187.38 56.58 187.11 56.74C186.9 56.87 186.53 57 186.16 57.1C185.79 57.2 185.4 57.28 185.16 57.28V57.29ZM183.73 56.02C184.25 56.05 184.73 56.07 185.16 56.07C185.31 56.07 185.58 56.02 185.85 55.94C186.12 55.86 186.38 55.77 186.5 55.7C186.65 55.61 187 55.23 187.41 54.76C188.16 53.89 189.04 52.76 189.32 52.4C189.73 51.87 190.52 50.87 191.38 49.99C192.32 49.04 193.36 48.24 194.23 48.25H194.52L194.7 48.48C194.99 48.84 195.38 49.77 195.74 50.74C196.1 51.71 196.42 52.67 196.59 53.16C196.87 53.99 197.1 54.78 197.3 55.43C197.71 56.77 197.92 57.47 198.27 57.83C198.64 58.21 199.34 58.38 200.79 58.73C201.25 58.84 201.78 58.97 202.4 59.13C203.48 59.41 204.18 59.52 204.9 59.63C205.36 59.7 205.84 59.78 206.41 59.89C206.5 59.91 206.67 59.95 206.85 59.99C206.98 60.03 207.11 60.07 207.2 60.11C207.31 60.16 207.36 60.19 207.39 60.2C207.48 60.24 207.52 60.26 207.59 60.32C207.73 60.43 207.74 60.49 207.79 60.6L207.81 60.64L208.15 61.13L207.67 61.48L206.78 62.11H206.76L206.73 62.14C206.29 62.39 205.56 62.79 204.75 63.24C203.03 64.18 200.92 65.33 200.58 65.62C200.06 66.07 200.23 68 200.4 69.98C200.59 72.13 200.78 74.33 200.01 75.43L199.92 75.56L199.78 75.63C199.17 75.93 198.38 75.74 197.59 75.36C196.44 74.79 195.22 73.76 194.87 73.44L192.33 71.16C192.23 71.07 192.12 70.95 192 70.83C191.84 70.67 191.67 70.49 191.56 70.42C190.72 69.82 188.66 71.09 186.79 72.26C185.37 73.14 184.04 73.96 183.08 74.03L182.53 74.07L182.44 73.53C182.07 71.37 182.56 69.31 182.98 67.56C183.35 66 183.66 64.72 183.17 64.09C183.07 63.96 182.89 63.74 182.67 63.47C181.34 61.84 178.6 58.48 178.52 57.01L178.5 56.65L178.81 56.46C179.9 55.8 182.01 55.92 183.73 56.01V56.02Z" fill="#5A8CC6"/>
<path fill-rule="evenodd" clip-rule="evenodd" d="M233.39 50.42C233.93 51.27 234.46 51.52 235.36 53.05C237.02 55.88 237.76 59.5 238.73 62.67C239.02 63.62 239.74 63.34 242.26 64.26C243.25 64.62 244.68 65.33 245.55 65.56C245.62 62.13 244.46 60.45 246.7 58.46C248.46 56.9 249.06 56.89 251.39 54.57C254.7 51.28 256.15 47.58 253.03 42.49C250.18 37.84 245.19 38.73 241.2 41.17C240.3 41.72 239.41 42.41 238.82 43.08C238.42 43.53 237.12 44.9 237.11 45.54C237.09 47.05 237.2 47.79 236.32 48.89C235.74 49.62 234.75 50.25 233.39 50.42Z" fill="#C7C8C2"/>
<path fill-rule="evenodd" clip-rule="evenodd" d="M214.47 62.16C214.41 63.06 215.01 63.44 215.43 63.99C216.46 65.32 218.75 67.97 219.12 69.28C219.82 71.76 216.37 76.36 216.71 78.53C218.16 78.4 222.05 75.87 223.5 74.94C225.17 73.87 225.79 73.62 227.71 76.11C228.14 76.67 228.83 77.52 229.35 77.96C230.29 78.76 231.75 81.02 233.04 81.43C233.28 79.9 233.28 78.21 233.48 76.61C233.66 75.15 233.48 75.4 234.14 74.58C234.62 73.98 234.72 73.63 235.43 73.19C236.63 72.46 242.08 70.68 242.55 69.71C241.92 69.16 238.95 68.31 237.83 67.98C235.68 67.36 234.78 67.28 234.02 65.37C233.04 62.93 232.24 57.1 230.62 55.77C229.58 55.91 225.39 60.91 224.19 62.2C222.77 63.74 222.25 63.98 219.55 63.34C218.29 63.04 215.61 62.11 214.47 62.14V62.16Z" fill="#FFEB7C"/>
<path fill-rule="evenodd" clip-rule="evenodd" d="M193.88 117.47C194.63 116.15 194.2 116.33 195.56 114.71C197.56 112.32 201.52 110.69 205.14 110.72C211.06 110.76 214.92 113.09 218.17 115.8C219.41 115.22 223.64 111.2 224.04 110.24C220.29 109.95 217.71 109.17 214.38 108.23C204.06 105.31 195.04 103.52 183.82 103.46C184.37 105.47 186.79 109.53 187.96 111.31C189.07 112.99 192.12 116.77 193.88 117.48V117.47Z" fill="#CC7F74"/>
<path fill-rule="evenodd" clip-rule="evenodd" d="M184.35 51.63C184.96 51.57 184.86 51.38 185.6 50.46L188.95 46.57C190.33 45.02 191.77 43.17 195.07 43.07C194.47 41.67 193.19 39.02 195.72 37.24C196.47 36.71 196.9 36.81 197.68 36.47C197.57 35.08 196.8 32.97 196.23 31.84C194.17 27.73 188.17 27.33 184.56 31.84C182.43 34.5 182.01 37.21 182.29 41.46C182.41 43.32 182.64 45.02 183.07 46.74C183.64 49.02 184.56 48.48 184.35 51.62V51.63Z" fill="#C7C8C2"/>
<path fill-rule="evenodd" clip-rule="evenodd" d="M166.94 89.43C166.94 89.43 167 89.31 167.02 89.33L167.54 88.7C167.75 88.49 167.93 88.34 168.15 88.11C169.55 86.64 170.71 85.86 172.67 85.11C176.65 83.59 184.72 83.33 189.92 82.39C191.87 82.04 194.04 81.5 195.9 80.86C196.58 80.63 197.03 80.27 197.71 80.03C197.11 79.69 196.22 79.42 195.61 79.13C194.94 78.82 194.35 78.46 193.74 78.05C192.82 77.43 190.98 75.96 190.6 75.17C190 75.32 188.85 76.15 188.2 76.51C185.96 77.74 182.29 79.74 179.91 78.74C176.05 77.11 178.17 69.89 178.3 67.32C177.39 68.73 176.61 70.48 175.25 72.55C172.13 77.31 167.95 83.52 166.94 89.44V89.43Z" fill="#C7C8C2"/>
<path fill-rule="evenodd" clip-rule="evenodd" d="M195.21 118.39C196.04 119.15 198.65 120.1 200.03 120.41C204.03 121.31 208.21 120.91 211.97 119.46C213.12 119.02 215.63 117.76 216.39 117.05C215.78 116.16 213.04 114.65 211.64 114.03C207.83 112.34 202.76 112.16 199.06 114.45C198.32 114.91 197.39 115.68 196.91 116.19C196.38 116.75 195.56 117.66 195.21 118.39Z" fill="#F3AAB8"/>
<path fill-rule="evenodd" clip-rule="evenodd" d="M209.14 55.87C209.4 54.58 210.19 52.61 210.67 51.4C210.97 50.65 211.26 50.04 211.59 49.37C211.96 48.63 212.35 48.05 212.73 47.3C210.23 47.64 208.72 46.4 208.12 44.51C207.4 44.98 206.33 46.54 203.72 45.95C202.06 45.57 201.49 44.37 200.96 42.81C200.08 43.79 199.34 44.51 197.47 44.46C197.92 45.65 198.78 47.06 199.36 48.31C202.46 54.91 200.24 54.41 204.29 54.94C205.92 55.15 207.49 55.54 209.15 55.87H209.14Z" fill="#C7C8C2"/>
<path fill-rule="evenodd" clip-rule="evenodd" d="M218.35 48.55L219.23 48.81C218.82 50.22 218.24 51.82 217.75 53.23C217.47 54.03 216.64 57.03 216.07 57.43C217.18 57.86 219.92 58.62 220.98 58.07C221.45 57.82 223.56 55.47 224.02 54.94C224.95 53.87 226.14 53.05 227.12 52.01C228 51.08 229.05 49.88 230.84 49.58C228.9 47.33 229.12 49.95 226.46 50.02C225.42 50.05 224.5 49.74 223.91 49.21C223.01 48.41 223.19 47.96 222.57 47.17C221.09 48 220.85 48.74 218.34 48.54L218.35 48.55Z" fill="#C7C8C2"/>
<path fill-rule="evenodd" clip-rule="evenodd" d="M212.73 47.3C212.35 48.05 211.96 48.62 211.59 49.37C211.26 50.04 210.97 50.65 210.67 51.4C210.19 52.61 209.4 54.58 209.14 55.87L216.07 57.44C216.64 57.04 217.47 54.04 217.75 53.24C218.24 51.83 218.82 50.23 219.23 48.82L218.35 48.56C216.66 48.19 215.54 47.29 215.08 45.74C214.62 45.98 214.47 46.27 213.97 46.65C213.53 46.99 213.21 47.05 212.73 47.3Z" fill="#FBDACF"/>
<path fill-rule="evenodd" clip-rule="evenodd" d="M218.27 29.72C216.51 30.18 215.41 32.2 215.79 33.87C216.17 35.55 217.86 36.72 219.87 36.18C224 35.08 223.17 28.44 218.27 29.72Z" fill="#F0895E"/>
<path fill-rule="evenodd" clip-rule="evenodd" d="M231.02 26.18L230.77 23.91C230.03 23.25 228.98 21.74 226.43 22.91C222.56 24.7 224.49 29.5 227.9 29.21C230.17 29.02 230.53 27.01 231.01 26.18H231.02Z" fill="#F0895E"/>
<path fill-rule="evenodd" clip-rule="evenodd" d="M228.76 2.26C226.89 2.86 226.31 4.44 226.55 6.33C226.67 7.24 228.56 8.85 230.54 8.37C231.15 8.22 232.1 7.47 232.34 7.1C233.51 5.31 231.83 1.27 228.76 2.26Z" fill="#FFEB7C"/>
<path fill-rule="evenodd" clip-rule="evenodd" d="M224.4 12.93C222.97 13.21 221.67 14.68 221.54 16.26C221.38 18.12 222.95 19.31 224.86 19.11C229.06 18.65 228.23 12.18 224.4 12.94V12.93Z" fill="#F0895E"/>
<path fill-rule="evenodd" clip-rule="evenodd" d="M227.01 65.53C223.84 66.13 222.8 70.46 223.83 71.29C225.7 72.78 225.06 68.37 227.04 67.61C227.73 67.35 228.42 67.53 228.8 68.06C229.75 69.42 228.7 71.17 228.9 72.23C228.99 72.71 230.65 74.4 231.12 70.89C231.57 67.58 230.05 64.94 227.01 65.52V65.53Z" fill="#AB973A"/>
<path fill-rule="evenodd" clip-rule="evenodd" d="M212.52 23.98C212.63 25.24 213.45 26.37 214.36 26.72C215.65 27.22 217.26 26.51 217.95 25.82C219.99 23.77 218.32 20.49 215.47 20.67C214.89 21.18 214.58 21.7 214.01 22.27C213.69 22.59 212.77 23.61 212.53 23.98H212.52Z" fill="#F0895E"/>
<path fill-rule="evenodd" clip-rule="evenodd" d="M191.02 58.62C189.46 59.04 189.13 59.34 188.34 60.44C187.91 61.04 186.95 62.71 187.56 63.56C187.9 64.03 188.57 64.12 189.02 63.67C189.5 63.2 189.62 61.46 190.75 60.84C193.64 59.26 192.42 64.11 192.69 64.61C192.92 65.05 194.45 65.96 194.76 63.39C195.14 60.22 193.41 57.98 191.02 58.62Z" fill="#AB973A"/>
<path fill-rule="evenodd" clip-rule="evenodd" d="M232.23 38.21L231.61 32.19C229.25 32.07 226.75 33.32 227.32 35.88C227.55 36.91 228.32 37.74 229.07 38.16C230.23 38.8 231.01 38.61 232.23 38.22V38.21Z" fill="#F0895E"/>
<path fill-rule="evenodd" clip-rule="evenodd" d="M204.6 33.25C206.2 34.32 208.28 34.04 209.45 32.75C210.53 31.57 210.42 28.81 209.09 27.9C208.83 28.08 204.9 32.73 204.59 33.25H204.6Z" fill="#F0895E"/>
<path fill-rule="evenodd" clip-rule="evenodd" d="M218.24 41.94C217.43 42.41 216.61 43.7 217.01 45.12C217.34 46.26 218.71 46.96 220.09 46.33C223.44 44.81 220.21 40.78 218.24 41.94Z" fill="#C3E5EE"/>
<path fill-rule="evenodd" clip-rule="evenodd" d="M203.86 39.34C201.99 40.63 202.92 45.4 205.84 43.75C206.68 43.28 207.28 41.73 206.68 40.57C206.35 39.94 204.94 38.6 203.86 39.34Z" fill="#C3E5EE"/>
<path fill-rule="evenodd" clip-rule="evenodd" d="M211.4 40.57C208.87 41.47 209.95 46.45 212.5 45.17C215.31 43.76 213.78 39.72 211.4 40.57Z" fill="#F3AAB8"/>
<path fill-rule="evenodd" clip-rule="evenodd" d="M225.33 43.86C224.83 44.07 225.18 43.67 224.8 44.34C223.73 46.22 225.34 49.1 227.4 47.6C229.64 45.96 227.89 42.77 225.33 43.86Z" fill="#F3AAB8"/>
<path fill-rule="evenodd" clip-rule="evenodd" d="M207.69 38.47C207.93 38.75 208.06 38.87 208.29 39.23C208.42 39.44 208.57 39.79 208.76 40.04C210.35 38.81 210.26 37.95 213.55 38.78C213.46 37.23 212.35 36.11 210.77 36.05C209.27 35.99 207.82 37.24 207.69 38.46V38.47Z" fill="#F0895E"/>
<path fill-rule="evenodd" clip-rule="evenodd" d="M218.93 92.85C217.68 93.18 214.24 94.57 214.35 95.99C214.42 96.85 215.32 97.1 216.05 96.59C217.24 95.76 217.69 95.31 219.39 94.84C221.57 94.23 220.85 92.35 218.92 92.86L218.93 92.85Z" fill="#864322"/>
<path fill-rule="evenodd" clip-rule="evenodd" d="M233.48 44.36C232.26 44.61 231.45 44.85 231.34 46.16C231.13 48.83 234.88 49.17 235.11 46.54C235.21 45.45 234.39 44.18 233.47 44.37L233.48 44.36Z" fill="#C3E5EE"/>
<path fill-rule="evenodd" clip-rule="evenodd" d="M221.11 40.28C221.61 40.7 221.93 40.86 222.39 41.34C223.2 42.19 223.03 42.32 223.37 42.72C224.12 42.16 224.72 41.45 226.6 41.6C226.44 40.51 225.45 39.61 224.38 39.35C223.2 39.06 221.63 39.49 221.11 40.28Z" fill="#F0895E"/>
<path fill-rule="evenodd" clip-rule="evenodd" d="M197.26 38.74C195.1 39.82 196.75 43.35 198.65 42.19C199.18 41.87 199.9 40.83 199.55 39.78C199.16 38.62 197.97 38.38 197.26 38.74Z" fill="#F3AAB8"/>
<path fill-rule="evenodd" clip-rule="evenodd" d="M188.76 89.92C188.07 90.26 188.36 90.91 188.7 91.39C189.45 92.46 191.04 95.09 192.25 94.38C193.52 93.63 191.58 92.01 191.31 91.73C190.91 91.33 189.54 89.53 188.76 89.92Z" fill="#864322"/>
<path fill-rule="evenodd" clip-rule="evenodd" d="M212.35 75.65L213.71 71.98C213.83 71.69 214.35 70.43 214.35 70.24C214.35 69.93 214.15 69.75 213.95 69.49C213.82 69.31 213.83 69.31 213.66 69.11L213.31 68.75L212.36 75.64L212.35 75.65Z" fill="#C7C8C2"/>
<path d="M136.32 193.07V198.71H82.8601V193.07H111.9C115.02 185.63 118.44 173.87 120.24 165.29L126.54 166.49C124.2 175.25 120.84 185.75 117.9 193.07H136.32ZM133.86 162.65H85.4401V157.01H133.86V162.65ZM98.7001 190.97C97.8601 184.37 95.4601 174.23 93.3001 166.55L98.9401 165.17C101.28 172.97 103.62 182.81 104.64 189.47L98.7001 190.97ZM107.64 156.77C107.16 154.13 105.84 150.05 104.76 146.99L110.28 145.61C111.42 148.61 112.8 152.57 113.46 155.09L107.64 156.77Z" fill="white"/>
<path d="M162.96 180.11C166.02 184.97 169.68 191.45 171.24 195.47L166.14 198.23C165.54 196.73 164.76 194.75 163.74 192.65C149.1 197.57 146.94 198.47 145.5 199.55C145.14 197.87 144.18 195.17 143.22 193.85C144.36 193.25 145.86 192.11 145.86 189.89V149.09H169.68V177.71H151.56V191.09L161.4 188.09C160.32 186.11 159.3 184.19 158.22 182.45L162.96 180.11ZM151.56 154.07V160.73H164.1V154.07H151.56ZM164.1 172.73V165.71H151.56V172.73H164.1ZM194.46 183.71C194.46 186.47 193.98 188.09 192.24 188.93C190.38 189.89 187.68 189.95 183.6 189.95C183.42 188.45 182.76 186.11 181.98 184.67C184.62 184.79 187.2 184.79 187.92 184.73C188.76 184.67 189 184.43 189 183.65V154.61H179.76V201.11H174.18V149.51H194.46V183.71Z" fill="white"/>
<path d="M217.4 184.73H227.6V189.47H217.4V200.87H212.24V189.47H201.5V184.73H212.24V178.97H202.76V174.23H207.8C207.38 172.31 206.3 169.61 205.22 167.57L208.94 166.43H201.5V161.69H212.24V156.53H203.24V151.85H212.24V146.21H217.4V151.85H226.1V156.53H217.4V161.69H227.54V166.43H220.94L224.84 167.45C223.7 169.67 222.44 172.19 221.3 174.23H226.4V178.97H217.4V184.73ZM209.42 166.43C210.68 168.59 211.82 171.47 212.24 173.27L209.36 174.23H216.44C217.76 171.83 219.14 168.71 219.98 166.43H209.42ZM254.66 170.03C253.4 176.99 251.18 183.53 247.82 189.17C250.46 192.11 253.4 194.57 256.76 196.25C255.5 197.21 253.88 199.31 253.04 200.69C249.98 198.95 247.22 196.55 244.76 193.67C242.54 196.61 239.9 199.13 236.9 201.17C236.36 200.33 235.52 199.43 234.62 198.59V200.99H229.52V148.73H253.22V160.07C253.22 162.65 252.68 164.09 250.64 164.81C248.66 165.65 245.6 165.65 241.1 165.65C240.86 164.21 240.14 162.17 239.42 160.85C242.84 160.97 246.02 160.97 246.86 160.91C247.82 160.85 248.06 160.67 248.06 160.01V153.65H234.62V169.01H250.28L251.24 168.77L254.66 170.03ZM234.62 196.43C237.26 194.45 239.6 192.05 241.58 189.29C238.64 184.79 236.3 179.51 234.62 173.81V196.43ZM239.18 173.51C240.5 177.53 242.3 181.31 244.46 184.67C246.38 181.19 247.76 177.41 248.66 173.51H239.18Z" fill="white"/>
<path d="M311.84 201.17H306.08V198.71H283.4V201.05H277.82V183.05C273.32 185.63 268.58 187.79 263.78 189.35C263.12 187.85 261.68 185.57 260.6 184.37C268.1 182.15 275.66 178.37 282.14 173.39C279.68 170.57 275.6 167.03 272.06 164.33C269.78 166.07 267.32 167.81 264.68 169.37C263.84 167.99 262.04 165.95 260.72 165.05C270.56 159.71 277.28 152.27 280.76 145.79L287.06 146.99C286.1 148.67 285.02 150.29 283.88 151.91H299.18L300.2 151.61L303.98 153.65C300.68 162.17 295.28 169.37 288.8 175.13H311.84V201.17ZM279.86 156.89C278.72 158.15 277.52 159.47 276.2 160.67C279.8 163.31 284 166.73 286.64 169.55C290.6 165.83 293.96 161.57 296.36 156.89H279.86ZM306.08 193.67V180.23H283.4V193.67H306.08Z" fill="white"/>
</g>
<defs>
<clipPath id="clip0_1145_161">
<rect width="395" height="269.04" fill="white"/>
</clipPath>
</defs>
</svg>
