<svg width="115" height="225" viewBox="0 0 115 225" fill="none" xmlns="http://www.w3.org/2000/svg">
<path d="M66.4291 208.028L63.9033 224.397L80.3211 221.289L66.4291 208.028Z" fill="#EB612A"/>
<path d="M57.5881 213.711C89.2162 213.711 114.856 188.116 114.856 156.542C114.856 124.968 89.2162 99.3721 57.5881 99.3721C25.96 99.3721 0.320312 124.968 0.320312 156.542C0.320312 188.116 25.96 213.711 57.5881 213.711Z" fill="#EB612A"/>
<path d="M56.2288 154.793V157.513H30.2422V154.793H44.3284C45.8342 151.198 47.4857 145.467 48.36 141.289L51.4201 141.872C50.3029 146.147 48.6514 151.247 47.2428 154.793H56.1803H56.2288ZM55.0145 140.027H31.5051V137.307H55.0145V140.027ZM37.9167 153.773C37.5282 150.567 36.3624 145.661 35.2938 141.921L38.0139 141.241C39.1311 145.03 40.2968 149.79 40.7826 153.044L37.9167 153.773ZM42.2883 137.161C42.0455 135.898 41.414 133.906 40.8797 132.401L43.5512 131.721C44.0855 133.178 44.7656 135.121 45.1056 136.335L42.2883 137.161Z" fill="white"/>
<path d="M69.149 148.527C70.6548 150.907 72.4034 154.016 73.1806 156.007L70.7033 157.367C70.4119 156.639 70.0233 155.667 69.5376 154.647C62.4459 157.027 61.3773 157.464 60.6973 157.999C60.503 157.173 60.0658 155.862 59.5801 155.23C60.1144 154.939 60.843 154.404 60.843 153.287V133.47H72.4034V147.361H63.6116V153.87L68.3718 152.413C67.8375 151.441 67.3518 150.519 66.8175 149.693L69.1004 148.576L69.149 148.527ZM63.6116 135.85V139.104H69.6833V135.85H63.6116ZM69.6833 144.933V141.533H63.6116V144.933H69.6833ZM84.4495 150.276C84.4495 151.636 84.2067 152.413 83.3809 152.801C82.458 153.287 81.1466 153.287 79.2036 153.287C79.1065 152.559 78.815 151.441 78.4265 150.713C79.6894 150.761 80.9523 150.761 81.2923 150.713C81.6809 150.713 81.8266 150.567 81.8266 150.179V136.093H77.3579V158.679H74.6378V133.615H84.4981V150.227L84.4495 150.276Z" fill="white"/>
<path d="M37.7707 185.734H42.7252V188.016H37.7707V193.554H35.2449V188.016H30.0476V185.734H35.2449V182.916H30.6305V180.633H33.0591C32.8648 179.711 32.3305 178.399 31.7962 177.379L33.5934 176.845H29.999V174.562H35.1964V172.036H30.8248V169.753H35.1964V167.033H37.7222V169.753H41.948V172.036H37.7222V174.562H42.628V176.845H39.4222L41.3166 177.331C40.7823 178.399 40.1508 179.613 39.6165 180.633H42.0937V182.916H37.7222V185.734H37.7707ZM33.9335 176.845C34.5649 177.913 35.0992 179.273 35.2935 180.148L33.8849 180.633H37.3336C37.965 179.468 38.645 177.962 39.0336 176.845H33.8849H33.9335ZM55.8885 178.593C55.2571 181.993 54.1885 185.151 52.5855 187.871C53.8484 189.279 55.3056 190.494 56.9086 191.319C56.2771 191.805 55.4999 192.825 55.1113 193.457C53.6056 192.631 52.2941 191.465 51.0798 190.056C50.0112 191.465 48.6997 192.728 47.2425 193.699C46.9996 193.311 46.5625 192.874 46.1253 192.436V193.602H43.6481V168.199H55.1599V173.688C55.1599 174.95 54.9171 175.631 53.897 175.971C52.9256 176.359 51.4684 176.359 49.2826 176.359C49.1854 175.679 48.7968 174.659 48.4568 174.028C50.1083 174.076 51.6627 174.076 52.0512 174.028C52.537 174.028 52.6341 173.93 52.6341 173.59V170.482H46.1253V177.962H53.7513L54.237 177.865L55.8885 178.496V178.593ZM46.1739 191.416C47.4368 190.445 48.6025 189.279 49.574 187.968C48.1654 185.782 46.9996 183.208 46.1739 180.439V191.416ZM48.3597 180.293C48.9911 182.236 49.8655 184.082 50.9341 185.734C51.857 184.033 52.537 182.188 52.9741 180.293H48.3597Z" fill="white"/>
<path d="M83.6719 193.699H80.8547V192.484H69.8286V193.601H67.1085V184.858C64.9227 186.121 62.6398 187.141 60.3083 187.918C59.9682 187.19 59.2882 186.073 58.7539 185.49C62.3969 184.421 66.0885 182.576 69.1971 180.147C67.9828 178.787 66.0399 177.038 64.2913 175.727C63.1741 176.553 62.0083 177.427 60.6968 178.155C60.3082 177.475 59.4339 176.504 58.7539 176.067C63.5141 173.492 66.8171 169.85 68.4685 166.692L71.5287 167.275C71.0429 168.101 70.5572 168.878 69.9743 169.655H77.406L77.8917 169.51L79.7375 170.481C78.1346 174.61 75.5116 178.107 72.3544 180.924H83.5262V193.553L83.6719 193.699ZM68.1285 172.181C67.5942 172.812 67.0113 173.444 66.3313 174.027C68.08 175.29 70.12 176.99 71.3829 178.35C73.3259 176.553 74.9288 174.464 76.0945 172.181H68.08H68.1285ZM80.8547 190.056V183.547H69.8286V190.056H80.8547Z" fill="white"/>
<path fill-rule="evenodd" clip-rule="evenodd" d="M37.1908 63.1639C36.783 65.0806 36.0489 68.4655 36.416 70.5046C36.6607 71.8096 37.0277 72.5845 38.6182 72.299C39.964 72.0543 42.982 70.4638 44.2054 69.689C47.3865 67.6499 46.0407 68.5471 49.0178 70.994C51.1793 72.7884 55.3799 75.2353 56.7665 71.2795C57.4598 69.2812 56.5218 64.8767 57.0928 63.8979C57.5006 63.1231 61.0079 61.2471 62.0275 60.6354C64.2297 59.3711 64.556 59.6158 66.0242 61.3695C66.9214 62.4706 67.9002 63.4901 68.7974 64.7136C69.4907 65.6516 69.5315 66.2633 68.9605 67.7722C68.2672 69.4851 67.0845 72.2175 67.3292 74.3381C67.6963 77.4783 70.3064 76.6219 72.3047 75.5616C73.2427 75.0314 73.9768 74.6236 74.874 74.0526C77.7696 72.2175 77.4841 72.6661 78.6668 74.0934L81.6032 77.2744C82.1741 77.8046 83.1121 78.6202 84.0093 78.9465C85.6406 79.5174 85.8853 78.7426 86.2932 77.5191C87.1496 74.8683 87.068 71.6057 88.006 71.0756C89.3927 70.3007 91.3094 69.689 93.5117 68.3839C94.7352 67.6499 97.957 65.5292 95.3061 64.0611C93.7564 63.2047 91.2687 62.2667 89.3926 61.8181C87.7206 61.4103 87.9653 61.084 87.5574 59.5343C86.9049 57.0466 85.5183 52.3159 84.0501 50.6438C82.3372 48.6863 81.7255 49.7058 79.4417 52.0304L77.321 54.0287C76.7092 54.722 75.9752 55.4561 75.3634 56.1902C74.5478 57.2097 74.3031 57.4952 72.4678 57.4544C71.3259 57.4544 70.1432 57.0058 69.0829 56.7203C66.2689 56.027 61.9459 55.0075 59.0503 54.4773C55.543 53.8656 55.0944 54.4773 53.9933 51.3779C53.3408 49.5427 52.5251 47.2997 51.5871 45.6276C51.0977 44.7712 50.853 43.4662 49.5072 43.7925C47.672 44.2411 46.2446 46.1578 45.0211 47.5444C44.3686 48.2377 43.7976 48.9718 43.1451 49.7874C42.8596 50.1544 42.5741 50.4807 42.2479 50.9293C41.7993 51.5002 41.7177 51.541 40.8613 51.4187C39.3523 51.174 34.4992 51.2963 33.398 52.112C31.1958 53.784 35.1109 58.5147 36.3344 60.0237C37.0277 60.8801 37.5579 61.5734 37.2316 63.1639H37.1908Z" fill="#864322" stroke="#864322" stroke-width="9" stroke-miterlimit="10" stroke-linecap="round"/>
<path fill-rule="evenodd" clip-rule="evenodd" d="M61.5385 37.7578C61.7424 38.0025 61.8648 38.1249 62.0687 38.4511C62.1911 38.655 62.3134 38.9405 62.4765 39.1852C63.9039 38.0841 63.8224 37.3092 66.7587 38.0433C67.085 38.3288 67.452 38.4511 67.8191 38.7774C68.2269 39.1444 68.3492 39.3891 68.7163 39.8377C70.5107 38.8997 70.9185 38.3696 73.5286 39.3483C73.9772 39.7154 74.2627 39.8785 74.6706 40.2863C75.4046 41.0612 75.2415 41.1835 75.5678 41.5098C76.2611 41.0204 76.7913 40.3679 78.4633 40.4902C80.6656 40.8573 80.788 41.5506 81.6036 42.4886C81.9299 42.2439 82.1338 41.9992 82.5824 41.7137C83.1126 41.3874 83.5204 41.469 83.969 41.1427C84.0913 40.6534 83.7243 37.921 83.5204 37.4724L82.9494 32.0484L82.4193 26.6652L82.2153 24.6261C82.2153 22.8317 81.8483 20.3848 81.6852 18.5496C81.4813 16.5513 81.2366 14.5529 80.9919 12.5954C79.646 12.4731 79.5237 12.1468 78.5857 11.8613C76.2203 13.4926 72.8353 16.7959 70.8778 19.0389C70.4292 19.5283 70.2252 19.8138 69.6543 20.344C69.2057 20.7926 68.9202 21.2412 68.4716 21.6898C67.9414 22.1384 67.6559 22.6278 67.1665 23.1171C66.8811 23.4026 66.0654 24.3406 65.8207 24.6669C65.2498 25.0747 64.7604 25.8495 64.271 26.3797C63.9447 26.7059 63.8631 26.9099 63.5369 27.2361C63.2106 27.5624 63.0475 27.7663 62.762 28.2149C62.5173 28.378 59.01 32.5378 58.7245 33.0271C58.1944 33.4757 55.7474 36.4936 55.4619 37.1461L55.9105 38.0433C56.767 37.5539 58.1128 35.1478 61.457 37.7171L61.5385 37.7578Z" fill="#864322" stroke="#864322" stroke-width="9" stroke-miterlimit="10" stroke-linecap="round"/>
<path fill-rule="evenodd" clip-rule="evenodd" d="M94.4501 69.9743C92.8188 70.953 90.902 71.7279 89.1484 72.6251C88.8221 74.5011 88.6182 76.2139 88.088 77.9268C87.5171 79.6804 86.9461 81.067 84.7846 80.9854C82.2561 80.9038 79.7276 78.3346 78.2186 76.4586C77.8924 76.01 77.4438 75.3983 76.9952 75.0312C76.3426 75.3167 75.894 75.5614 75.5678 75.8061C74.5074 76.2955 73.4471 77.1111 72.1828 77.6413C70.6331 78.3346 69.6951 78.6608 67.8191 78.1714C67.0442 77.4781 66.3101 77.5597 65.6983 75.6022C65.0458 73.6039 65.8207 72.0542 65.6983 71.1162L66.9218 67.8128C67.0442 67.5681 67.4928 66.4263 67.4928 66.2631C67.4928 65.9777 67.3297 65.8145 67.1257 65.6106C67.0034 65.4475 67.0034 65.4475 66.8811 65.2844L66.5548 64.9581C66.3101 64.3872 64.638 62.7967 63.9447 61.7363C63.3737 61.8587 59.3363 64.2648 58.6837 64.7134C58.7653 67.405 59.7033 72.9921 56.2368 74.705C54.687 75.4798 54.1161 75.072 52.5663 75.0312C52.0362 74.7458 51.2205 74.4603 50.6903 74.2156C50.0786 73.9301 49.5484 73.6039 49.0182 73.2368C48.2026 72.6659 46.5305 71.3609 46.2042 70.6676C45.6741 70.7899 44.6137 71.5648 44.0428 71.8502C42.0444 72.9514 38.741 74.7458 36.6203 73.8486C33.1538 72.3804 35.0706 65.8961 35.1929 63.6123C34.3773 64.8765 33.684 66.467 32.4605 68.3022C29.6465 72.5843 25.8945 78.1307 24.9972 83.4731C24.5894 84.3703 23.8961 88.5301 23.8553 89.7127C23.6106 94.2803 24.2632 98.5216 26.3839 102.396C26.8325 103.252 27.3626 104.027 27.852 104.802C28.8308 106.311 28.423 105.74 29.5241 106.963C31.9711 109.737 34.7443 111.817 38.17 113.611C42.4522 115.854 50.3641 118.015 55.5435 119.076C57.0932 119.402 61.1715 119.116 63.0475 119.076C73.1616 118.913 78.5857 117.771 86.6199 112.02C88.1288 110.919 89.6786 109.859 90.6981 108.513C91.3099 107.738 93.349 104.802 93.5937 103.742C94.8172 102.518 95.8367 98.3585 96.2446 96.6049C97.7127 89.7535 96.4893 76.01 96.0814 68.8732C95.7144 68.9547 94.9803 69.5665 94.4909 69.8519L94.4501 69.9743Z" fill="#864322" stroke="#864322" stroke-width="9" stroke-miterlimit="10" stroke-linecap="round"/>
<path fill-rule="evenodd" clip-rule="evenodd" d="M102.24 41.3858C99.6709 37.226 95.1848 38.0009 91.6367 40.2031C90.821 40.6925 90.0462 41.3042 89.516 41.916C89.1489 42.3238 88.007 43.5472 87.9662 44.1182C87.9662 45.464 88.0478 46.1165 87.2729 47.136C86.7428 47.7886 85.8456 48.3595 84.6221 48.5226C85.1115 49.2975 85.6009 49.5014 86.3757 50.888C87.8847 53.4165 88.5372 56.679 89.3936 59.5338C89.6383 60.3902 90.2909 60.1455 92.5747 60.9611C93.4719 61.2874 94.7362 61.9399 95.511 62.1438C95.5926 59.0851 94.5323 57.5762 96.5306 55.7818C98.1211 54.3952 98.6513 54.3544 100.731 52.2746C103.708 49.3383 105.013 45.9942 102.199 41.4266L102.24 41.3858Z" fill="#864322" stroke="#864322" stroke-width="9" stroke-miterlimit="10" stroke-linecap="round"/>
<path fill-rule="evenodd" clip-rule="evenodd" d="M39.4344 45.2204C39.9645 47.2595 40.7802 46.7702 40.5763 49.5841C41.1065 49.5433 41.0249 49.3394 41.7182 48.5238L44.7361 45.0165C45.9596 43.6299 47.2646 41.9579 50.2418 41.8763C49.7116 40.6121 48.5697 38.2467 50.8127 36.6562C51.506 36.1669 51.8731 36.2892 52.5664 35.9629C52.4848 34.6987 51.7915 32.8227 51.2613 31.8032C49.4261 28.1328 44.0428 27.7658 40.7802 31.8032C38.8634 34.2093 38.4964 36.6155 38.7411 40.449C38.8634 42.121 39.0673 43.6299 39.4344 45.1797V45.2204Z" fill="#864322" stroke="#864322" stroke-width="9" stroke-miterlimit="10" stroke-linecap="round"/>
<path fill-rule="evenodd" clip-rule="evenodd" d="M54.0346 46.6075C56.8078 52.5208 54.8095 52.0722 58.4799 52.5616C59.9481 52.7655 61.3755 53.0918 62.8437 53.418L69.0427 54.8454C70.0214 55.2532 72.5092 55.9057 73.4472 55.4164C73.855 55.2124 75.7718 53.0918 76.1796 52.6024C77.0361 51.6236 78.0964 50.8896 78.9528 49.9516C79.7277 49.1359 80.7065 48.0348 82.297 47.7494C80.5434 45.7103 80.7473 48.0756 78.3819 48.1572C77.4439 48.1572 76.6282 47.9125 76.098 47.4231C75.2824 46.689 75.4455 46.322 74.9154 45.5879C73.5695 46.322 73.3656 47.0153 71.1226 46.8114C69.6136 46.4851 68.594 45.6695 68.1862 44.2829C67.7784 44.4868 67.6153 44.7723 67.2074 45.0985C66.7996 45.384 66.5141 45.4656 66.1063 45.6695C63.8632 45.9957 62.5174 44.8538 61.9872 43.1818C61.3347 43.5896 60.3967 45.017 58.0313 44.4868C56.5224 44.1605 56.033 43.0594 55.5436 41.6729C54.7687 42.5701 54.0754 43.1818 52.4033 43.141C52.8111 44.2013 53.586 45.4656 54.1162 46.6075H54.0346Z" fill="#864322" stroke="#864322" stroke-width="9" stroke-miterlimit="10" stroke-linecap="round"/>
<path fill-rule="evenodd" clip-rule="evenodd" d="M82.0512 10.7595C82.5814 10.6372 83.4378 9.94391 83.6825 9.61765C84.7429 8.02716 83.2339 4.39757 80.4607 5.25399C78.7886 5.78415 78.2584 7.21152 78.4623 8.88358C78.5847 9.69922 80.2568 11.1266 82.0512 10.7188V10.7595Z" fill="#864322" stroke="#864322" stroke-width="9" stroke-miterlimit="10" stroke-linecap="round"/>
<path fill-rule="evenodd" clip-rule="evenodd" d="M71.0005 40.8969C70.2664 41.3047 69.5323 42.4874 69.8994 43.7517C70.1849 44.7712 71.4083 45.3829 72.6726 44.8528C75.6905 43.507 72.795 39.8774 71.0005 40.8969Z" fill="#864322" stroke="#864322" stroke-width="9" stroke-miterlimit="10" stroke-linecap="round"/>
<path fill-rule="evenodd" clip-rule="evenodd" d="M58.1126 38.5728C56.4405 39.7147 57.2562 43.9968 59.9071 42.5287C60.6819 42.1209 61.2121 40.7343 60.6412 39.674C60.3557 39.103 59.0914 37.9203 58.1126 38.5728Z" fill="#864322" stroke="#864322" stroke-width="9" stroke-miterlimit="10" stroke-linecap="round"/>
<path fill-rule="evenodd" clip-rule="evenodd" d="M64.8829 39.6738C62.5991 40.4894 63.5778 44.9754 65.8617 43.7928C68.3902 42.5285 67.0036 38.8989 64.8829 39.6738Z" fill="#864322" stroke="#864322" stroke-width="9" stroke-miterlimit="10" stroke-linecap="round"/>
<path fill-rule="evenodd" clip-rule="evenodd" d="M77.3621 42.6104C76.9134 42.8143 77.2397 42.4473 76.8727 43.059C75.9347 44.7311 77.3621 47.3411 79.1973 45.9953C81.1956 44.5271 79.6459 41.6724 77.3621 42.6512V42.6104Z" fill="#864322" stroke="#864322" stroke-width="9" stroke-miterlimit="10" stroke-linecap="round"/>
<path fill-rule="evenodd" clip-rule="evenodd" d="M82.7462 44.6899C82.5422 47.0961 85.9272 47.3815 86.1311 45.0162C86.2127 44.0374 85.4786 42.8955 84.6629 43.0586C83.5618 43.2626 82.8277 43.5072 82.7462 44.6899Z" fill="#864322" stroke="#864322" stroke-width="9" stroke-miterlimit="10" stroke-linecap="round"/>
<path fill-rule="evenodd" clip-rule="evenodd" d="M53.4222 41.102C53.9116 40.8165 54.5641 39.8785 54.2379 38.9406C53.8708 37.8802 52.8105 37.6763 52.1987 38.0026C50.282 38.9813 51.7501 42.1215 53.463 41.102H53.4222Z" fill="#864322" stroke="#864322" stroke-width="9" stroke-miterlimit="10" stroke-linecap="round"/>
<path fill-rule="evenodd" clip-rule="evenodd" d="M52.8503 75.1133C52.2385 75.3172 51.8307 75.6435 51.219 75.8474C49.5469 76.4183 47.5893 76.9077 45.8357 77.234C41.1864 78.0904 33.9271 78.2943 30.3382 79.6809C28.5846 80.3334 27.565 81.0675 26.3008 82.3725C26.0968 82.5764 25.9337 82.6987 25.7706 82.9027L25.322 83.4736C25.322 83.4736 25.2812 83.5552 25.2404 83.5552C24.8326 84.4524 24.1393 88.6121 24.0985 89.7948C23.8538 94.3624 24.5063 98.6037 26.627 102.478C27.0756 103.334 27.6058 104.109 28.0952 104.884C29.074 106.393 28.6662 105.822 29.7673 107.046C32.2142 109.819 34.9875 111.899 38.4132 113.693C42.6954 115.936 50.6072 118.097 55.7866 119.158C57.3364 119.484 61.4146 119.199 63.2906 119.158C73.4047 118.995 78.8288 117.853 86.863 112.103C88.372 111.001 89.9217 109.941 90.9413 108.595C91.553 107.82 93.5922 104.884 93.8369 103.824C93.7145 100.847 91.7162 96.3199 90.3703 94.4032C87.2301 89.8764 84.4161 88.1635 80.0115 85.5127C77.8093 84.2077 77.1975 84.1261 75.8109 83.3105C73.2824 81.8831 72.1813 81.5161 69.7751 79.7217C69.1633 79.2731 68.5108 78.6613 68.1438 78.1312C67.3689 77.4379 66.6348 77.5194 66.0231 75.5619C65.3706 73.5636 66.1454 72.0139 66.0231 71.0759L66.8795 64.8771C66.6348 64.3061 64.9627 62.7156 64.2694 61.6553C63.6985 61.7776 59.661 64.1838 59.0085 64.6324C59.09 67.324 60.028 72.9111 56.5615 74.6239C55.0118 75.3988 54.4408 74.991 52.8911 74.9502L52.8503 75.1133Z" fill="#FBDAD1"/>
<path fill-rule="evenodd" clip-rule="evenodd" d="M49.7113 43.8745C47.8761 44.3231 46.4487 46.2398 45.2252 47.6264C44.5727 48.3197 44.0017 49.0538 43.3492 49.8694C43.0637 50.2365 42.7782 50.5627 42.452 51.0113C42.0034 51.5823 41.9218 51.6231 41.0654 51.5007C39.5564 51.256 34.7033 51.3784 33.6021 52.194C31.3999 53.8661 35.315 58.5968 36.5385 60.1057C37.2318 60.9621 37.762 61.6554 37.4357 63.2459C37.0279 65.1627 36.2938 68.5476 36.6608 70.5867C36.9055 71.8917 37.2726 72.6665 38.8631 72.3811C40.2089 72.1364 43.2269 70.5459 44.4503 69.771C47.6314 67.7319 46.2856 68.6291 49.2627 71.076C51.4242 72.8704 55.6248 75.3174 57.0114 71.3615C57.7047 69.3632 56.7667 64.9587 57.3377 63.98C57.7455 63.2051 61.2528 61.3292 62.2724 60.7174C64.4746 59.4532 64.8009 59.6979 66.2691 61.4515C67.1663 62.5526 68.1451 63.5722 69.0423 64.7956C69.7356 65.7336 69.7764 66.3453 69.2054 67.8543C68.5121 69.5671 67.3294 72.2995 67.5741 74.4202C67.9412 77.5604 70.5512 76.7039 72.5496 75.6436C73.4876 75.1134 74.2217 74.7056 75.1189 74.1347C78.0145 72.2995 77.729 72.7481 78.9117 74.1755L81.848 77.3564C82.419 77.8866 83.357 78.7022 84.2542 79.0285C85.8855 79.5994 86.1302 78.8246 86.5381 77.6011C87.3945 74.9503 87.3129 71.6878 88.2509 71.1576C89.6375 70.3827 91.5543 69.771 93.7566 68.466C94.9801 67.7319 98.2019 65.6112 95.551 64.1431C94.0013 63.2867 91.5135 62.3487 89.6375 61.9001C87.9654 61.4923 88.2101 61.166 87.8023 59.6163C87.1498 57.1286 85.7632 52.3979 84.295 50.7259C82.5821 48.7683 81.9704 49.7879 79.6866 52.1124L77.5659 54.1107C76.9541 54.804 76.22 55.5381 75.6083 56.2722C74.7926 57.2917 74.5479 57.5772 72.7127 57.5364C71.5708 57.5364 70.3881 57.0878 69.3278 56.8024C66.5138 56.1091 62.1908 55.0895 59.2952 54.5594C55.7879 53.9476 55.3393 54.5593 54.2382 51.4599C53.5857 49.6247 52.77 47.3817 51.832 45.7097C51.3426 44.8533 51.0979 43.5482 49.7521 43.8745H49.7113Z" fill="#8EBBE5"/>
<path fill-rule="evenodd" clip-rule="evenodd" d="M38.8208 95.9536C39.5141 97.4625 38.6169 97.9519 42.2466 103.743C47.0589 111.41 55.6641 115.978 65.248 112.633C69.1224 111.288 74.3833 107.699 76.8711 104.64C77.3197 104.11 77.8499 103.661 78.2169 103.09C78.9918 101.949 78.3393 102.356 79.9298 102.071C82.2136 101.663 83.8857 100.644 85.2723 98.8899C85.7209 98.3598 86.0472 97.8704 86.455 97.2994C86.7813 96.8508 87.5154 95.8721 86.822 95.2195C86.0064 94.4447 85.3947 95.5458 85.1907 95.9128C84.8645 96.4838 84.3343 97.1363 83.9673 97.5849C82.132 99.9502 79.8482 100.766 75.6884 100.358C68.633 99.624 60.3949 95.3419 47.4668 94.6078C43.8371 94.4039 40.6153 94.6078 37.1895 93.7106C34.2124 92.9358 32.0101 91.7123 30.6235 88.9391C30.4604 88.6129 30.0118 87.0224 29.8487 86.9408C29.2777 86.533 28.8699 87.5118 29.0738 88.6944C29.6447 91.8346 31.6431 93.5067 34.3755 94.6894C36.5778 95.6274 37.0672 95.4234 38.7393 95.9536H38.8208Z" fill="#864322"/>
<path fill-rule="evenodd" clip-rule="evenodd" d="M68.7968 21.8529C71.3661 21.6897 72.875 24.626 71.0398 26.4612C70.4281 27.0729 68.9599 27.7255 67.818 27.2768C67.0023 26.9506 66.2683 25.931 66.1459 24.8299C65.5749 25.2378 65.0856 26.0126 64.5962 26.5428C64.2699 26.869 64.1883 27.0729 63.8621 27.3992C63.5358 27.7255 63.3727 27.9294 63.0872 28.378C64.2699 29.1936 64.3923 31.6813 63.4135 32.7416C62.3531 33.8835 60.4771 34.169 59.0497 33.1902C58.5195 33.6388 56.0726 36.6567 55.7871 37.3092L56.2357 38.2064C57.0922 37.717 58.438 35.3109 61.7822 37.8801C61.9045 36.779 63.2096 35.6779 64.5554 35.7187C65.9828 35.7595 66.9616 36.779 67.0431 38.1656C67.3694 38.4511 67.7364 38.5734 68.1035 38.8997C68.5113 39.2667 68.6336 39.5114 69.0007 39.96C70.7951 39.022 71.203 38.4919 73.813 39.4706C74.3024 38.7773 75.6891 38.3695 76.7494 38.655C77.7282 38.8997 78.5846 39.7153 78.7477 40.6533C80.95 41.0204 81.0724 41.7136 81.888 42.6516C82.2143 42.4069 82.4182 42.1623 82.8668 41.8768C83.397 41.5505 83.8048 41.6321 84.2534 41.3058C84.3758 40.8164 84.0087 38.0841 83.8048 37.5947C82.7037 37.9617 82.0104 38.1248 80.9908 37.5539C80.3383 37.1869 79.645 36.4528 79.4411 35.5148C78.9109 33.231 81.1539 32.0891 83.2746 32.2115L82.7445 26.8282C82.2958 27.5623 81.9696 29.3567 79.9305 29.5606C76.8717 29.8053 75.1181 25.5232 78.6254 23.8919C80.9092 22.8316 81.8472 24.1774 82.4998 24.7891C82.4998 22.9947 82.1327 20.5478 81.9696 18.7126C81.7657 16.7143 81.521 14.716 81.2763 12.7585C79.9305 12.6361 79.8081 12.3099 78.8701 12.0244C76.5047 13.6557 73.1197 16.959 71.1622 19.202C70.7136 19.6914 70.5097 19.9769 69.9387 20.507C69.4901 20.9556 69.2046 21.4043 68.756 21.8529H68.7968Z" fill="#E64F0A"/>
<path fill-rule="evenodd" clip-rule="evenodd" d="M77.2806 75.0728C76.6281 75.3583 76.1795 75.603 75.8532 75.8477C74.7928 76.3371 73.7325 77.1527 72.4682 77.6829C70.9185 78.3762 69.9805 78.7024 68.1045 78.213C68.4715 78.7432 69.1241 79.3142 69.7358 79.8035C72.142 81.5979 73.2431 82.0058 75.7716 83.3924C77.1582 84.1672 77.77 84.2488 79.9722 85.5946C84.4176 88.2454 87.1908 89.9175 90.331 94.485C91.6769 96.4018 93.6752 100.929 93.7976 103.906C95.0211 102.682 96.0406 98.5224 96.4484 96.7688C97.9166 89.9175 96.6931 76.1739 96.2853 69.0371C95.9183 69.1187 95.1842 69.7304 94.6948 70.0159C93.0635 70.9946 91.1467 71.7695 89.393 72.6667C89.0668 74.5427 88.8629 76.2555 88.3327 77.9683C87.7617 79.722 87.1908 81.1086 85.0293 81.027C82.5008 80.9454 79.9722 78.3762 78.4633 76.5002C78.137 76.0516 77.6884 75.4399 77.2398 75.0728H77.2806Z" fill="#C7C8C2"/>
<path fill-rule="evenodd" clip-rule="evenodd" d="M81.9291 52.5209C80.9911 52.9287 78.1363 56.1097 77.2799 57.0884C76.9536 57.4962 76.7497 57.7002 76.3419 58.108C75.8117 58.6789 75.3631 59.6577 74.0581 59.6169C72.2636 59.5353 69.8167 58.2711 68.0222 58.2303C66.6356 58.2303 66.7172 59.6577 67.3289 60.5141C68.3893 61.9823 69.6128 63.3688 70.5508 64.6331C71.2033 65.5711 71.3664 66.2236 70.9586 67.5286C70.4692 69.0375 69.1642 71.5252 69.0418 73.0749C68.7971 76.0928 72.386 73.7682 73.4056 73.2381C74.3028 72.7895 74.9553 72.3816 75.7302 71.8515C78.2179 70.0979 77.3207 70.6688 80.6241 74.1353C80.9503 74.4615 81.2766 74.747 81.5621 75.114C82.0923 75.7665 85.0286 79.1922 85.4772 76.1336C85.6404 75.0325 85.5996 73.8906 85.7219 72.7487C85.9258 71.2398 85.7219 70.6688 86.7415 70.0571C89.0661 68.6297 97.9567 66.5498 91.9617 64.47C90.4527 63.9398 87.1493 63.1649 86.5376 62.4309C85.9258 61.656 85.1917 58.108 84.7839 56.8437C84.3353 55.4164 83.3973 51.9091 81.8068 52.6024L81.9291 52.5209Z" fill="#5A8CC6"/>
<path fill-rule="evenodd" clip-rule="evenodd" d="M41.594 54.1922C40.1258 54.1922 37.2711 53.7844 36.1699 54.4777C36.2515 55.8235 39.4733 59.5754 40.2482 60.5134C41.4309 62.0224 39.0655 65.5296 39.718 69.2407C41.5532 69.1184 45.9578 64.8363 47.6706 66.1005C47.8745 66.2637 48.2008 66.6307 48.4047 66.7938L50.6886 68.8329C51.1779 69.2815 53.4618 71.1983 54.4813 70.7089C55.664 69.0368 53.7473 62.9603 55.0931 61.8184C55.5825 61.3698 59.5384 59.29 60.7211 58.6375L61.5367 58.0665C61.3736 57.8218 61.5367 57.9442 61.1697 57.781C61.0474 57.7402 60.7211 57.6587 60.5987 57.6179C59.2529 57.3324 58.5596 57.3324 56.9691 56.9246C52.0752 55.6604 53.1355 56.5168 51.3819 51.2151C51.0964 50.3179 50.1992 47.7487 49.7913 47.1777C48.5679 47.1777 46.5287 49.747 45.7946 50.685C45.3868 51.2151 43.6332 53.4581 43.103 53.7844C42.8175 53.9475 41.9611 54.1922 41.6348 54.1922H41.594Z" fill="#FFEB7C"/>
<path fill-rule="evenodd" clip-rule="evenodd" d="M41.5957 54.723C41.2286 54.723 40.78 54.723 40.2499 54.6822C39.0264 54.6007 37.599 54.5599 36.7833 54.8046C37.1912 55.9873 39.1895 58.3934 40.1683 59.6169C40.3722 59.8615 40.4946 60.0247 40.6169 60.1878C41.3918 61.1666 41.0655 62.5532 40.6169 64.2252C40.2906 65.5302 39.9644 67.0392 40.0867 68.5889C40.6985 68.3442 41.5549 67.814 42.4113 67.2839C44.4097 66.0604 46.5712 64.7146 47.8762 65.6526C48.0393 65.7749 48.2433 65.9788 48.4064 66.142C48.488 66.2235 48.5695 66.3051 48.6511 66.3867L50.9349 68.4257C51.2204 68.6704 52.1992 69.5269 53.1372 69.9755C53.5042 70.1386 53.8305 70.2609 54.0344 70.2609C54.4014 69.5269 54.2383 67.8548 54.116 66.2235C53.9528 64.1844 53.7489 62.1861 54.6461 61.4113C55.0132 61.085 56.9707 60.0247 58.5613 59.1275C59.2954 58.7197 59.9479 58.3934 60.2742 58.1895H60.3149C59.8255 58.0264 59.4177 57.9856 59.0099 57.904C58.3166 57.7817 57.6641 57.7001 56.6445 57.4146C56.1143 57.2923 55.6249 57.1699 55.2171 57.0476C53.7081 56.6806 52.974 56.5174 52.4439 55.9465C51.9545 55.4163 51.7098 54.723 51.302 53.3364C51.1388 52.8063 50.9349 52.1945 50.6494 51.3381C50.4863 50.8895 50.2008 49.9923 49.9153 49.2175C49.7114 48.6465 49.4667 48.0756 49.3036 47.7493C48.8958 47.9124 48.3248 48.4018 47.7947 48.932C47.0606 49.6661 46.3673 50.5225 46.041 50.9711C45.7963 51.2973 44.9806 52.3577 44.2873 53.1325C43.8387 53.6219 43.4717 54.0297 43.1862 54.1929C42.9823 54.3152 42.656 54.4375 42.3298 54.5191C42.0035 54.6007 41.6365 54.6822 41.4326 54.6822L41.5957 54.723ZM40.2906 53.5811C40.7392 53.5811 41.1879 53.6219 41.5549 53.6219C41.9219 53.6219 41.9219 53.5811 42.1666 53.4996C42.4113 53.418 42.656 53.3364 42.7376 53.2957C42.8599 53.2141 43.1862 52.8878 43.5533 52.4392C44.2466 51.6644 45.0214 50.6448 45.2661 50.3186C45.6332 49.8292 46.3265 48.932 47.1013 48.1571C47.9578 47.3007 48.8958 46.6074 49.6707 46.6074H49.9153L50.0785 46.8113C50.3232 47.1376 50.6902 47.9532 51.0165 48.8504C51.3427 49.7068 51.6282 50.5633 51.7914 51.0119C52.0361 51.746 52.24 52.48 52.4439 53.051C52.8109 54.2744 53.0148 54.8862 53.3003 55.2124C53.6266 55.5387 54.2791 55.7018 55.5434 56.028C55.9512 56.1096 56.4406 56.232 56.9708 56.3951C57.9495 56.6398 58.5613 56.7621 59.2138 56.8437C59.6216 56.9252 60.0702 56.966 60.5596 57.0884C60.6412 57.0884 60.8043 57.1292 60.9675 57.1699C61.0898 57.1699 61.2122 57.2515 61.2937 57.2923C61.3753 57.3331 61.4161 57.3738 61.4568 57.3738C61.5384 57.3738 61.5792 57.4146 61.62 57.4962C61.7423 57.5778 61.7423 57.6593 61.7831 57.7409L62.0686 58.1895L61.62 58.5157L60.8043 59.0867C60.3965 59.3314 59.744 59.6576 59.0099 60.0655C57.4601 60.9219 55.5841 61.9414 55.2579 62.1861C54.8093 62.5939 54.9316 64.3068 55.0947 66.1012C55.2579 68.0179 55.421 70.0163 54.7277 70.995L54.6461 71.1174L54.5238 71.1989C53.9528 71.4844 53.2595 71.2805 52.5662 70.9542C51.5467 70.4241 50.4455 69.5269 50.1193 69.2414L47.8354 67.2023C47.7539 67.1207 47.6315 66.9984 47.55 66.9168C47.4276 66.7537 47.2645 66.6313 47.1421 66.5498C46.408 66.0196 44.532 67.1615 42.8599 68.1811C41.5957 68.9559 40.413 69.69 39.5158 69.7716H39.0264L38.9448 69.323C38.6186 67.3654 39.0672 65.5302 39.4342 63.9805C39.7605 62.5939 40.0459 61.4113 39.5973 60.8811C39.5158 60.7587 39.3526 60.5548 39.1487 60.3101C37.966 58.842 35.4783 55.8241 35.4375 54.5191V54.1929L35.6822 54.0297C36.661 53.4588 38.537 53.5404 40.0867 53.6219L40.2906 53.5811Z" fill="#5A8CC6"/>
<path fill-rule="evenodd" clip-rule="evenodd" d="M84.864 48.5649C85.3534 49.3397 85.8428 49.5436 86.6177 50.9302C88.1266 53.4587 88.7792 56.7212 89.6356 59.576C89.8803 60.4324 90.5328 60.1877 92.8166 61.0033C93.7139 61.3296 94.9781 61.9821 95.753 62.186C95.8346 59.1274 94.7742 57.6184 96.7726 55.824C98.3631 54.4375 98.8933 54.3967 100.973 52.3168C103.95 49.3805 105.255 46.0364 102.441 41.4688C99.872 37.309 95.386 38.0839 91.8379 40.2861C91.0222 40.7755 90.2473 41.3872 89.7172 41.999C89.3501 42.4068 88.2082 43.6302 88.1674 44.2012C88.1674 45.547 88.249 46.1995 87.4741 47.2191C86.9439 47.8716 86.0467 48.4425 84.8232 48.6056L84.864 48.5649Z" fill="#C7C8C2"/>
<path fill-rule="evenodd" clip-rule="evenodd" d="M67.8997 59.0867C67.8589 59.9023 68.3891 60.2285 68.7561 60.7179C69.6941 61.9006 71.7332 64.266 72.0595 65.4486C72.6713 67.6916 69.6126 71.8106 69.898 73.7681C71.2031 73.6458 74.6696 71.4028 75.9746 70.5464C77.4836 69.5676 78.0138 69.3637 79.7674 71.6067C80.1345 72.0961 80.787 72.8709 81.2356 73.2788C82.092 74.0128 83.3971 76.0111 84.539 76.3782C84.7429 74.9916 84.7429 73.4827 84.9468 72.0553C85.11 70.7503 84.9468 70.9542 85.5586 70.2201C86.0072 69.6899 86.0887 69.3637 86.7005 68.9967C87.7608 68.3441 92.6548 66.7537 93.1034 65.8972C92.5324 65.4079 89.8815 64.633 88.862 64.3475C86.9452 63.7766 86.1295 63.7358 85.4362 62.023C84.539 59.8207 83.8457 54.6006 82.3775 53.418C81.4395 53.5403 77.6875 58.0263 76.6272 59.209C75.3629 60.5956 74.8735 60.7995 72.4673 60.2285C71.3254 59.9431 68.9192 59.1274 67.8997 59.1274V59.0867Z" fill="#FFEB7C"/>
<path fill-rule="evenodd" clip-rule="evenodd" d="M49.4251 108.719C50.0776 107.536 49.7106 107.699 50.934 106.231C52.7285 104.07 56.2766 102.602 59.5392 102.643C64.8409 102.643 68.3075 104.763 71.2438 107.21C72.3449 106.68 76.1377 103.091 76.5048 102.235C73.1198 101.99 70.836 101.297 67.8181 100.44C58.5604 97.8303 50.4446 96.199 40.4121 96.1582C40.9015 97.9526 43.063 101.623 44.1233 103.213C45.1021 104.722 47.8753 108.107 49.4251 108.76V108.719Z" fill="#CC7F74"/>
<path fill-rule="evenodd" clip-rule="evenodd" d="M40.8605 49.6261C41.3906 49.5853 41.3091 49.3814 42.0024 48.5658L45.0203 45.0585C46.2438 43.6719 47.5488 41.9999 50.526 41.9183C49.9958 40.6541 48.8539 38.2887 51.0969 36.6982C51.7902 36.2088 52.1573 36.3312 52.8506 36.0049C52.769 34.7407 52.0757 32.8647 51.5455 31.8452C49.7103 28.1748 44.327 27.8078 41.0644 31.8452C39.1476 34.2513 38.7805 36.6574 39.0252 40.4909C39.1476 42.163 39.3515 43.6719 39.7186 45.2217C40.2487 47.2607 41.0644 46.7714 40.8605 49.5853V49.6261Z" fill="#C7C8C2"/>
<path fill-rule="evenodd" clip-rule="evenodd" d="M25.2412 83.5561C25.2412 83.5561 25.282 83.4338 25.3228 83.4745L25.7714 82.9036C25.9753 82.6997 26.1384 82.5773 26.3016 82.3734C27.5658 81.0684 28.5854 80.3343 30.339 79.6818C33.9279 78.336 41.1465 78.0913 45.8365 77.2349C47.5901 76.9087 49.5477 76.4193 51.2198 75.8483C51.8315 75.6444 52.2393 75.3182 52.8511 75.1142C52.3209 74.8288 51.5053 74.5433 50.9751 74.2986C50.3633 74.0131 49.8332 73.6869 49.303 73.3198C48.4873 72.7489 46.8152 71.4439 46.489 70.7506C45.9588 70.8729 44.8985 71.6478 44.3275 71.9333C42.3292 73.0344 39.0258 74.8288 36.9051 73.9316C33.4385 72.4634 35.3553 65.9791 35.4777 63.6953C34.662 64.9596 33.9687 66.55 32.7452 68.3852C29.9312 72.6673 26.1792 78.2137 25.282 83.5561H25.2412Z" fill="#C7C8C2"/>
<path fill-rule="evenodd" clip-rule="evenodd" d="M50.6084 109.574C51.3425 110.267 53.7079 111.124 54.9314 111.368C58.5202 112.184 62.2722 111.817 65.6572 110.512C66.6768 110.104 68.9198 109.003 69.6131 108.35C69.083 107.535 66.5952 106.189 65.3717 105.659C61.946 104.15 57.4191 103.987 54.0749 106.026C53.4224 106.434 52.566 107.127 52.1581 107.576C51.6687 108.065 50.9347 108.881 50.6492 109.533L50.6084 109.574Z" fill="#F3AAB8"/>
<path fill-rule="evenodd" clip-rule="evenodd" d="M63.1276 53.4586C63.3723 52.3167 64.0656 50.5222 64.5142 49.4619C64.7997 48.7686 65.0444 48.2385 65.3299 47.6267C65.6562 46.9742 66.0232 46.4441 66.3495 45.7915C64.1064 46.1178 62.7606 44.9759 62.2304 43.3039C61.5779 43.7117 60.6399 45.139 58.2745 44.6089C56.7655 44.2826 56.2761 43.1815 55.7868 41.7949C55.0119 42.6921 54.3186 43.3038 52.6465 43.2631C53.0543 44.3234 53.8292 45.5876 54.3594 46.7295C57.1326 52.6429 55.1342 52.1943 58.8047 52.6837C60.2728 52.8876 61.7002 53.2139 63.1684 53.5401L63.1276 53.4586Z" fill="#C7C8C2"/>
<path fill-rule="evenodd" clip-rule="evenodd" d="M71.3661 46.8919L72.1409 47.1366C71.7739 48.4009 71.2437 49.8282 70.7951 51.0925C70.5504 51.8265 69.8163 54.5182 69.2861 54.8444C70.2649 55.2522 72.7527 55.9047 73.6907 55.4154C74.0985 55.2114 76.0153 53.0908 76.4231 52.6014C77.2795 51.6226 78.3399 50.8886 79.1963 49.9506C79.9712 49.1349 80.95 48.0338 82.5405 47.7484C80.7868 45.7093 80.9908 48.0746 78.6254 48.1562C77.6874 48.1562 76.8717 47.9115 76.3415 47.4221C75.5259 46.688 75.689 46.321 75.1588 45.5869C73.813 46.321 73.6091 47.0143 71.3661 46.8104V46.8919Z" fill="#C7C8C2"/>
<path fill-rule="evenodd" clip-rule="evenodd" d="M66.3507 45.7508C66.0245 46.4441 65.6574 46.9335 65.3312 47.586C65.0457 48.1978 64.7602 48.7279 64.5155 49.4212C64.0669 50.5223 63.3736 52.276 63.1289 53.4178L69.3279 54.8452C69.8173 54.4782 70.5921 51.7866 70.8368 51.0933C71.2854 49.829 71.7748 48.4017 72.1827 47.1374L71.4078 46.8927C69.8988 46.5665 68.8793 45.7508 68.4714 44.3643C68.0636 44.5682 67.9005 44.8536 67.4927 45.1799C67.0848 45.4654 66.7993 45.5469 66.3915 45.7508H66.3507Z" fill="#FBDACF"/>
<path fill-rule="evenodd" clip-rule="evenodd" d="M71.2861 29.9681C69.6956 30.3759 68.7168 32.2111 69.0431 33.6792C69.3693 35.1882 70.8783 36.2485 72.7135 35.7591C76.4247 34.7804 75.6906 28.8262 71.2861 29.9681Z" fill="#F0895E"/>
<path fill-rule="evenodd" clip-rule="evenodd" d="M82.7443 26.7878L82.5403 24.7487C81.8878 24.137 80.9498 22.7912 78.666 23.8515C75.1995 25.442 76.9123 29.7649 79.971 29.5202C82.0102 29.3571 82.3364 27.5627 82.785 26.7878H82.7443Z" fill="#F0895E"/>
<path fill-rule="evenodd" clip-rule="evenodd" d="M80.7058 5.33578C79.0337 5.86595 78.5036 7.29332 78.7075 8.96538C78.8298 9.78101 80.5019 11.2084 82.2963 10.8006C82.8265 10.6782 83.683 9.98492 83.9276 9.65867C84.988 8.06817 83.479 4.43858 80.7058 5.295V5.33578Z" fill="#FFEB7C"/>
<path fill-rule="evenodd" clip-rule="evenodd" d="M76.7907 14.9195C75.5264 15.1642 74.3437 16.51 74.2214 17.8966C74.099 19.5686 75.4857 20.629 77.1985 20.4658C80.9913 20.058 80.2164 14.2262 76.7907 14.9195Z" fill="#F0895E"/>
<path fill-rule="evenodd" clip-rule="evenodd" d="M79.1561 62.1042C76.3013 62.6344 75.3633 66.5494 76.3013 67.2835C77.9734 68.6293 77.4024 64.6735 79.1969 63.9802C79.8086 63.7355 80.4204 63.8986 80.7874 64.388C81.6438 65.6114 80.7058 67.1612 80.869 68.1399C80.9505 68.5885 82.4187 70.0974 82.8673 66.9572C83.2752 63.9802 81.9293 61.6148 79.1969 62.145L79.1561 62.1042Z" fill="#AB973A"/>
<path fill-rule="evenodd" clip-rule="evenodd" d="M66.1455 24.8293C66.2271 25.9712 67.0019 26.9907 67.8176 27.2762C68.9595 27.7248 70.4277 27.0723 71.0394 26.4606C72.8746 24.6254 71.3657 21.6891 68.7964 21.8522C68.2662 22.3008 67.9807 22.7902 67.4913 23.2796C67.2059 23.5651 66.3902 24.503 66.1455 24.8293Z" fill="#F0895E"/>
<path fill-rule="evenodd" clip-rule="evenodd" d="M46.8563 55.9053C45.4697 56.2723 45.1434 56.5578 44.4501 57.5365C44.0423 58.0667 43.1858 59.5756 43.7568 60.3505C44.0423 60.7583 44.654 60.8399 45.0619 60.432C45.4697 60.0242 45.592 58.4337 46.6116 57.9036C49.2217 56.4762 48.1206 60.8399 48.3652 61.2885C48.5692 61.6963 49.9558 62.5119 50.2413 60.1874C50.5675 57.3326 49.0178 55.3343 46.8971 55.9053H46.8563Z" fill="#AB973A"/>
<path fill-rule="evenodd" clip-rule="evenodd" d="M83.8456 37.594L83.2746 32.17C81.1539 32.0477 78.9109 33.1896 79.4411 35.4734C79.645 36.4113 80.3383 37.1454 80.9908 37.5125C82.0104 38.0834 82.7445 37.9203 83.8048 37.5532L83.8456 37.594Z" fill="#F0895E"/>
<path fill-rule="evenodd" clip-rule="evenodd" d="M59.0498 33.1492C60.4772 34.1279 62.3532 33.8425 63.4135 32.7006C64.3923 31.6402 64.27 29.1526 63.0873 28.3369C62.8426 28.5 59.3353 32.6598 59.0498 33.1492Z" fill="#F0895E"/>
<path fill-rule="evenodd" clip-rule="evenodd" d="M71.2837 40.9389C70.5496 41.3467 69.8155 42.5294 70.1826 43.7937C70.4681 44.8132 71.6915 45.4249 72.9558 44.8948C75.9737 43.549 73.0782 39.9194 71.2837 40.9389Z" fill="#C3E5EE"/>
<path fill-rule="evenodd" clip-rule="evenodd" d="M58.3558 38.6129C56.6837 39.7548 57.4994 44.0369 60.1502 42.5687C60.9251 42.1609 61.4553 40.7743 60.8843 39.714C60.5988 39.143 59.3346 37.9604 58.3558 38.6129Z" fill="#C3E5EE"/>
<path fill-rule="evenodd" clip-rule="evenodd" d="M65.127 39.7158C62.8432 40.5314 63.822 45.0174 66.1058 43.8348C68.6343 42.5705 67.2477 38.9409 65.127 39.7158Z" fill="#F3AAB8"/>
<path fill-rule="evenodd" clip-rule="evenodd" d="M77.6472 42.6504C77.1986 42.8543 77.5249 42.4873 77.1578 43.099C76.2198 44.7711 77.6472 47.3811 79.4824 46.0353C81.4808 44.5672 79.931 41.7125 77.6472 42.6912V42.6504Z" fill="#F3AAB8"/>
<path fill-rule="evenodd" clip-rule="evenodd" d="M61.823 37.8383C62.0269 38.083 62.1493 38.2054 62.3532 38.5316C62.4755 38.7355 62.5979 39.021 62.761 39.2657C64.1884 38.1646 64.1068 37.3897 67.0432 38.1238C66.9616 36.7372 65.9828 35.7177 64.5554 35.6769C63.2096 35.6361 61.9046 36.7372 61.7822 37.8383H61.823Z" fill="#F0895E"/>
<path fill-rule="evenodd" clip-rule="evenodd" d="M71.897 86.654C70.7551 86.9394 67.6964 88.2037 67.778 89.4679C67.8595 90.2428 68.6344 90.4467 69.2869 89.9981C70.3473 89.264 70.7551 88.8562 72.3048 88.4076C74.2624 87.8774 73.6099 86.1646 71.897 86.6132V86.654Z" fill="#864322"/>
<path fill-rule="evenodd" clip-rule="evenodd" d="M84.9471 43.1407C83.846 43.3446 83.1119 43.5893 83.0303 44.7719C82.8264 47.1781 86.2114 47.4636 86.4153 45.0982C86.4969 44.1194 85.7628 42.9775 84.9471 43.1407Z" fill="#C3E5EE"/>
<path fill-rule="evenodd" clip-rule="evenodd" d="M73.8545 39.4704C74.3031 39.8374 74.5886 40.0005 74.9964 40.4084C75.7305 41.1832 75.5674 41.3056 75.8936 41.6318C76.5869 41.1424 77.1171 40.4899 78.7892 40.6123C78.6668 39.6335 77.7696 38.8179 76.7908 38.614C75.7305 38.3693 74.3439 38.7363 73.8545 39.4296V39.4704Z" fill="#F0895E"/>
<path fill-rule="evenodd" clip-rule="evenodd" d="M52.4429 38.0826C50.5261 39.0614 51.9943 42.2016 53.7071 41.1821C54.1965 40.8966 54.8491 39.9586 54.5228 39.0206C54.1558 37.9603 53.0954 37.7564 52.4837 38.0826H52.4429Z" fill="#F3AAB8"/>
<path fill-rule="evenodd" clip-rule="evenodd" d="M44.8166 84.0038C44.2049 84.2893 44.4496 84.901 44.7758 85.3088C45.4691 86.2876 46.8965 88.6121 47.9569 88.0004C49.0988 87.3479 47.3451 85.8798 47.1004 85.6351C46.7334 85.268 45.5099 83.6775 44.8166 84.0038Z" fill="#864322"/>
<path fill-rule="evenodd" clip-rule="evenodd" d="M65.9824 71.1991L67.2059 67.8958C67.3283 67.6511 67.7769 66.5092 67.7769 66.346C67.7769 66.0606 67.6137 65.8974 67.4098 65.6935C67.2875 65.5304 67.2875 65.5304 67.1651 65.3673L66.8389 65.041L65.9824 71.2399V71.1991Z" fill="#C7C8C2"/>
</svg>
