<svg width="322" height="78" viewBox="0 0 322 78" fill="none" xmlns="http://www.w3.org/2000/svg">
<g clip-path="url(#clip0_149_4163)">
<path d="M0.769562 55.5282C1.43437 52.5663 3.56627 50.8776 6.03625 49.4929C6.93721 48.9882 8.00963 49.3004 8.5046 50.1626C8.98986 51.007 8.72297 52.0228 7.8867 52.6068C7.04559 53.194 6.15271 53.7278 5.40379 54.4169C4.06286 55.6479 4.0758 56.8207 5.36174 58.1132C6.87898 59.6386 8.80384 60.4813 10.774 61.2141C14.6884 62.6732 18.7646 63.427 22.9006 63.8864C27.3408 64.3798 31.7938 64.5011 36.255 64.2439C42.2156 63.8994 48.1018 63.1229 53.6726 60.8324C55.0539 60.2646 56.3981 59.4995 57.5951 58.6049C59.6558 57.0649 59.6138 55.5638 57.6226 53.9381C57.0937 53.5062 56.5113 53.1358 55.929 52.7783C54.8437 52.1134 54.4797 51.0749 55.0394 50.1383C55.5958 49.2066 56.7135 48.9639 57.7746 49.6676C58.8276 50.3664 59.9033 51.0798 60.7946 51.963C63.4522 54.6013 63.4069 57.9773 60.7768 60.6496C59.2789 62.1718 57.4495 63.1844 55.5133 64.0191C51.4824 65.758 47.2396 66.7011 42.9095 67.2527C40.4719 67.5633 38.0116 67.6927 35.5611 67.9078C35.3831 67.924 35.2084 67.9693 35.0321 68H28.4941C28.3177 67.9677 28.1431 67.9256 27.9667 67.9062C24.7446 67.5714 21.5079 67.3497 18.3068 66.8806C14.3552 66.3015 10.4974 65.2808 6.89839 63.4934C4.06933 62.0876 1.51363 60.3714 0.767944 56.9808V55.5282H0.769562Z" fill="#39BF63"/>
<path d="M48.7019 22.5675C48.6727 24.7141 48.0565 26.7183 47.3383 28.6918C45.4328 33.9167 42.8157 38.8019 40.0901 43.6289C38.7314 46.0326 37.3144 48.4041 35.8894 50.769C33.8351 54.1806 29.7056 54.1854 27.6513 50.7917C23.9746 44.7208 20.4128 38.5884 17.5466 32.0807C16.5065 29.719 15.5198 27.3249 15.0847 24.7675C14.5266 21.4966 15.1753 18.3811 16.6294 15.437C19.8629 8.89702 26.8409 5.18783 34.0163 6.15031C41.1027 7.09985 46.8336 12.4477 48.3007 19.5151C48.5094 20.5164 48.5708 21.5484 48.7019 22.5675ZM31.8148 14.955C28.0686 14.934 25.0066 17.9427 24.984 21.6633C24.9613 25.4258 27.9991 28.5058 31.7453 28.5171C35.4672 28.5284 38.5292 25.4873 38.5454 21.7635C38.5616 18.022 35.5497 14.9744 31.8148 14.955Z" fill="#39BF63"/>
<path d="M23.2581 50.5555C20.3061 51.1492 17.3929 51.552 14.8275 53.4219C15.2254 53.718 15.5166 53.9849 15.8498 54.1725C17.5579 55.1366 19.4342 55.63 21.3381 55.9778C28.4568 57.2735 35.5837 57.2881 42.683 55.8597C44.2294 55.5491 45.7224 54.9425 47.217 54.4087C47.7119 54.2324 48.1373 53.8571 48.7342 53.485C48.2862 53.1664 47.974 52.8946 47.6197 52.6989C45.7385 51.6652 43.673 51.209 41.5912 50.8063C41.1803 50.727 40.7662 50.6574 40.2648 50.5685C40.8989 49.4879 41.4844 48.464 42.1056 47.461C42.1767 47.3462 42.4582 47.2799 42.6183 47.3106C44.8198 47.7344 46.997 48.2601 48.9914 49.3197C49.6966 49.6933 50.3873 50.1495 50.9696 50.6914C52.7279 52.3284 52.7133 54.5656 50.9777 56.2253C49.6756 57.4708 48.0451 58.1276 46.3661 58.6598C43.2362 59.653 40.006 60.1237 36.7418 60.3583C32.6479 60.6511 28.5555 60.6236 24.4761 60.1318C21.1262 59.729 17.7989 59.1839 14.7369 57.673C13.8667 57.2444 13.0256 56.6572 12.3365 55.9762C10.8629 54.5187 10.892 52.4465 12.3058 50.9243C13.4963 49.6432 15.0443 48.9428 16.6634 48.4187C18.0027 47.9851 19.3841 47.6875 20.7461 47.3252C21.1181 47.2265 21.3688 47.2863 21.5775 47.6729C22.0951 48.6273 22.6677 49.5526 23.2565 50.5539L23.2581 50.5555Z" fill="#39BF63"/>
</g>
<path d="M77.1095 31.66H131.77V39.16H77.1095V31.66ZM100.33 10.06H108.19V66.4H100.33V10.06ZM139.87 18.34H193.39V25.24H139.87V18.34ZM159.43 37.78H190.93V44.44H159.43V37.78ZM157.15 58.18H193.21V64.84H157.15V58.18ZM171.67 27.82H178.93V61.72H171.67V27.82ZM158.83 10L166.33 11.8C164.85 16.6 162.99 21.34 160.75 26.02C158.51 30.7 155.81 35.06 152.65 39.1C149.49 43.14 145.77 46.62 141.49 49.54C141.25 48.86 140.91 48.1 140.47 47.26C140.07 46.42 139.65 45.58 139.21 44.74C138.77 43.9 138.35 43.2 137.95 42.64C140.67 40.88 143.13 38.76 145.33 36.28C147.57 33.8 149.55 31.1 151.27 28.18C152.99 25.26 154.47 22.26 155.71 19.18C156.99 16.1 158.03 13.04 158.83 10ZM146.83 35.14H154.09V66.28H146.83V35.14ZM234.67 29.86H257.11V36.52H234.67V29.86ZM202.15 16H229.21V21.82H202.15V16ZM201.61 39.88H229.15V45.94H201.61V39.88ZM201.43 29.38H229.69V35.26H201.43V29.38ZM244.39 32.8H251.41V66.1H244.39V32.8ZM212.23 10.54H219.19V18.58H212.23V10.54ZM212.23 34.9H219.19V66.28H212.23V34.9ZM231.43 14.74L239.83 17.14C239.79 17.66 239.29 18 238.33 18.16V35.8C238.33 38.04 238.21 40.5 237.97 43.18C237.77 45.82 237.35 48.54 236.71 51.34C236.07 54.1 235.13 56.78 233.89 59.38C232.65 61.98 231.01 64.36 228.97 66.52C228.69 65.96 228.23 65.36 227.59 64.72C226.99 64.08 226.35 63.46 225.67 62.86C225.03 62.3 224.41 61.88 223.81 61.6C225.57 59.76 226.95 57.78 227.95 55.66C228.99 53.5 229.75 51.28 230.23 49C230.75 46.72 231.07 44.46 231.19 42.22C231.35 39.94 231.43 37.76 231.43 35.68V14.74ZM251.05 10.66L256.81 15.88C254.77 16.8 252.55 17.64 250.15 18.4C247.75 19.16 245.29 19.84 242.77 20.44C240.29 21 237.89 21.5 235.57 21.94C235.37 21.18 235.05 20.26 234.61 19.18C234.17 18.1 233.73 17.2 233.29 16.48C235.45 16 237.63 15.46 239.83 14.86C242.03 14.22 244.09 13.54 246.01 12.82C247.97 12.1 249.65 11.38 251.05 10.66ZM218.71 46.18C219.15 46.42 219.79 46.86 220.63 47.5C221.51 48.14 222.43 48.84 223.39 49.6C224.35 50.32 225.21 51 225.97 51.64C226.77 52.24 227.37 52.68 227.77 52.96L223.57 58.12C223.09 57.56 222.47 56.88 221.71 56.08C220.99 55.24 220.19 54.4 219.31 53.56C218.47 52.72 217.65 51.92 216.85 51.16C216.05 50.4 215.37 49.78 214.81 49.3L218.71 46.18ZM205.15 22.72L210.73 21.4C211.25 22.48 211.71 23.7 212.11 25.06C212.51 26.38 212.77 27.52 212.89 28.48L207.07 30.1C206.99 29.1 206.77 27.92 206.41 26.56C206.09 25.16 205.67 23.88 205.15 22.72ZM220.09 21.28L226.51 22.54C225.95 23.9 225.41 25.22 224.89 26.5C224.37 27.74 223.89 28.8 223.45 29.68L217.69 28.48C217.97 27.8 218.27 27.04 218.59 26.2C218.91 25.36 219.21 24.52 219.49 23.68C219.77 22.8 219.97 22 220.09 21.28ZM212.29 43.36L217.33 45.28C216.37 47.44 215.21 49.62 213.85 51.82C212.49 53.98 211.01 56 209.41 57.88C207.81 59.76 206.21 61.34 204.61 62.62C204.09 61.86 203.37 60.98 202.45 59.98C201.53 58.94 200.69 58.12 199.93 57.52C201.49 56.52 203.05 55.26 204.61 53.74C206.17 52.18 207.61 50.52 208.93 48.76C210.29 46.96 211.41 45.16 212.29 43.36ZM264.73 24.28H282.55V31.42H264.73V24.28ZM294.07 11.02H301.57V54.28C301.57 55.96 301.71 57.04 301.99 57.52C302.27 57.96 302.97 58.18 304.09 58.18C304.33 58.18 304.73 58.18 305.29 58.18C305.85 58.18 306.47 58.18 307.15 58.18C307.83 58.18 308.45 58.18 309.01 58.18C309.57 58.18 309.99 58.18 310.27 58.18C311.07 58.18 311.67 57.84 312.07 57.16C312.47 56.48 312.75 55.26 312.91 53.5C313.11 51.7 313.27 49.2 313.39 46C313.99 46.44 314.69 46.88 315.49 47.32C316.33 47.76 317.17 48.16 318.01 48.52C318.85 48.84 319.61 49.08 320.29 49.24C320.05 53.08 319.63 56.18 319.03 58.54C318.47 60.9 317.55 62.6 316.27 63.64C315.03 64.72 313.27 65.26 310.99 65.26C310.67 65.26 310.13 65.26 309.37 65.26C308.61 65.26 307.79 65.26 306.91 65.26C306.07 65.26 305.29 65.26 304.57 65.26C303.85 65.26 303.31 65.26 302.95 65.26C300.67 65.26 298.87 64.92 297.55 64.24C296.27 63.6 295.37 62.48 294.85 60.88C294.33 59.24 294.07 57.02 294.07 54.22V11.02ZM278.95 11.02H286.45V65.74H278.95V11.02ZM313.87 19.96L319.09 26.44C317.01 27.84 314.81 29.24 312.49 30.64C310.17 32 307.81 33.34 305.41 34.66C303.05 35.94 300.73 37.14 298.45 38.26C298.21 37.46 297.79 36.52 297.19 35.44C296.59 34.32 296.05 33.38 295.57 32.62C297.73 31.46 299.91 30.16 302.11 28.72C304.31 27.28 306.41 25.8 308.41 24.28C310.45 22.76 312.27 21.32 313.87 19.96ZM262.57 51.46C264.21 50.98 266.11 50.4 268.27 49.72C270.43 49 272.71 48.22 275.11 47.38C277.51 46.5 279.89 45.64 282.25 44.8L283.63 51.28C280.63 52.64 277.55 53.98 274.39 55.3C271.27 56.62 268.41 57.82 265.81 58.9L262.57 51.46Z" fill="#39BF63"/>
<defs>
<clipPath id="clip0_149_4163">
<rect width="62" height="62" fill="white" transform="translate(0.769531 6)"/>
</clipPath>
</defs>
</svg>
