<svg width="326" height="56" viewBox="0 0 326 56" fill="none" xmlns="http://www.w3.org/2000/svg">
<path d="M73.5255 19.9H113.575V25.48H73.5255V19.9ZM96.6105 22.15C99.3105 32.455 105.025 41.005 114.565 44.785C113.215 46 111.415 48.34 110.515 49.915C100.21 45.1 94.5855 35.785 91.1655 23.41L96.6105 22.15ZM90.4005 7.795H96.3405C96.1155 21.52 96.0255 40.6 76.7205 49.915C75.8655 48.43 74.2005 46.495 72.6255 45.325C91.0755 37.09 90.2655 19.99 90.4005 7.795ZM119.785 36.46H160.78V40.87H119.785V36.46ZM143.365 37.945C145.93 43.12 151.78 44.875 162.085 45.1C160.96 46.225 159.61 48.475 159.025 50.005C147.28 49.195 141.61 46.27 138.055 38.71L143.365 37.945ZM145.795 34.975L148 31.915C150.925 32.545 155.02 33.85 157.18 34.795L154.885 38.215C152.815 37.225 148.81 35.785 145.795 34.975ZM135.49 21.745H161.5V25.48H135.49V21.745ZM150.43 18.82H155.515V28.18C155.515 30.34 155.065 31.375 153.49 31.96C151.87 32.545 149.755 32.545 146.83 32.545C146.605 31.285 145.975 29.71 145.39 28.63C147.145 28.675 149.125 28.675 149.665 28.63C150.205 28.63 150.43 28.495 150.43 28V18.82ZM119.245 21.16H131.845V25.39H119.245V21.16ZM129.19 7.75H134.095V33.67H129.19V7.75ZM121.315 9.055H125.815V14.68H131.98V18.82H121.315V9.055ZM138.19 26.92L141.79 24.85C143.365 26.155 145.21 28.045 146.02 29.44L142.195 31.69C141.52 30.34 139.765 28.315 138.19 26.92ZM137.155 14.41L140.08 13.285C141.925 14.41 144.13 16.21 145.21 17.515L142.195 18.685C141.16 17.425 139 15.625 137.155 14.41ZM141.745 12.745L144.265 11.44C146.56 12.52 149.305 14.32 150.7 15.715L148 17.155C146.74 15.76 144.04 13.915 141.745 12.745ZM155.155 9.91H156.01L156.865 9.775L159.655 11.125C155.74 18.01 147.28 20.755 137.695 21.97C137.335 20.98 136.39 19.495 135.67 18.64C144.22 17.83 152.095 15.49 155.155 10.495V9.91ZM147.28 7.75L151.69 8.74C148.135 12.07 143.275 14.365 136.57 16.21C136.03 15.22 134.86 13.78 133.96 13.105C140.215 11.845 144.76 9.955 147.28 7.75ZM146.29 9.91H156.55V12.835H142.285L146.29 9.91ZM121.945 23.365H126.67V25.615C126.67 27.73 126.085 32.23 123.07 34.75C122.17 34.03 120.145 32.995 118.975 32.455C121.54 30.43 121.945 27.055 121.945 25.48V23.365ZM137.2 32.23H142.555V36.325C142.555 41.77 139.675 47.89 121.63 50.14C121.045 48.88 119.695 46.9 118.705 45.73C134.77 43.84 137.2 39.7 137.2 36.19V32.23ZM172.075 34.66H186.97V37.81H172.075V34.66ZM172.075 39.565H186.97V42.715H172.075V39.565ZM172.03 44.47H188.095V48.115H172.03V44.47ZM166.18 10.45H189.22V14.365H166.18V10.45ZM177.565 31.78H182.065V46.315H177.565V31.78ZM170.77 7.84H175.45V16.57H170.77V7.84ZM179.68 7.84H184.45V16.57H179.68V7.84ZM170.77 20.44V23.095H173.11V20.44H170.77ZM167.26 17.29H176.845V26.29H167.26V17.29ZM181.705 20.44V23.095H184.27V20.44H181.705ZM178.195 17.29H188.005V26.29H178.195V17.29ZM173.875 29.35H188.185V32.905H173.875V49.915H169.33V33.67L173.335 29.35H173.875ZM179.05 26.02L183.775 27.055C182.695 28.945 181.66 30.79 180.895 32.095L177.295 31.06C177.97 29.575 178.69 27.505 179.05 26.02ZM170.95 25.84L175.36 27.01C173.74 32.23 171.04 37.585 167.935 41.005C167.44 39.97 166.045 37.72 165.235 36.73C167.71 34.03 169.78 29.98 170.95 25.84ZM192.145 15.94H204.79V20.8H192.145V15.94ZM197.725 17.83H200.29V25.57C200.245 29.935 201.685 39.88 208.435 45.37C207.49 46.495 206.005 48.745 205.24 50.05C200.38 46.18 198.175 38.575 197.725 34.75C197.14 38.665 194.575 46.045 189.22 50.05C188.635 48.88 187.15 46.585 186.25 45.595C193.72 40.015 195.16 30.025 195.115 25.57V17.83H197.725ZM191.83 7.705L197.14 8.47C196.105 16.57 194.17 24.49 191.02 29.485C190.12 28.63 187.87 26.965 186.61 26.245C189.535 21.925 191.11 14.86 191.83 7.705ZM202.99 15.94H203.755L204.52 15.625L208.075 16.885C207.625 21.295 206.77 26.29 205.69 29.665L201.865 27.505C202.405 24.715 202.81 20.305 202.99 16.75V15.94ZM213.835 33.445H254.02V38.125H213.835V33.445ZM231.07 29.935H236.56V50.005H231.07V29.935ZM229.405 35.47L233.815 37.405C229.72 42.715 222.88 47.305 216.22 49.69C215.41 48.34 213.79 46.27 212.62 45.19C219.1 43.345 225.94 39.61 229.405 35.47ZM238.18 35.605C241.735 39.52 248.62 43.075 255.19 44.785C254.02 45.865 252.355 47.98 251.59 49.33C244.93 47.08 238 42.67 233.725 37.675L238.18 35.605ZM231.52 23.185V26.56H236.065V23.185H231.52ZM231.52 16.075V19.405H236.065V16.075H231.52ZM227.02 12.025H240.745V30.61H227.02V12.025ZM231.745 7.75L237.19 8.38C236.335 10.72 235.48 13.015 234.76 14.59L230.485 13.825C230.98 12.025 231.52 9.55 231.745 7.75ZM213.43 17.83L215.545 14.185C217.84 15.805 220.765 18.19 222.07 19.81L219.82 23.95C218.56 22.15 215.68 19.585 213.43 17.83ZM222.07 23.5L225.4 22.465C226.48 25.165 227.515 28.675 227.785 30.835L224.23 32.14C224.005 29.89 223.06 26.245 222.07 23.5ZM222.7 14.365L226.75 15.985C224.23 20.44 221.035 25.615 218.38 28.945L215.05 27.325C217.66 23.95 220.9 18.46 222.7 14.365ZM219.1 8.11L223.285 9.595C221.8 12.655 220.135 16.03 218.74 18.28L215.275 16.84C216.58 14.5 218.245 10.81 219.1 8.11ZM213.34 26.875C216.445 26.695 220.81 26.38 225.4 26.02L225.445 29.71C221.305 30.34 217.255 30.835 213.835 31.33L213.34 26.875ZM239.575 17.38L242.005 13.96C244.345 15.895 247.27 18.64 248.575 20.485L246.01 24.4C244.795 22.375 241.915 19.45 239.575 17.38ZM248.44 23.32L251.95 22.06C253.21 24.895 254.47 28.63 254.875 30.925L251.095 32.455C250.735 30.07 249.61 26.245 248.44 23.32ZM249.025 14.455L253.12 16.12C250.555 20.575 247.225 25.75 244.525 29.08L241.195 27.505C243.85 24.085 247.18 18.55 249.025 14.455ZM245.605 8.065L249.835 9.55C248.26 12.655 246.55 15.985 245.11 18.19L241.645 16.795C242.995 14.455 244.75 10.765 245.605 8.065ZM239.89 26.785C243.085 26.65 247.54 26.38 252.175 26.11V29.89C248.035 30.385 243.895 30.835 240.475 31.24L239.89 26.785ZM259.105 30.835C263.11 29.98 269.05 28.495 274.675 27.1L275.305 31.96C270.175 33.4 264.73 34.885 260.455 36.01L259.105 30.835ZM259.78 16.3H274.765V21.295H259.78V16.3ZM265.225 7.795H270.445V44.425C270.445 46.945 269.95 48.295 268.465 49.105C266.98 49.915 264.82 50.05 261.67 50.05C261.535 48.7 260.86 46.54 260.185 45.19C261.94 45.235 263.785 45.235 264.37 45.235C265 45.235 265.225 45.01 265.225 44.38V7.795ZM275.8 17.875H300.91V49.69H295.51V23.005H280.93V49.96H275.8V17.875ZM279.04 29.485H296.995V34.525H279.04V29.485ZM279.175 41.545H297.175V46.72H279.175V41.545ZM285.565 7.885H290.65V44.695H285.565V7.885Z" fill="white"/>
<path d="M30.0668 19.1071L42.4597 31.5L30.0668 43.8929" stroke="white" stroke-width="7" stroke-miterlimit="10" stroke-linecap="round" stroke-linejoin="round"/>
<path d="M7.75134 31.5H42.1126" stroke="white" stroke-width="7" stroke-miterlimit="10" stroke-linecap="round" stroke-linejoin="round"/>
</svg>
