<svg width="318" height="78" viewBox="0 0 318 78" fill="none" xmlns="http://www.w3.org/2000/svg">
<g clip-path="url(#clip0_149_4170)">
<path d="M44.876 37.2091H45.8545C51.6345 37.2091 57.4125 37.2091 63.1925 37.2091C64.9441 37.2091 65.7676 38.0221 65.7676 39.7535C65.7695 47.9894 65.7695 56.2234 65.7676 64.4594C65.7676 66.1831 64.9383 66.9962 63.1828 66.9981C54.8413 67 46.4978 67 38.1563 66.9981C36.4124 66.9981 35.5928 66.1774 35.5908 64.4422C35.5889 57.2087 35.5908 49.9771 35.5908 42.7437V41.8426H30.9482V42.6825C30.9482 49.8911 30.9482 57.0997 30.9482 64.3102C30.9482 66.2328 30.1712 67 28.2259 67C19.9793 67 11.7346 67 3.48804 67C1.54265 67 0.769531 66.2328 0.769531 64.3083C0.769531 56.168 0.769531 48.0277 0.769531 39.8893C0.769531 37.9705 1.54459 37.211 3.49966 37.211C7.19668 37.211 10.8937 37.211 14.6973 37.211V36.3501C14.6973 29.1415 14.6973 21.9329 14.6973 14.7243C14.6992 12.7499 15.4588 12 17.4584 12C25.6798 12 33.9012 12 42.1226 12C44.1164 12 44.876 12.7519 44.876 14.73C44.876 21.9156 44.876 29.0994 44.876 36.285C44.876 36.5662 44.876 36.8475 44.876 37.2071V37.2091ZM7.73728 52.0529C7.71209 56.3708 11.4014 60.0822 15.7552 60.1224C20.173 60.1625 23.9495 56.5219 23.9844 52.1887C24.0192 47.8287 20.3319 44.1192 15.9296 44.0848C11.5254 44.0503 7.7644 47.7101 7.73921 52.0529H7.73728ZM60.1581 52.1122C59.8345 51.5229 59.6543 50.9203 59.261 50.5224C56.9688 48.196 54.6417 45.9022 52.2952 43.6275C51.3089 42.6691 50.0417 42.6786 49.0574 43.6352C46.7322 45.8965 44.4265 48.1769 42.1323 50.4688C41.1092 51.4923 41.1267 52.7397 42.1594 53.7689C44.4226 56.0245 46.6954 58.2686 48.9818 60.5012C50.0204 61.5151 51.3031 61.5438 52.334 60.5433C54.6611 58.2839 56.9727 56.0092 59.2474 53.6981C59.6408 53.2983 59.8287 52.6995 60.1562 52.1103L60.1581 52.1122ZM29.776 33.7712C31.9752 33.7712 34.1744 33.7712 36.3736 33.7693C36.6623 33.7693 36.9588 33.7769 37.2398 33.7195C38.9139 33.3809 39.5862 31.5711 38.6174 29.9679C36.4647 26.4076 34.2984 22.855 32.1341 19.3004C30.9327 17.3261 28.6444 17.3299 27.4392 19.3119C25.2632 22.8856 23.1008 26.4689 20.9113 30.0349C20.4133 30.846 20.1595 31.6457 20.6807 32.5162C21.2039 33.3905 21.9983 33.7865 23.0369 33.7769C25.2845 33.7578 27.5322 33.7712 29.7779 33.7712H29.776Z" fill="#39BF63"/>
</g>
<path d="M73.1095 31.66H127.77V39.16H73.1095V31.66ZM96.3295 10.06H104.19V66.4H96.3295V10.06ZM135.87 18.34H189.39V25.24H135.87V18.34ZM155.43 37.78H186.93V44.44H155.43V37.78ZM153.15 58.18H189.21V64.84H153.15V58.18ZM167.67 27.82H174.93V61.72H167.67V27.82ZM154.83 10L162.33 11.8C160.85 16.6 158.99 21.34 156.75 26.02C154.51 30.7 151.81 35.06 148.65 39.1C145.49 43.14 141.77 46.62 137.49 49.54C137.25 48.86 136.91 48.1 136.47 47.26C136.07 46.42 135.65 45.58 135.21 44.74C134.77 43.9 134.35 43.2 133.95 42.64C136.67 40.88 139.13 38.76 141.33 36.28C143.57 33.8 145.55 31.1 147.27 28.18C148.99 25.26 150.47 22.26 151.71 19.18C152.99 16.1 154.03 13.04 154.83 10ZM142.83 35.14H150.09V66.28H142.83V35.14ZM222.09 13.06H246.51V19.66H222.09V13.06ZM220.05 33.88H253.23V40.72H220.05V33.88ZM232.77 26.92H239.97V58.36C239.97 60.16 239.75 61.58 239.31 62.62C238.87 63.66 238.07 64.46 236.91 65.02C235.71 65.58 234.27 65.94 232.59 66.1C230.95 66.3 229.03 66.38 226.83 66.34C226.67 65.34 226.33 64.16 225.81 62.8C225.29 61.44 224.77 60.26 224.25 59.26C225.77 59.3 227.23 59.34 228.63 59.38C230.03 59.42 230.99 59.42 231.51 59.38C231.99 59.38 232.31 59.3 232.47 59.14C232.67 58.98 232.77 58.7 232.77 58.3V26.92ZM243.87 13.06H245.67L247.11 12.64L251.79 16.18C250.63 17.94 249.31 19.78 247.83 21.7C246.39 23.58 244.87 25.4 243.27 27.16C241.67 28.88 240.09 30.4 238.53 31.72C238.05 31.08 237.39 30.34 236.55 29.5C235.71 28.66 234.99 28 234.39 27.52C235.59 26.4 236.81 25.06 238.05 23.5C239.29 21.94 240.41 20.36 241.41 18.76C242.45 17.16 243.27 15.76 243.87 14.56V13.06ZM197.19 21.94H216.63V28.66H197.19V21.94ZM205.29 10L212.01 10.72C211.45 13.92 210.81 17.28 210.09 20.8C209.41 24.32 208.69 27.84 207.93 31.36C207.17 34.84 206.41 38.22 205.65 41.5C204.89 44.74 204.15 47.7 203.43 50.38L197.55 47.32C198.23 44.96 198.91 42.26 199.59 39.22C200.31 36.18 201.01 32.98 201.69 29.62C202.37 26.22 203.01 22.86 203.61 19.54C204.25 16.18 204.81 13 205.29 10ZM200.73 46.3L204.63 41.2C206.71 42.52 208.89 44 211.17 45.64C213.49 47.28 215.63 48.94 217.59 50.62C219.59 52.3 221.17 53.9 222.33 55.42L218.01 61.24C216.89 59.72 215.37 58.08 213.45 56.32C211.53 54.52 209.45 52.74 207.21 50.98C205.01 49.22 202.85 47.66 200.73 46.3ZM214.11 21.94H215.31L216.57 21.82L220.83 22.54C220.39 30.34 219.41 37.08 217.89 42.76C216.41 48.4 214.33 53.16 211.65 57.04C209.01 60.92 205.69 64.1 201.69 66.58C201.25 65.7 200.61 64.68 199.77 63.52C198.93 62.4 198.13 61.52 197.37 60.88C200.77 59.08 203.65 56.44 206.01 52.96C208.37 49.48 210.21 45.24 211.53 40.24C212.89 35.24 213.75 29.6 214.11 23.32V21.94ZM259.59 14.5H280.17V21.16H259.59V14.5ZM260.25 31.78H279.69V38.38H260.25V31.78ZM258.51 52.6C260.43 52.24 262.61 51.8 265.05 51.28C267.49 50.72 270.07 50.12 272.79 49.48C275.55 48.8 278.29 48.16 281.01 47.56L281.73 53.74C277.97 54.78 274.17 55.8 270.33 56.8C266.53 57.8 263.07 58.7 259.95 59.5L258.51 52.6ZM283.23 14.26H312.15V21.16H283.23V14.26ZM280.77 31.18H315.27V38.08H280.77V31.18ZM287.67 36.04H294.63C294.51 39.88 294.23 43.38 293.79 46.54C293.35 49.7 292.57 52.54 291.45 55.06C290.33 57.54 288.69 59.72 286.53 61.6C284.37 63.48 281.47 65.08 277.83 66.4C277.59 65.84 277.25 65.2 276.81 64.48C276.37 63.8 275.89 63.12 275.37 62.44C274.85 61.8 274.33 61.28 273.81 60.88C276.97 59.8 279.45 58.52 281.25 57.04C283.09 55.52 284.45 53.76 285.33 51.76C286.21 49.72 286.79 47.4 287.07 44.8C287.35 42.2 287.55 39.28 287.67 36.04ZM298.65 35.92H305.79V57.16C305.79 58.12 305.85 58.74 305.97 59.02C306.09 59.26 306.35 59.38 306.75 59.38C306.87 59.38 307.07 59.38 307.35 59.38C307.63 59.38 307.91 59.38 308.19 59.38C308.51 59.38 308.73 59.38 308.85 59.38C309.17 59.38 309.41 59.2 309.57 58.84C309.77 58.44 309.91 57.64 309.99 56.44C310.07 55.24 310.13 53.46 310.17 51.1C310.65 51.5 311.27 51.9 312.03 52.3C312.79 52.7 313.57 53.06 314.37 53.38C315.21 53.66 315.93 53.88 316.53 54.04C316.33 57.12 315.99 59.54 315.51 61.3C315.03 63.06 314.31 64.3 313.35 65.02C312.39 65.74 311.15 66.1 309.63 66.1C309.35 66.1 309.03 66.1 308.67 66.1C308.31 66.1 307.93 66.1 307.53 66.1C307.13 66.1 306.75 66.1 306.39 66.1C306.03 66.1 305.73 66.1 305.49 66.1C303.65 66.1 302.23 65.82 301.23 65.26C300.23 64.7 299.55 63.76 299.19 62.44C298.83 61.16 298.65 59.4 298.65 57.16V35.92ZM266.79 17.14H273.69V52.78L266.79 53.86V17.14Z" fill="#39BF63"/>
<defs>
<clipPath id="clip0_149_4170">
<rect width="65" height="55" fill="white" transform="translate(0.769531 12)"/>
</clipPath>
</defs>
</svg>
