<svg width="334" height="78" viewBox="0 0 334 78" fill="none" xmlns="http://www.w3.org/2000/svg">
<path d="M89.1095 31.66H143.77V39.16H89.1095V31.66ZM112.33 10.06H120.19V66.4H112.33V10.06ZM151.87 18.34H205.39V25.24H151.87V18.34ZM171.43 37.78H202.93V44.44H171.43V37.78ZM169.15 58.18H205.21V64.84H169.15V58.18ZM183.67 27.82H190.93V61.72H183.67V27.82ZM170.83 10L178.33 11.8C176.85 16.6 174.99 21.34 172.75 26.02C170.51 30.7 167.81 35.06 164.65 39.1C161.49 43.14 157.77 46.62 153.49 49.54C153.25 48.86 152.91 48.1 152.47 47.26C152.07 46.42 151.65 45.58 151.21 44.74C150.77 43.9 150.35 43.2 149.95 42.64C152.67 40.88 155.13 38.76 157.33 36.28C159.57 33.8 161.55 31.1 163.27 28.18C164.99 25.26 166.47 22.26 167.71 19.18C168.99 16.1 170.03 13.04 170.83 10ZM158.83 35.14H166.09V66.28H158.83V35.14ZM238.09 13.06H262.51V19.66H238.09V13.06ZM236.05 33.88H269.23V40.72H236.05V33.88ZM248.77 26.92H255.97V58.36C255.97 60.16 255.75 61.58 255.31 62.62C254.87 63.66 254.07 64.46 252.91 65.02C251.71 65.58 250.27 65.94 248.59 66.1C246.95 66.3 245.03 66.38 242.83 66.34C242.67 65.34 242.33 64.16 241.81 62.8C241.29 61.44 240.77 60.26 240.25 59.26C241.77 59.3 243.23 59.34 244.63 59.38C246.03 59.42 246.99 59.42 247.51 59.38C247.99 59.38 248.31 59.3 248.47 59.14C248.67 58.98 248.77 58.7 248.77 58.3V26.92ZM259.87 13.06H261.67L263.11 12.64L267.79 16.18C266.63 17.94 265.31 19.78 263.83 21.7C262.39 23.58 260.87 25.4 259.27 27.16C257.67 28.88 256.09 30.4 254.53 31.72C254.05 31.08 253.39 30.34 252.55 29.5C251.71 28.66 250.99 28 250.39 27.52C251.59 26.4 252.81 25.06 254.05 23.5C255.29 21.94 256.41 20.36 257.41 18.76C258.45 17.16 259.27 15.76 259.87 14.56V13.06ZM213.19 21.94H232.63V28.66H213.19V21.94ZM221.29 10L228.01 10.72C227.45 13.92 226.81 17.28 226.09 20.8C225.41 24.32 224.69 27.84 223.93 31.36C223.17 34.84 222.41 38.22 221.65 41.5C220.89 44.74 220.15 47.7 219.43 50.38L213.55 47.32C214.23 44.96 214.91 42.26 215.59 39.22C216.31 36.18 217.01 32.98 217.69 29.62C218.37 26.22 219.01 22.86 219.61 19.54C220.25 16.18 220.81 13 221.29 10ZM216.73 46.3L220.63 41.2C222.71 42.52 224.89 44 227.17 45.64C229.49 47.28 231.63 48.94 233.59 50.62C235.59 52.3 237.17 53.9 238.33 55.42L234.01 61.24C232.89 59.72 231.37 58.08 229.45 56.32C227.53 54.52 225.45 52.74 223.21 50.98C221.01 49.22 218.85 47.66 216.73 46.3ZM230.11 21.94H231.31L232.57 21.82L236.83 22.54C236.39 30.34 235.41 37.08 233.89 42.76C232.41 48.4 230.33 53.16 227.65 57.04C225.01 60.92 221.69 64.1 217.69 66.58C217.25 65.7 216.61 64.68 215.77 63.52C214.93 62.4 214.13 61.52 213.37 60.88C216.77 59.08 219.65 56.44 222.01 52.96C224.37 49.48 226.21 45.24 227.53 40.24C228.89 35.24 229.75 29.6 230.11 23.32V21.94ZM303.13 16.18C301.41 18.18 299.27 20.2 296.71 22.24C294.15 24.28 291.35 26.22 288.31 28.06C285.27 29.86 282.15 31.46 278.95 32.86C278.67 32.3 278.29 31.66 277.81 30.94C277.33 30.18 276.83 29.46 276.31 28.78C275.79 28.06 275.27 27.44 274.75 26.92C278.07 25.64 281.29 24.06 284.41 22.18C287.53 20.3 290.37 18.3 292.93 16.18C295.49 14.02 297.57 11.9 299.17 9.82H306.43C308.11 11.74 309.95 13.54 311.95 15.22C313.99 16.86 316.11 18.38 318.31 19.78C320.51 21.18 322.77 22.44 325.09 23.56C327.45 24.64 329.81 25.56 332.17 26.32C331.33 27.2 330.51 28.22 329.71 29.38C328.91 30.54 328.21 31.64 327.61 32.68C324.73 31.44 321.75 29.94 318.67 28.18C315.59 26.38 312.69 24.44 309.97 22.36C307.25 20.28 304.97 18.22 303.13 16.18ZM289.93 35.26H316.33V40.42H289.93V35.26ZM299.53 21.94H306.97V30.04H299.53V21.94ZM279.19 59.2C281.47 59 284.03 58.8 286.87 58.6C289.75 58.36 292.77 58.12 295.93 57.88C299.09 57.6 302.23 57.32 305.35 57.04L305.47 63.4C302.51 63.68 299.51 63.96 296.47 64.24C293.47 64.56 290.57 64.84 287.77 65.08C285.01 65.36 282.47 65.6 280.15 65.8L279.19 59.2ZM305.23 47.14C307.39 50.78 310.65 53.68 315.01 55.84C319.41 57.96 324.73 59.38 330.97 60.1C330.49 60.62 329.97 61.24 329.41 61.96C328.85 62.72 328.33 63.48 327.85 64.24C327.37 65.04 326.97 65.76 326.65 66.4C322.21 65.68 318.25 64.56 314.77 63.04C311.29 61.52 308.27 59.6 305.71 57.28C303.15 54.92 300.97 52.08 299.17 48.76L305.23 47.14ZM322.93 45.88L328.15 50.2C326.63 51.24 325.01 52.28 323.29 53.32C321.57 54.32 319.85 55.26 318.13 56.14C316.41 56.98 314.79 57.74 313.27 58.42L309.01 54.52C310.49 53.8 312.07 52.96 313.75 52C315.43 51 317.09 49.98 318.73 48.94C320.37 47.86 321.77 46.84 322.93 45.88ZM289.93 26.5H321.19V49.3H289.93V43.72H313.87V32.14H289.93V26.5ZM285.43 26.5H292.57V60.04L285.43 60.76V26.5Z" fill="#FF5F17"/>
<g clip-path="url(#clip0_149_4171)">
<path d="M0.769531 12.5587C1.27917 11.7988 1.79074 11.039 2.41235 10.1125C1.75599 6.85993 2.5745 4.90221 5.1478 3.97761C7.60912 3.09373 9.63417 4.07841 11.1129 6.89676C11.2152 6.89676 11.3368 6.91421 11.4507 6.89482C13.8792 6.48777 15.6533 8.48233 15.1707 11.1495C15.0761 11.6767 15.2112 11.9268 15.5664 12.2408C16.8077 13.3437 17.4911 14.7238 17.5625 16.4586C12.219 15.9101 7.81182 17.6022 4.35052 21.7464C3.22507 20.4361 2.78106 18.9552 2.92971 17.296C2.97218 16.8172 2.90268 16.4993 2.45095 16.228C1.56295 15.6968 1.12666 14.8013 0.769531 13.8651C0.769531 13.4309 0.769531 12.9948 0.769531 12.5587Z" fill="#FF5F17"/>
<path d="M61.181 26.4776C60.1694 26.7916 59.2274 27.0068 58.3509 27.3789C57.4958 27.7453 56.7081 28.2725 55.851 28.7532C55.3143 28.4024 54.714 28.0108 54.1136 27.6173C54.0306 27.5224 53.9495 27.4274 53.8665 27.3324C54.2294 27.0959 54.6271 26.8982 54.9495 26.6152C56.9359 24.8649 57.2429 22.1318 55.6194 20.0423C54.9128 19.1332 54.1078 18.2765 53.2333 17.5321C50.9921 15.6267 47.83 16.09 46.164 18.5304C44.4054 21.1084 43.6776 23.9597 44.1525 27.063C44.2529 27.7162 44.1679 28.1097 43.5579 28.3714C43.3417 28.4644 43.1641 28.6427 42.9788 28.7765C42.9131 28.7648 42.8591 28.7726 42.8263 28.7493C41.2626 27.6736 41.2761 27.6755 41.751 25.7972C42.6776 22.1357 43.9536 18.604 45.5173 15.1654C45.9208 14.2796 46.4999 13.7 47.3589 13.3628C47.9169 13.1437 48.4883 12.9576 49.0655 12.7909C49.9438 12.539 50.3434 12.004 50.189 11.2267C50.0423 10.4901 49.4728 10.1451 48.5944 10.2595C48.4786 10.275 48.3647 10.304 48.0771 10.3603C48.4612 9.71867 48.7817 9.20307 49.0867 8.67778C49.5462 7.88499 49.4245 7.19882 48.7605 6.78208C48.1022 6.36921 47.3744 6.54366 46.9304 7.32481C45.4324 9.96678 43.9691 12.6301 42.473 15.3205C42.4054 15.2449 42.2568 15.0724 42.1062 14.9037C41.0464 13.7214 39.7259 13.0371 38.1565 12.8568C37.2067 12.7483 36.6739 13.1243 36.5697 13.9152C36.4635 14.7215 36.8612 15.2352 37.7897 15.3767C38.9769 15.557 39.9402 16.0687 40.5638 17.1193C41.0773 17.9818 41.2896 18.8696 40.8823 19.8775C40.4788 20.8738 40.195 21.9205 39.8341 23.0157C39.5155 22.7114 39.2511 22.442 38.9673 22.1939C37.4866 20.8932 35.7569 20.2788 33.7937 20.3486C32.8477 20.3815 32.3864 20.8273 32.4018 21.6434C32.4173 22.4575 32.8979 22.8742 33.8381 22.8878C36.3747 22.9227 38.3959 24.4792 38.8437 26.7877C35.0871 25.993 31.8401 26.9932 28.9733 29.6681C27.7861 25.9969 26.7842 22.2869 23.8132 19.5519C25.6916 17.4313 28.0525 16.6618 30.7474 16.7335C30.0718 11.0774 33.8381 7.43142 38.3997 7.58455C38.5252 7.22014 38.6488 6.83635 38.7858 6.45837C40.6352 1.41868 46.1486 -1.20584 51.2121 0.542544C55.0981 1.88388 57.0633 5.50083 56.2081 9.73999C56.185 9.85823 56.1734 9.98228 56.1271 10.0928C55.8607 10.7305 56.0421 11.1356 56.5788 11.6182C58.1656 13.0468 58.571 14.8727 57.9475 16.9002C57.8143 17.3364 57.8761 17.6 58.1386 17.9353C60.0999 20.4493 61.152 23.2929 61.1829 26.4795L61.181 26.4776Z" fill="#FF5F17"/>
<path d="M25.3557 26.8075C25.8731 28.4726 26.402 30.1454 26.902 31.8279C26.956 32.0081 26.9078 32.2717 26.8074 32.4384C25.1125 35.282 24.2109 38.393 23.6781 41.7386H22.8345C18.7169 41.7386 14.5973 41.7134 10.4796 41.7599C9.63024 41.7696 9.08778 41.5719 8.90246 40.6376C10.3349 38.833 12.2035 37.544 14.4467 36.7881C14.6977 36.7028 14.9525 36.6291 15.1957 36.5264C15.8888 36.2318 16.1899 35.6096 15.9756 34.9486C15.7498 34.2566 15.1011 33.9077 14.3656 34.1287C11.9313 34.8633 9.74221 36.0302 7.95268 37.8832C7.85229 37.986 7.77701 38.1139 7.7133 38.1973C7.58782 38.1604 7.51833 38.1624 7.50481 38.1352C6.29056 35.6968 4.92573 33.2952 4.56087 30.5466C4.02807 26.5265 5.57629 23.365 8.83103 21.0313C12.4004 18.4727 17.2382 18.209 20.6821 20.3567C22.211 21.3104 23.3538 22.6149 24.236 24.2741C23.1029 24.4835 22.0257 24.6695 20.9562 24.8847C18.6068 25.3577 16.383 26.195 14.2402 27.2592C13.4352 27.6604 13.1495 28.3369 13.4718 29.0289C13.8058 29.7461 14.5355 29.9709 15.3714 29.5464C18.4833 27.9725 21.7863 27.1099 25.3518 26.8075H25.3557Z" fill="#FF5F17"/>
<path d="M59.5576 41.7056H39.2666C39.95 37.9297 40.9905 34.3574 43.7221 31.5623C47.0676 28.1392 52.079 28.2555 55.3241 31.7774C57.38 34.0085 58.4205 36.7473 59.1367 39.6355C59.2989 40.2887 59.407 40.9574 59.5556 41.7037L59.5576 41.7056Z" fill="#FF5F17"/>
<path d="M36.6836 41.7057H26.2322C26.5179 40.5194 26.7476 39.3738 27.07 38.2554C27.7553 35.8887 28.763 33.6809 30.4444 31.8414C33.1162 28.9203 37.0157 28.2458 40.2839 30.1279C40.533 30.2714 40.7646 30.4419 41.0658 30.6435C38.5137 33.8844 37.3323 37.6487 36.6817 41.7057H36.6836Z" fill="#FF5F17"/>
<path d="M72.5476 41.7134H62.1521C61.49 37.7359 60.3626 33.9445 57.7681 30.6745C58.9843 29.7092 60.3298 29.213 61.8182 29.1142C64.876 28.9106 67.2215 30.2403 69.0284 32.6187C71.0515 35.2839 71.9801 38.3853 72.5476 41.7134Z" fill="#FF5F17"/>
<path d="M46.6603 26.7105C46.3417 24.1054 46.8958 21.6785 48.6062 19.5929C49.2741 18.7788 50.554 18.6489 51.357 19.3273C52.2315 20.0678 53.0385 20.9148 53.7392 21.822C54.3994 22.6768 54.1369 23.8224 53.3416 24.65C52.7952 25.218 52.3184 25.8518 51.7953 26.443C51.6872 26.5632 51.5115 26.695 51.3648 26.6969C49.8397 26.7163 48.3166 26.7085 46.6583 26.7085L46.6603 26.7105Z" fill="#FF5F17"/>
<path d="M72.9202 59.9257C49.4903 59.9257 26.0584 59.9257 2.62856 59.9141C1.85058 59.9141 1.22512 60.1001 0.769531 60.7475V71.0537C1.31199 72.3253 2.1942 73.0018 3.64977 73.0018C26.4059 72.9843 49.1621 72.9901 71.9202 72.9882C73.7811 72.9882 74.7657 71.9861 74.7676 70.1136C74.7715 67.3321 74.7676 64.5506 74.7676 61.771C74.7676 60.3172 74.3815 59.9296 72.9202 59.9276V59.9257ZM10.1226 67.1073C9.45849 67.0666 8.91025 66.4792 8.91604 65.8124C8.92376 65.1166 9.53378 64.5234 10.2191 64.5428C10.9121 64.5622 11.4855 65.1805 11.4584 65.8745C11.4314 66.5703 10.804 67.148 10.1226 67.1073ZM65.3644 67.1092C64.6733 67.1208 64.0768 66.5277 64.0768 65.8279C64.0768 65.1301 64.6713 64.5351 65.3624 64.5448C66.0516 64.5545 66.6385 65.1709 66.6172 65.8609C66.596 66.5296 66.0246 67.0976 65.3644 67.1073V67.1092Z" fill="#FF5F17"/>
<path d="M74.7637 47.0648C74.7637 46.8012 74.7483 46.5298 74.6846 46.2759C74.3641 44.9695 73.397 44.3201 71.7889 44.3201C49.2238 44.3201 26.6607 44.3318 4.09568 44.2949C2.51657 44.293 1.38918 44.7407 0.767578 46.2313V56.5375C1.20772 57.2024 1.8274 57.3943 2.61309 57.3943C20.6261 57.3788 38.6392 57.3826 56.6522 57.3826C62.1424 57.3826 67.6326 57.3846 73.1228 57.3807C74.2965 57.3807 74.7637 56.9194 74.7637 55.7719C74.7676 52.8702 74.7676 49.9685 74.7637 47.0648ZM10.1476 52.7558C9.44689 52.7306 8.8832 52.1181 8.91794 51.4203C8.95269 50.7496 9.53183 50.1953 10.1959 50.1991C10.8928 50.203 11.4739 50.8019 11.4584 51.5036C11.4449 52.2014 10.8387 52.7791 10.1457 52.7558H10.1476ZM66.6153 51.5695C66.5612 52.2751 65.9338 52.8159 65.2408 52.7539C64.5767 52.6938 64.0497 52.0948 64.0787 51.428C64.1076 50.7283 64.7292 50.1584 65.4165 50.203C66.1114 50.2476 66.6693 50.8814 66.6153 51.5695Z" fill="#FF5F17"/>
</g>
<defs>
<clipPath id="clip0_149_4171">
<rect width="74" height="73" fill="white" transform="translate(0.769531)"/>
</clipPath>
</defs>
</svg>
