<svg width="327" height="78" viewBox="0 0 327 78" fill="none" xmlns="http://www.w3.org/2000/svg">
<path d="M82.1095 31.66H136.77V39.16H82.1095V31.66ZM105.33 10.06H113.19V66.4H105.33V10.06ZM144.87 18.34H198.39V25.24H144.87V18.34ZM164.43 37.78H195.93V44.44H164.43V37.78ZM162.15 58.18H198.21V64.84H162.15V58.18ZM176.67 27.82H183.93V61.72H176.67V27.82ZM163.83 10L171.33 11.8C169.85 16.6 167.99 21.34 165.75 26.02C163.51 30.7 160.81 35.06 157.65 39.1C154.49 43.14 150.77 46.62 146.49 49.54C146.25 48.86 145.91 48.1 145.47 47.26C145.07 46.42 144.65 45.58 144.21 44.74C143.77 43.9 143.35 43.2 142.95 42.64C145.67 40.88 148.13 38.76 150.33 36.28C152.57 33.8 154.55 31.1 156.27 28.18C157.99 25.26 159.47 22.26 160.71 19.18C161.99 16.1 163.03 13.04 163.83 10ZM151.83 35.14H159.09V66.28H151.83V35.14ZM207.21 33.88H260.97V41.02H207.21V33.88ZM211.71 19.06H256.59V26.2H211.71V19.06ZM230.07 10.06H237.75V66.4H230.07V10.06ZM228.81 38.02L235.05 40.6C233.61 42.96 231.97 45.28 230.13 47.56C228.29 49.8 226.29 51.92 224.13 53.92C222.01 55.92 219.79 57.76 217.47 59.44C215.19 61.08 212.87 62.52 210.51 63.76C210.11 63.12 209.59 62.42 208.95 61.66C208.35 60.9 207.71 60.16 207.03 59.44C206.39 58.68 205.77 58.04 205.17 57.52C207.49 56.52 209.79 55.32 212.07 53.92C214.39 52.48 216.59 50.9 218.67 49.18C220.75 47.46 222.65 45.66 224.37 43.78C226.09 41.86 227.57 39.94 228.81 38.02ZM239.07 38.08C240.27 40 241.73 41.92 243.45 43.84C245.21 45.72 247.13 47.52 249.21 49.24C251.29 50.96 253.45 52.54 255.69 53.98C257.97 55.38 260.25 56.58 262.53 57.58C261.97 58.02 261.35 58.62 260.67 59.38C260.03 60.1 259.41 60.86 258.81 61.66C258.21 62.46 257.71 63.18 257.31 63.82C254.99 62.58 252.69 61.12 250.41 59.44C248.13 57.76 245.93 55.92 243.81 53.92C241.69 51.88 239.71 49.74 237.87 47.5C236.07 45.26 234.45 42.96 233.01 40.6L239.07 38.08ZM270.45 17.56H322.65V24.58H270.45V17.56ZM292.35 10.06H299.97V66.4H292.35V10.06ZM293.19 37.12L299.19 39.46C297.71 42.1 296.01 44.64 294.09 47.08C292.21 49.52 290.15 51.8 287.91 53.92C285.67 56.04 283.29 57.96 280.77 59.68C278.29 61.4 275.71 62.9 273.03 64.18C272.67 63.54 272.19 62.82 271.59 62.02C270.99 61.26 270.37 60.52 269.73 59.8C269.09 59.04 268.49 58.42 267.93 57.94C270.49 56.94 273.01 55.7 275.49 54.22C278.01 52.74 280.37 51.1 282.57 49.3C284.77 47.46 286.77 45.52 288.57 43.48C290.41 41.4 291.95 39.28 293.19 37.12ZM299.67 37.6C301.35 40.36 303.49 43.02 306.09 45.58C308.73 48.14 311.65 50.46 314.85 52.54C318.05 54.58 321.37 56.24 324.81 57.52C324.21 58 323.57 58.64 322.89 59.44C322.25 60.2 321.61 60.98 320.97 61.78C320.37 62.62 319.87 63.4 319.47 64.12C316.03 62.52 312.71 60.5 309.51 58.06C306.31 55.58 303.37 52.8 300.69 49.72C298.01 46.64 295.69 43.38 293.73 39.94L299.67 37.6ZM277.71 34.96L282.27 30.46C283.19 31.18 284.19 32.02 285.27 32.98C286.35 33.9 287.39 34.8 288.39 35.68C289.39 36.56 290.21 37.34 290.85 38.02L286.05 43.12C285.49 42.4 284.71 41.56 283.71 40.6C282.75 39.64 281.75 38.68 280.71 37.72C279.67 36.72 278.67 35.8 277.71 34.96ZM280.17 24.94L287.13 26.26C286.05 30.62 284.47 34.62 282.39 38.26C280.31 41.86 277.87 44.82 275.07 47.14C274.67 46.7 274.13 46.18 273.45 45.58C272.77 44.98 272.07 44.4 271.35 43.84C270.67 43.24 270.05 42.78 269.49 42.46C272.17 40.5 274.41 38 276.21 34.96C278.01 31.92 279.33 28.58 280.17 24.94ZM306.45 35.26L311.13 30.94C312.37 31.86 313.75 32.92 315.27 34.12C316.83 35.28 318.33 36.44 319.77 37.6C321.21 38.72 322.37 39.72 323.25 40.6L318.27 45.52C317.43 44.64 316.33 43.6 314.97 42.4C313.61 41.2 312.17 39.98 310.65 38.74C309.13 37.46 307.73 36.3 306.45 35.26ZM308.43 24.94L315.45 26.2C314.61 29.76 313.41 33.08 311.85 36.16C310.29 39.2 308.49 41.72 306.45 43.72C306.01 43.36 305.41 42.94 304.65 42.46C303.93 41.98 303.17 41.52 302.37 41.08C301.57 40.6 300.89 40.22 300.33 39.94C302.37 38.22 304.07 36.04 305.43 33.4C306.83 30.76 307.83 27.94 308.43 24.94Z" fill="#39BF63"/>
<g clip-path="url(#clip0_149_4172)">
<path d="M0.769492 42.2571C1.08841 41.6126 1.33053 40.9131 1.74296 40.3354C2.38414 39.4321 3.3526 38.9847 4.52811 38.796C4.52811 38.5706 4.52477 38.3503 4.52811 38.1315C4.5615 35.8008 4.49638 33.4617 4.64666 31.1377C5.03571 25.1122 7.23144 19.7762 11.1053 15.1548C14.9173 10.6085 19.6761 7.45468 25.4434 6.00047C34.8792 3.62132 43.4567 5.47789 50.964 11.6954C55.9933 15.8593 59.1708 21.2304 60.4048 27.6533C60.8105 29.7636 60.8589 31.9491 60.9875 34.1045C61.071 35.5153 61.0109 36.9361 60.9975 38.3519C60.9942 38.6741 61.0777 38.8111 61.4233 38.8912C63.4738 39.3603 64.7511 40.9665 64.7578 43.0668C64.7678 45.7949 64.7695 48.523 64.7578 51.2511C64.7461 53.6987 63.0162 55.4735 60.5767 55.5386C59.4964 55.567 58.4161 55.5436 57.2489 55.5436C57.2489 55.2598 57.2489 55.0177 57.2489 54.7756C57.2489 47.6732 57.2656 40.5708 57.2406 33.4701C57.2356 32.0426 57.0753 30.6151 56.9834 29.1492H51.1526C50.0372 24.2122 47.4508 20.2837 43.3098 17.4287C40.1156 15.2282 36.5423 14.153 32.6701 14.1831C28.2503 14.2165 24.293 15.6306 20.8717 18.4455C17.472 21.2421 15.3348 24.8267 14.3813 29.1659H8.57392C8.47541 30.388 8.30008 31.5634 8.29674 32.7405C8.2717 40.0716 8.28338 47.4027 8.28338 54.7338C8.28338 54.9793 8.28338 55.2247 8.28338 55.4601C6.83738 55.4601 5.43144 55.6137 4.07227 55.42C2.49435 55.1963 1.46912 54.1144 0.954835 52.5918C0.889714 52.3981 0.829603 52.2011 0.767822 52.0057C0.767822 48.7567 0.767822 45.5077 0.767822 42.2571H0.769492Z" fill="#39BF63"/>
<path d="M23.3931 69.0002C23.3864 68.8332 23.373 68.668 23.373 68.501C23.373 55.53 23.3664 42.5591 23.3764 29.5881C23.3797 25.1103 26.2433 21.4255 30.5129 20.3486C36.3036 18.8878 42.0559 23.242 42.1461 29.2141C42.2062 33.1476 42.1628 37.0845 42.1628 41.0197C42.1628 50.0772 42.1628 59.133 42.1628 68.1905C42.1628 68.4609 42.1494 68.7314 42.1427 69.0019H34.6439V27.6614H30.8936V69.0019H23.3947L23.3931 69.0002Z" fill="#39BF63"/>
<path d="M16.9394 57.78C15.475 57.7015 14.049 57.6197 12.6247 57.5479C12.1505 57.5245 12.0186 57.2958 12.0236 56.8266C12.047 54.3707 12.0353 51.9147 12.0353 49.4588C12.0353 45.5253 12.0553 41.5917 12.0153 37.6582C12.0086 36.987 12.2557 36.7566 12.8401 36.7516C14.1893 36.7416 15.5384 36.7483 16.941 36.7483V57.7783L16.9394 57.78Z" fill="#39BF63"/>
<path d="M48.5696 57.774V36.6287C50.2126 36.6955 51.8456 36.4418 53.502 36.9426C53.502 37.163 53.502 37.3684 53.502 37.5721C53.502 43.9615 53.4937 50.3527 53.5171 56.7422C53.5187 57.3032 53.3451 57.5469 52.8124 57.572C51.4249 57.6371 50.039 57.7038 48.5713 57.7723L48.5696 57.774Z" fill="#39BF63"/>
</g>
<defs>
<clipPath id="clip0_149_4172">
<rect width="64" height="64" fill="white" transform="translate(0.769531 5)"/>
</clipPath>
</defs>
</svg>
