<svg width="322" height="78" viewBox="0 0 322 78" fill="none" xmlns="http://www.w3.org/2000/svg">
<g clip-path="url(#clip0_149_4165)">
<path d="M33.1833 44.4489C35.6935 44.2722 38.1401 44.1025 40.6786 43.9257C40.6504 44.3358 40.6362 44.6894 40.6079 45.0429C40.4524 47.2067 40.3392 49.3704 40.1483 51.5271C39.2432 61.2852 29.6053 68.3633 20.1655 66.1783C10.3933 63.9156 3.13127 52.1988 10.4074 41.1326C13.455 36.5011 17.9452 34.1605 23.4677 33.7999C32.554 33.1989 41.6332 32.5908 50.7196 32.0039C53.1379 31.8483 55.337 31.1058 57.0269 29.3451C62.2808 23.8933 59.8271 16.9991 53.9935 14.6444C50.8327 13.3645 46.7103 14.5878 44.398 17.3243C42.9272 19.0638 42.1424 21.0508 42.0221 23.3064C41.9231 25.1308 41.8029 26.948 41.6827 28.836C39.1796 28.9916 36.6906 29.1471 34.1238 29.3098C34.251 27.4289 34.4137 25.6116 34.4915 23.7944C34.6258 20.6336 35.3046 17.6355 36.938 14.8848C41.2443 7.59454 51.4762 3.81152 59.714 9.23503C68.6164 15.1111 69.4508 25.5338 63.7798 32.9726C60.6756 37.0385 56.4542 39.0961 51.363 39.4356C42.3545 40.0295 33.3389 40.6447 24.3233 41.2175C22.1242 41.3518 20.123 41.9529 18.3836 43.3388C15.3006 45.7854 13.1298 51.52 17.0754 55.9182C19.5715 58.6971 22.5979 59.8144 26.1971 58.6335C29.9448 57.4031 32.1934 54.7444 32.6954 50.7917C32.957 48.7199 33.0207 46.6198 33.1904 44.4419L33.1833 44.4489Z" fill="#FF5F17"/>
</g>
<path d="M77.1095 31.66H131.77V39.16H77.1095V31.66ZM100.33 10.06H108.19V66.4H100.33V10.06ZM139.87 18.34H193.39V25.24H139.87V18.34ZM159.43 37.78H190.93V44.44H159.43V37.78ZM157.15 58.18H193.21V64.84H157.15V58.18ZM171.67 27.82H178.93V61.72H171.67V27.82ZM158.83 10L166.33 11.8C164.85 16.6 162.99 21.34 160.75 26.02C158.51 30.7 155.81 35.06 152.65 39.1C149.49 43.14 145.77 46.62 141.49 49.54C141.25 48.86 140.91 48.1 140.47 47.26C140.07 46.42 139.65 45.58 139.21 44.74C138.77 43.9 138.35 43.2 137.95 42.64C140.67 40.88 143.13 38.76 145.33 36.28C147.57 33.8 149.55 31.1 151.27 28.18C152.99 25.26 154.47 22.26 155.71 19.18C156.99 16.1 158.03 13.04 158.83 10ZM146.83 35.14H154.09V66.28H146.83V35.14ZM202.03 34.12H218.05V40.9H202.03V34.12ZM210.31 22.18H229.75V29.08H210.31V22.18ZM232.45 24.82C233.69 29.66 235.41 34.16 237.61 38.32C239.81 42.44 242.57 46.08 245.89 49.24C249.21 52.36 253.13 54.78 257.65 56.5C257.13 56.94 256.53 57.54 255.85 58.3C255.21 59.06 254.59 59.86 253.99 60.7C253.43 61.5 252.97 62.24 252.61 62.92C247.85 60.72 243.79 57.86 240.43 54.34C237.07 50.78 234.25 46.64 231.97 41.92C229.73 37.16 227.87 31.92 226.39 26.2L232.45 24.82ZM248.95 26.92L255.55 31.84C253.87 33.36 252.09 34.9 250.21 36.46C248.33 37.98 246.47 39.44 244.63 40.84C242.79 42.24 241.05 43.48 239.41 44.56L234.37 40.36C235.97 39.24 237.65 37.92 239.41 36.4C241.17 34.88 242.89 33.3 244.57 31.66C246.25 30.02 247.71 28.44 248.95 26.92ZM225.43 22.18H233.17V58C233.17 59.92 232.93 61.42 232.45 62.5C231.97 63.62 231.09 64.48 229.81 65.08C228.57 65.64 227.03 65.98 225.19 66.1C223.35 66.22 221.15 66.28 218.59 66.28C218.43 65.24 218.11 64.02 217.63 62.62C217.15 61.22 216.65 60.04 216.13 59.08C217.13 59.12 218.17 59.16 219.25 59.2C220.33 59.24 221.29 59.26 222.13 59.26C223.01 59.22 223.63 59.2 223.99 59.2C224.55 59.16 224.93 59.06 225.13 58.9C225.33 58.7 225.43 58.36 225.43 57.88V22.18ZM214.99 16.12L218.65 10.24C220.37 10.6 222.25 11.06 224.29 11.62C226.33 12.18 228.37 12.8 230.41 13.48C232.45 14.16 234.37 14.86 236.17 15.58C238.01 16.26 239.55 16.94 240.79 17.62L236.95 24.28C235.75 23.6 234.27 22.88 232.51 22.12C230.79 21.36 228.91 20.6 226.87 19.84C224.87 19.08 222.85 18.38 220.81 17.74C218.77 17.1 216.83 16.56 214.99 16.12ZM215.35 34.12H216.79L218.05 33.82L222.85 35.86C221.89 40.06 220.59 43.88 218.95 47.32C217.31 50.76 215.41 53.78 213.25 56.38C211.09 58.94 208.79 61.06 206.35 62.74C205.95 62.22 205.41 61.62 204.73 60.94C204.05 60.22 203.33 59.54 202.57 58.9C201.81 58.22 201.13 57.7 200.53 57.34C202.89 55.9 205.05 54.1 207.01 51.94C209.01 49.78 210.73 47.3 212.17 44.5C213.61 41.7 214.67 38.7 215.35 35.5V34.12ZM293.83 47.74V49.66H309.37V47.74H293.83ZM293.83 52.6V54.64H309.37V52.6H293.83ZM293.83 42.94V44.8H309.37V42.94H293.83ZM287.59 39.46H315.91V58.06H287.59V39.46ZM303.07 60.46L307.63 56.8C309.07 57.44 310.55 58.12 312.07 58.84C313.63 59.52 315.11 60.2 316.51 60.88C317.91 61.56 319.11 62.2 320.11 62.8L313.99 66.46C313.19 65.9 312.19 65.28 310.99 64.6C309.79 63.92 308.49 63.2 307.09 62.44C305.73 61.72 304.39 61.06 303.07 60.46ZM297.79 10H304.81V21.82H297.79V10ZM284.29 13.18H318.79V17.56H284.29V13.18ZM287.17 19.42H316.45V23.56H287.17V19.42ZM291.01 28.84V34.18H312.13V28.84H291.01ZM285.55 25.3H317.95V37.66H285.55V25.3ZM296.29 27.46H300.55C300.31 29.22 299.67 30.62 298.63 31.66C297.59 32.66 295.77 33.44 293.17 34C292.97 33.56 292.65 33.08 292.21 32.56C291.77 32.04 291.35 31.62 290.95 31.3C292.87 30.98 294.19 30.54 294.91 29.98C295.67 29.38 296.13 28.54 296.29 27.46ZM302.77 26.62H307.75V29.08C307.75 29.64 307.81 30 307.93 30.16C308.05 30.28 308.33 30.34 308.77 30.34C308.93 30.34 309.19 30.34 309.55 30.34C309.91 30.34 310.29 30.34 310.69 30.34C311.09 30.34 311.35 30.34 311.47 30.34C311.83 30.34 312.09 30.32 312.25 30.28C312.41 30.24 312.51 30.16 312.55 30.04C313.03 30.24 313.63 30.42 314.35 30.58C315.07 30.7 315.71 30.8 316.27 30.88C316.15 31.64 315.77 32.18 315.13 32.5C314.53 32.78 313.57 32.92 312.25 32.92C312.01 32.92 311.71 32.92 311.35 32.92C310.99 32.92 310.57 32.92 310.09 32.92C309.65 32.92 309.25 32.92 308.89 32.92C308.53 32.92 308.23 32.92 307.99 32.92C306.59 32.92 305.51 32.82 304.75 32.62C303.99 32.38 303.47 31.98 303.19 31.42C302.91 30.86 302.77 30.06 302.77 29.02V26.62ZM294.43 56.8L299.71 60.4C298.51 61.12 297.11 61.86 295.51 62.62C293.91 63.42 292.27 64.12 290.59 64.72C288.95 65.36 287.39 65.88 285.91 66.28C285.39 65.72 284.69 65.04 283.81 64.24C282.93 63.44 282.13 62.78 281.41 62.26C282.93 61.86 284.51 61.36 286.15 60.76C287.79 60.16 289.33 59.52 290.77 58.84C292.25 58.12 293.47 57.44 294.43 56.8ZM271.93 10.06L278.05 12.1C277.25 13.62 276.41 15.22 275.53 16.9C274.69 18.54 273.85 20.1 273.01 21.58C272.17 23.06 271.35 24.36 270.55 25.48L265.81 23.68C266.53 22.44 267.27 21.04 268.03 19.48C268.79 17.92 269.51 16.3 270.19 14.62C270.91 12.94 271.49 11.42 271.93 10.06ZM278.17 17.2L283.99 19.66C282.67 21.9 281.21 24.28 279.61 26.8C278.01 29.28 276.41 31.66 274.81 33.94C273.21 36.22 271.69 38.22 270.25 39.94L266.11 37.78C267.15 36.42 268.23 34.9 269.35 33.22C270.47 31.5 271.55 29.72 272.59 27.88C273.67 26 274.67 24.14 275.59 22.3C276.55 20.46 277.41 18.76 278.17 17.2ZM262.93 24.1L266.47 19.3C267.47 20.22 268.49 21.24 269.53 22.36C270.61 23.48 271.59 24.6 272.47 25.72C273.39 26.8 274.09 27.82 274.57 28.78L270.67 34.3C270.27 33.3 269.63 32.22 268.75 31.06C267.91 29.86 266.97 28.66 265.93 27.46C264.93 26.22 263.93 25.1 262.93 24.1ZM276.37 31L281.11 29.38C281.83 30.74 282.49 32.2 283.09 33.76C283.73 35.32 284.27 36.84 284.71 38.32C285.19 39.8 285.51 41.12 285.67 42.28L280.57 44.2C280.45 43.04 280.17 41.72 279.73 40.24C279.33 38.72 278.83 37.16 278.23 35.56C277.67 33.92 277.05 32.4 276.37 31ZM262.93 36.7C265.45 36.62 268.41 36.5 271.81 36.34C275.21 36.14 278.69 35.94 282.25 35.74V41.38C278.97 41.62 275.71 41.86 272.47 42.1C269.27 42.34 266.33 42.56 263.65 42.76L262.93 36.7ZM277.69 46.42L282.37 44.98C282.97 46.5 283.53 48.18 284.05 50.02C284.57 51.82 284.95 53.36 285.19 54.64L280.27 56.32C280.07 54.96 279.71 53.36 279.19 51.52C278.71 49.68 278.21 47.98 277.69 46.42ZM265.21 45.28L270.79 46.24C270.47 49.12 270.01 51.94 269.41 54.7C268.85 57.46 268.15 59.8 267.31 61.72C266.91 61.48 266.39 61.22 265.75 60.94C265.11 60.62 264.47 60.32 263.83 60.04C263.19 59.72 262.63 59.48 262.15 59.32C263.03 57.52 263.71 55.36 264.19 52.84C264.67 50.32 265.01 47.8 265.21 45.28ZM271.51 39.58H277.51V66.4H271.51V39.58Z" fill="#FF5F17"/>
<defs>
<clipPath id="clip0_149_4165">
<rect width="71.08" height="32.49" fill="white" transform="translate(0.769531 50.2612) rotate(-45)"/>
</clipPath>
</defs>
</svg>
