<svg width="539" height="377" viewBox="0 0 539 377" fill="none" xmlns="http://www.w3.org/2000/svg">
<circle cx="507.5" cy="154.5" r="31.5" fill="#6EE292"/>
<path d="M52.7018 173L102.567 74.2358V73.451H44.2501V49.3636H133.476V73.6321L83.4297 173H52.7018Z" fill="white"/>
<line x1="62.7178" y1="216.344" x2="527.954" y2="216.344" stroke="white"/>
<path d="M156.696 71.16H182.112V73.86H156.696V71.16ZM162.42 61.692H166.164V69H162.42V61.692ZM170.628 61.692H174.48V69H170.628V61.692ZM157.416 63.456H182.904V69.972H157.416V67.56H178.944V65.868H157.416V63.456ZM166.164 78.396L169.8 79.188C167.028 81.852 163.428 83.868 158.604 85.56C158.136 84.768 157.128 83.58 156.372 83.076C160.836 81.852 164.22 80.124 166.164 78.396ZM166.164 80.556H177.54V82.896H163.824L166.164 80.556ZM176.676 80.556H177.396L178.044 80.412L180.456 81.96C175.992 87.144 166.704 89.304 157.812 90.204C157.488 89.34 156.804 88.008 156.228 87.252C164.436 86.712 173.22 84.84 176.676 81.06V80.556ZM165.084 82.068C168.756 85.164 176.46 86.64 184.848 87C184.092 87.792 183.192 89.268 182.724 90.24C174.048 89.592 166.38 87.576 161.952 83.364L165.084 82.068ZM163.536 74.652H166.956V76.2C166.956 76.956 167.172 77.064 168.324 77.064C168.864 77.064 171.42 77.064 172.104 77.064C172.968 77.064 173.148 76.812 173.292 75.552C173.94 75.948 175.2 76.308 176.064 76.488C175.776 78.864 174.876 79.512 172.572 79.512C171.816 79.512 168.576 79.512 167.892 79.512C164.364 79.512 163.536 78.792 163.536 76.236V74.652ZM181.104 71.16H181.68L182.292 71.052L185.136 71.628C184.452 73.536 183.552 75.66 182.832 77.028L179.412 76.308C179.988 75.084 180.708 73.176 181.104 71.592V71.16ZM160.404 74.256L163.284 75.48C162.528 77.136 161.448 78.9 159.756 80.016L157.02 78.216C158.496 77.316 159.756 75.696 160.404 74.256ZM166.812 74.148L169.044 72.528C170.376 73.212 171.96 74.256 172.788 75.012L170.448 76.848C169.656 75.984 168.036 74.796 166.812 74.148ZM174.624 75.336L177.288 73.932C178.8 75.12 180.528 76.884 181.32 78.18L178.476 79.692C177.792 78.432 176.136 76.632 174.624 75.336ZM166.884 56.436H171.384V61.008H166.884V56.436ZM155.868 58.56H184.2V61.8H155.868V58.56ZM153.816 58.56H157.74V69.324C157.74 75.3 157.236 84.408 153.924 90.132C153.24 89.412 151.512 88.152 150.648 87.756C153.6 82.428 153.816 74.76 153.816 69.324V58.56ZM194.892 62.952H219.948V67.164H194.892V62.952ZM193.416 73.572H218.58V77.712H193.416V73.572ZM189.24 84.984H221.784V89.196H189.24V84.984ZM203.244 56.436H207.744V87.072H203.244V56.436ZM194.928 56.868L199.392 57.876C197.808 63.456 195.18 69 192.372 72.456C191.508 71.7 189.6 70.44 188.484 69.828C191.328 66.804 193.632 61.836 194.928 56.868ZM240.612 56.94H245.364V84.84C245.364 87.504 244.752 88.692 243.096 89.376C241.44 90.096 238.956 90.24 235.428 90.204C235.212 88.944 234.384 86.892 233.7 85.704C236.076 85.848 238.776 85.812 239.532 85.776C240.324 85.776 240.612 85.524 240.612 84.804V56.94ZM249.288 66.408L253.5 64.824C256.452 69.9 259.44 76.488 260.34 80.988L255.624 82.86C254.868 78.504 252.132 71.7 249.288 66.408ZM231.18 65.184L236.112 66.012C234.888 71.448 232.908 78.18 229.884 82.176C228.84 81.384 226.86 80.376 225.672 79.908C228.588 76.236 230.424 69.9 231.18 65.184ZM294.648 67.632L297.456 70.476C295.476 72.204 293.136 74.076 291.336 75.3L289.104 72.852C290.796 71.592 293.244 69.324 294.648 67.632ZM277.98 57.876L281.436 56.652C282.516 58.236 283.488 60.36 283.884 61.8L280.212 63.204C279.888 61.728 278.952 59.496 277.98 57.876ZM275.748 62.124H296.772V65.832H275.748V62.124ZM279.744 69.72L283.092 68.028C290.868 74.328 290.616 85.668 287.412 88.584C286.26 89.808 285.108 90.204 283.38 90.24C282.624 90.24 281.724 90.204 280.788 90.132C280.752 89.052 280.5 87.36 279.708 86.172C280.86 86.316 281.76 86.388 282.588 86.388C283.344 86.388 283.92 86.244 284.352 85.452C286.08 83.544 286.152 74.976 279.744 69.72ZM284.064 63.708L287.592 65.004C284.928 68.424 280.644 71.592 276.828 73.536C276.324 72.78 275.064 71.232 274.308 70.512C278.016 69 281.868 66.444 284.064 63.708ZM289.428 64.5C290.652 72.348 293.244 79.764 297.78 83.472C296.844 84.192 295.512 85.704 294.864 86.748C289.932 82.248 287.448 74.256 286.008 65.112L289.428 64.5ZM283.092 71.376L285.828 73.14C283.74 75.444 279.924 78.324 277.008 79.98C276.468 79.044 275.496 77.712 274.668 76.992C277.512 75.804 281.22 73.392 283.092 71.376ZM285.144 75.876L287.988 77.748C285.288 81.384 280.104 85.38 275.748 87.468C275.172 86.532 274.092 85.236 273.156 84.48C277.548 82.824 282.696 79.188 285.144 75.876ZM290.436 56.472L294.54 57.66C293.532 59.604 292.524 61.584 291.66 62.916L288.168 61.836C288.96 60.36 289.932 58.128 290.436 56.472ZM264.876 57.984H273.372V61.836H268.656V90.276H264.876V57.984ZM272.04 57.984H272.76L273.372 57.84L276.18 59.424C275.244 62.52 274.056 66.444 273.012 69.252C275.244 72.06 275.676 74.472 275.676 76.56C275.676 78.9 275.208 80.412 274.056 81.204C273.48 81.6 272.796 81.852 272.004 81.96C271.356 82.032 270.492 82.068 269.664 82.068C269.628 81.024 269.304 79.404 268.728 78.36C269.376 78.396 269.844 78.432 270.276 78.396C270.672 78.396 271.032 78.324 271.284 78.108C271.716 77.784 271.896 77.064 271.896 76.056C271.896 74.364 271.428 72.132 269.376 69.72C270.384 66.48 271.536 61.512 272.04 59.208V57.984ZM176.76 117.48H206.1V124.32H176.76V117.48ZM192 136.14H199.38V162.06C199.38 165.9 198.6 167.94 195.96 169.08C193.38 170.16 189.6 170.22 184.2 170.22C183.96 168.12 183 165 182.04 162.9C185.46 163.08 189.42 163.08 190.5 163.08C191.64 163.02 192 162.78 192 161.88V136.14ZM174.18 134.1H207.66V140.94H174.18V134.1ZM160.74 141.18L167.04 134.88L167.94 135.24V170.46H160.74V141.18ZM167.52 127.14L174.36 129.72C169.62 137.7 162.24 146.1 155.82 151.38C154.8 149.88 152.34 146.64 150.9 145.2C157.02 140.88 163.56 133.92 167.52 127.14ZM165.24 114.06L172.14 116.88C167.76 122.58 161.28 128.82 155.58 132.78C154.62 131.16 152.76 128.34 151.56 126.9C156.54 123.66 162.3 118.26 165.24 114.06ZM215.88 152.88H243.9V157.98H215.88V152.88ZM214.5 124.32H244.5V129.54H214.5V124.32ZM226.44 120.06H232.92V163.08H226.44V120.06ZM214.2 162.42C221.64 161.88 233.1 161.04 243.9 160.08L243.96 165.54C233.76 166.62 222.84 167.7 215.04 168.42L214.2 162.42ZM221.82 143.28V146.04H237.66V143.28H221.82ZM221.82 136.38V139.08H237.66V136.38H221.82ZM216.06 131.88H243.6V150.54H216.06V131.88ZM240.66 114.36L243.84 119.76C236.16 121.32 225.24 122.22 216.24 122.4C216 120.96 215.34 118.68 214.68 117.3C223.62 116.88 234.06 115.8 240.66 114.36ZM244.5 127.62H265.26V134.22H244.5V127.62ZM262.38 127.62H269.28C269.28 127.62 269.22 129.96 269.22 130.8C268.68 155.52 268.2 164.28 266.22 166.98C264.9 169.02 263.52 169.68 261.54 170.04C259.68 170.4 256.86 170.4 254.04 170.28C253.86 168.3 253.08 165.36 251.94 163.44C254.52 163.68 256.8 163.68 258 163.68C258.9 163.68 259.5 163.5 260.04 162.66C261.42 160.86 261.9 152.4 262.38 129.18V127.62ZM250.26 115.08H257.16C257.1 140.7 257.04 159.96 243.18 170.88C242.16 169.14 239.82 166.68 238.2 165.48C250.86 155.82 250.2 139.02 250.26 115.08ZM306.78 130.38H325.92V136.26H306.78V130.38ZM304.92 151.44H327.18V157.32H304.92V151.44ZM310.32 141.9H314.7V169.62H310.32V141.9ZM317.64 141.9H321.96V169.62H317.64V141.9ZM316.08 120.72C313.14 125.58 307.98 131.58 302.4 135.42C301.62 133.62 300.06 131.1 298.86 129.66C304.5 126.06 310.08 119.4 312.72 114.24H318.96C322.74 120.06 328.32 126.06 333.78 129.12C332.46 130.74 330.96 133.2 329.88 135.3C324.78 131.7 319.26 125.64 316.08 120.72ZM302.04 139.68H327.36V145.56H307.5V170.46H302.04V139.68ZM324.96 139.68H331.02V164.34C331.02 166.74 330.72 168.36 329.28 169.32C327.78 170.28 326.04 170.4 323.76 170.4C323.52 168.78 322.8 166.32 322.08 164.76C323.04 164.82 324.06 164.82 324.48 164.82C324.84 164.82 324.96 164.64 324.96 164.16V139.68ZM277.32 119.82H300.3V126H277.32V119.82ZM276.42 154.62H300.54V160.86H276.42V154.62ZM285.78 114.12H291.66V131.58H285.78V114.12ZM286.5 131.7H291.12V148.38H291.78V170.4H285.84V148.38H286.5V131.7ZM283.26 142.44V146.04H294.42V142.44H283.26ZM283.26 134.22V137.7H294.42V134.22H283.26ZM278.28 129.24H299.64V151.02H278.28V129.24ZM375 150.18V161.4H369.12V150.18H375ZM385.56 145.02V170.4H379.08V145.02H385.56ZM394.44 158.46V163.86H363.6V158.46H394.44ZM392.88 147.84V153.36H366.66V147.84H392.88ZM350.1 153.06C352.32 154.62 355.2 156.96 356.58 158.64L351.84 161.82C350.58 160.2 347.82 157.74 345.54 156.06L350.1 153.06ZM361.62 148.08L362.7 147.9L366.54 149.7C362.88 161.04 354.54 167.34 344.58 170.52C343.8 169.08 341.88 166.5 340.62 165.42C350.04 162.96 357.54 157.74 360.36 149.04V148.08H361.62ZM357 145.32C353.88 151.14 348.42 156.12 342.96 159.12C342.12 158.04 339.96 155.88 338.7 154.86C343.92 152.4 348.78 148.38 351.3 143.76L357 145.32ZM385.62 121.26V141.42H379.02V121.26H385.62ZM375.18 121.26V141.42H369.3V121.26H375.18ZM365.4 121.26V141.42H359.46V121.26H365.4ZM355.8 121.26V141.42H349.26V121.26H355.8ZM393.24 138.78V144.42H341.7V138.78H393.24ZM393.9 128.94V134.7H340.5V128.94H393.9ZM362.34 148.08V152.82H347.04L351.72 148.08H362.34ZM391.32 119.28V124.92H346.02L351.6 119.28H391.32ZM357.3 115.2C354.3 120.18 350.64 124.74 345.48 128.7C344.22 127.32 341.88 125.4 340.2 124.56C344.94 121.5 348.42 117.36 350.4 113.88L357.3 115.2ZM418.86 118.8H457.02V129.9H450.18V124.62H425.4V129.9H418.86V118.8ZM433.8 114.06H441.12V123.54H433.8V114.06ZM433.98 131.94H440.88V155.46H433.98V131.94ZM439.8 161.76L445.38 158.1C449.4 160.44 455.04 163.98 457.98 166.38L452.1 170.46C449.52 168.06 443.94 164.28 439.8 161.76ZM428.82 158.76L435.72 161.34C432.06 164.94 426.24 168.6 421.44 170.76C420.24 169.38 417.54 166.74 415.98 165.54C420.72 164.04 425.88 161.4 428.82 158.76ZM427.74 150.36V153.54H447.66V150.36H427.74ZM427.74 142.2V145.38H447.66V142.2H427.74ZM421.38 136.92H454.32V158.82H421.38V136.92ZM423.6 128.28H452.1V133.98H423.6V128.28ZM404.34 119.64L408.3 114.24C411.9 115.62 416.58 118.08 418.92 120L414.72 126C412.56 123.9 407.94 121.2 404.34 119.64ZM401.22 135.9L405.18 130.44C408.72 131.7 413.4 134.04 415.74 135.9L411.54 141.9C409.38 139.98 404.88 137.4 401.22 135.9ZM402.78 165.42C405.6 160.8 409.56 153.18 412.62 146.1L418.32 150.36C415.62 156.84 412.32 163.86 409.2 169.74L402.78 165.42ZM471.54 159.84H512.58V166.92H471.54V159.84ZM487.86 114.66H495.36V164.16H487.86V114.66ZM468 144.84H475.32V170.4H468V144.84ZM508.74 144.84H516.24V170.34H508.74V144.84ZM470.4 119.7H477.6V134.64H506.22V119.7H513.84V141.6H470.4V119.7Z" fill="white"/>
<path d="M65.2558 342.271H84.9118V344.719H65.2558V342.271ZM66.3598 345.943H83.9758V348.247H66.3598V345.943ZM64.3678 349.567H85.6798V352.015H64.3678V349.567ZM73.5118 340.687H76.4398V351.631H73.5118V340.687ZM73.5358 350.479L76.0318 351.655C73.4638 354.415 69.2158 356.839 65.3038 358.063C64.8718 357.367 64.0558 356.311 63.4558 355.711C67.2478 354.727 71.4238 352.663 73.5358 350.479ZM77.6878 350.935C78.9358 355.711 81.5998 359.191 86.5438 360.607C85.8958 361.183 85.0798 362.383 84.6718 363.175C79.2958 361.303 76.6318 357.319 75.0718 351.439L77.6878 350.935ZM83.2318 352.375L85.6078 354.175C83.8078 355.471 81.6478 356.791 79.9918 357.607L78.1678 356.071C79.7758 355.135 81.9358 353.599 83.2318 352.375ZM65.9998 360.511C68.9038 360.007 73.3198 359.095 77.4238 358.207L77.6878 360.799C73.9198 361.663 69.8398 362.551 66.8638 363.199L65.9998 360.511ZM69.2878 355.639L71.1838 353.743L72.1678 354.007V360.919H69.2878V355.639ZM95.7118 342.583H110.976V347.023H108.24V344.911H98.3278V347.023H95.7118V342.583ZM101.688 340.687H104.616V344.479H101.688V340.687ZM101.76 347.839H104.52V357.247H101.76V347.839ZM104.088 359.767L106.32 358.303C107.928 359.239 110.184 360.655 111.36 361.615L109.008 363.247C107.976 362.287 105.744 360.775 104.088 359.767ZM99.6958 358.567L102.456 359.599C100.992 361.039 98.6638 362.503 96.7438 363.367C96.2638 362.815 95.1838 361.759 94.5598 361.279C96.4558 360.679 98.5198 359.623 99.6958 358.567ZM99.2638 355.207V356.479H107.232V355.207H99.2638ZM99.2638 351.943V353.215H107.232V351.943H99.2638ZM96.7198 349.831H109.896V358.591H96.7198V349.831ZM97.6078 346.375H109.008V348.655H97.6078V346.375ZM89.9038 342.919L91.4878 340.759C92.9278 341.311 94.7998 342.295 95.7358 343.063L94.0558 345.463C93.1918 344.623 91.3438 343.543 89.9038 342.919ZM88.6558 349.423L90.2398 347.239C91.6558 347.743 93.5278 348.679 94.4638 349.423L92.7838 351.823C91.9198 351.055 90.1198 350.023 88.6558 349.423ZM89.2798 361.231C90.4078 359.383 91.9918 356.335 93.2158 353.503L95.4958 355.207C94.4158 357.799 93.0958 360.607 91.8478 362.959L89.2798 361.231ZM123.24 343.231H135.504V345.727H123.24V343.231ZM122.424 347.839H136.224V350.383H122.424V347.839ZM122.472 352.423H136.056V354.943H122.472V352.423ZM127.872 340.663H130.704V349.471H127.872V340.663ZM130.92 350.239H133.728V360.175C133.728 361.567 133.464 362.311 132.528 362.719C131.568 363.151 130.272 363.199 128.472 363.199C128.376 362.407 127.944 361.255 127.56 360.511C128.736 360.559 130.056 360.559 130.416 360.535C130.8 360.535 130.92 360.463 130.92 360.127V350.239ZM123.432 356.551L125.736 355.231C126.864 356.407 128.136 357.991 128.664 359.167L126.192 360.607C125.736 359.479 124.536 357.775 123.432 356.551ZM115.824 342.151H122.016V358.567H115.824V355.999H119.328V344.719H115.824V342.151ZM115.968 348.967H120.624V351.487H115.968V348.967ZM114.48 342.151H117.144V360.703H114.48V342.151ZM146.616 355.327H153.192V357.391H146.616V355.327ZM146.448 351.775H154.536V360.991H146.448V358.879H151.848V353.887H146.448V351.775ZM145.272 351.775H147.864V362.215H145.272V351.775ZM141.24 344.935H147.264V346.879H141.24V344.935ZM152.376 344.935H158.448V346.879H152.376V344.935ZM157.272 341.599H160.176V359.815C160.176 361.375 159.864 362.215 158.904 362.695C157.944 363.175 156.552 363.223 154.488 363.223C154.368 362.407 153.936 361.063 153.552 360.295C154.8 360.367 156.264 360.343 156.696 360.343C157.128 360.343 157.272 360.199 157.272 359.791V341.599ZM141.48 341.599H149.064V350.311H141.48V348.247H146.376V343.687H141.48V341.599ZM158.808 341.599V343.687H153.432V348.319H158.808V350.383H150.696V341.599H158.808ZM139.824 341.599H142.68V363.223H139.824V341.599ZM164.424 342.295H185.352V345.247H164.424V342.295ZM176.016 350.335L178.248 348.463C180.816 350.335 184.512 353.095 186.264 355.015L183.816 357.223C182.232 355.327 178.68 352.375 176.016 350.335ZM175.056 343.375L178.272 344.503C175.536 349.567 171.168 354.463 165.648 357.343C165.192 356.575 164.28 355.375 163.68 354.727C168.816 352.303 173.064 347.647 175.056 343.375ZM173.304 349.183L176.472 346.039V363.175H173.304V349.183ZM193.2 347.935H206.472V350.671H193.2V347.935ZM199.824 353.695H207.936V356.383H199.824V353.695ZM198.312 349.519H201.336V361.111L198.312 360.751V349.519ZM192.576 352.015L195.6 352.327C194.976 357.199 193.488 361.015 190.752 363.367C190.272 362.863 189.048 361.831 188.376 361.399C190.968 359.479 192.168 356.143 192.576 352.015ZM194.904 355.015C196.44 359.431 199.8 360.103 204.072 360.103C205.344 360.103 209.352 360.103 210.96 360.055C210.552 360.727 210.072 362.119 209.952 362.983H203.904C198.36 362.983 194.616 361.855 192.552 355.807L194.904 355.015ZM198.264 340.711H201.336V345.103H198.264V340.711ZM189.528 343.135H210.168V349.159H207.192V345.871H192.36V349.159H189.528V343.135ZM225.408 352.039H235.224V363.103H232.488V354.631H228.024V363.199H225.408V352.039ZM228.6 340.711H231.408V352.735H228.6V340.711ZM230.28 345.655H236.064V348.319H230.28V345.655ZM226.776 359.671H233.76V362.287H226.776V359.671ZM216.528 343.351V348.583H222.36V343.351H216.528ZM214.392 341.407H224.592V350.527H214.392V341.407ZM216.48 344.383L217.656 344.023C218.04 345.127 218.352 346.567 218.424 347.479L217.176 347.887C217.128 346.927 216.84 345.487 216.48 344.383ZM217.056 358.135L218.808 357.919C219.12 359.263 219.312 360.991 219.312 362.143L217.464 362.359C217.512 361.207 217.32 359.479 217.056 358.135ZM219.456 358.039L221.16 357.727C221.64 358.975 222.096 360.607 222.216 361.687L220.44 362.071C220.344 360.991 219.912 359.311 219.456 358.039ZM221.808 357.823L223.512 357.199C224.304 358.351 225.072 359.887 225.36 360.943L223.56 361.687C223.272 360.631 222.528 359.023 221.808 357.823ZM214.968 357.991L216.888 358.567C216.6 360.295 216.168 362.119 215.184 363.223L213.312 362.263C214.2 361.255 214.728 359.575 214.968 357.991ZM221.184 343.999L222.624 344.503C222.168 345.655 221.688 347.047 221.28 347.911L220.224 347.527C220.56 346.543 220.992 345.007 221.184 343.999ZM213.816 355.015C216.624 354.943 220.872 354.799 224.928 354.631L224.856 356.863C220.944 357.103 216.84 357.295 213.912 357.439L213.816 355.015ZM214.416 351.559H224.52V353.743H214.416V351.559ZM218.52 342.391H220.272V349.639H220.656V355.903H218.136V349.639H218.52V342.391ZM245.472 342.583H260.736V347.023H258V344.911H248.088V347.023H245.472V342.583ZM251.448 340.687H254.376V344.479H251.448V340.687ZM251.52 347.839H254.28V357.247H251.52V347.839ZM253.848 359.767L256.08 358.303C257.688 359.239 259.944 360.655 261.12 361.615L258.768 363.247C257.736 362.287 255.504 360.775 253.848 359.767ZM249.456 358.567L252.216 359.599C250.752 361.039 248.424 362.503 246.504 363.367C246.024 362.815 244.944 361.759 244.32 361.279C246.216 360.679 248.28 359.623 249.456 358.567ZM249.024 355.207V356.479H256.992V355.207H249.024ZM249.024 351.943V353.215H256.992V351.943H249.024ZM246.48 349.831H259.656V358.591H246.48V349.831ZM247.368 346.375H258.768V348.655H247.368V346.375ZM239.664 342.919L241.248 340.759C242.688 341.311 244.56 342.295 245.496 343.063L243.816 345.463C242.952 344.623 241.104 343.543 239.664 342.919ZM238.416 349.423L240 347.239C241.416 347.743 243.288 348.679 244.224 349.423L242.544 351.823C241.68 351.055 239.88 350.023 238.416 349.423ZM239.04 361.231C240.168 359.383 241.752 356.335 242.976 353.503L245.256 355.207C244.176 357.799 242.856 360.607 241.608 362.959L239.04 361.231ZM266.544 358.999H282.96V361.831H266.544V358.999ZM273.072 340.927H276.072V360.727H273.072V340.927ZM265.128 352.999H268.056V363.223H265.128V352.999ZM281.424 352.999H284.424V363.199H281.424V352.999ZM266.088 342.943H268.968V348.919H280.416V342.943H283.464V351.703H266.088V342.943Z" fill="white"/>
<path d="M88.4556 276.959H112.206V282.059H88.4556V276.959ZM81.9056 286.259H114.256V291.259H81.9056V286.259ZM87.7556 271.809L93.3056 273.059C91.6056 278.209 88.6556 283.159 85.6556 286.359C84.5056 285.459 82.0056 284.109 80.6056 283.459C83.7556 280.659 86.3056 276.209 87.7556 271.809ZM95.3056 271.309H101.256V289.609H95.3056V271.309ZM80.3056 290.809V309.209H74.4556V296.359H68.6056V290.809H80.3056ZM80.3056 306.609C82.3056 309.909 86.1056 311.359 91.3056 311.559C97.1556 311.809 108.506 311.659 115.256 311.109C114.606 312.509 113.606 315.409 113.356 317.209C107.306 317.509 97.2056 317.609 91.2056 317.359C85.0556 317.109 80.9056 315.659 77.6556 311.759C75.4556 313.709 73.2056 315.609 70.5056 317.809L67.5556 311.559C69.8056 310.159 72.5056 308.409 74.8056 306.609H80.3056ZM68.7056 276.059L73.1556 272.459C76.1556 274.559 79.8056 277.709 81.5556 280.059L76.7556 284.009C75.2556 281.659 71.6556 278.309 68.7056 276.059ZM91.8056 298.759V303.859H105.006V298.759H91.8056ZM85.9556 294.009H111.256V308.659H85.9556V294.009ZM122.906 273.109H145.756V278.309H122.906V273.109ZM121.206 283.609H146.906V288.859H121.206V283.609ZM120.756 311.109H166.006V316.659H120.756V311.109ZM125.806 301.659H161.006V307.059H125.806V301.659ZM136.606 275.109H142.206V298.509H136.606V275.109ZM140.306 297.709H146.506V315.209H140.306V297.709ZM149.006 274.209H154.456V291.159H149.006V274.209ZM158.156 271.909H163.856V293.309C163.856 296.109 163.356 297.509 161.456 298.359C159.606 299.209 157.056 299.309 153.556 299.309C153.306 297.759 152.506 295.509 151.706 294.009C154.006 294.109 156.456 294.109 157.206 294.059C157.906 294.059 158.156 293.859 158.156 293.209V271.909ZM126.906 275.209H132.406V284.109C132.406 289.609 131.006 296.109 124.056 299.859C123.306 298.759 121.256 296.509 120.156 295.709C126.256 292.559 126.906 288.059 126.906 283.959V275.209ZM182.856 275.609H217.006V280.109H182.856V275.609ZM183.306 282.009H212.706V286.359H183.306V282.009ZM177.556 288.359H206.456V292.909H177.556V288.359ZM174.306 301.459H204.056V306.009H174.306V301.459ZM182.456 271.259L188.856 272.909C186.156 279.909 181.656 286.459 177.106 290.559C175.806 289.459 173.006 287.609 171.456 286.759C176.206 283.259 180.306 277.409 182.456 271.259ZM204.606 288.359H210.656C210.606 301.109 211.356 312.209 214.156 312.209C214.856 312.209 215.106 309.459 215.156 305.159C216.306 306.609 217.806 308.159 219.006 308.959C218.606 315.359 217.456 318.159 213.706 318.159C205.606 318.159 204.806 304.709 204.606 288.359ZM177.056 296.059L181.556 294.259C182.956 296.059 184.406 298.409 184.956 300.109L180.156 302.009C179.706 300.359 178.406 297.859 177.056 296.059ZM188.956 308.509L192.706 305.359C196.356 307.409 201.456 310.559 204.056 312.709L200.056 316.259C197.706 314.059 192.706 310.759 188.956 308.509ZM186.706 293.909H192.356V318.159H186.706V293.909ZM197.306 294.109L202.606 295.759C200.806 298.009 199.006 300.309 197.656 301.859L193.806 300.409C195.056 298.659 196.506 295.959 197.306 294.109ZM185.506 303.459L189.956 305.109C186.856 310.159 181.506 315.009 176.356 317.609C175.506 316.309 173.806 314.209 172.606 313.209C177.506 311.259 182.806 307.359 185.506 303.459ZM224.356 275.109H241.206V280.659H224.356V275.109ZM240.656 279.709H271.056V285.209H240.656V279.709ZM224.756 289.059H240.656V294.609H224.756V289.059ZM223.406 306.509C227.856 305.409 234.706 303.459 241.156 301.609L241.956 306.659C236.106 308.659 229.856 310.659 224.956 312.159L223.406 306.509ZM252.506 271.259H258.306V311.459C258.306 314.409 257.706 316.009 255.956 317.009C254.206 318.009 251.656 318.209 247.906 318.209C247.706 316.609 246.706 314.009 245.856 312.459C248.306 312.559 250.656 312.509 251.456 312.509C252.206 312.509 252.506 312.259 252.506 311.459V271.259ZM237.356 307.659C240.556 306.059 245.456 303.109 250.106 300.309L251.906 305.259C248.156 307.959 243.906 310.809 240.406 313.009L237.356 307.659ZM241.106 289.509L245.756 287.459C247.656 290.109 249.856 293.759 250.656 296.209L245.756 298.509C245.006 296.109 243.006 292.309 241.106 289.509ZM265.656 286.909L270.906 289.659C268.656 292.759 266.156 296.109 264.156 298.309L259.906 295.909C261.806 293.559 264.256 289.759 265.656 286.909ZM260.156 274.609L263.406 271.509C265.756 272.909 268.706 275.159 270.106 276.759L266.656 280.209C265.306 278.559 262.456 276.209 260.156 274.609ZM229.956 277.409H235.756V306.509L229.956 307.409V277.409ZM258.106 285.809C260.056 297.309 263.456 304.109 271.906 309.859C270.506 310.959 268.906 312.859 268.206 314.459C258.906 307.409 255.356 299.459 253.156 286.709L258.106 285.809Z" fill="white"/>
<circle cx="291.713" cy="212.9" r="26.8475" fill="white"/>
<path d="M284.552 210.428H307.592V214.28H284.552V210.428ZM285.812 203.156H306.368V206.936H285.812V203.156ZM293.444 204.992H297.764V210.788C297.764 215.36 296 221.048 287.432 224.756C286.892 223.856 285.56 222.38 284.552 221.624C292.688 218.672 293.444 214.064 293.444 210.716V204.992ZM298.412 213.164C299.852 217.16 302.912 219.968 307.664 221.192C306.728 222.056 305.54 223.712 304.964 224.828C299.636 223.064 296.54 219.356 294.776 213.92L298.412 213.164ZM283.148 210.824V224.072H278.936V214.82H274.724V210.824H283.148ZM283.148 222.2C284.588 224.576 287.324 225.62 291.068 225.764C295.28 225.944 303.452 225.836 308.312 225.44C307.844 226.448 307.124 228.536 306.944 229.832C302.588 230.048 295.316 230.12 290.996 229.94C286.568 229.76 283.58 228.716 281.24 225.908C279.656 227.312 278.036 228.68 276.092 230.264L273.968 225.764C275.588 224.756 277.532 223.496 279.188 222.2H283.148ZM274.796 200.204L278 197.612C280.16 199.124 282.824 201.392 284.048 203.084L280.592 205.928C279.512 204.236 276.92 201.824 274.796 200.204ZM300.86 196.748L305.288 198.116C303.956 200.204 302.552 202.328 301.4 203.732L297.872 202.472C298.916 200.888 300.212 198.512 300.86 196.748ZM286.748 198.332L290.42 196.856C291.752 198.476 293.084 200.744 293.588 202.328L289.664 204.02C289.268 202.472 288.008 200.096 286.748 198.332Z" fill="#39BF63"/>
<rect x="450.292" y="265" width="72.0925" height="66.5186" fill="#6EE292"/>
<path d="M523.868 331.518C523.868 355.423 499.966 352.998 470.481 352.998C440.996 352.998 415.241 356.809 417.094 331.518C417.094 316.211 440.996 303.802 470.481 303.802C499.966 303.802 523.868 316.211 523.868 331.518Z" fill="#6EE292"/>
<ellipse cx="428.587" cy="352.652" rx="11.493" ry="10.74" fill="#6EE292"/>
<ellipse cx="453.056" cy="352.652" rx="11.493" ry="10.74" fill="#6EE292"/>
<ellipse cx="487.164" cy="352.652" rx="11.493" ry="10.74" fill="#6EE292"/>
<ellipse cx="512.375" cy="352.652" rx="11.493" ry="10.74" fill="#6EE292"/>
<circle cx="485.357" cy="304.357" r="17.3571" fill="white"/>
<path d="M483.998 308.604C483.452 304.522 488.99 303.612 488.99 301.09C488.99 299.504 487.742 298.62 485.688 298.62C484.102 298.62 482.802 299.348 481.528 300.674L479.396 298.724C481.06 296.8 483.348 295.526 486.13 295.526C489.9 295.526 492.656 297.294 492.656 300.752C492.656 304.548 486.962 305.016 487.378 308.604H483.998ZM485.714 315.546C484.362 315.546 483.4 314.584 483.4 313.232C483.4 311.88 484.388 310.944 485.714 310.944C487.014 310.944 488.002 311.88 488.002 313.232C488.002 314.584 487.014 315.546 485.714 315.546Z" fill="#6EE292"/>
</svg>
