<svg width="570" height="311" viewBox="0 0 570 311" fill="none" xmlns="http://www.w3.org/2000/svg">
<path d="M0 28.6286H540C556.569 28.6286 570 42.0601 570 58.6286V311H30C13.4314 311 0 297.569 0 281V28.6286Z" fill="#FF5F17"/>
<line x1="347.797" y1="218.5" x2="38.6441" y2="218.5" stroke="white"/>
<path d="M157.377 102.782H161.185V106.43C161.185 106.857 161.292 107.134 161.505 107.262C161.719 107.369 162.209 107.422 162.977 107.422C163.148 107.422 163.436 107.422 163.841 107.422C164.247 107.422 164.684 107.422 165.153 107.422C165.623 107.422 166.071 107.422 166.497 107.422C166.924 107.422 167.255 107.422 167.489 107.422C167.895 107.422 168.193 107.369 168.385 107.262C168.599 107.134 168.759 106.878 168.865 106.494C168.972 106.11 169.036 105.534 169.057 104.766C169.441 105.022 169.964 105.278 170.625 105.534C171.308 105.769 171.905 105.929 172.417 106.014C172.268 107.273 172.033 108.233 171.713 108.894C171.393 109.555 170.924 110.014 170.305 110.27C169.708 110.526 168.887 110.654 167.841 110.654C167.671 110.654 167.404 110.654 167.041 110.654C166.7 110.654 166.305 110.654 165.857 110.654C165.409 110.654 164.961 110.654 164.513 110.654C164.065 110.654 163.66 110.654 163.297 110.654C162.956 110.654 162.7 110.654 162.529 110.654C161.143 110.654 160.076 110.526 159.329 110.27C158.583 110.035 158.071 109.609 157.793 108.99C157.516 108.393 157.377 107.561 157.377 106.494V102.782ZM161.313 102.238L163.905 100.382C164.439 100.723 164.993 101.118 165.569 101.566C166.145 101.993 166.679 102.441 167.169 102.91C167.66 103.379 168.044 103.827 168.321 104.254L165.569 106.27C165.164 105.651 164.556 104.969 163.745 104.222C162.956 103.475 162.145 102.814 161.313 102.238ZM171.329 104.062L174.369 102.398C174.988 102.974 175.617 103.625 176.257 104.35C176.897 105.054 177.484 105.769 178.017 106.494C178.551 107.198 178.956 107.859 179.233 108.478L175.905 110.366C175.671 109.769 175.297 109.097 174.785 108.35C174.295 107.625 173.751 106.889 173.153 106.142C172.556 105.374 171.948 104.681 171.329 104.062ZM149.825 84.446L152.097 81.726C152.737 82.0033 153.409 82.334 154.113 82.718C154.839 83.102 155.521 83.4967 156.161 83.902C156.801 84.286 157.335 84.6593 157.761 85.022L155.329 88.03C154.967 87.6673 154.465 87.2727 153.825 86.846C153.207 86.398 152.535 85.9713 151.809 85.566C151.105 85.1393 150.444 84.766 149.825 84.446ZM169.633 96.35L171.681 95.518C172.023 95.902 172.353 96.35 172.673 96.862C172.993 97.374 173.228 97.822 173.377 98.206L171.233 99.134C171.105 98.7287 170.892 98.27 170.593 97.758C170.295 97.2247 169.975 96.7553 169.633 96.35ZM165.857 96.798L168.321 96.126C168.62 96.6593 168.908 97.2567 169.185 97.918C169.463 98.5793 169.644 99.1553 169.729 99.646L167.169 100.414C167.084 99.9233 166.913 99.3473 166.657 98.686C166.423 98.0033 166.156 97.374 165.857 96.798ZM153.281 102.11L156.513 103.39C156.065 104.67 155.489 105.939 154.785 107.198C154.081 108.435 153.217 109.502 152.193 110.398L149.089 108.254C150.071 107.507 150.913 106.59 151.617 105.502C152.321 104.414 152.876 103.283 153.281 102.11ZM159.745 82.046H177.153V84.766H163.393V94.078H159.745V82.046ZM162.337 85.886H175.937V88.126H162.337V85.886ZM162.337 89.278H175.937V91.55H162.337V89.278ZM159.745 92.734H176.129V95.422H159.745V92.734ZM167.169 83.39H170.625V93.982H167.169V83.39ZM149.345 97.438C149.943 96.8407 150.604 96.1367 151.329 95.326C152.076 94.5153 152.844 93.6407 153.633 92.702C154.423 91.7633 155.18 90.8247 155.905 89.886L158.209 92.318C157.591 93.1713 156.951 94.046 156.289 94.942C155.649 95.838 154.988 96.7233 154.305 97.598C153.644 98.4727 152.972 99.3153 152.289 100.126L149.345 97.438ZM158.593 95.454L161.345 96.542C161.047 97.4807 160.663 98.43 160.193 99.39C159.724 100.35 159.137 101.161 158.433 101.822L155.777 100.222C156.439 99.646 157.004 98.9207 157.473 98.046C157.964 97.1713 158.337 96.3073 158.593 95.454ZM174.785 92.734H178.177C178.177 92.734 178.167 92.8833 178.145 93.182C178.145 93.4593 178.124 93.7047 178.081 93.918C177.996 95.4113 177.889 96.6487 177.761 97.63C177.633 98.59 177.495 99.358 177.345 99.934C177.196 100.489 177.004 100.894 176.769 101.15C176.513 101.449 176.225 101.673 175.905 101.822C175.585 101.971 175.244 102.057 174.881 102.078C174.583 102.142 174.177 102.185 173.665 102.206C173.153 102.206 172.588 102.195 171.969 102.174C171.948 101.747 171.863 101.278 171.713 100.766C171.585 100.233 171.425 99.774 171.233 99.39C171.66 99.4327 172.033 99.4647 172.353 99.486C172.695 99.486 172.94 99.486 173.089 99.486C173.452 99.486 173.719 99.39 173.889 99.198C174.103 98.9633 174.273 98.4087 174.401 97.534C174.551 96.638 174.679 95.1767 174.785 93.15V92.734ZM161.729 96.894L164.385 96.35C164.62 96.99 164.823 97.694 164.993 98.462C165.185 99.2087 165.313 99.8593 165.377 100.414L162.529 101.022C162.529 100.467 162.455 99.806 162.305 99.038C162.156 98.2487 161.964 97.534 161.729 96.894ZM190.337 101.758H202.689V103.838H190.337V101.758ZM192.097 98.942H203.393V100.734H192.097V98.942ZM192.097 96.19H203.265V97.95H192.097V96.19ZM196.033 94.366H198.913V102.974H196.033V94.366ZM202.241 101.758H205.185C205.185 101.758 205.185 101.886 205.185 102.142C205.185 102.377 205.175 102.59 205.153 102.782C205.089 104.126 205.015 105.235 204.929 106.11C204.865 106.985 204.769 107.657 204.641 108.126C204.535 108.617 204.375 108.99 204.161 109.246C203.948 109.502 203.692 109.694 203.393 109.822C203.095 109.95 202.775 110.035 202.433 110.078C202.113 110.099 201.708 110.11 201.217 110.11C200.748 110.131 200.247 110.131 199.713 110.11C199.692 109.747 199.617 109.342 199.489 108.894C199.361 108.467 199.212 108.105 199.041 107.806C199.447 107.849 199.809 107.881 200.129 107.902C200.471 107.923 200.727 107.923 200.897 107.902C201.217 107.923 201.463 107.838 201.633 107.646C201.783 107.454 201.9 106.963 201.985 106.174C202.092 105.363 202.177 104.019 202.241 102.142V101.758ZM189.729 104.382L191.969 104.958C191.82 105.918 191.596 106.846 191.297 107.742C190.999 108.617 190.529 109.342 189.889 109.918L187.873 108.574C188.385 108.105 188.791 107.486 189.089 106.718C189.409 105.95 189.623 105.171 189.729 104.382ZM198.561 104.638L200.097 104.158C200.396 104.563 200.652 105.022 200.865 105.534C201.079 106.046 201.239 106.494 201.345 106.878L199.713 107.486C199.628 107.081 199.479 106.611 199.265 106.078C199.073 105.545 198.839 105.065 198.561 104.638ZM192.769 105.15L194.657 104.894C194.785 105.555 194.871 106.291 194.913 107.102C194.977 107.913 194.999 108.585 194.977 109.118L192.929 109.438C192.993 108.862 193.004 108.179 192.961 107.39C192.94 106.579 192.876 105.833 192.769 105.15ZM195.777 104.99L197.537 104.574C197.751 105.15 197.932 105.79 198.081 106.494C198.231 107.177 198.327 107.763 198.369 108.254L196.513 108.766C196.492 108.254 196.417 107.646 196.289 106.942C196.161 106.238 195.991 105.587 195.777 104.99ZM190.337 93.118H204.193V95.23H193.345V102.91H190.337V93.118ZM185.697 85.694H193.761V87.87H185.697V85.694ZM200.321 85.694H208.449V87.87H200.321V85.694ZM207.297 81.95H210.977V107.134C210.977 107.987 210.881 108.659 210.689 109.15C210.519 109.662 210.177 110.067 209.665 110.366C209.175 110.665 208.556 110.846 207.809 110.91C207.084 110.974 206.22 111.006 205.217 111.006C205.175 110.537 205.057 109.971 204.865 109.31C204.673 108.649 204.46 108.094 204.225 107.646C204.737 107.667 205.239 107.678 205.729 107.678C206.241 107.678 206.593 107.678 206.785 107.678C206.977 107.657 207.105 107.603 207.169 107.518C207.255 107.433 207.297 107.294 207.297 107.102V81.95ZM186.049 81.95H196.193V91.71H186.049V89.278H192.609V84.382H186.049V81.95ZM209.153 81.95V84.382H201.953V89.246H209.153V91.678H198.305V81.95H209.153ZM183.777 81.95H187.361V111.006H183.777V81.95ZM227.489 97.886L229.345 97.31C229.708 97.8433 230.039 98.4407 230.337 99.102C230.657 99.742 230.871 100.307 230.977 100.798L229.025 101.47C228.919 100.958 228.716 100.371 228.417 99.71C228.14 99.0487 227.831 98.4407 227.489 97.886ZM222.145 95.454L223.361 93.982C223.937 94.366 224.535 94.8247 225.153 95.358C225.772 95.8913 226.231 96.3713 226.529 96.798L225.249 98.494C224.951 98.046 224.503 97.534 223.905 96.958C223.308 96.382 222.721 95.8807 222.145 95.454ZM225.697 91.934L227.905 92.798C227.479 93.3313 227.041 93.8753 226.593 94.43C226.167 94.9847 225.761 95.4433 225.377 95.806L223.681 95.07C224.023 94.622 224.385 94.0993 224.769 93.502C225.153 92.9047 225.463 92.382 225.697 91.934ZM227.873 94.27L229.857 95.134C229.324 95.71 228.759 96.3073 228.161 96.926C227.564 97.5447 226.977 98.142 226.401 98.718C225.825 99.2727 225.281 99.7633 224.769 100.19L223.297 99.422C223.809 98.9527 224.343 98.4193 224.897 97.822C225.473 97.2033 226.017 96.5847 226.529 95.966C227.063 95.326 227.511 94.7607 227.873 94.27ZM231.201 101.374H233.825V110.334H231.201V101.374ZM221.857 99.166C222.881 99.102 224.033 99.038 225.313 98.974C226.615 98.8887 227.991 98.7927 229.441 98.686V100.638C228.119 100.766 226.839 100.883 225.601 100.99C224.364 101.075 223.201 101.161 222.113 101.246L221.857 99.166ZM235.553 97.694L237.505 97.118C237.889 97.7153 238.252 98.3767 238.593 99.102C238.935 99.806 239.169 100.435 239.297 100.99L237.281 101.63C237.175 101.097 236.961 100.467 236.641 99.742C236.321 98.9953 235.959 98.3127 235.553 97.694ZM229.761 95.294L231.137 93.886C231.777 94.3127 232.417 94.8247 233.057 95.422C233.719 96.0193 234.209 96.5633 234.529 97.054L233.121 98.654C232.801 98.142 232.321 97.5767 231.681 96.958C231.041 96.318 230.401 95.7633 229.761 95.294ZM233.441 91.902L235.777 92.766C235.287 93.3847 234.796 93.982 234.305 94.558C233.815 95.134 233.356 95.646 232.929 96.094L231.201 95.326C231.585 94.8567 231.991 94.2913 232.417 93.63C232.844 92.9687 233.185 92.3927 233.441 91.902ZM235.745 94.27L237.761 95.198C237.207 95.7953 236.62 96.414 236.001 97.054C235.383 97.694 234.764 98.302 234.145 98.878C233.527 99.454 232.929 99.966 232.353 100.414L230.881 99.582C231.415 99.1127 231.98 98.5793 232.577 97.982C233.196 97.3633 233.783 96.734 234.337 96.094C234.892 95.4327 235.361 94.8247 235.745 94.27ZM230.401 99.166C231.383 99.1233 232.503 99.0593 233.761 98.974C235.041 98.8887 236.385 98.8033 237.793 98.718V100.638C236.556 100.766 235.34 100.883 234.145 100.99C232.972 101.075 231.873 101.161 230.849 101.246L230.401 99.166ZM222.849 101.918H225.185V104.67H228.641V106.814H222.849V101.918ZM235.809 101.918H238.209V106.814H233.281V104.67H235.809V101.918ZM227.137 101.374H229.665V104.478C229.665 105.31 229.559 106.121 229.345 106.91C229.132 107.699 228.695 108.425 228.033 109.086C227.372 109.747 226.359 110.313 224.993 110.782C224.844 110.462 224.599 110.099 224.257 109.694C223.916 109.289 223.617 108.958 223.361 108.702C224.471 108.382 225.292 107.998 225.825 107.55C226.359 107.081 226.711 106.579 226.881 106.046C227.052 105.513 227.137 104.969 227.137 104.414V101.374ZM218.977 86.206H227.041V88.542H218.977V86.206ZM233.697 86.206H241.825V88.542H233.697V86.206ZM240.545 82.142H244.225V106.558C244.225 107.475 244.14 108.211 243.969 108.766C243.799 109.342 243.436 109.79 242.881 110.11C242.348 110.43 241.697 110.622 240.929 110.686C240.161 110.771 239.244 110.814 238.177 110.814C238.135 110.451 238.06 110.046 237.953 109.598C237.847 109.15 237.719 108.691 237.569 108.222C237.441 107.774 237.292 107.39 237.121 107.07C237.697 107.091 238.263 107.113 238.817 107.134C239.393 107.134 239.788 107.123 240.001 107.102C240.215 107.102 240.353 107.059 240.417 106.974C240.503 106.889 240.545 106.739 240.545 106.526V82.142ZM219.329 82.142H229.473V92.574H219.329V90.014H225.889V84.702H219.329V82.142ZM242.433 82.142V84.702H235.233V90.014H242.433V92.574H231.585V82.142H242.433ZM217.057 82.142H220.705V110.974H217.057V82.142ZM249.313 92.222H278.465V96.03H249.313V92.222ZM263.585 84.83H274.977V88.51H263.585V84.83ZM261.089 80.894H265.185V94.046H261.089V80.894ZM261.089 94.654H265.185V110.942H261.089V94.654ZM264.001 100.766L265.953 97.694C266.764 97.9287 267.649 98.206 268.609 98.526C269.569 98.8247 270.54 99.1553 271.521 99.518C272.503 99.8593 273.431 100.201 274.305 100.542C275.18 100.883 275.916 101.203 276.513 101.502L274.465 104.99C273.889 104.67 273.175 104.329 272.321 103.966C271.489 103.603 270.593 103.23 269.633 102.846C268.673 102.462 267.703 102.089 266.721 101.726C265.761 101.363 264.855 101.043 264.001 100.766ZM299.42 93.022H319.868V96.478H299.42V93.022ZM300.54 86.558H318.78V89.95H300.54V86.558ZM307.292 88.222H311.132V93.342C311.132 94.366 311.004 95.4327 310.748 96.542C310.514 97.6513 310.066 98.7607 309.404 99.87C308.764 100.958 307.836 102.014 306.62 103.038C305.426 104.041 303.879 104.958 301.98 105.79C301.81 105.513 301.575 105.203 301.276 104.862C300.978 104.521 300.668 104.179 300.348 103.838C300.028 103.497 299.719 103.219 299.42 103.006C301.234 102.345 302.663 101.609 303.708 100.798C304.775 99.9873 305.554 99.1447 306.044 98.27C306.556 97.3953 306.887 96.542 307.036 95.71C307.207 94.8567 307.292 94.0567 307.292 93.31V88.222ZM311.708 95.454C312.37 97.2247 313.372 98.7287 314.716 99.966C316.082 101.182 317.831 102.057 319.964 102.59C319.687 102.846 319.388 103.166 319.068 103.55C318.77 103.934 318.482 104.329 318.204 104.734C317.948 105.118 317.724 105.481 317.532 105.822C315.186 105.054 313.287 103.849 311.836 102.206C310.386 100.563 309.266 98.5473 308.476 96.158L311.708 95.454ZM298.14 93.374V105.182H294.396V96.926H290.684V93.374H298.14ZM298.14 103.518C298.802 104.563 299.73 105.331 300.924 105.822C302.119 106.313 303.548 106.59 305.212 106.654C306.151 106.697 307.26 106.729 308.54 106.75C309.842 106.75 311.207 106.739 312.636 106.718C314.066 106.697 315.463 106.654 316.828 106.59C318.215 106.526 319.442 106.451 320.508 106.366C320.38 106.665 320.231 107.049 320.06 107.518C319.89 107.987 319.73 108.467 319.58 108.958C319.452 109.449 319.356 109.886 319.292 110.27C318.332 110.334 317.234 110.377 315.996 110.398C314.759 110.441 313.49 110.462 312.188 110.462C310.887 110.483 309.628 110.483 308.412 110.462C307.196 110.441 306.108 110.409 305.148 110.366C303.186 110.281 301.511 109.971 300.124 109.438C298.738 108.926 297.511 108.051 296.444 106.814C295.74 107.411 295.015 108.03 294.268 108.67C293.543 109.31 292.743 109.971 291.868 110.654L289.98 106.654C290.727 106.206 291.506 105.715 292.316 105.182C293.127 104.649 293.906 104.094 294.652 103.518H298.14ZM290.716 83.966L293.564 81.662C294.226 82.0887 294.898 82.59 295.58 83.166C296.263 83.7207 296.903 84.2967 297.5 84.894C298.098 85.47 298.578 86.0033 298.94 86.494L295.9 89.054C295.58 88.542 295.132 87.9873 294.556 87.39C294.002 86.7927 293.383 86.1953 292.7 85.598C292.018 84.9793 291.356 84.4353 290.716 83.966ZM313.916 80.894L317.82 82.11C317.244 83.0273 316.647 83.934 316.028 84.83C315.431 85.7047 314.876 86.4513 314.364 87.07L311.228 85.982C311.548 85.4913 311.879 84.958 312.22 84.382C312.562 83.7847 312.882 83.1873 313.18 82.59C313.479 81.9713 313.724 81.406 313.916 80.894ZM301.372 82.302L304.604 80.958C305.202 81.6833 305.767 82.5047 306.3 83.422C306.834 84.3393 307.207 85.15 307.42 85.854L303.964 87.326C303.794 86.6433 303.452 85.8327 302.94 84.894C302.45 83.934 301.927 83.07 301.372 82.302Z" fill="white"/>
<path d="M37.8548 240.968H45.1028V243.152H37.8548V240.968ZM37.9508 234.368H45.0548V236.528H37.9508V234.368ZM37.8548 244.256H45.1028V246.416H37.8548V244.256ZM36.7268 237.584H45.8948V239.864H36.7268V237.584ZM39.1028 247.568H45.1508V254.888H39.1028V252.608H42.6788V249.848H39.1028V247.568ZM37.8068 247.568H40.2308V255.824H37.8068V247.568ZM46.4708 234.92H58.7108V236.96H46.4708V234.92ZM47.0948 237.848H58.3508V239.768H47.0948V237.848ZM45.9188 240.728H59.1668V242.792H45.9188V240.728ZM51.1508 233.6H53.8628V242.48H51.1508V233.6ZM47.5508 243.704H56.7428V245.744H50.1908V256.112H47.5508V243.704ZM55.1828 243.704H57.8708V253.472C57.8708 254.064 57.7988 254.528 57.6548 254.864C57.5108 255.216 57.2308 255.488 56.8148 255.68C56.4148 255.872 55.9268 255.984 55.3508 256.016C54.7748 256.064 54.1028 256.088 53.3348 256.088C53.2868 255.736 53.1828 255.336 53.0228 254.888C52.8788 254.456 52.7348 254.088 52.5908 253.784C53.0228 253.8 53.4548 253.808 53.8868 253.808C54.3348 253.808 54.6308 253.8 54.7748 253.784C54.9348 253.784 55.0388 253.76 55.0868 253.712C55.1508 253.648 55.1828 253.552 55.1828 253.424V243.704ZM48.7028 246.8H56.5508V248.696H48.7028V246.8ZM48.7028 249.8H56.5508V251.672H48.7028V249.8ZM66.3668 241.952H79.4228V244.616H66.3668V241.952ZM66.3668 247.088H79.4228V249.752H66.3668V247.088ZM66.3668 252.248H79.4228V254.912H66.3668V252.248ZM64.4228 236.72H81.8468V256.088H78.7988V239.48H67.3268V256.136H64.4228V236.72ZM71.2388 233.576L74.7188 233.96C74.4308 234.744 74.1268 235.512 73.8068 236.264C73.4868 237.016 73.1908 237.664 72.9188 238.208L70.2788 237.728C70.4068 237.328 70.5348 236.888 70.6628 236.408C70.7908 235.912 70.9028 235.424 70.9988 234.944C71.1108 234.448 71.1908 233.992 71.2388 233.576ZM96.9188 233.768H99.5828V239.6H96.9188V233.768ZM103.135 233.768H105.847V239.6H103.135V233.768ZM101.647 244.76H103.903V256.064H101.647V244.76ZM93.5108 235.52H109.087V237.992H93.5108V235.52ZM98.5508 247.376H107.047V249.224H98.5508V247.376ZM98.5508 250.568H107.047V252.44H98.5508V250.568ZM94.8068 240.224H109.207V242.696H94.8068V240.224ZM93.6308 240.224H96.2468V245.528C96.2468 246.328 96.2148 247.192 96.1508 248.12C96.0868 249.048 95.9668 250 95.7908 250.976C95.6308 251.936 95.3908 252.872 95.0708 253.784C94.7508 254.68 94.3348 255.496 93.8228 256.232C93.6948 256.056 93.4948 255.848 93.2228 255.608C92.9668 255.384 92.7028 255.16 92.4308 254.936C92.1588 254.728 91.9268 254.568 91.7348 254.456C92.3268 253.592 92.7508 252.64 93.0068 251.6C93.2788 250.544 93.4468 249.488 93.5108 248.432C93.5908 247.376 93.6308 246.4 93.6308 245.504V240.224ZM97.1108 243.92H107.335V246.008H99.5108V256.112H97.1108V243.92ZM106.207 243.92H108.631V253.712C108.631 254.24 108.583 254.664 108.487 254.984C108.391 255.32 108.175 255.584 107.839 255.776C107.503 255.952 107.111 256.064 106.663 256.112C106.215 256.16 105.679 256.176 105.055 256.16C105.023 255.84 104.951 255.472 104.839 255.056C104.727 254.64 104.591 254.28 104.431 253.976C104.767 253.992 105.071 254 105.343 254C105.615 254 105.807 253.992 105.919 253.976C106.111 253.976 106.207 253.88 106.207 253.688V243.92ZM90.9668 233.648L93.6308 234.44C93.1828 235.832 92.6388 237.24 91.9988 238.664C91.3748 240.088 90.6868 241.44 89.9348 242.72C89.1828 243.984 88.3988 245.096 87.5828 246.056C87.5188 245.832 87.4068 245.52 87.2468 245.12C87.0868 244.72 86.9108 244.32 86.7188 243.92C86.5268 243.52 86.3588 243.192 86.2148 242.936C86.8548 242.184 87.4708 241.312 88.0628 240.32C88.6708 239.328 89.2228 238.264 89.7188 237.128C90.2148 235.976 90.6308 234.816 90.9668 233.648ZM89.0468 240.248L91.7108 237.584L91.7828 237.632V256.136H89.0468V240.248ZM118.519 238.616L121.279 239.552C120.783 240.272 120.199 240.976 119.527 241.664C118.855 242.336 118.143 242.968 117.391 243.56C116.639 244.136 115.887 244.632 115.135 245.048C115.007 244.84 114.823 244.592 114.583 244.304C114.343 244.016 114.095 243.728 113.839 243.44C113.583 243.152 113.359 242.92 113.167 242.744C114.207 242.28 115.207 241.68 116.167 240.944C117.127 240.208 117.911 239.432 118.519 238.616ZM124.351 240.248L126.391 238.568C127.063 238.968 127.775 239.424 128.527 239.936C129.295 240.448 130.031 240.968 130.735 241.496C131.439 242.008 132.007 242.496 132.439 242.96L130.255 244.856C129.855 244.408 129.327 243.912 128.671 243.368C128.015 242.824 127.303 242.28 126.535 241.736C125.783 241.176 125.055 240.68 124.351 240.248ZM122.983 244.256C122.359 245.072 121.543 245.904 120.535 246.752C119.543 247.6 118.439 248.408 117.223 249.176C116.023 249.944 114.783 250.616 113.503 251.192C113.391 250.952 113.239 250.688 113.047 250.4C112.871 250.096 112.679 249.8 112.471 249.512C112.263 249.208 112.063 248.952 111.871 248.744C113.199 248.232 114.471 247.584 115.687 246.8C116.903 246.016 118.007 245.168 118.999 244.256C119.991 243.344 120.783 242.464 121.375 241.616H124.327C124.967 242.4 125.671 243.136 126.439 243.824C127.223 244.512 128.039 245.144 128.887 245.72C129.735 246.28 130.615 246.784 131.527 247.232C132.439 247.68 133.359 248.056 134.287 248.36C133.951 248.728 133.623 249.152 133.303 249.632C132.999 250.112 132.727 250.56 132.487 250.976C131.639 250.608 130.759 250.168 129.847 249.656C128.951 249.144 128.071 248.592 127.207 248C126.359 247.408 125.567 246.792 124.831 246.152C124.111 245.512 123.495 244.88 122.983 244.256ZM116.143 247.856H129.799V256.112H126.871V250.4H118.927V256.16H116.143V247.856ZM117.439 252.944H128.335V255.488H117.439V252.944ZM121.327 233.6H124.303V237.032H121.327V233.6ZM112.591 235.52H133.183V240.728H130.255V238.136H115.423V240.728H112.591V235.52ZM141.055 236.792V239.288H143.959V236.792H141.055ZM138.463 234.536H146.719V241.544H138.463V234.536ZM151.567 236.792V239.288H154.495V236.792H151.567ZM148.951 234.536H157.231V241.544H148.951V234.536ZM136.951 242.864H158.815V245.384H136.951V242.864ZM140.215 253.064H145.495V255.416H140.215V253.064ZM150.055 253.064H155.359V255.416H150.055V253.064ZM151.423 243.512C151.935 244.248 152.607 244.936 153.439 245.576C154.287 246.216 155.239 246.776 156.295 247.256C157.351 247.736 158.463 248.112 159.631 248.384C159.423 248.56 159.199 248.792 158.959 249.08C158.735 249.352 158.519 249.632 158.311 249.92C158.119 250.192 157.951 250.448 157.807 250.688C156.543 250.32 155.351 249.84 154.231 249.248C153.111 248.656 152.087 247.96 151.159 247.16C150.231 246.344 149.431 245.456 148.759 244.496L151.423 243.512ZM138.871 248.072H146.839V256.16H144.223V250.424H141.367V256.208H138.871V248.072ZM148.711 248.072H156.775V256.16H154.111V250.424H151.231V256.208H148.711V248.072ZM146.215 240.512L148.999 241.448C147.959 243.672 146.471 245.536 144.535 247.04C142.615 248.544 140.383 249.744 137.839 250.64C137.727 250.416 137.575 250.168 137.383 249.896C137.191 249.608 136.975 249.328 136.735 249.056C136.511 248.784 136.311 248.568 136.135 248.408C138.487 247.64 140.543 246.592 142.303 245.264C144.063 243.936 145.367 242.352 146.215 240.512ZM165.463 257.312L164.695 255.368C165.703 255.048 166.471 254.608 166.999 254.048C167.543 253.504 167.815 252.88 167.815 252.176L167.623 249.824L168.967 251.96C168.759 252.136 168.535 252.272 168.295 252.368C168.055 252.464 167.799 252.512 167.527 252.512C166.935 252.512 166.407 252.328 165.943 251.96C165.479 251.576 165.247 251.04 165.247 250.352C165.247 249.68 165.479 249.152 165.943 248.768C166.407 248.384 166.959 248.192 167.599 248.192C168.447 248.192 169.087 248.488 169.519 249.08C169.967 249.672 170.191 250.472 170.191 251.48C170.191 252.84 169.775 254.04 168.943 255.08C168.111 256.12 166.951 256.864 165.463 257.312ZM193.375 242.696H208.711V245.288H193.375V242.696ZM194.215 237.848H207.895V240.392H194.215V237.848ZM199.279 239.096H202.159V242.936C202.159 243.704 202.063 244.504 201.871 245.336C201.695 246.168 201.359 247 200.863 247.832C200.383 248.648 199.687 249.44 198.775 250.208C197.879 250.96 196.719 251.648 195.295 252.272C195.167 252.064 194.991 251.832 194.767 251.576C194.543 251.32 194.311 251.064 194.071 250.808C193.831 250.552 193.599 250.344 193.375 250.184C194.735 249.688 195.807 249.136 196.591 248.528C197.391 247.92 197.975 247.288 198.343 246.632C198.727 245.976 198.975 245.336 199.087 244.712C199.215 244.072 199.279 243.472 199.279 242.912V239.096ZM202.591 244.52C203.087 245.848 203.839 246.976 204.847 247.904C205.871 248.816 207.183 249.472 208.783 249.872C208.575 250.064 208.351 250.304 208.111 250.592C207.887 250.88 207.671 251.176 207.463 251.48C207.271 251.768 207.103 252.04 206.959 252.296C205.199 251.72 203.775 250.816 202.687 249.584C201.599 248.352 200.759 246.84 200.167 245.048L202.591 244.52ZM192.415 242.96V251.816H189.607V245.624H186.823V242.96H192.415ZM192.415 250.568C192.911 251.352 193.607 251.928 194.503 252.296C195.399 252.664 196.471 252.872 197.719 252.92C198.423 252.952 199.255 252.976 200.215 252.992C201.191 252.992 202.215 252.984 203.287 252.968C204.359 252.952 205.407 252.92 206.431 252.872C207.471 252.824 208.391 252.768 209.191 252.704C209.095 252.928 208.983 253.216 208.855 253.568C208.727 253.92 208.607 254.28 208.495 254.648C208.399 255.016 208.327 255.344 208.279 255.632C207.559 255.68 206.735 255.712 205.807 255.728C204.879 255.76 203.927 255.776 202.951 255.776C201.975 255.792 201.031 255.792 200.119 255.776C199.207 255.76 198.391 255.736 197.671 255.704C196.199 255.64 194.943 255.408 193.903 255.008C192.863 254.624 191.943 253.968 191.143 253.04C190.615 253.488 190.071 253.952 189.511 254.432C188.967 254.912 188.367 255.408 187.711 255.92L186.295 252.92C186.855 252.584 187.439 252.216 188.047 251.816C188.655 251.416 189.239 251 189.799 250.568H192.415ZM186.847 235.904L188.983 234.176C189.479 234.496 189.983 234.872 190.495 235.304C191.007 235.72 191.487 236.152 191.935 236.6C192.383 237.032 192.743 237.432 193.015 237.8L190.735 239.72C190.495 239.336 190.159 238.92 189.727 238.472C189.311 238.024 188.847 237.576 188.335 237.128C187.823 236.664 187.327 236.256 186.847 235.904ZM204.247 233.6L207.175 234.512C206.743 235.2 206.295 235.88 205.831 236.552C205.383 237.208 204.967 237.768 204.583 238.232L202.231 237.416C202.471 237.048 202.719 236.648 202.975 236.216C203.231 235.768 203.471 235.32 203.695 234.872C203.919 234.408 204.103 233.984 204.247 233.6ZM194.839 234.656L197.263 233.648C197.711 234.192 198.135 234.808 198.535 235.496C198.935 236.184 199.215 236.792 199.375 237.32L196.783 238.424C196.655 237.912 196.399 237.304 196.015 236.6C195.647 235.88 195.255 235.232 194.839 234.656ZM216.439 240.416H228.895V243.032H216.439V240.416ZM211.975 244.76H233.479V247.448H211.975V244.76ZM217.783 246.92H220.903C220.791 248.024 220.607 249.056 220.351 250.016C220.095 250.96 219.687 251.824 219.127 252.608C218.583 253.376 217.815 254.064 216.823 254.672C215.831 255.28 214.551 255.792 212.983 256.208C212.887 255.952 212.743 255.664 212.551 255.344C212.375 255.024 212.175 254.704 211.951 254.384C211.727 254.08 211.511 253.832 211.303 253.64C212.679 253.336 213.775 252.968 214.591 252.536C215.423 252.104 216.047 251.616 216.463 251.072C216.895 250.512 217.199 249.888 217.375 249.2C217.567 248.496 217.703 247.736 217.783 246.92ZM223.975 246.44H226.879V252.296C226.879 252.68 226.935 252.928 227.047 253.04C227.175 253.136 227.455 253.184 227.887 253.184C227.983 253.184 228.135 253.184 228.343 253.184C228.551 253.184 228.783 253.184 229.039 253.184C229.295 253.184 229.535 253.184 229.759 253.184C229.983 253.184 230.159 253.184 230.287 253.184C230.543 253.184 230.735 253.12 230.863 252.992C231.007 252.864 231.103 252.592 231.151 252.176C231.215 251.744 231.263 251.112 231.295 250.28C231.503 250.424 231.759 250.568 232.063 250.712C232.367 250.856 232.679 250.984 232.999 251.096C233.335 251.208 233.631 251.304 233.887 251.384C233.791 252.536 233.623 253.432 233.383 254.072C233.143 254.728 232.799 255.176 232.351 255.416C231.919 255.672 231.319 255.8 230.551 255.8C230.407 255.8 230.191 255.8 229.903 255.8C229.631 255.8 229.327 255.8 228.991 255.8C228.671 255.8 228.367 255.8 228.079 255.8C227.807 255.8 227.599 255.8 227.455 255.8C226.527 255.8 225.807 255.696 225.295 255.488C224.799 255.28 224.455 254.92 224.263 254.408C224.071 253.896 223.975 253.208 223.975 252.344V246.44ZM221.119 233.624H224.191V237.992H221.119V233.624ZM212.407 235.928H233.023V241.64H229.951V238.664H215.335V241.64H212.407V235.928ZM240.415 246.272H256.687V248.744H240.415V246.272ZM237.151 237.512H253.063V240.104H237.151V237.512ZM244.255 241.928H255.127V244.4H244.255V241.928ZM255.583 246.272H258.439C258.439 246.272 258.431 246.344 258.415 246.488C258.415 246.616 258.407 246.768 258.391 246.944C258.391 247.12 258.383 247.264 258.367 247.376C258.239 249.008 258.095 250.352 257.935 251.408C257.791 252.448 257.623 253.272 257.431 253.88C257.239 254.472 257.015 254.904 256.759 255.176C256.487 255.48 256.191 255.696 255.871 255.824C255.567 255.952 255.215 256.04 254.815 256.088C254.495 256.136 254.055 256.16 253.495 256.16C252.951 256.176 252.375 256.168 251.767 256.136C251.751 255.752 251.663 255.312 251.503 254.816C251.359 254.32 251.175 253.888 250.951 253.52C251.479 253.568 251.975 253.6 252.439 253.616C252.903 253.632 253.255 253.632 253.495 253.616C253.687 253.616 253.847 253.6 253.975 253.568C254.119 253.536 254.255 253.464 254.383 253.352C254.543 253.192 254.687 252.872 254.815 252.392C254.959 251.896 255.095 251.184 255.223 250.256C255.351 249.328 255.471 248.136 255.583 246.68V246.272ZM250.471 249.584L252.439 248.912C252.775 249.408 253.087 249.952 253.375 250.544C253.663 251.136 253.871 251.648 253.999 252.08L251.887 252.872C251.791 252.44 251.607 251.912 251.335 251.288C251.063 250.664 250.775 250.096 250.471 249.584ZM239.839 234.608L242.431 233.6C242.863 234.064 243.303 234.592 243.751 235.184C244.199 235.776 244.543 236.296 244.783 236.744L242.023 237.872C241.847 237.44 241.543 236.92 241.111 236.312C240.695 235.688 240.271 235.12 239.839 234.608ZM243.223 250.232L245.551 249.968C245.775 250.736 245.943 251.584 246.055 252.512C246.167 253.424 246.223 254.216 246.223 254.888L243.751 255.2C243.783 254.768 243.775 254.264 243.727 253.688C243.695 253.112 243.631 252.528 243.535 251.936C243.455 251.328 243.351 250.76 243.223 250.232ZM246.847 250.04L249.055 249.536C249.343 250.224 249.607 250.96 249.847 251.744C250.087 252.528 250.247 253.216 250.327 253.808L247.999 254.384C247.935 253.792 247.791 253.088 247.567 252.272C247.343 251.456 247.103 250.712 246.847 250.04ZM240.007 249.44L242.431 250.232C242.271 250.936 242.071 251.64 241.831 252.344C241.607 253.032 241.327 253.696 240.991 254.336C240.655 254.976 240.255 255.552 239.791 256.064L237.559 254.48C237.975 254.064 238.335 253.584 238.639 253.04C238.959 252.496 239.231 251.92 239.455 251.312C239.695 250.688 239.879 250.064 240.007 249.44ZM247.255 233.576L250.207 234.296C249.663 236.008 249.015 237.688 248.263 239.336C247.527 240.968 246.647 242.528 245.623 244.016C244.615 245.488 243.447 246.848 242.119 248.096C240.791 249.328 239.279 250.392 237.583 251.288C237.471 251.064 237.319 250.8 237.127 250.496C236.951 250.176 236.767 249.864 236.575 249.56C236.383 249.256 236.199 249 236.023 248.792C237.559 248.024 238.927 247.088 240.127 245.984C241.343 244.88 242.407 243.656 243.319 242.312C244.247 240.968 245.031 239.56 245.671 238.088C246.327 236.6 246.855 235.096 247.255 233.576ZM252.487 237.512H255.151C254.975 238.408 254.775 239.344 254.551 240.32C254.343 241.296 254.143 242.136 253.951 242.84L251.431 242.432C251.623 241.776 251.815 241 252.007 240.104C252.199 239.192 252.359 238.328 252.487 237.512ZM254.047 241.928H256.711C256.551 242.808 256.367 243.728 256.159 244.688C255.951 245.648 255.743 246.472 255.535 247.16L253.015 246.824C253.207 246.152 253.399 245.368 253.591 244.472C253.783 243.576 253.935 242.728 254.047 241.928ZM273.511 241.136H282.343V244.04H273.511V241.136ZM261.631 252.056H283.663V254.936H261.631V252.056ZM272.095 233.624H275.167V253.592H272.095V233.624ZM264.703 238.568H267.703V253.448H264.703V238.568Z" fill="white"/>
<path d="M63.3495 150.018H83.3015V155.702H63.3495V150.018ZM53.3735 183.658C55.1135 183.387 57.1241 183.059 59.4055 182.672C61.7255 182.285 64.1808 181.879 66.7715 181.454C69.3621 180.99 71.9335 180.526 74.4855 180.062L75.0655 186.094C71.7015 186.867 68.3181 187.621 64.9155 188.356C61.5128 189.129 58.4195 189.806 55.6355 190.386L53.3735 183.658ZM59.4055 139.404H66.1335V185.224H59.4055V139.404ZM63.3495 139.404H86.4915V166.548H63.3495V160.574H79.5895V145.378H63.3495V139.404ZM75.4135 162.546C76.1481 166.026 77.1535 169.255 78.4295 172.232C79.7055 175.171 81.3295 177.761 83.3015 180.004C85.2735 182.247 87.6901 183.987 90.5515 185.224C90.0488 185.688 89.5075 186.249 88.9275 186.906C88.3475 187.602 87.7868 188.317 87.2455 189.052C86.7428 189.825 86.3368 190.521 86.0275 191.14C82.8955 189.477 80.2661 187.312 78.1395 184.644C76.0515 181.937 74.3308 178.805 72.9775 175.248C71.6241 171.691 70.5221 167.785 69.6715 163.532L75.4135 162.546ZM83.8235 166.954L89.2755 170.724C87.6901 172.271 86.0081 173.798 84.2295 175.306C82.4895 176.775 80.8848 178.032 79.4155 179.076L75.1235 175.77C76.0515 174.997 77.0375 174.107 78.0815 173.102C79.1641 172.097 80.2081 171.053 81.2135 169.97C82.2188 168.887 83.0888 167.882 83.8235 166.954ZM38.2935 139.288H52.7355V145.552H44.7895V191.314H38.2935V139.288ZM50.8215 139.288H52.0395L53.0255 139.056L57.7815 141.782C57.2401 143.483 56.6601 145.281 56.0415 147.176C55.4228 149.071 54.8041 150.946 54.1855 152.802C53.5668 154.658 52.9481 156.34 52.3295 157.848C54.2241 160.091 55.4421 162.217 55.9835 164.228C56.5635 166.2 56.8535 168.037 56.8535 169.738C56.8535 171.671 56.6408 173.257 56.2155 174.494C55.7901 175.731 55.0941 176.698 54.1275 177.394C53.6635 177.742 53.1221 178.013 52.5035 178.206C51.9235 178.399 51.3241 178.554 50.7055 178.67C50.1641 178.747 49.5261 178.786 48.7915 178.786C48.0955 178.786 47.3801 178.786 46.6455 178.786C46.6068 177.897 46.4521 176.853 46.1815 175.654C45.9495 174.455 45.6015 173.431 45.1375 172.58C45.6788 172.619 46.1621 172.638 46.5875 172.638C47.0515 172.638 47.4575 172.638 47.8055 172.638C48.1148 172.638 48.4048 172.599 48.6755 172.522C48.9848 172.406 49.2748 172.271 49.5455 172.116C49.8935 171.845 50.1448 171.439 50.2995 170.898C50.4928 170.318 50.5701 169.622 50.5315 168.81C50.5315 167.457 50.2415 165.91 49.6615 164.17C49.1201 162.391 47.9795 160.535 46.2395 158.602C46.6648 157.287 47.0901 155.837 47.5155 154.252C47.9795 152.667 48.4048 151.081 48.7915 149.496C49.2168 147.872 49.6035 146.364 49.9515 144.972C50.3381 143.541 50.6281 142.362 50.8215 141.434V139.288ZM111.025 147.466V149.438H135.153V147.466H111.025ZM111.025 142.13V144.102H135.153V142.13H111.025ZM104.355 138.592H142.171V152.976H104.355V138.592ZM109.807 170.608V172.638H136.777V170.608H109.807ZM109.807 165.098V167.128H136.777V165.098H109.807ZM103.311 161.444H143.621V176.35H103.311V161.444ZM119.899 162.662H126.627V187.544H119.899V162.662ZM96.9895 154.716H149.827V159.704H96.9895V154.716ZM102.093 178.264H144.723V182.672H102.093V178.264ZM96.8735 184.818H149.943V189.864H96.8735V184.818ZM195.473 153.788H201.795V168.404H195.473V153.788ZM189.615 171.13H195.705V185.862C195.705 187.177 195.551 188.182 195.241 188.878C194.971 189.574 194.371 190.115 193.443 190.502C192.593 190.927 191.568 191.179 190.369 191.256C189.209 191.333 187.837 191.372 186.251 191.372C186.097 190.637 185.807 189.787 185.381 188.82C184.995 187.892 184.589 187.099 184.163 186.442C185.13 186.481 186.058 186.5 186.947 186.5C187.875 186.5 188.475 186.481 188.745 186.442C189.325 186.442 189.615 186.21 189.615 185.746V171.13ZM201.737 167.65C202.472 168.617 203.381 169.603 204.463 170.608C205.546 171.575 206.725 172.464 208.001 173.276C209.316 174.088 210.611 174.745 211.887 175.248C211.269 175.789 210.592 176.485 209.857 177.336C209.123 178.187 208.523 178.96 208.059 179.656C206.706 178.921 205.372 177.993 204.057 176.872C202.743 175.751 201.525 174.533 200.403 173.218C199.282 171.903 198.335 170.569 197.561 169.216L201.737 167.65ZM195.531 182.846L198.605 179.308C200.655 180.236 202.704 181.299 204.753 182.498C206.803 183.658 208.485 184.721 209.799 185.688L206.087 189.458C204.85 188.491 203.245 187.389 201.273 186.152C199.34 184.915 197.426 183.813 195.531 182.846ZM200.983 172.696L204.927 175.132C204.193 176.021 203.439 176.853 202.665 177.626C201.892 178.361 201.196 178.999 200.577 179.54L197.097 177.22C197.677 176.64 198.354 175.905 199.127 175.016C199.901 174.127 200.519 173.353 200.983 172.696ZM176.101 157.442H208.871V162.198H176.101V157.442ZM174.361 164.866H210.843V169.68H174.361V164.866ZM182.945 153.788H189.209V168.404H182.945V153.788ZM174.419 184.644C176.121 184.064 178.112 183.31 180.393 182.382C182.713 181.454 185.072 180.507 187.469 179.54L188.571 183.716C186.483 184.683 184.395 185.649 182.307 186.616C180.258 187.621 178.305 188.549 176.449 189.4L174.419 184.644ZM183.989 167.65L188.629 169.506C187.74 170.782 186.657 172.077 185.381 173.392C184.105 174.707 182.713 175.925 181.205 177.046C179.736 178.129 178.267 179.037 176.797 179.772C176.372 179.076 175.773 178.283 174.999 177.394C174.226 176.505 173.511 175.809 172.853 175.306C174.245 174.765 175.637 174.088 177.029 173.276C178.46 172.464 179.775 171.575 180.973 170.608C182.211 169.603 183.216 168.617 183.989 167.65ZM180.625 175.77L184.627 173.16C185.323 173.74 186.019 174.436 186.715 175.248C187.411 176.021 187.933 176.737 188.281 177.394L184.105 180.294C183.796 179.637 183.313 178.883 182.655 178.032C181.998 177.181 181.321 176.427 180.625 175.77ZM183.641 148.626V150.83H201.331V148.626H183.641ZM183.641 142.478V144.624H201.331V142.478H183.641ZM177.609 138.186H207.595V155.064H177.609V138.186ZM163.863 137.432H169.837V157.558C169.837 161.463 169.644 165.407 169.257 169.39C168.909 173.373 168.097 177.22 166.821 180.932C165.545 184.644 163.573 188.085 160.905 191.256C160.557 190.792 160.113 190.251 159.571 189.632C159.069 189.052 158.527 188.472 157.947 187.892C157.367 187.312 156.845 186.867 156.381 186.558C158.624 183.813 160.267 180.835 161.311 177.626C162.355 174.417 163.032 171.091 163.341 167.65C163.689 164.209 163.863 160.825 163.863 157.5V137.432ZM158.585 149.09L163.167 149.67C163.206 151.642 163.129 153.633 162.935 155.644C162.781 157.616 162.491 159.53 162.065 161.386C161.64 163.203 161.041 164.789 160.267 166.142L155.975 163.474C156.633 162.391 157.135 161.057 157.483 159.472C157.87 157.887 158.141 156.185 158.295 154.368C158.489 152.551 158.585 150.791 158.585 149.09ZM172.273 146.306L177.783 148.336C176.933 150.424 176.101 152.589 175.289 154.832C174.477 157.036 173.704 158.911 172.969 160.458L169.083 158.776C169.47 157.655 169.857 156.359 170.243 154.89C170.669 153.421 171.055 151.932 171.403 150.424C171.79 148.916 172.08 147.543 172.273 146.306ZM168.851 168.752C169.199 169.139 169.721 169.815 170.417 170.782C171.152 171.749 171.925 172.812 172.737 173.972C173.588 175.093 174.342 176.137 174.999 177.104C175.695 178.071 176.198 178.767 176.507 179.192L171.925 183.832C171.539 182.981 171.017 182.015 170.359 180.932C169.741 179.849 169.083 178.728 168.387 177.568C167.691 176.408 167.015 175.325 166.357 174.32C165.7 173.276 165.139 172.425 164.675 171.768L168.851 168.752ZM217.861 158.544H270.119V165.562H217.861V158.544ZM240.191 136.852H247.673V191.314H240.191V136.852ZM260.433 139.346L268.205 142.362C267.2 144.063 266.156 145.784 265.073 147.524C263.991 149.225 262.908 150.849 261.825 152.396C260.743 153.943 259.718 155.315 258.751 156.514L252.661 153.788C253.589 152.512 254.537 151.043 255.503 149.38C256.47 147.679 257.379 145.958 258.229 144.218C259.119 142.478 259.853 140.854 260.433 139.346ZM220.587 142.362L226.909 139.636C227.992 140.951 229.036 142.401 230.041 143.986C231.085 145.571 232.013 147.137 232.825 148.684C233.676 150.231 234.295 151.642 234.681 152.918L227.779 155.992C227.431 154.755 226.89 153.363 226.155 151.816C225.421 150.231 224.551 148.626 223.545 147.002C222.579 145.339 221.593 143.793 220.587 142.362ZM237.465 162.198L243.555 164.518C242.279 166.993 240.81 169.429 239.147 171.826C237.485 174.185 235.687 176.447 233.753 178.612C231.859 180.777 229.867 182.769 227.779 184.586C225.73 186.403 223.642 188.008 221.515 189.4C221.129 188.82 220.626 188.163 220.007 187.428C219.389 186.693 218.751 185.978 218.093 185.282C217.475 184.586 216.895 184.006 216.353 183.542C218.403 182.382 220.433 181.009 222.443 179.424C224.493 177.839 226.445 176.118 228.301 174.262C230.196 172.367 231.917 170.395 233.463 168.346C235.049 166.297 236.383 164.247 237.465 162.198ZM250.109 161.734C251.231 163.783 252.584 165.833 254.169 167.882C255.793 169.893 257.572 171.845 259.505 173.74C261.439 175.635 263.449 177.394 265.537 179.018C267.625 180.603 269.694 181.957 271.743 183.078C271.163 183.542 270.545 184.141 269.887 184.876C269.23 185.572 268.592 186.287 267.973 187.022C267.355 187.795 266.833 188.511 266.407 189.168C264.319 187.737 262.231 186.094 260.143 184.238C258.055 182.382 256.025 180.371 254.053 178.206C252.12 176.041 250.303 173.779 248.601 171.42C246.939 169.023 245.431 166.606 244.077 164.17L250.109 161.734ZM291.347 153.15L298.249 155.296C296.935 158.003 295.388 160.632 293.609 163.184C291.831 165.736 289.936 168.114 287.925 170.318C285.953 172.522 283.962 174.436 281.951 176.06C281.526 175.596 280.965 175.055 280.269 174.436C279.573 173.817 278.858 173.218 278.123 172.638C277.389 172.019 276.751 171.517 276.209 171.13C278.22 169.738 280.173 168.095 282.067 166.2C283.962 164.305 285.702 162.237 287.287 159.994C288.873 157.751 290.226 155.47 291.347 153.15ZM304.687 154.194H311.531V181.048C311.531 182.324 311.705 183.136 312.053 183.484C312.401 183.832 313.213 184.006 314.489 184.006C314.799 184.006 315.301 184.006 315.997 184.006C316.693 184.006 317.447 184.006 318.259 184.006C319.071 184.006 319.825 184.006 320.521 184.006C321.256 184.006 321.778 184.006 322.087 184.006C322.899 184.006 323.518 183.793 323.943 183.368C324.369 182.904 324.659 182.073 324.813 180.874C325.007 179.637 325.161 177.819 325.277 175.422C325.819 175.809 326.457 176.195 327.191 176.582C327.926 176.93 328.68 177.239 329.453 177.51C330.265 177.781 330.981 178.013 331.599 178.206C331.329 181.299 330.884 183.755 330.265 185.572C329.685 187.351 328.796 188.607 327.597 189.342C326.399 190.077 324.775 190.444 322.725 190.444C322.416 190.444 321.952 190.444 321.333 190.444C320.715 190.444 320.019 190.444 319.245 190.444C318.511 190.444 317.757 190.444 316.983 190.444C316.249 190.444 315.572 190.444 314.953 190.444C314.373 190.444 313.929 190.444 313.619 190.444C311.261 190.444 309.424 190.173 308.109 189.632C306.833 189.091 305.944 188.124 305.441 186.732C304.939 185.379 304.687 183.484 304.687 181.048V154.194ZM324.233 158.196L329.511 163.474C327.578 164.673 325.49 165.833 323.247 166.954C321.005 168.037 318.723 169.081 316.403 170.086C314.083 171.053 311.821 171.961 309.617 172.812C309.385 172.077 309.037 171.207 308.573 170.202C308.109 169.197 307.645 168.346 307.181 167.65C309.269 166.799 311.338 165.852 313.387 164.808C315.475 163.725 317.447 162.623 319.303 161.502C321.198 160.342 322.841 159.24 324.233 158.196ZM278.471 141.724H330.091V148.394H278.471V141.724ZM291.347 136.794H298.249V153.788H291.347V136.794ZM310.545 136.794H317.447V153.904H310.545V136.794ZM287.055 165.33L293.957 158.486V158.544V191.314H287.055V165.33Z" fill="white"/>
<circle cx="79" cy="62" r="56" fill="#FF9C1E"/>
<path d="M79.0989 28.2784C83.0762 28.2784 86.8759 28.9294 90.498 30.2315C94.1202 31.5099 97.3517 33.5578 100.193 36.375C103.034 39.1686 105.271 42.8499 106.904 47.419C108.538 51.9882 109.355 57.5634 109.355 64.1449C109.378 70.2055 108.668 75.6387 107.224 80.4446C105.78 85.2268 103.708 89.2988 101.009 92.6605C98.3342 96.0223 95.1145 98.5909 91.3503 100.366C87.5861 102.118 83.3839 102.994 78.7438 102.994C73.6301 102.994 69.1202 102.012 65.214 100.047C61.3314 98.0582 58.2182 95.383 55.8745 92.0213C53.5544 88.6596 52.1694 84.8954 51.7196 80.7287H69.0137C69.5582 83.1435 70.7064 84.9664 72.4583 86.1974C74.2102 87.4048 76.3053 88.0085 78.7438 88.0085C83.1945 88.0085 86.5208 86.0791 88.7225 82.2202C90.9242 78.3613 92.025 73.1174 92.025 66.4886H91.5989C90.5809 68.6667 89.1368 70.5369 87.2665 72.0994C85.4199 73.6619 83.2774 74.8575 80.839 75.6861C78.4005 76.5147 75.8319 76.929 73.133 76.929C68.7769 76.929 64.9299 75.9347 61.5918 73.946C58.2774 71.9574 55.6732 69.223 53.7793 65.7429C51.909 62.2628 50.9621 58.2855 50.9384 53.8111C50.9147 48.7921 52.0866 44.3651 54.454 40.5298C56.8214 36.6709 60.124 33.6643 64.3617 31.5099C68.5994 29.3319 73.5118 28.2547 79.0989 28.2784ZM79.2054 41.7727C77.0274 41.7727 75.0861 42.2817 73.3816 43.2997C71.7007 44.3177 70.3749 45.6908 69.4043 47.419C68.4337 49.1473 67.9602 51.0885 67.9838 53.2429C68.0075 55.3973 68.4928 57.3385 69.4398 59.0668C70.4105 60.795 71.7244 62.1681 73.3816 63.1861C75.0624 64.2041 76.9801 64.7131 79.1344 64.7131C80.7443 64.7131 82.2357 64.4171 83.6088 63.8253C84.9819 63.2334 86.1775 62.4167 87.1955 61.375C88.2135 60.3097 89.0066 59.0786 89.5748 57.6818C90.1666 56.285 90.4507 54.7936 90.427 53.2074C90.4034 51.1004 89.9062 49.1828 88.9355 47.4545C87.9649 45.7263 86.6273 44.3532 84.9228 43.3352C83.2419 42.2936 81.3361 41.7727 79.2054 41.7727Z" fill="white"/>
<ellipse cx="469.908" cy="164.176" rx="11.9939" ry="10.8627" transform="rotate(162.691 469.908 164.176)" fill="#FFB961"/>
<ellipse cx="452.225" cy="162.607" rx="11.9939" ry="10.8627" transform="rotate(162.691 452.225 162.607)" fill="#FFB961"/>
<ellipse cx="464.665" cy="147.352" rx="11.9939" ry="10.8627" transform="rotate(162.691 464.665 147.352)" fill="#FFB961"/>
<ellipse cx="451.806" cy="152.593" rx="9.83885" ry="10.8627" transform="rotate(162.691 451.806 152.593)" fill="#FFB961"/>
<ellipse cx="496.042" cy="111.456" rx="12.5236" ry="13.7175" transform="rotate(6.44677 496.042 111.456)" fill="#FFB961"/>
<ellipse cx="512.116" cy="121.863" rx="12.5236" ry="13.7175" transform="rotate(6.44677 512.116 121.863)" fill="#FFB961"/>
<ellipse cx="481.943" cy="123.668" rx="12.5236" ry="13.7175" transform="rotate(6.44677 481.943 123.668)" fill="#FFB961"/>
<ellipse cx="493.544" cy="133.568" rx="12.5236" ry="13.7175" transform="rotate(6.44677 493.544 133.568)" fill="#FFB961"/>
<ellipse cx="508.066" cy="133.713" rx="10.2734" ry="13.7175" transform="rotate(6.44677 508.066 133.713)" fill="#FFB961"/>
<ellipse cx="437.397" cy="102.931" rx="11.9939" ry="10.8627" transform="rotate(-2.17006 437.397 102.931)" fill="#FFB961"/>
<ellipse cx="454.057" cy="109.064" rx="11.9939" ry="10.8627" transform="rotate(-2.17006 454.057 109.064)" fill="#FFB961"/>
<ellipse cx="438.064" cy="120.54" rx="11.9939" ry="10.8627" transform="rotate(-2.17006 438.064 120.54)" fill="#FFB961"/>
<ellipse cx="451.845" cy="118.84" rx="9.83885" ry="10.8627" transform="rotate(-2.17006 451.845 118.84)" fill="#FFB961"/>
<path d="M409.5 254L396 163H507L491.89 254H409.5Z" fill="#FF9C1E"/>
<ellipse cx="404.675" cy="134.452" rx="12.2813" ry="13.4521" fill="#FFB961"/>
<ellipse cx="421.485" cy="142.823" rx="12.2813" ry="13.4521" fill="#FFB961"/>
<ellipse cx="392.281" cy="147.904" rx="12.2813" ry="13.4521" fill="#FFB961"/>
<ellipse cx="404.675" cy="156.275" rx="12.2813" ry="13.4521" fill="#FFB961"/>
<ellipse cx="418.843" cy="154.817" rx="10.0746" ry="13.4521" fill="#FFB961"/>
<ellipse cx="452.181" cy="222" rx="19.322" ry="20" fill="white"/>
<path d="M450.062 224.4C449.975 223.707 450.027 223.1 450.218 222.58C450.426 222.06 450.712 221.592 451.076 221.176C451.457 220.76 451.873 220.379 452.324 220.032C452.792 219.685 453.225 219.347 453.624 219.018C454.04 218.689 454.378 218.351 454.638 218.004C454.898 217.657 455.028 217.276 455.028 216.86C455.028 216.34 454.898 215.898 454.638 215.534C454.378 215.17 453.996 214.893 453.494 214.702C453.008 214.511 452.419 214.416 451.726 214.416C450.928 214.416 450.2 214.589 449.542 214.936C448.883 215.283 448.233 215.794 447.592 216.47L445.46 214.494C446.292 213.541 447.271 212.778 448.398 212.206C449.542 211.617 450.798 211.322 452.168 211.322C453.433 211.322 454.551 211.513 455.522 211.894C456.51 212.275 457.281 212.856 457.836 213.636C458.408 214.399 458.694 215.361 458.694 216.522C458.694 217.163 458.555 217.727 458.278 218.212C458.018 218.68 457.671 219.105 457.238 219.486C456.822 219.85 456.38 220.205 455.912 220.552C455.444 220.881 455.01 221.228 454.612 221.592C454.213 221.956 453.901 222.363 453.676 222.814C453.45 223.265 453.364 223.793 453.416 224.4H450.062ZM451.752 231.316C451.093 231.316 450.547 231.099 450.114 230.666C449.68 230.233 449.464 229.687 449.464 229.028C449.464 228.352 449.68 227.797 450.114 227.364C450.547 226.931 451.093 226.714 451.752 226.714C452.41 226.714 452.956 226.931 453.39 227.364C453.823 227.797 454.04 228.352 454.04 229.028C454.04 229.687 453.823 230.233 453.39 230.666C452.956 231.099 452.41 231.316 451.752 231.316Z" fill="#FF5F17"/>
<path d="M421.22 184.28H423.68V188.7C423.68 189.02 423.727 189.227 423.82 189.32C423.927 189.4 424.167 189.44 424.54 189.44C424.607 189.44 424.733 189.44 424.92 189.44C425.107 189.44 425.307 189.44 425.52 189.44C425.747 189.44 425.96 189.44 426.16 189.44C426.36 189.44 426.507 189.44 426.6 189.44C426.827 189.44 426.993 189.38 427.1 189.26C427.22 189.14 427.307 188.9 427.36 188.54C427.413 188.167 427.453 187.613 427.48 186.88C427.653 187 427.867 187.127 428.12 187.26C428.387 187.38 428.66 187.487 428.94 187.58C429.22 187.673 429.467 187.747 429.68 187.8C429.6 188.813 429.46 189.6 429.26 190.16C429.06 190.72 428.767 191.107 428.38 191.32C428.007 191.533 427.493 191.64 426.84 191.64C426.733 191.64 426.587 191.64 426.4 191.64C426.227 191.64 426.033 191.64 425.82 191.64C425.607 191.64 425.387 191.64 425.16 191.64C424.947 191.64 424.753 191.64 424.58 191.64C424.407 191.64 424.273 191.64 424.18 191.64C423.393 191.64 422.78 191.547 422.34 191.36C421.913 191.187 421.62 190.887 421.46 190.46C421.3 190.033 421.22 189.453 421.22 188.72V184.28ZM416.6 185.06H419.14C419.02 185.887 418.833 186.647 418.58 187.34C418.34 188.033 417.967 188.667 417.46 189.24C416.953 189.8 416.267 190.293 415.4 190.72C414.533 191.147 413.427 191.52 412.08 191.84C412.013 191.627 411.907 191.387 411.76 191.12C411.613 190.867 411.453 190.613 411.28 190.36C411.107 190.12 410.94 189.913 410.78 189.74C411.953 189.54 412.9 189.293 413.62 189C414.34 188.693 414.9 188.347 415.3 187.96C415.7 187.573 415.993 187.14 416.18 186.66C416.367 186.167 416.507 185.633 416.6 185.06ZM416.28 180.52V183.2H424.34V180.52H416.28ZM413.94 178.36H426.8V185.34H413.94V178.36ZM418.38 173.48H423.78V175.66H418.38V173.48ZM415.6 174.3L418 175.08C417.6 175.84 417.113 176.58 416.54 177.3C415.967 178.007 415.353 178.667 414.7 179.28C414.047 179.88 413.387 180.4 412.72 180.84C412.6 180.68 412.427 180.48 412.2 180.24C411.973 180 411.74 179.767 411.5 179.54C411.26 179.3 411.047 179.113 410.86 178.98C411.82 178.46 412.72 177.787 413.56 176.96C414.413 176.12 415.093 175.233 415.6 174.3ZM421.9 173.48H424.46C424.82 174.187 425.28 174.88 425.84 175.56C426.4 176.227 427.027 176.847 427.72 177.42C428.413 177.993 429.133 178.467 429.88 178.84C429.693 178.987 429.48 179.173 429.24 179.4C429 179.627 428.767 179.86 428.54 180.1C428.327 180.327 428.147 180.54 428 180.74C427.24 180.247 426.507 179.673 425.8 179.02C425.107 178.367 424.473 177.667 423.9 176.92C423.327 176.173 422.833 175.433 422.42 174.7H421.9V173.48ZM441.06 172.96L443.28 173.32C442.84 174.387 442.28 175.42 441.6 176.42C440.933 177.42 440.053 178.333 438.96 179.16C438.787 178.893 438.54 178.62 438.22 178.34C437.913 178.047 437.633 177.827 437.38 177.68C438.033 177.24 438.593 176.76 439.06 176.24C439.54 175.72 439.947 175.18 440.28 174.62C440.613 174.047 440.873 173.493 441.06 172.96ZM441.62 174.44H445.54V176.28H440.5L441.62 174.44ZM441.92 179.08H443.62C443.58 179.72 443.493 180.3 443.36 180.82C443.227 181.34 443 181.8 442.68 182.2C442.36 182.587 441.9 182.92 441.3 183.2C441.207 183 441.06 182.773 440.86 182.52C440.66 182.267 440.473 182.067 440.3 181.92C440.94 181.64 441.36 181.267 441.56 180.8C441.773 180.333 441.893 179.76 441.92 179.08ZM444.38 179.16H446.12V180.78C446.12 180.967 446.133 181.08 446.16 181.12C446.2 181.16 446.293 181.18 446.44 181.18C446.493 181.18 446.567 181.18 446.66 181.18C446.767 181.18 446.873 181.18 446.98 181.18C447.1 181.18 447.18 181.18 447.22 181.18C447.34 181.18 447.42 181.167 447.46 181.14C447.513 181.1 447.553 181.04 447.58 180.96C447.74 181.067 447.967 181.173 448.26 181.28C448.553 181.387 448.82 181.467 449.06 181.52C448.967 181.96 448.793 182.267 448.54 182.44C448.287 182.6 447.933 182.68 447.48 182.68C447.413 182.68 447.32 182.68 447.2 182.68C447.08 182.68 446.953 182.68 446.82 182.68C446.687 182.68 446.56 182.68 446.44 182.68C446.333 182.68 446.247 182.68 446.18 182.68C445.687 182.68 445.307 182.627 445.04 182.52C444.787 182.4 444.613 182.207 444.52 181.94C444.427 181.66 444.38 181.273 444.38 180.78V179.16ZM437.8 184.98H450.24V186.96H437.8V184.98ZM445.22 185.64C445.58 186.787 446.18 187.707 447.02 188.4C447.86 189.08 449.04 189.527 450.56 189.74C450.32 189.967 450.067 190.28 449.8 190.68C449.547 191.08 449.353 191.433 449.22 191.74C448.033 191.487 447.047 191.107 446.26 190.6C445.473 190.093 444.833 189.453 444.34 188.68C443.847 187.893 443.453 186.96 443.16 185.88L445.22 185.64ZM440.66 177.72H448.06V179.6H440.66V184.36H438.68V177.72H438.7H440.66ZM447.54 177.72H449.58V184.34H447.54V177.72ZM444.74 174.44H445.24L445.58 174.34L447.1 175.3C446.9 175.7 446.667 176.133 446.4 176.6C446.147 177.053 445.88 177.493 445.6 177.92C445.32 178.333 445.053 178.707 444.8 179.04C444.6 178.893 444.34 178.72 444.02 178.52C443.7 178.32 443.42 178.16 443.18 178.04C443.38 177.747 443.58 177.407 443.78 177.02C443.993 176.633 444.18 176.247 444.34 175.86C444.513 175.46 444.647 175.12 444.74 174.84V174.44ZM442.88 183.36H445.06C444.993 184.48 444.86 185.493 444.66 186.4C444.46 187.307 444.12 188.107 443.64 188.8C443.16 189.493 442.473 190.087 441.58 190.58C440.687 191.087 439.513 191.507 438.06 191.84C437.967 191.56 437.8 191.233 437.56 190.86C437.333 190.5 437.113 190.207 436.9 189.98C438.193 189.74 439.227 189.433 440 189.06C440.773 188.673 441.353 188.213 441.74 187.68C442.14 187.147 442.413 186.527 442.56 185.82C442.72 185.1 442.827 184.28 442.88 183.36ZM431.52 183.06C432.32 182.887 433.273 182.653 434.38 182.36C435.5 182.067 436.627 181.76 437.76 181.44L438.06 183.6C437.033 183.907 435.993 184.213 434.94 184.52C433.9 184.827 432.933 185.107 432.04 185.36L431.52 183.06ZM431.84 176.8H437.96V179H431.84V176.8ZM433.94 173.02H436.14V189.26C436.14 189.807 436.08 190.24 435.96 190.56C435.853 190.893 435.647 191.153 435.34 191.34C435.047 191.527 434.673 191.653 434.22 191.72C433.78 191.787 433.227 191.813 432.56 191.8C432.533 191.507 432.46 191.14 432.34 190.7C432.22 190.273 432.087 189.9 431.94 189.58C432.313 189.593 432.653 189.607 432.96 189.62C433.28 189.62 433.5 189.613 433.62 189.6C433.74 189.6 433.82 189.58 433.86 189.54C433.913 189.487 433.94 189.393 433.94 189.26V173.02ZM463.32 180.52V182.64H467.64V180.52H463.32ZM461.12 178.48H469.98V184.7H461.12V178.48ZM465.76 184.1H468.02V188.9C468.02 189.18 468.04 189.36 468.08 189.44C468.12 189.507 468.213 189.54 468.36 189.54C468.4 189.54 468.467 189.54 468.56 189.54C468.667 189.54 468.767 189.54 468.86 189.54C468.967 189.54 469.047 189.54 469.1 189.54C469.207 189.54 469.287 189.48 469.34 189.36C469.407 189.24 469.453 189.007 469.48 188.66C469.52 188.3 469.547 187.753 469.56 187.02C469.707 187.14 469.893 187.26 470.12 187.38C470.36 187.5 470.607 187.607 470.86 187.7C471.127 187.793 471.36 187.867 471.56 187.92C471.507 188.907 471.393 189.667 471.22 190.2C471.06 190.747 470.827 191.12 470.52 191.32C470.227 191.533 469.833 191.64 469.34 191.64C469.26 191.64 469.153 191.64 469.02 191.64C468.9 191.64 468.773 191.64 468.64 191.64C468.52 191.64 468.4 191.64 468.28 191.64C468.16 191.64 468.053 191.64 467.96 191.64C467.36 191.64 466.9 191.553 466.58 191.38C466.26 191.207 466.04 190.92 465.92 190.52C465.813 190.133 465.76 189.6 465.76 188.92V184.1ZM462.4 184.4H464.76C464.707 185.267 464.6 186.073 464.44 186.82C464.293 187.553 464.06 188.233 463.74 188.86C463.42 189.487 462.973 190.047 462.4 190.54C461.84 191.033 461.107 191.467 460.2 191.84C460.12 191.64 460 191.42 459.84 191.18C459.68 190.953 459.513 190.727 459.34 190.5C459.167 190.273 458.993 190.087 458.82 189.94C459.58 189.673 460.187 189.36 460.64 189C461.093 188.627 461.44 188.213 461.68 187.76C461.92 187.293 462.087 186.787 462.18 186.24C462.287 185.68 462.36 185.067 462.4 184.4ZM462.98 173.56H467.82V175.72H462.98V173.56ZM461.58 175.34L463.92 175.94C463.587 176.753 463.18 177.587 462.7 178.44C462.233 179.28 461.713 179.987 461.14 180.56C460.9 180.347 460.6 180.12 460.24 179.88C459.88 179.627 459.567 179.427 459.3 179.28C459.807 178.773 460.26 178.153 460.66 177.42C461.073 176.673 461.38 175.98 461.58 175.34ZM466 173.56H468.48C468.68 174.2 468.94 174.84 469.26 175.48C469.58 176.107 469.94 176.7 470.34 177.26C470.74 177.82 471.153 178.293 471.58 178.68C471.38 178.8 471.147 178.947 470.88 179.12C470.627 179.293 470.38 179.48 470.14 179.68C469.9 179.867 469.7 180.04 469.54 180.2C468.887 179.48 468.293 178.627 467.76 177.64C467.227 176.653 466.787 175.66 466.44 174.66H466V173.56ZM453.44 179.14H459.48V180.96H453.44V179.14ZM453.52 173.64H459.44V175.44H453.52V173.64ZM453.44 181.88H459.48V183.68H453.44V181.88ZM452.5 176.32H460.14V178.22H452.5V176.32ZM454.48 184.64H459.52V190.74H454.48V188.84H457.46V186.54H454.48V184.64ZM453.4 184.64H455.42V191.52H453.4V184.64ZM475.34 174.1H481.1V186.38H475.34V184.2H478.88V176.28H475.34V174.1ZM475.38 179.1H479.74V181.24H475.38V179.1ZM483.92 173.82H490.04V176.04H483.92V173.82ZM483.92 178.58H490.04V180.74H483.92V178.58ZM483.88 183.32H490.02V185.48H483.88V183.32ZM474.08 174.1H476.3V188.12H474.08V174.1ZM489.16 173.82H491.54V189.04C491.54 189.667 491.46 190.153 491.3 190.5C491.153 190.86 490.88 191.14 490.48 191.34C490.08 191.527 489.587 191.647 489 191.7C488.413 191.753 487.7 191.78 486.86 191.78C486.82 191.553 486.753 191.293 486.66 191C486.58 190.72 486.48 190.44 486.36 190.16C486.253 189.893 486.14 189.66 486.02 189.46C486.38 189.473 486.74 189.487 487.1 189.5C487.46 189.5 487.78 189.5 488.06 189.5C488.353 189.487 488.553 189.48 488.66 189.48C488.847 189.48 488.973 189.447 489.04 189.38C489.12 189.313 489.16 189.193 489.16 189.02V173.82ZM482.48 173.82H484.84V181.08C484.84 181.933 484.787 182.853 484.68 183.84C484.573 184.827 484.373 185.813 484.08 186.8C483.8 187.773 483.38 188.707 482.82 189.6C482.26 190.48 481.52 191.26 480.6 191.94C480.48 191.78 480.307 191.593 480.08 191.38C479.867 191.18 479.64 190.98 479.4 190.78C479.173 190.58 478.967 190.433 478.78 190.34C479.633 189.713 480.307 189.027 480.8 188.28C481.293 187.52 481.66 186.733 481.9 185.92C482.14 185.093 482.293 184.267 482.36 183.44C482.44 182.613 482.48 181.82 482.48 181.06V173.82Z" fill="white"/>
</svg>
