<svg width="570" height="316" viewBox="0 0 570 316" fill="none" xmlns="http://www.w3.org/2000/svg">
<path d="M-0.0065918 32.7495H539.993C556.562 32.7495 569.993 46.1809 569.993 62.7495V315.121H29.9934C13.4249 315.121 -0.0065918 301.69 -0.0065918 285.121V32.7495Z" fill="#39BF63"/>
<line x1="347.79" y1="221.621" x2="38.6375" y2="221.621" stroke="white"/>
<path d="M154.049 105.785H166.401V107.865H154.049V105.785ZM155.809 102.969H167.105V104.761H155.809V102.969ZM155.809 100.217H166.977V101.977H155.809V100.217ZM159.745 98.3933H162.625V107.001H159.745V98.3933ZM165.953 105.785H168.897C168.897 105.785 168.897 105.913 168.897 106.169C168.897 106.404 168.887 106.617 168.865 106.809C168.801 108.153 168.727 109.263 168.641 110.137C168.577 111.012 168.481 111.684 168.353 112.153C168.247 112.644 168.087 113.017 167.873 113.273C167.66 113.529 167.404 113.721 167.105 113.849C166.807 113.977 166.487 114.063 166.145 114.105C165.825 114.127 165.42 114.137 164.929 114.137C164.46 114.159 163.959 114.159 163.425 114.137C163.404 113.775 163.329 113.369 163.201 112.921C163.073 112.495 162.924 112.132 162.753 111.833C163.159 111.876 163.521 111.908 163.841 111.929C164.183 111.951 164.439 111.951 164.609 111.929C164.929 111.951 165.175 111.865 165.345 111.673C165.495 111.481 165.612 110.991 165.697 110.201C165.804 109.391 165.889 108.047 165.953 106.169V105.785ZM153.441 108.409L155.681 108.985C155.532 109.945 155.308 110.873 155.009 111.769C154.711 112.644 154.241 113.369 153.601 113.945L151.585 112.601C152.097 112.132 152.503 111.513 152.801 110.745C153.121 109.977 153.335 109.199 153.441 108.409ZM162.273 108.665L163.809 108.185C164.108 108.591 164.364 109.049 164.577 109.561C164.791 110.073 164.951 110.521 165.057 110.905L163.425 111.513C163.34 111.108 163.191 110.639 162.977 110.105C162.785 109.572 162.551 109.092 162.273 108.665ZM156.481 109.177L158.369 108.921C158.497 109.583 158.583 110.319 158.625 111.129C158.689 111.94 158.711 112.612 158.689 113.145L156.641 113.465C156.705 112.889 156.716 112.207 156.673 111.417C156.652 110.607 156.588 109.86 156.481 109.177ZM159.489 109.017L161.249 108.601C161.463 109.177 161.644 109.817 161.793 110.521C161.943 111.204 162.039 111.791 162.081 112.281L160.225 112.793C160.204 112.281 160.129 111.673 160.001 110.969C159.873 110.265 159.703 109.615 159.489 109.017ZM154.049 97.1453H167.905V99.2573H157.057V106.937H154.049V97.1453ZM149.409 89.7213H157.473V91.8973H149.409V89.7213ZM164.033 89.7213H172.161V91.8973H164.033V89.7213ZM171.009 85.9773H174.689V111.161C174.689 112.015 174.593 112.687 174.401 113.177C174.231 113.689 173.889 114.095 173.377 114.393C172.887 114.692 172.268 114.873 171.521 114.937C170.796 115.001 169.932 115.033 168.929 115.033C168.887 114.564 168.769 113.999 168.577 113.337C168.385 112.676 168.172 112.121 167.937 111.673C168.449 111.695 168.951 111.705 169.441 111.705C169.953 111.705 170.305 111.705 170.497 111.705C170.689 111.684 170.817 111.631 170.881 111.545C170.967 111.46 171.009 111.321 171.009 111.129V85.9773ZM149.761 85.9773H159.905V95.7373H149.761V93.3053H156.321V88.4093H149.761V85.9773ZM172.865 85.9773V88.4093H165.665V93.2733H172.865V95.7053H162.017V85.9773H172.865ZM147.489 85.9773H151.073V115.033H147.489V85.9773ZM191.201 101.913L193.057 101.337C193.42 101.871 193.751 102.468 194.049 103.129C194.369 103.769 194.583 104.335 194.689 104.825L192.737 105.497C192.631 104.985 192.428 104.399 192.129 103.737C191.852 103.076 191.543 102.468 191.201 101.913ZM185.857 99.4813L187.073 98.0093C187.649 98.3933 188.247 98.8519 188.865 99.3853C189.484 99.9186 189.943 100.399 190.241 100.825L188.961 102.521C188.663 102.073 188.215 101.561 187.617 100.985C187.02 100.409 186.433 99.9079 185.857 99.4813ZM189.409 95.9613L191.617 96.8253C191.191 97.3586 190.753 97.9026 190.305 98.4573C189.879 99.0119 189.473 99.4706 189.089 99.8333L187.393 99.0973C187.735 98.6493 188.097 98.1266 188.481 97.5293C188.865 96.9319 189.175 96.4093 189.409 95.9613ZM191.585 98.2973L193.569 99.1613C193.036 99.7373 192.471 100.335 191.873 100.953C191.276 101.572 190.689 102.169 190.113 102.745C189.537 103.3 188.993 103.791 188.481 104.217L187.009 103.449C187.521 102.98 188.055 102.447 188.609 101.849C189.185 101.231 189.729 100.612 190.241 99.9933C190.775 99.3533 191.223 98.7879 191.585 98.2973ZM194.913 105.401H197.537V114.361H194.913V105.401ZM185.569 103.193C186.593 103.129 187.745 103.065 189.025 103.001C190.327 102.916 191.703 102.82 193.153 102.713V104.665C191.831 104.793 190.551 104.911 189.313 105.017C188.076 105.103 186.913 105.188 185.825 105.273L185.569 103.193ZM199.265 101.721L201.217 101.145C201.601 101.743 201.964 102.404 202.305 103.129C202.647 103.833 202.881 104.463 203.009 105.017L200.993 105.657C200.887 105.124 200.673 104.495 200.353 103.769C200.033 103.023 199.671 102.34 199.265 101.721ZM193.473 99.3213L194.849 97.9133C195.489 98.3399 196.129 98.8519 196.769 99.4493C197.431 100.047 197.921 100.591 198.241 101.081L196.833 102.681C196.513 102.169 196.033 101.604 195.393 100.985C194.753 100.345 194.113 99.7906 193.473 99.3213ZM197.153 95.9293L199.489 96.7933C198.999 97.4119 198.508 98.0093 198.017 98.5853C197.527 99.1613 197.068 99.6733 196.641 100.121L194.913 99.3533C195.297 98.8839 195.703 98.3186 196.129 97.6573C196.556 96.9959 196.897 96.4199 197.153 95.9293ZM199.457 98.2973L201.473 99.2253C200.919 99.8226 200.332 100.441 199.713 101.081C199.095 101.721 198.476 102.329 197.857 102.905C197.239 103.481 196.641 103.993 196.065 104.441L194.593 103.609C195.127 103.14 195.692 102.607 196.289 102.009C196.908 101.391 197.495 100.761 198.049 100.121C198.604 99.4599 199.073 98.8519 199.457 98.2973ZM194.113 103.193C195.095 103.151 196.215 103.087 197.473 103.001C198.753 102.916 200.097 102.831 201.505 102.745V104.665C200.268 104.793 199.052 104.911 197.857 105.017C196.684 105.103 195.585 105.188 194.561 105.273L194.113 103.193ZM186.561 105.945H188.897V108.697H192.353V110.841H186.561V105.945ZM199.521 105.945H201.921V110.841H196.993V108.697H199.521V105.945ZM190.849 105.401H193.377V108.505C193.377 109.337 193.271 110.148 193.057 110.937C192.844 111.727 192.407 112.452 191.745 113.113C191.084 113.775 190.071 114.34 188.705 114.809C188.556 114.489 188.311 114.127 187.969 113.721C187.628 113.316 187.329 112.985 187.073 112.729C188.183 112.409 189.004 112.025 189.537 111.577C190.071 111.108 190.423 110.607 190.593 110.073C190.764 109.54 190.849 108.996 190.849 108.441V105.401ZM182.689 90.2333H190.753V92.5693H182.689V90.2333ZM197.409 90.2333H205.537V92.5693H197.409V90.2333ZM204.257 86.1693H207.937V110.585C207.937 111.503 207.852 112.239 207.681 112.793C207.511 113.369 207.148 113.817 206.593 114.137C206.06 114.457 205.409 114.649 204.641 114.713C203.873 114.799 202.956 114.841 201.889 114.841C201.847 114.479 201.772 114.073 201.665 113.625C201.559 113.177 201.431 112.719 201.281 112.249C201.153 111.801 201.004 111.417 200.833 111.097C201.409 111.119 201.975 111.14 202.529 111.161C203.105 111.161 203.5 111.151 203.713 111.129C203.927 111.129 204.065 111.087 204.129 111.001C204.215 110.916 204.257 110.767 204.257 110.553V86.1693ZM183.041 86.1693H193.185V96.6013H183.041V94.0413H189.601V88.7293H183.041V86.1693ZM206.145 86.1693V88.7293H198.945V94.0413H206.145V96.6013H195.297V86.1693H206.145ZM180.769 86.1693H184.417V115.001H180.769V86.1693ZM213.089 104.633H242.017V107.673H213.089V104.633ZM219.233 92.6973H238.625V95.1933H219.233V92.6973ZM219.233 96.5373H238.689V99.0653H219.233V96.5373ZM218.465 88.4093H240.225V91.3853H218.465V88.4093ZM226.465 90.2973H230.145V101.529H226.465V90.2973ZM225.569 102.585H229.377V114.969H225.569V102.585ZM225.249 105.881L228.129 107.321C227.319 108.111 226.38 108.889 225.313 109.657C224.268 110.404 223.137 111.108 221.921 111.769C220.705 112.409 219.468 112.985 218.209 113.497C216.951 114.009 215.713 114.436 214.497 114.777C214.199 114.308 213.815 113.753 213.345 113.113C212.876 112.495 212.439 111.993 212.033 111.609C213.249 111.353 214.487 111.033 215.745 110.649C217.004 110.244 218.22 109.796 219.393 109.305C220.588 108.793 221.687 108.249 222.689 107.673C223.692 107.097 224.545 106.5 225.249 105.881ZM229.825 105.785C230.529 106.404 231.361 107.001 232.321 107.577C233.303 108.153 234.369 108.697 235.521 109.209C236.695 109.7 237.9 110.148 239.137 110.553C240.375 110.937 241.591 111.268 242.785 111.545C242.508 111.78 242.22 112.079 241.921 112.441C241.623 112.825 241.335 113.209 241.057 113.593C240.78 113.977 240.556 114.319 240.385 114.617C239.169 114.276 237.932 113.849 236.673 113.337C235.436 112.825 234.22 112.249 233.025 111.609C231.852 110.969 230.743 110.287 229.697 109.561C228.652 108.815 227.713 108.047 226.881 107.257L229.825 105.785ZM228.033 84.9213L232.353 85.4653C231.863 86.4039 231.34 87.3106 230.785 88.1853C230.252 89.0599 229.761 89.7959 229.313 90.3933L225.921 89.7533C226.305 89.0493 226.7 88.2493 227.105 87.3533C227.511 86.4573 227.82 85.6466 228.033 84.9213ZM219.841 84.8573L223.809 85.6573C223.084 86.8946 222.284 88.1213 221.409 89.3373C220.535 90.5533 219.564 91.7479 218.497 92.9213C217.431 94.0733 216.236 95.1719 214.913 96.2173C214.721 95.9399 214.465 95.6413 214.145 95.3213C213.825 94.9799 213.484 94.6599 213.121 94.3613C212.78 94.0413 212.471 93.7959 212.193 93.6253C213.388 92.7719 214.465 91.8546 215.425 90.8733C216.407 89.8706 217.271 88.8573 218.017 87.8333C218.764 86.7879 219.372 85.7959 219.841 84.8573ZM216.769 90.3613H220.385V100.441H241.153V103.321H216.769V90.3613ZM246.241 108.633H275.457V111.705H246.241V108.633ZM258.721 105.977H262.785V114.969H258.721V105.977ZM253.409 103.161V104.665H268.097V103.161H253.409ZM253.409 99.2893V100.761H268.097V99.2893H253.409ZM249.665 96.7293H272.033V107.225H249.665V96.7293ZM248.385 87.0653H273.441V90.0733H248.385V87.0653ZM246.369 92.4093H275.297V95.4493H246.369V92.4093ZM258.721 84.9213H262.785V89.2093H258.721V84.9213ZM265.249 89.4013L269.377 90.0733C269.036 90.7346 268.716 91.3426 268.417 91.8973C268.119 92.4519 267.841 92.9319 267.585 93.3373L263.969 92.6653C264.119 92.3453 264.268 91.9933 264.417 91.6093C264.588 91.2253 264.748 90.8413 264.897 90.4573C265.047 90.0519 265.164 89.6999 265.249 89.4013ZM252.609 90.1693L256.321 89.5293C256.641 89.9986 256.929 90.5213 257.185 91.0973C257.441 91.6519 257.623 92.1639 257.729 92.6333L253.825 93.4013C253.761 92.9746 253.612 92.4519 253.377 91.8333C253.143 91.2146 252.887 90.6599 252.609 90.1693ZM296.412 97.0493H316.86V100.505H296.412V97.0493ZM297.532 90.5853H315.772V93.9773H297.532V90.5853ZM304.284 92.2493H308.124V97.3693C308.124 98.3933 307.996 99.4599 307.74 100.569C307.506 101.679 307.058 102.788 306.396 103.897C305.756 104.985 304.828 106.041 303.612 107.065C302.418 108.068 300.871 108.985 298.972 109.817C298.802 109.54 298.567 109.231 298.268 108.889C297.97 108.548 297.66 108.207 297.34 107.865C297.02 107.524 296.711 107.247 296.412 107.033C298.226 106.372 299.655 105.636 300.7 104.825C301.767 104.015 302.546 103.172 303.036 102.297C303.548 101.423 303.879 100.569 304.028 99.7373C304.199 98.8839 304.284 98.0839 304.284 97.3373V92.2493ZM308.7 99.4813C309.362 101.252 310.364 102.756 311.708 103.993C313.074 105.209 314.823 106.084 316.956 106.617C316.679 106.873 316.38 107.193 316.06 107.577C315.762 107.961 315.474 108.356 315.196 108.761C314.94 109.145 314.716 109.508 314.524 109.849C312.178 109.081 310.279 107.876 308.828 106.233C307.378 104.591 306.258 102.575 305.468 100.185L308.7 99.4813ZM295.132 97.4013V109.209H291.388V100.953H287.676V97.4013H295.132ZM295.132 107.545C295.794 108.591 296.722 109.359 297.916 109.849C299.111 110.34 300.54 110.617 302.204 110.681C303.143 110.724 304.252 110.756 305.532 110.777C306.834 110.777 308.199 110.767 309.628 110.745C311.058 110.724 312.455 110.681 313.82 110.617C315.207 110.553 316.434 110.479 317.5 110.393C317.372 110.692 317.223 111.076 317.052 111.545C316.882 112.015 316.722 112.495 316.572 112.985C316.444 113.476 316.348 113.913 316.284 114.297C315.324 114.361 314.226 114.404 312.988 114.425C311.751 114.468 310.482 114.489 309.18 114.489C307.879 114.511 306.62 114.511 305.404 114.489C304.188 114.468 303.1 114.436 302.14 114.393C300.178 114.308 298.503 113.999 297.116 113.465C295.73 112.953 294.503 112.079 293.436 110.841C292.732 111.439 292.007 112.057 291.26 112.697C290.535 113.337 289.735 113.999 288.86 114.681L286.972 110.681C287.719 110.233 288.498 109.743 289.308 109.209C290.119 108.676 290.898 108.121 291.644 107.545H295.132ZM287.708 87.9933L290.556 85.6893C291.218 86.1159 291.89 86.6173 292.572 87.1933C293.255 87.7479 293.895 88.3239 294.492 88.9213C295.09 89.4973 295.57 90.0306 295.932 90.5213L292.892 93.0813C292.572 92.5693 292.124 92.0146 291.548 91.4173C290.994 90.8199 290.375 90.2226 289.692 89.6253C289.01 89.0066 288.348 88.4626 287.708 87.9933ZM310.908 84.9213L314.812 86.1373C314.236 87.0546 313.639 87.9613 313.02 88.8573C312.423 89.7319 311.868 90.4786 311.356 91.0973L308.22 90.0093C308.54 89.5186 308.871 88.9853 309.212 88.4093C309.554 87.8119 309.874 87.2146 310.172 86.6173C310.471 85.9986 310.716 85.4333 310.908 84.9213ZM298.364 86.3293L301.596 84.9853C302.194 85.7106 302.759 86.5319 303.292 87.4493C303.826 88.3666 304.199 89.1773 304.412 89.8813L300.956 91.3533C300.786 90.6706 300.444 89.8599 299.932 88.9213C299.442 87.9613 298.919 87.0973 298.364 86.3293Z" fill="white"/>
<path d="M34.912 248.201H57.136V251.345H34.912V248.201ZM71.416 243.161H80.104V245.177H71.416V243.161ZM71.416 246.377H80.104V248.393H71.416V246.377ZM68.416 249.665H82.24V252.161H68.416V249.665ZM70.144 239.537H80.992V241.985H72.904V251.009H70.144V239.537ZM68.296 258.209C69.304 258.097 70.512 257.961 71.92 257.801C73.328 257.625 74.752 257.441 76.192 257.249L76.312 259.745C74.984 259.969 73.664 260.177 72.352 260.369C71.04 260.561 69.84 260.737 68.752 260.897L68.296 258.209ZM76.312 251.009C76.632 252.209 77.064 253.329 77.608 254.369C78.152 255.393 78.84 256.281 79.672 257.033C80.504 257.785 81.488 258.369 82.624 258.785C82.416 258.977 82.192 259.217 81.952 259.505C81.712 259.809 81.48 260.121 81.256 260.441C81.048 260.761 80.88 261.049 80.752 261.305C79.488 260.745 78.416 259.985 77.536 259.025C76.672 258.065 75.952 256.945 75.376 255.665C74.8 254.385 74.328 252.969 73.96 251.417L76.312 251.009ZM79.84 252.233L82.216 253.529C81.56 254.105 80.88 254.673 80.176 255.233C79.472 255.777 78.832 256.241 78.256 256.625L76.48 255.521C76.848 255.233 77.24 254.905 77.656 254.537C78.072 254.153 78.472 253.761 78.856 253.361C79.24 252.945 79.568 252.569 79.84 252.233ZM70.216 250.385H72.976V258.593L70.216 259.049V250.385ZM61.192 250.409H66.928V252.977H61.192V250.409ZM65.632 250.409H68.488C68.488 250.409 68.48 250.481 68.464 250.625C68.464 250.753 68.464 250.905 68.464 251.081C68.464 251.241 68.456 251.385 68.44 251.513C68.328 253.369 68.208 254.889 68.08 256.073C67.968 257.257 67.824 258.177 67.648 258.833C67.472 259.489 67.264 259.961 67.024 260.249C66.752 260.553 66.464 260.769 66.16 260.897C65.872 261.041 65.536 261.137 65.152 261.185C64.832 261.249 64.408 261.281 63.88 261.281C63.368 261.297 62.816 261.289 62.224 261.257C62.208 260.857 62.128 260.401 61.984 259.889C61.84 259.377 61.656 258.945 61.432 258.593C61.928 258.625 62.384 258.649 62.8 258.665C63.216 258.681 63.536 258.689 63.76 258.689C63.936 258.689 64.088 258.673 64.216 258.641C64.36 258.593 64.488 258.513 64.6 258.401C64.76 258.225 64.896 257.873 65.008 257.345C65.136 256.801 65.248 256.001 65.344 254.945C65.456 253.889 65.552 252.521 65.632 250.841V250.409ZM60.928 245.417H63.544C63.448 246.329 63.336 247.289 63.208 248.297C63.096 249.305 62.976 250.281 62.848 251.225C62.736 252.153 62.616 252.977 62.488 253.697L59.824 253.409C59.968 252.705 60.104 251.897 60.232 250.985C60.376 250.073 60.512 249.129 60.64 248.153C60.768 247.177 60.864 246.265 60.928 245.417ZM61.12 245.417H65.464V242.585H60.256V239.945H68.08V248.057H61.12V245.417ZM90.712 254.369H99.976V255.929H90.712V254.369ZM92.032 252.257H100.504V253.601H92.032V252.257ZM92.032 250.193H100.408V251.513H92.032V250.193ZM94.984 248.825H97.144V255.281H94.984V248.825ZM99.64 254.369H101.848C101.848 254.369 101.848 254.465 101.848 254.657C101.848 254.833 101.84 254.993 101.824 255.137C101.776 256.145 101.72 256.977 101.656 257.633C101.608 258.289 101.536 258.793 101.44 259.145C101.36 259.513 101.24 259.793 101.08 259.985C100.92 260.177 100.728 260.321 100.504 260.417C100.28 260.513 100.04 260.577 99.784 260.609C99.544 260.625 99.24 260.633 98.872 260.633C98.52 260.649 98.144 260.649 97.744 260.633C97.728 260.361 97.672 260.057 97.576 259.721C97.48 259.401 97.368 259.129 97.24 258.905C97.544 258.937 97.816 258.961 98.056 258.977C98.312 258.993 98.504 258.993 98.632 258.977C98.872 258.993 99.056 258.929 99.184 258.785C99.296 258.641 99.384 258.273 99.448 257.681C99.528 257.073 99.592 256.065 99.64 254.657V254.369ZM90.256 256.337L91.936 256.769C91.824 257.489 91.656 258.185 91.432 258.857C91.208 259.513 90.856 260.057 90.376 260.489L88.864 259.481C89.248 259.129 89.552 258.665 89.776 258.089C90.016 257.513 90.176 256.929 90.256 256.337ZM96.88 256.529L98.032 256.169C98.256 256.473 98.448 256.817 98.608 257.201C98.768 257.585 98.888 257.921 98.968 258.209L97.744 258.665C97.68 258.361 97.568 258.009 97.408 257.609C97.264 257.209 97.088 256.849 96.88 256.529ZM92.536 256.913L93.952 256.721C94.048 257.217 94.112 257.769 94.144 258.377C94.192 258.985 94.208 259.489 94.192 259.889L92.656 260.129C92.704 259.697 92.712 259.185 92.68 258.593C92.664 257.985 92.616 257.425 92.536 256.913ZM94.792 256.793L96.112 256.481C96.272 256.913 96.408 257.393 96.52 257.921C96.632 258.433 96.704 258.873 96.736 259.241L95.344 259.625C95.328 259.241 95.272 258.785 95.176 258.257C95.08 257.729 94.952 257.241 94.792 256.793ZM90.712 247.889H101.104V249.473H92.968V255.233H90.712V247.889ZM87.232 242.321H93.28V243.953H87.232V242.321ZM98.2 242.321H104.296V243.953H98.2V242.321ZM103.432 239.513H106.192V258.401C106.192 259.041 106.12 259.545 105.976 259.913C105.848 260.297 105.592 260.601 105.208 260.825C104.84 261.049 104.376 261.185 103.816 261.233C103.272 261.281 102.624 261.305 101.872 261.305C101.84 260.953 101.752 260.529 101.608 260.033C101.464 259.537 101.304 259.121 101.128 258.785C101.512 258.801 101.888 258.809 102.256 258.809C102.64 258.809 102.904 258.809 103.048 258.809C103.192 258.793 103.288 258.753 103.336 258.689C103.4 258.625 103.432 258.521 103.432 258.377V239.513ZM87.496 239.513H95.104V246.833H87.496V245.009H92.416V241.337H87.496V239.513ZM104.824 239.513V241.337H99.424V244.985H104.824V246.809H96.688V239.513H104.824ZM85.792 239.513H88.48V261.305H85.792V239.513ZM118.576 251.465L119.968 251.033C120.24 251.433 120.488 251.881 120.712 252.377C120.952 252.857 121.112 253.281 121.192 253.649L119.728 254.153C119.648 253.769 119.496 253.329 119.272 252.833C119.064 252.337 118.832 251.881 118.576 251.465ZM114.568 249.641L115.48 248.537C115.912 248.825 116.36 249.169 116.824 249.569C117.288 249.969 117.632 250.329 117.856 250.649L116.896 251.921C116.672 251.585 116.336 251.201 115.888 250.769C115.44 250.337 115 249.961 114.568 249.641ZM117.232 247.001L118.888 247.649C118.568 248.049 118.24 248.457 117.904 248.873C117.584 249.289 117.28 249.633 116.992 249.905L115.72 249.353C115.976 249.017 116.248 248.625 116.536 248.177C116.824 247.729 117.056 247.337 117.232 247.001ZM118.864 248.753L120.352 249.401C119.952 249.833 119.528 250.281 119.08 250.745C118.632 251.209 118.192 251.657 117.76 252.089C117.328 252.505 116.92 252.873 116.536 253.193L115.432 252.617C115.816 252.265 116.216 251.865 116.632 251.417C117.064 250.953 117.472 250.489 117.856 250.025C118.256 249.545 118.592 249.121 118.864 248.753ZM121.36 254.081H123.328V260.801H121.36V254.081ZM114.352 252.425C115.12 252.377 115.984 252.329 116.944 252.281C117.92 252.217 118.952 252.145 120.04 252.065V253.529C119.048 253.625 118.088 253.713 117.16 253.793C116.232 253.857 115.36 253.921 114.544 253.985L114.352 252.425ZM124.624 251.321L126.088 250.889C126.376 251.337 126.648 251.833 126.904 252.377C127.16 252.905 127.336 253.377 127.432 253.793L125.92 254.273C125.84 253.873 125.68 253.401 125.44 252.857C125.2 252.297 124.928 251.785 124.624 251.321ZM120.28 249.521L121.312 248.465C121.792 248.785 122.272 249.169 122.752 249.617C123.248 250.065 123.616 250.473 123.856 250.841L122.8 252.041C122.56 251.657 122.2 251.233 121.72 250.769C121.24 250.289 120.76 249.873 120.28 249.521ZM123.04 246.977L124.792 247.625C124.424 248.089 124.056 248.537 123.688 248.969C123.32 249.401 122.976 249.785 122.656 250.121L121.36 249.545C121.648 249.193 121.952 248.769 122.272 248.273C122.592 247.777 122.848 247.345 123.04 246.977ZM124.768 248.753L126.28 249.449C125.864 249.897 125.424 250.361 124.96 250.841C124.496 251.321 124.032 251.777 123.568 252.209C123.104 252.641 122.656 253.025 122.224 253.361L121.12 252.737C121.52 252.385 121.944 251.985 122.392 251.537C122.856 251.073 123.296 250.601 123.712 250.121C124.128 249.625 124.48 249.169 124.768 248.753ZM120.76 252.425C121.496 252.393 122.336 252.345 123.28 252.281C124.24 252.217 125.248 252.153 126.304 252.089V253.529C125.376 253.625 124.464 253.713 123.568 253.793C122.688 253.857 121.864 253.921 121.096 253.985L120.76 252.425ZM115.096 254.489H116.848V256.553H119.44V258.161H115.096V254.489ZM124.816 254.489H126.616V258.161H122.92V256.553H124.816V254.489ZM118.312 254.081H120.208V256.409C120.208 257.033 120.128 257.641 119.968 258.233C119.808 258.825 119.48 259.369 118.984 259.865C118.488 260.361 117.728 260.785 116.704 261.137C116.592 260.897 116.408 260.625 116.152 260.321C115.896 260.017 115.672 259.769 115.48 259.577C116.312 259.337 116.928 259.049 117.328 258.713C117.728 258.361 117.992 257.985 118.12 257.585C118.248 257.185 118.312 256.777 118.312 256.361V254.081ZM112.192 242.705H118.24V244.457H112.192V242.705ZM123.232 242.705H129.328V244.457H123.232V242.705ZM128.368 239.657H131.128V257.969C131.128 258.657 131.064 259.209 130.936 259.625C130.808 260.057 130.536 260.393 130.12 260.633C129.72 260.873 129.232 261.017 128.656 261.065C128.08 261.129 127.392 261.161 126.592 261.161C126.56 260.889 126.504 260.585 126.424 260.249C126.344 259.913 126.248 259.569 126.136 259.217C126.04 258.881 125.928 258.593 125.8 258.353C126.232 258.369 126.656 258.385 127.072 258.401C127.504 258.401 127.8 258.393 127.96 258.377C128.12 258.377 128.224 258.345 128.272 258.281C128.336 258.217 128.368 258.105 128.368 257.945V239.657ZM112.456 239.657H120.064V247.481H112.456V245.561H117.376V241.577H112.456V239.657ZM129.784 239.657V241.577H124.384V245.561H129.784V247.481H121.648V239.657H129.784ZM110.752 239.657H113.488V261.281H110.752V239.657ZM134.944 247.217H156.808V250.073H134.944V247.217ZM145.648 241.673H154.192V244.433H145.648V241.673ZM143.776 238.721H146.848V248.585H143.776V238.721ZM143.776 249.041H146.848V261.257H143.776V249.041ZM145.96 253.625L147.424 251.321C148.032 251.497 148.696 251.705 149.416 251.945C150.136 252.169 150.864 252.417 151.6 252.689C152.336 252.945 153.032 253.201 153.688 253.457C154.344 253.713 154.896 253.953 155.344 254.177L153.808 256.793C153.376 256.553 152.84 256.297 152.2 256.025C151.576 255.753 150.904 255.473 150.184 255.185C149.464 254.897 148.736 254.617 148 254.345C147.28 254.073 146.6 253.833 145.96 253.625ZM170.944 244.193H179.2V246.545H170.944V244.193ZM166.816 258.113C167.536 258.001 168.368 257.865 169.312 257.705C170.272 257.545 171.288 257.377 172.36 257.201C173.432 257.009 174.496 256.817 175.552 256.625L175.792 259.121C174.4 259.441 173 259.753 171.592 260.057C170.184 260.377 168.904 260.657 167.752 260.897L166.816 258.113ZM169.312 239.801H172.096V258.761H169.312V239.801ZM170.944 239.801H180.52V251.033H170.944V248.561H177.664V242.273H170.944V239.801ZM175.936 249.377C176.24 250.817 176.656 252.153 177.184 253.385C177.712 254.601 178.384 255.673 179.2 256.601C180.016 257.529 181.016 258.249 182.2 258.761C181.992 258.953 181.768 259.185 181.528 259.457C181.288 259.745 181.056 260.041 180.832 260.345C180.624 260.665 180.456 260.953 180.328 261.209C179.032 260.521 177.944 259.625 177.064 258.521C176.2 257.401 175.488 256.105 174.928 254.633C174.368 253.161 173.912 251.545 173.56 249.785L175.936 249.377ZM179.416 251.201L181.672 252.761C181.016 253.401 180.32 254.033 179.584 254.657C178.864 255.265 178.2 255.785 177.592 256.217L175.816 254.849C176.2 254.529 176.608 254.161 177.04 253.745C177.488 253.329 177.92 252.897 178.336 252.449C178.752 252.001 179.112 251.585 179.416 251.201ZM160.576 239.753H166.552V242.345H163.264V261.281H160.576V239.753ZM165.76 239.753H166.264L166.672 239.657L168.64 240.785C168.416 241.489 168.176 242.233 167.92 243.017C167.664 243.801 167.408 244.577 167.152 245.345C166.896 246.113 166.64 246.809 166.384 247.433C167.168 248.361 167.672 249.241 167.896 250.073C168.136 250.889 168.256 251.649 168.256 252.353C168.256 253.153 168.168 253.809 167.992 254.321C167.816 254.833 167.528 255.233 167.128 255.521C166.936 255.665 166.712 255.777 166.456 255.857C166.216 255.937 165.968 256.001 165.712 256.049C165.488 256.081 165.224 256.097 164.92 256.097C164.632 256.097 164.336 256.097 164.032 256.097C164.016 255.729 163.952 255.297 163.84 254.801C163.744 254.305 163.6 253.881 163.408 253.529C163.632 253.545 163.832 253.553 164.008 253.553C164.2 253.553 164.368 253.553 164.512 253.553C164.64 253.553 164.76 253.537 164.872 253.505C165 253.457 165.12 253.401 165.232 253.337C165.376 253.225 165.48 253.057 165.544 252.833C165.624 252.593 165.656 252.305 165.64 251.969C165.64 251.409 165.52 250.769 165.28 250.049C165.056 249.313 164.584 248.545 163.864 247.745C164.04 247.201 164.216 246.601 164.392 245.945C164.584 245.289 164.76 244.633 164.92 243.977C165.096 243.305 165.256 242.681 165.4 242.105C165.56 241.513 165.68 241.025 165.76 240.641V239.753ZM195.712 238.673L198.376 239.105C197.848 240.385 197.176 241.625 196.36 242.825C195.56 244.025 194.504 245.121 193.192 246.113C192.984 245.793 192.688 245.465 192.304 245.129C191.936 244.777 191.6 244.513 191.296 244.337C192.08 243.809 192.752 243.233 193.312 242.609C193.888 241.985 194.376 241.337 194.776 240.665C195.176 239.977 195.488 239.313 195.712 238.673ZM196.384 240.449H201.088V242.657H195.04L196.384 240.449ZM196.744 246.017H198.784C198.736 246.785 198.632 247.481 198.472 248.105C198.312 248.729 198.04 249.281 197.656 249.761C197.272 250.225 196.72 250.625 196 250.961C195.888 250.721 195.712 250.449 195.472 250.145C195.232 249.841 195.008 249.601 194.8 249.425C195.568 249.089 196.072 248.641 196.312 248.081C196.568 247.521 196.712 246.833 196.744 246.017ZM199.696 246.113H201.784V248.057C201.784 248.281 201.8 248.417 201.832 248.465C201.88 248.513 201.992 248.537 202.168 248.537C202.232 248.537 202.32 248.537 202.432 248.537C202.56 248.537 202.688 248.537 202.816 248.537C202.96 248.537 203.056 248.537 203.104 248.537C203.248 248.537 203.344 248.521 203.392 248.489C203.456 248.441 203.504 248.369 203.536 248.273C203.728 248.401 204 248.529 204.352 248.657C204.704 248.785 205.024 248.881 205.312 248.945C205.2 249.473 204.992 249.841 204.688 250.049C204.384 250.241 203.96 250.337 203.416 250.337C203.336 250.337 203.224 250.337 203.08 250.337C202.936 250.337 202.784 250.337 202.624 250.337C202.464 250.337 202.312 250.337 202.168 250.337C202.04 250.337 201.936 250.337 201.856 250.337C201.264 250.337 200.808 250.273 200.488 250.145C200.184 250.001 199.976 249.769 199.864 249.449C199.752 249.113 199.696 248.649 199.696 248.057V246.113ZM191.8 253.097H206.728V255.473H191.8V253.097ZM200.704 253.889C201.136 255.265 201.856 256.369 202.864 257.201C203.872 258.017 205.288 258.553 207.112 258.809C206.824 259.081 206.52 259.457 206.2 259.937C205.896 260.417 205.664 260.841 205.504 261.209C204.08 260.905 202.896 260.449 201.952 259.841C201.008 259.233 200.24 258.465 199.648 257.537C199.056 256.593 198.584 255.473 198.232 254.177L200.704 253.889ZM195.232 244.385H204.112V246.641H195.232V252.353H192.856V244.385H192.88H195.232ZM203.488 244.385H205.936V252.329H203.488V244.385ZM200.128 240.449H200.728L201.136 240.329L202.96 241.481C202.72 241.961 202.44 242.481 202.12 243.041C201.816 243.585 201.496 244.113 201.16 244.625C200.824 245.121 200.504 245.569 200.2 245.969C199.96 245.793 199.648 245.585 199.264 245.345C198.88 245.105 198.544 244.913 198.256 244.769C198.496 244.417 198.736 244.009 198.976 243.545C199.232 243.081 199.456 242.617 199.648 242.153C199.856 241.673 200.016 241.265 200.128 240.929V240.449ZM197.896 251.153H200.512C200.432 252.497 200.272 253.713 200.032 254.801C199.792 255.889 199.384 256.849 198.808 257.681C198.232 258.513 197.408 259.225 196.336 259.817C195.264 260.425 193.856 260.929 192.112 261.329C192 260.993 191.8 260.601 191.512 260.153C191.24 259.721 190.976 259.369 190.72 259.097C192.272 258.809 193.512 258.441 194.44 257.993C195.368 257.529 196.064 256.977 196.528 256.337C197.008 255.697 197.336 254.953 197.512 254.105C197.704 253.241 197.832 252.257 197.896 251.153ZM184.264 250.793C185.224 250.585 186.368 250.305 187.696 249.953C189.04 249.601 190.392 249.233 191.752 248.849L192.112 251.441C190.88 251.809 189.632 252.177 188.368 252.545C187.12 252.913 185.96 253.249 184.888 253.553L184.264 250.793ZM184.648 243.281H191.992V245.921H184.648V243.281ZM187.168 238.745H189.808V258.233C189.808 258.889 189.736 259.409 189.592 259.793C189.464 260.193 189.216 260.505 188.848 260.729C188.496 260.953 188.048 261.105 187.504 261.185C186.976 261.265 186.312 261.297 185.512 261.281C185.48 260.929 185.392 260.489 185.248 259.961C185.104 259.449 184.944 259.001 184.768 258.617C185.216 258.633 185.624 258.649 185.992 258.665C186.376 258.665 186.64 258.657 186.784 258.641C186.928 258.641 187.024 258.617 187.072 258.569C187.136 258.505 187.168 258.393 187.168 258.233V238.745ZM209.632 248.201H231.856V251.345H209.632V248.201ZM246.136 243.161H254.824V245.177H246.136V243.161ZM246.136 246.377H254.824V248.393H246.136V246.377ZM243.136 249.665H256.96V252.161H243.136V249.665ZM244.864 239.537H255.712V241.985H247.624V251.009H244.864V239.537ZM243.016 258.209C244.024 258.097 245.232 257.961 246.64 257.801C248.048 257.625 249.472 257.441 250.912 257.249L251.032 259.745C249.704 259.969 248.384 260.177 247.072 260.369C245.76 260.561 244.56 260.737 243.472 260.897L243.016 258.209ZM251.032 251.009C251.352 252.209 251.784 253.329 252.328 254.369C252.872 255.393 253.56 256.281 254.392 257.033C255.224 257.785 256.208 258.369 257.344 258.785C257.136 258.977 256.912 259.217 256.672 259.505C256.432 259.809 256.2 260.121 255.976 260.441C255.768 260.761 255.6 261.049 255.472 261.305C254.208 260.745 253.136 259.985 252.256 259.025C251.392 258.065 250.672 256.945 250.096 255.665C249.52 254.385 249.048 252.969 248.68 251.417L251.032 251.009ZM254.56 252.233L256.936 253.529C256.28 254.105 255.6 254.673 254.896 255.233C254.192 255.777 253.552 256.241 252.976 256.625L251.2 255.521C251.568 255.233 251.96 254.905 252.376 254.537C252.792 254.153 253.192 253.761 253.576 253.361C253.96 252.945 254.288 252.569 254.56 252.233ZM244.936 250.385H247.696V258.593L244.936 259.049V250.385ZM235.912 250.409H241.648V252.977H235.912V250.409ZM240.352 250.409H243.208C243.208 250.409 243.2 250.481 243.184 250.625C243.184 250.753 243.184 250.905 243.184 251.081C243.184 251.241 243.176 251.385 243.16 251.513C243.048 253.369 242.928 254.889 242.8 256.073C242.688 257.257 242.544 258.177 242.368 258.833C242.192 259.489 241.984 259.961 241.744 260.249C241.472 260.553 241.184 260.769 240.88 260.897C240.592 261.041 240.256 261.137 239.872 261.185C239.552 261.249 239.128 261.281 238.6 261.281C238.088 261.297 237.536 261.289 236.944 261.257C236.928 260.857 236.848 260.401 236.704 259.889C236.56 259.377 236.376 258.945 236.152 258.593C236.648 258.625 237.104 258.649 237.52 258.665C237.936 258.681 238.256 258.689 238.48 258.689C238.656 258.689 238.808 258.673 238.936 258.641C239.08 258.593 239.208 258.513 239.32 258.401C239.48 258.225 239.616 257.873 239.728 257.345C239.856 256.801 239.968 256.001 240.064 254.945C240.176 253.889 240.272 252.521 240.352 250.841V250.409ZM235.648 245.417H238.264C238.168 246.329 238.056 247.289 237.928 248.297C237.816 249.305 237.696 250.281 237.568 251.225C237.456 252.153 237.336 252.977 237.208 253.697L234.544 253.409C234.688 252.705 234.824 251.897 234.952 250.985C235.096 250.073 235.232 249.129 235.36 248.153C235.488 247.177 235.584 246.265 235.648 245.417ZM235.84 245.417H240.184V242.585H234.976V239.945H242.8V248.057H235.84V245.417Z" fill="white"/>
<path d="M60.216 142.779H83.822V149.159H60.216V142.779ZM58.244 162.905H90.318V169.517H58.244V162.905ZM70.54 156.177H77.5V186.569C77.5 188.309 77.2873 189.682 76.862 190.687C76.4367 191.692 75.6633 192.466 74.542 193.007C73.382 193.548 71.99 193.896 70.366 194.051C68.7807 194.244 66.9247 194.322 64.798 194.283C64.6433 193.316 64.3147 192.176 63.812 190.861C63.3093 189.546 62.8067 188.406 62.304 187.439C63.7733 187.478 65.1847 187.516 66.538 187.555C67.8913 187.594 68.8193 187.594 69.322 187.555C69.786 187.555 70.0953 187.478 70.25 187.323C70.4433 187.168 70.54 186.898 70.54 186.511V156.177ZM81.27 142.779H83.01L84.402 142.373L88.926 145.795C87.8047 147.496 86.5287 149.275 85.098 151.131C83.706 152.948 82.2367 154.708 80.69 156.409C79.1433 158.072 77.616 159.541 76.108 160.817C75.644 160.198 75.006 159.483 74.194 158.671C73.382 157.859 72.686 157.221 72.106 156.757C73.266 155.674 74.4453 154.379 75.644 152.871C76.8427 151.363 77.9253 149.836 78.892 148.289C79.8973 146.742 80.69 145.389 81.27 144.229V142.779ZM36.146 151.363H54.938V157.859H36.146V151.363ZM43.976 139.821L50.472 140.517C49.9307 143.61 49.312 146.858 48.616 150.261C47.9587 153.664 47.2627 157.066 46.528 160.469C45.7933 163.833 45.0587 167.1 44.324 170.271C43.5893 173.403 42.874 176.264 42.178 178.855L36.494 175.897C37.1513 173.616 37.8087 171.006 38.466 168.067C39.162 165.128 39.8387 162.035 40.496 158.787C41.1533 155.5 41.772 152.252 42.352 149.043C42.9707 145.795 43.512 142.721 43.976 139.821ZM39.568 174.911L43.338 169.981C45.3487 171.257 47.456 172.688 49.66 174.273C51.9027 175.858 53.9713 177.463 55.866 179.087C57.7993 180.711 59.3267 182.258 60.448 183.727L56.272 189.353C55.1893 187.884 53.72 186.298 51.864 184.597C50.008 182.857 47.9973 181.136 45.832 179.435C43.7053 177.734 41.6173 176.226 39.568 174.911ZM52.502 151.363H53.662L54.88 151.247L58.998 151.943C58.5727 159.483 57.6253 165.998 56.156 171.489C54.7253 176.941 52.7147 181.542 50.124 185.293C47.572 189.044 44.3627 192.118 40.496 194.515C40.0707 193.664 39.452 192.678 38.64 191.557C37.828 190.474 37.0547 189.624 36.32 189.005C39.6067 187.265 42.3907 184.713 44.672 181.349C46.9533 177.985 48.732 173.886 50.008 169.053C51.3227 164.22 52.154 158.768 52.502 152.697V151.363ZM123.61 182.567L129.004 181.117C129.661 182.122 130.222 183.224 130.686 184.423C131.15 185.622 131.479 186.685 131.672 187.613L125.988 189.295C125.872 188.367 125.582 187.265 125.118 185.989C124.654 184.713 124.151 183.572 123.61 182.567ZM138.922 181.001L144.954 182.625C144.335 183.862 143.717 185.061 143.098 186.221C142.518 187.381 141.977 188.367 141.474 189.179L136.312 187.671C136.776 186.743 137.259 185.641 137.762 184.365C138.265 183.089 138.651 181.968 138.922 181.001ZM126.8 174.563V177.463H141.184V174.563H126.8ZM121 170.445H147.158V181.581H121V170.445ZM124.712 154.437V157.105H143.04V154.437H124.712ZM124.712 147.825V150.435H143.04V147.825H124.712ZM119.202 143.591H148.84V161.339H119.202V143.591ZM118.332 163.311H149.826V168.531H118.332V163.311ZM117.172 188.077H150.638V193.239H117.172V188.077ZM126.974 139.821H132.078V146.723H126.974V139.821ZM135.5 139.821H140.662V146.723H135.5V139.821ZM127.96 145.563H132.078V160.527H127.96V145.563ZM135.5 145.563H139.618V160.527H135.5V145.563ZM96.698 155.017H117.056V161.049H96.698V155.017ZM98.09 143.475H115.896V149.449H98.09V143.475ZM112.474 164.007H116.882V185.583H112.474V164.007ZM104.296 158.033H110.038V194.283H104.296V158.033ZM97.51 164.065H101.918V171.025C101.918 174.002 101.783 177.134 101.512 180.421C101.241 183.669 100.603 186.685 99.598 189.469C99.134 189.005 98.5153 188.483 97.742 187.903C96.9687 187.323 96.292 186.878 95.712 186.569C96.4853 184.21 96.9687 181.639 97.162 178.855C97.394 176.071 97.51 173.422 97.51 170.909V164.065ZM155.8 169.517C158.391 168.976 161.484 168.28 165.08 167.429C168.676 166.54 172.272 165.631 175.868 164.703L176.68 170.967C173.393 171.895 170.068 172.823 166.704 173.751C163.379 174.679 160.324 175.51 157.54 176.245L155.8 169.517ZM156.728 150.783H175.984V157.221H156.728V150.783ZM163.746 139.821H170.416V187.033C170.416 188.696 170.242 189.991 169.894 190.919C169.546 191.847 168.889 192.562 167.922 193.065C166.955 193.568 165.757 193.896 164.326 194.051C162.895 194.244 161.175 194.341 159.164 194.341C159.048 193.452 158.797 192.408 158.41 191.209C158.062 190.01 157.675 188.947 157.25 188.019C158.371 188.058 159.454 188.096 160.498 188.135C161.542 188.135 162.257 188.135 162.644 188.135C163.031 188.135 163.301 188.058 163.456 187.903C163.649 187.71 163.746 187.42 163.746 187.033V139.821ZM177.376 152.813H209.682V193.819H202.78V159.425H183.988V194.225H177.376V152.813ZM181.494 167.835H204.694V174.331H181.494V167.835ZM181.726 183.321H204.868V189.991H181.726V183.321ZM189.904 139.937H196.516V187.381H189.904V139.937ZM217.57 176.767H270.408V182.451H217.57V176.767ZM247.904 178.739C249.025 180.943 250.63 182.702 252.718 184.017C254.806 185.293 257.435 186.24 260.606 186.859C263.815 187.439 267.643 187.787 272.09 187.903C271.587 188.367 271.065 188.966 270.524 189.701C270.021 190.474 269.557 191.248 269.132 192.021C268.707 192.833 268.359 193.568 268.088 194.225C264.299 193.993 260.973 193.548 258.112 192.891C255.251 192.272 252.757 191.383 250.63 190.223C248.503 189.102 246.667 187.671 245.12 185.931C243.612 184.191 242.278 182.122 241.118 179.725L247.904 178.739ZM251.094 174.853L253.936 170.967C255.173 171.238 256.527 171.586 257.996 172.011C259.465 172.436 260.896 172.881 262.288 173.345C263.68 173.809 264.84 174.254 265.768 174.679L262.752 179.029C261.901 178.604 260.799 178.14 259.446 177.637C258.093 177.096 256.681 176.593 255.212 176.129C253.743 175.626 252.37 175.201 251.094 174.853ZM237.754 157.859H271.336V162.673H237.754V157.859ZM257.01 154.089H263.564V166.095C263.564 167.526 263.39 168.608 263.042 169.343C262.694 170.078 261.998 170.619 260.954 170.967C259.949 171.354 258.731 171.586 257.3 171.663C255.908 171.702 254.284 171.721 252.428 171.721C252.273 170.909 252.022 170.058 251.674 169.169C251.326 168.241 250.959 167.41 250.572 166.675C251.693 166.714 252.795 166.733 253.878 166.733C254.999 166.733 255.715 166.733 256.024 166.733C256.411 166.733 256.662 166.675 256.778 166.559C256.933 166.443 257.01 166.23 257.01 165.921V154.089ZM216.816 157.105H233.056V162.499H216.816V157.105ZM229.692 139.763H235.956V173.171H229.692V139.763ZM219.542 141.445H225.342V148.753H233.288V154.031H219.542V141.445ZM241.292 164.529L245.874 161.861C246.918 162.712 247.962 163.678 249.006 164.761C250.05 165.844 250.843 166.849 251.384 167.777L246.454 170.677C245.99 169.788 245.255 168.763 244.25 167.603C243.283 166.443 242.297 165.418 241.292 164.529ZM239.9 148.347L243.67 146.955C244.869 147.651 246.106 148.521 247.382 149.565C248.658 150.609 249.644 151.556 250.34 152.407L246.396 153.915C245.777 153.064 244.83 152.117 243.554 151.073C242.317 150.029 241.099 149.12 239.9 148.347ZM245.816 146.259L249.122 144.519C250.089 144.983 251.094 145.544 252.138 146.201C253.182 146.82 254.168 147.477 255.096 148.173C256.024 148.83 256.778 149.468 257.358 150.087L253.878 151.885C253.337 151.305 252.621 150.686 251.732 150.029C250.843 149.333 249.876 148.656 248.832 147.999C247.827 147.303 246.821 146.723 245.816 146.259ZM263.1 142.605H264.26L265.362 142.373L268.958 144.171C267.682 146.375 266.077 148.27 264.144 149.855C262.211 151.44 260.007 152.794 257.532 153.915C255.057 154.998 252.389 155.887 249.528 156.583C246.667 157.24 243.709 157.762 240.654 158.149C240.422 157.492 240.035 156.738 239.494 155.887C238.991 155.036 238.508 154.34 238.044 153.799C240.789 153.567 243.438 153.2 245.99 152.697C248.581 152.156 250.978 151.46 253.182 150.609C255.425 149.758 257.397 148.734 259.098 147.535C260.799 146.336 262.133 144.925 263.1 143.301V142.605ZM253.008 139.763L258.692 141.039C256.372 143.204 253.607 145.06 250.398 146.607C247.227 148.154 243.496 149.507 239.204 150.667C238.856 150.048 238.334 149.333 237.638 148.521C236.981 147.709 236.381 147.09 235.84 146.665C239.861 145.853 243.303 144.867 246.164 143.707C249.064 142.508 251.345 141.194 253.008 139.763ZM251.674 142.605H264.898V146.375H246.512L251.674 142.605ZM220.296 159.889H226.444V162.847C226.444 163.736 226.309 164.896 226.038 166.327C225.806 167.758 225.361 169.227 224.704 170.735C224.047 172.243 223.061 173.538 221.746 174.621C221.359 174.312 220.837 173.964 220.18 173.577C219.561 173.19 218.923 172.823 218.266 172.475C217.609 172.127 217.009 171.856 216.468 171.663C217.589 170.774 218.421 169.768 218.962 168.647C219.503 167.487 219.851 166.366 220.006 165.283C220.199 164.162 220.296 163.272 220.296 162.615V159.889ZM240.016 171.373H246.918V176.651C246.918 178.043 246.705 179.454 246.28 180.885C245.893 182.316 245.159 183.727 244.076 185.119C242.993 186.472 241.447 187.748 239.436 188.947C237.425 190.146 234.835 191.209 231.664 192.137C228.493 193.104 224.588 193.877 219.948 194.457C219.561 193.606 219.001 192.62 218.266 191.499C217.531 190.416 216.835 189.488 216.178 188.715C220.315 188.251 223.795 187.671 226.618 186.975C229.441 186.279 231.722 185.506 233.462 184.655C235.241 183.804 236.594 182.934 237.522 182.045C238.489 181.117 239.146 180.189 239.494 179.261C239.842 178.294 240.016 177.366 240.016 176.477V171.373ZM278.122 160.179H330.322V166.443H278.122V160.179ZM281.95 149.391H327.074V155.539H281.95V149.391ZM288.156 171.315H315.416V177.579H288.156V171.315ZM312.284 152.117C313.405 155.404 314.875 158.478 316.692 161.339C318.548 164.2 320.733 166.752 323.246 168.995C325.798 171.199 328.64 172.958 331.772 174.273C331.269 174.698 330.728 175.259 330.148 175.955C329.568 176.612 329.007 177.308 328.466 178.043C327.963 178.739 327.538 179.396 327.19 180.015C323.787 178.352 320.752 176.226 318.084 173.635C315.416 171.044 313.096 168.067 311.124 164.703C309.152 161.339 307.489 157.685 306.136 153.741L312.284 152.117ZM284.676 142.605L290.476 140.517C291.056 141.329 291.636 142.238 292.216 143.243C292.796 144.21 293.318 145.176 293.782 146.143C294.285 147.11 294.671 147.96 294.942 148.695L288.736 151.015C288.427 149.894 287.885 148.54 287.112 146.955C286.339 145.37 285.527 143.92 284.676 142.605ZM316.402 140.227L323.246 142.257C322.395 143.92 321.487 145.524 320.52 147.071C319.592 148.579 318.722 149.894 317.91 151.015L311.994 149.101C312.497 148.289 313.019 147.361 313.56 146.317C314.101 145.273 314.623 144.229 315.126 143.185C315.629 142.102 316.054 141.116 316.402 140.227ZM313.618 171.315H320.694C320.694 171.315 320.675 171.663 320.636 172.359C320.636 173.016 320.597 173.577 320.52 174.041C320.327 177.714 320.075 180.75 319.766 183.147C319.495 185.544 319.167 187.439 318.78 188.831C318.393 190.184 317.91 191.17 317.33 191.789C316.673 192.524 315.977 193.046 315.242 193.355C314.546 193.703 313.715 193.935 312.748 194.051C311.897 194.167 310.795 194.225 309.442 194.225C308.127 194.264 306.697 194.244 305.15 194.167C305.111 193.162 304.899 192.04 304.512 190.803C304.164 189.604 303.7 188.56 303.12 187.671C304.396 187.748 305.595 187.806 306.716 187.845C307.876 187.884 308.746 187.903 309.326 187.903C309.79 187.903 310.177 187.864 310.486 187.787C310.795 187.71 311.085 187.536 311.356 187.265C311.704 186.878 312.013 186.163 312.284 185.119C312.555 184.036 312.787 182.47 312.98 180.421C313.212 178.333 313.425 175.626 313.618 172.301V171.315ZM297.494 173.403H304.744C304.473 175.955 304.029 178.314 303.41 180.479C302.791 182.606 301.825 184.558 300.51 186.337C299.195 188.077 297.359 189.624 295 190.977C292.68 192.33 289.683 193.49 286.01 194.457C285.778 193.838 285.449 193.162 285.024 192.427C284.599 191.692 284.115 190.958 283.574 190.223C283.071 189.527 282.588 188.947 282.124 188.483C285.333 187.787 287.885 186.975 289.78 186.047C291.713 185.08 293.202 183.978 294.246 182.741C295.29 181.465 296.044 180.054 296.508 178.507C296.972 176.96 297.301 175.259 297.494 173.403ZM299.756 139.705L307.064 140.981C306.136 145.041 304.976 148.985 303.584 152.813C302.231 156.641 300.529 160.256 298.48 163.659C296.469 167.062 294.033 170.136 291.172 172.881C288.311 175.626 284.908 177.985 280.964 179.957C280.655 179.416 280.249 178.797 279.746 178.101C279.243 177.405 278.721 176.728 278.18 176.071C277.639 175.375 277.136 174.795 276.672 174.331C280.268 172.63 283.381 170.561 286.01 168.125C288.639 165.65 290.843 162.905 292.622 159.889C294.439 156.873 295.928 153.664 297.088 150.261C298.248 146.82 299.137 143.301 299.756 139.705Z" fill="white"/>
<ellipse cx="76.3156" cy="61" rx="54.1017" ry="56" fill="#6EE292"/>
<path d="M61.6355 27.3108V92.7654H45.8472V42.0765H45.4637L30.8259 51.0253V37.3463L46.9658 27.3108H61.6355ZM94.1758 94.3634C88.4656 94.3634 83.5437 93.0104 79.4102 90.3044C75.2767 87.5772 72.0913 83.6674 69.8541 78.575C67.6169 73.4614 66.5089 67.3144 66.5303 60.134C66.5516 52.9536 67.6702 46.8598 69.8861 41.8527C72.1233 36.8243 75.298 32.9998 79.4102 30.379C83.5437 27.737 88.4656 26.4159 94.1758 26.4159C99.8861 26.4159 104.808 27.737 108.941 30.379C113.096 32.9998 116.292 36.8243 118.53 41.8527C120.767 46.8811 121.875 52.9749 121.853 60.134C121.853 67.3357 120.735 73.4934 118.498 78.607C116.26 83.7206 113.075 87.6304 108.941 90.3364C104.829 93.0211 99.9074 94.3634 94.1758 94.3634ZM94.1758 81.4195C97.5849 81.4195 100.344 79.683 102.454 76.21C104.563 72.7157 105.607 67.357 105.586 60.134C105.586 55.4039 105.106 51.5047 104.147 48.4365C103.189 45.3471 101.857 43.0459 100.152 41.5331C98.4479 40.0204 96.4557 39.264 94.1758 39.264C90.7881 39.264 88.0501 40.9792 85.9621 44.4096C83.874 47.8186 82.8193 53.0601 82.798 60.134C82.7767 64.928 83.2348 68.9017 84.1723 72.0552C85.1311 75.2086 86.4734 77.563 88.1993 79.1184C89.9251 80.6525 91.9173 81.4195 94.1758 81.4195Z" fill="white"/>
<rect x="395.994" y="109" width="145.611" height="126.414" rx="25" fill="#6EE292"/>
<path d="M483.747 260.919L488.51 225.673L518.945 214.887L483.747 260.919Z" fill="#6EE292"/>
<path d="M451.214 136.46H459.394V145.7H457.094V138.64H453.374V145.78H451.214V136.46ZM453.874 127.04H456.194V137.06H453.874V127.04ZM455.254 131.16H460.074V133.38H455.254V131.16ZM452.354 142.82H458.174V145H452.354V142.82ZM443.794 129.22V133.6H448.654V129.22H443.794ZM442.014 127.62H450.514V135.2H442.014V127.62ZM443.754 130.08L444.754 129.8C444.914 130.253 445.054 130.747 445.174 131.28C445.294 131.813 445.367 132.273 445.394 132.66L444.334 133C444.32 132.613 444.26 132.147 444.154 131.6C444.047 131.053 443.914 130.547 443.754 130.08ZM444.254 141.56L445.714 141.38C445.834 141.927 445.927 142.527 445.994 143.18C446.074 143.833 446.12 144.4 446.134 144.88L444.594 145.08C444.607 144.6 444.58 144.033 444.514 143.38C444.447 142.713 444.36 142.107 444.254 141.56ZM446.254 141.46L447.674 141.2C447.874 141.733 448.054 142.307 448.214 142.92C448.374 143.52 448.487 144.053 448.554 144.52L447.054 144.82C447.014 144.367 446.914 143.827 446.754 143.2C446.607 142.573 446.44 141.993 446.254 141.46ZM448.194 141.3L449.614 140.76C449.947 141.24 450.26 141.773 450.554 142.36C450.847 142.947 451.054 143.46 451.174 143.9L449.654 144.52C449.547 144.067 449.354 143.54 449.074 142.94C448.807 142.34 448.514 141.793 448.194 141.3ZM442.494 141.44L444.114 141.9C443.994 142.62 443.827 143.333 443.614 144.04C443.414 144.747 443.1 145.333 442.674 145.8L441.114 145C441.487 144.573 441.787 144.04 442.014 143.4C442.24 142.747 442.4 142.093 442.494 141.44ZM447.674 129.78L448.874 130.18C448.687 130.66 448.494 131.167 448.294 131.7C448.107 132.233 447.934 132.68 447.774 133.04L446.874 132.7C446.98 132.42 447.08 132.113 447.174 131.78C447.28 131.433 447.38 131.087 447.474 130.74C447.567 130.38 447.634 130.06 447.674 129.78ZM441.554 138.94C442.34 138.927 443.234 138.907 444.234 138.88C445.247 138.84 446.314 138.8 447.434 138.76C448.554 138.72 449.674 138.673 450.794 138.62L450.754 140.5C449.674 140.553 448.58 140.613 447.474 140.68C446.38 140.733 445.334 140.787 444.334 140.84C443.347 140.88 442.44 140.92 441.614 140.96L441.554 138.94ZM442.054 136.06H450.474V137.88H442.054V136.06ZM445.474 128.44H446.914V134.46H447.254V139.68H445.134V134.46H445.474V128.44ZM475.594 128.78L477.394 127.56C477.754 127.867 478.12 128.213 478.494 128.6C478.88 128.973 479.24 129.353 479.574 129.74C479.92 130.113 480.187 130.46 480.374 130.78L478.434 132.12C478.274 131.8 478.034 131.447 477.714 131.06C477.407 130.66 477.067 130.267 476.694 129.88C476.32 129.48 475.954 129.113 475.594 128.78ZM462.494 132.7H480.534V134.96H462.494V132.7ZM462.114 138.34C462.914 138.22 463.847 138.073 464.914 137.9C465.98 137.727 467.107 137.533 468.294 137.32C469.494 137.107 470.674 136.9 471.834 136.7L471.994 138.86C470.927 139.087 469.84 139.313 468.734 139.54C467.64 139.767 466.574 139.987 465.534 140.2C464.507 140.4 463.56 140.587 462.694 140.76L462.114 138.34ZM466.274 129.46H468.694V142.98C468.694 143.633 468.614 144.14 468.454 144.5C468.307 144.86 468.034 145.133 467.634 145.32C467.234 145.507 466.734 145.627 466.134 145.68C465.534 145.747 464.82 145.78 463.994 145.78C463.967 145.553 463.907 145.293 463.814 145C463.72 144.707 463.614 144.413 463.494 144.12C463.387 143.827 463.274 143.573 463.154 143.36C463.714 143.387 464.254 143.4 464.774 143.4C465.294 143.4 465.64 143.393 465.814 143.38C465.987 143.38 466.107 143.353 466.174 143.3C466.24 143.233 466.274 143.12 466.274 142.96V129.46ZM470.374 127.14L472.014 129.18C471.147 129.447 470.207 129.687 469.194 129.9C468.18 130.1 467.147 130.28 466.094 130.44C465.054 130.6 464.047 130.733 463.074 130.84C463.034 130.56 462.94 130.22 462.794 129.82C462.66 129.42 462.527 129.087 462.394 128.82C463.327 128.7 464.28 128.553 465.254 128.38C466.227 128.207 467.154 128.013 468.034 127.8C468.914 127.587 469.694 127.367 470.374 127.14ZM472.354 127.16H474.854C474.827 128.773 474.867 130.367 474.974 131.94C475.094 133.513 475.267 134.993 475.494 136.38C475.72 137.753 475.987 138.973 476.294 140.04C476.6 141.093 476.927 141.92 477.274 142.52C477.62 143.12 477.98 143.42 478.354 143.42C478.567 143.42 478.727 143.16 478.834 142.64C478.954 142.12 479.04 141.267 479.094 140.08C479.347 140.347 479.66 140.613 480.034 140.88C480.407 141.133 480.754 141.327 481.074 141.46C480.94 142.633 480.76 143.533 480.534 144.16C480.307 144.8 479.994 145.24 479.594 145.48C479.207 145.733 478.714 145.86 478.114 145.86C477.42 145.86 476.794 145.607 476.234 145.1C475.687 144.607 475.2 143.913 474.774 143.02C474.36 142.127 474 141.087 473.694 139.9C473.4 138.7 473.154 137.407 472.954 136.02C472.754 134.62 472.607 133.167 472.514 131.66C472.42 130.153 472.367 128.653 472.354 127.16ZM477.794 135.62L479.894 136.54C479.214 137.78 478.407 138.933 477.474 140C476.54 141.067 475.52 142.033 474.414 142.9C473.307 143.753 472.147 144.5 470.934 145.14C470.76 144.847 470.52 144.52 470.214 144.16C469.92 143.8 469.62 143.487 469.314 143.22C470.46 142.687 471.567 142.04 472.634 141.28C473.714 140.52 474.694 139.66 475.574 138.7C476.454 137.74 477.194 136.713 477.794 135.62ZM487.374 135.86H499.314V145.84H496.914V137.66H489.654V145.84H487.374V135.86ZM483.374 133.12H501.214V135.02H483.374V133.12ZM484.774 130.46H500.114V132.26H484.774V130.46ZM488.914 138.52H497.874V140.02H488.914V138.52ZM488.914 140.9H497.874V142.4H488.914V140.9ZM488.654 143.3H497.894V145.12H488.654V143.3ZM498.654 127.08L500.034 128.78C499.007 128.953 497.88 129.1 496.654 129.22C495.44 129.327 494.174 129.42 492.854 129.5C491.534 129.567 490.207 129.613 488.874 129.64C487.54 129.667 486.254 129.673 485.014 129.66C485 129.407 484.947 129.107 484.854 128.76C484.76 128.413 484.66 128.12 484.554 127.88C485.78 127.88 487.04 127.867 488.334 127.84C489.64 127.8 490.92 127.747 492.174 127.68C493.427 127.613 494.607 127.533 495.714 127.44C496.82 127.333 497.8 127.213 498.654 127.08ZM490.134 128.74L492.614 129.24C492.16 130.893 491.574 132.5 490.854 134.06C490.147 135.62 489.254 137.053 488.174 138.36C487.094 139.653 485.787 140.747 484.254 141.64C484.134 141.453 483.987 141.24 483.814 141C483.64 140.76 483.46 140.527 483.274 140.3C483.087 140.073 482.914 139.887 482.754 139.74C484.167 138.967 485.36 138 486.334 136.84C487.32 135.667 488.12 134.38 488.734 132.98C489.347 131.58 489.814 130.167 490.134 128.74ZM438.134 163.68H448.634V171.68H446.334V165.86H440.334V171.78H438.134V163.68ZM447.034 153L448.874 154.88C447.9 155.253 446.82 155.58 445.634 155.86C444.447 156.127 443.227 156.347 441.974 156.52C440.734 156.693 439.52 156.833 438.334 156.94C438.294 156.66 438.2 156.32 438.054 155.92C437.92 155.507 437.787 155.167 437.654 154.9C438.507 154.807 439.367 154.7 440.234 154.58C441.114 154.46 441.967 154.32 442.794 154.16C443.62 154 444.394 153.827 445.114 153.64C445.834 153.44 446.474 153.227 447.034 153ZM442.234 155.26H444.514V164.94H442.234V155.26ZM436.894 158.84H449.634V161.12H436.894V158.84ZM439.714 168.78H447.294V170.96H439.714V168.78ZM431.954 155L433.314 153.26C433.687 153.447 434.107 153.66 434.574 153.9C435.04 154.14 435.494 154.38 435.934 154.62C436.387 154.86 436.754 155.073 437.034 155.26L435.614 157.2C435.347 157 435 156.773 434.574 156.52C434.147 156.267 433.7 156.007 433.234 155.74C432.767 155.46 432.34 155.213 431.954 155ZM430.994 160.54L432.294 158.76C432.667 158.92 433.094 159.12 433.574 159.36C434.054 159.6 434.52 159.84 434.974 160.08C435.427 160.307 435.794 160.513 436.074 160.7L434.734 162.7C434.467 162.5 434.114 162.273 433.674 162.02C433.247 161.767 432.794 161.507 432.314 161.24C431.834 160.973 431.394 160.74 430.994 160.54ZM431.294 169.94C431.654 169.433 432.047 168.84 432.474 168.16C432.914 167.467 433.36 166.733 433.814 165.96C434.267 165.173 434.694 164.393 435.094 163.62L436.854 165.22C436.507 165.913 436.134 166.627 435.734 167.36C435.347 168.093 434.947 168.813 434.534 169.52C434.134 170.227 433.727 170.907 433.314 171.56L431.294 169.94ZM452.254 165.94H461.594V167.64H452.254V165.94ZM451.814 156.42H461.814V158.16H451.814V156.42ZM455.774 155.02H457.954V169.36H455.774V155.02ZM451.694 169.12C452.534 169.067 453.494 169 454.574 168.92C455.654 168.84 456.794 168.753 457.994 168.66C459.207 168.553 460.414 168.447 461.614 168.34L461.634 170.16C460.5 170.28 459.354 170.4 458.194 170.52C457.047 170.64 455.94 170.747 454.874 170.84C453.82 170.947 452.854 171.047 451.974 171.14L451.694 169.12ZM454.234 162.76V163.66H459.514V162.76H454.234ZM454.234 160.44V161.34H459.514V160.44H454.234ZM452.334 158.94H461.494V165.16H452.334V158.94ZM460.534 153.12L461.574 154.9C460.734 155.073 459.787 155.227 458.734 155.36C457.694 155.48 456.627 155.58 455.534 155.66C454.44 155.727 453.394 155.773 452.394 155.8C452.354 155.547 452.28 155.26 452.174 154.94C452.08 154.607 451.974 154.32 451.854 154.08C452.6 154.04 453.367 153.993 454.154 153.94C454.94 153.873 455.714 153.8 456.474 153.72C457.247 153.64 457.974 153.553 458.654 153.46C459.347 153.353 459.974 153.24 460.534 153.12ZM461.794 157.54H468.734V159.74H461.794V157.54ZM467.754 157.54H470.054C470.054 157.54 470.054 157.607 470.054 157.74C470.054 157.873 470.054 158.027 470.054 158.2C470.054 158.36 470.054 158.493 470.054 158.6C470 160.653 469.947 162.4 469.894 163.84C469.84 165.267 469.78 166.447 469.714 167.38C469.66 168.3 469.574 169.02 469.454 169.54C469.347 170.06 469.214 170.433 469.054 170.66C468.827 170.993 468.587 171.227 468.334 171.36C468.094 171.507 467.807 171.613 467.474 171.68C467.167 171.733 466.794 171.76 466.354 171.76C465.914 171.773 465.454 171.773 464.974 171.76C464.96 171.427 464.887 171.04 464.754 170.6C464.634 170.16 464.48 169.78 464.294 169.46C464.72 169.5 465.114 169.527 465.474 169.54C465.834 169.553 466.107 169.56 466.294 169.56C466.454 169.56 466.587 169.533 466.694 169.48C466.8 169.427 466.9 169.34 466.994 169.22C467.1 169.06 467.194 168.753 467.274 168.3C467.354 167.833 467.42 167.173 467.474 166.32C467.54 165.453 467.594 164.34 467.634 162.98C467.687 161.62 467.727 159.973 467.754 158.04V157.54ZM463.714 153.34H466.014C466.014 155.047 465.994 156.667 465.954 158.2C465.927 159.733 465.84 161.18 465.694 162.54C465.56 163.887 465.327 165.14 464.994 166.3C464.674 167.447 464.22 168.493 463.634 169.44C463.047 170.387 462.294 171.22 461.374 171.94C461.254 171.74 461.094 171.527 460.894 171.3C460.707 171.073 460.507 170.853 460.294 170.64C460.094 170.44 459.894 170.273 459.694 170.14C460.534 169.5 461.214 168.767 461.734 167.94C462.254 167.1 462.654 166.173 462.934 165.16C463.214 164.133 463.407 163.013 463.514 161.8C463.62 160.573 463.68 159.26 463.694 157.86C463.707 156.447 463.714 154.94 463.714 153.34ZM483.314 160.52V162.64H487.634V160.52H483.314ZM481.114 158.48H489.974V164.7H481.114V158.48ZM485.754 164.1H488.014V168.9C488.014 169.18 488.034 169.36 488.074 169.44C488.114 169.507 488.207 169.54 488.354 169.54C488.394 169.54 488.46 169.54 488.554 169.54C488.66 169.54 488.76 169.54 488.854 169.54C488.96 169.54 489.04 169.54 489.094 169.54C489.2 169.54 489.28 169.48 489.334 169.36C489.4 169.24 489.447 169.007 489.474 168.66C489.514 168.3 489.54 167.753 489.554 167.02C489.7 167.14 489.887 167.26 490.114 167.38C490.354 167.5 490.6 167.607 490.854 167.7C491.12 167.793 491.354 167.867 491.554 167.92C491.5 168.907 491.387 169.667 491.214 170.2C491.054 170.747 490.82 171.12 490.514 171.32C490.22 171.533 489.827 171.64 489.334 171.64C489.254 171.64 489.147 171.64 489.014 171.64C488.894 171.64 488.767 171.64 488.634 171.64C488.514 171.64 488.394 171.64 488.274 171.64C488.154 171.64 488.047 171.64 487.954 171.64C487.354 171.64 486.894 171.553 486.574 171.38C486.254 171.207 486.034 170.92 485.914 170.52C485.807 170.133 485.754 169.6 485.754 168.92V164.1ZM482.394 164.4H484.754C484.7 165.267 484.594 166.073 484.434 166.82C484.287 167.553 484.054 168.233 483.734 168.86C483.414 169.487 482.967 170.047 482.394 170.54C481.834 171.033 481.1 171.467 480.194 171.84C480.114 171.64 479.994 171.42 479.834 171.18C479.674 170.953 479.507 170.727 479.334 170.5C479.16 170.273 478.987 170.087 478.814 169.94C479.574 169.673 480.18 169.36 480.634 169C481.087 168.627 481.434 168.213 481.674 167.76C481.914 167.293 482.08 166.787 482.174 166.24C482.28 165.68 482.354 165.067 482.394 164.4ZM482.974 153.56H487.814V155.72H482.974V153.56ZM481.574 155.34L483.914 155.94C483.58 156.753 483.174 157.587 482.694 158.44C482.227 159.28 481.707 159.987 481.134 160.56C480.894 160.347 480.594 160.12 480.234 159.88C479.874 159.627 479.56 159.427 479.294 159.28C479.8 158.773 480.254 158.153 480.654 157.42C481.067 156.673 481.374 155.98 481.574 155.34ZM485.994 153.56H488.474C488.674 154.2 488.934 154.84 489.254 155.48C489.574 156.107 489.934 156.7 490.334 157.26C490.734 157.82 491.147 158.293 491.574 158.68C491.374 158.8 491.14 158.947 490.874 159.12C490.62 159.293 490.374 159.48 490.134 159.68C489.894 159.867 489.694 160.04 489.534 160.2C488.88 159.48 488.287 158.627 487.754 157.64C487.22 156.653 486.78 155.66 486.434 154.66H485.994V153.56ZM473.434 159.14H479.474V160.96H473.434V159.14ZM473.514 153.64H479.434V155.44H473.514V153.64ZM473.434 161.88H479.474V163.68H473.434V161.88ZM472.494 156.32H480.134V158.22H472.494V156.32ZM474.474 164.64H479.514V170.74H474.474V168.84H477.454V166.54H474.474V164.64ZM473.394 164.64H475.414V171.52H473.394V164.64ZM495.334 154.1H501.094V166.38H495.334V164.2H498.874V156.28H495.334V154.1ZM495.374 159.1H499.734V161.24H495.374V159.1ZM503.914 153.82H510.034V156.04H503.914V153.82ZM503.914 158.58H510.034V160.74H503.914V158.58ZM503.874 163.32H510.014V165.48H503.874V163.32ZM494.074 154.1H496.294V168.12H494.074V154.1ZM509.154 153.82H511.534V169.04C511.534 169.667 511.454 170.153 511.294 170.5C511.147 170.86 510.874 171.14 510.474 171.34C510.074 171.527 509.58 171.647 508.994 171.7C508.407 171.753 507.694 171.78 506.854 171.78C506.814 171.553 506.747 171.293 506.654 171C506.574 170.72 506.474 170.44 506.354 170.16C506.247 169.893 506.134 169.66 506.014 169.46C506.374 169.473 506.734 169.487 507.094 169.5C507.454 169.5 507.774 169.5 508.054 169.5C508.347 169.487 508.547 169.48 508.654 169.48C508.84 169.48 508.967 169.447 509.034 169.38C509.114 169.313 509.154 169.193 509.154 169.02V153.82ZM502.474 153.82H504.834V161.08C504.834 161.933 504.78 162.853 504.674 163.84C504.567 164.827 504.367 165.813 504.074 166.8C503.794 167.773 503.374 168.707 502.814 169.6C502.254 170.48 501.514 171.26 500.594 171.94C500.474 171.78 500.3 171.593 500.074 171.38C499.86 171.18 499.634 170.98 499.394 170.78C499.167 170.58 498.96 170.433 498.774 170.34C499.627 169.713 500.3 169.027 500.794 168.28C501.287 167.52 501.654 166.733 501.894 165.92C502.134 165.093 502.287 164.267 502.354 163.44C502.434 162.613 502.474 161.82 502.474 161.06V153.82Z" fill="white"/>
<circle cx="469.994" cy="200" r="20" fill="white"/>
<path d="M468.758 201.952C468.672 201.258 468.724 200.652 468.914 200.132C469.122 199.612 469.408 199.144 469.772 198.728C470.154 198.312 470.57 197.93 471.02 197.584C471.488 197.237 471.922 196.899 472.32 196.57C472.736 196.24 473.074 195.902 473.334 195.556C473.594 195.209 473.724 194.828 473.724 194.412C473.724 193.892 473.594 193.45 473.334 193.086C473.074 192.722 472.693 192.444 472.19 192.254C471.705 192.063 471.116 191.968 470.422 191.968C469.625 191.968 468.897 192.141 468.238 192.488C467.58 192.834 466.93 193.346 466.288 194.022L464.156 192.046C464.988 191.092 465.968 190.33 467.094 189.758C468.238 189.168 469.495 188.874 470.864 188.874C472.13 188.874 473.248 189.064 474.218 189.446C475.206 189.827 475.978 190.408 476.532 191.188C477.104 191.95 477.39 192.912 477.39 194.074C477.39 194.715 477.252 195.278 476.974 195.764C476.714 196.232 476.368 196.656 475.934 197.038C475.518 197.402 475.076 197.757 474.608 198.104C474.14 198.433 473.707 198.78 473.308 199.144C472.91 199.508 472.598 199.915 472.372 200.366C472.147 200.816 472.06 201.345 472.112 201.952H468.758ZM470.448 208.868C469.79 208.868 469.244 208.651 468.81 208.218C468.377 207.784 468.16 207.238 468.16 206.58C468.16 205.904 468.377 205.349 468.81 204.916C469.244 204.482 469.79 204.266 470.448 204.266C471.107 204.266 471.653 204.482 472.086 204.916C472.52 205.349 472.736 205.904 472.736 206.58C472.736 207.238 472.52 207.784 472.086 208.218C471.653 208.651 471.107 208.868 470.448 208.868Z" fill="#6EE292"/>
</svg>
