<svg width="570" height="318" viewBox="0 0 570 318" fill="none" xmlns="http://www.w3.org/2000/svg">
<path d="M-0.000976562 34.7773H539.999C556.568 34.7773 569.999 48.2088 569.999 64.7773V317.149H29.999C13.4305 317.149 -0.000976562 303.717 -0.000976562 287.149V34.7773Z" fill="#39BF63"/>
<line x1="347.796" y1="223.648" x2="38.6433" y2="223.648" stroke="white"/>
<path d="M163.079 88.7346V91.6466H170.215V88.7346H163.079ZM159.463 85.6626H173.991V94.6866H159.463V85.6626ZM158.471 96.3506H173.575V99.4866H162.215V114.655H158.471V96.3506ZM159.879 101.151H172.839V104.223H159.879V101.151ZM159.879 105.951H172.839V109.023H159.879V105.951ZM171.015 96.3506H174.951V110.719C174.951 111.615 174.844 112.319 174.631 112.831C174.418 113.343 174.012 113.759 173.415 114.079C172.839 114.356 172.135 114.527 171.303 114.591C170.471 114.655 169.5 114.687 168.391 114.687C168.306 114.153 168.156 113.545 167.943 112.863C167.751 112.201 167.538 111.625 167.303 111.135C167.9 111.156 168.519 111.177 169.159 111.199C169.799 111.199 170.226 111.199 170.439 111.199C170.823 111.199 171.015 111.017 171.015 110.655V96.3506ZM145.959 100.863C146.94 100.649 148.06 100.404 149.319 100.127C150.578 99.8493 151.9 99.54 153.287 99.1986C154.674 98.836 156.05 98.484 157.415 98.1426L157.863 101.695C156.007 102.185 154.119 102.687 152.199 103.199C150.279 103.711 148.53 104.159 146.951 104.543L145.959 100.863ZM146.375 90.7186H157.799V94.2706H146.375V90.7186ZM150.343 84.6066H154.087V110.527C154.087 111.444 153.98 112.159 153.767 112.671C153.575 113.204 153.202 113.62 152.647 113.919C152.114 114.196 151.442 114.377 150.631 114.463C149.842 114.548 148.882 114.58 147.751 114.559C147.708 114.089 147.58 113.513 147.367 112.831C147.154 112.169 146.93 111.593 146.695 111.103C147.335 111.124 147.943 111.145 148.519 111.167C149.116 111.167 149.511 111.167 149.703 111.167C149.938 111.145 150.098 111.092 150.183 111.007C150.29 110.921 150.343 110.761 150.343 110.527V84.6066ZM195.047 96.5106V98.3346H204.903V96.5106H195.047ZM195.047 92.3186V94.0786H204.903V92.3186H195.047ZM191.751 89.6306H208.359V101.023H191.751V89.6306ZM193.063 102.399H207.207V114.687H203.559V105.247H196.551V114.687H193.063V102.399ZM203.879 84.5746L207.719 85.6946C207.228 86.5693 206.738 87.412 206.247 88.2226C205.756 89.012 205.308 89.684 204.903 90.2386L201.735 89.2146C202.098 88.5533 202.482 87.796 202.887 86.9426C203.314 86.068 203.644 85.2786 203.879 84.5746ZM192.711 85.8866L195.879 84.7026C196.327 85.364 196.764 86.1106 197.191 86.9426C197.639 87.7533 197.959 88.468 198.151 89.0866L194.759 90.4306C194.61 89.812 194.332 89.0866 193.927 88.2546C193.543 87.4013 193.138 86.612 192.711 85.8866ZM195.175 106.751H205.127V109.439H195.175V106.751ZM195.175 111.007H205.127V113.791H195.175V111.007ZM198.151 90.9746H201.543V99.3906H198.151V90.9746ZM182.247 106.783L185.575 107.551C185.17 108.895 184.626 110.217 183.943 111.519C183.26 112.799 182.535 113.876 181.767 114.751C181.575 114.559 181.298 114.345 180.935 114.111C180.572 113.876 180.21 113.641 179.847 113.407C179.484 113.172 179.175 112.991 178.919 112.863C179.644 112.095 180.295 111.167 180.871 110.079C181.468 108.991 181.927 107.892 182.247 106.783ZM185.991 107.935L188.839 106.719C189.372 107.529 189.895 108.425 190.407 109.407C190.94 110.367 191.346 111.209 191.623 111.935L188.647 113.343C188.498 112.852 188.274 112.297 187.975 111.679C187.698 111.039 187.388 110.399 187.047 109.759C186.706 109.097 186.354 108.489 185.991 107.935ZM183.975 94.6546V97.6626H187.143V94.6546H183.975ZM183.975 100.479V103.487H187.143V100.479H183.975ZM183.975 88.8626V91.8066H187.143V88.8626H183.975ZM180.711 85.8226H190.503V106.559H180.711V85.8226ZM213.287 86.3346H241.927V89.3106H213.287V86.3346ZM218.823 95.4226H238.343V97.3426H218.823V95.4226ZM218.823 98.3986H238.375V100.319H218.823V98.3986ZM218.823 101.375H241.159V103.743H218.823V101.375ZM217.543 111.519H237.927V113.855H217.543V111.519ZM218.087 108.159H226.887V110.207H218.087V108.159ZM228.391 108.159H237.351V110.207H228.391V108.159ZM220.359 84.6066H224.071V90.7186H220.359V84.6066ZM230.919 84.6066H234.695V90.7186H230.919V84.6066ZM225.895 93.3746H229.511V102.623H225.895V93.3746ZM220.071 91.9666H239.815V94.3666H220.071V104.127H216.583V94.5266L219.079 91.9666H220.071ZM226.279 89.8546L230.247 90.1746C229.927 90.8146 229.596 91.412 229.255 91.9666C228.914 92.5 228.615 92.98 228.359 93.4066L225.319 92.9586C225.511 92.468 225.692 91.9346 225.863 91.3586C226.055 90.7826 226.194 90.2813 226.279 89.8546ZM228.135 104.799H239.783V114.655H235.943V107.007H228.135V104.799ZM215.527 104.575L219.335 105.439V114.687H215.527V104.575ZM225.159 103.583L227.431 105.535C226.556 105.855 225.575 106.143 224.487 106.399C223.399 106.633 222.279 106.836 221.127 107.007C219.996 107.177 218.898 107.316 217.831 107.423C217.788 107.145 217.682 106.804 217.511 106.399C217.34 105.993 217.18 105.641 217.031 105.343C218.012 105.215 219.004 105.055 220.007 104.863C221.01 104.671 221.959 104.468 222.855 104.255C223.772 104.041 224.54 103.817 225.159 103.583ZM218.471 89.9186L221.927 90.5266C221.18 91.9986 220.284 93.4493 219.239 94.8786C218.194 96.2866 216.924 97.5986 215.431 98.8146C215.282 98.5586 215.058 98.2813 214.759 97.9826C214.482 97.684 214.183 97.396 213.863 97.1186C213.564 96.8413 213.298 96.628 213.063 96.4786C214.343 95.5186 215.442 94.452 216.359 93.2786C217.276 92.084 217.98 90.964 218.471 89.9186ZM250.407 104.319H271.751V114.751H267.847V106.751H254.119V114.783H250.407V104.319ZM252.359 107.935H269.223V110.143H252.359V107.935ZM252.359 111.391H269.223V113.823H252.359V111.391ZM258.759 84.5106H262.631V102.399H258.759V84.5106ZM249.703 86.5266H271.591V96.0626H249.351V93.7906H267.783V88.7986H249.703V86.5266ZM246.407 89.9506H275.271V92.6066H246.407V89.9506ZM248.647 97.1826H272.903V99.4866H248.647V97.1826ZM246.375 100.671H275.271V103.327H246.375V100.671ZM296.418 96.7346H316.866V100.191H296.418V96.7346ZM297.538 90.2706H315.778V93.6626H297.538V90.2706ZM304.29 91.9346H308.13V97.0546C308.13 98.0786 308.002 99.1453 307.746 100.255C307.511 101.364 307.063 102.473 306.402 103.583C305.762 104.671 304.834 105.727 303.618 106.751C302.423 107.753 300.877 108.671 298.978 109.503C298.807 109.225 298.573 108.916 298.274 108.575C297.975 108.233 297.666 107.892 297.346 107.551C297.026 107.209 296.717 106.932 296.418 106.719C298.231 106.057 299.661 105.321 300.706 104.511C301.773 103.7 302.551 102.857 303.042 101.983C303.554 101.108 303.885 100.255 304.034 99.4226C304.205 98.5693 304.29 97.7693 304.29 97.0226V91.9346ZM308.706 99.1666C309.367 100.937 310.37 102.441 311.714 103.679C313.079 104.895 314.829 105.769 316.962 106.303C316.685 106.559 316.386 106.879 316.066 107.263C315.767 107.647 315.479 108.041 315.202 108.447C314.946 108.831 314.722 109.193 314.53 109.535C312.183 108.767 310.285 107.561 308.834 105.919C307.383 104.276 306.263 102.26 305.474 99.8706L308.706 99.1666ZM295.138 97.0866V108.895H291.394V100.639H287.682V97.0866H295.138ZM295.138 107.231C295.799 108.276 296.727 109.044 297.922 109.535C299.117 110.025 300.546 110.303 302.21 110.367C303.149 110.409 304.258 110.441 305.538 110.463C306.839 110.463 308.205 110.452 309.634 110.431C311.063 110.409 312.461 110.367 313.826 110.303C315.213 110.239 316.439 110.164 317.506 110.079C317.378 110.377 317.229 110.761 317.058 111.231C316.887 111.7 316.727 112.18 316.578 112.671C316.45 113.161 316.354 113.599 316.29 113.983C315.33 114.047 314.231 114.089 312.994 114.111C311.757 114.153 310.487 114.175 309.186 114.175C307.885 114.196 306.626 114.196 305.41 114.175C304.194 114.153 303.106 114.121 302.146 114.079C300.183 113.993 298.509 113.684 297.122 113.151C295.735 112.639 294.509 111.764 293.442 110.527C292.738 111.124 292.013 111.743 291.266 112.383C290.541 113.023 289.741 113.684 288.866 114.367L286.978 110.367C287.725 109.919 288.503 109.428 289.314 108.895C290.125 108.361 290.903 107.807 291.65 107.231H295.138ZM287.714 87.6786L290.562 85.3746C291.223 85.8013 291.895 86.3026 292.578 86.8786C293.261 87.4333 293.901 88.0093 294.498 88.6066C295.095 89.1826 295.575 89.716 295.938 90.2066L292.898 92.7666C292.578 92.2546 292.13 91.7 291.554 91.1026C290.999 90.5053 290.381 89.908 289.698 89.3106C289.015 88.692 288.354 88.148 287.714 87.6786ZM310.914 84.6066L314.818 85.8226C314.242 86.74 313.645 87.6466 313.026 88.5426C312.429 89.4173 311.874 90.164 311.362 90.7826L308.226 89.6946C308.546 89.204 308.877 88.6706 309.218 88.0946C309.559 87.4973 309.879 86.9 310.178 86.3026C310.477 85.684 310.722 85.1186 310.914 84.6066ZM298.37 86.0146L301.602 84.6706C302.199 85.396 302.765 86.2173 303.298 87.1346C303.831 88.052 304.205 88.8626 304.418 89.5666L300.962 91.0386C300.791 90.356 300.45 89.5453 299.938 88.6066C299.447 87.6466 298.925 86.7826 298.37 86.0146Z" fill="white"/>
<path d="M41.4619 246.348H53.1979V248.868H41.4619V246.348ZM39.8059 256.596H57.1579V259.092H39.8059V256.596ZM40.4059 242.292H57.2779V244.86H40.4059V242.292ZM52.0459 246.348H54.9019C54.9019 246.348 54.9019 246.428 54.9019 246.588C54.9019 246.748 54.8939 246.932 54.8779 247.14C54.8779 247.332 54.8779 247.492 54.8779 247.62C54.8139 249.94 54.7419 251.908 54.6619 253.524C54.5819 255.124 54.4939 256.436 54.3979 257.46C54.3019 258.484 54.1819 259.276 54.0379 259.836C53.8939 260.396 53.7259 260.812 53.5339 261.084C53.2619 261.484 52.9659 261.756 52.6459 261.9C52.3259 262.06 51.9579 262.172 51.5419 262.236C51.1579 262.284 50.6779 262.308 50.1019 262.308C49.5259 262.324 48.9259 262.316 48.3019 262.284C48.2859 261.98 48.2139 261.612 48.0859 261.18C47.9739 260.748 47.8219 260.38 47.6299 260.076C48.1739 260.124 48.6619 260.156 49.0939 260.172C49.5419 260.188 49.8939 260.188 50.1499 260.172C50.3579 260.172 50.5259 260.148 50.6539 260.1C50.7819 260.052 50.9019 259.948 51.0139 259.788C51.1579 259.612 51.2779 259.26 51.3739 258.732C51.4859 258.188 51.5819 257.42 51.6619 256.428C51.7419 255.42 51.8139 254.14 51.8779 252.588C51.9419 251.02 51.9979 249.14 52.0459 246.948V246.348ZM40.1179 246.348H42.9979C42.8859 247.484 42.7499 248.676 42.5899 249.924C42.4299 251.156 42.2699 252.388 42.1099 253.62C41.9499 254.836 41.7819 255.996 41.6059 257.1C41.4459 258.188 41.2859 259.172 41.1259 260.052L38.1979 259.836C38.3739 258.972 38.5499 257.988 38.7259 256.884C38.9179 255.78 39.1019 254.628 39.2779 253.428C39.4539 252.228 39.6059 251.028 39.7339 249.828C39.8779 248.612 40.0059 247.452 40.1179 246.348ZM41.2219 239.604L44.2459 240.492C43.7659 241.58 43.2059 242.668 42.5659 243.756C41.9259 244.828 41.2539 245.844 40.5499 246.804C39.8619 247.748 39.1659 248.572 38.4619 249.276C38.2699 249.1 38.0059 248.9 37.6699 248.676C37.3339 248.452 36.9899 248.236 36.6379 248.028C36.3019 247.804 36.0059 247.628 35.7499 247.5C36.4859 246.876 37.1899 246.14 37.8619 245.292C38.5499 244.444 39.1819 243.532 39.7579 242.556C40.3339 241.58 40.8219 240.596 41.2219 239.604ZM44.3659 249.828L45.9499 248.292C46.4139 248.484 46.8939 248.724 47.3899 249.012C47.8859 249.284 48.3499 249.564 48.7819 249.852C49.2139 250.14 49.5739 250.42 49.8619 250.692L48.1819 252.372C47.9259 252.116 47.5819 251.836 47.1499 251.532C46.7339 251.212 46.2779 250.908 45.7819 250.62C45.3019 250.316 44.8299 250.052 44.3659 249.828ZM44.0539 254.796L45.6379 253.26C46.1019 253.468 46.5899 253.716 47.1019 254.004C47.6139 254.292 48.0859 254.588 48.5179 254.892C48.9659 255.196 49.3339 255.492 49.6219 255.78L47.9659 257.484C47.6939 257.196 47.3419 256.892 46.9099 256.572C46.4779 256.236 46.0139 255.916 45.5179 255.612C45.0219 255.308 44.5339 255.036 44.0539 254.796ZM35.8459 251.412H40.9099V251.508H53.3179V251.412H58.2139V253.98H53.3179V253.884H40.9099V253.98H35.8459V251.412ZM69.9499 240.324H73.2619C73.2299 240.996 73.1739 241.86 73.0939 242.916C73.0139 243.972 72.8619 245.148 72.6379 246.444C72.4299 247.724 72.1099 249.068 71.6779 250.476C71.2459 251.884 70.6539 253.292 69.9019 254.7C69.1659 256.092 68.2219 257.428 67.0699 258.708C65.9339 259.972 64.5499 261.1 62.9179 262.092C62.6619 261.724 62.3099 261.332 61.8619 260.916C61.4299 260.5 60.9739 260.124 60.4939 259.788C62.0939 258.892 63.4379 257.868 64.5259 256.716C65.6139 255.564 66.5019 254.356 67.1899 253.092C67.8779 251.812 68.4059 250.532 68.7739 249.252C69.1419 247.956 69.4059 246.732 69.5659 245.58C69.7259 244.428 69.8219 243.396 69.8539 242.484C69.8859 241.572 69.9179 240.852 69.9499 240.324ZM73.1419 240.972C73.1579 241.276 73.1899 241.756 73.2379 242.412C73.2859 243.068 73.3819 243.852 73.5259 244.764C73.6699 245.676 73.8859 246.668 74.1739 247.74C74.4779 248.796 74.8779 249.884 75.3739 251.004C75.8699 252.124 76.4859 253.22 77.2219 254.292C77.9579 255.364 78.8459 256.356 79.8859 257.268C80.9419 258.18 82.1739 258.972 83.5819 259.644C83.1179 259.98 82.6859 260.372 82.2859 260.82C81.9019 261.268 81.5899 261.692 81.3499 262.092C79.8779 261.356 78.5899 260.484 77.4859 259.476C76.3979 258.452 75.4619 257.348 74.6779 256.164C73.9099 254.964 73.2699 253.748 72.7579 252.516C72.2459 251.284 71.8299 250.076 71.5099 248.892C71.2059 247.692 70.9739 246.58 70.8139 245.556C70.6539 244.532 70.5419 243.644 70.4779 242.892C70.4299 242.14 70.3899 241.596 70.3579 241.26L73.1419 240.972ZM97.0699 245.22H105.326V247.572H97.0699V245.22ZM92.9419 259.14C93.6619 259.028 94.4939 258.892 95.4379 258.732C96.3979 258.572 97.4139 258.404 98.4859 258.228C99.5579 258.036 100.622 257.844 101.678 257.652L101.918 260.148C100.526 260.468 99.1259 260.78 97.7179 261.084C96.3099 261.404 95.0299 261.684 93.8779 261.924L92.9419 259.14ZM95.4379 240.828H98.2219V259.788H95.4379V240.828ZM97.0699 240.828H106.646V252.06H97.0699V249.588H103.79V243.3H97.0699V240.828ZM102.062 250.404C102.366 251.844 102.782 253.18 103.31 254.412C103.838 255.628 104.51 256.7 105.326 257.628C106.142 258.556 107.142 259.276 108.326 259.788C108.118 259.98 107.894 260.212 107.654 260.484C107.414 260.772 107.182 261.068 106.958 261.372C106.75 261.692 106.582 261.98 106.454 262.236C105.158 261.548 104.07 260.652 103.19 259.548C102.326 258.428 101.614 257.132 101.054 255.66C100.494 254.188 100.038 252.572 99.6859 250.812L102.062 250.404ZM105.542 252.228L107.798 253.788C107.142 254.428 106.446 255.06 105.71 255.684C104.99 256.292 104.326 256.812 103.718 257.244L101.942 255.876C102.326 255.556 102.734 255.188 103.166 254.772C103.614 254.356 104.046 253.924 104.462 253.476C104.878 253.028 105.238 252.612 105.542 252.228ZM86.7019 240.78H92.6779V243.372H89.3899V262.308H86.7019V240.78ZM91.8859 240.78H92.3899L92.7979 240.684L94.7659 241.812C94.5419 242.516 94.3019 243.26 94.0459 244.044C93.7899 244.828 93.5339 245.604 93.2779 246.372C93.0219 247.14 92.7659 247.836 92.5099 248.46C93.2939 249.388 93.7979 250.268 94.0219 251.1C94.2619 251.916 94.3819 252.676 94.3819 253.38C94.3819 254.18 94.2939 254.836 94.1179 255.348C93.9419 255.86 93.6539 256.26 93.2539 256.548C93.0619 256.692 92.8379 256.804 92.5819 256.884C92.3419 256.964 92.0939 257.028 91.8379 257.076C91.6139 257.108 91.3499 257.124 91.0459 257.124C90.7579 257.124 90.4619 257.124 90.1579 257.124C90.1419 256.756 90.0779 256.324 89.9659 255.828C89.8699 255.332 89.7259 254.908 89.5339 254.556C89.7579 254.572 89.9579 254.58 90.1339 254.58C90.3259 254.58 90.4939 254.58 90.6379 254.58C90.7659 254.58 90.8859 254.564 90.9979 254.532C91.1259 254.484 91.2459 254.428 91.3579 254.364C91.5019 254.252 91.6059 254.084 91.6699 253.86C91.7499 253.62 91.7819 253.332 91.7659 252.996C91.7659 252.436 91.6459 251.796 91.4059 251.076C91.1819 250.34 90.7099 249.572 89.9899 248.772C90.1659 248.228 90.3419 247.628 90.5179 246.972C90.7099 246.316 90.8859 245.66 91.0459 245.004C91.2219 244.332 91.3819 243.708 91.5259 243.132C91.6859 242.54 91.8059 242.052 91.8859 241.668V240.78ZM121.838 239.7L124.502 240.132C123.974 241.412 123.302 242.652 122.486 243.852C121.686 245.052 120.63 246.148 119.318 247.14C119.11 246.82 118.814 246.492 118.43 246.156C118.062 245.804 117.726 245.54 117.422 245.364C118.206 244.836 118.878 244.26 119.438 243.636C120.014 243.012 120.502 242.364 120.902 241.692C121.302 241.004 121.614 240.34 121.838 239.7ZM122.51 241.476H127.214V243.684H121.166L122.51 241.476ZM122.87 247.044H124.91C124.862 247.812 124.758 248.508 124.598 249.132C124.438 249.756 124.166 250.308 123.782 250.788C123.398 251.252 122.846 251.652 122.126 251.988C122.014 251.748 121.838 251.476 121.598 251.172C121.358 250.868 121.134 250.628 120.926 250.452C121.694 250.116 122.198 249.668 122.438 249.108C122.694 248.548 122.838 247.86 122.87 247.044ZM125.822 247.14H127.91V249.084C127.91 249.308 127.926 249.444 127.958 249.492C128.006 249.54 128.118 249.564 128.294 249.564C128.358 249.564 128.446 249.564 128.558 249.564C128.686 249.564 128.814 249.564 128.942 249.564C129.086 249.564 129.182 249.564 129.23 249.564C129.374 249.564 129.47 249.548 129.518 249.516C129.582 249.468 129.63 249.396 129.662 249.3C129.854 249.428 130.126 249.556 130.478 249.684C130.83 249.812 131.15 249.908 131.438 249.972C131.326 250.5 131.118 250.868 130.814 251.076C130.51 251.268 130.086 251.364 129.542 251.364C129.462 251.364 129.35 251.364 129.206 251.364C129.062 251.364 128.91 251.364 128.75 251.364C128.59 251.364 128.438 251.364 128.294 251.364C128.166 251.364 128.062 251.364 127.982 251.364C127.39 251.364 126.934 251.3 126.614 251.172C126.31 251.028 126.102 250.796 125.99 250.476C125.878 250.14 125.822 249.676 125.822 249.084V247.14ZM117.926 254.124H132.854V256.5H117.926V254.124ZM126.83 254.916C127.262 256.292 127.982 257.396 128.99 258.228C129.998 259.044 131.414 259.58 133.238 259.836C132.95 260.108 132.646 260.484 132.326 260.964C132.022 261.444 131.79 261.868 131.63 262.236C130.206 261.932 129.022 261.476 128.078 260.868C127.134 260.26 126.366 259.492 125.774 258.564C125.182 257.62 124.71 256.5 124.358 255.204L126.83 254.916ZM121.358 245.412H130.238V247.668H121.358V253.38H118.982V245.412H119.006H121.358ZM129.614 245.412H132.062V253.356H129.614V245.412ZM126.254 241.476H126.854L127.262 241.356L129.086 242.508C128.846 242.988 128.566 243.508 128.246 244.068C127.942 244.612 127.622 245.14 127.286 245.652C126.95 246.148 126.63 246.596 126.326 246.996C126.086 246.82 125.774 246.612 125.39 246.372C125.006 246.132 124.67 245.94 124.382 245.796C124.622 245.444 124.862 245.036 125.102 244.572C125.358 244.108 125.582 243.644 125.774 243.18C125.982 242.7 126.142 242.292 126.254 241.956V241.476ZM124.022 252.18H126.638C126.558 253.524 126.398 254.74 126.158 255.828C125.918 256.916 125.51 257.876 124.934 258.708C124.358 259.54 123.534 260.252 122.462 260.844C121.39 261.452 119.982 261.956 118.238 262.356C118.126 262.02 117.926 261.628 117.638 261.18C117.366 260.748 117.102 260.396 116.846 260.124C118.398 259.836 119.638 259.468 120.566 259.02C121.494 258.556 122.19 258.004 122.654 257.364C123.134 256.724 123.462 255.98 123.638 255.132C123.83 254.268 123.958 253.284 124.022 252.18ZM110.39 251.82C111.35 251.612 112.494 251.332 113.822 250.98C115.166 250.628 116.518 250.26 117.878 249.876L118.238 252.468C117.006 252.836 115.758 253.204 114.494 253.572C113.246 253.94 112.086 254.276 111.014 254.58L110.39 251.82ZM110.774 244.308H118.118V246.948H110.774V244.308ZM113.294 239.772H115.934V259.26C115.934 259.916 115.862 260.436 115.718 260.82C115.59 261.22 115.342 261.532 114.974 261.756C114.622 261.98 114.174 262.132 113.63 262.212C113.102 262.292 112.438 262.324 111.638 262.308C111.606 261.956 111.518 261.516 111.374 260.988C111.23 260.476 111.07 260.028 110.894 259.644C111.342 259.66 111.75 259.676 112.118 259.692C112.502 259.692 112.766 259.684 112.91 259.668C113.054 259.668 113.15 259.644 113.198 259.596C113.262 259.532 113.294 259.42 113.294 259.26V239.772ZM140.174 260.148V257.292H145.454V246.012H141.278V243.804C142.398 243.596 143.366 243.412 144.182 243.252C144.998 243.076 145.734 242.764 146.39 242.316H148.982V257.292H153.782V260.148H140.174ZM161.222 244.428H182.438V247.356H161.222V244.428ZM166.142 255.3H177.302V258.228H166.142V255.3ZM170.27 239.772H173.318V262.308H170.27V239.772ZM169.406 245.484L172.046 246.324C171.358 248.052 170.526 249.7 169.55 251.268C168.574 252.836 167.478 254.26 166.262 255.54C165.062 256.804 163.766 257.884 162.374 258.78C162.214 258.54 162.006 258.276 161.75 257.988C161.494 257.684 161.238 257.388 160.982 257.1C160.742 256.796 160.502 256.556 160.262 256.38C161.254 255.836 162.206 255.172 163.118 254.388C164.03 253.604 164.878 252.732 165.662 251.772C166.462 250.812 167.174 249.804 167.798 248.748C168.438 247.676 168.974 246.588 169.406 245.484ZM174.206 245.556C174.782 246.964 175.534 248.348 176.462 249.708C177.406 251.052 178.478 252.276 179.678 253.38C180.878 254.484 182.142 255.388 183.47 256.092C183.23 256.284 182.966 256.532 182.678 256.836C182.406 257.14 182.142 257.46 181.886 257.796C181.63 258.116 181.414 258.412 181.238 258.684C179.846 257.82 178.542 256.764 177.326 255.516C176.126 254.252 175.046 252.844 174.086 251.292C173.126 249.74 172.294 248.116 171.59 246.42L174.206 245.556Z" fill="white"/>
<path d="M58.4099 143.66H66.0079V188.61C66.0079 190.776 65.7372 192.4 65.1959 193.482C64.6545 194.565 63.7265 195.396 62.4119 195.976C61.0585 196.518 59.3572 196.866 57.3079 197.02C55.2972 197.214 52.8805 197.291 50.0579 197.252C49.9419 196.595 49.7292 195.822 49.4199 194.932C49.1105 194.082 48.7625 193.212 48.3759 192.322C48.0279 191.433 47.6605 190.679 47.2739 190.06C48.5499 190.099 49.8259 190.138 51.1019 190.176C52.3779 190.215 53.5185 190.234 54.5239 190.234C55.5292 190.196 56.2445 190.176 56.6699 190.176C57.2885 190.176 57.7332 190.06 58.0039 189.828C58.2745 189.596 58.4099 189.19 58.4099 188.61V143.66ZM72.3299 158.914L79.1739 156.362C80.7592 159.108 82.2865 162.046 83.7559 165.178C85.2639 168.272 86.5785 171.326 87.6999 174.342C88.8599 177.32 89.6912 180.026 90.1939 182.462L82.5379 185.478C82.1512 183.12 81.4359 180.432 80.3919 177.416C79.3865 174.362 78.1685 171.23 76.7379 168.02C75.3459 164.772 73.8765 161.737 72.3299 158.914ZM43.2139 157L51.1019 158.334C50.4445 161.196 49.6519 164.25 48.7239 167.498C47.7959 170.708 46.6939 173.782 45.4179 176.72C44.1805 179.62 42.7499 182.153 41.1259 184.318C40.5459 183.893 39.8305 183.448 38.9799 182.984C38.1679 182.52 37.3365 182.095 36.4859 181.708C35.6739 181.283 34.9392 180.935 34.2819 180.664C35.8672 178.692 37.2399 176.353 38.3999 173.646C39.5985 170.901 40.6039 168.078 41.4159 165.178C42.2279 162.24 42.8272 159.514 43.2139 157ZM123.486 167.44C124.607 171.423 126.193 174.98 128.242 178.112C130.291 181.244 132.901 183.874 136.072 186C139.281 188.088 143.167 189.635 147.73 190.64C147.189 191.143 146.609 191.8 145.99 192.612C145.41 193.424 144.83 194.256 144.25 195.106C143.709 195.957 143.264 196.73 142.916 197.426C137.967 196.034 133.81 194.062 130.446 191.51C127.082 188.958 124.298 185.788 122.094 181.998C119.929 178.209 118.131 173.82 116.7 168.832L123.486 167.44ZM95.9939 164.54H144.25V171.674H95.9939V164.54ZM94.1959 146.734H145.816V153.868H94.1959V146.734ZM115.772 148.648H123.196V162.916C123.196 165.352 123.022 167.904 122.674 170.572C122.326 173.202 121.649 175.812 120.644 178.402C119.639 180.954 118.169 183.41 116.236 185.768C114.303 188.127 111.751 190.292 108.58 192.264C105.448 194.275 101.562 196.015 96.9219 197.484C96.6512 196.866 96.2645 196.17 95.7619 195.396C95.2592 194.623 94.7179 193.85 94.1379 193.076C93.5965 192.342 93.0745 191.723 92.5719 191.22C96.7092 190.022 100.17 188.591 102.954 186.928C105.777 185.227 108.039 183.39 109.74 181.418C111.441 179.446 112.717 177.416 113.568 175.328C114.419 173.24 114.999 171.133 115.308 169.006C115.617 166.841 115.772 164.792 115.772 162.858V148.648ZM152.022 147.14H204.048V154.158H152.022V147.14ZM173.076 153.404H180.558V197.194H173.076V153.404ZM177.02 167.498L181.776 161.93C183.361 162.704 185.063 163.593 186.88 164.598C188.736 165.565 190.573 166.59 192.39 167.672C194.207 168.755 195.928 169.818 197.552 170.862C199.176 171.868 200.529 172.834 201.612 173.762L196.45 180.142C195.445 179.214 194.169 178.209 192.622 177.126C191.114 176.005 189.451 174.884 187.634 173.762C185.855 172.641 184.057 171.539 182.24 170.456C180.423 169.335 178.683 168.349 177.02 167.498ZM233.222 145.806H256.828V152.186H233.222V145.806ZM231.25 165.932H263.324V172.544H231.25V165.932ZM243.546 159.204H250.506V189.596C250.506 191.336 250.293 192.709 249.868 193.714C249.443 194.72 248.669 195.493 247.548 196.034C246.388 196.576 244.996 196.924 243.372 197.078C241.787 197.272 239.931 197.349 237.804 197.31C237.649 196.344 237.321 195.203 236.818 193.888C236.315 192.574 235.813 191.433 235.31 190.466C236.779 190.505 238.191 190.544 239.544 190.582C240.897 190.621 241.825 190.621 242.328 190.582C242.792 190.582 243.101 190.505 243.256 190.35C243.449 190.196 243.546 189.925 243.546 189.538V159.204ZM254.276 145.806H256.016L257.408 145.4L261.932 148.822C260.811 150.524 259.535 152.302 258.104 154.158C256.712 155.976 255.243 157.735 253.696 159.436C252.149 161.099 250.622 162.568 249.114 163.844C248.65 163.226 248.012 162.51 247.2 161.698C246.388 160.886 245.692 160.248 245.112 159.784C246.272 158.702 247.451 157.406 248.65 155.898C249.849 154.39 250.931 152.863 251.898 151.316C252.903 149.77 253.696 148.416 254.276 147.256V145.806ZM209.152 154.39H227.944V160.886H209.152V154.39ZM216.982 142.848L223.478 143.544C222.937 146.638 222.318 149.886 221.622 153.288C220.965 156.691 220.269 160.094 219.534 163.496C218.799 166.86 218.065 170.128 217.33 173.298C216.595 176.43 215.88 179.292 215.184 181.882L209.5 178.924C210.157 176.643 210.815 174.033 211.472 171.094C212.168 168.156 212.845 165.062 213.502 161.814C214.159 158.528 214.778 155.28 215.358 152.07C215.977 148.822 216.518 145.748 216.982 142.848ZM212.574 177.938L216.344 173.008C218.355 174.284 220.462 175.715 222.666 177.3C224.909 178.886 226.977 180.49 228.872 182.114C230.805 183.738 232.333 185.285 233.454 186.754L229.278 192.38C228.195 190.911 226.726 189.326 224.87 187.624C223.014 185.884 221.003 184.164 218.838 182.462C216.711 180.761 214.623 179.253 212.574 177.938ZM225.508 154.39H226.668L227.886 154.274L232.004 154.97C231.579 162.51 230.631 169.026 229.162 174.516C227.731 179.968 225.721 184.57 223.13 188.32C220.578 192.071 217.369 195.145 213.502 197.542C213.077 196.692 212.458 195.706 211.646 194.584C210.834 193.502 210.061 192.651 209.326 192.032C212.613 190.292 215.397 187.74 217.678 184.376C219.959 181.012 221.738 176.914 223.014 172.08C224.329 167.247 225.16 161.795 225.508 155.724V154.39ZM275.098 178.576H313.784V197.484H306.708V182.984H281.826V197.542H275.098V178.576ZM278.636 185.13H309.202V189.132H278.636V185.13ZM278.636 191.394H309.202V195.802H278.636V191.394ZM290.236 142.674H297.254V175.096H290.236V142.674ZM273.822 146.328H313.494V163.612H273.184V159.494H306.592V150.446H273.822V146.328ZM267.848 152.534H320.164V157.348H267.848V152.534ZM271.908 165.642H315.872V169.818H271.908V165.642ZM267.79 171.964H320.164V176.778H267.79V171.964Z" fill="white"/>
<ellipse cx="76.3214" cy="68.0068" rx="54.1017" ry="56" fill="#6EE292"/>
<path d="M78.3312 103.001C74.3539 103.001 70.5423 102.362 66.8965 101.084C63.2507 99.7815 60.0073 97.7218 57.1664 94.9046C54.3255 92.0637 52.0883 88.3468 50.4547 83.754C48.8212 79.1375 48.0163 73.5149 48.04 66.8861C48.0636 60.8965 48.7975 55.5225 50.2417 50.7639C51.6858 45.9817 53.7455 41.9216 56.4207 38.5835C59.1195 35.2455 62.3392 32.7005 66.0797 30.9486C69.844 29.173 74.0461 28.2852 78.6863 28.2852C83.7762 28.2852 88.2625 29.2796 92.1451 31.2682C96.0513 33.2332 99.1763 35.8847 101.52 39.2227C103.864 42.5371 105.249 46.2303 105.675 50.3023H88.3809C87.8601 48.0059 86.7118 46.2658 84.9363 45.0821C83.1844 43.8747 81.1011 43.271 78.6863 43.271C74.2355 43.271 70.9093 45.2005 68.7076 49.0594C66.5296 52.9183 65.4169 58.0793 65.3695 64.5423H65.8312C66.8255 62.3643 68.2578 60.4941 70.128 58.9316C71.9983 57.3691 74.1408 56.1735 76.5556 55.3449C78.994 54.4926 81.5745 54.0665 84.2971 54.0665C88.6531 54.0665 92.5002 55.0726 95.8383 57.085C99.1763 59.0973 101.792 61.8553 103.686 65.3591C105.58 68.8392 106.515 72.8283 106.492 77.3264C106.515 82.3927 105.332 86.8672 102.941 90.7497C100.549 94.6086 97.2351 97.6153 92.9974 99.7696C88.7833 101.924 83.8946 103.001 78.3312 103.001ZM78.2246 89.5068C80.379 89.5068 82.3084 88.9978 84.013 87.9798C85.7175 86.9619 87.0551 85.5769 88.0258 83.825C88.9964 82.0731 89.4699 80.0963 89.4462 77.8946C89.4699 75.6692 88.9964 73.6924 88.0258 71.9642C87.0788 70.236 85.753 68.8629 84.0485 67.8449C82.3676 66.8269 80.4382 66.3179 78.2601 66.3179C76.674 66.3179 75.1943 66.6138 73.8212 67.2057C72.4481 67.7976 71.2526 68.6262 70.2346 69.6915C69.2403 70.7332 68.459 71.9642 67.8908 73.3847C67.3226 74.7815 67.0267 76.2966 67.003 77.9301C67.0267 80.0845 67.5239 82.0376 68.4945 83.7895C69.4652 85.5414 70.7909 86.9382 72.4718 87.9798C74.1527 88.9978 76.0703 89.5068 78.2246 89.5068Z" fill="white"/>
<path d="M519.5 89.5L411 109.5L411.5 137L522 118.5L519.5 89.5Z" fill="#93FFB4"/>
<path d="M527.5 101L411.074 109.5V248.372L527.5 256.5V101Z" fill="#6EE292"/>
<ellipse cx="469.681" cy="199" rx="19.322" ry="20" fill="white"/>
<path d="M467.562 201.4C467.475 200.707 467.527 200.1 467.718 199.58C467.926 199.06 468.212 198.592 468.576 198.176C468.957 197.76 469.373 197.379 469.824 197.032C470.292 196.685 470.725 196.347 471.124 196.018C471.54 195.689 471.878 195.351 472.138 195.004C472.398 194.657 472.528 194.276 472.528 193.86C472.528 193.34 472.398 192.898 472.138 192.534C471.878 192.17 471.496 191.893 470.994 191.702C470.508 191.511 469.919 191.416 469.226 191.416C468.428 191.416 467.7 191.589 467.042 191.936C466.383 192.283 465.733 192.794 465.092 193.47L462.96 191.494C463.792 190.541 464.771 189.778 465.898 189.206C467.042 188.617 468.298 188.322 469.668 188.322C470.933 188.322 472.051 188.513 473.022 188.894C474.01 189.275 474.781 189.856 475.336 190.636C475.908 191.399 476.194 192.361 476.194 193.522C476.194 194.163 476.055 194.727 475.778 195.212C475.518 195.68 475.171 196.105 474.738 196.486C474.322 196.85 473.88 197.205 473.412 197.552C472.944 197.881 472.51 198.228 472.112 198.592C471.713 198.956 471.401 199.363 471.176 199.814C470.95 200.265 470.864 200.793 470.916 201.4H467.562ZM469.252 208.316C468.593 208.316 468.047 208.099 467.614 207.666C467.18 207.233 466.964 206.687 466.964 206.028C466.964 205.352 467.18 204.797 467.614 204.364C468.047 203.931 468.593 203.714 469.252 203.714C469.91 203.714 470.456 203.931 470.89 204.364C471.323 204.797 471.54 205.352 471.54 206.028C471.54 206.687 471.323 207.233 470.89 207.666C470.456 208.099 469.91 208.316 469.252 208.316Z" fill="#39BF63"/>
<path d="M437.76 145.96L439.98 146.32C439.54 147.387 438.98 148.42 438.3 149.42C437.633 150.42 436.753 151.333 435.66 152.16C435.487 151.893 435.24 151.62 434.92 151.34C434.613 151.047 434.333 150.827 434.08 150.68C434.733 150.24 435.293 149.76 435.76 149.24C436.24 148.72 436.647 148.18 436.98 147.62C437.313 147.047 437.573 146.493 437.76 145.96ZM438.32 147.44H442.24V149.28H437.2L438.32 147.44ZM438.62 152.08H440.32C440.28 152.72 440.193 153.3 440.06 153.82C439.927 154.34 439.7 154.8 439.38 155.2C439.06 155.587 438.6 155.92 438 156.2C437.907 156 437.76 155.773 437.56 155.52C437.36 155.267 437.173 155.067 437 154.92C437.64 154.64 438.06 154.267 438.26 153.8C438.473 153.333 438.593 152.76 438.62 152.08ZM441.08 152.16H442.82V153.78C442.82 153.967 442.833 154.08 442.86 154.12C442.9 154.16 442.993 154.18 443.14 154.18C443.193 154.18 443.267 154.18 443.36 154.18C443.467 154.18 443.573 154.18 443.68 154.18C443.8 154.18 443.88 154.18 443.92 154.18C444.04 154.18 444.12 154.167 444.16 154.14C444.213 154.1 444.253 154.04 444.28 153.96C444.44 154.067 444.667 154.173 444.96 154.28C445.253 154.387 445.52 154.467 445.76 154.52C445.667 154.96 445.493 155.267 445.24 155.44C444.987 155.6 444.633 155.68 444.18 155.68C444.113 155.68 444.02 155.68 443.9 155.68C443.78 155.68 443.653 155.68 443.52 155.68C443.387 155.68 443.26 155.68 443.14 155.68C443.033 155.68 442.947 155.68 442.88 155.68C442.387 155.68 442.007 155.627 441.74 155.52C441.487 155.4 441.313 155.207 441.22 154.94C441.127 154.66 441.08 154.273 441.08 153.78V152.16ZM434.5 157.98H446.94V159.96H434.5V157.98ZM441.92 158.64C442.28 159.787 442.88 160.707 443.72 161.4C444.56 162.08 445.74 162.527 447.26 162.74C447.02 162.967 446.767 163.28 446.5 163.68C446.247 164.08 446.053 164.433 445.92 164.74C444.733 164.487 443.747 164.107 442.96 163.6C442.173 163.093 441.533 162.453 441.04 161.68C440.547 160.893 440.153 159.96 439.86 158.88L441.92 158.64ZM437.36 150.72H444.76V152.6H437.36V157.36H435.38V150.72H435.4H437.36ZM444.24 150.72H446.28V157.34H444.24V150.72ZM441.44 147.44H441.94L442.28 147.34L443.8 148.3C443.6 148.7 443.367 149.133 443.1 149.6C442.847 150.053 442.58 150.493 442.3 150.92C442.02 151.333 441.753 151.707 441.5 152.04C441.3 151.893 441.04 151.72 440.72 151.52C440.4 151.32 440.12 151.16 439.88 151.04C440.08 150.747 440.28 150.407 440.48 150.02C440.693 149.633 440.88 149.247 441.04 148.86C441.213 148.46 441.347 148.12 441.44 147.84V147.44ZM439.58 156.36H441.76C441.693 157.48 441.56 158.493 441.36 159.4C441.16 160.307 440.82 161.107 440.34 161.8C439.86 162.493 439.173 163.087 438.28 163.58C437.387 164.087 436.213 164.507 434.76 164.84C434.667 164.56 434.5 164.233 434.26 163.86C434.033 163.5 433.813 163.207 433.6 162.98C434.893 162.74 435.927 162.433 436.7 162.06C437.473 161.673 438.053 161.213 438.44 160.68C438.84 160.147 439.113 159.527 439.26 158.82C439.42 158.1 439.527 157.28 439.58 156.36ZM428.22 156.06C429.02 155.887 429.973 155.653 431.08 155.36C432.2 155.067 433.327 154.76 434.46 154.44L434.76 156.6C433.733 156.907 432.693 157.213 431.64 157.52C430.6 157.827 429.633 158.107 428.74 158.36L428.22 156.06ZM428.54 149.8H434.66V152H428.54V149.8ZM430.64 146.02H432.84V162.26C432.84 162.807 432.78 163.24 432.66 163.56C432.553 163.893 432.347 164.153 432.04 164.34C431.747 164.527 431.373 164.653 430.92 164.72C430.48 164.787 429.927 164.813 429.26 164.8C429.233 164.507 429.16 164.14 429.04 163.7C428.92 163.273 428.787 162.9 428.64 162.58C429.013 162.593 429.353 162.607 429.66 162.62C429.98 162.62 430.2 162.613 430.32 162.6C430.44 162.6 430.52 162.58 430.56 162.54C430.613 162.487 430.64 162.393 430.64 162.26V146.02ZM452.08 158.32H465.42V164.84H462.98V159.84H454.4V164.86H452.08V158.32ZM453.3 160.58H463.84V161.96H453.3V160.58ZM453.3 162.74H463.84V164.26H453.3V162.74ZM457.3 145.94H459.72V157.12H457.3V145.94ZM451.64 147.2H465.32V153.16H451.42V151.74H462.94V148.62H451.64V147.2ZM449.58 149.34H467.62V151H449.58V149.34ZM450.98 153.86H466.14V155.3H450.98V153.86ZM449.56 156.04H467.62V157.7H449.56V156.04ZM480.82 153.52V155.64H485.14V153.52H480.82ZM478.62 151.48H487.48V157.7H478.62V151.48ZM483.26 157.1H485.52V161.9C485.52 162.18 485.54 162.36 485.58 162.44C485.62 162.507 485.713 162.54 485.86 162.54C485.9 162.54 485.967 162.54 486.06 162.54C486.167 162.54 486.267 162.54 486.36 162.54C486.467 162.54 486.547 162.54 486.6 162.54C486.707 162.54 486.787 162.48 486.84 162.36C486.907 162.24 486.953 162.007 486.98 161.66C487.02 161.3 487.047 160.753 487.06 160.02C487.207 160.14 487.393 160.26 487.62 160.38C487.86 160.5 488.107 160.607 488.36 160.7C488.627 160.793 488.86 160.867 489.06 160.92C489.007 161.907 488.893 162.667 488.72 163.2C488.56 163.747 488.327 164.12 488.02 164.32C487.727 164.533 487.333 164.64 486.84 164.64C486.76 164.64 486.653 164.64 486.52 164.64C486.4 164.64 486.273 164.64 486.14 164.64C486.02 164.64 485.9 164.64 485.78 164.64C485.66 164.64 485.553 164.64 485.46 164.64C484.86 164.64 484.4 164.553 484.08 164.38C483.76 164.207 483.54 163.92 483.42 163.52C483.313 163.133 483.26 162.6 483.26 161.92V157.1ZM479.9 157.4H482.26C482.207 158.267 482.1 159.073 481.94 159.82C481.793 160.553 481.56 161.233 481.24 161.86C480.92 162.487 480.473 163.047 479.9 163.54C479.34 164.033 478.607 164.467 477.7 164.84C477.62 164.64 477.5 164.42 477.34 164.18C477.18 163.953 477.013 163.727 476.84 163.5C476.667 163.273 476.493 163.087 476.32 162.94C477.08 162.673 477.687 162.36 478.14 162C478.593 161.627 478.94 161.213 479.18 160.76C479.42 160.293 479.587 159.787 479.68 159.24C479.787 158.68 479.86 158.067 479.9 157.4ZM480.48 146.56H485.32V148.72H480.48V146.56ZM479.08 148.34L481.42 148.94C481.087 149.753 480.68 150.587 480.2 151.44C479.733 152.28 479.213 152.987 478.64 153.56C478.4 153.347 478.1 153.12 477.74 152.88C477.38 152.627 477.067 152.427 476.8 152.28C477.307 151.773 477.76 151.153 478.16 150.42C478.573 149.673 478.88 148.98 479.08 148.34ZM483.5 146.56H485.98C486.18 147.2 486.44 147.84 486.76 148.48C487.08 149.107 487.44 149.7 487.84 150.26C488.24 150.82 488.653 151.293 489.08 151.68C488.88 151.8 488.647 151.947 488.38 152.12C488.127 152.293 487.88 152.48 487.64 152.68C487.4 152.867 487.2 153.04 487.04 153.2C486.387 152.48 485.793 151.627 485.26 150.64C484.727 149.653 484.287 148.66 483.94 147.66H483.5V146.56ZM470.94 152.14H476.98V153.96H470.94V152.14ZM471.02 146.64H476.94V148.44H471.02V146.64ZM470.94 154.88H476.98V156.68H470.94V154.88ZM470 149.32H477.64V151.22H470V149.32ZM471.98 157.64H477.02V163.74H471.98V161.84H474.96V159.54H471.98V157.64ZM470.9 157.64H472.92V164.52H470.9V157.64ZM492.84 147.1H498.6V159.38H492.84V157.2H496.38V149.28H492.84V147.1ZM492.88 152.1H497.24V154.24H492.88V152.1ZM501.42 146.82H507.54V149.04H501.42V146.82ZM501.42 151.58H507.54V153.74H501.42V151.58ZM501.38 156.32H507.52V158.48H501.38V156.32ZM491.58 147.1H493.8V161.12H491.58V147.1ZM506.66 146.82H509.04V162.04C509.04 162.667 508.96 163.153 508.8 163.5C508.653 163.86 508.38 164.14 507.98 164.34C507.58 164.527 507.087 164.647 506.5 164.7C505.913 164.753 505.2 164.78 504.36 164.78C504.32 164.553 504.253 164.293 504.16 164C504.08 163.72 503.98 163.44 503.86 163.16C503.753 162.893 503.64 162.66 503.52 162.46C503.88 162.473 504.24 162.487 504.6 162.5C504.96 162.5 505.28 162.5 505.56 162.5C505.853 162.487 506.053 162.48 506.16 162.48C506.347 162.48 506.473 162.447 506.54 162.38C506.62 162.313 506.66 162.193 506.66 162.02V146.82ZM499.98 146.82H502.34V154.08C502.34 154.933 502.287 155.853 502.18 156.84C502.073 157.827 501.873 158.813 501.58 159.8C501.3 160.773 500.88 161.707 500.32 162.6C499.76 163.48 499.02 164.26 498.1 164.94C497.98 164.78 497.807 164.593 497.58 164.38C497.367 164.18 497.14 163.98 496.9 163.78C496.673 163.58 496.467 163.433 496.28 163.34C497.133 162.713 497.807 162.027 498.3 161.28C498.793 160.52 499.16 159.733 499.4 158.92C499.64 158.093 499.793 157.267 499.86 156.44C499.94 155.613 499.98 154.82 499.98 154.06V146.82Z" fill="white"/>
</svg>
