<svg width="570" height="312" viewBox="0 0 570 312" fill="none" xmlns="http://www.w3.org/2000/svg">
<path d="M-0.00195312 29.5352H539.998C556.567 29.5352 569.998 42.9666 569.998 59.5352V311.907H29.998C13.4295 311.907 -0.00195312 298.475 -0.00195312 281.907V29.5352Z" fill="#FF5F17"/>
<line x1="347.795" y1="219.406" x2="38.6424" y2="219.406" stroke="white"/>
<path d="M167.616 105.288H175.808V108.968H167.616V105.288ZM149.6 87.56H161.312V91.304H149.6V87.56ZM165.888 85.48H177.536V110.984H173.696V89.192H169.568V111.208H165.888V85.48ZM160.384 87.56H164.096C164.096 87.56 164.096 87.6773 164.096 87.912C164.096 88.1253 164.096 88.3707 164.096 88.648C164.096 88.9253 164.085 89.1493 164.064 89.32C164 92.7333 163.925 95.6453 163.84 98.056C163.776 100.445 163.691 102.408 163.584 103.944C163.499 105.48 163.371 106.685 163.2 107.56C163.029 108.435 162.816 109.053 162.56 109.416C162.197 109.949 161.824 110.333 161.44 110.568C161.056 110.803 160.597 110.973 160.064 111.08C159.595 111.187 159.019 111.24 158.336 111.24C157.653 111.261 156.939 111.251 156.192 111.208C156.171 110.653 156.064 110.003 155.872 109.256C155.68 108.531 155.424 107.901 155.104 107.368C155.744 107.411 156.331 107.443 156.864 107.464C157.397 107.485 157.813 107.496 158.112 107.496C158.347 107.496 158.549 107.453 158.72 107.368C158.891 107.283 159.051 107.123 159.2 106.888C159.371 106.653 159.52 106.163 159.648 105.416C159.776 104.669 159.883 103.581 159.968 102.152C160.053 100.723 160.128 98.888 160.192 96.648C160.256 94.3867 160.32 91.6347 160.384 88.392V87.56ZM153.408 82.28H157.184C157.184 85.4373 157.131 88.456 157.024 91.336C156.939 94.1947 156.725 96.8827 156.384 99.4C156.043 101.917 155.477 104.232 154.688 106.344C153.92 108.435 152.843 110.28 151.456 111.88C151.264 111.56 151.008 111.219 150.688 110.856C150.368 110.493 150.027 110.152 149.664 109.832C149.301 109.512 148.96 109.256 148.64 109.064C149.643 107.933 150.443 106.664 151.04 105.256C151.659 103.827 152.128 102.269 152.448 100.584C152.789 98.8987 153.024 97.096 153.152 95.176C153.28 93.2347 153.355 91.1867 153.376 89.032C153.397 86.856 153.408 84.6053 153.408 82.28ZM188.608 83.592H197.696V87.496H188.608V83.592ZM195.808 83.592H199.776C199.776 84.616 199.819 85.7787 199.904 87.08C199.989 88.36 200.171 89.736 200.448 91.208C200.725 92.6587 201.141 94.152 201.696 95.688C202.251 97.224 202.987 98.7493 203.904 100.264C204.843 101.757 206.016 103.197 207.424 104.584C208.832 105.971 210.517 107.251 212.48 108.424C212.203 108.637 211.861 108.947 211.456 109.352C211.051 109.757 210.656 110.173 210.272 110.6C209.909 111.048 209.611 111.443 209.376 111.784C207.371 110.547 205.632 109.16 204.16 107.624C202.688 106.067 201.451 104.424 200.448 102.696C199.445 100.947 198.635 99.1867 198.016 97.416C197.397 95.624 196.928 93.8853 196.608 92.2C196.288 90.4933 196.075 88.904 195.968 87.432C195.861 85.96 195.808 84.68 195.808 83.592ZM194.432 90.632L198.816 91.432C198.091 94.5893 197.12 97.4587 195.904 100.04C194.688 102.621 193.227 104.893 191.52 106.856C189.835 108.819 187.883 110.472 185.664 111.816C185.429 111.539 185.099 111.197 184.672 110.792C184.245 110.408 183.797 110.013 183.328 109.608C182.88 109.224 182.485 108.915 182.144 108.68C185.493 106.995 188.16 104.627 190.144 101.576C192.128 98.504 193.557 94.856 194.432 90.632ZM229.024 83.432H242.048V86.952H229.024V83.432ZM227.936 94.536H245.632V98.184H227.936V94.536ZM234.72 90.824H238.56V107.592C238.56 108.552 238.443 109.309 238.208 109.864C237.973 110.419 237.547 110.845 236.928 111.144C236.288 111.443 235.52 111.635 234.624 111.72C233.749 111.827 232.725 111.869 231.552 111.848C231.467 111.315 231.285 110.685 231.008 109.96C230.731 109.235 230.453 108.605 230.176 108.072C230.987 108.093 231.765 108.115 232.512 108.136C233.259 108.157 233.771 108.157 234.048 108.136C234.304 108.136 234.475 108.093 234.56 108.008C234.667 107.923 234.72 107.773 234.72 107.56V90.824ZM240.64 83.432H241.6L242.368 83.208L244.864 85.096C244.245 86.0347 243.541 87.016 242.752 88.04C241.984 89.0427 241.173 90.0133 240.32 90.952C239.467 91.8693 238.624 92.68 237.792 93.384C237.536 93.0427 237.184 92.648 236.736 92.2C236.288 91.752 235.904 91.4 235.584 91.144C236.224 90.5467 236.875 89.832 237.536 89C238.197 88.168 238.795 87.3253 239.328 86.472C239.883 85.6187 240.32 84.872 240.64 84.232V83.432ZM215.744 88.168H226.112V91.752H215.744V88.168ZM220.064 81.8L223.648 82.184C223.349 83.8907 223.008 85.6827 222.624 87.56C222.261 89.4373 221.877 91.3147 221.472 93.192C221.067 95.048 220.661 96.8507 220.256 98.6C219.851 100.328 219.456 101.907 219.072 103.336L215.936 101.704C216.299 100.445 216.661 99.0053 217.024 97.384C217.408 95.7627 217.781 94.056 218.144 92.264C218.507 90.4507 218.848 88.6587 219.168 86.888C219.509 85.096 219.808 83.4 220.064 81.8ZM217.632 101.16L219.712 98.44C220.821 99.144 221.984 99.9333 223.2 100.808C224.437 101.683 225.579 102.568 226.624 103.464C227.691 104.36 228.533 105.213 229.152 106.024L226.848 109.128C226.251 108.317 225.44 107.443 224.416 106.504C223.392 105.544 222.283 104.595 221.088 103.656C219.915 102.717 218.763 101.885 217.632 101.16ZM224.768 88.168H225.408L226.08 88.104L228.352 88.488C228.117 92.648 227.595 96.2427 226.784 99.272C225.995 102.28 224.885 104.819 223.456 106.888C222.048 108.957 220.277 110.653 218.144 111.976C217.909 111.507 217.568 110.963 217.12 110.344C216.672 109.747 216.245 109.277 215.84 108.936C217.653 107.976 219.189 106.568 220.448 104.712C221.707 102.856 222.688 100.595 223.392 97.928C224.117 95.2613 224.576 92.2533 224.768 88.904V88.168ZM261.216 95.56C262.581 98.9093 264.704 101.661 267.584 103.816C270.464 105.971 274.155 107.443 278.656 108.232C278.379 108.509 278.08 108.851 277.76 109.256C277.44 109.683 277.141 110.12 276.864 110.568C276.587 111.016 276.363 111.411 276.192 111.752C273.056 111.048 270.315 110.024 267.968 108.68C265.643 107.336 263.659 105.651 262.016 103.624C260.373 101.597 258.997 99.2293 257.888 96.52L261.216 95.56ZM271.04 93.608H271.776L272.48 93.448L275.104 94.568C274.464 96.9787 273.6 99.112 272.512 100.968C271.424 102.824 270.133 104.445 268.64 105.832C267.147 107.219 265.493 108.403 263.68 109.384C261.888 110.365 259.947 111.176 257.856 111.816C257.643 111.325 257.323 110.76 256.896 110.12C256.491 109.48 256.085 108.968 255.68 108.584C257.557 108.093 259.307 107.432 260.928 106.6C262.571 105.768 264.064 104.755 265.408 103.56C266.752 102.365 267.904 101 268.864 99.464C269.824 97.9067 270.549 96.1893 271.04 94.312V93.608ZM249.856 86.568H277.792V90.312H249.856V86.568ZM258.944 93.608H271.424V97.32H257.824L258.944 93.608ZM257.856 81.8H261.856C261.835 82.5253 261.792 83.4427 261.728 84.552C261.664 85.64 261.557 86.8773 261.408 88.264C261.259 89.6507 261.035 91.1227 260.736 92.68C260.459 94.216 260.085 95.7947 259.616 97.416C259.147 99.016 258.56 100.605 257.856 102.184C257.173 103.763 256.341 105.277 255.36 106.728C254.379 108.179 253.227 109.501 251.904 110.696C251.52 110.205 251.04 109.725 250.464 109.256C249.888 108.787 249.269 108.36 248.608 107.976C249.909 106.888 251.029 105.693 251.968 104.392C252.928 103.069 253.739 101.672 254.4 100.2C255.061 98.728 255.605 97.256 256.032 95.784C256.459 94.2907 256.789 92.8293 257.024 91.4C257.259 89.9707 257.429 88.6373 257.536 87.4C257.643 86.1413 257.717 85.032 257.76 84.072C257.803 83.112 257.835 82.3547 257.856 81.8ZM299.419 93.928H319.867V97.384H299.419V93.928ZM300.539 87.464H318.779V90.856H300.539V87.464ZM307.291 89.128H311.131V94.248C311.131 95.272 311.003 96.3387 310.747 97.448C310.512 98.5573 310.064 99.6667 309.403 100.776C308.763 101.864 307.835 102.92 306.619 103.944C305.424 104.947 303.878 105.864 301.979 106.696C301.808 106.419 301.574 106.109 301.275 105.768C300.976 105.427 300.667 105.085 300.347 104.744C300.027 104.403 299.718 104.125 299.419 103.912C301.232 103.251 302.662 102.515 303.707 101.704C304.774 100.893 305.552 100.051 306.043 99.176C306.555 98.3013 306.886 97.448 307.035 96.616C307.206 95.7627 307.291 94.9627 307.291 94.216V89.128ZM311.707 96.36C312.368 98.1307 313.371 99.6347 314.715 100.872C316.08 102.088 317.83 102.963 319.963 103.496C319.686 103.752 319.387 104.072 319.067 104.456C318.768 104.84 318.48 105.235 318.203 105.64C317.947 106.024 317.723 106.387 317.531 106.728C315.184 105.96 313.286 104.755 311.835 103.112C310.384 101.469 309.264 99.4533 308.475 97.064L311.707 96.36ZM298.139 94.28V106.088H294.395V97.832H290.683V94.28H298.139ZM298.139 104.424C298.8 105.469 299.728 106.237 300.923 106.728C302.118 107.219 303.547 107.496 305.211 107.56C306.15 107.603 307.259 107.635 308.539 107.656C309.84 107.656 311.206 107.645 312.635 107.624C314.064 107.603 315.462 107.56 316.827 107.496C318.214 107.432 319.44 107.357 320.507 107.272C320.379 107.571 320.23 107.955 320.059 108.424C319.888 108.893 319.728 109.373 319.579 109.864C319.451 110.355 319.355 110.792 319.291 111.176C318.331 111.24 317.232 111.283 315.995 111.304C314.758 111.347 313.488 111.368 312.187 111.368C310.886 111.389 309.627 111.389 308.411 111.368C307.195 111.347 306.107 111.315 305.147 111.272C303.184 111.187 301.51 110.877 300.123 110.344C298.736 109.832 297.51 108.957 296.443 107.72C295.739 108.317 295.014 108.936 294.267 109.576C293.542 110.216 292.742 110.877 291.867 111.56L289.979 107.56C290.726 107.112 291.504 106.621 292.315 106.088C293.126 105.555 293.904 105 294.651 104.424H298.139ZM290.715 84.872L293.563 82.568C294.224 82.9947 294.896 83.496 295.579 84.072C296.262 84.6267 296.902 85.2027 297.499 85.8C298.096 86.376 298.576 86.9093 298.939 87.4L295.899 89.96C295.579 89.448 295.131 88.8933 294.555 88.296C294 87.6987 293.382 87.1013 292.699 86.504C292.016 85.8853 291.355 85.3413 290.715 84.872ZM313.915 81.8L317.819 83.016C317.243 83.9333 316.646 84.84 316.027 85.736C315.43 86.6107 314.875 87.3573 314.363 87.976L311.227 86.888C311.547 86.3973 311.878 85.864 312.219 85.288C312.56 84.6907 312.88 84.0933 313.179 83.496C313.478 82.8773 313.723 82.312 313.915 81.8ZM301.371 83.208L304.603 81.864C305.2 82.5893 305.766 83.4107 306.299 84.328C306.832 85.2453 307.206 86.056 307.419 86.76L303.963 88.232C303.792 87.5493 303.451 86.7387 302.939 85.8C302.448 84.84 301.926 83.976 301.371 83.208Z" fill="white"/>
<path d="M44.6299 246.954H56.1799V255.754H53.6499V249.352H47.0499V255.864H44.6299V246.954ZM54.4199 235.206L56.4439 237.274C55.3732 237.685 54.1852 238.044 52.8799 238.352C51.5745 238.646 50.2325 238.888 48.8539 239.078C47.4899 239.269 46.1552 239.423 44.8499 239.54C44.8059 239.232 44.7032 238.858 44.5419 238.418C44.3952 237.964 44.2485 237.59 44.1019 237.296C45.0405 237.194 45.9865 237.076 46.9399 236.944C47.9079 236.812 48.8465 236.658 49.7559 236.482C50.6652 236.306 51.5159 236.116 52.3079 235.91C53.0999 235.69 53.8039 235.456 54.4199 235.206ZM49.1399 237.692H51.6479V248.34H49.1399V237.692ZM43.2659 241.63H57.2799V244.138H43.2659V241.63ZM46.3679 252.564H54.7059V254.962H46.3679V252.564ZM37.8319 237.406L39.3279 235.492C39.7385 235.698 40.2005 235.932 40.7139 236.196C41.2272 236.46 41.7259 236.724 42.2099 236.988C42.7085 237.252 43.1119 237.487 43.4199 237.692L41.8579 239.826C41.5645 239.606 41.1832 239.357 40.7139 239.078C40.2445 238.8 39.7532 238.514 39.2399 238.22C38.7265 237.912 38.2572 237.641 37.8319 237.406ZM36.7759 243.5L38.2059 241.542C38.6165 241.718 39.0859 241.938 39.6139 242.202C40.1419 242.466 40.6552 242.73 41.1539 242.994C41.6525 243.244 42.0559 243.471 42.3639 243.676L40.8899 245.876C40.5965 245.656 40.2079 245.407 39.7239 245.128C39.2545 244.85 38.7559 244.564 38.2279 244.27C37.6999 243.977 37.2159 243.72 36.7759 243.5ZM37.1059 253.84C37.5019 253.283 37.9345 252.63 38.4039 251.882C38.8879 251.12 39.3792 250.313 39.8779 249.462C40.3765 248.597 40.8459 247.739 41.2859 246.888L43.2219 248.648C42.8405 249.411 42.4299 250.196 41.9899 251.002C41.5645 251.809 41.1245 252.601 40.6699 253.378C40.2299 254.156 39.7825 254.904 39.3279 255.622L37.1059 253.84ZM60.1619 249.44H70.4359V251.31H60.1619V249.44ZM59.6779 238.968H70.6779V240.882H59.6779V238.968ZM64.0339 237.428H66.4319V253.202H64.0339V237.428ZM59.5459 252.938C60.4699 252.88 61.5259 252.806 62.7139 252.718C63.9019 252.63 65.1559 252.535 66.4759 252.432C67.8105 252.315 69.1379 252.198 70.4579 252.08L70.4799 254.082C69.2332 254.214 67.9719 254.346 66.6959 254.478C65.4345 254.61 64.2172 254.728 63.0439 254.83C61.8852 254.948 60.8219 255.058 59.8539 255.16L59.5459 252.938ZM62.3399 245.942V246.932H68.1479V245.942H62.3399ZM62.3399 243.39V244.38H68.1479V243.39H62.3399ZM60.2499 241.74H70.3259V248.582H60.2499V241.74ZM69.2699 235.338L70.4139 237.296C69.4899 237.487 68.4485 237.656 67.2899 237.802C66.1459 237.934 64.9725 238.044 63.7699 238.132C62.5672 238.206 61.4159 238.257 60.3159 238.286C60.2719 238.008 60.1912 237.692 60.0739 237.34C59.9712 236.974 59.8539 236.658 59.7219 236.394C60.5432 236.35 61.3865 236.299 62.2519 236.24C63.1172 236.167 63.9679 236.086 64.8039 235.998C65.6545 235.91 66.4539 235.815 67.2019 235.712C67.9645 235.595 68.6539 235.47 69.2699 235.338ZM70.6559 240.2H78.2899V242.62H70.6559V240.2ZM77.2119 240.2H79.7419C79.7419 240.2 79.7419 240.274 79.7419 240.42C79.7419 240.567 79.7419 240.736 79.7419 240.926C79.7419 241.102 79.7419 241.249 79.7419 241.366C79.6832 243.625 79.6245 245.546 79.5659 247.13C79.5072 248.7 79.4412 249.998 79.3679 251.024C79.3092 252.036 79.2139 252.828 79.0819 253.4C78.9645 253.972 78.8179 254.383 78.6419 254.632C78.3925 254.999 78.1285 255.256 77.8499 255.402C77.5859 255.564 77.2705 255.681 76.9039 255.754C76.5665 255.813 76.1559 255.842 75.6719 255.842C75.1879 255.857 74.6819 255.857 74.1539 255.842C74.1392 255.476 74.0585 255.05 73.9119 254.566C73.7799 254.082 73.6112 253.664 73.4059 253.312C73.8752 253.356 74.3079 253.386 74.7039 253.4C75.0999 253.415 75.4005 253.422 75.6059 253.422C75.7819 253.422 75.9285 253.393 76.0459 253.334C76.1632 253.276 76.2732 253.18 76.3759 253.048C76.4932 252.872 76.5959 252.535 76.6839 252.036C76.7719 251.523 76.8452 250.797 76.9039 249.858C76.9772 248.905 77.0359 247.68 77.0799 246.184C77.1385 244.688 77.1825 242.877 77.2119 240.75V240.2ZM72.7679 235.58H75.2979C75.2979 237.458 75.2759 239.24 75.2319 240.926C75.2025 242.613 75.1072 244.204 74.9459 245.7C74.7992 247.182 74.5425 248.56 74.1759 249.836C73.8239 251.098 73.3252 252.249 72.6799 253.29C72.0345 254.332 71.2059 255.248 70.1939 256.04C70.0619 255.82 69.8859 255.586 69.6659 255.336C69.4605 255.087 69.2405 254.845 69.0059 254.61C68.7859 254.39 68.5659 254.207 68.3459 254.06C69.2699 253.356 70.0179 252.55 70.5899 251.64C71.1619 250.716 71.6019 249.697 71.9099 248.582C72.2179 247.453 72.4305 246.221 72.5479 244.886C72.6652 243.537 72.7312 242.092 72.7459 240.552C72.7605 238.998 72.7679 237.34 72.7679 235.58ZM83.5039 237.34L84.6699 235.536C85.1685 235.654 85.7039 235.808 86.2759 235.998C86.8479 236.174 87.4052 236.365 87.9479 236.57C88.5052 236.761 88.9672 236.944 89.3339 237.12L88.1459 239.122C87.7939 238.946 87.3539 238.748 86.8259 238.528C86.2979 238.294 85.7405 238.074 85.1539 237.868C84.5672 237.663 84.0172 237.487 83.5039 237.34ZM82.5359 241.058C83.3425 240.912 84.3105 240.706 85.4399 240.442C86.5839 240.178 87.7352 239.914 88.8939 239.65L89.1359 241.718C88.1825 242.026 87.2145 242.32 86.2319 242.598C85.2639 242.862 84.3619 243.112 83.5259 243.346L82.5359 241.058ZM92.2819 236.68H100.73V238.55H90.8079L92.2819 236.68ZM100.114 236.68H100.488L100.884 236.592L102.622 237.054C102.343 237.641 102.013 238.242 101.632 238.858C101.265 239.474 100.906 239.988 100.554 240.398L98.4859 239.76C98.7792 239.408 99.0799 238.976 99.3879 238.462C99.6959 237.934 99.9379 237.443 100.114 236.988V236.68ZM94.5479 237.472H96.9019C96.7992 238.25 96.6232 238.961 96.3739 239.606C96.1245 240.237 95.7579 240.802 95.2739 241.3C94.8045 241.784 94.1665 242.21 93.3599 242.576C92.5679 242.943 91.5485 243.251 90.3019 243.5C90.1992 243.222 90.0305 242.899 89.7959 242.532C89.5612 242.151 89.3339 241.85 89.1139 241.63C90.1699 241.454 91.0352 241.242 91.7099 240.992C92.3845 240.743 92.9052 240.457 93.2719 240.134C93.6532 239.797 93.9392 239.408 94.1299 238.968C94.3205 238.528 94.4599 238.03 94.5479 237.472ZM96.7699 238.022C96.8579 238.433 97.0045 238.829 97.2099 239.21C97.4299 239.592 97.7599 239.944 98.1999 240.266C98.6399 240.574 99.2559 240.853 100.048 241.102C100.84 241.337 101.859 241.528 103.106 241.674C102.857 241.938 102.607 242.283 102.358 242.708C102.109 243.134 101.918 243.515 101.786 243.852C100.422 243.632 99.2999 243.324 98.4199 242.928C97.5545 242.532 96.8725 242.085 96.3739 241.586C95.8899 241.088 95.5159 240.552 95.2519 239.98C95.0025 239.394 94.8045 238.814 94.6579 238.242L96.7699 238.022ZM92.2159 235.206L94.5479 235.602C94.1225 236.468 93.6239 237.304 93.0519 238.11C92.4799 238.902 91.7759 239.636 90.9399 240.31C90.7052 240.076 90.3899 239.841 89.9939 239.606C89.6125 239.372 89.2605 239.188 88.9379 239.056C89.7445 238.499 90.4192 237.883 90.9619 237.208C91.5045 236.519 91.9225 235.852 92.2159 235.206ZM88.0799 247.196V248.12H97.6499V247.196H88.0799ZM88.0799 249.616V250.584H97.6499V249.616H88.0799ZM88.0799 244.754V245.7H97.6499V244.754H88.0799ZM85.5279 243.192H100.312V252.146H85.5279V243.192ZM93.9979 253.312L96.1979 252.058C96.9899 252.337 97.7892 252.638 98.5959 252.96C99.4172 253.268 100.195 253.584 100.928 253.906C101.676 254.214 102.307 254.493 102.82 254.742L99.7399 255.93C99.3292 255.696 98.8159 255.424 98.1999 255.116C97.5839 254.808 96.9165 254.493 96.1979 254.17C95.4939 253.862 94.7605 253.576 93.9979 253.312ZM89.1359 251.97L91.5339 253.07C90.9472 253.452 90.2579 253.826 89.4659 254.192C88.6739 254.559 87.8599 254.889 87.0239 255.182C86.1879 255.49 85.3959 255.747 84.6479 255.952C84.4865 255.776 84.2885 255.564 84.0539 255.314C83.8339 255.08 83.5992 254.838 83.3499 254.588C83.1005 254.354 82.8805 254.163 82.6899 254.016C83.4672 253.87 84.2519 253.694 85.0439 253.488C85.8505 253.283 86.6059 253.048 87.3099 252.784C88.0285 252.52 88.6372 252.249 89.1359 251.97ZM113.908 236.086H122.444V238.594H113.908V236.086ZM113.644 243.478H120.64V245.942H113.644V243.478ZM116.064 237.758H118.572V243.324C118.572 244.366 118.528 245.436 118.44 246.536C118.352 247.636 118.169 248.736 117.89 249.836C117.626 250.936 117.223 252 116.68 253.026C116.137 254.038 115.419 254.992 114.524 255.886C114.392 255.696 114.209 255.476 113.974 255.226C113.739 254.992 113.497 254.764 113.248 254.544C113.013 254.324 112.793 254.148 112.588 254.016C113.365 253.239 113.989 252.41 114.458 251.53C114.927 250.65 115.272 249.748 115.492 248.824C115.727 247.886 115.881 246.954 115.954 246.03C116.027 245.092 116.064 244.175 116.064 243.28V237.758ZM121.058 236.086H123.764C123.735 237.333 123.713 238.609 123.698 239.914C123.683 241.22 123.676 242.496 123.676 243.742C123.691 244.974 123.72 246.14 123.764 247.24C123.808 248.326 123.867 249.294 123.94 250.144C124.028 250.98 124.131 251.655 124.248 252.168C124.365 252.667 124.512 252.938 124.688 252.982C124.747 252.997 124.798 252.858 124.842 252.564C124.886 252.271 124.923 251.89 124.952 251.42C124.996 250.951 125.025 250.467 125.04 249.968C125.172 250.188 125.326 250.445 125.502 250.738C125.678 251.032 125.854 251.303 126.03 251.552C126.206 251.802 126.36 251.992 126.492 252.124C126.375 253.268 126.169 254.134 125.876 254.72C125.597 255.307 125.26 255.666 124.864 255.798C124.468 255.93 124.028 255.894 123.544 255.688C123.016 255.498 122.591 254.992 122.268 254.17C121.945 253.364 121.703 252.33 121.542 251.068C121.381 249.792 121.263 248.355 121.19 246.756C121.131 245.143 121.095 243.427 121.08 241.608C121.065 239.79 121.058 237.949 121.058 236.086ZM106.34 241.96H112.984V243.962H106.34V241.96ZM106.428 235.91H112.94V237.89H106.428V235.91ZM106.34 244.974H112.984V246.954H106.34V244.974ZM105.306 238.858H113.71V240.948H105.306V238.858ZM107.484 248.01H113.028V254.72H107.484V252.63H110.762V250.1H107.484V248.01ZM106.296 248.01H108.518V255.578H106.296V248.01ZM128.956 236.68H148.14V239.386H128.956V236.68ZM139.582 244.072L141.628 242.356C142.215 242.782 142.845 243.251 143.52 243.764C144.209 244.263 144.891 244.784 145.566 245.326C146.255 245.869 146.893 246.404 147.48 246.932C148.067 247.446 148.565 247.915 148.976 248.34L146.732 250.386C146.365 249.946 145.896 249.462 145.324 248.934C144.767 248.392 144.158 247.834 143.498 247.262C142.853 246.69 142.185 246.133 141.496 245.59C140.821 245.048 140.183 244.542 139.582 244.072ZM138.702 237.692L141.628 238.726C140.792 240.266 139.795 241.77 138.636 243.236C137.492 244.703 136.201 246.06 134.764 247.306C133.327 248.538 131.765 249.594 130.078 250.474C129.946 250.24 129.77 249.976 129.55 249.682C129.33 249.389 129.103 249.103 128.868 248.824C128.648 248.531 128.443 248.282 128.252 248.076C129.44 247.534 130.562 246.874 131.618 246.096C132.674 245.304 133.649 244.446 134.544 243.522C135.453 242.598 136.253 241.645 136.942 240.662C137.646 239.665 138.233 238.675 138.702 237.692ZM137.096 243.016L139.978 240.134V255.842H137.096V243.016ZM151.77 237.252L153.31 235.338C153.691 235.529 154.109 235.756 154.564 236.02C155.033 236.284 155.481 236.541 155.906 236.79C156.346 237.04 156.713 237.267 157.006 237.472L155.378 239.606C155.114 239.386 154.769 239.137 154.344 238.858C153.933 238.58 153.493 238.301 153.024 238.022C152.569 237.729 152.151 237.472 151.77 237.252ZM151.066 243.236L152.584 241.322C152.965 241.513 153.398 241.74 153.882 242.004C154.366 242.254 154.835 242.503 155.29 242.752C155.745 243.002 156.119 243.222 156.412 243.412L154.828 245.546C154.564 245.341 154.212 245.099 153.772 244.82C153.332 244.542 152.87 244.263 152.386 243.984C151.917 243.706 151.477 243.456 151.066 243.236ZM161.318 249.55L162.352 248.34C162.675 248.516 163.019 248.736 163.386 249C163.767 249.25 164.061 249.462 164.266 249.638L163.21 251.002C163.005 250.797 162.711 250.562 162.33 250.298C161.963 250.02 161.626 249.77 161.318 249.55ZM161.186 252.388L162.286 251.222C162.609 251.442 162.961 251.699 163.342 251.992C163.723 252.271 164.024 252.52 164.244 252.74L163.1 254.038C162.895 253.804 162.601 253.532 162.22 253.224C161.853 252.916 161.509 252.638 161.186 252.388ZM166.136 249.484L167.104 248.318C167.427 248.494 167.779 248.714 168.16 248.978C168.541 249.228 168.835 249.44 169.04 249.616L168.05 250.914C167.845 250.724 167.551 250.489 167.17 250.21C166.789 249.932 166.444 249.69 166.136 249.484ZM165.916 252.19L166.972 251.046C167.295 251.252 167.639 251.486 168.006 251.75C168.373 252.014 168.659 252.234 168.864 252.41L167.786 253.708C167.581 253.503 167.295 253.254 166.928 252.96C166.576 252.667 166.239 252.41 165.916 252.19ZM151.176 254.28C151.455 253.694 151.763 253.012 152.1 252.234C152.452 251.442 152.797 250.606 153.134 249.726C153.486 248.846 153.801 247.966 154.08 247.086L156.214 248.472C155.965 249.279 155.693 250.093 155.4 250.914C155.107 251.736 154.806 252.55 154.498 253.356C154.19 254.148 153.882 254.911 153.574 255.644L151.176 254.28ZM159.272 245.942H169.7V247.878H161.362V255.842H159.272V245.942ZM158.678 235.976H170.822V241.564H158.678V239.452H168.292V238.088H158.678V235.976ZM157.27 235.976H159.712V242.268C159.712 243.236 159.683 244.307 159.624 245.48C159.565 246.639 159.441 247.834 159.25 249.066C159.074 250.284 158.817 251.472 158.48 252.63C158.143 253.789 157.688 254.845 157.116 255.798C156.969 255.652 156.764 255.49 156.5 255.314C156.251 255.138 155.987 254.962 155.708 254.786C155.444 254.625 155.217 254.508 155.026 254.434C155.539 253.554 155.95 252.601 156.258 251.574C156.566 250.533 156.793 249.47 156.94 248.384C157.087 247.284 157.175 246.214 157.204 245.172C157.248 244.131 157.27 243.163 157.27 242.268V235.976ZM169.018 245.942H171.196V253.862C171.196 254.332 171.145 254.691 171.042 254.94C170.939 255.204 170.741 255.41 170.448 255.556C170.155 255.703 169.795 255.791 169.37 255.82C168.945 255.85 168.453 255.864 167.896 255.864C167.852 255.6 167.771 255.3 167.654 254.962C167.551 254.64 167.441 254.361 167.324 254.126C167.617 254.141 167.903 254.148 168.182 254.148C168.461 254.148 168.644 254.148 168.732 254.148C168.835 254.134 168.908 254.104 168.952 254.06C168.996 254.031 169.018 253.965 169.018 253.862V245.942ZM158.876 242.708H171.372V244.776H158.876V242.708ZM164.09 243.632H166.224V255.776H164.09V243.632ZM186.376 235.206H189.038V238.176H186.376V235.206ZM181.448 237.318H193.966V239.54H181.448V237.318ZM180.766 242.312H194.516V244.556H180.766V242.312ZM183.45 239.606L185.716 239.166C185.848 239.489 185.965 239.841 186.068 240.222C186.185 240.604 186.281 240.978 186.354 241.344C186.442 241.696 186.493 242.012 186.508 242.29L184.132 242.818C184.117 242.54 184.073 242.217 184 241.85C183.941 241.469 183.861 241.088 183.758 240.706C183.67 240.31 183.567 239.944 183.45 239.606ZM189.654 239.166L192.184 239.43C191.979 240.061 191.766 240.67 191.546 241.256C191.326 241.843 191.121 242.342 190.93 242.752L188.686 242.466C188.803 242.158 188.921 241.814 189.038 241.432C189.17 241.036 189.287 240.64 189.39 240.244C189.493 239.848 189.581 239.489 189.654 239.166ZM180.942 246.14H194.494V248.362H180.942V246.14ZM185.496 244.028L188.136 244.534C187.74 245.4 187.315 246.302 186.86 247.24C186.405 248.179 185.951 249.088 185.496 249.968C185.041 250.848 184.623 251.633 184.242 252.322L181.976 251.574C182.343 250.914 182.739 250.159 183.164 249.308C183.589 248.443 184 247.548 184.396 246.624C184.807 245.7 185.173 244.835 185.496 244.028ZM183.516 251.596L185.056 249.88C185.833 250.1 186.64 250.364 187.476 250.672C188.327 250.98 189.17 251.318 190.006 251.684C190.857 252.051 191.649 252.425 192.382 252.806C193.115 253.173 193.739 253.54 194.252 253.906L192.58 255.886C192.096 255.52 191.502 255.138 190.798 254.742C190.094 254.361 189.331 253.98 188.51 253.598C187.689 253.202 186.845 252.836 185.98 252.498C185.115 252.146 184.293 251.846 183.516 251.596ZM189.632 247.768L192.184 248.01C191.891 249.301 191.473 250.401 190.93 251.31C190.402 252.22 189.705 252.975 188.84 253.576C187.989 254.178 186.933 254.662 185.672 255.028C184.425 255.395 182.937 255.696 181.206 255.93C181.133 255.564 181.001 255.175 180.81 254.764C180.619 254.354 180.429 254.031 180.238 253.796C181.749 253.664 183.047 253.474 184.132 253.224C185.232 252.96 186.141 252.601 186.86 252.146C187.593 251.677 188.18 251.09 188.62 250.386C189.075 249.668 189.412 248.795 189.632 247.768ZM173.748 246.47C174.672 246.28 175.772 246.03 177.048 245.722C178.339 245.4 179.637 245.07 180.942 244.732L181.25 247.086C180.062 247.424 178.859 247.768 177.642 248.12C176.425 248.458 175.31 248.766 174.298 249.044L173.748 246.47ZM174.188 239.386H180.986V241.806H174.188V239.386ZM176.762 235.228H179.292V252.916C179.292 253.562 179.226 254.075 179.094 254.456C178.962 254.838 178.72 255.131 178.368 255.336C178.001 255.556 177.547 255.696 177.004 255.754C176.476 255.828 175.831 255.864 175.068 255.864C175.039 255.512 174.951 255.087 174.804 254.588C174.657 254.09 174.496 253.657 174.32 253.29C174.76 253.305 175.171 253.32 175.552 253.334C175.948 253.334 176.219 253.327 176.366 253.312C176.513 253.312 176.615 253.283 176.674 253.224C176.733 253.166 176.762 253.056 176.762 252.894V235.228ZM200.434 256.942L199.73 255.16C200.654 254.867 201.358 254.464 201.842 253.95C202.341 253.452 202.59 252.88 202.59 252.234L202.414 250.078L203.646 252.036C203.455 252.198 203.25 252.322 203.03 252.41C202.81 252.498 202.575 252.542 202.326 252.542C201.783 252.542 201.299 252.374 200.874 252.036C200.449 251.684 200.236 251.193 200.236 250.562C200.236 249.946 200.449 249.462 200.874 249.11C201.299 248.758 201.805 248.582 202.392 248.582C203.169 248.582 203.756 248.854 204.152 249.396C204.563 249.939 204.768 250.672 204.768 251.596C204.768 252.843 204.387 253.943 203.624 254.896C202.861 255.85 201.798 256.532 200.434 256.942ZM226.02 243.544H240.078V245.92H226.02V243.544ZM226.79 239.1H239.33V241.432H226.79V239.1ZM231.432 240.244H234.072V243.764C234.072 244.468 233.984 245.202 233.808 245.964C233.647 246.727 233.339 247.49 232.884 248.252C232.444 249 231.806 249.726 230.97 250.43C230.149 251.12 229.085 251.75 227.78 252.322C227.663 252.132 227.501 251.919 227.296 251.684C227.091 251.45 226.878 251.215 226.658 250.98C226.438 250.746 226.225 250.555 226.02 250.408C227.267 249.954 228.249 249.448 228.968 248.89C229.701 248.333 230.237 247.754 230.574 247.152C230.926 246.551 231.153 245.964 231.256 245.392C231.373 244.806 231.432 244.256 231.432 243.742V240.244ZM234.468 245.216C234.923 246.434 235.612 247.468 236.536 248.318C237.475 249.154 238.677 249.756 240.144 250.122C239.953 250.298 239.748 250.518 239.528 250.782C239.323 251.046 239.125 251.318 238.934 251.596C238.758 251.86 238.604 252.11 238.472 252.344C236.859 251.816 235.553 250.988 234.556 249.858C233.559 248.729 232.789 247.343 232.246 245.7L234.468 245.216ZM225.14 243.786V251.904H222.566V246.228H220.014V243.786H225.14ZM225.14 250.76C225.595 251.479 226.233 252.007 227.054 252.344C227.875 252.682 228.858 252.872 230.002 252.916C230.647 252.946 231.41 252.968 232.29 252.982C233.185 252.982 234.123 252.975 235.106 252.96C236.089 252.946 237.049 252.916 237.988 252.872C238.941 252.828 239.785 252.777 240.518 252.718C240.43 252.924 240.327 253.188 240.21 253.51C240.093 253.833 239.983 254.163 239.88 254.5C239.792 254.838 239.726 255.138 239.682 255.402C239.022 255.446 238.267 255.476 237.416 255.49C236.565 255.52 235.693 255.534 234.798 255.534C233.903 255.549 233.038 255.549 232.202 255.534C231.366 255.52 230.618 255.498 229.958 255.468C228.609 255.41 227.457 255.197 226.504 254.83C225.551 254.478 224.707 253.877 223.974 253.026C223.49 253.437 222.991 253.862 222.478 254.302C221.979 254.742 221.429 255.197 220.828 255.666L219.53 252.916C220.043 252.608 220.579 252.271 221.136 251.904C221.693 251.538 222.229 251.156 222.742 250.76H225.14ZM220.036 237.318L221.994 235.734C222.449 236.028 222.911 236.372 223.38 236.768C223.849 237.15 224.289 237.546 224.7 237.956C225.111 238.352 225.441 238.719 225.69 239.056L223.6 240.816C223.38 240.464 223.072 240.083 222.676 239.672C222.295 239.262 221.869 238.851 221.4 238.44C220.931 238.015 220.476 237.641 220.036 237.318ZM235.986 235.206L238.67 236.042C238.274 236.673 237.863 237.296 237.438 237.912C237.027 238.514 236.646 239.027 236.294 239.452L234.138 238.704C234.358 238.367 234.585 238 234.82 237.604C235.055 237.194 235.275 236.783 235.48 236.372C235.685 235.947 235.854 235.558 235.986 235.206ZM227.362 236.174L229.584 235.25C229.995 235.749 230.383 236.314 230.75 236.944C231.117 237.575 231.373 238.132 231.52 238.616L229.144 239.628C229.027 239.159 228.792 238.602 228.44 237.956C228.103 237.296 227.743 236.702 227.362 236.174ZM247.162 241.454H258.58V243.852H247.162V241.454ZM243.07 245.436H262.782V247.9H243.07V245.436ZM248.394 247.416H251.254C251.151 248.428 250.983 249.374 250.748 250.254C250.513 251.12 250.139 251.912 249.626 252.63C249.127 253.334 248.423 253.965 247.514 254.522C246.605 255.08 245.431 255.549 243.994 255.93C243.906 255.696 243.774 255.432 243.598 255.138C243.437 254.845 243.253 254.552 243.048 254.258C242.843 253.98 242.645 253.752 242.454 253.576C243.715 253.298 244.72 252.96 245.468 252.564C246.231 252.168 246.803 251.721 247.184 251.222C247.58 250.709 247.859 250.137 248.02 249.506C248.196 248.861 248.321 248.164 248.394 247.416ZM254.07 246.976H256.732V252.344C256.732 252.696 256.783 252.924 256.886 253.026C257.003 253.114 257.26 253.158 257.656 253.158C257.744 253.158 257.883 253.158 258.074 253.158C258.265 253.158 258.477 253.158 258.712 253.158C258.947 253.158 259.167 253.158 259.372 253.158C259.577 253.158 259.739 253.158 259.856 253.158C260.091 253.158 260.267 253.1 260.384 252.982C260.516 252.865 260.604 252.616 260.648 252.234C260.707 251.838 260.751 251.259 260.78 250.496C260.971 250.628 261.205 250.76 261.484 250.892C261.763 251.024 262.049 251.142 262.342 251.244C262.65 251.347 262.921 251.435 263.156 251.508C263.068 252.564 262.914 253.386 262.694 253.972C262.474 254.574 262.159 254.984 261.748 255.204C261.352 255.439 260.802 255.556 260.098 255.556C259.966 255.556 259.768 255.556 259.504 255.556C259.255 255.556 258.976 255.556 258.668 255.556C258.375 255.556 258.096 255.556 257.832 255.556C257.583 255.556 257.392 255.556 257.26 255.556C256.409 255.556 255.749 255.461 255.28 255.27C254.825 255.08 254.51 254.75 254.334 254.28C254.158 253.811 254.07 253.18 254.07 252.388V246.976ZM251.452 235.228H254.268V239.232H251.452V235.228ZM243.466 237.34H262.364V242.576H259.548V239.848H246.15V242.576H243.466V237.34ZM269.14 246.822H284.056V249.088H269.14V246.822ZM266.148 238.792H280.734V241.168H266.148V238.792ZM272.66 242.84H282.626V245.106H272.66V242.84ZM283.044 246.822H285.662C285.662 246.822 285.655 246.888 285.64 247.02C285.64 247.138 285.633 247.277 285.618 247.438C285.618 247.6 285.611 247.732 285.596 247.834C285.479 249.33 285.347 250.562 285.2 251.53C285.068 252.484 284.914 253.239 284.738 253.796C284.562 254.339 284.357 254.735 284.122 254.984C283.873 255.263 283.601 255.461 283.308 255.578C283.029 255.696 282.707 255.776 282.34 255.82C282.047 255.864 281.643 255.886 281.13 255.886C280.631 255.901 280.103 255.894 279.546 255.864C279.531 255.512 279.451 255.109 279.304 254.654C279.172 254.2 279.003 253.804 278.798 253.466C279.282 253.51 279.737 253.54 280.162 253.554C280.587 253.569 280.91 253.569 281.13 253.554C281.306 253.554 281.453 253.54 281.57 253.51C281.702 253.481 281.827 253.415 281.944 253.312C282.091 253.166 282.223 252.872 282.34 252.432C282.472 251.978 282.597 251.325 282.714 250.474C282.831 249.624 282.941 248.531 283.044 247.196V246.822ZM278.358 249.858L280.162 249.242C280.47 249.697 280.756 250.196 281.02 250.738C281.284 251.281 281.475 251.75 281.592 252.146L279.656 252.872C279.568 252.476 279.399 251.992 279.15 251.42C278.901 250.848 278.637 250.328 278.358 249.858ZM268.612 236.13L270.988 235.206C271.384 235.632 271.787 236.116 272.198 236.658C272.609 237.201 272.924 237.678 273.144 238.088L270.614 239.122C270.453 238.726 270.174 238.25 269.778 237.692C269.397 237.12 269.008 236.6 268.612 236.13ZM271.714 250.452L273.848 250.21C274.053 250.914 274.207 251.692 274.31 252.542C274.413 253.378 274.464 254.104 274.464 254.72L272.198 255.006C272.227 254.61 272.22 254.148 272.176 253.62C272.147 253.092 272.088 252.557 272 252.014C271.927 251.457 271.831 250.936 271.714 250.452ZM275.036 250.276L277.06 249.814C277.324 250.445 277.566 251.12 277.786 251.838C278.006 252.557 278.153 253.188 278.226 253.73L276.092 254.258C276.033 253.716 275.901 253.07 275.696 252.322C275.491 251.574 275.271 250.892 275.036 250.276ZM268.766 249.726L270.988 250.452C270.841 251.098 270.658 251.743 270.438 252.388C270.233 253.019 269.976 253.628 269.668 254.214C269.36 254.801 268.993 255.329 268.568 255.798L266.522 254.346C266.903 253.965 267.233 253.525 267.512 253.026C267.805 252.528 268.055 252 268.26 251.442C268.48 250.87 268.649 250.298 268.766 249.726ZM275.41 235.184L278.116 235.844C277.617 237.414 277.023 238.954 276.334 240.464C275.659 241.96 274.853 243.39 273.914 244.754C272.99 246.104 271.919 247.35 270.702 248.494C269.485 249.624 268.099 250.599 266.544 251.42C266.441 251.215 266.302 250.973 266.126 250.694C265.965 250.401 265.796 250.115 265.62 249.836C265.444 249.558 265.275 249.323 265.114 249.132C266.522 248.428 267.776 247.57 268.876 246.558C269.991 245.546 270.966 244.424 271.802 243.192C272.653 241.96 273.371 240.67 273.958 239.32C274.559 237.956 275.043 236.578 275.41 235.184ZM280.206 238.792H282.648C282.487 239.614 282.303 240.472 282.098 241.366C281.907 242.261 281.724 243.031 281.548 243.676L279.238 243.302C279.414 242.701 279.59 241.99 279.766 241.168C279.942 240.332 280.089 239.54 280.206 238.792ZM281.636 242.84H284.078C283.931 243.647 283.763 244.49 283.572 245.37C283.381 246.25 283.191 247.006 283 247.636L280.69 247.328C280.866 246.712 281.042 245.994 281.218 245.172C281.394 244.351 281.533 243.574 281.636 242.84ZM299.478 242.114H307.574V244.776H299.478V242.114ZM288.588 252.124H308.784V254.764H288.588V252.124ZM298.18 235.228H300.996V253.532H298.18V235.228ZM291.404 239.76H294.154V253.4H291.404V239.76Z" fill="white"/>
<path d="M37.1925 187V144.818H47.3878V178.72H64.9361V187H37.1925ZM82.7293 144.818V187H72.534V144.818H82.7293ZM127.35 144.818V187H118.699L101.913 162.655H101.645V187H91.4497V144.818H100.224L116.825 169.122H117.175V144.818H127.35ZM136.08 187V144.818H165.492V153.098H146.276V161.749H163.989V170.049H146.276V178.72H165.492V187H136.08ZM187.883 154.81V158.406H212.185V154.81H187.883ZM187.883 164.09V167.744H212.185V164.09H187.883ZM187.883 145.588V149.184H212.185V145.588H187.883ZM181.155 139.556H219.261V173.776H181.155V139.556ZM202.673 169.136H209.807V182.998C209.807 183.926 209.942 184.525 210.213 184.796C210.522 185.028 211.218 185.144 212.301 185.144C212.533 185.144 212.9 185.144 213.403 185.144C213.944 185.144 214.543 185.144 215.201 185.144C215.858 185.144 216.477 185.144 217.057 185.144C217.637 185.144 218.081 185.144 218.391 185.144C219.048 185.144 219.551 184.97 219.899 184.622C220.247 184.274 220.498 183.539 220.653 182.418C220.807 181.297 220.923 179.595 221.001 177.314C221.503 177.701 222.122 178.087 222.857 178.474C223.63 178.861 224.423 179.189 225.235 179.46C226.085 179.731 226.801 179.963 227.381 180.156C227.149 183.211 226.743 185.569 226.163 187.232C225.583 188.933 224.732 190.113 223.611 190.77C222.489 191.427 220.962 191.756 219.029 191.756C218.719 191.756 218.294 191.756 217.753 191.756C217.25 191.756 216.689 191.756 216.071 191.756C215.452 191.756 214.814 191.756 214.157 191.756C213.538 191.756 212.977 191.756 212.475 191.756C211.972 191.756 211.585 191.756 211.315 191.756C209.033 191.756 207.255 191.485 205.979 190.944C204.741 190.403 203.871 189.494 203.369 188.218C202.905 186.942 202.673 185.221 202.673 183.056V169.136ZM188.521 171.514H195.945C195.713 174.143 195.287 176.56 194.669 178.764C194.089 180.929 193.122 182.882 191.769 184.622C190.454 186.362 188.579 187.87 186.143 189.146C183.707 190.461 180.536 191.563 176.631 192.452C176.437 191.795 176.109 191.079 175.645 190.306C175.219 189.571 174.736 188.817 174.195 188.044C173.692 187.309 173.189 186.71 172.687 186.246C176.051 185.627 178.738 184.873 180.749 183.984C182.759 183.056 184.287 181.993 185.331 180.794C186.413 179.595 187.167 178.242 187.593 176.734C188.018 175.187 188.327 173.447 188.521 171.514ZM252.205 163.278H267.169V168.73H252.205V163.278ZM252.205 173.08H267.227V178.532H252.205V173.08ZM241.011 182.824H280.161V189.262H241.011V182.824ZM236.603 152.838H283.989V192.22H276.913V159.218H243.331V192.22H236.603V152.838ZM249.247 157.072H255.453V185.724H249.247V157.072ZM264.385 157.072H270.649V185.666H264.385V157.072ZM255.859 144.08L264.037 145.82C263.341 147.947 262.664 150.073 262.007 152.2C261.388 154.288 260.789 156.086 260.209 157.594L253.887 155.912C254.157 154.791 254.428 153.553 254.699 152.2C254.969 150.808 255.201 149.416 255.395 148.024C255.627 146.593 255.781 145.279 255.859 144.08ZM234.225 141.064H286.657V147.618H234.225V141.064ZM320.935 180.446L326.329 178.996C326.986 180.001 327.547 181.103 328.011 182.302C328.475 183.501 328.803 184.564 328.997 185.492L323.313 187.174C323.197 186.246 322.907 185.144 322.443 183.868C321.979 182.592 321.476 181.451 320.935 180.446ZM336.247 178.88L342.279 180.504C341.66 181.741 341.041 182.94 340.423 184.1C339.843 185.26 339.301 186.246 338.799 187.058L333.637 185.55C334.101 184.622 334.584 183.52 335.087 182.244C335.589 180.968 335.976 179.847 336.247 178.88ZM324.125 172.442V175.342H338.509V172.442H324.125ZM318.325 168.324H344.483V179.46H318.325V168.324ZM322.037 152.316V154.984H340.365V152.316H322.037ZM322.037 145.704V148.314H340.365V145.704H322.037ZM316.527 141.47H346.165V159.218H316.527V141.47ZM315.657 161.19H347.151V166.41H315.657V161.19ZM314.497 185.956H347.963V191.118H314.497V185.956ZM324.299 137.7H329.403V144.602H324.299V137.7ZM332.825 137.7H337.987V144.602H332.825V137.7ZM325.285 143.442H329.403V158.406H325.285V143.442ZM332.825 143.442H336.943V158.406H332.825V143.442ZM294.023 152.896H314.381V158.928H294.023V152.896ZM295.415 141.354H313.221V147.328H295.415V141.354ZM309.799 161.886H314.207V183.462H309.799V161.886ZM301.621 155.912H307.363V192.162H301.621V155.912ZM294.835 161.944H299.243V168.904C299.243 171.881 299.107 175.013 298.837 178.3C298.566 181.548 297.928 184.564 296.923 187.348C296.459 186.884 295.84 186.362 295.067 185.782C294.293 185.202 293.617 184.757 293.037 184.448C293.81 182.089 294.293 179.518 294.487 176.734C294.719 173.95 294.835 171.301 294.835 168.788V161.944Z" fill="white"/>
<circle cx="78.998" cy="62.9062" r="56" fill="#FF9C1E"/>
<path d="M58.3228 102.906L87.6552 44.8097V44.348H53.3512V30.179H105.837V44.4545L76.3981 102.906H58.3228Z" fill="white"/>
<ellipse cx="465.226" cy="173.548" rx="71.7733" ry="61.5476" fill="#FF9C1E"/>
<path d="M405.522 239L417.673 194.537L457.173 220.537L405.522 239Z" fill="#FF9C1E"/>
<path d="M415.729 192V159.273H423.639V185.576H437.254V192H415.729ZM451.059 159.273V192H443.149V159.273H451.059ZM485.678 159.273V192H478.966L465.943 173.112H465.735V192H457.825V159.273H464.632L477.512 178.129H477.784V159.273H485.678ZM492.452 192V159.273H515.271V165.697H500.362V172.408H514.105V178.848H500.362V185.576H515.271V192H492.452Z" fill="#FFB961"/>
</svg>
