<svg width="570" height="313" viewBox="0 0 570 313" fill="none" xmlns="http://www.w3.org/2000/svg">
<path d="M-0.00683594 29.9266H539.993C556.562 29.9266 569.993 43.3581 569.993 59.9266V312.298H29.9932C13.4246 312.298 -0.00683594 298.867 -0.00683594 282.298V29.9266Z" fill="#FF5F17"/>
<line x1="347.79" y1="219.798" x2="38.6372" y2="219.798" stroke="white"/>
<path d="M153.448 90.4685H169.48V93.8605H153.448V90.4685ZM153.032 105.669H169.576V109.061H153.032V105.669ZM151.336 97.0605H171.752V110.245H167.784V100.421H155.112V110.245H151.336V97.0605ZM161.32 83.9405C160.445 85.1992 159.336 86.4792 157.992 87.7805C156.669 89.0819 155.186 90.3299 153.544 91.5245C151.922 92.7192 150.237 93.7965 148.488 94.7565C148.317 94.4579 148.093 94.1165 147.816 93.7325C147.56 93.3485 147.272 92.9752 146.952 92.6125C146.653 92.2285 146.354 91.9085 146.056 91.6525C147.912 90.7352 149.682 89.6365 151.368 88.3565C153.074 87.0765 154.6 85.7219 155.944 84.2925C157.288 82.8632 158.354 81.4979 159.144 80.1965H163.144C163.997 81.4125 164.957 82.5752 166.024 83.6845C167.09 84.7939 168.21 85.8285 169.384 86.7885C170.578 87.7485 171.816 88.6019 173.096 89.3485C174.376 90.0952 175.645 90.7245 176.904 91.2365C176.434 91.7272 175.986 92.2819 175.56 92.9005C175.133 93.4979 174.749 94.0952 174.408 94.6925C173.17 94.0525 171.922 93.3165 170.664 92.4845C169.405 91.6312 168.189 90.7352 167.016 89.7965C165.864 88.8365 164.797 87.8659 163.816 86.8845C162.834 85.8819 162.002 84.9005 161.32 83.9405ZM181.192 81.3485H184.776V101.829H181.192V81.3485ZM183.24 81.3485H191.432V100.325H183.24V96.9325H187.88V84.7405H183.24V81.3485ZM183.144 88.9005H189.768V92.2605H183.144V88.9005ZM192.36 81.2845H206.472V84.6125H192.36V81.2845ZM205.256 81.2845H208.904C208.904 81.2845 208.904 81.4445 208.904 81.7645C208.904 82.0632 208.893 82.3299 208.872 82.5645C208.786 84.0152 208.69 85.2312 208.584 86.2125C208.477 87.1725 208.338 87.9405 208.168 88.5165C208.018 89.0712 207.816 89.4979 207.56 89.7965C207.261 90.1379 206.93 90.3832 206.568 90.5325C206.205 90.6605 205.8 90.7459 205.352 90.7885C204.946 90.8312 204.413 90.8632 203.752 90.8845C203.09 90.9059 202.386 90.9059 201.64 90.8845C201.618 90.3939 201.522 89.8605 201.352 89.2845C201.181 88.7085 200.968 88.2072 200.712 87.7805C201.33 87.8445 201.885 87.8872 202.376 87.9085C202.888 87.9299 203.272 87.9405 203.528 87.9405C203.741 87.9405 203.912 87.9192 204.04 87.8765C204.189 87.8339 204.328 87.7485 204.456 87.6205C204.605 87.4712 204.722 87.1939 204.808 86.7885C204.914 86.3619 205 85.7432 205.064 84.9325C205.149 84.1005 205.213 83.0339 205.256 81.7325V81.2845ZM197.256 82.3085H201C200.893 83.5032 200.701 84.6125 200.424 85.6365C200.168 86.6392 199.762 87.5565 199.208 88.3885C198.653 89.1992 197.896 89.9245 196.936 90.5645C195.997 91.1832 194.77 91.7165 193.256 92.1645C193.085 91.7165 192.797 91.2152 192.392 90.6605C192.008 90.1059 191.634 89.6579 191.272 89.3165C192.509 88.9965 193.501 88.6232 194.248 88.1965C194.994 87.7485 195.57 87.2365 195.976 86.6605C196.402 86.0632 196.701 85.4125 196.872 84.7085C197.042 83.9832 197.17 83.1832 197.256 82.3085ZM196.936 94.9165V98.3725H204.136V94.9165H196.936ZM193.32 91.8765H207.912V101.445H193.32V91.8765ZM189.032 103.365L192.616 102.917C192.829 103.962 193.01 105.114 193.16 106.373C193.309 107.61 193.394 108.655 193.416 109.509L189.64 110.085C189.64 109.509 189.618 108.837 189.576 108.069C189.533 107.301 189.469 106.501 189.384 105.669C189.298 104.837 189.181 104.069 189.032 103.365ZM195.848 103.269L199.432 102.629C199.709 103.311 199.976 104.047 200.232 104.837C200.488 105.626 200.712 106.405 200.904 107.173C201.096 107.919 201.234 108.581 201.32 109.157L197.48 109.957C197.437 109.402 197.32 108.741 197.128 107.973C196.957 107.205 196.754 106.415 196.52 105.605C196.306 104.773 196.082 103.994 195.848 103.269ZM202.472 103.269L205.928 101.893C206.376 102.575 206.845 103.322 207.336 104.133C207.826 104.943 208.274 105.743 208.68 106.533C209.106 107.301 209.437 107.994 209.672 108.613L205.96 110.213C205.746 109.594 205.448 108.879 205.064 108.069C204.68 107.279 204.253 106.458 203.784 105.605C203.336 104.751 202.898 103.973 202.472 103.269ZM183.688 102.149L187.4 103.173C186.888 104.389 186.269 105.658 185.544 106.981C184.818 108.282 184.125 109.413 183.464 110.373L179.752 108.773C180.2 108.239 180.658 107.61 181.128 106.885C181.618 106.138 182.088 105.359 182.536 104.549C182.984 103.738 183.368 102.938 183.688 102.149ZM213.032 96.3885C214.077 96.1752 215.25 95.9192 216.552 95.6205C217.874 95.3005 219.261 94.9592 220.712 94.5965C222.184 94.2339 223.634 93.8819 225.064 93.5405L225.544 97.1885C223.581 97.7219 221.586 98.2552 219.56 98.7885C217.554 99.3219 215.73 99.8019 214.088 100.229L213.032 96.3885ZM213.384 86.2445H225.032V89.8605H213.384V86.2445ZM217.512 80.1325H221.416V105.765C221.416 106.703 221.309 107.439 221.096 107.973C220.882 108.506 220.498 108.922 219.944 109.221C219.389 109.519 218.717 109.711 217.928 109.797C217.138 109.882 216.157 109.925 214.984 109.925C214.92 109.413 214.781 108.805 214.568 108.101C214.354 107.418 214.12 106.821 213.864 106.309C214.482 106.33 215.09 106.351 215.688 106.373C216.285 106.373 216.69 106.373 216.904 106.373C217.309 106.373 217.512 106.17 217.512 105.765V80.1325ZM225.544 82.5645H242.984V86.4045H225.544V82.5645ZM233.704 83.9725H237.832V105.189C237.832 106.298 237.682 107.162 237.384 107.781C237.106 108.421 236.605 108.911 235.88 109.253C235.154 109.594 234.248 109.807 233.16 109.893C232.072 109.978 230.781 110.021 229.288 110.021C229.224 109.615 229.106 109.157 228.936 108.645C228.765 108.133 228.573 107.621 228.36 107.109C228.168 106.597 227.965 106.17 227.752 105.829C228.413 105.85 229.085 105.871 229.768 105.893C230.472 105.914 231.101 105.925 231.656 105.925C232.21 105.925 232.594 105.925 232.808 105.925C233.128 105.925 233.352 105.871 233.48 105.765C233.629 105.637 233.704 105.423 233.704 105.125V83.9725ZM246.728 91.4605H275.88V95.2685H246.728V91.4605ZM261 84.0685H272.392V87.7485H261V84.0685ZM258.504 80.1325H262.6V93.2845H258.504V80.1325ZM258.504 93.8925H262.6V110.181H258.504V93.8925ZM261.416 100.005L263.368 96.9325C264.178 97.1672 265.064 97.4445 266.024 97.7645C266.984 98.0632 267.954 98.3939 268.936 98.7565C269.917 99.0979 270.845 99.4392 271.72 99.7805C272.594 100.122 273.33 100.442 273.928 100.741L271.88 104.229C271.304 103.909 270.589 103.567 269.736 103.205C268.904 102.842 268.008 102.469 267.048 102.085C266.088 101.701 265.117 101.327 264.136 100.965C263.176 100.602 262.269 100.282 261.416 100.005ZM296.835 92.2605H317.283V95.7165H296.835V92.2605ZM297.955 85.7965H316.195V89.1885H297.955V85.7965ZM304.707 87.4605H308.547V92.5805C308.547 93.6045 308.419 94.6712 308.163 95.7805C307.928 96.8899 307.48 97.9992 306.819 99.1085C306.179 100.197 305.251 101.253 304.035 102.277C302.84 103.279 301.293 104.197 299.395 105.029C299.224 104.751 298.989 104.442 298.691 104.101C298.392 103.759 298.083 103.418 297.763 103.077C297.443 102.735 297.133 102.458 296.835 102.245C298.648 101.583 300.077 100.847 301.123 100.037C302.189 99.2259 302.968 98.3832 303.459 97.5085C303.971 96.6339 304.301 95.7805 304.451 94.9485C304.621 94.0952 304.707 93.2952 304.707 92.5485V87.4605ZM309.123 94.6925C309.784 96.4632 310.787 97.9672 312.131 99.2045C313.496 100.421 315.245 101.295 317.379 101.829C317.101 102.085 316.803 102.405 316.483 102.789C316.184 103.173 315.896 103.567 315.619 103.973C315.363 104.357 315.139 104.719 314.947 105.061C312.6 104.293 310.701 103.087 309.251 101.445C307.8 99.8019 306.68 97.7859 305.891 95.3965L309.123 94.6925ZM295.555 92.6125V104.421H291.811V96.1645H288.099V92.6125H295.555ZM295.555 102.757C296.216 103.802 297.144 104.57 298.339 105.061C299.533 105.551 300.963 105.829 302.627 105.893C303.565 105.935 304.675 105.967 305.955 105.989C307.256 105.989 308.621 105.978 310.051 105.957C311.48 105.935 312.877 105.893 314.243 105.829C315.629 105.765 316.856 105.69 317.923 105.605C317.795 105.903 317.645 106.287 317.475 106.757C317.304 107.226 317.144 107.706 316.995 108.197C316.867 108.687 316.771 109.125 316.707 109.509C315.747 109.573 314.648 109.615 313.411 109.637C312.173 109.679 310.904 109.701 309.603 109.701C308.301 109.722 307.043 109.722 305.827 109.701C304.611 109.679 303.523 109.647 302.563 109.605C300.6 109.519 298.925 109.21 297.539 108.677C296.152 108.165 294.925 107.29 293.859 106.053C293.155 106.65 292.429 107.269 291.683 107.909C290.957 108.549 290.157 109.21 289.283 109.893L287.395 105.893C288.141 105.445 288.92 104.954 289.731 104.421C290.541 103.887 291.32 103.333 292.067 102.757H295.555ZM288.131 83.2045L290.979 80.9005C291.64 81.3272 292.312 81.8285 292.995 82.4045C293.677 82.9592 294.317 83.5352 294.915 84.1325C295.512 84.7085 295.992 85.2419 296.355 85.7325L293.315 88.2925C292.995 87.7805 292.547 87.2259 291.971 86.6285C291.416 86.0312 290.797 85.4339 290.115 84.8365C289.432 84.2179 288.771 83.6739 288.131 83.2045ZM311.331 80.1325L315.235 81.3485C314.659 82.2659 314.061 83.1725 313.443 84.0685C312.845 84.9432 312.291 85.6899 311.779 86.3085L308.643 85.2205C308.963 84.7299 309.293 84.1965 309.635 83.6205C309.976 83.0232 310.296 82.4259 310.595 81.8285C310.893 81.2099 311.139 80.6445 311.331 80.1325ZM298.787 81.5405L302.019 80.1965C302.616 80.9219 303.181 81.7432 303.715 82.6605C304.248 83.5779 304.621 84.3885 304.835 85.0925L301.379 86.5645C301.208 85.8819 300.867 85.0712 300.355 84.1325C299.864 83.1725 299.341 82.3085 298.787 81.5405Z" fill="white"/>
<path d="M46.144 240.37H54.4V242.722H46.144V240.37ZM42.016 254.29C42.736 254.178 43.568 254.042 44.512 253.882C45.472 253.722 46.488 253.554 47.56 253.378C48.632 253.186 49.696 252.994 50.752 252.802L50.992 255.298C49.6 255.618 48.2 255.93 46.792 256.234C45.384 256.554 44.104 256.834 42.952 257.074L42.016 254.29ZM44.512 235.978H47.296V254.938H44.512V235.978ZM46.144 235.978H55.72V247.21H46.144V244.738H52.864V238.45H46.144V235.978ZM51.136 245.554C51.44 246.994 51.856 248.33 52.384 249.562C52.912 250.778 53.584 251.85 54.4 252.778C55.216 253.706 56.216 254.426 57.4 254.938C57.192 255.13 56.968 255.362 56.728 255.634C56.488 255.922 56.256 256.218 56.032 256.522C55.824 256.842 55.656 257.13 55.528 257.386C54.232 256.698 53.144 255.802 52.264 254.698C51.4 253.578 50.688 252.282 50.128 250.81C49.568 249.338 49.112 247.722 48.76 245.962L51.136 245.554ZM54.616 247.378L56.872 248.938C56.216 249.578 55.52 250.21 54.784 250.834C54.064 251.442 53.4 251.962 52.792 252.394L51.016 251.026C51.4 250.706 51.808 250.338 52.24 249.922C52.688 249.506 53.12 249.074 53.536 248.626C53.952 248.178 54.312 247.762 54.616 247.378ZM35.776 235.93H41.752V238.522H38.464V257.458H35.776V235.93ZM40.96 235.93H41.464L41.872 235.834L43.84 236.962C43.616 237.666 43.376 238.41 43.12 239.194C42.864 239.978 42.608 240.754 42.352 241.522C42.096 242.29 41.84 242.986 41.584 243.61C42.368 244.538 42.872 245.418 43.096 246.25C43.336 247.066 43.456 247.826 43.456 248.53C43.456 249.33 43.368 249.986 43.192 250.498C43.016 251.01 42.728 251.41 42.328 251.698C42.136 251.842 41.912 251.954 41.656 252.034C41.416 252.114 41.168 252.178 40.912 252.226C40.688 252.258 40.424 252.274 40.12 252.274C39.832 252.274 39.536 252.274 39.232 252.274C39.216 251.906 39.152 251.474 39.04 250.978C38.944 250.482 38.8 250.058 38.608 249.706C38.832 249.722 39.032 249.73 39.208 249.73C39.4 249.73 39.568 249.73 39.712 249.73C39.84 249.73 39.96 249.714 40.072 249.682C40.2 249.634 40.32 249.578 40.432 249.514C40.576 249.402 40.68 249.234 40.744 249.01C40.824 248.77 40.856 248.482 40.84 248.146C40.84 247.586 40.72 246.946 40.48 246.226C40.256 245.49 39.784 244.722 39.064 243.922C39.24 243.378 39.416 242.778 39.592 242.122C39.784 241.466 39.96 240.81 40.12 240.154C40.296 239.482 40.456 238.858 40.6 238.282C40.76 237.69 40.88 237.202 40.96 236.818V235.93ZM65.872 239.314V240.13H75.856V239.314H65.872ZM65.872 237.106V237.922H75.856V237.106H65.872ZM63.112 235.642H78.76V241.594H63.112V235.642ZM65.368 248.89V249.73H76.528V248.89H65.368ZM65.368 246.61V247.45H76.528V246.61H65.368ZM62.68 245.098H79.36V251.266H62.68V245.098ZM69.544 245.602H72.328V255.898H69.544V245.602ZM60.064 242.314H81.928V244.378H60.064V242.314ZM62.176 252.058H79.816V253.882H62.176V252.058ZM60.016 254.77H81.976V256.858H60.016V254.77ZM98.005 255.537C96.7323 255.537 95.6016 255.307 94.613 254.847C93.6243 254.386 92.8431 253.753 92.2692 252.946C91.701 252.139 91.4056 251.213 91.3828 250.168H95.4738C95.5078 250.81 95.7692 251.327 96.2578 251.719C96.7465 252.105 97.3289 252.298 98.005 252.298C98.5334 252.298 99.0022 252.182 99.4113 251.949C99.8203 251.716 100.141 251.389 100.374 250.969C100.607 250.543 100.721 250.054 100.715 249.503C100.721 248.94 100.604 248.449 100.366 248.028C100.133 247.608 99.809 247.281 99.3942 247.048C98.9851 246.81 98.5135 246.69 97.9794 246.69C97.4738 246.685 96.9936 246.795 96.5391 247.023C96.0902 247.25 95.7493 247.56 95.5164 247.952L91.7919 247.253L92.5505 237.844H103.749V241.244H96.0192L95.6186 245.361H95.7209C96.0107 244.878 96.4766 244.48 97.1186 244.168C97.7664 243.849 98.5022 243.69 99.326 243.69C100.371 243.69 101.303 243.935 102.121 244.423C102.945 244.906 103.593 245.577 104.065 246.435C104.542 247.293 104.781 248.275 104.781 249.383C104.781 250.582 104.496 251.645 103.928 252.571C103.366 253.497 102.576 254.224 101.559 254.753C100.548 255.275 99.363 255.537 98.005 255.537ZM115.275 255.724C113.753 255.724 112.44 255.364 111.338 254.642C110.236 253.915 109.386 252.872 108.79 251.514C108.193 250.15 107.898 248.511 107.903 246.597C107.909 244.682 108.207 243.057 108.798 241.722C109.395 240.381 110.241 239.361 111.338 238.662C112.44 237.957 113.753 237.605 115.275 237.605C116.798 237.605 118.111 237.957 119.213 238.662C120.321 239.361 121.173 240.381 121.77 241.722C122.366 243.062 122.662 244.687 122.656 246.597C122.656 248.517 122.358 250.159 121.761 251.523C121.165 252.886 120.315 253.929 119.213 254.65C118.116 255.366 116.804 255.724 115.275 255.724ZM115.275 252.273C116.184 252.273 116.92 251.81 117.483 250.883C118.045 249.952 118.324 248.523 118.318 246.597C118.318 245.335 118.19 244.295 117.934 243.477C117.679 242.653 117.324 242.04 116.869 241.636C116.415 241.233 115.883 241.031 115.275 241.031C114.372 241.031 113.642 241.489 113.085 242.403C112.528 243.312 112.247 244.71 112.241 246.597C112.236 247.875 112.358 248.935 112.608 249.775C112.863 250.616 113.221 251.244 113.682 251.659C114.142 252.068 114.673 252.273 115.275 252.273ZM133.251 255.724C131.728 255.724 130.416 255.364 129.313 254.642C128.211 253.915 127.362 252.872 126.765 251.514C126.169 250.15 125.873 248.511 125.879 246.597C125.885 244.682 126.183 243.057 126.774 241.722C127.37 240.381 128.217 239.361 129.313 238.662C130.416 237.957 131.728 237.605 133.251 237.605C134.774 237.605 136.086 237.957 137.188 238.662C138.296 239.361 139.149 240.381 139.745 241.722C140.342 243.062 140.637 244.687 140.632 246.597C140.632 248.517 140.333 250.159 139.737 251.523C139.14 252.886 138.291 253.929 137.188 254.65C136.092 255.366 134.779 255.724 133.251 255.724ZM133.251 252.273C134.16 252.273 134.896 251.81 135.458 250.883C136.021 249.952 136.299 248.523 136.294 246.597C136.294 245.335 136.166 244.295 135.91 243.477C135.654 242.653 135.299 242.04 134.845 241.636C134.39 241.233 133.859 241.031 133.251 241.031C132.348 241.031 131.617 241.489 131.061 242.403C130.504 243.312 130.223 244.71 130.217 246.597C130.211 247.875 130.333 248.935 130.583 249.775C130.839 250.616 131.197 251.244 131.657 251.659C132.117 252.068 132.649 252.273 133.251 252.273ZM161.773 242.05H168.925V244.642H161.773V242.05ZM161.773 248.05H168.925V250.642H161.773V248.05ZM160.285 236.122H170.557V255.802H167.653V238.714H163.045V255.802H160.285V236.122ZM158.053 254.218H172.189V256.81H158.053V254.218ZM153.157 234.922L155.701 235.81C155.381 236.434 155.045 237.074 154.693 237.73C154.341 238.37 153.997 238.994 153.661 239.602C153.325 240.194 152.997 240.714 152.677 241.162L150.733 240.37C151.021 239.874 151.317 239.314 151.621 238.69C151.925 238.05 152.213 237.402 152.485 236.746C152.757 236.09 152.981 235.482 153.157 234.922ZM156.037 237.778L158.485 238.786C157.893 239.698 157.253 240.658 156.565 241.666C155.877 242.658 155.181 243.61 154.477 244.522C153.773 245.434 153.117 246.234 152.509 246.922L150.757 246.034C151.221 245.49 151.693 244.874 152.173 244.186C152.653 243.498 153.125 242.786 153.589 242.05C154.069 241.314 154.517 240.578 154.933 239.842C155.365 239.09 155.733 238.402 156.037 237.778ZM149.461 240.61L150.829 238.642C151.245 238.994 151.677 239.394 152.125 239.842C152.573 240.274 152.981 240.706 153.349 241.138C153.733 241.57 154.021 241.97 154.213 242.338L152.749 244.57C152.557 244.202 152.277 243.786 151.909 243.322C151.557 242.842 151.165 242.37 150.733 241.906C150.301 241.426 149.877 240.994 149.461 240.61ZM155.461 243.562L157.501 242.674C157.821 243.202 158.133 243.77 158.437 244.378C158.741 244.986 159.005 245.586 159.229 246.178C159.453 246.754 159.621 247.274 159.733 247.738L157.525 248.746C157.429 248.298 157.277 247.778 157.069 247.186C156.861 246.578 156.613 245.962 156.325 245.338C156.053 244.698 155.765 244.106 155.461 243.562ZM149.461 245.482C150.565 245.45 151.893 245.402 153.445 245.338C155.013 245.274 156.605 245.202 158.221 245.122L158.197 247.402C156.693 247.514 155.197 247.626 153.709 247.738C152.221 247.834 150.885 247.914 149.701 247.978L149.461 245.482ZM155.869 249.562L157.981 248.866C158.317 249.586 158.629 250.37 158.917 251.218C159.205 252.066 159.413 252.802 159.541 253.426L157.309 254.242C157.197 253.602 157.005 252.85 156.733 251.986C156.461 251.106 156.173 250.298 155.869 249.562ZM150.493 249.01L152.869 249.442C152.741 250.594 152.549 251.73 152.293 252.85C152.037 253.97 151.741 254.914 151.405 255.682C151.245 255.57 151.029 255.442 150.757 255.298C150.485 255.17 150.205 255.042 149.917 254.914C149.645 254.786 149.405 254.69 149.197 254.626C149.549 253.906 149.829 253.05 150.037 252.058C150.245 251.05 150.397 250.034 150.493 249.01ZM153.277 246.754H155.821V257.458H153.277V246.754Z" fill="white"/>
<path d="M39.51 147.96H86.316V154.804H39.51V147.96ZM42.584 164.896H83.59V171.624H42.584V164.896ZM37.016 182.818H89.216V189.662H37.016V182.818ZM59.172 153.876H66.828V186.472H59.172V153.876ZM54.01 140.942L59.81 136.94C61.0473 137.714 62.362 138.622 63.754 139.666C65.1847 140.71 66.538 141.754 67.814 142.798C69.1287 143.842 70.192 144.828 71.004 145.756L64.798 150.222C64.102 149.333 63.1353 148.347 61.898 147.264C60.6993 146.143 59.404 145.041 58.012 143.958C56.62 142.837 55.286 141.832 54.01 140.942ZM105.63 151.092V153.818H113.924V151.092H105.63ZM105.63 143.958V146.684H113.924V143.958H105.63ZM99.482 139.26H120.362V158.516H99.482V139.26ZM96.814 161.88H122.972V166.926H96.814V161.88ZM122.74 139.434H149.478V144.364H122.74V139.434ZM107.602 163.446H113.46V186.762L107.602 183.456V163.446ZM110.676 171.624H121.87V176.67H110.676V171.624ZM133.934 140.652L140.256 141.986C139.521 143.61 138.787 145.254 138.052 146.916C137.356 148.54 136.718 149.913 136.138 151.034L131.15 149.7C131.653 148.424 132.175 146.936 132.716 145.234C133.257 143.533 133.663 142.006 133.934 140.652ZM130.686 159.27V161.996H141.3V159.27H130.686ZM130.686 166.462V169.188H141.3V166.462H130.686ZM130.686 152.136V154.862H141.3V152.136H130.686ZM124.538 147.438H147.738V173.944H124.538V147.438ZM129.236 174.35L134.92 176.148C133.721 177.772 132.175 179.358 130.28 180.904C128.424 182.412 126.587 183.669 124.77 184.674C124.422 184.326 123.977 183.901 123.436 183.398C122.895 182.857 122.334 182.335 121.754 181.832C121.213 181.33 120.71 180.924 120.246 180.614C121.986 179.88 123.668 178.952 125.292 177.83C126.916 176.709 128.231 175.549 129.236 174.35ZM99.424 169.246H105.05C104.934 172.185 104.721 175.066 104.412 177.888C104.103 180.672 103.561 183.263 102.788 185.66C102.053 188.019 100.951 190.088 99.482 191.866C99.0567 191.132 98.438 190.281 97.626 189.314C96.8527 188.348 96.118 187.613 95.422 187.11C96.5047 185.757 97.3167 184.133 97.858 182.238C98.438 180.344 98.8247 178.294 99.018 176.09C99.25 173.848 99.3853 171.566 99.424 169.246ZM104.064 174.06C104.915 176.496 105.997 178.43 107.312 179.86C108.627 181.291 110.193 182.374 112.01 183.108C113.866 183.843 115.993 184.326 118.39 184.558C120.787 184.752 123.455 184.848 126.394 184.848C127.206 184.848 128.405 184.848 129.99 184.848C131.575 184.848 133.373 184.848 135.384 184.848C137.395 184.848 139.425 184.848 141.474 184.848C143.523 184.81 145.399 184.771 147.1 184.732C148.801 184.694 150.135 184.674 151.102 184.674C150.638 185.293 150.174 186.182 149.71 187.342C149.285 188.502 148.995 189.508 148.84 190.358H144.374H126.394C122.837 190.358 119.647 190.184 116.824 189.836C114.001 189.488 111.507 188.792 109.342 187.748C107.215 186.743 105.379 185.235 103.832 183.224C102.285 181.214 100.99 178.584 99.946 175.336L104.064 174.06ZM137.414 176.496L142.228 174.002C143.272 174.66 144.335 175.433 145.418 176.322C146.501 177.173 147.506 178.043 148.434 178.932C149.401 179.783 150.174 180.576 150.754 181.31L145.766 184.268C145.147 183.495 144.374 182.644 143.446 181.716C142.518 180.788 141.513 179.86 140.43 178.932C139.386 178.004 138.381 177.192 137.414 176.496ZM190.6 176.902V179.57H195.356V176.902H190.6ZM186.192 173.364H199.88V183.05H186.192V173.364ZM177.782 167.1H208.696V191.402H202.722V171.45H183.524V191.46H177.782V167.1ZM176.506 141.754H208.986V146.974H176.506V141.754ZM181.32 184.906H204.868V189.43H181.32V184.906ZM175.404 159.27H210.784V164.606H175.404V159.27ZM156.438 165.766H171.518V171.74H156.438V165.766ZM168.038 137.056H174.186V191.518H168.038V137.056ZM189.382 136.998H195.82V162.112H189.382V136.998ZM180.624 153.934L183.93 151.092C184.897 151.75 185.883 152.523 186.888 153.412C187.893 154.302 188.667 155.094 189.208 155.79L185.786 158.98C185.245 158.246 184.471 157.395 183.466 156.428C182.499 155.462 181.552 154.63 180.624 153.934ZM158.99 168.26H164.848V171.798C164.848 172.958 164.79 174.35 164.674 175.974C164.597 177.598 164.423 179.319 164.152 181.136C163.92 182.954 163.572 184.752 163.108 186.53C162.644 188.309 162.025 189.933 161.252 191.402C160.865 191.132 160.343 190.842 159.686 190.532C159.067 190.223 158.41 189.914 157.714 189.604C157.057 189.295 156.457 189.044 155.916 188.85C156.805 187.11 157.463 185.177 157.888 183.05C158.313 180.885 158.603 178.797 158.758 176.786C158.913 174.737 158.99 173.016 158.99 171.624V168.26ZM181.03 147.148L186.134 148.192C185.477 150.435 184.529 152.523 183.292 154.456C182.093 156.39 180.759 158.014 179.29 159.328C178.826 158.903 178.149 158.4 177.26 157.82C176.371 157.202 175.597 156.738 174.94 156.428C176.409 155.268 177.647 153.896 178.652 152.31C179.696 150.686 180.489 148.966 181.03 147.148ZM201.33 153.644L204.636 150.802C205.68 151.498 206.763 152.349 207.884 153.354C209.005 154.321 209.875 155.191 210.494 155.964L207.014 159.096C206.434 158.284 205.583 157.376 204.462 156.37C203.379 155.326 202.335 154.418 201.33 153.644ZM201.272 147.148L206.434 148.076C205.854 150.358 204.965 152.465 203.766 154.398C202.606 156.332 201.253 157.936 199.706 159.212C199.242 158.787 198.565 158.265 197.676 157.646C196.787 157.028 196.013 156.564 195.356 156.254C196.864 155.172 198.121 153.838 199.126 152.252C200.131 150.667 200.847 148.966 201.272 147.148ZM158.584 140.072H164.442V153.296H172.156V159.502H158.584V140.072ZM241.176 139.956H264.782V146.336H241.176V139.956ZM239.204 160.082H271.278V166.694H239.204V160.082ZM251.5 153.354H258.46V183.746C258.46 185.486 258.247 186.859 257.822 187.864C257.397 188.87 256.623 189.643 255.502 190.184C254.342 190.726 252.95 191.074 251.326 191.228C249.741 191.422 247.885 191.499 245.758 191.46C245.603 190.494 245.275 189.353 244.772 188.038C244.269 186.724 243.767 185.583 243.264 184.616C244.733 184.655 246.145 184.694 247.498 184.732C248.851 184.771 249.779 184.771 250.282 184.732C250.746 184.732 251.055 184.655 251.21 184.5C251.403 184.346 251.5 184.075 251.5 183.688V153.354ZM262.23 139.956H263.97L265.362 139.55L269.886 142.972C268.765 144.674 267.489 146.452 266.058 148.308C264.666 150.126 263.197 151.885 261.65 153.586C260.103 155.249 258.576 156.718 257.068 157.994C256.604 157.376 255.966 156.66 255.154 155.848C254.342 155.036 253.646 154.398 253.066 153.934C254.226 152.852 255.405 151.556 256.604 150.048C257.803 148.54 258.885 147.013 259.852 145.466C260.857 143.92 261.65 142.566 262.23 141.406V139.956ZM217.106 148.54H235.898V155.036H217.106V148.54ZM224.936 136.998L231.432 137.694C230.891 140.788 230.272 144.036 229.576 147.438C228.919 150.841 228.223 154.244 227.488 157.646C226.753 161.01 226.019 164.278 225.284 167.448C224.549 170.58 223.834 173.442 223.138 176.032L217.454 173.074C218.111 170.793 218.769 168.183 219.426 165.244C220.122 162.306 220.799 159.212 221.456 155.964C222.113 152.678 222.732 149.43 223.312 146.22C223.931 142.972 224.472 139.898 224.936 136.998ZM220.528 172.088L224.298 167.158C226.309 168.434 228.416 169.865 230.62 171.45C232.863 173.036 234.931 174.64 236.826 176.264C238.759 177.888 240.287 179.435 241.408 180.904L237.232 186.53C236.149 185.061 234.68 183.476 232.824 181.774C230.968 180.034 228.957 178.314 226.792 176.612C224.665 174.911 222.577 173.403 220.528 172.088ZM233.462 148.54H234.622L235.84 148.424L239.958 149.12C239.533 156.66 238.585 163.176 237.116 168.666C235.685 174.118 233.675 178.72 231.084 182.47C228.532 186.221 225.323 189.295 221.456 191.692C221.031 190.842 220.412 189.856 219.6 188.734C218.788 187.652 218.015 186.801 217.28 186.182C220.567 184.442 223.351 181.89 225.632 178.526C227.913 175.162 229.692 171.064 230.968 166.23C232.283 161.397 233.114 155.945 233.462 149.874V148.54ZM304.57 179.744L309.964 178.294C310.621 179.3 311.182 180.402 311.646 181.6C312.11 182.799 312.439 183.862 312.632 184.79L306.948 186.472C306.832 185.544 306.542 184.442 306.078 183.166C305.614 181.89 305.111 180.75 304.57 179.744ZM319.882 178.178L325.914 179.802C325.295 181.04 324.677 182.238 324.058 183.398C323.478 184.558 322.937 185.544 322.434 186.356L317.272 184.848C317.736 183.92 318.219 182.818 318.722 181.542C319.225 180.266 319.611 179.145 319.882 178.178ZM307.76 171.74V174.64H322.144V171.74H307.76ZM301.96 167.622H328.118V178.758H301.96V167.622ZM305.672 151.614V154.282H324V151.614H305.672ZM305.672 145.002V147.612H324V145.002H305.672ZM300.162 140.768H329.8V158.516H300.162V140.768ZM299.292 160.488H330.786V165.708H299.292V160.488ZM298.132 185.254H331.598V190.416H298.132V185.254ZM307.934 136.998H313.038V143.9H307.934V136.998ZM316.46 136.998H321.622V143.9H316.46V136.998ZM308.92 142.74H313.038V157.704H308.92V142.74ZM316.46 142.74H320.578V157.704H316.46V142.74ZM277.658 152.194H298.016V158.226H277.658V152.194ZM279.05 140.652H296.856V146.626H279.05V140.652ZM293.434 161.184H297.842V182.76H293.434V161.184ZM285.256 155.21H290.998V191.46H285.256V155.21ZM278.47 161.242H282.878V168.202C282.878 171.18 282.743 174.312 282.472 177.598C282.201 180.846 281.563 183.862 280.558 186.646C280.094 186.182 279.475 185.66 278.702 185.08C277.929 184.5 277.252 184.056 276.672 183.746C277.445 181.388 277.929 178.816 278.122 176.032C278.354 173.248 278.47 170.6 278.47 168.086V161.242Z" fill="white"/>
<circle cx="78.9932" cy="66.2859" r="56" fill="#FF9C1E"/>
<path d="M78.6691 103.28C73.1294 103.28 68.2169 102.333 63.9319 100.439C59.6705 98.5217 56.3088 95.882 53.8467 92.5203C51.3846 89.1585 50.1298 85.2878 50.0825 80.908H67.7671C67.8382 82.4942 68.3472 83.9028 69.2941 85.1339C70.2411 86.3413 71.5313 87.2883 73.1649 87.9748C74.7984 88.6614 76.6568 89.0046 78.7401 89.0046C80.8235 89.0046 82.6582 88.6377 84.2444 87.9038C85.8543 87.1462 87.109 86.1164 88.0086 84.8143C88.9082 83.4885 89.3462 81.9734 89.3225 80.2688C89.3462 78.5643 88.8609 77.0491 87.8666 75.7234C86.8722 74.3976 85.4636 73.3678 83.6407 72.6339C81.8415 71.9 79.7108 71.533 77.2487 71.533H70.1819V59.033H77.2487C79.403 59.033 81.297 58.6779 82.9305 57.9677C84.5877 57.2575 85.8779 56.2632 86.8012 54.9848C87.7245 53.6827 88.1743 52.1912 88.1507 50.5103C88.1743 48.8768 87.7837 47.4445 86.9788 46.2134C86.1975 44.9587 85.0967 43.9881 83.6762 43.3015C82.2794 42.615 80.6578 42.2717 78.8112 42.2717C76.8699 42.2717 75.1061 42.615 73.52 43.3015C71.9575 43.9881 70.7146 44.9587 69.7913 46.2134C68.868 47.4682 68.3827 48.9241 68.3353 50.5813H51.5384C51.5858 46.249 52.7932 42.4374 55.1606 39.1467C57.528 35.8323 60.7477 33.24 64.8197 31.3697C68.9153 29.4994 73.5792 28.5643 78.8112 28.5643C84.0195 28.5643 88.6005 29.4758 92.5541 31.2987C96.5077 33.1216 99.5853 35.6074 101.787 38.7561C103.989 41.8811 105.09 45.4204 105.09 49.374C105.113 53.4696 103.776 56.8432 101.077 59.4947C98.4016 62.1462 94.957 63.7797 90.743 64.3953V64.9634C96.3775 65.6263 100.627 67.4492 103.492 70.4322C106.38 73.4151 107.812 77.1438 107.788 81.6183C107.788 85.8323 106.546 89.5728 104.06 92.8399C101.598 96.0832 98.1649 98.6401 93.7615 100.51C89.3817 102.357 84.3509 103.28 78.6691 103.28Z" fill="white"/>
<path d="M470.763 143.894L435.132 125.761L463.803 104.524L470.763 143.894Z" fill="#FF9C1E"/>
<rect x="404.447" y="135.944" width="139.547" height="101.539" fill="#FF9C1E"/>
<path d="M476.255 139.312L486.293 103.294L510.535 125.805L476.255 139.312Z" fill="#FF9C1E"/>
</svg>
