<svg width="570" height="317" viewBox="0 0 570 317" fill="none" xmlns="http://www.w3.org/2000/svg">
<path d="M-0.00683594 33.7495H539.993C556.562 33.7495 569.993 47.181 569.993 63.7495V316.121H29.9932C13.4246 316.121 -0.00683594 302.69 -0.00683594 286.121V33.7495Z" fill="#FF5F17"/>
<line x1="347.79" y1="223.621" x2="38.6372" y2="223.621" stroke="white"/>
<path d="M162.983 103.512H166.791V107.16C166.791 107.587 166.898 107.864 167.111 107.992C167.325 108.099 167.815 108.152 168.583 108.152C168.754 108.152 169.042 108.152 169.447 108.152C169.853 108.152 170.29 108.152 170.759 108.152C171.229 108.152 171.677 108.152 172.103 108.152C172.53 108.152 172.861 108.152 173.095 108.152C173.501 108.152 173.799 108.099 173.991 107.992C174.205 107.864 174.365 107.608 174.471 107.224C174.578 106.84 174.642 106.264 174.663 105.496C175.047 105.752 175.57 106.008 176.231 106.264C176.914 106.499 177.511 106.659 178.023 106.744C177.874 108.003 177.639 108.963 177.319 109.624C176.999 110.285 176.53 110.744 175.911 111C175.314 111.256 174.493 111.384 173.447 111.384C173.277 111.384 173.01 111.384 172.647 111.384C172.306 111.384 171.911 111.384 171.463 111.384C171.015 111.384 170.567 111.384 170.119 111.384C169.671 111.384 169.266 111.384 168.903 111.384C168.562 111.384 168.306 111.384 168.135 111.384C166.749 111.384 165.682 111.256 164.935 111C164.189 110.765 163.677 110.339 163.399 109.72C163.122 109.123 162.983 108.291 162.983 107.224V103.512ZM166.919 102.968L169.511 101.112C170.045 101.453 170.599 101.848 171.175 102.296C171.751 102.723 172.285 103.171 172.775 103.64C173.266 104.109 173.65 104.557 173.927 104.984L171.175 107C170.77 106.381 170.162 105.699 169.351 104.952C168.562 104.205 167.751 103.544 166.919 102.968ZM176.935 104.792L179.975 103.128C180.594 103.704 181.223 104.355 181.863 105.08C182.503 105.784 183.09 106.499 183.623 107.224C184.157 107.928 184.562 108.589 184.839 109.208L181.511 111.096C181.277 110.499 180.903 109.827 180.391 109.08C179.901 108.355 179.357 107.619 178.759 106.872C178.162 106.104 177.554 105.411 176.935 104.792ZM155.431 85.176L157.703 82.456C158.343 82.7334 159.015 83.064 159.719 83.448C160.445 83.832 161.127 84.2267 161.767 84.632C162.407 85.016 162.941 85.3894 163.367 85.752L160.935 88.76C160.573 88.3974 160.071 88.0027 159.431 87.576C158.813 87.128 158.141 86.7014 157.415 86.296C156.711 85.8694 156.05 85.496 155.431 85.176ZM175.239 97.08L177.287 96.248C177.629 96.632 177.959 97.08 178.279 97.592C178.599 98.104 178.834 98.552 178.983 98.936L176.839 99.864C176.711 99.4587 176.498 99 176.199 98.488C175.901 97.9547 175.581 97.4854 175.239 97.08ZM171.463 97.528L173.927 96.856C174.226 97.3894 174.514 97.9867 174.791 98.648C175.069 99.3094 175.25 99.8854 175.335 100.376L172.775 101.144C172.69 100.653 172.519 100.077 172.263 99.416C172.029 98.7334 171.762 98.104 171.463 97.528ZM158.887 102.84L162.119 104.12C161.671 105.4 161.095 106.669 160.391 107.928C159.687 109.165 158.823 110.232 157.799 111.128L154.695 108.984C155.677 108.237 156.519 107.32 157.223 106.232C157.927 105.144 158.482 104.013 158.887 102.84ZM165.351 82.776H182.759V85.496H168.999V94.808H165.351V82.776ZM167.943 86.616H181.543V88.856H167.943V86.616ZM167.943 90.008H181.543V92.28H167.943V90.008ZM165.351 93.464H181.735V96.152H165.351V93.464ZM172.775 84.12H176.231V94.712H172.775V84.12ZM154.951 98.168C155.549 97.5707 156.21 96.8667 156.935 96.056C157.682 95.2454 158.45 94.3707 159.239 93.432C160.029 92.4934 160.786 91.5547 161.511 90.616L163.815 93.048C163.197 93.9014 162.557 94.776 161.895 95.672C161.255 96.568 160.594 97.4534 159.911 98.328C159.25 99.2027 158.578 100.045 157.895 100.856L154.951 98.168ZM164.199 96.184L166.951 97.272C166.653 98.2107 166.269 99.16 165.799 100.12C165.33 101.08 164.743 101.891 164.039 102.552L161.383 100.952C162.045 100.376 162.61 99.6507 163.079 98.776C163.57 97.9014 163.943 97.0374 164.199 96.184ZM180.391 93.464H183.783C183.783 93.464 183.773 93.6134 183.751 93.912C183.751 94.1894 183.73 94.4347 183.687 94.648C183.602 96.1414 183.495 97.3787 183.367 98.36C183.239 99.32 183.101 100.088 182.951 100.664C182.802 101.219 182.61 101.624 182.375 101.88C182.119 102.179 181.831 102.403 181.511 102.552C181.191 102.701 180.85 102.787 180.487 102.808C180.189 102.872 179.783 102.915 179.271 102.936C178.759 102.936 178.194 102.925 177.575 102.904C177.554 102.477 177.469 102.008 177.319 101.496C177.191 100.963 177.031 100.504 176.839 100.12C177.266 100.163 177.639 100.195 177.959 100.216C178.301 100.216 178.546 100.216 178.695 100.216C179.058 100.216 179.325 100.12 179.495 99.928C179.709 99.6934 179.879 99.1387 180.007 98.264C180.157 97.368 180.285 95.9067 180.391 93.88V93.464ZM167.335 97.624L169.991 97.08C170.226 97.72 170.429 98.424 170.599 99.192C170.791 99.9387 170.919 100.589 170.983 101.144L168.135 101.752C168.135 101.197 168.061 100.536 167.911 99.768C167.762 98.9787 167.57 98.264 167.335 97.624ZM195.943 102.488H208.295V104.568H195.943V102.488ZM197.703 99.672H208.999V101.464H197.703V99.672ZM197.703 96.92H208.871V98.68H197.703V96.92ZM201.639 95.096H204.519V103.704H201.639V95.096ZM207.847 102.488H210.791C210.791 102.488 210.791 102.616 210.791 102.872C210.791 103.107 210.781 103.32 210.759 103.512C210.695 104.856 210.621 105.965 210.535 106.84C210.471 107.715 210.375 108.387 210.247 108.856C210.141 109.347 209.981 109.72 209.767 109.976C209.554 110.232 209.298 110.424 208.999 110.552C208.701 110.68 208.381 110.765 208.039 110.808C207.719 110.829 207.314 110.84 206.823 110.84C206.354 110.861 205.853 110.861 205.319 110.84C205.298 110.477 205.223 110.072 205.095 109.624C204.967 109.197 204.818 108.835 204.647 108.536C205.053 108.579 205.415 108.611 205.735 108.632C206.077 108.653 206.333 108.653 206.503 108.632C206.823 108.653 207.069 108.568 207.239 108.376C207.389 108.184 207.506 107.693 207.591 106.904C207.698 106.093 207.783 104.749 207.847 102.872V102.488ZM195.335 105.112L197.575 105.688C197.426 106.648 197.202 107.576 196.903 108.472C196.605 109.347 196.135 110.072 195.495 110.648L193.479 109.304C193.991 108.835 194.397 108.216 194.695 107.448C195.015 106.68 195.229 105.901 195.335 105.112ZM204.167 105.368L205.703 104.888C206.002 105.293 206.258 105.752 206.471 106.264C206.685 106.776 206.845 107.224 206.951 107.608L205.319 108.216C205.234 107.811 205.085 107.341 204.871 106.808C204.679 106.275 204.445 105.795 204.167 105.368ZM198.375 105.88L200.263 105.624C200.391 106.285 200.477 107.021 200.519 107.832C200.583 108.643 200.605 109.315 200.583 109.848L198.535 110.168C198.599 109.592 198.61 108.909 198.567 108.12C198.546 107.309 198.482 106.563 198.375 105.88ZM201.383 105.72L203.143 105.304C203.357 105.88 203.538 106.52 203.687 107.224C203.837 107.907 203.933 108.493 203.975 108.984L202.119 109.496C202.098 108.984 202.023 108.376 201.895 107.672C201.767 106.968 201.597 106.317 201.383 105.72ZM195.943 93.848H209.799V95.96H198.951V103.64H195.943V93.848ZM191.303 86.424H199.367V88.6H191.303V86.424ZM205.927 86.424H214.055V88.6H205.927V86.424ZM212.903 82.68H216.583V107.864C216.583 108.717 216.487 109.389 216.295 109.88C216.125 110.392 215.783 110.797 215.271 111.096C214.781 111.395 214.162 111.576 213.415 111.64C212.69 111.704 211.826 111.736 210.823 111.736C210.781 111.267 210.663 110.701 210.471 110.04C210.279 109.379 210.066 108.824 209.831 108.376C210.343 108.397 210.845 108.408 211.335 108.408C211.847 108.408 212.199 108.408 212.391 108.408C212.583 108.387 212.711 108.333 212.775 108.248C212.861 108.163 212.903 108.024 212.903 107.832V82.68ZM191.655 82.68H201.799V92.44H191.655V90.008H198.215V85.112H191.655V82.68ZM214.759 82.68V85.112H207.559V89.976H214.759V92.408H203.911V82.68H214.759ZM189.383 82.68H192.967V111.736H189.383V82.68ZM233.095 98.616L234.951 98.04C235.314 98.5734 235.645 99.1707 235.943 99.832C236.263 100.472 236.477 101.037 236.583 101.528L234.631 102.2C234.525 101.688 234.322 101.101 234.023 100.44C233.746 99.7787 233.437 99.1707 233.095 98.616ZM227.751 96.184L228.967 94.712C229.543 95.096 230.141 95.5547 230.759 96.088C231.378 96.6214 231.837 97.1014 232.135 97.528L230.855 99.224C230.557 98.776 230.109 98.264 229.511 97.688C228.914 97.112 228.327 96.6107 227.751 96.184ZM231.303 92.664L233.511 93.528C233.085 94.0614 232.647 94.6054 232.199 95.16C231.773 95.7147 231.367 96.1734 230.983 96.536L229.287 95.8C229.629 95.352 229.991 94.8294 230.375 94.232C230.759 93.6347 231.069 93.112 231.303 92.664ZM233.479 95L235.463 95.864C234.93 96.44 234.365 97.0374 233.767 97.656C233.17 98.2747 232.583 98.872 232.007 99.448C231.431 100.003 230.887 100.493 230.375 100.92L228.903 100.152C229.415 99.6827 229.949 99.1494 230.503 98.552C231.079 97.9334 231.623 97.3147 232.135 96.696C232.669 96.056 233.117 95.4907 233.479 95ZM236.807 102.104H239.431V111.064H236.807V102.104ZM227.463 99.896C228.487 99.832 229.639 99.768 230.919 99.704C232.221 99.6187 233.597 99.5227 235.047 99.416V101.368C233.725 101.496 232.445 101.613 231.207 101.72C229.97 101.805 228.807 101.891 227.719 101.976L227.463 99.896ZM241.159 98.424L243.111 97.848C243.495 98.4454 243.858 99.1067 244.199 99.832C244.541 100.536 244.775 101.165 244.903 101.72L242.887 102.36C242.781 101.827 242.567 101.197 242.247 100.472C241.927 99.7254 241.565 99.0427 241.159 98.424ZM235.367 96.024L236.743 94.616C237.383 95.0427 238.023 95.5547 238.663 96.152C239.325 96.7494 239.815 97.2934 240.135 97.784L238.727 99.384C238.407 98.872 237.927 98.3067 237.287 97.688C236.647 97.048 236.007 96.4934 235.367 96.024ZM239.047 92.632L241.383 93.496C240.893 94.1147 240.402 94.712 239.911 95.288C239.421 95.864 238.962 96.376 238.535 96.824L236.807 96.056C237.191 95.5867 237.597 95.0214 238.023 94.36C238.45 93.6987 238.791 93.1227 239.047 92.632ZM241.351 95L243.367 95.928C242.813 96.5254 242.226 97.144 241.607 97.784C240.989 98.424 240.37 99.032 239.751 99.608C239.133 100.184 238.535 100.696 237.959 101.144L236.487 100.312C237.021 99.8427 237.586 99.3094 238.183 98.712C238.802 98.0934 239.389 97.464 239.943 96.824C240.498 96.1627 240.967 95.5547 241.351 95ZM236.007 99.896C236.989 99.8534 238.109 99.7894 239.367 99.704C240.647 99.6187 241.991 99.5334 243.399 99.448V101.368C242.162 101.496 240.946 101.613 239.751 101.72C238.578 101.805 237.479 101.891 236.455 101.976L236.007 99.896ZM228.455 102.648H230.791V105.4H234.247V107.544H228.455V102.648ZM241.415 102.648H243.815V107.544H238.887V105.4H241.415V102.648ZM232.743 102.104H235.271V105.208C235.271 106.04 235.165 106.851 234.951 107.64C234.738 108.429 234.301 109.155 233.639 109.816C232.978 110.477 231.965 111.043 230.599 111.512C230.45 111.192 230.205 110.829 229.863 110.424C229.522 110.019 229.223 109.688 228.967 109.432C230.077 109.112 230.898 108.728 231.431 108.28C231.965 107.811 232.317 107.309 232.487 106.776C232.658 106.243 232.743 105.699 232.743 105.144V102.104ZM224.583 86.936H232.647V89.272H224.583V86.936ZM239.303 86.936H247.431V89.272H239.303V86.936ZM246.151 82.872H249.831V107.288C249.831 108.205 249.746 108.941 249.575 109.496C249.405 110.072 249.042 110.52 248.487 110.84C247.954 111.16 247.303 111.352 246.535 111.416C245.767 111.501 244.85 111.544 243.783 111.544C243.741 111.181 243.666 110.776 243.559 110.328C243.453 109.88 243.325 109.421 243.175 108.952C243.047 108.504 242.898 108.12 242.727 107.8C243.303 107.821 243.869 107.843 244.423 107.864C244.999 107.864 245.394 107.853 245.607 107.832C245.821 107.832 245.959 107.789 246.023 107.704C246.109 107.619 246.151 107.469 246.151 107.256V82.872ZM224.935 82.872H235.079V93.304H224.935V90.744H231.495V85.432H224.935V82.872ZM248.039 82.872V85.432H240.839V90.744H248.039V93.304H237.191V82.872H248.039ZM222.663 82.872H226.311V111.704H222.663V82.872ZM254.919 92.952H284.071V96.76H254.919V92.952ZM269.191 85.56H280.583V89.24H269.191V85.56ZM266.695 81.624H270.791V94.776H266.695V81.624ZM266.695 95.384H270.791V111.672H266.695V95.384ZM269.607 101.496L271.559 98.424C272.37 98.6587 273.255 98.936 274.215 99.256C275.175 99.5547 276.146 99.8854 277.127 100.248C278.109 100.589 279.037 100.931 279.911 101.272C280.786 101.613 281.522 101.933 282.119 102.232L280.071 105.72C279.495 105.4 278.781 105.059 277.927 104.696C277.095 104.333 276.199 103.96 275.239 103.576C274.279 103.192 273.309 102.819 272.327 102.456C271.367 102.093 270.461 101.773 269.607 101.496ZM305.026 93.752H325.474V97.208H305.026V93.752ZM306.146 87.288H324.386V90.68H306.146V87.288ZM312.898 88.952H316.738V94.072C316.738 95.096 316.61 96.1627 316.354 97.272C316.12 98.3814 315.672 99.4907 315.01 100.6C314.37 101.688 313.442 102.744 312.226 103.768C311.032 104.771 309.485 105.688 307.586 106.52C307.416 106.243 307.181 105.933 306.882 105.592C306.584 105.251 306.274 104.909 305.954 104.568C305.634 104.227 305.325 103.949 305.026 103.736C306.84 103.075 308.269 102.339 309.314 101.528C310.381 100.717 311.16 99.8747 311.65 99C312.162 98.1254 312.493 97.272 312.642 96.44C312.813 95.5867 312.898 94.7867 312.898 94.04V88.952ZM317.314 96.184C317.976 97.9547 318.978 99.4587 320.322 100.696C321.688 101.912 323.437 102.787 325.57 103.32C325.293 103.576 324.994 103.896 324.674 104.28C324.376 104.664 324.088 105.059 323.81 105.464C323.554 105.848 323.33 106.211 323.138 106.552C320.792 105.784 318.893 104.579 317.442 102.936C315.992 101.293 314.872 99.2774 314.082 96.888L317.314 96.184ZM303.746 94.104V105.912H300.002V97.656H296.29V94.104H303.746ZM303.746 104.248C304.408 105.293 305.336 106.061 306.53 106.552C307.725 107.043 309.154 107.32 310.818 107.384C311.757 107.427 312.866 107.459 314.146 107.48C315.448 107.48 316.813 107.469 318.242 107.448C319.672 107.427 321.069 107.384 322.434 107.32C323.821 107.256 325.048 107.181 326.114 107.096C325.986 107.395 325.837 107.779 325.666 108.248C325.496 108.717 325.336 109.197 325.186 109.688C325.058 110.179 324.962 110.616 324.898 111C323.938 111.064 322.84 111.107 321.602 111.128C320.365 111.171 319.096 111.192 317.794 111.192C316.493 111.213 315.234 111.213 314.018 111.192C312.802 111.171 311.714 111.139 310.754 111.096C308.792 111.011 307.117 110.701 305.73 110.168C304.344 109.656 303.117 108.781 302.05 107.544C301.346 108.141 300.621 108.76 299.874 109.4C299.149 110.04 298.349 110.701 297.474 111.384L295.586 107.384C296.333 106.936 297.112 106.445 297.922 105.912C298.733 105.379 299.512 104.824 300.258 104.248H303.746ZM296.322 84.696L299.17 82.392C299.832 82.8187 300.504 83.32 301.186 83.896C301.869 84.4507 302.509 85.0267 303.106 85.624C303.704 86.2 304.184 86.7334 304.546 87.224L301.506 89.784C301.186 89.272 300.738 88.7174 300.162 88.12C299.608 87.5227 298.989 86.9254 298.306 86.328C297.624 85.7094 296.962 85.1654 296.322 84.696ZM319.522 81.624L323.426 82.84C322.85 83.7574 322.253 84.664 321.634 85.56C321.037 86.4347 320.482 87.1814 319.97 87.8L316.834 86.712C317.154 86.2214 317.485 85.688 317.826 85.112C318.168 84.5147 318.488 83.9174 318.786 83.32C319.085 82.7014 319.33 82.136 319.522 81.624ZM306.978 83.032L310.21 81.688C310.808 82.4134 311.373 83.2347 311.906 84.152C312.44 85.0694 312.813 85.88 313.026 86.584L309.57 88.056C309.4 87.3734 309.058 86.5627 308.546 85.624C308.056 84.664 307.533 83.8 306.978 83.032Z" fill="white"/>
<path d="M39.4 247.073H52.456V249.737H39.4V247.073ZM39.4 252.209H52.456V254.873H39.4V252.209ZM39.4 257.369H52.456V260.033H39.4V257.369ZM37.456 241.841H54.88V261.209H51.832V244.601H40.36V261.257H37.456V241.841ZM44.272 238.697L47.752 239.081C47.464 239.865 47.16 240.633 46.84 241.385C46.52 242.137 46.224 242.785 45.952 243.329L43.312 242.849C43.44 242.449 43.568 242.009 43.696 241.529C43.824 241.033 43.936 240.545 44.032 240.065C44.144 239.569 44.224 239.113 44.272 238.697ZM69.952 238.889H72.616V244.721H69.952V238.889ZM76.168 238.889H78.88V244.721H76.168V238.889ZM74.68 249.881H76.936V261.185H74.68V249.881ZM66.544 240.641H82.12V243.113H66.544V240.641ZM71.584 252.497H80.08V254.345H71.584V252.497ZM71.584 255.689H80.08V257.561H71.584V255.689ZM67.84 245.345H82.24V247.817H67.84V245.345ZM66.664 245.345H69.28V250.649C69.28 251.449 69.248 252.313 69.184 253.241C69.12 254.169 69 255.121 68.824 256.097C68.664 257.057 68.424 257.993 68.104 258.905C67.784 259.801 67.368 260.617 66.856 261.353C66.728 261.177 66.528 260.969 66.256 260.729C66 260.505 65.736 260.281 65.464 260.057C65.192 259.849 64.96 259.689 64.768 259.577C65.36 258.713 65.784 257.761 66.04 256.721C66.312 255.665 66.48 254.609 66.544 253.553C66.624 252.497 66.664 251.521 66.664 250.625V245.345ZM70.144 249.041H80.368V251.129H72.544V261.233H70.144V249.041ZM79.24 249.041H81.664V258.833C81.664 259.361 81.616 259.785 81.52 260.105C81.424 260.441 81.208 260.705 80.872 260.897C80.536 261.073 80.144 261.185 79.696 261.233C79.248 261.281 78.712 261.297 78.088 261.281C78.056 260.961 77.984 260.593 77.872 260.177C77.76 259.761 77.624 259.401 77.464 259.097C77.8 259.113 78.104 259.121 78.376 259.121C78.648 259.121 78.84 259.113 78.952 259.097C79.144 259.097 79.24 259.001 79.24 258.809V249.041ZM64 238.769L66.664 239.561C66.216 240.953 65.672 242.361 65.032 243.785C64.408 245.209 63.72 246.561 62.968 247.841C62.216 249.105 61.432 250.217 60.616 251.177C60.552 250.953 60.44 250.641 60.28 250.241C60.12 249.841 59.944 249.441 59.752 249.041C59.56 248.641 59.392 248.313 59.248 248.057C59.888 247.305 60.504 246.433 61.096 245.441C61.704 244.449 62.256 243.385 62.752 242.249C63.248 241.097 63.664 239.937 64 238.769ZM62.08 245.369L64.744 242.705L64.816 242.753V261.257H62.08V245.369ZM91.552 243.737L94.312 244.673C93.816 245.393 93.232 246.097 92.56 246.785C91.888 247.457 91.176 248.089 90.424 248.681C89.672 249.257 88.92 249.753 88.168 250.169C88.04 249.961 87.856 249.713 87.616 249.425C87.376 249.137 87.128 248.849 86.872 248.561C86.616 248.273 86.392 248.041 86.2 247.865C87.24 247.401 88.24 246.801 89.2 246.065C90.16 245.329 90.944 244.553 91.552 243.737ZM97.384 245.369L99.424 243.689C100.096 244.089 100.808 244.545 101.56 245.057C102.328 245.569 103.064 246.089 103.768 246.617C104.472 247.129 105.04 247.617 105.472 248.081L103.288 249.977C102.888 249.529 102.36 249.033 101.704 248.489C101.048 247.945 100.336 247.401 99.568 246.857C98.816 246.297 98.088 245.801 97.384 245.369ZM96.016 249.377C95.392 250.193 94.576 251.025 93.568 251.873C92.576 252.721 91.472 253.529 90.256 254.297C89.056 255.065 87.816 255.737 86.536 256.313C86.424 256.073 86.272 255.809 86.08 255.521C85.904 255.217 85.712 254.921 85.504 254.633C85.296 254.329 85.096 254.073 84.904 253.865C86.232 253.353 87.504 252.705 88.72 251.921C89.936 251.137 91.04 250.289 92.032 249.377C93.024 248.465 93.816 247.585 94.408 246.737H97.36C98 247.521 98.704 248.257 99.472 248.945C100.256 249.633 101.072 250.265 101.92 250.841C102.768 251.401 103.648 251.905 104.56 252.353C105.472 252.801 106.392 253.177 107.32 253.481C106.984 253.849 106.656 254.273 106.336 254.753C106.032 255.233 105.76 255.681 105.52 256.097C104.672 255.729 103.792 255.289 102.88 254.777C101.984 254.265 101.104 253.713 100.24 253.121C99.392 252.529 98.6 251.913 97.864 251.273C97.144 250.633 96.528 250.001 96.016 249.377ZM89.176 252.977H102.832V261.233H99.904V255.521H91.96V261.281H89.176V252.977ZM90.472 258.065H101.368V260.609H90.472V258.065ZM94.36 238.721H97.336V242.153H94.36V238.721ZM85.624 240.641H106.216V245.849H103.288V243.257H88.456V245.849H85.624V240.641ZM114.088 241.913V244.409H116.992V241.913H114.088ZM111.496 239.657H119.752V246.665H111.496V239.657ZM124.6 241.913V244.409H127.528V241.913H124.6ZM121.984 239.657H130.264V246.665H121.984V239.657ZM109.984 247.985H131.848V250.505H109.984V247.985ZM113.248 258.185H118.528V260.537H113.248V258.185ZM123.088 258.185H128.392V260.537H123.088V258.185ZM124.456 248.633C124.968 249.369 125.64 250.057 126.472 250.697C127.32 251.337 128.272 251.897 129.328 252.377C130.384 252.857 131.496 253.233 132.664 253.505C132.456 253.681 132.232 253.913 131.992 254.201C131.768 254.473 131.552 254.753 131.344 255.041C131.152 255.313 130.984 255.569 130.84 255.809C129.576 255.441 128.384 254.961 127.264 254.369C126.144 253.777 125.12 253.081 124.192 252.281C123.264 251.465 122.464 250.577 121.792 249.617L124.456 248.633ZM111.904 253.193H119.872V261.281H117.256V255.545H114.4V261.329H111.904V253.193ZM121.744 253.193H129.808V261.281H127.144V255.545H124.264V261.329H121.744V253.193ZM119.248 245.633L122.032 246.569C120.992 248.793 119.504 250.657 117.568 252.161C115.648 253.665 113.416 254.865 110.872 255.761C110.76 255.537 110.608 255.289 110.416 255.017C110.224 254.729 110.008 254.449 109.768 254.177C109.544 253.905 109.344 253.689 109.168 253.529C111.52 252.761 113.576 251.713 115.336 250.385C117.096 249.057 118.4 247.473 119.248 245.633ZM138.496 262.433L137.728 260.489C138.736 260.169 139.504 259.729 140.032 259.169C140.576 258.625 140.848 258.001 140.848 257.297L140.656 254.945L142 257.081C141.792 257.257 141.568 257.393 141.328 257.489C141.088 257.585 140.832 257.633 140.56 257.633C139.968 257.633 139.44 257.449 138.976 257.081C138.512 256.697 138.28 256.161 138.28 255.473C138.28 254.801 138.512 254.273 138.976 253.889C139.44 253.505 139.992 253.313 140.632 253.313C141.48 253.313 142.12 253.609 142.552 254.201C143 254.793 143.224 255.593 143.224 256.601C143.224 257.961 142.808 259.161 141.976 260.201C141.144 261.241 139.984 261.985 138.496 262.433ZM166.408 247.817H181.744V250.409H166.408V247.817ZM167.248 242.969H180.928V245.513H167.248V242.969ZM172.312 244.217H175.192V248.057C175.192 248.825 175.096 249.625 174.904 250.457C174.728 251.289 174.392 252.121 173.896 252.953C173.416 253.769 172.72 254.561 171.808 255.329C170.912 256.081 169.752 256.769 168.328 257.393C168.2 257.185 168.024 256.953 167.8 256.697C167.576 256.441 167.344 256.185 167.104 255.929C166.864 255.673 166.632 255.465 166.408 255.305C167.768 254.809 168.84 254.257 169.624 253.649C170.424 253.041 171.008 252.409 171.376 251.753C171.76 251.097 172.008 250.457 172.12 249.833C172.248 249.193 172.312 248.593 172.312 248.033V244.217ZM175.624 249.641C176.12 250.969 176.872 252.097 177.88 253.025C178.904 253.937 180.216 254.593 181.816 254.993C181.608 255.185 181.384 255.425 181.144 255.713C180.92 256.001 180.704 256.297 180.496 256.601C180.304 256.889 180.136 257.161 179.992 257.417C178.232 256.841 176.808 255.937 175.72 254.705C174.632 253.473 173.792 251.961 173.2 250.169L175.624 249.641ZM165.448 248.081V256.937H162.64V250.745H159.856V248.081H165.448ZM165.448 255.689C165.944 256.473 166.64 257.049 167.536 257.417C168.432 257.785 169.504 257.993 170.752 258.041C171.456 258.073 172.288 258.097 173.248 258.113C174.224 258.113 175.248 258.105 176.32 258.089C177.392 258.073 178.44 258.041 179.464 257.993C180.504 257.945 181.424 257.889 182.224 257.825C182.128 258.049 182.016 258.337 181.888 258.689C181.76 259.041 181.64 259.401 181.528 259.769C181.432 260.137 181.36 260.465 181.312 260.753C180.592 260.801 179.768 260.833 178.84 260.849C177.912 260.881 176.96 260.897 175.984 260.897C175.008 260.913 174.064 260.913 173.152 260.897C172.24 260.881 171.424 260.857 170.704 260.825C169.232 260.761 167.976 260.529 166.936 260.129C165.896 259.745 164.976 259.089 164.176 258.161C163.648 258.609 163.104 259.073 162.544 259.553C162 260.033 161.4 260.529 160.744 261.041L159.328 258.041C159.888 257.705 160.472 257.337 161.08 256.937C161.688 256.537 162.272 256.121 162.832 255.689H165.448ZM159.88 241.025L162.016 239.297C162.512 239.617 163.016 239.993 163.528 240.425C164.04 240.841 164.52 241.273 164.968 241.721C165.416 242.153 165.776 242.553 166.048 242.921L163.768 244.841C163.528 244.457 163.192 244.041 162.76 243.593C162.344 243.145 161.88 242.697 161.368 242.249C160.856 241.785 160.36 241.377 159.88 241.025ZM177.28 238.721L180.208 239.633C179.776 240.321 179.328 241.001 178.864 241.673C178.416 242.329 178 242.889 177.616 243.353L175.264 242.537C175.504 242.169 175.752 241.769 176.008 241.337C176.264 240.889 176.504 240.441 176.728 239.993C176.952 239.529 177.136 239.105 177.28 238.721ZM167.872 239.777L170.296 238.769C170.744 239.313 171.168 239.929 171.568 240.617C171.968 241.305 172.248 241.913 172.408 242.441L169.816 243.545C169.688 243.033 169.432 242.425 169.048 241.721C168.68 241.001 168.288 240.353 167.872 239.777ZM189.472 245.537H201.928V248.153H189.472V245.537ZM185.008 249.881H206.512V252.569H185.008V249.881ZM190.816 252.041H193.936C193.824 253.145 193.64 254.177 193.384 255.137C193.128 256.081 192.72 256.945 192.16 257.729C191.616 258.497 190.848 259.185 189.856 259.793C188.864 260.401 187.584 260.913 186.016 261.329C185.92 261.073 185.776 260.785 185.584 260.465C185.408 260.145 185.208 259.825 184.984 259.505C184.76 259.201 184.544 258.953 184.336 258.761C185.712 258.457 186.808 258.089 187.624 257.657C188.456 257.225 189.08 256.737 189.496 256.193C189.928 255.633 190.232 255.009 190.408 254.321C190.6 253.617 190.736 252.857 190.816 252.041ZM197.008 251.561H199.912V257.417C199.912 257.801 199.968 258.049 200.08 258.161C200.208 258.257 200.488 258.305 200.92 258.305C201.016 258.305 201.168 258.305 201.376 258.305C201.584 258.305 201.816 258.305 202.072 258.305C202.328 258.305 202.568 258.305 202.792 258.305C203.016 258.305 203.192 258.305 203.32 258.305C203.576 258.305 203.768 258.241 203.896 258.113C204.04 257.985 204.136 257.713 204.184 257.297C204.248 256.865 204.296 256.233 204.328 255.401C204.536 255.545 204.792 255.689 205.096 255.833C205.4 255.977 205.712 256.105 206.032 256.217C206.368 256.329 206.664 256.425 206.92 256.505C206.824 257.657 206.656 258.553 206.416 259.193C206.176 259.849 205.832 260.297 205.384 260.537C204.952 260.793 204.352 260.921 203.584 260.921C203.44 260.921 203.224 260.921 202.936 260.921C202.664 260.921 202.36 260.921 202.024 260.921C201.704 260.921 201.4 260.921 201.112 260.921C200.84 260.921 200.632 260.921 200.488 260.921C199.56 260.921 198.84 260.817 198.328 260.609C197.832 260.401 197.488 260.041 197.296 259.529C197.104 259.017 197.008 258.329 197.008 257.465V251.561ZM194.152 238.745H197.224V243.113H194.152V238.745ZM185.44 241.049H206.056V246.761H202.984V243.785H188.368V246.761H185.44V241.049ZM213.448 251.393H229.72V253.865H213.448V251.393ZM210.184 242.633H226.096V245.225H210.184V242.633ZM217.288 247.049H228.16V249.521H217.288V247.049ZM228.616 251.393H231.472C231.472 251.393 231.464 251.465 231.448 251.609C231.448 251.737 231.44 251.889 231.424 252.065C231.424 252.241 231.416 252.385 231.4 252.497C231.272 254.129 231.128 255.473 230.968 256.529C230.824 257.569 230.656 258.393 230.464 259.001C230.272 259.593 230.048 260.025 229.792 260.297C229.52 260.601 229.224 260.817 228.904 260.945C228.6 261.073 228.248 261.161 227.848 261.209C227.528 261.257 227.088 261.281 226.528 261.281C225.984 261.297 225.408 261.289 224.8 261.257C224.784 260.873 224.696 260.433 224.536 259.937C224.392 259.441 224.208 259.009 223.984 258.641C224.512 258.689 225.008 258.721 225.472 258.737C225.936 258.753 226.288 258.753 226.528 258.737C226.72 258.737 226.88 258.721 227.008 258.689C227.152 258.657 227.288 258.585 227.416 258.473C227.576 258.313 227.72 257.993 227.848 257.513C227.992 257.017 228.128 256.305 228.256 255.377C228.384 254.449 228.504 253.257 228.616 251.801V251.393ZM223.504 254.705L225.472 254.033C225.808 254.529 226.12 255.073 226.408 255.665C226.696 256.257 226.904 256.769 227.032 257.201L224.92 257.993C224.824 257.561 224.64 257.033 224.368 256.409C224.096 255.785 223.808 255.217 223.504 254.705ZM212.872 239.729L215.464 238.721C215.896 239.185 216.336 239.713 216.784 240.305C217.232 240.897 217.576 241.417 217.816 241.865L215.056 242.993C214.88 242.561 214.576 242.041 214.144 241.433C213.728 240.809 213.304 240.241 212.872 239.729ZM216.256 255.353L218.584 255.089C218.808 255.857 218.976 256.705 219.088 257.633C219.2 258.545 219.256 259.337 219.256 260.009L216.784 260.321C216.816 259.889 216.808 259.385 216.76 258.809C216.728 258.233 216.664 257.649 216.568 257.057C216.488 256.449 216.384 255.881 216.256 255.353ZM219.88 255.161L222.088 254.657C222.376 255.345 222.64 256.081 222.88 256.865C223.12 257.649 223.28 258.337 223.36 258.929L221.032 259.505C220.968 258.913 220.824 258.209 220.6 257.393C220.376 256.577 220.136 255.833 219.88 255.161ZM213.04 254.561L215.464 255.353C215.304 256.057 215.104 256.761 214.864 257.465C214.64 258.153 214.36 258.817 214.024 259.457C213.688 260.097 213.288 260.673 212.824 261.185L210.592 259.601C211.008 259.185 211.368 258.705 211.672 258.161C211.992 257.617 212.264 257.041 212.488 256.433C212.728 255.809 212.912 255.185 213.04 254.561ZM220.288 238.697L223.24 239.417C222.696 241.129 222.048 242.809 221.296 244.457C220.56 246.089 219.68 247.649 218.656 249.137C217.648 250.609 216.48 251.969 215.152 253.217C213.824 254.449 212.312 255.513 210.616 256.409C210.504 256.185 210.352 255.921 210.16 255.617C209.984 255.297 209.8 254.985 209.608 254.681C209.416 254.377 209.232 254.121 209.056 253.913C210.592 253.145 211.96 252.209 213.16 251.105C214.376 250.001 215.44 248.777 216.352 247.433C217.28 246.089 218.064 244.681 218.704 243.209C219.36 241.721 219.888 240.217 220.288 238.697ZM225.52 242.633H228.184C228.008 243.529 227.808 244.465 227.584 245.441C227.376 246.417 227.176 247.257 226.984 247.961L224.464 247.553C224.656 246.897 224.848 246.121 225.04 245.225C225.232 244.313 225.392 243.449 225.52 242.633ZM227.08 247.049H229.744C229.584 247.929 229.4 248.849 229.192 249.809C228.984 250.769 228.776 251.593 228.568 252.281L226.048 251.945C226.24 251.273 226.432 250.489 226.624 249.593C226.816 248.697 226.968 247.849 227.08 247.049ZM246.544 246.257H255.376V249.161H246.544V246.257ZM234.664 257.177H256.696V260.057H234.664V257.177ZM245.128 238.745H248.2V258.713H245.128V238.745ZM237.736 243.689H240.736V258.569H237.736V243.689Z" fill="white"/>
<path d="M58.186 147.549H89.738V153.813H58.186V147.549ZM62.942 173.881H85.62V179.623H62.942V173.881ZM62.826 185.771H85.736V191.745H62.826V185.771ZM64.45 141.343H70.772V160.715H64.45V141.343ZM77.616 141.343H83.938V160.715H77.616V141.343ZM71.178 165.297H77.036V188.787H71.178V165.297ZM60.274 162.107H88.346V195.225H81.85V168.081H66.48V195.283H60.274V162.107ZM44.788 162.339L49.428 159.671C51.3227 161.527 52.8693 163.673 54.068 166.109C55.2667 168.545 56.1367 171.097 56.678 173.765C57.258 176.394 57.548 178.946 57.548 181.421C57.548 183.857 57.2967 186.042 56.794 187.975C56.33 189.908 55.692 191.339 54.88 192.267C53.9907 193.35 53.024 194.123 51.98 194.587C50.9747 195.051 49.776 195.302 48.384 195.341C47.7653 195.341 47.0693 195.322 46.296 195.283C45.5227 195.283 44.7687 195.264 44.034 195.225C43.9953 194.374 43.86 193.388 43.628 192.267C43.396 191.184 43.0287 190.218 42.526 189.367C43.3767 189.444 44.1887 189.502 44.962 189.541C45.774 189.58 46.4313 189.599 46.934 189.599C47.5527 189.599 48.094 189.522 48.558 189.367C49.022 189.174 49.4667 188.729 49.892 188.033C50.3947 187.492 50.7813 186.506 51.052 185.075C51.3227 183.644 51.4387 181.962 51.4 180.029C51.3613 178.096 51.11 176.066 50.646 173.939C50.2207 171.812 49.5247 169.744 48.558 167.733C47.63 165.684 46.3733 163.886 44.788 162.339ZM49.486 165.877L53.662 168.603C52.502 169.802 51.0907 171.078 49.428 172.431C47.7653 173.746 46.0253 175.002 44.208 176.201C42.3907 177.4 40.67 178.424 39.046 179.275C38.6593 178.579 38.1373 177.767 37.48 176.839C36.8227 175.872 36.204 175.099 35.624 174.519C37.1707 173.9 38.814 173.127 40.554 172.199C42.3327 171.232 44.0147 170.208 45.6 169.125C47.1853 168.004 48.4807 166.921 49.486 165.877ZM52.038 173.069L56.33 175.853C55.0153 177.516 53.372 179.236 51.4 181.015C49.428 182.794 47.34 184.456 45.136 186.003C42.932 187.55 40.8053 188.864 38.756 189.947C38.408 189.174 37.9053 188.304 37.248 187.337C36.5907 186.37 35.9527 185.597 35.334 185.017C37.306 184.205 39.3553 183.161 41.482 181.885C43.6087 180.57 45.6 179.14 47.456 177.593C49.3507 176.046 50.878 174.538 52.038 173.069ZM37.596 154.161L42.178 152.131C42.9513 153.136 43.686 154.258 44.382 155.495C45.1167 156.732 45.6387 157.815 45.948 158.743L41.134 161.005C40.8247 160.116 40.322 159.014 39.626 157.699C38.9687 156.384 38.292 155.205 37.596 154.161ZM46.064 151.145L50.356 149.115C50.9747 149.927 51.574 150.855 52.154 151.899C52.734 152.904 53.1593 153.794 53.43 154.567L48.906 156.829C48.674 156.056 48.2873 155.147 47.746 154.103C47.2047 153.02 46.644 152.034 46.064 151.145ZM55.634 152.189L59.694 156.249C57.954 158.028 55.9433 159.729 53.662 161.353C51.4193 162.938 49.022 164.388 46.47 165.703C43.9567 167.018 41.4047 168.197 38.814 169.241C38.4273 168.584 37.9053 167.81 37.248 166.921C36.5907 165.993 35.9527 165.239 35.334 164.659C37.886 163.692 40.3993 162.552 42.874 161.237C45.3873 159.884 47.746 158.453 49.95 156.945C52.154 155.398 54.0487 153.813 55.634 152.189ZM54.01 140.705L57.722 144.881C56.0593 145.964 54.126 146.988 51.922 147.955C49.7567 148.922 47.4947 149.772 45.136 150.507C42.7773 151.203 40.4187 151.802 38.06 152.305C37.712 151.609 37.2287 150.797 36.61 149.869C36.03 148.902 35.45 148.11 34.87 147.491C37.1513 146.988 39.452 146.389 41.772 145.693C44.1307 144.997 46.3733 144.224 48.5 143.373C50.6267 142.484 52.4633 141.594 54.01 140.705ZM97.336 145.113H149.362V152.131H97.336V145.113ZM118.39 151.377H125.872V195.167H118.39V151.377ZM122.334 165.471L127.09 159.903C128.675 160.676 130.377 161.566 132.194 162.571C134.05 163.538 135.887 164.562 137.704 165.645C139.521 166.728 141.242 167.791 142.866 168.835C144.49 169.84 145.843 170.807 146.926 171.735L141.764 178.115C140.759 177.187 139.483 176.182 137.936 175.099C136.428 173.978 134.765 172.856 132.948 171.735C131.169 170.614 129.371 169.512 127.554 168.429C125.737 167.308 123.997 166.322 122.334 165.471ZM161.716 148.535H206.086V155.495H161.716V148.535ZM157.25 163.731H210.262V170.807H157.25V163.731ZM179.696 140.763H187.062V167.733H179.696V140.763ZM174.592 168.197L182.886 170.401C181.919 172.682 180.875 175.002 179.754 177.361C178.671 179.72 177.569 181.982 176.448 184.147C175.365 186.312 174.302 188.226 173.258 189.889L166.82 187.801C167.516 186.448 168.231 184.959 168.966 183.335C169.739 181.711 170.455 180.029 171.112 178.289C171.808 176.549 172.446 174.828 173.026 173.127C173.645 171.387 174.167 169.744 174.592 168.197ZM159.396 186.119C162.257 186.003 165.409 185.868 168.85 185.713C172.33 185.558 176.003 185.384 179.87 185.191C183.737 184.998 187.661 184.804 191.644 184.611C195.627 184.379 199.551 184.147 203.418 183.915L203.244 190.933C198.179 191.281 193.055 191.61 187.874 191.919C182.731 192.267 177.801 192.557 173.084 192.789C168.405 193.06 164.191 193.311 160.44 193.543L159.396 186.119ZM190.658 176.665L197.27 173.765C198.933 175.621 200.576 177.651 202.2 179.855C203.863 182.059 205.371 184.244 206.724 186.409C208.116 188.574 209.237 190.527 210.088 192.267L203.07 195.921C202.335 194.142 201.291 192.132 199.938 189.889C198.585 187.646 197.096 185.384 195.472 183.103C193.887 180.783 192.282 178.637 190.658 176.665ZM255.792 157.815H262.114V172.431H255.792V157.815ZM249.934 175.157H256.024V189.889C256.024 191.204 255.869 192.209 255.56 192.905C255.289 193.601 254.69 194.142 253.762 194.529C252.911 194.954 251.887 195.206 250.688 195.283C249.528 195.36 248.155 195.399 246.57 195.399C246.415 194.664 246.125 193.814 245.7 192.847C245.313 191.919 244.907 191.126 244.482 190.469C245.449 190.508 246.377 190.527 247.266 190.527C248.194 190.527 248.793 190.508 249.064 190.469C249.644 190.469 249.934 190.237 249.934 189.773V175.157ZM262.056 171.677C262.791 172.644 263.699 173.63 264.782 174.635C265.865 175.602 267.044 176.491 268.32 177.303C269.635 178.115 270.93 178.772 272.206 179.275C271.587 179.816 270.911 180.512 270.176 181.363C269.441 182.214 268.842 182.987 268.378 183.683C267.025 182.948 265.691 182.02 264.376 180.899C263.061 179.778 261.843 178.56 260.722 177.245C259.601 175.93 258.653 174.596 257.88 173.243L262.056 171.677ZM255.85 186.873L258.924 183.335C260.973 184.263 263.023 185.326 265.072 186.525C267.121 187.685 268.803 188.748 270.118 189.715L266.406 193.485C265.169 192.518 263.564 191.416 261.592 190.179C259.659 188.942 257.745 187.84 255.85 186.873ZM261.302 176.723L265.246 179.159C264.511 180.048 263.757 180.88 262.984 181.653C262.211 182.388 261.515 183.026 260.896 183.567L257.416 181.247C257.996 180.667 258.673 179.932 259.446 179.043C260.219 178.154 260.838 177.38 261.302 176.723ZM236.42 161.469H269.19V166.225H236.42V161.469ZM234.68 168.893H271.162V173.707H234.68V168.893ZM243.264 157.815H249.528V172.431H243.264V157.815ZM234.738 188.671C236.439 188.091 238.431 187.337 240.712 186.409C243.032 185.481 245.391 184.534 247.788 183.567L248.89 187.743C246.802 188.71 244.714 189.676 242.626 190.643C240.577 191.648 238.624 192.576 236.768 193.427L234.738 188.671ZM244.308 171.677L248.948 173.533C248.059 174.809 246.976 176.104 245.7 177.419C244.424 178.734 243.032 179.952 241.524 181.073C240.055 182.156 238.585 183.064 237.116 183.799C236.691 183.103 236.091 182.31 235.318 181.421C234.545 180.532 233.829 179.836 233.172 179.333C234.564 178.792 235.956 178.115 237.348 177.303C238.779 176.491 240.093 175.602 241.292 174.635C242.529 173.63 243.535 172.644 244.308 171.677ZM240.944 179.797L244.946 177.187C245.642 177.767 246.338 178.463 247.034 179.275C247.73 180.048 248.252 180.764 248.6 181.421L244.424 184.321C244.115 183.664 243.631 182.91 242.974 182.059C242.317 181.208 241.64 180.454 240.944 179.797ZM243.96 152.653V154.857H261.65V152.653H243.96ZM243.96 146.505V148.651H261.65V146.505H243.96ZM237.928 142.213H267.914V159.091H237.928V142.213ZM224.182 141.459H230.156V161.585C230.156 165.49 229.963 169.434 229.576 173.417C229.228 177.4 228.416 181.247 227.14 184.959C225.864 188.671 223.892 192.112 221.224 195.283C220.876 194.819 220.431 194.278 219.89 193.659C219.387 193.079 218.846 192.499 218.266 191.919C217.686 191.339 217.164 190.894 216.7 190.585C218.943 187.84 220.586 184.862 221.63 181.653C222.674 178.444 223.351 175.118 223.66 171.677C224.008 168.236 224.182 164.852 224.182 161.527V141.459ZM218.904 153.117L223.486 153.697C223.525 155.669 223.447 157.66 223.254 159.671C223.099 161.643 222.809 163.557 222.384 165.413C221.959 167.23 221.359 168.816 220.586 170.169L216.294 167.501C216.951 166.418 217.454 165.084 217.802 163.499C218.189 161.914 218.459 160.212 218.614 158.395C218.807 156.578 218.904 154.818 218.904 153.117ZM232.592 150.333L238.102 152.363C237.251 154.451 236.42 156.616 235.608 158.859C234.796 161.063 234.023 162.938 233.288 164.485L229.402 162.803C229.789 161.682 230.175 160.386 230.562 158.917C230.987 157.448 231.374 155.959 231.722 154.451C232.109 152.943 232.399 151.57 232.592 150.333ZM229.17 172.779C229.518 173.166 230.04 173.842 230.736 174.809C231.471 175.776 232.244 176.839 233.056 177.999C233.907 179.12 234.661 180.164 235.318 181.131C236.014 182.098 236.517 182.794 236.826 183.219L232.244 187.859C231.857 187.008 231.335 186.042 230.678 184.959C230.059 183.876 229.402 182.755 228.706 181.595C228.01 180.435 227.333 179.352 226.676 178.347C226.019 177.303 225.458 176.452 224.994 175.795L229.17 172.779ZM278.18 162.571H330.438V169.589H278.18V162.571ZM300.51 140.879H307.992V195.341H300.51V140.879ZM320.752 143.373L328.524 146.389C327.519 148.09 326.475 149.811 325.392 151.551C324.309 153.252 323.227 154.876 322.144 156.423C321.061 157.97 320.037 159.342 319.07 160.541L312.98 157.815C313.908 156.539 314.855 155.07 315.822 153.407C316.789 151.706 317.697 149.985 318.548 148.245C319.437 146.505 320.172 144.881 320.752 143.373ZM280.906 146.389L287.228 143.663C288.311 144.978 289.355 146.428 290.36 148.013C291.404 149.598 292.332 151.164 293.144 152.711C293.995 154.258 294.613 155.669 295 156.945L288.098 160.019C287.75 158.782 287.209 157.39 286.474 155.843C285.739 154.258 284.869 152.653 283.864 151.029C282.897 149.366 281.911 147.82 280.906 146.389ZM297.784 166.225L303.874 168.545C302.598 171.02 301.129 173.456 299.466 175.853C297.803 178.212 296.005 180.474 294.072 182.639C292.177 184.804 290.186 186.796 288.098 188.613C286.049 190.43 283.961 192.035 281.834 193.427C281.447 192.847 280.945 192.19 280.326 191.455C279.707 190.72 279.069 190.005 278.412 189.309C277.793 188.613 277.213 188.033 276.672 187.569C278.721 186.409 280.751 185.036 282.762 183.451C284.811 181.866 286.764 180.145 288.62 178.289C290.515 176.394 292.235 174.422 293.782 172.373C295.367 170.324 296.701 168.274 297.784 166.225ZM310.428 165.761C311.549 167.81 312.903 169.86 314.488 171.909C316.112 173.92 317.891 175.872 319.824 177.767C321.757 179.662 323.768 181.421 325.856 183.045C327.944 184.63 330.013 185.984 332.062 187.105C331.482 187.569 330.863 188.168 330.206 188.903C329.549 189.599 328.911 190.314 328.292 191.049C327.673 191.822 327.151 192.538 326.726 193.195C324.638 191.764 322.55 190.121 320.462 188.265C318.374 186.409 316.344 184.398 314.372 182.233C312.439 180.068 310.621 177.806 308.92 175.447C307.257 173.05 305.749 170.633 304.396 168.197L310.428 165.761ZM351.666 157.177L358.568 159.323C357.253 162.03 355.707 164.659 353.928 167.211C352.149 169.763 350.255 172.141 348.244 174.345C346.272 176.549 344.281 178.463 342.27 180.087C341.845 179.623 341.284 179.082 340.588 178.463C339.892 177.844 339.177 177.245 338.442 176.665C337.707 176.046 337.069 175.544 336.528 175.157C338.539 173.765 340.491 172.122 342.386 170.227C344.281 168.332 346.021 166.264 347.606 164.021C349.191 161.778 350.545 159.497 351.666 157.177ZM365.006 158.221H371.85V185.075C371.85 186.351 372.024 187.163 372.372 187.511C372.72 187.859 373.532 188.033 374.808 188.033C375.117 188.033 375.62 188.033 376.316 188.033C377.012 188.033 377.766 188.033 378.578 188.033C379.39 188.033 380.144 188.033 380.84 188.033C381.575 188.033 382.097 188.033 382.406 188.033C383.218 188.033 383.837 187.82 384.262 187.395C384.687 186.931 384.977 186.1 385.132 184.901C385.325 183.664 385.48 181.846 385.596 179.449C386.137 179.836 386.775 180.222 387.51 180.609C388.245 180.957 388.999 181.266 389.772 181.537C390.584 181.808 391.299 182.04 391.918 182.233C391.647 185.326 391.203 187.782 390.584 189.599C390.004 191.378 389.115 192.634 387.916 193.369C386.717 194.104 385.093 194.471 383.044 194.471C382.735 194.471 382.271 194.471 381.652 194.471C381.033 194.471 380.337 194.471 379.564 194.471C378.829 194.471 378.075 194.471 377.302 194.471C376.567 194.471 375.891 194.471 375.272 194.471C374.692 194.471 374.247 194.471 373.938 194.471C371.579 194.471 369.743 194.2 368.428 193.659C367.152 193.118 366.263 192.151 365.76 190.759C365.257 189.406 365.006 187.511 365.006 185.075V158.221ZM384.552 162.223L389.83 167.501C387.897 168.7 385.809 169.86 383.566 170.981C381.323 172.064 379.042 173.108 376.722 174.113C374.402 175.08 372.14 175.988 369.936 176.839C369.704 176.104 369.356 175.234 368.892 174.229C368.428 173.224 367.964 172.373 367.5 171.677C369.588 170.826 371.657 169.879 373.706 168.835C375.794 167.752 377.766 166.65 379.622 165.529C381.517 164.369 383.16 163.267 384.552 162.223ZM338.79 145.751H390.41V152.421H338.79V145.751ZM351.666 140.821H358.568V157.815H351.666V140.821ZM370.864 140.821H377.766V157.931H370.864V140.821ZM347.374 169.357L354.276 162.513V162.571V195.341H347.374V169.357Z" fill="white"/>
<circle cx="78.9932" cy="65.1672" r="56" fill="#FF9C1E"/>
<path d="M79.0921 28.4456C83.0693 28.4456 86.8691 29.0967 90.4912 30.3988C94.1134 31.6772 97.3449 33.725 100.186 36.5422C103.027 39.3358 105.264 43.0171 106.897 47.5863C108.531 52.1554 109.348 57.7307 109.348 64.3121C109.371 70.3727 108.661 75.806 107.217 80.6118C105.773 85.394 103.701 89.466 101.003 92.8277C98.3274 96.1895 95.1077 98.7581 91.3435 100.534C87.5793 102.286 83.3771 103.162 78.737 103.162C73.6233 103.162 69.1134 102.179 65.2071 100.214C61.3245 98.2255 58.2114 95.5503 55.8676 92.1885C53.5476 88.8268 52.1626 85.0626 51.7128 80.8959H69.0068C69.5513 83.3107 70.6995 85.1336 72.4514 86.3647C74.2033 87.5721 76.2985 88.1758 78.737 88.1758C83.1877 88.1758 86.5139 86.2463 88.7156 82.3874C90.9173 78.5285 92.0182 73.2847 92.0182 66.6559H91.5921C90.5741 68.8339 89.1299 70.7042 87.2597 72.2667C85.4131 73.8292 83.2706 75.0247 80.8321 75.8533C78.3937 76.6819 75.825 77.0962 73.1262 77.0962C68.7701 77.0962 64.923 76.1019 61.585 74.1133C58.2706 72.1246 55.6664 69.3902 53.7725 65.9101C51.9022 62.43 50.9552 58.4527 50.9316 53.9783C50.9079 48.9594 52.0798 44.5323 54.4472 40.6971C56.8146 36.8382 60.1172 33.8315 64.3548 31.6772C68.5925 29.4991 73.5049 28.422 79.0921 28.4456ZM79.1986 41.94C77.0206 41.94 75.0793 42.449 73.3747 43.4669C71.6939 44.4849 70.3681 45.858 69.3975 47.5863C68.4268 49.3145 67.9533 51.2558 67.977 53.4101C68.0007 55.5645 68.486 57.5058 69.433 59.234C70.4036 60.9622 71.7175 62.3353 73.3747 63.3533C75.0556 64.3713 76.9732 64.8803 79.1276 64.8803C80.7374 64.8803 82.2289 64.5844 83.602 63.9925C84.9751 63.4007 86.1707 62.5839 87.1887 61.5422C88.2066 60.4769 88.9997 59.2458 89.5679 57.8491C90.1598 56.4523 90.4439 54.9608 90.4202 53.3746C90.3965 51.2676 89.8994 49.35 88.9287 47.6218C87.9581 45.8936 86.6205 44.5205 84.9159 43.5025C83.2351 42.4608 81.3293 41.94 79.1986 41.94Z" fill="white"/>
<ellipse cx="431.669" cy="152.567" rx="12.2813" ry="13.4521" fill="#FF9C1E"/>
<ellipse cx="448.478" cy="160.938" rx="12.2813" ry="13.4521" fill="#FF9C1E"/>
<ellipse cx="419.274" cy="166.019" rx="12.2813" ry="13.4521" fill="#FF9C1E"/>
<ellipse cx="431.669" cy="174.39" rx="12.2813" ry="13.4521" fill="#FF9C1E"/>
<ellipse cx="445.836" cy="172.932" rx="10.0746" ry="13.4521" fill="#FF9C1E"/>
<ellipse cx="473.217" cy="160.307" rx="11.5942" ry="10.5007" fill="#FF9C1E"/>
<ellipse cx="489.086" cy="166.841" rx="11.5942" ry="10.5007" fill="#FF9C1E"/>
<ellipse cx="473.217" cy="177.342" rx="11.5942" ry="10.5007" fill="#FF9C1E"/>
<ellipse cx="486.592" cy="176.204" rx="9.51102" ry="10.5007" fill="#FF9C1E"/>
<ellipse cx="511.267" cy="131.566" rx="12.2813" ry="13.4521" fill="#FF9C1E"/>
<ellipse cx="528.076" cy="139.937" rx="12.2813" ry="13.4521" fill="#FF9C1E"/>
<ellipse cx="498.873" cy="145.018" rx="12.2813" ry="13.4521" fill="#FF9C1E"/>
<ellipse cx="511.267" cy="153.388" rx="12.2813" ry="13.4521" fill="#FF9C1E"/>
<ellipse cx="525.435" cy="151.931" rx="10.0746" ry="13.4521" fill="#FF9C1E"/>
<ellipse cx="457.557" cy="121.533" rx="11.5942" ry="10.5007" transform="rotate(-2.17006 457.557 121.533)" fill="#FF9C1E"/>
<ellipse cx="473.662" cy="127.462" rx="11.5942" ry="10.5007" transform="rotate(-2.17006 473.662 127.462)" fill="#FF9C1E"/>
<ellipse cx="458.202" cy="138.556" rx="11.5942" ry="10.5007" transform="rotate(-2.17006 458.202 138.556)" fill="#FF9C1E"/>
<ellipse cx="471.524" cy="136.912" rx="9.51102" ry="10.5007" transform="rotate(-2.17006 471.524 136.912)" fill="#FF9C1E"/>
<path d="M446.305 258L425.993 177H517.993L501.266 258H446.305Z" fill="#FF9C1E"/>
</svg>
