<svg width="570" height="314" viewBox="0 0 570 314" fill="none" xmlns="http://www.w3.org/2000/svg">
<path d="M-0.000976562 31.5352H539.999C556.568 31.5352 569.999 44.9666 569.999 61.5352V313.907H29.999C13.4305 313.907 -0.000976562 300.475 -0.000976562 283.907V31.5352Z" fill="#39BF63"/>
<line x1="347.796" y1="220.406" x2="38.6433" y2="220.406" stroke="white"/>
<path d="M150.501 94.6823H161.637V96.9222H150.501V94.6823ZM150.501 98.1702H161.637V100.41H150.501V98.1702ZM150.341 101.658H162.277V104.218H150.341V101.658ZM146.949 77.6262H162.437V80.3142H146.949V77.6262ZM154.149 92.3462H157.285V103.226H154.149V92.3462ZM149.829 75.8982H153.061V82.0102H149.829V75.8982ZM156.453 75.8982H159.685V82.0102H156.453V75.8982ZM150.021 84.8263V86.5542H151.621V84.8263H150.021ZM147.557 82.5862H154.181V88.8262H147.557V82.5862ZM157.733 84.8263V86.5542H159.461V84.8263H157.733ZM155.269 82.5862H162.053V88.8262H155.269V82.5862ZM151.845 90.9062H162.213V93.4662H151.845V105.562H148.773V93.0182L150.693 90.9062H151.845ZM155.429 88.5062L158.565 89.2102C158.202 89.8716 157.85 90.5222 157.509 91.1622C157.189 91.8022 156.89 92.3569 156.613 92.8262L154.245 92.1542C154.479 91.6209 154.703 91.0129 154.917 90.3302C155.151 89.6476 155.322 89.0396 155.429 88.5062ZM150.117 88.2822L152.901 89.0182C152.346 90.7249 151.621 92.3996 150.725 94.0422C149.85 95.6636 148.89 97.0289 147.845 98.1382C147.738 97.9249 147.578 97.6582 147.365 97.3382C147.151 96.9969 146.927 96.6662 146.693 96.3462C146.479 96.0262 146.277 95.7702 146.085 95.5782C146.938 94.6822 147.717 93.5942 148.421 92.3142C149.125 91.0129 149.69 89.6689 150.117 88.2822ZM166.661 85.0822V87.0982H171.941V85.0822H166.661ZM166.661 90.0422V92.0582H171.941V90.0422H166.661ZM166.661 80.1222V82.1382H171.941V80.1222H166.661ZM163.365 76.8582H175.365V95.3542H163.365V76.8582ZM169.381 94.8102H172.613V101.242C172.613 101.648 172.634 101.904 172.677 102.01C172.719 102.117 172.815 102.17 172.965 102.17C173.007 102.17 173.071 102.17 173.157 102.17C173.263 102.17 173.37 102.17 173.477 102.17C173.583 102.17 173.658 102.17 173.701 102.17C173.829 102.17 173.925 102.096 173.989 101.946C174.074 101.776 174.138 101.424 174.181 100.89C174.245 100.336 174.277 99.5036 174.277 98.3942C174.597 98.6716 175.045 98.9276 175.621 99.1622C176.197 99.3756 176.698 99.5462 177.125 99.6742C177.039 101.125 176.879 102.245 176.645 103.034C176.431 103.845 176.111 104.4 175.685 104.698C175.279 105.018 174.746 105.178 174.085 105.178C173.914 105.178 173.722 105.178 173.509 105.178C173.317 105.178 173.114 105.178 172.901 105.178C172.709 105.178 172.538 105.178 172.389 105.178C171.557 105.178 170.917 105.061 170.469 104.826C170.042 104.592 169.754 104.186 169.605 103.61C169.455 103.034 169.381 102.266 169.381 101.306V94.8102ZM165.029 94.9382H168.261C168.175 96.6022 167.973 98.1169 167.653 99.4822C167.354 100.826 166.821 102.01 166.053 103.034C165.285 104.08 164.175 104.976 162.725 105.722C162.533 105.317 162.234 104.826 161.829 104.25C161.423 103.696 161.029 103.258 160.645 102.938C161.861 102.426 162.767 101.797 163.365 101.05C163.962 100.304 164.367 99.4182 164.581 98.3942C164.815 97.3702 164.965 96.2182 165.029 94.9382ZM192.933 75.7062H196.773V80.9862H192.933V75.7062ZM181.413 79.0662H208.773V85.1462H205.029V81.6582H184.965V85.1462H181.413V79.0662ZM190.053 84.9862V86.3302H199.813V84.9862H190.053ZM186.501 82.8742H203.621V88.4422H186.501V82.8742ZM184.293 76.7622L187.717 75.8662C188.143 76.3356 188.549 76.8582 188.933 77.4342C189.317 78.0102 189.626 78.5116 189.861 78.9382L186.341 80.0902C186.149 79.6422 185.861 79.1089 185.477 78.4902C185.093 77.8502 184.698 77.2742 184.293 76.7622ZM202.277 75.7702L206.277 76.6982C205.765 77.3809 205.253 78.0102 204.741 78.5862C204.229 79.1622 203.77 79.6636 203.365 80.0902L200.197 79.1942C200.559 78.7036 200.943 78.1382 201.349 77.4982C201.754 76.8369 202.063 76.2609 202.277 75.7702ZM188.293 94.7142V95.8982H201.861V94.7142H188.293ZM188.293 97.8502V99.0342H201.861V97.8502H188.293ZM188.293 91.6102V92.7622H201.861V91.6102H188.293ZM184.677 89.5622H205.637V101.082H184.677V89.5622ZM189.541 100.954L193.221 102.362C192.41 102.896 191.45 103.397 190.341 103.866C189.231 104.336 188.069 104.741 186.853 105.082C185.637 105.445 184.474 105.744 183.365 105.978C183.151 105.722 182.863 105.402 182.501 105.018C182.159 104.656 181.818 104.304 181.477 103.962C181.135 103.621 180.815 103.344 180.517 103.13C181.647 102.981 182.778 102.81 183.909 102.618C185.061 102.405 186.127 102.16 187.109 101.882C188.111 101.605 188.922 101.296 189.541 100.954ZM196.645 102.81L199.589 100.73C200.719 101.029 201.882 101.36 203.077 101.722C204.293 102.064 205.434 102.416 206.501 102.778C207.589 103.141 208.517 103.472 209.285 103.77L205.285 105.818C204.645 105.541 203.855 105.232 202.917 104.89C201.999 104.549 200.997 104.186 199.909 103.802C198.842 103.44 197.754 103.109 196.645 102.81ZM229.253 84.4102H239.493V87.5782H229.253V84.4102ZM228.293 95.6742H240.165V98.7782H228.293V95.6742ZM231.173 90.5862H233.477V105.37H231.173V90.5862ZM235.045 90.5862H237.381V105.37H235.045V90.5862ZM234.245 79.2582C233.711 80.1116 233.061 81.0182 232.293 81.9782C231.546 82.9382 230.714 83.8662 229.797 84.7622C228.879 85.6369 227.919 86.4156 226.917 87.0982C226.725 86.6289 226.447 86.0956 226.085 85.4982C225.722 84.9009 225.37 84.4102 225.029 84.0262C226.031 83.3862 227.013 82.6076 227.973 81.6902C228.933 80.7516 229.797 79.7702 230.565 78.7462C231.354 77.7009 231.983 76.7302 232.453 75.8342H235.781C236.442 76.8582 237.199 77.8822 238.053 78.9062C238.906 79.9089 239.813 80.8369 240.773 81.6902C241.733 82.5222 242.693 83.2049 243.653 83.7382C243.311 84.1862 242.949 84.7089 242.565 85.3062C242.202 85.9036 241.882 86.4796 241.605 87.0342C240.709 86.3942 239.791 85.6369 238.853 84.7622C237.935 83.8876 237.071 82.9702 236.261 82.0102C235.471 81.0502 234.799 80.1329 234.245 79.2582ZM226.757 89.4022H240.261V92.5062H229.637V105.786H226.757V89.4022ZM238.981 89.4022H242.213V102.522C242.213 103.162 242.149 103.696 242.021 104.122C241.893 104.57 241.637 104.922 241.253 105.178C240.869 105.456 240.442 105.626 239.973 105.69C239.503 105.754 238.949 105.776 238.309 105.754C238.266 105.328 238.159 104.826 237.989 104.25C237.818 103.674 237.626 103.184 237.413 102.778C237.69 102.8 237.946 102.81 238.181 102.81C238.437 102.81 238.607 102.81 238.693 102.81C238.885 102.81 238.981 102.693 238.981 102.458V89.4022ZM213.541 78.8102H225.797V82.1062H213.541V78.8102ZM213.093 97.3382H225.925V100.698H213.093V97.3382ZM218.053 75.7382H221.221V85.0822H218.053V75.7382ZM218.437 85.1142H220.901V94.0102H221.253V105.754H218.085V94.0102H218.437V85.1142ZM216.709 90.8742V92.7622H222.661V90.8742H216.709ZM216.709 86.4902V88.3462H222.661V86.4902H216.709ZM214.085 83.8022H225.445V95.4502H214.085V83.8022ZM265.669 94.9702V100.986H262.533V94.9702H265.669ZM271.301 92.2502V105.786H267.845V92.2502H271.301ZM276.037 99.3862V102.266H259.557V99.3862H276.037ZM275.205 93.7222V96.6982H261.221V93.7222H275.205ZM252.357 96.5382C252.762 96.7942 253.189 97.1036 253.637 97.4662C254.085 97.8076 254.501 98.1596 254.885 98.5222C255.269 98.8636 255.589 99.1836 255.845 99.4822L253.285 101.21C253.071 100.912 252.773 100.581 252.389 100.218C252.026 99.8556 251.631 99.4929 251.205 99.1302C250.778 98.7462 250.362 98.4049 249.957 98.1062L252.357 96.5382ZM258.533 93.8822L259.109 93.7862L261.157 94.7462C260.495 96.7516 259.578 98.4796 258.405 99.9302C257.253 101.381 255.909 102.586 254.373 103.546C252.858 104.506 251.205 105.264 249.413 105.818C249.306 105.562 249.125 105.264 248.869 104.922C248.613 104.581 248.346 104.24 248.069 103.898C247.791 103.557 247.546 103.301 247.333 103.13C249.018 102.682 250.554 102.074 251.941 101.306C253.349 100.517 254.554 99.5569 255.557 98.4262C256.581 97.2742 257.338 95.9196 257.829 94.3622V93.8822H258.533ZM256.037 92.3782C255.205 93.9356 254.117 95.3542 252.773 96.6342C251.429 97.9142 250.031 98.9596 248.581 99.7702C248.431 99.5782 248.207 99.3436 247.909 99.0662C247.631 98.7676 247.343 98.4796 247.045 98.2023C246.767 97.9036 246.511 97.6689 246.277 97.4982C247.685 96.8156 248.986 95.9622 250.181 94.9382C251.397 93.9142 252.335 92.7836 252.997 91.5462L256.037 92.3782ZM271.333 79.5462V90.3302H267.781V79.5462H271.333ZM265.765 79.5462V90.3302H262.597V79.5462H265.765ZM260.549 79.5462V90.3302H257.381V79.5462H260.549ZM255.397 79.5462V90.3302H251.941V79.5462H255.397ZM275.365 88.8902V91.8982H247.877V88.8902H275.365ZM275.749 83.6742V86.7463H247.269V83.6742H275.749ZM258.917 93.8822V96.3782H250.757L253.253 93.8822H258.917ZM274.341 78.4902V81.4982H250.213L253.189 78.4902H274.341ZM256.197 76.3142C255.407 77.6369 254.501 78.9062 253.477 80.1222C252.474 81.3382 251.279 82.4796 249.893 83.5462C249.573 83.1622 249.135 82.7569 248.581 82.3302C248.026 81.8822 247.535 81.5409 247.109 81.3062C248.367 80.4956 249.455 79.5782 250.373 78.5542C251.29 77.5302 252.015 76.5489 252.549 75.6102L256.197 76.3142ZM297.056 87.8342H317.504V91.2902H297.056V87.8342ZM298.176 81.3702H316.416V84.7622H298.176V81.3702ZM304.928 83.0342H308.768V88.1542C308.768 89.1782 308.64 90.2449 308.384 91.3542C308.149 92.4636 307.701 93.5729 307.04 94.6823C306.4 95.7702 305.472 96.8262 304.256 97.8502C303.061 98.8529 301.514 99.7702 299.616 100.602C299.445 100.325 299.21 100.016 298.912 99.6742C298.613 99.3329 298.304 98.9916 297.984 98.6502C297.664 98.3089 297.354 98.0316 297.056 97.8182C298.869 97.1569 300.298 96.4209 301.344 95.6102C302.41 94.7996 303.189 93.9569 303.68 93.0822C304.192 92.2076 304.522 91.3542 304.672 90.5222C304.842 89.6689 304.928 88.8689 304.928 88.1222V83.0342ZM309.344 90.2662C310.005 92.0369 311.008 93.5409 312.352 94.7782C313.717 95.9942 315.466 96.8689 317.6 97.4022C317.322 97.6582 317.024 97.9782 316.704 98.3622C316.405 98.7462 316.117 99.1409 315.84 99.5462C315.584 99.9302 315.36 100.293 315.168 100.634C312.821 99.8662 310.922 98.6609 309.472 97.0182C308.021 95.3756 306.901 93.3596 306.112 90.9702L309.344 90.2662ZM295.776 88.1862V99.9942H292.032V91.7382H288.32V88.1862H295.776ZM295.776 98.3302C296.437 99.3756 297.365 100.144 298.56 100.634C299.754 101.125 301.184 101.402 302.848 101.466C303.786 101.509 304.896 101.541 306.176 101.562C307.477 101.562 308.842 101.552 310.272 101.53C311.701 101.509 313.098 101.466 314.464 101.402C315.85 101.338 317.077 101.264 318.144 101.178C318.016 101.477 317.866 101.861 317.696 102.33C317.525 102.8 317.365 103.28 317.216 103.77C317.088 104.261 316.992 104.698 316.928 105.082C315.968 105.146 314.869 105.189 313.632 105.21C312.394 105.253 311.125 105.274 309.824 105.274C308.522 105.296 307.264 105.296 306.048 105.274C304.832 105.253 303.744 105.221 302.784 105.178C300.821 105.093 299.146 104.784 297.76 104.25C296.373 103.738 295.146 102.864 294.08 101.626C293.376 102.224 292.65 102.842 291.904 103.482C291.178 104.122 290.378 104.784 289.504 105.466L287.616 101.466C288.362 101.018 289.141 100.528 289.952 99.9942C290.762 99.4609 291.541 98.9062 292.288 98.3302H295.776ZM288.352 78.7782L291.2 76.4742C291.861 76.9009 292.533 77.4022 293.216 77.9782C293.898 78.5329 294.538 79.1089 295.136 79.7062C295.733 80.2822 296.213 80.8156 296.576 81.3062L293.536 83.8662C293.216 83.3542 292.768 82.7996 292.192 82.2022C291.637 81.6049 291.018 81.0076 290.336 80.4102C289.653 79.7916 288.992 79.2476 288.352 78.7782ZM311.552 75.7062L315.456 76.9222C314.88 77.8396 314.282 78.7462 313.664 79.6422C313.066 80.5169 312.512 81.2636 312 81.8822L308.864 80.7942C309.184 80.3036 309.514 79.7702 309.856 79.1942C310.197 78.5969 310.517 77.9996 310.816 77.4022C311.114 76.7836 311.36 76.2182 311.552 75.7062ZM299.008 77.1142L302.24 75.7702C302.837 76.4956 303.402 77.3169 303.936 78.2342C304.469 79.1516 304.842 79.9622 305.056 80.6662L301.6 82.1382C301.429 81.4556 301.088 80.6449 300.576 79.7062C300.085 78.7462 299.562 77.8822 299.008 77.1142Z" fill="white"/>
<path d="M44.4139 249.322H57.0139V258.922H54.2539V251.938H47.0539V259.042H44.4139V249.322ZM55.0939 236.506L57.3019 238.762C56.1339 239.21 54.8379 239.602 53.4139 239.938C51.9899 240.258 50.5259 240.522 49.0219 240.73C47.5339 240.938 46.0779 241.106 44.6539 241.234C44.6059 240.898 44.4939 240.49 44.3179 240.01C44.1579 239.514 43.9979 239.106 43.8379 238.786C44.8619 238.674 45.8939 238.546 46.9339 238.402C47.9899 238.258 49.0139 238.09 50.0059 237.898C50.9979 237.706 51.9259 237.498 52.7899 237.274C53.6539 237.034 54.4219 236.778 55.0939 236.506ZM49.3339 239.218H52.0699V250.834H49.3339V239.218ZM42.9259 243.514H58.2139V246.25H42.9259V243.514ZM46.3099 255.442H55.4059V258.058H46.3099V255.442ZM36.9979 238.906L38.6299 236.818C39.0779 237.042 39.5819 237.298 40.1419 237.586C40.7019 237.874 41.2459 238.162 41.7739 238.45C42.3179 238.738 42.7579 238.994 43.0939 239.218L41.3899 241.546C41.0699 241.306 40.6539 241.034 40.1419 240.73C39.6299 240.426 39.0939 240.114 38.5339 239.794C37.9739 239.458 37.4619 239.162 36.9979 238.906ZM35.8459 245.554L37.4059 243.418C37.8539 243.61 38.3659 243.85 38.9419 244.138C39.5179 244.426 40.0779 244.714 40.6219 245.002C41.1659 245.274 41.6059 245.522 41.9419 245.746L40.3339 248.146C40.0139 247.906 39.5899 247.634 39.0619 247.33C38.5499 247.026 38.0059 246.714 37.4299 246.394C36.8539 246.074 36.3259 245.794 35.8459 245.554ZM36.2059 256.834C36.6379 256.226 37.1099 255.514 37.6219 254.698C38.1499 253.866 38.6859 252.986 39.2299 252.058C39.7739 251.114 40.2859 250.178 40.7659 249.25L42.8779 251.17C42.4619 252.002 42.0139 252.858 41.5339 253.738C41.0699 254.618 40.5899 255.482 40.0939 256.33C39.6139 257.178 39.1259 257.994 38.6299 258.778L36.2059 256.834ZM61.3579 252.034H72.5659V254.074H61.3579V252.034ZM60.8299 240.61H72.8299V242.698H60.8299V240.61ZM65.5819 238.93H68.1979V256.138H65.5819V238.93ZM60.6859 255.85C61.6939 255.786 62.8459 255.706 64.1419 255.61C65.4379 255.514 66.8059 255.41 68.2459 255.298C69.7019 255.17 71.1499 255.042 72.5899 254.914L72.6139 257.098C71.2539 257.242 69.8779 257.386 68.4859 257.53C67.1099 257.674 65.7819 257.802 64.5019 257.914C63.2379 258.042 62.0779 258.162 61.0219 258.274L60.6859 255.85ZM63.7339 248.218V249.298H70.0699V248.218H63.7339ZM63.7339 245.434V246.514H70.0699V245.434H63.7339ZM61.4539 243.634H72.4459V251.098H61.4539V243.634ZM71.2939 236.65L72.5419 238.786C71.5339 238.994 70.3979 239.178 69.1339 239.338C67.8859 239.482 66.6059 239.602 65.2939 239.698C63.9819 239.778 62.7259 239.834 61.5259 239.866C61.4779 239.562 61.3899 239.218 61.2619 238.834C61.1499 238.434 61.0219 238.09 60.8779 237.802C61.7739 237.754 62.6939 237.698 63.6379 237.634C64.5819 237.554 65.5099 237.466 66.4219 237.37C67.3499 237.274 68.2219 237.17 69.0379 237.058C69.8699 236.93 70.6219 236.794 71.2939 236.65ZM72.8059 241.954H81.1339V244.594H72.8059V241.954ZM79.9579 241.954H82.7179C82.7179 241.954 82.7179 242.034 82.7179 242.194C82.7179 242.354 82.7179 242.538 82.7179 242.746C82.7179 242.938 82.7179 243.098 82.7179 243.226C82.6539 245.69 82.5899 247.786 82.5259 249.514C82.4619 251.226 82.3899 252.642 82.3099 253.762C82.2459 254.866 82.1419 255.73 81.9979 256.354C81.8699 256.978 81.7099 257.426 81.5179 257.698C81.2459 258.098 80.9579 258.378 80.6539 258.538C80.3659 258.714 80.0219 258.842 79.6219 258.922C79.2539 258.986 78.8059 259.018 78.2779 259.018C77.7499 259.034 77.1979 259.034 76.6219 259.018C76.6059 258.618 76.5179 258.154 76.3579 257.626C76.2139 257.098 76.0299 256.642 75.8059 256.258C76.3179 256.306 76.7899 256.338 77.2219 256.354C77.6539 256.37 77.9819 256.378 78.2059 256.378C78.3979 256.378 78.5579 256.346 78.6859 256.282C78.8139 256.218 78.9339 256.114 79.0459 255.97C79.1739 255.778 79.2859 255.41 79.3819 254.866C79.4779 254.306 79.5579 253.514 79.6219 252.49C79.7019 251.45 79.7659 250.114 79.8139 248.482C79.8779 246.85 79.9259 244.874 79.9579 242.554V241.954ZM75.1099 236.914H77.8699C77.8699 238.962 77.8459 240.906 77.7979 242.746C77.7659 244.586 77.6619 246.322 77.4859 247.954C77.3259 249.57 77.0459 251.074 76.6459 252.466C76.2619 253.842 75.7179 255.098 75.0139 256.234C74.3099 257.37 73.4059 258.37 72.3019 259.234C72.1579 258.994 71.9659 258.738 71.7259 258.466C71.5019 258.194 71.2619 257.93 71.0059 257.674C70.7659 257.434 70.5259 257.234 70.2859 257.074C71.2939 256.306 72.1099 255.426 72.7339 254.434C73.3579 253.426 73.8379 252.314 74.1739 251.098C74.5099 249.866 74.7419 248.522 74.8699 247.066C74.9979 245.594 75.0699 244.018 75.0859 242.338C75.1019 240.642 75.1099 238.834 75.1099 236.914ZM86.8219 238.834L88.0939 236.866C88.6379 236.994 89.2219 237.162 89.8459 237.37C90.4699 237.562 91.0779 237.77 91.6699 237.994C92.2779 238.202 92.7819 238.402 93.1819 238.594L91.8859 240.778C91.5019 240.586 91.0219 240.37 90.4459 240.13C89.8699 239.874 89.2619 239.634 88.6219 239.41C87.9819 239.186 87.3819 238.994 86.8219 238.834ZM85.7659 242.89C86.6459 242.73 87.7019 242.506 88.9339 242.218C90.1819 241.93 91.4379 241.642 92.7019 241.354L92.9659 243.61C91.9259 243.946 90.8699 244.266 89.7979 244.57C88.7419 244.858 87.7579 245.13 86.8459 245.386L85.7659 242.89ZM96.3979 238.114H105.614V240.154H94.7899L96.3979 238.114ZM104.942 238.114H105.35L105.782 238.018L107.678 238.522C107.374 239.162 107.014 239.818 106.598 240.49C106.198 241.162 105.806 241.722 105.422 242.17L103.166 241.474C103.486 241.09 103.814 240.618 104.15 240.058C104.486 239.482 104.75 238.946 104.942 238.45V238.114ZM98.8699 238.978H101.438C101.326 239.826 101.134 240.602 100.862 241.306C100.59 241.994 100.19 242.61 99.6619 243.154C99.1499 243.682 98.4539 244.146 97.5739 244.546C96.7099 244.946 95.5979 245.282 94.2379 245.554C94.1259 245.25 93.9419 244.898 93.6859 244.498C93.4299 244.082 93.1819 243.754 92.9419 243.514C94.0939 243.322 95.0379 243.09 95.7739 242.818C96.5099 242.546 97.0779 242.234 97.4779 241.882C97.8939 241.514 98.2059 241.09 98.4139 240.61C98.6219 240.13 98.7739 239.586 98.8699 238.978ZM101.294 239.578C101.39 240.026 101.55 240.458 101.774 240.874C102.014 241.29 102.374 241.674 102.854 242.026C103.334 242.362 104.006 242.666 104.87 242.938C105.734 243.194 106.846 243.402 108.206 243.562C107.934 243.85 107.662 244.226 107.39 244.69C107.118 245.154 106.91 245.57 106.766 245.938C105.278 245.698 104.054 245.362 103.094 244.93C102.15 244.498 101.406 244.01 100.862 243.466C100.334 242.922 99.9259 242.338 99.6379 241.714C99.3659 241.074 99.1499 240.442 98.9899 239.818L101.294 239.578ZM96.3259 236.506L98.8699 236.938C98.4059 237.882 97.8619 238.794 97.2379 239.674C96.6139 240.538 95.8459 241.338 94.9339 242.074C94.6779 241.818 94.3339 241.562 93.9019 241.306C93.4859 241.05 93.1019 240.85 92.7499 240.706C93.6299 240.098 94.3659 239.426 94.9579 238.69C95.5499 237.938 96.0059 237.21 96.3259 236.506ZM91.8139 249.586V250.594H102.254V249.586H91.8139ZM91.8139 252.226V253.282H102.254V252.226H91.8139ZM91.8139 246.922V247.954H102.254V246.922H91.8139ZM89.0299 245.218H105.158V254.986H89.0299V245.218ZM98.2699 256.258L100.67 254.89C101.534 255.194 102.406 255.522 103.286 255.874C104.182 256.21 105.03 256.554 105.83 256.906C106.646 257.242 107.334 257.546 107.894 257.818L104.534 259.114C104.086 258.858 103.526 258.562 102.854 258.226C102.182 257.89 101.454 257.546 100.67 257.194C99.9019 256.858 99.1019 256.546 98.2699 256.258ZM92.9659 254.794L95.5819 255.994C94.9419 256.41 94.1899 256.818 93.3259 257.218C92.4619 257.618 91.5739 257.978 90.6619 258.298C89.7499 258.634 88.8859 258.914 88.0699 259.138C87.8939 258.946 87.6779 258.714 87.4219 258.442C87.1819 258.186 86.9259 257.922 86.6539 257.65C86.3819 257.394 86.1419 257.186 85.9339 257.026C86.7819 256.866 87.6379 256.674 88.5019 256.45C89.3819 256.226 90.2059 255.97 90.9739 255.682C91.7579 255.394 92.4219 255.098 92.9659 254.794ZM119.99 237.466H129.302V240.202H119.99V237.466ZM119.702 245.53H127.334V248.218H119.702V245.53ZM122.342 239.29H125.078V245.362C125.078 246.498 125.03 247.666 124.934 248.866C124.838 250.066 124.638 251.266 124.334 252.466C124.046 253.666 123.606 254.826 123.014 255.946C122.422 257.05 121.638 258.09 120.662 259.066C120.518 258.858 120.318 258.618 120.062 258.346C119.806 258.09 119.542 257.842 119.27 257.602C119.014 257.362 118.774 257.17 118.55 257.026C119.398 256.178 120.078 255.274 120.59 254.314C121.102 253.354 121.478 252.37 121.718 251.362C121.974 250.338 122.142 249.322 122.222 248.314C122.302 247.29 122.342 246.29 122.342 245.314V239.29ZM127.79 237.466H130.742C130.71 238.826 130.686 240.218 130.67 241.642C130.654 243.066 130.646 244.458 130.646 245.818C130.662 247.162 130.694 248.434 130.742 249.634C130.79 250.818 130.854 251.874 130.934 252.802C131.03 253.714 131.142 254.45 131.27 255.01C131.398 255.554 131.558 255.85 131.75 255.898C131.814 255.914 131.87 255.762 131.918 255.442C131.966 255.122 132.006 254.706 132.038 254.194C132.086 253.682 132.118 253.154 132.134 252.61C132.278 252.85 132.446 253.13 132.638 253.45C132.83 253.77 133.022 254.066 133.214 254.338C133.406 254.61 133.574 254.818 133.718 254.962C133.59 256.21 133.366 257.154 133.046 257.794C132.742 258.434 132.374 258.826 131.942 258.97C131.51 259.114 131.03 259.074 130.502 258.85C129.926 258.642 129.462 258.09 129.11 257.194C128.758 256.314 128.494 255.186 128.318 253.81C128.142 252.418 128.014 250.85 127.934 249.106C127.87 247.346 127.83 245.474 127.814 243.49C127.798 241.506 127.79 239.498 127.79 237.466ZM111.734 243.874H118.982V246.058H111.734V243.874ZM111.83 237.274H118.934V239.434H111.83V237.274ZM111.734 247.162H118.982V249.322H111.734V247.162ZM110.606 240.49H119.774V242.77H110.606V240.49ZM112.982 250.474H119.03V257.794H112.982V255.514H116.558V252.754H112.982V250.474ZM111.686 250.474H114.11V258.73H111.686V250.474ZM145.478 241.042H157.79V243.658H145.478V241.042ZM145.958 245.938H157.262V248.506H145.958V245.938ZM144.686 250.93H158.198V253.57H144.686V250.93ZM150.062 241.978H152.918V259.066H150.062V241.978ZM154.358 236.458L157.166 237.274C156.782 238.042 156.398 238.802 156.014 239.554C155.63 240.29 155.27 240.922 154.934 241.45L152.702 240.682C152.91 240.298 153.11 239.866 153.302 239.386C153.51 238.89 153.71 238.386 153.902 237.874C154.094 237.362 154.246 236.89 154.358 236.458ZM146.198 237.466L148.526 236.626C148.91 237.25 149.262 237.93 149.582 238.666C149.902 239.402 150.126 240.05 150.254 240.61L147.782 241.57C147.67 241.01 147.462 240.346 147.158 239.578C146.87 238.81 146.55 238.106 146.198 237.466ZM136.718 243.874H144.158V246.058H136.718V243.874ZM136.814 237.274H144.11V239.434H136.814V237.274ZM136.718 247.162H144.158V249.322H136.718V247.162ZM135.566 240.49H144.998V242.77H135.566V240.49ZM138.038 250.474H144.11V257.794H138.038V255.514H141.638V252.754H138.038V250.474ZM136.646 250.474H139.094V258.73H136.646V250.474ZM166.79 243.586V245.074H176.846V243.586H166.79ZM166.79 247.426V248.938H176.846V247.426H166.79ZM166.79 239.77V241.258H176.846V239.77H166.79ZM164.006 237.274H179.774V251.434H164.006V237.274ZM172.91 249.514H175.862V255.25C175.862 255.634 175.918 255.882 176.03 255.994C176.158 256.09 176.446 256.138 176.894 256.138C176.99 256.138 177.142 256.138 177.35 256.138C177.574 256.138 177.822 256.138 178.094 256.138C178.366 256.138 178.622 256.138 178.862 256.138C179.102 256.138 179.286 256.138 179.414 256.138C179.686 256.138 179.894 256.066 180.038 255.922C180.182 255.778 180.286 255.474 180.35 255.01C180.414 254.546 180.462 253.842 180.494 252.898C180.702 253.058 180.958 253.218 181.262 253.378C181.582 253.538 181.91 253.674 182.246 253.786C182.598 253.898 182.894 253.994 183.134 254.074C183.038 255.338 182.87 256.314 182.63 257.002C182.39 257.706 182.038 258.194 181.574 258.466C181.11 258.738 180.478 258.874 179.678 258.874C179.55 258.874 179.374 258.874 179.15 258.874C178.942 258.874 178.71 258.874 178.454 258.874C178.198 258.874 177.934 258.874 177.662 258.874C177.406 258.874 177.174 258.874 176.966 258.874C176.758 258.874 176.598 258.874 176.486 258.874C175.542 258.874 174.806 258.762 174.278 258.538C173.766 258.314 173.406 257.938 173.198 257.41C173.006 256.882 172.91 256.17 172.91 255.274V249.514ZM167.054 250.498H170.126C170.03 251.586 169.854 252.586 169.598 253.498C169.358 254.394 168.958 255.202 168.398 255.922C167.854 256.642 167.078 257.266 166.07 257.794C165.062 258.338 163.75 258.794 162.134 259.162C162.054 258.89 161.918 258.594 161.726 258.274C161.55 257.97 161.35 257.658 161.126 257.338C160.918 257.034 160.71 256.786 160.502 256.594C161.894 256.338 163.006 256.026 163.838 255.658C164.67 255.274 165.302 254.834 165.734 254.338C166.182 253.842 166.494 253.282 166.67 252.658C166.846 252.018 166.974 251.298 167.054 250.498ZM188.654 236.626H191.198V258.97H188.654V236.626ZM185.606 244.522H193.502V247.21H185.606V244.522ZM188.63 245.938L190.238 246.73C190.046 247.53 189.814 248.378 189.542 249.274C189.286 250.154 188.998 251.034 188.678 251.914C188.358 252.794 188.014 253.626 187.646 254.41C187.294 255.194 186.926 255.874 186.542 256.45C186.446 256.146 186.318 255.818 186.158 255.466C186.014 255.098 185.854 254.738 185.678 254.386C185.518 254.018 185.358 253.706 185.198 253.45C185.678 252.858 186.134 252.13 186.566 251.266C187.014 250.386 187.414 249.482 187.766 248.554C188.134 247.61 188.422 246.738 188.63 245.938ZM191.27 247.402C191.414 247.562 191.63 247.834 191.918 248.218C192.222 248.602 192.542 249.026 192.878 249.49C193.23 249.938 193.55 250.362 193.838 250.762C194.126 251.146 194.326 251.426 194.438 251.602L192.614 253.81C192.47 253.458 192.286 253.05 192.062 252.586C191.854 252.106 191.614 251.61 191.342 251.098C191.086 250.586 190.83 250.106 190.574 249.658C190.318 249.194 190.102 248.802 189.926 248.482L191.27 247.402ZM185.582 238.474L187.454 238.018C187.662 238.578 187.846 239.194 188.006 239.866C188.182 240.522 188.326 241.162 188.438 241.786C188.55 242.394 188.622 242.946 188.654 243.442L186.662 243.946C186.646 243.45 186.582 242.89 186.47 242.266C186.374 241.642 186.246 240.994 186.086 240.322C185.942 239.65 185.774 239.034 185.582 238.474ZM192.23 237.874L194.51 238.354C194.318 238.978 194.118 239.634 193.91 240.322C193.702 240.994 193.494 241.642 193.286 242.266C193.094 242.874 192.902 243.418 192.71 243.898L191.006 243.394C191.166 242.898 191.326 242.33 191.486 241.69C191.646 241.05 191.79 240.394 191.918 239.722C192.062 239.05 192.166 238.434 192.23 237.874ZM194.798 238.282H207.326V240.322H194.798V238.282ZM195.398 241.282H206.798V243.202H195.398V241.282ZM194.126 244.258H207.95V246.322H194.126V244.258ZM199.478 236.554H202.19V245.41H199.478V236.554ZM195.398 247.306H204.518V249.346H198.062V259.066H195.398V247.306ZM203.846 247.306H206.558V256.474C206.558 257.066 206.486 257.53 206.342 257.866C206.198 258.202 205.918 258.466 205.502 258.658C205.086 258.834 204.59 258.946 204.014 258.994C203.438 259.042 202.766 259.058 201.998 259.042C201.95 258.69 201.854 258.298 201.71 257.866C201.566 257.45 201.414 257.082 201.254 256.762C201.702 256.778 202.142 256.794 202.574 256.81C203.006 256.81 203.302 256.802 203.462 256.786C203.622 256.786 203.726 256.762 203.774 256.714C203.822 256.65 203.846 256.554 203.846 256.426V247.306ZM196.886 250.498H204.782V252.394H196.886V250.498ZM196.886 253.546H204.782V255.418H196.886V253.546ZM228.326 240.298L231.278 241.45C230.894 242.138 230.478 242.834 230.03 243.538C229.598 244.242 229.166 244.914 228.734 245.554C228.302 246.194 227.886 246.762 227.486 247.258L225.086 246.178C225.47 245.666 225.862 245.074 226.262 244.402C226.662 243.73 227.038 243.034 227.39 242.314C227.758 241.594 228.07 240.922 228.326 240.298ZM212.798 242.506L215.222 241.474C215.734 242.13 216.214 242.858 216.662 243.658C217.11 244.458 217.422 245.17 217.598 245.794L214.958 246.922C214.814 246.314 214.534 245.602 214.118 244.786C213.718 243.954 213.278 243.194 212.798 242.506ZM219.134 241.57L221.75 240.682C222.006 241.114 222.246 241.578 222.47 242.074C222.694 242.57 222.886 243.058 223.046 243.538C223.222 244.018 223.342 244.45 223.406 244.834L220.598 245.842C220.534 245.266 220.358 244.578 220.07 243.778C219.798 242.978 219.486 242.242 219.134 241.57ZM220.118 245.722H223.19V258.97H220.118V245.722ZM211.022 247.738H232.454V250.57H211.022V247.738ZM229.238 236.602L231.518 239.218C230.126 239.458 228.63 239.674 227.03 239.866C225.43 240.058 223.79 240.226 222.11 240.37C220.43 240.498 218.742 240.61 217.046 240.706C215.366 240.802 213.734 240.874 212.15 240.922C212.134 240.65 212.086 240.346 212.006 240.01C211.926 239.674 211.83 239.346 211.718 239.026C211.622 238.69 211.526 238.41 211.43 238.186C212.998 238.138 214.59 238.066 216.206 237.97C217.838 237.874 219.438 237.762 221.006 237.634C222.574 237.49 224.054 237.338 225.446 237.178C226.854 237.002 228.118 236.81 229.238 236.602ZM219.518 248.746L222.086 249.826C221.51 250.706 220.854 251.562 220.118 252.394C219.398 253.226 218.614 254.01 217.766 254.746C216.934 255.482 216.062 256.154 215.15 256.762C214.238 257.37 213.318 257.898 212.39 258.346C212.23 258.074 212.022 257.778 211.766 257.458C211.526 257.138 211.27 256.826 210.998 256.522C210.726 256.218 210.47 255.962 210.23 255.754C211.142 255.402 212.046 254.97 212.942 254.458C213.838 253.946 214.694 253.386 215.51 252.778C216.342 252.17 217.094 251.522 217.766 250.834C218.454 250.146 219.038 249.45 219.518 248.746ZM223.766 248.746C224.246 249.434 224.83 250.114 225.518 250.786C226.222 251.458 226.99 252.106 227.822 252.73C228.654 253.338 229.518 253.898 230.414 254.41C231.326 254.906 232.238 255.33 233.15 255.682C232.926 255.874 232.678 256.122 232.406 256.426C232.134 256.73 231.87 257.042 231.614 257.362C231.374 257.698 231.166 258.002 230.99 258.274C230.078 257.842 229.166 257.322 228.254 256.714C227.342 256.106 226.462 255.434 225.614 254.698C224.766 253.962 223.974 253.186 223.238 252.37C222.502 251.538 221.846 250.69 221.27 249.826L223.766 248.746ZM236.894 238.114H256.574V240.562H236.894V238.114ZM238.022 241.786H255.638V244.066H238.022V241.786ZM236.006 245.41H257.318V247.858H236.006V245.41ZM245.174 236.506H248.078V247.45H245.174V236.506ZM245.198 246.298L247.694 247.498C247.038 248.186 246.294 248.85 245.462 249.49C244.646 250.13 243.766 250.73 242.822 251.29C241.878 251.834 240.91 252.33 239.918 252.778C238.926 253.21 237.934 253.578 236.942 253.882C236.814 253.658 236.638 253.402 236.414 253.114C236.206 252.826 235.982 252.546 235.742 252.274C235.518 251.986 235.302 251.746 235.094 251.554C236.038 251.298 236.998 250.986 237.974 250.618C238.95 250.25 239.886 249.834 240.782 249.37C241.678 248.906 242.502 248.418 243.254 247.906C244.022 247.394 244.67 246.858 245.198 246.298ZM249.35 246.754C249.766 248.338 250.35 249.778 251.102 251.074C251.854 252.37 252.814 253.474 253.982 254.386C255.15 255.282 256.55 255.962 258.182 256.426C257.974 256.634 257.75 256.882 257.51 257.17C257.27 257.474 257.046 257.786 256.838 258.106C256.63 258.442 256.454 258.738 256.31 258.994C254.534 258.386 253.022 257.538 251.774 256.45C250.542 255.346 249.518 254.026 248.702 252.49C247.902 250.954 247.238 249.21 246.71 247.258L249.35 246.754ZM254.87 248.194L257.27 249.994C256.662 250.426 256.03 250.858 255.374 251.29C254.718 251.706 254.07 252.098 253.43 252.466C252.79 252.834 252.19 253.162 251.63 253.45L249.83 251.89C250.358 251.57 250.926 251.202 251.534 250.786C252.158 250.37 252.758 249.938 253.334 249.49C253.926 249.042 254.438 248.61 254.87 248.194ZM237.638 256.354C238.614 256.178 239.726 255.97 240.974 255.73C242.238 255.474 243.558 255.202 244.934 254.914C246.326 254.626 247.702 254.33 249.062 254.026L249.326 256.618C248.078 256.906 246.806 257.194 245.51 257.482C244.23 257.77 242.99 258.042 241.79 258.298C240.606 258.554 239.51 258.794 238.502 259.018L237.638 256.354ZM240.926 251.482L242.822 249.586L243.83 249.85V256.738H240.926V251.482ZM267.35 238.426H282.638V242.866H279.878V240.754H269.966V242.866H267.35V238.426ZM273.326 236.506H276.278V240.322H273.326V236.506ZM273.422 243.682H276.158V253.09H273.422V243.682ZM275.75 255.586L277.958 254.146C278.502 254.45 279.086 254.802 279.71 255.202C280.35 255.586 280.958 255.978 281.534 256.378C282.126 256.762 282.622 257.122 283.022 257.458L280.646 259.066C280.31 258.746 279.854 258.378 279.278 257.962C278.718 257.562 278.126 257.154 277.502 256.738C276.878 256.322 276.294 255.938 275.75 255.586ZM271.358 254.386L274.094 255.418C273.614 255.898 273.054 256.378 272.414 256.858C271.774 257.322 271.102 257.754 270.398 258.154C269.71 258.554 269.046 258.898 268.406 259.186C268.246 259.01 268.03 258.786 267.758 258.514C267.486 258.242 267.214 257.978 266.942 257.722C266.67 257.482 266.422 257.282 266.198 257.122C267.158 256.802 268.11 256.402 269.054 255.922C269.998 255.426 270.766 254.914 271.358 254.386ZM270.926 251.026V252.298H278.894V251.026H270.926ZM270.926 247.762V249.034H278.894V247.762H270.926ZM268.382 245.65H281.558V254.434H268.382V245.65ZM269.27 242.218H280.646V244.498H269.27V242.218ZM261.566 238.738L263.15 236.602C263.63 236.778 264.134 237.002 264.662 237.274C265.206 237.53 265.718 237.802 266.198 238.09C266.694 238.378 267.086 238.65 267.374 238.906L265.694 241.282C265.422 241.01 265.046 240.722 264.566 240.418C264.102 240.098 263.606 239.794 263.078 239.506C262.55 239.202 262.046 238.946 261.566 238.738ZM260.318 245.242L261.878 243.082C262.358 243.242 262.862 243.442 263.39 243.682C263.934 243.922 264.446 244.178 264.926 244.45C265.406 244.722 265.798 244.994 266.102 245.266L264.446 247.666C264.158 247.394 263.774 247.114 263.294 246.826C262.83 246.522 262.334 246.234 261.806 245.962C261.294 245.69 260.798 245.45 260.318 245.242ZM260.918 257.074C261.302 256.45 261.718 255.714 262.166 254.866C262.614 254.018 263.078 253.122 263.558 252.178C264.038 251.218 264.478 250.266 264.878 249.322L267.134 251.05C266.782 251.914 266.398 252.794 265.982 253.69C265.582 254.57 265.174 255.442 264.758 256.306C264.342 257.17 263.926 257.994 263.51 258.778L260.918 257.074ZM298.31 245.53V248.074H303.494V245.53H298.31ZM295.67 243.082H306.302V250.546H295.67V243.082ZM301.238 249.826H303.95V255.586C303.95 255.922 303.974 256.138 304.022 256.234C304.07 256.314 304.182 256.354 304.358 256.354C304.406 256.354 304.486 256.354 304.598 256.354C304.726 256.354 304.846 256.354 304.958 256.354C305.086 256.354 305.182 256.354 305.246 256.354C305.374 256.354 305.47 256.282 305.534 256.138C305.614 255.994 305.67 255.714 305.702 255.298C305.75 254.866 305.782 254.21 305.798 253.33C305.974 253.474 306.198 253.618 306.47 253.762C306.758 253.906 307.054 254.034 307.358 254.146C307.678 254.258 307.958 254.346 308.198 254.41C308.134 255.594 307.998 256.506 307.79 257.146C307.598 257.802 307.318 258.25 306.95 258.49C306.598 258.746 306.126 258.874 305.534 258.874C305.438 258.874 305.31 258.874 305.15 258.874C305.006 258.874 304.854 258.874 304.694 258.874C304.55 258.874 304.406 258.874 304.262 258.874C304.118 258.874 303.99 258.874 303.878 258.874C303.158 258.874 302.606 258.77 302.222 258.562C301.838 258.354 301.574 258.01 301.43 257.53C301.302 257.066 301.238 256.426 301.238 255.61V249.826ZM297.206 250.186H300.038C299.974 251.226 299.846 252.194 299.654 253.09C299.478 253.97 299.198 254.786 298.814 255.538C298.43 256.29 297.894 256.962 297.206 257.554C296.534 258.146 295.654 258.666 294.566 259.114C294.47 258.874 294.326 258.61 294.134 258.322C293.942 258.05 293.742 257.778 293.534 257.506C293.326 257.234 293.118 257.01 292.91 256.834C293.822 256.514 294.55 256.138 295.094 255.706C295.638 255.258 296.054 254.762 296.342 254.218C296.63 253.658 296.83 253.05 296.942 252.394C297.07 251.722 297.158 250.986 297.206 250.186ZM297.902 237.178H303.71V239.77H297.902V237.178ZM296.222 239.314L299.03 240.034C298.63 241.01 298.142 242.01 297.566 243.034C297.006 244.042 296.382 244.89 295.694 245.578C295.406 245.322 295.046 245.05 294.614 244.762C294.182 244.458 293.806 244.218 293.486 244.042C294.094 243.434 294.638 242.69 295.118 241.81C295.614 240.914 295.982 240.082 296.222 239.314ZM301.526 237.178H304.502C304.742 237.946 305.054 238.714 305.438 239.482C305.822 240.234 306.254 240.946 306.734 241.618C307.214 242.29 307.71 242.858 308.222 243.322C307.982 243.466 307.702 243.642 307.382 243.85C307.078 244.058 306.782 244.282 306.494 244.522C306.206 244.746 305.966 244.954 305.774 245.146C304.99 244.282 304.278 243.258 303.638 242.074C302.998 240.89 302.47 239.698 302.054 238.498H301.526V237.178ZM286.454 243.874H293.702V246.058H286.454V243.874ZM286.55 237.274H293.654V239.434H286.55V237.274ZM286.454 247.162H293.702V249.322H286.454V247.162ZM285.326 240.49H294.494V242.77H285.326V240.49ZM287.702 250.474H293.75V257.794H287.702V255.514H291.278V252.754H287.702V250.474ZM286.406 250.474H288.83V258.73H286.406V250.474ZM312.734 237.826H319.646V252.562H312.734V249.946H316.982V240.442H312.734V237.826ZM312.782 243.826H318.014V246.394H312.782V243.826ZM323.03 237.49H330.374V240.154H323.03V237.49ZM323.03 243.202H330.374V245.794H323.03V243.202ZM322.982 248.89H330.35V251.482H322.982V248.89ZM311.222 237.826H313.886V254.65H311.222V237.826ZM329.318 237.49H332.174V255.754C332.174 256.506 332.078 257.09 331.886 257.506C331.71 257.938 331.382 258.274 330.902 258.514C330.422 258.738 329.83 258.882 329.126 258.946C328.422 259.01 327.566 259.042 326.558 259.042C326.51 258.77 326.43 258.458 326.318 258.106C326.222 257.77 326.102 257.434 325.958 257.098C325.83 256.778 325.694 256.498 325.55 256.258C325.982 256.274 326.414 256.29 326.846 256.306C327.278 256.306 327.662 256.306 327.998 256.306C328.35 256.29 328.59 256.282 328.718 256.282C328.942 256.282 329.094 256.242 329.174 256.162C329.27 256.082 329.318 255.938 329.318 255.73V237.49ZM321.302 237.49H324.134V246.202C324.134 247.226 324.07 248.33 323.942 249.514C323.814 250.698 323.574 251.882 323.222 253.066C322.886 254.234 322.382 255.354 321.71 256.426C321.038 257.482 320.15 258.418 319.046 259.234C318.902 259.042 318.694 258.818 318.422 258.562C318.166 258.322 317.894 258.082 317.606 257.842C317.334 257.602 317.086 257.426 316.862 257.314C317.886 256.562 318.694 255.738 319.286 254.842C319.878 253.93 320.318 252.986 320.606 252.01C320.894 251.018 321.078 250.026 321.158 249.034C321.254 248.042 321.302 247.09 321.302 246.178V237.49Z" fill="white"/>
<path d="M43.846 164.422H84.736V168.83H43.846V164.422ZM53.068 149.226H59.1V161H53.068V149.226ZM66.292 149.226H72.44V161H66.292V149.226ZM44.948 152.068H86.07V162.508H44.948V158.68H79.69V155.896H44.948V152.068ZM59.042 176.08L64.9 177.414C62.696 179.541 60.1247 181.435 57.186 183.098C54.2473 184.761 50.8253 186.269 46.92 187.622C46.5333 187.003 45.9727 186.288 45.238 185.476C44.542 184.664 43.904 184.045 43.324 183.62C46.92 182.615 50.052 181.474 52.72 180.198C55.388 178.883 57.4953 177.511 59.042 176.08ZM59.1 179.618H77.37V183.388H55.33L59.1 179.618ZM75.978 179.618H77.196L78.24 179.386L82.126 181.88C80.3087 183.968 78.066 185.766 75.398 187.274C72.73 188.782 69.772 190.058 66.524 191.102C63.3147 192.146 59.912 192.977 56.316 193.596C52.7587 194.253 49.182 194.775 45.586 195.162C45.354 194.466 44.9867 193.654 44.484 192.726C44.02 191.798 43.556 191.025 43.092 190.406C46.3787 190.174 49.6653 189.807 52.952 189.304C56.2773 188.801 59.4287 188.144 62.406 187.332C65.3833 186.52 68.0513 185.553 70.41 184.432C72.7687 183.272 74.6247 181.938 75.978 180.43V179.618ZM57.36 182.054C58.8293 183.291 60.666 184.374 62.87 185.302C65.1127 186.23 67.626 187.023 70.41 187.68C73.194 188.299 76.1713 188.801 79.342 189.188C82.5127 189.536 85.78 189.787 89.144 189.942C88.5253 190.561 87.8873 191.392 87.23 192.436C86.6113 193.48 86.1087 194.389 85.722 195.162C82.242 194.891 78.878 194.485 75.63 193.944C72.382 193.403 69.308 192.687 66.408 191.798C63.5467 190.909 60.9173 189.826 58.52 188.55C56.1613 187.274 54.0927 185.785 52.314 184.084L57.36 182.054ZM54.866 170.048H60.318V172.6C60.318 173.18 60.4533 173.547 60.724 173.702C61.0333 173.857 61.6327 173.934 62.522 173.934C62.754 173.934 63.1407 173.934 63.682 173.934C64.2233 173.934 64.8227 173.934 65.48 173.934C66.176 173.934 66.7947 173.934 67.336 173.934C67.916 173.934 68.3413 173.934 68.612 173.934C69.308 173.934 69.772 173.799 70.004 173.528C70.236 173.219 70.41 172.542 70.526 171.498C71.0673 171.846 71.7633 172.155 72.614 172.426C73.5033 172.697 74.296 172.89 74.992 173.006C74.76 174.939 74.2187 176.254 73.368 176.95C72.556 177.607 71.222 177.936 69.366 177.936C69.134 177.936 68.7667 177.936 68.264 177.936C67.7613 177.936 67.1813 177.936 66.524 177.936C65.8667 177.936 65.2287 177.936 64.61 177.936C63.9913 177.936 63.4307 177.936 62.928 177.936C62.4253 177.936 62.058 177.936 61.826 177.936C59.97 177.936 58.52 177.781 57.476 177.472C56.4707 177.124 55.7747 176.583 55.388 175.848C55.04 175.075 54.866 173.992 54.866 172.6V170.048ZM83.112 164.422H84.098L85.084 164.248L89.608 165.234C89.0667 166.742 88.4673 168.289 87.81 169.874C87.1527 171.459 86.5147 172.793 85.896 173.876L80.444 172.774C80.908 171.769 81.3913 170.57 81.894 169.178C82.3967 167.786 82.8027 166.452 83.112 165.176V164.422ZM49.82 169.41L54.46 171.44C53.8413 172.755 53.068 174.069 52.14 175.384C51.2507 176.699 50.1293 177.82 48.776 178.748L44.31 175.848C45.5087 175.113 46.5913 174.147 47.558 172.948C48.5247 171.749 49.2787 170.57 49.82 169.41ZM60.086 169.294L63.74 166.684C64.784 167.187 65.886 167.825 67.046 168.598C68.206 169.371 69.1147 170.067 69.772 170.686L66.002 173.586C65.3447 172.929 64.436 172.175 63.276 171.324C62.1547 170.473 61.0913 169.797 60.086 169.294ZM72.73 171.208L77.022 168.946C78.2207 169.874 79.4387 170.995 80.676 172.31C81.9133 173.586 82.8413 174.727 83.46 175.732L78.936 178.226C78.3947 177.182 77.5247 176.003 76.326 174.688C75.1273 173.373 73.9287 172.213 72.73 171.208ZM60.202 140.7H67.452V148.066H60.202V140.7ZM42.512 144.18H88.1V149.4H42.512V144.18ZM39.206 144.18H45.528V161.464C45.528 163.9 45.4507 166.568 45.296 169.468C45.1413 172.368 44.8513 175.345 44.426 178.4C44.0007 181.455 43.382 184.413 42.57 187.274C41.758 190.135 40.6947 192.726 39.38 195.046C38.9933 194.659 38.4713 194.195 37.814 193.654C37.1567 193.151 36.48 192.668 35.784 192.204C35.1267 191.74 34.5467 191.392 34.044 191.16C35.2427 189.033 36.1707 186.713 36.828 184.2C37.524 181.648 38.046 179.057 38.394 176.428C38.742 173.76 38.9547 171.15 39.032 168.598C39.148 166.046 39.206 163.668 39.206 161.464V144.18ZM105.384 151.256H145.752V158.042H105.384V151.256ZM102.948 168.308H143.49V175.036H102.948V168.308ZM96.278 186.752H148.71V193.538H96.278V186.752ZM118.782 140.7H126.09V190.058H118.782V140.7ZM105.384 141.454L112.576 143.078C111.764 146.055 110.759 148.994 109.56 151.894C108.361 154.794 107.066 157.501 105.674 160.014C104.282 162.489 102.832 164.654 101.324 166.51C100.86 166.085 100.241 165.621 99.468 165.118C98.7333 164.577 97.96 164.055 97.148 163.552C96.336 163.049 95.64 162.643 95.06 162.334C96.6067 160.71 98.018 158.777 99.294 156.534C100.609 154.291 101.769 151.875 102.774 149.284C103.818 146.693 104.688 144.083 105.384 141.454ZM196.328 184.722L201.664 182.112C202.631 182.963 203.617 183.929 204.622 185.012C205.627 186.095 206.594 187.158 207.522 188.202C208.45 189.246 209.185 190.193 209.726 191.044L204.042 194.002C203.539 193.19 202.863 192.243 202.012 191.16C201.161 190.077 200.233 188.975 199.228 187.854C198.223 186.694 197.256 185.65 196.328 184.722ZM172.084 142.672H208.972V148.24H172.084V142.672ZM175.622 168.134H206.188V173.238H175.622V168.134ZM172.084 175.5H209.552V181.068H172.084V175.5ZM183.104 146.384H188.672V163.436H183.104V146.384ZM192.152 146.384H197.778V163.436H192.152V146.384ZM179.74 155.838V161.058H201.316V155.838H179.74ZM173.824 150.85H207.638V166.046H173.824V150.85ZM187.396 178.168H194.182V188.724C194.182 190.193 194.008 191.353 193.66 192.204C193.312 193.093 192.597 193.77 191.514 194.234C190.509 194.698 189.31 194.969 187.918 195.046C186.526 195.123 184.902 195.162 183.046 195.162C182.93 194.234 182.698 193.209 182.35 192.088C182.002 191.005 181.615 190.039 181.19 189.188C182.273 189.227 183.336 189.265 184.38 189.304C185.424 189.304 186.12 189.285 186.468 189.246C186.816 189.246 187.048 189.188 187.164 189.072C187.319 188.956 187.396 188.763 187.396 188.492V178.168ZM177.42 182.17L183.452 184.084C182.292 185.979 180.861 187.873 179.16 189.768C177.459 191.663 175.815 193.248 174.23 194.524C173.843 194.176 173.321 193.77 172.664 193.306C172.045 192.881 171.407 192.436 170.75 191.972C170.093 191.547 169.493 191.199 168.952 190.928C170.537 189.807 172.103 188.473 173.65 186.926C175.197 185.341 176.453 183.755 177.42 182.17ZM157.932 146.616L161.296 141.512C162.34 142.053 163.481 142.691 164.718 143.426C165.955 144.161 167.154 144.915 168.314 145.688C169.474 146.461 170.421 147.157 171.156 147.776L167.618 153.46C166.922 152.803 166.013 152.068 164.892 151.256C163.809 150.444 162.649 149.632 161.412 148.82C160.175 147.969 159.015 147.235 157.932 146.616ZM155.09 162.276L158.28 157.056C159.363 157.559 160.523 158.177 161.76 158.912C163.036 159.608 164.254 160.323 165.414 161.058C166.613 161.793 167.599 162.469 168.372 163.088L165.066 168.888C164.331 168.269 163.384 167.573 162.224 166.8C161.064 165.988 159.846 165.195 158.57 164.422C157.333 163.61 156.173 162.895 155.09 162.276ZM156.54 189.884C157.429 188.415 158.396 186.694 159.44 184.722C160.523 182.75 161.605 180.643 162.688 178.4C163.771 176.119 164.815 173.857 165.82 171.614L170.344 176.37C169.493 178.381 168.585 180.449 167.618 182.576C166.651 184.664 165.665 186.733 164.66 188.782C163.693 190.831 162.707 192.803 161.702 194.698L156.54 189.884ZM235.594 161.116H262.622V167.09H235.594V161.116ZM233.042 174.34H269.872V180.372H233.042V174.34ZM248.644 169.816H255.546V187.68C255.546 189.42 255.333 190.773 254.908 191.74C254.483 192.745 253.632 193.499 252.356 194.002C251.08 194.505 249.572 194.814 247.832 194.93C246.092 195.046 244.043 195.104 241.684 195.104C241.568 194.099 241.278 192.958 240.814 191.682C240.389 190.406 239.944 189.304 239.48 188.376C240.524 188.415 241.587 188.453 242.67 188.492C243.753 188.492 244.7 188.492 245.512 188.492C246.363 188.492 246.962 188.492 247.31 188.492C247.813 188.453 248.161 188.376 248.354 188.26C248.547 188.144 248.644 187.893 248.644 187.506V169.816ZM260.244 161.116H262.1L263.666 160.826L268.016 164.074C266.779 165.389 265.367 166.684 263.782 167.96C262.235 169.236 260.553 170.435 258.736 171.556C256.957 172.639 255.082 173.586 253.11 174.398C252.723 173.818 252.163 173.141 251.428 172.368C250.732 171.595 250.152 170.995 249.688 170.57C251.08 169.913 252.453 169.12 253.806 168.192C255.198 167.225 256.455 166.239 257.576 165.234C258.697 164.19 259.587 163.243 260.244 162.392V161.116ZM263.202 140.7L267.784 146.326C265.464 146.945 262.951 147.486 260.244 147.95C257.537 148.414 254.715 148.82 251.776 149.168C248.876 149.477 245.957 149.748 243.018 149.98C240.079 150.173 237.237 150.347 234.492 150.502C234.415 149.651 234.183 148.665 233.796 147.544C233.409 146.423 233.042 145.475 232.694 144.702C235.401 144.547 238.146 144.354 240.93 144.122C243.753 143.851 246.498 143.542 249.166 143.194C251.873 142.846 254.405 142.479 256.764 142.092C259.161 141.667 261.307 141.203 263.202 140.7ZM234.376 152.822L240.234 150.676C241.123 152.029 241.955 153.499 242.728 155.084C243.501 156.669 244.062 158.081 244.41 159.318L238.262 161.754C237.991 160.555 237.489 159.125 236.754 157.462C236.019 155.761 235.227 154.214 234.376 152.822ZM245.28 151.082L251.138 149.226C251.911 150.579 252.588 152.087 253.168 153.75C253.787 155.413 254.212 156.863 254.444 158.1L248.238 160.246C248.045 159.009 247.677 157.539 247.136 155.838C246.595 154.098 245.976 152.513 245.28 151.082ZM260.882 148.878L268.19 151.082C267.417 152.319 266.624 153.576 265.812 154.852C265 156.128 264.207 157.346 263.434 158.506C262.661 159.627 261.945 160.633 261.288 161.522L255.894 159.492C256.474 158.487 257.073 157.385 257.692 156.186C258.311 154.949 258.891 153.692 259.432 152.416C260.012 151.14 260.495 149.961 260.882 148.878ZM218.948 146.094L222.718 140.99C223.917 141.454 225.173 142.015 226.488 142.672C227.841 143.329 229.117 144.006 230.316 144.702C231.553 145.398 232.539 146.094 233.274 146.79L229.272 152.474C228.576 151.778 227.648 151.043 226.488 150.27C225.328 149.497 224.071 148.743 222.718 148.008C221.403 147.273 220.147 146.635 218.948 146.094ZM215.584 161.928L219.296 156.65C220.533 157.075 221.829 157.597 223.182 158.216C224.535 158.835 225.831 159.492 227.068 160.188C228.305 160.884 229.311 161.561 230.084 162.218L226.082 168.018C225.386 167.361 224.439 166.665 223.24 165.93C222.041 165.157 220.765 164.422 219.412 163.726C218.097 163.03 216.821 162.431 215.584 161.928ZM216.86 190.174C217.788 188.666 218.832 186.887 219.992 184.838C221.152 182.789 222.331 180.623 223.53 178.342C224.729 176.022 225.831 173.721 226.836 171.44L232.23 175.732C231.302 177.781 230.316 179.889 229.272 182.054C228.267 184.219 227.223 186.346 226.14 188.434C225.096 190.522 224.033 192.513 222.95 194.408L216.86 190.174ZM288.722 145.688H328.336V150.908H288.722V145.688ZM289.244 153.17H323.29V158.216H289.244V153.17ZM282.574 160.536H316.098V165.814H282.574V160.536ZM278.746 175.732H313.256V180.952H278.746V175.732ZM288.2 140.7L295.624 142.556C294.58 145.263 293.323 147.892 291.854 150.444C290.423 152.957 288.857 155.297 287.156 157.462C285.493 159.627 283.773 161.503 281.994 163.088C281.53 162.624 280.892 162.121 280.08 161.58C279.268 161.039 278.437 160.497 277.586 159.956C276.774 159.376 276.078 158.931 275.498 158.622C278.243 156.611 280.737 154.021 282.98 150.85C285.223 147.641 286.963 144.257 288.2 140.7ZM313.952 160.536H320.97C320.97 163.475 320.989 166.317 321.028 169.062C321.105 171.769 321.221 174.282 321.376 176.602C321.569 178.922 321.821 180.952 322.13 182.692C322.478 184.393 322.865 185.727 323.29 186.694C323.754 187.661 324.315 188.144 324.972 188.144C325.397 188.144 325.687 187.409 325.842 185.94C326.035 184.471 326.151 182.499 326.19 180.024C326.847 180.836 327.563 181.648 328.336 182.46C329.148 183.272 329.921 183.929 330.656 184.432C330.385 188.144 329.825 190.831 328.974 192.494C328.162 194.195 326.673 195.046 324.508 195.046C322.149 195.046 320.274 194.137 318.882 192.32C317.49 190.541 316.446 188.067 315.75 184.896C315.054 181.725 314.59 178.071 314.358 173.934C314.126 169.758 313.991 165.292 313.952 160.536ZM281.994 169.468L287.214 167.38C288.026 168.385 288.799 169.526 289.534 170.802C290.269 172.039 290.791 173.141 291.1 174.108L285.532 176.37C285.3 175.403 284.836 174.282 284.14 173.006C283.444 171.691 282.729 170.512 281.994 169.468ZM295.798 183.91L300.09 180.256C301.521 181.029 303.048 181.938 304.672 182.982C306.335 183.987 307.939 184.993 309.486 185.998C311.033 187.003 312.289 187.912 313.256 188.724L308.674 192.9C307.746 192.011 306.547 191.044 305.078 190C303.609 188.917 302.062 187.854 300.438 186.81C298.814 185.727 297.267 184.761 295.798 183.91ZM293.188 166.974H299.684V195.046H293.188V166.974ZM305.426 167.206L311.574 169.062C310.569 170.377 309.563 171.672 308.558 172.948C307.553 174.185 306.644 175.268 305.832 176.196L301.424 174.456C301.888 173.799 302.371 173.045 302.874 172.194C303.377 171.305 303.86 170.435 304.324 169.584C304.788 168.695 305.155 167.902 305.426 167.206ZM291.796 177.994L296.9 179.966C295.74 181.899 294.309 183.794 292.608 185.65C290.907 187.467 289.07 189.13 287.098 190.638C285.126 192.146 283.135 193.422 281.124 194.466C280.815 193.925 280.409 193.325 279.906 192.668C279.403 192.049 278.881 191.431 278.34 190.812C277.799 190.193 277.277 189.691 276.774 189.304C278.707 188.569 280.621 187.603 282.516 186.404C284.411 185.205 286.17 183.891 287.794 182.46C289.418 180.991 290.752 179.502 291.796 177.994ZM336.862 145.108H356.408V151.546H336.862V145.108ZM355.77 150.502H390.976V156.824H355.77V150.502ZM337.268 161.348H355.712V167.728H337.268V161.348ZM335.702 181.59C337.442 181.165 339.433 180.643 341.676 180.024C343.919 179.405 346.297 178.748 348.81 178.052C351.323 177.317 353.837 176.583 356.35 175.848L357.278 181.764C353.875 182.885 350.434 184.007 346.954 185.128C343.513 186.249 340.361 187.255 337.5 188.144L335.702 181.59ZM369.516 140.642H376.186V187.332C376.186 189.033 375.973 190.387 375.548 191.392C375.161 192.397 374.465 193.171 373.46 193.712C372.455 194.292 371.198 194.679 369.69 194.872C368.182 195.065 366.345 195.162 364.18 195.162C364.103 194.505 363.929 193.77 363.658 192.958C363.387 192.185 363.078 191.392 362.73 190.58C362.421 189.768 362.111 189.053 361.802 188.434C363.194 188.473 364.509 188.511 365.746 188.55C366.983 188.55 367.815 188.55 368.24 188.55C368.665 188.511 368.975 188.415 369.168 188.26C369.4 188.067 369.516 187.757 369.516 187.332V140.642ZM351.884 182.924C353.74 181.957 356.002 180.701 358.67 179.154C361.338 177.607 364.006 176.022 366.674 174.398L368.82 180.082C366.616 181.667 364.335 183.253 361.976 184.838C359.656 186.423 357.471 187.854 355.422 189.13L351.884 182.924ZM356.234 161.87L361.628 159.492C362.401 160.497 363.155 161.619 363.89 162.856C364.625 164.055 365.301 165.253 365.92 166.452C366.577 167.612 367.061 168.656 367.37 169.584L361.628 172.252C361.357 171.324 360.932 170.261 360.352 169.062C359.772 167.863 359.115 166.626 358.38 165.35C357.684 164.074 356.969 162.914 356.234 161.87ZM384.712 158.854L390.802 161.986C389.951 163.185 389.062 164.403 388.134 165.64C387.245 166.839 386.355 167.999 385.466 169.12C384.615 170.241 383.803 171.227 383.03 172.078L378.1 169.294C378.835 168.366 379.608 167.303 380.42 166.104C381.271 164.905 382.063 163.668 382.798 162.392C383.571 161.116 384.209 159.937 384.712 158.854ZM378.332 144.528L382.16 140.932C383.049 141.512 383.977 142.15 384.944 142.846C385.949 143.542 386.897 144.257 387.786 144.992C388.675 145.727 389.391 146.403 389.932 147.022L385.872 151.024C385.099 150.096 383.977 149.013 382.508 147.776C381.077 146.539 379.685 145.456 378.332 144.528ZM343.358 147.834H350.086V181.532L343.358 182.576V147.834ZM376.012 157.578C376.592 160.903 377.288 163.919 378.1 166.626C378.912 169.333 379.917 171.807 381.116 174.05C382.353 176.254 383.861 178.303 385.64 180.198C387.419 182.054 389.526 183.813 391.962 185.476C391.15 186.095 390.338 186.907 389.526 187.912C388.714 188.917 388.095 189.884 387.67 190.812C384.963 188.763 382.643 186.617 380.71 184.374C378.777 182.131 377.153 179.734 375.838 177.182C374.523 174.591 373.421 171.769 372.532 168.714C371.643 165.659 370.869 162.295 370.212 158.622L376.012 157.578Z" fill="white"/>
<ellipse cx="76.3214" cy="65.9062" rx="54.1017" ry="56" fill="#6EE292"/>
<path d="M75.4389 103.901C69.7808 103.901 64.7263 103.001 60.2756 101.202C55.8485 99.3788 52.3684 96.9167 49.8353 93.8153C47.3258 90.6903 46.071 87.1629 46.071 83.233C46.071 80.2263 46.7931 77.4683 48.2372 74.9588C49.6814 72.4493 51.6345 70.366 54.0966 68.7088C56.5824 67.0279 59.3523 65.9508 62.4063 65.4773V64.9091C58.4053 64.1752 55.1264 62.3168 52.5696 59.3338C50.0365 56.3509 48.7699 52.8589 48.7699 48.858C48.7699 45.0701 49.9181 41.6965 52.2145 38.7372C54.5346 35.7779 57.6951 33.446 61.696 31.7415C65.7207 30.0369 70.3016 29.1847 75.4389 29.1847C80.5763 29.1847 85.1454 30.0369 89.1463 31.7415C93.171 33.446 96.3315 35.7779 98.6279 38.7372C100.948 41.6965 102.108 45.0701 102.108 48.858C102.108 52.8826 100.818 56.3864 98.2372 59.3693C95.6804 62.3286 92.4252 64.1752 88.4716 64.9091V65.4773C91.5019 65.9508 94.2481 67.0279 96.7102 68.7088C99.196 70.366 101.161 72.4493 102.605 74.9588C104.073 77.4683 104.807 80.2263 104.807 83.233C104.807 87.1629 103.54 90.6903 101.007 93.8153C98.474 96.9167 94.9939 99.3788 90.5668 101.202C86.1634 103.001 81.1208 103.901 75.4389 103.901ZM75.4389 91.4361C77.5933 91.4361 79.4872 91.0336 81.1208 90.2287C82.7543 89.4001 84.0327 88.2519 84.956 86.7841C85.903 85.3163 86.3764 83.6591 86.3764 81.8125C86.3764 79.9186 85.903 78.2377 84.956 76.7699C84.009 75.3021 82.7069 74.1539 81.0497 73.3253C79.4162 72.473 77.546 72.0469 75.4389 72.0469C73.3556 72.0469 71.4853 72.473 69.8281 73.3253C68.171 74.1539 66.8689 75.3021 65.9219 76.7699C64.9749 78.2377 64.5014 79.9186 64.5014 81.8125C64.5014 83.6591 64.9631 85.3163 65.8864 86.7841C66.8334 88.2282 68.1236 89.3646 69.7571 90.1932C71.4143 91.0218 73.3083 91.4361 75.4389 91.4361ZM75.4389 59.6534C77.2855 59.6534 78.9191 59.2746 80.3395 58.517C81.7836 57.7595 82.9082 56.706 83.7131 55.3565C84.5417 54.0071 84.956 52.4801 84.956 50.7756C84.956 49.071 84.5417 47.5677 83.7131 46.2656C82.9082 44.9635 81.7955 43.9455 80.375 43.2116C78.9546 42.4541 77.3092 42.0753 75.4389 42.0753C73.5924 42.0753 71.947 42.4541 70.5029 43.2116C69.0587 43.9455 67.9342 44.9635 67.1293 46.2656C66.3244 47.5677 65.9219 49.071 65.9219 50.7756C65.9219 52.4801 66.3244 54.0071 67.1293 55.3565C67.9579 56.6823 69.0942 57.7358 70.5384 58.517C71.9825 59.2746 73.616 59.6534 75.4389 59.6534Z" fill="white"/>
<rect x="460" y="122" width="74" height="89" fill="#6EE292"/>
<path d="M536 202.031C536 231.817 507.819 228.795 473.056 228.795C438.292 228.795 407.926 233.544 410.111 202.031C410.111 180.435 438.292 167.496 473.056 167.496C507.819 167.496 536 179.096 536 202.031Z" fill="#6EE292"/>
<path d="M437.062 232.619C437.062 240.009 431.004 246 423.531 246C416.058 246 410 240.009 410 232.619C410 225.228 416.058 219.237 423.531 219.237C431.004 219.237 437.062 225.228 437.062 232.619Z" fill="#93FFB4"/>
<ellipse cx="454.37" cy="232.619" rx="13.5311" ry="13.3813" fill="#93FFB4"/>
<path d="M504.027 232.619C504.027 240.009 497.969 246 490.496 246C483.023 246 476.965 240.009 476.965 232.619C476.965 225.228 483.023 219.237 490.496 219.237C497.969 219.237 504.027 225.228 504.027 232.619Z" fill="#93FFB4"/>
<ellipse cx="521.336" cy="232.619" rx="13.5311" ry="13.3813" fill="#93FFB4"/>
</svg>
