<svg width="570" height="313" viewBox="0 0 570 313" fill="none" xmlns="http://www.w3.org/2000/svg">
<path d="M-0.00146484 29.9266H539.999C556.567 29.9266 569.999 43.3581 569.999 59.9266V312.298H29.9985C13.43 312.298 -0.00146484 298.867 -0.00146484 282.298V29.9266Z" fill="#FF5F17"/>
<line x1="347.795" y1="219.798" x2="38.6426" y2="219.798" stroke="white"/>
<path d="M148.04 85.848H173.864V89.624H148.04V85.848ZM149.736 95.192H172.36V98.904H149.736V95.192ZM146.664 105.08H175.464V108.856H146.664V105.08ZM158.888 89.112H163.112V107.096H158.888V89.112ZM156.04 81.976L159.24 79.768C159.923 80.1947 160.648 80.696 161.416 81.272C162.205 81.848 162.952 82.424 163.656 83C164.381 83.576 164.968 84.12 165.416 84.632L161.992 87.096C161.608 86.6053 161.075 86.0613 160.392 85.464C159.731 84.8453 159.016 84.2373 158.248 83.64C157.48 83.0213 156.744 82.4667 156.04 81.976ZM184.52 87.576V89.08H189.096V87.576H184.52ZM184.52 83.64V85.144H189.096V83.64H184.52ZM181.128 81.048H192.648V91.672H181.128V81.048ZM179.656 93.528H194.088V96.312H179.656V93.528ZM193.96 81.144H208.712V83.864H193.96V81.144ZM185.608 94.392H188.84V107.256L185.608 105.432V94.392ZM187.304 98.904H193.48V101.688H187.304V98.904ZM200.136 81.816L203.624 82.552C203.219 83.448 202.813 84.3547 202.408 85.272C202.024 86.168 201.672 86.9253 201.352 87.544L198.6 86.808C198.877 86.104 199.165 85.2827 199.464 84.344C199.763 83.4053 199.987 82.5627 200.136 81.816ZM198.344 92.088V93.592H204.2V92.088H198.344ZM198.344 96.056V97.56H204.2V96.056H198.344ZM198.344 88.152V89.656H204.2V88.152H198.344ZM194.952 85.56H207.752V100.184H194.952V85.56ZM197.544 100.408L200.68 101.4C200.019 102.296 199.165 103.171 198.12 104.024C197.096 104.856 196.083 105.549 195.08 106.104C194.888 105.912 194.643 105.677 194.344 105.4C194.045 105.101 193.736 104.813 193.416 104.536C193.117 104.259 192.84 104.035 192.584 103.864C193.544 103.459 194.472 102.947 195.368 102.328C196.264 101.709 196.989 101.069 197.544 100.408ZM181.096 97.592H184.2C184.136 99.2133 184.019 100.803 183.848 102.36C183.677 103.896 183.379 105.325 182.952 106.648C182.547 107.949 181.939 109.091 181.128 110.072C180.893 109.667 180.552 109.197 180.104 108.664C179.677 108.131 179.272 107.725 178.888 107.448C179.485 106.701 179.933 105.805 180.232 104.76C180.552 103.715 180.765 102.584 180.872 101.368C181 100.131 181.075 98.872 181.096 97.592ZM183.656 100.248C184.125 101.592 184.723 102.659 185.448 103.448C186.173 104.237 187.037 104.835 188.04 105.24C189.064 105.645 190.237 105.912 191.56 106.04C192.883 106.147 194.355 106.2 195.976 106.2C196.424 106.2 197.085 106.2 197.96 106.2C198.835 106.2 199.827 106.2 200.936 106.2C202.045 106.2 203.165 106.2 204.296 106.2C205.427 106.179 206.461 106.157 207.4 106.136C208.339 106.115 209.075 106.104 209.608 106.104C209.352 106.445 209.096 106.936 208.84 107.576C208.605 108.216 208.445 108.771 208.36 109.24H205.896H195.976C194.013 109.24 192.253 109.144 190.696 108.952C189.139 108.76 187.763 108.376 186.568 107.8C185.395 107.245 184.381 106.413 183.528 105.304C182.675 104.195 181.96 102.744 181.384 100.952L183.656 100.248ZM202.056 101.592L204.712 100.216C205.288 100.579 205.875 101.005 206.472 101.496C207.069 101.965 207.624 102.445 208.136 102.936C208.669 103.405 209.096 103.843 209.416 104.248L206.664 105.88C206.323 105.453 205.896 104.984 205.384 104.472C204.872 103.96 204.317 103.448 203.72 102.936C203.144 102.424 202.589 101.976 202.056 101.592ZM231.4 101.816V103.288H234.024V101.816H231.4ZM228.968 99.864H236.52V105.208H228.968V99.864ZM224.328 96.408H241.384V109.816H238.088V98.808H227.496V109.848H224.328V96.408ZM223.624 82.424H241.544V85.304H223.624V82.424ZM226.28 106.232H239.272V108.728H226.28V106.232ZM223.016 92.088H242.536V95.032H223.016V92.088ZM212.552 95.672H220.872V98.968H212.552V95.672ZM218.952 79.832H222.344V109.88H218.952V79.832ZM230.728 79.8H234.28V93.656H230.728V79.8ZM225.896 89.144L227.72 87.576C228.253 87.9387 228.797 88.3653 229.352 88.856C229.907 89.3467 230.333 89.784 230.632 90.168L228.744 91.928C228.445 91.5227 228.019 91.0533 227.464 90.52C226.931 89.9867 226.408 89.528 225.896 89.144ZM213.96 97.048H217.192V99C217.192 99.64 217.16 100.408 217.096 101.304C217.053 102.2 216.957 103.149 216.808 104.152C216.68 105.155 216.488 106.147 216.232 107.128C215.976 108.109 215.635 109.005 215.208 109.816C214.995 109.667 214.707 109.507 214.344 109.336C214.003 109.165 213.64 108.995 213.256 108.824C212.893 108.653 212.563 108.515 212.264 108.408C212.755 107.448 213.117 106.381 213.352 105.208C213.587 104.013 213.747 102.861 213.832 101.752C213.917 100.621 213.96 99.672 213.96 98.904V97.048ZM226.12 85.4L228.936 85.976C228.573 87.2133 228.051 88.3653 227.368 89.432C226.707 90.4987 225.971 91.3947 225.16 92.12C224.904 91.8853 224.531 91.608 224.04 91.288C223.549 90.9467 223.123 90.6907 222.76 90.52C223.571 89.88 224.253 89.1227 224.808 88.248C225.384 87.352 225.821 86.4027 226.12 85.4ZM237.32 88.984L239.144 87.416C239.72 87.8 240.317 88.2693 240.936 88.824C241.555 89.3573 242.035 89.8373 242.376 90.264L240.456 91.992C240.136 91.544 239.667 91.0427 239.048 90.488C238.451 89.912 237.875 89.4107 237.32 88.984ZM237.288 85.4L240.136 85.912C239.816 87.1707 239.325 88.3333 238.664 89.4C238.024 90.4667 237.277 91.352 236.424 92.056C236.168 91.8213 235.795 91.5333 235.304 91.192C234.813 90.8507 234.387 90.5947 234.024 90.424C234.856 89.8267 235.549 89.0907 236.104 88.216C236.659 87.3413 237.053 86.4027 237.288 85.4ZM213.736 81.496H216.968V88.792H221.224V92.216H213.736V81.496ZM245.896 96.056C246.941 95.8427 248.115 95.5867 249.416 95.288C250.739 94.968 252.125 94.6267 253.576 94.264C255.048 93.9013 256.499 93.5493 257.928 93.208L258.408 96.856C256.445 97.3893 254.451 97.9227 252.424 98.456C250.419 98.9893 248.595 99.4693 246.952 99.896L245.896 96.056ZM246.248 85.912H257.896V89.528H246.248V85.912ZM250.376 79.8H254.28V105.432C254.28 106.371 254.173 107.107 253.96 107.64C253.747 108.173 253.363 108.589 252.808 108.888C252.253 109.187 251.581 109.379 250.792 109.464C250.003 109.549 249.021 109.592 247.848 109.592C247.784 109.08 247.645 108.472 247.432 107.768C247.219 107.085 246.984 106.488 246.728 105.976C247.347 105.997 247.955 106.019 248.552 106.04C249.149 106.04 249.555 106.04 249.768 106.04C250.173 106.04 250.376 105.837 250.376 105.432V79.8ZM258.408 82.232H275.848V86.072H258.408V82.232ZM266.568 83.64H270.696V104.856C270.696 105.965 270.547 106.829 270.248 107.448C269.971 108.088 269.469 108.579 268.744 108.92C268.019 109.261 267.112 109.475 266.024 109.56C264.936 109.645 263.645 109.688 262.152 109.688C262.088 109.283 261.971 108.824 261.8 108.312C261.629 107.8 261.437 107.288 261.224 106.776C261.032 106.264 260.829 105.837 260.616 105.496C261.277 105.517 261.949 105.539 262.632 105.56C263.336 105.581 263.965 105.592 264.52 105.592C265.075 105.592 265.459 105.592 265.672 105.592C265.992 105.592 266.216 105.539 266.344 105.432C266.493 105.304 266.568 105.091 266.568 104.792V83.64ZM279.592 91.128H308.744V94.936H279.592V91.128ZM293.864 83.736H305.256V87.416H293.864V83.736ZM291.368 79.8H295.464V92.952H291.368V79.8ZM291.368 93.56H295.464V109.848H291.368V93.56ZM294.28 99.672L296.232 96.6C297.043 96.8347 297.928 97.112 298.888 97.432C299.848 97.7307 300.819 98.0613 301.8 98.424C302.781 98.7653 303.709 99.1067 304.584 99.448C305.459 99.7893 306.195 100.109 306.792 100.408L304.744 103.896C304.168 103.576 303.453 103.235 302.6 102.872C301.768 102.509 300.872 102.136 299.912 101.752C298.952 101.368 297.981 100.995 297 100.632C296.04 100.269 295.133 99.9493 294.28 99.672ZM329.699 91.928H350.147V95.384H329.699V91.928ZM330.819 85.464H349.059V88.856H330.819V85.464ZM337.571 87.128H341.411V92.248C341.411 93.272 341.283 94.3387 341.027 95.448C340.792 96.5573 340.344 97.6667 339.683 98.776C339.043 99.864 338.115 100.92 336.899 101.944C335.704 102.947 334.158 103.864 332.259 104.696C332.088 104.419 331.854 104.109 331.555 103.768C331.256 103.427 330.947 103.085 330.627 102.744C330.307 102.403 329.998 102.125 329.699 101.912C331.512 101.251 332.942 100.515 333.987 99.704C335.054 98.8933 335.832 98.0507 336.323 97.176C336.835 96.3013 337.166 95.448 337.315 94.616C337.486 93.7627 337.571 92.9627 337.571 92.216V87.128ZM341.987 94.36C342.648 96.1307 343.651 97.6347 344.995 98.872C346.36 100.088 348.11 100.963 350.243 101.496C349.966 101.752 349.667 102.072 349.347 102.456C349.048 102.84 348.76 103.235 348.483 103.64C348.227 104.024 348.003 104.387 347.811 104.728C345.464 103.96 343.566 102.755 342.115 101.112C340.664 99.4693 339.544 97.4533 338.755 95.064L341.987 94.36ZM328.419 92.28V104.088H324.675V95.832H320.963V92.28H328.419ZM328.419 102.424C329.08 103.469 330.008 104.237 331.203 104.728C332.398 105.219 333.827 105.496 335.491 105.56C336.43 105.603 337.539 105.635 338.819 105.656C340.12 105.656 341.486 105.645 342.915 105.624C344.344 105.603 345.742 105.56 347.107 105.496C348.494 105.432 349.72 105.357 350.787 105.272C350.659 105.571 350.51 105.955 350.339 106.424C350.168 106.893 350.008 107.373 349.859 107.864C349.731 108.355 349.635 108.792 349.571 109.176C348.611 109.24 347.512 109.283 346.275 109.304C345.038 109.347 343.768 109.368 342.467 109.368C341.166 109.389 339.907 109.389 338.691 109.368C337.475 109.347 336.387 109.315 335.427 109.272C333.464 109.187 331.79 108.877 330.403 108.344C329.016 107.832 327.79 106.957 326.723 105.72C326.019 106.317 325.294 106.936 324.547 107.576C323.822 108.216 323.022 108.877 322.147 109.56L320.259 105.56C321.006 105.112 321.784 104.621 322.595 104.088C323.406 103.555 324.184 103 324.931 102.424H328.419ZM320.995 82.872L323.843 80.568C324.504 80.9947 325.176 81.496 325.859 82.072C326.542 82.6267 327.182 83.2027 327.779 83.8C328.376 84.376 328.856 84.9093 329.219 85.4L326.179 87.96C325.859 87.448 325.411 86.8933 324.835 86.296C324.28 85.6987 323.662 85.1013 322.979 84.504C322.296 83.8853 321.635 83.3413 320.995 82.872ZM344.195 79.8L348.099 81.016C347.523 81.9333 346.926 82.84 346.307 83.736C345.71 84.6107 345.155 85.3573 344.643 85.976L341.507 84.888C341.827 84.3973 342.158 83.864 342.499 83.288C342.84 82.6907 343.16 82.0933 343.459 81.496C343.758 80.8773 344.003 80.312 344.195 79.8ZM331.651 81.208L334.883 79.864C335.48 80.5893 336.046 81.4107 336.579 82.328C337.112 83.2453 337.486 84.056 337.699 84.76L334.243 86.232C334.072 85.5493 333.731 84.7387 333.219 83.8C332.728 82.84 332.206 81.976 331.651 81.208Z" fill="white"/>
<path d="M51.2934 239.29H59.2854V241.954H51.2934V239.29ZM51.5574 234.898L54.2934 235.282C54.0694 236.93 53.7734 238.538 53.4054 240.106C53.0534 241.674 52.6134 243.138 52.0854 244.498C51.5734 245.858 50.9654 247.05 50.2614 248.074C50.1334 247.898 49.9414 247.674 49.6854 247.402C49.4454 247.13 49.1894 246.866 48.9174 246.61C48.6454 246.338 48.4054 246.122 48.1974 245.962C48.8214 245.098 49.3494 244.082 49.7814 242.914C50.2134 241.746 50.5734 240.482 50.8614 239.122C51.1494 237.746 51.3814 236.338 51.5574 234.898ZM55.4214 240.85L58.1094 241.042C57.8374 243.698 57.3974 246.066 56.7894 248.146C56.1814 250.226 55.3254 252.042 54.2214 253.594C53.1174 255.146 51.6854 256.466 49.9254 257.554C49.8454 257.346 49.7094 257.09 49.5174 256.786C49.3414 256.498 49.1494 256.202 48.9414 255.898C48.7334 255.61 48.5414 255.37 48.3654 255.178C49.9494 254.314 51.2214 253.21 52.1814 251.866C53.1574 250.506 53.8934 248.906 54.3894 247.066C54.8854 245.226 55.2294 243.154 55.4214 240.85ZM52.8054 241.522C53.0934 243.538 53.4934 245.442 54.0054 247.234C54.5334 249.026 55.2294 250.61 56.0934 251.986C56.9734 253.346 58.0774 254.418 59.4054 255.202C59.2134 255.378 58.9894 255.602 58.7334 255.874C58.4934 256.146 58.2614 256.426 58.0374 256.714C57.8294 257.002 57.6614 257.266 57.5334 257.506C56.0774 256.53 54.8774 255.274 53.9334 253.738C53.0054 252.202 52.2614 250.434 51.7014 248.434C51.1414 246.418 50.7014 244.226 50.3814 241.858L52.8054 241.522ZM42.0294 234.898H44.4774V247.738H42.0294V234.898ZM40.6374 237.898V241.378H45.9894V237.898H40.6374ZM38.2614 236.098H48.4854V243.202H38.2614V236.098ZM40.1334 245.698V246.706H46.4694V245.698H40.1334ZM37.7814 243.97H48.9654V248.434H37.7814V243.97ZM36.7974 249.418C37.9334 249.418 39.2214 249.41 40.6614 249.394C42.1174 249.378 43.6454 249.362 45.2454 249.346C46.8614 249.314 48.4774 249.29 50.0934 249.274L49.9974 251.314C48.4294 251.346 46.8454 251.378 45.2454 251.41C43.6614 251.442 42.1494 251.474 40.7094 251.506C39.2854 251.522 38.0134 251.538 36.8934 251.554L36.7974 249.418ZM41.4534 247.93L43.8294 248.458C43.4774 249.098 43.1014 249.77 42.7014 250.474C42.3174 251.178 41.9254 251.85 41.5254 252.49C41.1414 253.13 40.7814 253.706 40.4454 254.218L38.1414 253.642C38.4774 253.146 38.8374 252.57 39.2214 251.914C39.6214 251.258 40.0134 250.586 40.3974 249.898C40.7974 249.194 41.1494 248.538 41.4534 247.93ZM39.9894 253.666L41.3574 251.986C42.2694 252.306 43.1894 252.666 44.1174 253.066C45.0454 253.45 45.9174 253.85 46.7334 254.266C47.5494 254.666 48.2374 255.05 48.7974 255.418L47.0454 257.194C46.5174 256.81 45.8694 256.402 45.1014 255.97C44.3494 255.554 43.5334 255.146 42.6534 254.746C41.7734 254.346 40.8854 253.986 39.9894 253.666ZM45.5334 250.426L47.9574 250.69C47.6214 252.114 47.0614 253.274 46.2774 254.17C45.5094 255.066 44.4774 255.77 43.1814 256.282C41.8854 256.81 40.2774 257.234 38.3574 257.554C38.2934 257.17 38.1574 256.77 37.9494 256.354C37.7574 255.954 37.5654 255.618 37.3734 255.346C38.9894 255.202 40.3414 254.954 41.4294 254.602C42.5334 254.25 43.4134 253.738 44.0694 253.066C44.7414 252.394 45.2294 251.514 45.5334 250.426ZM36.7254 238.618H39.1494V238.762H47.3334V238.618H50.0694V240.658H47.3334V240.514H39.1494V240.658H36.7254V238.618ZM67.8774 239.314V240.13H77.8614V239.314H67.8774ZM67.8774 237.106V237.922H77.8614V237.106H67.8774ZM65.1174 235.642H80.7654V241.594H65.1174V235.642ZM67.3734 248.89V249.73H78.5334V248.89H67.3734ZM67.3734 246.61V247.45H78.5334V246.61H67.3734ZM64.6854 245.098H81.3654V251.266H64.6854V245.098ZM71.5494 245.602H74.3334V255.898H71.5494V245.602ZM62.0694 242.314H83.9334V244.378H62.0694V242.314ZM64.1814 252.058H81.8214V253.882H64.1814V252.058ZM62.0214 254.77H83.9814V256.858H62.0214V254.77ZM87.2454 237.802H108.653V240.514H87.2454V237.802ZM93.7254 246.466H104.141V248.866H93.7254V246.466ZM91.5894 242.41H103.709V244.93H94.4214V257.434H91.5894V242.41ZM103.133 242.41H105.965V254.338C105.965 255.042 105.877 255.602 105.701 256.018C105.541 256.434 105.213 256.754 104.717 256.978C104.237 257.202 103.645 257.338 102.941 257.386C102.237 257.434 101.397 257.458 100.421 257.458C100.373 257.058 100.261 256.586 100.085 256.042C99.9254 255.514 99.7494 255.058 99.5574 254.674C99.9734 254.69 100.389 254.706 100.805 254.722C101.221 254.738 101.589 254.746 101.909 254.746C102.245 254.746 102.477 254.746 102.605 254.746C102.813 254.73 102.949 254.69 103.013 254.626C103.093 254.562 103.133 254.45 103.133 254.29V242.41ZM94.6854 234.898L97.6614 235.57C97.1014 237.362 96.3974 239.146 95.5494 240.922C94.7174 242.682 93.7094 244.322 92.5254 245.842C91.3574 247.362 89.9894 248.666 88.4214 249.754C88.2774 249.546 88.0854 249.306 87.8454 249.034C87.6214 248.746 87.3894 248.474 87.1494 248.218C86.9254 247.946 86.7174 247.722 86.5254 247.546C87.5814 246.842 88.5414 246.01 89.4054 245.05C90.2854 244.09 91.0614 243.05 91.7334 241.93C92.4214 240.794 93.0054 239.634 93.4854 238.45C93.9814 237.25 94.3814 236.066 94.6854 234.898ZM93.7254 250.426H104.141V252.826H93.7254V250.426ZM123.029 240.37H131.285V242.722H123.029V240.37ZM118.901 254.29C119.621 254.178 120.453 254.042 121.397 253.882C122.357 253.722 123.373 253.554 124.445 253.378C125.517 253.186 126.581 252.994 127.637 252.802L127.877 255.298C126.485 255.618 125.085 255.93 123.677 256.234C122.269 256.554 120.989 256.834 119.837 257.074L118.901 254.29ZM121.397 235.978H124.181V254.938H121.397V235.978ZM123.029 235.978H132.605V247.21H123.029V244.738H129.749V238.45H123.029V235.978ZM128.021 245.554C128.325 246.994 128.741 248.33 129.269 249.562C129.797 250.778 130.469 251.85 131.285 252.778C132.101 253.706 133.101 254.426 134.285 254.938C134.077 255.13 133.853 255.362 133.613 255.634C133.373 255.922 133.141 256.218 132.917 256.522C132.709 256.842 132.541 257.13 132.413 257.386C131.117 256.698 130.029 255.802 129.149 254.698C128.285 253.578 127.573 252.282 127.013 250.81C126.453 249.338 125.997 247.722 125.645 245.962L128.021 245.554ZM131.501 247.378L133.757 248.938C133.101 249.578 132.405 250.21 131.669 250.834C130.949 251.442 130.285 251.962 129.677 252.394L127.901 251.026C128.285 250.706 128.693 250.338 129.125 249.922C129.573 249.506 130.005 249.074 130.421 248.626C130.837 248.178 131.197 247.762 131.501 247.378ZM112.661 235.93H118.637V238.522H115.349V257.458H112.661V235.93ZM117.845 235.93H118.349L118.757 235.834L120.725 236.962C120.501 237.666 120.261 238.41 120.005 239.194C119.749 239.978 119.493 240.754 119.237 241.522C118.981 242.29 118.725 242.986 118.469 243.61C119.253 244.538 119.757 245.418 119.981 246.25C120.221 247.066 120.341 247.826 120.341 248.53C120.341 249.33 120.253 249.986 120.077 250.498C119.901 251.01 119.613 251.41 119.213 251.698C119.021 251.842 118.797 251.954 118.541 252.034C118.301 252.114 118.053 252.178 117.797 252.226C117.573 252.258 117.309 252.274 117.005 252.274C116.717 252.274 116.421 252.274 116.117 252.274C116.101 251.906 116.037 251.474 115.925 250.978C115.829 250.482 115.685 250.058 115.493 249.706C115.717 249.722 115.917 249.73 116.093 249.73C116.285 249.73 116.453 249.73 116.597 249.73C116.725 249.73 116.845 249.714 116.957 249.682C117.085 249.634 117.205 249.578 117.317 249.514C117.461 249.402 117.565 249.234 117.629 249.01C117.709 248.77 117.741 248.482 117.725 248.146C117.725 247.586 117.605 246.946 117.365 246.226C117.141 245.49 116.669 244.722 115.949 243.922C116.125 243.378 116.301 242.778 116.477 242.122C116.669 241.466 116.845 240.81 117.005 240.154C117.181 239.482 117.341 238.858 117.485 238.282C117.645 237.69 117.765 237.202 117.845 236.818V235.93ZM140.501 258.61L139.733 256.666C140.741 256.346 141.509 255.906 142.037 255.346C142.581 254.802 142.853 254.178 142.853 253.474L142.661 251.122L144.005 253.258C143.797 253.434 143.573 253.57 143.333 253.666C143.093 253.762 142.837 253.81 142.565 253.81C141.973 253.81 141.445 253.626 140.981 253.258C140.517 252.874 140.285 252.338 140.285 251.65C140.285 250.978 140.517 250.45 140.981 250.066C141.445 249.682 141.997 249.49 142.637 249.49C143.485 249.49 144.125 249.786 144.557 250.378C145.005 250.97 145.229 251.77 145.229 252.778C145.229 254.138 144.813 255.338 143.981 256.378C143.149 257.418 141.989 258.162 140.501 258.61ZM168.413 243.994H183.749V246.586H168.413V243.994ZM169.253 239.146H182.933V241.69H169.253V239.146ZM174.317 240.394H177.197V244.234C177.197 245.002 177.101 245.802 176.909 246.634C176.733 247.466 176.397 248.298 175.901 249.13C175.421 249.946 174.725 250.738 173.813 251.506C172.917 252.258 171.757 252.946 170.333 253.57C170.205 253.362 170.029 253.13 169.805 252.874C169.581 252.618 169.349 252.362 169.109 252.106C168.869 251.85 168.637 251.642 168.413 251.482C169.773 250.986 170.845 250.434 171.629 249.826C172.429 249.218 173.013 248.586 173.381 247.93C173.765 247.274 174.013 246.634 174.125 246.01C174.253 245.37 174.317 244.77 174.317 244.21V240.394ZM177.629 245.818C178.125 247.146 178.877 248.274 179.885 249.202C180.909 250.114 182.221 250.77 183.821 251.17C183.613 251.362 183.389 251.602 183.149 251.89C182.925 252.178 182.709 252.474 182.501 252.778C182.309 253.066 182.141 253.338 181.997 253.594C180.237 253.018 178.813 252.114 177.725 250.882C176.637 249.65 175.797 248.138 175.205 246.346L177.629 245.818ZM167.453 244.258V253.114H164.645V246.922H161.861V244.258H167.453ZM167.453 251.866C167.949 252.65 168.645 253.226 169.541 253.594C170.437 253.962 171.509 254.17 172.757 254.218C173.461 254.25 174.293 254.274 175.253 254.29C176.229 254.29 177.253 254.282 178.325 254.266C179.397 254.25 180.445 254.218 181.469 254.17C182.509 254.122 183.429 254.066 184.229 254.002C184.133 254.226 184.021 254.514 183.893 254.866C183.765 255.218 183.645 255.578 183.533 255.946C183.437 256.314 183.365 256.642 183.317 256.93C182.597 256.978 181.773 257.01 180.845 257.026C179.917 257.058 178.965 257.074 177.989 257.074C177.013 257.09 176.069 257.09 175.157 257.074C174.245 257.058 173.429 257.034 172.709 257.002C171.237 256.938 169.981 256.706 168.941 256.306C167.901 255.922 166.981 255.266 166.181 254.338C165.653 254.786 165.109 255.25 164.549 255.73C164.005 256.21 163.405 256.706 162.749 257.218L161.333 254.218C161.893 253.882 162.477 253.514 163.085 253.114C163.693 252.714 164.277 252.298 164.837 251.866H167.453ZM161.885 237.202L164.021 235.474C164.517 235.794 165.021 236.17 165.533 236.602C166.045 237.018 166.525 237.45 166.973 237.898C167.421 238.33 167.781 238.73 168.053 239.098L165.773 241.018C165.533 240.634 165.197 240.218 164.765 239.77C164.349 239.322 163.885 238.874 163.373 238.426C162.861 237.962 162.365 237.554 161.885 237.202ZM179.285 234.898L182.213 235.81C181.781 236.498 181.333 237.178 180.869 237.85C180.421 238.506 180.005 239.066 179.621 239.53L177.269 238.714C177.509 238.346 177.757 237.946 178.013 237.514C178.269 237.066 178.509 236.618 178.733 236.17C178.957 235.706 179.141 235.282 179.285 234.898ZM169.877 235.954L172.301 234.946C172.749 235.49 173.173 236.106 173.573 236.794C173.973 237.482 174.253 238.09 174.413 238.618L171.821 239.722C171.693 239.21 171.437 238.602 171.053 237.898C170.685 237.178 170.293 236.53 169.877 235.954ZM191.477 241.714H203.933V244.33H191.477V241.714ZM187.013 246.058H208.517V248.746H187.013V246.058ZM192.821 248.218H195.941C195.829 249.322 195.645 250.354 195.389 251.314C195.133 252.258 194.725 253.122 194.165 253.906C193.621 254.674 192.853 255.362 191.861 255.97C190.869 256.578 189.589 257.09 188.021 257.506C187.925 257.25 187.781 256.962 187.589 256.642C187.413 256.322 187.213 256.002 186.989 255.682C186.765 255.378 186.549 255.13 186.341 254.938C187.717 254.634 188.813 254.266 189.629 253.834C190.461 253.402 191.085 252.914 191.501 252.37C191.933 251.81 192.237 251.186 192.413 250.498C192.605 249.794 192.741 249.034 192.821 248.218ZM199.013 247.738H201.917V253.594C201.917 253.978 201.973 254.226 202.085 254.338C202.213 254.434 202.493 254.482 202.925 254.482C203.021 254.482 203.173 254.482 203.381 254.482C203.589 254.482 203.821 254.482 204.077 254.482C204.333 254.482 204.573 254.482 204.797 254.482C205.021 254.482 205.197 254.482 205.325 254.482C205.581 254.482 205.773 254.418 205.901 254.29C206.045 254.162 206.141 253.89 206.189 253.474C206.253 253.042 206.301 252.41 206.333 251.578C206.541 251.722 206.797 251.866 207.101 252.01C207.405 252.154 207.717 252.282 208.037 252.394C208.373 252.506 208.669 252.602 208.925 252.682C208.829 253.834 208.661 254.73 208.421 255.37C208.181 256.026 207.837 256.474 207.389 256.714C206.957 256.97 206.357 257.098 205.589 257.098C205.445 257.098 205.229 257.098 204.941 257.098C204.669 257.098 204.365 257.098 204.029 257.098C203.709 257.098 203.405 257.098 203.117 257.098C202.845 257.098 202.637 257.098 202.493 257.098C201.565 257.098 200.845 256.994 200.333 256.786C199.837 256.578 199.493 256.218 199.301 255.706C199.109 255.194 199.013 254.506 199.013 253.642V247.738ZM196.157 234.922H199.229V239.29H196.157V234.922ZM187.445 237.226H208.061V242.938H204.989V239.962H190.373V242.938H187.445V237.226ZM215.453 247.57H231.725V250.042H215.453V247.57ZM212.189 238.81H228.101V241.402H212.189V238.81ZM219.293 243.226H230.165V245.698H219.293V243.226ZM230.621 247.57H233.477C233.477 247.57 233.469 247.642 233.453 247.786C233.453 247.914 233.445 248.066 233.429 248.242C233.429 248.418 233.421 248.562 233.405 248.674C233.277 250.306 233.133 251.65 232.973 252.706C232.829 253.746 232.661 254.57 232.469 255.178C232.277 255.77 232.053 256.202 231.797 256.474C231.525 256.778 231.229 256.994 230.909 257.122C230.605 257.25 230.253 257.338 229.853 257.386C229.533 257.434 229.093 257.458 228.533 257.458C227.989 257.474 227.413 257.466 226.805 257.434C226.789 257.05 226.701 256.61 226.541 256.114C226.397 255.618 226.213 255.186 225.989 254.818C226.517 254.866 227.013 254.898 227.477 254.914C227.941 254.93 228.293 254.93 228.533 254.914C228.725 254.914 228.885 254.898 229.013 254.866C229.157 254.834 229.293 254.762 229.421 254.65C229.581 254.49 229.725 254.17 229.853 253.69C229.997 253.194 230.133 252.482 230.261 251.554C230.389 250.626 230.509 249.434 230.621 247.978V247.57ZM225.509 250.882L227.477 250.21C227.813 250.706 228.125 251.25 228.413 251.842C228.701 252.434 228.909 252.946 229.037 253.378L226.925 254.17C226.829 253.738 226.645 253.21 226.373 252.586C226.101 251.962 225.813 251.394 225.509 250.882ZM214.877 235.906L217.469 234.898C217.901 235.362 218.341 235.89 218.789 236.482C219.237 237.074 219.581 237.594 219.821 238.042L217.061 239.17C216.885 238.738 216.581 238.218 216.149 237.61C215.733 236.986 215.309 236.418 214.877 235.906ZM218.261 251.53L220.589 251.266C220.813 252.034 220.981 252.882 221.093 253.81C221.205 254.722 221.261 255.514 221.261 256.186L218.789 256.498C218.821 256.066 218.813 255.562 218.765 254.986C218.733 254.41 218.669 253.826 218.573 253.234C218.493 252.626 218.389 252.058 218.261 251.53ZM221.885 251.338L224.093 250.834C224.381 251.522 224.645 252.258 224.885 253.042C225.125 253.826 225.285 254.514 225.365 255.106L223.037 255.682C222.973 255.09 222.829 254.386 222.605 253.57C222.381 252.754 222.141 252.01 221.885 251.338ZM215.045 250.738L217.469 251.53C217.309 252.234 217.109 252.938 216.869 253.642C216.645 254.33 216.365 254.994 216.029 255.634C215.693 256.274 215.293 256.85 214.829 257.362L212.597 255.778C213.013 255.362 213.373 254.882 213.677 254.338C213.997 253.794 214.269 253.218 214.493 252.61C214.733 251.986 214.917 251.362 215.045 250.738ZM222.293 234.874L225.245 235.594C224.701 237.306 224.053 238.986 223.301 240.634C222.565 242.266 221.685 243.826 220.661 245.314C219.653 246.786 218.485 248.146 217.157 249.394C215.829 250.626 214.317 251.69 212.621 252.586C212.509 252.362 212.357 252.098 212.165 251.794C211.989 251.474 211.805 251.162 211.613 250.858C211.421 250.554 211.237 250.298 211.061 250.09C212.597 249.322 213.965 248.386 215.165 247.282C216.381 246.178 217.445 244.954 218.357 243.61C219.285 242.266 220.069 240.858 220.709 239.386C221.365 237.898 221.893 236.394 222.293 234.874ZM227.525 238.81H230.189C230.013 239.706 229.813 240.642 229.589 241.618C229.381 242.594 229.181 243.434 228.989 244.138L226.469 243.73C226.661 243.074 226.853 242.298 227.045 241.402C227.237 240.49 227.397 239.626 227.525 238.81ZM229.085 243.226H231.749C231.589 244.106 231.405 245.026 231.197 245.986C230.989 246.946 230.781 247.77 230.573 248.458L228.053 248.122C228.245 247.45 228.437 246.666 228.629 245.77C228.821 244.874 228.973 244.026 229.085 243.226ZM248.549 242.434H257.381V245.338H248.549V242.434ZM236.669 253.354H258.701V256.234H236.669V253.354ZM247.133 234.922H250.205V254.89H247.133V234.922ZM239.741 239.866H242.741V254.746H239.741V239.866Z" fill="white"/>
<path d="M37.944 146.008H88.404V152.794H37.944V146.008ZM59.114 138.758H66.48V193.22H59.114V138.758ZM59.926 164.916L65.726 167.178C64.2953 169.73 62.652 172.185 60.796 174.544C58.9787 176.903 56.9873 179.107 54.822 181.156C52.6567 183.205 50.356 185.061 47.92 186.724C45.5227 188.387 43.0287 189.837 40.438 191.074C40.09 190.455 39.626 189.759 39.046 188.986C38.466 188.251 37.8667 187.536 37.248 186.84C36.6293 186.105 36.0493 185.506 35.508 185.042C37.9827 184.075 40.4187 182.877 42.816 181.446C45.252 180.015 47.5333 178.43 49.66 176.69C51.7867 174.911 53.72 173.036 55.46 171.064C57.2387 169.053 58.7273 167.004 59.926 164.916ZM66.19 165.38C67.814 168.048 69.8827 170.619 72.396 173.094C74.948 175.569 77.7707 177.811 80.864 179.822C83.9573 181.794 87.1667 183.399 90.492 184.636C89.912 185.1 89.2933 185.719 88.636 186.492C88.0173 187.227 87.3987 187.981 86.78 188.754C86.2 189.566 85.7167 190.32 85.33 191.016C82.0047 189.469 78.7953 187.517 75.702 185.158C72.6087 182.761 69.7667 180.073 67.176 177.096C64.5853 174.119 62.3427 170.967 60.448 167.642L66.19 165.38ZM44.962 162.828L49.37 158.478C50.2593 159.174 51.226 159.986 52.27 160.914C53.314 161.803 54.3193 162.673 55.286 163.524C56.2527 164.375 57.0453 165.129 57.664 165.786L53.024 170.716C52.4827 170.02 51.7287 169.208 50.762 168.28C49.834 167.352 48.8673 166.424 47.862 165.496C46.8567 164.529 45.89 163.64 44.962 162.828ZM47.34 153.142L54.068 154.418C53.024 158.633 51.4967 162.499 49.486 166.018C47.4753 169.498 45.1167 172.359 42.41 174.602C42.0233 174.177 41.5013 173.674 40.844 173.094C40.1867 172.514 39.51 171.953 38.814 171.412C38.1567 170.832 37.5573 170.387 37.016 170.078C39.6067 168.183 41.772 165.767 43.512 162.828C45.252 159.889 46.528 156.661 47.34 153.142ZM72.744 163.118L77.268 158.942C78.4667 159.831 79.8007 160.856 81.27 162.016C82.778 163.137 84.228 164.259 85.62 165.38C87.012 166.463 88.1333 167.429 88.984 168.28L84.17 173.036C83.358 172.185 82.2947 171.18 80.98 170.02C79.6653 168.86 78.2733 167.681 76.804 166.482C75.3347 165.245 73.9813 164.123 72.744 163.118ZM74.658 153.142L81.444 154.36C80.632 157.801 79.472 161.011 77.964 163.988C76.456 166.927 74.716 169.363 72.744 171.296C72.3187 170.948 71.7387 170.542 71.004 170.078C70.308 169.614 69.5733 169.169 68.8 168.744C68.0267 168.28 67.3693 167.913 66.828 167.642C68.8 165.979 70.4433 163.872 71.758 161.32C73.1113 158.768 74.078 156.042 74.658 153.142ZM119.782 138.642H126.8V146.472H119.782V138.642ZM98.264 142.006H148.318V150.996H141.822V147.4H104.528V150.996H98.264V142.006ZM101.744 149.372H121.116V153.316H101.744V149.372ZM102.498 155.056H120.652V158.536H102.498V155.056ZM122.102 154.882H147.274V158.362H122.102V154.882ZM99.308 160.798C102.092 160.682 105.456 160.527 109.4 160.334C113.383 160.141 117.443 159.967 121.58 159.812L121.522 164.104C117.617 164.375 113.731 164.626 109.864 164.858C106.036 165.051 102.672 165.225 99.772 165.38L99.308 160.798ZM108.878 150.996H114.62V161.842L108.878 162.306V150.996ZM126.336 147.284L131.034 148.038C130.338 149.546 129.545 150.957 128.656 152.272C127.767 153.587 126.645 154.843 125.292 156.042C124.828 155.539 124.209 155.037 123.436 154.534C122.701 153.993 122.025 153.587 121.406 153.316C122.566 152.427 123.552 151.441 124.364 150.358C125.176 149.275 125.833 148.251 126.336 147.284ZM128.018 149.778H143.678V153.258H125.988L128.018 149.778ZM131.556 151.228H137.298V162.596H131.556V151.228ZM123.726 158.826H128.54V161.204H140.488V158.826H145.592V164.684H123.726V158.826ZM111.488 174.95V176.69H135.964V174.95H111.488ZM111.488 180.112V181.91H135.964V180.112H111.488ZM111.488 169.846V171.528H135.964V169.846H111.488ZM104.76 166.192H143.04V185.564H104.76V166.192ZM125.814 187.652L130.338 183.882C132.503 184.423 134.727 185.023 137.008 185.68C139.328 186.299 141.513 186.937 143.562 187.594C145.65 188.213 147.429 188.773 148.898 189.276L142.866 193.278C141.59 192.737 140.043 192.137 138.226 191.48C136.409 190.861 134.437 190.223 132.31 189.566C130.183 188.909 128.018 188.271 125.814 187.652ZM115.374 183.824L120.826 187.594C119.202 188.406 117.288 189.179 115.084 189.914C112.88 190.649 110.579 191.287 108.182 191.828C105.823 192.369 103.542 192.814 101.338 193.162C100.835 192.505 100.178 191.731 99.366 190.842C98.554 189.953 97.8193 189.199 97.162 188.58C99.3273 188.271 101.57 187.865 103.89 187.362C106.249 186.859 108.433 186.299 110.444 185.68C112.493 185.061 114.137 184.443 115.374 183.824ZM178.768 143.224H209.566V148.096H178.768V143.224ZM177.84 157.202H210.668V162.074H177.84V157.202ZM177.55 178.894H210.726V183.824H177.55V178.894ZM180.16 150.242H208.696V154.882H180.16V150.242ZM185.09 138.758H191.122V159.348H185.09V138.758ZM197.096 138.758H203.244V159.348H197.096V138.758ZM191.122 159.464H197.154V180.286H191.122V159.464ZM201.678 164.278H208V186.898C208 188.329 207.826 189.45 207.478 190.262C207.169 191.113 206.531 191.77 205.564 192.234C204.559 192.698 203.36 192.969 201.968 193.046C200.615 193.162 198.971 193.22 197.038 193.22C196.922 192.369 196.69 191.422 196.342 190.378C195.994 189.334 195.627 188.425 195.24 187.652C196.361 187.691 197.463 187.71 198.546 187.71C199.667 187.71 200.402 187.71 200.75 187.71C201.098 187.71 201.33 187.652 201.446 187.536C201.601 187.381 201.678 187.149 201.678 186.84V164.278ZM180.624 164.278H204.404V169.15H186.83V193.278H180.624V164.278ZM183.698 171.76H204.346V176.11H183.698V171.76ZM161.832 178.894L167.864 180.286C167.129 182.722 166.143 185.119 164.906 187.478C163.669 189.798 162.354 191.751 160.962 193.336C160.614 192.988 160.111 192.601 159.454 192.176C158.797 191.751 158.139 191.325 157.482 190.9C156.825 190.475 156.264 190.146 155.8 189.914C157.115 188.522 158.294 186.84 159.338 184.868C160.421 182.896 161.252 180.905 161.832 178.894ZM168.618 180.982L173.78 178.778C174.747 180.247 175.694 181.871 176.622 183.65C177.589 185.39 178.323 186.917 178.826 188.232L173.432 190.784C173.161 189.895 172.755 188.889 172.214 187.768C171.711 186.608 171.151 185.448 170.532 184.288C169.913 183.089 169.275 181.987 168.618 180.982ZM164.964 156.912V162.364H170.706V156.912H164.964ZM164.964 167.468V172.92H170.706V167.468H164.964ZM164.964 146.414V151.75H170.706V146.414H164.964ZM159.048 140.904H176.796V178.488H159.048V140.904ZM244.888 138.7L251.21 139.918C250.475 143.127 249.586 146.259 248.542 149.314C247.498 152.33 246.299 155.153 244.946 157.782C243.593 160.373 242.123 162.654 240.538 164.626C240.19 164.239 239.687 163.814 239.03 163.35C238.373 162.847 237.696 162.364 237 161.9C236.343 161.397 235.782 160.991 235.318 160.682C236.865 158.981 238.237 156.97 239.436 154.65C240.673 152.33 241.737 149.817 242.626 147.11C243.554 144.365 244.308 141.561 244.888 138.7ZM264.376 147.748H270.988C270.988 147.748 270.969 147.961 270.93 148.386C270.93 148.773 270.93 149.217 270.93 149.72C270.93 150.223 270.911 150.609 270.872 150.88C270.601 157.415 270.311 162.963 270.002 167.526C269.731 172.089 269.422 175.859 269.074 178.836C268.765 181.775 268.397 184.095 267.972 185.796C267.547 187.459 267.063 188.657 266.522 189.392C265.826 190.359 265.13 191.055 264.434 191.48C263.738 191.905 262.907 192.215 261.94 192.408C261.128 192.563 260.142 192.64 258.982 192.64C257.822 192.679 256.604 192.659 255.328 192.582C255.251 191.577 255.038 190.436 254.69 189.16C254.381 187.884 253.955 186.763 253.414 185.796C254.497 185.912 255.502 185.989 256.43 186.028C257.358 186.028 258.093 186.028 258.634 186.028C259.098 186.028 259.465 185.951 259.736 185.796C260.045 185.641 260.374 185.351 260.722 184.926C261.109 184.462 261.476 183.495 261.824 182.026C262.172 180.518 262.501 178.372 262.81 175.588C263.119 172.804 263.39 169.266 263.622 164.974C263.893 160.643 264.144 155.404 264.376 149.256V147.748ZM246.628 147.748H267.334V154.186H243.496L246.628 147.748ZM250.746 149.836L255.792 152.33C255.019 155.655 253.955 159.058 252.602 162.538C251.249 165.979 249.663 169.208 247.846 172.224C246.067 175.24 244.134 177.734 242.046 179.706C241.389 179.087 240.557 178.411 239.552 177.676C238.547 176.903 237.58 176.284 236.652 175.82C238.353 174.505 239.939 172.881 241.408 170.948C242.877 168.976 244.211 166.83 245.41 164.51C246.609 162.151 247.653 159.735 248.542 157.26C249.431 154.747 250.166 152.272 250.746 149.836ZM258.808 150.532L264.202 153.026C263.467 156.777 262.539 160.527 261.418 164.278C260.335 168.029 259.021 171.625 257.474 175.066C255.966 178.507 254.226 181.678 252.254 184.578C250.282 187.439 248.078 189.856 245.642 191.828C244.985 191.171 244.115 190.455 243.032 189.682C241.988 188.909 240.983 188.271 240.016 187.768C242.529 185.951 244.791 183.708 246.802 181.04C248.851 178.333 250.649 175.337 252.196 172.05C253.743 168.725 255.057 165.245 256.14 161.61C257.223 157.937 258.112 154.244 258.808 150.532ZM216.526 170.368C218.421 169.904 220.567 169.363 222.964 168.744C225.4 168.125 227.952 167.449 230.62 166.714C233.327 165.941 236.014 165.187 238.682 164.452L239.552 170.542C235.917 171.702 232.205 172.862 228.416 174.022C224.665 175.143 221.263 176.149 218.208 177.038L216.526 170.368ZM226.908 138.758H233.288V193.22H226.908V138.758ZM219.252 142.064L225.11 142.992C224.839 145.544 224.511 148.115 224.124 150.706C223.737 153.258 223.273 155.675 222.732 157.956C222.191 160.237 221.572 162.248 220.876 163.988C220.528 163.717 220.045 163.389 219.426 163.002C218.807 162.577 218.189 162.171 217.57 161.784C216.951 161.359 216.41 161.049 215.946 160.856C216.565 159.271 217.087 157.473 217.512 155.462C217.976 153.413 218.343 151.247 218.614 148.966C218.923 146.646 219.136 144.345 219.252 142.064ZM220.876 149.952H238.16V156.564H219.542L220.876 149.952ZM300.626 162.422H307.644V170.774H300.626V162.422ZM300.336 169.962L305.962 172.398C304.531 173.867 302.869 175.221 300.974 176.458C299.079 177.695 297.03 178.836 294.826 179.88C292.622 180.885 290.321 181.775 287.924 182.548C285.527 183.283 283.091 183.882 280.616 184.346C280.191 183.611 279.591 182.722 278.818 181.678C278.083 180.634 277.368 179.783 276.672 179.126C279.031 178.778 281.37 178.314 283.69 177.734C286.01 177.115 288.195 176.419 290.244 175.646C292.332 174.873 294.227 174.022 295.928 173.094C297.668 172.127 299.137 171.083 300.336 169.962ZM309.79 170.194C311.375 174.679 313.947 178.353 317.504 181.214C321.061 184.075 325.759 186.028 331.598 187.072C331.134 187.536 330.631 188.116 330.09 188.812C329.549 189.547 329.027 190.301 328.524 191.074C328.06 191.847 327.673 192.543 327.364 193.162C323.033 192.195 319.341 190.745 316.286 188.812C313.231 186.917 310.66 184.52 308.572 181.62C306.484 178.72 304.763 175.317 303.41 171.412L309.79 170.194ZM323.71 173.79L329.104 177.908C327.905 178.643 326.61 179.377 325.218 180.112C323.826 180.808 322.453 181.465 321.1 182.084C319.785 182.664 318.529 183.186 317.33 183.65L312.806 179.88C313.927 179.377 315.145 178.778 316.46 178.082C317.813 177.386 319.128 176.651 320.404 175.878C321.719 175.105 322.821 174.409 323.71 173.79ZM283.864 186.956C286.145 186.724 288.736 186.473 291.636 186.202C294.536 185.893 297.591 185.564 300.8 185.216C304.048 184.829 307.257 184.462 310.428 184.114L310.602 189.798C307.586 190.185 304.531 190.552 301.438 190.9C298.383 191.287 295.425 191.654 292.564 192.002C289.741 192.35 287.151 192.659 284.792 192.93L283.864 186.956ZM278.18 167.874H330.438V173.848H278.18V167.874ZM294.942 148.56L329.858 145.312L330.554 150.938L295.638 154.36L294.942 148.56ZM315.126 142.818L318.084 138.816C319.167 139.048 320.307 139.357 321.506 139.744C322.705 140.092 323.865 140.479 324.986 140.904C326.146 141.291 327.113 141.658 327.886 142.006L324.812 146.414C324.077 145.989 323.149 145.563 322.028 145.138C320.945 144.674 319.785 144.249 318.548 143.862C317.349 143.437 316.209 143.089 315.126 142.818ZM304.396 139.106H311.298C311.491 142.006 311.975 144.732 312.748 147.284C313.56 149.836 314.546 152.079 315.706 154.012C316.905 155.907 318.181 157.395 319.534 158.478C320.926 159.561 322.337 160.083 323.768 160.044C324.503 160.044 325.025 159.638 325.334 158.826C325.643 158.014 325.875 156.603 326.03 154.592C326.765 155.211 327.635 155.791 328.64 156.332C329.684 156.873 330.631 157.279 331.482 157.55C331.211 160.025 330.747 161.919 330.09 163.234C329.433 164.549 328.563 165.457 327.48 165.96C326.436 166.424 325.102 166.656 323.478 166.656C320.887 166.656 318.49 165.96 316.286 164.568C314.121 163.176 312.187 161.223 310.486 158.71C308.823 156.197 307.47 153.277 306.426 149.952C305.382 146.627 304.705 143.011 304.396 139.106ZM291.404 138.7L297.9 140.904C296.585 143.263 295 145.544 293.144 147.748C291.288 149.913 289.316 151.924 287.228 153.78C285.14 155.597 283.033 157.183 280.906 158.536C280.558 158.111 280.075 157.569 279.456 156.912C278.876 156.255 278.257 155.597 277.6 154.94C276.981 154.283 276.44 153.741 275.976 153.316C279.031 151.692 281.95 149.585 284.734 146.994C287.518 144.403 289.741 141.639 291.404 138.7ZM286.068 149.488L290.766 144.79L292.738 145.37V165.844H286.068V149.488ZM290.65 179.416L295.232 174.834L297.32 175.472V189.102H290.65V179.416Z" fill="white"/>
<circle cx="78.9985" cy="66.2859" r="56" fill="#FF9C1E"/>
<path d="M78.6745 103.28C73.1347 103.28 68.2223 102.333 63.9373 100.439C59.6759 98.5217 56.3142 95.882 53.8521 92.5203C51.3899 89.1585 50.1352 85.2878 50.0878 80.908H67.7725C67.8435 82.4942 68.3525 83.9028 69.2995 85.1339C70.2465 86.3413 71.5367 87.2883 73.1702 87.9748C74.8038 88.6614 76.6622 89.0046 78.7455 89.0046C80.8288 89.0046 82.6636 88.6377 84.2498 87.9038C85.8596 87.1462 87.1144 86.1164 88.014 84.8143C88.9136 83.4885 89.3516 81.9734 89.3279 80.2688C89.3516 78.5643 88.8663 77.0491 87.8719 75.7234C86.8776 74.3976 85.469 73.3678 83.6461 72.6339C81.8468 71.9 79.7162 71.533 77.254 71.533H70.1873V59.033H77.254C79.4084 59.033 81.3023 58.6779 82.9359 57.9677C84.5931 57.2575 85.8833 56.2632 86.8066 54.9848C87.7299 53.6827 88.1797 52.1912 88.156 50.5103C88.1797 48.8768 87.7891 47.4445 86.9842 46.2134C86.2029 44.9587 85.1021 43.9881 83.6816 43.3015C82.2848 42.615 80.6631 42.2717 78.8165 42.2717C76.8753 42.2717 75.1115 42.615 73.5253 43.3015C71.9628 43.9881 70.7199 44.9587 69.7967 46.2134C68.8734 47.4682 68.388 48.9241 68.3407 50.5813H51.5438C51.5912 46.249 52.7985 42.4374 55.166 39.1467C57.5334 35.8323 60.7531 33.24 64.8251 31.3697C68.9207 29.4994 73.5845 28.5643 78.8165 28.5643C84.0249 28.5643 88.6058 29.4758 92.5594 31.2987C96.513 33.1216 99.5907 35.6074 101.792 38.7561C103.994 41.8811 105.095 45.4204 105.095 49.374C105.119 53.4696 103.781 56.8432 101.082 59.4947C98.407 62.1462 94.9624 63.7797 90.7484 64.3953V64.9634C96.3828 65.6263 100.632 67.4492 103.497 70.4322C106.385 73.4151 107.817 77.1438 107.794 81.6183C107.794 85.8323 106.551 89.5728 104.065 92.8399C101.603 96.0832 98.1702 98.6401 93.7668 100.51C89.3871 102.357 84.3563 103.28 78.6745 103.28Z" fill="white"/>
<rect x="388" y="149.646" width="139.547" height="101.539" fill="#FF9C1E"/>
<path d="M413.002 121.032V164.532H429.002V128.532C429.002 111 439.5 106.032 458.002 106.032C482 106.032 488.002 114.5 488.002 128.532V164.532H503.002V121.032C503.002 96.6324 473.002 91.5324 458.002 92.0324C421.602 92.0324 412.836 111.366 413.002 121.032Z" fill="#FF9C1E"/>
<path d="M479.631 199.305C481.724 210.506 494.979 233.038 460.502 233.038C423.472 233.038 438.82 208.902 438.82 201.229C438.82 192.683 431.844 174.286 460.502 174.286C485.91 174.286 477.538 188.104 479.631 199.305Z" fill="#FFB961"/>
<ellipse cx="9.42874" cy="5.9089" rx="9.42874" ry="5.9089" transform="matrix(0.588919 0.808192 -0.788227 0.615385 437.315 165.099)" fill="#FFB961"/>
<ellipse cx="9.44216" cy="5.90032" rx="9.44216" ry="5.90032" transform="matrix(-0.55323 0.833029 -0.81479 -0.579756 486.033 169.841)" fill="#FFB961"/>
</svg>
