<svg width="570" height="319" viewBox="0 0 570 319" fill="none" xmlns="http://www.w3.org/2000/svg">
<path d="M-0.00195312 35.7783H539.998C556.567 35.7783 569.998 49.2098 569.998 65.7783V318.15H29.998C13.4295 318.15 -0.00195312 304.718 -0.00195312 288.15V35.7783Z" fill="#FF5F17"/>
<line x1="347.795" y1="225.65" x2="38.6424" y2="225.65" stroke="white"/>
<path d="M141.591 95.8134H150.135V99.4294H141.591V95.8134ZM146.007 89.4454H156.375V93.1254H146.007V89.4454ZM157.815 90.8534C158.476 93.4347 159.394 95.8347 160.567 98.0534C161.74 100.251 163.212 102.192 164.983 103.877C166.754 105.541 168.844 106.832 171.255 107.749C170.978 107.984 170.658 108.304 170.295 108.709C169.954 109.115 169.623 109.541 169.303 109.989C169.004 110.416 168.759 110.811 168.567 111.173C166.028 110 163.863 108.475 162.071 106.597C160.279 104.699 158.775 102.491 157.559 99.9734C156.364 97.4347 155.372 94.6401 154.583 91.5894L157.815 90.8534ZM166.615 91.9734L170.135 94.5974C169.239 95.4081 168.29 96.2294 167.287 97.0614C166.284 97.8721 165.292 98.6507 164.311 99.3974C163.33 100.144 162.402 100.805 161.527 101.381L158.839 99.1414C159.692 98.5441 160.588 97.8401 161.527 97.0294C162.466 96.2187 163.383 95.3761 164.279 94.5014C165.175 93.6267 165.954 92.7841 166.615 91.9734ZM154.071 89.4454H158.199V108.549C158.199 109.573 158.071 110.373 157.815 110.949C157.559 111.547 157.09 112.005 156.407 112.325C155.746 112.624 154.924 112.805 153.943 112.869C152.962 112.933 151.788 112.965 150.423 112.965C150.338 112.411 150.167 111.76 149.911 111.013C149.655 110.267 149.388 109.637 149.111 109.125C149.644 109.147 150.199 109.168 150.775 109.189C151.351 109.211 151.863 109.221 152.311 109.221C152.78 109.2 153.111 109.189 153.303 109.189C153.602 109.168 153.804 109.115 153.911 109.029C154.018 108.923 154.071 108.741 154.071 108.485V89.4454ZM148.503 86.2134L150.455 83.0774C151.372 83.2694 152.375 83.5147 153.463 83.8134C154.551 84.1121 155.639 84.4427 156.727 84.8054C157.815 85.1681 158.839 85.5414 159.799 85.9254C160.78 86.2881 161.602 86.6507 162.263 87.0134L160.215 90.5654C159.575 90.2027 158.786 89.8187 157.847 89.4134C156.93 89.0081 155.927 88.6027 154.839 88.1974C153.772 87.7921 152.695 87.4187 151.607 87.0774C150.519 86.7361 149.484 86.4481 148.503 86.2134ZM148.695 95.8134H149.463L150.135 95.6534L152.695 96.7414C152.183 98.9814 151.49 101.019 150.615 102.853C149.74 104.688 148.727 106.299 147.575 107.685C146.423 109.051 145.196 110.181 143.895 111.077C143.682 110.8 143.394 110.48 143.031 110.117C142.668 109.733 142.284 109.371 141.879 109.029C141.474 108.667 141.111 108.389 140.791 108.197C142.05 107.429 143.202 106.469 144.247 105.317C145.314 104.165 146.231 102.843 146.999 101.349C147.767 99.8561 148.332 98.2561 148.695 96.5494V95.8134ZM190.551 103.077V104.101H198.839V103.077H190.551ZM190.551 105.669V106.757H198.839V105.669H190.551ZM190.551 100.517V101.509H198.839V100.517H190.551ZM187.223 98.6614H202.327V108.581H187.223V98.6614ZM195.479 109.861L197.911 107.909C198.679 108.251 199.468 108.613 200.279 108.997C201.111 109.36 201.9 109.723 202.647 110.085C203.394 110.448 204.034 110.789 204.567 111.109L201.303 113.061C200.876 112.763 200.343 112.432 199.703 112.069C199.063 111.707 198.37 111.323 197.623 110.917C196.898 110.533 196.183 110.181 195.479 109.861ZM192.663 82.9494H196.407V89.2534H192.663V82.9494ZM185.463 84.6454H203.863V86.9814H185.463V84.6454ZM186.999 87.9734H202.615V90.1814H186.999V87.9734ZM189.047 92.9974V95.8454H200.311V92.9974H189.047ZM186.135 91.1094H203.415V97.7014H186.135V91.1094ZM191.863 92.2614H194.135C194.007 93.2001 193.666 93.9467 193.111 94.5014C192.556 95.0347 191.586 95.4507 190.199 95.7494C190.092 95.5147 189.922 95.2587 189.687 94.9814C189.452 94.7041 189.228 94.4801 189.015 94.3094C190.039 94.1387 190.743 93.9041 191.127 93.6054C191.532 93.2854 191.778 92.8374 191.863 92.2614ZM195.319 91.8134H197.975V93.1254C197.975 93.4241 198.007 93.6161 198.071 93.7014C198.135 93.7654 198.284 93.7974 198.519 93.7974C198.604 93.7974 198.743 93.7974 198.935 93.7974C199.127 93.7974 199.33 93.7974 199.543 93.7974C199.756 93.7974 199.895 93.7974 199.959 93.7974C200.151 93.7974 200.29 93.7867 200.375 93.7654C200.46 93.7441 200.514 93.7014 200.535 93.6374C200.791 93.7441 201.111 93.8401 201.495 93.9254C201.879 93.9894 202.22 94.0427 202.519 94.0854C202.455 94.4907 202.252 94.7787 201.911 94.9494C201.591 95.0987 201.079 95.1734 200.375 95.1734C200.247 95.1734 200.087 95.1734 199.895 95.1734C199.703 95.1734 199.479 95.1734 199.223 95.1734C198.988 95.1734 198.775 95.1734 198.583 95.1734C198.391 95.1734 198.231 95.1734 198.103 95.1734C197.356 95.1734 196.78 95.1201 196.375 95.0134C195.97 94.8854 195.692 94.6721 195.543 94.3734C195.394 94.0747 195.319 93.6481 195.319 93.0934V91.8134ZM190.871 107.909L193.687 109.829C193.047 110.213 192.3 110.608 191.447 111.013C190.594 111.44 189.719 111.813 188.823 112.133C187.948 112.475 187.116 112.752 186.327 112.965C186.05 112.667 185.676 112.304 185.207 111.877C184.738 111.451 184.311 111.099 183.927 110.821C184.738 110.608 185.58 110.341 186.455 110.021C187.33 109.701 188.151 109.36 188.919 108.997C189.708 108.613 190.359 108.251 190.871 107.909ZM178.871 82.9814L182.135 84.0694C181.708 84.8801 181.26 85.7334 180.791 86.6294C180.343 87.5041 179.895 88.3361 179.447 89.1254C178.999 89.9147 178.562 90.6081 178.135 91.2054L175.607 90.2454C175.991 89.5841 176.386 88.8374 176.791 88.0054C177.196 87.1734 177.58 86.3094 177.943 85.4134C178.327 84.5174 178.636 83.7067 178.871 82.9814ZM182.199 86.7894L185.303 88.1014C184.599 89.2961 183.82 90.5654 182.967 91.9094C182.114 93.2321 181.26 94.5014 180.407 95.7174C179.554 96.9334 178.743 98.0001 177.975 98.9174L175.767 97.7654C176.322 97.0401 176.898 96.2294 177.495 95.3334C178.092 94.4161 178.668 93.4667 179.223 92.4854C179.799 91.4827 180.332 90.4907 180.823 89.5094C181.335 88.5281 181.794 87.6214 182.199 86.7894ZM174.071 90.4694L175.959 87.9094C176.492 88.4001 177.036 88.9441 177.591 89.5414C178.167 90.1387 178.69 90.7361 179.159 91.3334C179.65 91.9094 180.023 92.4534 180.279 92.9654L178.199 95.9094C177.986 95.3761 177.644 94.8001 177.175 94.1814C176.727 93.5414 176.226 92.9014 175.671 92.2614C175.138 91.6001 174.604 91.0027 174.071 90.4694ZM181.239 94.1494L183.767 93.2854C184.151 94.0107 184.503 94.7894 184.823 95.6214C185.164 96.4534 185.452 97.2641 185.687 98.0534C185.943 98.8427 186.114 99.5467 186.199 100.165L183.479 101.189C183.415 100.571 183.266 99.8667 183.031 99.0774C182.818 98.2667 182.551 97.4347 182.231 96.5814C181.932 95.7067 181.602 94.8961 181.239 94.1494ZM174.071 97.1894C175.415 97.1467 176.994 97.0827 178.807 96.9974C180.62 96.8907 182.476 96.7841 184.375 96.6774V99.6854C182.626 99.8134 180.887 99.9414 179.159 100.069C177.452 100.197 175.884 100.315 174.455 100.421L174.071 97.1894ZM181.943 102.373L184.439 101.605C184.759 102.416 185.058 103.312 185.335 104.293C185.612 105.253 185.815 106.075 185.943 106.757L183.319 107.653C183.212 106.928 183.02 106.075 182.743 105.093C182.487 104.112 182.22 103.205 181.943 102.373ZM175.287 101.765L178.263 102.277C178.092 103.813 177.847 105.317 177.527 106.789C177.228 108.261 176.855 109.509 176.407 110.533C176.194 110.405 175.916 110.267 175.575 110.117C175.234 109.947 174.892 109.787 174.551 109.637C174.21 109.467 173.911 109.339 173.655 109.253C174.124 108.293 174.487 107.141 174.743 105.797C174.999 104.453 175.18 103.109 175.287 101.765ZM178.647 98.7254H181.847V113.029H178.647V98.7254ZM220.535 85.9574H224.343V94.6934H220.535V85.9574ZM209.751 84.2294H233.559V87.3334H209.751V84.2294ZM232.599 84.2294H233.207L233.815 84.1014L236.663 84.8054C236.279 85.8294 235.842 86.8641 235.351 87.9094C234.882 88.9547 234.412 89.8507 233.943 90.5974L230.615 89.7334C230.978 89.0721 231.34 88.2827 231.703 87.3654C232.066 86.4267 232.364 85.5414 232.599 84.7094V84.2294ZM222.647 88.9334H231.511V91.5254H222.647V88.9334ZM215.831 89.8294C216.428 90.8107 217.207 91.5467 218.167 92.0374C219.127 92.5281 220.29 92.8481 221.655 92.9974C223.042 93.1254 224.599 93.1894 226.327 93.1894C226.711 93.1894 227.266 93.1894 227.991 93.1894C228.716 93.1894 229.527 93.1894 230.423 93.1894C231.34 93.1894 232.258 93.1894 233.175 93.1894C234.092 93.1681 234.946 93.1467 235.735 93.1254C236.524 93.1041 237.164 93.0827 237.655 93.0614C237.484 93.3174 237.314 93.6481 237.143 94.0534C236.972 94.4587 236.823 94.8747 236.695 95.3014C236.567 95.7281 236.471 96.1121 236.407 96.4534H234.199H226.295C224.055 96.4534 222.114 96.3254 220.471 96.0694C218.828 95.7921 217.431 95.2374 216.279 94.4054C215.127 93.5521 214.156 92.2934 213.367 90.6294L215.831 89.8294ZM214.583 101.477V103.525H230.167V101.477H214.583ZM210.967 98.6934H234.039V106.341H210.967V98.6934ZM220.663 96.9974H224.439V110.501H220.663V96.9974ZM208.407 108.709C209.858 108.709 211.532 108.709 213.431 108.709C215.33 108.688 217.378 108.667 219.575 108.645C221.794 108.624 224.076 108.592 226.423 108.549C228.791 108.507 231.148 108.475 233.495 108.453L233.335 111.269C230.412 111.397 227.447 111.525 224.439 111.653C221.452 111.803 218.604 111.92 215.895 112.005C213.186 112.112 210.764 112.197 208.631 112.261L208.407 108.709ZM227.543 107.365L229.975 105.285C230.828 105.861 231.735 106.501 232.695 107.205C233.655 107.888 234.562 108.571 235.415 109.253C236.268 109.915 236.994 110.501 237.591 111.013L235.127 113.413C234.53 112.88 233.794 112.251 232.919 111.525C232.066 110.8 231.159 110.075 230.199 109.349C229.26 108.603 228.375 107.941 227.543 107.365ZM213.687 87.7814L217.207 88.6774C216.439 90.8961 215.351 92.9334 213.943 94.7894C212.556 96.6454 210.924 98.1601 209.047 99.3334C208.94 99.0347 208.78 98.6614 208.567 98.2134C208.354 97.7441 208.13 97.2747 207.895 96.8054C207.66 96.3361 207.447 95.9627 207.255 95.6854C208.727 94.8534 210.018 93.7547 211.127 92.3894C212.258 91.0241 213.111 89.4881 213.687 87.7814ZM253.303 87.9734H270.231V91.4934H253.303V87.9734ZM253.911 93.8934H269.303V97.3494H253.911V93.8934ZM252.759 100.005H270.519V103.621H252.759V100.005ZM259.479 89.7654H263.447V102.309H259.479V89.7654ZM255.031 83.9734L258.551 82.9814C258.956 83.6641 259.34 84.4107 259.703 85.2214C260.087 86.0321 260.364 86.7467 260.535 87.3654L256.791 88.4534C256.663 87.8774 256.428 87.1627 256.087 86.3094C255.767 85.4561 255.415 84.6774 255.031 83.9734ZM264.791 82.9174L268.887 83.8454C268.439 84.8054 267.98 85.7654 267.511 86.7254C267.042 87.6641 266.615 88.4641 266.231 89.1254L263.063 88.2294C263.276 87.7174 263.49 87.1521 263.703 86.5334C263.938 85.9147 264.151 85.2961 264.343 84.6774C264.535 84.0374 264.684 83.4507 264.791 82.9174ZM256.951 105.765L259.927 105.509C260.098 106.235 260.247 107.024 260.375 107.877C260.503 108.731 260.599 109.552 260.663 110.341C260.748 111.131 260.791 111.813 260.791 112.389L257.623 112.805C257.623 112.187 257.591 111.483 257.527 110.693C257.484 109.904 257.41 109.072 257.303 108.197C257.196 107.323 257.079 106.512 256.951 105.765ZM261.175 105.605L264.119 105.125C264.375 105.872 264.61 106.661 264.823 107.493C265.036 108.325 265.218 109.136 265.367 109.925C265.538 110.693 265.655 111.387 265.719 112.005L262.583 112.613C262.519 112.016 262.412 111.312 262.263 110.501C262.135 109.712 261.975 108.891 261.783 108.037C261.591 107.163 261.388 106.352 261.175 105.605ZM265.399 105.477L268.535 104.549C268.919 105.317 269.282 106.139 269.623 107.013C269.986 107.888 270.295 108.741 270.551 109.573C270.828 110.405 271.02 111.152 271.127 111.813L267.767 112.901C267.682 112.261 267.522 111.515 267.287 110.661C267.052 109.808 266.764 108.923 266.423 108.005C266.103 107.088 265.762 106.245 265.399 105.477ZM253.175 104.741L256.439 105.381C256.29 106.235 256.087 107.131 255.831 108.069C255.575 108.987 255.276 109.872 254.935 110.725C254.594 111.579 254.199 112.336 253.751 112.997L250.487 111.845C251.084 111.013 251.618 109.936 252.087 108.613C252.578 107.291 252.94 106 253.175 104.741ZM245.207 82.8854H248.663V112.933H245.207V82.8854ZM240.951 93.4134H252.343V96.9654H240.951V93.4134ZM244.887 95.3014L246.935 96.2934C246.679 97.3601 246.37 98.4907 246.007 99.6854C245.644 100.859 245.239 102.032 244.791 103.205C244.364 104.357 243.906 105.445 243.415 106.469C242.924 107.493 242.423 108.389 241.911 109.157C241.74 108.603 241.474 107.952 241.111 107.205C240.77 106.459 240.46 105.829 240.183 105.317C240.823 104.528 241.442 103.557 242.039 102.405C242.658 101.253 243.212 100.048 243.703 98.7894C244.215 97.5307 244.61 96.3681 244.887 95.3014ZM248.279 97.0934C248.514 97.2854 248.844 97.6054 249.271 98.0534C249.719 98.4801 250.178 98.9601 250.647 99.4934C251.138 100.005 251.586 100.485 251.991 100.933C252.396 101.381 252.674 101.712 252.823 101.925L250.583 104.773C250.391 104.368 250.124 103.888 249.783 103.333C249.463 102.757 249.1 102.171 248.695 101.573C248.311 100.976 247.938 100.411 247.575 99.8774C247.212 99.3441 246.903 98.8961 246.647 98.5334L248.279 97.0934ZM240.919 85.3494L243.447 84.7414C243.852 85.8934 244.204 87.1414 244.503 88.4854C244.802 89.8081 244.983 90.9707 245.047 91.9734L242.359 92.6454C242.338 91.9841 242.252 91.2374 242.103 90.4054C241.975 89.5734 241.804 88.7094 241.591 87.8134C241.378 86.9174 241.154 86.0961 240.919 85.3494ZM250.199 84.4854L253.303 85.1574C253.026 85.9894 252.738 86.8534 252.439 87.7494C252.14 88.6454 251.852 89.5094 251.575 90.3414C251.298 91.1734 251.02 91.8881 250.743 92.4854L248.439 91.8454C248.674 91.1841 248.898 90.4267 249.111 89.5734C249.346 88.7201 249.559 87.8454 249.751 86.9494C249.943 86.0321 250.092 85.2107 250.199 84.4854ZM274.135 99.2054C275.18 98.9921 276.354 98.7361 277.655 98.4374C278.978 98.1174 280.364 97.7761 281.815 97.4134C283.287 97.0507 284.738 96.6987 286.167 96.3574L286.647 100.005C284.684 100.539 282.69 101.072 280.663 101.605C278.658 102.139 276.834 102.619 275.191 103.045L274.135 99.2054ZM274.487 89.0614H286.135V92.6774H274.487V89.0614ZM278.615 82.9494H282.519V108.581C282.519 109.52 282.412 110.256 282.199 110.789C281.986 111.323 281.602 111.739 281.047 112.037C280.492 112.336 279.82 112.528 279.031 112.613C278.242 112.699 277.26 112.741 276.087 112.741C276.023 112.229 275.884 111.621 275.671 110.917C275.458 110.235 275.223 109.637 274.967 109.125C275.586 109.147 276.194 109.168 276.791 109.189C277.388 109.189 277.794 109.189 278.007 109.189C278.412 109.189 278.615 108.987 278.615 108.581V82.9494ZM286.647 85.3814H304.087V89.2214H286.647V85.3814ZM294.807 86.7894H298.935V108.005C298.935 109.115 298.786 109.979 298.487 110.597C298.21 111.237 297.708 111.728 296.983 112.069C296.258 112.411 295.351 112.624 294.263 112.709C293.175 112.795 291.884 112.837 290.391 112.837C290.327 112.432 290.21 111.973 290.039 111.461C289.868 110.949 289.676 110.437 289.463 109.925C289.271 109.413 289.068 108.987 288.855 108.645C289.516 108.667 290.188 108.688 290.871 108.709C291.575 108.731 292.204 108.741 292.759 108.741C293.314 108.741 293.698 108.741 293.911 108.741C294.231 108.741 294.455 108.688 294.583 108.581C294.732 108.453 294.807 108.24 294.807 107.941V86.7894ZM307.831 94.2774H336.983V98.0854H307.831V94.2774ZM322.103 86.8854H333.495V90.5654H322.103V86.8854ZM319.607 82.9494H323.703V96.1014H319.607V82.9494ZM319.607 96.7094H323.703V112.997H319.607V96.7094ZM322.519 102.821L324.471 99.7494C325.282 99.9841 326.167 100.261 327.127 100.581C328.087 100.88 329.058 101.211 330.039 101.573C331.02 101.915 331.948 102.256 332.823 102.597C333.698 102.939 334.434 103.259 335.031 103.557L332.983 107.045C332.407 106.725 331.692 106.384 330.839 106.021C330.007 105.659 329.111 105.285 328.151 104.901C327.191 104.517 326.22 104.144 325.239 103.781C324.279 103.419 323.372 103.099 322.519 102.821ZM357.938 95.0774H378.386V98.5334H357.938V95.0774ZM359.058 88.6134H377.298V92.0054H359.058V88.6134ZM365.81 90.2774H369.65V95.3974C369.65 96.4214 369.522 97.4881 369.266 98.5974C369.031 99.7067 368.583 100.816 367.922 101.925C367.282 103.013 366.354 104.069 365.138 105.093C363.943 106.096 362.397 107.013 360.498 107.845C360.327 107.568 360.093 107.259 359.794 106.917C359.495 106.576 359.186 106.235 358.866 105.893C358.546 105.552 358.237 105.275 357.938 105.061C359.751 104.4 361.181 103.664 362.226 102.853C363.293 102.043 364.071 101.2 364.562 100.325C365.074 99.4507 365.405 98.5974 365.554 97.7654C365.725 96.9121 365.81 96.1121 365.81 95.3654V90.2774ZM370.226 97.5094C370.887 99.2801 371.89 100.784 373.234 102.021C374.599 103.237 376.349 104.112 378.482 104.645C378.205 104.901 377.906 105.221 377.586 105.605C377.287 105.989 376.999 106.384 376.722 106.789C376.466 107.173 376.242 107.536 376.05 107.877C373.703 107.109 371.805 105.904 370.354 104.261C368.903 102.619 367.783 100.603 366.994 98.2134L370.226 97.5094ZM356.658 95.4294V107.237H352.914V98.9814H349.202V95.4294H356.658ZM356.658 105.573C357.319 106.619 358.247 107.387 359.442 107.877C360.637 108.368 362.066 108.645 363.73 108.709C364.669 108.752 365.778 108.784 367.058 108.805C368.359 108.805 369.725 108.795 371.154 108.773C372.583 108.752 373.981 108.709 375.346 108.645C376.733 108.581 377.959 108.507 379.026 108.421C378.898 108.72 378.749 109.104 378.578 109.573C378.407 110.043 378.247 110.523 378.098 111.013C377.97 111.504 377.874 111.941 377.81 112.325C376.85 112.389 375.751 112.432 374.514 112.453C373.277 112.496 372.007 112.517 370.706 112.517C369.405 112.539 368.146 112.539 366.93 112.517C365.714 112.496 364.626 112.464 363.666 112.421C361.703 112.336 360.029 112.027 358.642 111.493C357.255 110.981 356.029 110.107 354.962 108.869C354.258 109.467 353.533 110.085 352.786 110.725C352.061 111.365 351.261 112.027 350.386 112.709L348.498 108.709C349.245 108.261 350.023 107.771 350.834 107.237C351.645 106.704 352.423 106.149 353.17 105.573H356.658ZM349.234 86.0214L352.082 83.7174C352.743 84.1441 353.415 84.6454 354.098 85.2214C354.781 85.7761 355.421 86.3521 356.018 86.9494C356.615 87.5254 357.095 88.0587 357.458 88.5494L354.418 91.1094C354.098 90.5974 353.65 90.0427 353.074 89.4454C352.519 88.8481 351.901 88.2507 351.218 87.6534C350.535 87.0347 349.874 86.4907 349.234 86.0214ZM372.434 82.9494L376.338 84.1654C375.762 85.0827 375.165 85.9894 374.546 86.8854C373.949 87.7601 373.394 88.5067 372.882 89.1254L369.746 88.0374C370.066 87.5467 370.397 87.0134 370.738 86.4374C371.079 85.8401 371.399 85.2427 371.698 84.6454C371.997 84.0267 372.242 83.4614 372.434 82.9494ZM359.89 84.3574L363.122 83.0134C363.719 83.7387 364.285 84.5601 364.818 85.4774C365.351 86.3947 365.725 87.2054 365.938 87.9094L362.482 89.3814C362.311 88.6987 361.97 87.8881 361.458 86.9494C360.967 85.9894 360.445 85.1254 359.89 84.3574Z" fill="white"/>
<path d="M51.2939 245.141H59.2859V247.805H51.2939V245.141ZM51.5579 240.749L54.2939 241.133C54.0699 242.781 53.7739 244.389 53.4059 245.957C53.0539 247.525 52.6139 248.989 52.0859 250.349C51.5739 251.709 50.9659 252.901 50.2619 253.925C50.1339 253.749 49.9419 253.525 49.6859 253.253C49.4459 252.981 49.1899 252.717 48.9179 252.461C48.6459 252.189 48.4059 251.973 48.1979 251.813C48.8219 250.949 49.3499 249.933 49.7819 248.765C50.2139 247.597 50.5739 246.333 50.8619 244.973C51.1499 243.597 51.3819 242.189 51.5579 240.749ZM55.4219 246.701L58.1099 246.893C57.8379 249.549 57.3979 251.917 56.7899 253.997C56.1819 256.077 55.3259 257.893 54.2219 259.445C53.1179 260.997 51.6859 262.317 49.9259 263.405C49.8459 263.197 49.7099 262.941 49.5179 262.637C49.3419 262.349 49.1499 262.053 48.9419 261.749C48.7339 261.461 48.5419 261.221 48.3659 261.029C49.9499 260.165 51.2219 259.061 52.1819 257.717C53.1579 256.357 53.8939 254.757 54.3899 252.917C54.8859 251.077 55.2299 249.005 55.4219 246.701ZM52.8059 247.373C53.0939 249.389 53.4939 251.293 54.0059 253.085C54.5339 254.877 55.2299 256.461 56.0939 257.837C56.9739 259.197 58.0779 260.269 59.4059 261.053C59.2139 261.229 58.9899 261.453 58.7339 261.725C58.4939 261.997 58.2619 262.277 58.0379 262.565C57.8299 262.853 57.6619 263.117 57.5339 263.357C56.0779 262.381 54.8779 261.125 53.9339 259.589C53.0059 258.053 52.2619 256.285 51.7019 254.285C51.1419 252.269 50.7019 250.077 50.3819 247.709L52.8059 247.373ZM42.0299 240.749H44.4779V253.589H42.0299V240.749ZM40.6379 243.749V247.229H45.9899V243.749H40.6379ZM38.2619 241.949H48.4859V249.053H38.2619V241.949ZM40.1339 251.549V252.557H46.4699V251.549H40.1339ZM37.7819 249.821H48.9659V254.285H37.7819V249.821ZM36.7979 255.269C37.9339 255.269 39.2219 255.261 40.6619 255.245C42.1179 255.229 43.6459 255.213 45.2459 255.197C46.8619 255.165 48.4779 255.141 50.0939 255.125L49.9979 257.165C48.4299 257.197 46.8459 257.229 45.2459 257.261C43.6619 257.293 42.1499 257.325 40.7099 257.357C39.2859 257.373 38.0139 257.389 36.8939 257.405L36.7979 255.269ZM41.4539 253.781L43.8299 254.309C43.4779 254.949 43.1019 255.621 42.7019 256.325C42.3179 257.029 41.9259 257.701 41.5259 258.341C41.1419 258.981 40.7819 259.557 40.4459 260.069L38.1419 259.493C38.4779 258.997 38.8379 258.421 39.2219 257.765C39.6219 257.109 40.0139 256.437 40.3979 255.749C40.7979 255.045 41.1499 254.389 41.4539 253.781ZM39.9899 259.517L41.3579 257.837C42.2699 258.157 43.1899 258.517 44.1179 258.917C45.0459 259.301 45.9179 259.701 46.7339 260.117C47.5499 260.517 48.2379 260.901 48.7979 261.269L47.0459 263.045C46.5179 262.661 45.8699 262.253 45.1019 261.821C44.3499 261.405 43.5339 260.997 42.6539 260.597C41.7739 260.197 40.8859 259.837 39.9899 259.517ZM45.5339 256.277L47.9579 256.541C47.6219 257.965 47.0619 259.125 46.2779 260.021C45.5099 260.917 44.4779 261.621 43.1819 262.133C41.8859 262.661 40.2779 263.085 38.3579 263.405C38.2939 263.021 38.1579 262.621 37.9499 262.205C37.7579 261.805 37.5659 261.469 37.3739 261.197C38.9899 261.053 40.3419 260.805 41.4299 260.453C42.5339 260.101 43.4139 259.589 44.0699 258.917C44.7419 258.245 45.2299 257.365 45.5339 256.277ZM36.7259 244.469H39.1499V244.613H47.3339V244.469H50.0699V246.509H47.3339V246.365H39.1499V246.509H36.7259V244.469ZM67.8779 245.165V245.981H77.8619V245.165H67.8779ZM67.8779 242.957V243.773H77.8619V242.957H67.8779ZM65.1179 241.493H80.7659V247.445H65.1179V241.493ZM67.3739 254.741V255.581H78.5339V254.741H67.3739ZM67.3739 252.461V253.301H78.5339V252.461H67.3739ZM64.6859 250.949H81.3659V257.117H64.6859V250.949ZM71.5499 251.453H74.3339V261.749H71.5499V251.453ZM62.0699 248.165H83.9339V250.229H62.0699V248.165ZM64.1819 257.909H81.8219V259.733H64.1819V257.909ZM62.0219 260.621H83.9819V262.709H62.0219V260.621ZM87.2459 243.653H108.654V246.365H87.2459V243.653ZM93.7259 252.317H104.142V254.717H93.7259V252.317ZM91.5899 248.261H103.71V250.781H94.4219V263.285H91.5899V248.261ZM103.134 248.261H105.966V260.189C105.966 260.893 105.878 261.453 105.702 261.869C105.542 262.285 105.214 262.605 104.718 262.829C104.238 263.053 103.646 263.189 102.942 263.237C102.238 263.285 101.398 263.309 100.422 263.309C100.374 262.909 100.262 262.437 100.086 261.893C99.9259 261.365 99.7499 260.909 99.5579 260.525C99.9739 260.541 100.39 260.557 100.806 260.573C101.222 260.589 101.59 260.597 101.91 260.597C102.246 260.597 102.478 260.597 102.606 260.597C102.814 260.581 102.95 260.541 103.014 260.477C103.094 260.413 103.134 260.301 103.134 260.141V248.261ZM94.6859 240.749L97.6619 241.421C97.1019 243.213 96.3979 244.997 95.5499 246.773C94.7179 248.533 93.7099 250.173 92.5259 251.693C91.3579 253.213 89.9899 254.517 88.4219 255.605C88.2779 255.397 88.0859 255.157 87.8459 254.885C87.6219 254.597 87.3899 254.325 87.1499 254.069C86.9259 253.797 86.7179 253.573 86.5259 253.397C87.5819 252.693 88.5419 251.861 89.4059 250.901C90.2859 249.941 91.0619 248.901 91.7339 247.781C92.4219 246.645 93.0059 245.485 93.4859 244.301C93.9819 243.101 94.3819 241.917 94.6859 240.749ZM93.7259 256.277H104.142V258.677H93.7259V256.277ZM123.03 246.221H131.286V248.573H123.03V246.221ZM118.902 260.141C119.622 260.029 120.454 259.893 121.398 259.733C122.358 259.573 123.374 259.405 124.446 259.229C125.518 259.037 126.582 258.845 127.638 258.653L127.878 261.149C126.486 261.469 125.086 261.781 123.678 262.085C122.27 262.405 120.99 262.685 119.838 262.925L118.902 260.141ZM121.398 241.829H124.182V260.789H121.398V241.829ZM123.03 241.829H132.606V253.061H123.03V250.589H129.75V244.301H123.03V241.829ZM128.022 251.405C128.326 252.845 128.742 254.181 129.27 255.413C129.798 256.629 130.47 257.701 131.286 258.629C132.102 259.557 133.102 260.277 134.286 260.789C134.078 260.981 133.854 261.213 133.614 261.485C133.374 261.773 133.142 262.069 132.918 262.373C132.71 262.693 132.542 262.981 132.414 263.237C131.118 262.549 130.03 261.653 129.15 260.549C128.286 259.429 127.574 258.133 127.014 256.661C126.454 255.189 125.998 253.573 125.646 251.813L128.022 251.405ZM131.502 253.229L133.758 254.789C133.102 255.429 132.406 256.061 131.67 256.685C130.95 257.293 130.286 257.813 129.678 258.245L127.902 256.877C128.286 256.557 128.694 256.189 129.126 255.773C129.574 255.357 130.006 254.925 130.422 254.477C130.838 254.029 131.198 253.613 131.502 253.229ZM112.662 241.781H118.638V244.373H115.35V263.309H112.662V241.781ZM117.846 241.781H118.35L118.758 241.685L120.726 242.813C120.502 243.517 120.262 244.261 120.006 245.045C119.75 245.829 119.494 246.605 119.238 247.373C118.982 248.141 118.726 248.837 118.47 249.461C119.254 250.389 119.758 251.269 119.982 252.101C120.222 252.917 120.342 253.677 120.342 254.381C120.342 255.181 120.254 255.837 120.078 256.349C119.902 256.861 119.614 257.261 119.214 257.549C119.022 257.693 118.798 257.805 118.542 257.885C118.302 257.965 118.054 258.029 117.798 258.077C117.574 258.109 117.31 258.125 117.006 258.125C116.718 258.125 116.422 258.125 116.118 258.125C116.102 257.757 116.038 257.325 115.926 256.829C115.83 256.333 115.686 255.909 115.494 255.557C115.718 255.573 115.918 255.581 116.094 255.581C116.286 255.581 116.454 255.581 116.598 255.581C116.726 255.581 116.846 255.565 116.958 255.533C117.086 255.485 117.206 255.429 117.318 255.365C117.462 255.253 117.566 255.085 117.63 254.861C117.71 254.621 117.742 254.333 117.726 253.997C117.726 253.437 117.606 252.797 117.366 252.077C117.142 251.341 116.67 250.573 115.95 249.773C116.126 249.229 116.302 248.629 116.478 247.973C116.67 247.317 116.846 246.661 117.006 246.005C117.182 245.333 117.342 244.709 117.486 244.133C117.646 243.541 117.766 243.053 117.846 242.669V241.781ZM140.502 264.461L139.734 262.517C140.742 262.197 141.51 261.757 142.038 261.197C142.582 260.653 142.854 260.029 142.854 259.325L142.662 256.973L144.006 259.109C143.798 259.285 143.574 259.421 143.334 259.517C143.094 259.613 142.838 259.661 142.566 259.661C141.974 259.661 141.446 259.477 140.982 259.109C140.518 258.725 140.286 258.189 140.286 257.501C140.286 256.829 140.518 256.301 140.982 255.917C141.446 255.533 141.998 255.341 142.638 255.341C143.486 255.341 144.126 255.637 144.558 256.229C145.006 256.821 145.23 257.621 145.23 258.629C145.23 259.989 144.814 261.189 143.982 262.229C143.15 263.269 141.99 264.013 140.502 264.461ZM168.414 249.845H183.75V252.437H168.414V249.845ZM169.254 244.997H182.934V247.541H169.254V244.997ZM174.318 246.245H177.198V250.085C177.198 250.853 177.102 251.653 176.91 252.485C176.734 253.317 176.398 254.149 175.902 254.981C175.422 255.797 174.726 256.589 173.814 257.357C172.918 258.109 171.758 258.797 170.334 259.421C170.206 259.213 170.03 258.981 169.806 258.725C169.582 258.469 169.35 258.213 169.11 257.957C168.87 257.701 168.638 257.493 168.414 257.333C169.774 256.837 170.846 256.285 171.63 255.677C172.43 255.069 173.014 254.437 173.382 253.781C173.766 253.125 174.014 252.485 174.126 251.861C174.254 251.221 174.318 250.621 174.318 250.061V246.245ZM177.63 251.669C178.126 252.997 178.878 254.125 179.886 255.053C180.91 255.965 182.222 256.621 183.822 257.021C183.614 257.213 183.39 257.453 183.15 257.741C182.926 258.029 182.71 258.325 182.502 258.629C182.31 258.917 182.142 259.189 181.998 259.445C180.238 258.869 178.814 257.965 177.726 256.733C176.638 255.501 175.798 253.989 175.206 252.197L177.63 251.669ZM167.454 250.109V258.965H164.646V252.773H161.862V250.109H167.454ZM167.454 257.717C167.95 258.501 168.646 259.077 169.542 259.445C170.438 259.813 171.51 260.021 172.758 260.069C173.462 260.101 174.294 260.125 175.254 260.141C176.23 260.141 177.254 260.133 178.326 260.117C179.398 260.101 180.446 260.069 181.47 260.021C182.51 259.973 183.43 259.917 184.23 259.853C184.134 260.077 184.022 260.365 183.894 260.717C183.766 261.069 183.646 261.429 183.534 261.797C183.438 262.165 183.366 262.493 183.318 262.781C182.598 262.829 181.774 262.861 180.846 262.877C179.918 262.909 178.966 262.925 177.99 262.925C177.014 262.941 176.07 262.941 175.158 262.925C174.246 262.909 173.43 262.885 172.71 262.853C171.238 262.789 169.982 262.557 168.942 262.157C167.902 261.773 166.982 261.117 166.182 260.189C165.654 260.637 165.11 261.101 164.55 261.581C164.006 262.061 163.406 262.557 162.75 263.069L161.334 260.069C161.894 259.733 162.478 259.365 163.086 258.965C163.694 258.565 164.278 258.149 164.838 257.717H167.454ZM161.886 243.053L164.022 241.325C164.518 241.645 165.022 242.021 165.534 242.453C166.046 242.869 166.526 243.301 166.974 243.749C167.422 244.181 167.782 244.581 168.054 244.949L165.774 246.869C165.534 246.485 165.198 246.069 164.766 245.621C164.35 245.173 163.886 244.725 163.374 244.277C162.862 243.813 162.366 243.405 161.886 243.053ZM179.286 240.749L182.214 241.661C181.782 242.349 181.334 243.029 180.87 243.701C180.422 244.357 180.006 244.917 179.622 245.381L177.27 244.565C177.51 244.197 177.758 243.797 178.014 243.365C178.27 242.917 178.51 242.469 178.734 242.021C178.958 241.557 179.142 241.133 179.286 240.749ZM169.878 241.805L172.302 240.797C172.75 241.341 173.174 241.957 173.574 242.645C173.974 243.333 174.254 243.941 174.414 244.469L171.822 245.573C171.694 245.061 171.438 244.453 171.054 243.749C170.686 243.029 170.294 242.381 169.878 241.805ZM191.478 247.565H203.934V250.181H191.478V247.565ZM187.014 251.909H208.518V254.597H187.014V251.909ZM192.822 254.069H195.942C195.83 255.173 195.646 256.205 195.39 257.165C195.134 258.109 194.726 258.973 194.166 259.757C193.622 260.525 192.854 261.213 191.862 261.821C190.87 262.429 189.59 262.941 188.022 263.357C187.926 263.101 187.782 262.813 187.59 262.493C187.414 262.173 187.214 261.853 186.99 261.533C186.766 261.229 186.55 260.981 186.342 260.789C187.718 260.485 188.814 260.117 189.63 259.685C190.462 259.253 191.086 258.765 191.502 258.221C191.934 257.661 192.238 257.037 192.414 256.349C192.606 255.645 192.742 254.885 192.822 254.069ZM199.014 253.589H201.918V259.445C201.918 259.829 201.974 260.077 202.086 260.189C202.214 260.285 202.494 260.333 202.926 260.333C203.022 260.333 203.174 260.333 203.382 260.333C203.59 260.333 203.822 260.333 204.078 260.333C204.334 260.333 204.574 260.333 204.798 260.333C205.022 260.333 205.198 260.333 205.326 260.333C205.582 260.333 205.774 260.269 205.902 260.141C206.046 260.013 206.142 259.741 206.19 259.325C206.254 258.893 206.302 258.261 206.334 257.429C206.542 257.573 206.798 257.717 207.102 257.861C207.406 258.005 207.718 258.133 208.038 258.245C208.374 258.357 208.67 258.453 208.926 258.533C208.83 259.685 208.662 260.581 208.422 261.221C208.182 261.877 207.838 262.325 207.39 262.565C206.958 262.821 206.358 262.949 205.59 262.949C205.446 262.949 205.23 262.949 204.942 262.949C204.67 262.949 204.366 262.949 204.03 262.949C203.71 262.949 203.406 262.949 203.118 262.949C202.846 262.949 202.638 262.949 202.494 262.949C201.566 262.949 200.846 262.845 200.334 262.637C199.838 262.429 199.494 262.069 199.302 261.557C199.11 261.045 199.014 260.357 199.014 259.493V253.589ZM196.158 240.773H199.23V245.141H196.158V240.773ZM187.446 243.077H208.062V248.789H204.99V245.813H190.374V248.789H187.446V243.077ZM215.454 253.421H231.726V255.893H215.454V253.421ZM212.19 244.661H228.102V247.253H212.19V244.661ZM219.294 249.077H230.166V251.549H219.294V249.077ZM230.622 253.421H233.478C233.478 253.421 233.47 253.493 233.454 253.637C233.454 253.765 233.446 253.917 233.43 254.093C233.43 254.269 233.422 254.413 233.406 254.525C233.278 256.157 233.134 257.501 232.974 258.557C232.83 259.597 232.662 260.421 232.47 261.029C232.278 261.621 232.054 262.053 231.798 262.325C231.526 262.629 231.23 262.845 230.91 262.973C230.606 263.101 230.254 263.189 229.854 263.237C229.534 263.285 229.094 263.309 228.534 263.309C227.99 263.325 227.414 263.317 226.806 263.285C226.79 262.901 226.702 262.461 226.542 261.965C226.398 261.469 226.214 261.037 225.99 260.669C226.518 260.717 227.014 260.749 227.478 260.765C227.942 260.781 228.294 260.781 228.534 260.765C228.726 260.765 228.886 260.749 229.014 260.717C229.158 260.685 229.294 260.613 229.422 260.501C229.582 260.341 229.726 260.021 229.854 259.541C229.998 259.045 230.134 258.333 230.262 257.405C230.39 256.477 230.51 255.285 230.622 253.829V253.421ZM225.51 256.733L227.478 256.061C227.814 256.557 228.126 257.101 228.414 257.693C228.702 258.285 228.91 258.797 229.038 259.229L226.926 260.021C226.83 259.589 226.646 259.061 226.374 258.437C226.102 257.813 225.814 257.245 225.51 256.733ZM214.878 241.757L217.47 240.749C217.902 241.213 218.342 241.741 218.79 242.333C219.238 242.925 219.582 243.445 219.822 243.893L217.062 245.021C216.886 244.589 216.582 244.069 216.15 243.461C215.734 242.837 215.31 242.269 214.878 241.757ZM218.262 257.381L220.59 257.117C220.814 257.885 220.982 258.733 221.094 259.661C221.206 260.573 221.262 261.365 221.262 262.037L218.79 262.349C218.822 261.917 218.814 261.413 218.766 260.837C218.734 260.261 218.67 259.677 218.574 259.085C218.494 258.477 218.39 257.909 218.262 257.381ZM221.886 257.189L224.094 256.685C224.382 257.373 224.646 258.109 224.886 258.893C225.126 259.677 225.286 260.365 225.366 260.957L223.038 261.533C222.974 260.941 222.83 260.237 222.606 259.421C222.382 258.605 222.142 257.861 221.886 257.189ZM215.046 256.589L217.47 257.381C217.31 258.085 217.11 258.789 216.87 259.493C216.646 260.181 216.366 260.845 216.03 261.485C215.694 262.125 215.294 262.701 214.83 263.213L212.598 261.629C213.014 261.213 213.374 260.733 213.678 260.189C213.998 259.645 214.27 259.069 214.494 258.461C214.734 257.837 214.918 257.213 215.046 256.589ZM222.294 240.725L225.246 241.445C224.702 243.157 224.054 244.837 223.302 246.485C222.566 248.117 221.686 249.677 220.662 251.165C219.654 252.637 218.486 253.997 217.158 255.245C215.83 256.477 214.318 257.541 212.622 258.437C212.51 258.213 212.358 257.949 212.166 257.645C211.99 257.325 211.806 257.013 211.614 256.709C211.422 256.405 211.238 256.149 211.062 255.941C212.598 255.173 213.966 254.237 215.166 253.133C216.382 252.029 217.446 250.805 218.358 249.461C219.286 248.117 220.07 246.709 220.71 245.237C221.366 243.749 221.894 242.245 222.294 240.725ZM227.526 244.661H230.19C230.014 245.557 229.814 246.493 229.59 247.469C229.382 248.445 229.182 249.285 228.99 249.989L226.47 249.581C226.662 248.925 226.854 248.149 227.046 247.253C227.238 246.341 227.398 245.477 227.526 244.661ZM229.086 249.077H231.75C231.59 249.957 231.406 250.877 231.198 251.837C230.99 252.797 230.782 253.621 230.574 254.309L228.054 253.973C228.246 253.301 228.438 252.517 228.63 251.621C228.822 250.725 228.974 249.877 229.086 249.077ZM248.55 248.285H257.382V251.189H248.55V248.285ZM236.67 259.205H258.702V262.085H236.67V259.205ZM247.134 240.773H250.206V260.741H247.134V240.773ZM239.742 245.717H242.742V260.597H239.742V245.717Z" fill="white"/>
<path d="M59.462 144.642H66.48V152.472H59.462V144.642ZM38.234 148.296H87.882V158.504H81.328V153.69H44.498V158.504H38.234V148.296ZM60.042 157.054H65.784C65.6293 158.949 65.436 160.921 65.204 162.97C64.972 165.019 64.74 166.779 64.508 168.248H58.708C58.9787 166.701 59.23 164.923 59.462 162.912C59.694 160.863 59.8873 158.91 60.042 157.054ZM50.646 180.254V181.994H75.47V180.254H50.646ZM50.646 185.474V187.272H75.47V185.474H50.646ZM50.646 175.15V176.832H75.47V175.15H50.646ZM43.918 171.496H82.546V190.868H43.918V171.496ZM65.436 193.478L69.96 189.708C72.164 190.288 74.426 190.926 76.746 191.622C79.066 192.279 81.27 192.937 83.358 193.594C85.446 194.251 87.244 194.831 88.752 195.334L82.72 199.22C81.444 198.717 79.878 198.137 78.022 197.48C76.166 196.823 74.1553 196.127 71.99 195.392C69.8633 194.696 67.6787 194.058 65.436 193.478ZM52.676 159.084L51.69 166.276H72.744L73.382 159.084H52.676ZM46.934 155.546H80.11L78.776 169.814H45.136L46.934 155.546ZM55.228 189.592L60.622 193.304C59.0367 194.193 57.142 195.025 54.938 195.798C52.734 196.571 50.414 197.248 47.978 197.828C45.542 198.408 43.164 198.872 40.844 199.22C40.38 198.563 39.742 197.789 38.93 196.9C38.118 196.011 37.364 195.276 36.668 194.696C38.9493 194.387 41.2693 193.961 43.628 193.42C46.0253 192.879 48.2487 192.279 50.298 191.622C52.386 190.926 54.0293 190.249 55.228 189.592ZM37.248 160.186H50.182V160.824H75.122V160.186H88.868V165.174H75.122V164.536H50.182V165.174H37.248V160.186ZM98.09 147.484H148.202V152.936H98.09V147.484ZM119.202 144.758H126.394V178.224H119.202V144.758ZM108.066 166.044V168.654H137.356V166.044H108.066ZM108.066 159.548V162.158H137.356V159.548H108.066ZM101.512 155.488H144.2V172.772H101.512V155.488ZM130.976 174.57L135.732 171.38C137.317 172.115 138.922 172.985 140.546 173.99C142.17 174.995 143.697 176.02 145.128 177.064C146.559 178.108 147.738 179.113 148.666 180.08L143.794 183.734C142.866 182.729 141.706 181.665 140.314 180.544C138.922 179.423 137.395 178.34 135.732 177.296C134.108 176.213 132.523 175.305 130.976 174.57ZM98.322 176.02C101.029 176.02 104.083 176.039 107.486 176.078C110.889 176.078 114.523 176.078 118.39 176.078C122.257 176.039 126.201 176.02 130.222 176.02C134.282 176.02 138.303 175.981 142.286 175.904L141.938 181.182C136.757 181.298 131.517 181.414 126.22 181.53C120.961 181.646 115.954 181.723 111.198 181.762C106.481 181.801 102.285 181.839 98.612 181.878L98.322 176.02ZM109.11 184.256H116.012V190.81C116.012 191.622 116.244 192.144 116.708 192.376C117.211 192.569 118.293 192.666 119.956 192.666C120.265 192.666 120.729 192.666 121.348 192.666C122.005 192.666 122.74 192.666 123.552 192.666C124.403 192.666 125.234 192.666 126.046 192.666C126.897 192.666 127.67 192.666 128.366 192.666C129.101 192.666 129.661 192.666 130.048 192.666C130.937 192.666 131.595 192.55 132.02 192.318C132.484 192.086 132.813 191.603 133.006 190.868C133.238 190.133 133.393 189.031 133.47 187.562C134.205 188.065 135.152 188.529 136.312 188.954C137.511 189.341 138.574 189.631 139.502 189.824C139.231 192.067 138.787 193.807 138.168 195.044C137.588 196.281 136.699 197.132 135.5 197.596C134.34 198.06 132.735 198.292 130.686 198.292C130.338 198.292 129.777 198.292 129.004 198.292C128.231 198.292 127.361 198.292 126.394 198.292C125.427 198.292 124.461 198.292 123.494 198.292C122.527 198.292 121.657 198.292 120.884 198.292C120.149 198.292 119.608 198.292 119.26 198.292C116.553 198.292 114.465 198.06 112.996 197.596C111.527 197.171 110.502 196.417 109.922 195.334C109.381 194.251 109.11 192.782 109.11 190.926V184.256ZM117.868 184.024L122.392 180.37C123.475 180.95 124.577 181.646 125.698 182.458C126.819 183.231 127.883 184.024 128.888 184.836C129.893 185.648 130.705 186.421 131.324 187.156L126.51 191.216C125.969 190.481 125.215 189.689 124.248 188.838C123.281 187.987 122.237 187.137 121.116 186.286C120.033 185.435 118.951 184.681 117.868 184.024ZM137.472 185.938L143.446 184.024C144.374 185.184 145.244 186.441 146.056 187.794C146.907 189.109 147.641 190.443 148.26 191.796C148.879 193.111 149.304 194.329 149.536 195.45L143.156 197.48C142.924 196.436 142.518 195.257 141.938 193.942C141.358 192.627 140.681 191.274 139.908 189.882C139.135 188.451 138.323 187.137 137.472 185.938ZM101.744 183.676L107.718 186.17C107.293 187.446 106.809 188.761 106.268 190.114C105.727 191.467 105.127 192.782 104.47 194.058C103.851 195.373 103.136 196.533 102.324 197.538L96.35 194.116C97.0847 193.227 97.7807 192.202 98.438 191.042C99.134 189.882 99.7527 188.664 100.294 187.388C100.874 186.112 101.357 184.875 101.744 183.676ZM180.044 145.512H187.642V190.462C187.642 192.627 187.371 194.251 186.83 195.334C186.289 196.417 185.361 197.248 184.046 197.828C182.693 198.369 180.991 198.717 178.942 198.872C176.931 199.065 174.515 199.143 171.692 199.104C171.576 198.447 171.363 197.673 171.054 196.784C170.745 195.933 170.397 195.063 170.01 194.174C169.662 193.285 169.295 192.531 168.908 191.912C170.184 191.951 171.46 191.989 172.736 192.028C174.012 192.067 175.153 192.086 176.158 192.086C177.163 192.047 177.879 192.028 178.304 192.028C178.923 192.028 179.367 191.912 179.638 191.68C179.909 191.448 180.044 191.042 180.044 190.462V145.512ZM193.964 160.766L200.808 158.214C202.393 160.959 203.921 163.898 205.39 167.03C206.898 170.123 208.213 173.178 209.334 176.194C210.494 179.171 211.325 181.878 211.828 184.314L204.172 187.33C203.785 184.971 203.07 182.284 202.026 179.268C201.021 176.213 199.803 173.081 198.372 169.872C196.98 166.624 195.511 163.589 193.964 160.766ZM164.848 158.852L172.736 160.186C172.079 163.047 171.286 166.102 170.358 169.35C169.43 172.559 168.328 175.633 167.052 178.572C165.815 181.472 164.384 184.005 162.76 186.17C162.18 185.745 161.465 185.3 160.614 184.836C159.802 184.372 158.971 183.947 158.12 183.56C157.308 183.135 156.573 182.787 155.916 182.516C157.501 180.544 158.874 178.205 160.034 175.498C161.233 172.753 162.238 169.93 163.05 167.03C163.862 164.091 164.461 161.365 164.848 158.852ZM244.25 187.446L249.644 185.996C250.301 187.001 250.862 188.103 251.326 189.302C251.79 190.501 252.119 191.564 252.312 192.492L246.628 194.174C246.512 193.246 246.222 192.144 245.758 190.868C245.294 189.592 244.791 188.451 244.25 187.446ZM259.562 185.88L265.594 187.504C264.975 188.741 264.357 189.94 263.738 191.1C263.158 192.26 262.617 193.246 262.114 194.058L256.952 192.55C257.416 191.622 257.899 190.52 258.402 189.244C258.905 187.968 259.291 186.847 259.562 185.88ZM247.44 179.442V182.342H261.824V179.442H247.44ZM241.64 175.324H267.798V186.46H241.64V175.324ZM245.352 159.316V161.984H263.68V159.316H245.352ZM245.352 152.704V155.314H263.68V152.704H245.352ZM239.842 148.47H269.48V166.218H239.842V148.47ZM238.972 168.19H270.466V173.41H238.972V168.19ZM237.812 192.956H271.278V198.118H237.812V192.956ZM247.614 144.7H252.718V151.602H247.614V144.7ZM256.14 144.7H261.302V151.602H256.14V144.7ZM248.6 150.442H252.718V165.406H248.6V150.442ZM256.14 150.442H260.258V165.406H256.14V150.442ZM217.338 159.896H237.696V165.928H217.338V159.896ZM218.73 148.354H236.536V154.328H218.73V148.354ZM233.114 168.886H237.522V190.462H233.114V168.886ZM224.936 162.912H230.678V199.162H224.936V162.912ZM218.15 168.944H222.558V175.904C222.558 178.881 222.423 182.013 222.152 185.3C221.881 188.548 221.243 191.564 220.238 194.348C219.774 193.884 219.155 193.362 218.382 192.782C217.609 192.202 216.932 191.757 216.352 191.448C217.125 189.089 217.609 186.518 217.802 183.734C218.034 180.95 218.15 178.301 218.15 175.788V168.944Z" fill="white"/>
<circle cx="78.998" cy="67.1494" r="56" fill="#FF9C1E"/>
<path d="M79.3398 103.144C74.0368 103.144 69.3256 102.185 65.2063 100.267C61.087 98.3497 57.8318 95.71 55.4407 92.3483C53.0733 88.9865 51.8422 85.1276 51.7475 80.7716H68.793C68.935 83.4468 70.024 85.6011 72.06 87.2346C74.096 88.8445 76.5226 89.6494 79.3398 89.6494C81.5415 89.6494 83.4947 89.1641 85.1992 88.1934C86.9038 87.2228 88.2414 85.8615 89.212 84.1096C90.1826 82.3341 90.6561 80.2981 90.6325 78.0017C90.6561 75.6579 90.1708 73.6101 89.1765 71.8582C88.2058 70.1063 86.8564 68.7451 85.1282 67.7744C83.4237 66.7801 81.4587 66.2829 79.2333 66.2829C77.1263 66.2593 75.1258 66.7209 73.2319 67.6679C71.3616 68.6148 69.9412 69.9051 68.9705 71.5386L53.4521 68.6267L56.6126 29.4221H103.275V43.5912H71.0657L69.3967 60.7432H69.8228C71.0302 58.7309 72.9715 57.0737 75.6467 55.7716C78.3455 54.4458 81.4113 53.7829 84.8441 53.7829C89.2002 53.7829 93.0827 54.8009 96.4918 56.8369C99.9246 58.8492 102.623 61.6428 104.588 65.2176C106.577 68.7924 107.571 72.888 107.571 77.5045C107.571 82.4998 106.388 86.9269 104.02 90.7858C101.676 94.6447 98.3858 97.675 94.1481 99.8767C89.9341 102.055 84.998 103.144 79.3398 103.144Z" fill="white"/>
<rect x="451.245" y="116.148" width="8.49207" height="60.6576" fill="#FF9C1E"/>
<rect x="469.442" y="116.148" width="8.49207" height="60.6576" fill="#FF9C1E"/>
<rect x="487.64" y="116.148" width="8.49207" height="60.6576" fill="#FF9C1E"/>
<rect x="429.408" y="150.117" width="90.9864" height="55.805" fill="#FFB961"/>
<rect x="409.998" y="199.855" width="127.381" height="60.6576" fill="#FF9C1E"/>
<path d="M450.019 112.902L455.117 106L459.949 112.902C460.485 117.228 456.683 119.392 455.117 118.941C450.867 119.212 449.839 115.087 450.019 112.902Z" fill="#FFB961"/>
<path d="M487.019 112.902L492.117 106L496.949 112.902C497.485 117.228 493.683 119.392 492.117 118.941C487.867 119.212 486.839 115.087 487.019 112.902Z" fill="#FFB961"/>
<path d="M468.019 112.902L473.117 106L477.949 112.902C478.485 117.228 474.683 119.392 473.117 118.941C468.867 119.212 467.839 115.087 468.019 112.902Z" fill="#FFB961"/>
</svg>
