<svg width="570" height="315" viewBox="0 0 570 315" fill="none" xmlns="http://www.w3.org/2000/svg">
<path d="M-0.000976562 31.9266H539.999C556.568 31.9266 569.999 45.3581 569.999 61.9266V314.298H29.999C13.4305 314.298 -0.000976562 300.867 -0.000976562 284.298V31.9266Z" fill="#39BF63"/>
<line x1="347.796" y1="220.798" x2="38.6431" y2="220.798" stroke="white"/>
<path d="M166.057 84.7462C165.395 85.6849 164.606 86.6556 163.689 87.6582C162.771 88.6395 161.758 89.6209 160.649 90.6022C159.539 91.5622 158.355 92.4796 157.097 93.3542C155.859 94.2289 154.579 95.0289 153.257 95.7542C153.022 95.3062 152.659 94.7836 152.169 94.1862C151.699 93.5676 151.251 93.0662 150.825 92.6822C152.681 91.7222 154.451 90.5915 156.137 89.2902C157.822 87.9676 159.337 86.5809 160.681 85.1302C162.025 83.6795 163.091 82.3035 163.881 81.0022H167.881C168.734 82.2182 169.694 83.3915 170.761 84.5222C171.827 85.6529 172.947 86.7089 174.121 87.6902C175.315 88.6502 176.542 89.5249 177.801 90.3142C179.081 91.0822 180.361 91.7436 181.641 92.2982C181.15 92.7889 180.691 93.3329 180.265 93.9302C179.838 94.5276 179.443 95.1249 179.081 95.7222C177.865 95.0396 176.627 94.2716 175.369 93.4182C174.11 92.5435 172.905 91.6262 171.753 90.6662C170.601 89.6849 169.534 88.6929 168.553 87.6902C167.571 86.6875 166.739 85.7062 166.057 84.7462ZM155.209 99.7862H177.097V103.114H155.209V99.7862ZM156.841 92.6822H175.625V96.0742H156.841V92.6822ZM152.617 106.986H179.977V110.41H152.617V106.986ZM164.073 94.1862H168.105V108.874H164.073V94.1862ZM197.449 81.1302H201.417V85.7062H197.449V81.1302ZM185.897 83.6582H213.161V90.8582H209.225V87.1462H189.673V90.8582H185.897V83.6582ZM190.793 89.1622H208.073V92.4262H190.793V89.1622ZM193.897 94.8902L196.873 93.1622C198.387 94.2076 199.603 95.3809 200.521 96.6822C201.438 97.9622 202.11 99.2742 202.537 100.618C202.963 101.941 203.166 103.221 203.145 104.458C203.123 105.674 202.921 106.762 202.537 107.722C202.153 108.661 201.609 109.386 200.905 109.898C200.307 110.41 199.71 110.762 199.113 110.954C198.537 111.146 197.822 111.242 196.969 111.242C196.585 111.264 196.158 111.264 195.689 111.242C195.219 111.221 194.739 111.2 194.249 111.178C194.227 110.645 194.131 110.026 193.961 109.322C193.79 108.64 193.523 108.032 193.161 107.498C193.758 107.541 194.313 107.584 194.825 107.626C195.358 107.648 195.827 107.658 196.233 107.658C196.638 107.658 197.001 107.616 197.321 107.53C197.641 107.445 197.929 107.264 198.185 106.986C198.569 106.688 198.846 106.229 199.017 105.61C199.209 104.97 199.273 104.224 199.209 103.37C199.166 102.496 198.953 101.578 198.569 100.618C198.206 99.6369 197.641 98.6556 196.873 97.6742C196.126 96.6929 195.134 95.7649 193.897 94.8902ZM198.985 89.9942L202.153 91.3382C201.022 92.4902 199.657 93.5356 198.057 94.4742C196.457 95.3916 194.75 96.2022 192.937 96.9062C191.145 97.6102 189.363 98.1969 187.593 98.6662C187.465 98.4102 187.283 98.1009 187.049 97.7382C186.814 97.3542 186.569 96.9702 186.313 96.5862C186.057 96.2022 185.822 95.8929 185.609 95.6582C187.337 95.3169 189.043 94.8796 190.729 94.3462C192.435 93.8129 194.003 93.1836 195.433 92.4582C196.862 91.7116 198.046 90.8902 198.985 89.9942ZM196.489 96.3622L198.953 98.0902C198.078 98.7729 197.011 99.4769 195.753 100.202C194.494 100.928 193.182 101.6 191.817 102.218C190.473 102.837 189.203 103.36 188.009 103.786C187.795 103.36 187.507 102.858 187.145 102.282C186.782 101.706 186.43 101.237 186.089 100.874C186.942 100.661 187.849 100.394 188.809 100.074C189.79 99.7329 190.75 99.3596 191.689 98.9542C192.649 98.5489 193.545 98.1329 194.377 97.7062C195.209 97.2582 195.913 96.8102 196.489 96.3622ZM199.081 99.4342L201.705 101.386C200.851 102.197 199.838 103.008 198.665 103.818C197.513 104.629 196.265 105.408 194.921 106.154C193.598 106.88 192.254 107.552 190.889 108.17C189.523 108.789 188.211 109.312 186.953 109.738C186.718 109.248 186.409 108.704 186.025 108.106C185.662 107.488 185.299 106.965 184.937 106.538C186.195 106.24 187.497 105.834 188.841 105.322C190.185 104.81 191.497 104.234 192.777 103.594C194.057 102.954 195.241 102.282 196.329 101.578C197.417 100.853 198.334 100.138 199.081 99.4342ZM203.913 90.5382C204.446 92.7782 205.171 94.8796 206.089 96.8422C207.006 98.8049 208.147 100.533 209.513 102.026C210.899 103.52 212.542 104.693 214.441 105.546C214.163 105.802 213.854 106.122 213.513 106.506C213.171 106.89 212.841 107.296 212.521 107.722C212.222 108.149 211.966 108.533 211.753 108.874C209.747 107.786 208.03 106.378 206.601 104.65C205.171 102.901 203.987 100.896 203.049 98.6342C202.11 96.3516 201.331 93.8769 200.713 91.2102L203.913 90.5382ZM210.185 92.6182L213.161 95.2102C212.435 95.7649 211.657 96.3302 210.825 96.9062C209.993 97.4609 209.171 97.9836 208.361 98.4742C207.55 98.9436 206.793 99.3702 206.089 99.7542L203.657 97.4182C204.318 97.0342 205.043 96.5756 205.833 96.0422C206.643 95.4876 207.433 94.9116 208.201 94.3142C208.969 93.7169 209.63 93.1516 210.185 92.6182ZM224.777 91.4342H240.809V94.8262H224.777V91.4342ZM224.361 106.634H240.905V110.026H224.361V106.634ZM222.665 98.0262H243.081V111.21H239.113V101.386H226.441V111.21H222.665V98.0262ZM232.649 84.9062C231.774 86.1649 230.665 87.4449 229.321 88.7462C227.998 90.0476 226.515 91.2956 224.873 92.4902C223.251 93.6849 221.566 94.7622 219.817 95.7222C219.646 95.4236 219.422 95.0822 219.145 94.6982C218.889 94.3142 218.601 93.9409 218.281 93.5782C217.982 93.1942 217.683 92.8742 217.385 92.6182C219.241 91.7009 221.011 90.6022 222.697 89.3222C224.403 88.0422 225.929 86.6875 227.273 85.2582C228.617 83.8289 229.683 82.4635 230.473 81.1622H234.473C235.326 82.3782 236.286 83.5409 237.353 84.6502C238.419 85.7596 239.539 86.7942 240.713 87.7542C241.907 88.7142 243.145 89.5676 244.425 90.3142C245.705 91.0609 246.974 91.6902 248.233 92.2022C247.763 92.6929 247.315 93.2476 246.889 93.8662C246.462 94.4636 246.078 95.0609 245.737 95.6582C244.499 95.0182 243.251 94.2822 241.993 93.4502C240.734 92.5969 239.518 91.7009 238.345 90.7622C237.193 89.8022 236.126 88.8315 235.145 87.8502C234.163 86.8475 233.331 85.8662 232.649 84.9062ZM251.113 92.3302H269.769V95.2742H251.113V92.3302ZM258.697 90.4742H262.185V93.9622H258.697V90.4742ZM256.681 99.0502V101.002H264.201V99.0502H256.681ZM253.385 96.5862H267.657V103.466H253.385V96.5862ZM256.617 87.5622V88.8422H264.393V87.5622H256.617ZM256.617 84.2982V85.5782H264.393V84.2982H256.617ZM253.225 82.1862H267.945V90.9862H253.225V82.1862ZM258.697 101.802H262.185V107.914C262.185 108.64 262.089 109.205 261.897 109.61C261.726 110.037 261.363 110.368 260.809 110.602C260.275 110.837 259.678 110.986 259.017 111.05C258.355 111.114 257.587 111.146 256.713 111.146C256.585 110.677 256.382 110.165 256.105 109.61C255.827 109.056 255.561 108.586 255.305 108.202C255.923 108.224 256.51 108.245 257.065 108.266C257.619 108.266 257.993 108.256 258.185 108.234C258.377 108.234 258.505 108.213 258.569 108.17C258.654 108.106 258.697 107.989 258.697 107.818V101.802ZM254.089 103.914L257.289 104.778C256.841 105.781 256.265 106.794 255.561 107.818C254.878 108.821 254.185 109.674 253.481 110.378C253.289 110.186 253.022 109.973 252.681 109.738C252.361 109.504 252.019 109.269 251.657 109.034C251.315 108.821 251.017 108.65 250.761 108.522C251.443 107.925 252.073 107.221 252.649 106.41C253.246 105.6 253.726 104.768 254.089 103.914ZM263.177 105.322L266.025 103.946C266.601 104.608 267.219 105.365 267.881 106.218C268.542 107.05 269.043 107.776 269.385 108.394L266.377 109.93C266.185 109.525 265.907 109.056 265.545 108.522C265.182 107.989 264.787 107.445 264.361 106.89C263.955 106.314 263.561 105.792 263.177 105.322ZM276.297 81.6102L279.977 83.0822C279.251 84.1062 278.419 85.0876 277.481 86.0262C276.542 86.9435 275.55 87.7969 274.505 88.5862C273.481 89.3542 272.457 90.0476 271.433 90.6662C271.113 90.2396 270.697 89.7702 270.185 89.2582C269.673 88.7462 269.171 88.3089 268.681 87.9462C269.598 87.4769 270.537 86.9115 271.497 86.2502C272.457 85.5676 273.363 84.8316 274.217 84.0422C275.07 83.2315 275.763 82.4209 276.297 81.6102ZM276.873 90.5382L280.457 92.0422C279.689 93.0662 278.814 94.0582 277.833 95.0182C276.851 95.9569 275.827 96.8316 274.761 97.6422C273.694 98.4529 272.627 99.1782 271.561 99.8182C271.262 99.3916 270.857 98.9222 270.345 98.4102C269.833 97.8982 269.331 97.4609 268.841 97.0982C269.779 96.6076 270.75 96.0102 271.753 95.3062C272.777 94.6022 273.737 93.8449 274.633 93.0342C275.55 92.2022 276.297 91.3702 276.873 90.5382ZM277.577 99.2422L281.353 100.586C280.542 102.144 279.571 103.573 278.441 104.874C277.31 106.176 276.062 107.349 274.697 108.394C273.331 109.44 271.881 110.368 270.345 111.178C270.067 110.666 269.673 110.112 269.161 109.514C268.649 108.917 268.147 108.394 267.657 107.946C269.022 107.349 270.334 106.624 271.593 105.77C272.851 104.896 273.993 103.914 275.017 102.826C276.062 101.717 276.915 100.522 277.577 99.2422ZM284.361 97.3542C285.406 97.1409 286.579 96.8849 287.881 96.5862C289.203 96.2662 290.59 95.9249 292.041 95.5622C293.513 95.1996 294.963 94.8476 296.393 94.5062L296.873 98.1542C294.91 98.6876 292.915 99.2209 290.889 99.7542C288.883 100.288 287.059 100.768 285.417 101.194L284.361 97.3542ZM284.713 87.2102H296.361V90.8262H284.713V87.2102ZM288.841 81.0982H292.745V106.73C292.745 107.669 292.638 108.405 292.425 108.938C292.211 109.472 291.827 109.888 291.273 110.186C290.718 110.485 290.046 110.677 289.257 110.762C288.467 110.848 287.486 110.89 286.313 110.89C286.249 110.378 286.11 109.77 285.897 109.066C285.683 108.384 285.449 107.786 285.193 107.274C285.811 107.296 286.419 107.317 287.017 107.338C287.614 107.338 288.019 107.338 288.233 107.338C288.638 107.338 288.841 107.136 288.841 106.73V81.0982ZM296.873 83.5302H314.313V87.3702H296.873V83.5302ZM305.033 84.9382H309.161V106.154C309.161 107.264 309.011 108.128 308.713 108.746C308.435 109.386 307.934 109.877 307.209 110.218C306.483 110.56 305.577 110.773 304.489 110.858C303.401 110.944 302.11 110.986 300.617 110.986C300.553 110.581 300.435 110.122 300.265 109.61C300.094 109.098 299.902 108.586 299.689 108.074C299.497 107.562 299.294 107.136 299.081 106.794C299.742 106.816 300.414 106.837 301.097 106.858C301.801 106.88 302.43 106.89 302.985 106.89C303.539 106.89 303.923 106.89 304.137 106.89C304.457 106.89 304.681 106.837 304.809 106.73C304.958 106.602 305.033 106.389 305.033 106.09V84.9382ZM318.057 92.4262H347.209V96.2342H318.057V92.4262ZM332.329 85.0342H343.721V88.7142H332.329V85.0342ZM329.833 81.0982H333.929V94.2502H329.833V81.0982ZM329.833 94.8582H333.929V111.146H329.833V94.8582ZM332.745 100.97L334.697 97.8982C335.507 98.1329 336.393 98.4102 337.353 98.7302C338.313 99.0289 339.283 99.3596 340.265 99.7222C341.246 100.064 342.174 100.405 343.049 100.746C343.923 101.088 344.659 101.408 345.257 101.706L343.209 105.194C342.633 104.874 341.918 104.533 341.065 104.17C340.233 103.808 339.337 103.434 338.377 103.05C337.417 102.666 336.446 102.293 335.465 101.93C334.505 101.568 333.598 101.248 332.745 100.97ZM368.164 93.2262H388.612V96.6822H368.164V93.2262ZM369.284 86.7622H387.524V90.1542H369.284V86.7622ZM376.036 88.4262H379.876V93.5462C379.876 94.5702 379.748 95.6369 379.492 96.7462C379.257 97.8556 378.809 98.9649 378.148 100.074C377.508 101.162 376.58 102.218 375.364 103.242C374.169 104.245 372.622 105.162 370.724 105.994C370.553 105.717 370.318 105.408 370.02 105.066C369.721 104.725 369.412 104.384 369.092 104.042C368.772 103.701 368.462 103.424 368.164 103.21C369.977 102.549 371.406 101.813 372.452 101.002C373.518 100.192 374.297 99.3489 374.788 98.4742C375.3 97.5996 375.63 96.7462 375.78 95.9142C375.95 95.0609 376.036 94.2609 376.036 93.5142V88.4262ZM380.452 95.6582C381.113 97.4289 382.116 98.9329 383.46 100.17C384.825 101.386 386.574 102.261 388.708 102.794C388.43 103.05 388.132 103.37 387.812 103.754C387.513 104.138 387.225 104.533 386.948 104.938C386.692 105.322 386.468 105.685 386.276 106.026C383.929 105.258 382.03 104.053 380.58 102.41C379.129 100.768 378.009 98.7516 377.22 96.3622L380.452 95.6582ZM366.884 93.5782V105.386H363.14V97.1302H359.428V93.5782H366.884ZM366.884 103.722C367.545 104.768 368.473 105.536 369.668 106.026C370.862 106.517 372.292 106.794 373.956 106.858C374.894 106.901 376.004 106.933 377.284 106.954C378.585 106.954 379.95 106.944 381.38 106.922C382.809 106.901 384.206 106.858 385.572 106.794C386.958 106.73 388.185 106.656 389.252 106.57C389.124 106.869 388.974 107.253 388.804 107.722C388.633 108.192 388.473 108.672 388.324 109.162C388.196 109.653 388.1 110.09 388.036 110.474C387.076 110.538 385.977 110.581 384.74 110.602C383.502 110.645 382.233 110.666 380.932 110.666C379.63 110.688 378.372 110.688 377.156 110.666C375.94 110.645 374.852 110.613 373.892 110.57C371.929 110.485 370.254 110.176 368.868 109.642C367.481 109.13 366.254 108.256 365.188 107.018C364.484 107.616 363.758 108.234 363.012 108.874C362.286 109.514 361.486 110.176 360.612 110.858L358.724 106.858C359.47 106.41 360.249 105.92 361.06 105.386C361.87 104.853 362.649 104.298 363.396 103.722H366.884ZM359.46 84.1702L362.308 81.8662C362.969 82.2929 363.641 82.7942 364.324 83.3702C365.006 83.9249 365.646 84.5009 366.244 85.0982C366.841 85.6742 367.321 86.2076 367.684 86.6982L364.644 89.2582C364.324 88.7462 363.876 88.1916 363.3 87.5942C362.745 86.9969 362.126 86.3996 361.444 85.8022C360.761 85.1835 360.1 84.6395 359.46 84.1702ZM382.66 81.0982L386.564 82.3142C385.988 83.2315 385.39 84.1382 384.772 85.0342C384.174 85.9089 383.62 86.6556 383.108 87.2742L379.972 86.1862C380.292 85.6955 380.622 85.1622 380.964 84.5862C381.305 83.9889 381.625 83.3915 381.924 82.7942C382.222 82.1755 382.468 81.6102 382.66 81.0982ZM370.116 82.5062L373.348 81.1622C373.945 81.8876 374.51 82.7089 375.044 83.6262C375.577 84.5435 375.95 85.3542 376.164 86.0582L372.708 87.5302C372.537 86.8475 372.196 86.0369 371.684 85.0982C371.193 84.1382 370.67 83.2742 370.116 82.5062Z" fill="white"/>
<path d="M50.2936 241.29H58.2856V243.954H50.2936V241.29ZM50.5576 236.898L53.2936 237.282C53.0696 238.93 52.7736 240.538 52.4056 242.106C52.0536 243.674 51.6136 245.138 51.0856 246.498C50.5736 247.858 49.9656 249.05 49.2616 250.074C49.1336 249.898 48.9416 249.674 48.6856 249.402C48.4456 249.13 48.1896 248.866 47.9176 248.61C47.6456 248.338 47.4056 248.122 47.1976 247.962C47.8216 247.098 48.3496 246.082 48.7816 244.914C49.2136 243.746 49.5736 242.482 49.8616 241.122C50.1496 239.746 50.3816 238.338 50.5576 236.898ZM54.4216 242.85L57.1096 243.042C56.8376 245.698 56.3976 248.066 55.7896 250.146C55.1816 252.226 54.3256 254.042 53.2216 255.594C52.1176 257.146 50.6856 258.466 48.9256 259.554C48.8456 259.346 48.7096 259.09 48.5176 258.786C48.3416 258.498 48.1496 258.202 47.9416 257.898C47.7336 257.61 47.5416 257.37 47.3656 257.178C48.9496 256.314 50.2216 255.21 51.1816 253.866C52.1576 252.506 52.8936 250.906 53.3896 249.066C53.8856 247.226 54.2296 245.154 54.4216 242.85ZM51.8056 243.522C52.0936 245.538 52.4936 247.442 53.0056 249.234C53.5336 251.026 54.2296 252.61 55.0936 253.986C55.9736 255.346 57.0776 256.418 58.4056 257.202C58.2136 257.378 57.9896 257.602 57.7336 257.874C57.4936 258.146 57.2616 258.426 57.0376 258.714C56.8296 259.002 56.6616 259.266 56.5336 259.506C55.0776 258.53 53.8776 257.274 52.9336 255.738C52.0056 254.202 51.2616 252.434 50.7016 250.434C50.1416 248.418 49.7016 246.226 49.3816 243.858L51.8056 243.522ZM41.0296 236.898H43.4776V249.738H41.0296V236.898ZM39.6376 239.898V243.378H44.9896V239.898H39.6376ZM37.2616 238.098H47.4856V245.202H37.2616V238.098ZM39.1336 247.698V248.706H45.4696V247.698H39.1336ZM36.7816 245.97H47.9656V250.434H36.7816V245.97ZM35.7976 251.418C36.9336 251.418 38.2216 251.41 39.6616 251.394C41.1176 251.378 42.6456 251.362 44.2456 251.346C45.8616 251.314 47.4776 251.29 49.0936 251.274L48.9976 253.314C47.4296 253.346 45.8456 253.378 44.2456 253.41C42.6616 253.442 41.1496 253.474 39.7096 253.506C38.2856 253.522 37.0136 253.538 35.8936 253.554L35.7976 251.418ZM40.4536 249.93L42.8296 250.458C42.4776 251.098 42.1016 251.77 41.7016 252.474C41.3176 253.178 40.9256 253.85 40.5256 254.49C40.1416 255.13 39.7816 255.706 39.4456 256.218L37.1416 255.642C37.4776 255.146 37.8376 254.57 38.2216 253.914C38.6216 253.258 39.0136 252.586 39.3976 251.898C39.7976 251.194 40.1496 250.538 40.4536 249.93ZM38.9896 255.666L40.3576 253.986C41.2696 254.306 42.1896 254.666 43.1176 255.066C44.0456 255.45 44.9176 255.85 45.7336 256.266C46.5496 256.666 47.2376 257.05 47.7976 257.418L46.0456 259.194C45.5176 258.81 44.8696 258.402 44.1016 257.97C43.3496 257.554 42.5336 257.146 41.6536 256.746C40.7736 256.346 39.8856 255.986 38.9896 255.666ZM44.5336 252.426L46.9576 252.69C46.6216 254.114 46.0616 255.274 45.2776 256.17C44.5096 257.066 43.4776 257.77 42.1816 258.282C40.8856 258.81 39.2776 259.234 37.3576 259.554C37.2936 259.17 37.1576 258.77 36.9496 258.354C36.7576 257.954 36.5656 257.618 36.3736 257.346C37.9896 257.202 39.3416 256.954 40.4296 256.602C41.5336 256.25 42.4136 255.738 43.0696 255.066C43.7416 254.394 44.2296 253.514 44.5336 252.426ZM35.7256 240.618H38.1496V240.762H46.3336V240.618H49.0696V242.658H46.3336V242.514H38.1496V242.658H35.7256V240.618ZM66.8776 241.314V242.13H76.8616V241.314H66.8776ZM66.8776 239.106V239.922H76.8616V239.106H66.8776ZM64.1176 237.642H79.7656V243.594H64.1176V237.642ZM66.3736 250.89V251.73H77.5336V250.89H66.3736ZM66.3736 248.61V249.45H77.5336V248.61H66.3736ZM63.6856 247.098H80.3656V253.266H63.6856V247.098ZM70.5496 247.602H73.3336V257.898H70.5496V247.602ZM61.0696 244.314H82.9336V246.378H61.0696V244.314ZM63.1816 254.058H80.8216V255.882H63.1816V254.058ZM61.0216 256.77H82.9816V258.858H61.0216V256.77ZM86.2456 239.802H107.654V242.514H86.2456V239.802ZM92.7256 248.466H103.142V250.866H92.7256V248.466ZM90.5896 244.41H102.71V246.93H93.4216V259.434H90.5896V244.41ZM102.134 244.41H104.966V256.338C104.966 257.042 104.878 257.602 104.702 258.018C104.542 258.434 104.214 258.754 103.718 258.978C103.238 259.202 102.646 259.338 101.942 259.386C101.238 259.434 100.398 259.458 99.4216 259.458C99.3736 259.058 99.2616 258.586 99.0856 258.042C98.9256 257.514 98.7496 257.058 98.5576 256.674C98.9736 256.69 99.3896 256.706 99.8056 256.722C100.222 256.738 100.59 256.746 100.91 256.746C101.246 256.746 101.478 256.746 101.606 256.746C101.814 256.73 101.95 256.69 102.014 256.626C102.094 256.562 102.134 256.45 102.134 256.29V244.41ZM93.6856 236.898L96.6616 237.57C96.1016 239.362 95.3976 241.146 94.5496 242.922C93.7176 244.682 92.7096 246.322 91.5256 247.842C90.3576 249.362 88.9896 250.666 87.4216 251.754C87.2776 251.546 87.0856 251.306 86.8456 251.034C86.6216 250.746 86.3896 250.474 86.1496 250.218C85.9256 249.946 85.7176 249.722 85.5256 249.546C86.5816 248.842 87.5416 248.01 88.4056 247.05C89.2856 246.09 90.0616 245.05 90.7336 243.93C91.4216 242.794 92.0056 241.634 92.4856 240.45C92.9816 239.25 93.3816 238.066 93.6856 236.898ZM92.7256 252.426H103.142V254.826H92.7256V252.426ZM122.03 242.37H130.286V244.722H122.03V242.37ZM117.902 256.29C118.622 256.178 119.454 256.042 120.398 255.882C121.358 255.722 122.374 255.554 123.446 255.378C124.518 255.186 125.582 254.994 126.638 254.802L126.878 257.298C125.486 257.618 124.086 257.93 122.678 258.234C121.27 258.554 119.99 258.834 118.838 259.074L117.902 256.29ZM120.398 237.978H123.182V256.938H120.398V237.978ZM122.03 237.978H131.606V249.21H122.03V246.738H128.75V240.45H122.03V237.978ZM127.022 247.554C127.326 248.994 127.742 250.33 128.27 251.562C128.798 252.778 129.47 253.85 130.286 254.778C131.102 255.706 132.102 256.426 133.286 256.938C133.078 257.13 132.854 257.362 132.614 257.634C132.374 257.922 132.142 258.218 131.918 258.522C131.71 258.842 131.542 259.13 131.414 259.386C130.118 258.698 129.03 257.802 128.15 256.698C127.286 255.578 126.574 254.282 126.014 252.81C125.454 251.338 124.998 249.722 124.646 247.962L127.022 247.554ZM130.502 249.378L132.758 250.938C132.102 251.578 131.406 252.21 130.67 252.834C129.95 253.442 129.286 253.962 128.678 254.394L126.902 253.026C127.286 252.706 127.694 252.338 128.126 251.922C128.574 251.506 129.006 251.074 129.422 250.626C129.838 250.178 130.198 249.762 130.502 249.378ZM111.662 237.93H117.638V240.522H114.35V259.458H111.662V237.93ZM116.846 237.93H117.35L117.758 237.834L119.726 238.962C119.502 239.666 119.262 240.41 119.006 241.194C118.75 241.978 118.494 242.754 118.238 243.522C117.982 244.29 117.726 244.986 117.47 245.61C118.254 246.538 118.758 247.418 118.982 248.25C119.222 249.066 119.342 249.826 119.342 250.53C119.342 251.33 119.254 251.986 119.078 252.498C118.902 253.01 118.614 253.41 118.214 253.698C118.022 253.842 117.798 253.954 117.542 254.034C117.302 254.114 117.054 254.178 116.798 254.226C116.574 254.258 116.31 254.274 116.006 254.274C115.718 254.274 115.422 254.274 115.118 254.274C115.102 253.906 115.038 253.474 114.926 252.978C114.83 252.482 114.686 252.058 114.494 251.706C114.718 251.722 114.918 251.73 115.094 251.73C115.286 251.73 115.454 251.73 115.598 251.73C115.726 251.73 115.846 251.714 115.958 251.682C116.086 251.634 116.206 251.578 116.318 251.514C116.462 251.402 116.566 251.234 116.63 251.01C116.71 250.77 116.742 250.482 116.726 250.146C116.726 249.586 116.606 248.946 116.366 248.226C116.142 247.49 115.67 246.722 114.95 245.922C115.126 245.378 115.302 244.778 115.478 244.122C115.67 243.466 115.846 242.81 116.006 242.154C116.182 241.482 116.342 240.858 116.486 240.282C116.646 239.69 116.766 239.202 116.846 238.818V237.93ZM139.502 260.61L138.734 258.666C139.742 258.346 140.51 257.906 141.038 257.346C141.582 256.802 141.854 256.178 141.854 255.474L141.662 253.122L143.006 255.258C142.798 255.434 142.574 255.57 142.334 255.666C142.094 255.762 141.838 255.81 141.566 255.81C140.974 255.81 140.446 255.626 139.982 255.258C139.518 254.874 139.286 254.338 139.286 253.65C139.286 252.978 139.518 252.45 139.982 252.066C140.446 251.682 140.998 251.49 141.638 251.49C142.486 251.49 143.126 251.786 143.558 252.378C144.006 252.97 144.23 253.77 144.23 254.778C144.23 256.138 143.814 257.338 142.982 258.378C142.15 259.418 140.99 260.162 139.502 260.61ZM167.414 245.994H182.75V248.586H167.414V245.994ZM168.254 241.146H181.934V243.69H168.254V241.146ZM173.318 242.394H176.198V246.234C176.198 247.002 176.102 247.802 175.91 248.634C175.734 249.466 175.398 250.298 174.902 251.13C174.422 251.946 173.726 252.738 172.814 253.506C171.918 254.258 170.758 254.946 169.334 255.57C169.206 255.362 169.03 255.13 168.806 254.874C168.582 254.618 168.35 254.362 168.11 254.106C167.87 253.85 167.638 253.642 167.414 253.482C168.774 252.986 169.846 252.434 170.63 251.826C171.43 251.218 172.014 250.586 172.382 249.93C172.766 249.274 173.014 248.634 173.126 248.01C173.254 247.37 173.318 246.77 173.318 246.21V242.394ZM176.63 247.818C177.126 249.146 177.878 250.274 178.886 251.202C179.91 252.114 181.222 252.77 182.822 253.17C182.614 253.362 182.39 253.602 182.15 253.89C181.926 254.178 181.71 254.474 181.502 254.778C181.31 255.066 181.142 255.338 180.998 255.594C179.238 255.018 177.814 254.114 176.726 252.882C175.638 251.65 174.798 250.138 174.206 248.346L176.63 247.818ZM166.454 246.258V255.114H163.646V248.922H160.862V246.258H166.454ZM166.454 253.866C166.95 254.65 167.646 255.226 168.542 255.594C169.438 255.962 170.51 256.17 171.758 256.218C172.462 256.25 173.294 256.274 174.254 256.29C175.23 256.29 176.254 256.282 177.326 256.266C178.398 256.25 179.446 256.218 180.47 256.17C181.51 256.122 182.43 256.066 183.23 256.002C183.134 256.226 183.022 256.514 182.894 256.866C182.766 257.218 182.646 257.578 182.534 257.946C182.438 258.314 182.366 258.642 182.318 258.93C181.598 258.978 180.774 259.01 179.846 259.026C178.918 259.058 177.966 259.074 176.99 259.074C176.014 259.09 175.07 259.09 174.158 259.074C173.246 259.058 172.43 259.034 171.71 259.002C170.238 258.938 168.982 258.706 167.942 258.306C166.902 257.922 165.982 257.266 165.182 256.338C164.654 256.786 164.11 257.25 163.55 257.73C163.006 258.21 162.406 258.706 161.75 259.218L160.334 256.218C160.894 255.882 161.478 255.514 162.086 255.114C162.694 254.714 163.278 254.298 163.838 253.866H166.454ZM160.886 239.202L163.022 237.474C163.518 237.794 164.022 238.17 164.534 238.602C165.046 239.018 165.526 239.45 165.974 239.898C166.422 240.33 166.782 240.73 167.054 241.098L164.774 243.018C164.534 242.634 164.198 242.218 163.766 241.77C163.35 241.322 162.886 240.874 162.374 240.426C161.862 239.962 161.366 239.554 160.886 239.202ZM178.286 236.898L181.214 237.81C180.782 238.498 180.334 239.178 179.87 239.85C179.422 240.506 179.006 241.066 178.622 241.53L176.27 240.714C176.51 240.346 176.758 239.946 177.014 239.514C177.27 239.066 177.51 238.618 177.734 238.17C177.958 237.706 178.142 237.282 178.286 236.898ZM168.878 237.954L171.302 236.946C171.75 237.49 172.174 238.106 172.574 238.794C172.974 239.482 173.254 240.09 173.414 240.618L170.822 241.722C170.694 241.21 170.438 240.602 170.054 239.898C169.686 239.178 169.294 238.53 168.878 237.954ZM190.478 243.714H202.934V246.33H190.478V243.714ZM186.014 248.058H207.518V250.746H186.014V248.058ZM191.822 250.218H194.942C194.83 251.322 194.646 252.354 194.39 253.314C194.134 254.258 193.726 255.122 193.166 255.906C192.622 256.674 191.854 257.362 190.862 257.97C189.87 258.578 188.59 259.09 187.022 259.506C186.926 259.25 186.782 258.962 186.59 258.642C186.414 258.322 186.214 258.002 185.99 257.682C185.766 257.378 185.55 257.13 185.342 256.938C186.718 256.634 187.814 256.266 188.63 255.834C189.462 255.402 190.086 254.914 190.502 254.37C190.934 253.81 191.238 253.186 191.414 252.498C191.606 251.794 191.742 251.034 191.822 250.218ZM198.014 249.738H200.918V255.594C200.918 255.978 200.974 256.226 201.086 256.338C201.214 256.434 201.494 256.482 201.926 256.482C202.022 256.482 202.174 256.482 202.382 256.482C202.59 256.482 202.822 256.482 203.078 256.482C203.334 256.482 203.574 256.482 203.798 256.482C204.022 256.482 204.198 256.482 204.326 256.482C204.582 256.482 204.774 256.418 204.902 256.29C205.046 256.162 205.142 255.89 205.19 255.474C205.254 255.042 205.302 254.41 205.334 253.578C205.542 253.722 205.798 253.866 206.102 254.01C206.406 254.154 206.718 254.282 207.038 254.394C207.374 254.506 207.67 254.602 207.926 254.682C207.83 255.834 207.662 256.73 207.422 257.37C207.182 258.026 206.838 258.474 206.39 258.714C205.958 258.97 205.358 259.098 204.59 259.098C204.446 259.098 204.23 259.098 203.942 259.098C203.67 259.098 203.366 259.098 203.03 259.098C202.71 259.098 202.406 259.098 202.118 259.098C201.846 259.098 201.638 259.098 201.494 259.098C200.566 259.098 199.846 258.994 199.334 258.786C198.838 258.578 198.494 258.218 198.302 257.706C198.11 257.194 198.014 256.506 198.014 255.642V249.738ZM195.158 236.922H198.23V241.29H195.158V236.922ZM186.446 239.226H207.062V244.938H203.99V241.962H189.374V244.938H186.446V239.226ZM214.454 249.57H230.726V252.042H214.454V249.57ZM211.19 240.81H227.102V243.402H211.19V240.81ZM218.294 245.226H229.166V247.698H218.294V245.226ZM229.622 249.57H232.478C232.478 249.57 232.47 249.642 232.454 249.786C232.454 249.914 232.446 250.066 232.43 250.242C232.43 250.418 232.422 250.562 232.406 250.674C232.278 252.306 232.134 253.65 231.974 254.706C231.83 255.746 231.662 256.57 231.47 257.178C231.278 257.77 231.054 258.202 230.798 258.474C230.526 258.778 230.23 258.994 229.91 259.122C229.606 259.25 229.254 259.338 228.854 259.386C228.534 259.434 228.094 259.458 227.534 259.458C226.99 259.474 226.414 259.466 225.806 259.434C225.79 259.05 225.702 258.61 225.542 258.114C225.398 257.618 225.214 257.186 224.99 256.818C225.518 256.866 226.014 256.898 226.478 256.914C226.942 256.93 227.294 256.93 227.534 256.914C227.726 256.914 227.886 256.898 228.014 256.866C228.158 256.834 228.294 256.762 228.422 256.65C228.582 256.49 228.726 256.17 228.854 255.69C228.998 255.194 229.134 254.482 229.262 253.554C229.39 252.626 229.51 251.434 229.622 249.978V249.57ZM224.51 252.882L226.478 252.21C226.814 252.706 227.126 253.25 227.414 253.842C227.702 254.434 227.91 254.946 228.038 255.378L225.926 256.17C225.83 255.738 225.646 255.21 225.374 254.586C225.102 253.962 224.814 253.394 224.51 252.882ZM213.878 237.906L216.47 236.898C216.902 237.362 217.342 237.89 217.79 238.482C218.238 239.074 218.582 239.594 218.822 240.042L216.062 241.17C215.886 240.738 215.582 240.218 215.15 239.61C214.734 238.986 214.31 238.418 213.878 237.906ZM217.262 253.53L219.59 253.266C219.814 254.034 219.982 254.882 220.094 255.81C220.206 256.722 220.262 257.514 220.262 258.186L217.79 258.498C217.822 258.066 217.814 257.562 217.766 256.986C217.734 256.41 217.67 255.826 217.574 255.234C217.494 254.626 217.39 254.058 217.262 253.53ZM220.886 253.338L223.094 252.834C223.382 253.522 223.646 254.258 223.886 255.042C224.126 255.826 224.286 256.514 224.366 257.106L222.038 257.682C221.974 257.09 221.83 256.386 221.606 255.57C221.382 254.754 221.142 254.01 220.886 253.338ZM214.046 252.738L216.47 253.53C216.31 254.234 216.11 254.938 215.87 255.642C215.646 256.33 215.366 256.994 215.03 257.634C214.694 258.274 214.294 258.85 213.83 259.362L211.598 257.778C212.014 257.362 212.374 256.882 212.678 256.338C212.998 255.794 213.27 255.218 213.494 254.61C213.734 253.986 213.918 253.362 214.046 252.738ZM221.294 236.874L224.246 237.594C223.702 239.306 223.054 240.986 222.302 242.634C221.566 244.266 220.686 245.826 219.662 247.314C218.654 248.786 217.486 250.146 216.158 251.394C214.83 252.626 213.318 253.69 211.622 254.586C211.51 254.362 211.358 254.098 211.166 253.794C210.99 253.474 210.806 253.162 210.614 252.858C210.422 252.554 210.238 252.298 210.062 252.09C211.598 251.322 212.966 250.386 214.166 249.282C215.382 248.178 216.446 246.954 217.358 245.61C218.286 244.266 219.07 242.858 219.71 241.386C220.366 239.898 220.894 238.394 221.294 236.874ZM226.526 240.81H229.19C229.014 241.706 228.814 242.642 228.59 243.618C228.382 244.594 228.182 245.434 227.99 246.138L225.47 245.73C225.662 245.074 225.854 244.298 226.046 243.402C226.238 242.49 226.398 241.626 226.526 240.81ZM228.086 245.226H230.75C230.59 246.106 230.406 247.026 230.198 247.986C229.99 248.946 229.782 249.77 229.574 250.458L227.054 250.122C227.246 249.45 227.438 248.666 227.63 247.77C227.822 246.874 227.974 246.026 228.086 245.226ZM247.55 244.434H256.382V247.338H247.55V244.434ZM235.67 255.354H257.702V258.234H235.67V255.354ZM246.134 236.922H249.206V256.89H246.134V236.922ZM238.742 241.866H241.742V256.746H238.742V241.866Z" fill="white"/>
<path d="M42.3962 140.99H48.5442V194.988H42.3962V140.99ZM35.0302 160.072H54.1122V166.568H35.0302V160.072ZM42.3382 163.494L46.2242 165.408C45.7602 167.341 45.1996 169.391 44.5422 171.556C43.9236 173.683 43.2276 175.809 42.4542 177.936C41.6809 180.063 40.8496 182.073 39.9602 183.968C39.1096 185.863 38.2202 187.506 37.2922 188.898C37.0602 188.163 36.7509 187.371 36.3642 186.52C36.0162 185.631 35.6296 184.761 35.2042 183.91C34.8176 183.021 34.4309 182.267 34.0442 181.648C35.2042 180.217 36.3062 178.458 37.3502 176.37C38.4329 174.243 39.3996 172.059 40.2502 169.816C41.1396 167.535 41.8356 165.427 42.3382 163.494ZM48.7182 167.032C49.0662 167.419 49.5882 168.076 50.2842 169.004C51.0189 169.932 51.7922 170.957 52.6042 172.078C53.4549 173.161 54.2282 174.185 54.9242 175.152C55.6202 176.08 56.1036 176.757 56.3742 177.182L51.9662 182.518C51.6182 181.667 51.1736 180.681 50.6322 179.56C50.1296 178.4 49.5496 177.201 48.8922 175.964C48.2736 174.727 47.6549 173.567 47.0362 172.484C46.4176 171.363 45.8956 170.415 45.4702 169.642L48.7182 167.032ZM34.9722 145.456L39.4962 144.354C39.9989 145.707 40.4436 147.196 40.8302 148.82C41.2556 150.405 41.6036 151.952 41.8742 153.46C42.1449 154.929 42.3189 156.263 42.3962 157.462L37.5822 158.68C37.5436 157.481 37.3889 156.128 37.1182 154.62C36.8862 153.112 36.5769 151.546 36.1902 149.922C35.8422 148.298 35.4362 146.809 34.9722 145.456ZM51.0382 144.006L56.5482 145.166C56.0842 146.674 55.6009 148.259 55.0982 149.922C54.5956 151.546 54.0929 153.112 53.5902 154.62C53.1262 156.089 52.6622 157.404 52.1982 158.564L48.0802 157.346C48.4669 156.147 48.8536 154.775 49.2402 153.228C49.6269 151.681 49.9749 150.096 50.2842 148.472C50.6322 146.848 50.8836 145.359 51.0382 144.006ZM57.2442 144.992H87.5202V149.922H57.2442V144.992ZM58.6942 152.242H86.2442V156.882H58.6942V152.242ZM55.6202 159.434H89.0282V164.422H55.6202V159.434ZM68.5542 140.816H75.1082V162.218H68.5542V140.816ZM58.6942 166.8H80.7342V171.73H65.1322V195.22H58.6942V166.8ZM79.1102 166.8H85.6642V188.956C85.6642 190.387 85.4902 191.508 85.1422 192.32C84.7942 193.132 84.1176 193.77 83.1122 194.234C82.1069 194.659 80.9082 194.93 79.5162 195.046C78.1242 195.162 76.5002 195.201 74.6442 195.162C74.5282 194.311 74.2962 193.364 73.9482 192.32C73.6002 191.315 73.2329 190.425 72.8462 189.652C73.9289 189.691 74.9922 189.729 76.0362 189.768C77.0802 189.768 77.7956 189.749 78.1822 189.71C78.5689 189.71 78.8202 189.652 78.9362 189.536C79.0522 189.381 79.1102 189.149 79.1102 188.84V166.8ZM62.2902 174.514H81.3722V179.096H62.2902V174.514ZM62.2902 181.88H81.3722V186.404H62.2902V181.88ZM98.7142 147.892H145.926V153.982H98.7142V147.892ZM101.382 156.94H143.664V162.798H101.382V156.94ZM96.3362 165.756H148.246V171.962H96.3362V165.756ZM95.9882 175.558H148.942V181.59H95.9882V175.558ZM118.608 151.72H125.8V170.744H118.608V151.72ZM105.732 143.02L111.88 140.584C112.808 141.551 113.659 142.653 114.432 143.89C115.244 145.127 115.844 146.249 116.23 147.254L109.734 150.096C109.425 149.052 108.884 147.873 108.11 146.558C107.376 145.243 106.583 144.064 105.732 143.02ZM131.658 140.526L139.14 142.44C138.251 143.755 137.362 145.011 136.472 146.21C135.583 147.37 134.771 148.356 134.036 149.168L127.714 147.37C128.178 146.751 128.642 146.036 129.106 145.224C129.609 144.412 130.092 143.6 130.556 142.788C131.02 141.976 131.388 141.222 131.658 140.526ZM117.796 170.918H125.162C124.93 173.47 124.544 175.848 124.002 178.052C123.461 180.256 122.63 182.247 121.508 184.026C120.387 185.805 118.86 187.409 116.926 188.84C115.032 190.232 112.576 191.45 109.56 192.494C106.544 193.538 102.832 194.427 98.4242 195.162C98.2696 194.505 97.9989 193.789 97.6122 193.016C97.2256 192.281 96.7809 191.527 96.2782 190.754C95.8142 190.019 95.3502 189.401 94.8862 188.898C98.8689 188.357 102.175 187.719 104.804 186.984C107.472 186.211 109.618 185.321 111.242 184.316C112.866 183.272 114.123 182.093 115.012 180.778C115.902 179.463 116.54 177.994 116.926 176.37C117.313 174.707 117.603 172.89 117.796 170.918ZM126.844 177.356C128.507 180.991 131.233 183.717 135.022 185.534C138.812 187.313 143.858 188.415 150.16 188.84C149.658 189.343 149.136 189.981 148.594 190.754C148.053 191.527 147.55 192.301 147.086 193.074C146.622 193.886 146.255 194.621 145.984 195.278C141.344 194.737 137.381 193.809 134.094 192.494C130.846 191.179 128.12 189.381 125.916 187.1C123.751 184.78 121.914 181.919 120.406 178.516L126.844 177.356ZM179.044 141.512H186.642V186.462C186.642 188.627 186.372 190.251 185.83 191.334C185.289 192.417 184.361 193.248 183.046 193.828C181.693 194.369 179.992 194.717 177.942 194.872C175.932 195.065 173.515 195.143 170.692 195.104C170.576 194.447 170.364 193.673 170.054 192.784C169.745 191.933 169.397 191.063 169.01 190.174C168.662 189.285 168.295 188.531 167.908 187.912C169.184 187.951 170.46 187.989 171.736 188.028C173.012 188.067 174.153 188.086 175.158 188.086C176.164 188.047 176.879 188.028 177.304 188.028C177.923 188.028 178.368 187.912 178.638 187.68C178.909 187.448 179.044 187.042 179.044 186.462V141.512ZM192.964 156.766L199.808 154.214C201.394 156.959 202.921 159.898 204.39 163.03C205.898 166.123 207.213 169.178 208.334 172.194C209.494 175.171 210.326 177.878 210.828 180.314L203.172 183.33C202.786 180.971 202.07 178.284 201.026 175.268C200.021 172.213 198.803 169.081 197.372 165.872C195.98 162.624 194.511 159.589 192.964 156.766ZM163.848 154.852L171.736 156.186C171.079 159.047 170.286 162.102 169.358 165.35C168.43 168.559 167.328 171.633 166.052 174.572C164.815 177.472 163.384 180.005 161.76 182.17C161.18 181.745 160.465 181.3 159.614 180.836C158.802 180.372 157.971 179.947 157.12 179.56C156.308 179.135 155.574 178.787 154.916 178.516C156.502 176.544 157.874 174.205 159.034 171.498C160.233 168.753 161.238 165.93 162.05 163.03C162.862 160.091 163.462 157.365 163.848 154.852ZM243.25 183.446L248.644 181.996C249.302 183.001 249.862 184.103 250.326 185.302C250.79 186.501 251.119 187.564 251.312 188.492L245.628 190.174C245.512 189.246 245.222 188.144 244.758 186.868C244.294 185.592 243.792 184.451 243.25 183.446ZM258.562 181.88L264.594 183.504C263.976 184.741 263.357 185.94 262.738 187.1C262.158 188.26 261.617 189.246 261.114 190.058L255.952 188.55C256.416 187.622 256.9 186.52 257.402 185.244C257.905 183.968 258.292 182.847 258.562 181.88ZM246.44 175.442V178.342H260.824V175.442H246.44ZM240.64 171.324H266.798V182.46H240.64V171.324ZM244.352 155.316V157.984H262.68V155.316H244.352ZM244.352 148.704V151.314H262.68V148.704H244.352ZM238.842 144.47H268.48V162.218H238.842V144.47ZM237.972 164.19H269.466V169.41H237.972V164.19ZM236.812 188.956H270.278V194.118H236.812V188.956ZM246.614 140.7H251.718V147.602H246.614V140.7ZM255.14 140.7H260.302V147.602H255.14V140.7ZM247.6 146.442H251.718V161.406H247.6V146.442ZM255.14 146.442H259.258V161.406H255.14V146.442ZM216.338 155.896H236.696V161.928H216.338V155.896ZM217.73 144.354H235.536V150.328H217.73V144.354ZM232.114 164.886H236.522V186.462H232.114V164.886ZM223.936 158.912H229.678V195.162H223.936V158.912ZM217.15 164.944H221.558V171.904C221.558 174.881 221.423 178.013 221.152 181.3C220.882 184.548 220.244 187.564 219.238 190.348C218.774 189.884 218.156 189.362 217.382 188.782C216.609 188.202 215.932 187.757 215.352 187.448C216.126 185.089 216.609 182.518 216.802 179.734C217.034 176.95 217.15 174.301 217.15 171.788V164.944Z" fill="white"/>
<ellipse cx="76.3209" cy="68.2859" rx="54.1017" ry="56" fill="#6EE292"/>
<path d="M45.4585 90.212V76.5046L75.2525 29.5586H87.4329V48.1666H80.3661L62.9301 75.7944V76.3626H106.076V90.212H45.4585ZM80.5792 102.286V86.0217L80.9343 80.0203V29.5586H97.3761V102.286H80.5792Z" fill="white"/>
<path d="M451 139.5C443.576 176.051 423.425 254.242 422 256.597H478.996L451 139.5Z" fill="#93FFB4"/>
<path d="M373 233.097L451.636 117L546 224.744L472.368 264L451.636 147.903L428.403 264L373 233.097Z" fill="#73EB98"/>
<path d="M481 111.8C481 111.8 460 100.5 452 93V111.8C459.155 115.96 473 114 481 111.8Z" fill="#93FFB4"/>
<path d="M452 119V111.8M452 111.8V93C460 100.5 481 111.8 481 111.8C473 114 459.155 115.96 452 111.8Z" stroke="#93FFB4" stroke-width="2"/>
</svg>
