<svg width="570" height="315" viewBox="0 0 570 315" fill="none" xmlns="http://www.w3.org/2000/svg">
<path d="M-0.000976562 31.9268H539.999C556.568 31.9268 569.999 45.3582 569.999 61.9268V314.298H29.999C13.4305 314.298 -0.000976562 300.867 -0.000976562 284.298V31.9268Z" fill="#39BF63"/>
<line x1="347.796" y1="220.799" x2="38.6433" y2="220.799" stroke="white"/>
<path d="M151.753 92.6508H180.905V96.6508H151.753V92.6508ZM164.137 81.1308H168.329V111.179H164.137V81.1308ZM189.833 82.6348H209.961V86.1868H189.833V82.6348ZM193.033 88.8108H206.505V91.7228H193.033V88.8108ZM192.361 93.7388H207.145V96.7788H192.361V93.7388ZM187.529 82.6348H191.337V93.8028C191.337 95.1042 191.283 96.5335 191.177 98.0908C191.091 99.6482 190.91 101.216 190.633 102.795C190.355 104.373 189.95 105.899 189.417 107.371C188.883 108.821 188.179 110.133 187.305 111.307C187.091 111.072 186.793 110.795 186.409 110.475C186.025 110.155 185.63 109.845 185.225 109.547C184.819 109.248 184.478 109.024 184.201 108.875C184.969 107.829 185.577 106.677 186.025 105.419C186.473 104.16 186.803 102.869 187.017 101.547C187.23 100.203 187.369 98.8695 187.433 97.5468C187.497 96.2242 187.529 94.9762 187.529 93.8028V82.6348ZM208.489 82.6348H212.329V106.923C212.329 107.904 212.201 108.661 211.945 109.195C211.71 109.749 211.283 110.187 210.665 110.507C210.046 110.784 209.267 110.955 208.329 111.019C207.39 111.104 206.217 111.147 204.809 111.147C204.745 110.635 204.595 110.027 204.361 109.323C204.126 108.619 203.881 108.032 203.625 107.563C204.179 107.584 204.734 107.605 205.289 107.627C205.865 107.627 206.366 107.627 206.793 107.627C207.241 107.627 207.55 107.627 207.721 107.627C208.019 107.627 208.222 107.573 208.329 107.467C208.435 107.339 208.489 107.147 208.489 106.891V82.6348ZM197.833 86.6668H201.481V95.3708H197.833V86.6668ZM195.465 98.6028H205.929V107.339H195.465V104.427H202.377V101.515H195.465V98.6028ZM193.545 98.6028H197.001V109.099H193.545V98.6028ZM224.681 80.9708L228.617 81.9948C228.041 83.5735 227.358 85.1202 226.569 86.6348C225.801 88.1495 224.958 89.5575 224.041 90.8588C223.145 92.1388 222.217 93.2588 221.257 94.2188C221.001 94.0055 220.67 93.7388 220.265 93.4188C219.859 93.0775 219.443 92.7575 219.017 92.4588C218.611 92.1602 218.249 91.9148 217.929 91.7228C218.91 90.8908 219.827 89.9095 220.681 88.7788C221.534 87.6268 222.302 86.3895 222.985 85.0668C223.667 83.7228 224.233 82.3575 224.681 80.9708ZM225.385 84.6188H245.737V88.3308H223.529L225.385 84.6188ZM223.113 92.2028H244.969V95.7868H226.953V102.507H223.113V92.2028ZM218.025 100.619H247.465V104.299H218.025V100.619ZM232.521 86.5388H236.489V111.179H232.521V86.5388ZM266.217 88.3948H277.225V91.5308H266.217V88.3948ZM260.713 106.955C261.673 106.805 262.782 106.624 264.041 106.411C265.321 106.197 266.675 105.973 268.105 105.739C269.534 105.483 270.953 105.227 272.361 104.971L272.681 108.299C270.825 108.725 268.958 109.141 267.081 109.547C265.203 109.973 263.497 110.347 261.961 110.667L260.713 106.955ZM264.041 82.5388H267.753V107.819H264.041V82.5388ZM266.217 82.5388H278.985V97.5148H266.217V94.2188H275.177V85.8348H266.217V82.5388ZM272.873 95.3068C273.278 97.2268 273.833 99.0082 274.537 100.651C275.241 102.272 276.137 103.701 277.225 104.939C278.313 106.176 279.646 107.136 281.225 107.819C280.947 108.075 280.649 108.384 280.329 108.747C280.009 109.131 279.699 109.525 279.401 109.931C279.123 110.357 278.899 110.741 278.729 111.083C277.001 110.165 275.55 108.971 274.377 107.499C273.225 106.005 272.275 104.277 271.529 102.315C270.782 100.352 270.174 98.1975 269.705 95.8508L272.873 95.3068ZM277.513 97.7388L280.521 99.8188C279.646 100.672 278.718 101.515 277.737 102.347C276.777 103.157 275.891 103.851 275.081 104.427L272.713 102.603C273.225 102.176 273.769 101.685 274.345 101.131C274.942 100.576 275.518 100 276.073 99.4028C276.627 98.8055 277.107 98.2508 277.513 97.7388ZM252.393 82.4748H260.361V85.9308H255.977V111.179H252.393V82.4748ZM259.305 82.4748H259.977L260.521 82.3468L263.145 83.8508C262.846 84.7895 262.526 85.7815 262.185 86.8268C261.843 87.8722 261.502 88.9068 261.161 89.9308C260.819 90.9548 260.478 91.8828 260.137 92.7148C261.182 93.9522 261.854 95.1255 262.153 96.2348C262.473 97.3228 262.633 98.3362 262.633 99.2748C262.633 100.341 262.515 101.216 262.281 101.899C262.046 102.581 261.662 103.115 261.129 103.499C260.873 103.691 260.574 103.84 260.233 103.947C259.913 104.053 259.582 104.139 259.241 104.203C258.942 104.245 258.59 104.267 258.185 104.267C257.801 104.267 257.406 104.267 257.001 104.267C256.979 103.776 256.894 103.2 256.745 102.539C256.617 101.877 256.425 101.312 256.169 100.843C256.467 100.864 256.734 100.875 256.969 100.875C257.225 100.875 257.449 100.875 257.641 100.875C257.811 100.875 257.971 100.853 258.121 100.811C258.291 100.747 258.451 100.672 258.601 100.587C258.793 100.437 258.931 100.213 259.017 99.9148C259.123 99.5948 259.166 99.2108 259.145 98.7628C259.145 98.0162 258.985 97.1628 258.665 96.2028C258.366 95.2215 257.737 94.1975 256.777 93.1308C257.011 92.4055 257.246 91.6055 257.481 90.7308C257.737 89.8562 257.971 88.9815 258.185 88.1068C258.419 87.2108 258.633 86.3788 258.825 85.6108C259.038 84.8215 259.198 84.1708 259.305 83.6588V82.4748ZM290.441 90.7628H308.137V94.4428H290.441V90.7628ZM299.305 98.4428H310.089V102.059H299.305V98.4428ZM297.289 92.9068H301.289V108.363L297.289 107.883V92.9068ZM289.641 96.2028L293.641 96.6188C293.214 99.8828 292.489 102.763 291.465 105.259C290.441 107.755 289.011 109.792 287.177 111.371C286.963 111.136 286.665 110.848 286.281 110.507C285.897 110.165 285.491 109.835 285.065 109.515C284.659 109.195 284.307 108.939 284.009 108.747C285.737 107.467 287.038 105.749 287.913 103.595C288.787 101.419 289.363 98.9548 289.641 96.2028ZM292.745 100.235C293.235 101.685 293.875 102.869 294.665 103.787C295.475 104.683 296.403 105.365 297.449 105.835C298.515 106.283 299.678 106.592 300.937 106.763C302.195 106.933 303.529 107.019 304.937 107.019C305.278 107.019 305.737 107.019 306.313 107.019C306.91 107.019 307.561 107.019 308.265 107.019C308.99 107.019 309.726 107.019 310.473 107.019C311.219 106.997 311.913 106.987 312.553 106.987C313.193 106.965 313.726 106.944 314.153 106.923C313.961 107.243 313.769 107.637 313.577 108.107C313.406 108.555 313.246 109.024 313.097 109.515C312.947 110.005 312.841 110.453 312.777 110.859H311.145H304.745C302.889 110.859 301.182 110.731 299.625 110.475C298.067 110.219 296.659 109.749 295.401 109.067C294.163 108.405 293.054 107.445 292.073 106.187C291.113 104.928 290.291 103.285 289.609 101.259L292.745 100.235ZM297.225 81.1628H301.321V86.9868H297.225V81.1628ZM285.577 84.3948H313.065V92.4268H309.129V88.0108H289.353V92.4268H285.577V84.3948ZM334.884 93.2268H355.332V96.6828H334.884V93.2268ZM336.004 86.7628H354.244V90.1548H336.004V86.7628ZM342.756 88.4268H346.596V93.5468C346.596 94.5708 346.468 95.6375 346.212 96.7468C345.977 97.8562 345.529 98.9655 344.868 100.075C344.228 101.163 343.3 102.219 342.084 103.243C340.889 104.245 339.342 105.163 337.444 105.995C337.273 105.717 337.038 105.408 336.74 105.067C336.441 104.725 336.132 104.384 335.812 104.043C335.492 103.701 335.182 103.424 334.884 103.211C336.697 102.549 338.126 101.813 339.172 101.003C340.238 100.192 341.017 99.3495 341.508 98.4748C342.02 97.6002 342.35 96.7468 342.5 95.9148C342.67 95.0615 342.756 94.2615 342.756 93.5148V88.4268ZM347.172 95.6588C347.833 97.4295 348.836 98.9335 350.18 100.171C351.545 101.387 353.294 102.261 355.428 102.795C355.15 103.051 354.852 103.371 354.532 103.755C354.233 104.139 353.945 104.533 353.668 104.939C353.412 105.323 353.188 105.685 352.996 106.027C350.649 105.259 348.75 104.053 347.3 102.411C345.849 100.768 344.729 98.7522 343.94 96.3628L347.172 95.6588ZM333.604 93.5788V105.387H329.86V97.1308H326.148V93.5788H333.604ZM333.604 103.723C334.265 104.768 335.193 105.536 336.388 106.027C337.582 106.517 339.012 106.795 340.676 106.859C341.614 106.901 342.724 106.933 344.004 106.955C345.305 106.955 346.67 106.944 348.1 106.923C349.529 106.901 350.926 106.859 352.292 106.795C353.678 106.731 354.905 106.656 355.972 106.571C355.844 106.869 355.694 107.253 355.524 107.723C355.353 108.192 355.193 108.672 355.044 109.163C354.916 109.653 354.82 110.091 354.756 110.475C353.796 110.539 352.697 110.581 351.46 110.603C350.222 110.645 348.953 110.667 347.652 110.667C346.35 110.688 345.092 110.688 343.876 110.667C342.66 110.645 341.572 110.613 340.612 110.571C338.649 110.485 336.974 110.176 335.588 109.643C334.201 109.131 332.974 108.256 331.908 107.019C331.204 107.616 330.478 108.235 329.732 108.875C329.006 109.515 328.206 110.176 327.332 110.859L325.444 106.859C326.19 106.411 326.969 105.92 327.78 105.387C328.59 104.853 329.369 104.299 330.116 103.723H333.604ZM326.18 84.1708L329.028 81.8668C329.689 82.2935 330.361 82.7948 331.044 83.3708C331.726 83.9255 332.366 84.5015 332.964 85.0988C333.561 85.6748 334.041 86.2082 334.404 86.6988L331.364 89.2588C331.044 88.7468 330.596 88.1922 330.02 87.5948C329.465 86.9975 328.846 86.4002 328.164 85.8028C327.481 85.1842 326.82 84.6402 326.18 84.1708ZM349.38 81.0988L353.284 82.3148C352.708 83.2322 352.11 84.1388 351.492 85.0348C350.894 85.9095 350.34 86.6562 349.828 87.2748L346.692 86.1868C347.012 85.6962 347.342 85.1628 347.684 84.5868C348.025 83.9895 348.345 83.3922 348.644 82.7948C348.942 82.1762 349.188 81.6108 349.38 81.0988ZM336.836 82.5068L340.068 81.1628C340.665 81.8882 341.23 82.7095 341.764 83.6268C342.297 84.5442 342.67 85.3548 342.884 86.0588L339.428 87.5308C339.257 86.8482 338.916 86.0375 338.404 85.0988C337.913 84.1388 337.39 83.2748 336.836 82.5068Z" fill="white"/>
<path d="M50.2939 241.29H58.2859V243.954H50.2939V241.29ZM50.5579 236.898L53.2939 237.282C53.0699 238.93 52.7739 240.538 52.4059 242.106C52.0539 243.674 51.6139 245.138 51.0859 246.498C50.5739 247.858 49.9659 249.05 49.2619 250.074C49.1339 249.898 48.9419 249.674 48.6859 249.402C48.4459 249.13 48.1899 248.866 47.9179 248.61C47.6459 248.338 47.4059 248.122 47.1979 247.962C47.8219 247.098 48.3499 246.082 48.7819 244.914C49.2139 243.746 49.5739 242.482 49.8619 241.122C50.1499 239.746 50.3819 238.338 50.5579 236.898ZM54.4219 242.85L57.1099 243.042C56.8379 245.698 56.3979 248.066 55.7899 250.146C55.1819 252.226 54.3259 254.042 53.2219 255.594C52.1179 257.146 50.6859 258.466 48.9259 259.554C48.8459 259.346 48.7099 259.09 48.5179 258.786C48.3419 258.498 48.1499 258.202 47.9419 257.898C47.7339 257.61 47.5419 257.37 47.3659 257.178C48.9499 256.314 50.2219 255.21 51.1819 253.866C52.1579 252.506 52.8939 250.906 53.3899 249.066C53.8859 247.226 54.2299 245.154 54.4219 242.85ZM51.8059 243.522C52.0939 245.538 52.4939 247.442 53.0059 249.234C53.5339 251.026 54.2299 252.61 55.0939 253.986C55.9739 255.346 57.0779 256.418 58.4059 257.202C58.2139 257.378 57.9899 257.602 57.7339 257.874C57.4939 258.146 57.2619 258.426 57.0379 258.714C56.8299 259.002 56.6619 259.266 56.5339 259.506C55.0779 258.53 53.8779 257.274 52.9339 255.738C52.0059 254.202 51.2619 252.434 50.7019 250.434C50.1419 248.418 49.7019 246.226 49.3819 243.858L51.8059 243.522ZM41.0299 236.898H43.4779V249.738H41.0299V236.898ZM39.6379 239.898V243.378H44.9899V239.898H39.6379ZM37.2619 238.098H47.4859V245.202H37.2619V238.098ZM39.1339 247.698V248.706H45.4699V247.698H39.1339ZM36.7819 245.97H47.9659V250.434H36.7819V245.97ZM35.7979 251.418C36.9339 251.418 38.2219 251.41 39.6619 251.394C41.1179 251.378 42.6459 251.362 44.2459 251.346C45.8619 251.314 47.4779 251.29 49.0939 251.274L48.9979 253.314C47.4299 253.346 45.8459 253.378 44.2459 253.41C42.6619 253.442 41.1499 253.474 39.7099 253.506C38.2859 253.522 37.0139 253.538 35.8939 253.554L35.7979 251.418ZM40.4539 249.93L42.8299 250.458C42.4779 251.098 42.1019 251.77 41.7019 252.474C41.3179 253.178 40.9259 253.85 40.5259 254.49C40.1419 255.13 39.7819 255.706 39.4459 256.218L37.1419 255.642C37.4779 255.146 37.8379 254.57 38.2219 253.914C38.6219 253.258 39.0139 252.586 39.3979 251.898C39.7979 251.194 40.1499 250.538 40.4539 249.93ZM38.9899 255.666L40.3579 253.986C41.2699 254.306 42.1899 254.666 43.1179 255.066C44.0459 255.45 44.9179 255.85 45.7339 256.266C46.5499 256.666 47.2379 257.05 47.7979 257.418L46.0459 259.194C45.5179 258.81 44.8699 258.402 44.1019 257.97C43.3499 257.554 42.5339 257.146 41.6539 256.746C40.7739 256.346 39.8859 255.986 38.9899 255.666ZM44.5339 252.426L46.9579 252.69C46.6219 254.114 46.0619 255.274 45.2779 256.17C44.5099 257.066 43.4779 257.77 42.1819 258.282C40.8859 258.81 39.2779 259.234 37.3579 259.554C37.2939 259.17 37.1579 258.77 36.9499 258.354C36.7579 257.954 36.5659 257.618 36.3739 257.346C37.9899 257.202 39.3419 256.954 40.4299 256.602C41.5339 256.25 42.4139 255.738 43.0699 255.066C43.7419 254.394 44.2299 253.514 44.5339 252.426ZM35.7259 240.618H38.1499V240.762H46.3339V240.618H49.0699V242.658H46.3339V242.514H38.1499V242.658H35.7259V240.618ZM66.8779 241.314V242.13H76.8619V241.314H66.8779ZM66.8779 239.106V239.922H76.8619V239.106H66.8779ZM64.1179 237.642H79.7659V243.594H64.1179V237.642ZM66.3739 250.89V251.73H77.5339V250.89H66.3739ZM66.3739 248.61V249.45H77.5339V248.61H66.3739ZM63.6859 247.098H80.3659V253.266H63.6859V247.098ZM70.5499 247.602H73.3339V257.898H70.5499V247.602ZM61.0699 244.314H82.9339V246.378H61.0699V244.314ZM63.1819 254.058H80.8219V255.882H63.1819V254.058ZM61.0219 256.77H82.9819V258.858H61.0219V256.77ZM86.2459 239.802H107.654V242.514H86.2459V239.802ZM92.7259 248.466H103.142V250.866H92.7259V248.466ZM90.5899 244.41H102.71V246.93H93.4219V259.434H90.5899V244.41ZM102.134 244.41H104.966V256.338C104.966 257.042 104.878 257.602 104.702 258.018C104.542 258.434 104.214 258.754 103.718 258.978C103.238 259.202 102.646 259.338 101.942 259.386C101.238 259.434 100.398 259.458 99.4219 259.458C99.3739 259.058 99.2619 258.586 99.0859 258.042C98.9259 257.514 98.7499 257.058 98.5579 256.674C98.9739 256.69 99.3899 256.706 99.8059 256.722C100.222 256.738 100.59 256.746 100.91 256.746C101.246 256.746 101.478 256.746 101.606 256.746C101.814 256.73 101.95 256.69 102.014 256.626C102.094 256.562 102.134 256.45 102.134 256.29V244.41ZM93.6859 236.898L96.6619 237.57C96.1019 239.362 95.3979 241.146 94.5499 242.922C93.7179 244.682 92.7099 246.322 91.5259 247.842C90.3579 249.362 88.9899 250.666 87.4219 251.754C87.2779 251.546 87.0859 251.306 86.8459 251.034C86.6219 250.746 86.3899 250.474 86.1499 250.218C85.9259 249.946 85.7179 249.722 85.5259 249.546C86.5819 248.842 87.5419 248.01 88.4059 247.05C89.2859 246.09 90.0619 245.05 90.7339 243.93C91.4219 242.794 92.0059 241.634 92.4859 240.45C92.9819 239.25 93.3819 238.066 93.6859 236.898ZM92.7259 252.426H103.142V254.826H92.7259V252.426ZM122.03 242.37H130.286V244.722H122.03V242.37ZM117.902 256.29C118.622 256.178 119.454 256.042 120.398 255.882C121.358 255.722 122.374 255.554 123.446 255.378C124.518 255.186 125.582 254.994 126.638 254.802L126.878 257.298C125.486 257.618 124.086 257.93 122.678 258.234C121.27 258.554 119.99 258.834 118.838 259.074L117.902 256.29ZM120.398 237.978H123.182V256.938H120.398V237.978ZM122.03 237.978H131.606V249.21H122.03V246.738H128.75V240.45H122.03V237.978ZM127.022 247.554C127.326 248.994 127.742 250.33 128.27 251.562C128.798 252.778 129.47 253.85 130.286 254.778C131.102 255.706 132.102 256.426 133.286 256.938C133.078 257.13 132.854 257.362 132.614 257.634C132.374 257.922 132.142 258.218 131.918 258.522C131.71 258.842 131.542 259.13 131.414 259.386C130.118 258.698 129.03 257.802 128.15 256.698C127.286 255.578 126.574 254.282 126.014 252.81C125.454 251.338 124.998 249.722 124.646 247.962L127.022 247.554ZM130.502 249.378L132.758 250.938C132.102 251.578 131.406 252.21 130.67 252.834C129.95 253.442 129.286 253.962 128.678 254.394L126.902 253.026C127.286 252.706 127.694 252.338 128.126 251.922C128.574 251.506 129.006 251.074 129.422 250.626C129.838 250.178 130.198 249.762 130.502 249.378ZM111.662 237.93H117.638V240.522H114.35V259.458H111.662V237.93ZM116.846 237.93H117.35L117.758 237.834L119.726 238.962C119.502 239.666 119.262 240.41 119.006 241.194C118.75 241.978 118.494 242.754 118.238 243.522C117.982 244.29 117.726 244.986 117.47 245.61C118.254 246.538 118.758 247.418 118.982 248.25C119.222 249.066 119.342 249.826 119.342 250.53C119.342 251.33 119.254 251.986 119.078 252.498C118.902 253.01 118.614 253.41 118.214 253.698C118.022 253.842 117.798 253.954 117.542 254.034C117.302 254.114 117.054 254.178 116.798 254.226C116.574 254.258 116.31 254.274 116.006 254.274C115.718 254.274 115.422 254.274 115.118 254.274C115.102 253.906 115.038 253.474 114.926 252.978C114.83 252.482 114.686 252.058 114.494 251.706C114.718 251.722 114.918 251.73 115.094 251.73C115.286 251.73 115.454 251.73 115.598 251.73C115.726 251.73 115.846 251.714 115.958 251.682C116.086 251.634 116.206 251.578 116.318 251.514C116.462 251.402 116.566 251.234 116.63 251.01C116.71 250.77 116.742 250.482 116.726 250.146C116.726 249.586 116.606 248.946 116.366 248.226C116.142 247.49 115.67 246.722 114.95 245.922C115.126 245.378 115.302 244.778 115.478 244.122C115.67 243.466 115.846 242.81 116.006 242.154C116.182 241.482 116.342 240.858 116.486 240.282C116.646 239.69 116.766 239.202 116.846 238.818V237.93ZM139.502 260.61L138.734 258.666C139.742 258.346 140.51 257.906 141.038 257.346C141.582 256.802 141.854 256.178 141.854 255.474L141.662 253.122L143.006 255.258C142.798 255.434 142.574 255.57 142.334 255.666C142.094 255.762 141.838 255.81 141.566 255.81C140.974 255.81 140.446 255.626 139.982 255.258C139.518 254.874 139.286 254.338 139.286 253.65C139.286 252.978 139.518 252.45 139.982 252.066C140.446 251.682 140.998 251.49 141.638 251.49C142.486 251.49 143.126 251.786 143.558 252.378C144.006 252.97 144.23 253.77 144.23 254.778C144.23 256.138 143.814 257.338 142.982 258.378C142.15 259.418 140.99 260.162 139.502 260.61ZM167.414 245.994H182.75V248.586H167.414V245.994ZM168.254 241.146H181.934V243.69H168.254V241.146ZM173.318 242.394H176.198V246.234C176.198 247.002 176.102 247.802 175.91 248.634C175.734 249.466 175.398 250.298 174.902 251.13C174.422 251.946 173.726 252.738 172.814 253.506C171.918 254.258 170.758 254.946 169.334 255.57C169.206 255.362 169.03 255.13 168.806 254.874C168.582 254.618 168.35 254.362 168.11 254.106C167.87 253.85 167.638 253.642 167.414 253.482C168.774 252.986 169.846 252.434 170.63 251.826C171.43 251.218 172.014 250.586 172.382 249.93C172.766 249.274 173.014 248.634 173.126 248.01C173.254 247.37 173.318 246.77 173.318 246.21V242.394ZM176.63 247.818C177.126 249.146 177.878 250.274 178.886 251.202C179.91 252.114 181.222 252.77 182.822 253.17C182.614 253.362 182.39 253.602 182.15 253.89C181.926 254.178 181.71 254.474 181.502 254.778C181.31 255.066 181.142 255.338 180.998 255.594C179.238 255.018 177.814 254.114 176.726 252.882C175.638 251.65 174.798 250.138 174.206 248.346L176.63 247.818ZM166.454 246.258V255.114H163.646V248.922H160.862V246.258H166.454ZM166.454 253.866C166.95 254.65 167.646 255.226 168.542 255.594C169.438 255.962 170.51 256.17 171.758 256.218C172.462 256.25 173.294 256.274 174.254 256.29C175.23 256.29 176.254 256.282 177.326 256.266C178.398 256.25 179.446 256.218 180.47 256.17C181.51 256.122 182.43 256.066 183.23 256.002C183.134 256.226 183.022 256.514 182.894 256.866C182.766 257.218 182.646 257.578 182.534 257.946C182.438 258.314 182.366 258.642 182.318 258.93C181.598 258.978 180.774 259.01 179.846 259.026C178.918 259.058 177.966 259.074 176.99 259.074C176.014 259.09 175.07 259.09 174.158 259.074C173.246 259.058 172.43 259.034 171.71 259.002C170.238 258.938 168.982 258.706 167.942 258.306C166.902 257.922 165.982 257.266 165.182 256.338C164.654 256.786 164.11 257.25 163.55 257.73C163.006 258.21 162.406 258.706 161.75 259.218L160.334 256.218C160.894 255.882 161.478 255.514 162.086 255.114C162.694 254.714 163.278 254.298 163.838 253.866H166.454ZM160.886 239.202L163.022 237.474C163.518 237.794 164.022 238.17 164.534 238.602C165.046 239.018 165.526 239.45 165.974 239.898C166.422 240.33 166.782 240.73 167.054 241.098L164.774 243.018C164.534 242.634 164.198 242.218 163.766 241.77C163.35 241.322 162.886 240.874 162.374 240.426C161.862 239.962 161.366 239.554 160.886 239.202ZM178.286 236.898L181.214 237.81C180.782 238.498 180.334 239.178 179.87 239.85C179.422 240.506 179.006 241.066 178.622 241.53L176.27 240.714C176.51 240.346 176.758 239.946 177.014 239.514C177.27 239.066 177.51 238.618 177.734 238.17C177.958 237.706 178.142 237.282 178.286 236.898ZM168.878 237.954L171.302 236.946C171.75 237.49 172.174 238.106 172.574 238.794C172.974 239.482 173.254 240.09 173.414 240.618L170.822 241.722C170.694 241.21 170.438 240.602 170.054 239.898C169.686 239.178 169.294 238.53 168.878 237.954ZM190.478 243.714H202.934V246.33H190.478V243.714ZM186.014 248.058H207.518V250.746H186.014V248.058ZM191.822 250.218H194.942C194.83 251.322 194.646 252.354 194.39 253.314C194.134 254.258 193.726 255.122 193.166 255.906C192.622 256.674 191.854 257.362 190.862 257.97C189.87 258.578 188.59 259.09 187.022 259.506C186.926 259.25 186.782 258.962 186.59 258.642C186.414 258.322 186.214 258.002 185.99 257.682C185.766 257.378 185.55 257.13 185.342 256.938C186.718 256.634 187.814 256.266 188.63 255.834C189.462 255.402 190.086 254.914 190.502 254.37C190.934 253.81 191.238 253.186 191.414 252.498C191.606 251.794 191.742 251.034 191.822 250.218ZM198.014 249.738H200.918V255.594C200.918 255.978 200.974 256.226 201.086 256.338C201.214 256.434 201.494 256.482 201.926 256.482C202.022 256.482 202.174 256.482 202.382 256.482C202.59 256.482 202.822 256.482 203.078 256.482C203.334 256.482 203.574 256.482 203.798 256.482C204.022 256.482 204.198 256.482 204.326 256.482C204.582 256.482 204.774 256.418 204.902 256.29C205.046 256.162 205.142 255.89 205.19 255.474C205.254 255.042 205.302 254.41 205.334 253.578C205.542 253.722 205.798 253.866 206.102 254.01C206.406 254.154 206.718 254.282 207.038 254.394C207.374 254.506 207.67 254.602 207.926 254.682C207.83 255.834 207.662 256.73 207.422 257.37C207.182 258.026 206.838 258.474 206.39 258.714C205.958 258.97 205.358 259.098 204.59 259.098C204.446 259.098 204.23 259.098 203.942 259.098C203.67 259.098 203.366 259.098 203.03 259.098C202.71 259.098 202.406 259.098 202.118 259.098C201.846 259.098 201.638 259.098 201.494 259.098C200.566 259.098 199.846 258.994 199.334 258.786C198.838 258.578 198.494 258.218 198.302 257.706C198.11 257.194 198.014 256.506 198.014 255.642V249.738ZM195.158 236.922H198.23V241.29H195.158V236.922ZM186.446 239.226H207.062V244.938H203.99V241.962H189.374V244.938H186.446V239.226ZM214.454 249.57H230.726V252.042H214.454V249.57ZM211.19 240.81H227.102V243.402H211.19V240.81ZM218.294 245.226H229.166V247.698H218.294V245.226ZM229.622 249.57H232.478C232.478 249.57 232.47 249.642 232.454 249.786C232.454 249.914 232.446 250.066 232.43 250.242C232.43 250.418 232.422 250.562 232.406 250.674C232.278 252.306 232.134 253.65 231.974 254.706C231.83 255.746 231.662 256.57 231.47 257.178C231.278 257.77 231.054 258.202 230.798 258.474C230.526 258.778 230.23 258.994 229.91 259.122C229.606 259.25 229.254 259.338 228.854 259.386C228.534 259.434 228.094 259.458 227.534 259.458C226.99 259.474 226.414 259.466 225.806 259.434C225.79 259.05 225.702 258.61 225.542 258.114C225.398 257.618 225.214 257.186 224.99 256.818C225.518 256.866 226.014 256.898 226.478 256.914C226.942 256.93 227.294 256.93 227.534 256.914C227.726 256.914 227.886 256.898 228.014 256.866C228.158 256.834 228.294 256.762 228.422 256.65C228.582 256.49 228.726 256.17 228.854 255.69C228.998 255.194 229.134 254.482 229.262 253.554C229.39 252.626 229.51 251.434 229.622 249.978V249.57ZM224.51 252.882L226.478 252.21C226.814 252.706 227.126 253.25 227.414 253.842C227.702 254.434 227.91 254.946 228.038 255.378L225.926 256.17C225.83 255.738 225.646 255.21 225.374 254.586C225.102 253.962 224.814 253.394 224.51 252.882ZM213.878 237.906L216.47 236.898C216.902 237.362 217.342 237.89 217.79 238.482C218.238 239.074 218.582 239.594 218.822 240.042L216.062 241.17C215.886 240.738 215.582 240.218 215.15 239.61C214.734 238.986 214.31 238.418 213.878 237.906ZM217.262 253.53L219.59 253.266C219.814 254.034 219.982 254.882 220.094 255.81C220.206 256.722 220.262 257.514 220.262 258.186L217.79 258.498C217.822 258.066 217.814 257.562 217.766 256.986C217.734 256.41 217.67 255.826 217.574 255.234C217.494 254.626 217.39 254.058 217.262 253.53ZM220.886 253.338L223.094 252.834C223.382 253.522 223.646 254.258 223.886 255.042C224.126 255.826 224.286 256.514 224.366 257.106L222.038 257.682C221.974 257.09 221.83 256.386 221.606 255.57C221.382 254.754 221.142 254.01 220.886 253.338ZM214.046 252.738L216.47 253.53C216.31 254.234 216.11 254.938 215.87 255.642C215.646 256.33 215.366 256.994 215.03 257.634C214.694 258.274 214.294 258.85 213.83 259.362L211.598 257.778C212.014 257.362 212.374 256.882 212.678 256.338C212.998 255.794 213.27 255.218 213.494 254.61C213.734 253.986 213.918 253.362 214.046 252.738ZM221.294 236.874L224.246 237.594C223.702 239.306 223.054 240.986 222.302 242.634C221.566 244.266 220.686 245.826 219.662 247.314C218.654 248.786 217.486 250.146 216.158 251.394C214.83 252.626 213.318 253.69 211.622 254.586C211.51 254.362 211.358 254.098 211.166 253.794C210.99 253.474 210.806 253.162 210.614 252.858C210.422 252.554 210.238 252.298 210.062 252.09C211.598 251.322 212.966 250.386 214.166 249.282C215.382 248.178 216.446 246.954 217.358 245.61C218.286 244.266 219.07 242.858 219.71 241.386C220.366 239.898 220.894 238.394 221.294 236.874ZM226.526 240.81H229.19C229.014 241.706 228.814 242.642 228.59 243.618C228.382 244.594 228.182 245.434 227.99 246.138L225.47 245.73C225.662 245.074 225.854 244.298 226.046 243.402C226.238 242.49 226.398 241.626 226.526 240.81ZM228.086 245.226H230.75C230.59 246.106 230.406 247.026 230.198 247.986C229.99 248.946 229.782 249.77 229.574 250.458L227.054 250.122C227.246 249.45 227.438 248.666 227.63 247.77C227.822 246.874 227.974 246.026 228.086 245.226ZM247.55 244.434H256.382V247.338H247.55V244.434ZM235.67 255.354H257.702V258.234H235.67V255.354ZM246.134 236.922H249.206V256.89H246.134V236.922ZM238.742 241.866H241.742V256.746H238.742V241.866Z" fill="white"/>
<path d="M43.846 164.422H84.736V168.83H43.846V164.422ZM53.068 149.226H59.1V161H53.068V149.226ZM66.292 149.226H72.44V161H66.292V149.226ZM44.948 152.068H86.07V162.508H44.948V158.68H79.69V155.896H44.948V152.068ZM59.042 176.08L64.9 177.414C62.696 179.541 60.1247 181.435 57.186 183.098C54.2473 184.761 50.8253 186.269 46.92 187.622C46.5333 187.003 45.9727 186.288 45.238 185.476C44.542 184.664 43.904 184.045 43.324 183.62C46.92 182.615 50.052 181.474 52.72 180.198C55.388 178.883 57.4953 177.511 59.042 176.08ZM59.1 179.618H77.37V183.388H55.33L59.1 179.618ZM75.978 179.618H77.196L78.24 179.386L82.126 181.88C80.3087 183.968 78.066 185.766 75.398 187.274C72.73 188.782 69.772 190.058 66.524 191.102C63.3147 192.146 59.912 192.977 56.316 193.596C52.7587 194.253 49.182 194.775 45.586 195.162C45.354 194.466 44.9867 193.654 44.484 192.726C44.02 191.798 43.556 191.025 43.092 190.406C46.3787 190.174 49.6653 189.807 52.952 189.304C56.2773 188.801 59.4287 188.144 62.406 187.332C65.3833 186.52 68.0513 185.553 70.41 184.432C72.7687 183.272 74.6247 181.938 75.978 180.43V179.618ZM57.36 182.054C58.8293 183.291 60.666 184.374 62.87 185.302C65.1127 186.23 67.626 187.023 70.41 187.68C73.194 188.299 76.1713 188.801 79.342 189.188C82.5127 189.536 85.78 189.787 89.144 189.942C88.5253 190.561 87.8873 191.392 87.23 192.436C86.6113 193.48 86.1087 194.389 85.722 195.162C82.242 194.891 78.878 194.485 75.63 193.944C72.382 193.403 69.308 192.687 66.408 191.798C63.5467 190.909 60.9173 189.826 58.52 188.55C56.1613 187.274 54.0927 185.785 52.314 184.084L57.36 182.054ZM54.866 170.048H60.318V172.6C60.318 173.18 60.4533 173.547 60.724 173.702C61.0333 173.857 61.6327 173.934 62.522 173.934C62.754 173.934 63.1407 173.934 63.682 173.934C64.2233 173.934 64.8227 173.934 65.48 173.934C66.176 173.934 66.7947 173.934 67.336 173.934C67.916 173.934 68.3413 173.934 68.612 173.934C69.308 173.934 69.772 173.799 70.004 173.528C70.236 173.219 70.41 172.542 70.526 171.498C71.0673 171.846 71.7633 172.155 72.614 172.426C73.5033 172.697 74.296 172.89 74.992 173.006C74.76 174.939 74.2187 176.254 73.368 176.95C72.556 177.607 71.222 177.936 69.366 177.936C69.134 177.936 68.7667 177.936 68.264 177.936C67.7613 177.936 67.1813 177.936 66.524 177.936C65.8667 177.936 65.2287 177.936 64.61 177.936C63.9913 177.936 63.4307 177.936 62.928 177.936C62.4253 177.936 62.058 177.936 61.826 177.936C59.97 177.936 58.52 177.781 57.476 177.472C56.4707 177.124 55.7747 176.583 55.388 175.848C55.04 175.075 54.866 173.992 54.866 172.6V170.048ZM83.112 164.422H84.098L85.084 164.248L89.608 165.234C89.0667 166.742 88.4673 168.289 87.81 169.874C87.1527 171.459 86.5147 172.793 85.896 173.876L80.444 172.774C80.908 171.769 81.3913 170.57 81.894 169.178C82.3967 167.786 82.8027 166.452 83.112 165.176V164.422ZM49.82 169.41L54.46 171.44C53.8413 172.755 53.068 174.069 52.14 175.384C51.2507 176.699 50.1293 177.82 48.776 178.748L44.31 175.848C45.5087 175.113 46.5913 174.147 47.558 172.948C48.5247 171.749 49.2787 170.57 49.82 169.41ZM60.086 169.294L63.74 166.684C64.784 167.187 65.886 167.825 67.046 168.598C68.206 169.371 69.1147 170.067 69.772 170.686L66.002 173.586C65.3447 172.929 64.436 172.175 63.276 171.324C62.1547 170.473 61.0913 169.797 60.086 169.294ZM72.73 171.208L77.022 168.946C78.2207 169.874 79.4387 170.995 80.676 172.31C81.9133 173.586 82.8413 174.727 83.46 175.732L78.936 178.226C78.3947 177.182 77.5247 176.003 76.326 174.688C75.1273 173.373 73.9287 172.213 72.73 171.208ZM60.202 140.7H67.452V148.066H60.202V140.7ZM42.512 144.18H88.1V149.4H42.512V144.18ZM39.206 144.18H45.528V161.464C45.528 163.9 45.4507 166.568 45.296 169.468C45.1413 172.368 44.8513 175.345 44.426 178.4C44.0007 181.455 43.382 184.413 42.57 187.274C41.758 190.135 40.6947 192.726 39.38 195.046C38.9933 194.659 38.4713 194.195 37.814 193.654C37.1567 193.151 36.48 192.668 35.784 192.204C35.1267 191.74 34.5467 191.392 34.044 191.16C35.2427 189.033 36.1707 186.713 36.828 184.2C37.524 181.648 38.046 179.057 38.394 176.428C38.742 173.76 38.9547 171.15 39.032 168.598C39.148 166.046 39.206 163.668 39.206 161.464V144.18ZM105.384 151.256H145.752V158.042H105.384V151.256ZM102.948 168.308H143.49V175.036H102.948V168.308ZM96.278 186.752H148.71V193.538H96.278V186.752ZM118.782 140.7H126.09V190.058H118.782V140.7ZM105.384 141.454L112.576 143.078C111.764 146.055 110.759 148.994 109.56 151.894C108.361 154.794 107.066 157.501 105.674 160.014C104.282 162.489 102.832 164.654 101.324 166.51C100.86 166.085 100.241 165.621 99.468 165.118C98.7333 164.577 97.96 164.055 97.148 163.552C96.336 163.049 95.64 162.643 95.06 162.334C96.6067 160.71 98.018 158.777 99.294 156.534C100.609 154.291 101.769 151.875 102.774 149.284C103.818 146.693 104.688 144.083 105.384 141.454ZM181.132 143.89H206.826V171.382H199.866V150.502H181.132V143.89ZM185.83 161.522H202.94V168.018H185.83V161.522ZM182.466 161.522H189.426V185.534C189.426 186.81 189.619 187.622 190.006 187.97C190.393 188.279 191.282 188.434 192.674 188.434C192.945 188.434 193.447 188.434 194.182 188.434C194.917 188.434 195.729 188.434 196.618 188.434C197.507 188.434 198.339 188.434 199.112 188.434C199.885 188.434 200.465 188.434 200.852 188.434C201.703 188.434 202.36 188.221 202.824 187.796C203.288 187.332 203.597 186.443 203.752 185.128C203.945 183.813 204.1 181.88 204.216 179.328C204.719 179.715 205.357 180.101 206.13 180.488C206.903 180.836 207.696 181.165 208.508 181.474C209.32 181.745 210.035 181.957 210.654 182.112C210.383 185.437 209.939 188.028 209.32 189.884C208.701 191.701 207.754 192.997 206.478 193.77C205.241 194.543 203.539 194.93 201.374 194.93C201.065 194.93 200.581 194.93 199.924 194.93C199.267 194.93 198.532 194.93 197.72 194.93C196.947 194.93 196.154 194.93 195.342 194.93C194.53 194.93 193.795 194.93 193.138 194.93C192.519 194.93 192.075 194.93 191.804 194.93C189.445 194.93 187.589 194.659 186.236 194.118C184.883 193.577 183.916 192.629 183.336 191.276C182.756 189.923 182.466 188.028 182.466 185.592V161.522ZM165.24 169.294H171.852V195.22H165.24V169.294ZM164.834 140.758L171.156 143.368C170.267 144.837 169.319 146.365 168.314 147.95C167.347 149.535 166.4 151.043 165.472 152.474C164.544 153.905 163.655 155.161 162.804 156.244L157.99 153.924C158.802 152.764 159.633 151.43 160.484 149.922C161.335 148.375 162.147 146.809 162.92 145.224C163.693 143.6 164.331 142.111 164.834 140.758ZM172.374 147.486L178.29 150.328C176.743 152.532 175.042 154.833 173.186 157.23C171.33 159.627 169.474 161.928 167.618 164.132C165.762 166.336 164.003 168.25 162.34 169.874L158.164 167.38C159.363 166.104 160.6 164.635 161.876 162.972C163.191 161.309 164.486 159.589 165.762 157.81C167.038 156.031 168.237 154.253 169.358 152.474C170.518 150.695 171.523 149.033 172.374 147.486ZM155.206 155.026L158.338 150.212C159.421 151.024 160.523 151.933 161.644 152.938C162.765 153.943 163.809 154.949 164.776 155.954C165.743 156.959 166.477 157.887 166.98 158.738L163.558 164.132C163.055 163.243 162.34 162.276 161.412 161.232C160.484 160.149 159.459 159.067 158.338 157.984C157.255 156.901 156.211 155.915 155.206 155.026ZM171.04 161.348L176.202 159.028C177.053 160.304 177.903 161.715 178.754 163.262C179.643 164.77 180.436 166.259 181.132 167.728C181.828 169.159 182.35 170.435 182.698 171.556L177.13 174.224C176.821 173.103 176.337 171.807 175.68 170.338C175.023 168.83 174.288 167.303 173.476 165.756C172.664 164.171 171.852 162.701 171.04 161.348ZM155.148 166.162C158.048 166.046 161.47 165.911 165.414 165.756C169.397 165.563 173.418 165.369 177.478 165.176L177.42 170.918C173.631 171.15 169.822 171.382 165.994 171.614C162.205 171.846 158.821 172.059 155.844 172.252L155.148 166.162ZM172.2 176.428L177.71 174.398C178.329 175.558 178.928 176.815 179.508 178.168C180.088 179.521 180.61 180.836 181.074 182.112C181.577 183.388 181.963 184.529 182.234 185.534L176.434 187.854C176.202 186.81 175.854 185.631 175.39 184.316C174.926 183.001 174.404 181.667 173.824 180.314C173.283 178.922 172.741 177.627 172.2 176.428ZM158.048 174.862L164.196 175.964C163.848 178.787 163.307 181.571 162.572 184.316C161.837 187.023 161.006 189.304 160.078 191.16C159.653 190.889 159.092 190.58 158.396 190.232C157.739 189.884 157.043 189.555 156.308 189.246C155.573 188.898 154.955 188.627 154.452 188.434C155.419 186.733 156.173 184.664 156.714 182.228C157.294 179.753 157.739 177.298 158.048 174.862ZM230.838 176.892H237.682V186.23C237.682 187.081 237.837 187.622 238.146 187.854C238.494 188.047 239.267 188.144 240.466 188.144C240.698 188.144 241.104 188.144 241.684 188.144C242.303 188.144 242.979 188.144 243.714 188.144C244.449 188.144 245.145 188.144 245.802 188.144C246.459 188.144 246.943 188.144 247.252 188.144C247.948 188.144 248.47 188.009 248.818 187.738C249.166 187.467 249.417 186.887 249.572 185.998C249.727 185.109 249.843 183.775 249.92 181.996C250.384 182.344 250.964 182.692 251.66 183.04C252.395 183.349 253.149 183.639 253.922 183.91C254.734 184.181 255.449 184.393 256.068 184.548C255.797 187.1 255.372 189.091 254.792 190.522C254.251 191.953 253.419 192.939 252.298 193.48C251.215 194.06 249.746 194.35 247.89 194.35C247.619 194.35 247.194 194.35 246.614 194.35C246.073 194.35 245.454 194.35 244.758 194.35C244.062 194.35 243.366 194.35 242.67 194.35C242.013 194.35 241.394 194.35 240.814 194.35C240.273 194.35 239.867 194.35 239.596 194.35C237.237 194.35 235.42 194.099 234.144 193.596C232.868 193.093 231.998 192.243 231.534 191.044C231.07 189.884 230.838 188.299 230.838 186.288V176.892ZM233.97 174.224L238.32 169.7C239.712 170.28 241.123 170.995 242.554 171.846C243.985 172.658 245.319 173.528 246.556 174.456C247.832 175.345 248.857 176.235 249.63 177.124L244.874 182.054C244.178 181.203 243.231 180.295 242.032 179.328C240.833 178.361 239.519 177.433 238.088 176.544C236.696 175.655 235.323 174.881 233.97 174.224ZM253.574 178.748L259.316 175.326C260.747 176.641 262.158 178.091 263.55 179.676C264.942 181.223 266.199 182.789 267.32 184.374C268.441 185.959 269.292 187.448 269.872 188.84L263.666 192.668C263.163 191.315 262.371 189.826 261.288 188.202C260.244 186.578 259.045 184.954 257.692 183.33C256.377 181.667 255.005 180.14 253.574 178.748ZM223.066 176.254L229.33 178.226C228.866 180.121 228.286 181.996 227.59 183.852C226.894 185.669 226.024 187.39 224.98 189.014C223.975 190.599 222.757 191.991 221.326 193.19L215.468 189.246C216.783 188.241 217.923 187.061 218.89 185.708C219.895 184.316 220.727 182.827 221.384 181.242C222.08 179.618 222.641 177.955 223.066 176.254ZM223.704 161H255.836V166.8H223.704V161ZM232.462 152.938H252.936V158.332H232.462V152.938ZM242.612 146.848C241.027 148.627 238.997 150.444 236.522 152.3C234.047 154.117 231.341 155.819 228.402 157.404C225.463 158.989 222.467 160.343 219.412 161.464C219.18 160.884 218.832 160.227 218.368 159.492C217.904 158.757 217.421 158.042 216.918 157.346C216.454 156.611 215.99 155.973 215.526 155.432C218.697 154.427 221.751 153.131 224.69 151.546C227.667 149.961 230.355 148.24 232.752 146.384C235.188 144.489 237.16 142.614 238.668 140.758H245.918C248.083 143.039 250.481 145.108 253.11 146.964C255.739 148.781 258.523 150.367 261.462 151.72C264.401 153.035 267.339 154.098 270.278 154.91C269.505 155.799 268.731 156.843 267.958 158.042C267.185 159.202 266.527 160.285 265.986 161.29C263.975 160.555 261.868 159.666 259.664 158.622C257.46 157.539 255.295 156.36 253.168 155.084C251.08 153.808 249.127 152.474 247.31 151.082C245.493 149.69 243.927 148.279 242.612 146.848ZM253.806 161H255.314L256.358 160.652L261.056 163.494C260.36 164.963 259.49 166.549 258.446 168.25C257.402 169.951 256.3 171.614 255.14 173.238C254.019 174.862 252.936 176.331 251.892 177.646C251.196 177.105 250.326 176.505 249.282 175.848C248.277 175.191 247.368 174.688 246.556 174.34C247.523 173.18 248.47 171.865 249.398 170.396C250.365 168.927 251.235 167.477 252.008 166.046C252.82 164.615 253.419 163.359 253.806 162.276V161ZM275.672 170.164C277.412 169.816 279.384 169.391 281.588 168.888C283.792 168.385 286.093 167.844 288.49 167.264C290.887 166.645 293.285 166.046 295.682 165.466L296.552 172.136C293.265 173.064 289.921 173.992 286.518 174.92C283.115 175.809 280.003 176.602 277.18 177.298L275.672 170.164ZM276.426 151.778H295.914V158.506H276.426V151.778ZM282.98 140.7H290.114V187.622C290.114 189.246 289.94 190.541 289.592 191.508C289.244 192.513 288.587 193.287 287.62 193.828C286.653 194.369 285.474 194.717 284.082 194.872C282.729 195.065 281.085 195.143 279.152 195.104C279.036 194.176 278.785 193.074 278.398 191.798C278.05 190.561 277.663 189.478 277.238 188.55C278.205 188.589 279.152 188.608 280.08 188.608C281.008 188.608 281.646 188.608 281.994 188.608C282.381 188.569 282.632 188.492 282.748 188.376C282.903 188.221 282.98 187.951 282.98 187.564V140.7ZM298.176 151.024H327.93V194.466H320.68V157.578H305.136V194.872H298.176V151.024ZM302.41 168.018H323.58V174.572H302.41V168.018ZM302.41 185.36H323.58V191.914H302.41V185.36ZM309.776 140.816L318.07 141.686C317.335 144.083 316.562 146.461 315.75 148.82C314.938 151.179 314.165 153.189 313.43 154.852L306.934 153.75C307.321 152.513 307.707 151.159 308.094 149.69C308.481 148.182 308.829 146.655 309.138 145.108C309.447 143.561 309.66 142.131 309.776 140.816ZM374.968 153.286H390.86V159.608H374.968V153.286ZM365.804 186.52H385.408V192.784H365.804V186.52ZM362.498 168.772H388.482V194.988H381.754V174.862H368.936V195.22H362.498V168.772ZM371.314 140.816H378.216V171.556H371.314V140.816ZM342.546 180.894L349.042 182.46C348.191 184.896 347.07 187.274 345.678 189.594C344.286 191.875 342.817 193.789 341.27 195.336C340.845 194.949 340.303 194.505 339.646 194.002C338.989 193.538 338.293 193.074 337.558 192.61C336.862 192.146 336.263 191.779 335.76 191.508C337.229 190.193 338.563 188.589 339.762 186.694C340.961 184.799 341.889 182.866 342.546 180.894ZM350.202 183.156L355.712 180.72C356.949 182.189 358.109 183.813 359.192 185.592C360.275 187.332 361.087 188.879 361.628 190.232L355.828 193.074C355.325 191.721 354.533 190.116 353.45 188.26C352.406 186.365 351.323 184.664 350.202 183.156ZM345.62 158.97V164.364H352.754V158.97H345.62ZM345.62 169.468V174.92H352.754V169.468H345.62ZM345.62 148.53V153.808H352.754V148.53H345.62ZM339.298 142.962H359.366V180.43H339.298V142.962Z" fill="white"/>
<ellipse cx="76.3214" cy="68.2861" rx="54.1017" ry="56" fill="#6EE292"/>
<path d="M45.4585 90.2123V76.5049L75.2525 29.5589H87.4329V48.1668H80.3661L62.9301 75.7947V76.3628H106.076V90.2123H45.4585ZM80.5792 102.286V86.0219L80.9343 80.0205V29.5589H97.3761V102.286H80.5792Z" fill="white"/>
<rect x="425.814" y="87.9668" width="64.9551" height="148" fill="white"/>
<rect x="425.814" y="87.9668" width="64.9551" height="148" fill="#73EB98"/>
<rect x="432.823" y="96.0098" width="50.9373" height="41.7006" fill="#93FFB4"/>
<rect x="432.823" y="146.598" width="50.9373" height="41.7006" fill="#93FFB4"/>
<rect x="471.423" y="117.299" width="64.9551" height="148" fill="white"/>
<rect x="471.423" y="117.299" width="64.9551" height="148" fill="#73EB98"/>
<rect x="478.432" y="125.342" width="50.9373" height="41.7006" fill="#93FFB4"/>
<rect x="478.432" y="175.93" width="50.9373" height="41.7006" fill="#93FFB4"/>
</svg>
