<svg width="570" height="319" viewBox="0 0 570 319" fill="none" xmlns="http://www.w3.org/2000/svg">
<path d="M-0.00683594 35.7778H539.993C556.562 35.7778 569.993 49.2093 569.993 65.7778V318.149H29.9932C13.4246 318.149 -0.00683594 304.718 -0.00683594 288.149V35.7778Z" fill="#FF5F17"/>
<line x1="347.79" y1="225.649" x2="38.6372" y2="225.649" stroke="white"/>
<path d="M147.987 93.2854H164.019V96.6774H147.987V93.2854ZM147.571 108.485H164.115V111.877H147.571V108.485ZM145.875 99.8774H166.291V113.061H162.323V103.237H149.651V113.061H145.875V99.8774ZM155.859 86.7574C154.984 88.0161 153.875 89.2961 152.531 90.5974C151.208 91.8987 149.725 93.1467 148.083 94.3414C146.461 95.5361 144.776 96.6134 143.027 97.5734C142.856 97.2747 142.632 96.9334 142.355 96.5494C142.099 96.1654 141.811 95.7921 141.491 95.4294C141.192 95.0454 140.893 94.7254 140.595 94.4694C142.451 93.5521 144.221 92.4534 145.907 91.1734C147.613 89.8934 149.139 88.5387 150.483 87.1094C151.827 85.6801 152.893 84.3147 153.683 83.0134H157.683C158.536 84.2294 159.496 85.3921 160.563 86.5014C161.629 87.6107 162.749 88.6454 163.923 89.6054C165.117 90.5654 166.355 91.4187 167.635 92.1654C168.915 92.9121 170.184 93.5414 171.443 94.0534C170.973 94.5441 170.525 95.0987 170.099 95.7174C169.672 96.3147 169.288 96.9121 168.947 97.5094C167.709 96.8694 166.461 96.1334 165.203 95.3014C163.944 94.4481 162.728 93.5521 161.555 92.6134C160.403 91.6534 159.336 90.6827 158.355 89.7014C157.373 88.6987 156.541 87.7174 155.859 86.7574ZM175.731 84.1654H179.315V104.645H175.731V84.1654ZM177.779 84.1654H185.971V103.141H177.779V99.7494H182.419V87.5574H177.779V84.1654ZM177.683 91.7174H184.307V95.0774H177.683V91.7174ZM186.899 84.1014H201.011V87.4294H186.899V84.1014ZM199.795 84.1014H203.443C203.443 84.1014 203.443 84.2614 203.443 84.5814C203.443 84.8801 203.432 85.1467 203.411 85.3814C203.325 86.8321 203.229 88.0481 203.123 89.0294C203.016 89.9894 202.877 90.7574 202.707 91.3334C202.557 91.8881 202.355 92.3147 202.099 92.6134C201.8 92.9547 201.469 93.2001 201.107 93.3494C200.744 93.4774 200.339 93.5627 199.891 93.6054C199.485 93.6481 198.952 93.6801 198.291 93.7014C197.629 93.7227 196.925 93.7227 196.179 93.7014C196.157 93.2107 196.061 92.6774 195.891 92.1014C195.72 91.5254 195.507 91.0241 195.251 90.5974C195.869 90.6614 196.424 90.7041 196.915 90.7254C197.427 90.7467 197.811 90.7574 198.067 90.7574C198.28 90.7574 198.451 90.7361 198.579 90.6934C198.728 90.6507 198.867 90.5654 198.995 90.4374C199.144 90.2881 199.261 90.0107 199.347 89.6054C199.453 89.1787 199.539 88.5601 199.603 87.7494C199.688 86.9174 199.752 85.8507 199.795 84.5494V84.1014ZM191.795 85.1254H195.539C195.432 86.3201 195.24 87.4294 194.963 88.4534C194.707 89.4561 194.301 90.3734 193.747 91.2054C193.192 92.0161 192.435 92.7414 191.475 93.3814C190.536 94.0001 189.309 94.5334 187.795 94.9814C187.624 94.5334 187.336 94.0321 186.931 93.4774C186.547 92.9227 186.173 92.4747 185.811 92.1334C187.048 91.8134 188.04 91.4401 188.787 91.0134C189.533 90.5654 190.109 90.0534 190.515 89.4774C190.941 88.8801 191.24 88.2294 191.411 87.5254C191.581 86.8001 191.709 86.0001 191.795 85.1254ZM191.475 97.7334V101.189H198.675V97.7334H191.475ZM187.859 94.6934H202.451V104.261H187.859V94.6934ZM183.571 106.181L187.155 105.733C187.368 106.779 187.549 107.931 187.699 109.189C187.848 110.427 187.933 111.472 187.955 112.325L184.179 112.901C184.179 112.325 184.157 111.653 184.115 110.885C184.072 110.117 184.008 109.317 183.923 108.485C183.837 107.653 183.72 106.885 183.571 106.181ZM190.387 106.085L193.971 105.445C194.248 106.128 194.515 106.864 194.771 107.653C195.027 108.443 195.251 109.221 195.443 109.989C195.635 110.736 195.773 111.397 195.859 111.973L192.019 112.773C191.976 112.219 191.859 111.557 191.667 110.789C191.496 110.021 191.293 109.232 191.059 108.421C190.845 107.589 190.621 106.811 190.387 106.085ZM197.011 106.085L200.467 104.709C200.915 105.392 201.384 106.139 201.875 106.949C202.365 107.76 202.813 108.56 203.219 109.349C203.645 110.117 203.976 110.811 204.211 111.429L200.499 113.029C200.285 112.411 199.987 111.696 199.603 110.885C199.219 110.096 198.792 109.275 198.323 108.421C197.875 107.568 197.437 106.789 197.011 106.085ZM178.227 104.965L181.939 105.989C181.427 107.205 180.808 108.475 180.083 109.797C179.357 111.099 178.664 112.229 178.003 113.189L174.291 111.589C174.739 111.056 175.197 110.427 175.667 109.701C176.157 108.955 176.627 108.176 177.075 107.365C177.523 106.555 177.907 105.755 178.227 104.965ZM207.571 99.2054C208.616 98.9921 209.789 98.7361 211.091 98.4374C212.413 98.1174 213.8 97.7761 215.251 97.4134C216.723 97.0507 218.173 96.6987 219.603 96.3574L220.083 100.005C218.12 100.539 216.125 101.072 214.099 101.605C212.093 102.139 210.269 102.619 208.627 103.045L207.571 99.2054ZM207.923 89.0614H219.571V92.6774H207.923V89.0614ZM212.051 82.9494H215.955V108.581C215.955 109.52 215.848 110.256 215.635 110.789C215.421 111.323 215.037 111.739 214.483 112.037C213.928 112.336 213.256 112.528 212.467 112.613C211.677 112.699 210.696 112.741 209.523 112.741C209.459 112.229 209.32 111.621 209.107 110.917C208.893 110.235 208.659 109.637 208.403 109.125C209.021 109.147 209.629 109.168 210.227 109.189C210.824 109.189 211.229 109.189 211.443 109.189C211.848 109.189 212.051 108.987 212.051 108.581V82.9494ZM220.083 85.3814H237.523V89.2214H220.083V85.3814ZM228.243 86.7894H232.371V108.005C232.371 109.115 232.221 109.979 231.923 110.597C231.645 111.237 231.144 111.728 230.419 112.069C229.693 112.411 228.787 112.624 227.699 112.709C226.611 112.795 225.32 112.837 223.827 112.837C223.763 112.432 223.645 111.973 223.475 111.461C223.304 110.949 223.112 110.437 222.899 109.925C222.707 109.413 222.504 108.987 222.291 108.645C222.952 108.667 223.624 108.688 224.307 108.709C225.011 108.731 225.64 108.741 226.195 108.741C226.749 108.741 227.133 108.741 227.347 108.741C227.667 108.741 227.891 108.688 228.019 108.581C228.168 108.453 228.243 108.24 228.243 107.941V86.7894ZM241.267 94.2774H270.419V98.0854H241.267V94.2774ZM255.539 86.8854H266.931V90.5654H255.539V86.8854ZM253.043 82.9494H257.139V96.1014H253.043V82.9494ZM253.043 96.7094H257.139V112.997H253.043V96.7094ZM255.955 102.821L257.907 99.7494C258.717 99.9841 259.603 100.261 260.563 100.581C261.523 100.88 262.493 101.211 263.475 101.573C264.456 101.915 265.384 102.256 266.259 102.597C267.133 102.939 267.869 103.259 268.467 103.557L266.419 107.045C265.843 106.725 265.128 106.384 264.275 106.021C263.443 105.659 262.547 105.285 261.587 104.901C260.627 104.517 259.656 104.144 258.675 103.781C257.715 103.419 256.808 103.099 255.955 102.821ZM291.374 95.0774H311.822V98.5334H291.374V95.0774ZM292.494 88.6134H310.734V92.0054H292.494V88.6134ZM299.246 90.2774H303.086V95.3974C303.086 96.4214 302.958 97.4881 302.702 98.5974C302.467 99.7067 302.019 100.816 301.358 101.925C300.718 103.013 299.79 104.069 298.574 105.093C297.379 106.096 295.832 107.013 293.934 107.845C293.763 107.568 293.528 107.259 293.23 106.917C292.931 106.576 292.622 106.235 292.302 105.893C291.982 105.552 291.672 105.275 291.374 105.061C293.187 104.4 294.616 103.664 295.662 102.853C296.728 102.043 297.507 101.2 297.998 100.325C298.51 99.4507 298.84 98.5974 298.99 97.7654C299.16 96.9121 299.246 96.1121 299.246 95.3654V90.2774ZM303.662 97.5094C304.323 99.2801 305.326 100.784 306.67 102.021C308.035 103.237 309.784 104.112 311.918 104.645C311.64 104.901 311.342 105.221 311.022 105.605C310.723 105.989 310.435 106.384 310.158 106.789C309.902 107.173 309.678 107.536 309.486 107.877C307.139 107.109 305.24 105.904 303.79 104.261C302.339 102.619 301.219 100.603 300.43 98.2134L303.662 97.5094ZM290.094 95.4294V107.237H286.35V98.9814H282.638V95.4294H290.094ZM290.094 105.573C290.755 106.619 291.683 107.387 292.878 107.877C294.072 108.368 295.502 108.645 297.166 108.709C298.104 108.752 299.214 108.784 300.494 108.805C301.795 108.805 303.16 108.795 304.59 108.773C306.019 108.752 307.416 108.709 308.782 108.645C310.168 108.581 311.395 108.507 312.462 108.421C312.334 108.72 312.184 109.104 312.014 109.573C311.843 110.043 311.683 110.523 311.534 111.013C311.406 111.504 311.31 111.941 311.246 112.325C310.286 112.389 309.187 112.432 307.95 112.453C306.712 112.496 305.443 112.517 304.142 112.517C302.84 112.539 301.582 112.539 300.366 112.517C299.15 112.496 298.062 112.464 297.102 112.421C295.139 112.336 293.464 112.027 292.078 111.493C290.691 110.981 289.464 110.107 288.398 108.869C287.694 109.467 286.968 110.085 286.222 110.725C285.496 111.365 284.696 112.027 283.822 112.709L281.934 108.709C282.68 108.261 283.459 107.771 284.27 107.237C285.08 106.704 285.859 106.149 286.606 105.573H290.094ZM282.67 86.0214L285.518 83.7174C286.179 84.1441 286.851 84.6454 287.534 85.2214C288.216 85.7761 288.856 86.3521 289.454 86.9494C290.051 87.5254 290.531 88.0587 290.894 88.5494L287.854 91.1094C287.534 90.5974 287.086 90.0427 286.51 89.4454C285.955 88.8481 285.336 88.2507 284.654 87.6534C283.971 87.0347 283.31 86.4907 282.67 86.0214ZM305.87 82.9494L309.774 84.1654C309.198 85.0827 308.6 85.9894 307.982 86.8854C307.384 87.7601 306.83 88.5067 306.318 89.1254L303.182 88.0374C303.502 87.5467 303.832 87.0134 304.174 86.4374C304.515 85.8401 304.835 85.2427 305.134 84.6454C305.432 84.0267 305.678 83.4614 305.87 82.9494ZM293.326 84.3574L296.558 83.0134C297.155 83.7387 297.72 84.5601 298.254 85.4774C298.787 86.3947 299.16 87.2054 299.374 87.9094L295.918 89.3814C295.747 88.6987 295.406 87.8881 294.894 86.9494C294.403 85.9894 293.88 85.1254 293.326 84.3574Z" fill="white"/>
<path d="M46.144 246.221H54.4V248.573H46.144V246.221ZM42.016 260.141C42.736 260.029 43.568 259.893 44.512 259.733C45.472 259.573 46.488 259.405 47.56 259.229C48.632 259.037 49.696 258.845 50.752 258.653L50.992 261.149C49.6 261.469 48.2 261.781 46.792 262.085C45.384 262.405 44.104 262.685 42.952 262.925L42.016 260.141ZM44.512 241.829H47.296V260.789H44.512V241.829ZM46.144 241.829H55.72V253.061H46.144V250.589H52.864V244.301H46.144V241.829ZM51.136 251.405C51.44 252.845 51.856 254.181 52.384 255.413C52.912 256.629 53.584 257.701 54.4 258.629C55.216 259.557 56.216 260.277 57.4 260.789C57.192 260.981 56.968 261.213 56.728 261.485C56.488 261.773 56.256 262.069 56.032 262.373C55.824 262.693 55.656 262.981 55.528 263.237C54.232 262.549 53.144 261.653 52.264 260.549C51.4 259.429 50.688 258.133 50.128 256.661C49.568 255.189 49.112 253.573 48.76 251.813L51.136 251.405ZM54.616 253.229L56.872 254.789C56.216 255.429 55.52 256.061 54.784 256.685C54.064 257.293 53.4 257.813 52.792 258.245L51.016 256.877C51.4 256.557 51.808 256.189 52.24 255.773C52.688 255.357 53.12 254.925 53.536 254.477C53.952 254.029 54.312 253.613 54.616 253.229ZM35.776 241.781H41.752V244.373H38.464V263.309H35.776V241.781ZM40.96 241.781H41.464L41.872 241.685L43.84 242.813C43.616 243.517 43.376 244.261 43.12 245.045C42.864 245.829 42.608 246.605 42.352 247.373C42.096 248.141 41.84 248.837 41.584 249.461C42.368 250.389 42.872 251.269 43.096 252.101C43.336 252.917 43.456 253.677 43.456 254.381C43.456 255.181 43.368 255.837 43.192 256.349C43.016 256.861 42.728 257.261 42.328 257.549C42.136 257.693 41.912 257.805 41.656 257.885C41.416 257.965 41.168 258.029 40.912 258.077C40.688 258.109 40.424 258.125 40.12 258.125C39.832 258.125 39.536 258.125 39.232 258.125C39.216 257.757 39.152 257.325 39.04 256.829C38.944 256.333 38.8 255.909 38.608 255.557C38.832 255.573 39.032 255.581 39.208 255.581C39.4 255.581 39.568 255.581 39.712 255.581C39.84 255.581 39.96 255.565 40.072 255.533C40.2 255.485 40.32 255.429 40.432 255.365C40.576 255.253 40.68 255.085 40.744 254.861C40.824 254.621 40.856 254.333 40.84 253.997C40.84 253.437 40.72 252.797 40.48 252.077C40.256 251.341 39.784 250.573 39.064 249.773C39.24 249.229 39.416 248.629 39.592 247.973C39.784 247.317 39.96 246.661 40.12 246.005C40.296 245.333 40.456 244.709 40.6 244.133C40.76 243.541 40.88 243.053 40.96 242.669V241.781ZM65.872 245.165V245.981H75.856V245.165H65.872ZM65.872 242.957V243.773H75.856V242.957H65.872ZM63.112 241.493H78.76V247.445H63.112V241.493ZM65.368 254.741V255.581H76.528V254.741H65.368ZM65.368 252.461V253.301H76.528V252.461H65.368ZM62.68 250.949H79.36V257.117H62.68V250.949ZM69.544 251.453H72.328V261.749H69.544V251.453ZM60.064 248.165H81.928V250.229H60.064V248.165ZM62.176 257.909H79.816V259.733H62.176V257.909ZM60.016 260.621H81.976V262.709H60.016V260.621ZM98.005 261.388C96.7323 261.388 95.6016 261.158 94.613 260.698C93.6243 260.237 92.8431 259.604 92.2692 258.797C91.701 257.99 91.4056 257.064 91.3828 256.019H95.4738C95.5078 256.661 95.7692 257.178 96.2578 257.57C96.7465 257.956 97.3289 258.149 98.005 258.149C98.5334 258.149 99.0022 258.033 99.4113 257.8C99.8203 257.567 100.141 257.24 100.374 256.82C100.607 256.394 100.721 255.905 100.715 255.354C100.721 254.791 100.604 254.3 100.366 253.88C100.133 253.459 99.809 253.132 99.3942 252.899C98.9851 252.661 98.5135 252.541 97.9794 252.541C97.4738 252.536 96.9936 252.647 96.5391 252.874C96.0902 253.101 95.7493 253.411 95.5164 253.803L91.7919 253.104L92.5505 243.695H103.749V247.095H96.0192L95.6186 251.212H95.7209C96.0107 250.729 96.4766 250.331 97.1186 250.019C97.7664 249.701 98.5022 249.541 99.326 249.541C100.371 249.541 101.303 249.786 102.121 250.274C102.945 250.757 103.593 251.428 104.065 252.286C104.542 253.144 104.781 254.127 104.781 255.235C104.781 256.434 104.496 257.496 103.928 258.422C103.366 259.348 102.576 260.076 101.559 260.604C100.548 261.127 99.363 261.388 98.005 261.388ZM115.275 261.576C113.753 261.576 112.44 261.215 111.338 260.493C110.236 259.766 109.386 258.723 108.79 257.365C108.193 256.002 107.898 254.362 107.903 252.448C107.909 250.533 108.207 248.908 108.798 247.573C109.395 246.232 110.241 245.212 111.338 244.513C112.44 243.809 113.753 243.456 115.275 243.456C116.798 243.456 118.111 243.809 119.213 244.513C120.321 245.212 121.173 246.232 121.77 247.573C122.366 248.914 122.662 250.539 122.656 252.448C122.656 254.368 122.358 256.01 121.761 257.374C121.165 258.737 120.315 259.78 119.213 260.502C118.116 261.218 116.804 261.576 115.275 261.576ZM115.275 258.124C116.184 258.124 116.92 257.661 117.483 256.735C118.045 255.803 118.324 254.374 118.318 252.448C118.318 251.186 118.19 250.147 117.934 249.328C117.679 248.505 117.324 247.891 116.869 247.487C116.415 247.084 115.883 246.882 115.275 246.882C114.372 246.882 113.642 247.34 113.085 248.255C112.528 249.164 112.247 250.561 112.241 252.448C112.236 253.726 112.358 254.786 112.608 255.627C112.863 256.468 113.221 257.095 113.682 257.51C114.142 257.919 114.673 258.124 115.275 258.124ZM133.251 261.576C131.728 261.576 130.416 261.215 129.313 260.493C128.211 259.766 127.362 258.723 126.765 257.365C126.169 256.002 125.873 254.362 125.879 252.448C125.885 250.533 126.183 248.908 126.774 247.573C127.37 246.232 128.217 245.212 129.313 244.513C130.416 243.809 131.728 243.456 133.251 243.456C134.774 243.456 136.086 243.809 137.188 244.513C138.296 245.212 139.149 246.232 139.745 247.573C140.342 248.914 140.637 250.539 140.632 252.448C140.632 254.368 140.333 256.01 139.737 257.374C139.14 258.737 138.291 259.78 137.188 260.502C136.092 261.218 134.779 261.576 133.251 261.576ZM133.251 258.124C134.16 258.124 134.896 257.661 135.458 256.735C136.021 255.803 136.299 254.374 136.294 252.448C136.294 251.186 136.166 250.147 135.91 249.328C135.654 248.505 135.299 247.891 134.845 247.487C134.39 247.084 133.859 246.882 133.251 246.882C132.348 246.882 131.617 247.34 131.061 248.255C130.504 249.164 130.223 250.561 130.217 252.448C130.211 253.726 130.333 254.786 130.583 255.627C130.839 256.468 131.197 257.095 131.657 257.51C132.117 257.919 132.649 258.124 133.251 258.124ZM161.773 247.901H168.925V250.493H161.773V247.901ZM161.773 253.901H168.925V256.493H161.773V253.901ZM160.285 241.973H170.557V261.653H167.653V244.565H163.045V261.653H160.285V241.973ZM158.053 260.069H172.189V262.661H158.053V260.069ZM153.157 240.773L155.701 241.661C155.381 242.285 155.045 242.925 154.693 243.581C154.341 244.221 153.997 244.845 153.661 245.453C153.325 246.045 152.997 246.565 152.677 247.013L150.733 246.221C151.021 245.725 151.317 245.165 151.621 244.541C151.925 243.901 152.213 243.253 152.485 242.597C152.757 241.941 152.981 241.333 153.157 240.773ZM156.037 243.629L158.485 244.637C157.893 245.549 157.253 246.509 156.565 247.517C155.877 248.509 155.181 249.461 154.477 250.373C153.773 251.285 153.117 252.085 152.509 252.773L150.757 251.885C151.221 251.341 151.693 250.725 152.173 250.037C152.653 249.349 153.125 248.637 153.589 247.901C154.069 247.165 154.517 246.429 154.933 245.693C155.365 244.941 155.733 244.253 156.037 243.629ZM149.461 246.461L150.829 244.493C151.245 244.845 151.677 245.245 152.125 245.693C152.573 246.125 152.981 246.557 153.349 246.989C153.733 247.421 154.021 247.821 154.213 248.189L152.749 250.421C152.557 250.053 152.277 249.637 151.909 249.173C151.557 248.693 151.165 248.221 150.733 247.757C150.301 247.277 149.877 246.845 149.461 246.461ZM155.461 249.413L157.501 248.525C157.821 249.053 158.133 249.621 158.437 250.229C158.741 250.837 159.005 251.437 159.229 252.029C159.453 252.605 159.621 253.125 159.733 253.589L157.525 254.597C157.429 254.149 157.277 253.629 157.069 253.037C156.861 252.429 156.613 251.813 156.325 251.189C156.053 250.549 155.765 249.957 155.461 249.413ZM149.461 251.333C150.565 251.301 151.893 251.253 153.445 251.189C155.013 251.125 156.605 251.053 158.221 250.973L158.197 253.253C156.693 253.365 155.197 253.477 153.709 253.589C152.221 253.685 150.885 253.765 149.701 253.829L149.461 251.333ZM155.869 255.413L157.981 254.717C158.317 255.437 158.629 256.221 158.917 257.069C159.205 257.917 159.413 258.653 159.541 259.277L157.309 260.093C157.197 259.453 157.005 258.701 156.733 257.837C156.461 256.957 156.173 256.149 155.869 255.413ZM150.493 254.861L152.869 255.293C152.741 256.445 152.549 257.581 152.293 258.701C152.037 259.821 151.741 260.765 151.405 261.533C151.245 261.421 151.029 261.293 150.757 261.149C150.485 261.021 150.205 260.893 149.917 260.765C149.645 260.637 149.405 260.541 149.197 260.477C149.549 259.757 149.829 258.901 150.037 257.909C150.245 256.901 150.397 255.885 150.493 254.861ZM153.277 252.605H155.821V263.309H153.277V252.605Z" fill="white"/>
<path d="M36.958 166.165H52.444V172.719H36.958V166.165ZM44.962 154.623H63.754V161.293H44.962V154.623ZM66.364 157.175C67.5627 161.854 69.2253 166.204 71.352 170.225C73.4787 174.208 76.1467 177.727 79.356 180.781C82.5653 183.797 86.3547 186.137 90.724 187.799C90.2213 188.225 89.6413 188.805 88.984 189.539C88.3653 190.274 87.766 191.047 87.186 191.859C86.6447 192.633 86.2 193.348 85.852 194.005C81.2507 191.879 77.326 189.114 74.078 185.711C70.83 182.27 68.104 178.268 65.9 173.705C63.7347 169.104 61.9367 164.039 60.506 158.509L66.364 157.175ZM82.314 159.205L88.694 163.961C87.07 165.431 85.3493 166.919 83.532 168.427C81.7147 169.897 79.9167 171.308 78.138 172.661C76.3593 174.015 74.6773 175.213 73.092 176.257L68.22 172.197C69.7667 171.115 71.3907 169.839 73.092 168.369C74.7933 166.9 76.456 165.373 78.08 163.787C79.704 162.202 81.1153 160.675 82.314 159.205ZM59.578 154.623H67.06V189.249C67.06 191.105 66.828 192.555 66.364 193.599C65.9 194.682 65.0493 195.513 63.812 196.093C62.6133 196.635 61.1247 196.963 59.346 197.079C57.5673 197.195 55.4407 197.253 52.966 197.253C52.8113 196.248 52.502 195.069 52.038 193.715C51.574 192.362 51.0907 191.221 50.588 190.293C51.5547 190.332 52.56 190.371 53.604 190.409C54.648 190.448 55.576 190.467 56.388 190.467C57.2387 190.429 57.838 190.409 58.186 190.409C58.7273 190.371 59.0947 190.274 59.288 190.119C59.4813 189.926 59.578 189.597 59.578 189.133V154.623ZM49.486 148.765L53.024 143.081C54.6867 143.429 56.504 143.874 58.476 144.415C60.448 144.957 62.42 145.556 64.392 146.213C66.364 146.871 68.22 147.547 69.96 148.243C71.7387 148.901 73.2273 149.558 74.426 150.215L70.714 156.653C69.554 155.996 68.1233 155.3 66.422 154.565C64.7593 153.831 62.942 153.096 60.97 152.361C59.0367 151.627 57.084 150.95 55.112 150.331C53.14 149.713 51.2647 149.191 49.486 148.765ZM49.834 166.165H51.226L52.444 165.875L57.084 167.847C56.156 171.907 54.8993 175.6 53.314 178.925C51.7287 182.251 49.892 185.17 47.804 187.683C45.716 190.158 43.4927 192.207 41.134 193.831C40.7473 193.329 40.2253 192.749 39.568 192.091C38.9107 191.395 38.2147 190.738 37.48 190.119C36.7453 189.462 36.088 188.959 35.508 188.611C37.7893 187.219 39.8773 185.479 41.772 183.391C43.7053 181.303 45.368 178.906 46.76 176.199C48.152 173.493 49.1767 170.593 49.834 167.499V166.165ZM125.698 179.331V181.187H140.72V179.331H125.698ZM125.698 184.029V186.001H140.72V184.029H125.698ZM125.698 174.691V176.489H140.72V174.691H125.698ZM119.666 171.327H147.042V189.307H119.666V171.327ZM134.63 191.627L139.038 188.089C140.43 188.708 141.861 189.365 143.33 190.061C144.838 190.719 146.269 191.376 147.622 192.033C148.975 192.691 150.135 193.309 151.102 193.889L145.186 197.427C144.413 196.886 143.446 196.287 142.286 195.629C141.126 194.972 139.869 194.276 138.516 193.541C137.201 192.845 135.906 192.207 134.63 191.627ZM129.526 142.849H136.312V154.275H129.526V142.849ZM116.476 145.923H149.826V150.157H116.476V145.923ZM119.26 151.955H147.564V155.957H119.26V151.955ZM122.972 161.061V166.223H143.388V161.061H122.972ZM117.694 157.639H149.014V169.587H117.694V157.639ZM128.076 159.727H132.194C131.962 161.429 131.343 162.782 130.338 163.787C129.333 164.754 127.573 165.508 125.06 166.049C124.867 165.624 124.557 165.16 124.132 164.657C123.707 164.155 123.301 163.749 122.914 163.439C124.77 163.13 126.046 162.705 126.742 162.163C127.477 161.583 127.921 160.771 128.076 159.727ZM134.34 158.915H139.154V161.293C139.154 161.835 139.212 162.183 139.328 162.337C139.444 162.453 139.715 162.511 140.14 162.511C140.295 162.511 140.546 162.511 140.894 162.511C141.242 162.511 141.609 162.511 141.996 162.511C142.383 162.511 142.634 162.511 142.75 162.511C143.098 162.511 143.349 162.492 143.504 162.453C143.659 162.415 143.755 162.337 143.794 162.221C144.258 162.415 144.838 162.589 145.534 162.743C146.23 162.859 146.849 162.956 147.39 163.033C147.274 163.768 146.907 164.29 146.288 164.599C145.708 164.87 144.78 165.005 143.504 165.005C143.272 165.005 142.982 165.005 142.634 165.005C142.286 165.005 141.88 165.005 141.416 165.005C140.991 165.005 140.604 165.005 140.256 165.005C139.908 165.005 139.618 165.005 139.386 165.005C138.033 165.005 136.989 164.909 136.254 164.715C135.519 164.483 135.017 164.097 134.746 163.555C134.475 163.014 134.34 162.241 134.34 161.235V158.915ZM126.278 188.089L131.382 191.569C130.222 192.265 128.869 192.981 127.322 193.715C125.775 194.489 124.19 195.165 122.566 195.745C120.981 196.364 119.473 196.867 118.042 197.253C117.539 196.712 116.863 196.055 116.012 195.281C115.161 194.508 114.388 193.87 113.692 193.367C115.161 192.981 116.689 192.497 118.274 191.917C119.859 191.337 121.348 190.719 122.74 190.061C124.171 189.365 125.35 188.708 126.278 188.089ZM104.528 142.907L110.444 144.879C109.671 146.349 108.859 147.895 108.008 149.519C107.196 151.105 106.384 152.613 105.572 154.043C104.76 155.474 103.967 156.731 103.194 157.813L98.612 156.073C99.308 154.875 100.023 153.521 100.758 152.013C101.493 150.505 102.189 148.939 102.846 147.315C103.542 145.691 104.103 144.222 104.528 142.907ZM110.56 149.809L116.186 152.187C114.91 154.353 113.499 156.653 111.952 159.089C110.405 161.487 108.859 163.787 107.312 165.991C105.765 168.195 104.296 170.129 102.904 171.791L98.902 169.703C99.9073 168.389 100.951 166.919 102.034 165.295C103.117 163.633 104.161 161.912 105.166 160.133C106.21 158.316 107.177 156.518 108.066 154.739C108.994 152.961 109.825 151.317 110.56 149.809ZM95.828 156.479L99.25 151.839C100.217 152.729 101.203 153.715 102.208 154.797C103.252 155.88 104.199 156.963 105.05 158.045C105.939 159.089 106.616 160.075 107.08 161.003L103.31 166.339C102.923 165.373 102.305 164.329 101.454 163.207C100.642 162.047 99.7333 160.887 98.728 159.727C97.7613 158.529 96.7947 157.446 95.828 156.479ZM108.82 163.149L113.402 161.583C114.098 162.898 114.736 164.309 115.316 165.817C115.935 167.325 116.457 168.795 116.882 170.225C117.346 171.656 117.655 172.932 117.81 174.053L112.88 175.909C112.764 174.788 112.493 173.512 112.068 172.081C111.681 170.612 111.198 169.104 110.618 167.557C110.077 165.972 109.477 164.503 108.82 163.149ZM95.828 168.659C98.264 168.582 101.125 168.466 104.412 168.311C107.699 168.118 111.063 167.925 114.504 167.731V173.183C111.333 173.415 108.182 173.647 105.05 173.879C101.957 174.111 99.1147 174.324 96.524 174.517L95.828 168.659ZM110.096 178.055L114.62 176.663C115.2 178.133 115.741 179.757 116.244 181.535C116.747 183.275 117.114 184.764 117.346 186.001L112.59 187.625C112.397 186.311 112.049 184.764 111.546 182.985C111.082 181.207 110.599 179.563 110.096 178.055ZM98.032 176.953L103.426 177.881C103.117 180.665 102.672 183.391 102.092 186.059C101.551 188.727 100.874 190.989 100.062 192.845C99.6753 192.613 99.1727 192.362 98.554 192.091C97.9353 191.782 97.3167 191.492 96.698 191.221C96.0793 190.912 95.538 190.68 95.074 190.525C95.9247 188.785 96.582 186.697 97.046 184.261C97.51 181.825 97.8387 179.389 98.032 176.953ZM104.122 171.443H109.922V197.369H104.122V171.443ZM180.044 148.301H186.946V164.135H180.044V148.301ZM160.498 145.169H203.65V150.795H160.498V145.169ZM201.91 145.169H203.012L204.114 144.937L209.276 146.213C208.58 148.069 207.787 149.945 206.898 151.839C206.047 153.734 205.197 155.358 204.346 156.711L198.314 155.145C198.971 153.947 199.629 152.516 200.286 150.853C200.943 149.152 201.485 147.547 201.91 146.039V145.169ZM183.872 153.695H199.938V158.393H183.872V153.695ZM171.518 155.319C172.601 157.098 174.012 158.432 175.752 159.321C177.492 160.211 179.599 160.791 182.074 161.061C184.587 161.293 187.41 161.409 190.542 161.409C191.238 161.409 192.243 161.409 193.558 161.409C194.873 161.409 196.342 161.409 197.966 161.409C199.629 161.409 201.291 161.409 202.954 161.409C204.617 161.371 206.163 161.332 207.594 161.293C209.025 161.255 210.185 161.216 211.074 161.177C210.765 161.641 210.455 162.241 210.146 162.975C209.837 163.71 209.566 164.464 209.334 165.237C209.102 166.011 208.928 166.707 208.812 167.325H204.81H190.484C186.424 167.325 182.905 167.093 179.928 166.629C176.951 166.127 174.418 165.121 172.33 163.613C170.242 162.067 168.483 159.785 167.052 156.769L171.518 155.319ZM169.256 176.431V180.143H197.502V176.431H169.256ZM162.702 171.385H204.52V185.247H162.702V171.385ZM180.276 168.311H187.12V192.787H180.276V168.311ZM158.062 189.539C160.691 189.539 163.727 189.539 167.168 189.539C170.609 189.501 174.321 189.462 178.304 189.423C182.325 189.385 186.463 189.327 190.716 189.249C195.008 189.172 199.281 189.114 203.534 189.075L203.244 194.179C197.947 194.411 192.572 194.643 187.12 194.875C181.707 195.146 176.545 195.359 171.634 195.513C166.723 195.707 162.335 195.861 158.468 195.977L158.062 189.539ZM192.746 187.103L197.154 183.333C198.701 184.377 200.344 185.537 202.084 186.813C203.824 188.051 205.467 189.288 207.014 190.525C208.561 191.724 209.875 192.787 210.958 193.715L206.492 198.065C205.409 197.099 204.075 195.958 202.49 194.643C200.943 193.329 199.3 192.014 197.56 190.699C195.859 189.346 194.254 188.147 192.746 187.103ZM167.632 151.607L174.012 153.231C172.62 157.253 170.648 160.945 168.096 164.309C165.583 167.673 162.625 170.419 159.222 172.545C159.029 172.004 158.739 171.327 158.352 170.515C157.965 169.665 157.559 168.814 157.134 167.963C156.709 167.113 156.322 166.436 155.974 165.933C158.642 164.425 160.981 162.434 162.992 159.959C165.041 157.485 166.588 154.701 167.632 151.607ZM239.436 151.955H270.118V158.335H239.436V151.955ZM240.538 162.685H268.436V168.949H240.538V162.685ZM238.45 173.763H270.64V180.317H238.45V173.763ZM250.63 155.203H257.822V177.939H250.63V155.203ZM242.568 144.705L248.948 142.907C249.683 144.145 250.379 145.498 251.036 146.967C251.732 148.437 252.235 149.732 252.544 150.853L245.758 152.825C245.526 151.781 245.101 150.486 244.482 148.939C243.902 147.393 243.264 145.981 242.568 144.705ZM260.258 142.791L267.682 144.473C266.87 146.213 266.039 147.953 265.188 149.693C264.337 151.395 263.564 152.845 262.868 154.043L257.126 152.419C257.513 151.491 257.899 150.467 258.286 149.345C258.711 148.224 259.098 147.103 259.446 145.981C259.794 144.821 260.065 143.758 260.258 142.791ZM246.048 184.203L251.442 183.739C251.751 185.054 252.022 186.485 252.254 188.031C252.486 189.578 252.66 191.067 252.776 192.497C252.931 193.928 253.008 195.165 253.008 196.209L247.266 196.963C247.266 195.842 247.208 194.566 247.092 193.135C247.015 191.705 246.879 190.197 246.686 188.611C246.493 187.026 246.28 185.557 246.048 184.203ZM253.704 183.913L259.04 183.043C259.504 184.397 259.929 185.827 260.316 187.335C260.703 188.843 261.031 190.313 261.302 191.743C261.611 193.135 261.824 194.392 261.94 195.513L256.256 196.615C256.14 195.533 255.947 194.257 255.676 192.787C255.444 191.357 255.154 189.868 254.806 188.321C254.458 186.736 254.091 185.267 253.704 183.913ZM261.36 183.681L267.044 181.999C267.74 183.391 268.397 184.88 269.016 186.465C269.673 188.051 270.234 189.597 270.698 191.105C271.201 192.613 271.549 193.967 271.742 195.165L265.652 197.137C265.497 195.977 265.207 194.624 264.782 193.077C264.357 191.531 263.835 189.926 263.216 188.263C262.636 186.601 262.017 185.073 261.36 183.681ZM239.204 182.347L245.12 183.507C244.849 185.054 244.482 186.678 244.018 188.379C243.554 190.042 243.013 191.647 242.394 193.193C241.775 194.74 241.06 196.113 240.248 197.311L234.332 195.223C235.415 193.715 236.381 191.763 237.232 189.365C238.121 186.968 238.779 184.629 239.204 182.347ZM224.762 142.733H231.026V197.195H224.762V142.733ZM217.048 161.815H237.696V168.253H217.048V161.815ZM224.182 165.237L227.894 167.035C227.43 168.969 226.869 171.018 226.212 173.183C225.555 175.31 224.82 177.437 224.008 179.563C223.235 181.651 222.403 183.623 221.514 185.479C220.625 187.335 219.716 188.959 218.788 190.351C218.479 189.346 217.995 188.167 217.338 186.813C216.719 185.46 216.159 184.319 215.656 183.391C216.816 181.961 217.937 180.201 219.02 178.113C220.141 176.025 221.147 173.841 222.036 171.559C222.964 169.278 223.679 167.171 224.182 165.237ZM230.33 168.485C230.755 168.833 231.355 169.413 232.128 170.225C232.94 170.999 233.771 171.869 234.622 172.835C235.511 173.763 236.323 174.633 237.058 175.445C237.793 176.257 238.295 176.857 238.566 177.243L234.506 182.405C234.158 181.671 233.675 180.801 233.056 179.795C232.476 178.751 231.819 177.688 231.084 176.605C230.388 175.523 229.711 174.498 229.054 173.531C228.397 172.565 227.836 171.753 227.372 171.095L230.33 168.485ZM216.99 147.199L221.572 146.097C222.307 148.185 222.945 150.447 223.486 152.883C224.027 155.281 224.356 157.388 224.472 159.205L219.6 160.423C219.561 159.225 219.407 157.871 219.136 156.363C218.904 154.855 218.595 153.289 218.208 151.665C217.821 150.041 217.415 148.553 216.99 147.199ZM233.81 145.633L239.436 146.851C238.933 148.359 238.411 149.925 237.87 151.549C237.329 153.173 236.807 154.739 236.304 156.247C235.801 157.755 235.299 159.051 234.796 160.133L230.62 158.973C231.045 157.775 231.451 156.402 231.838 154.855C232.263 153.309 232.65 151.723 232.998 150.099C233.346 148.437 233.617 146.948 233.81 145.633ZM300.684 143.661H308.282V188.611C308.282 190.777 308.011 192.401 307.47 193.483C306.929 194.566 306.001 195.397 304.686 195.977C303.333 196.519 301.631 196.867 299.582 197.021C297.571 197.215 295.155 197.292 292.332 197.253C292.216 196.596 292.003 195.823 291.694 194.933C291.385 194.083 291.037 193.213 290.65 192.323C290.302 191.434 289.935 190.68 289.548 190.061C290.824 190.1 292.1 190.139 293.376 190.177C294.652 190.216 295.793 190.235 296.798 190.235C297.803 190.197 298.519 190.177 298.944 190.177C299.563 190.177 300.007 190.061 300.278 189.829C300.549 189.597 300.684 189.191 300.684 188.611V143.661ZM314.604 158.915L321.448 156.363C323.033 159.109 324.561 162.047 326.03 165.179C327.538 168.273 328.853 171.327 329.974 174.343C331.134 177.321 331.965 180.027 332.468 182.463L324.812 185.479C324.425 183.121 323.71 180.433 322.666 177.417C321.661 174.363 320.443 171.231 319.012 168.021C317.62 164.773 316.151 161.738 314.604 158.915ZM285.488 157.001L293.376 158.335C292.719 161.197 291.926 164.251 290.998 167.499C290.07 170.709 288.968 173.783 287.692 176.721C286.455 179.621 285.024 182.154 283.4 184.319C282.82 183.894 282.105 183.449 281.254 182.985C280.442 182.521 279.611 182.096 278.76 181.709C277.948 181.284 277.213 180.936 276.556 180.665C278.141 178.693 279.514 176.354 280.674 173.647C281.873 170.902 282.878 168.079 283.69 165.179C284.502 162.241 285.101 159.515 285.488 157.001ZM364.89 185.595L370.284 184.145C370.941 185.151 371.502 186.253 371.966 187.451C372.43 188.65 372.759 189.713 372.952 190.641L367.268 192.323C367.152 191.395 366.862 190.293 366.398 189.017C365.934 187.741 365.431 186.601 364.89 185.595ZM380.202 184.029L386.234 185.653C385.615 186.891 384.997 188.089 384.378 189.249C383.798 190.409 383.257 191.395 382.754 192.207L377.592 190.699C378.056 189.771 378.539 188.669 379.042 187.393C379.545 186.117 379.931 184.996 380.202 184.029ZM368.08 177.591V180.491H382.464V177.591H368.08ZM362.28 173.473H388.438V184.609H362.28V173.473ZM365.992 157.465V160.133H384.32V157.465H365.992ZM365.992 150.853V153.463H384.32V150.853H365.992ZM360.482 146.619H390.12V164.367H360.482V146.619ZM359.612 166.339H391.106V171.559H359.612V166.339ZM358.452 191.105H391.918V196.267H358.452V191.105ZM368.254 142.849H373.358V149.751H368.254V142.849ZM376.78 142.849H381.942V149.751H376.78V142.849ZM369.24 148.591H373.358V163.555H369.24V148.591ZM376.78 148.591H380.898V163.555H376.78V148.591ZM337.978 158.045H358.336V164.077H337.978V158.045ZM339.37 146.503H357.176V152.477H339.37V146.503ZM353.754 167.035H358.162V188.611H353.754V167.035ZM345.576 161.061H351.318V197.311H345.576V161.061ZM338.79 167.093H343.198V174.053C343.198 177.031 343.063 180.163 342.792 183.449C342.521 186.697 341.883 189.713 340.878 192.497C340.414 192.033 339.795 191.511 339.022 190.931C338.249 190.351 337.572 189.907 336.992 189.597C337.765 187.239 338.249 184.667 338.442 181.883C338.674 179.099 338.79 176.451 338.79 173.937V167.093Z" fill="white"/>
<circle cx="78.9932" cy="67.1494" r="56" fill="#FF9C1E"/>
<path d="M79.335 103.144C74.0319 103.144 69.3208 102.185 65.2014 100.267C61.0821 98.3497 57.8269 95.71 55.4358 92.3483C53.0684 88.9865 51.8373 85.1276 51.7426 80.7716H68.7881C68.9301 83.4468 70.0191 85.6011 72.0551 87.2346C74.0911 88.8445 76.5177 89.6494 79.335 89.6494C81.5367 89.6494 83.4898 89.1641 85.1943 88.1934C86.8989 87.2228 88.2365 85.8615 89.2071 84.1096C90.1778 82.3341 90.6512 80.2981 90.6276 78.0017C90.6512 75.6579 90.1659 73.6101 89.1716 71.8582C88.201 70.1063 86.8515 68.7451 85.1233 67.7744C83.4188 66.7801 81.4538 66.2829 79.2284 66.2829C77.1214 66.2593 75.1209 66.7209 73.227 67.6679C71.3567 68.6148 69.9363 69.9051 68.9656 71.5386L53.4472 68.6267L56.6077 29.4221H103.27V43.5912H71.0608L69.3918 60.7432H69.8179C71.0253 58.7309 72.9666 57.0737 75.6418 55.7716C78.3406 54.4458 81.4065 53.7829 84.8392 53.7829C89.1953 53.7829 93.0779 54.8009 96.4869 56.8369C99.9197 58.8492 102.619 61.6428 104.584 65.2176C106.572 68.7924 107.566 72.888 107.566 77.5045C107.566 82.4998 106.383 86.9269 104.015 90.7858C101.672 94.6447 98.3809 97.675 94.1432 99.8767C89.9292 102.055 84.9931 103.144 79.335 103.144Z" fill="white"/>
<rect x="409.993" y="199.856" width="127.381" height="60.6576" fill="#FF9C1E"/>
<rect x="429.404" y="150.117" width="90.9864" height="55.805" fill="#FF9C1E"/>
<rect x="451.24" y="116.149" width="8.49207" height="60.6576" fill="#FF9C1E"/>
<rect x="469.438" y="116.149" width="8.49207" height="60.6576" fill="#FF9C1E"/>
<rect x="487.635" y="116.149" width="8.49207" height="60.6576" fill="#FF9C1E"/>
</svg>
