<svg width="570" height="318" viewBox="0 0 570 318" fill="none" xmlns="http://www.w3.org/2000/svg">
<path d="M-0.0065918 34.7771H539.993C556.562 34.7771 569.993 48.2086 569.993 64.7771V317.149H29.9934C13.4249 317.149 -0.0065918 303.717 -0.0065918 287.149V34.7771Z" fill="#39BF63"/>
<line x1="347.79" y1="223.649" x2="38.6375" y2="223.649" stroke="white"/>
<path d="M163.073 88.7344V91.6464H170.209V88.7344H163.073ZM159.457 85.6624H173.985V94.6864H159.457V85.6624ZM158.465 96.3504H173.569V99.4864H162.209V114.654H158.465V96.3504ZM159.873 101.15H172.833V104.222H159.873V101.15ZM159.873 105.95H172.833V109.022H159.873V105.95ZM171.009 96.3504H174.945V110.718C174.945 111.614 174.839 112.318 174.625 112.83C174.412 113.342 174.007 113.758 173.409 114.078C172.833 114.356 172.129 114.526 171.297 114.59C170.465 114.654 169.495 114.686 168.385 114.686C168.3 114.153 168.151 113.545 167.937 112.862C167.745 112.201 167.532 111.625 167.297 111.134C167.895 111.156 168.513 111.177 169.153 111.198C169.793 111.198 170.22 111.198 170.433 111.198C170.817 111.198 171.009 111.017 171.009 110.654V96.3504ZM145.953 100.862C146.935 100.649 148.055 100.404 149.313 100.126C150.572 99.8491 151.895 99.5397 153.281 99.1984C154.668 98.8357 156.044 98.4837 157.409 98.1424L157.857 101.694C156.001 102.185 154.113 102.686 152.193 103.198C150.273 103.71 148.524 104.158 146.945 104.542L145.953 100.862ZM146.369 90.7184H157.793V94.2704H146.369V90.7184ZM150.337 84.6064H154.081V110.526C154.081 111.444 153.975 112.158 153.761 112.67C153.569 113.204 153.196 113.62 152.641 113.918C152.108 114.196 151.436 114.377 150.625 114.462C149.836 114.548 148.876 114.58 147.745 114.558C147.703 114.089 147.575 113.513 147.361 112.83C147.148 112.169 146.924 111.593 146.689 111.102C147.329 111.124 147.937 111.145 148.513 111.166C149.111 111.166 149.505 111.166 149.697 111.166C149.932 111.145 150.092 111.092 150.177 111.006C150.284 110.921 150.337 110.761 150.337 110.526V84.6064ZM195.041 96.5104V98.3344H204.897V96.5104H195.041ZM195.041 92.3184V94.0784H204.897V92.3184H195.041ZM191.745 89.6304H208.353V101.022H191.745V89.6304ZM193.057 102.398H207.201V114.686H203.553V105.246H196.545V114.686H193.057V102.398ZM203.873 84.5744L207.713 85.6944C207.223 86.5691 206.732 87.4117 206.241 88.2224C205.751 89.0117 205.303 89.6837 204.897 90.2384L201.729 89.2144C202.092 88.5531 202.476 87.7957 202.881 86.9424C203.308 86.0677 203.639 85.2784 203.873 84.5744ZM192.705 85.8864L195.873 84.7024C196.321 85.3637 196.759 86.1104 197.185 86.9424C197.633 87.7531 197.953 88.4677 198.145 89.0864L194.753 90.4304C194.604 89.8117 194.327 89.0864 193.921 88.2544C193.537 87.4011 193.132 86.6117 192.705 85.8864ZM195.169 106.75H205.121V109.438H195.169V106.75ZM195.169 111.006H205.121V113.79H195.169V111.006ZM198.145 90.9744H201.537V99.3904H198.145V90.9744ZM182.241 106.782L185.569 107.55C185.164 108.894 184.62 110.217 183.937 111.518C183.255 112.798 182.529 113.876 181.761 114.75C181.569 114.558 181.292 114.345 180.929 114.11C180.567 113.876 180.204 113.641 179.841 113.406C179.479 113.172 179.169 112.99 178.913 112.862C179.639 112.094 180.289 111.166 180.865 110.078C181.463 108.99 181.921 107.892 182.241 106.782ZM185.985 107.934L188.833 106.718C189.367 107.529 189.889 108.425 190.401 109.406C190.935 110.366 191.34 111.209 191.617 111.934L188.641 113.342C188.492 112.852 188.268 112.297 187.969 111.678C187.692 111.038 187.383 110.398 187.041 109.758C186.7 109.097 186.348 108.489 185.985 107.934ZM183.969 94.6544V97.6624H187.137V94.6544H183.969ZM183.969 100.478V103.486H187.137V100.478H183.969ZM183.969 88.8624V91.8064H187.137V88.8624H183.969ZM180.705 85.8224H190.497V106.558H180.705V85.8224ZM213.281 86.3344H241.921V89.3104H213.281V86.3344ZM218.817 95.4224H238.337V97.3424H218.817V95.4224ZM218.817 98.3984H238.369V100.318H218.817V98.3984ZM218.817 101.374H241.153V103.742H218.817V101.374ZM217.537 111.518H237.921V113.854H217.537V111.518ZM218.081 108.158H226.881V110.206H218.081V108.158ZM228.385 108.158H237.345V110.206H228.385V108.158ZM220.353 84.6064H224.065V90.7184H220.353V84.6064ZM230.913 84.6064H234.689V90.7184H230.913V84.6064ZM225.889 93.3744H229.505V102.622H225.889V93.3744ZM220.065 91.9664H239.809V94.3664H220.065V104.126H216.577V94.5264L219.073 91.9664H220.065ZM226.273 89.8544L230.241 90.1744C229.921 90.8144 229.591 91.4117 229.249 91.9664C228.908 92.4997 228.609 92.9797 228.353 93.4064L225.313 92.9584C225.505 92.4677 225.687 91.9344 225.857 91.3584C226.049 90.7824 226.188 90.2811 226.273 89.8544ZM228.129 104.798H239.777V114.654H235.937V107.006H228.129V104.798ZM215.521 104.574L219.329 105.438V114.686H215.521V104.574ZM225.153 103.582L227.425 105.534C226.551 105.854 225.569 106.142 224.481 106.398C223.393 106.633 222.273 106.836 221.121 107.006C219.991 107.177 218.892 107.316 217.825 107.422C217.783 107.145 217.676 106.804 217.505 106.398C217.335 105.993 217.175 105.641 217.025 105.342C218.007 105.214 218.999 105.054 220.001 104.862C221.004 104.67 221.953 104.468 222.849 104.254C223.767 104.041 224.535 103.817 225.153 103.582ZM218.465 89.9184L221.921 90.5264C221.175 91.9984 220.279 93.4491 219.233 94.8784C218.188 96.2864 216.919 97.5984 215.425 98.8144C215.276 98.5584 215.052 98.2811 214.753 97.9824C214.476 97.6837 214.177 97.3957 213.857 97.1184C213.559 96.8411 213.292 96.6277 213.057 96.4784C214.337 95.5184 215.436 94.4517 216.353 93.2784C217.271 92.0837 217.975 90.9637 218.465 89.9184ZM250.401 104.318H271.745V114.75H267.841V106.75H254.113V114.782H250.401V104.318ZM252.353 107.934H269.217V110.142H252.353V107.934ZM252.353 111.39H269.217V113.822H252.353V111.39ZM258.753 84.5104H262.625V102.398H258.753V84.5104ZM249.697 86.5264H271.585V96.0624H249.345V93.7904H267.777V88.7984H249.697V86.5264ZM246.401 89.9504H275.265V92.6064H246.401V89.9504ZM248.641 97.1824H272.897V99.4864H248.641V97.1824ZM246.369 100.67H275.265V103.326H246.369V100.67ZM296.412 96.7344H316.86V100.19H296.412V96.7344ZM297.532 90.2704H315.772V93.6624H297.532V90.2704ZM304.284 91.9344H308.124V97.0544C308.124 98.0784 307.996 99.1451 307.74 100.254C307.506 101.364 307.058 102.473 306.396 103.582C305.756 104.67 304.828 105.726 303.612 106.75C302.418 107.753 300.871 108.67 298.972 109.502C298.802 109.225 298.567 108.916 298.268 108.574C297.97 108.233 297.66 107.892 297.34 107.55C297.02 107.209 296.711 106.932 296.412 106.718C298.226 106.057 299.655 105.321 300.7 104.51C301.767 103.7 302.546 102.857 303.036 101.982C303.548 101.108 303.879 100.254 304.028 99.4224C304.199 98.5691 304.284 97.7691 304.284 97.0224V91.9344ZM308.7 99.1664C309.362 100.937 310.364 102.441 311.708 103.678C313.074 104.894 314.823 105.769 316.956 106.302C316.679 106.558 316.38 106.878 316.06 107.262C315.762 107.646 315.474 108.041 315.196 108.446C314.94 108.83 314.716 109.193 314.524 109.534C312.178 108.766 310.279 107.561 308.828 105.918C307.378 104.276 306.258 102.26 305.468 99.8704L308.7 99.1664ZM295.132 97.0864V108.894H291.388V100.638H287.676V97.0864H295.132ZM295.132 107.23C295.794 108.276 296.722 109.044 297.916 109.534C299.111 110.025 300.54 110.302 302.204 110.366C303.143 110.409 304.252 110.441 305.532 110.462C306.834 110.462 308.199 110.452 309.628 110.43C311.058 110.409 312.455 110.366 313.82 110.302C315.207 110.238 316.434 110.164 317.5 110.078C317.372 110.377 317.223 110.761 317.052 111.23C316.882 111.7 316.722 112.18 316.572 112.67C316.444 113.161 316.348 113.598 316.284 113.982C315.324 114.046 314.226 114.089 312.988 114.11C311.751 114.153 310.482 114.174 309.18 114.174C307.879 114.196 306.62 114.196 305.404 114.174C304.188 114.153 303.1 114.121 302.14 114.078C300.178 113.993 298.503 113.684 297.116 113.15C295.73 112.638 294.503 111.764 293.436 110.526C292.732 111.124 292.007 111.742 291.26 112.382C290.535 113.022 289.735 113.684 288.86 114.366L286.972 110.366C287.719 109.918 288.498 109.428 289.308 108.894C290.119 108.361 290.898 107.806 291.644 107.23H295.132ZM287.708 87.6784L290.556 85.3744C291.218 85.8011 291.89 86.3024 292.572 86.8784C293.255 87.4331 293.895 88.0091 294.492 88.6064C295.09 89.1824 295.57 89.7157 295.932 90.2064L292.892 92.7664C292.572 92.2544 292.124 91.6997 291.548 91.1024C290.994 90.5051 290.375 89.9077 289.692 89.3104C289.01 88.6917 288.348 88.1477 287.708 87.6784ZM310.908 84.6064L314.812 85.8224C314.236 86.7397 313.639 87.6464 313.02 88.5424C312.423 89.4171 311.868 90.1637 311.356 90.7824L308.22 89.6944C308.54 89.2037 308.871 88.6704 309.212 88.0944C309.554 87.4971 309.874 86.8997 310.172 86.3024C310.471 85.6837 310.716 85.1184 310.908 84.6064ZM298.364 86.0144L301.596 84.6704C302.194 85.3957 302.759 86.2171 303.292 87.1344C303.826 88.0517 304.199 88.8624 304.412 89.5664L300.956 91.0384C300.786 90.3557 300.444 89.5451 299.932 88.6064C299.442 87.6464 298.919 86.7824 298.364 86.0144Z" fill="white"/>
<path d="M39.456 246.349H51.192V248.869H39.456V246.349ZM37.8 256.597H55.152V259.093H37.8V256.597ZM38.4 242.293H55.272V244.861H38.4V242.293ZM50.04 246.349H52.896C52.896 246.349 52.896 246.429 52.896 246.589C52.896 246.749 52.888 246.933 52.872 247.141C52.872 247.333 52.872 247.493 52.872 247.621C52.808 249.941 52.736 251.909 52.656 253.525C52.576 255.125 52.488 256.437 52.392 257.461C52.296 258.485 52.176 259.277 52.032 259.837C51.888 260.397 51.72 260.813 51.528 261.085C51.256 261.485 50.96 261.757 50.64 261.901C50.32 262.061 49.952 262.173 49.536 262.237C49.152 262.285 48.672 262.309 48.096 262.309C47.52 262.325 46.92 262.317 46.296 262.285C46.28 261.981 46.208 261.613 46.08 261.181C45.968 260.749 45.816 260.381 45.624 260.077C46.168 260.125 46.656 260.157 47.088 260.173C47.536 260.189 47.888 260.189 48.144 260.173C48.352 260.173 48.52 260.149 48.648 260.101C48.776 260.053 48.896 259.949 49.008 259.789C49.152 259.613 49.272 259.261 49.368 258.733C49.48 258.189 49.576 257.421 49.656 256.429C49.736 255.421 49.808 254.141 49.872 252.589C49.936 251.021 49.992 249.141 50.04 246.949V246.349ZM38.112 246.349H40.992C40.88 247.485 40.744 248.677 40.584 249.925C40.424 251.157 40.264 252.389 40.104 253.621C39.944 254.837 39.776 255.997 39.6 257.101C39.44 258.189 39.28 259.173 39.12 260.053L36.192 259.837C36.368 258.973 36.544 257.989 36.72 256.885C36.912 255.781 37.096 254.629 37.272 253.429C37.448 252.229 37.6 251.029 37.728 249.829C37.872 248.613 38 247.453 38.112 246.349ZM39.216 239.605L42.24 240.493C41.76 241.581 41.2 242.669 40.56 243.757C39.92 244.829 39.248 245.845 38.544 246.805C37.856 247.749 37.16 248.573 36.456 249.277C36.264 249.101 36 248.901 35.664 248.677C35.328 248.453 34.984 248.237 34.632 248.029C34.296 247.805 34 247.629 33.744 247.501C34.48 246.877 35.184 246.141 35.856 245.293C36.544 244.445 37.176 243.533 37.752 242.557C38.328 241.581 38.816 240.597 39.216 239.605ZM42.36 249.829L43.944 248.293C44.408 248.485 44.888 248.725 45.384 249.013C45.88 249.285 46.344 249.565 46.776 249.853C47.208 250.141 47.568 250.421 47.856 250.693L46.176 252.373C45.92 252.117 45.576 251.837 45.144 251.533C44.728 251.213 44.272 250.909 43.776 250.621C43.296 250.317 42.824 250.053 42.36 249.829ZM42.048 254.797L43.632 253.261C44.096 253.469 44.584 253.717 45.096 254.005C45.608 254.293 46.08 254.589 46.512 254.893C46.96 255.197 47.328 255.493 47.616 255.781L45.96 257.485C45.688 257.197 45.336 256.893 44.904 256.573C44.472 256.237 44.008 255.917 43.512 255.613C43.016 255.309 42.528 255.037 42.048 254.797ZM33.84 251.413H38.904V251.509H51.312V251.413H56.208V253.981H51.312V253.885H38.904V253.981H33.84V251.413ZM67.944 240.325H71.256C71.224 240.997 71.168 241.861 71.088 242.917C71.008 243.973 70.856 245.149 70.632 246.445C70.424 247.725 70.104 249.069 69.672 250.477C69.24 251.885 68.648 253.293 67.896 254.701C67.16 256.093 66.216 257.429 65.064 258.709C63.928 259.973 62.544 261.101 60.912 262.093C60.656 261.725 60.304 261.333 59.856 260.917C59.424 260.501 58.968 260.125 58.488 259.789C60.088 258.893 61.432 257.869 62.52 256.717C63.608 255.565 64.496 254.357 65.184 253.093C65.872 251.813 66.4 250.533 66.768 249.253C67.136 247.957 67.4 246.733 67.56 245.581C67.72 244.429 67.816 243.397 67.848 242.485C67.88 241.573 67.912 240.853 67.944 240.325ZM71.136 240.973C71.152 241.277 71.184 241.757 71.232 242.413C71.28 243.069 71.376 243.853 71.52 244.765C71.664 245.677 71.88 246.669 72.168 247.741C72.472 248.797 72.872 249.885 73.368 251.005C73.864 252.125 74.48 253.221 75.216 254.293C75.952 255.365 76.84 256.357 77.88 257.269C78.936 258.181 80.168 258.973 81.576 259.645C81.112 259.981 80.68 260.373 80.28 260.821C79.896 261.269 79.584 261.693 79.344 262.093C77.872 261.357 76.584 260.485 75.48 259.477C74.392 258.453 73.456 257.349 72.672 256.165C71.904 254.965 71.264 253.749 70.752 252.517C70.24 251.285 69.824 250.077 69.504 248.893C69.2 247.693 68.968 246.581 68.808 245.557C68.648 244.533 68.536 243.645 68.472 242.893C68.424 242.141 68.384 241.597 68.352 241.261L71.136 240.973ZM95.064 245.221H103.32V247.573H95.064V245.221ZM90.936 259.141C91.656 259.029 92.488 258.893 93.432 258.733C94.392 258.573 95.408 258.405 96.48 258.229C97.552 258.037 98.616 257.845 99.672 257.653L99.912 260.149C98.52 260.469 97.12 260.781 95.712 261.085C94.304 261.405 93.024 261.685 91.872 261.925L90.936 259.141ZM93.432 240.829H96.216V259.789H93.432V240.829ZM95.064 240.829H104.64V252.061H95.064V249.589H101.784V243.301H95.064V240.829ZM100.056 250.405C100.36 251.845 100.776 253.181 101.304 254.413C101.832 255.629 102.504 256.701 103.32 257.629C104.136 258.557 105.136 259.277 106.32 259.789C106.112 259.981 105.888 260.213 105.648 260.485C105.408 260.773 105.176 261.069 104.952 261.373C104.744 261.693 104.576 261.981 104.448 262.237C103.152 261.549 102.064 260.653 101.184 259.549C100.32 258.429 99.608 257.133 99.048 255.661C98.488 254.189 98.032 252.573 97.68 250.813L100.056 250.405ZM103.536 252.229L105.792 253.789C105.136 254.429 104.44 255.061 103.704 255.685C102.984 256.293 102.32 256.813 101.712 257.245L99.936 255.877C100.32 255.557 100.728 255.189 101.16 254.773C101.608 254.357 102.04 253.925 102.456 253.477C102.872 253.029 103.232 252.613 103.536 252.229ZM84.696 240.781H90.672V243.373H87.384V262.309H84.696V240.781ZM89.88 240.781H90.384L90.792 240.685L92.76 241.813C92.536 242.517 92.296 243.261 92.04 244.045C91.784 244.829 91.528 245.605 91.272 246.373C91.016 247.141 90.76 247.837 90.504 248.461C91.288 249.389 91.792 250.269 92.016 251.101C92.256 251.917 92.376 252.677 92.376 253.381C92.376 254.181 92.288 254.837 92.112 255.349C91.936 255.861 91.648 256.261 91.248 256.549C91.056 256.693 90.832 256.805 90.576 256.885C90.336 256.965 90.088 257.029 89.832 257.077C89.608 257.109 89.344 257.125 89.04 257.125C88.752 257.125 88.456 257.125 88.152 257.125C88.136 256.757 88.072 256.325 87.96 255.829C87.864 255.333 87.72 254.909 87.528 254.557C87.752 254.573 87.952 254.581 88.128 254.581C88.32 254.581 88.488 254.581 88.632 254.581C88.76 254.581 88.88 254.565 88.992 254.533C89.12 254.485 89.24 254.429 89.352 254.365C89.496 254.253 89.6 254.085 89.664 253.861C89.744 253.621 89.776 253.333 89.76 252.997C89.76 252.437 89.64 251.797 89.4 251.077C89.176 250.341 88.704 249.573 87.984 248.773C88.16 248.229 88.336 247.629 88.512 246.973C88.704 246.317 88.88 245.661 89.04 245.005C89.216 244.333 89.376 243.709 89.52 243.133C89.68 242.541 89.8 242.053 89.88 241.669V240.781ZM119.832 239.701L122.496 240.133C121.968 241.413 121.296 242.653 120.48 243.853C119.68 245.053 118.624 246.149 117.312 247.141C117.104 246.821 116.808 246.493 116.424 246.157C116.056 245.805 115.72 245.541 115.416 245.365C116.2 244.837 116.872 244.261 117.432 243.637C118.008 243.013 118.496 242.365 118.896 241.693C119.296 241.005 119.608 240.341 119.832 239.701ZM120.504 241.477H125.208V243.685H119.16L120.504 241.477ZM120.864 247.045H122.904C122.856 247.813 122.752 248.509 122.592 249.133C122.432 249.757 122.16 250.309 121.776 250.789C121.392 251.253 120.84 251.653 120.12 251.989C120.008 251.749 119.832 251.477 119.592 251.173C119.352 250.869 119.128 250.629 118.92 250.453C119.688 250.117 120.192 249.669 120.432 249.109C120.688 248.549 120.832 247.861 120.864 247.045ZM123.816 247.141H125.904V249.085C125.904 249.309 125.92 249.445 125.952 249.493C126 249.541 126.112 249.565 126.288 249.565C126.352 249.565 126.44 249.565 126.552 249.565C126.68 249.565 126.808 249.565 126.936 249.565C127.08 249.565 127.176 249.565 127.224 249.565C127.368 249.565 127.464 249.549 127.512 249.517C127.576 249.469 127.624 249.397 127.656 249.301C127.848 249.429 128.12 249.557 128.472 249.685C128.824 249.813 129.144 249.909 129.432 249.973C129.32 250.501 129.112 250.869 128.808 251.077C128.504 251.269 128.08 251.365 127.536 251.365C127.456 251.365 127.344 251.365 127.2 251.365C127.056 251.365 126.904 251.365 126.744 251.365C126.584 251.365 126.432 251.365 126.288 251.365C126.16 251.365 126.056 251.365 125.976 251.365C125.384 251.365 124.928 251.301 124.608 251.173C124.304 251.029 124.096 250.797 123.984 250.477C123.872 250.141 123.816 249.677 123.816 249.085V247.141ZM115.92 254.125H130.848V256.501H115.92V254.125ZM124.824 254.917C125.256 256.293 125.976 257.397 126.984 258.229C127.992 259.045 129.408 259.581 131.232 259.837C130.944 260.109 130.64 260.485 130.32 260.965C130.016 261.445 129.784 261.869 129.624 262.237C128.2 261.933 127.016 261.477 126.072 260.869C125.128 260.261 124.36 259.493 123.768 258.565C123.176 257.621 122.704 256.501 122.352 255.205L124.824 254.917ZM119.352 245.413H128.232V247.669H119.352V253.381H116.976V245.413H117H119.352ZM127.608 245.413H130.056V253.357H127.608V245.413ZM124.248 241.477H124.848L125.256 241.357L127.08 242.509C126.84 242.989 126.56 243.509 126.24 244.069C125.936 244.613 125.616 245.141 125.28 245.653C124.944 246.149 124.624 246.597 124.32 246.997C124.08 246.821 123.768 246.613 123.384 246.373C123 246.133 122.664 245.941 122.376 245.797C122.616 245.445 122.856 245.037 123.096 244.573C123.352 244.109 123.576 243.645 123.768 243.181C123.976 242.701 124.136 242.293 124.248 241.957V241.477ZM122.016 252.181H124.632C124.552 253.525 124.392 254.741 124.152 255.829C123.912 256.917 123.504 257.877 122.928 258.709C122.352 259.541 121.528 260.253 120.456 260.845C119.384 261.453 117.976 261.957 116.232 262.357C116.12 262.021 115.92 261.629 115.632 261.181C115.36 260.749 115.096 260.397 114.84 260.125C116.392 259.837 117.632 259.469 118.56 259.021C119.488 258.557 120.184 258.005 120.648 257.365C121.128 256.725 121.456 255.981 121.632 255.133C121.824 254.269 121.952 253.285 122.016 252.181ZM108.384 251.821C109.344 251.613 110.488 251.333 111.816 250.981C113.16 250.629 114.512 250.261 115.872 249.877L116.232 252.469C115 252.837 113.752 253.205 112.488 253.573C111.24 253.941 110.08 254.277 109.008 254.581L108.384 251.821ZM108.768 244.309H116.112V246.949H108.768V244.309ZM111.288 239.773H113.928V259.261C113.928 259.917 113.856 260.437 113.712 260.821C113.584 261.221 113.336 261.533 112.968 261.757C112.616 261.981 112.168 262.133 111.624 262.213C111.096 262.293 110.432 262.325 109.632 262.309C109.6 261.957 109.512 261.517 109.368 260.989C109.224 260.477 109.064 260.029 108.888 259.645C109.336 259.661 109.744 259.677 110.112 259.693C110.496 259.693 110.76 259.685 110.904 259.669C111.048 259.669 111.144 259.645 111.192 259.597C111.256 259.533 111.288 259.421 111.288 259.261V239.773ZM148.314 242.694V260.149H144.104V246.632H144.002L140.098 249.018V245.37L144.402 242.694H148.314ZM159.378 244.429H180.594V247.357H159.378V244.429ZM164.298 255.301H175.458V258.229H164.298V255.301ZM168.426 239.773H171.474V262.309H168.426V239.773ZM167.562 245.485L170.202 246.325C169.514 248.053 168.682 249.701 167.706 251.269C166.73 252.837 165.634 254.261 164.418 255.541C163.218 256.805 161.922 257.885 160.53 258.781C160.37 258.541 160.162 258.277 159.906 257.989C159.65 257.685 159.394 257.389 159.138 257.101C158.898 256.797 158.658 256.557 158.418 256.381C159.41 255.837 160.362 255.173 161.274 254.389C162.186 253.605 163.034 252.733 163.818 251.773C164.618 250.813 165.33 249.805 165.954 248.749C166.594 247.677 167.13 246.589 167.562 245.485ZM172.362 245.557C172.938 246.965 173.69 248.349 174.618 249.709C175.562 251.053 176.634 252.277 177.834 253.381C179.034 254.485 180.298 255.389 181.626 256.093C181.386 256.285 181.122 256.533 180.834 256.837C180.562 257.141 180.298 257.461 180.042 257.797C179.786 258.117 179.57 258.413 179.394 258.685C178.002 257.821 176.698 256.765 175.482 255.517C174.282 254.253 173.202 252.845 172.242 251.293C171.282 249.741 170.45 248.117 169.746 246.421L172.362 245.557Z" fill="white"/>
<path d="M58.404 142.661H66.002V187.611C66.002 189.776 65.7313 191.4 65.19 192.483C64.6487 193.565 63.7207 194.397 62.406 194.977C61.0527 195.518 59.3513 195.866 57.302 196.021C55.2913 196.214 52.8747 196.291 50.052 196.253C49.936 195.595 49.7233 194.822 49.414 193.933C49.1047 193.082 48.7567 192.212 48.37 191.323C48.022 190.433 47.6547 189.679 47.268 189.061C48.544 189.099 49.82 189.138 51.096 189.177C52.372 189.215 53.5127 189.235 54.518 189.235C55.5233 189.196 56.2387 189.177 56.664 189.177C57.2827 189.177 57.7273 189.061 57.998 188.829C58.2687 188.597 58.404 188.191 58.404 187.611V142.661ZM72.324 157.915L79.168 155.363C80.7533 158.108 82.2807 161.047 83.75 164.179C85.258 167.272 86.5727 170.327 87.694 173.343C88.854 176.32 89.6853 179.027 90.188 181.463L82.532 184.479C82.1453 182.12 81.43 179.433 80.386 176.417C79.3807 173.362 78.1627 170.23 76.732 167.021C75.34 163.773 73.8707 160.737 72.324 157.915ZM43.208 156.001L51.096 157.335C50.4387 160.196 49.646 163.251 48.718 166.499C47.79 169.708 46.688 172.782 45.412 175.721C44.1747 178.621 42.744 181.153 41.12 183.319C40.54 182.893 39.8247 182.449 38.974 181.985C38.162 181.521 37.3307 181.095 36.48 180.709C35.668 180.283 34.9333 179.935 34.276 179.665C35.8613 177.693 37.234 175.353 38.394 172.647C39.5927 169.901 40.598 167.079 41.41 164.179C42.222 161.24 42.8213 158.514 43.208 156.001ZM123.48 166.441C124.601 170.423 126.187 173.981 128.236 177.113C130.285 180.245 132.895 182.874 136.066 185.001C139.275 187.089 143.161 188.635 147.724 189.641C147.183 190.143 146.603 190.801 145.984 191.613C145.404 192.425 144.824 193.256 144.244 194.107C143.703 194.957 143.258 195.731 142.91 196.427C137.961 195.035 133.804 193.063 130.44 190.511C127.076 187.959 124.292 184.788 122.088 180.999C119.923 177.209 118.125 172.821 116.694 167.833L123.48 166.441ZM95.988 163.541H144.244V170.675H95.988V163.541ZM94.19 145.735H145.81V152.869H94.19V145.735ZM115.766 147.649H123.19V161.917C123.19 164.353 123.016 166.905 122.668 169.573C122.32 172.202 121.643 174.812 120.638 177.403C119.633 179.955 118.163 182.41 116.23 184.769C114.297 187.127 111.745 189.293 108.574 191.265C105.442 193.275 101.556 195.015 96.916 196.485C96.6453 195.866 96.2587 195.17 95.756 194.397C95.2533 193.623 94.712 192.85 94.132 192.077C93.5907 191.342 93.0687 190.723 92.566 190.221C96.7033 189.022 100.164 187.591 102.948 185.929C105.771 184.227 108.033 182.391 109.734 180.419C111.435 178.447 112.711 176.417 113.562 174.329C114.413 172.241 114.993 170.133 115.302 168.007C115.611 165.841 115.766 163.792 115.766 161.859V147.649ZM152.016 146.141H204.042V153.159H152.016V146.141ZM173.07 152.405H180.552V196.195H173.07V152.405ZM177.014 166.499L181.77 160.931C183.355 161.704 185.057 162.593 186.874 163.599C188.73 164.565 190.567 165.59 192.384 166.673C194.201 167.755 195.922 168.819 197.546 169.863C199.17 170.868 200.523 171.835 201.606 172.763L196.444 179.143C195.439 178.215 194.163 177.209 192.616 176.127C191.108 175.005 189.445 173.884 187.628 172.763C185.849 171.641 184.051 170.539 182.234 169.457C180.417 168.335 178.677 167.349 177.014 166.499ZM233.216 144.807H256.822V151.187H233.216V144.807ZM231.244 164.933H263.318V171.545H231.244V164.933ZM243.54 158.205H250.5V188.597C250.5 190.337 250.287 191.709 249.862 192.715C249.437 193.72 248.663 194.493 247.542 195.035C246.382 195.576 244.99 195.924 243.366 196.079C241.781 196.272 239.925 196.349 237.798 196.311C237.643 195.344 237.315 194.203 236.812 192.889C236.309 191.574 235.807 190.433 235.304 189.467C236.773 189.505 238.185 189.544 239.538 189.583C240.891 189.621 241.819 189.621 242.322 189.583C242.786 189.583 243.095 189.505 243.25 189.351C243.443 189.196 243.54 188.925 243.54 188.539V158.205ZM254.27 144.807H256.01L257.402 144.401L261.926 147.823C260.805 149.524 259.529 151.303 258.098 153.159C256.706 154.976 255.237 156.735 253.69 158.437C252.143 160.099 250.616 161.569 249.108 162.845C248.644 162.226 248.006 161.511 247.194 160.699C246.382 159.887 245.686 159.249 245.106 158.785C246.266 157.702 247.445 156.407 248.644 154.899C249.843 153.391 250.925 151.863 251.892 150.317C252.897 148.77 253.69 147.417 254.27 146.257V144.807ZM209.146 153.391H227.938V159.887H209.146V153.391ZM216.976 141.849L223.472 142.545C222.931 145.638 222.312 148.886 221.616 152.289C220.959 155.691 220.263 159.094 219.528 162.497C218.793 165.861 218.059 169.128 217.324 172.299C216.589 175.431 215.874 178.292 215.178 180.883L209.494 177.925C210.151 175.643 210.809 173.033 211.466 170.095C212.162 167.156 212.839 164.063 213.496 160.815C214.153 157.528 214.772 154.28 215.352 151.071C215.971 147.823 216.512 144.749 216.976 141.849ZM212.568 176.939L216.338 172.009C218.349 173.285 220.456 174.715 222.66 176.301C224.903 177.886 226.971 179.491 228.866 181.115C230.799 182.739 232.327 184.285 233.448 185.755L229.272 191.381C228.189 189.911 226.72 188.326 224.864 186.625C223.008 184.885 220.997 183.164 218.832 181.463C216.705 179.761 214.617 178.253 212.568 176.939ZM225.502 153.391H226.662L227.88 153.275L231.998 153.971C231.573 161.511 230.625 168.026 229.156 173.517C227.725 178.969 225.715 183.57 223.124 187.321C220.572 191.071 217.363 194.145 213.496 196.543C213.071 195.692 212.452 194.706 211.64 193.585C210.828 192.502 210.055 191.651 209.32 191.033C212.607 189.293 215.391 186.741 217.672 183.377C219.953 180.013 221.732 175.914 223.008 171.081C224.323 166.247 225.154 160.795 225.502 154.725V153.391ZM275.092 177.577H313.778V196.485H306.702V181.985H281.82V196.543H275.092V177.577ZM278.63 184.131H309.196V188.133H278.63V184.131ZM278.63 190.395H309.196V194.803H278.63V190.395ZM290.23 141.675H297.248V174.097H290.23V141.675ZM273.816 145.329H313.488V162.613H273.178V158.495H306.586V149.447H273.816V145.329ZM267.842 151.535H320.158V156.349H267.842V151.535ZM271.902 164.643H315.866V168.819H271.902V164.643ZM267.784 170.965H320.158V175.779H267.784V170.965Z" fill="white"/>
<ellipse cx="76.3153" cy="68.0068" rx="54.1017" ry="56" fill="#6EE292"/>
<path d="M78.3256 103.001C74.3483 103.001 70.5367 102.362 66.8909 101.084C63.2451 99.7815 60.0017 97.7218 57.1608 94.9046C54.3199 92.0637 52.0827 88.3468 50.4491 83.754C48.8156 79.1375 48.0107 73.5149 48.0344 66.8861C48.058 60.8965 48.7919 55.5225 50.2361 50.7639C51.6802 45.9817 53.7399 41.9216 56.415 38.5835C59.1139 35.2455 62.3336 32.7005 66.0741 30.9486C69.8383 29.173 74.0405 28.2852 78.6807 28.2852C83.7706 28.2852 88.2569 29.2796 92.1395 31.2682C96.0457 33.2332 99.1707 35.8847 101.514 39.2227C103.858 42.5371 105.243 46.2303 105.669 50.3023H88.3753C87.8544 48.0059 86.7062 46.2658 84.9307 45.0821C83.1788 43.8747 81.0954 43.271 78.6807 43.271C74.2299 43.271 70.9037 45.2005 68.702 49.0594C66.5239 52.9183 65.4113 58.0793 65.3639 64.5423H65.8256C66.8199 62.3643 68.2522 60.4941 70.1224 58.9316C71.9927 57.3691 74.1352 56.1735 76.55 55.3449C78.9884 54.4926 81.5689 54.0665 84.2915 54.0665C88.6475 54.0665 92.4946 55.0726 95.8327 57.085C99.1707 59.0973 101.787 61.8553 103.681 65.3591C105.575 68.8392 106.51 72.8283 106.486 77.3264C106.51 82.3927 105.326 86.8672 102.935 90.7497C100.544 94.6086 97.2294 97.6153 92.9917 99.7696C88.7777 101.924 83.889 103.001 78.3256 103.001ZM78.219 89.5068C80.3734 89.5068 82.3028 88.9978 84.0074 87.9798C85.7119 86.9619 87.0495 85.5769 88.0202 83.825C88.9908 82.0731 89.4643 80.0963 89.4406 77.8946C89.4643 75.6692 88.9908 73.6924 88.0202 71.9642C87.0732 70.236 85.7474 68.8629 84.0429 67.8449C82.362 66.8269 80.4326 66.3179 78.2545 66.3179C76.6684 66.3179 75.1887 66.6138 73.8156 67.2057C72.4425 67.7976 71.247 68.6262 70.229 69.6915C69.2346 70.7332 68.4534 71.9642 67.8852 73.3847C67.317 74.7815 67.0211 76.2966 66.9974 77.9301C67.0211 80.0845 67.5183 82.0376 68.4889 83.7895C69.4595 85.5414 70.7853 86.9382 72.4662 87.9798C74.147 88.9978 76.0647 89.5068 78.219 89.5068Z" fill="white"/>
<path d="M535.569 89.4629L420.569 104.336V248.372L535.569 262.463V89.4629Z" fill="#6EE292"/>
<ellipse cx="474.176" cy="201.918" rx="19.322" ry="20" fill="white"/>
<path d="M472.916 203.87C472.829 203.176 472.881 202.57 473.072 202.05C473.28 201.53 473.566 201.062 473.93 200.646C474.311 200.23 474.727 199.848 475.178 199.502C475.646 199.155 476.079 198.817 476.478 198.488C476.894 198.158 477.232 197.82 477.492 197.474C477.752 197.127 477.882 196.746 477.882 196.33C477.882 195.81 477.752 195.368 477.492 195.004C477.232 194.64 476.85 194.362 476.348 194.172C475.862 193.981 475.273 193.886 474.58 193.886C473.782 193.886 473.054 194.059 472.396 194.406C471.737 194.752 471.087 195.264 470.446 195.94L468.314 193.964C469.146 193.01 470.125 192.248 471.252 191.676C472.396 191.086 473.652 190.792 475.022 190.792C476.287 190.792 477.405 190.982 478.376 191.364C479.364 191.745 480.135 192.326 480.69 193.106C481.262 193.868 481.548 194.83 481.548 195.992C481.548 196.633 481.409 197.196 481.132 197.682C480.872 198.15 480.525 198.574 480.092 198.956C479.676 199.32 479.234 199.675 478.766 200.022C478.298 200.351 477.864 200.698 477.466 201.062C477.067 201.426 476.755 201.833 476.53 202.284C476.304 202.734 476.218 203.263 476.27 203.87H472.916ZM474.606 210.786C473.947 210.786 473.401 210.569 472.968 210.136C472.534 209.702 472.318 209.156 472.318 208.498C472.318 207.822 472.534 207.267 472.968 206.834C473.401 206.4 473.947 206.184 474.606 206.184C475.264 206.184 475.81 206.4 476.244 206.834C476.677 207.267 476.894 207.822 476.894 208.498C476.894 209.156 476.677 209.702 476.244 210.136C475.81 210.569 475.264 210.786 474.606 210.786Z" fill="#39BF63"/>
<path d="M447.114 141.994L449.334 142.354C448.894 143.42 448.334 144.454 447.654 145.454C446.987 146.454 446.107 147.367 445.014 148.194C444.841 147.927 444.594 147.654 444.274 147.374C443.967 147.08 443.687 146.86 443.434 146.714C444.087 146.274 444.647 145.794 445.114 145.274C445.594 144.754 446.001 144.214 446.334 143.654C446.667 143.08 446.927 142.527 447.114 141.994ZM447.674 143.474H451.594V145.314H446.554L447.674 143.474ZM447.974 148.114H449.674C449.634 148.754 449.547 149.334 449.414 149.854C449.281 150.374 449.054 150.834 448.734 151.234C448.414 151.62 447.954 151.954 447.354 152.234C447.261 152.034 447.114 151.807 446.914 151.554C446.714 151.3 446.527 151.1 446.354 150.954C446.994 150.674 447.414 150.3 447.614 149.834C447.827 149.367 447.947 148.794 447.974 148.114ZM450.434 148.194H452.174V149.814C452.174 150 452.187 150.114 452.214 150.154C452.254 150.194 452.347 150.214 452.494 150.214C452.547 150.214 452.621 150.214 452.714 150.214C452.821 150.214 452.927 150.214 453.034 150.214C453.154 150.214 453.234 150.214 453.274 150.214C453.394 150.214 453.474 150.2 453.514 150.174C453.567 150.134 453.607 150.074 453.634 149.994C453.794 150.1 454.021 150.207 454.314 150.314C454.607 150.42 454.874 150.5 455.114 150.554C455.021 150.994 454.847 151.3 454.594 151.474C454.341 151.634 453.987 151.714 453.534 151.714C453.467 151.714 453.374 151.714 453.254 151.714C453.134 151.714 453.007 151.714 452.874 151.714C452.741 151.714 452.614 151.714 452.494 151.714C452.387 151.714 452.301 151.714 452.234 151.714C451.741 151.714 451.361 151.66 451.094 151.554C450.841 151.434 450.667 151.24 450.574 150.974C450.481 150.694 450.434 150.307 450.434 149.814V148.194ZM443.854 154.014H456.294V155.994H443.854V154.014ZM451.274 154.674C451.634 155.82 452.234 156.74 453.074 157.434C453.914 158.114 455.094 158.56 456.614 158.774C456.374 159 456.121 159.314 455.854 159.714C455.601 160.114 455.407 160.467 455.274 160.774C454.087 160.52 453.101 160.14 452.314 159.634C451.527 159.127 450.887 158.487 450.394 157.714C449.901 156.927 449.507 155.994 449.214 154.914L451.274 154.674ZM446.714 146.754H454.114V148.634H446.714V153.394H444.734V146.754H444.754H446.714ZM453.594 146.754H455.634V153.374H453.594V146.754ZM450.794 143.474H451.294L451.634 143.374L453.154 144.334C452.954 144.734 452.721 145.167 452.454 145.634C452.201 146.087 451.934 146.527 451.654 146.954C451.374 147.367 451.107 147.74 450.854 148.074C450.654 147.927 450.394 147.754 450.074 147.554C449.754 147.354 449.474 147.194 449.234 147.074C449.434 146.78 449.634 146.44 449.834 146.054C450.047 145.667 450.234 145.28 450.394 144.894C450.567 144.494 450.701 144.154 450.794 143.874V143.474ZM448.934 152.394H451.114C451.047 153.514 450.914 154.527 450.714 155.434C450.514 156.34 450.174 157.14 449.694 157.834C449.214 158.527 448.527 159.12 447.634 159.614C446.741 160.12 445.567 160.54 444.114 160.874C444.021 160.594 443.854 160.267 443.614 159.894C443.387 159.534 443.167 159.24 442.954 159.014C444.247 158.774 445.281 158.467 446.054 158.094C446.827 157.707 447.407 157.247 447.794 156.714C448.194 156.18 448.467 155.56 448.614 154.854C448.774 154.134 448.881 153.314 448.934 152.394ZM437.574 152.094C438.374 151.92 439.327 151.687 440.434 151.394C441.554 151.1 442.681 150.794 443.814 150.474L444.114 152.634C443.087 152.94 442.047 153.247 440.994 153.554C439.954 153.86 438.987 154.14 438.094 154.394L437.574 152.094ZM437.894 145.834H444.014V148.034H437.894V145.834ZM439.994 142.054H442.194V158.294C442.194 158.84 442.134 159.274 442.014 159.594C441.907 159.927 441.701 160.187 441.394 160.374C441.101 160.56 440.727 160.687 440.274 160.754C439.834 160.82 439.281 160.847 438.614 160.834C438.587 160.54 438.514 160.174 438.394 159.734C438.274 159.307 438.141 158.934 437.994 158.614C438.367 158.627 438.707 158.64 439.014 158.654C439.334 158.654 439.554 158.647 439.674 158.634C439.794 158.634 439.874 158.614 439.914 158.574C439.967 158.52 439.994 158.427 439.994 158.294V142.054ZM461.434 154.354H474.774V160.874H472.334V155.874H463.754V160.894H461.434V154.354ZM462.654 156.614H473.194V157.994H462.654V156.614ZM462.654 158.774H473.194V160.294H462.654V158.774ZM466.654 141.974H469.074V153.154H466.654V141.974ZM460.994 143.234H474.674V149.194H460.774V147.774H472.294V144.654H460.994V143.234ZM458.934 145.374H476.974V147.034H458.934V145.374ZM460.334 149.894H475.494V151.334H460.334V149.894ZM458.914 152.074H476.974V153.734H458.914V152.074ZM490.174 149.554V151.674H494.494V149.554H490.174ZM487.974 147.514H496.834V153.734H487.974V147.514ZM492.614 153.134H494.874V157.934C494.874 158.214 494.894 158.394 494.934 158.474C494.974 158.54 495.067 158.574 495.214 158.574C495.254 158.574 495.321 158.574 495.414 158.574C495.521 158.574 495.621 158.574 495.714 158.574C495.821 158.574 495.901 158.574 495.954 158.574C496.061 158.574 496.141 158.514 496.194 158.394C496.261 158.274 496.307 158.04 496.334 157.694C496.374 157.334 496.401 156.787 496.414 156.054C496.561 156.174 496.747 156.294 496.974 156.414C497.214 156.534 497.461 156.64 497.714 156.734C497.981 156.827 498.214 156.9 498.414 156.954C498.361 157.94 498.247 158.7 498.074 159.234C497.914 159.78 497.681 160.154 497.374 160.354C497.081 160.567 496.687 160.674 496.194 160.674C496.114 160.674 496.007 160.674 495.874 160.674C495.754 160.674 495.627 160.674 495.494 160.674C495.374 160.674 495.254 160.674 495.134 160.674C495.014 160.674 494.907 160.674 494.814 160.674C494.214 160.674 493.754 160.587 493.434 160.414C493.114 160.24 492.894 159.954 492.774 159.554C492.667 159.167 492.614 158.634 492.614 157.954V153.134ZM489.254 153.434H491.614C491.561 154.3 491.454 155.107 491.294 155.854C491.147 156.587 490.914 157.267 490.594 157.894C490.274 158.52 489.827 159.08 489.254 159.574C488.694 160.067 487.961 160.5 487.054 160.874C486.974 160.674 486.854 160.454 486.694 160.214C486.534 159.987 486.367 159.76 486.194 159.534C486.021 159.307 485.847 159.12 485.674 158.974C486.434 158.707 487.041 158.394 487.494 158.034C487.947 157.66 488.294 157.247 488.534 156.794C488.774 156.327 488.941 155.82 489.034 155.274C489.141 154.714 489.214 154.1 489.254 153.434ZM489.834 142.594H494.674V144.754H489.834V142.594ZM488.434 144.374L490.774 144.974C490.441 145.787 490.034 146.62 489.554 147.474C489.087 148.314 488.567 149.02 487.994 149.594C487.754 149.38 487.454 149.154 487.094 148.914C486.734 148.66 486.421 148.46 486.154 148.314C486.661 147.807 487.114 147.187 487.514 146.454C487.927 145.707 488.234 145.014 488.434 144.374ZM492.854 142.594H495.334C495.534 143.234 495.794 143.874 496.114 144.514C496.434 145.14 496.794 145.734 497.194 146.294C497.594 146.854 498.007 147.327 498.434 147.714C498.234 147.834 498.001 147.98 497.734 148.154C497.481 148.327 497.234 148.514 496.994 148.714C496.754 148.9 496.554 149.074 496.394 149.234C495.741 148.514 495.147 147.66 494.614 146.674C494.081 145.687 493.641 144.694 493.294 143.694H492.854V142.594ZM480.294 148.174H486.334V149.994H480.294V148.174ZM480.374 142.674H486.294V144.474H480.374V142.674ZM480.294 150.914H486.334V152.714H480.294V150.914ZM479.354 145.354H486.994V147.254H479.354V145.354ZM481.334 153.674H486.374V159.774H481.334V157.874H484.314V155.574H481.334V153.674ZM480.254 153.674H482.274V160.554H480.254V153.674ZM502.194 143.134H507.954V155.414H502.194V153.234H505.734V145.314H502.194V143.134ZM502.234 148.134H506.594V150.274H502.234V148.134ZM510.774 142.854H516.894V145.074H510.774V142.854ZM510.774 147.614H516.894V149.774H510.774V147.614ZM510.734 152.354H516.874V154.514H510.734V152.354ZM500.934 143.134H503.154V157.154H500.934V143.134ZM516.014 142.854H518.394V158.074C518.394 158.7 518.314 159.187 518.154 159.534C518.007 159.894 517.734 160.174 517.334 160.374C516.934 160.56 516.441 160.68 515.854 160.734C515.267 160.787 514.554 160.814 513.714 160.814C513.674 160.587 513.607 160.327 513.514 160.034C513.434 159.754 513.334 159.474 513.214 159.194C513.107 158.927 512.994 158.694 512.874 158.494C513.234 158.507 513.594 158.52 513.954 158.534C514.314 158.534 514.634 158.534 514.914 158.534C515.207 158.52 515.407 158.514 515.514 158.514C515.701 158.514 515.827 158.48 515.894 158.414C515.974 158.347 516.014 158.227 516.014 158.054V142.854ZM509.334 142.854H511.694V150.114C511.694 150.967 511.641 151.887 511.534 152.874C511.427 153.86 511.227 154.847 510.934 155.834C510.654 156.807 510.234 157.74 509.674 158.634C509.114 159.514 508.374 160.294 507.454 160.974C507.334 160.814 507.161 160.627 506.934 160.414C506.721 160.214 506.494 160.014 506.254 159.814C506.027 159.614 505.821 159.467 505.634 159.374C506.487 158.747 507.161 158.06 507.654 157.314C508.147 156.554 508.514 155.767 508.754 154.954C508.994 154.127 509.147 153.3 509.214 152.474C509.294 151.647 509.334 150.854 509.334 150.094V142.854Z" fill="white"/>
</svg>
