<svg width="125" height="125" viewBox="0 0 125 125" fill="none" xmlns="http://www.w3.org/2000/svg">
<g clip-path="url(#clip0_751_3799)">
<path d="M68.986 4.08778L72.3904 0L74.3647 4.94837C76.3263 9.84611 82.2365 11.7698 86.704 8.96021L91.2094 6.12534L91.5637 11.4407C91.9181 16.7055 96.955 20.363 102.068 19.0721L107.231 17.7686L105.928 22.9321C104.637 28.045 108.295 33.0819 113.559 33.4363L118.875 33.7906L116.04 38.296C113.23 42.7635 115.154 48.6737 120.052 50.6353L125 52.6096L120.912 56.014C116.862 59.393 116.862 65.6196 120.912 68.986L125 72.3904L120.052 74.3647C115.154 76.3263 113.23 82.2365 116.04 86.704L118.875 91.2094L113.559 91.5637C108.295 91.9181 104.637 96.955 105.928 102.068L107.231 107.231L102.068 105.928C96.955 104.637 91.9181 108.295 91.5637 113.559L91.2094 118.875L86.704 116.04C82.2365 113.23 76.3263 115.154 74.3647 120.052L72.3904 125L68.986 120.912C65.607 116.862 59.3804 116.862 56.014 120.912L52.6096 125L50.6353 120.052C48.6737 115.154 42.7635 113.23 38.296 116.04L33.7906 118.875L33.4363 113.559C33.0819 108.295 28.045 104.637 22.9321 105.928L17.7686 107.231L19.0721 102.068C20.363 96.955 16.7055 91.9181 11.4407 91.5637L6.12534 91.2094L8.96021 86.704C11.7698 82.2365 9.84611 76.3263 4.94837 74.3647L0 72.3904L4.08778 68.986C8.13759 65.607 8.13759 59.3804 4.08778 56.014L0 52.6096L4.94837 50.6353C9.84611 48.6737 11.7698 42.7635 8.96021 38.296L6.12534 33.7906L11.4407 33.4363C16.7055 33.0819 20.363 28.045 19.0721 22.9321L17.7686 17.7686L22.9321 19.0721C28.045 20.363 33.0819 16.7055 33.4363 11.4407L33.7906 6.12534L38.296 8.96021C42.7635 11.7698 48.6737 9.84611 50.6353 4.94837L52.6096 0L56.014 4.08778C59.393 8.13759 65.6196 8.13759 68.986 4.08778Z" fill="#FF5F17"/>
<path d="M47.34 36.8868H61.44V38.4068H47.34V36.8868ZM50.52 31.6468H52.6V35.7068H50.52V31.6468ZM55.08 31.6468H57.2V35.7068H55.08V31.6468ZM47.72 32.6268H61.9V36.2268H47.72V34.9068H59.7V33.9468H47.72V32.6268ZM52.58 40.9068L54.6 41.3668C53.84 42.1001 52.9533 42.7534 51.94 43.3268C50.9267 43.9001 49.7467 44.4201 48.4 44.8868C48.2667 44.6734 48.0733 44.4268 47.82 44.1468C47.58 43.8668 47.36 43.6534 47.16 43.5068C48.4 43.1601 49.48 42.7668 50.4 42.3268C51.32 41.8734 52.0467 41.4001 52.58 40.9068ZM52.6 42.1268H58.9V43.4268H51.3L52.6 42.1268ZM58.42 42.1268H58.84L59.2 42.0468L60.54 42.9068C59.9133 43.6268 59.14 44.2468 58.22 44.7668C57.3 45.2868 56.28 45.7268 55.16 46.0868C54.0533 46.4468 52.88 46.7334 51.64 46.9468C50.4133 47.1734 49.18 47.3534 47.94 47.4868C47.86 47.2468 47.7333 46.9668 47.56 46.6468C47.4 46.3268 47.24 46.0601 47.08 45.8468C48.2133 45.7668 49.3467 45.6401 50.48 45.4668C51.6267 45.2934 52.7133 45.0668 53.74 44.7868C54.7667 44.5068 55.6867 44.1734 56.5 43.7868C57.3133 43.3868 57.9533 42.9268 58.42 42.4068V42.1268ZM52 42.9668C52.5067 43.3934 53.14 43.7668 53.9 44.0868C54.6733 44.4068 55.54 44.6801 56.5 44.9068C57.46 45.1201 58.4867 45.2934 59.58 45.4268C60.6733 45.5468 61.8 45.6334 62.96 45.6868C62.7467 45.9001 62.5267 46.1868 62.3 46.5468C62.0867 46.9068 61.9133 47.2201 61.78 47.4868C60.58 47.3934 59.42 47.2534 58.3 47.0668C57.18 46.8801 56.12 46.6334 55.12 46.3268C54.1333 46.0201 53.2267 45.6468 52.4 45.2068C51.5867 44.7668 50.8733 44.2534 50.26 43.6668L52 42.9668ZM51.14 38.8268H53.02V39.7068C53.02 39.9068 53.0667 40.0334 53.16 40.0868C53.2667 40.1401 53.4733 40.1668 53.78 40.1668C53.86 40.1668 53.9933 40.1668 54.18 40.1668C54.3667 40.1668 54.5733 40.1668 54.8 40.1668C55.04 40.1668 55.2533 40.1668 55.44 40.1668C55.64 40.1668 55.7867 40.1668 55.88 40.1668C56.12 40.1668 56.28 40.1201 56.36 40.0268C56.44 39.9201 56.5 39.6868 56.54 39.3268C56.7267 39.4468 56.9667 39.5534 57.26 39.6468C57.5667 39.7401 57.84 39.8068 58.08 39.8468C58 40.5134 57.8133 40.9668 57.52 41.2068C57.24 41.4334 56.78 41.5468 56.14 41.5468C56.06 41.5468 55.9333 41.5468 55.76 41.5468C55.5867 41.5468 55.3867 41.5468 55.16 41.5468C54.9333 41.5468 54.7133 41.5468 54.5 41.5468C54.2867 41.5468 54.0933 41.5468 53.92 41.5468C53.7467 41.5468 53.62 41.5468 53.54 41.5468C52.9 41.5468 52.4 41.4934 52.04 41.3868C51.6933 41.2668 51.4533 41.0801 51.32 40.8268C51.2 40.5601 51.14 40.1868 51.14 39.7068V38.8268ZM60.88 36.8868H61.22L61.56 36.8268L63.12 37.1668C62.9333 37.6868 62.7267 38.2201 62.5 38.7668C62.2733 39.3134 62.0533 39.7734 61.84 40.1468L59.96 39.7668C60.12 39.4201 60.2867 39.0068 60.46 38.5268C60.6333 38.0468 60.7733 37.5868 60.88 37.1468V36.8868ZM49.4 38.6068L51 39.3068C50.7867 39.7601 50.52 40.2134 50.2 40.6668C49.8933 41.1201 49.5067 41.5068 49.04 41.8268L47.5 40.8268C47.9133 40.5734 48.2867 40.2401 48.62 39.8268C48.9533 39.4134 49.2133 39.0068 49.4 38.6068ZM52.94 38.5668L54.2 37.6668C54.56 37.8401 54.94 38.0601 55.34 38.3268C55.74 38.5934 56.0533 38.8334 56.28 39.0468L54.98 40.0468C54.7533 39.8201 54.44 39.5601 54.04 39.2668C53.6533 38.9734 53.2867 38.7401 52.94 38.5668ZM57.3 39.2268L58.78 38.4468C59.1933 38.7668 59.6133 39.1534 60.04 39.6068C60.4667 40.0468 60.7867 40.4401 61 40.7868L59.44 41.6468C59.2533 41.2868 58.9533 40.8801 58.54 40.4268C58.1267 39.9734 57.7133 39.5734 57.3 39.2268ZM52.98 28.7068H55.48V31.2468H52.98V28.7068ZM46.88 29.9068H62.6V31.7068H46.88V29.9068ZM45.74 29.9068H47.92V35.8668C47.92 36.7068 47.8933 37.6268 47.84 38.6268C47.7867 39.6268 47.6867 40.6534 47.54 41.7068C47.3933 42.7601 47.18 43.7801 46.9 44.7668C46.62 45.7534 46.2533 46.6468 45.8 47.4468C45.6667 47.3134 45.4867 47.1534 45.26 46.9668C45.0333 46.7934 44.8 46.6268 44.56 46.4668C44.3333 46.3068 44.1333 46.1868 43.96 46.1068C44.3733 45.3734 44.6933 44.5734 44.92 43.7068C45.16 42.8268 45.34 41.9334 45.46 41.0268C45.58 40.1068 45.6533 39.2068 45.68 38.3268C45.72 37.4468 45.74 36.6268 45.74 35.8668V29.9068ZM68.56 32.3468H82.48V34.6868H68.56V32.3468ZM67.72 38.2268H81.7V40.5468H67.72V38.2268ZM65.42 44.5868H83.5V46.9268H65.42V44.5868ZM73.18 28.7068H75.7V45.7268H73.18V28.7068ZM68.56 28.9668L71.04 29.5268C70.76 30.5534 70.4133 31.5668 70 32.5668C69.5867 33.5668 69.14 34.5001 68.66 35.3668C68.18 36.2201 67.68 36.9668 67.16 37.6068C67 37.4601 66.7867 37.3001 66.52 37.1268C66.2667 36.9401 66 36.7601 65.72 36.5868C65.44 36.4134 65.2 36.2734 65 36.1668C65.5333 35.6068 66.02 34.9401 66.46 34.1668C66.9133 33.3934 67.3133 32.5601 67.66 31.6668C68.02 30.7734 68.32 29.8734 68.56 28.9668ZM31.64 56.4868H41.28V58.6668H31.64V56.4868ZM30.46 60.3668H42.16V62.6068H30.46V60.3668ZM30.88 64.4068H41.98V66.6068H30.88V64.4068ZM35.22 54.6868H37.6V61.6068H35.22V54.6868ZM37.58 62.3468H39.96V70.8268C39.96 71.4268 39.8867 71.9001 39.74 72.2468C39.6067 72.5934 39.34 72.8668 38.94 73.0668C38.5267 73.2401 38.0333 73.3468 37.46 73.3868C36.8867 73.4401 36.2267 73.4668 35.48 73.4668C35.4267 73.1201 35.3333 72.7201 35.2 72.2668C35.0667 71.8134 34.9133 71.4201 34.74 71.0868C35.2333 71.1001 35.72 71.1134 36.2 71.1268C36.68 71.1268 37 71.1268 37.16 71.1268C37.32 71.1134 37.4267 71.0868 37.48 71.0468C37.5467 71.0068 37.58 70.9201 37.58 70.7868V62.3468ZM31.58 67.6868L33.36 66.5868C33.6667 66.8801 33.9733 67.2068 34.28 67.5668C34.5867 67.9268 34.8733 68.2868 35.14 68.6468C35.42 68.9934 35.6333 69.3134 35.78 69.6068L33.88 70.8468C33.7467 70.5534 33.5533 70.2268 33.3 69.8668C33.0467 69.4934 32.7667 69.1201 32.46 68.7468C32.1667 68.3601 31.8733 68.0068 31.58 67.6868ZM23.34 65.3668C23.9933 65.2201 24.7333 65.0401 25.56 64.8268C26.4 64.6134 27.28 64.3801 28.2 64.1268C29.1333 63.8601 30.06 63.5934 30.98 63.3268L31.28 65.4468C30.0267 65.8334 28.7467 66.2268 27.44 66.6268C26.1467 67.0134 24.9733 67.3601 23.92 67.6668L23.34 65.3668ZM26.92 54.7268H29.12V73.5068H26.92V54.7268ZM24.28 55.7468L26.3 56.0868C26.2067 56.9668 26.0933 57.8534 25.96 58.7468C25.8267 59.6268 25.6667 60.4601 25.48 61.2468C25.2933 62.0334 25.08 62.7268 24.84 63.3268C24.72 63.2201 24.5533 63.1001 24.34 62.9668C24.1267 62.8334 23.9133 62.7001 23.7 62.5668C23.4867 62.4201 23.3 62.3068 23.14 62.2268C23.3533 61.6934 23.5333 61.0734 23.68 60.3668C23.84 59.6601 23.9667 58.9134 24.06 58.1268C24.1667 57.3268 24.24 56.5334 24.28 55.7468ZM24.84 58.4868H30.8V60.7668H24.38L24.84 58.4868ZM55.06 57.1468H57.38V68.4668H55.06V57.1468ZM59.78 55.1268H62.16V70.5868C62.16 71.2934 62.0733 71.8334 61.9 72.2068C61.74 72.5801 61.4533 72.8668 61.04 73.0668C60.6267 73.2534 60.0867 73.3734 59.42 73.4268C58.7533 73.4934 57.96 73.5268 57.04 73.5268C57.0133 73.2868 56.9533 73.0134 56.86 72.7068C56.7667 72.4134 56.66 72.1134 56.54 71.8068C56.4333 71.5134 56.32 71.2601 56.2 71.0468C56.8533 71.0601 57.4733 71.0734 58.06 71.0868C58.6467 71.0868 59.04 71.0868 59.24 71.0868C59.4267 71.0868 59.56 71.0534 59.64 70.9868C59.7333 70.9068 59.78 70.7734 59.78 70.5868V55.1268ZM47.96 64.2668H52.56V66.3668H47.96V64.2668ZM51.5 64.2668H53.72C53.72 64.2668 53.7133 64.3268 53.7 64.4468C53.7 64.5534 53.7 64.6801 53.7 64.8268C53.7 64.9601 53.7 65.0668 53.7 65.1468C53.6333 66.7601 53.56 68.0801 53.48 69.1068C53.4 70.1201 53.3 70.9001 53.18 71.4468C53.0733 71.9801 52.9267 72.3668 52.74 72.6068C52.54 72.8601 52.32 73.0401 52.08 73.1468C51.84 73.2534 51.56 73.3268 51.24 73.3668C50.9733 73.4068 50.62 73.4334 50.18 73.4468C49.74 73.4601 49.2867 73.4534 48.82 73.4268C48.8067 73.1068 48.74 72.7468 48.62 72.3468C48.5 71.9601 48.3533 71.6268 48.18 71.3468C48.5933 71.3868 48.98 71.4134 49.34 71.4268C49.7133 71.4401 49.9867 71.4468 50.16 71.4468C50.3067 71.4468 50.4267 71.4334 50.52 71.4068C50.6267 71.3668 50.7267 71.2934 50.82 71.1868C50.94 71.0534 51.04 70.7601 51.12 70.3068C51.2 69.8401 51.2733 69.1534 51.34 68.2468C51.4067 67.3268 51.46 66.1201 51.5 64.6268V64.2668ZM47.46 57.7668V60.5068H51.22V57.7668H47.46ZM45.28 55.6468H53.54V62.6268H45.28V55.6468ZM47.32 61.9868H49.66C49.6067 63.0401 49.52 64.1068 49.4 65.1868C49.28 66.2534 49.08 67.2934 48.8 68.3068C48.5333 69.3068 48.1467 70.2534 47.64 71.1468C47.1467 72.0268 46.4933 72.8134 45.68 73.5068C45.5067 73.2134 45.2667 72.9001 44.96 72.5668C44.6533 72.2334 44.3533 71.9668 44.06 71.7668C44.78 71.1934 45.3467 70.5268 45.76 69.7668C46.1733 69.0068 46.4867 68.1934 46.7 67.3268C46.9133 66.4601 47.06 65.5734 47.14 64.6668C47.22 63.7601 47.28 62.8668 47.32 61.9868ZM74.3 57.0068C73.8867 57.6068 73.3933 58.2268 72.82 58.8668C72.2467 59.5068 71.6067 60.1401 70.9 60.7668C70.2067 61.3934 69.4667 61.9934 68.68 62.5668C67.9067 63.1268 67.1 63.6401 66.26 64.1068C66.1667 63.9201 66.0333 63.7068 65.86 63.4668C65.6867 63.2268 65.5 62.9934 65.3 62.7668C65.1 62.5401 64.9133 62.3401 64.74 62.1668C65.9 61.5668 67.0133 60.8468 68.08 60.0068C69.1467 59.1534 70.1 58.2534 70.94 57.3068C71.7933 56.3601 72.4667 55.4668 72.96 54.6268H75.44C75.9867 55.4134 76.5933 56.1734 77.26 56.9068C77.9267 57.6401 78.6333 58.3201 79.38 58.9468C80.1267 59.5734 80.9 60.1401 81.7 60.6468C82.5 61.1534 83.3067 61.5801 84.12 61.9268C83.8133 62.2334 83.52 62.5801 83.24 62.9668C82.9733 63.3401 82.7267 63.7134 82.5 64.0868C81.7133 63.6468 80.9267 63.1534 80.14 62.6068C79.3667 62.0468 78.6133 61.4534 77.88 60.8268C77.1467 60.2001 76.4733 59.5601 75.86 58.9068C75.2467 58.2534 74.7267 57.6201 74.3 57.0068ZM74.44 64.6268H81.14V66.7668H74.44V64.6268ZM65.86 70.7868H82.96V72.9668H65.86V70.7868ZM73.24 60.3468H75.78V71.9468H73.24V60.3468ZM68.04 63.8068H70.4V71.9068H68.04V63.8068ZM97.86 57.1468H100.04V68.4668H97.86V57.1468ZM101.66 55.1268H103.92V70.7268C103.92 71.3534 103.847 71.8401 103.7 72.1868C103.567 72.5468 103.32 72.8201 102.96 73.0068C102.6 73.1934 102.133 73.3134 101.56 73.3668C101 73.4334 100.327 73.4668 99.54 73.4668C99.5 73.1468 99.4067 72.7534 99.26 72.2868C99.1267 71.8334 98.98 71.4401 98.82 71.1068C99.34 71.1201 99.8267 71.1334 100.28 71.1468C100.733 71.1468 101.04 71.1468 101.2 71.1468C101.373 71.1468 101.493 71.1201 101.56 71.0668C101.627 71.0001 101.66 70.8868 101.66 70.7268V55.1268ZM85.88 57.7268H97.3V59.1868H85.88V57.7268ZM86.88 61.7868H96.48V63.1068H86.88V61.7868ZM86 63.7068H97.22V65.2268H86V63.7068ZM90.64 66.2068H92.64V69.9868H90.64V66.2068ZM90.42 54.7068H92.56V64.7268H90.42V54.7068ZM85.88 71.1868C86.84 71.1601 87.94 71.1334 89.18 71.1068C90.42 71.0668 91.7333 71.0201 93.12 70.9668C94.52 70.9001 95.9067 70.8401 97.28 70.7868L97.2 72.5868C95.88 72.6401 94.54 72.6934 93.18 72.7468C91.82 72.8134 90.5267 72.8668 89.3 72.9068C88.0733 72.9601 86.9867 73.0068 86.04 73.0468L85.88 71.1868ZM86.98 55.7868H96.26V61.1868H86.92V59.8868H94.22V57.1068H86.98V55.7868ZM88.8 68.6268V69.2868H94.4V68.6268H88.8ZM88.8 66.9068V67.5668H94.4V66.9068H88.8ZM86.94 65.8068H96.34V70.3868H86.94V65.8068ZM66.6145 83.1613V97.7068H63.5392V86.0803H63.454L60.123 88.1684V85.4411L63.7239 83.1613H66.6145Z" fill="white"/>
</g>
<defs>
<clipPath id="clip0_751_3799">
<rect width="125" height="125" fill="white"/>
</clipPath>
</defs>
</svg>
