<svg width="27" height="28" viewBox="0 0 27 28" fill="none" xmlns="http://www.w3.org/2000/svg">
<path d="M4.24931 21.307C2.33989 21.1263 0.735118 19.7049 0.470714 17.7719C0.168158 15.5601 0 13.2862 0 10.9455C0 8.52209 0.16822 6.13755 0.492147 3.85456C0.748345 2.04895 2.19653 0.686058 3.97935 0.495496C6.99115 0.17356 10.1378 0 13.3557 0C16.5636 0 19.6546 0.184009 22.6692 0.50122C24.4823 0.692017 25.9549 2.08323 26.2124 3.91973C26.5299 6.18507 26.7114 8.54305 26.7114 10.9455C26.7114 13.3289 26.5131 15.646 26.2008 17.8957C25.9412 19.7673 24.4452 21.1957 22.5974 21.3868C19.612 21.6954 16.5343 21.8909 13.3557 21.8909C13.2796 21.8909 13.2036 21.8907 13.1275 21.8905C10.8862 24.5143 9.16774 25.8111 6.16417 27.184V21.4875C5.67717 21.4427 5.19297 21.3966 4.71173 21.3509C4.55728 21.3364 4.40314 21.3216 4.24931 21.307Z" fill="#EB6129"/>
<path d="M13.3573 11.9136C13.3573 11.1825 13.9416 10.734 14.9724 10.033C15.9286 9.38284 16.433 8.53942 16.2086 7.39159C15.9843 6.24377 15.0523 5.29535 13.9245 5.06703C12.154 4.70864 10.4502 6.13166 10.4502 7.96873" stroke="white" stroke-width="3.17691" stroke-linecap="round" stroke-linejoin="round"/>
<path d="M13.3555 16.9761V16.4324" stroke="white" stroke-width="3.17691" stroke-linecap="round" stroke-linejoin="round"/>
</svg>
