<svg width="359" height="116" viewBox="0 0 359 116" fill="none" xmlns="http://www.w3.org/2000/svg">
<path d="M359 79C359 95.5686 345.569 109 329 109L29 109L29 36L359 36L359 79Z" fill="#FF5F17"/>
<circle cx="236" cy="73" r="21" fill="#39BF63"/>
<circle cx="276" cy="73" r="21" fill="#39BF63"/>
<circle cx="316" cy="73" r="21" fill="#39BF63"/>
<path d="M238.136 79.752H245.332V83H238.136V79.752ZM222.372 64.24H232.648V67.544H222.372V64.24ZM236.652 62.42H246.844V84.736H243.456V65.668H239.872V84.96H236.652V62.42ZM231.808 64.24H235.056C235.056 64.24 235.056 65.36 235.056 65.78C234.804 77.764 234.608 82.076 233.712 83.392C233.068 84.316 232.48 84.652 231.556 84.82C230.716 85.016 229.456 85.016 228.168 84.96C228.112 83.98 227.748 82.524 227.188 81.572C228.308 81.684 229.316 81.684 229.848 81.684C230.268 81.712 230.52 81.572 230.8 81.18C231.388 80.34 231.612 76.308 231.808 64.996V64.24ZM225.704 59.62H229.008C228.98 70.652 228.868 79.948 224.024 85.52C223.492 84.708 222.372 83.588 221.532 83.056C225.9 78.128 225.676 69.868 225.704 59.62ZM262.732 60.264H273.372V63.316H262.732V60.264ZM265.98 69.196H272.56V82.104H265.98V79.22H269.648V72.08H265.98V69.196ZM265.756 61.86L268.892 62.336C268.08 68.412 266.596 74.348 263.796 78.156C263.516 77.372 262.592 75.692 262.004 74.936C264.16 71.856 265.196 66.956 265.756 61.86ZM264.552 69.196H267.436V84.316H264.552V69.196ZM275.864 64.66H287.064V67.264H275.864V64.66ZM275.864 68.888H287.064V71.52H275.864V68.888ZM274.268 73.228H286.364V76.112H274.268V73.228ZM280.064 61.804H283.06V74.376H280.064V61.804ZM276.648 78.072L278.804 77.764C279.14 79.416 279.336 81.488 279.308 82.888L277.012 83.252C277.068 81.852 276.928 79.724 276.648 78.072ZM279.56 77.904L281.604 77.372C282.108 78.688 282.584 80.424 282.752 81.572L280.596 82.188C280.484 81.04 280.036 79.276 279.56 77.904ZM282.36 77.372L284.012 76.728C284.712 77.708 285.356 79.052 285.636 79.92L283.844 80.676C283.592 79.78 282.976 78.408 282.36 77.372ZM273.876 76.896L276.34 77.512C276.088 80.004 275.612 82.636 274.352 84.26L272.028 83C273.12 81.544 273.652 79.192 273.876 76.896ZM274.268 60.236H287.876V63.12H277.32V74.768H274.268V60.236ZM285.384 73.228H288.436C288.436 73.228 288.408 74.04 288.38 74.432C288.128 80.928 287.82 83.532 287.092 84.428C286.532 85.128 285.944 85.38 285.132 85.492C284.46 85.576 283.312 85.604 282.08 85.548C282.024 84.68 281.716 83.476 281.24 82.692C282.248 82.776 283.144 82.804 283.592 82.804C283.984 82.804 284.208 82.72 284.46 82.468C284.908 81.908 285.188 79.696 285.384 73.732V73.228ZM311.129 69.84H329.049V72.836H311.129V69.84ZM312.109 64.184H328.097V67.124H312.109V64.184ZM318.045 65.612H321.405V70.12C321.405 73.676 320.033 78.1 313.369 80.984C312.949 80.284 311.913 79.136 311.129 78.548C317.457 76.252 318.045 72.668 318.045 70.064V65.612ZM321.909 71.968C323.029 75.076 325.409 77.26 329.105 78.212C328.377 78.884 327.453 80.172 327.005 81.04C322.861 79.668 320.453 76.784 319.081 72.556L321.909 71.968ZM310.037 70.148V80.452H306.761V73.256H303.485V70.148H310.037ZM310.037 78.996C311.157 80.844 313.285 81.656 316.197 81.768C319.473 81.908 325.829 81.824 329.609 81.516C329.245 82.3 328.685 83.924 328.545 84.932C325.157 85.1 319.501 85.156 316.141 85.016C312.697 84.876 310.373 84.064 308.553 81.88C307.321 82.972 306.061 84.036 304.549 85.268L302.897 81.768C304.157 80.984 305.669 80.004 306.957 78.996H310.037ZM303.541 61.888L306.033 59.872C307.713 61.048 309.785 62.812 310.737 64.128L308.049 66.34C307.209 65.024 305.193 63.148 303.541 61.888ZM323.813 59.2L327.257 60.264C326.221 61.888 325.129 63.54 324.233 64.632L321.489 63.652C322.301 62.42 323.309 60.572 323.813 59.2ZM312.837 60.432L315.693 59.284C316.729 60.544 317.765 62.308 318.157 63.54L315.105 64.856C314.797 63.652 313.817 61.804 312.837 60.432Z" fill="white"/>
<path d="M110.172 72.656H117.364V99.162H110.172V72.656ZM100.08 63.144V67.378H127.456V63.144H100.08ZM100.08 53.284V57.46H127.456V53.284H100.08ZM93.236 47.194H134.648V73.526H93.236V47.194ZM87.494 80.08H140.738V86.75H87.494V80.08ZM155.18 78.282H194.91V83.212H155.18V78.282ZM158.718 70.858H200.826V75.672H158.718V70.858ZM158.892 56.474H188.936V60.766H158.892V56.474ZM192.822 78.282H199.376C199.376 78.282 199.318 79.848 199.26 80.66C198.506 91.1 197.636 95.508 196.186 97.19C194.968 98.466 193.75 98.93 192.068 99.162C190.618 99.336 188.182 99.394 185.514 99.278C185.456 97.596 184.76 95.218 183.89 93.71C185.978 93.884 187.892 93.884 188.762 93.884C189.632 93.884 190.096 93.826 190.618 93.304C191.488 92.26 192.3 88.606 192.822 79.152V78.282ZM169.97 44.41L178.322 45.048C177.104 47.89 175.422 50.558 174.32 52.356L168.172 51.312C168.868 49.224 169.68 46.44 169.97 44.41ZM159.356 49.108H192.648V68.306H159.356V63.55H185.804V53.922H159.356V49.108ZM155.18 49.108H162.082V80.544H155.18V49.108ZM170.666 86.518L175.886 85.242C177.278 88.258 178.496 92.26 178.844 94.754L173.218 96.262C172.986 93.71 171.884 89.592 170.666 86.518ZM179.656 85.416L184.586 83.676C186.094 85.996 187.718 89.186 188.356 91.216L183.136 93.188C182.556 91.1 181.106 87.852 179.656 85.416ZM161.212 86.634L166.954 85.764C167.882 89.186 168.462 93.594 168.404 96.494L162.372 97.422C162.546 94.58 162.024 90.056 161.212 86.634ZM153.092 84.256L158.834 86.344C157.616 90.926 155.702 95.914 152.512 99.104L146.944 95.682C149.844 92.898 151.99 88.49 153.092 84.256Z" fill="white"/>
<path d="M38.9077 1.5396C40.8774 3.90317 44.1021 3.90317 46.0717 1.5396C48.0414 -0.823966 50.5882 -0.420877 51.7333 2.43739C52.8784 5.29565 55.9474 6.29421 58.5492 4.65438C61.1509 3.01454 63.4504 4.18716 63.6611 7.25613C63.8718 10.3251 66.4735 12.2214 69.46 11.4702C72.4466 10.719 74.2696 12.5421 73.5093 15.5194C72.7489 18.4968 74.6544 21.1077 77.7234 21.3184C80.7923 21.5291 81.965 23.8194 80.3251 26.4303C78.6853 29.0412 79.6838 32.1011 82.5421 33.2462C85.4004 34.3913 85.8035 36.9381 83.4399 38.9078C81.0763 40.8774 81.0763 44.1021 83.4399 46.0717C85.8035 48.0414 85.4004 50.5882 82.5421 51.7333C79.6838 52.8784 78.6853 55.9474 80.3251 58.5492C81.965 61.1509 80.7923 63.4504 77.7234 63.6611C74.6544 63.8718 72.758 66.4735 73.5093 69.46C74.2605 72.4466 72.4374 74.2696 69.46 73.5092C66.4827 72.7489 63.8718 74.6544 63.6611 77.7234C63.4504 80.7923 61.1601 81.965 58.5492 80.3251C55.9383 78.6853 52.8784 79.6838 51.7333 82.5421C50.5882 85.4004 48.0414 85.8035 46.0717 83.4399C44.1021 81.0763 40.8774 81.0763 38.9077 83.4399C36.9381 85.8035 34.3913 85.4004 33.2462 82.5421C32.101 79.6838 29.0321 78.6853 26.4303 80.3251C23.8286 81.965 21.5291 80.7923 21.3184 77.7234C21.1077 74.6544 18.506 72.758 15.5194 73.5092C12.5329 74.2605 10.7099 72.4374 11.4702 69.46C12.2306 66.4827 10.3251 63.8718 7.25613 63.6611C4.18716 63.4504 3.01454 61.1601 4.65438 58.5492C6.29421 55.9383 5.29565 52.8784 2.43739 51.7333C-0.420877 50.5882 -0.823966 48.0414 1.5396 46.0717C3.90317 44.1021 3.90317 40.8774 1.5396 38.9078C-0.823966 36.9381 -0.420877 34.3913 2.43739 33.2462C5.29565 32.1011 6.29421 29.0321 4.65438 26.4303C3.01454 23.8286 4.18716 21.5291 7.25613 21.3184C10.3251 21.1077 12.2214 18.506 11.4702 15.5194C10.719 12.5329 12.5421 10.7099 15.5194 11.4702C18.4968 12.2306 21.1077 10.3251 21.3184 7.25613C21.5291 4.18716 23.8194 3.01454 26.4303 4.65438C29.0412 6.29421 32.101 5.29565 33.2462 2.43739C34.3913 -0.420877 36.9381 -0.823966 38.9077 1.5396Z" fill="#39BF63"/>
<path d="M21.944 33.422H30.876V35.864H21.944V33.422ZM21.196 41.078H33.34V43.564H21.196V41.078ZM25.838 38.504H28.5V50.054C28.5 51.374 28.236 52.078 27.378 52.496C26.498 52.892 25.288 52.98 23.66 52.958C23.528 52.232 23.088 51.088 22.736 50.384C23.858 50.428 25.002 50.45 25.376 50.428C25.728 50.406 25.838 50.318 25.838 50.01V38.504ZM29.93 33.422H30.568L31.118 33.29L32.834 34.588C31.536 36.502 29.666 38.834 27.95 40.286C27.598 39.824 26.872 39.098 26.454 38.746C27.752 37.492 29.27 35.314 29.93 33.994V33.422ZM12.814 36.7H19.92V39.142H12.814V36.7ZM15.762 32.322L18.248 32.586C17.412 37.272 16.136 43.168 15.102 47.128L12.946 45.984C13.892 42.508 15.08 36.7 15.762 32.322ZM14.09 45.61L15.542 43.762C17.83 45.192 20.734 47.326 22.01 48.976L20.426 51.11C19.194 49.438 16.4 47.128 14.09 45.61ZM19.018 36.7H19.436L19.898 36.634L21.46 36.898C20.954 45.478 18.82 50.34 14.464 53.046C14.112 52.408 13.408 51.462 12.88 50.956C16.62 48.998 18.578 44.136 19.018 37.184V36.7ZM45.99 48.514L48.014 47.986C48.498 48.734 48.894 49.768 49.026 50.45L46.892 51.088C46.804 50.384 46.408 49.284 45.99 48.514ZM51.798 47.92L54.086 48.536C53.602 49.504 53.118 50.406 52.766 51.044L50.808 50.472C51.16 49.746 51.578 48.668 51.798 47.92ZM47.178 45.478V46.6H52.656V45.478H47.178ZM45 43.938H54.922V48.14H45V43.938ZM46.408 37.866V38.856H53.338V37.866H46.408ZM46.408 35.358V36.348H53.338V35.358H46.408ZM44.296 33.73H55.56V40.484H44.296V33.73ZM43.988 41.21H55.912V43.19H43.988V41.21ZM43.548 50.626H56.22V52.562H43.548V50.626ZM47.244 32.322H49.202V34.94H47.244V32.322ZM50.5 32.322H52.458V34.94H50.5V32.322ZM47.64 34.478H49.18V40.154H47.64V34.478ZM50.5 34.478H52.04V40.154H50.5V34.478ZM35.782 38.086H43.504V40.374H35.782V38.086ZM36.31 33.708H43.064V35.974H36.31V33.708ZM41.744 41.474H43.416V49.68H41.744V41.474ZM38.664 39.23H40.842V52.98H38.664V39.23ZM36.09 41.518H37.762V44.158C37.762 46.424 37.652 49.042 36.86 51.154C36.53 50.802 35.848 50.274 35.386 50.032C35.98 48.25 36.09 46.006 36.09 44.092V41.518ZM59.0569 51V48.5625L64.7522 43.2891C65.2366 42.8203 65.6428 42.3984 65.9709 42.0234C66.3043 41.6484 66.5569 41.2812 66.7287 40.9219C66.9006 40.5573 66.9866 40.1641 66.9866 39.7422C66.9866 39.2734 66.8798 38.8698 66.6662 38.5312C66.4527 38.1875 66.161 37.9245 65.7912 37.7422C65.4215 37.5547 65.0022 37.4609 64.5334 37.4609C64.0439 37.4609 63.6168 37.5599 63.2522 37.7578C62.8876 37.9557 62.6064 38.2396 62.4084 38.6094C62.2105 38.9792 62.1116 39.4193 62.1116 39.9297H58.9006C58.9006 38.8828 59.1376 37.974 59.6116 37.2031C60.0855 36.4323 60.7496 35.8359 61.6037 35.4141C62.4579 34.9922 63.4423 34.7812 64.5569 34.7812C65.7027 34.7812 66.7001 34.9844 67.5491 35.3906C68.4032 35.7917 69.0673 36.349 69.5412 37.0625C70.0152 37.776 70.2522 38.5937 70.2522 39.5156C70.2522 40.1198 70.1324 40.7161 69.8928 41.3047C69.6584 41.8932 69.2392 42.5469 68.635 43.2656C68.0308 43.9792 67.1793 44.8359 66.0803 45.8359L63.7444 48.125V48.2344H70.4631V51H59.0569Z" fill="white"/>
</svg>
