<svg width="482" height="113" viewBox="0 0 482 113" fill="none" xmlns="http://www.w3.org/2000/svg">
<path d="M14.3846 18.308H17.6326V25.756H14.3846V18.308ZM11.7526 11.644V13.324H20.2086V11.644H11.7526ZM8.64464 9.264H23.5406V15.732H8.64464V9.264ZM5.95664 16.88H26.4806V27.548H23.1206V19.316H9.17664V27.576H5.95664V16.88ZM7.74864 20.744H24.2966V23.012H7.74864V20.744ZM7.74864 24.496H24.2966V26.932H7.74864V24.496ZM14.2446 1.228H17.6606V6.436H14.2446V1.228ZM3.91264 5.036H28.3846V11.448H25.0526V7.892H7.10464V11.448H3.91264V5.036ZM6.06864 2.656L9.06464 1.48C9.96064 2.488 10.8566 3.86 11.2766 4.84L8.16864 6.212C7.80464 5.232 6.90864 3.72 6.06864 2.656ZM22.7566 1.424L26.3406 2.46C25.3606 3.804 24.3806 5.092 23.6246 5.96L20.7686 5.008C21.4686 4 22.3366 2.516 22.7566 1.424ZM45.5206 6.716H57.6446V9.88H45.5206V6.716ZM52.4366 7.92C53.3046 12.316 55.1526 16.04 58.5966 17.776C57.8686 18.42 56.8326 19.736 56.3286 20.66C52.5206 18.308 50.6446 13.968 49.6086 8.396L52.4366 7.92ZM36.6166 8.424L38.0726 6.548C39.5846 7.22 41.5166 8.368 42.5246 9.152L41.0126 11.252C40.0606 10.412 38.1286 9.208 36.6166 8.424ZM52.7726 2.796L55.1806 1.48C56.1886 2.6 57.3646 4.14 57.8686 5.204L55.3206 6.66C54.8446 5.624 53.7526 3.972 52.7726 2.796ZM33.9006 11.448L35.7206 9.712C37.2886 10.636 39.2766 12.008 40.2566 12.988L38.3246 14.892C37.4006 13.884 35.4686 12.428 33.9006 11.448ZM38.1006 0.947999L41.2926 1.788C39.6966 5.764 37.1206 10.104 33.9006 12.792C33.3406 12.12 32.3046 11.14 31.6326 10.636C34.6286 8.284 37.0086 4.28 38.1006 0.947999ZM43.1126 3.552H43.7566L44.3166 3.44L46.4446 4.308C44.6526 12.68 40.3406 18 34.8526 20.66C34.4046 19.904 33.2286 18.616 32.5006 18.084C37.8206 15.788 41.7686 11.224 43.1126 4.196V3.552ZM40.4246 21.836L43.5326 21.472C43.8966 23.18 44.2326 25.392 44.2606 26.764L40.9566 27.24C40.9566 25.868 40.7606 23.572 40.4246 21.836ZM45.9966 21.892L49.1606 21.36C49.8606 23.012 50.5606 25.224 50.8126 26.596L47.4526 27.268C47.2566 25.896 46.6406 23.628 45.9966 21.892ZM51.6246 21.752L54.8446 20.744C56.1326 22.452 57.7006 24.832 58.4286 26.4L54.9846 27.548C54.3686 26.008 52.8846 23.544 51.6246 21.752ZM35.3006 20.856L38.5486 21.64C37.9326 23.796 36.7566 26.064 35.4126 27.548L32.1926 26.26C33.4526 25.056 34.6566 22.9 35.3006 20.856ZM38.7726 3.552H44.2606V6.212H36.9526L38.7726 3.552ZM49.2726 1.62H52.4366V7.388C52.4366 11.98 51.3726 17.132 44.7086 20.548C44.1766 19.792 43.1406 18.812 42.3566 18.196C48.4326 15.116 49.2726 10.888 49.2726 7.332V1.62ZM62.0686 3.104H86.4846V6.548H62.0686V3.104ZM75.5926 12.484L78.1966 10.3C81.1926 12.484 85.5046 15.704 87.5486 17.944L84.6926 20.52C82.8446 18.308 78.7006 14.864 75.5926 12.484ZM74.4726 4.364L78.2246 5.68C75.0326 11.588 69.9366 17.3 63.4966 20.66C62.9646 19.764 61.9006 18.364 61.2006 17.608C67.1926 14.78 72.1486 9.348 74.4726 4.364ZM72.4286 11.14L76.1246 7.472V27.464H72.4286V11.14ZM94.4646 1.088L97.9646 1.844C96.9566 4.42 95.6966 7.164 94.6326 8.956L91.7206 8.2C92.7286 6.296 93.8766 3.328 94.4646 1.088ZM90.2366 6.828C93.2606 6.744 97.7966 6.548 102.137 6.352L102.109 9.264C97.9926 9.572 93.6806 9.824 90.4886 10.02L90.2366 6.828ZM91.8886 11.336H100.793V14.108H94.9966V27.492H91.8886V11.336ZM99.1966 11.336H102.529V24.132C102.529 25.56 102.249 26.4 101.297 26.904C100.317 27.408 99.0566 27.464 97.3486 27.464C97.1806 26.568 96.7046 25.28 96.2846 24.468C97.2646 24.524 98.3846 24.524 98.7486 24.496C99.0846 24.496 99.1966 24.412 99.1966 24.048V11.336ZM93.3166 15.564H101.073V18.056H93.3166V15.564ZM93.3166 19.68H101.073V22.172H93.3166V19.68ZM104.713 1.34H108.073V9.74C108.073 10.72 108.241 10.86 109.305 10.86C109.753 10.86 111.769 10.86 112.357 10.86C113.281 10.86 113.449 10.44 113.561 7.976C114.261 8.508 115.633 9.012 116.557 9.208C116.193 12.848 115.297 13.856 112.693 13.856C111.993 13.856 109.473 13.856 108.829 13.856C105.525 13.856 104.713 12.904 104.713 9.796V1.34ZM113.113 2.992L115.241 5.428C112.749 6.632 109.501 7.696 106.729 8.452C106.589 7.78 106.141 6.772 105.777 6.128C108.381 5.316 111.265 4.056 113.113 2.992ZM104.713 14.416H108.045V23.236C108.045 24.272 108.241 24.384 109.333 24.384C109.809 24.384 111.909 24.384 112.525 24.384C113.505 24.384 113.673 23.88 113.813 21.024C114.513 21.528 115.857 22.06 116.781 22.256C116.417 26.204 115.521 27.324 112.833 27.324C112.133 27.324 109.529 27.324 108.857 27.324C105.553 27.324 104.713 26.372 104.713 23.264V14.416ZM113.337 15.592L115.521 18.056C112.973 19.428 109.585 20.604 106.701 21.416C106.533 20.772 106.057 19.708 105.721 19.064C108.437 18.196 111.433 16.824 113.337 15.592ZM98.2726 4.168L101.129 3.104C102.501 5.12 103.957 7.78 104.489 9.628L101.437 10.86C100.961 9.068 99.6166 6.268 98.2726 4.168ZM130.781 1.228H134.225V14.864C134.225 16.656 133.889 17.608 132.657 18.14C131.481 18.672 129.745 18.756 127.449 18.756C127.309 17.776 126.777 16.264 126.273 15.312C127.869 15.368 129.633 15.34 130.137 15.34C130.613 15.34 130.781 15.228 130.781 14.808V1.228ZM136.885 5.932L139.993 4.336C142.289 7.136 144.865 10.888 145.845 13.576L142.401 15.452C141.561 12.848 139.153 8.9 136.885 5.932ZM138.145 13.072L141.757 14.08C138.985 22.788 133.385 26.008 123.249 27.632C122.913 26.568 122.157 25.14 121.457 24.272C130.753 23.208 135.849 20.548 138.145 13.072ZM124.369 4.756L128.121 5.624C126.805 9.152 124.733 13.212 122.297 15.704C121.513 15.06 120.141 14.164 119.245 13.716C121.597 11.476 123.529 7.724 124.369 4.756ZM160.013 10.804H163.569V23.628C163.569 25.532 163.093 26.456 161.693 26.96C160.321 27.464 158.305 27.52 155.617 27.52C155.421 26.54 154.777 25.028 154.245 24.104C156.233 24.188 158.529 24.188 159.173 24.188C159.789 24.188 160.013 24.02 160.013 23.544V10.804ZM150.437 3.188H170.009V6.492H150.437V3.188ZM168.749 3.188H169.645L170.457 2.964L173.089 4.924C170.569 8.004 166.873 11.56 163.429 13.716C162.897 12.988 161.805 11.868 161.133 11.336C164.045 9.488 167.349 6.128 168.749 4V3.188ZM183.981 23.572H198.037V26.512H183.981V23.572ZM186.921 0.92L190.113 2.04C187.789 5.988 184.065 9.572 180.453 11.784C179.921 11.14 178.689 9.852 177.961 9.292C181.573 7.444 184.989 4.336 186.921 0.92ZM197.113 3.916H197.813L198.373 3.748L200.781 5.288C196.581 12.092 187.677 16.124 179.053 18C178.745 17.104 178.017 15.732 177.401 14.976C185.353 13.548 193.865 9.768 197.113 4.42V3.916ZM185.493 5.512C189.077 10.02 196.217 13.408 204.281 14.696C203.497 15.452 202.573 16.908 202.097 17.832C193.921 16.236 186.977 12.428 182.665 6.828L185.493 5.512ZM182.273 17.02H199.465V27.464H195.881V20.044H185.661V27.576H182.273V17.02ZM186.837 3.916H197.869V6.8H184.821L186.837 3.916ZM223.209 3.608H226.429V25.784H223.209V3.608ZM216.909 6.128H232.505V8.732H216.909V6.128ZM216.069 24.412H233.093V27.072H216.069V24.412ZM217.637 20.576H232.057V23.124H217.637V20.576ZM230.545 1.452L232.477 3.944C228.417 4.728 222.677 5.064 217.917 5.12C217.861 4.392 217.497 3.272 217.189 2.6C221.809 2.46 227.241 2.096 230.545 1.452ZM220.745 15.564V16.992H229.005V15.564H220.745ZM220.745 12.204V13.604H229.005V12.204H220.745ZM217.833 9.88H232.057V19.316H217.833V9.88ZM211.029 3.832H214.305V27.492H211.029V3.832ZM206.997 9.096H217.273V12.232H206.997V9.096ZM211.225 10.356L213.185 11.224C212.121 15.228 210.133 20.212 207.977 22.984C207.669 22.004 206.941 20.604 206.409 19.764C208.369 17.524 210.329 13.464 211.225 10.356ZM215.397 1.508L217.637 4.112C214.781 5.204 210.889 5.96 207.613 6.38C207.473 5.652 207.053 4.532 206.661 3.832C209.769 3.3 213.241 2.488 215.397 1.508ZM214.221 12.988C214.921 13.576 217.357 16.096 217.889 16.74L215.985 19.372C215.313 18.028 213.633 15.48 212.765 14.304L214.221 12.988ZM247.653 2.628H259.021V5.736H247.653V2.628ZM246.701 12.372H262.157V15.536H246.701V12.372ZM252.609 9.096H255.997V23.796C255.997 25.476 255.661 26.372 254.569 26.904C253.449 27.408 251.909 27.52 249.837 27.492C249.669 26.568 249.109 25.112 248.661 24.216C250.089 24.272 251.545 24.3 252.021 24.272C252.469 24.244 252.609 24.132 252.609 23.74V9.096ZM257.817 2.628H258.629L259.329 2.46L261.513 4.112C259.861 6.548 257.481 9.516 255.297 11.364C254.849 10.776 253.925 9.852 253.393 9.404C255.045 7.808 256.977 5.036 257.817 3.356V2.628ZM236.033 6.8H245.077V9.908H236.033V6.8ZM239.785 1.228L242.949 1.564C241.885 7.528 240.261 15.032 238.945 20.072L236.201 18.616C237.405 14.192 238.917 6.8 239.785 1.228ZM237.657 18.14L239.505 15.788C242.417 17.608 246.113 20.324 247.737 22.424L245.721 25.14C244.153 23.012 240.597 20.072 237.657 18.14ZM243.929 6.8H244.461L245.049 6.716L247.037 7.052C246.393 17.972 243.677 24.16 238.133 27.604C237.685 26.792 236.789 25.588 236.117 24.944C240.877 22.452 243.369 16.264 243.929 7.416V6.8ZM276.933 10.4929C276.854 9.69081 276.512 9.06771 275.909 8.62358C275.306 8.17945 274.487 7.95739 273.453 7.95739C272.751 7.95739 272.157 8.05682 271.673 8.25568C271.19 8.44792 270.818 8.71638 270.56 9.06108C270.308 9.40578 270.182 9.79688 270.182 10.2344C270.169 10.599 270.245 10.9171 270.411 11.1889C270.583 11.4607 270.818 11.696 271.117 11.8949C271.415 12.0871 271.76 12.2562 272.151 12.402C272.542 12.5412 272.959 12.6605 273.404 12.7599L275.233 13.1974C276.121 13.3963 276.937 13.6615 277.679 13.9929C278.422 14.3243 279.065 14.732 279.608 15.2159C280.152 15.6998 280.573 16.2699 280.871 16.9261C281.176 17.5824 281.332 18.3348 281.338 19.1832C281.332 20.4295 281.013 21.5099 280.384 22.4247C279.761 23.3329 278.859 24.0388 277.679 24.5426C276.506 25.0398 275.091 25.2884 273.433 25.2884C271.789 25.2884 270.358 25.0365 269.138 24.5327C267.925 24.0289 266.977 23.2831 266.294 22.2955C265.618 21.3011 265.263 20.0715 265.23 18.6065H269.396C269.443 19.2893 269.638 19.8594 269.983 20.3168C270.334 20.7675 270.802 21.1089 271.385 21.3409C271.975 21.5663 272.641 21.679 273.384 21.679C274.113 21.679 274.746 21.5729 275.283 21.3608C275.826 21.1487 276.247 20.8537 276.546 20.4759C276.844 20.098 276.993 19.6638 276.993 19.1733C276.993 18.7159 276.857 18.3314 276.585 18.0199C276.32 17.7083 275.929 17.4432 275.412 17.2244C274.902 17.0057 274.275 16.8068 273.533 16.6278L271.316 16.071C269.599 15.6534 268.243 15.0005 267.249 14.1122C266.254 13.224 265.761 12.0275 265.767 10.5227C265.761 9.28977 266.089 8.21259 266.752 7.29119C267.421 6.36979 268.339 5.65057 269.506 5.13352C270.673 4.61648 271.998 4.35795 273.483 4.35795C274.994 4.35795 276.314 4.61648 277.441 5.13352C278.574 5.65057 279.456 6.36979 280.085 7.29119C280.715 8.21259 281.04 9.27983 281.06 10.4929H276.933ZM289.51 16.1705V25H285.275V4.63636H289.391V12.4219H289.57C289.915 11.5204 290.472 10.8144 291.241 10.304C292.009 9.78693 292.974 9.52841 294.134 9.52841C295.195 9.52841 296.119 9.76042 296.908 10.2244C297.704 10.6818 298.32 11.3414 298.758 12.2031C299.202 13.0582 299.42 14.0824 299.414 15.2756V25H295.178V16.0312C295.185 15.09 294.946 14.3575 294.462 13.8338C293.985 13.3101 293.315 13.0483 292.454 13.0483C291.877 13.0483 291.366 13.1709 290.922 13.4162C290.485 13.6615 290.14 14.0194 289.888 14.4901C289.643 14.9541 289.517 15.5142 289.51 16.1705ZM310.768 25.2983C309.223 25.2983 307.888 24.9702 306.761 24.3139C305.64 23.651 304.775 22.7296 304.166 21.5497C303.556 20.3632 303.251 18.9877 303.251 17.4233C303.251 15.8456 303.556 14.4669 304.166 13.2869C304.775 12.1004 305.64 11.179 306.761 10.5227C307.888 9.85985 309.223 9.52841 310.768 9.52841C312.312 9.52841 313.645 9.85985 314.765 10.5227C315.892 11.179 316.76 12.1004 317.37 13.2869C317.98 14.4669 318.285 15.8456 318.285 17.4233C318.285 18.9877 317.98 20.3632 317.37 21.5497C316.76 22.7296 315.892 23.651 314.765 24.3139C313.645 24.9702 312.312 25.2983 310.768 25.2983ZM310.788 22.017C311.49 22.017 312.077 21.8182 312.548 21.4205C313.018 21.0161 313.373 20.4659 313.612 19.7699C313.857 19.0739 313.979 18.2817 313.979 17.3935C313.979 16.5052 313.857 15.7131 313.612 15.017C313.373 14.321 313.018 13.7708 312.548 13.3665C312.077 12.9621 311.49 12.7599 310.788 12.7599C310.078 12.7599 309.482 12.9621 308.998 13.3665C308.521 13.7708 308.159 14.321 307.914 15.017C307.676 15.7131 307.556 16.5052 307.556 17.3935C307.556 18.2817 307.676 19.0739 307.914 19.7699C308.159 20.4659 308.521 21.0161 308.998 21.4205C309.482 21.8182 310.078 22.017 310.788 22.017ZM324.789 25L320.633 9.72727H324.918L327.285 19.9886H327.424L329.89 9.72727H334.096L336.602 19.929H336.731L339.058 9.72727H343.333L339.187 25H334.702L332.077 15.3949H331.889L329.264 25H324.789ZM362.886 1.564H366.078V15.312C366.078 16.768 365.77 17.58 364.818 18.084C363.866 18.56 362.634 18.644 360.842 18.644C360.702 17.804 360.142 16.46 359.694 15.676C360.814 15.732 362.018 15.732 362.382 15.704C362.746 15.676 362.886 15.592 362.886 15.228V1.564ZM366.722 5.904L369.522 5.064C370.782 7.556 372.014 10.804 372.434 12.876L369.41 13.856C369.074 11.812 367.926 8.452 366.722 5.904ZM350.174 1.648H353.282V11C353.282 16.712 352.75 22.816 348.018 27.212C347.514 26.484 346.422 25.308 345.722 24.776C349.698 21.024 350.174 15.816 350.174 11V1.648ZM347.01 7.136L349.39 7.444C349.446 10.104 349.054 13.156 348.046 15.088L345.694 14.08C346.59 12.456 346.982 9.572 347.01 7.136ZM354.906 6.016L357.874 7.192C356.81 9.18 355.718 11.476 354.85 12.932L352.75 11.896C353.506 10.3 354.43 7.808 354.906 6.016ZM352.666 16.628C353.562 17.468 356.502 21.024 357.202 21.864L354.878 24.216C353.898 22.508 351.686 19.568 350.566 18.168L352.666 16.628ZM359.246 5.288L362.326 5.82C361.682 9.124 360.478 12.288 358.994 14.304C358.35 13.828 357.006 13.072 356.25 12.736C357.762 10.944 358.742 8.144 359.246 5.288ZM367.982 14.416L371.174 15.284C369.158 22.004 365.21 25.56 358.49 27.716C358.098 26.736 357.258 25.504 356.502 24.72C362.55 23.208 366.246 20.128 367.982 14.416ZM376.606 2.768H387.05V5.036H376.606V2.768ZM388.478 4.84H397.018V7.78H388.478V4.84ZM375.654 6.38H387.862V8.704H375.654V6.38ZM380.33 1.284H383.326V7.584H380.33V1.284ZM380.33 12.12H383.326V18.924H380.33V12.12ZM376.242 13.66H387.134V16.04H376.242V13.66ZM375.402 18.084C378.538 17.888 383.298 17.496 387.806 17.076L387.834 19.596C383.466 20.044 378.93 20.492 375.626 20.8L375.402 18.084ZM382.402 7.864H384.782V9.88C384.782 10.384 384.81 10.412 385.118 10.412C385.23 10.412 385.622 10.412 385.762 10.412C386.07 10.412 386.154 10.272 386.238 9.124C386.658 9.488 387.61 9.796 388.254 9.936C388.03 11.924 387.414 12.456 386.098 12.456C385.734 12.456 385.062 12.456 384.698 12.456C382.794 12.456 382.402 11.868 382.402 9.88V7.864ZM390.998 1.228H393.994C393.91 10.496 393.658 17.104 389.01 20.996C388.59 20.296 387.694 19.26 386.994 18.812C390.97 15.396 390.914 9.656 390.998 1.228ZM387.918 11.868L389.262 9.376C391.418 10.636 394.358 12.568 395.73 13.912L394.302 16.768C392.986 15.312 390.102 13.24 387.918 11.868ZM395.422 4.84H398.446V16.516C398.446 17.16 398.446 17.524 398.502 17.636C398.558 17.748 398.642 17.776 398.754 17.776C398.838 17.776 398.978 17.776 399.062 17.776C399.202 17.776 399.314 17.748 399.37 17.636C399.482 17.524 399.51 17.272 399.538 16.768C399.594 16.236 399.622 15.088 399.622 13.632C400.154 14.108 401.022 14.528 401.722 14.752C401.694 16.18 401.554 17.916 401.414 18.588C401.274 19.26 400.994 19.708 400.602 19.988C400.21 20.296 399.65 20.436 399.09 20.436C398.698 20.436 398.194 20.436 397.83 20.436C397.214 20.436 396.514 20.212 396.038 19.736C395.59 19.26 395.422 18.672 395.422 16.6V4.84ZM383.298 22.284L386.434 21.976C386.798 23.572 387.078 25.616 387.106 26.876L383.746 27.296C383.746 26.008 383.578 23.908 383.298 22.284ZM388.898 22.256L392.062 21.752C392.734 23.292 393.378 25.336 393.602 26.624L390.242 27.24C390.074 25.952 389.514 23.852 388.898 22.256ZM394.498 22.2L397.746 21.22C398.95 22.816 400.49 25 401.19 26.456L397.746 27.576C397.13 26.148 395.73 23.852 394.498 22.2ZM378.398 21.332L381.674 22.172C380.946 24.104 379.658 26.204 378.342 27.52L375.122 26.232C376.382 25.14 377.67 23.208 378.398 21.332ZM378.538 8.004H381.086C380.862 10.72 379.994 12.344 376.41 13.184C376.186 12.596 375.542 11.672 375.038 11.224C377.81 10.692 378.398 9.796 378.538 8.004ZM410.206 3.636H429.33V6.156H410.206V3.636ZM410.458 7.22H426.922V9.656H410.458V7.22ZM407.238 10.776H423.422V13.324H407.238V10.776ZM405.418 18.112H422.078V20.66H405.418V18.112ZM409.982 1.2L413.566 2.124C412.054 6.044 409.534 9.712 406.986 12.008C406.258 11.392 404.69 10.356 403.822 9.88C406.482 7.92 408.778 4.644 409.982 1.2ZM422.386 10.776H425.774C425.746 17.916 426.166 24.132 427.734 24.132C428.126 24.132 428.266 22.592 428.294 20.184C428.938 20.996 429.778 21.864 430.45 22.312C430.226 25.896 429.582 27.464 427.482 27.464C422.946 27.464 422.498 19.932 422.386 10.776ZM406.958 15.088L409.478 14.08C410.262 15.088 411.074 16.404 411.382 17.356L408.694 18.42C408.442 17.496 407.714 16.096 406.958 15.088ZM413.622 22.06L415.722 20.296C417.766 21.444 420.622 23.208 422.078 24.412L419.838 26.4C418.522 25.168 415.722 23.32 413.622 22.06ZM412.362 13.884H415.526V27.464H412.362V13.884ZM418.298 13.996L421.266 14.92C420.258 16.18 419.25 17.468 418.494 18.336L416.338 17.524C417.038 16.544 417.85 15.032 418.298 13.996ZM411.69 19.232L414.182 20.156C412.446 22.984 409.45 25.7 406.566 27.156C406.09 26.428 405.138 25.252 404.466 24.692C407.21 23.6 410.178 21.416 411.69 19.232ZM439.298 3.496H458.562V5.988H439.298V3.496ZM439.662 6.968H456.098V9.376H439.662V6.968ZM436.358 10.384H452.626V12.932H436.358V10.384ZM436.918 18.392H446.802V20.856H436.918V18.392ZM440.894 13.912H446.774V16.264H440.894V13.912ZM439.018 1.2L442.518 2.068C441.09 5.96 438.71 9.684 436.246 11.98C435.574 11.392 434.034 10.356 433.166 9.908C435.686 7.92 437.842 4.616 439.018 1.2ZM438.178 14.136L441.09 14.864C439.942 17.356 437.87 19.624 435.77 21.024C435.238 20.492 434.062 19.512 433.39 19.092C435.462 17.944 437.254 16.124 438.178 14.136ZM451.562 10.384H454.95C454.922 17.748 455.286 24.188 456.882 24.16C457.274 24.16 457.442 22.592 457.47 20.184C458.086 20.968 458.926 21.808 459.598 22.312C459.374 25.952 458.73 27.52 456.63 27.52C452.094 27.52 451.646 19.792 451.562 10.384ZM445.766 18.392H448.734C448.734 18.392 448.734 19.092 448.734 19.428C448.594 23.88 448.398 25.784 447.81 26.512C447.334 27.128 446.802 27.352 446.046 27.436C445.402 27.52 444.282 27.548 443.134 27.492C443.05 26.652 442.77 25.532 442.35 24.832C443.274 24.916 444.086 24.944 444.478 24.916C444.842 24.944 445.066 24.916 445.262 24.664C445.57 24.272 445.654 22.816 445.766 18.784V18.392ZM439.942 19.232H442.966C442.574 23.376 441.51 26.092 436.246 27.576C435.966 26.82 435.21 25.672 434.594 25.084C438.906 24.076 439.634 22.2 439.942 19.232ZM444.786 13.912H447.81C448.566 15.984 450.358 17.804 452.458 18.728C451.758 19.204 450.694 20.212 450.218 20.856C448.034 19.54 446.158 17.496 445.318 15.284H444.786V13.912ZM474.046 17.804L473.318 8.228L473.178 4.056H477.798L477.658 8.228L476.93 17.804H474.046ZM475.502 25.28C474.046 25.28 473.01 24.244 473.01 22.788C473.01 21.332 474.074 20.324 475.502 20.324C476.902 20.324 477.966 21.332 477.966 22.788C477.966 24.244 476.902 25.28 475.502 25.28ZM103.698 45.496H126.042V48.464H103.698V45.496ZM102.13 51.908H127.33V54.904H102.13V51.908ZM107.786 61.288H121.758V63.808H107.786V61.288ZM107.786 65.824H121.758V68.596H107.786V65.824ZM112.882 43.228H116.41V47.26H112.882V43.228ZM106.106 56.584H123.858V69.492H120.302V59.356H109.466V69.52H106.106V56.584ZM119.042 47.904L122.794 48.716C122.094 50.144 121.422 51.544 120.89 52.496L117.67 51.74C118.174 50.648 118.762 49.052 119.042 47.904ZM107.254 48.688L110.558 48.044C111.286 49.164 111.874 50.704 112.07 51.712L108.57 52.524C108.43 51.46 107.87 49.836 107.254 48.688ZM131.362 59.188H156.366V62.1H131.362V59.188ZM142.086 57.004H145.502V69.492H142.086V57.004ZM141.05 60.448L143.794 61.652C141.246 64.956 136.99 67.812 132.846 69.296C132.342 68.456 131.334 67.168 130.606 66.496C134.638 65.348 138.894 63.024 141.05 60.448ZM146.51 60.532C148.722 62.968 153.006 65.18 157.094 66.244C156.366 66.916 155.33 68.232 154.854 69.072C150.71 67.672 146.398 64.928 143.738 61.82L146.51 60.532ZM142.366 52.804V54.904H145.194V52.804H142.366ZM142.366 48.38V50.452H145.194V48.38H142.366ZM139.566 45.86H148.106V57.424H139.566V45.86ZM142.506 43.2L145.894 43.592C145.362 45.048 144.83 46.476 144.382 47.456L141.722 46.98C142.03 45.86 142.366 44.32 142.506 43.2ZM131.11 49.472L132.426 47.204C133.854 48.212 135.674 49.696 136.486 50.704L135.086 53.28C134.302 52.16 132.51 50.564 131.11 49.472ZM136.486 53L138.558 52.356C139.23 54.036 139.874 56.22 140.042 57.564L137.83 58.376C137.69 56.976 137.102 54.708 136.486 53ZM136.878 47.316L139.398 48.324C137.83 51.096 135.842 54.316 134.19 56.388L132.118 55.38C133.742 53.28 135.758 49.864 136.878 47.316ZM134.638 43.424L137.242 44.348C136.318 46.252 135.282 48.352 134.414 49.752L132.258 48.856C133.07 47.4 134.106 45.104 134.638 43.424ZM131.054 55.1C132.986 54.988 135.702 54.792 138.558 54.568L138.586 56.864C136.01 57.256 133.49 57.564 131.362 57.872L131.054 55.1ZM147.378 49.192L148.89 47.064C150.346 48.268 152.166 49.976 152.978 51.124L151.382 53.56C150.626 52.3 148.834 50.48 147.378 49.192ZM152.894 52.888L155.078 52.104C155.862 53.868 156.646 56.192 156.898 57.62L154.546 58.572C154.322 57.088 153.622 54.708 152.894 52.888ZM153.258 47.372L155.806 48.408C154.21 51.18 152.138 54.4 150.458 56.472L148.386 55.492C150.038 53.364 152.11 49.92 153.258 47.372ZM151.13 43.396L153.762 44.32C152.782 46.252 151.718 48.324 150.822 49.696L148.666 48.828C149.506 47.372 150.598 45.076 151.13 43.396ZM147.574 55.044C149.562 54.96 152.334 54.792 155.218 54.624V56.976C152.642 57.284 150.066 57.564 147.938 57.816L147.574 55.044ZM166.11 68.932C164.402 66.86 162.022 64.452 160.062 62.772L163.002 60.252C164.99 61.876 167.678 64.62 169.106 66.356L166.11 68.932ZM203.686 48.24H215.222V51.404H203.686V48.24ZM188.958 48.38H201.782V51.516H188.958V48.38ZM204.302 43.2L207.69 43.732C206.682 49.248 204.89 54.316 202.258 57.508C201.698 56.92 200.27 55.772 199.458 55.268C201.95 52.552 203.518 48.016 204.302 43.2ZM210.238 50.228L213.57 50.592C212.114 60.196 208.866 66.076 201.446 69.492C201.138 68.736 200.186 67.196 199.598 66.524C206.374 63.808 209.174 58.628 210.238 50.228ZM205.506 50.704C206.822 58.04 209.65 64.032 215.558 66.636C214.774 67.28 213.738 68.624 213.262 69.52C206.878 66.328 204.078 59.86 202.482 51.208L205.506 50.704ZM193.802 43.228H197.19V57.396H193.802V43.228ZM190.106 55.828H193.214V68.288H190.106V55.828ZM192.01 55.828H200.858V66.636H192.01V63.528H197.666V58.964H192.01V55.828ZM229.39 43.228H232.806V66.328C232.806 67.98 232.386 68.652 231.322 69.128C230.23 69.548 228.718 69.604 226.338 69.604C226.17 68.82 225.638 67.644 225.218 66.972C226.562 67.028 228.214 67 228.69 67C229.222 66.972 229.39 66.804 229.39 66.328V43.228ZM218.89 45.048H243.53V47.708H218.89V45.048ZM224.966 50.956V52.3H237.342V50.956H224.966ZM221.774 48.828H240.786V54.428H221.774V48.828ZM221.074 55.66H241.262V66.608H237.846V57.956H221.074V55.66ZM218.246 59.132H244.174V61.68H218.246V59.132ZM220.85 62.996H239.666V65.432H220.85V62.996ZM253.47 68.932C251.762 66.86 249.382 64.452 247.422 62.772L250.362 60.252C252.35 61.876 255.038 64.62 256.466 66.356L253.47 68.932ZM278.782 45.664H285.39V62.184H278.782V59.104H282.282V48.744H278.782V45.664ZM277.298 45.664H280.35V64.676H277.298V45.664ZM287.994 61.092H299.194V63.836H287.994V61.092ZM287.994 65.684H299.194V68.512H287.994V65.684ZM286.454 56.556H301.462V69.352H298.018V59.384H289.786V69.492H286.454V56.556ZM290.486 50.816V52.496H297.15V50.816H290.486ZM290.486 46.756V48.408H297.15V46.756H290.486ZM287.266 44.208H300.566V55.072H287.266V44.208ZM307.902 45.664H314.51V62.184H307.902V59.104H311.402V48.744H307.902V45.664ZM306.418 45.664H309.47V64.676H306.418V45.664ZM317.114 61.092H328.314V63.836H317.114V61.092ZM317.114 65.684H328.314V68.512H317.114V65.684ZM315.574 56.556H330.582V69.352H327.138V59.384H318.906V69.492H315.574V56.556ZM319.606 50.816V52.496H326.27V50.816H319.606ZM319.606 46.756V48.408H326.27V46.756H319.606ZM316.386 44.208H329.686V55.072H316.386V44.208ZM335.818 55.548H338.142V65.768H335.818V55.548ZM338.59 47.372V51.012H341.586V47.372H338.59ZM335.902 44.572H344.414V53.784H335.902V44.572ZM339.234 52.832H341.95V65.544H339.234V52.832ZM334.418 64.928C337.05 64.368 341.082 63.388 344.862 62.408L345.254 65.236C341.754 66.216 338.002 67.224 335.118 68.008L334.418 64.928ZM340.746 56.472H344.554V59.384H340.746V56.472ZM352.786 43.2H355.922V64.732C355.922 65.992 356.006 66.16 356.454 66.16C356.65 66.16 357.518 66.16 357.742 66.16C358.19 66.16 358.302 65.46 358.386 63.08C359.086 63.612 360.262 64.172 361.13 64.368C360.822 67.812 360.066 69.156 358.022 69.156C357.518 69.156 356.314 69.156 355.838 69.156C353.43 69.156 352.786 68.204 352.786 64.732V43.2ZM344.134 48.184L346.738 47.036C347.858 48.884 348.838 51.32 349.202 52.972L346.402 54.232C346.094 52.58 345.142 50.06 344.134 48.184ZM343.378 59.412C344.75 58.768 346.794 57.592 348.81 56.416L349.622 58.824C348.166 60.084 346.598 61.344 345.198 62.492L343.378 59.412ZM357.714 46.756L360.822 48.268C359.674 50.312 358.498 52.692 357.49 54.176L355.138 52.944C356.034 51.264 357.126 48.688 357.714 46.756ZM354.382 57.676L356.454 55.576C357.994 56.78 360.15 58.572 361.158 59.72L358.946 62.1C358.022 60.896 355.95 59.02 354.382 57.676ZM348.278 43.2H351.33V55.156C351.33 60.476 350.63 66.384 346.01 69.548C345.562 68.876 344.554 67.7 343.854 67.112C348.026 64.788 348.278 59.468 348.278 55.156V43.2ZM364.938 55.548H367.262V65.768H364.938V55.548ZM367.71 47.372V51.012H370.706V47.372H367.71ZM365.022 44.572H373.534V53.784H365.022V44.572ZM368.354 52.832H371.07V65.544H368.354V52.832ZM363.538 64.928C366.17 64.368 370.202 63.388 373.982 62.408L374.374 65.236C370.874 66.216 367.122 67.224 364.238 68.008L363.538 64.928ZM369.866 56.472H373.674V59.384H369.866V56.472ZM381.906 43.2H385.042V64.732C385.042 65.992 385.126 66.16 385.574 66.16C385.77 66.16 386.638 66.16 386.862 66.16C387.31 66.16 387.422 65.46 387.506 63.08C388.206 63.612 389.382 64.172 390.25 64.368C389.942 67.812 389.186 69.156 387.142 69.156C386.638 69.156 385.434 69.156 384.958 69.156C382.55 69.156 381.906 68.204 381.906 64.732V43.2ZM373.254 48.184L375.858 47.036C376.978 48.884 377.958 51.32 378.322 52.972L375.522 54.232C375.214 52.58 374.262 50.06 373.254 48.184ZM372.498 59.412C373.87 58.768 375.914 57.592 377.93 56.416L378.742 58.824C377.286 60.084 375.718 61.344 374.318 62.492L372.498 59.412ZM386.834 46.756L389.942 48.268C388.794 50.312 387.618 52.692 386.61 54.176L384.258 52.944C385.154 51.264 386.246 48.688 386.834 46.756ZM383.502 57.676L385.574 55.576C387.114 56.78 389.27 58.572 390.278 59.72L388.066 62.1C387.142 60.896 385.07 59.02 383.502 57.676ZM377.398 43.2H380.45V55.156C380.45 60.476 379.75 66.384 375.13 69.548C374.682 68.876 373.674 67.7 372.974 67.112C377.146 64.788 377.398 59.468 377.398 55.156V43.2ZM6.78953 91.444V92.62H18.6895V91.444H6.78953ZM6.78953 88.28V89.428H18.6895V88.28H6.78953ZM3.56952 86.124H22.0495V94.776H3.56952V86.124ZM0.265525 95.784H25.2975V98.472H0.265525V95.784ZM13.0895 99.508H22.2455V102.084H13.0895V99.508ZM4.54952 99.592H10.9335V101.916H4.54952V99.592ZM4.54952 103.092H10.9335V105.416H4.54952V103.092ZM16.5335 101.832C18.1015 105.248 21.4055 107.824 25.9135 108.888C25.2135 109.476 24.3455 110.708 23.9255 111.492C19.0815 110.092 15.7495 106.956 13.8455 102.588L16.5335 101.832ZM21.2655 99.508H21.8535L22.4135 99.396L24.4855 100.18C22.8335 106.032 18.8855 109.616 13.9015 111.492C13.5375 110.708 12.6975 109.504 12.0815 108.888C16.4215 107.516 20.0335 104.296 21.2655 99.984V99.508ZM0.0135246 107.18C2.81352 107.012 6.92953 106.704 10.8495 106.368V109.084C7.09752 109.448 3.17752 109.812 0.237525 110.064L0.0135246 107.18ZM9.19753 96.652H12.4175V111.52H9.19753V96.652ZM2.44952 96.736H5.52952V108.16H2.44952V96.736ZM29.7775 97.52H54.1375V99.76H29.7775V97.52ZM34.3975 86.992H39.6895V88.532H34.3975V86.992ZM34.3415 91.836H39.7735V93.376H34.3415V91.836ZM34.4815 89.428H39.6055V90.94H34.4815V89.428ZM29.4135 108.58H54.4175V111.016H29.4135V108.58ZM35.9095 102.644V104.24H48.2295V102.644H35.9095ZM32.7735 100.684H51.5615V106.228H32.7735V100.684ZM35.1815 106.284L38.1495 105.556C38.7375 106.452 39.3255 107.684 39.5215 108.524L36.4415 109.392C36.2735 108.524 35.7135 107.236 35.1815 106.284ZM46.0455 105.444L49.1815 106.284C48.5095 107.488 47.8655 108.58 47.3055 109.364L44.5615 108.608C45.0655 107.712 45.7375 106.396 46.0455 105.444ZM36.0215 85.62H37.9815V95.224H36.0215V85.62ZM43.9735 86.992H49.3215V88.532H43.9735V86.992ZM43.9175 91.836H49.3775V93.376H43.9175V91.836ZM44.0855 89.428H49.2095V90.94H44.0855V89.428ZM45.6815 85.62H47.6415V95.224H45.6815V85.62ZM40.3895 85.2H43.3015V95.42H40.3895V85.2ZM30.8695 85.984H33.6975V94.328H50.0215V85.984H52.9615V96.568H30.8695V85.984ZM69.2575 102.028H72.5615V109.224H69.2575V102.028ZM63.4055 90.912H78.6375V93.152H63.4055V90.912ZM66.0095 96.428V97.884H75.9775V96.428H66.0095ZM62.9295 94.244H79.2535V100.068H62.9295V94.244ZM61.0255 101.104H81.1575V111.436H77.8535V103.54H64.1895V111.492H61.0255V101.104ZM62.7335 104.884H79.3095V106.984H62.7335V104.884ZM62.7335 108.44H79.2815V110.848H62.7335V108.44ZM69.2295 85.228H72.7015V89.008H69.2295V85.228ZM59.0655 86.824H83.0895V92.984H79.7575V89.652H62.2575V92.984H59.0655V86.824ZM90.1735 89.764H98.7695V108.636H90.1735V105.668H95.7175V92.704H90.1735V89.764ZM88.2135 89.764H91.2655V110.708H88.2135V89.764ZM90.0335 97.24H97.2015V100.152H90.0335V97.24ZM92.1895 85.2L95.8575 85.732C95.2135 87.636 94.5135 89.624 93.9535 90.94L91.2655 90.352C91.6575 88.896 92.0495 86.74 92.1895 85.2ZM102.466 89.568H110.642V92.62H102.466V89.568ZM109.494 89.568H112.602C112.602 89.568 112.602 90.66 112.574 91.08C112.21 103.68 111.874 108.132 110.726 109.616C109.942 110.708 109.158 111.016 108.01 111.184C106.946 111.352 105.238 111.324 103.614 111.24C103.558 110.316 103.11 108.888 102.494 107.992C104.314 108.132 105.994 108.16 106.694 108.16C107.254 108.16 107.562 108.048 107.926 107.656C108.822 106.704 109.186 101.888 109.494 90.212V89.568ZM102.55 85.228L105.77 85.984C104.678 90.128 102.858 94.384 100.954 97.072C100.338 96.512 98.9655 95.56 98.1815 95.112C100.058 92.76 101.654 88.952 102.55 85.228ZM101.178 97.632L103.81 96.148C105.182 98.08 107.03 100.768 107.898 102.42L105.042 104.156C104.286 102.448 102.522 99.704 101.178 97.632ZM117.866 87.076H140.798V89.932H117.866V87.076ZM119.154 91.36H139.706V94.048H119.154V91.36ZM116.83 95.588H141.694V98.444H116.83V95.588ZM127.498 85.228H130.914V97.996H127.498V85.228ZM127.526 96.652L130.438 98.024C127.442 101.244 122.486 104.072 117.922 105.5C117.418 104.688 116.466 103.456 115.766 102.756C120.19 101.608 125.062 99.2 127.526 96.652ZM132.37 97.184C133.826 102.756 136.934 106.816 142.702 108.468C141.946 109.14 140.994 110.54 140.518 111.464C134.246 109.28 131.138 104.632 129.318 97.772L132.37 97.184ZM138.838 98.864L141.61 100.964C139.51 102.476 136.99 104.016 135.058 104.968L132.93 103.176C134.806 102.084 137.326 100.292 138.838 98.864ZM118.734 108.356C122.122 107.768 127.274 106.704 132.062 105.668L132.37 108.692C127.974 109.7 123.214 110.736 119.742 111.492L118.734 108.356ZM122.57 102.672L124.782 100.46L125.93 100.768V108.832H122.57V102.672ZM153.398 87.44H171.206V92.62H168.014V90.156H156.45V92.62H153.398V87.44ZM160.37 85.228H163.786V89.652H160.37V85.228ZM160.454 93.572H163.674V104.548H160.454V93.572ZM163.17 107.488L165.774 105.78C167.65 106.872 170.282 108.524 171.654 109.644L168.91 111.548C167.706 110.428 165.102 108.664 163.17 107.488ZM158.046 106.088L161.266 107.292C159.558 108.972 156.842 110.68 154.602 111.688C154.042 111.044 152.782 109.812 152.054 109.252C154.266 108.552 156.674 107.32 158.046 106.088ZM157.542 102.168V103.652H166.838V102.168H157.542ZM157.542 98.36V99.844H166.838V98.36H157.542ZM154.574 95.896H169.946V106.116H154.574V95.896ZM155.61 91.864H168.91V94.524H155.61V91.864ZM146.622 87.832L148.47 85.312C150.15 85.956 152.334 87.104 153.426 88L151.466 90.8C150.458 89.82 148.302 88.56 146.622 87.832ZM145.166 95.42L147.014 92.872C148.666 93.46 150.85 94.552 151.942 95.42L149.982 98.22C148.974 97.324 146.874 96.12 145.166 95.42ZM145.894 109.196C147.21 107.04 149.058 103.484 150.486 100.18L153.146 102.168C151.886 105.192 150.346 108.468 148.89 111.212L145.894 109.196ZM178.934 112.864L178.038 110.624C180.39 109.868 181.678 108.496 181.678 106.9L181.482 104.128L183.022 106.648C182.574 107.068 181.986 107.264 181.37 107.264C179.97 107.264 178.682 106.368 178.682 104.744C178.682 103.176 179.942 102.224 181.454 102.224C183.414 102.224 184.478 103.736 184.478 106.088C184.478 109.252 182.406 111.828 178.934 112.864ZM204.89 88.196H214.578V91.08H204.89V88.196ZM208.25 107.292H215.278V110.008H208.25V107.292ZM208.25 102.812H215.362V105.36H208.25V102.812ZM203.686 93.376H218.022V96.288H203.686V93.376ZM208.586 85.452H211.694V95.308H208.586V85.452ZM215.95 86.46L218.974 87.328C216.118 94.664 211.218 100.348 204.89 103.764C204.526 103.036 203.546 101.636 202.958 100.964C208.978 98.108 213.514 93.068 215.95 86.46ZM209.314 98.36H215.222V101.048H209.314V111.464H206.29V100.292L208.11 98.36H209.314ZM213.878 98.36H217.07V111.072H213.878V98.36ZM218.918 86.796H227.15V89.932H222.222V111.492H218.918V86.796ZM226.366 86.796H227.01L227.514 86.656L229.95 88.168C228.97 90.856 227.71 94.048 226.59 96.54C228.942 99.032 229.446 101.244 229.446 103.092C229.446 105.192 228.97 106.564 227.878 107.292C227.318 107.684 226.646 107.936 225.89 108.02C225.218 108.104 224.322 108.132 223.454 108.076C223.426 107.18 223.09 105.724 222.558 104.828C223.286 104.884 223.846 104.912 224.35 104.884C224.77 104.884 225.19 104.8 225.498 104.632C226.03 104.324 226.226 103.68 226.226 102.728C226.226 101.188 225.582 99.116 223.286 96.96C224.434 94.216 225.75 89.96 226.366 87.944V86.796ZM233.31 89.12H258.286V92.34H233.31V89.12ZM242.438 98.192H257.11V101.3H242.438V98.192ZM241.346 107.712H258.174V110.82H241.346V107.712ZM248.15 93.544H251.538V109.364H248.15V93.544ZM242.13 85.2L245.63 86.04C243.558 92.788 240.03 99.592 234.038 103.68C233.702 102.728 232.918 101.244 232.414 100.432C237.482 97.128 240.674 90.856 242.13 85.2ZM236.53 96.932H239.918V111.464H236.53V96.932ZM262.402 96.344H287.49V99.676H262.402V96.344ZM264.502 89.428H285.446V92.76H264.502V89.428ZM273.07 85.228H276.626V111.52H273.07V85.228ZM272.482 98.276L275.394 99.48C272.706 103.932 268.338 107.992 263.914 110.288C263.354 109.448 262.234 108.104 261.45 107.404C265.762 105.528 270.186 101.888 272.482 98.276ZM277.242 98.304C279.51 101.916 283.934 105.556 288.218 107.404C287.434 108.076 286.314 109.448 285.754 110.344C281.414 108.048 277.13 103.904 274.442 99.48L277.242 98.304ZM291.914 88.728H316.274V92.004H291.914V88.728ZM302.134 85.228H305.662V111.52H302.134V85.228ZM302.526 97.884L305.326 98.948C302.582 103.904 298.074 108.188 293.09 110.484C292.558 109.644 291.466 108.272 290.71 107.6C295.554 105.724 300.174 101.916 302.526 97.884ZM305.522 98.108C307.874 101.972 312.466 105.612 317.282 107.376C316.442 108.104 315.35 109.504 314.79 110.456C309.918 108.216 305.494 103.988 302.75 99.2L305.522 98.108ZM295.302 96.876L297.43 94.748C298.69 95.812 300.51 97.352 301.406 98.304L299.194 100.656C298.354 99.648 296.59 98.024 295.302 96.876ZM296.422 92.172L299.698 92.788C298.662 96.876 296.674 100.376 294.07 102.56C293.51 101.944 292.222 100.852 291.466 100.348C293.93 98.556 295.638 95.588 296.422 92.172ZM308.686 96.988L310.87 94.972C312.606 96.288 315.266 98.276 316.554 99.48L314.23 101.804C313.054 100.544 310.478 98.472 308.686 96.988ZM309.638 92.172L312.886 92.76C312.13 96.12 310.59 99.088 308.714 100.964C308.07 100.432 306.642 99.564 305.858 99.2C307.734 97.604 309.05 95 309.638 92.172ZM320.502 87.832H332.486V90.604H320.502V87.832ZM320.026 94.412H332.71V97.212H320.026V94.412ZM324.87 85.368H328.09V89.736H324.87V85.368ZM324.982 97.128H328.202V111.492H324.982V97.128ZM324.954 100.6L327.278 101.944C326.102 104.968 323.75 108.244 321.454 110.12C321.034 109.336 320.25 108.188 319.578 107.572C321.734 106.144 323.918 103.316 324.954 100.6ZM327.81 102C328.762 102.644 331.842 105.248 332.57 105.892L330.498 108.328C329.518 107.012 327.194 104.52 326.018 103.4L327.81 102ZM321.93 90.94L324.506 90.38C325.01 91.5 325.43 93.04 325.514 94.076L322.826 94.72C322.77 93.712 322.406 92.116 321.93 90.94ZM328.258 90.296L331.254 90.884C330.75 92.256 330.302 93.656 329.91 94.608L327.362 94.048C327.67 92.984 328.09 91.416 328.258 90.296ZM336.462 93.712V95.448H341.838V93.712H336.462ZM336.462 98.08V99.844H341.838V98.08H336.462ZM336.462 89.372V91.108H341.838V89.372H336.462ZM333.466 86.46H344.974V102.756H333.466V86.46ZM339.318 101.888H342.342V107.376C342.342 108.104 342.398 108.188 342.734 108.188C342.846 108.188 343.294 108.188 343.462 108.188C343.854 108.188 343.938 107.852 343.994 104.828C344.582 105.332 345.898 105.836 346.71 106.032C346.458 110.064 345.674 111.072 343.826 111.072C343.35 111.072 342.622 111.072 342.174 111.072C339.794 111.072 339.318 110.12 339.318 107.432V101.888ZM334.978 102.028H338.002C337.694 106.536 336.77 109.728 332.122 111.576C331.814 110.848 330.974 109.7 330.33 109.14C334.166 107.768 334.726 105.444 334.978 102.028ZM320.25 99.312H332.43V102.112H320.25V99.312ZM349.314 97.492H375.186V100.852H349.314V97.492ZM360.514 93.04H364.042V107.628C364.042 109.532 363.594 110.456 362.25 110.988C360.906 111.52 358.946 111.632 356.398 111.604C356.174 110.596 355.502 109.056 354.942 108.132C356.902 108.216 359.058 108.216 359.702 108.216C360.318 108.188 360.514 108.048 360.514 107.572V93.04ZM352.254 86.936H369.894V90.268H352.254V86.936ZM368.802 86.936H369.698L370.454 86.768L373.03 88.7C370.398 91.416 366.534 94.384 363.09 96.204C362.586 95.476 361.55 94.356 360.906 93.768C363.874 92.256 367.374 89.54 368.802 87.72V86.936ZM381.794 93.74V95.84H388.71V93.74H381.794ZM381.794 89.204V91.276H388.71V89.204H381.794ZM379.078 86.544H391.538V98.528H379.078V86.544ZM379.106 100.796H391.566V103.82H379.106V100.796ZM378.182 107.432C381.654 107.124 387.002 106.564 392.042 106.004L392.098 108.944C387.338 109.616 382.242 110.232 378.574 110.708L378.182 107.432ZM392.462 86.544H402.122V89.54H392.462V86.544ZM392.154 95.728H402.57V98.892H392.154V95.728ZM400.61 86.544H401.45L402.15 86.376L404.306 87.86C402.85 90.184 400.666 92.788 398.426 94.384C398.006 93.796 397.11 92.9 396.606 92.48C398.202 91.108 399.882 88.756 400.61 87.16V86.544ZM392.91 92.676L394.982 90.604C397.502 91.696 400.47 93.572 402.122 94.888L400.022 97.24C398.398 95.812 395.402 93.852 392.91 92.676ZM401.562 95.728H402.01L402.514 95.616L404.782 96.092C404.25 98.612 403.55 101.44 402.878 103.26L400.162 102.672C400.638 101.048 401.226 98.332 401.562 96.204V95.728ZM395.85 97.296H399.21V107.908C399.21 109.476 398.93 110.428 397.81 110.96C396.746 111.464 395.234 111.52 393.19 111.52C393.078 110.568 392.63 109.14 392.21 108.216C393.47 108.3 394.898 108.3 395.318 108.272C395.738 108.272 395.85 108.16 395.85 107.796V97.296ZM383.866 87.496H386.666V96.876H386.89V107.32H383.67V96.876H383.866V87.496ZM413.098 85.228H415.842V90.1H413.098V85.228ZM414.218 86.32H420.378V88.308H414.218V86.32ZM412.314 89.148H418.362V91.136H410.718L412.314 89.148ZM417.718 89.148H418.222L418.698 89.064L420.462 89.988C418.278 94.048 413.574 96.344 408.758 97.52C408.45 96.904 407.806 95.952 407.33 95.42C411.642 94.58 416.066 92.536 417.718 89.54V89.148ZM409.626 92.508L411.222 91.164C412.426 91.64 413.994 92.452 414.778 93.096L413.098 94.552C412.37 93.936 410.83 93.04 409.626 92.508ZM411.39 88.588L413.742 89.288C412.538 90.912 410.606 92.48 408.814 93.432C408.394 92.984 407.47 92.172 406.91 91.78C408.674 90.996 410.41 89.848 411.39 88.588ZM421.246 86.208H429.898V88.476H421.246V86.208ZM429.17 86.208H429.73L430.206 86.096L432.082 86.88C430.486 91.248 426.902 93.992 422.786 95.42C422.45 94.748 421.722 93.656 421.162 93.096C424.774 92.088 427.994 89.708 429.17 86.6V86.208ZM420.994 90.632L422.87 88.812C426.202 90.24 430.542 92.62 432.754 94.44L430.71 96.54C428.666 94.72 424.41 92.2 420.994 90.632ZM420.35 95.868C417.83 98.024 413.182 100.152 408.702 101.328C408.422 100.656 407.806 99.62 407.33 99.004C411.922 97.996 416.486 95.98 418.894 93.768H421.554C424.774 96.316 429.394 97.996 433.678 98.724C433.09 99.396 432.474 100.432 432.11 101.16C428.19 100.264 423.15 98.164 420.35 95.868ZM414.358 99.788H428.498V106.48H414.358V104.716H425.334V101.524H414.358V99.788ZM412.678 99.816H415.842V109.56L412.678 109.784V99.816ZM429.114 104.688L431.438 106.144C429.73 107.348 427.77 108.608 426.23 109.392L424.494 108.16C426.006 107.292 427.966 105.78 429.114 104.688ZM421.162 105.472C423.122 107.852 427.546 108.944 433.062 109.196C432.502 109.756 431.83 110.848 431.494 111.576C425.558 111.072 421.19 109.476 418.754 106.144L421.162 105.472ZM414.358 102.336H426.286V103.848H414.358V102.336ZM416.682 97.352H423.99V99.116H416.682V97.352ZM409.402 108.664C412.51 108.44 417.186 108.076 421.666 107.684V110.092C417.438 110.484 412.93 110.904 409.71 111.184L409.402 108.664ZM439.893 86.908H459.437V111.156H455.825V90.296H443.365V111.184H439.893V86.908ZM442.273 96.316H457.337V99.648H442.273V96.316ZM442.245 105.976H457.337V109.364H442.245V105.976ZM477.274 101.804L476.546 92.228L476.406 88.056H481.026L480.886 92.228L480.158 101.804H477.274ZM478.73 109.28C477.274 109.28 476.238 108.244 476.238 106.788C476.238 105.332 477.302 104.324 478.73 104.324C480.13 104.324 481.194 105.332 481.194 106.788C481.194 108.244 480.13 109.28 478.73 109.28Z" fill="black"/>
</svg>
