<svg width="789" height="624" viewBox="0 0 789 624" fill="none" xmlns="http://www.w3.org/2000/svg">
<g filter="url(#filter0_d_747_2828)">
<path d="M722.221 324.466C734.172 308.016 741.394 286.594 741.394 263.272C741.394 211.217 705.543 169.032 661.286 169.032C617.03 169.032 652.356 169.471 648.022 170.348C629.309 116.612 577.764 78.0093 517.091 78.0093C456.419 78.0093 485.574 80.7144 471.259 85.6859C466.925 83.5657 462.395 81.6648 457.798 79.837C432.518 52.8592 396.404 36.0437 356.284 36.0437C292.263 36.0437 238.42 79.0328 222.595 137.375C217.605 136.279 212.483 135.621 207.296 135.621C178.142 135.621 152.665 153.971 138.613 181.315C130.208 176.197 120.622 173.346 110.51 173.346C76.6278 173.346 49.1152 205.661 49.1152 245.579C49.1152 285.498 52.9236 274.165 59.4242 285.571V287.472C35.8514 309.99 20.749 344.352 20.749 382.881C20.749 450.655 67.435 505.634 125.021 505.634C182.607 505.634 131.653 505.415 134.936 505.049C138.416 515.431 144.26 523.546 152.337 527.786C165.535 534.732 181.425 529.541 194.951 516.016C200.992 522.888 208.412 530.199 217.408 537.437C235.728 552.132 257.331 563.83 281.495 572.018C310.649 581.962 343.808 587.006 380.12 587.006C416.431 587.006 449.787 581.962 479.401 572.092C503.893 563.903 525.956 552.425 544.998 537.876C549.529 534.44 553.665 530.93 557.474 527.494C566.601 533.855 577.304 537.583 588.729 537.583C610.595 537.583 629.768 524.131 640.668 503.879C651.109 509.07 662.534 511.995 674.616 511.995C722.549 511.995 761.356 466.3 761.356 409.932C761.356 353.564 745.794 342.816 722.221 324.612V324.466Z" fill="#FFFBD2"/>
</g>
<path d="M171.922 457.112H169.222V463.59H165.087V457.112H155.469V453.732L163.822 438.618H169.137V453.357H171.837V457.112H171.922ZM165.087 453.263V448.194C165.087 446.785 165.172 444.438 165.256 443.03H165.172C164.666 444.345 163.991 445.753 163.4 447.067L159.941 453.263H165.172H165.087Z" fill="#DE5419"/>
<path d="M174.875 460.867C174.875 459.084 176.056 457.582 177.659 457.582C179.262 457.582 180.444 458.99 180.444 460.867C180.444 462.745 179.262 464.153 177.659 464.153C176.056 464.153 174.875 462.745 174.875 460.867Z" fill="#DE5419"/>
<path d="M183.396 460.586L185.506 457.394C186.856 458.802 188.459 459.928 190.484 459.928C192.509 459.928 194.281 458.708 194.281 456.455C194.281 454.202 193.015 452.418 188.037 452.418V448.851C192.171 448.851 193.521 447.255 193.521 445.002C193.521 442.749 192.424 441.904 190.484 441.81C188.881 441.81 187.531 442.655 186.265 444.063L183.987 441.059C185.928 439.181 188.121 437.961 190.737 437.961C195.124 437.961 197.993 440.308 197.993 444.626C197.993 448.945 196.643 449.32 194.196 450.353V450.541C196.727 451.292 198.668 453.451 198.668 456.737C198.668 460.022 195.04 463.965 190.737 463.965C186.434 463.965 184.746 462.463 183.228 460.492L183.396 460.586Z" fill="#DE5419"/>
<path d="M247.268 457.018C246.509 459.459 245.243 462.275 244.231 463.965C243.724 463.496 242.543 462.557 241.868 462.182C242.881 460.586 243.893 458.333 244.568 456.173L247.352 457.018H247.268ZM251.571 455.047V466.312H248.112V455.047H242.459V451.667H248.112V449.038H242.29V445.753H245.243C245.074 444.72 244.737 443.312 244.399 442.279L246.931 441.622H242.796V438.336H248.027C247.774 437.397 247.437 436.459 247.099 435.708L250.727 434.769C251.149 435.895 251.74 437.304 252.077 438.43H256.465V441.716H252.668L255.115 442.279C254.693 443.593 254.187 444.908 253.765 445.94H256.887V449.226H251.656V451.855H256.38V455.234H251.656L251.571 455.047ZM247.184 441.528C247.606 442.655 248.027 444.063 248.196 445.002L246.002 445.659H250.39C250.812 444.438 251.402 442.749 251.656 441.434H247.184V441.528ZM270.302 449.789H267.433V466.406H263.89V449.789H261.021V450.165C261.021 455.141 260.599 462.088 258.068 466.406C257.477 465.655 256.043 464.435 255.284 463.965C255.874 463.026 256.296 461.9 256.634 460.68L254.44 462.182C253.934 460.867 252.921 458.708 252.077 457.112L254.44 455.704C255.284 457.018 256.212 458.896 256.718 460.116C257.562 456.83 257.646 453.169 257.646 450.071V438.055C260.937 437.397 264.649 436.365 266.843 435.144L269.627 438.055C267.096 439.181 263.974 440.026 261.021 440.589V445.94H270.218V449.696L270.302 449.789Z" fill="#DE5419"/>
<path d="M285.658 456.83L286.333 460.398C282.03 462.463 277.389 464.528 273.761 466.124L272.158 461.994C274.268 461.243 277.136 460.21 280.258 458.99V446.973H273.255V442.936H280.258V435.52H284.055V457.488L285.742 456.83H285.658ZM295.53 461.618C296.627 461.618 296.795 460.022 297.049 454.014C297.892 454.765 299.495 455.61 300.508 455.892C300.17 462.933 299.327 465.561 295.867 465.561H292.239C288.864 465.561 287.852 464.153 287.852 459.459V435.52H291.649V442.936H299.58V446.973H291.649V459.553C291.649 461.337 291.817 461.712 292.83 461.712H295.53V461.618Z" fill="#DE5419"/>
<path d="M319.829 448.194C321.854 454.765 325.483 460.116 331.22 462.651C330.292 463.496 329.111 465.28 328.52 466.406C323.036 463.496 319.492 458.614 317.13 452.043C315.526 457.675 312.236 462.933 305.739 466.406C305.148 465.28 304.136 463.871 303.039 463.026C310.042 459.553 312.911 453.92 314.092 448.1H303.63V443.969H314.683C315.02 440.777 314.936 437.679 315.02 434.957H318.986C318.986 437.773 318.986 440.871 318.648 443.969H330.629V448.1H319.914L319.829 448.194Z" fill="#DE5419"/>
<path d="M361.763 438.524C360.666 441.81 359.316 445.565 358.05 448.569C360.666 451.573 361.172 454.296 361.172 456.455C361.172 458.614 360.666 460.68 359.485 461.524C358.978 461.994 358.219 462.276 357.375 462.463C356.7 462.557 355.688 462.557 354.76 462.463C354.76 461.337 354.422 459.647 353.832 458.614C354.591 458.614 355.182 458.708 355.772 458.614C356.194 458.614 356.7 458.52 356.953 458.333C357.544 457.957 357.713 457.112 357.713 456.079C357.713 454.202 357.038 451.761 354.591 449.132C355.435 446.692 356.532 443.312 357.291 440.683H353.41V466.594H349.866V437.585C348.938 440.12 347.925 442.561 346.575 444.814H348.854V448.288H344.297C343.622 449.132 343.032 449.977 342.357 450.728H347.841V466.031H344.382V464.716H339.488V466.406H336.197V456.173C335.691 456.549 335.185 456.924 334.679 457.206C334.257 456.361 333.244 454.671 332.569 453.826C335.269 452.418 337.716 450.541 339.825 448.288H333.329V444.814H338.644V441.998H334.679V438.524H338.644V435.238H342.019V438.524H345.141V440.214C345.732 438.993 346.154 437.773 346.66 436.459L349.866 437.398V436.74H359.147C359.147 436.646 361.763 438.43 361.763 438.43V438.524ZM344.466 453.92H339.572V456.079H344.466V453.92ZM344.466 461.524V459.084H339.572V461.524H344.466ZM342.694 444.72C343.285 443.875 343.791 442.936 344.382 441.904H342.104V444.72H342.694Z" fill="#DE5419"/>
<path d="M380.41 435.895C380.241 436.083 380.072 436.365 379.988 436.553C382.772 439.275 387.75 441.622 392.644 442.655C391.884 443.406 390.872 444.814 390.366 445.753C389.775 445.565 389.1 445.377 388.509 445.189V453.92H367.416V445.377C366.741 445.659 366.15 445.847 365.56 446.034C365.222 445.283 364.21 443.687 363.619 442.936C369.188 441.528 374.588 438.712 377.372 434.769L380.578 435.989L380.41 435.895ZM387.328 444.72C385.894 444.157 384.544 443.406 383.194 442.655V443.5H372.563V442.842C371.382 443.5 370.2 444.157 368.85 444.72H387.328ZM368.935 454.953H386.822V466.406H383.11V465.561H372.478V466.5H368.935V454.953ZM372.394 451.385C372.225 450.353 371.888 448.945 371.382 447.912L373.744 447.161H370.285V451.385H372.394ZM372.563 457.581V458.896H383.194V457.581H372.563ZM383.11 462.933V461.618H372.478V462.933H383.11ZM376.275 447.161H373.913C374.419 448.287 374.925 449.789 375.094 450.728L373.153 451.385H376.275V447.161ZM380.578 440.871C379.65 440.12 378.806 439.463 378.047 438.712C377.288 439.463 376.36 440.214 375.432 440.871H380.578ZM379.144 447.161V451.385H382.013L380.156 450.822C380.578 449.789 381.085 448.287 381.338 447.161H379.144ZM385.219 447.161H382.097L384.46 447.818C383.869 449.132 383.278 450.447 382.772 451.479H385.219V447.255V447.161Z" fill="#DE5419"/>
<path d="M406.059 437.116C403.866 442.655 400.322 448.381 397.031 451.949C396.356 451.104 394.753 449.32 393.825 448.475C397.031 445.471 400.238 440.589 402.094 435.614L406.144 437.022L406.059 437.116ZM414.581 452.7C417.028 456.455 419.812 461.243 421.331 464.341L417.619 466.5C417.197 465.561 416.691 464.435 416.016 463.214C401.334 464.529 399.225 464.716 397.791 465.28C397.538 464.435 396.863 462.182 396.272 460.961C397.285 460.68 398.128 459.741 399.31 458.239C400.575 456.831 404.372 451.01 406.819 445.377L411.037 447.349C408.675 451.949 405.806 456.455 402.853 460.116L413.991 459.271C412.978 457.582 412.05 455.798 411.037 454.296L414.581 452.512V452.7ZM415.172 435.708C416.437 440.402 419.222 445.189 423.019 447.724C422.175 448.569 420.909 450.541 420.319 451.761C416.859 448.851 414.159 444.251 412.472 439.838H407.578V435.708H415.256H415.172Z" fill="#DE5419"/>
<path d="M451.622 436.177V466.5H448.078V465.28H429.094V466.5H425.719V436.177H451.622ZM448.078 461.712V439.838H429.094V461.712H448.078ZM439.894 457.206C439.809 457.957 439.894 459.084 439.894 459.647C434.747 461.055 433.819 461.431 433.312 461.712C433.228 461.149 432.806 460.022 432.469 459.647C432.891 459.365 433.481 459.084 433.481 457.769V456.549C432.637 456.924 431.878 457.206 431.119 457.488C430.781 456.924 429.937 455.798 429.347 455.235C431.287 454.765 433.397 454.108 435.084 453.169H431.625V448.287H445.631V453.169H439.134C438.29 453.92 437.194 454.671 436.097 455.235V458.145L439.894 457.206ZM446.981 447.349H430.106V445.096H436.856V443.781H431.541V441.622H436.856V440.214H440.147V441.622H445.715V443.781H440.147V445.096H446.981V447.349ZM434.662 451.479H442.509V450.071H434.662V451.479ZM447.319 455.141C446.559 455.798 445.631 456.361 444.787 456.924C445.884 457.769 446.812 458.52 447.487 459.271L445.209 460.773C443.69 459.177 440.484 456.643 437.953 454.859L440.147 453.545C440.99 454.108 442.003 454.859 443.015 455.516C443.859 454.859 444.787 454.202 445.294 453.545L447.403 455.141H447.319Z" fill="#DE5419"/>
<path d="M468.159 459.553H472.969V443.687H468.919V440.589C471.197 440.12 472.715 439.463 474.15 438.524H477.44V459.553H481.659V463.59H468.159V459.553Z" fill="#DE5419"/>
<path d="M484.949 451.01C484.949 442.373 487.987 438.148 492.543 438.148C497.099 438.148 500.137 442.373 500.137 451.01C500.137 459.647 497.099 464.059 492.543 464.059C487.987 464.059 484.949 459.553 484.949 451.01ZM495.918 451.01C495.918 443.969 494.483 441.997 492.543 441.997C490.602 441.997 489.168 444.063 489.168 451.01C489.168 457.957 490.602 460.21 492.543 460.21C494.483 460.21 495.918 458.051 495.918 451.01Z" fill="#DE5419"/>
<path d="M503.681 448.006C503.681 446.128 504.862 444.72 506.465 444.72C508.068 444.72 509.249 446.128 509.249 448.006C509.249 449.883 508.068 451.198 506.465 451.198C504.862 451.198 503.681 449.789 503.681 448.006ZM503.681 460.867C503.681 459.084 504.862 457.581 506.465 457.581C508.068 457.581 509.249 458.99 509.249 460.867C509.249 462.745 508.068 464.153 506.465 464.153C504.862 464.153 503.681 462.745 503.681 460.867Z" fill="#DE5419"/>
<path d="M512.202 460.586L514.311 457.394C515.661 458.802 517.264 459.928 519.289 459.928C521.314 459.928 523.086 458.708 523.086 456.455C523.086 454.202 521.821 452.418 516.843 452.418V448.851C520.977 448.851 522.327 447.255 522.327 445.002C522.327 442.749 521.23 441.904 519.289 441.81C517.686 441.81 516.336 442.655 515.071 444.063L512.793 441.059C514.733 439.181 516.927 437.961 519.543 437.961C523.93 437.961 526.799 440.308 526.799 444.626C526.799 448.945 525.449 449.32 523.002 450.353V450.541C525.533 451.292 527.474 453.451 527.474 456.737C527.474 460.022 523.846 463.965 519.543 463.965C515.239 463.965 513.552 462.463 512.033 460.492L512.202 460.586Z" fill="#DE5419"/>
<path d="M530.596 451.01C530.596 442.373 533.633 438.148 538.189 438.148C542.746 438.148 545.783 442.373 545.783 451.01C545.783 459.647 542.746 464.059 538.189 464.059C533.633 464.059 530.596 459.553 530.596 451.01ZM541.649 451.01C541.649 443.969 540.214 441.997 538.274 441.997C536.333 441.997 534.899 444.063 534.899 451.01C534.899 457.957 536.333 460.21 538.274 460.21C540.214 460.21 541.649 458.051 541.649 451.01Z" fill="#DE5419"/>
<path d="M548.736 452.136H557.005V455.704H548.736V452.136Z" fill="#DE5419"/>
<path d="M560.971 459.553H565.78V443.687H561.73V440.589C564.008 440.12 565.527 439.463 566.961 438.524H570.252V459.553H574.471V463.59H560.971V459.553Z" fill="#DE5419"/>
<path d="M577.17 460.68L579.279 457.488C580.545 458.896 582.148 460.022 584.257 460.022C586.367 460.022 588.223 458.333 588.223 455.422C588.223 452.512 586.704 450.916 584.426 450.916C582.148 450.916 582.317 451.292 581.051 452.23L579.026 450.728L579.617 438.618H591.682V442.749H583.498L583.076 448.1C583.92 447.63 584.764 447.349 585.776 447.349C589.573 447.349 592.695 449.883 592.695 455.328C592.695 460.773 588.982 464.153 584.848 464.153C580.714 464.153 578.942 462.557 577.254 460.773L577.17 460.68Z" fill="#DE5419"/>
<path d="M596.407 448.006C596.407 446.128 597.588 444.72 599.192 444.72C600.795 444.72 601.976 446.128 601.976 448.006C601.976 449.883 600.795 451.198 599.192 451.198C597.588 451.198 596.407 449.789 596.407 448.006ZM596.407 460.867C596.407 459.084 597.588 457.581 599.192 457.581C600.795 457.581 601.976 458.99 601.976 460.867C601.976 462.745 600.795 464.153 599.192 464.153C597.588 464.153 596.407 462.745 596.407 460.867Z" fill="#DE5419"/>
<path d="M605.52 451.01C605.52 442.373 608.557 438.148 613.113 438.148C617.669 438.148 620.707 442.373 620.707 451.01C620.707 459.647 617.669 464.059 613.113 464.059C608.557 464.059 605.52 459.553 605.52 451.01ZM616.488 451.01C616.488 443.969 615.054 441.997 613.113 441.997C611.173 441.997 609.738 444.063 609.738 451.01C609.738 457.957 611.173 460.21 613.113 460.21C615.054 460.21 616.488 458.051 616.488 451.01Z" fill="#DE5419"/>
<path d="M623.407 451.01C623.407 442.373 626.445 438.148 631.001 438.148C635.557 438.148 638.595 442.373 638.595 451.01C638.595 459.647 635.557 464.059 631.001 464.059C626.445 464.059 623.407 459.553 623.407 451.01ZM634.46 451.01C634.46 443.969 633.026 441.997 631.085 441.997C629.145 441.997 627.71 444.063 627.71 451.01C627.71 457.957 629.145 460.21 631.085 460.21C633.026 460.21 634.46 458.051 634.46 451.01Z" fill="#DE5419"/>
<path d="M219.424 467.063C227.392 467.063 233.852 459.876 233.852 451.01C233.852 442.144 227.392 434.957 219.424 434.957C211.456 434.957 204.996 442.144 204.996 451.01C204.996 459.876 211.456 467.063 219.424 467.063Z" fill="#DE5419"/>
<path d="M226.258 443.594V457.582H224.318V456.549H215.121V457.675H213.265V443.594H226.343H226.258ZM224.233 454.577V452.7C223.98 452.7 223.727 452.7 223.474 452.7H222.124C220.69 452.7 220.352 451.855 220.352 450.071V445.565H218.833C218.833 449.79 218.411 452.324 215.965 453.732C215.796 453.263 215.29 452.512 214.952 452.137V454.484H224.149L224.233 454.577ZM215.037 445.565V452.137C216.893 450.916 217.061 449.039 217.061 445.565H215.037ZM224.233 445.565H222.124V450.165C222.124 450.728 222.124 451.01 222.461 451.01H223.474C223.727 451.01 224.065 451.01 224.318 451.01V445.659L224.233 445.565Z" fill="white"/>
<g clip-path="url(#clip0_747_2828)">
<path d="M182.988 207.832L183.996 201.485C192.33 194.322 198.687 188.148 203.065 182.98C207.444 177.803 209.948 173.203 210.585 169.172C211.037 166.337 210.733 164.136 209.688 162.57C208.636 161.003 206.932 160.22 204.562 160.22C201.613 160.22 198.272 162.108 194.538 165.892L190.115 159.924C192.99 157.039 195.738 154.92 198.368 153.576C200.998 152.233 203.939 151.565 207.207 151.565C211.903 151.565 215.437 153.123 217.801 156.231C220.171 159.338 220.949 163.46 220.134 168.587C218.801 176.995 211.681 187.2 198.783 199.185C202.154 198.79 204.895 198.592 206.992 198.592H217.727L216.26 207.849H182.988V207.832Z" fill="#E95513"/>
<path d="M251.02 206.077C247.235 211.056 242.752 213.537 237.559 213.537C232.366 213.537 228.662 211.047 226.432 206.077C224.202 201.098 223.824 193.959 225.298 184.653C226.772 175.347 229.388 168.282 233.151 163.46C236.915 158.638 241.397 156.223 246.605 156.223C251.813 156.223 255.532 158.638 257.769 163.46C259.999 168.282 260.377 175.355 258.903 184.653C257.429 193.951 254.799 201.098 251.013 206.077H251.02ZM234.596 184.843C232.469 198.254 233.899 204.956 238.885 204.956C243.871 204.956 247.427 198.254 249.553 184.843C251.68 171.431 250.25 164.729 245.264 164.729C240.278 164.729 236.722 171.431 234.596 184.843Z" fill="#E95513"/>
<path d="M262.007 203.167L263.014 196.82C271.349 189.656 277.705 183.482 282.084 178.314C286.462 173.137 288.966 168.538 289.603 164.507C290.055 161.671 289.751 159.47 288.707 157.904C287.655 156.338 285.951 155.555 283.58 155.555C280.632 155.555 277.29 157.443 273.557 161.226L269.134 155.258C272.008 152.373 274.757 150.255 277.387 148.911C280.017 147.567 282.958 146.9 286.225 146.9C290.922 146.9 294.456 148.458 296.819 151.565C299.19 154.673 299.968 158.794 299.153 163.922C297.819 172.33 290.7 182.534 277.802 194.52C281.172 194.124 283.914 193.926 286.01 193.926H296.745L295.278 203.183H262.007V203.167Z" fill="#E95513"/>
<path d="M315.303 207.948C308.635 207.948 303.45 205.434 299.73 200.405L305.405 193.39C308.258 197.125 311.606 198.988 315.451 198.988C318.089 198.988 320.356 198.089 322.252 196.3C324.149 194.512 325.341 192.022 325.853 188.84C326.356 185.658 325.986 183.194 324.741 181.455C323.497 179.715 321.6 178.841 319.052 178.841C317.622 178.841 316.37 179.056 315.296 179.476C314.221 179.897 312.836 180.655 311.147 181.751L307.176 178.471L312.777 151.598H339.343L337.877 160.855H319.83L317.037 172.577C319.215 171.53 321.289 171.011 323.252 171.011C327.683 171.011 331.098 172.503 333.513 175.487C335.928 178.471 336.669 182.872 335.743 188.7C334.817 194.52 332.394 199.185 328.46 202.697C324.527 206.208 320.148 207.956 315.318 207.956L315.303 207.948Z" fill="#E95513"/>
<path d="M391.906 163.963C392.499 178.487 398.522 188.164 409.849 193.201L411.487 184.612C403.945 180.754 399.892 173.871 399.203 163.955H414.969L416.28 157.08H387.431L389.572 145.878H415.687L416.984 139.151H390.869L393.151 129.507H385.35L383.068 139.151H357.109L355.82 145.878H381.786L379.638 157.08H350.952L349.641 163.955H365.228C362.154 173.278 355.575 180.391 345.314 185.263L343.773 193.341C350.426 190.901 356.538 187.134 362.05 181.867C366.532 177.721 370.073 171.794 372.622 163.955H378.326L367.08 215.935H374.874L386.128 163.955H391.921L391.906 163.963Z" fill="#E95513" stroke="white" stroke-width="8.26" stroke-linecap="round" stroke-linejoin="round"/>
<path d="M471.414 208.978L472.962 200.389C463.864 196.886 456.797 191.816 451.766 185.271C457.545 183.243 461.968 180.441 464.99 176.929C466.887 180.507 469.799 183.416 473.644 185.502L475.081 177.556C471.799 175.833 469.761 173.03 468.991 169.288C469.073 168.81 469.25 168.348 469.332 167.87L470.347 162.182H463.257L462.175 168.183C461.271 172.7 457.886 176.055 452.078 178.256L451.003 184.257C449.714 182.534 448.529 180.663 447.558 178.561L450.974 159.594H480L481.356 152.043H452.344L455.263 136.019H447.195L444.299 152.043H416.791L415.428 159.594H442.943L439.95 176.146C438.439 179.179 436.335 182.056 433.786 184.711L435.075 177.547C431.719 175.825 429.719 173.162 428.963 169.444C429.052 168.966 429.222 168.414 429.326 167.862L430.356 162.174H423.251L422.177 168.175C421.281 172.692 417.895 176.047 412.079 178.248L410.738 185.65C417.043 183.474 421.77 180.589 424.992 176.921C426.748 180.432 429.519 183.235 433.29 185.263C427.267 191.264 418.28 196.407 406.434 200.694L404.975 208.805C418.784 204.28 429.608 198.114 437.364 190.481L430.237 229.85H438.29L445.254 189.549C451.196 198.196 460.16 204.675 471.414 208.962" fill="#E95513"/>
<path d="M471.414 208.978L472.962 200.389C463.864 196.886 456.797 191.816 451.766 185.271C457.545 183.243 461.968 180.441 464.99 176.929C466.887 180.507 469.799 183.416 473.644 185.502L475.081 177.556C471.799 175.833 469.761 173.03 468.991 169.288C469.073 168.81 469.25 168.348 469.332 167.87L470.347 162.182H463.257L462.175 168.183C461.271 172.7 457.886 176.055 452.078 178.256L451.003 184.257C449.714 182.534 448.529 180.663 447.558 178.561L450.974 159.594H480L481.356 152.043H452.344L455.263 136.019H447.195L444.299 152.043H416.791L415.428 159.594H442.943L439.95 176.146C438.439 179.179 436.335 182.056 433.786 184.711L435.075 177.547C431.719 175.825 429.719 173.162 428.963 169.444C429.052 168.966 429.222 168.414 429.326 167.862L430.356 162.174H423.251L422.177 168.175C421.281 172.692 417.895 176.047 412.079 178.248L410.738 185.65C417.043 183.474 421.77 180.589 424.992 176.921C426.748 180.432 429.519 183.235 433.29 185.263C427.267 191.264 418.28 196.407 406.434 200.694L404.975 208.805C418.784 204.28 429.608 198.114 437.364 190.481L430.237 229.85H438.29L445.254 189.549C451.196 198.196 460.16 204.675 471.414 208.962" stroke="white" stroke-width="8.26" stroke-linecap="round" stroke-linejoin="round"/>
<path d="M576.784 168.299L578.006 162.43C584.251 159.05 590.889 154.59 596.772 149.982L599.046 139.481L554.069 139.357L552.18 148.466H585.629C580.977 151.788 575.339 155.258 570.561 157.574L568.331 168.299H541.297L539.386 177.481H566.412L562.589 195.847C562.315 197.158 561.759 197.545 560.241 197.619C558.996 197.685 551.536 197.693 547.417 197.504L545.372 207.288C551.728 207.288 563.204 207.247 563.389 207.247C567.323 207.247 569.879 203.422 570.864 198.641L574.872 177.481H601.357L603.269 168.299H576.784Z" fill="#E95513" stroke="white" stroke-width="8.26" stroke-linecap="round" stroke-linejoin="round"/>
<path d="M514.605 144.147H505.456C505.233 142.605 504.878 140.924 504.515 139.349H496.232L495.921 139.44C496.18 140.825 496.44 142.531 496.647 144.147H486.001L484.445 151.631H513.042L514.598 144.147H514.605Z" fill="#E95513" stroke="white" stroke-width="8.26" stroke-linecap="round" stroke-linejoin="round"/>
<path d="M481.607 185.922C481.067 187.571 476.496 192.377 474.28 192.748C474.28 192.748 472.532 202.071 472.591 202.071C477.125 200.076 485.089 192.871 487.882 186.095L481.607 185.922Z" fill="#E95513" stroke="white" stroke-width="8.26" stroke-linecap="round" stroke-linejoin="round"/>
<path d="M505.982 195.229C505.47 192.451 504.522 189.055 503.641 185.84L497.551 185.988C498.269 188.28 498.914 192.327 499.388 195.229H505.982Z" fill="#E95513" stroke="white" stroke-width="8.26" stroke-linecap="round" stroke-linejoin="round"/>
<path d="M517.702 176.237L518.694 171.456H531.526L530.533 176.237H517.702ZM521.184 159.495H534.015L533.022 164.284H520.191L521.184 159.495ZM523.658 147.609H536.489L535.497 152.39H522.665L523.658 147.609ZM532.133 192.962C530.985 197.751 530.903 199.466 529.659 199.466H527.888C527.14 199.466 527.051 199.235 527.466 197.224L530.177 184.183H536.526L545.802 139.58H518.087L508.811 184.183H512.293C510.249 191.462 507.47 197.57 499.825 200.372L498.084 208.78C510.449 206.695 516.457 195.666 519.731 184.183H522.806L520.08 197.306C518.539 204.717 519.235 207.264 524.969 207.264H528.925C535.178 207.264 535.904 203.521 538.742 192.962H532.133Z" fill="#E95513" stroke="white" stroke-width="8.26" stroke-linecap="round" stroke-linejoin="round"/>
<path d="M503.811 151.796L503.796 151.788V151.796H503.811Z" fill="#E95513" stroke="white" stroke-width="8.26" stroke-linecap="round" stroke-linejoin="round"/>
<path d="M510.715 153.511H503.173C502.114 156.297 500.684 159.528 499.462 162.133H481.029L479.429 169.848H492.468L491.364 175.174H479.007L477.414 182.815H489.771L484.422 208.517H491.794L497.143 182.815H506.907L508.492 175.174H498.728L499.839 169.848H510.693L512.3 162.133H506.292C507.641 159.536 509.137 156.561 510.722 153.511" fill="#E95513"/>
<path d="M510.715 153.511H503.173C502.114 156.297 500.684 159.528 499.462 162.133H481.029L479.429 169.848H492.468L491.364 175.174H479.007L477.414 182.815H489.771L484.422 208.517H491.794L497.143 182.815H506.907L508.492 175.174H498.728L499.839 169.848H510.693L512.3 162.133H506.292C507.641 159.536 509.137 156.561 510.722 153.511" stroke="white" stroke-width="8.26" stroke-linecap="round" stroke-linejoin="round"/>
<path d="M494.52 161.548C494.609 159.792 494.572 155.942 494.335 153.684H487.638L487.482 153.717C487.705 155.654 487.771 159.462 487.712 161.548H494.513H494.52Z" fill="#E95513" stroke="white" stroke-width="8.26" stroke-linecap="round" stroke-linejoin="round"/>
<path d="M391.906 163.963C392.499 178.487 398.522 188.164 409.849 193.201L411.487 184.612C403.945 180.754 399.892 173.871 399.203 163.955H414.969L416.28 157.08H387.431L389.572 145.878H415.687L416.984 139.151H390.869L393.151 129.507H385.35L383.068 139.151H357.109L355.82 145.878H381.786L379.638 157.08H350.952L349.641 163.955H365.228C362.154 173.278 355.575 180.391 345.314 185.263L343.773 193.341C350.426 190.901 356.538 187.134 362.05 181.867C366.532 177.721 370.073 171.794 372.622 163.955H378.326L367.08 215.935H374.874L386.128 163.955H391.921L391.906 163.963Z" fill="#E95513"/>
<path d="M471.414 208.978L472.962 200.389C463.864 196.886 456.797 191.816 451.766 185.271C457.545 183.243 461.968 180.441 464.99 176.929C466.887 180.507 469.799 183.416 473.644 185.502L475.081 177.556C471.799 175.833 469.761 173.03 468.991 169.288C469.073 168.81 469.25 168.348 469.332 167.87L470.347 162.182H463.257L462.175 168.183C461.271 172.7 457.886 176.055 452.078 178.256L451.003 184.257C449.714 182.534 448.529 180.663 447.558 178.561L450.974 159.594H480L481.356 152.043H452.344L455.263 136.019H447.195L444.299 152.043H416.791L415.428 159.594H442.943L439.95 176.146C438.439 179.179 436.335 182.056 433.786 184.711L435.075 177.547C431.719 175.825 429.719 173.162 428.963 169.444C429.052 168.966 429.222 168.414 429.326 167.862L430.356 162.174H423.251L422.177 168.175C421.281 172.692 417.895 176.047 412.079 178.248L410.738 185.65C417.043 183.474 421.77 180.589 424.992 176.921C426.748 180.432 429.519 183.235 433.29 185.263C427.267 191.264 418.28 196.407 406.434 200.694L404.975 208.805C418.784 204.28 429.608 198.114 437.364 190.481L430.237 229.85H438.29L445.254 189.549C451.196 198.196 460.16 204.675 471.414 208.962" fill="#E95513"/>
<path d="M576.784 168.299L578.006 162.43C584.251 159.05 590.889 154.59 596.772 149.982L599.046 139.481L554.069 139.357L552.18 148.466H585.629C580.977 151.788 575.339 155.258 570.561 157.574L568.331 168.299H541.297L539.386 177.481H566.412L562.589 195.847C562.315 197.158 561.759 197.545 560.241 197.619C558.996 197.685 551.536 197.693 547.417 197.504L545.372 207.288C551.728 207.288 563.204 207.247 563.389 207.247C567.323 207.247 569.879 203.422 570.864 198.641L574.872 177.481H601.357L603.269 168.299H576.784Z" fill="#E95513"/>
<path d="M514.605 144.147H505.456C505.233 142.605 504.878 140.924 504.515 139.349H496.232L495.921 139.44C496.18 140.825 496.44 142.531 496.647 144.147H486.001L484.445 151.631H513.042L514.598 144.147H514.605Z" fill="#E95513"/>
<path d="M481.607 185.922C481.067 187.571 476.496 192.377 474.28 192.748C474.28 192.748 472.532 202.071 472.591 202.071C477.125 200.076 485.089 192.871 487.882 186.095L481.607 185.922Z" fill="#E95513"/>
<path d="M505.982 195.229C505.47 192.451 504.522 189.055 503.641 185.84L497.551 185.988C498.269 188.28 498.914 192.327 499.388 195.229H505.982Z" fill="#E95513"/>
<path d="M517.702 176.237L518.694 171.456H531.526L530.533 176.237H517.702ZM521.184 159.495H534.015L533.022 164.284H520.191L521.184 159.495ZM523.658 147.609H536.489L535.497 152.39H522.665L523.658 147.609ZM532.133 192.962C530.985 197.751 530.903 199.466 529.659 199.466H527.888C527.14 199.466 527.051 199.235 527.466 197.224L530.177 184.183H536.526L545.802 139.58H518.087L508.811 184.183H512.293C510.249 191.462 507.47 197.57 499.825 200.372L498.084 208.78C510.449 206.695 516.457 195.666 519.731 184.183H522.806L520.08 197.306C518.539 204.717 519.235 207.264 524.969 207.264H528.925C535.178 207.264 535.904 203.521 538.742 192.962H532.133Z" fill="#E95513"/>
<path d="M503.811 151.796L503.796 151.788V151.796H503.811Z" fill="#E95513"/>
<path d="M510.715 153.511H503.173C502.114 156.297 500.684 159.528 499.462 162.133H481.029L479.429 169.848H492.468L491.364 175.174H479.007L477.414 182.815H489.771L484.422 208.517H491.794L497.143 182.815H506.907L508.492 175.174H498.728L499.839 169.848H510.693L512.3 162.133H506.292C507.641 159.536 509.137 156.561 510.722 153.511" fill="#E95513"/>
<path d="M494.52 161.548C494.609 159.792 494.572 155.942 494.335 153.684H487.638L487.482 153.717C487.705 155.654 487.771 159.462 487.712 161.548H494.513H494.52Z" fill="#E95513"/>
</g>
<path d="M239.353 258.45C239.21 256.043 239.098 254.693 239.008 254.415C239.008 254.138 238.663 253.95 237.965 253.86C237.268 253.77 235.858 253.718 233.721 253.718C232.978 253.808 231.771 253.883 230.106 253.928C228.433 253.973 226.423 254.018 224.053 254.07C221.691 254.115 219.043 254.138 216.126 254.138H207.013C200.893 254.138 195.749 254.183 191.579 254.28C187.409 254.37 185.181 254.468 184.904 254.558C184.814 254.558 184.694 255.878 184.559 258.525C184.424 261.172 184.349 265.545 184.349 271.665C184.161 275.19 184.049 278.617 184.004 281.955C183.959 285.292 183.936 287.842 183.936 289.605C183.749 292.665 183.726 294.817 183.869 296.069C184.011 297.322 184.311 297.944 184.776 297.944H224.136L225.988 381.876L248 382.873L239.555 261.84C239.488 260.602 239.428 259.47 239.368 258.45H239.353ZM224.121 287.94H219.876C219.268 287.94 218.833 288.03 218.556 288.217C218.278 288.217 217.258 288.24 215.496 288.285C213.733 288.33 211.738 288.45 209.518 288.63L201.171 288.772V282.795L205.206 282.517C206.316 282.517 207.936 282.495 210.073 282.45C212.203 282.405 214.386 282.382 216.613 282.382H224.121V287.947V287.94ZM224.121 272.077H201.448L201.171 269.017V265.68C201.358 265.68 202.513 265.635 204.651 265.537C206.781 265.447 209.473 265.395 212.721 265.395H224.128V272.07L224.121 272.077Z" fill="#053793"/>
<path d="M210.876 315.247C210.194 314.759 208.859 313.859 206.864 312.547C204.869 311.234 202.799 309.847 200.661 308.392C198.231 306.742 196.281 305.452 194.826 304.522C193.364 303.599 192.246 302.939 191.474 302.549C190.694 302.159 190.161 302.017 189.869 302.114C189.576 302.212 189.434 302.407 189.434 302.699C189.239 303.089 188.946 303.644 188.556 304.379C188.166 305.107 187.731 305.887 187.244 306.712C186.756 307.537 186.299 308.317 185.856 309.044C185.414 309.772 185.099 310.282 184.911 310.574L183.741 311.744L186.809 314.077C187.881 314.857 188.999 315.682 190.161 316.559C191.331 317.437 192.396 318.217 193.371 318.892C194.249 319.477 195.021 320.039 195.704 320.572C196.386 321.104 196.724 321.427 196.724 321.517C196.724 321.907 196.289 321.907 195.411 321.517C193.664 321.419 190.469 321.247 185.856 321.007C181.236 320.767 175.664 320.594 169.147 320.497L155.579 320.062L160.394 315.247C161.654 313.882 162.779 312.674 163.747 311.602C164.714 310.529 165.254 309.854 165.352 309.562C165.742 309.172 165.547 308.639 164.767 307.957C164.572 307.762 164.332 307.664 164.039 307.664C163.942 307.567 163.867 307.522 163.822 307.522C163.777 307.522 163.702 307.477 163.604 307.379C163.507 307.184 163.117 306.922 162.434 306.577C161.752 306.239 160.972 305.774 160.102 305.189C159.127 304.409 158.279 303.854 157.552 303.509C156.824 303.172 156.314 302.999 156.022 302.999C155.437 302.999 154.807 303.142 154.124 303.434C153.442 303.727 152.909 304.162 152.519 304.747C152.032 305.234 151.282 305.894 150.254 306.719C149.234 307.544 147.892 308.594 146.242 309.854C144.584 311.122 143.054 312.284 141.644 313.357C140.234 314.429 138.892 315.397 137.632 316.274C136.169 317.347 134.879 318.269 133.762 319.049C132.645 319.829 132.082 320.317 132.082 320.512C132.18 320.804 132.352 321.367 132.592 322.192C132.832 323.017 133.102 323.894 133.395 324.817C133.687 325.739 134.002 326.662 134.34 327.592C134.677 328.514 135.044 329.272 135.434 329.857C136.019 331.604 136.747 332.481 137.624 332.481C138.404 332.481 139.567 331.994 141.127 331.019C142.004 330.532 142.732 330.119 143.317 329.782C143.902 329.444 144.239 329.272 144.337 329.272C144.629 329.272 144.772 332.534 144.772 339.051V346.199C144.772 348.149 144.869 349.214 145.064 349.409V351.156L145.207 352.176H150.607C151.094 352.176 151.529 352.229 151.919 352.319C152.504 352.319 152.887 352.371 153.089 352.461C153.187 352.656 153.164 353.121 153.014 353.849C152.872 354.576 152.647 355.379 152.354 356.256C152.062 357.134 151.747 358.056 151.409 359.031C151.064 360.006 150.749 360.779 150.464 361.364C150.074 362.144 149.519 362.991 148.784 363.914C148.057 364.836 147.299 365.691 146.519 366.464C145.057 368.121 143.527 369.404 141.922 370.334C140.317 371.256 138.584 371.961 136.739 372.448C136.154 372.741 135.644 372.958 135.209 373.108C134.774 373.258 134.55 373.378 134.55 373.476C134.55 373.671 135.082 374.646 136.154 376.393C137.227 378.141 138.487 380.091 139.949 382.228C140.827 383.691 141.479 384.561 141.922 384.853C142.357 385.146 143.309 385.093 144.764 384.711C148.852 384.126 152.422 382.716 155.489 380.481C158.557 378.246 161.107 375.426 163.147 372.021C164.317 369.786 165.532 367.154 166.792 364.139C168.052 361.124 168.982 358.544 169.567 356.406L170.152 353.054H173.219L176.286 352.911V355.101C176.286 356.076 176.361 357.704 176.504 359.991C176.646 362.279 176.819 364.686 177.014 367.214C177.209 369.741 177.426 372.103 177.674 374.293C177.914 376.483 178.131 377.968 178.334 378.741C178.724 379.911 179.624 380.833 181.034 381.516C182.444 382.198 184.656 382.828 187.671 383.413C188.639 383.608 189.839 383.758 191.249 383.848C192.659 383.946 194.144 383.991 195.696 383.991C197.249 383.991 198.764 383.916 200.219 383.773C201.674 383.631 202.994 383.406 204.156 383.113C204.644 383.016 205.079 382.948 205.469 382.896C205.859 382.851 206.249 382.821 206.639 382.821C206.834 382.723 207.006 382.678 207.149 382.678C207.291 382.678 207.464 382.633 207.659 382.536C207.756 382.341 207.779 381.568 207.734 380.203C207.681 378.838 207.561 377.136 207.366 375.096L206.781 367.799H199.484C197.151 367.799 195.299 367.776 193.941 367.724C192.576 367.679 191.751 367.559 191.459 367.356C190.971 366.966 190.634 366.141 190.439 364.874C190.244 363.614 190.146 361.274 190.146 357.869L190.289 352.176L192.479 352.034C193.259 352.034 194.106 351.989 195.029 351.891C195.951 351.794 196.799 351.749 197.579 351.749H200.204L200.346 345.621C200.541 344.069 200.661 341.976 200.714 339.344C200.759 336.719 200.789 334.289 200.789 332.046C200.984 330.007 201.104 328.252 201.156 326.797C201.201 325.334 201.321 324.607 201.524 324.607C202.784 325.387 204.006 326.017 205.169 326.504C206.339 326.992 207.066 327.187 207.359 327.089C207.554 327.089 207.869 326.774 208.304 326.144C208.739 325.514 209.204 324.779 209.691 323.954C210.179 323.129 210.614 322.372 211.004 321.689C211.394 321.007 211.634 320.617 211.731 320.519C212.219 319.642 212.609 318.989 212.901 318.547C213.194 318.112 213.336 317.744 213.336 317.452C213.336 316.769 212.511 316.042 210.854 315.262L210.876 315.247ZM184.611 340.776L177.464 340.634C175.424 340.439 173.182 340.319 170.752 340.266C168.322 340.221 166.229 340.191 164.474 340.191L159.074 339.899V333.336L162.284 333.194C163.162 333.194 164.812 333.149 167.242 333.051C169.672 332.954 172.252 332.909 174.974 332.909H184.604V340.791L184.611 340.776Z" fill="#053793"/>
<path d="M143.392 302.474C145.485 302.332 146.82 302.204 147.405 302.107C148.184 301.912 149.444 301.739 151.199 301.597C152.947 301.454 154.897 301.379 157.034 301.379C159.562 301.184 161.482 301.042 162.794 300.944C164.107 300.847 165.082 300.704 165.712 300.509C166.342 300.314 166.709 300.052 166.807 299.707C166.904 299.369 166.949 298.904 166.949 298.319C167.047 297.734 167.144 296.107 167.242 293.429C167.339 290.752 167.384 287.67 167.384 284.167C167.482 280.957 167.549 277.77 167.602 274.612C167.647 271.455 167.722 268.312 167.819 265.2C167.917 258.975 168.059 255.42 168.254 254.55C168.254 254.257 158.819 254.115 139.95 254.115H111.652L111.51 268.417C111.315 272.505 111.195 276.172 111.142 279.435C111.09 282.697 111.067 284.857 111.067 285.93C110.775 290.887 110.535 295.657 110.34 300.232C110.145 304.807 109.972 309.299 109.83 313.732C109.687 318.157 109.537 322.612 109.395 327.082C109.252 331.559 109.125 336.224 109.027 341.091C109.027 343.424 109.005 345.884 108.952 348.456C108.9 351.036 108.832 353.616 108.735 356.189C108.637 358.769 108.562 361.221 108.517 363.554C108.465 365.886 108.442 368.031 108.442 369.974C108.247 373.671 108.127 376.903 108.075 379.678C108.022 382.453 108 384.178 108 384.861V386.901H125.362V385.153C125.362 384.568 125.437 383.428 125.58 381.726C125.722 380.023 125.85 378.148 125.947 376.108C126.142 373.971 126.315 371.316 126.457 368.159C126.6 365.001 126.727 361.956 126.825 359.039C127.117 347.564 127.312 337.641 127.41 329.272C127.507 320.909 127.605 314.827 127.702 311.032V303.442L136.455 303.007C138.982 302.812 141.292 302.639 143.385 302.497L143.392 302.474ZM129.457 269.865V267.6C129.457 266.97 129.555 266.655 129.75 266.655C129.847 266.46 130.965 266.362 133.102 266.362C135.24 266.362 137.917 266.317 141.127 266.22H152.219V269.865C152.219 271.327 152.197 272.272 152.144 272.707C152.092 273.142 151.927 273.315 151.634 273.217C151.342 273.217 150.127 273.172 147.99 273.075C145.852 272.977 143.272 272.932 140.257 272.932H129.457V269.865ZM129.892 290.002C129.6 290.002 129.457 289.08 129.457 287.227V284.31H130.77C131.355 284.31 132.352 284.287 133.762 284.235C135.172 284.19 136.755 284.07 138.502 283.867C140.25 283.867 142.08 283.845 143.977 283.792C145.875 283.747 147.405 283.717 148.574 283.717H152.219V290.722L141.277 290.43C138.262 290.332 135.66 290.287 133.47 290.287C131.28 290.287 130.087 290.19 129.892 289.995V290.002Z" fill="#053793"/>
<path d="M395.719 376.236C395.134 376.236 394.039 376.071 392.434 375.726C390.829 375.388 389.127 374.998 387.327 374.556C385.527 374.121 383.847 373.678 382.294 373.243C380.734 372.809 379.669 372.493 379.084 372.299C379.084 372.104 379.377 372.006 379.962 372.006C381.807 372.201 383.854 372.149 386.089 371.864C387.642 371.669 388.864 371.571 389.734 371.571C390.604 371.571 391.144 371.526 391.339 371.429C391.534 370.259 391.654 367.589 391.707 363.404C391.752 359.226 391.729 353.481 391.632 346.184C391.534 338.886 391.489 333.149 391.489 328.964C391.489 324.779 391.437 322.109 391.347 320.939C391.639 320.647 389.547 320.504 385.069 320.504H355.887C350.93 320.602 346.302 320.677 342.027 320.722C337.745 320.774 334.047 320.819 330.935 320.864C327.822 320.917 325.34 320.939 323.495 320.939H320.427C320.33 322.012 320.255 324.419 320.21 328.162C320.157 331.904 320.135 337.139 320.135 343.844C320.135 350.549 320.157 355.904 320.21 359.894C320.255 363.884 320.33 366.554 320.427 367.919C320.427 368.211 320.45 368.601 320.502 369.089C320.547 369.576 320.577 369.966 320.577 370.259V371.864L325.827 372.006H331.077L325.677 374.196C324.02 374.781 322.445 375.343 320.937 375.876C319.43 376.408 318.29 376.731 317.51 376.821C316.047 377.308 315.177 377.796 314.885 378.283C314.592 378.771 314.832 379.843 315.612 381.493C315.71 382.176 315.95 382.956 316.34 383.826C316.73 384.703 316.97 385.528 317.067 386.308C317.36 386.991 317.63 387.598 317.87 388.131C318.11 388.663 318.282 388.978 318.38 389.076C320.907 389.076 323.727 388.513 326.84 387.396C329.952 386.278 332.622 385.183 334.865 384.111C336.327 383.331 337.565 382.701 338.585 382.213C339.605 381.726 340.115 381.336 340.115 381.043C340.212 380.848 340.092 380.383 339.747 379.656C339.402 378.928 338.945 378.126 338.36 377.248C337.97 376.761 337.602 376.206 337.265 375.568C336.92 374.938 336.605 374.331 336.32 373.746C336.515 373.453 338.532 373.236 342.372 373.086C346.212 372.943 351.635 372.816 358.639 372.719C360.582 372.524 362.359 372.426 363.964 372.426H372.064C372.162 372.426 372.109 372.771 371.922 373.446C371.727 374.128 371.487 374.953 371.194 375.928C370.414 378.553 370.099 380.211 370.249 380.886C370.392 381.568 371.344 382.101 373.092 382.491L379.219 384.531C380.292 384.823 381.484 385.138 382.797 385.476C384.109 385.813 385.249 386.083 386.224 386.278C387.297 386.376 388.362 386.548 389.434 386.788C390.507 387.028 391.429 387.201 392.209 387.298C392.884 387.493 393.499 387.591 394.032 387.591C394.564 387.591 394.879 387.493 394.977 387.298C395.074 387.006 395.246 386.421 395.486 385.551C395.726 384.673 396.049 383.556 396.431 382.198C396.821 380.833 397.061 379.716 397.159 378.846C397.256 377.968 397.256 377.293 397.159 376.806C397.159 376.416 396.671 376.221 395.696 376.221L395.719 376.236ZM342.32 329.542C344.36 329.542 347.232 329.497 350.93 329.399C354.627 329.302 358.369 329.257 362.164 329.257H375.154L374.862 330.569C374.667 331.057 374.592 331.514 374.644 331.957C374.689 332.392 374.719 332.759 374.719 333.051C375.012 333.344 374.037 333.486 371.802 333.486C369.469 333.584 363.919 333.584 355.167 333.486H335.757V331.447L335.465 329.699L342.32 329.557V329.542ZM335.457 343.116L338.525 342.824H345.747C348.905 342.824 352.97 342.876 357.934 342.966C362.892 343.064 366.739 343.109 369.462 343.109C372.184 343.109 373.932 343.161 374.712 343.251C374.809 343.251 374.854 343.521 374.854 344.054V347.924H356.322C350.78 347.924 346.205 347.849 342.605 347.706C339.005 347.564 337.01 347.489 336.62 347.489C336.132 347.294 335.817 347.054 335.675 346.761C335.532 346.469 335.457 345.884 335.457 345.014V343.116ZM375.582 361.649C375.387 361.649 373.369 361.701 369.529 361.791C365.682 361.889 360.897 361.934 355.16 361.934H344.435C341.66 361.934 339.695 361.889 338.525 361.791C336.095 361.694 335.022 361.499 335.315 361.206C335.412 361.109 335.457 360.914 335.457 360.621V359.744C335.36 359.451 335.697 359.234 336.477 359.084C337.257 358.941 339.342 358.716 342.755 358.424C346.842 358.034 351.215 357.741 355.887 357.546C360.559 357.351 365.082 357.254 369.454 357.254H375.289L375.582 359.294V361.626V361.649Z" fill="#053793"/>
<path d="M290.367 313.057C286.182 313.057 282.387 313.034 278.982 312.982C275.578 312.937 273.44 312.907 272.563 312.907C271.393 312.712 270.643 312.667 270.298 312.764C269.953 312.862 269.69 313.057 269.495 313.349C269.495 314.032 269.518 314.954 269.57 316.124C269.615 317.294 269.668 318.487 269.713 319.702C269.758 320.916 269.833 322.086 269.93 323.204C270.028 324.321 270.125 325.176 270.223 325.754C270.223 325.949 270.68 325.994 271.61 325.896C272.533 325.799 273.725 325.754 275.188 325.754C276.65 325.656 278.735 325.536 281.465 325.386C284.187 325.244 286.865 325.071 289.49 324.876C292.115 324.779 294.642 324.659 297.08 324.509C299.51 324.366 301.212 324.291 302.187 324.291L305.982 323.856L305.69 319.184C305.69 317.722 305.667 316.484 305.615 315.464C305.562 314.444 305.54 313.882 305.54 313.784C305.54 313.589 304.445 313.469 302.255 313.417C300.065 313.372 296.105 313.252 290.36 313.049L290.367 313.057Z" fill="#053793"/>
<path d="M315.613 308.242L316.49 317.287L319.993 317.872C321.163 318.067 322.565 318.164 324.222 318.164H330.5C331.572 318.067 333.125 317.999 335.172 317.947C337.212 317.902 339.552 317.849 342.177 317.804C344.802 317.759 347.675 317.729 350.787 317.729H360.275C366.597 317.632 371.847 317.534 376.032 317.437C380.209 317.339 383.569 317.242 386.097 317.144C388.624 317.047 390.424 316.927 391.497 316.777C392.569 316.634 393.102 316.507 393.102 316.409C393.297 316.312 393.439 315.997 393.537 315.464C393.634 314.932 393.732 314.002 393.829 312.689C393.927 311.377 393.994 309.577 394.047 307.289C394.092 305.002 394.122 302.062 394.122 298.462V285.472H381.424C377.922 285.472 374.907 285.524 372.379 285.614C369.852 285.712 368.344 285.757 367.857 285.757C367.467 285.757 364.962 285.854 360.342 286.049C355.722 286.244 350.007 286.342 343.197 286.342C336.192 286.537 330.26 286.657 325.392 286.709C320.525 286.762 317.608 286.882 316.64 287.077L314.308 287.219L314.45 293.204C314.45 294.952 314.593 297.239 314.885 300.059C315.178 302.879 315.418 305.602 315.613 308.234V308.242ZM368.292 296.279V294.967H380.112V296.429C380.112 297.599 379.917 298.177 379.527 298.177C379.332 298.372 378.724 298.469 377.704 298.469C376.684 298.469 375.439 298.522 373.984 298.612C371.359 298.612 369.732 298.514 369.094 298.319C368.457 298.124 368.194 297.442 368.292 296.279ZM349.467 302.842C351.117 301.964 352.31 300.967 353.045 299.849C353.772 298.732 354.335 297.104 354.725 294.959C354.725 294.179 355.257 293.789 356.33 293.789C357.207 293.789 357.642 294.029 357.642 294.517C357.642 295.784 357.807 297.217 358.152 298.822C358.49 300.427 358.902 301.619 359.39 302.399C359.585 303.374 360.41 304.124 361.872 304.664C363.334 305.197 364.984 305.587 366.829 305.834C368.674 306.074 370.452 306.224 372.154 306.269C373.857 306.322 375.049 306.344 375.732 306.344C378.064 306.344 379.504 306.367 380.037 306.419C380.569 306.472 380.839 306.637 380.839 306.929L380.982 307.807L354.717 308.099C337.692 308.197 328.887 308.197 328.31 308.099C328.31 307.904 328.257 307.709 328.167 307.514C328.07 307.319 328.115 307.124 328.31 306.929C328.31 306.539 329.33 306.344 331.377 306.344C335.465 306.344 338.915 306.074 341.735 305.542C344.555 305.009 347.135 304.109 349.467 302.842ZM328.31 295.109C328.407 295.109 329.187 295.087 330.642 295.034C332.105 294.989 333.95 294.959 336.185 294.959C339.687 294.959 341.802 294.982 342.53 295.034C343.257 295.087 343.332 295.349 342.747 295.837C342.552 295.934 342.065 296.129 341.285 296.422C340.505 296.714 339.68 297.007 338.802 297.299C337.827 297.592 336.785 297.862 335.667 298.102C334.55 298.342 333.477 298.537 332.457 298.687C331.437 298.829 330.537 298.927 329.757 298.979C328.977 299.032 328.49 299.054 328.295 299.054C328.1 298.762 328.002 298.109 328.002 297.082C328.002 296.054 328.1 295.402 328.295 295.109H328.31Z" fill="#053793"/>
<path d="M278.698 305.467C281.128 305.467 283.438 305.392 285.628 305.249C287.818 305.107 289.348 304.934 290.225 304.739C291.103 304.642 292.198 304.522 293.51 304.372C294.823 304.222 295.97 304.154 296.938 304.154C298.198 303.959 299.248 303.787 300.073 303.644C300.898 303.502 301.558 303.427 302.045 303.427C302.533 303.427 302.825 303.382 302.923 303.284H303.358C303.455 303.284 303.553 302.774 303.65 301.754C303.748 300.734 303.793 299.489 303.793 298.034V292.492H287.308C282.83 292.492 279.013 292.544 275.855 292.634C272.69 292.732 270.965 292.829 270.673 292.927C270.478 292.927 270.358 293.512 270.305 294.674C270.253 295.844 270.23 297.449 270.23 299.489L270.373 305.617L278.69 305.474L278.698 305.467Z" fill="#053793"/>
<path d="M278.698 285.33C282.591 285.33 286.378 285.285 290.083 285.187C293.781 285.09 296.645 285.045 298.693 285.045H305.255V272.205H301.318C299.915 272.205 298.88 272.13 298.198 271.98L299.255 249.008L275.451 253.62L280.266 272.092C279.133 272.13 277.401 272.077 275.053 271.912C272.811 271.912 270.868 271.837 269.218 271.695C267.561 271.552 266.496 271.477 266.008 271.477L264.546 271.335L264.688 276.585C264.883 278.047 265.003 279.36 265.056 280.522C265.101 281.692 265.131 282.42 265.131 282.712C265.131 283.005 265.176 283.32 265.273 283.657C265.371 284.002 265.416 284.265 265.416 284.46C265.318 284.655 265.363 284.805 265.558 284.895C265.753 284.992 266.308 285.09 267.238 285.187C268.161 285.285 269.526 285.33 271.326 285.33H278.698Z" fill="#053793"/>
<path d="M307.002 335.452C303.792 335.309 299.855 335.137 295.182 334.942C290.128 334.649 285.89 334.454 282.485 334.357C279.08 334.259 276.403 334.214 274.46 334.214C272.518 334.214 271.13 334.267 270.305 334.357C269.48 334.454 269.068 334.597 269.068 334.792C268.97 335.767 268.925 338.002 268.925 341.504C268.925 345.006 268.873 349.821 268.783 355.949C268.685 362.174 268.663 367.206 268.708 371.054C268.753 374.901 268.828 377.646 268.925 379.296L269.068 381.921H275.63C276.41 381.921 277.768 381.899 279.718 381.846C281.66 381.801 283.873 381.749 286.355 381.704C288.838 381.659 291.462 381.561 294.237 381.411C297.012 381.269 299.585 381.096 301.97 380.901C304.355 380.706 306.417 380.444 308.172 380.099C309.92 379.761 310.992 379.394 311.382 379.004C311.48 378.906 311.547 378.104 311.6 376.596C311.645 375.089 311.697 373.169 311.742 370.836C311.787 368.504 311.84 365.969 311.885 363.246C311.93 360.524 311.982 357.944 312.027 355.514C312.072 353.084 312.102 350.969 312.102 349.169V345.741C312.2 342.629 312.245 340.177 312.245 338.377C312.245 336.577 312.192 335.677 312.102 335.677C311.907 335.677 310.205 335.602 306.995 335.459L307.002 335.452ZM296.795 363.689L296.502 367.919L293.877 368.061C293.195 368.256 292.295 368.376 291.177 368.429C290.06 368.481 289.063 368.504 288.185 368.504H285.41L285.118 358.439V348.516H290.81L296.795 348.809V363.689Z" fill="#053793"/>
<path d="M317.877 280.515C317.922 281.392 317.953 281.88 317.953 281.977H320.36C321.77 281.977 323.712 281.955 326.195 281.902C328.677 281.857 331.542 281.805 334.805 281.76C338.06 281.715 341.592 281.64 345.387 281.542C349.182 281.542 352.902 281.52 356.547 281.467C360.192 281.422 363.499 281.37 366.469 281.325C369.439 281.28 372.034 281.227 374.277 281.182C376.512 281.137 378.117 281.107 379.092 281.107C380.937 281.107 382.737 281.085 384.492 281.032C386.239 280.987 387.409 280.957 387.994 280.957L390.477 280.665V275.85C390.477 274.005 390.424 272.715 390.334 271.98C390.237 271.252 390.042 270.787 389.749 270.592C389.652 270.495 388.654 270.397 386.757 270.3C384.859 270.202 381.724 270.255 377.344 270.442C373.939 270.54 371.044 270.585 368.659 270.585H364.789C364.399 270.877 364.204 270.247 364.204 268.687C364.009 267.907 363.964 267.3 364.062 266.865C364.159 266.43 364.204 266.16 364.204 266.062C364.887 265.672 367.707 265.432 372.664 265.335C375.192 265.237 377.719 265.17 380.254 265.117C382.782 265.072 385.309 264.997 387.844 264.9H390.034V255.705L383.472 255.562C381.522 255.367 379.384 255.247 377.052 255.195C374.719 255.15 372.672 255.12 370.924 255.12H366.477C365.262 255.12 364.504 255.022 364.212 254.827C363.724 254.827 363.409 254.662 363.267 254.317C363.124 253.98 363.049 253.125 363.049 251.767V249H355.1C354.177 249 353.57 249.052 353.277 249.142C353.082 249.142 352.617 249.195 351.89 249.285C351.162 249.382 350.307 249.427 349.34 249.427H345.987V252.495L345.845 255.562L331.985 255.705C328.092 255.705 324.837 255.757 322.205 255.847C319.58 255.945 318.118 256.042 317.825 256.14C317.825 256.335 317.773 256.965 317.683 258.037C317.585 259.11 317.54 260.37 317.54 261.832V267.525L324.837 267.09C326.877 267.09 328.992 267.015 331.182 266.872C333.372 266.73 335.195 266.655 336.657 266.655C337.917 266.557 339.282 266.46 340.745 266.362C342.207 266.265 343.37 266.22 344.247 266.22H347.165L346.872 268.702V271.035L340.595 271.327C336.215 271.522 332.645 271.695 329.87 271.837C327.095 271.98 324.882 272.107 323.232 272.205C321.575 272.302 320.39 272.377 319.655 272.422C318.928 272.475 318.463 272.542 318.268 272.64C317.78 272.64 317.51 272.88 317.465 273.367C317.413 273.855 317.443 275.212 317.54 277.455C317.735 278.625 317.855 279.645 317.908 280.522L317.877 280.515Z" fill="#053793"/>
<path d="M544.697 311.047C544.322 311.047 543.632 311.024 542.612 310.979C541.592 310.934 540.152 310.867 538.3 310.769C536.447 310.679 534.707 310.627 533.087 310.627H523.697L523.84 305.062C523.84 302.557 523.907 300.914 524.05 300.127C524.192 299.339 524.537 298.762 525.092 298.387C525.557 297.922 526.202 297.067 527.042 295.814C527.882 294.562 528.715 293.242 529.547 291.847C531.497 289.065 533.162 286.837 534.557 285.172C535.952 283.507 537.34 282.345 538.727 281.692C540.115 280.582 540.812 279.93 540.812 279.742C541.09 278.445 541.232 276.037 541.232 272.512C541.232 270.75 541.21 269.22 541.165 267.922C541.12 266.625 541.045 265.56 540.955 264.72C540.955 264.075 540.887 263.422 540.745 262.77C540.602 262.125 540.4 261.75 540.122 261.66C540.032 261.382 539.447 261.195 538.382 261.105C537.317 261.015 535.532 260.917 533.027 260.827C531.077 260.827 528.925 260.782 526.562 260.685C524.2 260.595 522.182 260.497 520.51 260.407C519.025 260.22 517.195 260.13 515.013 260.13C512.83 260.13 510.91 260.22 509.238 260.407C507.565 260.407 505.135 260.475 501.933 260.617C498.73 260.76 495.558 260.827 492.408 260.827L480.865 261.247L481.143 264.727C481.51 268.897 481.765 272.032 481.908 274.117C482.05 276.202 482.208 277.342 482.395 277.522H484.623C485.268 277.522 486.063 277.5 486.985 277.455C487.908 277.41 488.935 277.342 490.045 277.245C494.778 276.967 499.57 276.735 504.438 276.547C509.305 276.36 514.105 276.27 518.83 276.27C518.83 276.36 518.552 276.757 517.997 277.455C517.442 278.152 516.835 279.007 516.19 280.027C515.17 281.137 514.173 282.322 513.198 283.575C512.223 284.827 511.413 285.915 510.76 286.845C510.018 287.865 509.23 288.885 508.398 289.905C507.565 290.924 506.868 291.809 506.313 292.544C505.758 293.287 505.248 293.984 504.783 294.629C504.318 295.282 503.95 295.739 503.673 296.017C503.485 296.482 503.328 297.434 503.185 298.867C503.043 300.307 502.975 302.272 502.975 304.777C502.975 305.797 502.953 306.772 502.908 307.694C502.863 308.624 502.788 309.457 502.698 310.199C502.698 310.574 502.72 310.919 502.765 311.242C502.81 311.564 502.743 311.917 502.555 312.284C502.368 312.472 501.115 312.562 498.798 312.562H490.038L477.798 312.704V321.052L477.521 329.399L490.038 329.257L502.413 328.837L502.135 338.991C502.135 341.961 502.113 344.766 502.068 347.406C502.023 350.046 501.903 351.974 501.723 353.181C501.723 354.479 501.7 356.054 501.655 357.914C501.61 359.766 501.49 361.529 501.31 363.201C501.31 364.964 501.288 366.404 501.243 367.514C501.198 368.624 501.175 369.231 501.175 369.321C500.988 369.321 500.688 369.366 500.268 369.464C499.848 369.554 499.36 369.606 498.805 369.606C497.695 369.606 496.555 369.674 495.4 369.816C494.238 369.959 492.963 370.071 491.575 370.161L490.323 370.438L490.743 375.861C490.93 377.346 491.043 378.778 491.088 380.173C491.133 381.561 491.2 382.626 491.298 383.376C491.298 383.931 491.343 384.441 491.44 384.906C491.53 385.371 491.628 385.603 491.718 385.603C491.905 385.791 492.393 385.881 493.18 385.881L525.1 388.746L523.915 328.027H533.447L544.99 327.749L545.132 319.402C545.132 316.342 545.11 314.234 545.065 313.072C545.02 311.917 544.9 311.242 544.72 311.054L544.697 311.047Z" fill="#053793"/>
<path d="M476.545 358.964C475.803 358.086 474.828 357.224 473.628 356.391C473.35 356.204 472.773 355.791 471.888 355.139C471.003 354.494 470.08 353.751 469.105 352.911C468.13 352.071 467.253 351.291 466.465 350.549C465.678 349.806 465.28 349.251 465.28 348.876C465.28 348.689 465.37 348.299 465.558 347.691C465.745 347.091 466.068 346.371 466.533 345.539C467.178 343.964 467.898 341.991 468.685 339.629C469.473 337.266 470.005 335.339 470.283 333.854L471.535 328.844C472.18 326.339 472.72 323.579 473.133 320.572C473.553 317.557 473.988 314.617 474.453 311.737C474.82 308.122 475.195 304.919 475.563 302.137C475.93 299.354 476.163 297.824 476.26 297.547C476.448 297.547 476.703 297.479 477.025 297.337C477.348 297.194 477.745 297.127 478.21 297.127L480.018 296.849V290.032C480.108 288.082 480.16 286.552 480.16 285.442C480.16 284.332 480.07 283.522 479.883 283.005C479.695 282.495 479.373 282.195 478.908 282.097C478.443 282.007 477.798 282.007 476.958 282.097H475.008L474.865 279.315C474.865 277.552 474.723 276.532 474.445 276.255C474.445 276.067 473.958 275.977 472.983 275.977C472.008 275.977 469.623 276.067 465.82 276.255L460.255 276.397V279.6C460.345 280.807 460.323 281.595 460.188 281.962C460.045 282.337 459.79 282.57 459.423 282.66C459.145 282.75 458.613 282.802 457.825 282.802C457.038 282.802 456.175 282.78 455.253 282.735C454.323 282.69 453.378 282.645 452.403 282.592C451.428 282.547 450.573 282.525 449.83 282.525V282.382C449.83 282.292 449.853 282.195 449.898 282.105C449.943 282.015 449.965 281.917 449.965 281.827C450.243 280.995 450.565 279.465 450.94 277.237C451.308 275.01 451.683 272.46 452.05 269.587C452.238 267.735 452.418 266.092 452.605 264.652C452.793 263.212 452.973 262.357 453.16 262.08C453.25 261.615 453.348 261.157 453.438 260.692C453.528 260.227 453.625 259.77 453.715 259.305C453.715 258.382 453.573 257.707 453.295 257.287C453.018 256.867 452.41 256.567 451.488 256.38C449.635 256.102 447.873 255.87 446.2 255.682C444.528 255.495 442.818 255.315 441.056 255.127C439.106 255.037 437.853 255.015 437.298 255.06C436.743 255.105 436.368 255.36 436.188 255.825C436.001 256.102 435.813 256.8 435.633 257.91C435.446 259.02 435.213 260.325 434.936 261.802C434.561 263.752 434.193 265.747 433.826 267.78C433.451 269.82 433.106 271.725 432.783 273.48C432.461 275.242 432.161 276.817 431.876 278.212C431.591 279.607 431.366 280.672 431.178 281.415L430.758 283.364L419.493 283.784L419.636 287.542C419.636 288.652 419.681 289.904 419.778 291.299C419.868 292.687 419.966 293.849 420.056 294.779L420.333 298.394L423.813 298.537C426.041 298.537 427.293 298.679 427.571 298.957V300.344C427.571 301.087 427.526 301.964 427.428 302.984C427.241 304.094 427.053 305.647 426.873 307.642C426.686 309.637 426.498 311.609 426.318 313.552C426.318 314.849 426.198 316.754 425.973 319.252C425.741 321.757 425.366 324.351 424.863 327.036C424.353 329.729 423.776 332.249 423.123 334.619C422.471 336.981 421.736 338.676 420.896 339.696C420.618 340.071 420.521 340.371 420.618 340.604C420.708 340.836 421.083 341.136 421.728 341.511C422.193 341.789 422.913 342.186 423.881 342.696C424.856 343.206 425.801 343.739 426.731 344.294C427.841 344.849 429.168 345.479 430.698 346.169C432.228 346.859 433.638 347.489 434.943 348.044C437.628 348.974 439.391 349.694 440.231 350.196C440.876 350.594 441.266 350.946 441.408 351.254C435.326 360.801 426.071 371.518 414.506 373.228L432.026 400.213C432.026 400.213 447.003 384.958 455.83 366.471C456.01 366.561 456.325 366.741 456.775 367.033C457.42 367.453 458.215 368.076 459.138 368.908C461.268 370.858 462.985 372.336 464.283 373.356C465.58 374.376 466.735 375.261 467.763 375.996L469.435 377.106L470.688 375.156C471.055 374.601 471.385 374.046 471.663 373.483C471.94 372.921 472.173 372.606 472.36 372.508C472.45 372.231 472.75 371.676 473.268 370.836C473.778 370.003 474.31 369.073 474.865 368.053C476.163 365.548 477.07 363.838 477.58 362.909C478.09 361.986 478.203 361.236 477.925 360.681C477.738 360.404 477.273 359.826 476.538 358.941L476.545 358.964ZM457.075 299.084C456.985 299.362 456.933 299.707 456.933 300.127C456.933 300.547 456.843 300.982 456.655 301.447C456.565 302.467 456.4 303.742 456.168 305.272C455.935 306.802 455.77 308.264 455.68 309.652C455.59 310.582 455.305 312.367 454.848 315.007C454.383 317.647 453.828 320.407 453.175 323.279C452.523 326.151 451.878 328.799 451.225 331.206C450.573 333.621 450.018 335.099 449.553 335.654C449.463 335.654 449.298 335.631 449.065 335.586C448.833 335.541 448.578 335.429 448.3 335.241C448.023 335.151 447.513 334.821 446.77 334.266C446.028 333.711 445.15 333.059 444.13 332.316C443.2 331.484 442.413 330.786 441.768 330.231C441.116 329.676 440.793 329.256 440.793 328.979C440.793 328.889 440.861 328.514 441.003 327.869C441.146 327.224 441.348 326.571 441.625 325.919C441.903 324.621 442.248 322.904 442.668 320.774C443.088 318.644 443.388 316.327 443.575 313.822C443.763 311.969 443.943 311.039 444.13 311.039C444.318 310.949 444.43 310.552 444.475 309.854C444.52 309.157 444.633 308.302 444.82 307.282C444.82 306.172 444.865 304.987 444.963 303.734C445.053 302.482 445.195 301.394 445.383 300.464L445.803 297.262L451.225 297.539C452.898 297.539 454.263 297.562 455.328 297.607C456.393 297.652 456.97 297.772 457.068 297.952V299.062L457.075 299.084Z" fill="#053793"/>
<path d="M708 366.494C676.65 371.668 651.315 358.364 632.573 341.436C632.866 340.604 633.593 339.606 634.756 338.444C636.121 336.599 637.328 334.866 638.401 333.261C639.473 331.656 640.831 329.594 642.488 327.059C644.138 324.532 646.065 321.442 648.255 317.797C650.445 314.152 652.95 309.847 655.77 304.882C657.233 302.354 658.448 300.307 659.415 298.754C660.383 297.202 661.065 296.077 661.455 295.402C661.748 294.622 662.063 293.894 662.4 293.212C662.738 292.529 663.008 291.899 663.203 291.314L664.08 288.832H678.233V280.657L678.525 271.755C674.828 271.755 671.28 271.732 667.875 271.68C664.47 271.635 661.215 271.56 658.095 271.462C656.055 271.365 654.008 271.297 651.968 271.245C649.928 271.2 647.955 271.17 646.058 271.17C644.16 271.17 642.436 271.192 640.876 271.245C639.316 271.297 638.003 271.32 636.938 271.32L629.348 271.027L629.063 270.6L630.376 249L603.631 252.937L610.658 273.435L611.348 273.345L611.401 273.51L583.824 273.075H563.904C558.894 273.075 556.247 273.172 555.954 273.367C555.954 273.465 555.977 274.29 556.029 275.85C556.074 277.41 556.104 279.3 556.104 281.542L556.539 289.274L574.194 288.982L574.336 290.152C575.409 293.362 576.909 297.427 578.859 302.339C580.801 307.252 582.991 312.262 585.421 317.369C587.851 322.477 590.356 327.292 592.936 331.814C595.509 336.336 597.916 339.861 600.159 342.396C597.046 345.411 594.541 347.849 592.644 349.694C590.746 351.539 589.411 352.859 588.631 353.631C586.201 356.061 583.576 358.154 580.749 359.909C577.929 361.656 575.109 363.411 572.289 365.159C571.606 365.451 570.781 365.796 569.806 366.179C568.831 366.569 567.834 366.936 566.814 367.274C565.794 367.619 564.864 367.934 564.039 368.219C563.214 368.511 562.652 368.706 562.359 368.804C562.067 368.804 561.924 368.946 561.924 369.239C561.924 369.531 562.164 370.528 562.652 372.231C563.139 373.933 563.724 375.786 564.399 377.773C565.081 379.768 565.711 381.666 566.296 383.466C566.881 385.266 567.264 386.458 567.466 387.043C567.466 387.531 567.759 387.966 568.344 388.356C568.734 388.551 569.169 388.671 569.656 388.723C570.144 388.768 571.066 388.648 572.431 388.356C581.281 386.113 589.404 382.371 596.799 377.121C604.186 371.871 611.048 366.081 617.371 359.759L617.956 358.881L619.853 360.629C620.438 361.311 621.218 362.091 622.186 362.961C623.153 363.839 624.158 364.686 625.178 365.511C626.198 366.336 627.218 367.139 628.246 367.919C629.266 368.699 630.166 369.328 630.946 369.816C633.863 371.953 637.313 374.173 641.303 376.453C644.738 378.426 647.91 380.143 650.843 381.643C676.883 397.326 700.072 400.206 700.072 400.206L707.977 366.494H708ZM616.516 289.567H625.126C627.751 289.567 630.038 289.589 631.981 289.642C633.923 289.694 635.483 289.717 636.653 289.717H638.551C638.161 290.594 637.478 292.004 636.511 293.947C635.536 295.897 634.373 298.102 633.008 300.584C631.643 303.067 630.166 305.617 628.561 308.242C626.956 310.867 625.373 313.274 623.821 315.464C622.261 317.654 620.806 319.454 619.441 320.864C618.076 322.274 616.958 322.979 616.088 322.979C615.796 322.979 615.511 322.919 615.218 322.807C610.321 316.634 606.256 310.672 603.054 305.534C601.306 302.332 599.139 298.424 596.536 293.804L594.204 289.574H616.531L616.516 289.567Z" fill="#053793"/>
<defs>
<filter id="filter0_d_747_2828" x="20.749" y="36.0437" width="751.506" height="567.662" filterUnits="userSpaceOnUse" color-interpolation-filters="sRGB">
<feFlood flood-opacity="0" result="BackgroundImageFix"/>
<feColorMatrix in="SourceAlpha" type="matrix" values="0 0 0 0 0 0 0 0 0 0 0 0 0 0 0 0 0 0 127 0" result="hardAlpha"/>
<feOffset dx="10.9" dy="16.7"/>
<feColorMatrix type="matrix" values="0 0 0 0 0.529412 0 0 0 0 0.27451 0 0 0 0 0.137255 0 0 0 1 0"/>
<feBlend mode="normal" in2="BackgroundImageFix" result="effect1_dropShadow_747_2828"/>
<feBlend mode="normal" in="SourceGraphic" in2="effect1_dropShadow_747_2828" result="shape"/>
</filter>
<clipPath id="clip0_747_2828">
<rect width="423.341" height="107.152" fill="white" transform="translate(182.988 126.119)"/>
</clipPath>
</defs>
</svg>
