<svg width="789" height="624" viewBox="0 0 789 624" fill="none" xmlns="http://www.w3.org/2000/svg">
<g filter="url(#filter0_d_887_1277)">
<path d="M722.359 321.422C734.308 304.972 741.53 283.55 741.53 260.228C741.53 208.173 705.684 165.988 661.434 165.988C617.185 165.988 652.506 166.427 648.173 167.304C629.462 113.568 577.925 74.9656 517.263 74.9656C456.6 74.9656 485.75 77.6707 471.438 82.6422C467.105 80.522 462.575 78.6211 457.979 76.7933C432.703 49.8155 396.594 33 356.481 33C292.471 33 238.636 75.9891 222.814 134.331C217.824 133.235 212.704 132.577 207.517 132.577C178.368 132.577 152.895 150.928 138.845 178.271C130.442 173.153 120.857 170.302 110.746 170.302C76.8698 170.302 49.3616 202.617 49.3616 242.535C49.3616 282.454 53.1694 271.122 59.669 282.527V284.428C36.0999 306.946 21 341.308 21 379.837C21 447.611 67.6785 502.59 125.255 502.59C182.832 502.59 131.886 502.371 135.169 502.005C138.648 512.387 144.491 520.502 152.566 524.743C165.762 531.688 181.65 526.497 195.174 512.972C201.214 519.844 208.633 527.155 217.627 534.393C235.944 549.089 257.544 560.786 281.704 568.975C310.853 578.918 344.007 583.962 380.313 583.962C416.618 583.962 449.969 578.918 479.578 569.048C504.067 560.859 526.126 549.381 545.165 534.832C549.695 531.396 553.831 527.887 557.639 524.45C566.764 530.811 577.465 534.54 588.889 534.54C610.751 534.54 629.921 521.087 640.82 500.836C651.258 506.026 662.682 508.951 674.762 508.951C722.688 508.951 761.488 463.257 761.488 406.888C761.488 350.52 745.928 339.773 722.359 321.568V321.422Z" fill="#FFFBD2"/>
</g>
<ellipse cx="543.945" cy="135.041" rx="114.674" ry="76.8002" transform="rotate(15.3204 543.945 135.041)" fill="#FFFBD2"/>
<ellipse cx="119.5" cy="239" rx="76.5" ry="73" fill="#FFFBD2"/>
<path d="M171.894 457.112H169.194V463.59H165.06V457.112H155.443V453.732L163.795 438.618H169.11V453.357H171.809V457.112H171.894ZM165.06 453.263V448.194C165.06 446.785 165.145 444.438 165.229 443.03H165.145C164.639 444.345 163.964 445.753 163.373 447.067L159.914 453.263H165.145H165.06Z" fill="#DE5419"/>
<path d="M174.847 460.867C174.847 459.084 176.028 457.582 177.631 457.582C179.234 457.582 180.415 458.99 180.415 460.867C180.415 462.745 179.234 464.153 177.631 464.153C176.028 464.153 174.847 462.745 174.847 460.867Z" fill="#DE5419"/>
<path d="M183.367 460.586L185.476 457.394C186.826 458.802 188.429 459.928 190.453 459.928C192.478 459.928 194.249 458.708 194.249 456.455C194.249 454.202 192.984 452.418 188.007 452.418V448.851C192.14 448.851 193.49 447.255 193.49 445.002C193.49 442.749 192.394 441.904 190.453 441.81C188.85 441.81 187.501 442.655 186.235 444.063L183.957 441.059C185.898 439.181 188.091 437.961 190.706 437.961C195.093 437.961 197.961 440.308 197.961 444.626C197.961 448.945 196.612 449.32 194.165 450.353V450.541C196.696 451.292 198.636 453.451 198.636 456.737C198.636 460.022 195.009 463.965 190.706 463.965C186.404 463.965 184.717 462.463 183.198 460.492L183.367 460.586Z" fill="#DE5419"/>
<path d="M247.227 457.018C246.468 459.459 245.203 462.275 244.19 463.965C243.684 463.496 242.503 462.557 241.828 462.182C242.84 460.586 243.853 458.333 244.528 456.173L247.312 457.018H247.227ZM251.53 455.047V466.312H248.071V455.047H242.419V451.667H248.071V449.038H242.25V445.753H245.203C245.034 444.72 244.696 443.312 244.359 442.279L246.89 441.622H242.756V438.336H247.986C247.733 437.397 247.396 436.459 247.058 435.708L250.686 434.769C251.108 435.895 251.698 437.304 252.036 438.43H256.422V441.716H252.626L255.073 442.279C254.651 443.593 254.145 444.908 253.723 445.94H256.844V449.226H251.614V451.855H256.338V455.234H251.614L251.53 455.047ZM247.143 441.528C247.565 442.655 247.986 444.063 248.155 445.002L245.962 445.659H250.349C250.77 444.438 251.361 442.749 251.614 441.434H247.143V441.528ZM270.258 449.789H267.389V466.406H263.846V449.789H260.978V450.165C260.978 455.141 260.556 462.088 258.025 466.406C257.435 465.655 256.001 464.435 255.241 463.965C255.832 463.026 256.254 461.9 256.591 460.68L254.398 462.182C253.892 460.867 252.879 458.708 252.036 457.112L254.398 455.704C255.241 457.018 256.169 458.896 256.676 460.116C257.519 456.83 257.604 453.169 257.604 450.071V438.055C260.894 437.397 264.605 436.365 266.799 435.144L269.583 438.055C267.052 439.181 263.931 440.026 260.978 440.589V445.94H270.173V449.696L270.258 449.789Z" fill="#DE5419"/>
<path d="M285.612 456.83L286.287 460.398C281.984 462.463 277.345 464.528 273.717 466.124L272.114 461.994C274.223 461.243 277.092 460.21 280.213 458.99V446.973H273.211V442.936H280.213V435.52H284.009V457.488L285.696 456.83H285.612ZM295.482 461.618C296.579 461.618 296.748 460.022 297.001 454.014C297.844 454.765 299.447 455.61 300.459 455.892C300.122 462.933 299.278 465.561 295.82 465.561H292.192C288.818 465.561 287.805 464.153 287.805 459.459V435.52H291.602V442.936H299.531V446.973H291.602V459.553C291.602 461.337 291.77 461.712 292.783 461.712H295.482V461.618Z" fill="#DE5419"/>
<path d="M319.778 448.194C321.803 454.765 325.43 460.116 331.167 462.651C330.239 463.496 329.058 465.28 328.467 466.406C322.984 463.496 319.441 458.614 317.078 452.043C315.476 457.675 312.186 462.933 305.69 466.406C305.099 465.28 304.087 463.871 302.99 463.026C309.992 459.553 312.86 453.92 314.041 448.1H303.581V443.969H314.632C314.969 440.777 314.885 437.679 314.969 434.957H318.934C318.934 437.773 318.934 440.871 318.597 443.969H330.576V448.1H319.862L319.778 448.194Z" fill="#DE5419"/>
<path d="M361.704 438.524C360.608 441.81 359.258 445.565 357.992 448.569C360.608 451.573 361.114 454.296 361.114 456.455C361.114 458.614 360.608 460.68 359.427 461.524C358.92 461.994 358.161 462.276 357.318 462.463C356.643 462.557 355.63 462.557 354.702 462.463C354.702 461.337 354.365 459.647 353.774 458.614C354.534 458.614 355.124 458.708 355.715 458.614C356.137 458.614 356.643 458.52 356.896 458.333C357.486 457.957 357.655 457.112 357.655 456.079C357.655 454.202 356.98 451.761 354.534 449.132C355.377 446.692 356.474 443.312 357.233 440.683H353.353V466.594H349.81V437.585C348.882 440.12 347.869 442.561 346.519 444.814H348.797V448.288H344.242C343.567 449.132 342.976 449.977 342.301 450.728H347.785V466.031H344.326V464.716H339.433V466.406H336.143V456.173C335.637 456.549 335.131 456.924 334.625 457.206C334.203 456.361 333.191 454.671 332.516 453.826C335.215 452.418 337.662 450.541 339.771 448.288H333.275V444.814H338.59V441.998H334.625V438.524H338.59V435.238H341.964V438.524H345.085V440.214C345.676 438.993 346.098 437.773 346.604 436.459L349.81 437.398V436.74H359.089C359.089 436.646 361.704 438.43 361.704 438.43V438.524ZM344.41 453.92H339.518V456.079H344.41V453.92ZM344.41 461.524V459.084H339.518V461.524H344.41ZM342.639 444.72C343.229 443.875 343.736 442.936 344.326 441.904H342.048V444.72H342.639Z" fill="#DE5419"/>
<path d="M380.348 435.895C380.18 436.083 380.011 436.365 379.926 436.553C382.71 439.275 387.688 441.622 392.581 442.655C391.821 443.406 390.809 444.814 390.303 445.753C389.712 445.565 389.037 445.377 388.447 445.189V453.92H367.357V445.377C366.682 445.659 366.091 445.847 365.501 446.034C365.163 445.283 364.151 443.687 363.561 442.936C369.128 441.528 374.527 438.712 377.311 434.769L380.517 435.989L380.348 435.895ZM387.266 444.72C385.832 444.157 384.482 443.406 383.132 442.655V443.5H372.503V442.842C371.322 443.5 370.141 444.157 368.791 444.72H387.266ZM368.875 454.953H386.76V466.406H383.048V465.561H372.418V466.5H368.875V454.953ZM372.334 451.385C372.165 450.353 371.828 448.945 371.322 447.912L373.684 447.161H370.225V451.385H372.334ZM372.503 457.581V458.896H383.132V457.581H372.503ZM383.048 462.933V461.618H372.418V462.933H383.048ZM376.215 447.161H373.853C374.359 448.287 374.865 449.789 375.034 450.728L373.093 451.385H376.215V447.161ZM380.517 440.871C379.589 440.12 378.745 439.463 377.986 438.712C377.227 439.463 376.299 440.214 375.371 440.871H380.517ZM379.083 447.161V451.385H381.951L380.095 450.822C380.517 449.789 381.023 448.287 381.276 447.161H379.083ZM385.157 447.161H382.035L384.398 447.818C383.807 449.132 383.217 450.447 382.71 451.479H385.157V447.255V447.161Z" fill="#DE5419"/>
<path d="M405.994 437.116C403.801 442.655 400.257 448.381 396.967 451.949C396.293 451.104 394.69 449.32 393.762 448.475C396.967 445.471 400.173 440.589 402.029 435.614L406.078 437.022L405.994 437.116ZM414.514 452.7C416.961 456.455 419.745 461.243 421.263 464.341L417.551 466.5C417.13 465.561 416.623 464.435 415.949 463.214C401.27 464.529 399.161 464.716 397.727 465.28C397.474 464.435 396.799 462.182 396.208 460.961C397.22 460.68 398.064 459.741 399.245 458.239C400.511 456.831 404.307 451.01 406.753 445.377L410.971 447.349C408.609 451.949 405.741 456.455 402.788 460.116L413.924 459.271C412.912 457.582 411.984 455.798 410.971 454.296L414.514 452.512V452.7ZM415.105 435.708C416.37 440.402 419.154 445.189 422.95 447.724C422.107 448.569 420.841 450.541 420.251 451.761C416.792 448.851 414.093 444.251 412.405 439.838H407.512V435.708H415.189H415.105Z" fill="#DE5419"/>
<path d="M451.548 436.177V466.5H448.005V465.28H429.024V466.5H425.649V436.177H451.548ZM448.005 461.712V439.838H429.024V461.712H448.005ZM439.822 457.206C439.738 457.957 439.822 459.084 439.822 459.647C434.676 461.055 433.748 461.431 433.242 461.712C433.157 461.149 432.736 460.022 432.398 459.647C432.82 459.365 433.411 459.084 433.411 457.769V456.549C432.567 456.924 431.808 457.206 431.048 457.488C430.711 456.924 429.867 455.798 429.277 455.235C431.217 454.765 433.326 454.108 435.013 453.169H431.555V448.287H445.558V453.169H439.063C438.219 453.92 437.122 454.671 436.026 455.235V458.145L439.822 457.206ZM446.908 447.349H430.036V445.096H436.785V443.781H431.47V441.622H436.785V440.214H440.075V441.622H445.643V443.781H440.075V445.096H446.908V447.349ZM434.592 451.479H442.437V450.071H434.592V451.479ZM447.246 455.141C446.486 455.798 445.558 456.361 444.715 456.924C445.812 457.769 446.74 458.52 447.414 459.271L445.137 460.773C443.618 459.177 440.412 456.643 437.882 454.859L440.075 453.545C440.919 454.108 441.931 454.859 442.943 455.516C443.787 454.859 444.715 454.202 445.221 453.545L447.33 455.141H447.246Z" fill="#DE5419"/>
<path d="M468.083 459.553H472.892V443.687H468.842V440.589C471.12 440.12 472.638 439.463 474.073 438.524H477.363V459.553H481.581V463.59H468.083V459.553Z" fill="#DE5419"/>
<path d="M484.871 451.01C484.871 442.373 487.908 438.148 492.464 438.148C497.019 438.148 500.056 442.373 500.056 451.01C500.056 459.647 497.019 464.059 492.464 464.059C487.908 464.059 484.871 459.553 484.871 451.01ZM495.838 451.01C495.838 443.969 494.404 441.997 492.464 441.997C490.523 441.997 489.089 444.063 489.089 451.01C489.089 457.957 490.523 460.21 492.464 460.21C494.404 460.21 495.838 458.051 495.838 451.01Z" fill="#DE5419"/>
<path d="M503.599 448.006C503.599 446.128 504.78 444.72 506.383 444.72C507.986 444.72 509.167 446.128 509.167 448.006C509.167 449.883 507.986 451.198 506.383 451.198C504.78 451.198 503.599 449.789 503.599 448.006ZM503.599 460.867C503.599 459.084 504.78 457.581 506.383 457.581C507.986 457.581 509.167 458.99 509.167 460.867C509.167 462.745 507.986 464.153 506.383 464.153C504.78 464.153 503.599 462.745 503.599 460.867Z" fill="#DE5419"/>
<path d="M512.119 460.586L514.228 457.394C515.578 458.802 517.181 459.928 519.205 459.928C521.23 459.928 523.001 458.708 523.001 456.455C523.001 454.202 521.736 452.418 516.759 452.418V448.851C520.892 448.851 522.242 447.255 522.242 445.002C522.242 442.749 521.145 441.904 519.205 441.81C517.602 441.81 516.253 442.655 514.987 444.063L512.709 441.059C514.65 439.181 516.843 437.961 519.458 437.961C523.845 437.961 526.713 440.308 526.713 444.626C526.713 448.945 525.364 449.32 522.917 450.353V450.541C525.448 451.292 527.388 453.451 527.388 456.737C527.388 460.022 523.761 463.965 519.458 463.965C515.156 463.965 513.469 462.463 511.95 460.492L512.119 460.586Z" fill="#DE5419"/>
<path d="M530.51 451.01C530.51 442.373 533.547 438.148 538.102 438.148C542.658 438.148 545.695 442.373 545.695 451.01C545.695 459.647 542.658 464.059 538.102 464.059C533.547 464.059 530.51 459.553 530.51 451.01ZM541.561 451.01C541.561 443.969 540.127 441.997 538.187 441.997C536.246 441.997 534.812 444.063 534.812 451.01C534.812 457.957 536.246 460.21 538.187 460.21C540.127 460.21 541.561 458.051 541.561 451.01Z" fill="#DE5419"/>
<path d="M548.647 452.136H556.915V455.704H548.647V452.136Z" fill="#DE5419"/>
<path d="M560.88 459.553H565.688V443.687H561.639V440.589C563.917 440.12 565.435 439.463 566.869 438.524H570.16V459.553H574.378V463.59H560.88V459.553Z" fill="#DE5419"/>
<path d="M577.077 460.68L579.186 457.488C580.452 458.896 582.054 460.022 584.163 460.022C586.272 460.022 588.128 458.333 588.128 455.422C588.128 452.512 586.61 450.916 584.332 450.916C582.054 450.916 582.223 451.292 580.958 452.23L578.933 450.728L579.524 438.618H591.587V442.749H583.404L582.982 448.1C583.826 447.63 584.67 447.349 585.682 447.349C589.478 447.349 592.599 449.883 592.599 455.328C592.599 460.773 588.888 464.153 584.754 464.153C580.62 464.153 578.849 462.557 577.161 460.773L577.077 460.68Z" fill="#DE5419"/>
<path d="M596.311 448.006C596.311 446.128 597.492 444.72 599.095 444.72C600.698 444.72 601.879 446.128 601.879 448.006C601.879 449.883 600.698 451.198 599.095 451.198C597.492 451.198 596.311 449.789 596.311 448.006ZM596.311 460.867C596.311 459.084 597.492 457.581 599.095 457.581C600.698 457.581 601.879 458.99 601.879 460.867C601.879 462.745 600.698 464.153 599.095 464.153C597.492 464.153 596.311 462.745 596.311 460.867Z" fill="#DE5419"/>
<path d="M605.422 451.01C605.422 442.373 608.459 438.148 613.014 438.148C617.57 438.148 620.607 442.373 620.607 451.01C620.607 459.647 617.57 464.059 613.014 464.059C608.459 464.059 605.422 459.553 605.422 451.01ZM616.389 451.01C616.389 443.969 614.955 441.997 613.014 441.997C611.074 441.997 609.64 444.063 609.64 451.01C609.64 457.957 611.074 460.21 613.014 460.21C614.955 460.21 616.389 458.051 616.389 451.01Z" fill="#DE5419"/>
<path d="M623.307 451.01C623.307 442.373 626.344 438.148 630.899 438.148C635.455 438.148 638.492 442.373 638.492 451.01C638.492 459.647 635.455 464.059 630.899 464.059C626.344 464.059 623.307 459.553 623.307 451.01ZM634.358 451.01C634.358 443.969 632.924 441.997 630.983 441.997C629.043 441.997 627.609 444.063 627.609 451.01C627.609 457.957 629.043 460.21 630.983 460.21C632.924 460.21 634.358 458.051 634.358 451.01Z" fill="#DE5419"/>
<path d="M219.389 467.063C227.356 467.063 233.814 459.876 233.814 451.01C233.814 442.144 227.356 434.957 219.389 434.957C211.421 434.957 204.963 442.144 204.963 451.01C204.963 459.876 211.421 467.063 219.389 467.063Z" fill="#DE5419"/>
<path d="M226.222 443.594V457.582H224.282V456.549H215.086V457.675H213.23V443.594H226.306H226.222ZM224.197 454.577V452.7C223.944 452.7 223.691 452.7 223.438 452.7H222.088C220.654 452.7 220.317 451.855 220.317 450.071V445.565H218.798C218.798 449.79 218.376 452.324 215.93 453.732C215.761 453.263 215.255 452.512 214.918 452.137V454.484H224.113L224.197 454.577ZM215.002 445.565V452.137C216.858 450.916 217.027 449.039 217.027 445.565H215.002ZM224.197 445.565H222.088V450.165C222.088 450.728 222.088 451.01 222.426 451.01H223.438C223.691 451.01 224.029 451.01 224.282 451.01V445.659L224.197 445.565Z" fill="white"/>
<g clip-path="url(#clip0_887_1277)">
<path d="M182.959 207.832L183.966 201.485C192.3 194.322 198.655 188.148 203.033 182.98C207.41 177.803 209.914 173.203 210.551 169.172C211.003 166.337 210.699 164.136 209.655 162.57C208.603 161.003 206.899 160.22 204.529 160.22C201.581 160.22 198.24 162.108 194.507 165.892L190.085 159.924C192.959 157.039 195.707 154.92 198.336 153.576C200.966 152.233 203.907 151.565 207.173 151.565C211.87 151.565 215.403 153.123 217.766 156.231C220.136 159.338 220.914 163.46 220.099 168.587C218.766 176.995 211.647 187.2 198.751 199.185C202.122 198.79 204.862 198.592 206.959 198.592H217.692L216.225 207.849H182.959V207.832Z" fill="#E95513"/>
<path d="M250.98 206.077C247.195 211.056 242.713 213.537 237.521 213.537C232.328 213.537 228.625 211.047 226.395 206.077C224.166 201.098 223.788 193.959 225.262 184.653C226.736 175.347 229.351 168.282 233.114 163.46C236.876 158.638 241.358 156.223 246.565 156.223C251.772 156.223 255.491 158.638 257.728 163.46C259.957 168.282 260.335 175.355 258.861 184.653C257.387 193.951 254.758 201.098 250.972 206.077H250.98ZM234.558 184.843C232.432 198.254 233.862 204.956 238.847 204.956C243.832 204.956 247.387 198.254 249.513 184.843C251.639 171.431 250.209 164.729 245.224 164.729C240.239 164.729 236.684 171.431 234.558 184.843Z" fill="#E95513"/>
<path d="M261.965 203.167L262.972 196.82C271.305 189.656 277.661 183.482 282.039 178.314C286.416 173.137 288.92 168.538 289.557 164.507C290.009 161.671 289.705 159.47 288.661 157.904C287.609 156.338 285.905 155.555 283.535 155.555C280.587 155.555 277.246 157.443 273.513 161.226L269.091 155.258C271.965 152.373 274.713 150.255 277.342 148.911C279.972 147.567 282.913 146.9 286.179 146.9C290.875 146.9 294.409 148.458 296.772 151.565C299.142 154.673 299.92 158.794 299.105 163.922C297.772 172.33 290.653 182.534 277.757 194.52C281.127 194.124 283.868 193.926 285.964 193.926H296.697L295.231 203.183H261.965V203.167Z" fill="#E95513"/>
<path d="M315.253 207.948C308.586 207.948 303.401 205.434 299.683 200.405L305.357 193.39C308.208 197.125 311.556 198.988 315.401 198.988C318.038 198.988 320.304 198.089 322.201 196.3C324.097 194.512 325.29 192.022 325.801 188.84C326.304 185.658 325.934 183.194 324.69 181.455C323.445 179.715 321.549 178.841 319.001 178.841C317.571 178.841 316.319 179.056 315.245 179.476C314.171 179.897 312.786 180.655 311.097 181.751L307.127 178.471L312.727 151.598H339.289L337.823 160.855H319.779L316.986 172.577C319.164 171.53 321.238 171.011 323.201 171.011C327.63 171.011 331.045 172.503 333.46 175.487C335.874 178.471 336.615 182.872 335.689 188.7C334.763 194.52 332.341 199.185 328.408 202.697C324.475 206.208 320.097 207.956 315.267 207.956L315.253 207.948Z" fill="#E95513"/>
<path d="M391.844 163.963C392.436 178.487 398.458 188.164 409.784 193.201L411.421 184.612C403.881 180.754 399.829 173.871 399.14 163.955H414.903L416.214 157.08H387.37L389.51 145.878H415.621L416.917 139.151H390.807L393.088 129.507H385.288L383.007 139.151H357.052L355.763 145.878H381.725L379.577 157.08H350.896L349.585 163.955H365.17C362.096 173.278 355.519 180.391 345.259 185.263L343.719 193.341C350.37 190.901 356.481 187.134 361.992 181.867C366.474 177.721 370.015 171.794 372.563 163.955H378.266L367.022 215.935H374.814L386.066 163.955H391.859L391.844 163.963Z" fill="#E95513" stroke="white" stroke-width="8.26" stroke-linecap="round" stroke-linejoin="round"/>
<path d="M471.338 208.978L472.887 200.389C463.79 196.886 456.724 191.816 451.694 185.271C457.472 183.243 461.894 180.441 464.916 176.929C466.813 180.507 469.724 183.416 473.568 185.502L475.005 177.556C471.724 175.833 469.687 173.03 468.916 169.288C468.998 168.81 469.176 168.348 469.257 167.87L470.272 162.182H463.183L462.102 168.183C461.198 172.7 457.813 176.055 452.006 178.256L450.931 184.257C449.643 182.534 448.457 180.663 447.487 178.561L450.902 159.594H479.923L481.279 152.043H452.272L455.191 136.019H447.124L444.228 152.043H416.725L415.362 159.594H442.872L439.88 176.146C438.369 179.179 436.265 182.056 433.717 184.711L435.006 177.547C431.65 175.825 429.65 173.162 428.895 169.444C428.984 168.966 429.154 168.414 429.258 167.862L430.287 162.174H423.184L422.11 168.175C421.214 172.692 417.828 176.047 412.014 178.248L410.673 185.65C416.977 183.474 421.702 180.589 424.925 176.921C426.68 180.432 429.45 183.235 433.221 185.263C427.199 191.264 418.214 196.407 406.369 200.694L404.91 208.805C418.717 204.28 429.539 198.114 437.295 190.481L430.169 229.85H438.221L445.183 189.549C451.124 198.196 460.087 204.675 471.338 208.962" fill="#E95513"/>
<path d="M471.338 208.978L472.887 200.389C463.79 196.886 456.724 191.816 451.694 185.271C457.472 183.243 461.894 180.441 464.916 176.929C466.813 180.507 469.724 183.416 473.568 185.502L475.005 177.556C471.724 175.833 469.687 173.03 468.916 169.288C468.998 168.81 469.176 168.348 469.257 167.87L470.272 162.182H463.183L462.102 168.183C461.198 172.7 457.813 176.055 452.006 178.256L450.931 184.257C449.643 182.534 448.457 180.663 447.487 178.561L450.902 159.594H479.923L481.279 152.043H452.272L455.191 136.019H447.124L444.228 152.043H416.725L415.362 159.594H442.872L439.88 176.146C438.369 179.179 436.265 182.056 433.717 184.711L435.006 177.547C431.65 175.825 429.65 173.162 428.895 169.444C428.984 168.966 429.154 168.414 429.258 167.862L430.287 162.174H423.184L422.11 168.175C421.214 172.692 417.828 176.047 412.014 178.248L410.673 185.65C416.977 183.474 421.702 180.589 424.925 176.921C426.68 180.432 429.45 183.235 433.221 185.263C427.199 191.264 418.214 196.407 406.369 200.694L404.91 208.805C418.717 204.28 429.539 198.114 437.295 190.481L430.169 229.85H438.221L445.183 189.549C451.124 198.196 460.087 204.675 471.338 208.962" stroke="white" stroke-width="8.26" stroke-linecap="round" stroke-linejoin="round"/>
<path d="M576.692 168.299L577.914 162.43C584.158 159.05 590.795 154.59 596.676 149.982L598.95 139.481L553.981 139.357L552.092 148.466H585.536C580.884 151.788 575.247 155.258 570.47 157.574L568.24 168.299H541.211L539.3 177.481H566.321L562.499 195.847C562.225 197.158 561.67 197.545 560.151 197.619C558.907 197.685 551.448 197.693 547.329 197.504L545.285 207.288C551.64 207.288 563.114 207.247 563.299 207.247C567.233 207.247 569.788 203.422 570.773 198.641L574.781 177.481H601.262L603.173 168.299H576.692Z" fill="#E95513" stroke="white" stroke-width="8.26" stroke-linecap="round" stroke-linejoin="round"/>
<path d="M514.523 144.147H505.375C505.153 142.605 504.797 140.924 504.434 139.349H496.153L495.842 139.44C496.101 140.825 496.361 142.531 496.568 144.147H485.924L484.368 151.631H512.96L514.516 144.147H514.523Z" fill="#E95513" stroke="white" stroke-width="8.26" stroke-linecap="round" stroke-linejoin="round"/>
<path d="M481.531 185.922C480.99 187.571 476.42 192.377 474.205 192.748C474.205 192.748 472.457 202.071 472.516 202.071C477.049 200.076 485.012 192.871 487.805 186.095L481.531 185.922Z" fill="#E95513" stroke="white" stroke-width="8.26" stroke-linecap="round" stroke-linejoin="round"/>
<path d="M505.901 195.229C505.39 192.451 504.442 189.055 503.56 185.84L497.472 185.988C498.19 188.28 498.835 192.327 499.309 195.229H505.901Z" fill="#E95513" stroke="white" stroke-width="8.26" stroke-linecap="round" stroke-linejoin="round"/>
<path d="M517.619 176.237L518.612 171.456H531.441L530.449 176.237H517.619ZM521.101 159.495H533.93L532.938 164.284H520.108L521.101 159.495ZM523.575 147.609H536.404L535.412 152.39H522.582L523.575 147.609ZM532.049 192.962C530.901 197.751 530.819 199.466 529.575 199.466H527.804C527.056 199.466 526.967 199.235 527.382 197.224L530.093 184.183H536.441L545.715 139.58H518.004L508.731 184.183H512.212C510.168 191.462 507.39 197.57 499.746 200.372L498.005 208.78C510.368 206.695 516.375 195.666 519.649 184.183H522.723L519.997 197.306C518.456 204.717 519.153 207.264 524.886 207.264H528.841C535.093 207.264 535.819 203.521 538.656 192.962H532.049Z" fill="#E95513" stroke="white" stroke-width="8.26" stroke-linecap="round" stroke-linejoin="round"/>
<path d="M503.731 151.796L503.716 151.788V151.796H503.731Z" fill="#E95513" stroke="white" stroke-width="8.26" stroke-linecap="round" stroke-linejoin="round"/>
<path d="M510.634 153.511H503.093C502.034 156.297 500.604 159.528 499.382 162.133H480.953L479.353 169.848H492.389L491.286 175.174H478.93L477.338 182.815H489.693L484.345 208.517H491.715L497.063 182.815H506.826L508.411 175.174H498.649L499.76 169.848H510.611L512.219 162.133H506.211C507.559 159.536 509.056 156.561 510.641 153.511" fill="#E95513"/>
<path d="M510.634 153.511H503.093C502.034 156.297 500.604 159.528 499.382 162.133H480.953L479.353 169.848H492.389L491.286 175.174H478.93L477.338 182.815H489.693L484.345 208.517H491.715L497.063 182.815H506.826L508.411 175.174H498.649L499.76 169.848H510.611L512.219 162.133H506.211C507.559 159.536 509.056 156.561 510.641 153.511" stroke="white" stroke-width="8.26" stroke-linecap="round" stroke-linejoin="round"/>
<path d="M494.441 161.548C494.53 159.792 494.493 155.942 494.256 153.684H487.56L487.404 153.717C487.627 155.654 487.693 159.462 487.634 161.548H494.434H494.441Z" fill="#E95513" stroke="white" stroke-width="8.26" stroke-linecap="round" stroke-linejoin="round"/>
<path d="M391.844 163.963C392.436 178.487 398.458 188.164 409.784 193.201L411.421 184.612C403.881 180.754 399.829 173.871 399.14 163.955H414.903L416.214 157.08H387.37L389.51 145.878H415.621L416.917 139.151H390.807L393.088 129.507H385.288L383.007 139.151H357.052L355.763 145.878H381.725L379.577 157.08H350.896L349.585 163.955H365.17C362.096 173.278 355.519 180.391 345.259 185.263L343.719 193.341C350.37 190.901 356.481 187.134 361.992 181.867C366.474 177.721 370.015 171.794 372.563 163.955H378.266L367.022 215.935H374.814L386.066 163.955H391.859L391.844 163.963Z" fill="#E95513"/>
<path d="M471.338 208.978L472.887 200.389C463.79 196.886 456.724 191.816 451.694 185.271C457.472 183.243 461.894 180.441 464.916 176.929C466.813 180.507 469.724 183.416 473.568 185.502L475.005 177.556C471.724 175.833 469.687 173.03 468.916 169.288C468.998 168.81 469.176 168.348 469.257 167.87L470.272 162.182H463.183L462.102 168.183C461.198 172.7 457.813 176.055 452.006 178.256L450.931 184.257C449.643 182.534 448.457 180.663 447.487 178.561L450.902 159.594H479.923L481.279 152.043H452.272L455.191 136.019H447.124L444.228 152.043H416.725L415.362 159.594H442.872L439.88 176.146C438.369 179.179 436.265 182.056 433.717 184.711L435.006 177.547C431.65 175.825 429.65 173.162 428.895 169.444C428.984 168.966 429.154 168.414 429.258 167.862L430.287 162.174H423.184L422.11 168.175C421.214 172.692 417.828 176.047 412.014 178.248L410.673 185.65C416.977 183.474 421.702 180.589 424.925 176.921C426.68 180.432 429.45 183.235 433.221 185.263C427.199 191.264 418.214 196.407 406.369 200.694L404.91 208.805C418.717 204.28 429.539 198.114 437.295 190.481L430.169 229.85H438.221L445.183 189.549C451.124 198.196 460.087 204.675 471.338 208.962" fill="#E95513"/>
<path d="M576.692 168.299L577.914 162.43C584.158 159.05 590.795 154.59 596.676 149.982L598.95 139.481L553.981 139.357L552.092 148.466H585.536C580.884 151.788 575.247 155.258 570.47 157.574L568.24 168.299H541.211L539.3 177.481H566.321L562.499 195.847C562.225 197.158 561.67 197.545 560.151 197.619C558.907 197.685 551.448 197.693 547.329 197.504L545.285 207.288C551.64 207.288 563.114 207.247 563.299 207.247C567.233 207.247 569.788 203.422 570.773 198.641L574.781 177.481H601.262L603.173 168.299H576.692Z" fill="#E95513"/>
<path d="M514.523 144.147H505.375C505.153 142.605 504.797 140.924 504.434 139.349H496.153L495.842 139.44C496.101 140.825 496.361 142.531 496.568 144.147H485.924L484.368 151.631H512.96L514.516 144.147H514.523Z" fill="#E95513"/>
<path d="M481.531 185.922C480.99 187.571 476.42 192.377 474.205 192.748C474.205 192.748 472.457 202.071 472.516 202.071C477.049 200.076 485.012 192.871 487.805 186.095L481.531 185.922Z" fill="#E95513"/>
<path d="M505.901 195.229C505.39 192.451 504.442 189.055 503.56 185.84L497.472 185.988C498.19 188.28 498.835 192.327 499.309 195.229H505.901Z" fill="#E95513"/>
<path d="M517.619 176.237L518.612 171.456H531.441L530.449 176.237H517.619ZM521.101 159.495H533.93L532.938 164.284H520.108L521.101 159.495ZM523.575 147.609H536.404L535.412 152.39H522.582L523.575 147.609ZM532.049 192.962C530.901 197.751 530.819 199.466 529.575 199.466H527.804C527.056 199.466 526.967 199.235 527.382 197.224L530.093 184.183H536.441L545.715 139.58H518.004L508.731 184.183H512.212C510.168 191.462 507.39 197.57 499.746 200.372L498.005 208.78C510.368 206.695 516.375 195.666 519.649 184.183H522.723L519.997 197.306C518.456 204.717 519.153 207.264 524.886 207.264H528.841C535.093 207.264 535.819 203.521 538.656 192.962H532.049Z" fill="#E95513"/>
<path d="M503.731 151.796L503.716 151.788V151.796H503.731Z" fill="#E95513"/>
<path d="M510.634 153.511H503.093C502.034 156.297 500.604 159.528 499.382 162.133H480.953L479.353 169.848H492.389L491.286 175.174H478.93L477.338 182.815H489.693L484.345 208.517H491.715L497.063 182.815H506.826L508.411 175.174H498.649L499.76 169.848H510.611L512.219 162.133H506.211C507.559 159.536 509.056 156.561 510.641 153.511" fill="#E95513"/>
<path d="M494.441 161.548C494.53 159.792 494.493 155.942 494.256 153.684H487.56L487.404 153.717C487.627 155.654 487.693 159.462 487.634 161.548H494.434H494.441Z" fill="#E95513"/>
</g>
<path d="M239.315 258.45C239.172 256.043 239.06 254.693 238.97 254.415C238.97 254.138 238.625 253.95 237.927 253.86C237.23 253.77 235.82 253.718 233.683 253.718C232.941 253.808 231.734 253.883 230.069 253.928C228.397 253.973 226.387 254.018 224.017 254.07C221.655 254.115 219.008 254.138 216.091 254.138H206.98C200.861 254.138 195.717 254.183 191.548 254.28C187.379 254.37 185.152 254.468 184.874 254.558C184.784 254.558 184.664 255.878 184.529 258.525C184.394 261.172 184.319 265.545 184.319 271.665C184.132 275.19 184.019 278.617 183.974 281.955C183.929 285.292 183.907 287.842 183.907 289.605C183.719 292.665 183.697 294.817 183.839 296.069C183.982 297.322 184.282 297.944 184.747 297.944H224.1L225.952 381.876L247.961 382.873L239.517 261.84C239.45 260.602 239.39 259.47 239.33 258.45H239.315ZM224.085 287.94H219.841C219.233 287.94 218.798 288.03 218.521 288.217C218.243 288.217 217.224 288.24 215.461 288.285C213.699 288.33 211.705 288.45 209.485 288.63L201.139 288.772V282.795L205.173 282.517C206.283 282.517 207.903 282.495 210.04 282.45C212.169 282.405 214.352 282.382 216.579 282.382H224.085V287.947V287.94ZM224.085 272.077H201.416L201.139 269.017V265.68C201.326 265.68 202.481 265.635 204.618 265.537C206.748 265.447 209.44 265.395 212.687 265.395H224.092V272.07L224.085 272.077Z" fill="#053793"/>
<path d="M210.842 315.247C210.16 314.759 208.825 313.859 206.83 312.547C204.835 311.234 202.766 309.847 200.629 308.392C198.199 306.742 196.249 305.452 194.795 304.522C193.332 303.599 192.215 302.939 191.443 302.549C190.663 302.159 190.13 302.017 189.838 302.114C189.546 302.212 189.403 302.407 189.403 302.699C189.208 303.089 188.916 303.644 188.526 304.379C188.136 305.107 187.701 305.887 187.213 306.712C186.726 307.537 186.269 308.317 185.826 309.044C185.384 309.772 185.069 310.282 184.881 310.574L183.712 311.744L186.779 314.077C187.851 314.857 188.968 315.682 190.13 316.559C191.3 317.437 192.365 318.217 193.34 318.892C194.217 319.477 194.99 320.039 195.672 320.572C196.354 321.104 196.692 321.427 196.692 321.517C196.692 321.907 196.257 321.907 195.38 321.517C193.632 321.419 190.438 321.247 185.826 321.007C181.207 320.767 175.635 320.594 169.119 320.497L155.554 320.062L160.368 315.247C161.628 313.882 162.753 312.674 163.72 311.602C164.687 310.529 165.227 309.854 165.325 309.562C165.715 309.172 165.52 308.639 164.74 307.957C164.545 307.762 164.305 307.664 164.013 307.664C163.915 307.567 163.84 307.522 163.795 307.522C163.75 307.522 163.675 307.477 163.578 307.379C163.48 307.184 163.09 306.922 162.408 306.577C161.725 306.239 160.946 305.774 160.076 305.189C159.101 304.409 158.254 303.854 157.526 303.509C156.799 303.172 156.289 302.999 155.996 302.999C155.411 302.999 154.782 303.142 154.099 303.434C153.417 303.727 152.884 304.162 152.495 304.747C152.007 305.234 151.257 305.894 150.23 306.719C149.21 307.544 147.868 308.594 146.218 309.854C144.561 311.122 143.031 312.284 141.621 313.357C140.212 314.429 138.869 315.397 137.61 316.274C136.147 317.347 134.858 318.269 133.74 319.049C132.623 319.829 132.061 320.317 132.061 320.512C132.158 320.804 132.331 321.367 132.57 322.192C132.81 323.017 133.08 323.894 133.373 324.817C133.665 325.739 133.98 326.662 134.318 327.592C134.655 328.514 135.023 329.272 135.412 329.857C135.997 331.604 136.725 332.481 137.602 332.481C138.382 332.481 139.544 331.994 141.104 331.019C141.981 330.532 142.709 330.119 143.294 329.782C143.879 329.444 144.216 329.272 144.313 329.272C144.606 329.272 144.748 332.534 144.748 339.051V346.199C144.748 348.149 144.846 349.214 145.041 349.409V351.156L145.183 352.176H150.582C151.07 352.176 151.505 352.229 151.895 352.319C152.48 352.319 152.862 352.371 153.064 352.461C153.162 352.656 153.139 353.121 152.989 353.849C152.847 354.576 152.622 355.379 152.33 356.256C152.037 357.134 151.722 358.056 151.385 359.031C151.04 360.006 150.725 360.779 150.44 361.364C150.05 362.144 149.495 362.991 148.76 363.914C148.033 364.836 147.275 365.691 146.496 366.464C145.033 368.121 143.504 369.404 141.899 370.334C140.294 371.256 138.562 371.961 136.717 372.448C136.132 372.741 135.622 372.958 135.188 373.108C134.753 373.258 134.528 373.378 134.528 373.476C134.528 373.671 135.06 374.646 136.132 376.393C137.205 378.141 138.464 380.091 139.927 382.228C140.804 383.691 141.456 384.561 141.899 384.853C142.334 385.146 143.286 385.093 144.741 384.711C148.828 384.126 152.397 382.716 155.464 380.481C158.531 378.246 161.081 375.426 163.12 372.021C164.29 369.786 165.505 367.154 166.765 364.139C168.024 361.124 168.954 358.544 169.539 356.406L170.124 353.054H173.191L176.258 352.911V355.101C176.258 356.076 176.333 357.704 176.475 359.991C176.618 362.279 176.79 364.686 176.985 367.214C177.18 369.741 177.398 372.103 177.645 374.293C177.885 376.483 178.103 377.968 178.305 378.741C178.695 379.911 179.595 380.833 181.005 381.516C182.414 382.198 184.626 382.828 187.641 383.413C188.608 383.608 189.808 383.758 191.218 383.848C192.628 383.946 194.112 383.991 195.665 383.991C197.217 383.991 198.731 383.916 200.186 383.773C201.641 383.631 202.961 383.406 204.123 383.113C204.61 383.016 205.045 382.948 205.435 382.896C205.825 382.851 206.215 382.821 206.605 382.821C206.8 382.723 206.973 382.678 207.115 382.678C207.258 382.678 207.43 382.633 207.625 382.536C207.722 382.341 207.745 381.568 207.7 380.203C207.647 378.838 207.527 377.136 207.332 375.096L206.748 367.799H199.451C197.119 367.799 195.267 367.776 193.91 367.724C192.545 367.679 191.72 367.559 191.428 367.356C190.94 366.966 190.603 366.141 190.408 364.874C190.213 363.614 190.115 361.274 190.115 357.869L190.258 352.176L192.448 352.034C193.227 352.034 194.075 351.989 194.997 351.891C195.919 351.794 196.767 351.749 197.547 351.749H200.171L200.314 345.621C200.509 344.069 200.629 341.976 200.681 339.344C200.726 336.719 200.756 334.289 200.756 332.046C200.951 330.007 201.071 328.252 201.124 326.797C201.169 325.334 201.289 324.607 201.491 324.607C202.751 325.387 203.973 326.017 205.135 326.504C206.305 326.992 207.033 327.187 207.325 327.089C207.52 327.089 207.835 326.774 208.27 326.144C208.705 325.514 209.17 324.779 209.657 323.954C210.145 323.129 210.579 322.372 210.969 321.689C211.359 321.007 211.599 320.617 211.697 320.519C212.184 319.642 212.574 318.989 212.867 318.547C213.159 318.112 213.301 317.744 213.301 317.452C213.301 316.769 212.477 316.042 210.819 315.262L210.842 315.247ZM184.581 340.776L177.435 340.634C175.396 340.439 173.153 340.319 170.724 340.266C168.294 340.221 166.202 340.191 164.447 340.191L159.048 339.899V333.336L162.258 333.194C163.135 333.194 164.785 333.149 167.214 333.051C169.644 332.954 172.224 332.909 174.946 332.909H184.574V340.791L184.581 340.776Z" fill="#053793"/>
<path d="M143.369 302.474C145.461 302.332 146.796 302.204 147.381 302.107C148.16 301.912 149.42 301.739 151.175 301.597C152.922 301.454 154.872 301.379 157.009 301.379C159.536 301.184 161.456 301.042 162.768 300.944C164.08 300.847 165.055 300.704 165.685 300.509C166.315 300.314 166.682 300.052 166.78 299.707C166.877 299.369 166.922 298.904 166.922 298.319C167.02 297.734 167.117 296.107 167.215 293.429C167.312 290.752 167.357 287.67 167.357 284.167C167.455 280.957 167.522 277.77 167.575 274.612C167.62 271.455 167.695 268.312 167.792 265.2C167.89 258.975 168.032 255.42 168.227 254.55C168.227 254.257 158.794 254.115 139.927 254.115H111.634L111.492 268.417C111.297 272.505 111.177 276.172 111.124 279.435C111.072 282.697 111.049 284.857 111.049 285.93C110.757 290.887 110.517 295.657 110.322 300.232C110.127 304.807 109.955 309.299 109.812 313.732C109.67 318.157 109.52 322.612 109.377 327.082C109.235 331.559 109.107 336.224 109.01 341.091C109.01 343.424 108.987 345.884 108.935 348.456C108.882 351.036 108.815 353.616 108.717 356.189C108.62 358.769 108.545 361.221 108.5 363.554C108.447 365.886 108.425 368.031 108.425 369.974C108.23 373.671 108.11 376.903 108.057 379.678C108.005 382.453 107.982 384.178 107.982 384.861V386.901H125.342V385.153C125.342 384.568 125.417 383.428 125.559 381.726C125.702 380.023 125.829 378.148 125.927 376.108C126.122 373.971 126.294 371.316 126.437 368.159C126.579 365.001 126.707 361.956 126.804 359.039C127.097 347.564 127.292 337.641 127.389 329.272C127.487 320.909 127.584 314.827 127.682 311.032V303.442L136.432 303.007C138.96 302.812 141.269 302.639 143.361 302.497L143.369 302.474ZM129.436 269.865V267.6C129.436 266.97 129.534 266.655 129.729 266.655C129.826 266.46 130.943 266.362 133.081 266.362C135.218 266.362 137.895 266.317 141.104 266.22H152.195V269.865C152.195 271.327 152.172 272.272 152.12 272.707C152.067 273.142 151.902 273.315 151.61 273.217C151.317 273.217 150.103 273.172 147.965 273.075C145.828 272.977 143.249 272.932 140.234 272.932H129.436V269.865ZM129.871 290.002C129.579 290.002 129.436 289.08 129.436 287.227V284.31H130.748C131.333 284.31 132.331 284.287 133.74 284.235C135.15 284.19 136.732 284.07 138.48 283.867C140.227 283.867 142.057 283.845 143.954 283.792C145.851 283.747 147.381 283.717 148.55 283.717H152.195V290.722L141.254 290.43C138.24 290.332 135.638 290.287 133.448 290.287C131.258 290.287 130.066 290.19 129.871 289.995V290.002Z" fill="#053793"/>
<path d="M395.655 376.236C395.07 376.236 393.975 376.071 392.371 375.726C390.766 375.388 389.064 374.998 387.264 374.556C385.464 374.121 383.785 373.678 382.233 373.243C380.673 372.809 379.608 372.493 379.023 372.299C379.023 372.104 379.316 372.006 379.9 372.006C381.745 372.201 383.792 372.149 386.027 371.864C387.579 371.669 388.801 371.571 389.671 371.571C390.541 371.571 391.081 371.526 391.276 371.429C391.471 370.259 391.591 367.589 391.643 363.404C391.688 359.226 391.666 353.481 391.568 346.184C391.471 338.886 391.426 333.149 391.426 328.964C391.426 324.779 391.373 322.109 391.283 320.939C391.576 320.647 389.484 320.504 385.007 320.504H355.83C350.873 320.602 346.246 320.677 341.972 320.722C337.69 320.774 333.993 320.819 330.881 320.864C327.769 320.917 325.287 320.939 323.443 320.939H320.376C320.278 322.012 320.203 324.419 320.158 328.162C320.106 331.904 320.083 337.139 320.083 343.844C320.083 350.549 320.106 355.904 320.158 359.894C320.203 363.884 320.278 366.554 320.376 367.919C320.376 368.211 320.398 368.601 320.451 369.089C320.496 369.576 320.526 369.966 320.526 370.259V371.864L325.775 372.006H331.024L325.625 374.196C323.968 374.781 322.393 375.343 320.886 375.876C319.378 376.408 318.239 376.731 317.459 376.821C315.996 377.308 315.127 377.796 314.834 378.283C314.542 378.771 314.782 379.843 315.562 381.493C315.659 382.176 315.899 382.956 316.289 383.826C316.679 384.703 316.919 385.528 317.016 386.308C317.309 386.991 317.579 387.598 317.819 388.131C318.059 388.663 318.231 388.978 318.329 389.076C320.856 389.076 323.675 388.513 326.787 387.396C329.899 386.278 332.569 385.183 334.811 384.111C336.273 383.331 337.51 382.701 338.53 382.213C339.55 381.726 340.06 381.336 340.06 381.043C340.157 380.848 340.037 380.383 339.692 379.656C339.347 378.928 338.89 378.126 338.305 377.248C337.915 376.761 337.548 376.206 337.21 375.568C336.865 374.938 336.55 374.331 336.265 373.746C336.46 373.453 338.478 373.236 342.317 373.086C346.156 372.943 351.578 372.816 358.582 372.719C360.524 372.524 362.301 372.426 363.906 372.426H372.004C372.102 372.426 372.049 372.771 371.862 373.446C371.667 374.128 371.427 374.953 371.134 375.928C370.355 378.553 370.04 380.211 370.19 380.886C370.332 381.568 371.284 382.101 373.032 382.491L379.158 384.531C380.23 384.823 381.423 385.138 382.735 385.476C384.047 385.813 385.187 386.083 386.162 386.278C387.234 386.376 388.299 386.548 389.371 386.788C390.444 387.028 391.366 387.201 392.146 387.298C392.821 387.493 393.436 387.591 393.968 387.591C394.5 387.591 394.815 387.493 394.913 387.298C395.01 387.006 395.183 386.421 395.423 385.551C395.663 384.673 395.985 383.556 396.368 382.198C396.758 380.833 396.997 379.716 397.095 378.846C397.192 377.968 397.192 377.293 397.095 376.806C397.095 376.416 396.608 376.221 395.633 376.221L395.655 376.236ZM342.264 329.542C344.304 329.542 347.176 329.497 350.873 329.399C354.57 329.302 358.312 329.257 362.106 329.257H375.094L374.801 330.569C374.606 331.057 374.531 331.514 374.584 331.957C374.629 332.392 374.659 332.759 374.659 333.051C374.951 333.344 373.976 333.486 371.742 333.486C369.41 333.584 363.861 333.584 355.11 333.486H335.703V331.447L335.411 329.699L342.264 329.557V329.542ZM335.403 343.116L338.47 342.824H345.691C348.848 342.824 352.913 342.876 357.877 342.966C362.833 343.064 366.68 343.109 369.402 343.109C372.124 343.109 373.871 343.161 374.651 343.251C374.749 343.251 374.794 343.521 374.794 344.054V347.924H356.265C350.723 347.924 346.149 347.849 342.549 347.706C338.95 347.564 336.955 347.489 336.565 347.489C336.078 347.294 335.763 347.054 335.621 346.761C335.478 346.469 335.403 345.884 335.403 345.014V343.116ZM375.521 361.649C375.326 361.649 373.309 361.701 369.47 361.791C365.623 361.889 360.839 361.934 355.102 361.934H344.379C341.605 361.934 339.64 361.889 338.47 361.791C336.041 361.694 334.968 361.499 335.261 361.206C335.358 361.109 335.403 360.914 335.403 360.621V359.744C335.306 359.451 335.643 359.234 336.423 359.084C337.203 358.941 339.287 358.716 342.699 358.424C346.786 358.034 351.158 357.741 355.83 357.546C360.501 357.351 365.023 357.254 369.395 357.254H375.229L375.521 359.294V361.626V361.649Z" fill="#053793"/>
<path d="M290.321 313.057C286.137 313.057 282.342 313.034 278.938 312.982C275.534 312.937 273.396 312.907 272.519 312.907C271.349 312.712 270.599 312.667 270.255 312.764C269.91 312.862 269.647 313.057 269.452 313.349C269.452 314.032 269.475 314.954 269.527 316.124C269.572 317.294 269.625 318.487 269.67 319.702C269.715 320.916 269.79 322.086 269.887 323.204C269.985 324.321 270.082 325.176 270.18 325.754C270.18 325.949 270.637 325.994 271.567 325.896C272.489 325.799 273.681 325.754 275.144 325.754C276.606 325.656 278.691 325.536 281.42 325.386C284.142 325.244 286.819 325.071 289.444 324.876C292.068 324.779 294.595 324.659 297.032 324.509C299.462 324.366 301.164 324.291 302.139 324.291L305.933 323.856L305.641 319.184C305.641 317.722 305.618 316.484 305.566 315.464C305.513 314.444 305.491 313.882 305.491 313.784C305.491 313.589 304.396 313.469 302.206 313.417C300.017 313.372 296.058 313.252 290.314 313.049L290.321 313.057Z" fill="#053793"/>
<path d="M315.562 308.242L316.439 317.287L319.941 317.872C321.111 318.067 322.513 318.164 324.17 318.164H330.447C331.519 318.067 333.071 317.999 335.118 317.947C337.158 317.902 339.497 317.849 342.122 317.804C344.747 317.759 347.619 317.729 350.73 317.729H360.216C366.538 317.632 371.787 317.534 375.971 317.437C380.148 317.339 383.507 317.242 386.034 317.144C388.561 317.047 390.361 316.927 391.433 316.777C392.506 316.634 393.038 316.507 393.038 316.409C393.233 316.312 393.376 315.997 393.473 315.464C393.571 314.932 393.668 314.002 393.766 312.689C393.863 311.377 393.931 309.577 393.983 307.289C394.028 305.002 394.058 302.062 394.058 298.462V285.472H381.363C377.861 285.472 374.846 285.524 372.319 285.614C369.792 285.712 368.285 285.757 367.798 285.757C367.408 285.757 364.903 285.854 360.284 286.049C355.665 286.244 349.951 286.342 343.142 286.342C336.138 286.537 330.207 286.657 325.34 286.709C320.473 286.762 317.556 286.882 316.589 287.077L314.257 287.219L314.399 293.204C314.399 294.952 314.542 297.239 314.834 300.059C315.127 302.879 315.367 305.602 315.562 308.234V308.242ZM368.232 296.279V294.967H380.05V296.429C380.05 297.599 379.855 298.177 379.466 298.177C379.271 298.372 378.663 298.469 377.643 298.469C376.624 298.469 375.379 298.522 373.924 298.612C371.299 298.612 369.672 298.514 369.035 298.319C368.397 298.124 368.135 297.442 368.232 296.279ZM349.411 302.842C351.06 301.964 352.253 300.967 352.988 299.849C353.715 298.732 354.277 297.104 354.667 294.959C354.667 294.179 355.2 293.789 356.272 293.789C357.149 293.789 357.584 294.029 357.584 294.517C357.584 295.784 357.749 297.217 358.094 298.822C358.432 300.427 358.844 301.619 359.332 302.399C359.526 303.374 360.351 304.124 361.814 304.664C363.276 305.197 364.926 305.587 366.77 305.834C368.615 306.074 370.392 306.224 372.094 306.269C373.797 306.322 374.989 306.344 375.671 306.344C378.003 306.344 379.443 306.367 379.975 306.419C380.508 306.472 380.778 306.637 380.778 306.929L380.92 307.807L354.66 308.099C337.638 308.197 328.834 308.197 328.257 308.099C328.257 307.904 328.204 307.709 328.114 307.514C328.017 307.319 328.062 307.124 328.257 306.929C328.257 306.539 329.277 306.344 331.324 306.344C335.411 306.344 338.86 306.074 341.68 305.542C344.499 305.009 347.079 304.109 349.411 302.842ZM328.257 295.109C328.354 295.109 329.134 295.087 330.589 295.034C332.051 294.989 333.896 294.959 336.131 294.959C339.632 294.959 341.747 294.982 342.474 295.034C343.202 295.087 343.277 295.349 342.692 295.837C342.497 295.934 342.01 296.129 341.23 296.422C340.45 296.714 339.625 297.007 338.748 297.299C337.773 297.592 336.73 297.862 335.613 298.102C334.496 298.342 333.424 298.537 332.404 298.687C331.384 298.829 330.484 298.927 329.704 298.979C328.924 299.032 328.437 299.054 328.242 299.054C328.047 298.762 327.949 298.109 327.949 297.082C327.949 296.054 328.047 295.402 328.242 295.109H328.257Z" fill="#053793"/>
<path d="M278.653 305.467C281.082 305.467 283.392 305.392 285.581 305.249C287.771 305.107 289.301 304.934 290.178 304.739C291.055 304.642 292.15 304.522 293.462 304.372C294.775 304.222 295.922 304.154 296.889 304.154C298.149 303.959 299.199 303.787 300.024 303.644C300.849 303.502 301.509 303.427 301.996 303.427C302.483 303.427 302.776 303.382 302.873 303.284H303.308C303.406 303.284 303.503 302.774 303.601 301.754C303.698 300.734 303.743 299.489 303.743 298.034V292.492H287.261C282.784 292.492 278.968 292.544 275.811 292.634C272.646 292.732 270.921 292.829 270.629 292.927C270.434 292.927 270.314 293.512 270.262 294.674C270.209 295.844 270.187 297.449 270.187 299.489L270.329 305.617L278.645 305.474L278.653 305.467Z" fill="#053793"/>
<path d="M278.653 285.33C282.545 285.33 286.332 285.285 290.036 285.187C293.733 285.09 296.597 285.045 298.645 285.045H305.206V272.205H301.269C299.867 272.205 298.832 272.13 298.15 271.98L299.207 249.008L275.406 253.62L280.22 272.092C279.088 272.13 277.356 272.077 275.009 271.912C272.766 271.912 270.824 271.837 269.175 271.695C267.517 271.552 266.453 271.477 265.965 271.477L264.503 271.335L264.645 276.585C264.84 278.047 264.96 279.36 265.013 280.522C265.058 281.692 265.088 282.42 265.088 282.712C265.088 283.005 265.133 283.32 265.23 283.657C265.328 284.002 265.373 284.265 265.373 284.46C265.275 284.655 265.32 284.805 265.515 284.895C265.71 284.992 266.265 285.09 267.195 285.187C268.117 285.285 269.482 285.33 271.282 285.33H278.653Z" fill="#053793"/>
<path d="M306.953 335.452C303.744 335.309 299.807 335.137 295.135 334.942C290.081 334.649 285.844 334.454 282.44 334.357C279.036 334.259 276.358 334.214 274.416 334.214C272.474 334.214 271.087 334.267 270.262 334.357C269.437 334.454 269.025 334.597 269.025 334.792C268.927 335.767 268.882 338.002 268.882 341.504C268.882 345.006 268.83 349.821 268.74 355.949C268.642 362.174 268.62 367.206 268.665 371.054C268.71 374.901 268.785 377.646 268.882 379.296L269.025 381.921H275.586C276.366 381.921 277.723 381.899 279.673 381.846C281.615 381.801 283.827 381.749 286.309 381.704C288.791 381.659 291.416 381.561 294.19 381.411C296.965 381.269 299.537 381.096 301.922 380.901C304.306 380.706 306.368 380.444 308.123 380.099C309.87 379.761 310.942 379.394 311.332 379.004C311.43 378.906 311.497 378.104 311.55 376.596C311.595 375.089 311.647 373.169 311.692 370.836C311.737 368.504 311.79 365.969 311.835 363.246C311.88 360.524 311.932 357.944 311.977 355.514C312.022 353.084 312.052 350.969 312.052 349.169V345.741C312.15 342.629 312.195 340.177 312.195 338.377C312.195 336.577 312.142 335.677 312.052 335.677C311.857 335.677 310.155 335.602 306.946 335.459L306.953 335.452ZM296.747 363.689L296.455 367.919L293.83 368.061C293.148 368.256 292.248 368.376 291.131 368.429C290.014 368.481 289.016 368.504 288.139 368.504H285.364L285.072 358.439V348.516H290.763L296.747 348.809V363.689Z" fill="#053793"/>
<path d="M317.826 280.515C317.871 281.392 317.901 281.88 317.901 281.977H320.308C321.718 281.977 323.66 281.955 326.142 281.902C328.624 281.857 331.488 281.805 334.75 281.76C338.005 281.715 341.537 281.64 345.331 281.542C349.125 281.542 352.845 281.52 356.489 281.467C360.133 281.422 363.44 281.37 366.41 281.325C369.379 281.28 371.974 281.227 374.216 281.182C376.451 281.137 378.055 281.107 379.03 281.107C380.875 281.107 382.674 281.085 384.429 281.032C386.176 280.987 387.346 280.957 387.931 280.957L390.413 280.665V275.85C390.413 274.005 390.361 272.715 390.271 271.98C390.173 271.252 389.978 270.787 389.686 270.592C389.588 270.495 388.591 270.397 386.694 270.3C384.797 270.202 381.662 270.255 377.283 270.442C373.878 270.54 370.984 270.585 368.599 270.585H364.73C364.34 270.877 364.145 270.247 364.145 268.687C363.95 267.907 363.905 267.3 364.003 266.865C364.1 266.43 364.145 266.16 364.145 266.062C364.828 265.672 367.647 265.432 372.604 265.335C375.131 265.237 377.658 265.17 380.192 265.117C382.719 265.072 385.246 264.997 387.781 264.9H389.971V255.705L383.409 255.562C381.46 255.367 379.323 255.247 376.99 255.195C374.658 255.15 372.611 255.12 370.864 255.12H366.417C365.202 255.12 364.445 255.022 364.153 254.827C363.665 254.827 363.35 254.662 363.208 254.317C363.065 253.98 362.99 253.125 362.99 251.767V249H355.042C354.119 249 353.512 249.052 353.22 249.142C353.025 249.142 352.56 249.195 351.832 249.285C351.105 249.382 350.25 249.427 349.283 249.427H345.931V252.495L345.788 255.562L331.931 255.705C328.039 255.705 324.784 255.757 322.152 255.847C319.528 255.945 318.066 256.042 317.773 256.14C317.773 256.335 317.721 256.965 317.631 258.037C317.533 259.11 317.488 260.37 317.488 261.832V267.525L324.784 267.09C326.824 267.09 328.939 267.015 331.128 266.872C333.318 266.73 335.14 266.655 336.602 266.655C337.862 266.557 339.227 266.46 340.689 266.362C342.151 266.265 343.314 266.22 344.191 266.22H347.108L346.816 268.702V271.035L340.539 271.327C336.16 271.522 332.591 271.695 329.816 271.837C327.042 271.98 324.829 272.107 323.18 272.205C321.523 272.302 320.338 272.377 319.603 272.422C318.876 272.475 318.411 272.542 318.216 272.64C317.728 272.64 317.458 272.88 317.413 273.367C317.361 273.855 317.391 275.212 317.488 277.455C317.683 278.625 317.803 279.645 317.856 280.522L317.826 280.515Z" fill="#053793"/>
<path d="M544.609 311.047C544.234 311.047 543.544 311.024 542.525 310.979C541.505 310.934 540.065 310.867 538.213 310.769C536.361 310.679 534.621 310.627 533.001 310.627H523.613L523.755 305.062C523.755 302.557 523.823 300.914 523.965 300.127C524.108 299.339 524.453 298.762 525.008 298.387C525.473 297.922 526.117 297.067 526.957 295.814C527.797 294.562 528.629 293.242 529.462 291.847C531.411 289.065 533.076 286.837 534.471 285.172C535.866 283.507 537.253 282.345 538.64 281.692C540.028 280.582 540.725 279.93 540.725 279.742C541.002 278.445 541.145 276.037 541.145 272.512C541.145 270.75 541.122 269.22 541.077 267.922C541.032 266.625 540.957 265.56 540.867 264.72C540.867 264.075 540.8 263.422 540.657 262.77C540.515 262.125 540.312 261.75 540.035 261.66C539.945 261.382 539.36 261.195 538.295 261.105C537.231 261.015 535.446 260.917 532.941 260.827C530.992 260.827 528.839 260.782 526.477 260.685C524.115 260.595 522.098 260.497 520.426 260.407C518.941 260.22 517.111 260.13 514.929 260.13C512.747 260.13 510.828 260.22 509.155 260.407C507.483 260.407 505.054 260.475 501.852 260.617C498.65 260.76 495.478 260.827 492.328 260.827L480.788 261.247L481.065 264.727C481.433 268.897 481.688 272.032 481.83 274.117C481.973 276.202 482.13 277.342 482.318 277.522H484.545C485.19 277.522 485.984 277.5 486.907 277.455C487.829 277.41 488.856 277.342 489.966 277.245C494.698 276.967 499.49 276.735 504.356 276.547C509.223 276.36 514.022 276.27 518.746 276.27C518.746 276.36 518.469 276.757 517.914 277.455C517.359 278.152 516.752 279.007 516.107 280.027C515.087 281.137 514.09 282.322 513.115 283.575C512.14 284.827 511.33 285.915 510.678 286.845C509.935 287.865 509.148 288.885 508.315 289.905C507.483 290.924 506.786 291.809 506.231 292.544C505.676 293.287 505.166 293.984 504.701 294.629C504.236 295.282 503.869 295.739 503.591 296.017C503.404 296.482 503.246 297.434 503.104 298.867C502.961 300.307 502.894 302.272 502.894 304.777C502.894 305.797 502.871 306.772 502.826 307.694C502.781 308.624 502.706 309.457 502.617 310.199C502.617 310.574 502.639 310.919 502.684 311.242C502.729 311.564 502.661 311.917 502.474 312.284C502.287 312.472 501.034 312.562 498.717 312.562H489.959L477.721 312.704V321.052L477.443 329.399L489.959 329.257L502.332 328.837L502.054 338.991C502.054 341.961 502.032 344.766 501.987 347.406C501.942 350.046 501.822 351.974 501.642 353.181C501.642 354.479 501.619 356.054 501.574 357.914C501.529 359.766 501.409 361.529 501.229 363.201C501.229 364.964 501.207 366.404 501.162 367.514C501.117 368.624 501.094 369.231 501.094 369.321C500.907 369.321 500.607 369.366 500.187 369.464C499.767 369.554 499.28 369.606 498.725 369.606C497.615 369.606 496.475 369.674 495.32 369.816C494.158 369.959 492.883 370.071 491.496 370.161L490.244 370.438L490.664 375.861C490.851 377.346 490.964 378.778 491.009 380.173C491.053 381.561 491.121 382.626 491.218 383.376C491.218 383.931 491.263 384.441 491.361 384.906C491.451 385.371 491.548 385.603 491.638 385.603C491.826 385.791 492.313 385.881 493.101 385.881L525.015 388.746L523.83 328.027H533.361L544.902 327.749L545.044 319.402C545.044 316.342 545.022 314.234 544.977 313.072C544.932 311.917 544.812 311.242 544.632 311.054L544.609 311.047Z" fill="#053793"/>
<path d="M476.469 358.964C475.726 358.086 474.751 357.224 473.552 356.391C473.274 356.204 472.697 355.791 471.812 355.139C470.927 354.494 470.005 353.751 469.03 352.911C468.055 352.071 467.178 351.291 466.39 350.549C465.603 349.806 465.206 349.251 465.206 348.876C465.206 348.689 465.296 348.299 465.483 347.691C465.671 347.091 465.993 346.371 466.458 345.539C467.103 343.964 467.823 341.991 468.61 339.629C469.397 337.266 469.93 335.339 470.207 333.854L471.46 328.844C472.104 326.339 472.644 323.579 473.057 320.572C473.477 317.557 473.912 314.617 474.377 311.737C474.744 308.122 475.119 304.919 475.486 302.137C475.854 299.354 476.086 297.824 476.184 297.547C476.371 297.547 476.626 297.479 476.949 297.337C477.271 297.194 477.668 297.127 478.133 297.127L479.941 296.849V290.032C480.031 288.082 480.083 286.552 480.083 285.442C480.083 284.332 479.993 283.522 479.806 283.005C479.618 282.495 479.296 282.195 478.831 282.097C478.366 282.007 477.721 282.007 476.881 282.097H474.931L474.789 279.315C474.789 277.552 474.647 276.532 474.369 276.255C474.369 276.067 473.882 275.977 472.907 275.977C471.932 275.977 469.547 276.067 465.746 276.255L460.182 276.397V279.6C460.272 280.807 460.249 281.595 460.114 281.962C459.972 282.337 459.717 282.57 459.349 282.66C459.072 282.75 458.539 282.802 457.752 282.802C456.965 282.802 456.102 282.78 455.18 282.735C454.25 282.69 453.305 282.645 452.33 282.592C451.356 282.547 450.501 282.525 449.758 282.525V282.382C449.758 282.292 449.781 282.195 449.826 282.105C449.871 282.015 449.893 281.917 449.893 281.827C450.171 280.995 450.493 279.465 450.868 277.237C451.236 275.01 451.611 272.46 451.978 269.587C452.165 267.735 452.345 266.092 452.533 264.652C452.72 263.212 452.9 262.357 453.088 262.08C453.178 261.615 453.275 261.157 453.365 260.692C453.455 260.227 453.553 259.77 453.643 259.305C453.643 258.382 453.5 257.707 453.223 257.287C452.945 256.867 452.338 256.567 451.416 256.38C449.563 256.102 447.801 255.87 446.129 255.682C444.457 255.495 442.747 255.315 440.985 255.127C439.035 255.037 437.783 255.015 437.228 255.06C436.673 255.105 436.298 255.36 436.118 255.825C435.931 256.102 435.743 256.8 435.563 257.91C435.376 259.02 435.143 260.325 434.866 261.802C434.491 263.752 434.124 265.747 433.756 267.78C433.381 269.82 433.036 271.725 432.714 273.48C432.391 275.242 432.091 276.817 431.806 278.212C431.521 279.607 431.297 280.672 431.109 281.415L430.689 283.364L419.426 283.784L419.569 287.542C419.569 288.652 419.614 289.904 419.711 291.299C419.801 292.687 419.899 293.849 419.988 294.779L420.266 298.394L423.745 298.537C425.972 298.537 427.225 298.679 427.502 298.957V300.344C427.502 301.087 427.457 301.964 427.36 302.984C427.172 304.094 426.985 305.647 426.805 307.642C426.617 309.637 426.43 311.609 426.25 313.552C426.25 314.849 426.13 316.754 425.905 319.252C425.672 321.757 425.298 324.351 424.795 327.036C424.285 329.729 423.708 332.249 423.055 334.619C422.403 336.981 421.668 338.676 420.828 339.696C420.551 340.071 420.453 340.371 420.551 340.604C420.641 340.836 421.016 341.136 421.661 341.511C422.126 341.789 422.845 342.186 423.813 342.696C424.788 343.206 425.732 343.739 426.662 344.294C427.772 344.849 429.099 345.479 430.629 346.169C432.159 346.859 433.569 347.489 434.873 348.044C437.558 348.974 439.32 349.694 440.16 350.196C440.805 350.594 441.195 350.946 441.337 351.254C435.256 360.801 426.002 371.518 414.439 373.228L431.956 400.213C431.956 400.213 446.931 384.958 455.757 366.471C455.937 366.561 456.252 366.741 456.702 367.033C457.347 367.453 458.142 368.076 459.064 368.908C461.194 370.858 462.911 372.336 464.208 373.356C465.506 374.376 466.66 375.261 467.688 375.996L469.36 377.106L470.612 375.156C470.98 374.601 471.31 374.046 471.587 373.483C471.864 372.921 472.097 372.606 472.284 372.508C472.374 372.231 472.674 371.676 473.192 370.836C473.702 370.003 474.234 369.073 474.789 368.053C476.086 365.548 476.994 363.838 477.504 362.909C478.013 361.986 478.126 361.236 477.848 360.681C477.661 360.404 477.196 359.826 476.461 358.941L476.469 358.964ZM457.002 299.084C456.912 299.362 456.86 299.707 456.86 300.127C456.86 300.547 456.77 300.982 456.582 301.447C456.492 302.467 456.327 303.742 456.095 305.272C455.862 306.802 455.697 308.264 455.607 309.652C455.517 310.582 455.232 312.367 454.775 315.007C454.31 317.647 453.755 320.407 453.103 323.279C452.45 326.151 451.805 328.799 451.153 331.206C450.501 333.621 449.946 335.099 449.481 335.654C449.391 335.654 449.226 335.631 448.993 335.586C448.761 335.541 448.506 335.429 448.229 335.241C447.951 335.151 447.441 334.821 446.699 334.266C445.956 333.711 445.079 333.059 444.059 332.316C443.129 331.484 442.342 330.786 441.697 330.231C441.045 329.676 440.722 329.256 440.722 328.979C440.722 328.889 440.79 328.514 440.932 327.869C441.075 327.224 441.277 326.571 441.555 325.919C441.832 324.621 442.177 322.904 442.597 320.774C443.017 318.644 443.317 316.327 443.504 313.822C443.692 311.969 443.872 311.039 444.059 311.039C444.247 310.949 444.359 310.552 444.404 309.854C444.449 309.157 444.562 308.302 444.749 307.282C444.749 306.172 444.794 304.987 444.892 303.734C444.982 302.482 445.124 301.394 445.312 300.464L445.732 297.262L451.153 297.539C452.825 297.539 454.19 297.562 455.255 297.607C456.32 297.652 456.897 297.772 456.995 297.952V299.062L457.002 299.084Z" fill="#053793"/>
<path d="M707.886 366.494C676.542 371.668 651.211 358.364 632.472 341.436C632.764 340.604 633.492 339.606 634.654 338.444C636.019 336.599 637.226 334.866 638.298 333.261C639.371 331.656 640.728 329.594 642.385 327.059C644.035 324.532 645.962 321.442 648.152 317.797C650.341 314.152 652.846 309.847 655.665 304.882C657.128 302.354 658.342 300.307 659.31 298.754C660.277 297.202 660.96 296.077 661.349 295.402C661.642 294.622 661.957 293.894 662.294 293.212C662.632 292.529 662.902 291.899 663.097 291.314L663.974 288.832H678.124V280.657L678.416 271.755C674.72 271.755 671.173 271.732 667.768 271.68C664.364 271.635 661.109 271.56 657.99 271.462C655.95 271.365 653.903 271.297 651.864 271.245C649.824 271.2 647.852 271.17 645.955 271.17C644.057 271.17 642.333 271.192 640.773 271.245C639.213 271.297 637.901 271.32 636.836 271.32L629.248 271.027L628.963 270.6L630.275 249L603.534 252.937L610.561 273.435L611.251 273.345L611.303 273.51L583.73 273.075H563.814C558.805 273.075 556.158 273.172 555.865 273.367C555.865 273.465 555.888 274.29 555.94 275.85C555.985 277.41 556.015 279.3 556.015 281.542L556.45 289.274L574.102 288.982L574.245 290.152C575.317 293.362 576.817 297.427 578.766 302.339C580.708 307.252 582.898 312.262 585.328 317.369C587.757 322.477 590.262 327.292 592.841 331.814C595.413 336.336 597.82 339.861 600.063 342.396C596.951 345.411 594.446 347.849 592.549 349.694C590.652 351.539 589.317 352.859 588.537 353.631C586.107 356.061 583.483 358.154 580.656 359.909C577.836 361.656 575.017 363.411 572.197 365.159C571.515 365.451 570.69 365.796 569.715 366.179C568.74 366.569 567.743 366.936 566.723 367.274C565.704 367.619 564.774 367.934 563.949 368.219C563.124 368.511 562.562 368.706 562.269 368.804C561.977 368.804 561.834 368.946 561.834 369.239C561.834 369.531 562.074 370.528 562.562 372.231C563.049 373.933 563.634 375.786 564.309 377.773C564.991 379.768 565.621 381.666 566.206 383.466C566.791 385.266 567.173 386.458 567.376 387.043C567.376 387.531 567.668 387.966 568.253 388.356C568.643 388.551 569.078 388.671 569.565 388.723C570.053 388.768 570.975 388.648 572.34 388.356C581.188 386.113 589.309 382.371 596.703 377.121C604.089 371.871 610.951 366.081 617.272 359.759L617.857 358.881L619.754 360.629C620.339 361.311 621.119 362.091 622.086 362.961C623.054 363.839 624.058 364.686 625.078 365.511C626.098 366.336 627.118 367.139 628.145 367.919C629.165 368.699 630.065 369.328 630.845 369.816C633.762 371.953 637.211 374.173 641.2 376.453C644.635 378.426 647.807 380.143 650.739 381.643C676.774 397.326 699.96 400.206 699.96 400.206L707.864 366.494H707.886ZM616.417 289.567H625.026C627.65 289.567 629.937 289.589 631.88 289.642C633.822 289.694 635.381 289.717 636.551 289.717H638.448C638.058 290.594 637.376 292.004 636.409 293.947C635.434 295.897 634.272 298.102 632.907 300.584C631.542 303.067 630.065 305.617 628.46 308.242C626.855 310.867 625.273 313.274 623.721 315.464C622.161 317.654 620.706 319.454 619.342 320.864C617.977 322.274 616.86 322.979 615.99 322.979C615.697 322.979 615.412 322.919 615.12 322.807C610.223 316.634 606.159 310.672 602.957 305.534C601.21 302.332 599.043 298.424 596.441 293.804L594.109 289.574H616.432L616.417 289.567Z" fill="#053793"/>
<defs>
<filter id="filter0_d_887_1277" x="21" y="33" width="751.387" height="567.662" filterUnits="userSpaceOnUse" color-interpolation-filters="sRGB">
<feFlood flood-opacity="0" result="BackgroundImageFix"/>
<feColorMatrix in="SourceAlpha" type="matrix" values="0 0 0 0 0 0 0 0 0 0 0 0 0 0 0 0 0 0 127 0" result="hardAlpha"/>
<feOffset dx="10.9" dy="16.7"/>
<feColorMatrix type="matrix" values="0 0 0 0 0.529412 0 0 0 0 0.27451 0 0 0 0 0.137255 0 0 0 1 0"/>
<feBlend mode="normal" in2="BackgroundImageFix" result="effect1_dropShadow_887_1277"/>
<feBlend mode="normal" in="SourceGraphic" in2="effect1_dropShadow_887_1277" result="shape"/>
</filter>
<clipPath id="clip0_887_1277">
<rect width="423.273" height="107.152" fill="white" transform="translate(182.959 126.119)"/>
</clipPath>
</defs>
</svg>
