<svg width="789" height="624" viewBox="0 0 789 624" fill="none" xmlns="http://www.w3.org/2000/svg">
<g filter="url(#filter0_d_887_1981)">
<path d="M722.359 321.422C734.308 304.972 741.53 283.55 741.53 260.228C741.53 208.173 705.684 165.988 661.434 165.988C617.185 165.988 652.506 166.427 648.173 167.304C629.462 113.568 577.925 74.9656 517.263 74.9656C456.6 74.9656 485.75 77.6707 471.438 82.6422C467.105 80.522 462.575 78.6211 457.979 76.7933C432.703 49.8155 396.594 33 356.481 33C292.471 33 238.636 75.9891 222.814 134.331C217.824 133.235 212.704 132.577 207.517 132.577C178.368 132.577 152.895 150.928 138.845 178.271C130.442 173.153 120.857 170.302 110.746 170.302C76.8698 170.302 49.3616 202.617 49.3616 242.535C49.3616 282.454 53.1694 271.122 59.669 282.527V284.428C36.0999 306.946 21 341.308 21 379.837C21 447.611 67.6785 502.59 125.255 502.59C182.832 502.59 131.886 502.371 135.169 502.005C138.648 512.387 144.491 520.502 152.566 524.743C165.762 531.688 181.65 526.497 195.174 512.972C201.214 519.844 208.633 527.155 217.627 534.393C235.944 549.089 257.544 560.786 281.704 568.975C310.853 578.918 344.007 583.962 380.313 583.962C416.618 583.962 449.969 578.918 479.578 569.048C504.067 560.859 526.126 549.381 545.165 534.832C549.695 531.396 553.831 527.887 557.639 524.45C566.764 530.811 577.465 534.54 588.889 534.54C610.751 534.54 629.921 521.087 640.82 500.836C651.258 506.026 662.682 508.951 674.762 508.951C722.688 508.951 761.488 463.257 761.488 406.888C761.488 350.52 745.928 339.773 722.359 321.568V321.422Z" fill="#FFFBD2"/>
</g>
<ellipse cx="543.945" cy="135.041" rx="114.674" ry="76.8002" transform="rotate(15.3204 543.945 135.041)" fill="#FFFBD2"/>
<ellipse cx="119.5" cy="239" rx="76.5" ry="73" fill="#FFFBD2"/>
<path d="M171.894 457.112H169.195V463.59H165.061V457.112H155.444V453.732L163.796 438.618H169.11V453.357H171.81V457.112H171.894ZM165.061 453.263V448.194C165.061 446.785 165.145 444.438 165.23 443.03H165.145C164.639 444.345 163.964 445.753 163.374 447.067L159.915 453.263H165.145H165.061Z" fill="#DE5419"/>
<path d="M174.847 460.867C174.847 459.084 176.028 457.582 177.631 457.582C179.234 457.582 180.415 458.99 180.415 460.867C180.415 462.745 179.234 464.153 177.631 464.153C176.028 464.153 174.847 462.745 174.847 460.867Z" fill="#DE5419"/>
<path d="M183.367 460.586L185.476 457.394C186.826 458.802 188.429 459.928 190.453 459.928C192.478 459.928 194.249 458.708 194.249 456.455C194.249 454.202 192.984 452.418 188.007 452.418V448.851C192.14 448.851 193.49 447.255 193.49 445.002C193.49 442.749 192.394 441.904 190.453 441.81C188.85 441.81 187.501 442.655 186.235 444.063L183.957 441.059C185.898 439.181 188.091 437.961 190.706 437.961C195.093 437.961 197.961 440.308 197.961 444.626C197.961 448.945 196.612 449.32 194.165 450.353V450.541C196.696 451.292 198.636 453.451 198.636 456.737C198.636 460.022 195.009 463.965 190.706 463.965C186.404 463.965 184.717 462.463 183.198 460.492L183.367 460.586Z" fill="#DE5419"/>
<path d="M247.228 457.018C246.469 459.459 245.204 462.275 244.191 463.965C243.685 463.496 242.504 462.557 241.829 462.182C242.841 460.586 243.854 458.333 244.529 456.173L247.313 457.018H247.228ZM251.531 455.047V466.312H248.072V455.047H242.42V451.667H248.072V449.038H242.251V445.753H245.204C245.035 444.72 244.697 443.312 244.36 442.279L246.891 441.622H242.757V438.336H247.987C247.734 437.397 247.397 436.459 247.059 435.708L250.687 434.769C251.109 435.895 251.699 437.304 252.037 438.43H256.423V441.716H252.627L255.074 442.279C254.652 443.593 254.146 444.908 253.724 445.94H256.845V449.226H251.615V451.855H256.339V455.234H251.615L251.531 455.047ZM247.144 441.528C247.566 442.655 247.987 444.063 248.156 445.002L245.963 445.659H250.35C250.771 444.438 251.362 442.749 251.615 441.434H247.144V441.528ZM270.259 449.789H267.39V466.406H263.847V449.789H260.979V450.165C260.979 455.141 260.557 462.088 258.026 466.406C257.436 465.655 256.002 464.435 255.242 463.965C255.833 463.026 256.255 461.9 256.592 460.68L254.399 462.182C253.893 460.867 252.88 458.708 252.037 457.112L254.399 455.704C255.242 457.018 256.17 458.896 256.677 460.116C257.52 456.83 257.605 453.169 257.605 450.071V438.055C260.895 437.397 264.606 436.365 266.8 435.144L269.584 438.055C267.053 439.181 263.932 440.026 260.979 440.589V445.94H270.174V449.696L270.259 449.789Z" fill="#DE5419"/>
<path d="M285.612 456.83L286.287 460.398C281.984 462.463 277.345 464.528 273.717 466.124L272.114 461.994C274.223 461.243 277.092 460.21 280.213 458.99V446.973H273.211V442.936H280.213V435.52H284.009V457.488L285.696 456.83H285.612ZM295.482 461.618C296.579 461.618 296.748 460.022 297.001 454.014C297.844 454.765 299.447 455.61 300.459 455.892C300.122 462.933 299.278 465.561 295.82 465.561H292.192C288.818 465.561 287.805 464.153 287.805 459.459V435.52H291.602V442.936H299.531V446.973H291.602V459.553C291.602 461.337 291.77 461.712 292.783 461.712H295.482V461.618Z" fill="#DE5419"/>
<path d="M319.778 448.194C321.803 454.765 325.43 460.116 331.167 462.651C330.239 463.496 329.058 465.28 328.467 466.406C322.984 463.496 319.441 458.614 317.078 452.043C315.476 457.675 312.186 462.933 305.69 466.406C305.099 465.28 304.087 463.871 302.99 463.026C309.992 459.553 312.86 453.92 314.041 448.1H303.581V443.969H314.632C314.969 440.777 314.885 437.679 314.969 434.957H318.934C318.934 437.773 318.934 440.871 318.597 443.969H330.576V448.1H319.862L319.778 448.194Z" fill="#DE5419"/>
<path d="M361.705 438.524C360.609 441.81 359.259 445.565 357.993 448.569C360.609 451.573 361.115 454.296 361.115 456.455C361.115 458.614 360.609 460.68 359.428 461.524C358.921 461.994 358.162 462.276 357.319 462.463C356.644 462.557 355.631 462.557 354.703 462.463C354.703 461.337 354.366 459.647 353.775 458.614C354.535 458.614 355.125 458.708 355.716 458.614C356.138 458.614 356.644 458.52 356.897 458.333C357.487 457.957 357.656 457.112 357.656 456.079C357.656 454.202 356.981 451.761 354.535 449.132C355.378 446.692 356.475 443.312 357.234 440.683H353.354V466.594H349.81V437.585C348.883 440.12 347.87 442.561 346.52 444.814H348.798V448.288H344.243C343.568 449.132 342.977 449.977 342.302 450.728H347.786V466.031H344.327V464.716H339.434V466.406H336.144V456.173C335.638 456.549 335.132 456.924 334.626 457.206C334.204 456.361 333.191 454.671 332.517 453.826C335.216 452.418 337.663 450.541 339.772 448.288H333.276V444.814H338.591V441.998H334.626V438.524H338.591V435.238H341.965V438.524H345.086V440.214C345.677 438.993 346.099 437.773 346.605 436.459L349.81 437.398V436.74H359.09C359.09 436.646 361.705 438.43 361.705 438.43V438.524ZM344.411 453.92H339.519V456.079H344.411V453.92ZM344.411 461.524V459.084H339.519V461.524H344.411ZM342.64 444.72C343.23 443.875 343.737 442.936 344.327 441.904H342.049V444.72H342.64Z" fill="#DE5419"/>
<path d="M380.349 435.895C380.18 436.083 380.011 436.365 379.927 436.553C382.711 439.275 387.688 441.622 392.581 442.655C391.822 443.406 390.809 444.814 390.303 445.753C389.713 445.565 389.038 445.377 388.447 445.189V453.92H367.357V445.377C366.682 445.659 366.092 445.847 365.501 446.034C365.164 445.283 364.152 443.687 363.561 442.936C369.129 441.528 374.528 438.712 377.312 434.769L380.517 435.989L380.349 435.895ZM387.266 444.72C385.832 444.157 384.482 443.406 383.133 442.655V443.5H372.503V442.842C371.322 443.5 370.141 444.157 368.791 444.72H387.266ZM368.876 454.953H386.76V466.406H383.048V465.561H372.419V466.5H368.876V454.953ZM372.335 451.385C372.166 450.353 371.828 448.945 371.322 447.912L373.684 447.161H370.226V451.385H372.335ZM372.503 457.581V458.896H383.133V457.581H372.503ZM383.048 462.933V461.618H372.419V462.933H383.048ZM376.215 447.161H373.853C374.359 448.287 374.865 449.789 375.034 450.728L373.094 451.385H376.215V447.161ZM380.517 440.871C379.59 440.12 378.746 439.463 377.987 438.712C377.227 439.463 376.299 440.214 375.371 440.871H380.517ZM379.083 447.161V451.385H381.952L380.096 450.822C380.517 449.789 381.024 448.287 381.277 447.161H379.083ZM385.157 447.161H382.036L384.398 447.818C383.808 449.132 383.217 450.447 382.711 451.479H385.157V447.255V447.161Z" fill="#DE5419"/>
<path d="M405.994 437.116C403.801 442.655 400.258 448.381 396.968 451.949C396.293 451.104 394.69 449.32 393.762 448.475C396.968 445.471 400.174 440.589 402.03 435.614L406.079 437.022L405.994 437.116ZM414.515 452.7C416.961 456.455 419.745 461.243 421.264 464.341L417.552 466.5C417.13 465.561 416.624 464.435 415.949 463.214C401.27 464.529 399.161 464.716 397.727 465.28C397.474 464.435 396.799 462.182 396.209 460.961C397.221 460.68 398.065 459.741 399.246 458.239C400.511 456.831 404.307 451.01 406.754 445.377L410.972 447.349C408.61 451.949 405.741 456.455 402.789 460.116L413.924 459.271C412.912 457.582 411.984 455.798 410.972 454.296L414.515 452.512V452.7ZM415.105 435.708C416.371 440.402 419.155 445.189 422.951 447.724C422.107 448.569 420.842 450.541 420.251 451.761C416.793 448.851 414.093 444.251 412.406 439.838H407.513V435.708H415.19H415.105Z" fill="#DE5419"/>
<path d="M451.549 436.177V466.5H448.006V465.28H429.025V466.5H425.65V436.177H451.549ZM448.006 461.712V439.838H429.025V461.712H448.006ZM439.823 457.206C439.739 457.957 439.823 459.084 439.823 459.647C434.677 461.055 433.749 461.431 433.243 461.712C433.158 461.149 432.737 460.022 432.399 459.647C432.821 459.365 433.412 459.084 433.412 457.769V456.549C432.568 456.924 431.809 457.206 431.049 457.488C430.712 456.924 429.868 455.798 429.278 455.235C431.218 454.765 433.327 454.108 435.014 453.169H431.556V448.287H445.559V453.169H439.064C438.22 453.92 437.123 454.671 436.027 455.235V458.145L439.823 457.206ZM446.909 447.349H430.037V445.096H436.786V443.781H431.471V441.622H436.786V440.214H440.076V441.622H445.644V443.781H440.076V445.096H446.909V447.349ZM434.593 451.479H442.438V450.071H434.593V451.479ZM447.247 455.141C446.487 455.798 445.559 456.361 444.716 456.924C445.813 457.769 446.74 458.52 447.415 459.271L445.138 460.773C443.619 459.177 440.413 456.643 437.883 454.859L440.076 453.545C440.92 454.108 441.932 454.859 442.944 455.516C443.788 454.859 444.716 454.202 445.222 453.545L447.331 455.141H447.247Z" fill="#DE5419"/>
<path d="M468.083 459.553H472.892V443.687H468.843V440.589C471.12 440.12 472.639 439.463 474.073 438.524H477.363V459.553H481.581V463.59H468.083V459.553Z" fill="#DE5419"/>
<path d="M484.872 451.01C484.872 442.373 487.909 438.148 492.464 438.148C497.019 438.148 500.056 442.373 500.056 451.01C500.056 459.647 497.019 464.059 492.464 464.059C487.909 464.059 484.872 459.553 484.872 451.01ZM495.838 451.01C495.838 443.969 494.404 441.997 492.464 441.997C490.524 441.997 489.09 444.063 489.09 451.01C489.09 457.957 490.524 460.21 492.464 460.21C494.404 460.21 495.838 458.051 495.838 451.01Z" fill="#DE5419"/>
<path d="M503.6 448.006C503.6 446.128 504.781 444.72 506.384 444.72C507.987 444.72 509.168 446.128 509.168 448.006C509.168 449.883 507.987 451.198 506.384 451.198C504.781 451.198 503.6 449.789 503.6 448.006ZM503.6 460.867C503.6 459.084 504.781 457.581 506.384 457.581C507.987 457.581 509.168 458.99 509.168 460.867C509.168 462.745 507.987 464.153 506.384 464.153C504.781 464.153 503.6 462.745 503.6 460.867Z" fill="#DE5419"/>
<path d="M512.12 460.586L514.229 457.394C515.579 458.802 517.182 459.928 519.206 459.928C521.231 459.928 523.002 458.708 523.002 456.455C523.002 454.202 521.737 452.418 516.76 452.418V448.851C520.893 448.851 522.243 447.255 522.243 445.002C522.243 442.749 521.146 441.904 519.206 441.81C517.603 441.81 516.254 442.655 514.988 444.063L512.71 441.059C514.651 439.181 516.844 437.961 519.459 437.961C523.846 437.961 526.714 440.308 526.714 444.626C526.714 448.945 525.364 449.32 522.918 450.353V450.541C525.449 451.292 527.389 453.451 527.389 456.737C527.389 460.022 523.762 463.965 519.459 463.965C515.157 463.965 513.47 462.463 511.951 460.492L512.12 460.586Z" fill="#DE5419"/>
<path d="M530.51 451.01C530.51 442.373 533.547 438.148 538.103 438.148C542.658 438.148 545.695 442.373 545.695 451.01C545.695 459.647 542.658 464.059 538.103 464.059C533.547 464.059 530.51 459.553 530.51 451.01ZM541.561 451.01C541.561 443.969 540.127 441.997 538.187 441.997C536.247 441.997 534.813 444.063 534.813 451.01C534.813 457.957 536.247 460.21 538.187 460.21C540.127 460.21 541.561 458.051 541.561 451.01Z" fill="#DE5419"/>
<path d="M548.648 452.136H556.915V455.704H548.648V452.136Z" fill="#DE5419"/>
<path d="M560.88 459.553H565.689V443.687H561.64V440.589C563.917 440.12 565.436 439.463 566.87 438.524H570.16V459.553H574.378V463.59H560.88V459.553Z" fill="#DE5419"/>
<path d="M577.077 460.68L579.186 457.488C580.452 458.896 582.054 460.022 584.163 460.022C586.272 460.022 588.128 458.333 588.128 455.422C588.128 452.512 586.61 450.916 584.332 450.916C582.054 450.916 582.223 451.292 580.958 452.23L578.933 450.728L579.524 438.618H591.587V442.749H583.404L582.982 448.1C583.826 447.63 584.67 447.349 585.682 447.349C589.478 447.349 592.599 449.883 592.599 455.328C592.599 460.773 588.888 464.153 584.754 464.153C580.62 464.153 578.849 462.557 577.161 460.773L577.077 460.68Z" fill="#DE5419"/>
<path d="M596.312 448.006C596.312 446.128 597.493 444.72 599.096 444.72C600.699 444.72 601.88 446.128 601.88 448.006C601.88 449.883 600.699 451.198 599.096 451.198C597.493 451.198 596.312 449.789 596.312 448.006ZM596.312 460.867C596.312 459.084 597.493 457.581 599.096 457.581C600.699 457.581 601.88 458.99 601.88 460.867C601.88 462.745 600.699 464.153 599.096 464.153C597.493 464.153 596.312 462.745 596.312 460.867Z" fill="#DE5419"/>
<path d="M605.422 451.01C605.422 442.373 608.459 438.148 613.015 438.148C617.57 438.148 620.607 442.373 620.607 451.01C620.607 459.647 617.57 464.059 613.015 464.059C608.459 464.059 605.422 459.553 605.422 451.01ZM616.389 451.01C616.389 443.969 614.955 441.997 613.015 441.997C611.075 441.997 609.64 444.063 609.64 451.01C609.64 457.957 611.075 460.21 613.015 460.21C614.955 460.21 616.389 458.051 616.389 451.01Z" fill="#DE5419"/>
<path d="M623.307 451.01C623.307 442.373 626.344 438.148 630.9 438.148C635.455 438.148 638.492 442.373 638.492 451.01C638.492 459.647 635.455 464.059 630.9 464.059C626.344 464.059 623.307 459.553 623.307 451.01ZM634.358 451.01C634.358 443.969 632.924 441.997 630.984 441.997C629.044 441.997 627.61 444.063 627.61 451.01C627.61 457.957 629.044 460.21 630.984 460.21C632.924 460.21 634.358 458.051 634.358 451.01Z" fill="#DE5419"/>
<path d="M219.389 467.063C227.356 467.063 233.815 459.876 233.815 451.01C233.815 442.144 227.356 434.957 219.389 434.957C211.422 434.957 204.963 442.144 204.963 451.01C204.963 459.876 211.422 467.063 219.389 467.063Z" fill="#DE5419"/>
<path d="M226.222 443.594V457.582H224.282V456.549H215.087V457.675H213.231V443.594H226.307H226.222ZM224.198 454.577V452.7C223.945 452.7 223.692 452.7 223.439 452.7H222.089C220.655 452.7 220.317 451.855 220.317 450.071V445.565H218.799C218.799 449.79 218.377 452.324 215.93 453.732C215.762 453.263 215.256 452.512 214.918 452.137V454.484H224.113L224.198 454.577ZM215.003 445.565V452.137C216.858 450.916 217.027 449.039 217.027 445.565H215.003ZM224.198 445.565H222.089V450.165C222.089 450.728 222.089 451.01 222.426 451.01H223.439C223.692 451.01 224.029 451.01 224.282 451.01V445.659L224.198 445.565Z" fill="white"/>
<g clip-path="url(#clip0_887_1981)">
<path d="M182.959 207.832L183.967 201.485C192.3 194.322 198.655 188.148 203.033 182.98C207.411 177.803 209.914 173.203 210.552 169.172C211.003 166.337 210.7 164.136 209.655 162.57C208.603 161.003 206.9 160.22 204.529 160.22C201.581 160.22 198.241 162.108 194.507 165.892L190.085 159.924C192.959 157.039 195.707 154.92 198.337 153.576C200.967 152.233 203.907 151.565 207.174 151.565C211.87 151.565 215.403 153.123 217.766 156.231C220.137 159.338 220.914 163.46 220.099 168.587C218.766 176.995 211.648 187.2 198.752 199.185C202.122 198.79 204.863 198.592 206.959 198.592H217.692L216.225 207.849H182.959V207.832Z" fill="#E95513"/>
<path d="M250.98 206.077C247.195 211.056 242.714 213.537 237.521 213.537C232.329 213.537 228.625 211.047 226.396 206.077C224.166 201.098 223.788 193.959 225.262 184.653C226.736 175.347 229.351 168.282 233.114 163.46C236.877 158.638 241.358 156.223 246.566 156.223C251.773 156.223 255.491 158.638 257.728 163.46C259.958 168.282 260.336 175.355 258.862 184.653C257.388 193.951 254.758 201.098 250.973 206.077H250.98ZM234.558 184.843C232.433 198.254 233.862 204.956 238.847 204.956C243.832 204.956 247.388 198.254 249.514 184.843C251.64 171.431 250.21 164.729 245.225 164.729C240.24 164.729 236.684 171.431 234.558 184.843Z" fill="#E95513"/>
<path d="M261.965 203.167L262.973 196.82C271.306 189.656 277.661 183.482 282.039 178.314C286.417 173.137 288.92 168.538 289.557 164.507C290.009 161.671 289.706 159.47 288.661 157.904C287.609 156.338 285.906 155.555 283.535 155.555C280.587 155.555 277.247 157.443 273.513 161.226L269.091 155.258C271.965 152.373 274.713 150.255 277.343 148.911C279.972 147.567 282.913 146.9 286.18 146.9C290.876 146.9 294.409 148.458 296.772 151.565C299.142 154.673 299.92 158.794 299.105 163.922C297.772 172.33 290.654 182.534 277.758 194.52C281.128 194.124 283.869 193.926 285.965 193.926H296.698L295.231 203.183H261.965V203.167Z" fill="#E95513"/>
<path d="M315.253 207.948C308.587 207.948 303.402 205.434 299.683 200.405L305.357 193.39C308.209 197.125 311.557 198.988 315.401 198.988C318.038 198.988 320.305 198.089 322.201 196.3C324.097 194.512 325.29 192.022 325.801 188.84C326.305 185.658 325.934 183.194 324.69 181.455C323.446 179.715 321.549 178.841 319.001 178.841C317.572 178.841 316.32 179.056 315.246 179.476C314.172 179.897 312.787 180.655 311.098 181.751L307.127 178.471L312.727 151.598H339.29L337.823 160.855H319.779L316.986 172.577C319.164 171.53 321.238 171.011 323.201 171.011C327.631 171.011 331.045 172.503 333.46 175.487C335.875 178.471 336.616 182.872 335.69 188.7C334.764 194.52 332.342 199.185 328.408 202.697C324.475 206.208 320.098 207.956 315.268 207.956L315.253 207.948Z" fill="#E95513"/>
<path d="M391.844 163.963C392.437 178.487 398.459 188.164 409.785 193.201L411.422 184.612C403.881 180.754 399.829 173.871 399.14 163.955H414.903L416.214 157.08H387.37L389.511 145.878H415.622L416.918 139.151H390.807L393.089 129.507H385.289L383.007 139.151H357.052L355.763 145.878H381.726L379.578 157.08H350.897L349.586 163.955H365.171C362.097 173.278 355.519 180.391 345.26 185.263L343.719 193.341C350.371 190.901 356.482 187.134 361.993 181.867C366.474 177.721 370.015 171.794 372.563 163.955H378.267L367.022 215.935H374.815L386.067 163.955H391.859L391.844 163.963Z" fill="#E95513" stroke="white" stroke-width="8.26" stroke-linecap="round" stroke-linejoin="round"/>
<path d="M471.339 208.978L472.887 200.389C463.791 196.886 456.724 191.816 451.695 185.271C457.473 183.243 461.895 180.441 464.917 176.929C466.813 180.507 469.724 183.416 473.569 185.502L475.006 177.556C471.724 175.833 469.687 173.03 468.917 169.288C468.998 168.81 469.176 168.348 469.257 167.87L470.272 162.182H463.184L462.102 168.183C461.198 172.7 457.813 176.055 452.006 178.256L450.932 184.257C449.643 182.534 448.458 180.663 447.488 178.561L450.902 159.594H479.924L481.279 152.043H452.273L455.191 136.019H447.125L444.228 152.043H416.725L415.362 159.594H442.873L439.88 176.146C438.369 179.179 436.266 182.056 433.717 184.711L435.006 177.547C431.651 175.825 429.651 173.162 428.895 169.444C428.984 168.966 429.155 168.414 429.258 167.862L430.288 162.174H423.184L422.11 168.175C421.214 172.692 417.829 176.047 412.014 178.248L410.673 185.65C416.977 183.474 421.703 180.589 424.925 176.921C426.681 180.432 429.451 183.235 433.221 185.263C427.199 191.264 418.214 196.407 406.37 200.694L404.911 208.805C418.718 204.28 429.54 198.114 437.295 190.481L430.169 229.85H438.221L445.184 189.549C451.125 198.196 460.087 204.675 471.339 208.962" fill="#E95513"/>
<path d="M471.339 208.978L472.887 200.389C463.791 196.886 456.724 191.816 451.695 185.271C457.473 183.243 461.895 180.441 464.917 176.929C466.813 180.507 469.724 183.416 473.569 185.502L475.006 177.556C471.724 175.833 469.687 173.03 468.917 169.288C468.998 168.81 469.176 168.348 469.258 167.87L470.272 162.182H463.184L462.102 168.183C461.198 172.7 457.813 176.055 452.006 178.256L450.932 184.257C449.643 182.534 448.458 180.663 447.488 178.561L450.902 159.594H479.924L481.279 152.043H452.273L455.191 136.019H447.125L444.228 152.043H416.725L415.362 159.594H442.873L439.88 176.146C438.369 179.179 436.266 182.056 433.717 184.711L435.006 177.547C431.651 175.825 429.651 173.162 428.895 169.444C428.984 168.966 429.155 168.414 429.258 167.862L430.288 162.174H423.184L422.11 168.175C421.214 172.692 417.829 176.047 412.014 178.248L410.673 185.65C416.977 183.474 421.703 180.589 424.925 176.921C426.681 180.432 429.451 183.235 433.221 185.263C427.199 191.264 418.214 196.407 406.37 200.694L404.911 208.805C418.718 204.28 429.54 198.114 437.295 190.481L430.169 229.85H438.221L445.184 189.549C451.125 198.196 460.087 204.675 471.339 208.962" stroke="white" stroke-width="8.26" stroke-linecap="round" stroke-linejoin="round"/>
<path d="M576.692 168.299L577.914 162.43C584.159 159.05 590.796 154.59 596.677 149.982L598.951 139.481L553.981 139.357L552.093 148.466H585.536C580.885 151.788 575.248 155.258 570.47 157.574L568.24 168.299H541.211L539.3 177.481H566.322L562.5 195.847C562.226 197.158 561.67 197.545 560.152 197.619C558.907 197.685 551.448 197.693 547.33 197.504L545.285 207.288C551.641 207.288 563.115 207.247 563.3 207.247C567.233 207.247 569.789 203.422 570.774 198.641L574.781 177.481H601.262L603.173 168.299H576.692Z" fill="#E95513" stroke="white" stroke-width="8.26" stroke-linecap="round" stroke-linejoin="round"/>
<path d="M514.523 144.147H505.375C505.153 142.605 504.797 140.924 504.434 139.349H496.153L495.842 139.44C496.101 140.825 496.361 142.531 496.568 144.147H485.924L484.368 151.631H512.96L514.516 144.147H514.523Z" fill="#E95513" stroke="white" stroke-width="8.26" stroke-linecap="round" stroke-linejoin="round"/>
<path d="M481.531 185.922C480.991 187.571 476.42 192.377 474.205 192.748C474.205 192.748 472.457 202.071 472.517 202.071C477.05 200.076 485.013 192.871 487.805 186.095L481.531 185.922Z" fill="#E95513" stroke="white" stroke-width="8.26" stroke-linecap="round" stroke-linejoin="round"/>
<path d="M505.901 195.229C505.39 192.451 504.442 189.055 503.56 185.84L497.472 185.988C498.19 188.28 498.835 192.327 499.309 195.229H505.901Z" fill="#E95513" stroke="white" stroke-width="8.26" stroke-linecap="round" stroke-linejoin="round"/>
<path d="M517.619 176.237L518.612 171.456H531.441L530.449 176.237H517.619ZM521.101 159.495H533.93L532.938 164.284H520.108L521.101 159.495ZM523.575 147.609H536.404L535.412 152.39H522.582L523.575 147.609ZM532.049 192.962C530.901 197.751 530.819 199.466 529.575 199.466H527.804C527.056 199.466 526.967 199.235 527.382 197.224L530.093 184.183H536.441L545.715 139.58H518.004L508.731 184.183H512.212C510.168 191.462 507.39 197.57 499.746 200.372L498.005 208.78C510.368 206.695 516.375 195.666 519.649 184.183H522.723L519.997 197.306C518.456 204.717 519.153 207.264 524.886 207.264H528.841C535.093 207.264 535.819 203.521 538.656 192.962H532.049Z" fill="#E95513" stroke="white" stroke-width="8.26" stroke-linecap="round" stroke-linejoin="round"/>
<path d="M503.731 151.796L503.716 151.788V151.796H503.731Z" fill="#E95513" stroke="white" stroke-width="8.26" stroke-linecap="round" stroke-linejoin="round"/>
<path d="M510.634 153.511H503.094C502.035 156.297 500.605 159.528 499.383 162.133H480.954L479.354 169.848H492.39L491.287 175.174H478.931L477.339 182.815H489.694L484.346 208.517H491.716L497.064 182.815H506.827L508.412 175.174H498.65L499.761 169.848H510.612L512.22 162.133H506.212C507.56 159.536 509.057 156.561 510.642 153.511" fill="#E95513"/>
<path d="M510.634 153.511H503.094C502.035 156.297 500.605 159.528 499.383 162.133H480.954L479.354 169.848H492.39L491.287 175.174H478.931L477.339 182.815H489.694L484.346 208.517H491.716L497.064 182.815H506.827L508.412 175.174H498.65L499.761 169.848H510.612L512.22 162.133H506.212C507.56 159.536 509.057 156.561 510.642 153.511" stroke="white" stroke-width="8.26" stroke-linecap="round" stroke-linejoin="round"/>
<path d="M494.442 161.548C494.531 159.792 494.494 155.942 494.257 153.684H487.561L487.405 153.717C487.627 155.654 487.694 159.462 487.635 161.548H494.435H494.442Z" fill="#E95513" stroke="white" stroke-width="8.26" stroke-linecap="round" stroke-linejoin="round"/>
<path d="M391.844 163.963C392.437 178.487 398.459 188.164 409.785 193.201L411.422 184.612C403.881 180.754 399.829 173.871 399.14 163.955H414.903L416.214 157.08H387.37L389.511 145.878H415.622L416.918 139.151H390.807L393.089 129.507H385.289L383.007 139.151H357.052L355.763 145.878H381.726L379.578 157.08H350.897L349.586 163.955H365.171C362.097 173.278 355.519 180.391 345.26 185.263L343.719 193.341C350.371 190.901 356.482 187.134 361.993 181.867C366.474 177.721 370.015 171.794 372.563 163.955H378.267L367.022 215.935H374.815L386.067 163.955H391.859L391.844 163.963Z" fill="#E95513"/>
<path d="M471.339 208.978L472.887 200.389C463.791 196.886 456.724 191.816 451.695 185.271C457.473 183.243 461.895 180.441 464.917 176.929C466.813 180.507 469.724 183.416 473.569 185.502L475.006 177.556C471.724 175.833 469.687 173.03 468.917 169.288C468.998 168.81 469.176 168.348 469.257 167.87L470.272 162.182H463.184L462.102 168.183C461.198 172.7 457.813 176.055 452.006 178.256L450.932 184.257C449.643 182.534 448.458 180.663 447.488 178.561L450.902 159.594H479.924L481.279 152.043H452.273L455.191 136.019H447.125L444.228 152.043H416.725L415.362 159.594H442.873L439.88 176.146C438.369 179.179 436.266 182.056 433.717 184.711L435.006 177.547C431.651 175.825 429.651 173.162 428.895 169.444C428.984 168.966 429.155 168.414 429.258 167.862L430.288 162.174H423.184L422.11 168.175C421.214 172.692 417.829 176.047 412.014 178.248L410.673 185.65C416.977 183.474 421.703 180.589 424.925 176.921C426.681 180.432 429.451 183.235 433.221 185.263C427.199 191.264 418.214 196.407 406.37 200.694L404.911 208.805C418.718 204.28 429.54 198.114 437.295 190.481L430.169 229.85H438.221L445.184 189.549C451.125 198.196 460.087 204.675 471.339 208.962" fill="#E95513"/>
<path d="M576.692 168.299L577.914 162.43C584.159 159.05 590.796 154.59 596.677 149.982L598.951 139.481L553.981 139.357L552.093 148.466H585.536C580.885 151.788 575.248 155.258 570.47 157.574L568.24 168.299H541.211L539.3 177.481H566.322L562.5 195.847C562.226 197.158 561.67 197.545 560.152 197.619C558.907 197.685 551.448 197.693 547.33 197.504L545.285 207.288C551.641 207.288 563.115 207.247 563.3 207.247C567.233 207.247 569.789 203.422 570.774 198.641L574.781 177.481H601.262L603.173 168.299H576.692Z" fill="#E95513"/>
<path d="M514.523 144.147H505.375C505.153 142.605 504.797 140.924 504.434 139.349H496.153L495.842 139.44C496.101 140.825 496.361 142.531 496.568 144.147H485.924L484.368 151.631H512.96L514.516 144.147H514.523Z" fill="#E95513"/>
<path d="M481.531 185.922C480.991 187.571 476.42 192.377 474.205 192.748C474.205 192.748 472.457 202.071 472.517 202.071C477.05 200.076 485.013 192.871 487.805 186.095L481.531 185.922Z" fill="#E95513"/>
<path d="M505.901 195.229C505.39 192.451 504.442 189.055 503.56 185.84L497.472 185.988C498.19 188.28 498.835 192.327 499.309 195.229H505.901Z" fill="#E95513"/>
<path d="M517.619 176.237L518.612 171.456H531.441L530.449 176.237H517.619ZM521.101 159.495H533.93L532.938 164.284H520.108L521.101 159.495ZM523.575 147.609H536.404L535.412 152.39H522.582L523.575 147.609ZM532.049 192.962C530.901 197.751 530.819 199.466 529.575 199.466H527.804C527.056 199.466 526.967 199.235 527.382 197.224L530.093 184.183H536.441L545.715 139.58H518.004L508.731 184.183H512.212C510.168 191.462 507.39 197.57 499.746 200.372L498.005 208.78C510.368 206.695 516.375 195.666 519.649 184.183H522.723L519.997 197.306C518.456 204.717 519.153 207.264 524.886 207.264H528.841C535.093 207.264 535.819 203.521 538.656 192.962H532.049Z" fill="#E95513"/>
<path d="M503.731 151.796L503.716 151.788V151.796H503.731Z" fill="#E95513"/>
<path d="M510.634 153.511H503.094C502.035 156.297 500.605 159.528 499.383 162.133H480.954L479.354 169.848H492.39L491.287 175.174H478.931L477.339 182.815H489.694L484.346 208.517H491.716L497.064 182.815H506.827L508.412 175.174H498.65L499.761 169.848H510.612L512.22 162.133H506.212C507.56 159.536 509.057 156.561 510.642 153.511" fill="#E95513"/>
<path d="M494.442 161.548C494.531 159.792 494.494 155.942 494.257 153.684H487.561L487.405 153.717C487.627 155.654 487.694 159.462 487.635 161.548H494.435H494.442Z" fill="#E95513"/>
</g>
<path d="M464.231 379.359C463.939 378.384 463.646 377.378 463.346 376.342C463.053 375.314 462.805 374.286 462.61 373.258C462.415 372.23 462.22 371.374 462.025 370.684L461.439 367.742H459.826C459.533 367.742 459.015 367.764 458.28 367.817C457.544 367.869 456.809 367.967 456.073 368.109C455.338 368.252 454.678 368.425 454.092 368.627C453.507 368.822 453.207 369.123 453.207 369.513C453.207 370.008 453.357 371.036 453.649 372.597C453.942 374.166 454.332 375.81 454.828 377.521C455.315 379.239 455.878 380.755 456.516 382.076C457.154 383.397 457.815 384.058 458.498 384.058C458.888 384.058 459.383 383.96 459.969 383.765C460.554 383.57 461.342 383.322 462.318 383.029C463.496 382.639 464.254 382.369 464.599 382.219C464.944 382.069 465.064 381.904 464.967 381.701C464.772 381.116 464.524 380.328 464.231 379.352V379.359Z" fill="#053793"/>
<path d="M447.916 304.167C450.565 303.927 452.569 303.754 453.942 303.649C455.12 303.649 456.516 303.574 458.13 303.432C459.743 303.289 461.147 303.117 462.318 302.914L466.288 302.764L466.731 298.351C466.926 296.392 467.121 293.72 467.316 290.336C467.511 286.958 467.706 282.763 467.901 277.765C468.096 272.766 468.217 268.796 468.269 265.854C468.314 262.912 468.292 260.811 468.194 259.535V257.479L462.318 257.329C459.181 257.231 455.263 257.134 450.557 257.036C445.852 256.938 440.366 256.841 434.091 256.743C427.817 256.646 422.894 256.623 419.314 256.668C415.734 256.721 413.558 256.796 412.77 256.886C412.59 256.886 412.447 259.197 412.334 263.79L404.387 390.947L425.408 390.797L425.701 388.591C425.994 386.144 426.286 380.605 426.586 371.982C426.782 367.802 426.954 361.925 427.097 354.375L429.378 305.098C429.573 305.098 430.654 305.023 432.613 304.88C434.572 304.73 436.973 304.61 439.818 304.512C442.557 304.512 445.259 304.392 447.901 304.145L447.916 304.167ZM430.129 272.489C430.226 271.603 430.279 270.875 430.279 270.282C430.279 269.689 430.376 269.352 430.572 269.254H450.122L449.972 272.489V275.873H430.129V272.489ZM433.221 293.075L429.251 292.782V290.133C429.056 289.247 429.003 288.564 429.101 288.077C429.198 287.589 429.296 287.341 429.393 287.341C430.669 287.146 432.11 286.996 433.731 286.898C435.345 286.801 437.011 286.703 438.729 286.606C440.441 286.508 442.137 286.455 443.803 286.455H448.358C449.439 286.455 449.972 286.951 449.972 287.926C450.069 288.422 450.092 288.955 450.047 289.54C449.994 290.125 449.972 290.718 449.972 291.304L449.679 293.51H443.36C441.596 293.51 439.758 293.465 437.844 293.36C435.93 293.262 434.392 293.165 433.213 293.067L433.221 293.075Z" fill="#053793"/>
<path d="M448.801 369.513C448.306 369.22 447.525 368.927 446.452 368.627C445.372 368.335 444.321 367.967 443.293 367.524C442.264 367.081 441.454 366.811 440.869 366.713C440.673 366.421 440.283 366.173 439.69 365.978C439.398 365.978 439.195 365.933 439.105 365.828C438.812 365.828 438.61 366.173 438.519 366.856C437.934 368.034 437.394 369.28 436.906 370.601C436.411 371.922 435.975 373.175 435.585 374.346C435.195 375.524 434.872 376.553 434.632 377.431C434.384 378.316 434.264 378.849 434.264 379.044C434.459 379.337 434.925 379.832 435.66 380.515C436.396 381.198 437.176 381.889 438.009 382.571C438.842 383.254 439.645 383.892 440.433 384.485C441.214 385.071 441.754 385.416 442.047 385.513C442.437 385.513 443.052 384.853 443.886 383.532C444.719 382.211 445.867 380.08 447.338 377.138C448.118 375.374 448.711 374.001 449.102 373.025C449.492 372.05 449.664 371.284 449.619 370.744C449.567 370.203 449.304 369.791 448.809 369.498L448.801 369.513Z" fill="#053793"/>
<path d="M478.349 370.909C478.056 369.881 477.853 369.123 477.763 368.627C477.568 367.742 477.148 367.231 476.517 367.081C475.879 366.931 474.288 366.961 471.737 367.156C471.542 367.156 471.241 367.179 470.851 367.231C470.461 367.284 470.018 367.359 469.53 367.449C469.035 367.449 468.742 367.502 468.645 367.599C468.547 368.282 468.99 370.489 469.965 374.211C470.453 376.072 470.874 377.543 471.211 378.624C471.557 379.705 471.819 380.44 472.022 380.83C472.022 381.025 472.465 381.078 473.343 380.98C474.228 380.883 475.887 380.635 478.341 380.245C479.714 380.05 480.42 379.637 480.472 378.999C480.517 378.361 480.202 376.77 479.519 374.218C479.024 373.04 478.634 371.937 478.341 370.909H478.349Z" fill="#053793"/>
<path d="M492.75 373.19C493.929 372.703 494.514 372.26 494.514 371.87C494.514 370.789 494.387 369.468 494.146 367.899C493.899 366.331 493.584 365.355 493.193 364.957C492.998 364.762 492.36 364.642 491.28 364.59C490.199 364.545 488.63 364.665 486.574 364.957C485.786 364.957 485.223 365.033 484.885 365.175C484.54 365.325 484.27 365.393 484.075 365.393C484.465 366.961 484.788 368.185 485.028 369.07C485.268 369.956 485.516 370.759 485.763 371.494C486.003 372.23 486.131 372.65 486.131 372.74L486.574 374.504L488.78 373.768C489.366 373.671 490.026 373.551 490.762 373.401C491.497 373.25 492.158 373.183 492.743 373.183L492.75 373.19Z" fill="#053793"/>
<path d="M665.995 340.183C665.357 338.765 664.644 337.294 663.864 335.77C663.076 334.254 662.295 332.828 661.515 331.508C660.727 330.187 660.141 329.331 659.751 328.933C659.653 328.933 659.308 329.083 658.723 329.376C658.137 329.669 657.499 329.992 656.809 330.329C656.126 330.675 655.436 331.065 654.753 331.508C654.07 331.95 653.529 332.318 653.139 332.611C652.749 332.904 652.479 333.174 652.329 333.421C652.178 333.669 652.306 333.984 652.696 334.375C653.184 334.87 653.432 335.26 653.432 335.553C653.237 335.553 652.621 335.575 651.593 335.628C650.565 335.68 649.267 335.8 647.698 335.996L642.114 336.146L643.435 335.117C644.021 334.63 645.221 333.624 647.038 332.1C648.854 330.584 650.685 328.993 652.554 327.32C654.415 325.654 656.081 324.063 657.552 322.539C659.023 321.023 659.758 319.965 659.758 319.38C659.758 318.892 659.413 318.449 658.73 318.059C658.34 317.864 657.822 317.496 657.184 316.955C656.546 316.415 655.886 315.852 655.203 315.267L652.554 313.06L649.169 315.852C648.186 316.64 647.33 317.398 646.595 318.134C645.859 318.869 645.349 319.38 645.049 319.68C644.553 320.175 644.066 320.415 643.578 320.415C642.895 320.415 641.912 319.927 640.636 318.944L638.579 317.916L639.9 316.303C641.079 314.832 642.077 313.563 642.917 312.482C643.75 311.402 644.216 310.621 644.313 310.133C644.508 309.841 644.388 309.548 643.945 309.248C643.503 308.955 642.452 308.467 640.786 307.777C639.803 307.191 638.872 306.749 637.994 306.456C637.108 306.163 636.523 306.013 636.23 306.013C635.735 306.013 635.277 306.231 634.834 306.674C634.392 307.116 633.679 307.972 632.703 309.248C631.622 310.621 630.549 311.965 629.468 313.293C628.388 314.614 626.722 316.505 624.47 318.952C623.787 319.935 623.442 320.618 623.442 321.008C623.539 321.106 623.787 321.503 624.177 322.186C624.568 322.869 625.063 323.56 625.648 324.243L627.412 327.185L630.939 327.335C631.915 327.53 632.853 327.658 633.731 327.703C634.617 327.755 635.202 327.875 635.495 328.07L636.38 328.513L635.352 329.541C635.06 329.834 634.489 330.179 633.664 330.569C632.831 330.96 632.073 331.358 631.382 331.748C630.497 332.04 629.618 332.386 628.733 332.776C627.847 333.166 627.262 333.414 626.969 333.511C626.286 333.707 625.889 333.954 625.791 334.247C625.693 334.54 625.693 334.885 625.791 335.275C626.181 336.941 626.504 338.975 626.744 341.377C626.984 343.778 627.112 345.564 627.112 346.743C627.014 347.531 627.577 347.988 628.8 348.139C630.024 348.289 632.846 348.214 637.251 347.921C641.364 347.628 645.116 347.261 648.493 346.818C651.871 346.375 654.445 346.06 656.209 345.865C656.794 345.767 657.237 345.79 657.529 345.94C657.822 346.09 658.212 346.6 658.708 347.486C659.488 348.664 660.081 349.249 660.471 349.249C661.057 349.249 662.017 348.904 663.338 348.221C664.659 347.538 665.665 346.9 666.355 346.307L667.676 345.422L667.091 343.215C666.993 342.63 666.626 341.624 665.988 340.198L665.995 340.183Z" fill="#053793"/>
<path d="M622.556 353.632C622.459 353.437 622.309 353.317 622.114 353.265C621.918 353.22 621.551 353.19 621.01 353.19C620.47 353.19 619.712 353.242 618.729 353.34C617.746 353.437 616.425 353.587 614.759 353.783C613.288 353.783 612.087 353.858 611.156 354C610.226 354.15 609.663 354.218 609.468 354.218C609.468 354.413 609.445 354.976 609.393 355.906C609.34 356.837 609.318 357.993 609.318 359.359L609.025 364.207H603.584L603.141 359.794C602.946 358.421 602.773 357.272 602.623 356.342C602.473 355.411 602.406 354.848 602.406 354.653C602.308 354.556 601.572 354.503 600.199 354.503C599.614 354.601 598.781 354.698 597.7 354.796C596.619 354.893 595.546 354.946 594.465 354.946L590.495 355.096L590.938 361.122C590.938 362.691 591.013 364.41 591.156 366.271C591.306 368.132 591.373 369.648 591.373 370.826L591.666 374.796L598.278 374.646C601.903 374.646 604.012 374.744 604.597 374.939C605.182 375.134 604.89 375.922 603.711 377.288C603.419 377.874 602.976 378.391 602.391 378.834C601.805 379.277 601.167 379.69 600.477 380.08C598.811 380.665 597.978 381.206 597.978 381.694C597.88 382.084 598.518 383.75 599.891 386.692C601.265 389.341 602.24 390.76 602.833 390.955C603.719 390.857 604.77 390.564 605.993 390.069C607.216 389.574 608.492 389.018 609.813 388.38C611.134 387.743 612.432 387.037 613.708 386.249C614.984 385.469 616.057 384.733 616.943 384.043C618.023 383.157 618.924 382.181 619.659 381.101C620.395 380.02 620.958 378.752 621.348 377.281C621.738 375.81 622.031 373.408 622.234 370.076C622.429 366.744 622.676 362.428 622.969 357.137C623.067 355.764 623.089 354.856 623.044 354.42C622.992 353.978 622.827 353.708 622.526 353.61L622.556 353.632Z" fill="#053793"/>
<path d="M622.264 337.977C621.378 336.063 620.523 334.255 619.69 332.536C618.857 330.825 618.241 329.669 617.851 329.084C617.753 329.084 617.333 329.234 616.605 329.526C615.87 329.819 615.082 330.187 614.256 330.63C613.423 331.073 612.665 331.463 611.975 331.808C611.292 332.153 610.849 332.423 610.654 332.619C610.654 333.009 610.804 333.452 611.096 333.939C611.487 334.435 611.659 334.772 611.614 334.968C611.562 335.163 611.247 335.358 610.661 335.553C609.483 335.748 608.282 335.943 607.059 336.138C605.835 336.333 604.71 336.529 603.682 336.724C602.653 336.919 601.79 337.039 601.107 337.091C600.424 337.144 600.079 337.114 600.079 337.016C599.884 337.016 599.929 336.866 600.229 336.574C600.522 336.281 600.965 335.988 601.55 335.688C602.136 335.388 602.848 334.855 603.682 334.074C604.515 333.294 605.273 332.506 605.963 331.725C606.849 331.042 608.019 330.059 609.49 328.783C610.961 327.515 612.38 326.382 613.753 325.406C615.224 324.228 616.425 323.2 617.356 322.322C618.286 321.436 618.849 320.851 619.044 320.558C619.044 320.363 618.969 320.04 618.827 319.605C618.676 319.162 618.361 318.652 617.873 318.059C617.581 317.669 617.19 317.128 616.695 316.445C616.2 315.762 615.81 315.124 615.517 314.532C614.931 313.256 614.391 312.618 613.903 312.618C613.806 312.618 613.483 312.79 612.95 313.136C612.41 313.481 611.847 313.796 611.262 314.089C610.676 314.674 609.693 315.462 608.32 316.438C606.946 317.421 605.43 318.397 603.764 319.38C601.61 321.046 600.109 322.052 599.284 322.397C598.451 322.742 597.888 322.862 597.595 322.764C596.612 322.277 596.349 321.661 596.784 320.926C597.227 320.19 598.623 318.644 600.972 316.295C602.736 314.727 603.989 313.451 604.717 312.475C605.453 311.5 605.82 310.862 605.82 310.561C605.82 309.781 605.28 308.7 604.207 307.327C603.224 306.051 602.736 305.218 602.736 304.828C603.029 304.828 603.689 304.753 604.717 304.61C605.745 304.46 607.089 304.295 608.762 304.092C610.429 303.897 611.802 303.702 612.875 303.507C613.956 303.312 614.736 303.161 615.224 303.064C615.419 303.064 615.539 302.824 615.592 302.328C615.637 301.841 615.765 301.203 615.96 300.415C616.35 295.416 616.643 291.056 616.845 287.334C616.943 285.472 617.018 282.68 617.063 278.958C617.108 275.235 617.236 270.432 617.431 264.548L617.723 255.73H611.697C610.811 255.73 609.438 255.708 607.584 255.655C605.723 255.61 603.539 255.58 601.04 255.58C598.541 255.58 595.846 255.557 592.957 255.505C590.068 255.46 587.051 255.43 583.913 255.43L562.449 255.28L554.441 390.962L559.215 390.895V390.962H567.59H570.9C571.928 390.962 572.836 390.91 573.617 390.812C574.892 390.812 575.673 390.76 575.966 390.662C575.966 390.564 576.011 389.949 576.116 388.823C576.213 387.698 576.311 386.399 576.408 384.928C576.604 380.815 576.821 376.823 577.069 372.95C577.309 369.078 577.534 365.085 577.729 360.972C577.924 356.86 578.022 352.274 578.022 347.231V330.254C578.022 323.395 578.045 317.736 578.097 313.278C578.142 308.82 578.172 306.539 578.172 306.441C578.367 306.441 579.223 306.396 580.746 306.291C582.262 306.194 584.199 306.096 586.555 305.998C588.807 305.803 590.841 305.631 592.657 305.481C594.473 305.33 595.674 305.263 596.259 305.263L598.023 305.113L595.674 307.319C594.788 308.002 593.692 309.083 592.364 310.554C591.036 312.025 589.647 313.593 588.176 315.26C586.803 316.828 585.58 318.201 584.499 319.372C583.418 320.551 582.735 321.286 582.442 321.579C581.857 322.164 581.557 322.562 581.557 322.757C581.654 323.342 582.292 324.175 583.471 325.256C584.649 326.337 585.917 327.268 587.291 328.048C589.054 329.129 590.083 329.939 590.375 330.472C590.668 331.012 590.128 331.966 588.762 333.339C588.079 334.022 587.441 334.585 586.848 335.028C586.262 335.47 585.865 335.786 585.67 335.981C585.279 336.371 585.009 336.694 584.859 336.934C584.709 337.182 584.784 337.887 585.077 339.065C585.077 339.748 585.152 340.611 585.294 341.64C585.444 342.668 585.512 343.621 585.512 344.506C585.61 346.465 585.73 347.764 585.88 348.401C586.03 349.039 586.247 349.355 586.54 349.355C591.246 349.257 595.951 348.964 600.65 348.469C605.355 347.981 609.911 347.193 614.324 346.12C614.616 346.12 614.909 346.195 615.209 346.338C615.502 346.488 615.892 346.9 616.387 347.583C617.273 348.762 617.903 349.197 618.301 348.904C618.594 348.904 619.082 348.807 619.772 348.612C620.455 348.416 621.191 348.199 621.979 347.951C622.759 347.711 623.495 347.486 624.185 347.291C624.868 347.096 625.363 346.998 625.656 346.998C625.656 346.315 625.311 345.114 624.628 343.396C623.945 341.685 623.157 339.868 622.279 337.955L622.264 337.977ZM580.221 268.226H599.329L599.621 270.875C599.621 271.663 599.644 272.489 599.696 273.374C599.741 274.26 599.771 274.988 599.771 275.581V277.344L590.36 277.052C587.711 277.052 585.459 276.977 583.598 276.834C581.737 276.684 580.754 276.616 580.656 276.616C580.656 276.519 580.604 276.054 580.506 275.221C580.409 274.387 580.311 273.382 580.214 272.203V268.233L580.221 268.226ZM580.221 294.981V288.512L581.692 288.362C582.375 288.264 583.306 288.167 584.484 288.069C585.662 287.971 586.908 287.874 588.229 287.776C589.55 287.679 590.901 287.604 592.274 287.559C593.647 287.514 594.923 287.484 596.094 287.484L600.207 287.191L600.057 291.161V294.981H580.214H580.221Z" fill="#053793"/>
<path d="M658.94 354.075H650.782L650.49 357.753V360.695C650.392 360.89 650.34 361.332 650.34 362.015C650.145 362.113 649.679 362.165 648.944 362.165C648.208 362.165 647.398 362.263 646.52 362.458H642.842V358.045L642.549 353.632H635.787C633.138 353.632 631.307 353.655 630.271 353.707C629.243 353.76 628.628 353.88 628.433 354.075V371.277L628.725 387.885L641.071 388.328L641.514 386.121C641.709 385.536 641.829 384.65 641.882 383.472C641.927 382.294 642.002 381.123 642.099 379.945C642.099 378.766 642.144 377.768 642.249 376.928C642.347 376.095 642.444 375.629 642.542 375.532C642.542 375.337 643.352 375.217 644.966 375.164C646.58 375.119 648.711 375.089 651.36 375.089C653.709 375.089 655.743 375.044 657.462 374.939C659.173 374.841 660.179 374.789 660.479 374.789C660.576 374.691 660.749 373.566 660.997 371.412C661.237 369.258 661.409 365.828 661.514 361.122L661.807 354.51L660.922 354.218C660.629 354.12 659.968 354.068 658.94 354.068V354.075Z" fill="#053793"/>
<path d="M335.364 350.623H338.021C340.557 350.623 344.332 350.555 349.361 350.413C354.381 350.27 360.28 350.157 367.042 350.06L374.225 349.775V343.298L374.367 336.679H337.953C334.808 336.679 332.062 336.656 329.713 336.611C327.364 336.566 325.51 336.543 324.151 336.543H321.825C321.825 336.356 321.78 335.891 321.682 335.133C321.585 334.382 321.54 333.489 321.54 332.453V328.648H326.613C328.774 328.648 330.208 328.626 330.913 328.581C331.619 328.536 331.972 328.371 331.972 328.085C332.347 327.335 332.677 325.811 332.955 323.507C333.24 321.203 333.473 318.366 333.66 314.982C333.848 312.257 333.945 308.783 333.945 304.557C333.945 300.332 333.9 295.259 333.803 289.345C333.705 277.704 333.428 271.033 332.955 269.344H317.277L327.701 254.131L309.149 254.552L308.729 254.972C308.631 255.07 308.496 255.49 308.308 256.24C308.121 256.901 307.791 257.719 307.325 258.702C306.852 259.685 306.387 260.743 305.914 261.869C305.066 264.316 304.368 266.117 303.798 267.295C303.235 268.473 302.905 269.149 302.815 269.336C302.627 269.434 302.109 269.524 301.269 269.622C300.421 269.719 299.528 269.764 298.589 269.764H295.91C295.723 269.862 295.347 269.907 294.784 269.907C294.687 272.158 294.552 280.894 294.364 296.107C294.304 305.953 294.282 313.368 294.297 318.374L287.37 304.557L282.874 307.094C282.326 307.304 281.696 307.582 280.975 307.942C279.001 308.978 277.808 309.728 277.38 310.194C276.96 310.666 276.983 311.462 277.448 312.588C277.823 313.623 277.868 314.276 277.591 314.561C277.313 314.847 276.412 314.982 274.911 314.982C273.876 314.982 273.223 314.937 272.937 314.839C272.652 314.749 272.517 314.554 272.517 314.276C272.99 313.338 273.643 312.212 274.491 310.899C275.339 309.586 276.367 307.987 277.591 306.111C278.341 304.895 279.542 303.064 281.185 300.617C282.829 298.178 284.495 295.596 286.184 292.872C287.872 290.148 289.373 287.543 290.694 285.052C292.008 282.568 292.713 280.706 292.811 279.491C292.998 278.928 292.833 278.455 292.315 278.08C291.797 277.704 290.649 277.097 288.863 276.249C287.827 275.963 286.822 275.543 285.831 274.98C284.84 274.417 284.067 273.997 283.504 273.712C282.094 272.774 281.2 272.353 280.825 272.443C280.638 272.631 280.24 273.239 279.624 274.275C279.009 275.31 278.289 276.526 277.44 277.937C276.69 279.16 276.105 280.144 275.677 280.894C275.256 281.645 274.904 282.185 274.619 282.515C274.333 282.845 274.078 283.056 273.846 283.146C273.613 283.243 273.305 283.288 272.93 283.288C272.645 283.386 272.367 283.408 272.082 283.356C271.797 283.311 271.662 283.191 271.662 283.003C271.752 282.718 271.849 282.44 271.947 282.155C272.037 281.87 272.134 281.592 272.232 281.307C272.42 280.834 272.652 280.271 272.937 279.618C273.223 278.965 273.5 278.26 273.786 277.502C274.348 276.001 274.956 274.402 275.617 272.714C276.27 271.025 276.788 269.667 277.163 268.631C277.448 267.693 277.793 266.755 278.221 265.817C278.641 264.878 278.949 264.128 279.137 263.565C279.985 262.154 280.12 261.126 279.557 260.466C278.994 259.813 277.02 258.822 273.643 257.509C272.232 256.946 270.986 256.405 269.913 255.888C268.832 255.37 268.104 255.07 267.729 254.972C267.256 254.687 266.933 254.477 266.746 254.342C266.558 254.199 266.371 254.131 266.183 254.131C266.085 254.229 266.04 254.296 266.04 254.342C266.04 254.387 265.995 254.462 265.898 254.552C265.898 254.837 265.778 255.302 265.545 255.963C265.312 256.623 265.05 257.328 264.772 258.079C264.487 258.829 264.209 259.535 263.924 260.195C263.639 260.856 263.451 261.276 263.361 261.464C262.986 262.777 262.468 264.278 261.815 265.974C261.155 267.663 260.637 269.119 260.269 270.342C256.982 278.703 254.16 284.286 251.818 287.108L250.55 288.091L251.533 289.36C251.721 289.645 252.051 290.133 252.516 290.838C252.989 291.544 253.364 292.174 253.642 292.737L254.911 295.274L256.884 295.131C257.447 294.943 258.243 294.831 259.278 294.778C260.314 294.733 261.342 294.613 262.378 294.426L266.04 294.283L265.192 295.694C264.157 297.383 262.963 299.071 261.597 300.767C260.232 302.456 258.52 304.43 256.457 306.681L251.946 311.327L252.231 313.721C252.321 314.381 252.441 315.409 252.584 316.82C252.727 318.231 252.884 319.777 253.079 321.466C253.267 323.065 253.455 324.378 253.642 325.414C253.83 326.449 253.972 327.057 254.062 327.245C254.535 327.432 256.457 327.432 259.841 327.245C261.342 327.057 263.196 326.87 265.402 326.682C267.609 326.494 269.65 326.307 271.534 326.119C273.223 326.029 274.866 325.909 276.465 325.766C278.063 325.624 279.234 325.556 279.985 325.556H282.236L282.942 327.673C283.032 328.235 283.227 328.776 283.504 329.294C283.79 329.812 284.022 330.254 284.21 330.63L284.773 331.478L286.296 330.63L294.582 326.757C294.709 327.365 294.777 327.725 294.777 327.815C294.867 328.1 295.46 328.311 296.541 328.446C297.621 328.588 299.43 328.656 301.967 328.656C303.94 328.656 305.089 328.701 305.419 328.798C305.749 328.896 305.862 329.129 305.772 329.504C305.772 329.789 305.727 330.352 305.629 331.192C305.532 332.041 305.487 332.979 305.487 334.007C305.389 334.945 305.344 335.815 305.344 336.611V337.947C304.496 338.135 302.222 338.255 298.514 338.3C294.799 338.345 289.659 338.322 283.092 338.232C269.853 338.232 260.599 338.089 255.338 337.812H253.154C252.171 337.812 251.488 337.722 251.113 337.527C251.015 337.902 250.993 338.727 251.045 339.988C251.09 341.257 251.166 342.968 251.256 345.129C251.346 347.291 251.443 349.002 251.541 350.27C251.631 351.538 251.728 352.364 251.826 352.732L282.259 351.298C282.972 351.216 283.534 351.133 283.947 351.043C284.795 351.043 285.801 350.998 286.979 350.9C288.15 350.81 289.283 350.735 290.356 350.69C291.437 350.645 292.375 350.623 293.171 350.623C293.674 350.623 294.019 350.668 294.244 350.743L299.55 350.495C298.83 352.724 291.587 370.586 248.156 358.961L244.171 380.282C244.171 380.282 281.583 389.371 304.721 365.408L304.916 372.823C304.954 373.618 304.991 374.444 305.006 375.344C305.021 376.147 305.029 376.92 305.044 377.701V377.896C305.059 379.299 305.074 380.688 305.074 382.031V389.641H322.68V376.402C322.68 374.053 322.725 372.034 322.823 370.346C322.823 366.496 322.966 364.567 323.243 364.567C323.431 364.477 323.874 364.71 324.579 365.272C325.285 365.835 326.103 366.541 327.041 367.389C328.076 368.327 329.082 369.175 330.073 369.926C331.056 370.676 331.836 371.239 332.399 371.614C333.247 372.275 334.351 373.003 335.709 373.798C337.067 374.594 338.576 375.374 340.22 376.125C341.863 376.875 343.574 377.626 345.36 378.376C347.147 379.127 348.88 379.787 350.576 380.35C353.391 381.386 355.927 382.091 358.186 382.466C360.438 382.842 363.117 383.127 366.217 383.314L370.022 383.735L370.044 383.645C385.384 385.018 397.512 382.076 397.512 382.076L392.949 357.662C351.815 368.672 339.041 356.582 335.386 350.63L335.364 350.623ZM303.137 350.323L304.301 350.27V350.345L303.137 350.33V350.323ZM319.416 280.752V293.99H310.402V289.202C310.402 287.791 310.425 286.455 310.47 285.187C310.515 283.919 310.537 283.003 310.537 282.44L310.958 280.752H319.408H319.416ZM319.701 317.939H309.982L310.125 316.813C310.312 316.438 310.41 315.612 310.41 314.351V304.557H319.708V317.939H319.701Z" fill="#053793"/>
<path d="M337.45 289.622C337.825 290.47 338.223 291.408 338.651 292.437C339.071 293.472 339.379 294.268 339.566 294.831C339.657 295.581 339.822 296.197 340.062 296.662C340.294 297.135 340.46 297.457 340.557 297.645C340.745 297.743 341.21 297.788 341.968 297.788C342.726 297.788 343.889 297.743 345.488 297.645C346.704 297.36 347.792 297.172 348.73 297.082C349.668 296.992 350.141 297.037 350.141 297.225C350.426 297.225 350.164 297.93 349.368 299.341C348.572 300.752 347.139 303.146 345.068 306.524C344.22 307.934 343.379 309.15 342.531 310.186C341.683 311.222 340.745 312.25 339.717 313.285C337.653 314.974 336.617 316.242 336.617 317.09C336.617 317.751 336.76 318.074 337.037 318.074C337.127 318.261 337.368 318.802 337.743 319.695C338.118 320.588 338.493 321.736 338.869 323.147C339.619 325.023 340.159 326.314 340.49 327.02C340.82 327.725 341.12 328.123 341.405 328.22C341.69 328.506 342.388 328.618 343.522 328.573C344.647 328.528 346.434 328.363 348.873 328.078C350.659 327.89 352.535 327.703 354.509 327.515C356.483 327.327 358.126 327.23 359.44 327.23C360.655 327.042 361.879 326.877 363.102 326.734C364.318 326.592 365.218 326.524 365.781 326.524L367.47 326.382L369.301 330.607L370.847 329.901C371.41 329.714 372.093 329.459 372.889 329.128C373.009 329.076 373.129 329.016 373.249 328.963L382.75 325.256L372.979 305.773L370.907 306.681C370.84 306.681 370.78 306.659 370.712 306.659C369.864 306.659 368.506 307.221 366.629 308.347L363.252 310.036L363.395 311.582V312.993L361.706 313.278C361.143 313.278 360.648 313.3 360.228 313.345C359.807 313.391 359.597 313.368 359.597 313.278C359.882 312.43 360.228 311.634 360.655 310.884C361.076 310.133 361.526 309.383 361.991 308.632C362.644 307.319 363.47 305.653 364.453 303.634C365.436 301.615 366.307 299.671 367.057 297.788C367.245 297.315 367.575 296.617 368.04 295.671C368.513 294.733 368.978 293.72 369.451 292.639C369.924 291.559 370.344 290.523 370.72 289.54C371.095 288.557 371.328 287.874 371.425 287.498L372.273 284.256L371.425 282.988C371.05 282.425 370.487 281.72 369.736 280.871C368.986 280.023 368.205 279.183 367.41 278.335C366.614 277.487 365.879 276.714 365.226 276.008C364.566 275.303 364.1 274.807 363.815 274.53C363.065 273.779 361.466 275.753 359.027 280.444L356.633 285.089H354.381C353.533 285.277 352.903 285.322 352.483 285.232C352.062 285.142 351.852 285.044 351.852 284.947C351.942 284.384 352.648 282.883 353.969 280.436L355.447 277.479C355.867 276.631 356.13 276.068 356.22 275.791C356.505 275.415 356.948 274.545 357.556 273.186C358.164 271.828 358.802 270.297 359.455 268.608C360.108 266.92 360.7 265.299 361.218 263.745C361.736 262.199 362.036 261.096 362.134 260.435C362.134 259.783 361.286 259.122 359.597 258.462C359.312 258.372 358.802 258.109 358.051 257.689C357.301 257.268 356.475 256.818 355.59 256.353C354.697 255.88 353.848 255.415 353.053 254.942C352.257 254.469 351.664 254.094 351.289 253.816C350.914 253.531 350.539 253.343 350.164 253.253C349.976 253.351 349.578 254.026 348.963 255.295C348.347 256.563 347.627 258.139 346.779 260.015C345.931 261.891 345.015 264.128 344.032 266.71C343.049 269.291 342.178 271.475 341.428 273.261C340.767 275.138 340.039 276.924 339.244 278.613C338.448 280.301 337.855 281.569 337.48 282.417C337.007 283.078 336.632 283.731 336.354 284.391C336.069 285.052 335.934 285.517 335.934 285.802C335.934 285.9 336.077 286.343 336.354 287.138C336.64 287.934 337.007 288.759 337.48 289.6L337.45 289.622Z" fill="#053793"/>
<path d="M511.843 358.796C511.791 353.527 511.655 350.285 511.423 349.077C511.423 348.882 510.32 348.762 508.113 348.709C505.907 348.664 502.162 348.634 496.871 348.634H482.611V342.608H485.403C486.289 342.608 487.459 342.585 488.93 342.533C490.401 342.488 491.872 342.458 493.343 342.458L498.492 342.165V333.639L495.114 333.789H491.587C490.116 333.789 488.795 333.744 487.617 333.639L483.204 333.347L483.054 331.433V329.669L490.702 329.376H498.199L498.492 328.348V326.585C498.492 325.699 498.394 324.723 498.199 323.643L498.049 320.115H483.054V318.352L483.204 316.588H491.437C493.884 316.588 495.895 316.513 497.464 316.37C499.032 316.22 499.865 316.1 499.963 316.003C500.255 315.71 500.405 314.532 500.405 312.475V309.533L497.614 309.091C495.948 308.993 492.855 308.94 488.353 308.94H453.222C449.004 308.94 446.31 308.993 445.139 309.091C444.944 309.091 444.696 309.143 444.403 309.241C444.111 309.338 443.765 309.436 443.375 309.533L441.762 309.826L434.264 359.366V364.177L498.041 359.757L497.771 366.721C497.771 368.98 497.749 370.834 497.696 372.305C497.644 373.776 497.621 374.564 497.621 374.654C497.328 374.947 496.443 375.367 494.972 375.9C493.501 376.44 492.03 376.853 490.559 377.146C489.673 377.146 489.238 377.461 489.238 378.099C489.238 378.737 489.726 380.673 490.709 383.908C491.197 385.281 491.595 386.407 491.887 387.285C492.18 388.17 492.375 388.658 492.473 388.756C493.651 389.244 495.857 388.996 499.085 388.02C500.848 387.532 502.417 387.045 503.79 386.549C505.164 386.062 506.387 385.574 507.468 385.078C509.426 384.193 510.702 382.482 511.288 379.93C511.58 378.849 511.731 377.041 511.731 374.489C511.731 371.937 511.775 368.462 511.881 364.049C511.881 362.106 511.873 360.357 511.858 358.773L511.843 358.796ZM466.731 348.199L464.232 348.349C463.549 348.544 462.761 348.642 461.882 348.642H457.47L457.62 345.7C457.815 345.017 457.935 344.379 457.987 343.786C458.032 343.201 458.062 342.81 458.062 342.608C459.729 342.51 461.049 342.435 462.033 342.39C463.008 342.345 463.946 342.293 464.824 342.24C465.71 342.195 466.243 342.165 466.438 342.165C466.536 342.263 466.588 342.555 466.588 343.051C466.686 343.246 466.738 343.981 466.738 345.257V348.199H466.731ZM467.173 333.204H458.062V329.827L462.475 330.119H466.888L467.181 331.59V333.204H467.173ZM466.881 320.416C466.783 320.513 466.295 320.566 465.41 320.566H457.912L457.62 318.802V316.888H462.033C465.17 316.888 466.783 317.038 466.881 317.331C467.076 317.721 467.173 318.262 467.173 318.945C467.173 319.628 467.076 320.123 466.881 320.416Z" fill="#053793"/>
<path d="M536.339 260.728C536.189 258.184 536.069 256.758 535.971 256.465C535.971 256.173 535.604 255.978 534.868 255.88C534.133 255.783 532.639 255.73 530.388 255.73C529.6 255.828 528.331 255.903 526.568 255.948C524.804 256 522.673 256.045 520.173 256.098C517.674 256.15 514.882 256.173 511.798 256.173H502.169C495.7 256.173 490.259 256.225 485.853 256.323C481.44 256.42 479.091 256.518 478.799 256.616C478.701 256.616 478.581 258.011 478.431 260.803C478.281 263.595 478.213 268.226 478.213 274.695C478.018 278.418 477.898 282.042 477.845 285.57C477.793 289.097 477.77 291.791 477.77 293.653C477.575 296.887 477.553 299.169 477.695 300.49C477.838 301.811 478.161 302.471 478.648 302.471H520.248L522.2 391.18L545.465 392.23L536.542 264.308C536.474 263.002 536.407 261.802 536.339 260.721V260.728ZM520.241 291.896H515.761C515.123 291.896 514.657 291.994 514.365 292.189C514.072 292.189 512.991 292.212 511.13 292.264C509.269 292.317 507.16 292.437 504.811 292.632L495.992 292.782V286.463L500.255 286.17C501.434 286.17 503.145 286.148 505.404 286.095C507.655 286.05 509.959 286.02 512.316 286.02H520.256V291.896H520.241ZM520.241 275.138H496.278L495.985 271.903V268.376C496.18 268.376 497.403 268.331 499.662 268.226C501.914 268.128 504.758 268.076 508.188 268.076H520.241V275.13V275.138Z" fill="#053793"/>
<path d="M685.996 266.327C685.823 262.589 685.681 259.888 685.546 258.229C685.396 256.368 685.276 255.437 685.178 255.437C684.39 255.34 682.461 255.287 679.369 255.287H645.484C644.899 255.385 643.721 255.46 641.957 255.505C640.193 255.557 638.279 255.677 636.223 255.872L628.726 256.315L628.876 280.129C629.071 286.793 629.191 292.354 629.243 296.812C629.288 301.27 629.319 303.649 629.319 303.942C629.806 304.039 630.692 304.114 631.968 304.159C633.244 304.212 634.857 304.235 636.816 304.235C638.97 304.235 641.079 304.212 643.135 304.159C645.192 304.114 647.203 304.039 649.162 303.942C651.413 303.844 653.965 303.724 656.809 303.574C659.654 303.424 662.048 303.356 664.014 303.356L670.776 303.064L673.478 392.583L696 394.489L686.004 266.319L685.996 266.327ZM646.955 267.79H667.977L668.127 271.61V275.723C668.029 275.918 666.971 276.038 664.967 276.091C662.956 276.143 660.487 276.166 657.545 276.166H646.963V267.79H646.955ZM668.862 291.604L666.363 291.896C665.68 291.896 664.307 291.919 662.25 291.971C660.194 292.024 657.89 292.144 655.338 292.339L646.963 292.489L647.255 289.84V287.048L655.338 286.755C657.687 286.755 659.871 286.733 661.883 286.68C663.886 286.635 665.335 286.605 666.22 286.605H668.87V291.604H668.862Z" fill="#053793"/>
<path d="M98.7318 266.042C98.7844 267.423 98.8069 268.849 98.8069 270.327V275.648L104.571 275.498C106.342 275.303 108.091 275.183 109.817 275.13C111.535 275.078 112.946 275.055 114.027 275.055H117.577V276.384L117.727 277.419L121.277 277.712C122.065 277.712 122.995 277.66 124.084 277.562C125.164 277.464 126.23 277.367 127.258 277.269C128.294 277.172 129.202 277.074 129.99 276.977C130.778 276.879 131.266 276.826 131.469 276.826C131.566 276.631 131.641 276.038 131.694 275.055C131.746 274.072 131.769 272.819 131.769 271.288V260.128L131.476 252.15H127.483C126.298 252.15 125.044 252.203 123.716 252.3C122.387 252.398 121.277 252.45 120.391 252.45L117.284 252.6V260.878L115.806 261.028C115.31 261.231 114.177 261.321 112.406 261.321H106.349L98.3716 261.028L98.6643 263.1C98.6643 263.693 98.6868 264.676 98.7393 266.057L98.7318 266.042Z" fill="#053793"/>
<path d="M146.396 275.055C146.493 275.348 146.989 275.498 147.874 275.498C148.76 275.498 150.629 275.4 153.488 275.205C155.259 275.01 156.738 274.86 157.923 274.763C159.109 274.665 159.747 274.612 159.845 274.612C160.04 274.612 160.16 274.342 160.212 273.802C160.265 273.262 160.288 272.691 160.288 272.106L160.58 269.742L165.458 269.449C166.937 269.449 168.19 269.374 169.226 269.224C170.262 269.074 170.922 268.954 171.222 268.856C171.515 268.856 171.688 268.488 171.74 267.745C171.793 267.01 171.815 265.509 171.815 263.235V258.207L166.494 257.914H161.466V255.107L161.616 252.15L157.18 252H149.345C148.655 252 148.017 252.053 147.424 252.15L145.653 252.443V263.528C145.653 268.061 145.705 271.063 145.803 272.541C145.9 274.02 146.096 274.853 146.396 275.055Z" fill="#053793"/>
<path d="M169.451 279.641C169.053 279.251 168.61 279.048 168.123 279.048C167.92 279.048 167.139 279.07 165.759 279.123C164.378 279.175 162.704 279.198 160.73 279.198C156.595 279.401 153.315 279.566 150.899 279.716C148.482 279.866 146.591 279.986 145.21 280.084H141.66C141.563 279.986 141.457 280.992 141.367 283.116C141.27 285.239 141.217 289.202 141.217 295.011V309.788L151.709 309.345C157.421 309.345 161.608 309.195 164.273 308.903C166.929 308.61 168.363 308.167 168.558 307.574C168.655 306.981 168.828 304.842 169.076 301.142C169.323 297.45 169.594 293.09 169.886 288.061C170.277 284.511 170.352 282.245 170.111 281.262C169.864 280.279 169.646 279.738 169.443 279.633L169.451 279.641ZM157.923 294.275L157.631 298.561H155.417C154.726 298.561 154.163 298.508 153.721 298.411C153.278 298.313 152.955 298.261 152.76 298.261C152.76 298.163 152.737 297.743 152.685 297.007C152.632 296.272 152.61 295.356 152.61 294.275L152.317 290.583L153.646 290.29C154.141 290.29 154.629 290.268 155.124 290.215C155.619 290.163 156.107 290.14 156.602 290.14H157.931V294.275H157.923Z" fill="#053793"/>
<path d="M164.573 374.819H159.252L153.931 374.669L154.081 372.898C154.081 372.305 154.134 371.622 154.231 370.826C154.329 370.038 154.381 369.348 154.381 368.755V366.834L164.58 366.391V357.67L159.852 357.227C158.569 357.227 157.436 357.205 156.453 357.152C155.469 357.1 154.922 356.98 154.824 356.784C154.531 356.784 154.381 355.404 154.381 352.649V348.364L158.374 348.214H162.066L162.359 343.486V338.908L158.516 338.465C156.055 338.465 154.599 338.315 154.156 338.022C153.713 337.729 153.488 336.836 153.488 335.365V332.708H161.023C161.909 332.708 162.404 332.611 162.502 332.416C162.697 332.318 162.817 331.748 162.869 330.72C162.922 329.684 162.944 328.333 162.944 326.652V321.331H158.066L153.188 321.181L153.038 319.109C152.835 318.517 152.745 317.901 152.745 317.263V315.567C152.745 314.877 152.67 314.411 152.52 314.164C152.37 313.916 151.95 313.796 151.267 313.796C150.771 313.698 149.788 313.676 148.31 313.721C146.831 313.773 145.3 313.796 143.732 313.796C141.96 313.894 140.58 314.021 139.596 314.164C138.613 314.314 137.87 314.531 137.382 314.832C136.887 315.124 136.594 315.567 136.497 316.16C136.399 316.753 136.347 317.586 136.347 318.674V321.331L131.911 321.774H128.662C127.776 321.774 127.236 321.721 127.033 321.624C126.538 321.624 126.688 320.933 127.476 319.552C128.069 318.472 128.361 317.834 128.361 317.631L127.033 317.188C126.538 316.993 126.02 316.843 125.48 316.745C124.939 316.648 124.369 316.498 123.783 316.303C121.712 315.807 120.091 315.342 118.905 314.899C117.719 314.456 116.586 314.036 115.505 313.646C115.213 313.353 114.913 313.421 114.62 313.871C114.327 314.321 113.734 315.327 112.849 316.903C111.663 318.974 110.192 321.338 108.413 323.995C106.635 326.652 105.013 329.121 103.535 331.388C103.04 332.176 102.349 332.964 101.464 333.752C100.578 334.54 99.6924 335.23 98.8069 335.823C98.1164 336.416 97.4785 336.956 96.8856 337.452C96.2927 337.947 96 338.292 96 338.487C96.0976 338.78 96.5929 339.846 97.4785 341.662C98.3641 343.486 99.2497 345.279 100.135 347.058C100.631 347.846 101.096 348.536 101.539 349.129C101.981 349.722 102.252 350.015 102.349 350.015C103.04 350.015 104.068 349.475 105.456 348.386L108.113 346.908L108.406 368.785V390.804L114.612 390.654C116.586 390.452 118.53 390.332 120.451 390.287C122.372 390.234 123.926 390.114 125.104 389.919C126.29 389.716 128.159 389.574 130.718 389.476C133.277 389.379 136.534 389.273 140.474 389.183C144.415 389.086 148.032 388.981 151.334 388.891C154.636 388.793 157.713 388.688 160.573 388.598H164.708L164.558 381.799V374.849L164.573 374.819ZM136.197 371.269C136.197 372.057 136.144 372.77 136.047 373.415C135.949 374.061 135.896 374.474 135.896 374.669C135.499 374.961 133.682 375.112 130.425 375.112C127.168 375.112 125.254 374.961 124.661 374.669C124.564 374.376 124.489 373.933 124.436 373.34C124.384 372.748 124.361 372.132 124.361 371.494C124.361 370.856 124.384 370.263 124.436 369.723C124.489 369.183 124.556 368.815 124.661 368.612C124.857 368.32 125.495 368.192 126.583 368.245C127.663 368.297 128.999 368.32 130.575 368.32H136.189V371.277L136.197 371.269ZM136.347 358.413H124.226L123.934 354.42V350.871L127.926 350.578C129.007 350.578 130.14 350.555 131.326 350.503C132.512 350.45 133.397 350.428 133.983 350.428H136.197L136.347 354.42V358.413ZM123.048 338.607L123.341 336.686L123.491 334.472H125.562C126.253 334.277 127.236 334.179 128.519 334.179H136.647V336.393L136.797 338.607H123.055H123.048Z" fill="#053793"/>
<path d="M123.416 281.855H114.177L102.8 282.147L102.649 283.476C102.649 288.009 102.702 292.542 102.8 297.075C102.897 301.608 103.145 306.088 103.535 310.524L103.685 312.445H105.314C105.704 312.445 106.987 312.423 109.156 312.37C111.325 312.317 113.884 312.197 116.841 312.002C123.048 311.71 127.386 311.409 129.847 311.117C132.309 310.824 133.592 310.381 133.69 309.788C133.885 309.496 134.005 308.212 134.058 305.946C134.11 303.679 134.23 300.182 134.425 295.454V281.712H129.99C128.609 281.81 126.418 281.862 123.416 281.862V281.855ZM121.72 297.375L121.569 300.775H115.956V296.489C115.956 295.304 116.008 294.276 116.106 293.382C116.203 292.497 116.256 292.001 116.256 291.904C116.353 291.904 116.676 291.851 117.217 291.754C117.757 291.656 118.372 291.604 119.063 291.604C120.144 291.806 120.834 291.971 121.134 292.122C121.427 292.272 121.577 292.489 121.577 292.79C121.675 293.187 121.727 293.803 121.727 294.636V297.368L121.72 297.375Z" fill="#053793"/>
<path d="M176.476 309.863C177.511 310.306 178.517 310.749 179.508 311.192C180.491 311.634 181.279 312.002 181.872 312.302C182.855 312.7 183.62 312.798 184.161 312.595C184.701 312.4 185.174 311.612 185.564 310.231C186.157 308.85 186.75 307.349 187.335 305.721C187.921 304.092 188.491 302.471 189.032 300.842C189.377 299.814 189.677 298.823 189.962 297.848L195.216 284.511H218.811V285.697C218.714 285.99 218.541 287.026 218.293 288.804C218.046 290.575 217.776 292.647 217.483 295.011C217.19 297.375 216.868 299.446 216.522 301.218C216.177 302.989 216.004 304.024 216.004 304.325C216.004 304.625 216.297 304.918 216.89 305.21C217.483 305.503 218.714 305.856 220.582 306.246C221.963 306.741 223.262 307.086 224.5 307.282C225.731 307.484 226.646 307.679 227.232 307.874H229.446L230.774 303.589C232.253 298.861 233.484 294.11 234.467 289.33C235.45 284.549 235.945 280.241 235.945 276.399V270.785L234.617 269.899C234.617 269.509 233.236 269.261 230.482 269.164C229.101 269.066 226.316 269.014 222.128 269.014H205.505C203.741 269.096 202.338 269.126 201.287 269.104L207.959 252.165L188.251 252.525C185.669 252.3 184.123 252.33 183.628 252.608C183.628 253.103 183.455 254.236 183.11 256.008C182.765 257.779 182.375 259.655 181.924 261.621C181.482 263.595 181.061 265.464 180.671 267.235C180.273 269.006 179.981 270.192 179.785 270.785C179.388 272.556 178.975 274.477 178.532 276.549C178.089 278.62 177.722 280.339 177.421 281.72C176.731 285.855 175.868 289.825 174.832 293.615C173.796 297.405 172.588 301.278 171.215 305.218C171.012 305.713 170.922 306.156 170.922 306.546C170.922 306.936 170.87 307.237 170.772 307.432C170.772 307.634 171.117 307.927 171.808 308.317C172.198 308.317 172.821 308.467 173.654 308.76C174.487 309.053 175.425 309.428 176.461 309.871L176.476 309.863Z" fill="#053793"/>
<path d="M208.987 320.28C208.935 317.819 209.107 314.126 209.505 309.195C209.798 307.327 210 305.375 210.098 303.357C210.196 301.338 210.248 299.439 210.248 297.668C210.248 295.897 210.173 294.343 210.023 293.015C209.873 291.686 209.7 290.778 209.505 290.283C209.505 289.99 209.333 289.818 208.987 289.765C208.642 289.712 207.929 289.69 206.841 289.69C206.15 289.788 205.092 289.84 203.666 289.84H199.599L194.72 290.133L194.428 295.161C194.33 296.64 194.203 298.388 194.06 300.407C193.91 302.426 193.692 304.227 193.392 305.803C192.506 312.01 191.763 316.865 191.178 320.363C190.585 323.86 190.045 326.547 189.549 328.416C189.257 329.601 188.934 331.125 188.589 332.994C188.244 334.862 187.823 336.589 187.335 338.165C186.645 342.007 185.339 346.495 183.418 351.613C181.497 356.739 178.81 363.239 175.365 371.119C174.577 372.89 173.939 374.294 173.444 375.329C172.948 376.365 172.633 377.153 172.483 377.693C172.333 378.234 172.311 378.556 172.408 378.654C172.506 378.751 172.701 378.804 173.001 378.804C173.099 379.007 173.444 379.344 174.037 379.84C174.63 380.335 175.313 380.875 176.108 381.468C176.701 382.061 177.414 382.677 178.254 383.314C179.088 383.96 179.951 384.568 180.844 385.161C181.729 385.754 182.517 386.271 183.208 386.714C183.898 387.157 184.394 387.427 184.686 387.525C184.881 387.427 185.227 387.007 185.722 386.271C186.217 385.536 186.803 384.598 187.493 383.465C188.184 382.331 188.949 381.078 189.782 379.697C190.615 378.316 191.433 376.988 192.221 375.704C194.09 372.552 195.696 369.325 197.024 366.023C198.353 362.721 199.509 359.351 200.499 355.899C202.571 376.447 233.048 400.268 233.048 400.268L244.156 369.543C227.855 374.158 208.995 320.28 208.995 320.28H208.987Z" fill="#053793"/>
<defs>
<filter id="filter0_d_887_1981" x="21" y="33" width="751.388" height="567.662" filterUnits="userSpaceOnUse" color-interpolation-filters="sRGB">
<feFlood flood-opacity="0" result="BackgroundImageFix"/>
<feColorMatrix in="SourceAlpha" type="matrix" values="0 0 0 0 0 0 0 0 0 0 0 0 0 0 0 0 0 0 127 0" result="hardAlpha"/>
<feOffset dx="10.9" dy="16.7"/>
<feColorMatrix type="matrix" values="0 0 0 0 0.529412 0 0 0 0 0.27451 0 0 0 0 0.137255 0 0 0 1 0"/>
<feBlend mode="normal" in2="BackgroundImageFix" result="effect1_dropShadow_887_1981"/>
<feBlend mode="normal" in="SourceGraphic" in2="effect1_dropShadow_887_1981" result="shape"/>
</filter>
<clipPath id="clip0_887_1981">
<rect width="423.273" height="107.152" fill="white" transform="translate(182.959 126.119)"/>
</clipPath>
</defs>
</svg>
