<svg width="1128" height="754" viewBox="0 0 1128 754" fill="none" xmlns="http://www.w3.org/2000/svg">
<g filter="url(#filter0_d_230_3986)">
<path d="M1024.86 414.622C1040.99 394.666 1050.74 368.679 1050.74 340.385C1050.74 277.236 1002.35 226.059 942.611 226.059C882.873 226.059 930.557 226.591 924.708 227.656C899.448 162.466 829.872 115.636 747.976 115.636C666.08 115.636 705.432 118.917 686.111 124.949C680.261 122.376 674.146 120.07 667.941 117.853C633.818 85.1251 585.07 64.7256 530.916 64.7256C444.5 64.7256 371.822 116.877 350.462 187.655C343.726 186.325 336.813 185.526 329.811 185.526C290.458 185.526 256.069 207.788 237.102 240.96C225.757 234.751 212.817 231.292 199.168 231.292C153.434 231.292 116.297 270.495 116.297 318.922C116.297 367.348 121.437 353.601 130.212 367.437V369.743C98.3931 397.061 78.0078 438.747 78.0078 485.488C78.0078 567.707 141.025 634.405 218.755 634.405C296.485 634.405 227.707 634.139 232.139 633.695C236.836 646.29 244.724 656.135 255.626 661.279C273.441 669.705 294.89 663.408 313.148 646.999C321.302 655.336 331.318 664.206 343.46 672.986C368.188 690.814 397.348 705.005 429.965 714.939C469.317 727.001 514.076 733.121 563.09 733.121C612.103 733.121 657.128 727.001 697.101 715.027C730.161 705.094 759.941 691.169 785.644 673.519C791.76 669.35 797.344 665.093 802.484 660.924C814.804 668.64 829.251 673.164 844.673 673.164C874.188 673.164 900.068 656.844 914.781 632.276C928.873 638.573 944.295 642.121 960.604 642.121C1025.3 642.121 1077.69 586.688 1077.69 518.305C1077.69 449.922 1056.68 436.884 1024.86 414.799V414.622Z" fill="#FFFBD2"/>
</g>
<path d="M1045.84 404.771V404.589C1062.38 384.137 1072.37 357.504 1072.37 328.508C1072.37 263.789 1022.75 211.342 961.504 211.342C957.096 211.342 953.279 211.342 949.953 211.342C950.553 162.603 893.51 110.891 813.92 91.2122C761.938 78.3593 712.092 82.0861 677.595 98.3022C642.735 66.0246 593.716 46 539.381 46C450.776 46 376.257 99.4475 354.355 171.983C347.449 170.62 340.36 169.802 333.181 169.802C293.795 169.802 259.271 191.544 239.56 224.195C225.292 216.577 208.998 212.251 191.686 212.251C135.469 212.251 89.9038 257.826 89.9038 314.055C89.9038 337.479 97.8192 359.058 111.114 376.265C88.6588 403.171 75 438.502 75 477.216C75 561.477 139.613 629.832 219.312 629.832C224.629 629.832 229.273 629.832 233.317 629.832C238.16 642.384 246.148 652.201 257.117 657.373C275.383 666.009 297.376 659.555 316.096 642.739C324.457 651.283 334.726 660.373 347.176 669.372C372.531 687.642 402.429 702.186 435.872 712.366C476.221 724.728 522.114 731 572.369 731C622.624 731 668.789 724.728 709.775 712.457C743.672 702.277 774.206 688.006 800.561 669.917C806.831 665.645 812.557 661.282 817.827 657.01C830.459 664.918 845.272 669.554 861.085 669.554C891.347 669.554 917.883 652.829 932.968 627.65C947.418 634.104 963.23 637.74 979.952 637.74C1046.29 637.74 1100 580.929 1100 510.847C1100 440.766 1078.46 427.404 1045.84 404.771ZM233.035 629.104C233.035 629.104 233.062 629.159 233.071 629.195C232.771 629.168 232.735 629.141 233.035 629.104Z" fill="#FFFBD2"/>
<path d="M448.577 176.923L449.818 170.094C459.833 162.378 467.367 155.726 472.596 150.138C477.826 144.55 480.839 139.583 481.637 135.237C482.434 130.891 481.814 129.827 480.573 128.142C479.332 126.457 477.294 125.57 474.458 125.57C471.621 125.57 466.924 127.61 462.492 131.69L457.174 125.304C460.631 122.199 463.91 119.893 467.013 118.474C470.115 117.055 473.66 116.346 477.56 116.346C483.144 116.346 487.398 118.031 490.234 121.401C493.07 124.772 493.957 129.206 493.07 134.705C491.475 143.752 482.966 154.75 467.544 167.611C471.621 167.167 474.812 166.99 477.382 166.99H490.234L488.461 176.923H448.666H448.577Z" fill="#E95513"/>
<path d="M529.941 174.972C525.421 180.294 520.014 183.043 513.81 183.043C507.606 183.043 503.174 180.382 500.515 174.972C497.856 169.651 497.413 161.934 499.186 151.912C500.958 141.889 504.06 134.262 508.581 129.118C513.101 123.885 518.419 121.312 524.712 121.312C531.004 121.312 535.436 123.885 538.095 129.118C540.754 134.35 541.197 141.889 539.425 151.912C537.652 161.934 534.55 169.651 530.03 174.972H529.941ZM510.265 152.178C507.694 166.635 509.467 173.819 515.405 173.819C521.344 173.819 525.598 166.635 528.168 152.178C530.739 137.721 528.966 130.537 523.028 130.537C517.089 130.537 512.835 137.721 510.265 152.178Z" fill="#E95513"/>
<path d="M543.059 171.868L544.299 165.038C554.315 157.322 561.849 150.67 567.078 145.082C572.307 139.495 575.321 134.528 576.118 130.182C576.65 127.166 576.296 124.771 575.055 123.086C573.814 121.401 571.775 120.514 568.939 120.514C566.103 120.514 561.405 122.554 556.974 126.634L551.656 120.248C555.113 117.144 558.392 114.838 561.494 113.419C564.596 112 568.141 111.29 572.041 111.29C577.625 111.29 581.879 112.975 584.716 116.346C587.552 119.716 588.438 124.151 587.552 129.65C585.956 138.696 577.448 149.694 562.026 162.555C566.103 162.111 569.294 161.934 571.864 161.934H584.716L582.943 171.868H543.147H543.059Z" fill="#E95513"/>
<path d="M606.873 177.012C598.897 177.012 592.692 174.351 588.261 168.941L595.085 161.402C598.453 165.393 602.53 167.433 607.139 167.433C611.748 167.433 612.989 166.458 615.293 164.506C617.598 162.555 619.016 159.894 619.636 156.435C620.257 152.976 619.814 150.404 618.307 148.453C616.8 146.59 614.584 145.615 611.482 145.615C608.38 145.615 608.292 145.881 606.962 146.324C605.721 146.768 604.037 147.566 601.999 148.808L597.213 145.26L603.949 116.346H635.767L633.995 126.279H612.369L609.001 138.874C611.571 137.721 614.053 137.189 616.446 137.189C621.764 137.189 625.841 138.785 628.677 141.978C631.602 145.171 632.488 149.961 631.336 156.169C630.272 162.466 627.347 167.433 622.65 171.247C617.952 175.061 612.723 176.923 606.962 176.923L606.873 177.012Z" fill="#E95513"/>
<path d="M381.394 264.286C382.635 292.668 395.753 311.56 420.392 321.405L423.937 304.642C407.541 297.103 398.766 283.621 397.259 264.286H431.56L434.396 250.894H371.733L376.342 228.986H433.067L435.903 215.86H379.178L384.142 196.968H367.213L362.25 215.86H305.88L303.044 228.986H359.413L354.716 250.894H292.408L289.572 264.286H323.429C316.782 282.468 302.423 296.393 280.177 305.972L276.809 321.76C291.256 316.97 304.55 309.609 316.516 299.32C326.265 291.249 333.976 279.63 339.471 264.286H351.88L327.417 365.84H344.346L368.808 264.286H381.394Z" fill="#E95513" stroke="white" stroke-width="15" stroke-linecap="round" stroke-linejoin="round"/>
<path d="M554.138 352.271L557.506 335.508C537.741 328.679 522.407 318.745 511.417 305.973C524.003 301.982 533.575 296.571 540.134 289.653C544.211 296.66 550.592 302.337 558.924 306.416L562.026 290.895C554.847 287.525 550.504 282.026 548.82 274.753C548.997 273.866 549.351 272.89 549.529 272.003L551.745 260.917H536.323L533.93 272.624C531.98 281.494 524.623 287.968 511.949 292.314L509.644 304.022C506.808 300.651 504.238 297.015 502.111 292.935L509.556 255.861H572.662L575.587 241.138H512.569L518.951 209.829H501.402L495.109 241.138H435.371L432.446 255.861H492.184L485.714 288.234C482.434 294.177 477.826 299.764 472.33 304.997L475.167 290.984C467.899 287.613 463.556 282.38 461.872 275.108C462.049 274.132 462.404 273.068 462.67 272.003L464.885 260.917H449.463L447.159 272.624C445.209 281.494 437.853 287.968 425.267 292.314L422.342 306.771C436.08 302.514 446.361 296.926 453.275 289.742C457.086 296.571 463.113 302.07 471.267 306.062C458.149 317.769 438.65 327.88 412.947 336.217L409.756 352.094C439.714 343.224 463.29 331.162 480.13 316.261L464.619 393.159H482.08L497.236 314.399C510.176 331.339 529.587 343.934 554.049 352.36" fill="#E95513"/>
<path d="M554.138 352.271L557.506 335.508C537.741 328.679 522.407 318.745 511.417 305.973C524.003 301.982 533.575 296.571 540.134 289.653C544.211 296.66 550.592 302.337 558.924 306.416L562.026 290.895C554.847 287.525 550.504 282.026 548.82 274.753C548.997 273.866 549.351 272.89 549.529 272.003L551.745 260.917H536.323L533.93 272.624C531.98 281.494 524.623 287.968 511.949 292.314L509.644 304.022C506.808 300.651 504.238 297.015 502.111 292.935L509.556 255.861H572.662L575.587 241.138H512.569L518.951 209.829H501.402L495.109 241.138H435.371L432.446 255.861H492.184L485.714 288.234C482.434 294.177 477.826 299.764 472.33 304.997L475.167 290.984C467.899 287.613 463.556 282.38 461.872 275.108C462.049 274.132 462.404 273.068 462.67 272.003L464.885 260.917H449.463L447.159 272.624C445.209 281.494 437.853 287.968 425.267 292.314L422.342 306.771C436.08 302.514 446.361 296.926 453.275 289.742C457.086 296.571 463.113 302.07 471.267 306.062C458.149 317.769 438.65 327.88 412.947 336.217L409.756 352.094C439.714 343.224 463.29 331.162 480.13 316.261L464.619 393.159H482.08L497.236 314.399C510.176 331.339 529.587 343.934 554.049 352.36" stroke="white" stroke-width="15" stroke-linecap="round" stroke-linejoin="round"/>
<path d="M783.074 272.713L785.733 261.271C799.293 254.708 813.74 245.927 826.503 236.969L831.467 216.481L733.706 216.215L729.629 234.042H802.307C792.203 240.517 779.972 247.346 769.602 251.87L764.727 272.801H705.964L701.798 290.717H760.561L752.23 326.638C751.609 329.211 750.457 329.92 747.089 330.097C744.43 330.186 728.211 330.275 719.259 329.831L714.827 348.989C728.654 348.989 753.559 348.989 754.002 348.989C762.511 348.989 768.095 341.539 770.222 332.137L778.908 290.806H836.43L840.596 272.89H783.074V272.713Z" fill="#E95513" stroke="white" stroke-width="15" stroke-linecap="round" stroke-linejoin="round"/>
<path d="M647.999 225.528H628.145C627.614 222.512 626.905 219.23 626.107 216.126H608.115L607.406 216.303C607.937 219.053 608.558 222.335 609.001 225.528H585.868L582.5 240.162H644.631L647.999 225.528Z" fill="#E95513" stroke="white" stroke-width="15" stroke-linecap="round" stroke-linejoin="round"/>
<path d="M576.296 307.215C575.144 310.408 565.217 319.809 560.342 320.519C560.342 320.519 556.531 338.701 556.708 338.701C566.546 334.798 583.829 320.696 589.945 307.481L576.296 307.126V307.215Z" fill="#E95513" stroke="white" stroke-width="15" stroke-linecap="round" stroke-linejoin="round"/>
<path d="M629.209 325.397C628.057 319.986 626.018 313.334 624.157 307.037L610.951 307.303C612.546 311.738 613.876 319.72 614.939 325.397H629.297H629.209Z" fill="#E95513" stroke="white" stroke-width="15" stroke-linecap="round" stroke-linejoin="round"/>
<path d="M654.735 288.234L656.862 278.921H684.781L682.654 288.234H654.735ZM662.269 255.506H690.188L688.061 264.819H660.141L662.269 255.506ZM667.675 232.268H695.594L693.467 241.581H665.548L667.675 232.268ZM686.111 320.962C683.629 330.275 683.452 333.645 680.704 333.645H676.893C675.297 333.645 675.032 333.202 676.007 329.299L681.856 303.844H695.683L715.802 216.658H655.621L635.502 303.844H643.036C638.604 318.035 632.577 330.009 615.914 335.508L612.103 351.916C638.958 347.836 651.987 326.284 659.167 303.844H665.814L659.876 329.476C656.508 343.934 658.014 348.9 670.511 348.9H679.109C692.669 348.9 694.265 341.628 700.469 320.962H686.111Z" fill="#E95513" stroke="white" stroke-width="15" stroke-linecap="round" stroke-linejoin="round"/>
<path d="M639.49 243.799H623.093C620.789 249.209 617.687 255.595 615.028 260.651H574.966L571.509 275.729H599.872L597.479 286.106H570.623L567.167 301.006H594.022L582.411 351.207H598.454L610.064 301.006H631.247L634.704 286.106H613.521L615.914 275.729H639.49L642.947 260.651H629.918C632.843 255.595 636.122 249.741 639.579 243.799" fill="#E95513"/>
<path d="M639.49 243.799H623.093C620.789 249.209 617.687 255.595 615.028 260.651H574.966L571.509 275.729H599.872L597.479 286.106H570.623L567.167 301.006H594.022L582.411 351.207H598.454L610.064 301.006H631.247L634.704 286.106H613.521L615.914 275.729H639.49L642.947 260.651H629.918C632.843 255.595 636.122 249.741 639.579 243.799" stroke="white" stroke-width="15" stroke-linecap="round" stroke-linejoin="round"/>
<path d="M604.392 259.586C604.569 256.127 604.481 248.677 604.038 244.242H589.147C589.591 248.145 589.768 255.506 589.679 259.586H604.481H604.392Z" fill="#E95513" stroke="white" stroke-width="15" stroke-linecap="round" stroke-linejoin="round"/>
<path d="M381.394 264.286C382.635 292.668 395.753 311.56 420.392 321.405L423.937 304.642C407.541 297.103 398.766 283.621 397.259 264.286H431.56L434.396 250.894H371.733L376.342 228.986H433.067L435.903 215.86H379.178L384.142 196.968H367.213L362.25 215.86H305.88L303.044 228.986H359.413L354.716 250.894H292.408L289.572 264.286H323.429C316.782 282.468 302.423 296.393 280.177 305.972L276.809 321.76C291.256 316.97 304.55 309.609 316.516 299.32C326.265 291.249 333.976 279.63 339.471 264.286H351.88L327.417 365.84H344.346L368.808 264.286H381.394Z" fill="#E95513"/>
<path d="M554.138 352.271L557.506 335.508C537.741 328.679 522.407 318.745 511.417 305.973C524.003 301.982 533.575 296.571 540.134 289.653C544.211 296.66 550.592 302.337 558.924 306.416L562.026 290.895C554.847 287.525 550.504 282.026 548.82 274.753C548.997 273.866 549.351 272.89 549.529 272.003L551.745 260.917H536.323L533.93 272.624C531.98 281.494 524.623 287.968 511.949 292.314L509.644 304.022C506.808 300.651 504.238 297.015 502.111 292.935L509.556 255.861H572.662L575.587 241.138H512.569L518.951 209.829H501.402L495.109 241.138H435.371L432.446 255.861H492.184L485.714 288.234C482.434 294.177 477.826 299.764 472.33 304.997L475.167 290.984C467.899 287.613 463.556 282.38 461.872 275.108C462.049 274.132 462.404 273.068 462.67 272.003L464.885 260.917H449.463L447.159 272.624C445.209 281.494 437.853 287.968 425.267 292.314L422.342 306.771C436.08 302.514 446.361 296.926 453.275 289.742C457.086 296.571 463.113 302.07 471.267 306.062C458.149 317.769 438.65 327.88 412.947 336.217L409.756 352.094C439.714 343.224 463.29 331.162 480.13 316.261L464.619 393.159H482.08L497.236 314.399C510.176 331.339 529.587 343.934 554.049 352.36" fill="#E95513"/>
<path d="M783.074 272.713L785.733 261.271C799.293 254.708 813.74 245.927 826.503 236.969L831.467 216.481L733.706 216.215L729.629 234.042H802.307C792.203 240.517 779.972 247.346 769.602 251.87L764.727 272.801H705.964L701.798 290.717H760.561L752.23 326.638C751.609 329.211 750.457 329.92 747.089 330.097C744.43 330.186 728.211 330.275 719.259 329.831L714.827 348.989C728.654 348.989 753.559 348.989 754.002 348.989C762.511 348.989 768.095 341.539 770.222 332.137L778.908 290.806H836.43L840.596 272.89H783.074V272.713Z" fill="#E95513"/>
<path d="M647.999 225.528H628.145C627.614 222.512 626.905 219.23 626.107 216.126H608.115L607.406 216.303C607.937 219.053 608.558 222.335 609.001 225.528H585.868L582.5 240.162H644.631L647.999 225.528Z" fill="#E95513"/>
<path d="M576.296 307.215C575.144 310.408 565.217 319.809 560.342 320.519C560.342 320.519 556.531 338.701 556.708 338.701C566.546 334.798 583.829 320.696 589.945 307.481L576.296 307.126V307.215Z" fill="#E95513"/>
<path d="M629.209 325.397C628.057 319.986 626.018 313.334 624.157 307.037L610.951 307.303C612.546 311.738 613.876 319.72 614.939 325.397H629.297H629.209Z" fill="#E95513"/>
<path d="M654.735 288.234L656.862 278.921H684.781L682.654 288.234H654.735ZM662.269 255.506H690.188L688.061 264.819H660.141L662.269 255.506ZM667.675 232.268H695.594L693.467 241.581H665.548L667.675 232.268ZM686.111 320.962C683.629 330.275 683.452 333.645 680.704 333.645H676.893C675.297 333.645 675.032 333.202 676.007 329.299L681.856 303.844H695.683L715.802 216.658H655.621L635.502 303.844H643.036C638.604 318.035 632.577 330.009 615.914 335.508L612.103 351.916C638.958 347.836 651.987 326.284 659.167 303.844H665.814L659.876 329.476C656.508 343.934 658.014 348.9 670.511 348.9H679.109C692.669 348.9 694.265 341.628 700.469 320.962H686.111Z" fill="#E95513"/>
<path d="M639.49 243.799H623.093C620.789 249.209 617.687 255.595 615.028 260.651H574.966L571.509 275.729H599.872L597.479 286.106H570.623L567.167 301.006H594.022L582.411 351.207H598.454L610.064 301.006H631.247L634.704 286.106H613.521L615.914 275.729H639.49L642.947 260.651H629.918C632.843 255.595 636.122 249.741 639.579 243.799" fill="#E95513"/>
<path d="M604.392 259.586C604.569 256.127 604.481 248.677 604.038 244.242H589.147C589.591 248.145 589.768 255.506 589.679 259.586H604.481H604.392Z" fill="#E95513"/>
<path d="M711.725 384.555H750.723V513.693H621.675V474.667C621.675 424.91 662.003 384.555 711.725 384.555Z" fill="#FAD6C0"/>
<path d="M313.769 386.506H369.341C409.934 386.506 442.816 419.5 442.816 460.033V515.644H313.769V386.506Z" fill="#FAD6C0"/>
<path d="M534.728 395.907H596.593V533.914H530.296C495.641 533.914 467.545 505.798 467.545 471.119V463.048C467.545 425.974 497.68 395.818 534.728 395.818V395.907Z" fill="#FAD6C0"/>
<path d="M731.756 519.635V515.644L658.103 512.362V519.635H630.893V398.923H758.966V519.635H731.756ZM658.103 485.222L731.756 488.503V465.266H658.103V485.222ZM658.103 438.037H731.756V416.307H658.103V438.037Z" fill="#033792"/>
<path d="M415.429 478.57V464.733H365.529V447.438H380.774L370.759 437.416L382.99 425.176L392.562 434.755L392.917 434.134C395.93 428.546 399.83 423.491 404.527 419.056L405.414 418.169H365.618V400.874H425.976V418.524C424.204 420.653 413.39 434.223 410.377 446.817L410.2 447.438H425.888V478.57H415.518H415.429Z" fill="#033792"/>
<path d="M297.726 529.036V506.242H315.541L316.073 493.914H297.637V476.618H316.782L317.314 464.733H297.549V400.874H357.907V464.733H338.674L339.206 476.618H357.907V493.914H340.003L340.535 506.242H357.907V529.036H297.549H297.726ZM333.356 447.438H341.776V438.037H333.356V447.438ZM314.034 447.438H322.898V438.037H314.034V447.438ZM333.356 427.66H341.776V418.258H333.356V427.66ZM314.034 427.66H322.898V418.258H314.034V427.66Z" fill="#033792"/>
<path d="M365.441 529.036V506.331H390.346L386.801 471.208H408.073L419.772 529.036H365.441Z" fill="#033792"/>
<path d="M462.847 451.873L488.551 449.39V441.496L462.847 443.979V426.684L488.551 424.201V410.453H498.921V412.937L523.117 410.63V417.549L498.921 419.855V423.225L523.117 420.919V463.492L462.759 469.346V452.05L462.847 451.873ZM498.921 440.432V448.325L506.809 447.527V439.633L498.921 440.432Z" fill="#033792"/>
<path d="M530.562 447.438V420.741H590.92V438.391C588.173 441.673 585.78 445.841 583.918 450.542L583.652 451.163L590.92 451.873V469.168L550.947 464.467L530.562 447.438ZM562.735 449.123L562.913 448.857C565.04 444.955 567.344 440.875 569.471 438.923L570.446 438.036H546.87L562.647 449.123H562.735Z" fill="#033792"/>
<path d="M526.839 484.955L462.847 491.341V474.046L526.839 467.66L590.92 474.046V491.341L526.839 484.955Z" fill="#033792"/>
<path d="M597.657 561.41C591.452 561.321 586.046 560.789 581.082 559.991C577.626 559.37 574.346 558.572 571.333 557.596C561.672 554.492 553.163 549.259 546.782 542.341C541.464 536.576 538.007 529.569 535.171 523.449V523.183H498.832L498.3 528.15H523.117V550.944H468.875L480.574 493.027H573.637V523.183H553.872L554.316 523.893C555.556 526.021 557.329 527.973 559.368 529.569C562.736 532.23 567.167 534.181 572.574 535.423H572.84L592.073 516.265L601.29 525.489L589.68 537.108H590.921C598.631 536.842 607.495 535.778 617.156 533.826C620.967 554.403 621.853 559.015 622.03 560.08C619.726 560.878 602.177 561.499 597.834 561.499C593.491 561.499 597.657 561.499 597.657 561.499V561.41ZM499.541 515.999H557.329V511.298H500.073L499.63 515.999H499.541ZM500.693 504.203H557.24V500.034H501.136L500.693 504.203Z" fill="#033792"/>
<path d="M254.103 610.543H250.458V618.401H244.878V610.543H231.895V606.443L243.17 588.106H250.345V605.987H253.989V610.543H254.103ZM244.878 605.873V599.723C244.878 598.015 244.992 595.168 245.106 593.459H244.992C244.308 595.054 243.397 596.762 242.6 598.356L237.931 605.873H244.992H244.878Z" fill="#DE5419"/>
<path d="M258.089 615.097C258.089 612.934 259.683 611.111 261.847 611.111C264.011 611.111 265.606 612.82 265.606 615.097C265.606 617.375 264.011 619.084 261.847 619.084C259.683 619.084 258.089 617.375 258.089 615.097Z" fill="#DE5419"/>
<path d="M269.592 614.756L272.439 610.884C274.261 612.592 276.425 613.959 279.158 613.959C281.892 613.959 284.283 612.478 284.283 609.745C284.283 607.011 282.575 604.847 275.855 604.847V600.52C281.436 600.52 283.258 598.584 283.258 595.85C283.258 593.117 281.778 592.092 279.158 591.978C276.994 591.978 275.172 593.003 273.464 594.711L270.389 591.067C273.008 588.789 275.969 587.309 279.5 587.309C285.422 587.309 289.294 590.156 289.294 595.395C289.294 600.634 287.472 601.089 284.169 602.342V602.57C287.586 603.481 290.205 606.1 290.205 610.086C290.205 614.072 285.308 618.856 279.5 618.856C273.692 618.856 271.414 617.034 269.364 614.642L269.592 614.756Z" fill="#DE5419"/>
<path d="M355.805 610.428C354.78 613.389 353.072 616.806 351.705 618.856C351.022 618.287 349.428 617.148 348.517 616.692C349.883 614.756 351.25 612.023 352.161 609.403L355.919 610.428H355.805ZM361.614 608.037V621.703H356.944V608.037H349.314V603.937H356.944V600.748H349.086V596.762H353.072C352.844 595.509 352.389 593.8 351.933 592.548L355.35 591.75H349.769V587.764H356.83C356.489 586.625 356.033 585.487 355.578 584.575L360.475 583.437C361.044 584.803 361.842 586.512 362.297 587.878H368.219V591.864H363.094L366.397 592.548C365.828 594.142 365.144 595.737 364.575 596.989H368.789V600.975H361.728V604.164H368.105V608.264H361.728L361.614 608.037ZM355.692 591.637C356.261 593.003 356.83 594.712 357.058 595.85L354.097 596.648H360.019C360.589 595.167 361.386 593.117 361.728 591.523H355.692V591.637ZM386.897 601.659H383.025V621.817H378.242V601.659H374.369V602.114C374.369 608.15 373.8 616.578 370.383 621.817C369.586 620.906 367.65 619.425 366.625 618.856C367.422 617.717 367.992 616.35 368.447 614.87L365.486 616.692C364.803 615.098 363.436 612.478 362.297 610.542L365.486 608.834C366.625 610.428 367.878 612.706 368.561 614.187C369.7 610.2 369.814 605.759 369.814 602V587.423C374.255 586.625 379.267 585.373 382.228 583.892L385.986 587.423C382.569 588.789 378.355 589.814 374.369 590.498V596.989H386.783V601.545L386.897 601.659Z" fill="#DE5419"/>
<path d="M407.625 610.2L408.536 614.528C402.728 617.034 396.464 619.539 391.567 621.475L389.403 616.464C392.25 615.553 396.122 614.3 400.336 612.82V598.242H390.883V593.345H400.336V584.348H405.461V610.998L407.739 610.2H407.625ZM420.95 616.009C422.431 616.009 422.658 614.073 423 606.784C424.139 607.695 426.303 608.72 427.67 609.062C427.214 617.603 426.075 620.792 421.406 620.792H416.508C411.953 620.792 410.586 619.084 410.586 613.389V584.348H415.711V593.345H426.417V598.242H415.711V613.503C415.711 615.667 415.939 616.123 417.306 616.123H420.95V616.009Z" fill="#DE5419"/>
<path d="M453.75 599.722C456.484 607.695 461.381 614.186 469.125 617.261C467.873 618.286 466.278 620.45 465.481 621.817C458.078 618.286 453.295 612.364 450.106 604.392C447.942 611.225 443.5 617.603 434.731 621.817C433.934 620.45 432.567 618.742 431.086 617.717C440.539 613.503 444.411 606.67 446.006 599.609H431.884V594.597H446.803C447.259 590.725 447.145 586.967 447.259 583.664H452.611C452.611 587.081 452.611 590.839 452.156 594.597H468.328V599.609H453.864L453.75 599.722Z" fill="#DE5419"/>
<path d="M510.353 587.992C508.872 591.978 507.05 596.534 505.342 600.178C508.872 603.823 509.556 607.125 509.556 609.745C509.556 612.364 508.872 614.87 507.278 615.895C506.594 616.464 505.569 616.806 504.431 617.034C503.519 617.148 502.153 617.148 500.9 617.034C500.9 615.667 500.444 613.617 499.647 612.364C500.672 612.364 501.469 612.478 502.267 612.364C502.836 612.364 503.519 612.25 503.861 612.023C504.658 611.567 504.886 610.542 504.886 609.289C504.886 607.011 503.975 604.05 500.672 600.861C501.811 597.9 503.292 593.8 504.317 590.611H499.078V622.045H494.294V586.853C493.042 589.928 491.675 592.889 489.853 595.623H492.928V599.836H486.778C485.867 600.861 485.069 601.886 484.158 602.798H491.561V621.361H486.892V619.767H480.286V621.817H475.844V609.403C475.161 609.859 474.478 610.314 473.794 610.656C473.225 609.631 471.858 607.581 470.947 606.556C474.592 604.848 477.894 602.57 480.742 599.836H471.972V595.623H479.147V592.206H473.794V587.992H479.147V584.006H483.703V587.992H487.917V590.042C488.714 588.561 489.283 587.081 489.967 585.486L494.294 586.625V585.828H506.822C506.822 585.714 510.353 587.878 510.353 587.878V587.992ZM487.006 606.67H480.4V609.289H487.006V606.67ZM487.006 615.895V612.934H480.4V615.895H487.006ZM484.614 595.509C485.411 594.484 486.094 593.345 486.892 592.092H483.817V595.509H484.614Z" fill="#DE5419"/>
<path d="M535.522 584.803C535.295 585.031 535.067 585.373 534.953 585.6C538.711 588.903 545.431 591.75 552.036 593.003C551.011 593.914 549.645 595.623 548.961 596.762C548.164 596.534 547.253 596.306 546.456 596.078V606.67H517.983V596.306C517.072 596.648 516.275 596.875 515.478 597.103C515.022 596.192 513.656 594.256 512.858 593.345C520.375 591.637 527.664 588.22 531.422 583.437L535.75 584.917L535.522 584.803ZM544.861 595.509C542.925 594.825 541.103 593.914 539.281 593.003V594.028H524.931V593.231C523.336 594.028 521.742 594.825 519.92 595.509H544.861ZM520.033 607.923H544.178V621.817H539.167V620.792H524.817V621.931H520.033V607.923ZM524.703 603.595C524.475 602.342 524.02 600.634 523.336 599.381L526.525 598.47H521.856V603.595H524.703ZM524.931 611.112V612.706H539.281V611.112H524.931ZM539.167 617.603V616.009H524.817V617.603H539.167ZM529.942 598.47H526.753C527.436 599.837 528.12 601.659 528.347 602.798L525.728 603.595H529.942V598.47ZM535.75 590.839C534.497 589.928 533.358 589.131 532.333 588.22C531.308 589.131 530.056 590.042 528.803 590.839H535.75ZM533.814 598.47V603.595H537.686L535.181 602.912C535.75 601.659 536.433 599.837 536.775 598.47H533.814ZM542.014 598.47H537.8L540.989 599.267C540.192 600.862 539.395 602.456 538.711 603.709H542.014V598.584V598.47Z" fill="#DE5419"/>
<path d="M570.145 586.284C567.184 593.004 562.4 599.951 557.959 604.279C557.048 603.254 554.884 601.09 553.631 600.065C557.959 596.42 562.286 590.498 564.792 584.462L570.259 586.17L570.145 586.284ZM581.647 605.19C584.95 609.745 588.709 615.554 590.759 619.312L585.748 621.931C585.178 620.792 584.495 619.426 583.584 617.945C563.767 619.54 560.92 619.767 558.984 620.451C558.642 619.426 557.731 616.692 556.934 615.212C558.3 614.87 559.439 613.731 561.034 611.909C562.742 610.201 567.867 603.14 571.17 596.306L576.864 598.698C573.675 604.279 569.803 609.745 565.817 614.187L580.85 613.162C579.484 611.112 578.231 608.948 576.864 607.126L581.647 604.962V605.19ZM582.445 584.576C584.153 590.27 587.911 596.079 593.036 599.154C591.897 600.179 590.189 602.57 589.392 604.051C584.723 600.52 581.078 594.94 578.8 589.587H572.195V584.576H582.559H582.445Z" fill="#DE5419"/>
<path d="M631.645 585.145V621.931H626.861V620.45H601.236V621.931H596.681V585.145H631.645ZM626.861 616.122V589.586H601.236V616.122H626.861ZM615.814 610.656C615.7 611.567 615.814 612.933 615.814 613.617C608.867 615.325 607.614 615.781 606.931 616.122C606.817 615.439 606.247 614.072 605.792 613.617C606.361 613.275 607.158 612.933 607.158 611.339V609.858C606.02 610.314 604.995 610.656 603.97 610.997C603.514 610.314 602.375 608.947 601.578 608.264C604.197 607.695 607.045 606.897 609.322 605.758H604.653V599.836H623.558V605.758H614.789C613.65 606.67 612.17 607.581 610.689 608.264V611.795L615.814 610.656ZM625.381 598.697H602.603V595.964H611.714V594.37H604.539V591.75H611.714V590.042H616.156V591.75H623.672V594.37H616.156V595.964H625.381V598.697ZM608.753 603.708H619.345V602H608.753V603.708ZM625.836 608.15C624.811 608.947 623.558 609.631 622.42 610.314C623.9 611.339 625.153 612.25 626.064 613.161L622.989 614.983C620.939 613.047 616.611 609.972 613.195 607.808L616.156 606.214C617.295 606.897 618.661 607.808 620.028 608.606C621.167 607.808 622.42 607.011 623.103 606.214L625.95 608.15H625.836Z" fill="#DE5419"/>
<path d="M653.967 613.503H660.458V594.256H654.992V590.498C658.067 589.928 660.117 589.131 662.053 587.992H666.495V613.503H672.189V618.401H653.967V613.503Z" fill="#DE5419"/>
<path d="M676.631 603.139C676.631 592.661 680.731 587.536 686.881 587.536C693.031 587.536 697.131 592.661 697.131 603.139C697.131 613.617 693.031 618.969 686.881 618.969C680.731 618.969 676.631 613.503 676.631 603.139ZM691.436 603.139C691.436 594.597 689.5 592.206 686.881 592.206C684.261 592.206 682.325 594.711 682.325 603.139C682.325 611.567 684.261 614.3 686.881 614.3C689.5 614.3 691.436 611.681 691.436 603.139Z" fill="#DE5419"/>
<path d="M701.914 599.495C701.914 597.217 703.509 595.509 705.672 595.509C707.836 595.509 709.431 597.217 709.431 599.495C709.431 601.773 707.836 603.367 705.672 603.367C703.509 603.367 701.914 601.659 701.914 599.495ZM701.914 615.098C701.914 612.934 703.509 611.112 705.672 611.112C707.836 611.112 709.431 612.82 709.431 615.098C709.431 617.375 707.836 619.084 705.672 619.084C703.509 619.084 701.914 617.375 701.914 615.098Z" fill="#DE5419"/>
<path d="M713.417 614.756L716.264 610.884C718.086 612.592 720.25 613.959 722.983 613.959C725.717 613.959 728.108 612.478 728.108 609.745C728.108 607.011 726.4 604.847 719.681 604.847V600.52C725.261 600.52 727.083 598.584 727.083 595.85C727.083 593.117 725.603 592.092 722.983 591.978C720.82 591.978 718.997 593.003 717.289 594.711L714.214 591.067C716.833 588.789 719.795 587.309 723.325 587.309C729.247 587.309 733.12 590.156 733.12 595.395C733.12 600.634 731.297 601.089 727.995 602.342V602.57C731.411 603.481 734.031 606.1 734.031 610.086C734.031 614.072 729.133 618.856 723.325 618.856C717.517 618.856 715.239 617.034 713.189 614.642L713.417 614.756Z" fill="#DE5419"/>
<path d="M738.245 603.139C738.245 592.661 742.345 587.536 748.495 587.536C754.645 587.536 758.745 592.661 758.745 603.139C758.745 613.617 754.645 618.969 748.495 618.969C742.345 618.969 738.245 613.503 738.245 603.139ZM753.164 603.139C753.164 594.597 751.228 592.206 748.609 592.206C745.989 592.206 744.053 594.711 744.053 603.139C744.053 611.567 745.989 614.3 748.609 614.3C751.228 614.3 753.164 611.681 753.164 603.139Z" fill="#DE5419"/>
<path d="M762.73 604.506H773.892V608.834H762.73V604.506Z" fill="#DE5419"/>
<path d="M779.244 613.503H785.736V594.256H780.269V590.498C783.344 589.928 785.394 589.131 787.33 587.992H791.772V613.503H797.466V618.401H779.244V613.503Z" fill="#DE5419"/>
<path d="M801.111 614.87L803.959 610.998C805.667 612.706 807.831 614.073 810.678 614.073C813.525 614.073 816.031 612.023 816.031 608.493C816.031 604.962 813.981 603.026 810.906 603.026C807.831 603.026 808.059 603.481 806.35 604.62L803.617 602.798L804.414 588.106H820.7V593.118H809.653L809.084 599.609C810.222 599.04 811.361 598.698 812.728 598.698C817.853 598.698 822.067 601.773 822.067 608.379C822.067 614.984 817.056 619.084 811.475 619.084C805.895 619.084 803.503 617.148 801.225 614.984L801.111 614.87Z" fill="#DE5419"/>
<path d="M827.078 599.495C827.078 597.217 828.673 595.509 830.836 595.509C833 595.509 834.595 597.217 834.595 599.495C834.595 601.773 833 603.367 830.836 603.367C828.673 603.367 827.078 601.659 827.078 599.495ZM827.078 615.098C827.078 612.934 828.673 611.112 830.836 611.112C833 611.112 834.595 612.82 834.595 615.098C834.595 617.375 833 619.084 830.836 619.084C828.673 619.084 827.078 617.375 827.078 615.098Z" fill="#DE5419"/>
<path d="M839.378 603.139C839.378 592.661 843.478 587.536 849.628 587.536C855.778 587.536 859.878 592.661 859.878 603.139C859.878 613.617 855.778 618.969 849.628 618.969C843.478 618.969 839.378 613.503 839.378 603.139ZM854.183 603.139C854.183 594.597 852.247 592.206 849.628 592.206C847.008 592.206 845.072 594.711 845.072 603.139C845.072 611.567 847.008 614.3 849.628 614.3C852.247 614.3 854.183 611.681 854.183 603.139Z" fill="#DE5419"/>
<path d="M863.522 603.139C863.522 592.661 867.622 587.536 873.772 587.536C879.922 587.536 884.022 592.661 884.022 603.139C884.022 613.617 879.922 618.969 873.772 618.969C867.622 618.969 863.522 613.503 863.522 603.139ZM878.442 603.139C878.442 594.597 876.506 592.206 873.886 592.206C871.267 592.206 869.331 594.711 869.331 603.139C869.331 611.567 871.267 614.3 873.886 614.3C876.506 614.3 878.442 611.681 878.442 603.139Z" fill="#DE5419"/>
<path d="M318.222 622.614C328.978 622.614 337.697 613.895 337.697 603.139C337.697 592.383 328.978 583.664 318.222 583.664C307.466 583.664 298.747 592.383 298.747 603.139C298.747 613.895 307.466 622.614 318.222 622.614Z" fill="#DE5419"/>
<path d="M327.447 594.142V611.111H324.828V609.858H312.414V611.225H309.908V594.142H327.561H327.447ZM324.714 607.467V605.189C324.372 605.189 324.03 605.189 323.689 605.189H321.867C319.93 605.189 319.475 604.164 319.475 602V596.533H317.425C317.425 601.658 316.855 604.733 313.553 606.442C313.325 605.872 312.642 604.961 312.186 604.505V607.353H324.6L324.714 607.467ZM312.3 596.533V604.505C314.805 603.025 315.033 600.747 315.033 596.533H312.3ZM324.714 596.533H321.867V602.114C321.867 602.797 321.867 603.139 322.322 603.139H323.689C324.03 603.139 324.486 603.139 324.828 603.139V596.647L324.714 596.533Z" fill="white"/>
<defs>
<filter id="filter0_d_230_3986" x="78.0078" y="64.7256" width="1010.58" height="685.096" filterUnits="userSpaceOnUse" color-interpolation-filters="sRGB">
<feFlood flood-opacity="0" result="BackgroundImageFix"/>
<feColorMatrix in="SourceAlpha" type="matrix" values="0 0 0 0 0 0 0 0 0 0 0 0 0 0 0 0 0 0 127 0" result="hardAlpha"/>
<feOffset dx="10.9" dy="16.7"/>
<feColorMatrix type="matrix" values="0 0 0 0 0.529412 0 0 0 0 0.27451 0 0 0 0 0.137255 0 0 0 1 0"/>
<feBlend mode="normal" in2="BackgroundImageFix" result="effect1_dropShadow_230_3986"/>
<feBlend mode="normal" in="SourceGraphic" in2="effect1_dropShadow_230_3986" result="shape"/>
</filter>
</defs>
</svg>
