<svg width="790" height="624" viewBox="0 0 790 624" fill="none" xmlns="http://www.w3.org/2000/svg">
<g filter="url(#filter0_d_208_1069)">
<path d="M722.827 324.466C734.778 308.016 742.001 286.594 742.001 263.272C742.001 211.217 706.149 169.032 661.893 169.032C617.636 169.032 652.963 169.471 648.629 170.348C629.915 116.612 578.37 78.0095 517.698 78.0095C457.026 78.0095 486.18 80.7146 471.866 85.6861C467.532 83.5659 463.001 81.665 458.405 79.8373C433.125 52.8594 397.01 36.0439 356.891 36.0439C292.87 36.0439 239.026 79.033 223.202 137.375C218.211 136.279 213.09 135.621 207.902 135.621C178.748 135.621 153.271 153.972 139.22 181.315C130.815 176.197 121.228 173.346 111.116 173.346C77.2342 173.346 49.7216 205.661 49.7216 245.579C49.7216 285.498 53.5301 274.166 60.0307 285.571V287.472C36.4578 309.99 21.3555 344.352 21.3555 382.881C21.3555 450.655 68.0415 505.634 125.627 505.634C183.213 505.634 132.259 505.415 135.542 505.049C139.023 515.431 144.867 523.546 152.943 527.787C166.141 534.732 182.031 529.541 195.558 516.016C201.599 522.888 209.019 530.199 218.015 537.437C236.334 552.133 257.937 563.83 282.101 572.019C311.255 581.962 344.415 587.006 380.726 587.006C417.037 587.006 450.394 581.962 480.008 572.092C504.5 563.903 526.562 552.425 545.604 537.876C550.135 534.44 554.272 530.93 558.08 527.494C567.207 533.855 577.91 537.584 589.336 537.584C611.201 537.584 630.375 524.131 641.275 503.88C651.715 509.07 663.14 511.995 675.222 511.995C723.156 511.995 761.962 466.301 761.962 409.932C761.962 353.564 746.4 342.817 722.827 324.612V324.466Z" fill="#FFFBD2"/>
</g>
<path d="M172.527 457.111H169.827V463.589H165.693V457.111H156.074V453.732L164.427 438.617H169.743V453.356H172.443V457.111H172.527ZM165.693 453.262V448.193C165.693 446.785 165.777 444.438 165.862 443.03H165.777C165.271 444.344 164.596 445.752 164.005 447.066L160.546 453.262H165.777H165.693Z" fill="#DE5419"/>
<path d="M175.48 460.867C175.48 459.083 176.662 457.581 178.265 457.581C179.868 457.581 181.049 458.989 181.049 460.867C181.049 462.744 179.868 464.153 178.265 464.153C176.662 464.153 175.48 462.744 175.48 460.867Z" fill="#DE5419"/>
<path d="M184.003 460.586L186.112 457.394C187.462 458.802 189.065 459.929 191.09 459.929C193.115 459.929 194.887 458.708 194.887 456.455C194.887 454.202 193.621 452.418 188.643 452.418V448.851C192.778 448.851 194.128 447.255 194.128 445.002C194.128 442.749 193.031 441.904 191.09 441.81C189.487 441.81 188.137 442.655 186.871 444.063L184.593 441.059C186.534 439.181 188.728 437.961 191.343 437.961C195.731 437.961 198.599 440.308 198.599 444.626C198.599 448.945 197.249 449.32 194.803 450.353V450.541C197.334 451.292 199.274 453.451 199.274 456.737C199.274 460.023 195.646 463.966 191.343 463.966C187.04 463.966 185.353 462.463 183.834 460.492L184.003 460.586Z" fill="#DE5419"/>
<path d="M247.873 457.018C247.113 459.459 245.848 462.275 244.835 463.965C244.329 463.496 243.148 462.557 242.473 462.181C243.485 460.585 244.498 458.332 245.173 456.173L247.957 457.018H247.873ZM252.176 455.046V466.312H248.716V455.046H243.063V451.667H248.716V449.038H242.895V445.752H245.848C245.679 444.72 245.341 443.312 245.004 442.279L247.535 441.622H243.401V438.336H248.632C248.379 437.397 248.041 436.458 247.704 435.707L251.332 434.769C251.754 435.895 252.344 437.303 252.682 438.43H257.069V441.716H253.273L255.719 442.279C255.298 443.593 254.791 444.908 254.369 445.94H257.491V449.226H252.26V451.855H256.985V455.234H252.26L252.176 455.046ZM247.788 441.528C248.21 442.654 248.632 444.063 248.801 445.001L246.607 445.659H250.994C251.416 444.438 252.007 442.748 252.26 441.434H247.788V441.528ZM270.907 449.789H268.038V466.406H264.494V449.789H261.626V450.165C261.626 455.14 261.204 462.087 258.672 466.406C258.082 465.655 256.647 464.434 255.888 463.965C256.479 463.026 256.901 461.9 257.238 460.679L255.044 462.181C254.538 460.867 253.526 458.708 252.682 457.112L255.044 455.704C255.888 457.018 256.816 458.896 257.322 460.116C258.166 456.83 258.251 453.169 258.251 450.071V438.054C261.541 437.397 265.254 436.365 267.447 435.144L270.232 438.054C267.7 439.181 264.579 440.026 261.626 440.589V445.94H270.822V449.695L270.907 449.789Z" fill="#DE5419"/>
<path d="M286.264 456.83L286.939 460.398C282.635 462.463 277.995 464.528 274.367 466.124L272.764 461.994C274.873 461.242 277.742 460.21 280.864 458.989V446.973H273.861V442.936H280.864V435.52H284.66V457.487L286.348 456.83H286.264ZM296.135 461.618C297.232 461.618 297.401 460.022 297.654 454.014C298.498 454.765 300.101 455.61 301.113 455.891C300.776 462.932 299.932 465.561 296.473 465.561H292.845C289.47 465.561 288.457 464.153 288.457 459.459V435.52H292.254V442.936H300.185V446.973H292.254V459.553C292.254 461.336 292.423 461.712 293.435 461.712H296.135V461.618Z" fill="#DE5419"/>
<path d="M320.435 448.193C322.46 454.765 326.088 460.116 331.825 462.65C330.897 463.495 329.716 465.279 329.125 466.406C323.641 463.495 320.097 458.614 317.735 452.042C316.132 457.675 312.841 462.932 306.344 466.406C305.754 465.279 304.741 463.871 303.645 463.026C310.648 459.552 313.516 453.92 314.698 448.099H304.235V443.968H315.288C315.626 440.777 315.541 437.679 315.626 434.956H319.591C319.591 437.772 319.591 440.87 319.254 443.968H331.235V448.099H320.519L320.435 448.193Z" fill="#DE5419"/>
<path d="M362.369 438.524C361.272 441.81 359.922 445.565 358.657 448.569C361.272 451.573 361.779 454.296 361.779 456.455C361.779 458.614 361.272 460.68 360.091 461.524C359.585 461.994 358.825 462.276 357.982 462.463C357.307 462.557 356.294 462.557 355.366 462.463C355.366 461.337 355.029 459.647 354.438 458.614C355.197 458.614 355.788 458.708 356.379 458.614C356.801 458.614 357.307 458.52 357.56 458.333C358.15 457.957 358.319 457.112 358.319 456.079C358.319 454.202 357.644 451.761 355.197 449.132C356.041 446.692 357.138 443.312 357.897 440.683H354.016V466.594H350.472V437.585C349.544 440.12 348.532 442.561 347.182 444.814H349.46V448.288H344.904C344.229 449.132 343.638 449.977 342.963 450.728H348.447V466.031H344.988V464.716H340.094V466.406H336.804V456.173C336.298 456.549 335.791 456.924 335.285 457.206C334.863 456.361 333.851 454.671 333.176 453.826C335.876 452.418 338.323 450.541 340.432 448.288H333.935V444.814H339.251V441.998H335.285V438.524H339.251V435.238H342.626V438.524H345.748V440.214C346.338 438.993 346.76 437.773 347.266 436.459L350.472 437.398V436.74H359.754C359.754 436.646 362.369 438.43 362.369 438.43V438.524ZM345.073 453.92H340.179V456.079H345.073V453.92ZM345.073 461.524V459.084H340.179V461.524H345.073ZM343.301 444.72C343.891 443.875 344.398 442.936 344.988 441.904H342.71V444.72H343.301Z" fill="#DE5419"/>
<path d="M381.015 435.895C380.846 436.083 380.678 436.365 380.593 436.552C383.378 439.275 388.356 441.622 393.249 442.654C392.49 443.405 391.477 444.814 390.971 445.752C390.381 445.565 389.706 445.377 389.115 445.189V453.92H368.021V445.377C367.346 445.659 366.756 445.846 366.165 446.034C365.828 445.283 364.815 443.687 364.225 442.936C369.793 441.528 375.193 438.711 377.978 434.769L381.184 435.989L381.015 435.895ZM387.934 444.72C386.499 444.156 385.149 443.405 383.799 442.654V443.499H373.168V442.842C371.987 443.499 370.806 444.156 369.456 444.72H387.934ZM369.54 454.953H387.427V466.406H383.715V465.561H373.084V466.5H369.54V454.953ZM373 451.385C372.831 450.353 372.493 448.944 371.987 447.912L374.349 447.161H370.89V451.385H373ZM373.168 457.581V458.896H383.799V457.581H373.168ZM383.715 462.932V461.618H373.084V462.932H383.715ZM376.881 447.161H374.518C375.024 448.287 375.531 449.789 375.699 450.728L373.759 451.385H376.881V447.161ZM381.184 440.871C380.256 440.12 379.412 439.463 378.653 438.711C377.893 439.463 376.965 440.214 376.037 440.871H381.184ZM379.749 447.161V451.385H382.618L380.762 450.822C381.184 449.789 381.69 448.287 381.943 447.161H379.749ZM385.824 447.161H382.703L385.065 447.818C384.474 449.132 383.884 450.446 383.378 451.479H385.824V447.255V447.161Z" fill="#DE5419"/>
<path d="M406.666 437.115C404.472 442.654 400.928 448.381 397.638 451.948C396.963 451.103 395.36 449.32 394.432 448.475C397.638 445.471 400.844 440.589 402.7 435.613L406.75 437.021L406.666 437.115ZM415.188 452.699C417.634 456.454 420.419 461.242 421.938 464.34L418.225 466.5C417.803 465.561 417.297 464.434 416.622 463.214C401.941 464.528 399.832 464.716 398.397 465.279C398.144 464.434 397.469 462.181 396.878 460.961C397.891 460.679 398.735 459.74 399.916 458.238C401.182 456.83 404.978 451.009 407.425 445.377L411.644 447.348C409.281 451.948 406.413 456.454 403.46 460.116L414.597 459.271C413.585 457.581 412.656 455.797 411.644 454.295L415.188 452.512V452.699ZM415.778 435.707C417.044 440.401 419.828 445.189 423.625 447.724C422.781 448.569 421.516 450.54 420.925 451.761C417.466 448.85 414.766 444.25 413.078 439.838H408.185V435.707H415.863H415.778Z" fill="#DE5419"/>
<path d="M452.227 436.177V466.5H448.683V465.279H429.699V466.5H426.324V436.177H452.227ZM448.683 461.712V439.838H429.699V461.712H448.683ZM440.499 457.206C440.415 457.957 440.499 459.083 440.499 459.647C435.352 461.055 434.424 461.43 433.918 461.712C433.834 461.149 433.412 460.022 433.074 459.647C433.496 459.365 434.087 459.083 434.087 457.769V456.549C433.243 456.924 432.484 457.206 431.724 457.487C431.387 456.924 430.543 455.798 429.952 455.234C431.893 454.765 434.002 454.108 435.69 453.169H432.23V448.287H446.236V453.169H439.74C438.896 453.92 437.799 454.671 436.702 455.234V458.145L440.499 457.206ZM447.586 447.348H430.712V445.095H437.462V443.781H432.146V441.622H437.462V440.214H440.752V441.622H446.321V443.781H440.752V445.095H447.586V447.348ZM435.268 451.479H443.115V450.071H435.268V451.479ZM447.924 455.14C447.165 455.798 446.236 456.361 445.393 456.924C446.49 457.769 447.418 458.52 448.093 459.271L445.815 460.773C444.296 459.177 441.09 456.642 438.558 454.859L440.752 453.544C441.596 454.108 442.608 454.859 443.621 455.516C444.465 454.859 445.393 454.202 445.899 453.544L448.008 455.14H447.924Z" fill="#DE5419"/>
<path d="M468.764 459.552H473.573V443.687H469.523V440.589C471.801 440.119 473.32 439.462 474.754 438.523H478.045V459.552H482.264V463.589H468.764V459.552Z" fill="#DE5419"/>
<path d="M485.555 451.01C485.555 442.373 488.592 438.148 493.148 438.148C497.705 438.148 500.742 442.373 500.742 451.01C500.742 459.647 497.705 464.059 493.148 464.059C488.592 464.059 485.555 459.553 485.555 451.01ZM496.523 451.01C496.523 443.969 495.089 441.997 493.148 441.997C491.208 441.997 489.773 444.063 489.773 451.01C489.773 457.957 491.208 460.21 493.148 460.21C495.089 460.21 496.523 458.051 496.523 451.01Z" fill="#DE5419"/>
<path d="M504.285 448.006C504.285 446.128 505.466 444.72 507.07 444.72C508.673 444.72 509.854 446.128 509.854 448.006C509.854 449.883 508.673 451.197 507.07 451.197C505.466 451.197 504.285 449.789 504.285 448.006ZM504.285 460.867C504.285 459.083 505.466 457.581 507.07 457.581C508.673 457.581 509.854 458.989 509.854 460.867C509.854 462.745 508.673 464.153 507.07 464.153C505.466 464.153 504.285 462.745 504.285 460.867Z" fill="#DE5419"/>
<path d="M512.807 460.586L514.917 457.394C516.267 458.802 517.87 459.929 519.895 459.929C521.92 459.929 523.692 458.708 523.692 456.455C523.692 454.202 522.426 452.418 517.448 452.418V448.851C521.582 448.851 522.932 447.255 522.932 445.002C522.932 442.749 521.835 441.904 519.895 441.81C518.292 441.81 516.942 442.655 515.676 444.063L513.398 441.059C515.339 439.181 517.532 437.961 520.148 437.961C524.535 437.961 527.404 440.308 527.404 444.626C527.404 448.945 526.054 449.32 523.607 450.353V450.541C526.139 451.292 528.079 453.451 528.079 456.737C528.079 460.023 524.451 463.966 520.148 463.966C515.845 463.966 514.157 462.463 512.639 460.492L512.807 460.586Z" fill="#DE5419"/>
<path d="M531.201 451.01C531.201 442.373 534.239 438.148 538.795 438.148C543.351 438.148 546.388 442.373 546.388 451.01C546.388 459.647 543.351 464.059 538.795 464.059C534.239 464.059 531.201 459.553 531.201 451.01ZM542.254 451.01C542.254 443.969 540.82 441.997 538.879 441.997C536.939 441.997 535.504 444.063 535.504 451.01C535.504 457.957 536.939 460.21 538.879 460.21C540.82 460.21 542.254 458.051 542.254 451.01Z" fill="#DE5419"/>
<path d="M549.342 452.137H557.61V455.704H549.342V452.137Z" fill="#DE5419"/>
<path d="M561.576 459.552H566.386V443.687H562.336V440.589C564.614 440.119 566.132 439.462 567.567 438.523H570.857V459.552H575.076V463.589H561.576V459.552Z" fill="#DE5419"/>
<path d="M577.775 460.679L579.885 457.487C581.15 458.895 582.753 460.022 584.863 460.022C586.972 460.022 588.828 458.332 588.828 455.422C588.828 452.511 587.31 450.915 585.032 450.915C582.753 450.915 582.922 451.291 581.657 452.23L579.632 450.728L580.222 438.617H592.288V442.748H584.103L583.682 448.099C584.525 447.63 585.369 447.348 586.382 447.348C590.178 447.348 593.3 449.883 593.3 455.328C593.3 460.773 589.588 464.152 585.453 464.152C581.319 464.152 579.547 462.556 577.86 460.773L577.775 460.679Z" fill="#DE5419"/>
<path d="M597.014 448.006C597.014 446.128 598.195 444.72 599.798 444.72C601.401 444.72 602.582 446.128 602.582 448.006C602.582 449.883 601.401 451.197 599.798 451.197C598.195 451.197 597.014 449.789 597.014 448.006ZM597.014 460.867C597.014 459.083 598.195 457.581 599.798 457.581C601.401 457.581 602.582 458.989 602.582 460.867C602.582 462.745 601.401 464.153 599.798 464.153C598.195 464.153 597.014 462.745 597.014 460.867Z" fill="#DE5419"/>
<path d="M606.125 451.01C606.125 442.373 609.162 438.148 613.719 438.148C618.275 438.148 621.312 442.373 621.312 451.01C621.312 459.647 618.275 464.059 613.719 464.059C609.162 464.059 606.125 459.553 606.125 451.01ZM617.094 451.01C617.094 443.969 615.659 441.997 613.719 441.997C611.778 441.997 610.344 444.063 610.344 451.01C610.344 457.957 611.778 460.21 613.719 460.21C615.659 460.21 617.094 458.051 617.094 451.01Z" fill="#DE5419"/>
<path d="M624.012 451.01C624.012 442.373 627.049 438.148 631.605 438.148C636.162 438.148 639.199 442.373 639.199 451.01C639.199 459.647 636.162 464.059 631.605 464.059C627.049 464.059 624.012 459.553 624.012 451.01ZM635.065 451.01C635.065 443.969 633.63 441.997 631.69 441.997C629.749 441.997 628.315 444.063 628.315 451.01C628.315 457.957 629.749 460.21 631.69 460.21C633.63 460.21 635.065 458.051 635.065 451.01Z" fill="#DE5419"/>
<path d="M220.03 467.063C227.998 467.063 234.457 459.875 234.457 451.009C234.457 442.143 227.998 434.956 220.03 434.956C212.061 434.956 205.602 442.143 205.602 451.009C205.602 459.875 212.061 467.063 220.03 467.063Z" fill="#DE5419"/>
<path d="M226.865 443.594V457.582H224.924V456.549H215.727V457.676H213.871V443.594H226.949H226.865ZM224.84 454.578V452.7C224.587 452.7 224.333 452.7 224.08 452.7H222.73C221.296 452.7 220.959 451.855 220.959 450.071V445.565H219.44C219.44 449.79 219.018 452.325 216.571 453.733C216.402 453.263 215.896 452.512 215.559 452.137V454.484H224.755L224.84 454.578ZM215.643 445.565V452.137C217.499 450.916 217.668 449.039 217.668 445.565H215.643ZM224.84 445.565H222.73V450.165C222.73 450.729 222.73 451.01 223.068 451.01H224.08C224.333 451.01 224.671 451.01 224.924 451.01V445.659L224.84 445.565Z" fill="white"/>
<g clip-path="url(#clip0_208_1069)">
<path d="M183.594 207.834L184.601 201.486C192.936 194.323 199.292 188.149 203.671 182.981C208.049 177.804 210.553 173.204 211.19 169.174C211.642 166.338 211.338 164.137 210.294 162.571C209.242 161.005 207.538 160.222 205.167 160.222C202.219 160.222 198.877 162.109 195.144 165.893L190.721 159.925C193.595 157.04 196.344 154.921 198.974 153.578C201.604 152.234 204.545 151.566 207.812 151.566C212.509 151.566 216.043 153.124 218.406 156.232C220.777 159.34 221.555 163.461 220.74 168.588C219.406 176.996 212.287 187.201 199.389 199.187C202.759 198.791 205.501 198.593 207.597 198.593H218.332L216.865 207.85H183.594V207.834Z" fill="#E95513"/>
<path d="M251.626 206.078C247.84 211.056 243.358 213.538 238.165 213.538C232.971 213.538 229.267 211.048 227.037 206.078C224.807 201.099 224.429 193.96 225.904 184.654C227.378 175.348 229.993 168.283 233.757 163.461C237.52 158.639 242.002 156.224 247.21 156.224C252.418 156.224 256.137 158.639 258.375 163.461C260.605 168.283 260.983 175.356 259.508 184.654C258.034 193.952 255.404 201.099 251.618 206.078H251.626ZM235.201 184.844C233.075 198.255 234.505 204.957 239.491 204.957C244.477 204.957 248.033 198.255 250.159 184.844C252.285 171.432 250.855 164.73 245.869 164.73C240.883 164.73 237.327 171.432 235.201 184.844Z" fill="#E95513"/>
<path d="M262.611 203.168L263.619 196.82C271.953 189.657 278.31 183.483 282.688 178.315C287.067 173.138 289.571 168.538 290.208 164.508C290.66 161.672 290.356 159.471 289.311 157.905C288.259 156.339 286.555 155.556 284.185 155.556C281.236 155.556 277.895 157.443 274.161 161.227L269.738 155.259C272.613 152.374 275.361 150.255 277.991 148.912C280.621 147.568 283.562 146.9 286.83 146.9C291.527 146.9 295.06 148.458 297.424 151.566C299.794 154.674 300.572 158.795 299.757 163.922C298.424 172.33 291.304 182.535 278.406 194.521C281.777 194.125 284.518 193.927 286.615 193.927H297.35L295.883 203.184H262.611V203.168Z" fill="#E95513"/>
<path d="M315.909 207.948C309.241 207.948 304.055 205.434 300.336 200.406L306.011 193.391C308.863 197.125 312.212 198.988 316.057 198.988C318.694 198.988 320.961 198.09 322.858 196.301C324.754 194.512 325.947 192.023 326.458 188.841C326.962 185.659 326.591 183.194 325.347 181.455C324.102 179.716 322.206 178.842 319.657 178.842C318.227 178.842 316.975 179.056 315.901 179.477C314.827 179.897 313.441 180.655 311.752 181.752L307.781 178.471L313.382 151.599H339.949L338.482 160.856H320.435L317.642 172.577C319.82 171.53 321.895 171.011 323.858 171.011C328.288 171.011 331.703 172.503 334.118 175.487C336.534 178.471 337.274 182.873 336.348 188.701C335.422 194.52 333 199.186 329.066 202.697C325.132 206.209 320.754 207.956 315.923 207.956L315.909 207.948Z" fill="#E95513"/>
<path d="M392.512 163.963C393.104 178.487 399.127 188.164 410.455 193.201L412.092 184.612C404.55 180.754 400.498 173.871 399.809 163.955H415.574L416.885 157.08H388.037L390.178 145.878H416.293L417.589 139.151H391.474L393.756 129.507H385.955L383.673 139.151H357.714L356.425 145.878H382.392L380.243 157.08H351.558L350.246 163.955H365.834C362.759 173.278 356.181 180.391 345.92 185.263L344.379 193.341C351.032 190.901 357.144 187.134 362.656 181.867C367.138 177.721 370.679 171.794 373.227 163.955H378.932L367.686 215.935H375.48L386.733 163.955H392.526L392.512 163.963Z" fill="#E95513" stroke="white" stroke-width="8.26" stroke-linecap="round" stroke-linejoin="round"/>
<path d="M472.019 208.978L473.567 200.389C464.47 196.885 457.402 191.816 452.372 185.271C458.15 183.243 462.573 180.44 465.596 176.929C467.492 180.506 470.404 183.416 474.249 185.502L475.686 177.555C472.404 175.833 470.367 173.03 469.596 169.288C469.678 168.809 469.856 168.348 469.937 167.87L470.952 162.182H463.862L462.781 168.183C461.877 172.7 458.491 176.055 452.683 178.256L451.609 184.257C450.32 182.534 449.134 180.663 448.164 178.561L451.579 159.594H480.605L481.961 152.043H452.95L455.869 136.019H447.801L444.904 152.043H417.397L416.033 159.594H443.548L440.555 176.146C439.044 179.179 436.94 182.056 434.392 184.71L435.681 177.547C432.325 175.824 430.324 173.162 429.569 169.444C429.658 168.966 429.828 168.414 429.932 167.862L430.961 162.174H423.857L422.782 168.175C421.886 172.692 418.5 176.047 412.685 178.248L411.344 185.65C417.648 183.474 422.375 180.589 425.598 176.921C427.354 180.432 430.124 183.235 433.895 185.263C427.872 191.264 418.886 196.407 407.04 200.694L405.58 208.805C419.389 204.279 430.213 198.114 437.97 190.48L430.843 229.849H438.896L445.86 189.549C451.801 198.196 460.766 204.675 472.019 208.961" fill="#E95513"/>
<path d="M472.019 208.978L473.567 200.389C464.47 196.885 457.402 191.816 452.372 185.271C458.15 183.243 462.573 180.44 465.596 176.929C467.492 180.506 470.404 183.416 474.249 185.502L475.686 177.555C472.404 175.833 470.367 173.03 469.596 169.288C469.678 168.809 469.856 168.348 469.937 167.87L470.952 162.182H463.862L462.781 168.183C461.877 172.7 458.491 176.055 452.683 178.256L451.609 184.257C450.32 182.534 449.134 180.663 448.164 178.561L451.579 159.594H480.605L481.961 152.043H452.95L455.869 136.019H447.801L444.904 152.043H417.397L416.033 159.594H443.548L440.555 176.146C439.044 179.179 436.94 182.056 434.392 184.71L435.681 177.547C432.325 175.824 430.324 173.162 429.569 169.444C429.658 168.966 429.828 168.414 429.932 167.862L430.961 162.174H423.857L422.782 168.175C421.886 172.692 418.5 176.047 412.685 178.248L411.344 185.65C417.648 183.474 422.375 180.589 425.598 176.921C427.354 180.432 430.124 183.235 433.895 185.263C427.872 191.264 418.886 196.407 407.04 200.694L405.58 208.805C419.389 204.279 430.213 198.114 437.97 190.48L430.843 229.849H438.896L445.86 189.549C451.801 198.196 460.766 204.675 472.019 208.961" stroke="white" stroke-width="8.26" stroke-linecap="round" stroke-linejoin="round"/>
<path d="M577.39 168.299L578.612 162.43C584.858 159.05 591.496 154.591 597.378 149.983L599.652 139.481L554.676 139.357L552.787 148.466H586.236C581.583 151.788 575.945 155.258 571.167 157.575L568.937 168.299H541.904L539.992 177.482H567.018L563.195 195.847C562.921 197.158 562.366 197.545 560.847 197.619C559.602 197.685 552.142 197.694 548.023 197.504L545.978 207.289C552.335 207.289 563.81 207.247 563.996 207.247C567.929 207.247 570.485 203.423 571.471 198.642L575.479 177.482H601.964L603.875 168.299H577.39Z" fill="#E95513" stroke="white" stroke-width="8.26" stroke-linecap="round" stroke-linejoin="round"/>
<path d="M515.211 144.146H506.061C505.839 142.605 505.483 140.923 505.12 139.349H496.838L496.526 139.439C496.786 140.824 497.045 142.53 497.252 144.146H486.607L485.051 151.631H513.647L515.203 144.146H515.211Z" fill="#E95513" stroke="white" stroke-width="8.26" stroke-linecap="round" stroke-linejoin="round"/>
<path d="M482.213 185.923C481.672 187.571 477.101 192.377 474.886 192.748C474.886 192.748 473.138 202.071 473.197 202.071C477.731 200.076 485.695 192.872 488.488 186.096L482.213 185.923Z" fill="#E95513" stroke="white" stroke-width="8.26" stroke-linecap="round" stroke-linejoin="round"/>
<path d="M506.587 195.229C506.076 192.451 505.128 189.055 504.246 185.84L498.156 185.988C498.875 188.28 499.519 192.327 499.994 195.229H506.587Z" fill="#E95513" stroke="white" stroke-width="8.26" stroke-linecap="round" stroke-linejoin="round"/>
<path d="M518.307 176.237L519.3 171.456H532.131L531.138 176.237H518.307ZM521.789 159.495H534.62L533.628 164.285H520.796L521.789 159.495ZM524.263 147.609H537.095L536.102 152.39H523.271L524.263 147.609ZM532.739 192.962C531.59 197.751 531.509 199.466 530.264 199.466H528.494C527.745 199.466 527.656 199.235 528.071 197.224L530.783 184.183H537.132L546.407 139.58H518.692L509.417 184.183H512.899C510.854 191.462 508.076 197.57 500.43 200.373L498.689 208.781C511.054 206.695 517.062 195.666 520.337 184.183H523.411L520.685 197.306C519.144 204.717 519.841 207.264 525.575 207.264H529.531C535.784 207.264 536.51 203.522 539.347 192.962H532.739Z" fill="#E95513" stroke="white" stroke-width="8.26" stroke-linecap="round" stroke-linejoin="round"/>
<path d="M504.418 151.797L504.402 151.788V151.797H504.418Z" fill="#E95513" stroke="white" stroke-width="8.26" stroke-linecap="round" stroke-linejoin="round"/>
<path d="M511.321 153.511H503.779C502.719 156.297 501.289 159.528 500.067 162.133H481.635L480.035 169.848H493.073L491.97 175.174H479.612L478.02 182.815H490.377L485.028 208.517H492.399L497.748 182.815H507.513L509.098 175.174H499.334L500.445 169.848H511.298L512.906 162.133H506.898C508.246 159.536 509.743 156.561 511.328 153.511" fill="#E95513"/>
<path d="M511.321 153.511H503.779C502.719 156.297 501.289 159.528 500.067 162.133H481.635L480.035 169.848H493.073L491.97 175.174H479.612L478.02 182.815H490.377L485.028 208.517H492.399L497.748 182.815H507.513L509.098 175.174H499.334L500.445 169.848H511.298L512.906 162.133H506.898C508.246 159.536 509.743 156.561 511.328 153.511" stroke="white" stroke-width="8.26" stroke-linecap="round" stroke-linejoin="round"/>
<path d="M495.126 161.547C495.215 159.792 495.178 155.942 494.941 153.684H488.243L488.088 153.717C488.31 155.654 488.377 159.462 488.318 161.547H495.119H495.126Z" fill="#E95513" stroke="white" stroke-width="8.26" stroke-linecap="round" stroke-linejoin="round"/>
<path d="M392.512 163.963C393.104 178.487 399.127 188.164 410.455 193.201L412.092 184.612C404.55 180.754 400.498 173.871 399.809 163.955H415.574L416.885 157.08H388.037L390.178 145.878H416.293L417.589 139.151H391.474L393.756 129.507H385.955L383.673 139.151H357.714L356.425 145.878H382.392L380.243 157.08H351.558L350.246 163.955H365.834C362.759 173.278 356.181 180.391 345.92 185.263L344.379 193.341C351.032 190.901 357.144 187.134 362.656 181.867C367.138 177.721 370.679 171.794 373.227 163.955H378.932L367.686 215.935H375.48L386.733 163.955H392.526L392.512 163.963Z" fill="#E95513"/>
<path d="M472.019 208.978L473.567 200.389C464.47 196.885 457.402 191.816 452.372 185.271C458.15 183.243 462.573 180.44 465.596 176.929C467.492 180.506 470.404 183.416 474.249 185.502L475.686 177.555C472.404 175.833 470.367 173.03 469.596 169.288C469.678 168.809 469.856 168.348 469.937 167.87L470.952 162.182H463.862L462.781 168.183C461.877 172.7 458.491 176.055 452.683 178.256L451.609 184.257C450.32 182.534 449.134 180.663 448.164 178.561L451.579 159.594H480.605L481.961 152.043H452.95L455.869 136.019H447.801L444.904 152.043H417.397L416.033 159.594H443.548L440.555 176.146C439.044 179.179 436.94 182.056 434.392 184.71L435.681 177.547C432.325 175.824 430.324 173.162 429.569 169.444C429.658 168.966 429.828 168.414 429.932 167.862L430.961 162.174H423.857L422.782 168.175C421.886 172.692 418.5 176.047 412.685 178.248L411.344 185.65C417.648 183.474 422.375 180.589 425.598 176.921C427.354 180.432 430.124 183.235 433.895 185.263C427.872 191.264 418.886 196.407 407.04 200.694L405.58 208.805C419.389 204.279 430.213 198.114 437.97 190.48L430.843 229.849H438.896L445.86 189.549C451.801 198.196 460.766 204.675 472.019 208.961" fill="#E95513"/>
<path d="M577.39 168.299L578.612 162.43C584.858 159.05 591.496 154.591 597.378 149.983L599.652 139.481L554.676 139.357L552.787 148.466H586.236C581.583 151.788 575.945 155.258 571.167 157.575L568.937 168.299H541.904L539.992 177.482H567.018L563.195 195.847C562.921 197.158 562.366 197.545 560.847 197.619C559.602 197.685 552.142 197.694 548.023 197.504L545.978 207.289C552.335 207.289 563.81 207.247 563.996 207.247C567.929 207.247 570.485 203.423 571.471 198.642L575.479 177.482H601.964L603.875 168.299H577.39Z" fill="#E95513"/>
<path d="M515.211 144.146H506.061C505.839 142.605 505.483 140.923 505.12 139.349H496.838L496.526 139.439C496.786 140.824 497.045 142.53 497.252 144.146H486.607L485.051 151.631H513.647L515.203 144.146H515.211Z" fill="#E95513"/>
<path d="M482.213 185.923C481.672 187.571 477.101 192.377 474.886 192.748C474.886 192.748 473.138 202.071 473.197 202.071C477.731 200.076 485.695 192.872 488.488 186.096L482.213 185.923Z" fill="#E95513"/>
<path d="M506.587 195.229C506.076 192.451 505.128 189.055 504.246 185.84L498.156 185.988C498.875 188.28 499.519 192.327 499.994 195.229H506.587Z" fill="#E95513"/>
<path d="M518.307 176.237L519.3 171.456H532.131L531.138 176.237H518.307ZM521.789 159.495H534.62L533.628 164.285H520.796L521.789 159.495ZM524.263 147.609H537.095L536.102 152.39H523.271L524.263 147.609ZM532.739 192.962C531.59 197.751 531.509 199.466 530.264 199.466H528.494C527.745 199.466 527.656 199.235 528.071 197.224L530.783 184.183H537.132L546.407 139.58H518.692L509.417 184.183H512.899C510.854 191.462 508.076 197.57 500.43 200.373L498.689 208.781C511.054 206.695 517.062 195.666 520.337 184.183H523.411L520.685 197.306C519.144 204.717 519.841 207.264 525.575 207.264H529.531C535.784 207.264 536.51 203.522 539.347 192.962H532.739Z" fill="#E95513"/>
<path d="M504.418 151.797L504.402 151.788V151.797H504.418Z" fill="#E95513"/>
<path d="M511.321 153.511H503.779C502.719 156.297 501.289 159.528 500.067 162.133H481.635L480.035 169.848H493.073L491.97 175.174H479.612L478.02 182.815H490.377L485.028 208.517H492.399L497.748 182.815H507.513L509.098 175.174H499.334L500.445 169.848H511.298L512.906 162.133H506.898C508.246 159.536 509.743 156.561 511.328 153.511" fill="#E95513"/>
<path d="M495.126 161.547C495.215 159.792 495.178 155.942 494.941 153.684H488.243L488.088 153.717C488.31 155.654 488.377 159.462 488.318 161.547H495.119H495.126Z" fill="#E95513"/>
</g>
<path d="M607.07 334.736C606.506 334.736 606.009 334.691 605.58 334.593C605.152 334.502 604.843 334.45 604.655 334.45C603.421 334.36 601.127 334.307 597.771 334.307C594.416 334.307 589.895 334.262 584.222 334.164C578.549 334.074 574.073 334.044 570.816 334.096C567.551 334.149 565.497 334.217 564.647 334.307C564.549 334.217 564.481 334.54 564.436 335.3L561.246 388.783H612.329L608.778 334.728H607.078L607.07 334.736ZM593.588 367.514L586.637 367.371C584.651 367.371 582.973 367.326 581.596 367.228C580.227 367.138 579.49 367.04 579.4 366.943C579.212 366.754 579.114 365.829 579.114 364.174C579.114 362.519 579.204 360.51 579.4 358.14C579.49 355.68 579.588 353.529 579.686 351.686C579.776 349.842 579.828 348.729 579.828 348.353V346.795H593.453C593.453 346.984 593.476 348.029 593.521 349.918C593.566 351.813 593.588 354.266 593.588 357.298V367.514Z" fill="#053793"/>
<path d="M567.332 319.976C567.332 321.586 567.399 323.03 567.542 324.301C567.685 325.573 567.753 326.498 567.753 327.07L568.039 328.492L572.297 328.349C576.269 328.161 580.362 327.92 584.575 327.642C588.78 327.356 592.783 327.025 596.567 326.649L603.804 325.941V320.269L604.09 314.311L594.303 314.453C591.271 314.453 588.036 314.506 584.583 314.596C581.129 314.694 578.173 314.739 575.713 314.739H566.918L567.347 319.991L567.332 319.976Z" fill="#053793"/>
<path d="M561.373 281.095C561.561 282.517 561.681 283.789 561.726 284.925C561.772 286.061 561.794 286.768 561.794 287.054V287.904L569.739 287.618C594.52 287.054 607.107 286.339 607.483 285.489C607.671 285.203 607.746 284.639 607.693 283.789C607.641 282.939 607.626 281.803 607.626 280.381C607.626 277.545 607.483 275.837 607.197 275.272C607.099 275.182 604.737 275.13 600.102 275.13H593.572L592.692 252.567L570.416 253.891L579.737 275.558L585.966 275.37C584.251 275.498 582.182 275.558 579.737 275.558H571.153C568.317 275.37 565.977 275.325 564.126 275.415C562.283 275.513 561.313 275.558 561.215 275.558C561.215 275.656 561.237 276.243 561.283 277.334C561.328 278.425 561.35 279.674 561.35 281.095H561.373Z" fill="#053793"/>
<path d="M567.618 305.929L575.706 305.787C577.978 305.787 580.25 305.719 582.514 305.576C584.779 305.433 586.441 305.267 587.48 305.079C588.616 304.989 590.105 304.869 591.948 304.726C593.792 304.583 595.567 304.515 597.267 304.515C598.968 304.327 600.412 304.207 601.593 304.162C602.774 304.116 603.459 304.094 603.647 304.094V295.156H599.246C598.584 295.156 598.065 295.066 597.689 294.87C597.215 294.87 595.77 294.848 593.363 294.803C590.948 294.757 588.044 294.735 584.636 294.735C581.228 294.547 578.128 294.426 575.345 294.381C572.553 294.336 570.733 294.314 569.883 294.314L567.189 293.885L567.332 298.707C567.52 300.031 567.618 301.265 567.618 302.394V305.945V305.929Z" fill="#053793"/>
<path d="M687.035 346.796C686.042 345.945 685.545 345.614 685.545 345.802C685.447 346.276 684.981 347.39 684.123 349.135C683.273 350.888 682.325 352.754 681.287 354.74C680.241 356.726 679.248 358.569 678.308 360.277C678.127 360.601 677.962 360.894 677.804 361.165L676.457 363.256L675.501 361.428C675.253 360.39 675.005 358.923 674.757 357.012C674.659 356.538 674.569 355.733 674.471 354.597C674.373 353.461 674.283 351.949 674.185 350.053C674.087 348.353 674.065 345.772 674.117 342.319C674.162 338.866 674.238 334.54 674.328 329.334C674.418 321.954 674.471 314.671 674.471 307.479V268.313C674.471 264.153 674.418 261.452 674.328 260.226L674.042 258.526L671.913 258.24H669.001C667.444 258.24 665.473 258.217 663.111 258.172C660.748 258.127 658.025 258.104 654.948 258.104H645.085C641.677 258.104 638.389 258.082 635.222 258.036C632.055 257.991 629.211 257.969 626.706 257.969C624.201 257.969 622.094 257.946 620.394 257.901C618.694 257.856 617.558 257.833 616.986 257.833C614.526 257.743 613.202 257.833 613.014 258.119V259.112C613.014 259.3 613.036 259.819 613.081 260.67C613.119 261.384 613.209 262.204 613.352 263.122L614.398 278.409L625.78 277.176V278.266C625.592 282.901 625.427 287.513 625.284 292.102C625.141 296.691 625.073 301.303 625.073 305.937V310.902L618.972 311.045H612.585V319.419L612.299 327.649L616.128 327.935C617.166 327.935 618.28 327.957 619.461 328.002C620.642 328.055 621.515 328.07 622.087 328.07C622.846 328.07 623.456 328.123 623.93 328.213C624.404 328.311 624.735 328.401 624.923 328.499C625.013 328.499 625.111 328.973 625.209 329.921C625.299 330.869 625.352 331.96 625.352 333.186C625.352 334.412 625.374 336.263 625.419 338.723C625.464 341.183 625.54 343.997 625.63 347.164C625.72 350.331 625.818 353.815 625.916 357.591C626.006 361.376 626.104 365.258 626.202 369.23C626.292 372.066 626.39 374.812 626.488 377.46C626.578 380.108 626.631 381.906 626.631 382.854V386.541H643.799V376.324C643.799 373.39 643.821 369.869 643.866 365.754C643.911 361.639 643.987 356.884 644.077 351.49C644.167 346.096 644.22 341.582 644.22 337.941V329.357L644.506 325.949H650.607L656.851 325.806L657.28 332.757C657.468 334.653 657.656 336.684 657.844 338.859C658.033 341.033 658.221 343.35 658.409 345.81C658.597 348.368 658.762 350.489 658.905 352.197C659.048 353.905 659.214 355.176 659.402 356.027C659.402 356.312 659.469 357.042 659.612 358.223C659.755 359.404 659.966 360.706 660.252 362.128C660.259 362.256 660.274 362.369 660.29 362.497L662.494 385.969L676.434 396.005L712.606 357.163L687.004 346.803L687.035 346.796ZM656.596 283.367C656.596 286.399 656.528 289.611 656.385 293.019C656.242 296.428 656.174 299.264 656.174 301.536L656.031 309.202H650.216C648.704 309.202 647.327 309.157 646.101 309.059C644.867 308.969 644.205 308.871 644.115 308.773C643.829 308.773 643.641 308.344 643.55 307.494C643.453 306.644 643.498 304.846 643.693 302.1C643.784 300.302 643.904 298.007 644.047 295.216C644.19 292.425 644.355 289.754 644.543 287.197C644.634 284.924 644.731 282.705 644.829 280.523C644.92 278.349 644.972 276.837 644.972 275.979V275.084L657.002 273.783L656.611 283.36L656.596 283.367Z" fill="#053793"/>
<path d="M161.138 336.647C155.977 336.452 147.341 336.301 135.236 336.203C123.123 336.008 116.33 336.008 114.84 336.203C114.742 336.203 114.637 336.625 114.539 337.467C114.441 338.31 114.336 339.724 114.238 341.71C114.141 343.697 114.088 346.322 114.088 349.602V387.715H167.661L163.967 336.655H161.138V336.647ZM132.557 349.595H147.295V350.783C147.393 352.965 147.446 355.177 147.446 357.411V364.182C147.243 368.847 147.1 371.329 147.002 371.623C146.904 371.721 146.129 371.751 144.692 371.698C143.255 371.645 141.585 371.525 139.704 371.329L132.708 370.885L132.557 360.165V349.595Z" fill="#053793"/>
<path d="M118.857 302.996C118.955 303.492 119.007 303.944 119.007 304.335C119.007 304.726 119.06 305.132 119.158 305.523C119.158 306.118 119.21 306.471 119.308 306.569C120.203 306.667 124.07 306.516 130.924 306.125C134.294 305.93 137.228 305.779 139.711 305.681C142.194 305.584 144.278 305.433 145.963 305.237C147.452 305.042 148.942 304.914 150.432 304.869C151.921 304.816 153.11 304.696 154.005 304.5H156.834V294.976H149.837C148.844 294.976 148.197 294.878 147.904 294.675C147.505 294.675 146.189 294.652 143.962 294.6C141.727 294.547 139.124 294.524 136.145 294.524C133.166 294.329 130.315 294.201 127.584 294.156C124.853 294.103 122.994 294.081 122.001 294.081L118.127 293.637L118.428 296.766C118.428 297.662 118.503 298.7 118.654 299.896C118.804 301.085 118.879 302.13 118.879 303.026L118.857 302.996Z" fill="#053793"/>
<path d="M117.963 328.379C117.963 329.425 118.015 330.042 118.113 330.237C118.911 330.237 123.078 330.087 130.617 329.793C134.386 329.598 138.012 329.447 141.488 329.35C144.964 329.252 148.281 329.101 151.464 328.906L157.272 328.605V315.507H137.914C132.257 315.507 127.592 315.529 123.921 315.582C120.25 315.635 118.264 315.755 117.963 315.951C117.76 316.154 117.639 316.568 117.594 317.215C117.541 317.862 117.571 318.479 117.669 319.073C117.865 319.171 117.97 319.742 117.97 320.788V328.379H117.963Z" fill="#053793"/>
<path d="M235.724 343.342C233.143 343.342 230.713 343.395 228.426 343.493C226.139 343.591 224.409 343.643 223.212 343.643C222.122 343.741 221.181 343.771 220.384 343.719C219.586 343.666 219.09 343.643 218.894 343.643C218.796 343.448 218.668 343.342 218.525 343.342C218.383 343.342 218.3 343.44 218.3 343.643C218.097 343.643 217.901 343.741 217.705 343.944L217.555 344.095C217.457 344.095 217.352 344.042 217.254 343.944C217.156 343.847 217.201 343.749 217.405 343.643V343.493C217.405 343.297 217.307 343.102 217.104 342.899C217.006 342.899 216.9 342.079 216.803 340.439C216.705 338.798 216.652 336.496 216.652 333.517C216.652 329.552 216.705 326.994 216.803 325.851C216.9 324.715 217.104 324.136 217.397 324.136C217.69 324.136 218.736 324.113 220.527 324.06C222.31 324.008 224.394 323.887 226.778 323.692C229.163 323.692 231.27 323.669 233.105 323.617C234.941 323.564 236.107 323.444 236.604 323.248H237.943V309.255H227.674L217.547 308.954V290.943H225.439C229.306 290.943 232.684 290.891 235.566 290.793C238.447 290.695 240.177 290.597 240.779 290.492C240.975 290.296 241.103 289.725 241.148 288.777C241.2 287.836 241.223 286.076 241.223 283.495L241.073 276.792H233.406C232.361 276.792 231.646 276.739 231.247 276.642C230.45 276.642 229.983 276.566 229.833 276.416C229.682 276.265 229.855 275.897 230.352 275.302C230.548 274.806 230.894 273.835 231.398 272.398C231.894 270.962 232.413 269.419 232.963 267.787C233.166 267.185 233.354 266.606 233.542 266.034L239.417 252.236L215.08 248.068L211.627 276.544C210.528 276.612 208.798 276.649 206.39 276.649H201.598L193.601 252.236L185.137 255.148C184.536 255.313 183.941 255.471 183.317 255.659C181.624 256.156 180.067 256.652 178.63 257.149C177.193 257.645 176.267 258.044 175.876 258.338L176.32 260.121C176.516 260.617 176.764 261.234 177.065 261.979C177.366 262.724 177.712 263.491 178.111 264.288C178.705 265.981 179.247 267.591 179.751 269.126C180.247 270.668 180.593 271.729 180.796 272.323C180.992 272.918 181.195 273.437 181.391 273.888C181.586 274.332 181.737 274.558 181.835 274.558C181.835 274.761 181.887 274.956 181.985 275.152C182.083 275.355 182.136 275.596 182.136 275.897C182.233 276.393 182.06 276.717 181.617 276.867C181.173 277.018 180.052 276.995 178.269 276.792H174.695L174.251 278.432C174.153 280.02 174.153 282.404 174.251 285.579C174.251 288.257 174.349 290.101 174.552 291.086C174.853 291.289 176.117 291.387 178.351 291.387H197.927V301.656L197.776 311.925L193.458 311.625C192.269 311.625 191.224 311.602 190.328 311.549C189.433 311.497 188.937 311.376 188.839 311.181C188.636 311.181 187.846 311.158 186.454 311.105C185.062 311.053 183.475 310.932 181.692 310.737L174.695 310.586L175.139 318.772C175.139 321.059 175.192 322.962 175.289 324.504C175.387 326.047 175.485 326.912 175.59 327.107C175.891 327.01 176.531 326.957 177.524 326.957C178.118 326.859 178.84 326.806 179.683 326.806H182.286C184.069 326.709 186.055 326.611 188.244 326.505C190.426 326.408 192.119 326.355 193.308 326.355H197.919V346.45L193.308 346.299C187.056 346.104 181.79 345.93 177.524 345.78C173.258 345.63 170.971 345.66 170.678 345.855C170.678 346.254 170.776 347.247 170.979 348.834C171.174 350.422 171.37 352.085 171.573 353.822C171.769 355.56 171.994 357.17 172.243 358.66C172.491 360.149 172.664 361.09 172.762 361.488C172.762 361.586 176.93 361.639 185.265 361.639C188.636 361.541 191.517 361.488 193.902 361.488H197.769C197.769 361.586 197.791 362.956 197.844 365.581C197.897 368.214 197.919 371.464 197.919 375.331V389.174L207.15 389.024C209.633 388.82 211.837 388.655 213.778 388.504C215.712 388.354 216.833 388.279 217.126 388.279C217.623 388.181 217.894 387.91 217.946 387.459C217.999 387.015 217.969 385.894 217.871 384.111C217.773 382.027 217.668 379.717 217.57 377.189C217.472 374.662 217.367 371.953 217.269 369.079C217.171 366.198 217.096 363.941 217.043 362.309C216.991 360.669 217.021 359.653 217.119 359.254C217.314 359.059 218.706 358.953 221.286 358.953H241.832C242.825 358.953 243.472 358.901 243.766 358.803C244.067 358.705 244.21 358.607 244.21 358.502C244.308 358.201 244.36 357.313 244.36 355.824V350.76L244.21 343.32H235.724V343.342Z" fill="#053793"/>
<path d="M125.703 286.625C129.179 286.527 132.301 286.399 135.085 286.256C137.861 286.106 139.599 286.031 140.298 286.031C141.096 285.835 142.48 285.707 144.466 285.662C146.452 285.609 148.634 285.489 151.019 285.293C153.6 285.293 155.706 285.218 157.346 285.068C158.986 284.917 159.851 284.842 159.949 284.842V278.59L159.505 272.632H156.376C155.48 272.632 154.412 272.654 153.178 272.707C151.937 272.759 150.771 272.88 149.68 273.075C148.928 273.075 147.649 273.106 145.843 273.166L146.934 247L123.868 251.935L128.968 273.534L112.605 273.978V280.23C112.605 282.013 112.628 283.533 112.681 284.774C112.733 286.015 112.756 286.738 112.756 286.933C112.952 287.031 114.042 287.084 116.029 287.084C118.015 287.084 121.242 286.933 125.703 286.64V286.625Z" fill="#053793"/>
<path d="M397.849 255.208H390.258C388.077 255.208 386.263 255.231 384.827 255.283C383.39 255.336 382.615 255.359 382.517 255.359C382.118 255.456 378.199 255.607 370.758 255.802C363.912 255.9 355.328 256.051 345.006 256.246C339.65 256.246 335.053 256.321 331.239 256.472C327.417 256.622 325.212 256.698 324.611 256.698L323.271 257.142V270.097C323.467 273.873 323.595 277.018 323.64 279.553C323.693 282.081 323.715 283.398 323.715 283.495C323.911 284.488 324.016 289.649 324.016 298.978V315.507C324.016 321.465 324.069 328.161 324.167 335.601C324.167 344.035 324.189 351.43 324.242 357.78C324.295 364.129 324.317 369.539 324.317 374.007V381.154C324.317 383.336 324.37 385.375 324.468 387.256C324.769 387.256 325.581 387.203 326.928 387.105C328.267 387.007 329.982 386.955 332.066 386.955C334.15 386.955 335.79 386.902 336.979 386.804C338.167 386.707 339.063 386.579 339.657 386.436C340.251 386.293 340.628 386.044 340.771 385.691C340.921 385.345 340.996 384.969 340.996 384.577V382.937L344.269 382.787C345.164 382.591 347.519 382.463 351.341 382.418C355.162 382.366 359.451 382.245 364.22 382.05L380.749 381.899L381.343 383.389C381.539 383.885 381.742 384.359 381.938 384.803C382.133 385.247 382.329 385.473 382.532 385.473C383.525 385.774 386.256 385.774 390.717 385.473C392.538 385.315 394.043 385.202 395.231 385.142L400.543 385.277L404.244 255.208L397.902 255.359L397.857 255.208H397.849ZM354.899 336.421C354.846 339.551 354.726 342.997 354.531 346.766C354.531 350.339 354.508 353.687 354.455 356.817C354.403 359.946 354.282 362.098 354.087 363.294C354.087 364.882 354.011 365.897 353.861 366.349C353.71 366.793 353.44 367.018 353.041 367.018C352.349 367.116 351.454 367.191 350.363 367.244C349.272 367.297 347.978 367.319 346.488 367.319C345.096 367.319 343.96 367.297 343.065 367.244C342.17 367.191 341.478 367.116 340.981 367.018C340.68 366.424 340.56 364.558 340.613 361.436C340.665 358.306 340.936 354.311 341.433 349.451C341.433 348.857 341.455 347.668 341.508 345.878C341.56 344.095 341.681 342.207 341.876 340.22C341.876 338.34 341.899 336.594 341.952 335.007C342.004 333.42 342.125 332.329 342.32 331.734V325.926H345.593C349.069 325.829 351.401 325.776 352.59 325.776H354.523C354.719 325.874 354.846 326.22 354.892 326.814C354.944 327.408 354.967 328.454 354.967 329.944C354.967 331.132 354.944 333.292 354.892 336.421H354.899ZM354.824 290.943C354.621 295.51 354.5 299.407 354.455 302.627C354.403 305.854 354.38 307.517 354.38 307.615C354.177 307.818 353.537 307.938 352.447 307.983C351.356 308.036 349.964 308.059 348.279 308.059L342.32 308.503L342.471 302.544C342.666 300.761 342.794 298.248 342.839 295.028C342.892 291.809 342.915 288.649 342.915 285.572V274.851L347.383 274.55C348.572 274.452 349.768 274.4 350.957 274.4C352.146 274.4 352.988 274.302 353.485 274.099H354.974L354.824 290.921V290.943ZM380.877 355.553C380.877 359.329 380.824 361.609 380.726 362.399L380.425 365.077H376.258C374.475 365.077 373.226 365.025 372.534 364.927C371.841 364.829 371.443 364.626 371.345 364.332C371.044 364.137 370.946 361.902 371.044 357.629C371.044 355.846 371.119 353.138 371.27 349.519C371.42 345.893 371.593 342.199 371.789 338.43C371.887 334.759 371.984 331.659 372.09 329.124C372.188 326.596 372.24 325.227 372.24 325.031C372.541 324.73 374.023 324.587 376.709 324.587H380.726L380.877 342.304V355.553ZM381.178 278.432C381.178 280.02 381.125 282.374 381.027 285.504C380.93 288.634 380.877 291.929 380.877 295.405V307.163H371.052L371.495 297.639C371.495 294.758 371.548 291.756 371.646 288.634C371.744 285.504 371.796 282.856 371.796 280.667V273.226H381.622L381.178 278.44V278.432Z" fill="#053793"/>
<path d="M318.644 324.211C317.846 320.991 317.004 318.132 316.116 315.65C315.221 313.167 314.476 311.925 313.882 311.925C313.287 312.023 312.414 312.272 311.278 312.67C310.135 313.069 308.946 313.49 307.705 313.934C306.464 314.378 305.297 314.829 304.207 315.273C303.116 315.717 302.273 316.093 301.679 316.387V318.17C301.777 318.569 301.905 319.065 302.047 319.659C302.198 320.254 302.273 320.803 302.273 321.299L302.574 322.789L300.934 323.09C299.745 323.09 298.474 323.113 297.135 323.165C295.796 323.218 294.577 323.338 293.486 323.534C292.794 323.737 292.147 323.835 291.553 323.835C290.958 323.835 290.311 323.887 289.619 323.985C289.416 323.79 289.393 323.594 289.544 323.391C289.694 323.195 289.912 322.849 290.213 322.345C290.906 321.157 292.094 319.268 293.787 316.688C295.472 314.107 297.458 310.586 299.745 306.118C302.025 301.852 304.086 297.857 305.922 294.133C307.758 290.409 309.473 286.963 311.06 283.789C313.046 279.719 313.543 277.687 312.55 277.687C312.55 277.589 312.399 277.462 312.106 277.319C311.805 277.168 311.512 276.995 311.211 276.8L309.872 275.904C309.179 275.408 308.329 274.813 307.344 274.121C306.351 273.429 305.41 272.782 304.515 272.188L301.686 269.953L300.791 270.999C300.588 271.3 300.197 271.894 299.602 272.782C299.008 273.677 298.512 274.716 298.113 275.912C297.022 277.695 295.856 279.636 294.615 281.72C293.373 283.804 292.011 285.835 290.522 287.821L288.882 289.755H286.204C284.315 289.755 283.525 289.604 283.819 289.311C283.916 289.01 284.315 288.265 285.007 287.076C285.699 285.888 286.542 284.496 287.535 282.908C288.227 281.818 289.296 280.027 290.733 277.552C292.169 275.069 293.636 272.444 295.126 269.66C296.616 266.884 297.932 264.251 299.068 261.768C300.204 259.286 300.829 257.548 300.926 256.555C300.926 256.058 300.234 255.343 298.843 254.395C297.451 253.455 295.886 252.537 294.156 251.642C292.418 250.747 290.755 249.957 289.168 249.257C287.58 248.565 286.535 248.166 286.038 248.068L285.594 248.512C285.391 249.107 285.15 249.558 284.849 249.851C283.458 252.928 281.772 256.547 279.786 260.722C277.8 264.89 275.521 269.653 272.94 275.017C270.36 280.373 268.178 284.819 266.387 288.34C264.604 291.861 263.213 294.366 262.219 295.856L261.324 297.195L263.852 299.429C264.649 300.325 265.319 301.017 265.861 301.513C266.402 302.01 267.027 302.386 267.719 302.627C268.411 302.875 269.231 302.973 270.179 302.928C271.119 302.875 272.436 302.807 274.121 302.702C276.107 302.506 277.62 302.356 278.665 302.258C279.711 302.16 280.471 302.138 280.975 302.183C281.471 302.236 281.742 302.333 281.795 302.484C281.848 302.634 281.817 302.853 281.72 303.153C281.517 303.552 280.975 304.447 280.08 305.832C279.184 307.223 277.898 309.059 276.205 311.339C274.422 313.724 272.654 316.327 270.924 319.155C269.186 321.984 267.125 324.79 264.747 327.566L263.852 328.612L264.898 330.252C265.492 331.147 266.086 332.336 266.681 333.826C267.275 335.315 267.817 337 268.321 338.889L268.915 341.868L271.15 341.424C271.744 341.424 272.737 341.349 274.129 341.198C275.521 341.048 276.807 340.875 278.003 340.679C279.29 340.582 280.508 340.454 281.652 340.311C282.788 340.16 283.563 340.085 283.962 340.085H285.602V356.313C285.602 361.669 285.624 366.416 285.677 370.531C285.73 374.647 285.903 378.198 286.196 381.177C286.392 383.562 286.565 385.623 286.715 387.353C286.866 389.084 286.941 390.009 286.941 390.107C286.941 390.302 287.535 390.43 288.724 390.476C289.912 390.528 291.899 390.551 294.682 390.551C296.766 390.453 298.602 390.348 300.189 390.25C301.777 390.152 302.619 390.099 302.717 390.099C302.717 390.002 302.694 389.279 302.642 387.94C302.589 386.601 302.469 384.938 302.273 382.952C302.175 380.868 302.047 377.964 301.905 374.24C301.754 370.516 301.581 366.777 301.385 363.001C301.288 359.329 301.16 355.703 301.017 352.13C300.866 348.556 300.693 345.878 300.498 344.087C300.498 342.402 300.475 341.01 300.422 339.919C300.37 338.829 300.347 338.182 300.347 337.986H301.167C301.611 337.986 302.138 337.933 302.732 337.836H304.966L305.862 340.514C306.163 341.409 306.433 342.101 306.682 342.598C306.93 343.094 307.103 343.44 307.201 343.643C307.396 343.741 308.39 343.621 310.18 343.275C311.963 342.929 313.949 342.357 316.138 341.559C317.034 341.259 317.921 341.018 318.817 340.815C319.712 340.619 320.404 340.423 320.901 340.22C321.593 340.22 321.939 340.025 321.939 339.626C321.841 338.535 321.465 336.496 320.825 333.525C320.178 330.546 319.464 327.446 318.666 324.218L318.644 324.211Z" fill="#053793"/>
<path d="M318.201 363.444C317.9 361.36 317.606 359.502 317.305 357.862C317.004 356.222 316.862 355.056 316.862 354.364C316.862 353.468 316.636 352.949 316.192 352.799C315.748 352.648 314.379 352.724 312.099 353.025C311.407 353.025 310.535 353.047 309.496 353.1C308.451 353.152 307.533 353.175 306.743 353.175C305.75 353.378 305.027 353.499 304.584 353.544C304.14 353.596 303.914 353.717 303.914 353.912C303.914 354.01 303.989 354.484 304.14 355.327C304.29 356.169 304.411 357.087 304.508 358.08C305.599 363.241 306.495 368.206 307.187 372.969C307.382 373.864 307.555 374.684 307.706 375.429C307.856 376.174 307.977 376.595 308.074 376.693C308.27 376.896 308.894 376.918 309.933 376.768C310.971 376.617 312.242 376.399 313.732 376.098L318.795 375.354L319.096 372.969C319.096 372.171 318.968 370.885 318.727 369.094C318.479 367.311 318.306 365.423 318.208 363.437L318.201 363.444Z" fill="#053793"/>
<path d="M279.643 354.733C278.951 354.289 277.612 353.913 275.626 353.619C274.633 353.318 273.489 353.077 272.203 352.874C270.909 352.679 269.818 352.43 268.93 352.13C267.342 351.633 266.349 351.385 265.951 351.385C265.552 351.385 265.356 351.535 265.356 351.829L256.389 380.68L276.212 387.255L278.003 373.721C278.033 373.541 278.063 373.368 278.086 373.187C278.334 371.547 278.605 370.133 278.906 368.944C279.004 367.552 279.177 366.138 279.425 364.701C279.673 363.264 279.793 362.098 279.793 361.203C279.891 360.307 279.989 359.42 280.094 358.524C280.192 357.629 280.245 357.035 280.245 356.741C280.546 355.846 280.343 355.176 279.65 354.733H279.643Z" fill="#053793"/>
<path d="M432.983 301.806C433.78 301.611 435.533 301.039 438.272 300.091C441.003 299.151 443.854 298.135 446.833 297.037C449.812 295.946 452.513 294.877 454.943 293.839C457.373 292.793 458.742 292.034 459.036 291.529C458.938 291.033 458.69 290.266 458.291 289.22C457.892 288.174 457.471 287.083 457.027 285.947C456.583 284.811 456.109 283.735 455.613 282.75C455.116 281.757 454.718 281.11 454.424 280.816C454.274 280.816 454.063 280.877 453.822 280.959L415.521 290.19L419.193 307.163L432.697 301.866C432.795 301.844 432.893 301.829 432.99 301.806H432.983Z" fill="#053793"/>
<path d="M519.627 366.416C521.41 366.318 523.254 366.221 525.134 366.115C528.407 365.92 530.468 365.792 531.311 365.747C532.154 365.694 532.575 365.423 532.575 364.927C532.771 364.626 532.944 363.264 533.094 360.834C533.245 358.404 533.395 355.35 533.538 351.678C533.688 348.007 533.809 344.012 533.907 339.694C534.004 335.375 534.08 331.208 534.132 327.19C534.185 323.173 534.23 319.577 534.283 316.394C534.335 313.22 534.358 310.94 534.358 309.548C534.456 308.059 534.486 306.998 534.433 306.351C534.381 305.704 534.207 305.237 533.914 304.936C533.613 304.44 533.041 304.116 532.199 303.966C531.356 303.816 529.295 303.74 526.022 303.74C523.938 303.74 521.704 303.793 519.319 303.891C516.934 303.989 514.948 304.041 513.361 304.041C512.368 304.041 510.901 304.064 508.967 304.116C507.034 304.169 504.747 304.214 502.121 304.267C499.488 304.32 496.614 304.365 493.484 304.417C490.355 304.47 487.157 304.493 483.885 304.493H474.654C471.772 304.493 469.222 304.515 466.987 304.568C464.753 304.621 462.97 304.643 461.631 304.643H455.153C452.671 304.643 449.744 304.741 446.366 304.944H434.457V335.759L434.758 366.574L440.566 366.725C444.335 366.823 449.519 366.928 456.124 367.026C462.722 367.123 470.99 367.176 480.913 367.176C500.361 367.176 511.931 367.026 515.603 366.732C516.498 366.634 517.837 366.537 519.62 366.431L519.627 366.416ZM453.227 316.695L474.518 316.996H501.466C502.956 316.801 504.641 316.695 506.53 316.695C508.418 316.695 509.855 316.643 510.848 316.545H514.865V322.353L492.98 322.797C468.763 322.894 455.808 322.894 454.123 322.797C453.822 322.601 453.604 322.33 453.453 321.977C453.303 321.63 453.227 320.863 453.227 319.667V316.688V316.695ZM453.077 340.815C453.175 340.717 453.227 340.371 453.227 339.777V335.902L463.948 335.752C466.927 335.556 470.102 335.383 473.473 335.233C476.843 335.082 479.574 334.962 481.658 334.864C486.819 334.668 491.754 334.465 496.471 334.27C501.181 334.074 505.326 333.969 508.899 333.969L514.707 333.668L515.151 337.241C515.151 338.136 515.174 338.934 515.226 339.626C515.279 340.318 515.249 340.717 515.151 340.815C515.053 340.815 514.158 340.837 512.473 340.89C510.78 340.943 508.553 340.988 505.77 341.04C502.994 341.093 499.744 341.138 496.02 341.191C492.296 341.244 488.256 341.266 483.885 341.266C476.738 341.364 471.005 341.439 466.687 341.492C462.368 341.544 459.314 341.514 457.531 341.417C454.153 341.319 452.671 341.116 453.062 340.822L453.077 340.815ZM498.186 356.44C491.536 356.44 484.938 356.388 478.385 356.29C471.832 356.192 465.235 355.944 458.584 355.545L453.077 355.395V352.416L463.053 351.972C464.542 351.972 466.348 351.949 468.485 351.896C470.621 351.844 472.953 351.799 475.481 351.746C478.009 351.693 480.62 351.648 483.298 351.596C485.976 351.543 488.609 351.52 491.19 351.52C496.253 351.422 500.767 351.325 504.739 351.219C508.704 351.122 511.141 351.069 512.037 351.069H515.166L515.317 353.597C515.512 354.394 515.618 354.936 515.618 355.237V355.982C515.414 356.185 513.684 356.283 510.404 356.283C507.124 356.283 503.054 356.335 498.194 356.433L498.186 356.44Z" fill="#053793"/>
<path d="M544.041 290.492C543.349 290.296 542.498 290.101 541.513 289.897C540.422 289.8 539.03 289.551 537.345 289.153C535.652 288.761 534.072 288.355 532.583 287.964C529.009 286.873 525.586 285.654 522.314 284.315C519.041 282.976 516.107 281.509 513.527 279.922C513.128 279.726 512.631 279.478 512.037 279.177C511.443 278.876 510.848 278.68 510.254 278.582L508.471 277.838L509.81 276.055C510.705 275.062 511.074 274.339 510.923 273.896C510.773 273.452 509.855 272.782 508.17 271.887C507.576 271.39 507.057 271.044 506.605 270.841C506.161 270.645 506.033 270.54 506.237 270.54C506.733 270.442 507.576 270.39 508.764 270.39C509.562 270.292 510.48 270.217 511.518 270.164C512.564 270.111 513.677 270.089 514.866 270.089C517.25 269.893 519.056 269.788 520.297 269.788C521.539 269.788 522.434 269.886 522.976 270.089C523.517 270.292 523.773 270.638 523.72 271.134C523.668 271.631 523.495 272.323 523.201 273.218C522.705 274.61 522.457 275.505 522.457 275.897C522.825 276.265 524.774 276.732 528.28 277.273L543.221 280.809V264.695C543.243 264.507 543.273 264.326 543.296 264.13C543.597 261.851 543.642 260.113 543.446 258.917C543.446 258.119 543.371 257.63 543.221 257.427C543.07 257.232 542.799 257.126 542.401 257.126C535.75 257.126 529.077 257.051 522.374 256.901C515.671 256.75 508.998 256.577 502.347 256.381C500.263 256.284 498.48 256.186 496.99 256.08C495.501 255.983 494.606 255.93 494.312 255.93C493.718 255.734 493.665 255.087 494.162 253.997C494.756 252.605 495.004 251.762 494.907 251.469C494.809 251.168 494.26 250.822 493.266 250.423C492.672 250.227 491.927 250.024 491.032 249.829C490.137 249.633 489.392 249.43 488.798 249.234C487.707 249.137 486.488 248.888 485.149 248.49C483.81 248.098 482.546 247.594 481.35 247C480.951 247 479.86 248.189 478.077 250.574C477.28 251.664 476.362 252.981 475.324 254.516C474.278 256.058 473.315 257.42 472.42 258.608C471.727 259.797 470.727 261.136 469.44 262.626C468.146 264.115 467.01 265.454 466.017 266.643C464.926 267.734 464.009 268.674 463.264 269.472C462.519 270.269 462.15 270.766 462.15 270.961C462.948 271.759 463.663 272.602 464.31 273.489C464.957 274.385 465.573 275.325 466.168 276.318C469.147 279.591 470.734 281.231 470.93 281.231C472.119 280.93 473.533 280.185 475.173 278.996C476.813 277.808 478.574 276.371 480.454 274.678L484.472 270.661L490.573 270.51C491.965 270.209 493.402 270.164 494.891 270.36C495.689 270.36 496.178 270.412 496.381 270.51C496.283 270.909 495.862 271.578 495.117 272.519C494.372 273.467 493.424 274.527 492.288 275.716C491.145 276.905 489.881 278.146 488.489 279.44C487.097 280.734 485.713 281.968 484.321 283.164C480.153 286.835 475.391 289.77 470.027 291.951C468.936 292.35 468.139 292.719 467.642 293.065C467.146 293.411 466.845 293.787 466.747 294.178C466.649 294.577 466.725 295.126 466.973 295.818C467.221 296.51 467.545 297.458 467.943 298.647C468.741 301.032 469.282 302.469 469.583 302.965C469.884 303.462 470.328 303.657 470.922 303.56C471.517 303.56 472.435 303.387 473.676 303.041C474.917 302.694 476.332 302.273 477.919 301.777C479.506 301.28 481.116 300.708 482.757 300.061C484.397 299.414 485.856 298.797 487.15 298.203C489.234 297.112 491.341 295.773 493.477 294.186C495.614 292.598 497.472 291.109 499.059 289.717L500.549 288.378L502.189 289.717C503.378 290.71 504.89 291.801 506.733 292.989C508.569 294.178 510.329 295.171 512.022 295.969C513.609 296.864 515.219 297.586 516.859 298.128C518.499 298.677 520.756 299.294 523.63 299.986C524.917 300.287 526.579 300.731 528.618 301.325C530.649 301.92 532.56 302.416 534.351 302.815C537.623 303.808 540.008 304.304 541.498 304.304C542.491 304.304 542.987 303.958 542.987 303.259C543.183 302.461 543.409 301.521 543.657 300.43C543.905 299.339 544.154 298.218 544.402 297.082C544.65 295.946 544.846 294.825 544.996 293.734C545.147 292.643 545.222 291.748 545.222 291.056C545.124 290.86 544.725 290.665 544.033 290.462L544.041 290.492Z" fill="#053793"/>
<path d="M458.26 262.295L433.577 252.229L424.346 266.523L453.017 273.226L458.26 262.295Z" fill="#053793"/>
<path d="M494.943 380.936L531.612 395.584L538.518 384.908L501.812 367.312L494.943 380.936Z" fill="#053793"/>
<path d="M431.35 385.773L435.051 397.931L472.171 381.229L466.19 367.198L431.35 385.773Z" fill="#053793"/>
<defs>
<filter id="filter0_d_208_1069" x="21.3555" y="36.0439" width="751.507" height="567.663" filterUnits="userSpaceOnUse" color-interpolation-filters="sRGB">
<feFlood flood-opacity="0" result="BackgroundImageFix"/>
<feColorMatrix in="SourceAlpha" type="matrix" values="0 0 0 0 0 0 0 0 0 0 0 0 0 0 0 0 0 0 127 0" result="hardAlpha"/>
<feOffset dx="10.9" dy="16.7"/>
<feColorMatrix type="matrix" values="0 0 0 0 0.529412 0 0 0 0 0.27451 0 0 0 0 0.137255 0 0 0 1 0"/>
<feBlend mode="normal" in2="BackgroundImageFix" result="effect1_dropShadow_208_1069"/>
<feBlend mode="normal" in="SourceGraphic" in2="effect1_dropShadow_208_1069" result="shape"/>
</filter>
<clipPath id="clip0_208_1069">
<rect width="423.341" height="107.152" fill="white" transform="translate(183.594 126.119)"/>
</clipPath>
</defs>
</svg>
