<svg width="790" height="624" viewBox="0 0 790 624" fill="none" xmlns="http://www.w3.org/2000/svg">
<g filter="url(#filter0_d_208_1496)">
<path d="M722.965 321.422C734.913 304.972 742.135 283.55 742.135 260.228C742.135 208.173 706.289 165.988 662.04 165.988C617.79 165.988 653.111 166.427 648.778 167.304C630.067 113.568 578.53 74.9656 517.868 74.9656C457.206 74.9656 486.355 77.6707 472.043 82.6422C467.71 80.522 463.18 78.6211 458.584 76.7933C433.309 49.8155 397.2 33 357.087 33C293.076 33 239.241 75.9891 223.419 134.331C218.43 133.235 213.309 132.577 208.123 132.577C178.973 132.577 153.5 150.928 139.451 178.271C131.047 173.153 121.462 170.302 111.352 170.302C77.4752 170.302 49.9671 202.617 49.9671 242.535C49.9671 282.454 53.7749 271.122 60.2744 282.527V284.428C36.7054 306.946 21.6055 341.308 21.6055 379.837C21.6055 447.611 68.284 502.59 125.861 502.59C183.437 502.59 132.492 502.371 135.774 502.005C139.254 512.387 145.097 520.502 153.172 524.743C166.368 531.688 182.256 526.497 195.78 512.972C201.82 519.844 209.239 527.155 218.233 534.393C236.55 549.089 258.149 560.786 282.309 568.975C311.459 578.918 344.613 583.962 380.918 583.962C417.224 583.962 450.575 578.918 480.184 569.048C504.672 560.859 526.731 549.381 545.77 534.832C550.3 531.396 554.436 527.887 558.244 524.45C567.37 530.811 578.071 534.54 589.494 534.54C611.356 534.54 630.527 521.087 641.425 500.836C651.864 506.026 663.287 508.951 675.367 508.951C723.293 508.951 762.093 463.257 762.093 406.888C762.093 350.52 746.534 339.773 722.965 321.568V321.422Z" fill="#FFFBD2"/>
</g>
<ellipse cx="544.549" cy="135.041" rx="114.674" ry="76.8002" transform="rotate(15.3204 544.549 135.041)" fill="#FFFBD2"/>
<ellipse cx="120.105" cy="239" rx="76.5" ry="73" fill="#FFFBD2"/>
<path d="M172.499 457.111H169.8V463.589H165.666V457.111H156.049V453.732L164.401 438.617H169.715V453.356H172.415V457.111H172.499ZM165.666 453.262V448.193C165.666 446.785 165.75 444.438 165.835 443.03H165.75C165.244 444.344 164.569 445.752 163.979 447.066L160.52 453.262H165.75H165.666Z" fill="#DE5419"/>
<path d="M175.451 460.867C175.451 459.083 176.632 457.581 178.236 457.581C179.839 457.581 181.02 458.989 181.02 460.867C181.02 462.744 179.839 464.153 178.236 464.153C176.632 464.153 175.451 462.744 175.451 460.867Z" fill="#DE5419"/>
<path d="M183.971 460.586L186.08 457.394C187.43 458.802 189.033 459.929 191.058 459.929C193.082 459.929 194.854 458.708 194.854 456.455C194.854 454.202 193.589 452.418 188.611 452.418V448.851C192.745 448.851 194.095 447.255 194.095 445.002C194.095 442.749 192.998 441.904 191.058 441.81C189.455 441.81 188.105 442.655 186.84 444.063L184.562 441.059C186.502 439.181 188.696 437.961 191.311 437.961C195.698 437.961 198.566 440.308 198.566 444.626C198.566 448.945 197.216 449.32 194.77 450.353V450.541C197.3 451.292 199.241 453.451 199.241 456.737C199.241 460.023 195.613 463.966 191.311 463.966C187.008 463.966 185.321 462.463 183.803 460.492L183.971 460.586Z" fill="#DE5419"/>
<path d="M247.833 457.018C247.073 459.459 245.808 462.275 244.796 463.965C244.29 463.496 243.108 462.557 242.434 462.181C243.446 460.585 244.458 458.332 245.133 456.173L247.917 457.018H247.833ZM252.135 455.046V466.312H248.676V455.046H243.024V451.667H248.676V449.038H242.855V445.752H245.808C245.639 444.72 245.302 443.312 244.964 442.279L247.495 441.622H243.362V438.336H248.592C248.339 437.397 248.001 436.458 247.664 435.707L251.291 434.769C251.713 435.895 252.304 437.303 252.641 438.43H257.028V441.716H253.232L255.678 442.279C255.256 443.593 254.75 444.908 254.328 445.94H257.45V449.226H252.219V451.855H256.944V455.234H252.219L252.135 455.046ZM247.748 441.528C248.17 442.654 248.592 444.063 248.761 445.001L246.567 445.659H250.954C251.376 444.438 251.966 442.748 252.219 441.434H247.748V441.528ZM270.863 449.789H267.995V466.406H264.452V449.789H261.583V450.165C261.583 455.14 261.162 462.087 258.631 466.406C258.04 465.655 256.606 464.434 255.847 463.965C256.437 463.026 256.859 461.9 257.197 460.679L255.003 462.181C254.497 460.867 253.485 458.708 252.641 457.112L255.003 455.704C255.847 457.018 256.775 458.896 257.281 460.116C258.125 456.83 258.209 453.169 258.209 450.071V438.054C261.499 437.397 265.211 436.365 267.404 435.144L270.188 438.054C267.657 439.181 264.536 440.026 261.583 440.589V445.94H270.779V449.695L270.863 449.789Z" fill="#DE5419"/>
<path d="M286.216 456.83L286.891 460.398C282.589 462.463 277.949 464.528 274.322 466.124L272.719 461.994C274.828 461.242 277.696 460.21 280.817 458.989V446.973H273.815V442.936H280.817V435.52H284.614V457.487L286.301 456.83H286.216ZM296.087 461.618C297.183 461.618 297.352 460.022 297.605 454.014C298.449 454.765 300.052 455.61 301.064 455.891C300.726 462.932 299.883 465.561 296.424 465.561H292.797C289.422 465.561 288.41 464.153 288.41 459.459V435.52H292.206V442.936H300.136V446.973H292.206V459.553C292.206 461.336 292.375 461.712 293.387 461.712H296.087V461.618Z" fill="#DE5419"/>
<path d="M320.383 448.193C322.408 454.765 326.036 460.116 331.772 462.65C330.844 463.495 329.663 465.279 329.073 466.406C323.589 463.495 320.046 458.614 317.684 452.042C316.081 457.675 312.791 462.932 306.295 466.406C305.705 465.279 304.692 463.871 303.596 463.026C310.598 459.552 313.466 453.92 314.647 448.099H304.186V443.968H315.237C315.575 440.777 315.491 437.679 315.575 434.956H319.54C319.54 437.772 319.54 440.87 319.202 443.968H331.182V448.099H320.468L320.383 448.193Z" fill="#DE5419"/>
<path d="M362.31 438.524C361.213 441.81 359.863 445.565 358.598 448.569C361.213 451.573 361.719 454.296 361.719 456.455C361.719 458.614 361.213 460.68 360.032 461.524C359.526 461.994 358.767 462.276 357.923 462.463C357.248 462.557 356.236 462.557 355.308 462.463C355.308 461.337 354.97 459.647 354.38 458.614C355.139 458.614 355.73 458.708 356.32 458.614C356.742 458.614 357.248 458.52 357.501 458.333C358.092 457.957 358.26 457.112 358.26 456.079C358.26 454.202 357.586 451.761 355.139 449.132C355.983 446.692 357.079 443.312 357.839 440.683H353.958V466.594H350.415V437.585C349.487 440.12 348.475 442.561 347.125 444.814H349.403V448.288H344.847C344.172 449.132 343.582 449.977 342.907 450.728H348.39V466.031H344.932V464.716H340.039V466.406H336.749V456.173C336.242 456.549 335.736 456.924 335.23 457.206C334.808 456.361 333.796 454.671 333.121 453.826C335.821 452.418 338.267 450.541 340.376 448.288H333.88V444.814H339.195V441.998H335.23V438.524H339.195V435.238H342.569V438.524H345.691V440.214C346.281 438.993 346.703 437.773 347.209 436.459L350.415 437.398V436.74H359.695C359.695 436.646 362.31 438.43 362.31 438.43V438.524ZM345.016 453.92H340.123V456.079H345.016V453.92ZM345.016 461.524V459.084H340.123V461.524H345.016ZM343.244 444.72C343.835 443.875 344.341 442.936 344.932 441.904H342.654V444.72H343.244Z" fill="#DE5419"/>
<path d="M380.954 435.895C380.785 436.083 380.616 436.365 380.532 436.552C383.316 439.275 388.293 441.622 393.186 442.654C392.427 443.405 391.414 444.814 390.908 445.752C390.318 445.565 389.643 445.377 389.052 445.189V453.92H367.962V445.377C367.287 445.659 366.697 445.846 366.106 446.034C365.769 445.283 364.757 443.687 364.166 442.936C369.734 441.528 375.133 438.711 377.917 434.769L381.122 435.989L380.954 435.895ZM387.871 444.72C386.437 444.156 385.087 443.405 383.738 442.654V443.499H373.108V442.842C371.927 443.499 370.746 444.156 369.396 444.72H387.871ZM369.481 454.953H387.365V466.406H383.653V465.561H373.024V466.5H369.481V454.953ZM372.939 451.385C372.771 450.353 372.433 448.944 371.927 447.912L374.289 447.161H370.83V451.385H372.939ZM373.108 457.581V458.896H383.738V457.581H373.108ZM383.653 462.932V461.618H373.024V462.932H383.653ZM376.82 447.161H374.458C374.964 448.287 375.47 449.789 375.639 450.728L373.699 451.385H376.82V447.161ZM381.122 440.871C380.195 440.12 379.351 439.463 378.592 438.711C377.832 439.463 376.904 440.214 375.976 440.871H381.122ZM379.688 447.161V451.385H382.557L380.701 450.822C381.122 449.789 381.629 448.287 381.882 447.161H379.688ZM385.762 447.161H382.641L385.003 447.818C384.413 449.132 383.822 450.446 383.316 451.479H385.762V447.255V447.161Z" fill="#DE5419"/>
<path d="M406.599 437.115C404.406 442.654 400.863 448.381 397.573 451.948C396.898 451.103 395.295 449.32 394.367 448.475C397.573 445.471 400.779 440.589 402.635 435.613L406.684 437.021L406.599 437.115ZM415.12 452.699C417.566 456.454 420.35 461.242 421.869 464.34L418.157 466.5C417.735 465.561 417.229 464.434 416.554 463.214C401.875 464.528 399.766 464.716 398.332 465.279C398.079 464.434 397.404 462.181 396.814 460.961C397.826 460.679 398.67 459.74 399.851 458.238C401.116 456.83 404.912 451.009 407.359 445.377L411.577 447.348C409.215 451.948 406.346 456.454 403.394 460.116L414.529 459.271C413.517 457.581 412.589 455.797 411.577 454.295L415.12 452.512V452.699ZM415.71 435.707C416.976 440.401 419.76 445.189 423.556 447.724C422.712 448.569 421.447 450.54 420.856 451.761C417.398 448.85 414.698 444.25 413.011 439.838H408.118V435.707H415.795H415.71Z" fill="#DE5419"/>
<path d="M452.155 436.177V466.5H448.611V465.279H429.63V466.5H426.256V436.177H452.155ZM448.611 461.712V439.838H429.63V461.712H448.611ZM440.428 457.206C440.344 457.957 440.428 459.083 440.428 459.647C435.282 461.055 434.354 461.43 433.848 461.712C433.764 461.149 433.342 460.022 433.005 459.647C433.426 459.365 434.017 459.083 434.017 457.769V456.549C433.173 456.924 432.414 457.206 431.655 457.487C431.317 456.924 430.474 455.798 429.883 455.234C431.824 454.765 433.933 454.108 435.62 453.169H432.161V448.287H446.165V453.169H439.669C438.826 453.92 437.729 454.671 436.632 455.234V458.145L440.428 457.206ZM447.515 447.348H430.643V445.095H437.391V443.781H432.077V441.622H437.391V440.214H440.682V441.622H446.249V443.781H440.682V445.095H447.515V447.348ZM435.198 451.479H443.044V450.071H435.198V451.479ZM447.852 455.14C447.093 455.798 446.165 456.361 445.321 456.924C446.418 457.769 447.346 458.52 448.021 459.271L445.743 460.773C444.225 459.177 441.019 456.642 438.488 454.859L440.682 453.544C441.525 454.108 442.537 454.859 443.55 455.516C444.393 454.859 445.321 454.202 445.827 453.544L447.937 455.14H447.852Z" fill="#DE5419"/>
<path d="M468.689 459.552H473.498V443.687H469.449V440.589C471.726 440.119 473.245 439.462 474.679 438.523H477.969V459.552H482.187V463.589H468.689V459.552Z" fill="#DE5419"/>
<path d="M485.477 451.01C485.477 442.373 488.514 438.148 493.069 438.148C497.624 438.148 500.661 442.373 500.661 451.01C500.661 459.647 497.624 464.059 493.069 464.059C488.514 464.059 485.477 459.553 485.477 451.01ZM496.443 451.01C496.443 443.969 495.009 441.997 493.069 441.997C491.129 441.997 489.695 444.063 489.695 451.01C489.695 457.957 491.129 460.21 493.069 460.21C495.009 460.21 496.443 458.051 496.443 451.01Z" fill="#DE5419"/>
<path d="M504.205 448.006C504.205 446.128 505.386 444.72 506.989 444.72C508.593 444.72 509.774 446.128 509.774 448.006C509.774 449.883 508.593 451.197 506.989 451.197C505.386 451.197 504.205 449.789 504.205 448.006ZM504.205 460.867C504.205 459.083 505.386 457.581 506.989 457.581C508.593 457.581 509.774 458.989 509.774 460.867C509.774 462.745 508.593 464.153 506.989 464.153C505.386 464.153 504.205 462.745 504.205 460.867Z" fill="#DE5419"/>
<path d="M512.725 460.586L514.834 457.394C516.184 458.802 517.787 459.929 519.812 459.929C521.836 459.929 523.608 458.708 523.608 456.455C523.608 454.202 522.342 452.418 517.365 452.418V448.851C521.499 448.851 522.849 447.255 522.849 445.002C522.849 442.749 521.752 441.904 519.812 441.81C518.209 441.81 516.859 442.655 515.594 444.063L513.316 441.059C515.256 439.181 517.45 437.961 520.065 437.961C524.451 437.961 527.32 440.308 527.32 444.626C527.32 448.945 525.97 449.32 523.523 450.353V450.541C526.054 451.292 527.995 453.451 527.995 456.737C527.995 460.023 524.367 463.966 520.065 463.966C515.762 463.966 514.075 462.463 512.557 460.492L512.725 460.586Z" fill="#DE5419"/>
<path d="M531.115 451.01C531.115 442.373 534.152 438.148 538.708 438.148C543.263 438.148 546.3 442.373 546.3 451.01C546.3 459.647 543.263 464.059 538.708 464.059C534.152 464.059 531.115 459.553 531.115 451.01ZM542.166 451.01C542.166 443.969 540.732 441.997 538.792 441.997C536.852 441.997 535.418 444.063 535.418 451.01C535.418 457.957 536.852 460.21 538.792 460.21C540.732 460.21 542.166 458.051 542.166 451.01Z" fill="#DE5419"/>
<path d="M549.252 452.137H557.519V455.704H549.252V452.137Z" fill="#DE5419"/>
<path d="M561.484 459.552H566.293V443.687H562.244V440.589C564.521 440.119 566.04 439.462 567.474 438.523H570.764V459.552H574.982V463.589H561.484V459.552Z" fill="#DE5419"/>
<path d="M577.682 460.679L579.791 457.487C581.056 458.895 582.659 460.022 584.768 460.022C586.877 460.022 588.733 458.332 588.733 455.422C588.733 452.511 587.214 450.915 584.937 450.915C582.659 450.915 582.828 451.291 581.562 452.23L579.538 450.728L580.128 438.617H592.192V442.748H584.009L583.587 448.099C584.43 447.63 585.274 447.348 586.286 447.348C590.083 447.348 593.204 449.883 593.204 455.328C593.204 460.773 589.492 464.152 585.358 464.152C581.225 464.152 579.453 462.556 577.766 460.773L577.682 460.679Z" fill="#DE5419"/>
<path d="M596.916 448.006C596.916 446.128 598.097 444.72 599.7 444.72C601.303 444.72 602.485 446.128 602.485 448.006C602.485 449.883 601.303 451.197 599.7 451.197C598.097 451.197 596.916 449.789 596.916 448.006ZM596.916 460.867C596.916 459.083 598.097 457.581 599.7 457.581C601.303 457.581 602.485 458.989 602.485 460.867C602.485 462.745 601.303 464.153 599.7 464.153C598.097 464.153 596.916 462.745 596.916 460.867Z" fill="#DE5419"/>
<path d="M606.027 451.01C606.027 442.373 609.064 438.148 613.62 438.148C618.175 438.148 621.212 442.373 621.212 451.01C621.212 459.647 618.175 464.059 613.62 464.059C609.064 464.059 606.027 459.553 606.027 451.01ZM616.994 451.01C616.994 443.969 615.56 441.997 613.62 441.997C611.679 441.997 610.245 444.063 610.245 451.01C610.245 457.957 611.679 460.21 613.62 460.21C615.56 460.21 616.994 458.051 616.994 451.01Z" fill="#DE5419"/>
<path d="M623.912 451.01C623.912 442.373 626.949 438.148 631.505 438.148C636.06 438.148 639.097 442.373 639.097 451.01C639.097 459.647 636.06 464.059 631.505 464.059C626.949 464.059 623.912 459.553 623.912 451.01ZM634.963 451.01C634.963 443.969 633.529 441.997 631.589 441.997C629.649 441.997 628.215 444.063 628.215 451.01C628.215 457.957 629.649 460.21 631.589 460.21C633.529 460.21 634.963 458.051 634.963 451.01Z" fill="#DE5419"/>
<path d="M219.996 467.063C227.963 467.063 234.422 459.875 234.422 451.009C234.422 442.143 227.963 434.956 219.996 434.956C212.029 434.956 205.57 442.143 205.57 451.009C205.57 459.875 212.029 467.063 219.996 467.063Z" fill="#DE5419"/>
<path d="M226.827 443.594V457.582H224.887V456.549H215.692V457.676H213.836V443.594H226.912H226.827ZM224.803 454.578V452.7C224.55 452.7 224.297 452.7 224.044 452.7H222.694C221.26 452.7 220.922 451.855 220.922 450.071V445.565H219.404C219.404 449.79 218.982 452.325 216.535 453.733C216.367 453.263 215.861 452.512 215.523 452.137V454.484H224.718L224.803 454.578ZM215.608 445.565V452.137C217.463 450.916 217.632 449.039 217.632 445.565H215.608ZM224.803 445.565H222.694V450.165C222.694 450.729 222.694 451.01 223.031 451.01H224.044C224.297 451.01 224.634 451.01 224.887 451.01V445.659L224.803 445.565Z" fill="white"/>
<g clip-path="url(#clip0_208_1496)">
<path d="M183.564 207.834L184.572 201.486C192.905 194.323 199.26 188.149 203.638 182.981C208.016 177.804 210.519 173.204 211.156 169.174C211.608 166.338 211.305 164.137 210.26 162.571C209.208 161.005 207.505 160.222 205.134 160.222C202.186 160.222 198.846 162.109 195.112 165.893L190.69 159.925C193.564 157.04 196.312 154.921 198.942 153.578C201.571 152.234 204.512 151.566 207.779 151.566C212.475 151.566 216.008 153.124 218.371 156.232C220.741 159.34 221.519 163.461 220.704 168.588C219.371 176.996 212.253 187.201 199.357 199.187C202.727 198.791 205.468 198.593 207.564 198.593H218.297L216.83 207.85H183.564V207.834Z" fill="#E95513"/>
<path d="M251.586 206.078C247.801 211.056 243.32 213.538 238.127 213.538C232.935 213.538 229.231 211.048 227.002 206.078C224.772 201.099 224.394 193.96 225.868 184.654C227.342 175.348 229.957 168.283 233.72 163.461C237.483 158.639 241.964 156.224 247.172 156.224C252.379 156.224 256.097 158.639 258.334 163.461C260.564 168.283 260.942 175.356 259.468 184.654C257.994 193.952 255.364 201.099 251.579 206.078H251.586ZM235.164 184.844C233.039 198.255 234.468 204.957 239.453 204.957C244.438 204.957 247.994 198.255 250.12 184.844C252.246 171.432 250.816 164.73 245.831 164.73C240.846 164.73 237.29 171.432 235.164 184.844Z" fill="#E95513"/>
<path d="M262.57 203.168L263.578 196.82C271.911 189.657 278.266 183.483 282.644 178.315C287.022 173.138 289.525 168.538 290.162 164.508C290.614 161.672 290.31 159.471 289.266 157.905C288.214 156.339 286.511 155.556 284.14 155.556C281.192 155.556 277.851 157.443 274.118 161.227L269.696 155.259C272.57 152.374 275.318 150.255 277.948 148.912C280.577 147.568 283.518 146.9 286.785 146.9C291.481 146.9 295.014 148.458 297.377 151.566C299.747 154.674 300.525 158.795 299.71 163.922C298.377 172.33 291.259 182.535 278.363 194.521C281.733 194.125 284.474 193.927 286.57 193.927H297.303L295.836 203.184H262.57V203.168Z" fill="#E95513"/>
<path d="M315.857 207.948C309.191 207.948 304.006 205.434 300.287 200.406L305.961 193.391C308.813 197.125 312.161 198.988 316.005 198.988C318.642 198.988 320.909 198.09 322.805 196.301C324.701 194.512 325.894 192.023 326.405 188.841C326.909 185.659 326.538 183.194 325.294 181.455C324.05 179.716 322.153 178.842 319.605 178.842C318.176 178.842 316.924 179.056 315.85 179.477C314.776 179.897 313.391 180.655 311.702 181.752L307.731 178.471L313.331 151.599H339.894L338.427 160.856H320.383L317.59 172.577C319.768 171.53 321.842 171.011 323.805 171.011C328.235 171.011 331.649 172.503 334.064 175.487C336.479 178.471 337.22 182.873 336.294 188.701C335.368 194.52 332.946 199.186 329.012 202.697C325.079 206.209 320.702 207.956 315.872 207.956L315.857 207.948Z" fill="#E95513"/>
<path d="M392.449 163.963C393.042 178.487 399.064 188.164 410.39 193.201L412.027 184.612C404.486 180.754 400.434 173.871 399.745 163.955H415.508L416.819 157.08H387.975L390.116 145.878H416.226L417.523 139.151H391.412L393.694 129.507H385.894L383.612 139.151H357.657L356.368 145.878H382.331L380.183 157.08H351.502L350.191 163.955H365.776C362.702 173.278 356.124 180.391 345.865 185.263L344.324 193.341C350.976 190.901 357.087 187.134 362.598 181.867C367.079 177.721 370.62 171.794 373.168 163.955H378.872L367.627 215.935H375.42L386.672 163.955H392.464L392.449 163.963Z" fill="#E95513" stroke="white" stroke-width="8.26" stroke-linecap="round" stroke-linejoin="round"/>
<path d="M471.944 208.978L473.492 200.389C464.396 196.885 457.329 191.816 452.3 185.271C458.078 183.243 462.5 180.44 465.522 176.929C467.418 180.506 470.329 183.416 474.173 185.502L475.611 177.555C472.329 175.833 470.292 173.03 469.522 169.288C469.603 168.809 469.781 168.348 469.862 167.87L470.877 162.182H463.789L462.707 168.183C461.803 172.7 458.418 176.055 452.611 178.256L451.537 184.257C450.248 182.534 449.063 180.663 448.093 178.561L451.507 159.594H480.529L481.884 152.043H452.878L455.796 136.019H447.73L444.833 152.043H417.33L415.967 159.594H443.478L440.485 176.146C438.974 179.179 436.871 182.056 434.322 184.71L435.611 177.547C432.256 175.824 430.256 173.162 429.5 169.444C429.589 168.966 429.76 168.414 429.863 167.862L430.893 162.174H423.789L422.715 168.175C421.819 172.692 418.434 176.047 412.619 178.248L411.278 185.65C417.582 183.474 422.308 180.589 425.53 176.921C427.286 180.432 430.056 183.235 433.826 185.263C427.804 191.264 418.819 196.407 406.975 200.694L405.516 208.805C419.323 204.279 430.145 198.114 437.9 190.48L430.774 229.849H438.826L445.789 189.549C451.73 198.196 460.692 204.675 471.944 208.961" fill="#E95513"/>
<path d="M471.944 208.978L473.492 200.389C464.396 196.885 457.329 191.816 452.3 185.271C458.078 183.243 462.5 180.44 465.522 176.929C467.418 180.506 470.329 183.416 474.173 185.502L475.611 177.555C472.329 175.833 470.292 173.03 469.522 169.288C469.603 168.809 469.781 168.348 469.862 167.87L470.877 162.182H463.789L462.707 168.183C461.803 172.7 458.418 176.055 452.611 178.256L451.537 184.257C450.248 182.534 449.063 180.663 448.093 178.561L451.507 159.594H480.529L481.884 152.043H452.878L455.796 136.019H447.73L444.833 152.043H417.33L415.967 159.594H443.478L440.485 176.146C438.974 179.179 436.871 182.056 434.322 184.71L435.611 177.547C432.256 175.824 430.256 173.162 429.5 169.444C429.589 168.966 429.76 168.414 429.863 167.862L430.893 162.174H423.789L422.715 168.175C421.819 172.692 418.434 176.047 412.619 178.248L411.278 185.65C417.582 183.474 422.308 180.589 425.53 176.921C427.286 180.432 430.056 183.235 433.826 185.263C427.804 191.264 418.819 196.407 406.975 200.694L405.516 208.805C419.323 204.279 430.145 198.114 437.9 190.48L430.774 229.849H438.826L445.789 189.549C451.73 198.196 460.692 204.675 471.944 208.961" stroke="white" stroke-width="8.26" stroke-linecap="round" stroke-linejoin="round"/>
<path d="M577.298 168.299L578.52 162.43C584.765 159.05 591.402 154.591 597.283 149.983L599.557 139.481L554.587 139.357L552.699 148.466H586.142C581.491 151.788 575.854 155.258 571.076 157.575L568.846 168.299H541.817L539.906 177.482H566.928L563.106 195.847C562.832 197.158 562.276 197.545 560.758 197.619C559.513 197.685 552.054 197.694 547.936 197.504L545.891 207.289C552.247 207.289 563.721 207.247 563.906 207.247C567.839 207.247 570.395 203.423 571.38 198.642L575.387 177.482H601.868L603.779 168.299H577.298Z" fill="#E95513" stroke="white" stroke-width="8.26" stroke-linecap="round" stroke-linejoin="round"/>
<path d="M515.128 144.146H505.98C505.757 142.605 505.402 140.923 505.039 139.349H496.758L496.446 139.439C496.706 140.824 496.965 142.53 497.172 144.146H486.528L484.973 151.631H513.565L515.12 144.146H515.128Z" fill="#E95513" stroke="white" stroke-width="8.26" stroke-linecap="round" stroke-linejoin="round"/>
<path d="M482.137 185.923C481.596 187.571 477.026 192.377 474.811 192.748C474.811 192.748 473.063 202.071 473.123 202.071C477.656 200.076 485.619 192.872 488.411 186.096L482.137 185.923Z" fill="#E95513" stroke="white" stroke-width="8.26" stroke-linecap="round" stroke-linejoin="round"/>
<path d="M506.506 195.229C505.995 192.451 505.046 189.055 504.165 185.84L498.076 185.988C498.795 188.28 499.439 192.327 499.913 195.229H506.506Z" fill="#E95513" stroke="white" stroke-width="8.26" stroke-linecap="round" stroke-linejoin="round"/>
<path d="M518.224 176.237L519.216 171.456H532.046L531.053 176.237H518.224ZM521.705 159.495H534.535L533.542 164.285H520.713L521.705 159.495ZM524.179 147.609H537.009L536.016 152.39H523.187L524.179 147.609ZM532.653 192.962C531.505 197.751 531.424 199.466 530.179 199.466H528.409C527.661 199.466 527.572 199.235 527.987 197.224L530.698 184.183H537.046L546.32 139.58H518.609L509.335 184.183H512.816C510.772 191.462 507.994 197.57 500.35 200.373L498.609 208.781C510.972 206.695 516.979 195.666 520.253 184.183H523.327L520.602 197.306C519.061 204.717 519.757 207.264 525.49 207.264H529.446C535.698 207.264 536.423 203.522 539.26 192.962H532.653Z" fill="#E95513" stroke="white" stroke-width="8.26" stroke-linecap="round" stroke-linejoin="round"/>
<path d="M504.336 151.797L504.32 151.788V151.797H504.336Z" fill="#E95513" stroke="white" stroke-width="8.26" stroke-linecap="round" stroke-linejoin="round"/>
<path d="M511.239 153.511H503.698C502.639 156.297 501.21 159.528 499.987 162.133H481.558L479.958 169.848H492.995L491.891 175.174H479.536L477.943 182.815H490.299L484.951 208.517H492.321L497.669 182.815H507.432L509.017 175.174H499.254L500.365 169.848H511.217L512.824 162.133H506.817C508.165 159.536 509.661 156.561 511.246 153.511" fill="#E95513"/>
<path d="M511.239 153.511H503.698C502.639 156.297 501.21 159.528 499.987 162.133H481.558L479.958 169.848H492.995L491.891 175.174H479.536L477.943 182.815H490.299L484.951 208.517H492.321L497.669 182.815H507.432L509.017 175.174H499.254L500.365 169.848H511.217L512.824 162.133H506.817C508.165 159.536 509.661 156.561 511.246 153.511" stroke="white" stroke-width="8.26" stroke-linecap="round" stroke-linejoin="round"/>
<path d="M495.047 161.547C495.136 159.792 495.099 155.942 494.861 153.684H488.165L488.01 153.717C488.232 155.654 488.299 159.462 488.239 161.547H495.039H495.047Z" fill="#E95513" stroke="white" stroke-width="8.26" stroke-linecap="round" stroke-linejoin="round"/>
<path d="M392.449 163.963C393.042 178.487 399.064 188.164 410.39 193.201L412.027 184.612C404.486 180.754 400.434 173.871 399.745 163.955H415.508L416.819 157.08H387.975L390.116 145.878H416.226L417.523 139.151H391.412L393.694 129.507H385.894L383.612 139.151H357.657L356.368 145.878H382.331L380.183 157.08H351.502L350.191 163.955H365.776C362.702 173.278 356.124 180.391 345.865 185.263L344.324 193.341C350.976 190.901 357.087 187.134 362.598 181.867C367.079 177.721 370.62 171.794 373.168 163.955H378.872L367.627 215.935H375.42L386.672 163.955H392.464L392.449 163.963Z" fill="#E95513"/>
<path d="M471.944 208.978L473.492 200.389C464.396 196.885 457.329 191.816 452.3 185.271C458.078 183.243 462.5 180.44 465.522 176.929C467.418 180.506 470.329 183.416 474.173 185.502L475.611 177.555C472.329 175.833 470.292 173.03 469.522 169.288C469.603 168.809 469.781 168.348 469.862 167.87L470.877 162.182H463.789L462.707 168.183C461.803 172.7 458.418 176.055 452.611 178.256L451.537 184.257C450.248 182.534 449.063 180.663 448.093 178.561L451.507 159.594H480.529L481.884 152.043H452.878L455.796 136.019H447.73L444.833 152.043H417.33L415.967 159.594H443.478L440.485 176.146C438.974 179.179 436.871 182.056 434.322 184.71L435.611 177.547C432.256 175.824 430.256 173.162 429.5 169.444C429.589 168.966 429.76 168.414 429.863 167.862L430.893 162.174H423.789L422.715 168.175C421.819 172.692 418.434 176.047 412.619 178.248L411.278 185.65C417.582 183.474 422.308 180.589 425.53 176.921C427.286 180.432 430.056 183.235 433.826 185.263C427.804 191.264 418.819 196.407 406.975 200.694L405.516 208.805C419.323 204.279 430.145 198.114 437.9 190.48L430.774 229.849H438.826L445.789 189.549C451.73 198.196 460.692 204.675 471.944 208.961" fill="#E95513"/>
<path d="M577.298 168.299L578.52 162.43C584.765 159.05 591.402 154.591 597.283 149.983L599.557 139.481L554.587 139.357L552.699 148.466H586.142C581.491 151.788 575.854 155.258 571.076 157.575L568.846 168.299H541.817L539.906 177.482H566.928L563.106 195.847C562.832 197.158 562.276 197.545 560.758 197.619C559.513 197.685 552.054 197.694 547.936 197.504L545.891 207.289C552.247 207.289 563.721 207.247 563.906 207.247C567.839 207.247 570.395 203.423 571.38 198.642L575.387 177.482H601.868L603.779 168.299H577.298Z" fill="#E95513"/>
<path d="M515.128 144.146H505.98C505.757 142.605 505.402 140.923 505.039 139.349H496.758L496.446 139.439C496.706 140.824 496.965 142.53 497.172 144.146H486.528L484.973 151.631H513.565L515.12 144.146H515.128Z" fill="#E95513"/>
<path d="M482.137 185.923C481.596 187.571 477.026 192.377 474.811 192.748C474.811 192.748 473.063 202.071 473.123 202.071C477.656 200.076 485.619 192.872 488.411 186.096L482.137 185.923Z" fill="#E95513"/>
<path d="M506.506 195.229C505.995 192.451 505.046 189.055 504.165 185.84L498.076 185.988C498.795 188.28 499.439 192.327 499.913 195.229H506.506Z" fill="#E95513"/>
<path d="M518.224 176.237L519.216 171.456H532.046L531.053 176.237H518.224ZM521.705 159.495H534.535L533.542 164.285H520.713L521.705 159.495ZM524.179 147.609H537.009L536.016 152.39H523.187L524.179 147.609ZM532.653 192.962C531.505 197.751 531.424 199.466 530.179 199.466H528.409C527.661 199.466 527.572 199.235 527.987 197.224L530.698 184.183H537.046L546.32 139.58H518.609L509.335 184.183H512.816C510.772 191.462 507.994 197.57 500.35 200.373L498.609 208.781C510.972 206.695 516.979 195.666 520.253 184.183H523.327L520.602 197.306C519.061 204.717 519.757 207.264 525.49 207.264H529.446C535.698 207.264 536.423 203.522 539.26 192.962H532.653Z" fill="#E95513"/>
<path d="M504.336 151.797L504.32 151.788V151.797H504.336Z" fill="#E95513"/>
<path d="M511.239 153.511H503.698C502.639 156.297 501.21 159.528 499.987 162.133H481.558L479.958 169.848H492.995L491.891 175.174H479.536L477.943 182.815H490.299L484.951 208.517H492.321L497.669 182.815H507.432L509.017 175.174H499.254L500.365 169.848H511.217L512.824 162.133H506.817C508.165 159.536 509.661 156.561 511.246 153.511" fill="#E95513"/>
<path d="M495.047 161.547C495.136 159.792 495.099 155.942 494.861 153.684H488.165L488.01 153.717C488.232 155.654 488.299 159.462 488.239 161.547H495.039H495.047Z" fill="#E95513"/>
</g>
<path d="M589.07 324.736C588.506 324.736 588.009 324.691 587.58 324.593C587.152 324.502 586.843 324.45 586.655 324.45C585.421 324.36 583.127 324.307 579.771 324.307C576.416 324.307 571.895 324.262 566.222 324.164C560.55 324.074 556.073 324.044 552.816 324.096C549.551 324.149 547.497 324.217 546.647 324.307C546.549 324.217 546.481 324.54 546.436 325.3L543.246 378.783H594.329L590.778 324.728H589.078L589.07 324.736ZM575.588 357.514L568.637 357.371C566.651 357.371 564.973 357.326 563.596 357.228C562.227 357.138 561.49 357.04 561.4 356.943C561.212 356.754 561.114 355.829 561.114 354.174C561.114 352.519 561.204 350.51 561.4 348.14C561.49 345.68 561.588 343.529 561.686 341.686C561.776 339.842 561.828 338.729 561.828 338.353V336.795H575.453C575.453 336.984 575.476 338.029 575.521 339.918C575.566 341.813 575.588 344.266 575.588 347.298V357.514Z" fill="#053793"/>
<path d="M549.332 309.976C549.332 311.586 549.399 313.03 549.542 314.301C549.685 315.573 549.753 316.498 549.753 317.07L550.039 318.492L554.297 318.349C558.269 318.161 562.362 317.92 566.575 317.642C570.78 317.356 574.783 317.025 578.567 316.649L585.804 315.941V310.269L586.09 304.311L576.303 304.453C573.271 304.453 570.036 304.506 566.583 304.596C563.129 304.694 560.173 304.739 557.713 304.739H548.918L549.347 309.991L549.332 309.976Z" fill="#053793"/>
<path d="M543.373 271.095C543.561 272.517 543.681 273.789 543.726 274.925C543.772 276.061 543.794 276.768 543.794 277.054V277.904L551.739 277.618C576.52 277.054 589.107 276.339 589.483 275.489C589.671 275.203 589.746 274.639 589.693 273.789C589.641 272.939 589.626 271.803 589.626 270.381C589.626 267.545 589.483 265.837 589.197 265.272C589.099 265.182 586.737 265.13 582.102 265.13H575.572L574.692 242.567L552.416 243.891L561.737 265.558L567.966 265.37C566.251 265.498 564.182 265.558 561.737 265.558H553.153C550.317 265.37 547.977 265.325 546.126 265.415C544.283 265.513 543.313 265.558 543.215 265.558C543.215 265.656 543.237 266.243 543.283 267.334C543.328 268.425 543.35 269.674 543.35 271.095H543.373Z" fill="#053793"/>
<path d="M549.618 295.929L557.706 295.787C559.978 295.787 562.25 295.719 564.514 295.576C566.779 295.433 568.441 295.267 569.48 295.079C570.616 294.989 572.105 294.869 573.948 294.726C575.792 294.583 577.567 294.515 579.267 294.515C580.968 294.327 582.412 294.207 583.593 294.162C584.774 294.116 585.459 294.094 585.647 294.094V285.156H581.246C580.584 285.156 580.065 285.066 579.689 284.87C579.215 284.87 577.77 284.848 575.363 284.803C572.948 284.757 570.044 284.735 566.636 284.735C563.228 284.547 560.128 284.426 557.345 284.381C554.553 284.336 552.733 284.314 551.883 284.314L549.189 283.885L549.332 288.707C549.52 290.031 549.618 291.265 549.618 292.394V295.945V295.929Z" fill="#053793"/>
<path d="M669.035 336.796C668.042 335.945 667.545 335.614 667.545 335.802C667.447 336.276 666.981 337.39 666.123 339.135C665.273 340.888 664.325 342.754 663.287 344.74C662.241 346.726 661.248 348.569 660.308 350.277C660.127 350.601 659.962 350.894 659.804 351.165L658.457 353.256L657.501 351.428C657.253 350.39 657.005 348.923 656.757 347.012C656.659 346.538 656.569 345.733 656.471 344.597C656.373 343.461 656.283 341.949 656.185 340.053C656.087 338.353 656.065 335.772 656.117 332.319C656.162 328.866 656.238 324.54 656.328 319.334C656.418 311.954 656.471 304.671 656.471 297.479V258.313C656.471 254.153 656.418 251.452 656.328 250.226L656.042 248.526L653.913 248.24H651.001C649.444 248.24 647.473 248.217 645.111 248.172C642.748 248.127 640.025 248.104 636.948 248.104H627.085C623.677 248.104 620.389 248.082 617.222 248.036C614.055 247.991 611.211 247.969 608.706 247.969C606.201 247.969 604.094 247.946 602.394 247.901C600.694 247.856 599.558 247.833 598.986 247.833C596.526 247.743 595.202 247.833 595.014 248.119V249.112C595.014 249.3 595.036 249.819 595.081 250.67C595.119 251.384 595.209 252.204 595.352 253.122L596.398 268.409L607.78 267.176V268.266C607.592 272.901 607.427 277.513 607.284 282.102C607.141 286.691 607.073 291.303 607.073 295.937V300.902L600.972 301.045H594.585V309.419L594.299 317.649L598.128 317.935C599.166 317.935 600.28 317.957 601.461 318.002C602.642 318.055 603.515 318.07 604.087 318.07C604.846 318.07 605.456 318.123 605.93 318.213C606.404 318.311 606.735 318.401 606.923 318.499C607.013 318.499 607.111 318.973 607.209 319.921C607.299 320.869 607.352 321.96 607.352 323.186C607.352 324.412 607.374 326.263 607.419 328.723C607.464 331.183 607.54 333.997 607.63 337.164C607.72 340.332 607.818 343.815 607.916 347.591C608.006 351.376 608.104 355.258 608.202 359.23C608.292 362.066 608.39 364.812 608.488 367.46C608.578 370.108 608.631 371.906 608.631 372.854V376.541H625.799V366.324C625.799 363.39 625.821 359.869 625.866 355.754C625.911 351.639 625.987 346.884 626.077 341.49C626.167 336.096 626.22 331.582 626.22 327.941V319.357L626.506 315.949H632.607L638.851 315.806L639.28 322.757C639.468 324.653 639.656 326.684 639.844 328.859C640.033 331.033 640.221 333.35 640.409 335.81C640.597 338.368 640.762 340.489 640.905 342.197C641.048 343.905 641.214 345.176 641.402 346.027C641.402 346.312 641.469 347.042 641.612 348.223C641.755 349.404 641.966 350.706 642.252 352.128C642.259 352.256 642.274 352.369 642.29 352.497L644.494 375.969L658.434 386.005L694.606 347.163L669.004 336.803L669.035 336.796ZM638.596 273.367C638.596 276.399 638.528 279.611 638.385 283.019C638.242 286.428 638.174 289.264 638.174 291.536L638.031 299.202H632.216C630.704 299.202 629.327 299.157 628.101 299.059C626.867 298.969 626.205 298.871 626.115 298.773C625.829 298.773 625.641 298.344 625.55 297.494C625.453 296.644 625.498 294.846 625.693 292.1C625.784 290.302 625.904 288.007 626.047 285.216C626.19 282.425 626.355 279.754 626.543 277.197C626.634 274.925 626.731 272.705 626.829 270.523C626.92 268.349 626.972 266.837 626.972 265.979V265.084L639.002 263.783L638.611 273.36L638.596 273.367Z" fill="#053793"/>
<path d="M143.138 326.647C137.977 326.452 129.341 326.301 117.236 326.203C105.123 326.008 98.3298 326.008 96.8402 326.203C96.7424 326.203 96.6371 326.625 96.5393 327.467C96.4415 328.31 96.3362 329.724 96.2384 331.71C96.1406 333.697 96.0879 336.322 96.0879 339.602V377.715H149.661L145.967 326.655H143.138V326.647ZM114.557 339.595H129.295V340.783C129.393 342.965 129.446 345.177 129.446 347.411V354.182C129.243 358.847 129.1 361.329 129.002 361.623C128.904 361.721 128.129 361.751 126.692 361.698C125.255 361.645 123.585 361.525 121.704 361.329L114.708 360.885L114.557 350.165V339.595Z" fill="#053793"/>
<path d="M100.857 292.996C100.955 293.492 101.007 293.944 101.007 294.335C101.007 294.726 101.06 295.132 101.158 295.523C101.158 296.118 101.21 296.471 101.308 296.569C102.203 296.667 106.07 296.516 112.924 296.125C116.294 295.93 119.228 295.779 121.711 295.681C124.194 295.584 126.278 295.433 127.963 295.237C129.452 295.042 130.942 294.914 132.432 294.869C133.921 294.816 135.11 294.696 136.005 294.5H138.834V284.976H131.837C130.844 284.976 130.197 284.878 129.904 284.675C129.505 284.675 128.189 284.652 125.962 284.6C123.727 284.547 121.124 284.524 118.145 284.524C115.166 284.329 112.315 284.201 109.584 284.156C106.853 284.103 104.994 284.081 104.001 284.081L100.127 283.637L100.428 286.766C100.428 287.662 100.503 288.7 100.654 289.896C100.804 291.085 100.879 292.13 100.879 293.026L100.857 292.996Z" fill="#053793"/>
<path d="M99.9626 318.379C99.9626 319.425 100.015 320.042 100.113 320.237C100.911 320.237 105.078 320.087 112.617 319.793C116.386 319.598 120.012 319.447 123.488 319.35C126.964 319.252 130.281 319.101 133.464 318.906L139.272 318.605V305.507H119.914C114.257 305.507 109.592 305.529 105.921 305.582C102.25 305.635 100.264 305.755 99.9626 305.951C99.7595 306.154 99.6391 306.568 99.594 307.215C99.5413 307.862 99.5714 308.479 99.6692 309.073C99.8648 309.171 99.9702 309.742 99.9702 310.788V318.379H99.9626Z" fill="#053793"/>
<path d="M217.724 333.342C215.143 333.342 212.713 333.395 210.426 333.493C208.139 333.591 206.409 333.643 205.212 333.643C204.122 333.741 203.181 333.771 202.384 333.719C201.586 333.666 201.09 333.643 200.894 333.643C200.796 333.448 200.668 333.342 200.525 333.342C200.383 333.342 200.3 333.44 200.3 333.643C200.097 333.643 199.901 333.741 199.705 333.944L199.555 334.095C199.457 334.095 199.352 334.042 199.254 333.944C199.156 333.847 199.201 333.749 199.405 333.643V333.493C199.405 333.297 199.307 333.102 199.104 332.899C199.006 332.899 198.9 332.079 198.803 330.439C198.705 328.798 198.652 326.496 198.652 323.517C198.652 319.552 198.705 316.995 198.803 315.851C198.9 314.715 199.104 314.136 199.397 314.136C199.69 314.136 200.736 314.113 202.527 314.06C204.31 314.008 206.394 313.887 208.778 313.692C211.163 313.692 213.27 313.669 215.105 313.617C216.941 313.564 218.107 313.444 218.604 313.248H219.943V299.255H209.674L199.547 298.954V280.943H207.439C211.306 280.943 214.684 280.891 217.566 280.793C220.447 280.695 222.177 280.597 222.779 280.492C222.975 280.296 223.103 279.725 223.148 278.777C223.2 277.836 223.223 276.076 223.223 273.495L223.073 266.792H215.406C214.361 266.792 213.646 266.739 213.247 266.642C212.45 266.642 211.983 266.566 211.833 266.416C211.682 266.265 211.855 265.897 212.352 265.302C212.548 264.806 212.894 263.835 213.398 262.398C213.894 260.962 214.413 259.419 214.963 257.787C215.166 257.185 215.354 256.606 215.542 256.034L221.417 242.236L197.08 238.068L193.627 266.544C192.528 266.612 190.798 266.649 188.39 266.649H183.598L175.601 242.236L167.137 245.148C166.536 245.313 165.941 245.471 165.317 245.659C163.624 246.156 162.067 246.652 160.63 247.149C159.193 247.645 158.267 248.044 157.876 248.338L158.32 250.121C158.516 250.617 158.764 251.234 159.065 251.979C159.366 252.724 159.712 253.491 160.111 254.288C160.705 255.981 161.247 257.591 161.751 259.126C162.247 260.668 162.593 261.729 162.796 262.323C162.992 262.918 163.195 263.437 163.391 263.888C163.586 264.332 163.737 264.558 163.835 264.558C163.835 264.761 163.887 264.956 163.985 265.152C164.083 265.355 164.136 265.596 164.136 265.897C164.233 266.393 164.06 266.717 163.617 266.867C163.173 267.018 162.052 266.995 160.269 266.792H156.695L156.251 268.432C156.153 270.02 156.153 272.404 156.251 275.579C156.251 278.257 156.349 280.101 156.552 281.086C156.853 281.289 158.117 281.387 160.351 281.387H179.927V291.656L179.776 301.925L175.458 301.625C174.269 301.625 173.224 301.602 172.328 301.549C171.433 301.497 170.937 301.376 170.839 301.181C170.636 301.181 169.846 301.158 168.454 301.105C167.062 301.053 165.475 300.932 163.692 300.737L156.695 300.586L157.139 308.772C157.139 311.059 157.192 312.962 157.289 314.504C157.387 316.047 157.485 316.912 157.59 317.107C157.891 317.01 158.531 316.957 159.524 316.957C160.118 316.859 160.84 316.806 161.683 316.806H164.286C166.069 316.709 168.055 316.611 170.244 316.505C172.426 316.408 174.119 316.355 175.308 316.355H179.919V336.45L175.308 336.299C169.056 336.104 163.79 335.93 159.524 335.78C155.258 335.63 152.971 335.66 152.678 335.855C152.678 336.254 152.776 337.247 152.979 338.834C153.174 340.422 153.37 342.085 153.573 343.822C153.769 345.56 153.994 347.17 154.243 348.66C154.491 350.149 154.664 351.09 154.762 351.488C154.762 351.586 158.93 351.639 167.265 351.639C170.636 351.541 173.517 351.488 175.902 351.488H179.769C179.769 351.586 179.791 352.956 179.844 355.581C179.897 358.214 179.919 361.464 179.919 365.331V379.174L189.15 379.024C191.633 378.82 193.837 378.655 195.778 378.504C197.712 378.354 198.833 378.279 199.126 378.279C199.623 378.181 199.894 377.91 199.946 377.459C199.999 377.015 199.969 375.894 199.871 374.111C199.773 372.027 199.668 369.717 199.57 367.189C199.472 364.662 199.367 361.953 199.269 359.079C199.171 356.198 199.096 353.941 199.043 352.309C198.991 350.669 199.021 349.653 199.119 349.254C199.314 349.059 200.706 348.953 203.286 348.953H223.832C224.825 348.953 225.472 348.901 225.766 348.803C226.067 348.705 226.21 348.607 226.21 348.502C226.308 348.201 226.36 347.313 226.36 345.824V340.76L226.21 333.32H217.724V333.342Z" fill="#053793"/>
<path d="M107.703 276.625C111.179 276.527 114.301 276.399 117.085 276.256C119.861 276.106 121.599 276.031 122.298 276.031C123.096 275.835 124.48 275.707 126.466 275.662C128.452 275.609 130.634 275.489 133.019 275.293C135.6 275.293 137.706 275.218 139.346 275.068C140.986 274.917 141.851 274.842 141.949 274.842V268.59L141.505 262.632H138.376C137.48 262.632 136.412 262.654 135.178 262.707C133.937 262.759 132.771 262.88 131.68 263.075C130.928 263.075 129.649 263.106 127.843 263.166L128.934 237L105.868 241.935L110.968 263.534L94.6055 263.978V270.23C94.6055 272.013 94.628 273.533 94.6807 274.774C94.7334 276.015 94.7559 276.738 94.7559 276.933C94.9515 277.031 96.0424 277.084 98.0285 277.084C100.015 277.084 103.242 276.933 107.703 276.64V276.625Z" fill="#053793"/>
<path d="M379.849 245.208H372.258C370.077 245.208 368.263 245.231 366.827 245.283C365.39 245.336 364.615 245.359 364.517 245.359C364.118 245.456 360.199 245.607 352.758 245.802C345.912 245.9 337.328 246.051 327.006 246.246C321.65 246.246 317.053 246.321 313.239 246.472C309.417 246.622 307.212 246.698 306.611 246.698L305.271 247.142V260.097C305.467 263.873 305.595 267.018 305.64 269.553C305.693 272.081 305.715 273.398 305.715 273.495C305.911 274.488 306.016 279.649 306.016 288.978V305.507C306.016 311.465 306.069 318.161 306.167 325.601C306.167 334.035 306.189 341.43 306.242 347.78C306.295 354.129 306.317 359.539 306.317 364.007V371.154C306.317 373.336 306.37 375.375 306.468 377.256C306.769 377.256 307.581 377.203 308.928 377.105C310.267 377.007 311.982 376.955 314.066 376.955C316.15 376.955 317.79 376.902 318.979 376.804C320.167 376.707 321.063 376.579 321.657 376.436C322.251 376.293 322.628 376.045 322.771 375.691C322.921 375.345 322.996 374.969 322.996 374.577V372.937L326.269 372.787C327.164 372.591 329.519 372.463 333.341 372.418C337.162 372.366 341.451 372.245 346.22 372.05L362.749 371.899L363.343 373.389C363.539 373.885 363.742 374.359 363.938 374.803C364.133 375.247 364.329 375.473 364.532 375.473C365.525 375.774 368.256 375.774 372.717 375.473C374.538 375.315 376.043 375.202 377.231 375.142L382.543 375.277L386.244 245.208L379.902 245.359L379.857 245.208H379.849ZM336.899 326.421C336.846 329.551 336.726 332.997 336.531 336.766C336.531 340.339 336.508 343.687 336.455 346.817C336.403 349.946 336.282 352.098 336.087 353.294C336.087 354.882 336.011 355.897 335.861 356.349C335.71 356.793 335.44 357.018 335.041 357.018C334.349 357.116 333.454 357.191 332.363 357.244C331.272 357.297 329.978 357.319 328.488 357.319C327.096 357.319 325.96 357.297 325.065 357.244C324.17 357.191 323.478 357.116 322.981 357.018C322.68 356.424 322.56 354.558 322.613 351.436C322.665 348.306 322.936 344.311 323.433 339.451C323.433 338.857 323.455 337.668 323.508 335.878C323.56 334.095 323.681 332.207 323.876 330.22C323.876 328.34 323.899 326.594 323.952 325.007C324.004 323.42 324.125 322.329 324.32 321.734V315.926H327.593C331.069 315.829 333.401 315.776 334.59 315.776H336.523C336.719 315.874 336.846 316.22 336.892 316.814C336.944 317.408 336.967 318.454 336.967 319.944C336.967 321.132 336.944 323.292 336.892 326.421H336.899ZM336.824 280.943C336.621 285.51 336.5 289.407 336.455 292.627C336.403 295.854 336.38 297.517 336.38 297.615C336.177 297.818 335.537 297.938 334.447 297.983C333.356 298.036 331.964 298.059 330.279 298.059L324.32 298.503L324.471 292.544C324.666 290.761 324.794 288.248 324.839 285.028C324.892 281.809 324.915 278.649 324.915 275.572V264.851L329.383 264.55C330.572 264.452 331.768 264.4 332.957 264.4C334.146 264.4 334.988 264.302 335.485 264.099H336.974L336.824 280.921V280.943ZM362.877 345.553C362.877 349.329 362.824 351.609 362.726 352.399L362.425 355.077H358.258C356.475 355.077 355.226 355.025 354.534 354.927C353.841 354.829 353.443 354.626 353.345 354.332C353.044 354.137 352.946 351.902 353.044 347.629C353.044 345.846 353.119 343.138 353.27 339.519C353.42 335.893 353.593 332.199 353.789 328.43C353.887 324.759 353.984 321.659 354.09 319.124C354.188 316.596 354.24 315.227 354.24 315.031C354.541 314.73 356.023 314.587 358.709 314.587H362.726L362.877 332.304V345.553ZM363.178 268.432C363.178 270.02 363.125 272.374 363.027 275.504C362.93 278.634 362.877 281.929 362.877 285.405V297.163H353.052L353.495 287.639C353.495 284.758 353.548 281.756 353.646 278.634C353.744 275.504 353.796 272.856 353.796 270.667V263.226H363.622L363.178 268.44V268.432Z" fill="#053793"/>
<path d="M300.644 314.211C299.846 310.991 299.004 308.132 298.116 305.65C297.221 303.167 296.476 301.925 295.882 301.925C295.287 302.023 294.414 302.272 293.278 302.67C292.135 303.069 290.946 303.49 289.705 303.934C288.464 304.378 287.297 304.829 286.207 305.273C285.116 305.717 284.273 306.093 283.679 306.387V308.17C283.777 308.569 283.905 309.065 284.047 309.659C284.198 310.254 284.273 310.803 284.273 311.299L284.574 312.789L282.934 313.09C281.745 313.09 280.474 313.113 279.135 313.165C277.796 313.218 276.577 313.338 275.486 313.534C274.794 313.737 274.147 313.835 273.553 313.835C272.958 313.835 272.311 313.887 271.619 313.985C271.416 313.79 271.393 313.594 271.544 313.391C271.694 313.195 271.912 312.849 272.213 312.345C272.906 311.157 274.094 309.268 275.787 306.688C277.472 304.107 279.458 300.586 281.745 296.118C284.025 291.852 286.086 287.857 287.922 284.133C289.758 280.409 291.473 276.963 293.06 273.789C295.046 269.719 295.543 267.687 294.55 267.687C294.55 267.589 294.399 267.462 294.106 267.319C293.805 267.168 293.512 266.995 293.211 266.8L291.872 265.904C291.179 265.408 290.329 264.813 289.344 264.121C288.351 263.429 287.41 262.782 286.515 262.188L283.686 259.953L282.791 260.999C282.588 261.3 282.197 261.894 281.602 262.782C281.008 263.677 280.512 264.716 280.113 265.912C279.022 267.695 277.856 269.636 276.615 271.72C275.373 273.804 274.011 275.835 272.522 277.821L270.882 279.755H268.204C266.315 279.755 265.525 279.604 265.819 279.311C265.916 279.01 266.315 278.265 267.007 277.076C267.699 275.888 268.542 274.496 269.535 272.908C270.227 271.818 271.296 270.027 272.733 267.552C274.169 265.069 275.636 262.444 277.126 259.66C278.616 256.884 279.932 254.251 281.068 251.768C282.204 249.286 282.829 247.548 282.926 246.555C282.926 246.058 282.234 245.343 280.843 244.395C279.451 243.455 277.886 242.537 276.156 241.642C274.418 240.747 272.755 239.957 271.168 239.257C269.58 238.565 268.535 238.166 268.038 238.068L267.594 238.512C267.391 239.107 267.15 239.558 266.849 239.851C265.458 242.928 263.772 246.547 261.786 250.722C259.8 254.89 257.521 259.653 254.94 265.017C252.36 270.373 250.178 274.819 248.387 278.34C246.604 281.861 245.213 284.366 244.219 285.856L243.324 287.195L245.852 289.429C246.649 290.325 247.319 291.017 247.861 291.513C248.402 292.01 249.027 292.386 249.719 292.627C250.411 292.875 251.231 292.973 252.179 292.928C253.119 292.875 254.436 292.807 256.121 292.702C258.107 292.506 259.62 292.356 260.665 292.258C261.711 292.16 262.471 292.138 262.975 292.183C263.471 292.236 263.742 292.333 263.795 292.484C263.848 292.634 263.817 292.853 263.72 293.153C263.517 293.552 262.975 294.447 262.08 295.832C261.184 297.223 259.898 299.059 258.205 301.339C256.422 303.724 254.654 306.327 252.924 309.155C251.186 311.984 249.125 314.79 246.747 317.566L245.852 318.612L246.898 320.252C247.492 321.147 248.086 322.336 248.681 323.826C249.275 325.315 249.817 327 250.321 328.889L250.915 331.868L253.15 331.424C253.744 331.424 254.737 331.349 256.129 331.198C257.521 331.048 258.807 330.875 260.003 330.679C261.29 330.582 262.508 330.454 263.652 330.311C264.788 330.16 265.563 330.085 265.962 330.085H267.602V346.313C267.602 351.669 267.624 356.416 267.677 360.531C267.73 364.647 267.903 368.198 268.196 371.177C268.392 373.562 268.565 375.623 268.715 377.353C268.866 379.084 268.941 380.009 268.941 380.107C268.941 380.302 269.535 380.43 270.724 380.476C271.912 380.528 273.899 380.551 276.682 380.551C278.766 380.453 280.602 380.348 282.189 380.25C283.777 380.152 284.619 380.099 284.717 380.099C284.717 380.002 284.694 379.279 284.642 377.94C284.589 376.601 284.469 374.938 284.273 372.952C284.175 370.868 284.047 367.964 283.905 364.24C283.754 360.516 283.581 356.777 283.385 353.001C283.288 349.329 283.16 345.703 283.017 342.13C282.866 338.556 282.693 335.878 282.498 334.087C282.498 332.402 282.475 331.01 282.422 329.919C282.37 328.829 282.347 328.182 282.347 327.986H283.167C283.611 327.986 284.138 327.933 284.732 327.836H286.966L287.862 330.514C288.163 331.409 288.433 332.101 288.682 332.598C288.93 333.094 289.103 333.44 289.201 333.643C289.396 333.741 290.39 333.621 292.18 333.275C293.963 332.929 295.949 332.357 298.138 331.559C299.034 331.259 299.921 331.018 300.817 330.815C301.712 330.619 302.404 330.423 302.901 330.22C303.593 330.22 303.939 330.025 303.939 329.626C303.841 328.535 303.465 326.496 302.825 323.525C302.178 320.546 301.464 317.446 300.666 314.218L300.644 314.211Z" fill="#053793"/>
<path d="M300.201 353.444C299.9 351.36 299.606 349.502 299.305 347.862C299.004 346.222 298.862 345.056 298.862 344.364C298.862 343.468 298.636 342.949 298.192 342.799C297.748 342.648 296.379 342.724 294.099 343.025C293.407 343.025 292.535 343.047 291.496 343.1C290.451 343.152 289.533 343.175 288.743 343.175C287.75 343.378 287.027 343.499 286.584 343.544C286.14 343.596 285.914 343.717 285.914 343.912C285.914 344.01 285.989 344.484 286.14 345.327C286.29 346.169 286.411 347.087 286.508 348.08C287.599 353.241 288.495 358.206 289.187 362.969C289.382 363.864 289.555 364.684 289.706 365.429C289.856 366.174 289.977 366.595 290.074 366.693C290.27 366.896 290.894 366.918 291.933 366.768C292.971 366.617 294.242 366.399 295.732 366.098L300.795 365.354L301.096 362.969C301.096 362.171 300.968 360.885 300.727 359.094C300.479 357.311 300.306 355.423 300.208 353.437L300.201 353.444Z" fill="#053793"/>
<path d="M261.643 344.733C260.951 344.289 259.612 343.913 257.626 343.619C256.633 343.318 255.489 343.077 254.203 342.874C252.909 342.679 251.818 342.43 250.93 342.13C249.342 341.633 248.349 341.385 247.951 341.385C247.552 341.385 247.356 341.535 247.356 341.829L238.389 370.68L258.212 377.255L260.003 363.721C260.033 363.541 260.063 363.368 260.086 363.187C260.334 361.547 260.605 360.133 260.906 358.944C261.004 357.552 261.177 356.138 261.425 354.701C261.673 353.264 261.793 352.098 261.793 351.203C261.891 350.307 261.989 349.42 262.094 348.524C262.192 347.629 262.245 347.035 262.245 346.741C262.546 345.846 262.343 345.176 261.65 344.733H261.643Z" fill="#053793"/>
<path d="M414.983 291.806C415.78 291.611 417.533 291.039 420.272 290.091C423.003 289.151 425.854 288.135 428.833 287.037C431.812 285.946 434.513 284.877 436.943 283.839C439.373 282.793 440.742 282.034 441.036 281.529C440.938 281.033 440.69 280.266 440.291 279.22C439.892 278.174 439.471 277.083 439.027 275.947C438.583 274.811 438.109 273.735 437.613 272.75C437.116 271.757 436.718 271.11 436.424 270.816C436.274 270.816 436.063 270.877 435.822 270.959L397.521 280.19L401.193 297.163L414.697 291.866C414.795 291.844 414.893 291.829 414.99 291.806H414.983Z" fill="#053793"/>
<path d="M501.627 356.416C503.41 356.318 505.254 356.221 507.134 356.115C510.407 355.92 512.468 355.792 513.311 355.747C514.154 355.694 514.575 355.423 514.575 354.927C514.771 354.626 514.944 353.264 515.094 350.834C515.245 348.404 515.395 345.35 515.538 341.678C515.688 338.007 515.809 334.012 515.907 329.694C516.004 325.375 516.08 321.208 516.132 317.19C516.185 313.173 516.23 309.577 516.283 306.394C516.335 303.22 516.358 300.94 516.358 299.548C516.456 298.059 516.486 296.998 516.433 296.351C516.381 295.704 516.207 295.237 515.914 294.936C515.613 294.44 515.041 294.116 514.199 293.966C513.356 293.816 511.295 293.74 508.022 293.74C505.938 293.74 503.704 293.793 501.319 293.891C498.934 293.989 496.948 294.041 495.361 294.041C494.368 294.041 492.901 294.064 490.967 294.116C489.034 294.169 486.747 294.214 484.121 294.267C481.488 294.32 478.614 294.365 475.484 294.417C472.355 294.47 469.157 294.493 465.885 294.493H456.654C453.772 294.493 451.222 294.515 448.987 294.568C446.753 294.621 444.97 294.643 443.631 294.643H437.153C434.671 294.643 431.744 294.741 428.366 294.944H416.457V325.759L416.758 356.574L422.566 356.725C426.335 356.823 431.519 356.928 438.124 357.026C444.722 357.123 452.99 357.176 462.913 357.176C482.361 357.176 493.931 357.026 497.603 356.732C498.498 356.634 499.837 356.537 501.62 356.431L501.627 356.416ZM435.227 306.695L456.518 306.996H483.466C484.956 306.801 486.641 306.695 488.53 306.695C490.418 306.695 491.855 306.643 492.848 306.545H496.865V312.353L474.98 312.797C450.763 312.894 437.808 312.894 436.123 312.797C435.822 312.601 435.604 312.33 435.453 311.977C435.303 311.63 435.227 310.863 435.227 309.667V306.688V306.695ZM435.077 330.815C435.175 330.717 435.227 330.371 435.227 329.777V325.902L445.948 325.752C448.927 325.556 452.102 325.383 455.473 325.233C458.843 325.082 461.574 324.962 463.658 324.864C468.819 324.668 473.754 324.465 478.471 324.27C483.181 324.074 487.326 323.969 490.899 323.969L496.707 323.668L497.151 327.241C497.151 328.136 497.174 328.934 497.226 329.626C497.279 330.318 497.249 330.717 497.151 330.815C497.053 330.815 496.158 330.837 494.473 330.89C492.78 330.943 490.553 330.988 487.77 331.04C484.994 331.093 481.744 331.138 478.02 331.191C474.296 331.244 470.256 331.266 465.885 331.266C458.738 331.364 453.005 331.439 448.687 331.492C444.368 331.544 441.314 331.514 439.531 331.417C436.153 331.319 434.671 331.116 435.062 330.822L435.077 330.815ZM480.186 346.44C473.536 346.44 466.938 346.388 460.385 346.29C453.832 346.192 447.235 345.944 440.584 345.545L435.077 345.395V342.416L445.053 341.972C446.542 341.972 448.348 341.949 450.485 341.896C452.621 341.844 454.953 341.799 457.481 341.746C460.009 341.693 462.62 341.648 465.298 341.596C467.976 341.543 470.609 341.52 473.19 341.52C478.253 341.422 482.767 341.325 486.739 341.219C490.704 341.122 493.141 341.069 494.037 341.069H497.166L497.317 343.597C497.512 344.394 497.618 344.936 497.618 345.237V345.982C497.414 346.185 495.684 346.283 492.404 346.283C489.124 346.283 485.054 346.335 480.194 346.433L480.186 346.44Z" fill="#053793"/>
<path d="M526.041 280.492C525.349 280.296 524.498 280.101 523.513 279.897C522.422 279.8 521.03 279.551 519.345 279.153C517.652 278.761 516.072 278.355 514.583 277.964C511.009 276.873 507.586 275.654 504.314 274.315C501.041 272.976 498.107 271.509 495.527 269.922C495.128 269.726 494.631 269.478 494.037 269.177C493.443 268.876 492.848 268.68 492.254 268.582L490.471 267.838L491.81 266.055C492.705 265.062 493.074 264.339 492.923 263.896C492.773 263.452 491.855 262.782 490.17 261.887C489.576 261.39 489.057 261.044 488.605 260.841C488.161 260.645 488.033 260.54 488.237 260.54C488.733 260.442 489.576 260.39 490.764 260.39C491.562 260.292 492.48 260.217 493.518 260.164C494.564 260.111 495.677 260.089 496.866 260.089C499.25 259.893 501.056 259.788 502.297 259.788C503.539 259.788 504.434 259.886 504.976 260.089C505.517 260.292 505.773 260.638 505.72 261.134C505.668 261.631 505.495 262.323 505.201 263.218C504.705 264.61 504.457 265.505 504.457 265.897C504.825 266.265 506.774 266.732 510.28 267.273L525.221 270.809V254.695C525.243 254.507 525.273 254.326 525.296 254.13C525.597 251.851 525.642 250.113 525.446 248.917C525.446 248.119 525.371 247.63 525.221 247.427C525.07 247.232 524.799 247.126 524.401 247.126C517.75 247.126 511.077 247.051 504.374 246.901C497.671 246.75 490.998 246.577 484.347 246.381C482.263 246.284 480.48 246.186 478.99 246.08C477.501 245.983 476.606 245.93 476.312 245.93C475.718 245.734 475.665 245.087 476.162 243.997C476.756 242.605 477.004 241.762 476.907 241.469C476.809 241.168 476.26 240.822 475.266 240.423C474.672 240.227 473.927 240.024 473.032 239.829C472.137 239.633 471.392 239.43 470.798 239.234C469.707 239.137 468.488 238.888 467.149 238.49C465.81 238.098 464.546 237.594 463.35 237C462.951 237 461.86 238.189 460.077 240.574C459.28 241.664 458.362 242.981 457.324 244.516C456.278 246.058 455.315 247.42 454.42 248.608C453.727 249.797 452.727 251.136 451.44 252.626C450.146 254.115 449.01 255.454 448.017 256.643C446.926 257.734 446.009 258.674 445.264 259.472C444.519 260.269 444.15 260.766 444.15 260.961C444.948 261.759 445.663 262.602 446.31 263.489C446.957 264.385 447.573 265.325 448.168 266.318C451.147 269.591 452.734 271.231 452.93 271.231C454.119 270.93 455.533 270.185 457.173 268.996C458.813 267.808 460.574 266.371 462.454 264.678L466.472 260.661L472.573 260.51C473.965 260.209 475.402 260.164 476.891 260.36C477.689 260.36 478.178 260.412 478.381 260.51C478.283 260.909 477.862 261.578 477.117 262.519C476.372 263.467 475.424 264.527 474.288 265.716C473.145 266.905 471.881 268.146 470.489 269.44C469.097 270.734 467.713 271.968 466.321 273.164C462.153 276.835 457.391 279.77 452.027 281.951C450.936 282.35 450.139 282.719 449.642 283.065C449.146 283.411 448.845 283.787 448.747 284.178C448.649 284.577 448.725 285.126 448.973 285.818C449.221 286.51 449.545 287.458 449.943 288.647C450.741 291.032 451.282 292.469 451.583 292.965C451.884 293.462 452.328 293.657 452.922 293.56C453.517 293.56 454.435 293.387 455.676 293.041C456.917 292.694 458.332 292.273 459.919 291.777C461.506 291.28 463.116 290.708 464.757 290.061C466.397 289.414 467.856 288.797 469.15 288.203C471.234 287.112 473.341 285.773 475.477 284.186C477.614 282.598 479.472 281.109 481.059 279.717L482.549 278.378L484.189 279.717C485.378 280.71 486.89 281.801 488.733 282.989C490.569 284.178 492.329 285.171 494.022 285.969C495.609 286.864 497.219 287.586 498.859 288.128C500.499 288.677 502.756 289.294 505.63 289.986C506.917 290.287 508.579 290.731 510.618 291.325C512.649 291.92 514.56 292.416 516.351 292.815C519.623 293.808 522.008 294.304 523.498 294.304C524.491 294.304 524.987 293.958 524.987 293.259C525.183 292.461 525.409 291.521 525.657 290.43C525.905 289.339 526.154 288.218 526.402 287.082C526.65 285.946 526.846 284.825 526.996 283.734C527.147 282.643 527.222 281.748 527.222 281.056C527.124 280.86 526.725 280.665 526.033 280.462L526.041 280.492Z" fill="#053793"/>
<path d="M440.26 252.295L415.577 242.229L406.346 256.523L435.017 263.226L440.26 252.295Z" fill="#053793"/>
<path d="M476.943 370.936L513.612 385.584L520.518 374.908L483.812 357.312L476.943 370.936Z" fill="#053793"/>
<path d="M413.35 375.773L417.051 387.931L454.171 371.229L448.19 357.198L413.35 375.773Z" fill="#053793"/>
<defs>
<filter id="filter0_d_208_1496" x="21.6055" y="33" width="751.388" height="567.663" filterUnits="userSpaceOnUse" color-interpolation-filters="sRGB">
<feFlood flood-opacity="0" result="BackgroundImageFix"/>
<feColorMatrix in="SourceAlpha" type="matrix" values="0 0 0 0 0 0 0 0 0 0 0 0 0 0 0 0 0 0 127 0" result="hardAlpha"/>
<feOffset dx="10.9" dy="16.7"/>
<feColorMatrix type="matrix" values="0 0 0 0 0.529412 0 0 0 0 0.27451 0 0 0 0 0.137255 0 0 0 1 0"/>
<feBlend mode="normal" in2="BackgroundImageFix" result="effect1_dropShadow_208_1496"/>
<feBlend mode="normal" in="SourceGraphic" in2="effect1_dropShadow_208_1496" result="shape"/>
</filter>
<clipPath id="clip0_208_1496">
<rect width="423.273" height="107.152" fill="white" transform="translate(183.564 126.119)"/>
</clipPath>
</defs>
</svg>
