<svg width="238" height="390" viewBox="0 0 238 390" fill="none" xmlns="http://www.w3.org/2000/svg">
<path fill-rule="evenodd" clip-rule="evenodd" d="M158.628 9.95408C158.628 13.8566 159.514 14.4774 159.692 16.5174C157.653 17.0496 150.474 24.4111 148.081 26.8946C147.46 27.5154 147.017 27.9589 146.397 28.5797L141.788 33.4579C140.99 34.1674 140.902 34.5222 140.193 35.3205C139.129 36.5622 138.243 37.2717 137.179 38.6021C136.647 39.223 136.204 39.5777 135.672 40.1986L132.659 43.6576C132.038 44.3672 131.684 44.6333 131.152 45.3428L126.721 50.5757C126.1 51.2853 125.834 51.6401 125.302 52.2609C124.682 52.9705 124.416 53.2366 123.884 53.9461C123.353 54.567 122.909 55.1878 122.289 55.8087C121.225 56.9617 111.21 68.5806 110.855 69.9997H110.324C110.324 66.4519 107.487 59.8886 105.272 57.2278C103.676 55.2765 102.524 54.567 100.131 53.5026C92.2427 50.0436 83.5568 52.3496 78.2389 59.0903C72.3006 66.718 72.3892 70.3544 72.3892 80.1994C72.3892 90.0444 76.5549 95.366 76.5549 97.2286L76.289 100.599C70.8825 100.599 64.6783 100.244 61.2216 104.058C58.2081 107.251 59.1831 112.307 61.133 115.854L62.6397 118.604C64.1465 121.176 65.6532 122.95 67.2486 125.256C65.6532 128.271 64.3237 131.198 62.6397 134.214C60.6898 137.85 58.2967 141.221 56.0809 144.68C49.8767 154.347 44.6475 163.749 42.2544 175.279C41.8112 177.23 41.4567 178.827 41.1022 180.867C40.4818 184.06 39.8613 189.913 40.0386 192.042C40.3931 195.412 40.3045 198.251 40.7476 201.532C40.8363 202.419 41.1908 203.572 41.1908 204.725C38.975 202.242 38.7977 197.985 37.9114 194.969C36.5819 190.091 33.5685 185.124 27.896 185.922C21.6918 186.809 21.2487 192.042 20.5396 195.058C20.2737 196.565 20.2737 197.098 20.2737 197.985C19.6533 197.985 18.5897 197.63 17.8806 197.452C15.6648 197.098 12.9173 196.654 8.13114 198.605C4.23134 200.291 1.48374 203.484 0.420162 207.652C-1.35247 214.57 2.7246 220.513 8.13114 224.327C18.0579 231.245 21.5145 229.382 22.7554 230.89C22.7554 230.89 23.4645 232.132 23.5531 232.22C27.3643 238.695 32.0617 244.815 37.2024 250.225C39.95 253.063 42.5203 256.345 45.2679 259.094C45.977 259.804 46.686 260.425 47.395 261.223L51.4721 265.746C51.1176 267.254 48.37 271.423 47.4837 273.019L43.1407 280.204C42.7862 280.824 42.343 281.445 42.0771 281.977L38.975 287.565C38.266 288.896 37.6456 289.871 36.8479 291.202C33.4799 297.233 29.3141 302.909 25.503 308.674L19.8306 317.455C15.399 324.816 13.9808 325.526 29.6687 329.606C37.4683 331.646 45.7996 332.888 53.8651 334.218C55.0174 334.395 55.6378 334.573 56.8786 334.573C56.6128 337.411 55.7265 340.427 55.0174 343.176C54.3083 346.014 53.5993 348.852 52.8016 351.691C52.0039 354.529 51.1176 357.101 50.4085 360.028C49.5222 363.576 48.7245 367.301 48.7245 371.203C48.7245 375.106 49.8767 379.54 51.3835 381.846C52.5357 383.62 52.8902 383.975 54.5742 385.217C62.1079 390.893 69.9075 390.538 76.9981 384.507C76.9981 384.507 77.0867 384.507 77.1754 384.419L78.0617 383.709C78.6821 383.177 78.948 382.645 79.4798 382.024C86.0385 374.662 90.736 361.358 93.0404 352.134C93.4836 350.36 93.6609 348.232 94.104 346.369C97.0289 346.369 105.626 348.764 115.287 348.764L126.011 348.498C127.518 348.409 128.936 347.877 130.177 347.699C130.177 351.691 133.368 371.558 134.609 375.194C135.318 377.234 136.027 378.831 137.179 380.427C138.42 382.024 139.395 383.443 140.99 384.685C141.788 385.305 142.408 385.749 143.295 386.281C149.942 389.829 153.487 390.893 160.578 386.991C165.275 384.419 167.491 379.984 168.998 374.928C171.568 366.414 169.707 349.296 169.707 340.515V336.081C171.568 336.081 182.825 334.129 185.218 333.774C187.611 333.42 198.246 331.823 198.246 328.985L196.828 322.067C196.297 319.584 196.031 317.544 195.499 314.971C194.169 308.142 192.219 301.313 190.89 294.483C190.624 293.33 190.447 292.177 190.092 291.024C189.472 288.363 186.458 275.769 186.458 273.463C187.876 273.108 192.929 269.028 194.169 268.141L210.566 255.192C212.25 253.595 214.466 252.265 215.707 250.402L219.873 250.669C237.51 250.669 241.233 234.26 234.408 225.125C231.483 221.134 229.002 221.4 222.443 221.4C224.304 213.329 216.239 207.297 207.198 215.28C206.755 215.723 206.401 215.812 206.046 216.255C205.603 216.699 205.514 217.054 204.982 217.497C204.362 218.207 203.653 219.005 203.033 219.714C202.324 220.601 201.969 221.488 201.171 222.287C199.842 223.706 197.892 224.947 196.297 226.012L200.196 218.207C202.767 212.353 204.894 206.854 205.78 200.291C207.198 189.825 206.401 179.714 206.489 169.337L205.603 151.953C205.426 150.533 205.248 147.784 205.16 146.365C205.16 145.034 204.982 144.946 204.894 143.793C204.894 142.817 204.894 141.664 204.894 140.6C204.894 136.165 205.692 138.205 205.692 135.633C205.692 133.061 204.451 133.593 204.096 129.336C203.919 127.03 203.653 124.458 203.564 121.974C203.564 117.185 201.703 117.717 206.223 115.499C208.439 114.435 210.123 112.839 212.073 111.331C217.302 107.251 221.911 99.6233 221.911 92.8826C221.911 86.1419 214.555 72.4831 205.692 72.4831C196.828 72.4831 195.056 72.9266 189.472 76.6517C188.586 77.1839 187.965 77.6273 187.079 78.2482C186.193 78.9577 185.661 79.3125 184.774 80.1107C183.977 80.909 183.445 81.3524 182.736 82.2394C182.027 83.1263 181.761 84.102 180.52 84.1906C180.343 83.5698 180.343 83.8359 179.988 83.4811C179.634 83.215 179.368 83.1263 179.013 82.9489C179.013 80.4655 178.393 77.716 178.038 75.2326C176.975 67.4275 176.266 59.4451 175.557 51.5514L172.632 23.879C172.455 22.6373 172.011 21.3956 171.923 20.1538C174.936 19.4443 178.747 15.5418 178.747 12.2601C178.747 8.97845 178.127 5.51939 175.645 3.03597C169.352 -3.34997 158.539 0.996019 158.539 9.95408H158.628Z" fill="#854322"/>
<path fill-rule="evenodd" clip-rule="evenodd" d="M106.513 156.21C105.183 156.653 104.297 157.363 102.967 157.806C99.3333 159.048 95.079 160.112 91.2678 160.822C81.1638 162.684 65.3873 163.128 57.5877 166.144C53.7766 167.563 51.5608 169.159 48.8132 171.997C48.3701 172.441 48.0155 172.707 47.661 173.15L46.686 174.392C46.686 174.392 46.5974 174.569 46.5088 174.569C45.6224 176.521 44.1157 185.567 44.0271 188.14C43.4953 198.073 44.9134 207.297 49.5223 215.723C50.4972 217.586 51.6494 219.271 52.713 220.956C54.8402 224.238 53.9539 222.996 56.3469 225.657C61.6648 231.688 67.6918 236.211 75.1368 240.114C84.4432 244.992 101.638 249.693 112.894 251.999C116.262 252.708 125.125 252.088 129.202 251.999C151.183 251.644 162.971 249.161 180.431 236.655C183.711 234.26 187.079 231.954 189.295 229.027C190.624 227.342 195.056 220.956 195.587 218.65C195.322 212.175 190.979 202.331 188.054 198.162C181.229 188.317 175.114 184.592 165.541 178.827C160.755 175.988 159.426 175.811 156.412 174.037C150.917 170.933 148.524 170.135 143.295 166.232C141.965 165.257 140.547 163.926 139.749 162.773C138.065 161.265 136.47 161.443 135.141 157.185C133.722 152.839 135.406 149.469 135.141 147.429L137.002 133.948C136.47 132.706 132.836 129.247 131.329 126.941C130.089 127.207 121.314 132.44 119.896 133.416C120.073 139.269 122.112 151.42 114.578 155.146C111.21 156.831 109.969 155.944 106.601 155.855L106.513 156.21Z" fill="#FAD9D0"/>
<path fill-rule="evenodd" clip-rule="evenodd" d="M22.4009 226.189C25.5916 226.899 24.0849 226.721 25.6803 228.85C26.6552 230.092 27.3643 230.979 28.3392 232.398C35.2525 242.509 37.4683 244.637 45.002 252.62C46.8633 254.571 48.9018 257.321 50.8517 259.094C53.2448 261.312 54.8401 263.174 56.9673 265.214C60.158 268.23 61.0444 267.609 60.0694 273.463C59.449 277.011 58.9172 280.47 58.2968 284.017C55.7264 300.248 56.3469 312.488 60.7785 327.832C61.3103 329.783 62.0193 330.759 61.3103 332.799C60.7785 334.395 60.6012 336.258 60.2467 338.032C58.3854 347.433 53.6879 361.092 52.8902 367.921C55.0174 368.365 60.7785 373.509 70.2621 376.081C72.3006 376.613 75.4914 377.057 77.0867 378.033L78.3276 376.525C78.7708 375.904 79.0366 375.46 79.4798 374.751C83.9114 367.389 89.8497 352.932 89.8497 344.772C87.2794 343.353 84.0887 343.797 84.3545 341.402C88.0771 339.628 110.59 346.635 126.455 343.974C130.177 343.353 133.279 341.491 133.9 345.925C134.697 351.336 137.002 373.243 139.306 375.638C139.572 374.751 141.168 375.017 142.94 375.017C149.41 374.928 157.21 372.622 162.616 369.163C165.187 367.567 164.921 368.897 165.453 367.478L165.807 368.188C167.491 364.108 164.832 339.096 165.63 331.468C165.807 329.872 166.782 328.187 167.225 326.679C167.757 324.905 168.2 323.397 168.643 321.535C172.189 306.634 173.961 292.443 173.961 276.301C174.848 275.237 182.647 270.979 184.597 269.738C188.054 267.52 191.422 265.037 194.701 262.553C195.587 261.844 213.137 248.008 213.846 246.855C212.428 245.79 209.414 238.961 208.35 236.832C207.376 234.881 203.387 227.697 203.476 226.1C202.678 226.455 201.88 227.253 200.994 227.874L193.106 233.373C191.422 234.438 189.295 235.857 187.877 237.01C184.597 239.671 187.167 238.074 182.736 240.824C179.102 243.041 175.291 245.347 171.48 247.387C169.441 248.451 164.389 251.289 162.262 251.555C161.11 251.733 159.692 252.088 158.805 252.531L159.692 252.797C161.642 259.006 159.692 277.986 158.983 285.436C157.919 296.789 156.855 304.328 153.221 314.351C149.853 323.663 146.22 328.719 137.09 332.976C128.405 337.145 118.035 337.322 107.399 337.766C98.2697 338.209 86.3931 333.774 80.7207 329.606C77.1754 326.945 75.1368 324.462 72.8324 319.938C66.0964 306.545 66.8941 288.984 69.6417 274.704C70.4394 270.536 73.2756 257.941 74.5164 253.684C75.9345 248.983 75.58 250.757 77.0867 247.387C76.7322 246.855 75.3141 244.903 74.9596 244.549C74.5164 244.194 72.3893 243.13 71.6802 242.775C66.0078 239.759 58.1195 233.905 54.4856 229.382C53.0675 227.608 51.6494 225.48 50.2313 223.706C49.4336 222.73 48.8132 221.754 48.1041 220.867L41.0136 212.53C40.2159 211.555 39.5068 210.756 38.7978 209.781C38.1773 208.894 37.7342 207.209 36.8479 206.41C36.1389 207.475 30.7323 212.175 28.6051 215.28C27.3643 217.142 23.0213 224.06 22.4009 226.1V226.189Z" fill="#C6C7C2"/>
<path fill-rule="evenodd" clip-rule="evenodd" d="M158.894 252.531C155.969 252.797 136.736 266.722 131.329 267.254C130.798 270.181 130.975 273.729 130.443 276.833C130.177 278.43 128.936 279.583 127.43 278.341C126.366 277.543 127.873 277.897 124.239 276.124C125.302 278.43 126.543 280.292 126.721 283.485C127.075 292.177 118.566 292.443 113.958 284.017C113.426 283.042 112.717 281.179 112.274 280.647C101.815 296.168 94.9903 286.057 97.5607 279.76C99.7765 274.172 100.84 275.325 102.258 273.374C96.763 272.931 95.079 276.035 93.5722 274.172C92.42 272.842 93.2177 266.279 93.3063 264.061L89.2293 259.893C87.8998 258.385 86.5703 257.321 85.1522 255.901L77.264 247.564C75.7572 250.935 76.1117 249.161 74.6936 253.861C73.4528 258.119 70.6166 270.713 69.8189 274.882C67.0713 289.25 66.2736 306.812 73.0096 320.116C75.2254 324.639 77.3526 327.122 80.8978 329.783C86.5703 333.952 98.447 338.298 107.576 337.943C118.212 337.5 128.582 337.233 137.268 333.154C146.397 328.808 150.031 323.752 153.399 314.528C157.033 304.506 158.185 296.967 159.16 285.614C159.869 278.164 161.819 259.183 159.869 252.975L158.983 252.708L158.894 252.531Z" fill="#FAD9D0"/>
<path fill-rule="evenodd" clip-rule="evenodd" d="M99.6878 88.1819C95.6994 89.1575 92.5972 93.3261 89.9383 96.3417C88.5202 97.8495 87.2794 99.446 85.8612 101.22C85.2408 102.018 84.6204 102.728 83.9113 103.703C82.9364 104.945 82.7591 105.034 80.8978 104.768C77.6184 104.235 67.0713 104.502 64.6782 106.275C59.8921 109.912 68.4008 120.2 71.0597 123.482C72.5665 125.344 73.7187 126.852 73.0096 130.311C72.1233 134.48 70.5279 141.842 71.3256 146.276C71.8574 149.114 72.6551 150.8 76.1117 150.179C79.0366 149.647 85.5954 146.188 88.2543 144.502C95.1676 140.068 92.2427 142.019 98.7129 147.341C103.41 151.243 112.539 156.565 115.553 147.961C117.06 143.615 115.021 134.036 116.262 131.908C117.148 130.223 124.771 126.143 126.986 124.812C131.772 122.063 132.482 122.595 135.672 126.409C137.622 128.804 139.749 131.021 141.699 133.682C143.206 135.722 143.295 137.052 142.054 140.334C140.547 144.059 137.977 150.001 138.509 154.613C139.306 161.443 144.979 159.58 149.322 157.274C151.36 156.121 152.956 155.234 154.905 153.993C161.198 150.001 160.578 150.977 163.148 154.081L169.53 160.999C170.771 162.152 172.809 163.926 174.759 164.636C178.304 165.877 178.836 164.192 179.722 161.531C181.584 155.766 181.406 148.671 183.445 147.518C186.458 145.833 190.624 144.502 195.41 141.664C198.069 140.068 205.071 135.456 199.31 132.263C195.942 130.4 190.535 128.36 186.458 127.384C182.824 126.498 183.356 125.788 182.47 122.418C181.052 117.007 178.038 106.719 174.848 103.082C171.125 98.8251 169.796 101.042 164.832 106.098L160.223 110.444C158.894 111.952 157.298 113.548 155.969 115.145C154.196 117.362 153.665 117.983 149.676 117.894C147.194 117.894 144.624 116.919 142.32 116.298C136.204 114.79 126.809 112.573 120.516 111.42C112.894 110.089 111.919 111.42 109.526 104.679C108.108 100.688 106.335 95.8095 104.297 92.1731C103.233 90.3105 102.701 87.4723 99.7764 88.1819H99.6878Z" fill="#8DBBE4"/>
<path fill-rule="evenodd" clip-rule="evenodd" d="M76.0231 201.444C77.5299 204.725 75.58 205.79 83.4682 218.384C93.9268 235.058 112.628 244.992 133.457 237.719C141.877 234.792 153.31 226.987 158.717 220.335C159.692 219.182 160.844 218.207 161.641 216.965C163.326 214.482 161.907 215.368 165.364 214.748C170.327 213.861 173.961 211.643 176.975 207.83C177.95 206.677 178.659 205.612 179.545 204.37C180.254 203.395 181.85 201.266 180.343 199.847C178.57 198.162 177.241 200.557 176.798 201.355C176.088 202.597 174.936 204.016 174.139 204.991C170.15 210.136 165.187 211.909 156.146 211.023C140.813 209.426 122.909 200.113 94.8131 198.517C86.9248 198.073 79.9229 198.517 72.4778 196.565C66.0077 194.88 61.2216 192.219 58.2081 186.188C57.8536 185.479 56.8786 182.02 56.5241 181.842C55.2833 180.955 54.397 183.084 54.8401 185.656C56.081 192.486 60.4239 196.122 66.3623 198.694C71.1484 200.734 72.212 200.291 75.8459 201.444H76.0231Z" fill="#854322"/>
<path fill-rule="evenodd" clip-rule="evenodd" d="M141.168 40.376C146.751 40.0212 150.031 46.4072 146.042 50.3984C144.713 51.7288 141.522 53.1479 139.04 52.1723C137.268 51.4627 135.672 49.2454 135.406 46.8507C134.166 47.7376 133.102 49.4228 132.038 50.5758C131.329 51.2853 131.152 51.7288 130.443 52.4383C129.734 53.1479 129.38 53.5914 128.759 54.567C131.329 56.3409 131.595 61.7512 129.468 64.0572C127.164 66.5406 123.087 67.1615 119.985 65.0328C118.832 66.0085 113.514 72.5718 112.894 73.9909L113.869 75.9422C115.73 74.8778 118.655 69.6449 125.923 75.2326C126.189 72.8379 129.025 70.4431 131.95 70.5318C135.052 70.6205 137.179 72.8379 137.356 75.8535C138.065 76.4743 138.863 76.7404 139.661 77.45C140.547 78.2482 140.813 78.7804 141.611 79.756C145.511 77.716 146.397 76.563 152.069 78.6917C153.133 77.1839 156.146 76.2969 158.451 76.9178C160.578 77.4499 162.439 79.2238 162.794 81.2638C167.58 82.062 167.846 83.5698 169.618 85.6097C170.327 85.0776 170.771 84.5454 171.746 83.9246C172.898 83.215 173.784 83.3924 174.759 82.6829C175.025 81.6185 174.227 75.6761 173.784 74.6117C171.391 75.41 169.884 75.7648 167.669 74.523C166.25 73.7248 164.744 72.1283 164.301 70.0884C163.148 65.1215 168.023 62.6381 172.632 62.9042L171.48 51.1966C170.505 52.7931 169.796 56.6957 165.364 57.1391C158.717 57.6713 154.906 48.3584 162.528 44.8107C167.491 42.5047 169.53 45.4316 170.948 46.762C170.948 42.8594 170.15 37.5378 169.796 33.5466C169.353 29.2006 168.821 24.8546 168.289 20.5973C165.364 20.3313 165.098 19.6217 163.06 19.0009C157.919 22.5486 150.563 29.7328 146.308 34.6109C145.333 35.6753 144.89 36.2961 143.649 37.4491C142.674 38.4248 142.054 39.4004 141.079 40.376H141.168Z" fill="#E54F09"/>
<path fill-rule="evenodd" clip-rule="evenodd" d="M159.603 156.121C158.185 156.742 157.21 157.274 156.501 157.806C154.196 158.871 151.892 160.645 149.144 161.798C145.776 163.305 143.738 164.015 139.661 162.951C140.458 164.104 141.877 165.345 143.206 166.41C148.435 170.312 150.828 171.199 156.324 174.215C159.337 175.9 160.666 176.077 165.453 179.004C175.113 184.769 181.14 188.406 187.965 198.339C190.89 202.508 195.233 212.353 195.499 218.828C198.158 216.167 200.374 207.12 201.26 203.306C204.451 188.406 201.792 158.516 200.905 142.995C200.108 143.172 198.512 144.502 197.449 145.123C193.903 147.252 189.738 148.937 185.927 150.888C185.217 154.968 184.774 158.693 183.622 162.418C182.381 166.232 181.14 169.248 176.443 169.07C170.948 168.893 165.453 163.305 162.173 159.225C161.464 158.25 160.489 156.919 159.514 156.121H159.603Z" fill="#C6C7C2"/>
<path fill-rule="evenodd" clip-rule="evenodd" d="M169.707 106.985C167.669 107.872 161.464 114.79 159.603 116.919C158.894 117.806 158.451 118.249 157.564 119.136C156.412 120.378 155.437 122.506 152.601 122.418C148.701 122.24 143.383 119.491 139.484 119.402C136.47 119.402 136.647 122.506 137.977 124.369C140.281 127.562 142.94 130.577 144.979 133.327C146.397 135.367 146.751 136.786 145.865 139.624C144.802 142.906 141.965 148.316 141.699 151.686C141.168 158.25 148.967 153.194 151.183 152.041C153.133 151.066 154.551 150.179 156.235 149.026C161.642 145.212 159.692 146.454 166.871 153.993C167.58 154.702 168.289 155.323 168.909 156.121C170.062 157.54 176.443 164.991 177.418 158.338C177.773 155.944 177.684 153.46 177.95 150.977C178.393 147.695 177.95 146.454 180.166 145.123C185.218 142.019 204.539 137.496 191.51 132.972C188.231 131.819 181.052 130.134 179.722 128.537C178.393 126.852 176.798 119.136 175.911 116.386C174.936 113.282 172.898 105.655 169.441 107.162L169.707 106.985Z" fill="#598BC6"/>
<path fill-rule="evenodd" clip-rule="evenodd" d="M82.0502 110.621C78.8594 110.621 72.6551 109.734 70.2621 111.242C70.4393 114.169 77.4413 122.329 79.1253 124.369C81.6956 127.65 76.555 135.278 77.9731 143.349C81.9615 143.083 91.5337 133.77 95.2563 136.52C95.6994 136.875 96.4085 137.673 96.8516 138.028L101.815 142.462C102.879 143.438 107.842 147.607 110.058 146.542C112.628 142.906 108.462 129.69 111.387 127.207C112.451 126.231 121.048 121.708 123.618 120.289L125.391 119.047C125.037 118.515 125.391 118.781 124.593 118.426C124.328 118.338 123.618 118.16 123.353 118.072C120.428 117.451 118.921 117.451 115.464 116.564C104.828 113.814 107.133 115.677 103.322 104.147C102.701 102.195 100.751 96.6077 99.8651 95.366C97.2062 95.366 92.7746 100.954 91.1792 102.994C90.2929 104.147 86.4817 109.025 85.3295 109.734C84.7091 110.089 82.8478 110.621 82.1388 110.621H82.0502Z" fill="#FFEA7C"/>
<path fill-rule="evenodd" clip-rule="evenodd" d="M82.0502 111.774C81.2525 111.774 80.2775 111.774 79.1253 111.686C76.4663 111.508 73.3642 111.42 71.5916 111.952C72.4779 114.524 76.8209 119.757 78.9481 122.418C79.3912 122.95 79.6571 123.305 79.923 123.659C81.607 125.788 80.898 128.804 79.923 132.44C79.2139 135.278 78.5049 138.56 78.7708 141.93C80.1003 141.398 81.9616 140.245 83.8228 139.092C88.1658 136.431 92.8632 133.504 95.6995 135.544C96.054 135.81 96.4971 136.254 96.8517 136.609C97.0289 136.786 97.2062 136.963 97.3835 137.141L102.347 141.575C102.967 142.108 105.094 143.97 107.133 144.946C107.931 145.301 108.64 145.567 109.083 145.567C109.881 143.97 109.526 140.334 109.26 136.786C108.906 132.351 108.462 128.005 110.412 126.32C111.21 125.611 115.464 123.305 118.921 121.353C120.516 120.466 121.934 119.757 122.644 119.313H122.732C121.669 118.959 120.782 118.87 119.896 118.692C118.389 118.426 116.971 118.249 114.755 117.628C113.603 117.362 112.54 117.096 111.653 116.83C108.374 116.032 106.778 115.677 105.626 114.435C104.563 113.282 104.031 111.774 103.145 108.759C102.79 107.606 102.347 106.275 101.726 104.413C101.372 103.437 100.751 101.486 100.131 99.8007C99.6879 98.559 99.1561 97.3173 98.8016 96.6078C97.9153 96.9625 96.6744 98.0268 95.5222 99.1799C93.9268 100.776 92.4201 102.639 91.711 103.615C91.1792 104.324 89.4066 106.63 87.8999 108.315C86.9249 109.38 86.1272 110.267 85.5068 110.621C85.0636 110.887 84.3546 111.153 83.6455 111.331C82.9365 111.508 82.1388 111.686 81.6956 111.686L82.0502 111.774ZM79.214 109.38C80.1889 109.38 81.1638 109.468 81.9615 109.468C82.7592 109.468 82.7592 109.38 83.291 109.202C83.8228 109.025 84.3546 108.847 84.5319 108.759C84.7978 108.581 85.5068 107.872 86.3045 106.896C87.8112 105.211 89.4953 102.994 90.0271 102.284C90.8247 101.22 92.3315 99.2685 94.0155 97.5834C95.8768 95.7208 97.9153 94.213 99.5993 94.213H100.131L100.486 94.6565C101.017 95.366 101.815 97.1399 102.524 99.0912C103.233 100.954 103.854 102.816 104.208 103.792C104.74 105.388 105.183 106.985 105.626 108.227C106.424 110.887 106.867 112.218 107.487 112.927C108.197 113.637 109.615 113.992 112.362 114.701C113.249 114.879 114.312 115.145 115.464 115.499C117.592 116.032 118.921 116.298 120.339 116.475C121.225 116.653 122.2 116.741 123.264 117.007C123.441 117.007 123.796 117.096 124.15 117.185C124.416 117.185 124.682 117.362 124.859 117.451C125.037 117.539 125.125 117.628 125.214 117.628C125.391 117.628 125.48 117.717 125.568 117.894C125.834 118.072 125.834 118.249 125.923 118.426L126.543 119.402L125.568 120.112L123.796 121.353C122.909 121.885 121.491 122.595 119.896 123.482C116.528 125.344 112.451 127.562 111.742 128.094C110.767 128.981 111.033 132.706 111.387 136.609C111.742 140.777 112.096 145.123 110.59 147.252L110.412 147.518L110.146 147.695C108.906 148.316 107.399 147.873 105.892 147.163C103.676 146.01 101.283 144.059 100.574 143.438L95.6108 139.003C95.4336 138.826 95.1677 138.56 94.9904 138.382C94.7245 138.028 94.37 137.762 94.1041 137.584C92.5087 136.431 88.4317 138.915 84.7978 141.132C82.0502 142.817 79.4798 144.414 77.5299 144.591H76.4663L76.2891 143.615C75.5801 139.358 76.555 135.367 77.3527 131.996C78.0617 128.981 78.6822 126.409 77.7072 125.256C77.5299 124.99 77.1754 124.546 76.7323 124.014C74.162 120.821 68.7554 114.258 68.6667 111.42V110.71L69.1986 110.355C71.3257 109.114 75.4028 109.291 78.7708 109.468L79.214 109.38Z" fill="#598BC6"/>
<path fill-rule="evenodd" clip-rule="evenodd" d="M176.088 98.3817C177.152 100.067 178.216 100.51 179.9 103.526C183.179 109.025 184.597 116.12 186.458 122.329C186.99 124.192 188.408 123.659 193.372 125.433C195.322 126.143 198.069 127.562 199.753 128.005C199.93 121.353 197.626 118.072 201.969 114.169C205.426 111.154 206.578 111.065 211.098 106.541C217.568 100.156 220.404 92.8827 214.289 82.949C208.705 73.9022 198.955 75.5874 191.245 80.3769C189.472 81.4412 187.788 82.7716 186.636 84.102C185.838 84.989 183.356 87.6498 183.268 88.8915C183.268 91.8184 183.445 93.2375 181.761 95.4548C180.609 96.8739 178.659 98.1156 176 98.4704L176.088 98.3817Z" fill="#C6C7C2"/>
<path fill-rule="evenodd" clip-rule="evenodd" d="M139.218 121.353C139.129 123.127 140.281 123.837 141.079 124.901C143.117 127.473 147.549 132.617 148.258 135.19C149.588 140.068 142.94 149.026 143.561 153.283C146.397 153.017 153.931 148.139 156.767 146.276C160.046 144.148 161.198 143.704 165.01 148.582C165.807 149.647 167.225 151.332 168.2 152.219C170.062 153.815 172.898 158.161 175.379 158.959C175.823 155.944 175.823 152.662 176.266 149.558C176.62 146.72 176.266 147.163 177.595 145.567C178.57 144.414 178.747 143.704 180.077 142.906C182.381 141.487 193.017 138.028 193.992 136.165C192.751 135.101 186.99 133.416 184.774 132.795C180.609 131.553 178.836 131.464 177.329 127.739C175.38 122.95 173.873 111.597 170.682 109.025C168.643 109.291 160.489 119.047 158.185 121.619C155.437 124.635 154.374 125.078 149.144 123.837C146.663 123.216 141.434 121.442 139.218 121.442V121.353Z" fill="#FFEA7C"/>
<path fill-rule="evenodd" clip-rule="evenodd" d="M21.6918 322.599C30.2004 325.615 48.3699 329.783 57.4104 330.315C56.9672 328.098 56.1695 325.881 55.6378 323.663C52.2697 310.359 52.3584 296.434 54.5742 283.042C54.8401 281.534 56.9673 271.068 56.3468 270.092C56.081 269.738 54.0424 267.875 53.5106 267.52C52.2698 271.6 48.5472 278.43 46.4201 282.155C40.4817 293.064 36.9365 298.918 30.0232 309.206C28.4278 311.512 22.3122 320.382 21.6918 322.51V322.599Z" fill="#E54F09"/>
<path fill-rule="evenodd" clip-rule="evenodd" d="M99.0673 229.293C100.485 226.721 99.6878 227.076 102.347 223.883C106.247 219.182 113.958 215.989 121.048 216.078C132.57 216.078 140.104 220.69 146.485 226.012C148.878 224.859 157.121 217.054 157.919 215.191C150.562 214.659 145.599 213.151 139.04 211.289C118.921 205.612 101.283 202.064 79.4797 201.976C80.5433 205.878 85.2408 213.861 87.5452 217.32C89.6724 220.601 95.6993 227.963 99.0673 229.382V229.293Z" fill="#CC7F74"/>
<path fill-rule="evenodd" clip-rule="evenodd" d="M80.4547 100.776C81.607 100.688 81.4297 100.244 82.9365 98.4703L89.4952 90.8426C92.1542 87.8271 94.9904 84.1906 101.461 84.0132C100.308 81.2637 97.8266 76.1195 102.701 72.6604C104.208 71.5961 105.006 71.8622 106.513 71.1526C106.335 68.4031 104.829 64.3232 103.676 62.1059C99.6879 54.1235 87.9885 53.3252 80.8979 62.1059C76.7322 67.3388 75.9345 72.5717 76.4663 80.9089C76.7322 84.5454 77.1754 87.827 77.9731 91.1974C79.1253 95.6321 80.8979 94.5677 80.4547 100.688V100.776Z" fill="#C6C7C2"/>
<path fill-rule="evenodd" clip-rule="evenodd" d="M169.441 331.823C172.455 331.823 178.393 330.493 181.849 330.049C186.192 329.428 189.56 328.541 193.549 327.655C193.372 323.131 184.065 283.13 182.736 276.124L178.747 278.341C177.861 278.873 178.038 278.607 177.861 279.76C177.684 282.421 177.684 285.436 177.595 288.097C176.886 301.49 175.202 312.665 171.745 325.526C171.125 327.921 169.53 331.646 169.441 331.823Z" fill="#E54F09"/>
<path fill-rule="evenodd" clip-rule="evenodd" d="M46.5088 174.569C46.5088 174.569 46.5974 174.303 46.6861 174.392L47.661 173.15C48.1042 172.707 48.4587 172.441 48.8132 171.997C51.5608 169.159 53.7766 167.563 57.5878 166.144C65.3874 163.217 81.0752 162.684 91.2679 160.822C95.079 160.112 99.3334 159.048 102.967 157.806C104.297 157.363 105.183 156.653 106.513 156.21C105.36 155.589 103.588 154.968 102.436 154.436C101.106 153.815 99.9538 153.106 98.8016 152.307C97.0289 151.066 93.3951 148.227 92.686 146.72C91.5338 146.986 89.2293 148.671 87.9885 149.292C83.6455 151.686 76.4664 155.589 71.8575 153.638C64.3238 150.445 68.4895 136.342 68.7554 131.376C66.9828 134.125 65.476 137.584 62.8171 141.575C56.7015 150.888 48.5474 162.951 46.5975 174.569H46.5088Z" fill="#C6C7C2"/>
<path fill-rule="evenodd" clip-rule="evenodd" d="M22.4008 226.189C23.0212 224.238 27.3642 217.231 28.605 215.368C30.7322 212.264 36.1388 207.563 36.8478 206.499C36.7592 205.612 35.7842 204.016 35.4297 202.774C34.1002 198.783 34.0116 194.259 31.3527 191.155C30.4663 190.179 29.58 189.381 27.8074 189.913C26.5665 190.268 25.4143 191.244 24.9712 192.308C24.4394 193.461 24.2621 195.59 24.3507 197.009C24.4394 199.758 24.528 198.783 24.7053 201.266C22.4008 202.419 21.4259 202.064 18.7669 201.621C15.6648 200.911 14.4239 200.911 11.3218 201.621C7.24477 202.685 3.87676 205.878 3.78813 210.845C3.69949 217.941 14.7785 225.302 22.4008 226.1V226.189Z" fill="#FAD9CF"/>
<path fill-rule="evenodd" clip-rule="evenodd" d="M203.476 226.1C203.387 227.697 207.376 234.881 208.351 236.832C209.414 238.961 212.516 245.79 213.846 246.855C215.175 246.677 214.821 246.234 217.036 246.411C224.304 246.943 232.015 245.347 233.345 236.655C233.965 232.575 232.104 227.253 229.445 225.923C228.204 225.302 224.659 224.859 222.975 224.77C220.227 224.593 218.632 226.278 217.036 224.77C217.48 222.819 219.341 220.158 218.366 217.586C217.302 214.748 214.732 215.368 212.339 216.699C209.326 218.295 207.287 220.779 205.514 223.44L203.476 226.1Z" fill="#FAD9CF"/>
<path fill-rule="evenodd" clip-rule="evenodd" d="M101.638 231.067C103.233 232.575 108.374 234.438 111.033 234.97C118.832 236.744 126.986 235.945 134.343 233.107C136.559 232.22 141.433 229.826 142.94 228.406C141.788 226.633 136.381 223.706 133.722 222.553C126.277 219.271 116.439 218.916 109.171 223.351C107.753 224.238 105.892 225.746 105.006 226.721C103.942 227.786 102.347 229.559 101.726 230.979L101.638 231.067Z" fill="#F2A9B7"/>
<path fill-rule="evenodd" clip-rule="evenodd" d="M128.848 109.025C129.38 106.541 130.886 102.639 131.861 100.333C132.482 98.825 133.013 97.672 133.634 96.3416C134.343 94.9225 135.141 93.7695 135.85 92.3504C130.975 93.06 128.05 90.5765 126.898 86.9401C125.48 87.827 123.441 90.9313 118.301 89.7783C115.021 89.0688 113.958 86.674 112.894 83.6584C111.21 85.6097 109.703 86.9401 106.069 86.8514C106.956 89.1575 108.64 91.907 109.792 94.3904C115.819 107.251 111.476 106.275 119.453 107.34C122.643 107.783 125.746 108.493 128.936 109.202L128.848 109.025Z" fill="#C6C7C2"/>
<path fill-rule="evenodd" clip-rule="evenodd" d="M146.751 94.7452L148.435 95.2774C147.638 98.0269 146.485 101.131 145.51 103.881C144.979 105.477 143.383 111.331 142.231 112.04C144.358 112.927 149.765 114.346 151.803 113.282C152.69 112.839 156.855 108.227 157.742 107.162C159.603 105.034 161.907 103.437 163.769 101.397C165.453 99.6233 167.58 97.2286 171.036 96.6078C167.225 92.1731 167.668 97.3173 162.528 97.4947C160.489 97.4947 158.717 96.9625 157.564 95.8982C155.792 94.3017 156.146 93.5035 154.994 91.907C152.069 93.5035 151.626 95.0113 146.751 94.5678V94.7452Z" fill="#C6C7C2"/>
<path fill-rule="evenodd" clip-rule="evenodd" d="M135.85 92.3504C135.14 93.8582 134.343 94.9225 133.634 96.3416C133.013 97.672 132.393 98.825 131.861 100.333C130.886 102.728 129.379 106.541 128.848 109.025L142.32 112.129C143.383 111.331 145.067 105.477 145.599 103.969C146.574 101.22 147.638 98.1155 148.524 95.366L146.84 94.8339C143.561 94.1243 141.345 92.3504 140.458 89.3348C139.572 89.7783 139.218 90.3992 138.331 91.1087C137.445 91.7296 136.825 91.9069 135.938 92.3504H135.85Z" fill="#FAD9CF"/>
<path fill-rule="evenodd" clip-rule="evenodd" d="M95.8767 270.713C102.081 269.56 105.36 269.56 110.235 272.665C110.59 272.132 111.919 258.385 112.096 256.434C109.526 254.66 110.146 254.305 105.715 253.684C101.815 253.152 101.549 252.531 98.1811 254.482C96.8516 255.192 97.2062 255.901 97.0289 257.853C96.4971 262.642 95.7881 265.569 95.8767 270.802V270.713Z" fill="white"/>
<path fill-rule="evenodd" clip-rule="evenodd" d="M139.395 375.727C140.281 379.54 148.613 387.079 155.703 384.596C159.248 383.354 161.376 381.669 162.971 378.831C164.389 376.347 166.073 371.735 165.719 368.276L165.364 367.567C164.832 368.986 165.098 367.567 162.528 369.252C157.121 372.711 149.322 375.017 142.852 375.106C141.079 375.106 139.484 374.84 139.218 375.727H139.395Z" fill="#FAD9CF"/>
<path fill-rule="evenodd" clip-rule="evenodd" d="M77.1754 378.121C75.5801 377.146 72.3893 376.702 70.3508 376.17C60.8672 373.509 55.1061 368.454 52.9789 368.01C52.6244 371.381 53.1562 375.727 54.3971 378.565C55.4606 381.048 58.2968 382.999 60.8672 384.153C64.3238 385.572 67.2487 385.394 70.5281 383.975C73.0097 382.822 75.9346 380.25 77.1754 378.21V378.121Z" fill="#FAD9CF"/>
<path fill-rule="evenodd" clip-rule="evenodd" d="M113.869 271.778C116.705 271.068 117.857 270.359 121.225 270.802C123.973 271.245 125.568 272.576 127.164 272.931C127.341 269.117 127.873 265.214 128.316 261.4C128.759 258.207 129.291 258.74 127.518 256.877C126.011 255.369 127.518 255.813 122.643 255.547C113.869 254.926 114.755 254.305 113.869 271.778Z" fill="white"/>
<path fill-rule="evenodd" clip-rule="evenodd" d="M146.574 58.026C143.117 58.9129 140.99 62.9041 141.699 66.0971C142.408 69.3787 145.688 71.6848 149.676 70.6204C157.742 68.4918 156.146 55.5425 146.574 58.026Z" fill="#EF885E"/>
<path fill-rule="evenodd" clip-rule="evenodd" d="M171.48 51.1079L171.036 46.6732C169.618 45.3428 167.58 42.416 162.616 44.722C155.083 48.181 158.805 57.5826 165.453 57.0504C169.884 56.6956 170.593 52.7931 171.568 51.1079H171.48Z" fill="#EF885E"/>
<path fill-rule="evenodd" clip-rule="evenodd" d="M167.048 4.45504C163.414 5.60806 162.262 8.71233 162.705 12.3488C162.971 14.1226 166.605 17.2269 170.505 16.34C171.657 16.0739 173.518 14.5661 174.05 13.8566C176.354 10.3975 173.075 2.50378 167.048 4.36634V4.45504Z" fill="#FFEA7C"/>
<path fill-rule="evenodd" clip-rule="evenodd" d="M158.539 25.2093C155.792 25.7415 153.221 28.6684 152.956 31.684C152.69 35.3204 155.703 37.6264 159.426 37.2717C167.668 36.3847 165.984 23.7015 158.539 25.2093Z" fill="#EF885E"/>
<path fill-rule="evenodd" clip-rule="evenodd" d="M163.68 127.917C157.476 129.07 155.437 137.584 157.476 139.181C161.11 142.108 159.869 133.504 163.769 131.996C165.098 131.464 166.428 131.819 167.225 132.883C169.086 135.544 167.048 138.915 167.402 141.043C167.58 142.019 170.77 145.301 171.745 138.471C172.632 131.996 169.707 126.852 163.769 128.005L163.68 127.917Z" fill="#AA9639"/>
<path fill-rule="evenodd" clip-rule="evenodd" d="M135.406 46.8506C135.584 49.334 137.268 51.5514 139.04 52.1722C141.522 53.1479 144.713 51.7288 146.042 50.3984C150.031 46.4072 146.751 40.0212 141.168 40.376C140.015 41.3516 139.395 42.4159 138.331 43.4803C137.711 44.1011 135.938 46.1411 135.406 46.8506Z" fill="#EF885E"/>
<path fill-rule="evenodd" clip-rule="evenodd" d="M93.4836 114.435C90.4702 115.233 89.7611 115.854 88.2544 117.983C87.3681 119.136 85.5068 122.418 86.7476 124.103C87.3681 124.99 88.6976 125.167 89.5839 124.28C90.4702 123.393 90.7361 119.934 92.9519 118.781C98.6243 115.677 96.2312 125.167 96.763 126.143C97.2062 127.03 100.22 128.804 100.84 123.748C101.549 117.539 98.1812 113.193 93.5723 114.435H93.4836Z" fill="#AA9639"/>
<path fill-rule="evenodd" clip-rule="evenodd" d="M173.873 74.6117L172.632 62.8155C168.023 62.5494 163.148 65.0328 164.3 69.9997C164.744 72.0396 166.25 73.6361 167.668 74.4344C169.884 75.6761 171.48 75.3213 173.784 74.523L173.873 74.6117Z" fill="#EF885E"/>
<path fill-rule="evenodd" clip-rule="evenodd" d="M119.984 64.9441C123.087 67.0728 127.164 66.4519 129.468 63.9685C131.595 61.6624 131.329 56.2521 128.759 54.4783C128.227 54.833 120.605 63.8798 119.984 64.9441Z" fill="#EF885E"/>
<path fill-rule="evenodd" clip-rule="evenodd" d="M146.574 81.8846C144.979 82.7715 143.383 85.3436 144.181 88.0931C144.801 90.3105 147.46 91.6409 150.208 90.4878C156.767 87.561 150.474 79.6672 146.574 81.8846Z" fill="#C2E4EE"/>
<path fill-rule="evenodd" clip-rule="evenodd" d="M118.478 76.8291C114.844 79.3125 116.616 88.6254 122.378 85.4324C124.062 84.5455 125.214 81.5299 123.973 79.2238C123.352 77.9821 120.605 75.41 118.478 76.8291Z" fill="#C2E4EE"/>
<path fill-rule="evenodd" clip-rule="evenodd" d="M133.191 79.2238C128.227 80.9977 130.355 90.754 135.318 88.1818C140.813 85.4323 137.8 77.5386 133.191 79.2238Z" fill="#F2A9B7"/>
<path fill-rule="evenodd" clip-rule="evenodd" d="M110.412 275.68C108.64 275.591 107.753 274.705 106.512 274.971C102.347 276.035 98.9787 281.268 100.22 283.929C102.169 288.363 109.969 277.365 110.412 275.591V275.68Z" fill="#E54F09"/>
<path fill-rule="evenodd" clip-rule="evenodd" d="M130.798 256.079C132.659 258.119 131.595 260.336 131.507 263.529L146.131 255.369C145.954 255.369 146.042 255.369 145.599 255.281L142.852 255.547C141.522 255.635 140.104 255.724 138.774 255.813C136.381 255.902 133.013 255.813 130.798 256.079Z" fill="#E54F09"/>
<path fill-rule="evenodd" clip-rule="evenodd" d="M114.312 275.769C114.667 278.075 117.946 284.638 120.516 285.791C121.403 286.235 121.934 286.146 122.289 285.791C124.062 282.51 119.63 276.744 118.389 274.793C116.705 274.616 115.642 275.414 114.312 275.769Z" fill="#E54F09"/>
<path fill-rule="evenodd" clip-rule="evenodd" d="M160.401 85.6097C159.426 86.0532 160.135 85.2549 159.337 86.5854C157.298 90.2218 160.401 95.8982 164.389 92.9713C168.732 89.7783 165.364 83.5698 160.401 85.6984V85.6097Z" fill="#F2A9B7"/>
<path fill-rule="evenodd" clip-rule="evenodd" d="M93.9267 258.74C94.7244 251.201 94.9903 254.571 96.9402 252.088C94.2813 251.555 91.5337 250.846 89.052 250.048C87.0134 249.427 83.2909 248.008 81.6069 247.653L90.8246 256.079C91.5337 256.7 92.8631 258.74 93.9267 258.74Z" fill="#E54F09"/>
<path fill-rule="evenodd" clip-rule="evenodd" d="M126.011 75.0552C126.455 75.5874 126.721 75.8534 127.164 76.563C127.43 77.0065 127.695 77.6273 128.05 78.1595C131.152 75.7647 130.975 74.0796 137.356 75.6761C137.179 72.6605 135.052 70.4431 131.95 70.3544C129.025 70.2657 126.189 72.6605 125.923 75.0552H126.011Z" fill="#EF885E"/>
<path fill-rule="evenodd" clip-rule="evenodd" d="M147.904 181.221C145.422 181.842 138.774 184.592 138.952 187.341C139.129 189.026 140.813 189.47 142.231 188.494C144.536 186.898 145.422 186.011 148.79 185.035C153.044 183.882 151.626 180.157 147.904 181.133V181.221Z" fill="#854322"/>
<path fill-rule="evenodd" clip-rule="evenodd" d="M176.266 86.5854C173.873 87.0288 172.277 87.561 172.1 90.1331C171.657 95.366 179.013 95.9869 179.456 90.8427C179.634 88.714 178.038 86.2306 176.266 86.5854Z" fill="#C2E4EE"/>
<path fill-rule="evenodd" clip-rule="evenodd" d="M152.158 78.6029C153.133 79.4011 153.753 79.7559 154.64 80.6429C156.235 82.328 155.88 82.5941 156.589 83.3037C158.096 82.2393 159.248 80.8202 162.882 81.0863C162.616 78.9577 160.667 77.1838 158.539 76.7403C156.235 76.2082 153.221 77.0064 152.158 78.5142V78.6029Z" fill="#EF885E"/>
<path fill-rule="evenodd" clip-rule="evenodd" d="M105.626 75.5874C101.46 77.716 104.651 84.5454 108.374 82.3281C109.437 81.7072 110.855 79.6673 110.146 77.6273C109.349 75.3213 107.044 74.8778 105.715 75.5874H105.626Z" fill="#F2A9B7"/>
<path fill-rule="evenodd" clip-rule="evenodd" d="M89.052 175.545C87.7226 176.166 88.2544 177.496 88.9634 178.383C90.4702 180.512 93.5723 185.567 95.8767 184.237C98.3584 182.818 94.5472 179.625 94.0154 179.093C93.2178 178.295 90.5588 174.835 89.052 175.545Z" fill="#854322"/>
<path fill-rule="evenodd" clip-rule="evenodd" d="M135.052 147.695L137.711 140.511C137.977 139.979 138.952 137.495 138.952 137.141C138.952 136.52 138.597 136.165 138.154 135.722C137.888 135.367 137.888 135.367 137.622 135.012L136.913 134.302L135.052 147.784V147.695Z" fill="#C6C7C2"/>
<path fill-rule="evenodd" clip-rule="evenodd" d="M117.326 259.361C118.035 259.715 118.655 259.183 119.541 258.917C121.137 258.474 122.998 258.651 124.505 259.538C125.657 260.248 125.037 260.691 126.455 260.602C127.341 256.611 116.528 256.611 117.326 259.361Z" fill="#CACAC6"/>
<path fill-rule="evenodd" clip-rule="evenodd" d="M116.617 264.061C117.857 264.771 119.719 262.997 122.112 263.44C122.821 263.618 126.632 266.367 125.568 264.061C125.391 263.707 124.328 262.908 123.796 262.642C122.2 261.844 120.25 261.933 118.478 262.553C117.237 262.997 116.705 262.997 116.617 264.061Z" fill="#CACAC6"/>
<path fill-rule="evenodd" clip-rule="evenodd" d="M99.8652 257.675C101.283 257.853 102.258 256.877 104.651 257.409C106.513 257.853 107.133 259.449 108.551 258.917C108.817 257.853 108.108 257.587 107.31 257.054C104.385 255.192 99.7765 255.547 99.8652 257.675Z" fill="#CACAC6"/>
<path fill-rule="evenodd" clip-rule="evenodd" d="M99.6879 261.844C101.017 262.287 102.613 261.578 104.297 262.199C105.981 262.908 105.715 263.706 106.956 263.706C107.487 263.706 107.222 263.706 107.576 263.529C108.285 260.957 99.6879 258.828 99.7765 261.844H99.6879Z" fill="#CACAC6"/>
<path fill-rule="evenodd" clip-rule="evenodd" d="M99.2446 266.101C100.042 266.633 102.524 266.367 103.853 266.811C105.272 267.254 105.981 268.585 107.133 268.23C107.576 265.569 99.7765 263.618 99.3333 266.101H99.2446Z" fill="#CACAC6"/>
<path fill-rule="evenodd" clip-rule="evenodd" d="M116.439 268.851C118.3 268.851 119.01 267.964 121.137 268.23C122.909 268.407 123.973 269.56 125.037 269.383C125.746 266.899 119.896 266.722 118.389 267.166C117.148 267.52 116.705 267.698 116.439 268.851Z" fill="#CACAC6"/>
</svg>
