<svg width="1039" height="729" viewBox="0 0 1039 729" fill="none" xmlns="http://www.w3.org/2000/svg">
<g filter="url(#filter0_d_68_3145)">
<path d="M974.861 393.622C990.992 373.666 1000.74 347.679 1000.74 319.386C1000.74 256.236 952.349 205.06 892.611 205.06C832.873 205.06 880.557 205.592 874.707 206.656C849.447 141.466 779.871 94.6361 697.976 94.6361C616.08 94.6361 655.432 97.9177 636.111 103.949C630.261 101.377 624.145 99.0708 617.941 96.8534C583.818 64.1255 535.07 43.726 480.916 43.726C394.5 43.726 321.822 95.8778 300.462 166.655C293.726 165.325 286.812 164.527 279.811 164.527C240.458 164.527 206.069 186.789 187.102 219.96C175.757 213.752 162.817 210.293 149.167 210.293C103.433 210.293 66.2965 249.495 66.2965 297.922C66.2965 346.349 71.4372 332.601 80.2117 346.437V348.743C48.3929 376.061 28.0076 417.747 28.0076 464.488C28.0076 546.707 91.0248 613.405 168.755 613.405C246.485 613.405 177.707 613.139 182.138 612.695C186.836 625.29 194.724 635.135 205.626 640.279C223.441 648.705 244.89 642.408 263.148 626C271.302 634.337 281.317 643.206 293.46 651.987C318.188 669.814 347.348 684.005 379.965 693.939C419.317 706.001 464.076 712.121 513.09 712.121C562.103 712.121 607.128 706.001 647.101 694.028C680.161 684.094 709.941 670.169 735.644 652.519C741.76 648.35 747.344 644.093 752.484 639.924C764.804 647.641 779.251 652.164 794.673 652.164C824.187 652.164 850.068 635.845 864.781 611.276C878.873 617.574 894.295 621.121 910.603 621.121C975.305 621.121 1027.69 565.688 1027.69 497.305C1027.69 428.922 1006.68 415.884 974.861 393.8V393.622Z" fill="#FFFBD2"/>
</g>
<path d="M398.577 155.923L399.818 149.094C409.834 141.378 417.367 134.726 422.597 129.138C427.826 123.55 430.839 118.583 431.637 114.237C432.435 109.891 431.814 108.827 430.573 107.142C429.333 105.457 427.294 104.57 424.458 104.57C421.622 104.57 416.924 106.61 412.493 110.69L407.175 104.304C410.631 101.199 413.911 98.8934 417.013 97.4743C420.115 96.0552 423.66 95.3456 427.56 95.3456C433.144 95.3456 437.398 97.0308 440.234 100.401C443.071 103.772 443.957 108.206 443.071 113.705C441.475 122.752 432.967 133.75 417.545 146.611C421.622 146.167 424.812 145.99 427.383 145.99H440.234L438.462 155.923H398.666H398.577Z" fill="#E95513"/>
<path d="M479.941 153.972C475.421 159.294 470.015 162.043 463.81 162.043C457.606 162.043 453.175 159.382 450.516 153.972C447.857 148.65 447.414 140.934 449.186 130.912C450.959 120.889 454.061 113.262 458.581 108.118C463.101 102.885 468.419 100.312 474.712 100.312C481.005 100.312 485.437 102.885 488.096 108.118C490.754 113.35 491.198 120.889 489.425 130.912C487.652 140.934 484.55 148.65 480.03 153.972H479.941ZM460.265 131.178C457.695 145.635 459.467 152.819 465.406 152.819C471.344 152.819 475.598 145.635 478.169 131.178C480.739 116.721 478.966 109.537 473.028 109.537C467.09 109.537 462.835 116.721 460.265 131.178Z" fill="#E95513"/>
<path d="M493.059 150.868L494.3 144.038C504.315 136.322 511.849 129.67 517.078 124.082C522.307 118.495 525.321 113.528 526.118 109.182C526.65 106.166 526.296 103.772 525.055 102.086C523.814 100.401 521.776 99.5142 518.939 99.5142C516.103 99.5142 511.406 101.554 506.974 105.634L501.656 99.2482C505.113 96.1439 508.392 93.8378 511.494 92.4187C514.596 90.9996 518.142 90.2901 522.041 90.2901C527.625 90.2901 531.88 91.9753 534.716 95.3456C537.552 98.716 538.438 103.151 537.552 108.65C535.957 117.696 527.448 128.694 512.026 141.555C516.103 141.112 519.294 140.934 521.864 140.934H534.716L532.943 150.868H493.148H493.059Z" fill="#E95513"/>
<path d="M556.874 156.012C548.897 156.012 542.693 153.351 538.261 147.941L545.086 140.402C548.454 144.393 552.531 146.433 557.14 146.433C561.749 146.433 562.99 145.458 565.294 143.506C567.598 141.555 569.016 138.894 569.637 135.435C570.257 131.976 569.814 129.404 568.307 127.453C566.801 125.59 564.585 124.615 561.483 124.615C558.381 124.615 558.292 124.881 556.963 125.324C555.722 125.768 554.038 126.566 551.999 127.808L547.213 124.26L553.949 95.3456H585.768L583.995 105.279H562.369L559.001 117.874C561.571 116.721 564.053 116.189 566.446 116.189C571.764 116.189 575.841 117.785 578.677 120.978C581.602 124.171 582.489 128.961 581.336 135.169C580.273 141.466 577.348 146.433 572.65 150.247C567.953 154.061 562.724 155.923 556.963 155.923L556.874 156.012Z" fill="#E95513"/>
<path d="M331.394 243.287C332.635 271.669 345.753 290.56 370.392 300.405L373.938 283.642C357.541 276.103 348.766 262.622 347.259 243.287H381.56L384.396 229.894H321.734L326.342 207.987H383.067L385.903 194.86H329.179L334.142 175.968H317.213L312.25 194.86H255.88L253.044 207.987H309.414L304.716 229.894H242.408L239.572 243.287H273.429C266.782 261.469 252.423 275.394 230.177 284.973L226.809 300.76C241.256 295.971 254.551 288.609 266.516 278.321C276.265 270.249 283.976 258.631 289.472 243.287H301.88L277.418 344.841H294.346L318.809 243.287H331.394Z" fill="#E95513" stroke="white" stroke-width="15" stroke-linecap="round" stroke-linejoin="round"/>
<path d="M504.138 331.271L507.506 314.508C487.741 307.678 472.408 297.744 461.417 284.973C474.003 280.981 483.575 275.571 490.134 268.653C494.211 275.66 500.593 281.336 508.924 285.416L512.026 269.895C504.847 266.524 500.504 261.025 498.82 253.752C498.997 252.866 499.352 251.89 499.529 251.003L501.745 239.916H486.323L483.93 251.624C481.98 260.493 474.623 266.968 461.949 271.314L459.645 283.021C456.808 279.651 454.238 276.015 452.111 271.935L459.556 234.861H522.662L525.587 220.138H462.57L468.951 188.829H451.402L445.109 220.138H385.371L382.446 234.861H442.184L435.714 267.234C432.435 273.176 427.826 278.764 422.331 283.997L425.167 269.983C417.899 266.613 413.556 261.38 411.872 254.107C412.049 253.132 412.404 252.067 412.67 251.003L414.886 239.916H399.464L397.159 251.624C395.209 260.493 387.853 266.968 375.267 271.314L372.342 285.771C386.08 281.514 396.362 275.926 403.275 268.742C407.086 275.571 413.113 281.07 421.267 285.061C408.15 296.769 388.651 306.88 362.947 315.217L359.757 331.093C389.714 322.224 413.29 310.162 430.13 295.261L414.62 372.158H432.08L447.236 293.398C460.176 310.339 479.587 322.933 504.049 331.359" fill="#E95513"/>
<path d="M504.138 331.271L507.506 314.508C487.741 307.678 472.408 297.744 461.417 284.973C474.003 280.981 483.575 275.571 490.134 268.653C494.211 275.66 500.593 281.336 508.924 285.416L512.026 269.895C504.847 266.524 500.504 261.025 498.82 253.752C498.997 252.866 499.352 251.89 499.529 251.003L501.745 239.916H486.323L483.93 251.624C481.98 260.493 474.623 266.968 461.949 271.314L459.645 283.021C456.808 279.651 454.238 276.015 452.111 271.935L459.556 234.861H522.662L525.587 220.138H462.57L468.951 188.829H451.402L445.109 220.138H385.371L382.446 234.861H442.184L435.714 267.234C432.435 273.176 427.826 278.764 422.331 283.997L425.167 269.983C417.899 266.613 413.556 261.38 411.872 254.107C412.049 253.132 412.404 252.067 412.67 251.003L414.886 239.916H399.464L397.159 251.624C395.209 260.493 387.853 266.968 375.267 271.314L372.342 285.771C386.08 281.514 396.362 275.926 403.275 268.742C407.086 275.571 413.113 281.07 421.267 285.061C408.15 296.769 388.651 306.88 362.947 315.217L359.757 331.093C389.714 322.224 413.29 310.162 430.13 295.261L414.62 372.158H432.08L447.236 293.398C460.176 310.339 479.587 322.933 504.049 331.359" stroke="white" stroke-width="15" stroke-linecap="round" stroke-linejoin="round"/>
<path d="M733.074 251.712L735.733 240.271C749.293 233.708 763.74 224.927 776.503 215.969L781.467 195.481L683.706 195.215L679.629 213.042H752.307C742.203 219.517 729.972 226.346 719.602 230.869L714.727 251.801H655.964L651.798 269.717H710.561L702.23 305.638C701.609 308.21 700.457 308.92 697.089 309.097C694.43 309.186 678.211 309.275 669.259 308.831L664.827 327.989C678.654 327.989 703.559 327.989 704.002 327.989C712.511 327.989 718.095 320.539 720.222 311.137L728.908 269.806H786.43L790.596 251.89H733.074V251.712Z" fill="#E95513" stroke="white" stroke-width="15" stroke-linecap="round" stroke-linejoin="round"/>
<path d="M597.999 204.528H578.145C577.614 201.512 576.905 198.23 576.107 195.126H558.115L557.406 195.303C557.937 198.053 558.558 201.335 559.001 204.528H535.868L532.5 219.162H594.631L597.999 204.528Z" fill="#E95513" stroke="white" stroke-width="15" stroke-linecap="round" stroke-linejoin="round"/>
<path d="M526.296 286.214C525.144 289.407 515.217 298.809 510.342 299.518C510.342 299.518 506.531 317.701 506.708 317.701C516.546 313.798 533.829 299.696 539.945 286.48L526.296 286.126V286.214Z" fill="#E95513" stroke="white" stroke-width="15" stroke-linecap="round" stroke-linejoin="round"/>
<path d="M579.209 304.396C578.057 298.986 576.018 292.334 574.157 286.037L560.951 286.303C562.546 290.738 563.876 298.72 564.939 304.396H579.298H579.209Z" fill="#E95513" stroke="white" stroke-width="15" stroke-linecap="round" stroke-linejoin="round"/>
<path d="M604.735 267.234L606.862 257.921H634.781L632.654 267.234H604.735ZM612.269 234.506H640.188L638.061 243.819H610.141L612.269 234.506ZM617.675 211.268H645.594L643.467 220.581H615.548L617.675 211.268ZM636.111 299.962C633.629 309.275 633.452 312.645 630.704 312.645H626.893C625.297 312.645 625.032 312.201 626.007 308.299L631.856 282.844H645.683L665.802 195.658H605.621L585.502 282.844H593.036C588.604 297.035 582.577 309.009 565.914 314.508L562.103 330.916C588.958 326.836 601.987 305.283 609.167 282.844H615.814L609.876 308.476C606.508 322.933 608.014 327.9 620.511 327.9H629.109C642.669 327.9 644.265 320.627 650.469 299.962H636.111Z" fill="#E95513" stroke="white" stroke-width="15" stroke-linecap="round" stroke-linejoin="round"/>
<path d="M589.49 222.798H573.093C570.789 228.209 567.687 234.595 565.028 239.65H524.966L521.51 254.728H549.872L547.479 265.105H520.623L517.167 280.006H544.022L532.411 330.206H548.454L560.065 280.006H581.248L584.704 265.105H563.521L565.914 254.728H589.49L592.947 239.65H579.918C582.843 234.595 586.122 228.741 589.579 222.798" fill="#E95513"/>
<path d="M589.49 222.798H573.093C570.789 228.209 567.687 234.595 565.028 239.65H524.966L521.51 254.728H549.872L547.479 265.105H520.623L517.167 280.006H544.022L532.411 330.206H548.454L560.065 280.006H581.248L584.704 265.105H563.521L565.914 254.728H589.49L592.947 239.65H579.918C582.843 234.595 586.122 228.741 589.579 222.798" stroke="white" stroke-width="15" stroke-linecap="round" stroke-linejoin="round"/>
<path d="M554.392 238.586C554.569 235.127 554.481 227.677 554.038 223.242H539.147C539.591 227.144 539.768 234.506 539.679 238.586H554.481H554.392Z" fill="#E95513" stroke="white" stroke-width="15" stroke-linecap="round" stroke-linejoin="round"/>
<path d="M331.394 243.287C332.635 271.669 345.753 290.56 370.392 300.405L373.938 283.642C357.541 276.103 348.766 262.622 347.259 243.287H381.56L384.396 229.894H321.734L326.342 207.987H383.067L385.903 194.86H329.179L334.142 175.968H317.213L312.25 194.86H255.88L253.044 207.987H309.414L304.716 229.894H242.408L239.572 243.287H273.429C266.782 261.469 252.423 275.394 230.177 284.973L226.809 300.76C241.256 295.971 254.551 288.609 266.516 278.321C276.265 270.249 283.976 258.631 289.472 243.287H301.88L277.418 344.841H294.346L318.809 243.287H331.394Z" fill="#E95513"/>
<path d="M504.138 331.271L507.506 314.508C487.741 307.678 472.408 297.744 461.417 284.973C474.003 280.981 483.575 275.571 490.134 268.653C494.211 275.66 500.593 281.336 508.924 285.416L512.026 269.895C504.847 266.524 500.504 261.025 498.82 253.752C498.997 252.866 499.352 251.89 499.529 251.003L501.745 239.916H486.323L483.93 251.624C481.98 260.493 474.623 266.968 461.949 271.314L459.645 283.021C456.808 279.651 454.238 276.015 452.111 271.935L459.556 234.861H522.662L525.587 220.138H462.57L468.951 188.829H451.402L445.109 220.138H385.371L382.446 234.861H442.184L435.714 267.234C432.435 273.176 427.826 278.764 422.331 283.997L425.167 269.983C417.899 266.613 413.556 261.38 411.872 254.107C412.049 253.132 412.404 252.067 412.67 251.003L414.886 239.916H399.464L397.159 251.624C395.209 260.493 387.853 266.968 375.267 271.314L372.342 285.771C386.08 281.514 396.362 275.926 403.275 268.742C407.086 275.571 413.113 281.07 421.267 285.061C408.15 296.769 388.651 306.88 362.947 315.217L359.757 331.093C389.714 322.224 413.29 310.162 430.13 295.261L414.62 372.158H432.08L447.236 293.398C460.176 310.339 479.587 322.933 504.049 331.359" fill="#E95513"/>
<path d="M733.074 251.712L735.733 240.271C749.293 233.708 763.74 224.927 776.503 215.969L781.467 195.481L683.706 195.215L679.629 213.042H752.307C742.203 219.517 729.972 226.346 719.602 230.869L714.727 251.801H655.964L651.798 269.717H710.561L702.23 305.638C701.609 308.21 700.457 308.92 697.089 309.097C694.43 309.186 678.211 309.275 669.259 308.831L664.827 327.989C678.654 327.989 703.559 327.989 704.002 327.989C712.511 327.989 718.095 320.539 720.222 311.137L728.908 269.806H786.43L790.596 251.89H733.074V251.712Z" fill="#E95513"/>
<path d="M597.999 204.528H578.145C577.614 201.512 576.905 198.23 576.107 195.126H558.115L557.406 195.303C557.937 198.053 558.558 201.335 559.001 204.528H535.868L532.5 219.162H594.631L597.999 204.528Z" fill="#E95513"/>
<path d="M526.296 286.214C525.144 289.407 515.217 298.809 510.342 299.518C510.342 299.518 506.531 317.701 506.708 317.701C516.546 313.798 533.829 299.696 539.945 286.48L526.296 286.126V286.214Z" fill="#E95513"/>
<path d="M579.209 304.396C578.057 298.986 576.018 292.334 574.157 286.037L560.951 286.303C562.546 290.738 563.876 298.72 564.939 304.396H579.298H579.209Z" fill="#E95513"/>
<path d="M604.735 267.234L606.862 257.921H634.781L632.654 267.234H604.735ZM612.269 234.506H640.188L638.061 243.819H610.141L612.269 234.506ZM617.675 211.268H645.594L643.467 220.581H615.548L617.675 211.268ZM636.111 299.962C633.629 309.275 633.452 312.645 630.704 312.645H626.893C625.297 312.645 625.032 312.201 626.007 308.299L631.856 282.844H645.683L665.802 195.658H605.621L585.502 282.844H593.036C588.604 297.035 582.577 309.009 565.914 314.508L562.103 330.916C588.958 326.836 601.987 305.283 609.167 282.844H615.814L609.876 308.476C606.508 322.933 608.014 327.9 620.511 327.9H629.109C642.669 327.9 644.265 320.627 650.469 299.962H636.111Z" fill="#E95513"/>
<path d="M589.49 222.798H573.093C570.789 228.209 567.687 234.595 565.028 239.65H524.966L521.51 254.728H549.872L547.479 265.105H520.623L517.167 280.006H544.022L532.411 330.206H548.454L560.065 280.006H581.248L584.704 265.105H563.521L565.914 254.728H589.49L592.947 239.65H579.918C582.843 234.595 586.122 228.741 589.579 222.798" fill="#E95513"/>
<path d="M554.392 238.586C554.569 235.127 554.481 227.677 554.038 223.242H539.147C539.591 227.144 539.768 234.506 539.679 238.586H554.481H554.392Z" fill="#E95513"/>
<defs>
<filter id="filter0_d_68_3145" x="28.0076" y="43.726" width="1010.58" height="685.095" filterUnits="userSpaceOnUse" color-interpolation-filters="sRGB">
<feFlood flood-opacity="0" result="BackgroundImageFix"/>
<feColorMatrix in="SourceAlpha" type="matrix" values="0 0 0 0 0 0 0 0 0 0 0 0 0 0 0 0 0 0 127 0" result="hardAlpha"/>
<feOffset dx="10.9" dy="16.7"/>
<feColorMatrix type="matrix" values="0 0 0 0 0.529412 0 0 0 0 0.27451 0 0 0 0 0.137255 0 0 0 1 0"/>
<feBlend mode="normal" in2="BackgroundImageFix" result="effect1_dropShadow_68_3145"/>
<feBlend mode="normal" in="SourceGraphic" in2="effect1_dropShadow_68_3145" result="shape"/>
</filter>
</defs>
</svg>
