<svg width="321" height="84" viewBox="0 0 321 84" fill="none" xmlns="http://www.w3.org/2000/svg">
<circle cx="42.1117" cy="42.3481" r="41.5063" fill="white"/>
<circle cx="121.108" cy="42.3481" r="41.5063" fill="white"/>
<circle cx="200.103" cy="42.3481" r="41.5063" fill="white"/>
<circle cx="279.099" cy="42.3481" r="41.5063" fill="white"/>
<path d="M18.5375 16.7595H69.8375V23.4795H18.5375V16.7595ZM32.7575 30.2595H56.6975V36.6795H32.7575V30.2595ZM29.6975 46.3995H54.7775V52.8195H29.6975V46.3995ZM16.6175 60.7395H71.5175V67.3995H16.6175V60.7395ZM31.6175 21.4995H39.4775C37.3775 32.8395 34.3175 46.9995 32.0375 55.6995L24.1775 55.0995C26.7575 46.2795 29.8775 32.2995 31.6175 21.4995ZM53.3375 30.2595H61.0775C59.9375 41.2395 58.2575 54.9195 56.8775 63.2595H48.9575C50.5775 54.6195 52.4375 40.9395 53.3375 30.2595ZM95.4575 52.3995H123.478V57.4995H95.4575V52.3995ZM94.0775 23.8395H124.078V29.0595H94.0775V23.8395ZM106.018 19.5795H112.498V62.5995H106.018V19.5795ZM93.7775 61.9395C101.218 61.3995 112.678 60.5595 123.478 59.5995L123.538 65.0595C113.338 66.1395 102.418 67.2195 94.6175 67.9395L93.7775 61.9395ZM101.398 42.7995V45.5595H117.238V42.7995H101.398ZM101.398 35.8995V38.5995H117.238V35.8995H101.398ZM95.6375 31.3995H123.178V50.0595H95.6375V31.3995ZM120.238 13.8795L123.418 19.2795C115.738 20.8395 104.818 21.7395 95.8175 21.9195C95.5775 20.4795 94.9175 18.1995 94.2575 16.8195C103.198 16.3995 113.638 15.3195 120.238 13.8795ZM124.078 27.1395H144.838V33.7395H124.078V27.1395ZM141.958 27.1395H148.858C148.858 27.1395 148.798 29.4795 148.798 30.3195C148.258 55.0395 147.778 63.7995 145.798 66.4995C144.478 68.5395 143.098 69.1995 141.118 69.5595C139.258 69.9195 136.438 69.9195 133.618 69.7995C133.438 67.8195 132.658 64.8795 131.518 62.9595C134.098 63.1995 136.378 63.1995 137.578 63.1995C138.478 63.1995 139.078 63.0195 139.618 62.1795C140.998 60.3795 141.478 51.9195 141.958 28.6995V27.1395ZM129.838 14.5995H136.738C136.678 40.2195 136.618 59.4795 122.758 70.3995C121.738 68.6595 119.398 66.1995 117.778 64.9995C130.438 55.3395 129.778 38.5395 129.838 14.5995ZM197.098 16.5795H221.458V23.2395H197.098V16.5795ZM195.058 37.4595H228.178V44.2395H195.058V37.4595ZM207.718 30.4395H214.978V61.9395C214.978 65.5395 214.258 67.4595 211.918 68.5995C209.518 69.6795 206.218 69.9195 201.778 69.8595C201.418 67.8795 200.218 64.7595 199.258 62.8395C202.318 62.9595 205.438 63.0195 206.458 62.9595C207.418 62.8995 207.718 62.6595 207.718 61.8195V30.4395ZM218.878 16.5795H220.618L222.118 16.2195L226.798 19.7595C223.258 24.9795 218.158 31.3395 213.478 35.2995C212.518 34.0395 210.538 32.0595 209.398 31.0995C212.938 27.6795 217.078 21.7395 218.878 18.1395V16.5795ZM172.198 25.5195H191.578V32.1795H172.198V25.5195ZM180.238 13.5795L187.018 14.2995C184.738 27.0795 181.258 43.1595 178.438 53.9595L172.558 50.8395C175.138 41.3595 178.378 25.5195 180.238 13.5795ZM175.678 49.8195L179.638 44.7795C185.878 48.6795 193.798 54.4995 197.278 58.9995L192.958 64.8195C189.598 60.2595 181.978 53.9595 175.678 49.8195ZM189.118 25.5195H190.258L191.518 25.3395L195.778 26.0595C194.398 49.4595 188.578 62.7195 176.698 70.0995C175.738 68.3595 173.818 65.7795 172.378 64.3995C182.578 59.0595 187.918 45.7995 189.118 26.8395V25.5195ZM278.278 57.7395L283.798 56.2995C285.118 58.3395 286.198 61.1595 286.558 63.0195L280.738 64.7595C280.498 62.8395 279.418 59.8395 278.278 57.7395ZM294.118 56.1195L300.358 57.7995C299.038 60.4395 297.718 62.8995 296.758 64.6395L291.418 63.0795C292.378 61.0995 293.518 58.1595 294.118 56.1195ZM281.518 49.4595V52.5195H296.458V49.4595H281.518ZM275.578 45.2595H302.638V56.7195H275.578V45.2595ZM279.418 28.6995V31.3995H298.318V28.6995H279.418ZM279.418 21.8595V24.5595H298.318V21.8595H279.418ZM273.658 17.4195H304.378V35.8395H273.658V17.4195ZM272.818 37.8195H305.338V43.2195H272.818V37.8195ZM271.618 63.4995H306.178V68.7795H271.618V63.4995ZM281.698 13.5795H287.038V20.7195H281.698V13.5795ZM290.578 13.5795H295.918V20.7195H290.578V13.5795ZM282.778 19.4595H286.978V34.9395H282.778V19.4595ZM290.578 19.4595H294.778V34.9395H290.578V19.4595ZM250.438 29.2995H271.498V35.5395H250.438V29.2995ZM251.878 17.3595H270.298V23.5395H251.878V17.3595ZM266.698 38.5395H271.258V60.9195H266.698V38.5395ZM258.298 32.4195H264.238V69.9195H258.298V32.4195ZM251.278 38.6595H255.838V45.8595C255.838 52.0395 255.538 59.1795 253.378 64.9395C252.478 63.9795 250.618 62.5395 249.358 61.8795C250.978 57.0195 251.278 50.8995 251.278 45.6795V38.6595Z" fill="#FF5F17"/>
</svg>
