<svg width="100" height="62" viewBox="0 0 100 62" fill="none" xmlns="http://www.w3.org/2000/svg">
<path d="M46.1186 40.8082C47.0548 40.6886 47.1118 40.204 46.905 37.1875C47.6746 37.6262 49.1464 37.9752 50.1126 38.0904C50.2939 42.3035 49.5002 43.5385 46.8085 43.8823L43.2392 44.3382C39.9039 44.7642 38.9497 43.8121 38.5523 40.7006L37.8475 35.182L33.9856 35.6753C34.3393 41.2387 33.3834 44.4634 25.9716 46.9614C25.6251 46.1106 24.5164 44.8799 23.7827 44.2576C30.1428 42.3713 30.7731 40.3219 30.4747 36.1237L23.3946 37.028L22.9821 33.7991L48.5527 30.5331L48.9651 33.762L41.2998 34.7411L42.0047 40.2596C42.1246 41.199 42.3152 41.294 43.3099 41.1669L46.1186 40.8082ZM26.5262 29.8858L23.1324 30.3193L22.2176 23.1569L32.6916 21.8191C32.3015 21.0933 31.853 20.3749 31.4119 19.7153L34.7878 18.2101C35.5004 19.1334 36.243 20.2915 36.729 21.3034L46.6179 20.0404L47.5327 27.2028L43.9633 27.6587L43.4684 23.7839L25.9728 26.0185L26.4677 29.8933L26.5262 29.8858ZM27.986 31.0717L27.581 27.9014L42.3851 26.0106L42.79 29.1808L27.986 31.0717Z" fill="#39BF63"/>
<path d="M76.4203 27.0932L76.7427 29.6176L58.5449 31.9419L58.6724 32.9399L55.3371 33.3659L54.3323 25.499C53.8297 26.2196 53.2685 26.9476 52.8094 27.5432C52.2588 26.9572 50.9085 25.6977 50.1239 25.1416C52.4435 22.8167 54.4227 19.2226 55.4731 15.8068L58.7679 16.46C58.5578 17.1431 58.2967 17.8925 58.0281 18.5831L62.7677 17.9777C62.4437 17.3031 61.9951 16.5848 61.6276 16.0351L64.6673 14.6922C65.2479 15.513 65.9755 16.5537 66.4541 17.5069L74.3535 16.498L74.6609 18.905L66.5275 19.9438L66.6924 21.2354L73.363 20.3834L73.6404 22.5556L66.9699 23.4076L67.1348 24.6992L73.8639 23.8397L74.1489 26.0706L67.4198 26.9301L67.5997 28.3391L76.4353 27.2106L76.4203 27.0932ZM55.2951 33.9679L75.3068 31.412L76.4841 40.6291L72.9147 41.085L72.7647 39.9109L59.7161 41.5775L59.8661 42.7516L56.4723 43.1851L55.2951 33.9679ZM59.0848 36.1689L59.4297 38.8694L72.4783 37.2028L72.1334 34.5023L59.0848 36.1689ZM63.1847 20.3111L57.2162 21.0734L57.3812 22.365L63.3496 21.6027L63.1847 20.3111ZM63.6271 23.7749L57.6587 24.5372L57.8236 25.8288L63.792 25.0665L63.6271 23.7749ZM58.281 29.41L64.2494 28.6477L64.0695 27.2387L58.1011 28.001L58.281 29.41Z" fill="#39BF63"/>
<path d="M82.9963 2.68536L11.0242 11.8778C5.8536 12.5382 2.19913 17.2791 2.86172 22.4669L6.53592 51.2338C7.19851 56.4216 11.9273 60.0917 17.0979 59.4313L89.0699 50.2388C94.2406 49.5784 97.895 44.8375 97.2324 39.6498L93.5582 10.8829C92.8956 5.6951 88.1669 2.02495 82.9963 2.68536Z" stroke="#39BF63" stroke-width="5" stroke-miterlimit="10" stroke-linecap="round"/>
</svg>
