<svg width="125" height="125" viewBox="0 0 125 125" fill="none" xmlns="http://www.w3.org/2000/svg">
<g clip-path="url(#clip0_1191_183)">
<path d="M68.986 4.08778L72.3904 0L74.3647 4.94837C76.3263 9.84611 82.2365 11.7698 86.704 8.96021L91.2094 6.12534L91.5637 11.4407C91.9181 16.7055 96.955 20.363 102.068 19.0721L107.231 17.7686L105.928 22.9321C104.637 28.045 108.295 33.0819 113.559 33.4363L118.875 33.7906L116.04 38.296C113.23 42.7635 115.154 48.6737 120.052 50.6353L125 52.6096L120.912 56.014C116.862 59.393 116.862 65.6196 120.912 68.986L125 72.3904L120.052 74.3647C115.154 76.3263 113.23 82.2365 116.04 86.704L118.875 91.2094L113.559 91.5637C108.295 91.9181 104.637 96.955 105.928 102.068L107.231 107.231L102.068 105.928C96.955 104.637 91.9181 108.295 91.5637 113.559L91.2094 118.875L86.704 116.04C82.2365 113.23 76.3263 115.154 74.3647 120.052L72.3904 125L68.986 120.912C65.607 116.862 59.3804 116.862 56.014 120.912L52.6096 125L50.6353 120.052C48.6737 115.154 42.7635 113.23 38.296 116.04L33.7906 118.875L33.4363 113.559C33.0819 108.295 28.045 104.637 22.9321 105.928L17.7686 107.231L19.0721 102.068C20.363 96.955 16.7055 91.9181 11.4407 91.5637L6.12534 91.2094L8.96021 86.704C11.7698 82.2365 9.84611 76.3263 4.94837 74.3647L0 72.3904L4.08778 68.986C8.13759 65.607 8.13759 59.3804 4.08778 56.014L0 52.6096L4.94837 50.6353C9.84611 48.6737 11.7698 42.7635 8.96021 38.296L6.12534 33.7906L11.4407 33.4363C16.7055 33.0819 20.363 28.045 19.0721 22.9321L17.7686 17.7686L22.9321 19.0721C28.045 20.363 33.0819 16.7055 33.4363 11.4407L33.7906 6.12534L38.296 8.96021C42.7635 11.7698 48.6737 9.84611 50.6353 4.94837L52.6096 0L56.014 4.08778C59.393 8.13759 65.6196 8.13759 68.986 4.08778Z" fill="#053793"/>
<path d="M47.34 36.887H61.44V38.407H47.34V36.887ZM50.52 31.647H52.6V35.707H50.52V31.647ZM55.08 31.647H57.2V35.707H55.08V31.647ZM47.72 32.627H61.9V36.227H47.72V34.907H59.7V33.947H47.72V32.627ZM52.58 40.907L54.6 41.367C53.84 42.1004 52.9533 42.7537 51.94 43.327C50.9267 43.9004 49.7467 44.4204 48.4 44.887C48.2667 44.6737 48.0733 44.427 47.82 44.147C47.58 43.867 47.36 43.6537 47.16 43.507C48.4 43.1604 49.48 42.767 50.4 42.327C51.32 41.8737 52.0467 41.4004 52.58 40.907ZM52.6 42.127H58.9V43.427H51.3L52.6 42.127ZM58.42 42.127H58.84L59.2 42.047L60.54 42.907C59.9133 43.627 59.14 44.247 58.22 44.767C57.3 45.287 56.28 45.727 55.16 46.087C54.0533 46.447 52.88 46.7337 51.64 46.947C50.4133 47.1737 49.18 47.3537 47.94 47.487C47.86 47.247 47.7333 46.967 47.56 46.647C47.4 46.327 47.24 46.0604 47.08 45.847C48.2133 45.767 49.3467 45.6404 50.48 45.467C51.6267 45.2937 52.7133 45.067 53.74 44.787C54.7667 44.507 55.6867 44.1737 56.5 43.787C57.3133 43.387 57.9533 42.927 58.42 42.407V42.127ZM52 42.967C52.5067 43.3937 53.14 43.767 53.9 44.087C54.6733 44.407 55.54 44.6804 56.5 44.907C57.46 45.1204 58.4867 45.2937 59.58 45.427C60.6733 45.547 61.8 45.6337 62.96 45.687C62.7467 45.9004 62.5267 46.187 62.3 46.547C62.0867 46.907 61.9133 47.2204 61.78 47.487C60.58 47.3937 59.42 47.2537 58.3 47.067C57.18 46.8804 56.12 46.6337 55.12 46.327C54.1333 46.0204 53.2267 45.647 52.4 45.207C51.5867 44.767 50.8733 44.2537 50.26 43.667L52 42.967ZM51.14 38.827H53.02V39.707C53.02 39.907 53.0667 40.0337 53.16 40.087C53.2667 40.1404 53.4733 40.167 53.78 40.167C53.86 40.167 53.9933 40.167 54.18 40.167C54.3667 40.167 54.5733 40.167 54.8 40.167C55.04 40.167 55.2533 40.167 55.44 40.167C55.64 40.167 55.7867 40.167 55.88 40.167C56.12 40.167 56.28 40.1204 56.36 40.027C56.44 39.9204 56.5 39.687 56.54 39.327C56.7267 39.447 56.9667 39.5537 57.26 39.647C57.5667 39.7404 57.84 39.807 58.08 39.847C58 40.5137 57.8133 40.967 57.52 41.207C57.24 41.4337 56.78 41.547 56.14 41.547C56.06 41.547 55.9333 41.547 55.76 41.547C55.5867 41.547 55.3867 41.547 55.16 41.547C54.9333 41.547 54.7133 41.547 54.5 41.547C54.2867 41.547 54.0933 41.547 53.92 41.547C53.7467 41.547 53.62 41.547 53.54 41.547C52.9 41.547 52.4 41.4937 52.04 41.387C51.6933 41.267 51.4533 41.0804 51.32 40.827C51.2 40.5604 51.14 40.187 51.14 39.707V38.827ZM60.88 36.887H61.22L61.56 36.827L63.12 37.167C62.9333 37.687 62.7267 38.2204 62.5 38.767C62.2733 39.3137 62.0533 39.7737 61.84 40.147L59.96 39.767C60.12 39.4204 60.2867 39.007 60.46 38.527C60.6333 38.047 60.7733 37.587 60.88 37.147V36.887ZM49.4 38.607L51 39.307C50.7867 39.7604 50.52 40.2137 50.2 40.667C49.8933 41.1204 49.5067 41.507 49.04 41.827L47.5 40.827C47.9133 40.5737 48.2867 40.2404 48.62 39.827C48.9533 39.4137 49.2133 39.007 49.4 38.607ZM52.94 38.567L54.2 37.667C54.56 37.8404 54.94 38.0604 55.34 38.327C55.74 38.5937 56.0533 38.8337 56.28 39.047L54.98 40.047C54.7533 39.8204 54.44 39.5604 54.04 39.267C53.6533 38.9737 53.2867 38.7404 52.94 38.567ZM57.3 39.227L58.78 38.447C59.1933 38.767 59.6133 39.1537 60.04 39.607C60.4667 40.047 60.7867 40.4404 61 40.787L59.44 41.647C59.2533 41.287 58.9533 40.8804 58.54 40.427C58.1267 39.9737 57.7133 39.5737 57.3 39.227ZM52.98 28.707H55.48V31.247H52.98V28.707ZM46.88 29.907H62.6V31.707H46.88V29.907ZM45.74 29.907H47.92V35.867C47.92 36.707 47.8933 37.627 47.84 38.627C47.7867 39.627 47.6867 40.6537 47.54 41.707C47.3933 42.7604 47.18 43.7804 46.9 44.767C46.62 45.7537 46.2533 46.647 45.8 47.447C45.6667 47.3137 45.4867 47.1537 45.26 46.967C45.0333 46.7937 44.8 46.627 44.56 46.467C44.3333 46.307 44.1333 46.187 43.96 46.107C44.3733 45.3737 44.6933 44.5737 44.92 43.707C45.16 42.827 45.34 41.9337 45.46 41.027C45.58 40.107 45.6533 39.207 45.68 38.327C45.72 37.447 45.74 36.627 45.74 35.867V29.907ZM68.56 32.347H82.48V34.687H68.56V32.347ZM67.72 38.227H81.7V40.547H67.72V38.227ZM65.42 44.587H83.5V46.927H65.42V44.587ZM73.18 28.707H75.7V45.727H73.18V28.707ZM68.56 28.967L71.04 29.527C70.76 30.5537 70.4133 31.567 70 32.567C69.5867 33.567 69.14 34.5004 68.66 35.367C68.18 36.2204 67.68 36.967 67.16 37.607C67 37.4604 66.7867 37.3004 66.52 37.127C66.2667 36.9404 66 36.7604 65.72 36.587C65.44 36.4137 65.2 36.2737 65 36.167C65.5333 35.607 66.02 34.9404 66.46 34.167C66.9133 33.3937 67.3133 32.5604 67.66 31.667C68.02 30.7737 68.32 29.8737 68.56 28.967ZM31.64 56.487H41.28V58.667H31.64V56.487ZM30.46 60.367H42.16V62.607H30.46V60.367ZM30.88 64.407H41.98V66.607H30.88V64.407ZM35.22 54.687H37.6V61.607H35.22V54.687ZM37.58 62.347H39.96V70.827C39.96 71.427 39.8867 71.9004 39.74 72.247C39.6067 72.5937 39.34 72.867 38.94 73.067C38.5267 73.2404 38.0333 73.347 37.46 73.387C36.8867 73.4404 36.2267 73.467 35.48 73.467C35.4267 73.1204 35.3333 72.7204 35.2 72.267C35.0667 71.8137 34.9133 71.4204 34.74 71.087C35.2333 71.1004 35.72 71.1137 36.2 71.127C36.68 71.127 37 71.127 37.16 71.127C37.32 71.1137 37.4267 71.087 37.48 71.047C37.5467 71.007 37.58 70.9204 37.58 70.787V62.347ZM31.58 67.687L33.36 66.587C33.6667 66.8804 33.9733 67.207 34.28 67.567C34.5867 67.927 34.8733 68.287 35.14 68.647C35.42 68.9937 35.6333 69.3137 35.78 69.607L33.88 70.847C33.7467 70.5537 33.5533 70.227 33.3 69.867C33.0467 69.4937 32.7667 69.1204 32.46 68.747C32.1667 68.3604 31.8733 68.007 31.58 67.687ZM23.34 65.367C23.9933 65.2204 24.7333 65.0404 25.56 64.827C26.4 64.6137 27.28 64.3804 28.2 64.127C29.1333 63.8604 30.06 63.5937 30.98 63.327L31.28 65.447C30.0267 65.8337 28.7467 66.227 27.44 66.627C26.1467 67.0137 24.9733 67.3604 23.92 67.667L23.34 65.367ZM26.92 54.727H29.12V73.507H26.92V54.727ZM24.28 55.747L26.3 56.087C26.2067 56.967 26.0933 57.8537 25.96 58.747C25.8267 59.627 25.6667 60.4604 25.48 61.247C25.2933 62.0337 25.08 62.727 24.84 63.327C24.72 63.2204 24.5533 63.1004 24.34 62.967C24.1267 62.8337 23.9133 62.7004 23.7 62.567C23.4867 62.4204 23.3 62.307 23.14 62.227C23.3533 61.6937 23.5333 61.0737 23.68 60.367C23.84 59.6604 23.9667 58.9137 24.06 58.127C24.1667 57.327 24.24 56.5337 24.28 55.747ZM24.84 58.487H30.8V60.767H24.38L24.84 58.487ZM55.06 57.147H57.38V68.467H55.06V57.147ZM59.78 55.127H62.16V70.587C62.16 71.2937 62.0733 71.8337 61.9 72.207C61.74 72.5804 61.4533 72.867 61.04 73.067C60.6267 73.2537 60.0867 73.3737 59.42 73.427C58.7533 73.4937 57.96 73.527 57.04 73.527C57.0133 73.287 56.9533 73.0137 56.86 72.707C56.7667 72.4137 56.66 72.1137 56.54 71.807C56.4333 71.5137 56.32 71.2604 56.2 71.047C56.8533 71.0604 57.4733 71.0737 58.06 71.087C58.6467 71.087 59.04 71.087 59.24 71.087C59.4267 71.087 59.56 71.0537 59.64 70.987C59.7333 70.907 59.78 70.7737 59.78 70.587V55.127ZM47.96 64.267H52.56V66.367H47.96V64.267ZM51.5 64.267H53.72C53.72 64.267 53.7133 64.327 53.7 64.447C53.7 64.5537 53.7 64.6804 53.7 64.827C53.7 64.9604 53.7 65.067 53.7 65.147C53.6333 66.7604 53.56 68.0804 53.48 69.107C53.4 70.1204 53.3 70.9004 53.18 71.447C53.0733 71.9804 52.9267 72.367 52.74 72.607C52.54 72.8604 52.32 73.0404 52.08 73.147C51.84 73.2537 51.56 73.327 51.24 73.367C50.9733 73.407 50.62 73.4337 50.18 73.447C49.74 73.4604 49.2867 73.4537 48.82 73.427C48.8067 73.107 48.74 72.747 48.62 72.347C48.5 71.9604 48.3533 71.627 48.18 71.347C48.5933 71.387 48.98 71.4137 49.34 71.427C49.7133 71.4404 49.9867 71.447 50.16 71.447C50.3067 71.447 50.4267 71.4337 50.52 71.407C50.6267 71.367 50.7267 71.2937 50.82 71.187C50.94 71.0537 51.04 70.7604 51.12 70.307C51.2 69.8404 51.2733 69.1537 51.34 68.247C51.4067 67.327 51.46 66.1204 51.5 64.627V64.267ZM47.46 57.767V60.507H51.22V57.767H47.46ZM45.28 55.647H53.54V62.627H45.28V55.647ZM47.32 61.987H49.66C49.6067 63.0404 49.52 64.107 49.4 65.187C49.28 66.2537 49.08 67.2937 48.8 68.307C48.5333 69.307 48.1467 70.2537 47.64 71.147C47.1467 72.027 46.4933 72.8137 45.68 73.507C45.5067 73.2137 45.2667 72.9004 44.96 72.567C44.6533 72.2337 44.3533 71.967 44.06 71.767C44.78 71.1937 45.3467 70.527 45.76 69.767C46.1733 69.007 46.4867 68.1937 46.7 67.327C46.9133 66.4604 47.06 65.5737 47.14 64.667C47.22 63.7604 47.28 62.867 47.32 61.987ZM74.3 57.007C73.8867 57.607 73.3933 58.227 72.82 58.867C72.2467 59.507 71.6067 60.1404 70.9 60.767C70.2067 61.3937 69.4667 61.9937 68.68 62.567C67.9067 63.127 67.1 63.6404 66.26 64.107C66.1667 63.9204 66.0333 63.707 65.86 63.467C65.6867 63.227 65.5 62.9937 65.3 62.767C65.1 62.5404 64.9133 62.3404 64.74 62.167C65.9 61.567 67.0133 60.847 68.08 60.007C69.1467 59.1537 70.1 58.2537 70.94 57.307C71.7933 56.3604 72.4667 55.467 72.96 54.627H75.44C75.9867 55.4137 76.5933 56.1737 77.26 56.907C77.9267 57.6404 78.6333 58.3204 79.38 58.947C80.1267 59.5737 80.9 60.1404 81.7 60.647C82.5 61.1537 83.3067 61.5804 84.12 61.927C83.8133 62.2337 83.52 62.5804 83.24 62.967C82.9733 63.3404 82.7267 63.7137 82.5 64.087C81.7133 63.647 80.9267 63.1537 80.14 62.607C79.3667 62.047 78.6133 61.4537 77.88 60.827C77.1467 60.2004 76.4733 59.5604 75.86 58.907C75.2467 58.2537 74.7267 57.6204 74.3 57.007ZM74.44 64.627H81.14V66.767H74.44V64.627ZM65.86 70.787H82.96V72.967H65.86V70.787ZM73.24 60.347H75.78V71.947H73.24V60.347ZM68.04 63.807H70.4V71.907H68.04V63.807ZM97.86 57.147H100.04V68.467H97.86V57.147ZM101.66 55.127H103.92V70.727C103.92 71.3537 103.847 71.8404 103.7 72.187C103.567 72.547 103.32 72.8204 102.96 73.007C102.6 73.1937 102.133 73.3137 101.56 73.367C101 73.4337 100.327 73.467 99.54 73.467C99.5 73.147 99.4067 72.7537 99.26 72.287C99.1267 71.8337 98.98 71.4404 98.82 71.107C99.34 71.1204 99.8267 71.1337 100.28 71.147C100.733 71.147 101.04 71.147 101.2 71.147C101.373 71.147 101.493 71.1204 101.56 71.067C101.627 71.0004 101.66 70.887 101.66 70.727V55.127ZM85.88 57.727H97.3V59.187H85.88V57.727ZM86.88 61.787H96.48V63.107H86.88V61.787ZM86 63.707H97.22V65.227H86V63.707ZM90.64 66.207H92.64V69.987H90.64V66.207ZM90.42 54.707H92.56V64.727H90.42V54.707ZM85.88 71.187C86.84 71.1604 87.94 71.1337 89.18 71.107C90.42 71.067 91.7333 71.0204 93.12 70.967C94.52 70.9004 95.9067 70.8404 97.28 70.787L97.2 72.587C95.88 72.6404 94.54 72.6937 93.18 72.747C91.82 72.8137 90.5267 72.867 89.3 72.907C88.0733 72.9604 86.9867 73.007 86.04 73.047L85.88 71.187ZM86.98 55.787H96.26V61.187H86.92V59.887H94.22V57.107H86.98V55.787ZM88.8 68.627V69.287H94.4V68.627H88.8ZM88.8 66.907V67.567H94.4V66.907H88.8ZM86.94 65.807H96.34V70.387H86.94V65.807ZM58.8801 97.707V95.4911L64.0577 90.6971C64.498 90.271 64.8674 89.8874 65.1657 89.5465C65.4687 89.2056 65.6983 88.8718 65.8546 88.5451C66.0108 88.2137 66.089 87.8562 66.089 87.4727C66.089 87.0465 65.9919 86.6796 65.7978 86.3718C65.6036 86.0593 65.3385 85.8202 65.0023 85.6545C64.6661 85.484 64.285 85.3988 63.8588 85.3988C63.4138 85.3988 63.0255 85.4888 62.6941 85.6687C62.3626 85.8486 62.1069 86.1067 61.927 86.4428C61.7471 86.779 61.6571 87.1791 61.6571 87.6431H58.7381C58.7381 86.6914 58.9535 85.8652 59.3844 85.1644C59.8153 84.4637 60.419 83.9215 61.1955 83.538C61.972 83.1545 62.8669 82.9627 63.8801 82.9627C64.9218 82.9627 65.8285 83.1474 66.6003 83.5167C67.3768 83.8813 67.9805 84.3879 68.4114 85.0366C68.8423 85.6853 69.0577 86.4286 69.0577 87.2667C69.0577 87.8159 68.9488 88.3581 68.731 88.8931C68.5179 89.4281 68.1368 90.0224 67.5875 90.6758C67.0383 91.3245 66.2641 92.1033 65.2651 93.0124L63.1415 95.0934V95.1928H69.2495V97.707H58.8801Z" fill="white"/>
</g>
<defs>
<clipPath id="clip0_1191_183">
<rect width="125" height="125" fill="white"/>
</clipPath>
</defs>
</svg>
