<svg width="34" height="33" viewBox="0 0 34 33" fill="none" xmlns="http://www.w3.org/2000/svg">
<path d="M33.1082 4.75247L27.7969 14.9545C27.3236 15.9011 27.3236 17.0055 27.7969 17.952L33.1082 28.1541C34.5807 30.9938 31.5306 33.9913 28.7434 32.5189L18.5414 27.2075C17.5948 26.7342 16.4905 26.7342 15.5439 27.2075L5.34182 32.5189C2.50207 33.9913 -0.495432 30.9412 0.977029 28.1541L6.28841 17.952C6.7617 17.0055 6.7617 15.9011 6.28841 14.9545L0.977029 4.75247C-0.495432 1.91272 2.55466 -1.08479 5.34182 0.387673L15.5439 5.69905C16.4905 6.17235 17.5948 6.17235 18.5414 5.69905L28.7434 0.387673C31.5832 -1.08479 34.5807 1.96531 33.1082 4.75247Z" fill="white"/>
</svg>
