<svg width="85" height="86" viewBox="0 0 85 86" fill="none" xmlns="http://www.w3.org/2000/svg">
<path d="M48.4028 5.20199L55.1161 26.3973C55.7299 28.3556 57.2644 29.8915 59.2208 30.5058L80.3965 37.2254C86.2658 39.0684 86.2658 47.3623 80.3965 49.2437L59.2208 55.9633C57.2644 56.5776 55.7299 58.1135 55.1161 60.0718L48.4028 81.2671C46.5615 87.1419 38.2754 87.1419 36.3956 81.2671L29.6823 60.0718C29.0686 58.1135 27.5341 56.5776 25.5776 55.9633L4.402 49.2437C-1.46733 47.4007 -1.46733 39.1068 4.402 37.2254L25.5776 30.5058C27.5341 29.8915 29.0686 28.3556 29.6823 26.3973L36.3956 5.20199C38.237 -0.6728 46.5231 -0.6728 48.4028 5.20199Z" fill="white"/>
</svg>
