<svg width="89" height="89" viewBox="0 0 89 89" fill="none" xmlns="http://www.w3.org/2000/svg">
<path d="M50.3266 4.6974L57.3208 26.7317C57.9519 28.7827 59.5295 30.3603 61.5804 30.9914L83.6148 37.9855C89.715 39.9313 89.715 48.5557 83.6148 50.4489L61.5804 57.4431C59.5295 58.0741 57.9519 59.6518 57.3208 61.7027L50.3266 83.737C48.3809 89.8372 39.7565 89.8372 37.8633 83.737L30.8691 61.7027C30.238 59.6518 28.6604 58.0741 26.6095 57.4431L4.57515 50.4489C-1.52505 48.5031 -1.52505 39.8787 4.57515 37.9855L26.6095 30.9914C28.6604 30.3603 30.238 28.7827 30.8691 26.7317L37.8633 4.6974C39.809 -1.4028 48.4335 -1.4028 50.3266 4.6974Z" fill="white"/>
</svg>
