<svg width="251" height="167" viewBox="0 0 251 167" fill="none" xmlns="http://www.w3.org/2000/svg">
<path d="M48.4028 86.2021L55.1161 107.397C55.7299 109.356 57.2644 110.892 59.2208 111.506L80.3965 118.225C86.2658 120.069 86.2658 128.362 80.3965 130.244L59.2208 136.963C57.2644 137.578 55.7299 139.114 55.1161 141.072L48.4028 162.267C46.5615 168.142 38.2754 168.142 36.3956 162.267L29.6823 141.072C29.0686 139.114 27.5341 137.578 25.5776 136.963L4.402 130.244C-1.46733 128.401 -1.46733 120.107 4.402 118.225L25.5776 111.506C27.5341 110.892 29.0686 109.356 29.6823 107.397L36.3956 86.2021C38.237 80.3273 46.5231 80.3273 48.4028 86.2021Z" fill="white"/>
<path d="M22.2054 125.888L22.6646 125.388L23.0473 124.964L23.43 124.541L23.8126 124.156C24.3101 123.617 24.8458 123.078 25.3433 122.577L26.8739 121.038L28.4045 119.536C30.4326 117.534 32.4607 115.571 34.5271 113.646C35.5603 112.683 36.5934 111.721 37.6266 110.797C38.6598 109.835 39.693 108.911 40.7262 107.987L43.864 105.176L47.0018 102.405C55.4203 95.0899 64.0684 88.1218 72.9078 81.4617C90.5867 68.1029 109.107 56.053 128.24 45.2736C137.845 39.9224 147.603 34.9176 157.514 30.2594C160.001 29.1044 162.488 27.988 165.014 26.8716L168.764 25.1777L172.552 23.5992C175.078 22.5598 177.603 21.4819 180.129 20.4809L187.782 17.5551L189.695 16.8236L190.652 16.4771L191.609 16.1306L195.474 14.7832L199.338 13.4358C200.639 13.0123 201.902 12.5118 203.203 12.1269C208.408 10.5099 213.535 8.77753 218.816 7.39161L222.719 6.31366L224.671 5.7747L225.665 5.5052L226.66 5.27422L234.543 3.34932C235.844 3.04134 237.183 2.69485 238.484 2.42537L242.464 1.61692L250.385 0L242.694 2.57936L238.867 3.8498C237.604 4.27328 236.342 4.77375 235.079 5.23572L227.502 8.04607L226.546 8.39255L225.627 8.77753L223.752 9.54749L220.04 11.0874C215.027 13.0508 210.168 15.3607 205.308 17.5551C204.083 18.094 202.897 18.71 201.673 19.2875L198.076 21.0584L194.479 22.8293L193.56 23.2528L192.68 23.7147L190.92 24.6387L183.802 28.373C181.468 29.6434 179.134 30.9908 176.8 32.2998L173.318 34.2632L169.874 36.3421C167.578 37.728 165.282 39.0754 163.024 40.4613C153.993 46.1205 145.154 52.0877 136.506 58.3244C119.324 70.9132 102.985 84.503 87.755 99.1707C80.1401 106.485 72.7547 114.031 65.6755 121.808L63.0352 124.733L60.4331 127.698C59.553 128.66 58.7112 129.661 57.8693 130.662C57.0275 131.663 56.1473 132.625 55.3437 133.626C53.66 135.628 52.0146 137.63 50.4074 139.632L49.2212 141.133L48.0732 142.635C47.6906 143.135 47.3079 143.636 46.9252 144.136L46.6574 144.521L46.3895 144.868L46.1217 145.214L46.0451 145.291V145.368C46.0069 145.368 45.9303 145.484 45.9303 145.484L22.282 125.927L22.2054 125.888Z" fill="white"/>
</svg>
