<svg width="426" height="511" viewBox="0 0 426 511" fill="none" xmlns="http://www.w3.org/2000/svg">
<rect x="3.08105" y="51.2275" width="420.417" height="456.322" rx="23.5" fill="white" stroke="#FF5F17" stroke-width="5"/>
<path d="M62.5291 214.01V209.845H70.2291V193.395H64.1391V190.175C65.7725 189.871 67.1841 189.603 68.3741 189.37C69.5641 189.113 70.6375 188.658 71.5941 188.005H75.3741V209.845H82.3741V214.01H62.5291ZM108.624 194.69H119.054V198.47H108.624V194.69ZM108.624 203.44H119.054V207.22H108.624V203.44ZM106.454 186.045H121.434V214.745H117.199V189.825H110.479V214.745H106.454V186.045ZM103.199 212.435H123.814V216.215H103.199V212.435ZM96.0591 184.295L99.7691 185.59C99.3025 186.5 98.8125 187.433 98.2991 188.39C97.7858 189.323 97.2841 190.233 96.7941 191.12C96.3041 191.983 95.8258 192.741 95.3591 193.395L92.5241 192.24C92.9441 191.516 93.3758 190.7 93.8191 189.79C94.2625 188.856 94.6825 187.911 95.0791 186.955C95.4758 185.998 95.8025 185.111 96.0591 184.295ZM100.259 188.46L103.829 189.93C102.966 191.26 102.032 192.66 101.029 194.13C100.026 195.576 99.0108 196.965 97.9841 198.295C96.9575 199.625 96.0008 200.791 95.1141 201.795L92.5591 200.5C93.2358 199.706 93.9241 198.808 94.6241 197.805C95.3241 196.801 96.0125 195.763 96.6891 194.69C97.3891 193.616 98.0425 192.543 98.6491 191.47C99.2791 190.373 99.8158 189.37 100.259 188.46ZM90.6691 192.59L92.6641 189.72C93.2708 190.233 93.9008 190.816 94.5541 191.47C95.2075 192.1 95.8025 192.73 96.3391 193.36C96.8991 193.99 97.3191 194.573 97.5991 195.11L95.4641 198.365C95.1841 197.828 94.7758 197.221 94.2391 196.545C93.7258 195.845 93.1541 195.156 92.5241 194.48C91.8941 193.78 91.2758 193.15 90.6691 192.59ZM99.4191 196.895L102.394 195.6C102.861 196.37 103.316 197.198 103.759 198.085C104.202 198.971 104.587 199.846 104.914 200.71C105.241 201.55 105.486 202.308 105.649 202.985L102.429 204.455C102.289 203.801 102.067 203.043 101.764 202.18C101.461 201.293 101.099 200.395 100.679 199.485C100.282 198.551 99.8625 197.688 99.4191 196.895ZM90.6691 199.695C92.2791 199.648 94.2158 199.578 96.4791 199.485C98.7658 199.391 101.087 199.286 103.444 199.17L103.409 202.495C101.216 202.658 99.0341 202.821 96.8641 202.985C94.6941 203.125 92.7458 203.241 91.0191 203.335L90.6691 199.695ZM100.014 205.645L103.094 204.63C103.584 205.68 104.039 206.823 104.459 208.06C104.879 209.296 105.182 210.37 105.369 211.28L102.114 212.47C101.951 211.536 101.671 210.44 101.274 209.18C100.877 207.896 100.457 206.718 100.014 205.645ZM92.1741 204.84L95.6391 205.47C95.4525 207.15 95.1725 208.806 94.7991 210.44C94.4258 212.073 93.9941 213.45 93.5041 214.57C93.2708 214.406 92.9558 214.22 92.5591 214.01C92.1625 213.823 91.7541 213.636 91.3341 213.45C90.9375 213.263 90.5875 213.123 90.2841 213.03C90.7975 211.98 91.2058 210.731 91.5091 209.285C91.8125 207.815 92.0341 206.333 92.1741 204.84ZM96.2341 201.55H99.9441V217.16H96.2341V201.55ZM149.975 214.01C148.971 214.01 147.863 213.881 146.65 213.625C145.46 213.368 144.293 212.983 143.15 212.47C142.03 211.933 141.061 211.268 140.245 210.475L142.555 207.01C143.651 207.966 144.841 208.678 146.125 209.145C147.408 209.611 148.691 209.845 149.975 209.845C151.748 209.845 153.043 209.576 153.86 209.04C154.7 208.503 155.12 207.721 155.12 206.695C155.12 206.041 154.875 205.493 154.385 205.05C153.895 204.606 153.23 204.221 152.39 203.895C151.573 203.545 150.675 203.218 149.695 202.915C148.715 202.588 147.735 202.226 146.755 201.83C145.775 201.41 144.865 200.92 144.025 200.36C143.208 199.776 142.555 199.076 142.065 198.26C141.575 197.443 141.33 196.44 141.33 195.25C141.33 193.71 141.703 192.38 142.45 191.26C143.196 190.14 144.258 189.276 145.635 188.67C147.035 188.063 148.645 187.76 150.465 187.76C151.865 187.76 153.113 187.923 154.21 188.25C155.306 188.553 156.31 188.985 157.22 189.545C158.153 190.105 159.016 190.746 159.81 191.47L157.22 194.55C156.543 193.99 155.843 193.523 155.12 193.15C154.42 192.753 153.696 192.45 152.95 192.24C152.226 192.03 151.456 191.925 150.64 191.925C149.356 191.925 148.306 192.17 147.49 192.66C146.673 193.15 146.265 193.896 146.265 194.9C146.265 195.53 146.51 196.055 147 196.475C147.49 196.871 148.143 197.233 148.96 197.56C149.8 197.886 150.71 198.213 151.69 198.54C152.67 198.843 153.65 199.193 154.63 199.59C155.61 199.986 156.508 200.476 157.325 201.06C158.165 201.62 158.83 202.32 159.32 203.16C159.81 204 160.055 205.026 160.055 206.24C160.055 207.78 159.658 209.133 158.865 210.3C158.095 211.466 156.963 212.376 155.47 213.03C153.976 213.683 152.145 214.01 149.975 214.01ZM148.855 189.44V183.385H152.285V189.44H148.855ZM148.855 218.385V211.945H152.285V218.385H148.855ZM355.835 198.925H360.175V211.07C360.175 211.746 360.245 212.178 360.385 212.365C360.548 212.528 360.921 212.61 361.505 212.61C361.621 212.61 361.82 212.61 362.1 212.61C362.38 212.61 362.683 212.61 363.01 212.61C363.36 212.61 363.675 212.61 363.955 212.61C364.258 212.61 364.503 212.61 364.69 212.61C365.086 212.61 365.378 212.47 365.565 212.19C365.775 211.886 365.926 211.315 366.02 210.475C366.113 209.611 366.183 208.34 366.23 206.66C366.533 206.893 366.918 207.126 367.385 207.36C367.851 207.593 368.33 207.803 368.82 207.99C369.31 208.176 369.741 208.316 370.115 208.41C369.975 210.51 369.73 212.155 369.38 213.345C369.053 214.511 368.551 215.328 367.875 215.795C367.198 216.285 366.265 216.53 365.075 216.53C364.865 216.53 364.561 216.53 364.165 216.53C363.791 216.53 363.383 216.53 362.94 216.53C362.496 216.53 362.076 216.53 361.68 216.53C361.306 216.53 361.015 216.53 360.805 216.53C359.498 216.53 358.483 216.355 357.76 216.005C357.036 215.678 356.535 215.118 356.255 214.325C355.975 213.531 355.835 212.458 355.835 211.105V198.925ZM338.055 196.265H369.45V200.325H338.055V196.265ZM341.24 186.745H366.23V190.77H341.24V186.745ZM346.07 199.485H350.585C350.445 201.398 350.211 203.218 349.885 204.945C349.558 206.671 349.033 208.293 348.31 209.81C347.586 211.303 346.548 212.668 345.195 213.905C343.841 215.118 342.068 216.168 339.875 217.055C339.641 216.518 339.268 215.911 338.755 215.235C338.241 214.581 337.751 214.045 337.285 213.625C339.198 212.925 340.715 212.085 341.835 211.105C342.955 210.101 343.806 209.005 344.39 207.815C344.973 206.601 345.37 205.295 345.58 203.895C345.79 202.471 345.953 201.001 346.07 199.485Z" fill="black"/>
<path d="M195.237 151.346C198.417 151.346 201.475 151.88 204.413 152.946C207.371 154.013 210.008 155.713 212.322 158.047C214.656 160.382 216.497 163.481 217.846 167.344C219.214 171.188 219.908 175.907 219.928 181.501C219.928 186.753 219.335 191.442 218.147 195.567C216.98 199.672 215.3 203.163 213.107 206.041C210.913 208.919 208.267 211.112 205.168 212.621C202.069 214.11 198.608 214.855 194.784 214.855C190.659 214.855 187.017 214.06 183.858 212.47C180.698 210.86 178.153 208.677 176.221 205.92C174.309 203.143 173.152 200.024 172.75 196.563H185.638C186.142 198.817 187.198 200.568 188.808 201.815C190.418 203.043 192.41 203.656 194.784 203.656C198.809 203.656 201.868 201.906 203.961 198.404C206.053 194.883 207.11 190.063 207.13 183.946H206.707C205.782 185.757 204.534 187.316 202.964 188.624C201.395 189.912 199.594 190.908 197.561 191.613C195.549 192.317 193.406 192.669 191.132 192.669C187.49 192.669 184.24 191.814 181.382 190.104C178.525 188.393 176.271 186.039 174.621 183.04C172.971 180.042 172.146 176.621 172.146 172.778C172.126 168.632 173.082 164.94 175.013 161.7C176.945 158.46 179.642 155.924 183.103 154.093C186.584 152.242 190.629 151.326 195.237 151.346ZM195.328 161.609C193.295 161.609 191.484 162.092 189.895 163.058C188.325 164.024 187.077 165.322 186.152 166.952C185.246 168.582 184.803 170.403 184.824 172.415C184.824 174.448 185.266 176.279 186.152 177.909C187.057 179.519 188.285 180.807 189.834 181.773C191.404 182.718 193.195 183.191 195.207 183.191C196.716 183.191 198.115 182.91 199.403 182.346C200.691 181.783 201.807 181.008 202.753 180.022C203.719 179.016 204.474 177.859 205.017 176.551C205.56 175.243 205.832 173.854 205.832 172.385C205.812 170.433 205.349 168.642 204.444 167.012C203.538 165.382 202.29 164.074 200.701 163.088C199.111 162.102 197.32 161.609 195.328 161.609ZM251.35 151.346C254.53 151.346 257.589 151.88 260.527 152.946C263.485 154.013 266.121 155.713 268.435 158.047C270.769 160.382 272.611 163.481 273.959 167.344C275.327 171.188 276.021 175.907 276.042 181.501C276.042 186.753 275.448 191.442 274.261 195.567C273.094 199.672 271.413 203.163 269.22 206.041C267.026 208.919 264.38 211.112 261.281 212.621C258.182 214.11 254.721 214.855 250.898 214.855C246.772 214.855 243.13 214.06 239.971 212.47C236.812 210.86 234.266 208.677 232.334 205.92C230.422 203.143 229.265 200.024 228.863 196.563H241.752C242.255 198.817 243.311 200.568 244.921 201.815C246.531 203.043 248.523 203.656 250.898 203.656C254.922 203.656 257.981 201.906 260.074 198.404C262.167 194.883 263.223 190.063 263.243 183.946H262.821C261.895 185.757 260.647 187.316 259.078 188.624C257.508 189.912 255.707 190.908 253.675 191.613C251.662 192.317 249.519 192.669 247.245 192.669C243.603 192.669 240.353 191.814 237.496 190.104C234.638 188.393 232.384 186.039 230.734 183.04C229.084 180.042 228.259 176.621 228.259 172.778C228.239 168.632 229.195 164.94 231.127 161.7C233.059 158.46 235.755 155.924 239.216 154.093C242.698 152.242 246.742 151.326 251.35 151.346ZM251.441 161.609C249.409 161.609 247.598 162.092 246.008 163.058C244.438 164.024 243.191 165.322 242.265 166.952C241.359 168.582 240.917 170.403 240.937 172.415C240.937 174.448 241.379 176.279 242.265 177.909C243.17 179.519 244.398 180.807 245.947 181.773C247.517 182.718 249.308 183.191 251.32 183.191C252.83 183.191 254.228 182.91 255.516 182.346C256.804 181.783 257.921 181.008 258.866 180.022C259.832 179.016 260.587 177.859 261.13 176.551C261.674 175.243 261.945 173.854 261.945 172.385C261.925 170.433 261.462 168.642 260.557 167.012C259.651 165.382 258.404 164.074 256.814 163.088C255.224 162.102 253.433 161.609 251.441 161.609ZM307.464 151.346C310.643 151.346 313.702 151.88 316.64 152.946C319.598 154.013 322.234 155.713 324.548 158.047C326.883 160.382 328.724 163.481 330.072 167.344C331.44 171.188 332.135 175.907 332.155 181.501C332.155 186.753 331.561 191.442 330.374 195.567C329.207 199.672 327.527 203.163 325.333 206.041C323.14 208.919 320.493 211.112 317.395 212.621C314.296 214.11 310.834 214.855 307.011 214.855C302.886 214.855 299.243 214.06 296.084 212.47C292.925 210.86 290.379 208.677 288.447 205.92C286.536 203.143 285.379 200.024 284.976 196.563H297.865C298.368 198.817 299.425 200.568 301.034 201.815C302.644 203.043 304.636 203.656 307.011 203.656C311.036 203.656 314.094 201.906 316.187 198.404C318.28 194.883 319.336 190.063 319.357 183.946H318.934C318.008 185.757 316.761 187.316 315.191 188.624C313.621 189.912 311.82 190.908 309.788 191.613C307.776 192.317 305.633 192.669 303.359 192.669C299.716 192.669 296.466 191.814 293.609 190.104C290.752 188.393 288.498 186.039 286.848 183.04C285.198 180.042 284.373 176.621 284.373 172.778C284.352 168.632 285.308 164.94 287.24 161.7C289.172 158.46 291.868 155.924 295.33 154.093C298.811 152.242 302.856 151.326 307.464 151.346ZM307.554 161.609C305.522 161.609 303.711 162.092 302.121 163.058C300.551 164.024 299.304 165.322 298.378 166.952C297.473 168.582 297.03 170.403 297.05 172.415C297.05 174.448 297.493 176.279 298.378 177.909C299.284 179.519 300.511 180.807 302.061 181.773C303.63 182.718 305.421 183.191 307.434 183.191C308.943 183.191 310.341 182.91 311.629 182.346C312.917 181.783 314.034 181.008 314.98 180.022C315.946 179.016 316.7 177.859 317.244 176.551C317.787 175.243 318.059 173.854 318.059 172.385C318.038 170.433 317.576 168.642 316.67 167.012C315.765 165.382 314.517 164.074 312.927 163.088C311.337 162.102 309.547 161.609 307.554 161.609Z" fill="#FF5F17"/>
<path d="M36.8953 267.748C36.1505 267.748 35.4704 267.567 34.8548 267.203C34.2393 266.834 33.7469 266.342 33.3776 265.726C33.0144 265.111 32.8328 264.43 32.8328 263.686C32.8328 262.935 33.0144 262.255 33.3776 261.645C33.7469 261.03 34.2393 260.54 34.8548 260.177C35.4704 259.808 36.1505 259.623 36.8953 259.623C37.6463 259.623 38.3264 259.808 38.9358 260.177C39.5513 260.54 40.0407 261.03 40.4039 261.645C40.7732 262.255 40.9578 262.935 40.9578 263.686C40.9578 264.43 40.7732 265.111 40.4039 265.726C40.0407 266.342 39.5513 266.834 38.9358 267.203C38.3264 267.567 37.6463 267.748 36.8953 267.748ZM58.3823 266.072H68.4183V267.762H58.3823V266.072ZM59.8123 263.784H68.9903V265.24H59.8123V263.784ZM59.8123 261.548H68.8863V262.978H59.8123V261.548ZM63.0103 260.066H65.3503V267.06H63.0103V260.066ZM68.0543 266.072H70.4463C70.4463 266.072 70.4463 266.176 70.4463 266.384C70.4463 266.574 70.4377 266.748 70.4203 266.904C70.3683 267.996 70.3077 268.897 70.2383 269.608C70.1863 270.318 70.1083 270.864 70.0043 271.246C69.9177 271.644 69.7877 271.948 69.6143 272.156C69.441 272.364 69.233 272.52 68.9903 272.624C68.7477 272.728 68.4877 272.797 68.2103 272.832C67.9503 272.849 67.621 272.858 67.2223 272.858C66.841 272.875 66.4337 272.875 66.0003 272.858C65.983 272.563 65.9223 272.234 65.8183 271.87C65.7143 271.523 65.593 271.228 65.4543 270.986C65.7837 271.02 66.0783 271.046 66.3383 271.064C66.6157 271.081 66.8237 271.081 66.9623 271.064C67.2223 271.081 67.4217 271.012 67.5603 270.856C67.6817 270.7 67.777 270.301 67.8463 269.66C67.933 269.001 68.0023 267.909 68.0543 266.384V266.072ZM57.8883 268.204L59.7083 268.672C59.587 269.452 59.405 270.206 59.1623 270.934C58.9197 271.644 58.5383 272.234 58.0183 272.702L56.3803 271.61C56.7963 271.228 57.1257 270.726 57.3683 270.102C57.6283 269.478 57.8017 268.845 57.8883 268.204ZM65.0643 268.412L66.3123 268.022C66.555 268.351 66.763 268.724 66.9363 269.14C67.1097 269.556 67.2397 269.92 67.3263 270.232L66.0003 270.726C65.931 270.396 65.8097 270.015 65.6363 269.582C65.4803 269.148 65.2897 268.758 65.0643 268.412ZM60.3583 268.828L61.8923 268.62C61.9963 269.157 62.0657 269.755 62.1003 270.414C62.1523 271.072 62.1697 271.618 62.1523 272.052L60.4883 272.312C60.5403 271.844 60.549 271.289 60.5143 270.648C60.497 269.989 60.445 269.382 60.3583 268.828ZM62.8023 268.698L64.2323 268.36C64.4057 268.828 64.553 269.348 64.6743 269.92C64.7957 270.474 64.8737 270.951 64.9083 271.35L63.4003 271.766C63.383 271.35 63.3223 270.856 63.2183 270.284C63.1143 269.712 62.9757 269.183 62.8023 268.698ZM58.3823 259.052H69.6403V260.768H60.8263V267.008H58.3823V259.052ZM54.6123 253.02H61.1643V254.788H54.6123V253.02ZM66.4943 253.02H73.0983V254.788H66.4943V253.02ZM72.1623 249.978H75.1523V270.44C75.1523 271.133 75.0743 271.679 74.9183 272.078C74.7797 272.494 74.5023 272.823 74.0863 273.066C73.6877 273.308 73.185 273.456 72.5783 273.508C71.989 273.56 71.287 273.586 70.4723 273.586C70.4377 273.204 70.3423 272.745 70.1863 272.208C70.0303 271.67 69.857 271.22 69.6663 270.856C70.0823 270.873 70.4897 270.882 70.8883 270.882C71.3043 270.882 71.5903 270.882 71.7463 270.882C71.9023 270.864 72.0063 270.821 72.0583 270.752C72.1277 270.682 72.1623 270.57 72.1623 270.414V249.978ZM54.8983 249.978H63.1403V257.908H54.8983V255.932H60.2283V251.954H54.8983V249.978ZM73.6703 249.978V251.954H67.8203V255.906H73.6703V257.882H64.8563V249.978H73.6703ZM53.0523 249.978H55.9643V273.586H53.0523V249.978ZM88.5683 262.926L90.0763 262.458C90.371 262.891 90.6397 263.376 90.8823 263.914C91.1423 264.434 91.3157 264.893 91.4023 265.292L89.8163 265.838C89.7297 265.422 89.565 264.945 89.3223 264.408C89.097 263.87 88.8457 263.376 88.5683 262.926ZM84.2263 260.95L85.2143 259.754C85.6823 260.066 86.1677 260.438 86.6703 260.872C87.173 261.305 87.5457 261.695 87.7883 262.042L86.7483 263.42C86.5057 263.056 86.1417 262.64 85.6563 262.172C85.171 261.704 84.6943 261.296 84.2263 260.95ZM87.1123 258.09L88.9063 258.792C88.5597 259.225 88.2043 259.667 87.8403 260.118C87.4937 260.568 87.1643 260.941 86.8523 261.236L85.4743 260.638C85.7517 260.274 86.0463 259.849 86.3583 259.364C86.6703 258.878 86.9217 258.454 87.1123 258.09ZM88.8803 259.988L90.4923 260.69C90.059 261.158 89.5997 261.643 89.1143 262.146C88.629 262.648 88.1523 263.134 87.6843 263.602C87.2163 264.052 86.7743 264.451 86.3583 264.798L85.1623 264.174C85.5783 263.792 86.0117 263.359 86.4623 262.874C86.9303 262.371 87.3723 261.868 87.7883 261.366C88.2217 260.846 88.5857 260.386 88.8803 259.988ZM91.5843 265.76H93.7163V273.04H91.5843V265.76ZM83.9923 263.966C84.8243 263.914 85.7603 263.862 86.8003 263.81C87.8577 263.74 88.9757 263.662 90.1543 263.576V265.162C89.0797 265.266 88.0397 265.361 87.0343 265.448C86.029 265.517 85.0843 265.586 84.2003 265.656L83.9923 263.966ZM95.1203 262.77L96.7063 262.302C97.0183 262.787 97.313 263.324 97.5903 263.914C97.8677 264.486 98.0583 264.997 98.1623 265.448L96.5243 265.968C96.4377 265.534 96.2643 265.023 96.0043 264.434C95.7443 263.827 95.4497 263.272 95.1203 262.77ZM90.4143 260.82L91.5323 259.676C92.0523 260.022 92.5723 260.438 93.0923 260.924C93.6297 261.409 94.0283 261.851 94.2883 262.25L93.1443 263.55C92.8843 263.134 92.4943 262.674 91.9743 262.172C91.4543 261.652 90.9343 261.201 90.4143 260.82ZM93.4043 258.064L95.3023 258.766C94.9037 259.268 94.505 259.754 94.1063 260.222C93.7077 260.69 93.335 261.106 92.9883 261.47L91.5843 260.846C91.8963 260.464 92.2257 260.005 92.5723 259.468C92.919 258.93 93.1963 258.462 93.4043 258.064ZM95.2763 259.988L96.9143 260.742C96.4637 261.227 95.987 261.73 95.4843 262.25C94.9817 262.77 94.479 263.264 93.9763 263.732C93.4737 264.2 92.9883 264.616 92.5203 264.98L91.3243 264.304C91.7577 263.922 92.217 263.489 92.7023 263.004C93.205 262.501 93.6817 261.99 94.1323 261.47C94.583 260.932 94.9643 260.438 95.2763 259.988ZM90.9343 263.966C91.7317 263.931 92.6417 263.879 93.6643 263.81C94.7043 263.74 95.7963 263.671 96.9403 263.602V265.162C95.935 265.266 94.947 265.361 93.9763 265.448C93.023 265.517 92.1303 265.586 91.2983 265.656L90.9343 263.966ZM84.7983 266.202H86.6963V268.438H89.5043V270.18H84.7983V266.202ZM95.3283 266.202H97.2783V270.18H93.2743V268.438H95.3283V266.202ZM88.2823 265.76H90.3363V268.282C90.3363 268.958 90.2497 269.616 90.0763 270.258C89.903 270.899 89.5477 271.488 89.0103 272.026C88.473 272.563 87.6497 273.022 86.5403 273.404C86.419 273.144 86.2197 272.849 85.9423 272.52C85.665 272.19 85.4223 271.922 85.2143 271.714C86.1157 271.454 86.783 271.142 87.2163 270.778C87.6497 270.396 87.9357 269.989 88.0743 269.556C88.213 269.122 88.2823 268.68 88.2823 268.23V265.76ZM81.6523 253.436H88.2043V255.334H81.6523V253.436ZM93.6123 253.436H100.216V255.334H93.6123V253.436ZM99.1763 250.134H102.166V269.972C102.166 270.717 102.097 271.315 101.958 271.766C101.82 272.234 101.525 272.598 101.074 272.858C100.641 273.118 100.112 273.274 99.4883 273.326C98.8643 273.395 98.119 273.43 97.2523 273.43C97.2177 273.135 97.157 272.806 97.0703 272.442C96.9837 272.078 96.8797 271.705 96.7583 271.324C96.6543 270.96 96.533 270.648 96.3943 270.388C96.8623 270.405 97.3217 270.422 97.7723 270.44C98.2403 270.44 98.561 270.431 98.7343 270.414C98.9077 270.414 99.0203 270.379 99.0723 270.31C99.1417 270.24 99.1763 270.119 99.1763 269.946V250.134ZM81.9383 250.134H90.1803V258.61H81.9383V256.53H87.2683V252.214H81.9383V250.134ZM100.71 250.134V252.214H94.8603V256.53H100.71V258.61H91.8963V250.134H100.71ZM80.0923 250.134H83.0563V273.56H80.0923V250.134ZM106.3 258.324H129.986V261.418H106.3V258.324ZM117.896 252.318H127.152V255.308H117.896V252.318ZM115.868 249.12H119.196V259.806H115.868V249.12ZM115.868 260.3H119.196V273.534H115.868V260.3ZM118.234 265.266L119.82 262.77C120.479 262.96 121.198 263.186 121.978 263.446C122.758 263.688 123.547 263.957 124.344 264.252C125.142 264.529 125.896 264.806 126.606 265.084C127.317 265.361 127.915 265.621 128.4 265.864L126.736 268.698C126.268 268.438 125.688 268.16 124.994 267.866C124.318 267.571 123.59 267.268 122.81 266.956C122.03 266.644 121.242 266.34 120.444 266.046C119.664 265.751 118.928 265.491 118.234 265.266ZM133.132 259.39H157.208V262.796H133.132V259.39ZM172.678 253.93H182.09V256.114H172.678V253.93ZM172.678 257.414H182.09V259.598H172.678V257.414ZM169.428 260.976H184.404V263.68H169.428V260.976ZM171.3 250.004H183.052V252.656H174.29V262.432H171.3V250.004ZM169.298 270.232C170.39 270.11 171.699 269.963 173.224 269.79C174.75 269.599 176.292 269.4 177.852 269.192L177.982 271.896C176.544 272.138 175.114 272.364 173.692 272.572C172.271 272.78 170.971 272.97 169.792 273.144L169.298 270.232ZM177.982 262.432C178.329 263.732 178.797 264.945 179.386 266.072C179.976 267.181 180.721 268.143 181.622 268.958C182.524 269.772 183.59 270.405 184.82 270.856C184.595 271.064 184.352 271.324 184.092 271.636C183.832 271.965 183.581 272.303 183.338 272.65C183.113 272.996 182.931 273.308 182.792 273.586C181.423 272.979 180.262 272.156 179.308 271.116C178.372 270.076 177.592 268.862 176.968 267.476C176.344 266.089 175.833 264.555 175.434 262.874L177.982 262.432ZM181.804 263.758L184.378 265.162C183.668 265.786 182.931 266.401 182.168 267.008C181.406 267.597 180.712 268.1 180.088 268.516L178.164 267.32C178.563 267.008 178.988 266.652 179.438 266.254C179.889 265.838 180.322 265.413 180.738 264.98C181.154 264.529 181.51 264.122 181.804 263.758ZM171.378 261.756H174.368V270.648L171.378 271.142V261.756ZM161.602 261.782H167.816V264.564H161.602V261.782ZM166.412 261.782H169.506C169.506 261.782 169.498 261.86 169.48 262.016C169.48 262.154 169.48 262.319 169.48 262.51C169.48 262.683 169.472 262.839 169.454 262.978C169.333 264.988 169.203 266.635 169.064 267.918C168.943 269.2 168.787 270.197 168.596 270.908C168.406 271.618 168.18 272.13 167.92 272.442C167.626 272.771 167.314 273.005 166.984 273.144C166.672 273.3 166.308 273.404 165.892 273.456C165.546 273.525 165.086 273.56 164.514 273.56C163.96 273.577 163.362 273.568 162.72 273.534C162.703 273.1 162.616 272.606 162.46 272.052C162.304 271.497 162.105 271.029 161.862 270.648C162.4 270.682 162.894 270.708 163.344 270.726C163.795 270.743 164.142 270.752 164.384 270.752C164.575 270.752 164.74 270.734 164.878 270.7C165.034 270.648 165.173 270.561 165.294 270.44C165.468 270.249 165.615 269.868 165.736 269.296C165.875 268.706 165.996 267.84 166.1 266.696C166.222 265.552 166.326 264.07 166.412 262.25V261.782ZM161.316 256.374H164.15C164.046 257.362 163.925 258.402 163.786 259.494C163.665 260.586 163.535 261.643 163.396 262.666C163.275 263.671 163.145 264.564 163.006 265.344L160.12 265.032C160.276 264.269 160.424 263.394 160.562 262.406C160.718 261.418 160.866 260.395 161.004 259.338C161.143 258.28 161.247 257.292 161.316 256.374ZM161.524 256.374H166.23V253.306H160.588V250.446H169.064V259.234H161.524V256.374ZM36.8953 306.748C36.1505 306.748 35.4704 306.567 34.8548 306.203C34.2393 305.834 33.7469 305.342 33.3776 304.726C33.0144 304.111 32.8328 303.43 32.8328 302.686C32.8328 301.935 33.0144 301.255 33.3776 300.645C33.7469 300.03 34.2393 299.54 34.8548 299.177C35.4704 298.808 36.1505 298.623 36.8953 298.623C37.6463 298.623 38.3264 298.808 38.9358 299.177C39.5513 299.54 40.0407 300.03 40.4039 300.645C40.7732 301.255 40.9578 301.935 40.9578 302.686C40.9578 303.43 40.7732 304.111 40.4039 304.726C40.0407 305.342 39.5513 305.834 38.9358 306.203C38.3264 306.567 37.6463 306.748 36.8953 306.748ZM65.2203 302.784H68.4183V308.53C68.4183 308.946 68.479 309.214 68.6003 309.336C68.739 309.44 69.051 309.492 69.5363 309.492C69.623 309.492 69.7877 309.492 70.0303 309.492C70.273 309.492 70.533 309.492 70.8103 309.492C71.105 309.492 71.3823 309.492 71.6423 309.492C71.9023 309.492 72.093 309.492 72.2143 309.492C72.509 309.492 72.7257 309.414 72.8643 309.258C73.0203 309.102 73.133 308.79 73.2023 308.322C73.2717 307.836 73.3237 307.117 73.3583 306.164C73.5837 306.32 73.861 306.484 74.1903 306.658C74.537 306.814 74.8923 306.952 75.2563 307.074C75.6203 307.195 75.941 307.29 76.2183 307.36C76.1143 308.677 75.9323 309.7 75.6723 310.428C75.4123 311.156 75.031 311.658 74.5283 311.936C74.043 312.213 73.3757 312.352 72.5263 312.352C72.3877 312.352 72.197 312.352 71.9543 312.352C71.729 312.352 71.4777 312.352 71.2003 312.352C70.923 312.352 70.637 312.352 70.3423 312.352C70.065 312.352 69.8137 312.352 69.5883 312.352C69.363 312.352 69.1897 312.352 69.0683 312.352C68.0457 312.352 67.2483 312.23 66.6763 311.988C66.1217 311.762 65.7403 311.372 65.5323 310.818C65.3243 310.263 65.2203 309.509 65.2203 308.556V302.784ZM59.2143 303.798H62.5163C62.3603 304.872 62.1177 305.86 61.7883 306.762C61.4763 307.663 60.991 308.486 60.3323 309.232C59.6737 309.96 58.781 310.601 57.6543 311.156C56.5277 311.71 55.089 312.196 53.3383 312.612C53.2517 312.334 53.113 312.022 52.9223 311.676C52.7317 311.346 52.5237 311.017 52.2983 310.688C52.073 310.376 51.8563 310.107 51.6483 309.882C53.1737 309.622 54.4043 309.301 55.3403 308.92C56.2763 308.521 57.0043 308.07 57.5243 307.568C58.0443 307.065 58.4257 306.502 58.6683 305.878C58.911 305.236 59.093 304.543 59.2143 303.798ZM58.7983 297.896V301.38H69.2763V297.896H58.7983ZM55.7563 295.088H72.4743V304.162H55.7563V295.088ZM61.5283 288.744H68.5483V291.578H61.5283V288.744ZM57.9143 289.81L61.0343 290.824C60.5143 291.812 59.8817 292.774 59.1363 293.71C58.391 294.628 57.5937 295.486 56.7443 296.284C55.895 297.064 55.037 297.74 54.1703 298.312C54.0143 298.104 53.789 297.844 53.4943 297.532C53.1997 297.22 52.8963 296.916 52.5843 296.622C52.2723 296.31 51.995 296.067 51.7523 295.894C53.0003 295.218 54.1703 294.342 55.2623 293.268C56.3717 292.176 57.2557 291.023 57.9143 289.81ZM66.1043 288.744H69.4323C69.9003 289.662 70.4983 290.564 71.2263 291.448C71.9543 292.314 72.769 293.12 73.6703 293.866C74.5717 294.611 75.5077 295.226 76.4783 295.712C76.2357 295.902 75.9583 296.145 75.6463 296.44C75.3343 296.734 75.031 297.038 74.7363 297.35C74.459 297.644 74.225 297.922 74.0343 298.182C73.0463 297.54 72.093 296.795 71.1743 295.946C70.273 295.096 69.4497 294.186 68.7043 293.216C67.959 292.245 67.3177 291.283 66.7803 290.33H66.1043V288.744ZM91.0123 288.068L93.8983 288.536C93.3263 289.922 92.5983 291.266 91.7143 292.566C90.8477 293.866 89.7037 295.053 88.2823 296.128C88.057 295.781 87.7363 295.426 87.3203 295.062C86.9217 294.68 86.5577 294.394 86.2283 294.204C87.0777 293.632 87.8057 293.008 88.4123 292.332C89.0363 291.656 89.565 290.954 89.9983 290.226C90.4317 289.48 90.7697 288.761 91.0123 288.068ZM91.7403 289.992H96.8363V292.384H90.2843L91.7403 289.992ZM92.1303 296.024H94.3403C94.2883 296.856 94.1757 297.61 94.0023 298.286C93.829 298.962 93.5343 299.56 93.1183 300.08C92.7023 300.582 92.1043 301.016 91.3243 301.38C91.203 301.12 91.0123 300.825 90.7523 300.496C90.4923 300.166 90.2497 299.906 90.0243 299.716C90.8563 299.352 91.4023 298.866 91.6623 298.26C91.9397 297.653 92.0957 296.908 92.1303 296.024ZM95.3283 296.128H97.5903V298.234C97.5903 298.476 97.6077 298.624 97.6423 298.676C97.6943 298.728 97.8157 298.754 98.0063 298.754C98.0757 298.754 98.171 298.754 98.2923 298.754C98.431 298.754 98.5697 298.754 98.7083 298.754C98.8643 298.754 98.9683 298.754 99.0203 298.754C99.1763 298.754 99.2803 298.736 99.3323 298.702C99.4017 298.65 99.4537 298.572 99.4883 298.468C99.6963 298.606 99.991 298.745 100.372 298.884C100.754 299.022 101.1 299.126 101.412 299.196C101.291 299.768 101.066 300.166 100.736 300.392C100.407 300.6 99.9477 300.704 99.3583 300.704C99.2717 300.704 99.1503 300.704 98.9943 300.704C98.8383 300.704 98.6737 300.704 98.5003 300.704C98.327 300.704 98.1623 300.704 98.0063 300.704C97.8677 300.704 97.755 300.704 97.6683 300.704C97.027 300.704 96.533 300.634 96.1863 300.496C95.857 300.34 95.6317 300.088 95.5103 299.742C95.389 299.378 95.3283 298.875 95.3283 298.234V296.128ZM86.7743 303.694H102.946V306.268H86.7743V303.694ZM96.4203 304.552C96.8883 306.042 97.6683 307.238 98.7603 308.14C99.8523 309.024 101.386 309.604 103.362 309.882C103.05 310.176 102.721 310.584 102.374 311.104C102.045 311.624 101.794 312.083 101.62 312.482C100.078 312.152 98.795 311.658 97.7723 311C96.7497 310.341 95.9177 309.509 95.2763 308.504C94.635 307.481 94.1237 306.268 93.7423 304.864L96.4203 304.552ZM90.4923 294.256H100.112V296.7H90.4923V302.888H87.9183V294.256H87.9443H90.4923ZM99.4363 294.256H102.088V302.862H99.4363V294.256ZM95.7963 289.992H96.4463L96.8883 289.862L98.8643 291.11C98.6043 291.63 98.301 292.193 97.9543 292.8C97.625 293.389 97.2783 293.961 96.9143 294.516C96.5503 295.053 96.2037 295.538 95.8743 295.972C95.6143 295.781 95.2763 295.556 94.8603 295.296C94.4443 295.036 94.0803 294.828 93.7683 294.672C94.0283 294.29 94.2883 293.848 94.5483 293.346C94.8257 292.843 95.0683 292.34 95.2763 291.838C95.5017 291.318 95.675 290.876 95.7963 290.512V289.992ZM93.3783 301.588H96.2123C96.1257 303.044 95.9523 304.361 95.6923 305.54C95.4323 306.718 94.9903 307.758 94.3663 308.66C93.7423 309.561 92.8497 310.332 91.6883 310.974C90.527 311.632 89.0017 312.178 87.1123 312.612C86.991 312.248 86.7743 311.823 86.4623 311.338C86.1677 310.87 85.8817 310.488 85.6043 310.194C87.2857 309.882 88.629 309.483 89.6343 308.998C90.6397 308.495 91.3937 307.897 91.8963 307.204C92.4163 306.51 92.7717 305.704 92.9623 304.786C93.1703 303.85 93.309 302.784 93.3783 301.588ZM78.6103 301.198C79.6503 300.972 80.8897 300.669 82.3283 300.288C83.7843 299.906 85.249 299.508 86.7223 299.092L87.1123 301.9C85.7777 302.298 84.4257 302.697 83.0563 303.096C81.7043 303.494 80.4477 303.858 79.2863 304.188L78.6103 301.198ZM79.0263 293.06H86.9823V295.92H79.0263V293.06ZM81.7563 288.146H84.6163V309.258C84.6163 309.968 84.5383 310.532 84.3823 310.948C84.2437 311.381 83.975 311.719 83.5763 311.962C83.195 312.204 82.7097 312.369 82.1203 312.456C81.5483 312.542 80.829 312.577 79.9623 312.56C79.9277 312.178 79.8323 311.702 79.6763 311.13C79.5203 310.575 79.347 310.09 79.1563 309.674C79.6417 309.691 80.0837 309.708 80.4823 309.726C80.8983 309.726 81.1843 309.717 81.3403 309.7C81.4963 309.7 81.6003 309.674 81.6523 309.622C81.7217 309.552 81.7563 309.431 81.7563 309.258V288.146ZM105.624 301.432C106.786 301.189 108.172 300.877 109.784 300.496C111.396 300.097 113.008 299.69 114.62 299.274L114.984 302.082C113.511 302.498 112.02 302.914 110.512 303.33C109.022 303.746 107.652 304.118 106.404 304.448L105.624 301.432ZM106.04 293.034H114.672V295.92H106.04V293.034ZM109.186 288.12H112.176V309.284C112.176 310.029 112.098 310.61 111.942 311.026C111.786 311.442 111.492 311.762 111.058 311.988C110.625 312.213 110.088 312.36 109.446 312.43C108.805 312.516 108.034 312.56 107.132 312.56C107.08 312.161 106.968 311.693 106.794 311.156C106.638 310.618 106.465 310.142 106.274 309.726C106.777 309.743 107.262 309.76 107.73 309.778C108.198 309.778 108.519 309.778 108.692 309.778C108.866 309.778 108.987 309.743 109.056 309.674C109.143 309.587 109.186 309.457 109.186 309.284V288.12ZM115.296 293.944H129.778V312.326H126.684V296.908H118.26V312.508H115.296V293.944ZM117.142 300.678H127.542V303.59H117.142V300.678ZM117.246 307.62H127.62V310.61H117.246V307.62ZM120.912 288.172H123.876V309.44H120.912V288.172ZM133.314 304.682H157V307.23H133.314V304.682ZM146.912 305.566C147.415 306.554 148.134 307.342 149.07 307.932C150.006 308.504 151.185 308.928 152.606 309.206C154.045 309.466 155.761 309.622 157.754 309.674C157.529 309.882 157.295 310.15 157.052 310.48C156.827 310.826 156.619 311.173 156.428 311.52C156.238 311.884 156.082 312.213 155.96 312.508C154.262 312.404 152.771 312.204 151.488 311.91C150.206 311.632 149.088 311.234 148.134 310.714C147.181 310.211 146.358 309.57 145.664 308.79C144.988 308.01 144.39 307.082 143.87 306.008L146.912 305.566ZM148.342 303.824L149.616 302.082C150.171 302.203 150.778 302.359 151.436 302.55C152.095 302.74 152.736 302.94 153.36 303.148C153.984 303.356 154.504 303.555 154.92 303.746L153.568 305.696C153.187 305.505 152.693 305.297 152.086 305.072C151.48 304.829 150.847 304.604 150.188 304.396C149.53 304.17 148.914 303.98 148.342 303.824ZM142.362 296.206H157.416V298.364H142.362V296.206ZM150.994 294.516H153.932V299.898C153.932 300.539 153.854 301.024 153.698 301.354C153.542 301.683 153.23 301.926 152.762 302.082C152.312 302.255 151.766 302.359 151.124 302.394C150.5 302.411 149.772 302.42 148.94 302.42C148.871 302.056 148.758 301.674 148.602 301.276C148.446 300.86 148.282 300.487 148.108 300.158C148.611 300.175 149.105 300.184 149.59 300.184C150.093 300.184 150.414 300.184 150.552 300.184C150.726 300.184 150.838 300.158 150.89 300.106C150.96 300.054 150.994 299.958 150.994 299.82V294.516ZM132.976 295.868H140.256V298.286H132.976V295.868ZM138.748 288.094H141.556V303.07H138.748V288.094ZM134.198 288.848H136.798V292.124H140.36V294.49H134.198V288.848ZM143.948 299.196L146.002 298C146.47 298.381 146.938 298.814 147.406 299.3C147.874 299.785 148.23 300.236 148.472 300.652L146.262 301.952C146.054 301.553 145.725 301.094 145.274 300.574C144.841 300.054 144.399 299.594 143.948 299.196ZM143.324 291.942L145.014 291.318C145.552 291.63 146.106 292.02 146.678 292.488C147.25 292.956 147.692 293.38 148.004 293.762L146.236 294.438C145.959 294.056 145.534 293.632 144.962 293.164C144.408 292.696 143.862 292.288 143.324 291.942ZM145.976 291.006L147.458 290.226C147.892 290.434 148.342 290.685 148.81 290.98C149.278 291.257 149.72 291.552 150.136 291.864C150.552 292.158 150.89 292.444 151.15 292.722L149.59 293.528C149.348 293.268 149.027 292.99 148.628 292.696C148.23 292.384 147.796 292.08 147.328 291.786C146.878 291.474 146.427 291.214 145.976 291.006ZM153.724 289.368H154.244L154.738 289.264L156.35 290.07C155.778 291.058 155.059 291.907 154.192 292.618C153.326 293.328 152.338 293.935 151.228 294.438C150.119 294.923 148.923 295.322 147.64 295.634C146.358 295.928 145.032 296.162 143.662 296.336C143.558 296.041 143.385 295.703 143.142 295.322C142.917 294.94 142.7 294.628 142.492 294.386C143.723 294.282 144.91 294.117 146.054 293.892C147.216 293.649 148.29 293.337 149.278 292.956C150.284 292.574 151.168 292.115 151.93 291.578C152.693 291.04 153.291 290.408 153.724 289.68V289.368ZM149.2 288.094L151.748 288.666C150.708 289.636 149.469 290.468 148.03 291.162C146.609 291.855 144.936 292.462 143.012 292.982C142.856 292.704 142.622 292.384 142.31 292.02C142.016 291.656 141.747 291.378 141.504 291.188C143.307 290.824 144.85 290.382 146.132 289.862C147.432 289.324 148.455 288.735 149.2 288.094ZM148.602 289.368H154.53V291.058H146.288L148.602 289.368ZM134.536 297.116H137.292V298.442C137.292 298.84 137.232 299.36 137.11 300.002C137.006 300.643 136.807 301.302 136.512 301.978C136.218 302.654 135.776 303.234 135.186 303.72C135.013 303.581 134.779 303.425 134.484 303.252C134.207 303.078 133.921 302.914 133.626 302.758C133.332 302.602 133.063 302.48 132.82 302.394C133.323 301.995 133.696 301.544 133.938 301.042C134.181 300.522 134.337 300.019 134.406 299.534C134.493 299.031 134.536 298.632 134.536 298.338V297.116ZM143.376 302.264H146.47V304.63C146.47 305.254 146.375 305.886 146.184 306.528C146.011 307.169 145.682 307.802 145.196 308.426C144.711 309.032 144.018 309.604 143.116 310.142C142.215 310.679 141.054 311.156 139.632 311.572C138.211 312.005 136.46 312.352 134.38 312.612C134.207 312.23 133.956 311.788 133.626 311.286C133.297 310.8 132.985 310.384 132.69 310.038C134.545 309.83 136.105 309.57 137.37 309.258C138.636 308.946 139.658 308.599 140.438 308.218C141.236 307.836 141.842 307.446 142.258 307.048C142.692 306.632 142.986 306.216 143.142 305.8C143.298 305.366 143.376 304.95 143.376 304.552V302.264ZM160.172 298.39H184.248V301.796H160.172V298.39ZM199.718 292.93H209.13V295.114H199.718V292.93ZM199.718 296.414H209.13V298.598H199.718V296.414ZM196.468 299.976H211.444V302.68H196.468V299.976ZM198.34 289.004H210.092V291.656H201.33V301.432H198.34V289.004ZM196.338 309.232C197.43 309.11 198.739 308.963 200.264 308.79C201.79 308.599 203.332 308.4 204.892 308.192L205.022 310.896C203.584 311.138 202.154 311.364 200.732 311.572C199.311 311.78 198.011 311.97 196.832 312.144L196.338 309.232ZM205.022 301.432C205.369 302.732 205.837 303.945 206.426 305.072C207.016 306.181 207.761 307.143 208.662 307.958C209.564 308.772 210.63 309.405 211.86 309.856C211.635 310.064 211.392 310.324 211.132 310.636C210.872 310.965 210.621 311.303 210.378 311.65C210.153 311.996 209.971 312.308 209.832 312.586C208.463 311.979 207.302 311.156 206.348 310.116C205.412 309.076 204.632 307.862 204.008 306.476C203.384 305.089 202.873 303.555 202.474 301.874L205.022 301.432ZM208.844 302.758L211.418 304.162C210.708 304.786 209.971 305.401 209.208 306.008C208.446 306.597 207.752 307.1 207.128 307.516L205.204 306.32C205.603 306.008 206.028 305.652 206.478 305.254C206.929 304.838 207.362 304.413 207.778 303.98C208.194 303.529 208.55 303.122 208.844 302.758ZM198.418 300.756H201.408V309.648L198.418 310.142V300.756ZM188.642 300.782H194.856V303.564H188.642V300.782ZM193.452 300.782H196.546C196.546 300.782 196.538 300.86 196.52 301.016C196.52 301.154 196.52 301.319 196.52 301.51C196.52 301.683 196.512 301.839 196.494 301.978C196.373 303.988 196.243 305.635 196.104 306.918C195.983 308.2 195.827 309.197 195.636 309.908C195.446 310.618 195.22 311.13 194.96 311.442C194.666 311.771 194.354 312.005 194.024 312.144C193.712 312.3 193.348 312.404 192.932 312.456C192.586 312.525 192.126 312.56 191.554 312.56C191 312.577 190.402 312.568 189.76 312.534C189.743 312.1 189.656 311.606 189.5 311.052C189.344 310.497 189.145 310.029 188.902 309.648C189.44 309.682 189.934 309.708 190.384 309.726C190.835 309.743 191.182 309.752 191.424 309.752C191.615 309.752 191.78 309.734 191.918 309.7C192.074 309.648 192.213 309.561 192.334 309.44C192.508 309.249 192.655 308.868 192.776 308.296C192.915 307.706 193.036 306.84 193.14 305.696C193.262 304.552 193.366 303.07 193.452 301.25V300.782ZM188.356 295.374H191.19C191.086 296.362 190.965 297.402 190.826 298.494C190.705 299.586 190.575 300.643 190.436 301.666C190.315 302.671 190.185 303.564 190.046 304.344L187.16 304.032C187.316 303.269 187.464 302.394 187.602 301.406C187.758 300.418 187.906 299.395 188.044 298.338C188.183 297.28 188.287 296.292 188.356 295.374ZM188.564 295.374H193.27V292.306H187.628V289.446H196.104V298.234H188.564V295.374ZM36.8953 345.748C36.1505 345.748 35.4704 345.567 34.8548 345.203C34.2393 344.834 33.7469 344.342 33.3776 343.726C33.0144 343.111 32.8328 342.43 32.8328 341.686C32.8328 340.935 33.0144 340.255 33.3776 339.645C33.7469 339.03 34.2393 338.54 34.8548 338.177C35.4704 337.808 36.1505 337.623 36.8953 337.623C37.6463 337.623 38.3264 337.808 38.9358 338.177C39.5513 338.54 40.0407 339.03 40.4039 339.645C40.7732 340.255 40.9578 340.935 40.9578 341.686C40.9578 342.43 40.7732 343.111 40.4039 343.726C40.0407 344.342 39.5513 344.834 38.9358 345.203C38.3264 345.567 37.6463 345.748 36.8953 345.748ZM61.2163 341.004H74.8663V351.404H71.8763V343.838H64.0763V351.534H61.2163V341.004ZM72.7863 327.12L75.1783 329.564C73.913 330.049 72.509 330.474 70.9663 330.838C69.4237 331.184 67.8377 331.47 66.2083 331.696C64.5963 331.921 63.019 332.103 61.4763 332.242C61.4243 331.878 61.303 331.436 61.1123 330.916C60.939 330.378 60.7657 329.936 60.5923 329.59C61.7017 329.468 62.8197 329.33 63.9463 329.174C65.0903 329.018 66.1997 328.836 67.2743 328.628C68.349 328.42 69.3543 328.194 70.2903 327.952C71.2263 327.692 72.0583 327.414 72.7863 327.12ZM66.5463 330.058H69.5103V342.642H66.5463V330.058ZM59.6043 334.712H76.1663V337.676H59.6043V334.712ZM63.2703 347.634H73.1243V350.468H63.2703V347.634ZM53.1823 329.72L54.9503 327.458C55.4357 327.7 55.9817 327.978 56.5883 328.29C57.195 328.602 57.7843 328.914 58.3563 329.226C58.9457 329.538 59.4223 329.815 59.7863 330.058L57.9403 332.58C57.5937 332.32 57.143 332.025 56.5883 331.696C56.0337 331.366 55.453 331.028 54.8463 330.682C54.2397 330.318 53.685 329.997 53.1823 329.72ZM51.9343 336.922L53.6243 334.608C54.1097 334.816 54.6643 335.076 55.2883 335.388C55.9123 335.7 56.519 336.012 57.1083 336.324C57.6977 336.618 58.1743 336.887 58.5383 337.13L56.7963 339.73C56.4497 339.47 55.9903 339.175 55.4183 338.846C54.8637 338.516 54.2743 338.178 53.6503 337.832C53.0263 337.485 52.4543 337.182 51.9343 336.922ZM52.3243 349.142C52.7923 348.483 53.3037 347.712 53.8583 346.828C54.4303 345.926 55.011 344.973 55.6003 343.968C56.1897 342.945 56.7443 341.931 57.2643 340.926L59.5523 343.006C59.1017 343.907 58.6163 344.834 58.0963 345.788C57.5937 346.741 57.0737 347.677 56.5363 348.596C56.0163 349.514 55.4877 350.398 54.9503 351.248L52.3243 349.142ZM79.5723 343.942H91.7143V346.152H79.5723V343.942ZM79.0003 331.566H92.0003V333.828H79.0003V331.566ZM84.1483 329.746H86.9823V348.388H84.1483V329.746ZM78.8443 348.076C79.9363 348.006 81.1843 347.92 82.5883 347.816C83.9923 347.712 85.4743 347.599 87.0343 347.478C88.6117 347.339 90.1803 347.2 91.7403 347.062L91.7663 349.428C90.293 349.584 88.8023 349.74 87.2943 349.896C85.8037 350.052 84.365 350.19 82.9783 350.312C81.609 350.45 80.3523 350.58 79.2083 350.702L78.8443 348.076ZM82.1463 339.808V340.978H89.0103V339.808H82.1463ZM82.1463 336.792V337.962H89.0103V336.792H82.1463ZM79.6763 334.842H91.5843V342.928H79.6763V334.842ZM90.3363 327.276L91.6883 329.59C90.5963 329.815 89.3657 330.014 87.9963 330.188C86.6443 330.344 85.2577 330.474 83.8363 330.578C82.415 330.664 81.0543 330.725 79.7543 330.76C79.7023 330.43 79.607 330.058 79.4683 329.642C79.347 329.208 79.2083 328.836 79.0523 328.524C80.023 328.472 81.0197 328.411 82.0423 328.342C83.065 328.255 84.0703 328.16 85.0583 328.056C86.0637 327.952 87.0083 327.839 87.8923 327.718C88.7937 327.579 89.6083 327.432 90.3363 327.276ZM91.9743 333.022H100.996V335.882H91.9743V333.022ZM99.7223 333.022H102.712C102.712 333.022 102.712 333.108 102.712 333.282C102.712 333.455 102.712 333.654 102.712 333.88C102.712 334.088 102.712 334.261 102.712 334.4C102.643 337.069 102.574 339.34 102.504 341.212C102.435 343.066 102.357 344.6 102.27 345.814C102.201 347.01 102.088 347.946 101.932 348.622C101.794 349.298 101.62 349.783 101.412 350.078C101.118 350.511 100.806 350.814 100.476 350.988C100.164 351.178 99.7917 351.317 99.3583 351.404C98.9597 351.473 98.4743 351.508 97.9023 351.508C97.3303 351.525 96.7323 351.525 96.1083 351.508C96.091 351.074 95.9957 350.572 95.8223 350C95.6663 349.428 95.467 348.934 95.2243 348.518C95.779 348.57 96.2903 348.604 96.7583 348.622C97.2263 348.639 97.5817 348.648 97.8243 348.648C98.0323 348.648 98.2057 348.613 98.3443 348.544C98.483 348.474 98.613 348.362 98.7343 348.206C98.873 347.998 98.9943 347.599 99.0983 347.01C99.2023 346.403 99.289 345.545 99.3583 344.436C99.445 343.309 99.5143 341.862 99.5663 340.094C99.6357 338.326 99.6877 336.185 99.7223 333.672V333.022ZM94.4703 327.562H97.4603C97.4603 329.78 97.4343 331.886 97.3823 333.88C97.3477 335.873 97.235 337.754 97.0443 339.522C96.871 341.272 96.5677 342.902 96.1343 344.41C95.7183 345.9 95.129 347.261 94.3663 348.492C93.6037 349.722 92.6243 350.806 91.4283 351.742C91.2723 351.482 91.0643 351.204 90.8043 350.91C90.5617 350.615 90.3017 350.329 90.0243 350.052C89.7643 349.792 89.5043 349.575 89.2443 349.402C90.3363 348.57 91.2203 347.616 91.8963 346.542C92.5723 345.45 93.0923 344.245 93.4563 342.928C93.8203 341.593 94.0717 340.137 94.2103 338.56C94.349 336.965 94.427 335.258 94.4443 333.438C94.4617 331.6 94.4703 329.642 94.4703 327.562ZM121.224 341.16H124.006V349.792H121.224V341.16ZM119.82 334.296V336.142H125.644V334.296H119.82ZM117.064 331.93H128.53V338.508H117.064V331.93ZM115.764 339.652H129.674V351.482H126.658V342.148H118.624V351.508H115.764V339.652ZM117.402 343.864H128.218V346.204H117.402V343.864ZM117.428 347.972H128.244V350.468H117.428V347.972ZM115.634 328.212H129.752V330.838H115.634V328.212ZM106.378 331.956H114.178V334.764H106.378V331.956ZM109.524 327.146H112.566V333.256H109.524V327.146ZM112.826 338.014C113.017 338.135 113.277 338.334 113.606 338.612C113.936 338.889 114.291 339.192 114.672 339.522C115.054 339.834 115.4 340.128 115.712 340.406C116.024 340.683 116.241 340.882 116.362 341.004L114.542 343.526C114.352 343.248 114.1 342.928 113.788 342.564C113.494 342.2 113.182 341.827 112.852 341.446C112.523 341.064 112.202 340.709 111.89 340.38C111.596 340.033 111.327 339.747 111.084 339.522L112.826 338.014ZM113.034 331.956H113.632L114.152 331.826L115.894 332.944C115.305 334.625 114.525 336.237 113.554 337.78C112.601 339.305 111.552 340.692 110.408 341.94C109.264 343.188 108.086 344.219 106.872 345.034C106.803 344.756 106.673 344.427 106.482 344.046C106.309 343.647 106.127 343.266 105.936 342.902C105.746 342.538 105.572 342.26 105.416 342.07C106.508 341.428 107.548 340.605 108.536 339.6C109.542 338.577 110.434 337.459 111.214 336.246C112.012 335.015 112.618 333.767 113.034 332.502V331.956ZM109.524 340.848L112.566 337.182V351.56H109.524V340.848ZM143.506 337.754H146.652V341.498H143.506V337.754ZM143.376 341.134L145.898 342.226C145.257 342.884 144.512 343.491 143.662 344.046C142.813 344.6 141.894 345.112 140.906 345.58C139.918 346.03 138.887 346.429 137.812 346.776C136.738 347.105 135.646 347.374 134.536 347.582C134.346 347.252 134.077 346.854 133.73 346.386C133.401 345.918 133.08 345.536 132.768 345.242C133.826 345.086 134.874 344.878 135.914 344.618C136.954 344.34 137.934 344.028 138.852 343.682C139.788 343.335 140.638 342.954 141.4 342.538C142.18 342.104 142.839 341.636 143.376 341.134ZM147.614 341.238C148.325 343.248 149.478 344.895 151.072 346.178C152.667 347.46 154.773 348.336 157.39 348.804C157.182 349.012 156.957 349.272 156.714 349.584C156.472 349.913 156.238 350.251 156.012 350.598C155.804 350.944 155.631 351.256 155.492 351.534C153.551 351.1 151.896 350.45 150.526 349.584C149.157 348.734 148.004 347.66 147.068 346.36C146.132 345.06 145.361 343.534 144.754 341.784L147.614 341.238ZM153.854 342.85L156.272 344.696C155.735 345.025 155.154 345.354 154.53 345.684C153.906 345.996 153.291 346.29 152.684 346.568C152.095 346.828 151.532 347.062 150.994 347.27L148.966 345.58C149.469 345.354 150.015 345.086 150.604 344.774C151.211 344.462 151.8 344.132 152.372 343.786C152.962 343.439 153.456 343.127 153.854 342.85ZM135.992 348.752C137.015 348.648 138.176 348.535 139.476 348.414C140.776 348.275 142.146 348.128 143.584 347.972C145.04 347.798 146.479 347.634 147.9 347.478L147.978 350.026C146.626 350.199 145.257 350.364 143.87 350.52C142.501 350.693 141.175 350.858 139.892 351.014C138.627 351.17 137.466 351.308 136.408 351.43L135.992 348.752ZM133.444 340.198H156.87V342.876H133.444V340.198ZM140.958 331.54L156.61 330.084L156.922 332.606L141.27 334.14L140.958 331.54ZM150.006 328.966L151.332 327.172C151.818 327.276 152.329 327.414 152.866 327.588C153.404 327.744 153.924 327.917 154.426 328.108C154.946 328.281 155.38 328.446 155.726 328.602L154.348 330.578C154.019 330.387 153.603 330.196 153.1 330.006C152.615 329.798 152.095 329.607 151.54 329.434C151.003 329.243 150.492 329.087 150.006 328.966ZM145.196 327.302H148.29C148.377 328.602 148.594 329.824 148.94 330.968C149.304 332.112 149.746 333.117 150.266 333.984C150.804 334.833 151.376 335.5 151.982 335.986C152.606 336.471 153.239 336.705 153.88 336.688C154.21 336.688 154.444 336.506 154.582 336.142C154.721 335.778 154.825 335.145 154.894 334.244C155.224 334.521 155.614 334.781 156.064 335.024C156.532 335.266 156.957 335.448 157.338 335.57C157.217 336.679 157.009 337.528 156.714 338.118C156.42 338.707 156.03 339.114 155.544 339.34C155.076 339.548 154.478 339.652 153.75 339.652C152.589 339.652 151.514 339.34 150.526 338.716C149.556 338.092 148.689 337.216 147.926 336.09C147.181 334.963 146.574 333.654 146.106 332.164C145.638 330.673 145.335 329.052 145.196 327.302ZM139.372 327.12L142.284 328.108C141.695 329.165 140.984 330.188 140.152 331.176C139.32 332.146 138.436 333.048 137.5 333.88C136.564 334.694 135.62 335.405 134.666 336.012C134.51 335.821 134.294 335.578 134.016 335.284C133.756 334.989 133.479 334.694 133.184 334.4C132.907 334.105 132.664 333.862 132.456 333.672C133.826 332.944 135.134 331.999 136.382 330.838C137.63 329.676 138.627 328.437 139.372 327.12ZM136.98 331.956L139.086 329.85L139.97 330.11V339.288H136.98V331.956ZM139.034 345.372L141.088 343.318L142.024 343.604V349.714H139.034V345.372ZM160.172 337.39H184.248V340.796H160.172V337.39ZM204.788 328.836L206.842 327.12C207.241 327.38 207.657 327.683 208.09 328.03C208.541 328.376 208.957 328.723 209.338 329.07C209.737 329.416 210.058 329.728 210.3 330.006L208.09 331.904C207.882 331.592 207.588 331.262 207.206 330.916C206.842 330.552 206.444 330.188 206.01 329.824C205.594 329.46 205.187 329.13 204.788 328.836ZM187.55 331.566H210.95V334.608H187.55V331.566ZM188.538 337.572H199.796V340.588H188.538V337.572ZM192.464 339.288H195.584V348.102H192.464V339.288ZM187.55 347.686C188.59 347.512 189.812 347.313 191.216 347.088C192.638 346.845 194.137 346.585 195.714 346.308C197.309 346.03 198.895 345.744 200.472 345.45L200.68 348.232C199.259 348.544 197.82 348.856 196.364 349.168C194.908 349.462 193.504 349.748 192.152 350.026C190.8 350.32 189.552 350.589 188.408 350.832L187.55 347.686ZM200.342 327.224H203.696C203.644 329.373 203.67 331.47 203.774 333.516C203.896 335.561 204.086 337.476 204.346 339.262C204.606 341.047 204.918 342.616 205.282 343.968C205.646 345.32 206.045 346.377 206.478 347.14C206.929 347.902 207.406 348.284 207.908 348.284C208.203 348.284 208.42 347.911 208.558 347.166C208.714 346.42 208.827 345.224 208.896 343.578C209.26 343.942 209.694 344.297 210.196 344.644C210.716 344.99 211.193 345.242 211.626 345.398C211.488 347.044 211.254 348.318 210.924 349.22C210.612 350.104 210.188 350.71 209.65 351.04C209.13 351.386 208.454 351.56 207.622 351.56C206.686 351.56 205.854 351.239 205.126 350.598C204.398 349.956 203.766 349.072 203.228 347.946C202.691 346.802 202.24 345.458 201.876 343.916C201.512 342.373 201.218 340.7 200.992 338.898C200.767 337.078 200.602 335.18 200.498 333.204C200.394 331.228 200.342 329.234 200.342 327.224ZM36.8953 384.748C36.1505 384.748 35.4704 384.567 34.8548 384.203C34.2393 383.834 33.7469 383.342 33.3776 382.726C33.0144 382.111 32.8328 381.43 32.8328 380.686C32.8328 379.935 33.0144 379.255 33.3776 378.645C33.7469 378.03 34.2393 377.54 34.8548 377.177C35.4704 376.808 36.1505 376.623 36.8953 376.623C37.6463 376.623 38.3264 376.808 38.9358 377.177C39.5513 377.54 40.0407 378.03 40.4039 378.645C40.7732 379.255 40.9578 379.935 40.9578 380.686C40.9578 381.43 40.7732 382.111 40.4039 382.726C40.0407 383.342 39.5513 383.834 38.9358 384.203C38.3264 384.567 37.6463 384.748 36.8953 384.748Z" fill="black"/>
<path d="M71.7463 366.198L73.6963 368.668C72.3443 368.893 70.8797 369.084 69.3023 369.24C67.7423 369.396 66.1303 369.526 64.4663 369.63C62.8023 369.734 61.1297 369.82 59.4483 369.89C57.767 369.959 56.1377 370.002 54.5603 370.02C54.543 369.638 54.465 369.205 54.3263 368.72C54.1877 368.217 54.049 367.801 53.9103 367.472C55.4703 367.454 57.065 367.411 58.6943 367.342C60.3237 367.255 61.927 367.16 63.5043 367.056C65.0817 366.952 66.5723 366.83 67.9763 366.692C69.3803 366.536 70.637 366.371 71.7463 366.198ZM62.3603 368.746H65.4803V390.56H62.3603V368.746ZM52.4023 371.528H75.6723V374.336H52.4023V371.528ZM57.5243 375.168H60.4103V388.896H57.5243V375.168ZM52.7403 378.054H59.1103V380.784H52.7403V378.054ZM51.9863 384.996C52.8183 384.77 53.8237 384.476 55.0023 384.112C56.181 383.73 57.3857 383.34 58.6163 382.942L59.1103 385.386C58.1223 385.802 57.1257 386.226 56.1203 386.66C55.1323 387.093 54.1963 387.483 53.3123 387.83L51.9863 384.996ZM73.6183 377.118L75.7243 379.38C74.7883 379.917 73.7743 380.428 72.6823 380.914C71.6077 381.382 70.5677 381.798 69.5623 382.162C69.493 381.867 69.363 381.512 69.1723 381.096C68.999 380.68 68.8257 380.324 68.6523 380.03C69.2417 379.77 69.8397 379.475 70.4463 379.146C71.053 378.816 71.625 378.478 72.1623 378.132C72.717 377.785 73.2023 377.447 73.6183 377.118ZM67.4303 375.194H70.3423V384.996C70.3423 385.429 70.377 385.706 70.4463 385.828C70.533 385.932 70.7323 385.984 71.0443 385.984C71.0963 385.984 71.2003 385.984 71.3563 385.984C71.5297 385.984 71.703 385.984 71.8763 385.984C72.067 385.984 72.249 385.984 72.4223 385.984C72.5957 385.984 72.717 385.984 72.7863 385.984C72.977 385.984 73.1243 385.923 73.2283 385.802C73.3323 385.663 73.4017 385.412 73.4363 385.048C73.4883 384.684 73.5317 384.138 73.5663 383.41C73.861 383.635 74.2597 383.86 74.7623 384.086C75.2823 384.294 75.7417 384.441 76.1403 384.528C76.0537 385.62 75.8977 386.469 75.6723 387.076C75.447 387.665 75.1263 388.081 74.7103 388.324C74.2943 388.584 73.7483 388.714 73.0723 388.714C72.951 388.714 72.769 388.714 72.5263 388.714C72.301 388.714 72.0583 388.714 71.7983 388.714C71.5383 388.714 71.2957 388.714 71.0703 388.714C70.845 388.714 70.6717 388.714 70.5503 388.714C69.7183 388.714 69.077 388.601 68.6263 388.376C68.1757 388.15 67.8637 387.769 67.6903 387.232C67.517 386.677 67.4303 385.932 67.4303 384.996V375.194ZM98.7863 366.198L100.736 368.668C99.3843 368.893 97.9197 369.084 96.3423 369.24C94.7823 369.396 93.1703 369.526 91.5063 369.63C89.8423 369.734 88.1697 369.82 86.4883 369.89C84.807 369.959 83.1777 370.002 81.6003 370.02C81.583 369.638 81.505 369.205 81.3663 368.72C81.2277 368.217 81.089 367.801 80.9503 367.472C82.5103 367.454 84.105 367.411 85.7343 367.342C87.3637 367.255 88.967 367.16 90.5443 367.056C92.1217 366.952 93.6123 366.83 95.0163 366.692C96.4203 366.536 97.677 366.371 98.7863 366.198ZM89.4003 368.746H92.5203V390.56H89.4003V368.746ZM79.4423 371.528H102.712V374.336H79.4423V371.528ZM84.5643 375.168H87.4503V388.896H84.5643V375.168ZM79.7803 378.054H86.1503V380.784H79.7803V378.054ZM79.0263 384.996C79.8583 384.77 80.8637 384.476 82.0423 384.112C83.221 383.73 84.4257 383.34 85.6563 382.942L86.1503 385.386C85.1623 385.802 84.1657 386.226 83.1603 386.66C82.1723 387.093 81.2363 387.483 80.3523 387.83L79.0263 384.996ZM100.658 377.118L102.764 379.38C101.828 379.917 100.814 380.428 99.7223 380.914C98.6477 381.382 97.6077 381.798 96.6023 382.162C96.533 381.867 96.403 381.512 96.2123 381.096C96.039 380.68 95.8657 380.324 95.6923 380.03C96.2817 379.77 96.8797 379.475 97.4863 379.146C98.093 378.816 98.665 378.478 99.2023 378.132C99.757 377.785 100.242 377.447 100.658 377.118ZM94.4703 375.194H97.3823V384.996C97.3823 385.429 97.417 385.706 97.4863 385.828C97.573 385.932 97.7723 385.984 98.0843 385.984C98.1363 385.984 98.2403 385.984 98.3963 385.984C98.5697 385.984 98.743 385.984 98.9163 385.984C99.107 385.984 99.289 385.984 99.4623 385.984C99.6357 385.984 99.757 385.984 99.8263 385.984C100.017 385.984 100.164 385.923 100.268 385.802C100.372 385.663 100.442 385.412 100.476 385.048C100.528 384.684 100.572 384.138 100.606 383.41C100.901 383.635 101.3 383.86 101.802 384.086C102.322 384.294 102.782 384.441 103.18 384.528C103.094 385.62 102.938 386.469 102.712 387.076C102.487 387.665 102.166 388.081 101.75 388.324C101.334 388.584 100.788 388.714 100.112 388.714C99.991 388.714 99.809 388.714 99.5663 388.714C99.341 388.714 99.0983 388.714 98.8383 388.714C98.5783 388.714 98.3357 388.714 98.1103 388.714C97.885 388.714 97.7117 388.714 97.5903 388.714C96.7583 388.714 96.117 388.601 95.6663 388.376C95.2157 388.15 94.9037 387.769 94.7303 387.232C94.557 386.677 94.4703 385.932 94.4703 384.996V375.194ZM106.144 370.982H114.724V373.868H106.144V370.982ZM109.16 366.12H112.046V390.534H109.16V366.12ZM109.134 373.114L110.798 373.816C110.625 374.821 110.4 375.844 110.122 376.884C109.862 377.924 109.55 378.946 109.186 379.952C108.84 380.957 108.458 381.893 108.042 382.76C107.644 383.626 107.219 384.372 106.768 384.996C106.682 384.684 106.56 384.337 106.404 383.956C106.248 383.557 106.075 383.176 105.884 382.812C105.694 382.43 105.52 382.092 105.364 381.798C105.78 381.312 106.17 380.732 106.534 380.056C106.916 379.38 107.271 378.652 107.6 377.872C107.947 377.074 108.25 376.268 108.51 375.454C108.77 374.639 108.978 373.859 109.134 373.114ZM111.838 374.544C111.977 374.717 112.185 374.994 112.462 375.376C112.757 375.757 113.06 376.173 113.372 376.624C113.702 377.074 113.996 377.499 114.256 377.898C114.516 378.279 114.707 378.556 114.828 378.73L113.034 380.836C112.913 380.489 112.74 380.082 112.514 379.614C112.289 379.146 112.046 378.66 111.786 378.158C111.544 377.655 111.301 377.187 111.058 376.754C110.833 376.303 110.634 375.93 110.46 375.636L111.838 374.544ZM115.218 366.978H126.762V369.578H115.218V366.978ZM117.194 372.23L118.52 370.124C119.37 370.332 120.271 370.609 121.224 370.956C122.178 371.302 123.088 371.675 123.954 372.074C124.838 372.455 125.566 372.836 126.138 373.218L124.708 375.584C124.171 375.202 123.478 374.804 122.628 374.388C121.779 373.972 120.878 373.573 119.924 373.192C118.971 372.793 118.061 372.472 117.194 372.23ZM114.802 373.92H127.646V376.624H117.61V390.534H114.802V373.92ZM116.492 378.34H127.724V380.992H116.492V378.34ZM116.492 382.838H127.724V385.516H116.492V382.838ZM126.268 373.92H129.18V387.44C129.18 388.098 129.111 388.627 128.972 389.026C128.834 389.442 128.565 389.771 128.166 390.014C127.768 390.239 127.3 390.378 126.762 390.43C126.225 390.499 125.592 390.534 124.864 390.534C124.847 390.135 124.752 389.658 124.578 389.104C124.405 388.566 124.223 388.116 124.032 387.752C124.414 387.769 124.786 387.778 125.15 387.778C125.514 387.778 125.757 387.778 125.878 387.778C126.138 387.778 126.268 387.656 126.268 387.414V373.92ZM120.444 375.298H123.278V390.404H120.444V375.298ZM125.67 366.978H126.372L126.944 366.822L128.868 368.252C128.331 368.91 127.716 369.569 127.022 370.228C126.329 370.886 125.592 371.51 124.812 372.1C124.032 372.672 123.244 373.166 122.446 373.582C122.256 373.287 121.996 372.949 121.666 372.568C121.337 372.169 121.042 371.857 120.782 371.632C121.441 371.285 122.082 370.878 122.706 370.41C123.33 369.942 123.902 369.456 124.422 368.954C124.96 368.451 125.376 367.983 125.67 367.55V366.978ZM133.132 376.39H157.208V379.796H133.132V376.39ZM160.068 374.986H170.26V377.638H160.068V374.986ZM173.12 382.188H183.286V383.956H173.12V382.188ZM173.12 384.892H183.286V386.66H173.12V384.892ZM173.042 387.596H184.404V389.728H173.042V387.596ZM170.104 367.654H184.196V370.098H170.104V367.654ZM162.252 369.162H169.766V371.788H162.252V369.162ZM161.68 384.84H168.908V387.388H161.68V384.84ZM160.666 379.172H162.85V389.312H160.666V379.172ZM167.842 379.146H170.026V388.584H167.842V379.146ZM176.916 379.978H179.594V388.948H176.916V379.978ZM164.02 370.176H166.672V386.14H164.02V370.176ZM173.146 366.12H175.954V371.268H173.146V366.12ZM178.606 366.12H181.466V371.268H178.606V366.12ZM161.732 366.068L164.462 366.614C164.289 367.636 164.081 368.668 163.838 369.708C163.596 370.748 163.318 371.727 163.006 372.646C162.712 373.564 162.391 374.37 162.044 375.064C161.871 374.925 161.637 374.769 161.342 374.596C161.048 374.405 160.744 374.232 160.432 374.076C160.138 373.902 159.878 373.764 159.652 373.66C160.155 372.724 160.58 371.571 160.926 370.202C161.29 368.832 161.559 367.454 161.732 366.068ZM172.964 373.608V375.194H174.524V373.608H172.964ZM170.832 371.684H176.76V377.092H170.832V371.684ZM179.906 373.608V375.194H181.466V373.608H179.906ZM177.748 371.684H183.728V377.092H177.748V371.684ZM174.498 379.172H184.014V381.252H174.498V390.586H171.794V380.966L173.484 379.172H174.498ZM178.034 376.962L181.024 377.612C180.678 378.166 180.331 378.704 179.984 379.224C179.655 379.744 179.352 380.194 179.074 380.576L176.734 379.952C176.977 379.518 177.22 379.024 177.462 378.47C177.705 377.898 177.896 377.395 178.034 376.962ZM172.964 376.65L175.616 377.43C175.27 378.262 174.845 379.094 174.342 379.926C173.857 380.74 173.337 381.512 172.782 382.24C172.245 382.968 171.699 383.6 171.144 384.138C171.023 383.964 170.841 383.756 170.598 383.514C170.356 383.254 170.104 382.994 169.844 382.734C169.584 382.474 169.35 382.266 169.142 382.11C169.922 381.434 170.65 380.61 171.326 379.64C172.002 378.669 172.548 377.672 172.964 376.65Z" fill="#FF5F17"/>
<rect x="2" y="109" width="150" height="33" fill="#FF5F17"/>
<path d="M22.12 120.56H29V122.52H22.12V120.56ZM18.68 132.16C19.28 132.067 19.9733 131.953 20.76 131.82C21.56 131.687 22.4067 131.547 23.3 131.4C24.1933 131.24 25.08 131.08 25.96 130.92L26.16 133C25 133.267 23.8333 133.527 22.66 133.78C21.4867 134.047 20.42 134.28 19.46 134.48L18.68 132.16ZM20.76 116.9H23.08V132.7H20.76V116.9ZM22.12 116.9H30.1V126.26H22.12V124.2H27.72V118.96H22.12V116.9ZM26.28 124.88C26.5333 126.08 26.88 127.193 27.32 128.22C27.76 129.233 28.32 130.127 29 130.9C29.68 131.673 30.5133 132.273 31.5 132.7C31.3267 132.86 31.14 133.053 30.94 133.28C30.74 133.52 30.5467 133.767 30.36 134.02C30.1867 134.287 30.0467 134.527 29.94 134.74C28.86 134.167 27.9533 133.42 27.22 132.5C26.5 131.567 25.9067 130.487 25.44 129.26C24.9733 128.033 24.5933 126.687 24.3 125.22L26.28 124.88ZM29.18 126.4L31.06 127.7C30.5133 128.233 29.9333 128.76 29.32 129.28C28.72 129.787 28.1667 130.22 27.66 130.58L26.18 129.44C26.5 129.173 26.84 128.867 27.2 128.52C27.5733 128.173 27.9333 127.813 28.28 127.44C28.6267 127.067 28.9267 126.72 29.18 126.4ZM13.48 116.86H18.46V119.02H15.72V134.8H13.48V116.86ZM17.8 116.86H18.22L18.56 116.78L20.2 117.72C20.0133 118.307 19.8133 118.927 19.6 119.58C19.3867 120.233 19.1733 120.88 18.96 121.52C18.7467 122.16 18.5333 122.74 18.32 123.26C18.9733 124.033 19.3933 124.767 19.58 125.46C19.78 126.14 19.88 126.773 19.88 127.36C19.88 128.027 19.8067 128.573 19.66 129C19.5133 129.427 19.2733 129.76 18.94 130C18.78 130.12 18.5933 130.213 18.38 130.28C18.18 130.347 17.9733 130.4 17.76 130.44C17.5733 130.467 17.3533 130.48 17.1 130.48C16.86 130.48 16.6133 130.48 16.36 130.48C16.3467 130.173 16.2933 129.813 16.2 129.4C16.12 128.987 16 128.633 15.84 128.34C16.0267 128.353 16.1933 128.36 16.34 128.36C16.5 128.36 16.64 128.36 16.76 128.36C16.8667 128.36 16.9667 128.347 17.06 128.32C17.1667 128.28 17.2667 128.233 17.36 128.18C17.48 128.087 17.5667 127.947 17.62 127.76C17.6867 127.56 17.7133 127.32 17.7 127.04C17.7 126.573 17.6 126.04 17.4 125.44C17.2133 124.827 16.82 124.187 16.22 123.52C16.3667 123.067 16.5133 122.567 16.66 122.02C16.82 121.473 16.9667 120.927 17.1 120.38C17.2467 119.82 17.38 119.3 17.5 118.82C17.6333 118.327 17.7333 117.92 17.8 117.6V116.86ZM38.56 119.68V120.36H46.88V119.68H38.56ZM38.56 117.84V118.52H46.88V117.84H38.56ZM36.26 116.62H49.3V121.58H36.26V116.62ZM38.14 127.66V128.36H47.44V127.66H38.14ZM38.14 125.76V126.46H47.44V125.76H38.14ZM35.9 124.5H49.8V129.64H35.9V124.5ZM41.62 124.92H43.94V133.5H41.62V124.92ZM33.72 122.18H51.94V123.9H33.72V122.18ZM35.48 130.3H50.18V131.82H35.48V130.3ZM33.68 132.56H51.98V134.3H33.68V132.56ZM60.2079 133V130.784L65.3854 125.99C65.8258 125.564 66.1951 125.18 66.4934 124.839C66.7964 124.499 67.0261 124.165 67.1823 123.838C67.3386 123.507 67.4167 123.149 67.4167 122.766C67.4167 122.339 67.3196 121.973 67.1255 121.665C66.9314 121.352 66.6662 121.113 66.33 120.947C65.9939 120.777 65.6127 120.692 65.1866 120.692C64.7415 120.692 64.3532 120.782 64.0218 120.962C63.6904 121.142 63.4347 121.4 63.2548 121.736C63.0748 122.072 62.9849 122.472 62.9849 122.936H60.0658C60.0658 121.984 60.2813 121.158 60.7121 120.457C61.143 119.757 61.7467 119.214 62.5232 118.831C63.2997 118.447 64.1946 118.256 65.2079 118.256C66.2496 118.256 67.1563 118.44 67.9281 118.81C68.7046 119.174 69.3083 119.681 69.7391 120.33C70.17 120.978 70.3854 121.722 70.3854 122.56C70.3854 123.109 70.2765 123.651 70.0587 124.186C69.8457 124.721 69.4645 125.315 68.9153 125.969C68.366 126.617 67.5919 127.396 66.5928 128.305L64.4692 130.386V130.486H70.5772V133H60.2079ZM79.3087 133.32C78.0871 133.315 77.0359 133.014 76.1553 132.418C75.2793 131.821 74.6046 130.957 74.1311 129.825C73.6624 128.694 73.4304 127.332 73.4351 125.741C73.4351 124.155 73.6695 122.804 74.1382 121.686C74.6117 120.569 75.2864 119.719 76.1624 119.136C77.043 118.549 78.0918 118.256 79.3087 118.256C80.5255 118.256 81.5719 118.549 82.4479 119.136C83.3286 119.723 84.0056 120.576 84.4791 121.693C84.9526 122.806 85.187 124.155 85.1822 125.741C85.1822 127.337 84.9455 128.701 84.472 129.832C84.0033 130.964 83.3309 131.828 82.455 132.425C81.579 133.021 80.5303 133.32 79.3087 133.32ZM79.3087 130.77C80.142 130.77 80.8072 130.351 81.3044 129.513C81.8016 128.675 82.0478 127.418 82.043 125.741C82.043 124.638 81.9294 123.72 81.7021 122.986C81.4796 122.252 81.1624 121.7 80.7504 121.331C80.3432 120.962 79.8626 120.777 79.3087 120.777C78.4801 120.777 77.8172 121.191 77.32 122.02C76.8229 122.848 76.5719 124.089 76.5672 125.741C76.5672 126.859 76.6785 127.792 76.901 128.54C77.1283 129.283 77.4479 129.842 77.8598 130.216C78.2717 130.585 78.7547 130.77 79.3087 130.77ZM93.8782 133.32C92.6566 133.315 91.6055 133.014 90.7248 132.418C89.8488 131.821 89.1741 130.957 88.7006 129.825C88.2319 128.694 87.9999 127.332 88.0046 125.741C88.0046 124.155 88.239 122.804 88.7077 121.686C89.1812 120.569 89.8559 119.719 90.7319 119.136C91.6126 118.549 92.6613 118.256 93.8782 118.256C95.0951 118.256 96.1415 118.549 97.0174 119.136C97.8981 119.723 98.5752 120.576 99.0487 121.693C99.5221 122.806 99.7565 124.155 99.7518 125.741C99.7518 127.337 99.515 128.701 99.0415 129.832C98.5728 130.964 97.9005 131.828 97.0245 132.425C96.1486 133.021 95.0998 133.32 93.8782 133.32ZM93.8782 130.77C94.7115 130.77 95.3768 130.351 95.8739 129.513C96.3711 128.675 96.6173 127.418 96.6126 125.741C96.6126 124.638 96.4989 123.72 96.2717 122.986C96.0491 122.252 95.7319 121.7 95.32 121.331C94.9128 120.962 94.4322 120.777 93.8782 120.777C93.0496 120.777 92.3867 121.191 91.8896 122.02C91.3924 122.848 91.1415 124.089 91.1367 125.741C91.1367 126.859 91.248 127.792 91.4705 128.54C91.6978 129.283 92.0174 129.842 92.4293 130.216C92.8413 130.585 93.3242 130.77 93.8782 130.77ZM117.775 121.96H123.735V124.12H117.775V121.96ZM117.775 126.96H123.735V129.12H117.775V126.96ZM116.535 117.02H125.095V133.42H122.675V119.18H118.835V133.42H116.535V117.02ZM114.675 132.1H126.455V134.26H114.675V132.1ZM110.595 116.02L112.715 116.76C112.448 117.28 112.168 117.813 111.875 118.36C111.581 118.893 111.295 119.413 111.015 119.92C110.735 120.413 110.461 120.847 110.195 121.22L108.575 120.56C108.815 120.147 109.061 119.68 109.315 119.16C109.568 118.627 109.808 118.087 110.035 117.54C110.261 116.993 110.448 116.487 110.595 116.02ZM112.995 118.4L115.035 119.24C114.541 120 114.008 120.8 113.435 121.64C112.861 122.467 112.281 123.26 111.695 124.02C111.108 124.78 110.561 125.447 110.055 126.02L108.595 125.28C108.981 124.827 109.375 124.313 109.775 123.74C110.175 123.167 110.568 122.573 110.955 121.96C111.355 121.347 111.728 120.733 112.075 120.12C112.435 119.493 112.741 118.92 112.995 118.4ZM107.515 120.76L108.655 119.12C109.001 119.413 109.361 119.747 109.735 120.12C110.108 120.48 110.448 120.84 110.755 121.2C111.075 121.56 111.315 121.893 111.475 122.2L110.255 124.06C110.095 123.753 109.861 123.407 109.555 123.02C109.261 122.62 108.935 122.227 108.575 121.84C108.215 121.44 107.861 121.08 107.515 120.76ZM112.515 123.22L114.215 122.48C114.481 122.92 114.741 123.393 114.995 123.9C115.248 124.407 115.468 124.907 115.655 125.4C115.841 125.88 115.981 126.313 116.075 126.7L114.235 127.54C114.155 127.167 114.028 126.733 113.855 126.24C113.681 125.733 113.475 125.22 113.235 124.7C113.008 124.167 112.768 123.673 112.515 123.22ZM107.515 124.82C108.435 124.793 109.541 124.753 110.835 124.7C112.141 124.647 113.468 124.587 114.815 124.52L114.795 126.42C113.541 126.513 112.295 126.607 111.055 126.7C109.815 126.78 108.701 126.847 107.715 126.9L107.515 124.82ZM112.855 128.22L114.615 127.64C114.895 128.24 115.155 128.893 115.395 129.6C115.635 130.307 115.808 130.92 115.915 131.44L114.055 132.12C113.961 131.587 113.801 130.96 113.575 130.24C113.348 129.507 113.108 128.833 112.855 128.22ZM108.375 127.76L110.355 128.12C110.248 129.08 110.088 130.027 109.875 130.96C109.661 131.893 109.415 132.68 109.135 133.32C109.001 133.227 108.821 133.12 108.595 133C108.368 132.893 108.135 132.787 107.895 132.68C107.668 132.573 107.468 132.493 107.295 132.44C107.588 131.84 107.821 131.127 107.995 130.3C108.168 129.46 108.295 128.613 108.375 127.76ZM110.695 125.88H112.815V134.8H110.695V125.88ZM136.775 127.86L136.235 121.02L136.135 118.04H139.455L139.355 121.02L138.815 127.86H136.775ZM137.795 133.18C137.288 133.18 136.868 133.013 136.535 132.68C136.201 132.347 136.035 131.927 136.035 131.42C136.035 130.9 136.201 130.473 136.535 130.14C136.868 129.807 137.288 129.64 137.795 129.64C138.301 129.64 138.721 129.807 139.055 130.14C139.388 130.473 139.555 130.9 139.555 131.42C139.555 131.927 139.388 132.347 139.055 132.68C138.721 133.013 138.301 133.18 137.795 133.18ZM157.575 127.86L157.035 121.02L156.935 118.04H160.255L160.155 121.02L159.615 127.86H157.575ZM158.595 133.18C158.088 133.18 157.668 133.013 157.335 132.68C157.001 132.347 156.835 131.927 156.835 131.42C156.835 130.9 157.001 130.473 157.335 130.14C157.668 129.807 158.088 129.64 158.595 129.64C159.101 129.64 159.521 129.807 159.855 130.14C160.188 130.473 160.355 130.9 160.355 131.42C160.355 131.927 160.188 132.347 159.855 132.68C159.521 133.013 159.101 133.18 158.595 133.18Z" fill="white"/>
<path d="M29.2998 225.531H390.352" stroke="black"/>
<g clip-path="url(#clip0_283_258)">
<path d="M112.028 79.4375L110.222 91.0003L121.919 88.8119L112.028 79.4375Z" fill="#FF5F17"/>
<path d="M105.732 83.454C128.227 83.454 146.464 65.3804 146.464 43.0854C146.464 20.7904 128.227 2.7168 105.732 2.7168C83.2363 2.7168 65 20.7904 65 43.0854C65 65.3804 83.2363 83.454 105.732 83.454Z" fill="#FF5F17"/>
<path d="M199.069 13.5763L208.58 6.66807L198.751 0L199.069 13.5763Z" fill="#FF5F17"/>
<path d="M206.445 72.3093C222.318 56.5443 222.291 30.9572 206.384 15.1588C190.478 -0.639624 164.715 -0.666769 148.842 15.0982C132.969 30.8631 132.996 56.4502 148.903 72.2486C164.81 88.047 190.572 88.0742 206.445 72.3093Z" fill="#FF5F17"/>
<path d="M255.698 79.4375L253.892 91.0003L265.589 88.8119L255.698 79.4375Z" fill="#FF5F17"/>
<path d="M249.402 83.454C271.897 83.454 290.134 65.3804 290.134 43.0854C290.134 20.7904 271.897 2.7168 249.402 2.7168C226.906 2.7168 208.67 20.7904 208.67 43.0854C208.67 65.3804 226.906 83.454 249.402 83.454Z" fill="#FF5F17"/>
<path d="M342.739 13.5763L352.25 6.66807L342.421 0L342.739 13.5763Z" fill="#FF5F17"/>
<path d="M350.114 72.3068C365.987 56.5419 365.96 30.9548 350.053 15.1563C334.146 -0.642066 308.384 -0.669211 292.511 15.0957C276.638 30.8606 276.665 56.4478 292.572 72.2462C308.479 88.0446 334.241 88.0717 350.114 72.3068Z" fill="#FF5F17"/>
</g>
<path d="M96.2772 38.5497H126.635V41.7747H96.2772V38.5497ZM103.114 27.2407H107.586V35.9697H103.114V27.2407ZM112.918 27.2407H117.519V35.9697H112.918V27.2407ZM97.1372 29.3477H127.581V37.1307H97.1372V34.2497H122.851V32.2287H97.1372V29.3477ZM107.586 47.1927L111.929 48.1387C108.618 51.3207 104.318 53.7287 98.5562 55.7497C97.9972 54.8037 96.7932 53.3847 95.8902 52.7827C101.222 51.3207 105.264 49.2567 107.586 47.1927ZM107.586 49.7727H121.174V52.5677H104.791L107.586 49.7727ZM120.142 49.7727H121.002L121.776 49.6007L124.657 51.4497C119.325 57.6417 108.231 60.2217 97.6102 61.2967C97.2232 60.2647 96.4062 58.6737 95.7182 57.7707C105.522 57.1257 116.014 54.8897 120.142 50.3747V49.7727ZM106.296 51.5787C110.682 55.2767 119.884 57.0397 129.903 57.4697C129 58.4157 127.925 60.1787 127.366 61.3397C117.003 60.5657 107.844 58.1577 102.555 53.1267L106.296 51.5787ZM104.447 42.7207H108.532V44.5697C108.532 45.4727 108.79 45.6017 110.166 45.6017C110.811 45.6017 113.864 45.6017 114.681 45.6017C115.713 45.6017 115.928 45.3007 116.1 43.7957C116.874 44.2687 118.379 44.6987 119.411 44.9137C119.067 47.7517 117.992 48.5257 115.24 48.5257C114.337 48.5257 110.467 48.5257 109.65 48.5257C105.436 48.5257 104.447 47.6657 104.447 44.6127V42.7207ZM125.431 38.5497H126.119L126.85 38.4207L130.247 39.1087C129.43 41.3877 128.355 43.9247 127.495 45.5587L123.41 44.6987C124.098 43.2367 124.958 40.9577 125.431 39.0657V38.5497ZM100.706 42.2477L104.146 43.7097C103.243 45.6877 101.953 47.7947 99.9322 49.1277L96.6642 46.9777C98.4272 45.9027 99.9322 43.9677 100.706 42.2477ZM108.36 42.1187L111.026 40.1837C112.617 41.0007 114.509 42.2477 115.498 43.1507L112.703 45.3437C111.757 44.3117 109.822 42.8927 108.36 42.1187ZM117.691 43.5377L120.873 41.8607C122.679 43.2797 124.743 45.3867 125.689 46.9347L122.292 48.7407C121.475 47.2357 119.497 45.0857 117.691 43.5377ZM108.446 20.9627H113.821V26.4237H108.446V20.9627ZM95.2882 23.4997H129.129V27.3697H95.2882V23.4997ZM92.8372 23.4997H97.5242V36.3567C97.5242 43.4947 96.9222 54.3737 92.9662 61.2107C92.1492 60.3507 90.0852 58.8457 89.0532 58.3727C92.5792 52.0087 92.8372 42.8497 92.8372 36.3567V23.4997ZM165.98 28.7457H195.908V33.7767H165.98V28.7457ZM164.217 41.4307H194.274V46.3757H164.217V41.4307ZM159.229 55.0617H198.101V60.0927H159.229V55.0617ZM175.956 20.9627H181.331V57.5557H175.956V20.9627ZM166.023 21.4787L171.355 22.6827C169.463 29.3477 166.324 35.9697 162.97 40.0977C161.938 39.1947 159.659 37.6897 158.326 36.9587C161.723 33.3467 164.475 27.4127 166.023 21.4787ZM228.76 24.9187H265.955V29.0897H228.76V24.9187ZM238.736 37.3887H258.086V40.7427H238.736V37.3887ZM238.736 42.5057H258.086V45.9027H238.736V42.5057ZM228.33 47.7087H266.342V51.9657H228.33V47.7087ZM254.044 25.8217C256.796 29.9067 262.3 33.8197 267.675 35.7117C266.6 36.6577 265.095 38.5067 264.364 39.7107C258.817 37.2597 253.313 32.5727 250.045 27.3697L254.044 25.8217ZM236.156 31.7987H258.043V35.6687H241.445V49.6007H236.156V31.7987ZM231.125 56.4377C237.962 56.2227 248.97 55.6637 259.247 55.1047L259.161 59.0607C249.314 59.8347 238.779 60.4797 231.641 60.9527L231.125 56.4377ZM238.392 49.2567L244.498 49.4717C243.165 52.7827 241.445 56.0507 240.112 58.2437L235.124 57.7707C236.371 55.3197 237.704 51.8367 238.392 49.2567ZM252.195 52.9977L256.581 50.9337C259.29 53.3847 262.988 56.9967 264.794 59.3617L260.107 61.7697C258.516 59.4047 254.99 55.6207 252.195 52.9977ZM243.337 20.9627L248.669 21.8657C245.315 29.2187 239.596 35.7977 229.835 40.3127C229.233 39.1087 227.771 37.3027 226.739 36.4427C235.855 32.7017 241.015 26.7677 243.337 20.9627ZM321.64 53.8577L325.424 51.2777C328.692 53.0407 333.078 55.7497 335.357 57.7707L331.272 60.6517C329.294 58.7167 324.994 55.7927 321.64 53.8577ZM301.817 41.0437H330.541V44.9567H301.817V41.0437ZM296.7 46.7627H335.701V50.8477H296.7V46.7627ZM297.302 22.3817H334.841V26.4237H297.302V22.3817ZM313.556 47.4937H318.802V56.4377C318.802 58.7167 318.415 59.9207 316.738 60.6087C315.104 61.3397 313.04 61.3827 310.202 61.3827C309.987 60.0067 309.256 58.0717 308.654 56.8247C310.331 56.9107 312.266 56.9107 312.825 56.8677C313.427 56.8677 313.556 56.7387 313.556 56.2657V47.4937ZM305.257 51.1917L309.987 52.8257C307.536 56.0077 303.623 59.1897 300.269 61.1247C299.409 60.2217 297.517 58.5017 296.399 57.7277C299.753 56.1797 303.236 53.6857 305.257 51.1917ZM304.612 32.4007V35.5827H327.488V32.4007H304.612ZM299.839 28.7027H332.605V39.3237H299.839V28.7027ZM308.912 23.9297H313.642V37.8187H308.912V23.9297ZM318.157 23.9297H322.973V37.8187H318.157V23.9297Z" fill="white"/>
<defs>
<clipPath id="clip0_283_258">
<rect width="297" height="91" fill="white" transform="translate(65)"/>
</clipPath>
</defs>
</svg>
