<svg width="122" height="122" viewBox="0 0 122 122" fill="none" xmlns="http://www.w3.org/2000/svg">
<g clip-path="url(#clip0_1_60)">
<path d="M55.8504 2.20985C58.6784 5.60348 63.3085 5.60348 66.1365 2.20985C68.9645 -1.18379 72.6212 -0.605033 74.2654 3.4989C75.9097 7.60284 80.3161 9.03658 84.0518 6.68208C87.7874 4.32758 91.089 6.01125 91.3915 10.4177C91.694 14.8242 95.4296 17.547 99.7177 16.4684C104.006 15.3898 106.623 18.0074 105.532 22.2823C104.44 26.5572 107.176 30.306 111.582 30.6086C115.989 30.9111 117.672 34.1995 115.318 37.9483C112.963 41.6971 114.397 46.0904 118.501 47.7346C122.605 49.3788 123.184 53.0355 119.79 55.8635C116.397 58.6916 116.397 63.3217 119.79 66.1497C123.184 68.9777 122.605 72.6344 118.501 74.2786C114.397 75.9228 112.963 80.3293 115.318 84.0649C117.672 87.8006 115.989 91.1021 111.582 91.4047C107.176 91.7072 104.453 95.4428 105.532 99.7309C106.61 104.019 103.993 106.637 99.7177 105.545C95.4428 104.453 91.694 107.189 91.3915 111.595C91.089 116.002 87.8005 117.686 84.0518 115.331C80.303 112.977 75.9097 114.41 74.2654 118.514C72.6212 122.618 68.9645 123.197 66.1365 119.803C63.3085 116.41 58.6784 116.41 55.8504 119.803C53.0223 123.197 49.3656 122.618 47.7214 118.514C46.0772 114.41 41.6707 112.977 37.9351 115.331C34.1995 117.686 30.8979 116.002 30.5954 111.595C30.2928 107.189 26.5572 104.466 22.2691 105.545C17.981 106.623 15.3635 104.006 16.4552 99.7309C17.547 95.456 14.811 91.7072 10.4045 91.4047C5.99806 91.1021 4.3144 87.8137 6.6689 84.0649C9.0234 80.3162 7.58965 75.9228 3.48572 74.2786C-0.618217 72.6344 -1.19698 68.9777 2.19666 66.1497C5.5903 63.3217 5.5903 58.6916 2.19666 55.8635C-1.19698 53.0355 -0.618217 49.3788 3.48572 47.7346C7.58965 46.0904 9.0234 41.6839 6.6689 37.9483C4.3144 34.2127 5.99806 30.9111 10.4045 30.6086C14.811 30.306 17.5338 26.5704 16.4552 22.2823C15.3766 17.9942 17.9942 15.3766 22.2691 16.4684C26.544 17.5601 30.2928 14.8242 30.5954 10.4177C30.8979 6.01125 34.1863 4.32758 37.9351 6.68208C41.6839 9.03658 46.0772 7.60284 47.7214 3.4989C49.3656 -0.605033 53.0223 -1.18379 55.8504 2.20985Z" fill="#39BF63"/>
<path d="M32.464 47.432H45.456V50.984H32.464V47.432ZM31.376 58.568H49.04V62.184H31.376V58.568ZM38.128 54.824H42V71.624C42 73.544 41.616 74.568 40.368 75.176C39.088 75.752 37.328 75.88 34.96 75.848C34.768 74.792 34.128 73.128 33.616 72.104C35.248 72.168 36.912 72.2 37.456 72.168C37.968 72.136 38.128 72.008 38.128 71.56V54.824ZM44.08 47.432H45.008L45.808 47.24L48.304 49.128C46.416 51.912 43.696 55.304 41.2 57.416C40.688 56.744 39.632 55.688 39.024 55.176C40.912 53.352 43.12 50.184 44.08 48.264V47.432ZM19.184 52.2H29.52V55.752H19.184V52.2ZM23.472 45.832L27.088 46.216C25.872 53.032 24.016 61.608 22.512 67.368L19.376 65.704C20.752 60.648 22.48 52.2 23.472 45.832ZM21.04 65.16L23.152 62.472C26.48 64.552 30.704 67.656 32.56 70.056L30.256 73.16C28.464 70.728 24.4 67.368 21.04 65.16ZM28.208 52.2H28.816L29.488 52.104L31.76 52.488C31.024 64.968 27.92 72.04 21.584 75.976C21.072 75.048 20.048 73.672 19.28 72.936C24.72 70.088 27.568 63.016 28.208 52.904V52.2ZM67.44 69.384L70.384 68.616C71.088 69.704 71.664 71.208 71.856 72.2L68.752 73.128C68.624 72.104 68.048 70.504 67.44 69.384ZM75.888 68.52L79.216 69.416C78.512 70.824 77.808 72.136 77.296 73.064L74.448 72.232C74.96 71.176 75.568 69.608 75.888 68.52ZM69.168 64.968V66.6H77.136V64.968H69.168ZM66 62.728H80.432V68.84H66V62.728ZM68.048 53.896V55.336H78.128V53.896H68.048ZM68.048 50.248V51.688H78.128V50.248H68.048ZM64.976 47.88H81.36V57.704H64.976V47.88ZM64.528 58.76H81.872V61.64H64.528V58.76ZM63.888 72.456H82.32V75.272H63.888V72.456ZM69.264 45.832H72.112V49.64H69.264V45.832ZM74 45.832H76.848V49.64H74V45.832ZM69.84 48.968H72.08V57.224H69.84V48.968ZM74 48.968H76.24V57.224H74V48.968ZM52.592 54.216H63.824V57.544H52.592V54.216ZM53.36 47.848H63.184V51.144H53.36V47.848ZM61.264 59.144H63.696V71.08H61.264V59.144ZM56.784 55.88H59.952V75.88H56.784V55.88ZM53.04 59.208H55.472V63.048C55.472 66.344 55.312 70.152 54.16 73.224C53.68 72.712 52.688 71.944 52.016 71.592C52.88 69 53.04 65.736 53.04 62.952V59.208ZM86.4464 73V69.4545L94.7305 61.7841C95.435 61.1023 96.0259 60.4886 96.5032 59.9432C96.988 59.3977 97.3555 58.8636 97.6055 58.3409C97.8555 57.8106 97.9805 57.2386 97.9805 56.625C97.9805 55.9432 97.8251 55.3561 97.5145 54.8636C97.2039 54.3636 96.7797 53.9811 96.2418 53.7159C95.7039 53.4432 95.0941 53.3068 94.4123 53.3068C93.7001 53.3068 93.0789 53.4508 92.5486 53.7386C92.0183 54.0265 91.6092 54.4394 91.3214 54.9773C91.0335 55.5152 90.8895 56.1553 90.8895 56.8977H86.2191C86.2191 55.375 86.5638 54.053 87.2532 52.9318C87.9426 51.8106 88.9085 50.9432 90.1509 50.3295C91.3933 49.7159 92.8251 49.4091 94.4464 49.4091C96.113 49.4091 97.5638 49.7045 98.7986 50.2955C100.041 50.8788 101.007 51.6894 101.696 52.7273C102.386 53.7652 102.73 54.9545 102.73 56.2955C102.73 57.1742 102.556 58.0417 102.208 58.8977C101.867 59.7538 101.257 60.7045 100.378 61.75C99.4994 62.7879 98.2608 64.0341 96.6623 65.4886L93.2645 68.8182V68.9773H103.037V73H86.4464Z" fill="white"/>
</g>
<defs>
<clipPath id="clip0_1_60">
<rect width="122" height="122" fill="white"/>
</clipPath>
</defs>
</svg>
