<svg width="395" height="112" viewBox="0 0 395 112" fill="none" xmlns="http://www.w3.org/2000/svg">
<path d="M65.5319 3.63636V24H61.843V7.22585H61.7236L56.9609 10.2685V6.88778L62.0219 3.63636H65.5319ZM79.3493 24.3878C77.712 24.3878 76.3067 23.9735 75.1334 23.1449C73.9667 22.3097 73.0685 21.1065 72.4388 19.5355C71.8157 17.9579 71.5041 16.0587 71.5041 13.8381C71.5108 11.6174 71.8256 9.72822 72.4488 8.17045C73.0785 6.60606 73.9767 5.41288 75.1434 4.59091C76.3166 3.76894 77.7186 3.35795 79.3493 3.35795C80.98 3.35795 82.382 3.76894 83.5553 4.59091C84.7286 5.41288 85.6268 6.60606 86.2499 8.17045C86.8796 9.73485 87.1945 11.6241 87.1945 13.8381C87.1945 16.0653 86.8796 17.9678 86.2499 19.5455C85.6268 21.1165 84.7286 22.3163 83.5553 23.1449C82.3886 23.9735 80.9866 24.3878 79.3493 24.3878ZM79.3493 21.2756C80.622 21.2756 81.6263 20.6491 82.3621 19.3963C83.1045 18.1368 83.4757 16.2841 83.4757 13.8381C83.4757 12.2206 83.3067 10.8617 82.9686 9.76136C82.6306 8.66098 82.1533 7.83239 81.5368 7.27557C80.9203 6.71212 80.1912 6.4304 79.3493 6.4304C78.0832 6.4304 77.0823 7.06013 76.3465 8.3196C75.6107 9.57244 75.2395 11.4119 75.2328 13.8381C75.2262 15.4621 75.3886 16.8277 75.7201 17.9347C76.0581 19.0417 76.5354 19.8769 77.1519 20.4403C77.7684 20.9972 78.5008 21.2756 79.3493 21.2756ZM91.3765 7.76H116.296V11.232H91.3765V7.76ZM105.768 9.16C106.328 11.288 107.103 13.276 108.092 15.124C109.082 16.972 110.304 18.5867 111.76 19.968C113.235 21.3493 114.952 22.4413 116.912 23.244C116.632 23.4867 116.334 23.7947 116.016 24.168C115.718 24.5413 115.419 24.924 115.12 25.316C114.84 25.7267 114.607 26.0907 114.42 26.408C112.274 25.4 110.426 24.1027 108.876 22.516C107.346 20.9293 106.058 19.0813 105.012 16.972C103.967 14.844 103.09 12.5013 102.38 9.944L105.768 9.16ZM101.904 0.227999H105.572C105.554 1.64667 105.507 3.14933 105.432 4.736C105.376 6.304 105.236 7.9 105.012 9.524C104.788 11.148 104.424 12.7627 103.92 14.368C103.435 15.9547 102.744 17.4853 101.848 18.96C100.971 20.416 99.8325 21.7787 98.4325 23.048C97.0511 24.3173 95.3618 25.4373 93.3645 26.408C93.1031 25.96 92.7391 25.4653 92.2725 24.924C91.8058 24.3827 91.3298 23.9347 90.8445 23.58C92.7485 22.7213 94.3445 21.732 95.6325 20.612C96.9205 19.4733 97.9658 18.2507 98.7685 16.944C99.5898 15.6187 100.215 14.2467 100.644 12.828C101.074 11.3907 101.363 9.944 101.512 8.488C101.68 7.032 101.783 5.604 101.82 4.204C101.858 2.804 101.886 1.47867 101.904 0.227999ZM121.084 1.684H144.996V4.82H121.084V1.684ZM127.692 7.984H138.864V10.98H127.692V7.984ZM126.264 15.544H137.968V18.54H126.264V15.544ZM120.188 22.208H145.78V25.344H120.188V22.208ZM127.188 3.924H130.856C130.614 5.24933 130.343 6.63067 130.044 8.068C129.746 9.50533 129.438 10.9427 129.12 12.38C128.822 13.7987 128.523 15.152 128.224 16.44C127.926 17.7093 127.646 18.8573 127.384 19.884L123.716 19.576C124.015 18.5493 124.323 17.4013 124.64 16.132C124.958 14.844 125.275 13.5 125.592 12.1C125.91 10.7 126.199 9.3 126.46 7.9C126.74 6.5 126.983 5.17467 127.188 3.924ZM137.296 7.984H140.936C140.806 9.272 140.656 10.616 140.488 12.016C140.339 13.3973 140.171 14.7787 139.984 16.16C139.816 17.5227 139.639 18.8293 139.452 20.08C139.284 21.312 139.116 22.4227 138.948 23.412H135.252C135.439 22.404 135.635 21.2747 135.84 20.024C136.046 18.7547 136.242 17.4387 136.428 16.076C136.615 14.6947 136.783 13.3133 136.932 11.932C137.082 10.5507 137.203 9.23467 137.296 7.984ZM149.672 18.316H162.748V20.696H149.672V18.316ZM149.056 4.988H163.056V7.424H149.056V4.988ZM154.6 3.028H157.652V23.104H154.6V3.028ZM148.888 22.768C150.064 22.6933 151.408 22.6 152.92 22.488C154.432 22.376 156.028 22.2547 157.708 22.124C159.407 21.9747 161.096 21.8253 162.776 21.676L162.804 24.224C161.218 24.392 159.612 24.56 157.988 24.728C156.383 24.896 154.834 25.0453 153.34 25.176C151.866 25.3253 150.512 25.4653 149.28 25.596L148.888 22.768ZM152.444 13.864V15.124H159.836V13.864H152.444ZM152.444 10.616V11.876H159.836V10.616H152.444ZM149.784 8.516H162.608V17.224H149.784V8.516ZM161.264 0.367999L162.72 2.86C161.544 3.10267 160.219 3.31733 158.744 3.504C157.288 3.672 155.795 3.812 154.264 3.924C152.734 4.01733 151.268 4.08267 149.868 4.12C149.812 3.76533 149.71 3.364 149.56 2.916C149.43 2.44933 149.28 2.048 149.112 1.712C150.158 1.656 151.231 1.59067 152.332 1.516C153.434 1.42267 154.516 1.32 155.58 1.208C156.663 1.096 157.68 0.974665 158.632 0.843999C159.603 0.694666 160.48 0.535999 161.264 0.367999ZM163.028 6.556H172.744V9.636H163.028V6.556ZM171.372 6.556H174.592C174.592 6.556 174.592 6.64933 174.592 6.836C174.592 7.02267 174.592 7.23733 174.592 7.48C174.592 7.704 174.592 7.89067 174.592 8.04C174.518 10.9147 174.443 13.36 174.368 15.376C174.294 17.3733 174.21 19.0253 174.116 20.332C174.042 21.62 173.92 22.628 173.752 23.356C173.603 24.084 173.416 24.6067 173.192 24.924C172.875 25.3907 172.539 25.7173 172.184 25.904C171.848 26.1093 171.447 26.2587 170.98 26.352C170.551 26.4267 170.028 26.464 169.412 26.464C168.796 26.4827 168.152 26.4827 167.48 26.464C167.462 25.9973 167.359 25.456 167.172 24.84C167.004 24.224 166.79 23.692 166.528 23.244C167.126 23.3 167.676 23.3373 168.18 23.356C168.684 23.3747 169.067 23.384 169.328 23.384C169.552 23.384 169.739 23.3467 169.888 23.272C170.038 23.1973 170.178 23.076 170.308 22.908C170.458 22.684 170.588 22.2547 170.7 21.62C170.812 20.9667 170.906 20.0427 170.98 18.848C171.074 17.6347 171.148 16.076 171.204 14.172C171.279 12.268 171.335 9.96267 171.372 7.256V6.556ZM165.716 0.675998H168.936C168.936 3.06533 168.908 5.33333 168.852 7.48C168.815 9.62667 168.694 11.652 168.488 13.556C168.302 15.4413 167.975 17.196 167.508 18.82C167.06 20.4253 166.426 21.8907 165.604 23.216C164.783 24.5413 163.728 25.708 162.44 26.716C162.272 26.436 162.048 26.1373 161.768 25.82C161.507 25.5027 161.227 25.1947 160.928 24.896C160.648 24.616 160.368 24.3827 160.088 24.196C161.264 23.3 162.216 22.2733 162.944 21.116C163.672 19.94 164.232 18.6427 164.624 17.224C165.016 15.7867 165.287 14.2187 165.436 12.52C165.586 10.8027 165.67 8.964 165.688 7.004C165.707 5.02533 165.716 2.916 165.716 0.675998ZM189.824 1.628H201.22V4.708H189.824V1.628ZM188.872 11.344H204.356V14.536H188.872V11.344ZM194.808 8.096H198.168V22.768C198.168 23.608 198.066 24.2707 197.86 24.756C197.655 25.2413 197.282 25.6147 196.74 25.876C196.18 26.1373 195.508 26.3053 194.724 26.38C193.959 26.4733 193.063 26.5107 192.036 26.492C191.962 26.0253 191.803 25.4747 191.56 24.84C191.318 24.2053 191.075 23.6547 190.832 23.188C191.542 23.2067 192.223 23.2253 192.876 23.244C193.53 23.2627 193.978 23.2627 194.22 23.244C194.444 23.244 194.594 23.2067 194.668 23.132C194.762 23.0573 194.808 22.9267 194.808 22.74V8.096ZM199.988 1.628H200.828L201.5 1.432L203.684 3.084C203.143 3.90533 202.527 4.764 201.836 5.66C201.164 6.53733 200.455 7.38667 199.708 8.208C198.962 9.01067 198.224 9.72 197.496 10.336C197.272 10.0373 196.964 9.692 196.572 9.3C196.18 8.908 195.844 8.6 195.564 8.376C196.124 7.85333 196.694 7.228 197.272 6.5C197.851 5.772 198.374 5.03467 198.84 4.288C199.326 3.54133 199.708 2.888 199.988 2.328V1.628ZM178.204 5.772H187.276V8.908H178.204V5.772ZM181.984 0.199999L185.12 0.535998C184.859 2.02933 184.56 3.59733 184.224 5.24C183.907 6.88267 183.571 8.52533 183.216 10.168C182.862 11.792 182.507 13.3693 182.152 14.9C181.798 16.412 181.452 17.7933 181.116 19.044L178.372 17.616C178.69 16.5147 179.007 15.2547 179.324 13.836C179.66 12.4173 179.987 10.924 180.304 9.356C180.622 7.76933 180.92 6.20133 181.2 4.652C181.499 3.084 181.76 1.6 181.984 0.199999ZM179.856 17.14L181.676 14.76C182.647 15.376 183.664 16.0667 184.728 16.832C185.811 17.5973 186.81 18.372 187.724 19.156C188.658 19.94 189.395 20.6867 189.936 21.396L187.92 24.112C187.398 23.4027 186.688 22.6373 185.792 21.816C184.896 20.976 183.926 20.1453 182.88 19.324C181.854 18.5027 180.846 17.7747 179.856 17.14ZM186.1 5.772H186.66L187.248 5.716L189.236 6.052C189.031 9.692 188.574 12.8373 187.864 15.488C187.174 18.12 186.203 20.3413 184.952 22.152C183.72 23.9627 182.171 25.4467 180.304 26.604C180.099 26.1933 179.8 25.7173 179.408 25.176C179.016 24.6533 178.643 24.2427 178.288 23.944C179.875 23.104 181.219 21.872 182.32 20.248C183.422 18.624 184.28 16.6453 184.896 14.312C185.531 11.9787 185.932 9.34667 186.1 6.416V5.772ZM220.428 20.836L223.032 20.136C223.35 20.6213 223.62 21.1533 223.844 21.732C224.068 22.3107 224.227 22.824 224.32 23.272L221.576 24.084C221.52 23.636 221.38 23.104 221.156 22.488C220.932 21.872 220.69 21.3213 220.428 20.836ZM227.82 20.08L230.732 20.864C230.434 21.4613 230.135 22.04 229.836 22.6C229.556 23.16 229.295 23.636 229.052 24.028L226.56 23.3C226.784 22.852 227.018 22.32 227.26 21.704C227.503 21.088 227.69 20.5467 227.82 20.08ZM221.968 16.972V18.372H228.912V16.972H221.968ZM219.168 14.984H231.796V20.36H219.168V14.984ZM220.96 7.256V8.544H229.808V7.256H220.96ZM220.96 4.064V5.324H229.808V4.064H220.96ZM218.3 2.02H232.608V10.588H218.3V2.02ZM217.88 11.54H233.084V14.06H217.88V11.54ZM217.32 23.496H233.476V25.988H217.32V23.496ZM222.052 0.199999H224.516V3.532H222.052V0.199999ZM226.168 0.199999H228.66V3.532H226.168V0.199999ZM222.528 2.972H224.516V10.196H222.528V2.972ZM226.168 2.972H228.156V10.196H226.168V2.972ZM207.436 7.536H217.264V10.448H207.436V7.536ZM208.108 1.964H216.704V4.848H208.108V1.964ZM215.052 11.876H217.18V22.292H215.052V11.876ZM211.104 8.992H213.876V26.492H211.104V8.992ZM207.828 11.904H209.956V15.264C209.956 16.7013 209.891 18.2133 209.76 19.8C209.63 21.368 209.322 22.824 208.836 24.168C208.612 23.944 208.314 23.692 207.94 23.412C207.567 23.132 207.24 22.9173 206.96 22.768C207.334 21.6293 207.567 20.388 207.66 19.044C207.772 17.7 207.828 16.4213 207.828 15.208V11.904ZM253.664 3.112C253.142 3.84 252.479 4.596 251.676 5.38C250.874 6.164 249.996 6.92 249.044 7.648C248.092 8.35733 247.094 8.97333 246.048 9.496C245.899 9.08533 245.656 8.60933 245.32 8.068C245.003 7.52667 244.704 7.07867 244.424 6.724C245.451 6.25733 246.45 5.66933 247.42 4.96C248.391 4.232 249.278 3.45733 250.08 2.636C250.883 1.81467 251.527 1.03067 252.012 0.283998H255.092C255.783 1.10533 256.548 1.908 257.388 2.692C258.247 3.45733 259.152 4.148 260.104 4.764C261.056 5.36133 262.018 5.856 262.988 6.248C262.671 6.62133 262.344 7.088 262.008 7.648C261.672 8.208 261.383 8.72133 261.14 9.188C260.263 8.72133 259.358 8.16133 258.424 7.508C257.491 6.836 256.604 6.11733 255.764 5.352C254.943 4.58667 254.243 3.84 253.664 3.112ZM249.66 5.8H257.724V8.18H249.66V5.8ZM248.512 12.688H258.76V14.508H248.512V12.688ZM250.276 23.272H259.768V25.68H250.276V23.272ZM248.288 9.356H260.552V17.924H248.288V15.656H257.528V11.596H248.288V9.356ZM246.916 9.356H249.94V14.116C249.94 15.0307 249.884 16.02 249.772 17.084C249.679 18.148 249.492 19.2307 249.212 20.332C248.951 21.4147 248.568 22.4693 248.064 23.496C247.579 24.504 246.935 25.4187 246.132 26.24C245.983 26.0347 245.768 25.792 245.488 25.512C245.208 25.2507 244.91 24.9893 244.592 24.728C244.294 24.4667 244.042 24.2707 243.836 24.14C244.77 23.1693 245.451 22.096 245.88 20.92C246.328 19.744 246.608 18.5587 246.72 17.364C246.851 16.1693 246.916 15.068 246.916 14.06V9.356ZM248.96 19.044H260.916V26.408H257.948V21.396H251.816V26.436H248.96V19.044ZM236.444 5.632H245.292V8.74H236.444V5.632ZM239.804 0.227999H242.968V22.852C242.968 23.636 242.884 24.2707 242.716 24.756C242.548 25.2413 242.24 25.6147 241.792 25.876C241.326 26.1373 240.747 26.3147 240.056 26.408C239.384 26.5013 238.563 26.5387 237.592 26.52C237.555 26.0907 237.443 25.5587 237.256 24.924C237.088 24.308 236.892 23.776 236.668 23.328C237.228 23.3467 237.76 23.356 238.264 23.356C238.768 23.356 239.114 23.3467 239.3 23.328C239.487 23.328 239.618 23.2907 239.692 23.216C239.767 23.1413 239.804 23.0107 239.804 22.824V0.227999ZM236.08 14.48C237.219 14.2373 238.61 13.9107 240.252 13.5C241.914 13.0707 243.594 12.6413 245.292 12.212L245.684 15.068C244.154 15.572 242.623 16.0667 241.092 16.552C239.562 17.0187 238.143 17.4573 236.836 17.868L236.08 14.48ZM280.32 14.284H283.708V21.844C283.708 22.3107 283.764 22.6093 283.876 22.74C284.007 22.852 284.287 22.908 284.716 22.908C284.828 22.908 284.987 22.908 285.192 22.908C285.416 22.908 285.659 22.908 285.92 22.908C286.182 22.908 286.424 22.908 286.648 22.908C286.872 22.908 287.05 22.908 287.18 22.908C287.46 22.908 287.666 22.824 287.796 22.656C287.946 22.4693 288.048 22.1053 288.104 21.564C288.179 21.004 288.235 20.1733 288.272 19.072C288.496 19.24 288.786 19.4173 289.14 19.604C289.514 19.7907 289.896 19.9493 290.288 20.08C290.699 20.2107 291.044 20.3227 291.324 20.416C291.212 21.8907 291.026 23.048 290.764 23.888C290.503 24.7093 290.111 25.2787 289.588 25.596C289.066 25.9133 288.366 26.072 287.488 26.072C287.32 26.072 287.087 26.072 286.788 26.072C286.49 26.072 286.172 26.072 285.836 26.072C285.5 26.072 285.183 26.072 284.884 26.072C284.604 26.072 284.39 26.072 284.24 26.072C283.176 26.072 282.364 25.9413 281.804 25.68C281.244 25.4187 280.852 24.98 280.628 24.364C280.423 23.748 280.32 22.9173 280.32 21.872V14.284ZM266.068 11.792H291.072V15.04H266.068V11.792ZM270.688 4.008H288.86V7.228H270.688V4.008ZM272.788 14.312H276.316C276.186 15.6373 275.971 16.9067 275.672 18.12C275.392 19.3333 274.944 20.472 274.328 21.536C273.731 22.5813 272.9 23.5333 271.836 24.392C270.791 25.2693 269.419 26.0253 267.72 26.66C267.608 26.3427 267.431 25.9973 267.188 25.624C266.946 25.2693 266.684 24.9147 266.404 24.56C266.143 24.224 265.882 23.9347 265.62 23.692C267.114 23.2067 268.308 22.6373 269.204 21.984C270.119 21.3307 270.81 20.6027 271.276 19.8C271.762 18.9787 272.107 18.1107 272.312 17.196C272.536 16.2813 272.695 15.32 272.788 14.312ZM270.632 0.619999L274.048 1.292C273.768 2.39333 273.414 3.54133 272.984 4.736C272.574 5.93067 272.107 7.07867 271.584 8.18C271.062 9.28133 270.483 10.252 269.848 11.092C269.587 10.9053 269.279 10.7187 268.924 10.532C268.57 10.3267 268.206 10.14 267.832 9.972C267.459 9.804 267.142 9.67333 266.88 9.58C267.478 8.796 268.019 7.89067 268.504 6.864C269.008 5.83733 269.438 4.78267 269.792 3.7C270.166 2.59867 270.446 1.572 270.632 0.619999ZM276.848 0.199999H280.264V12.772H276.848V0.199999ZM300.76 12.604H317.476V26.576H314.116V15.124H303.952V26.576H300.76V12.604ZM295.16 8.768H320.136V11.428H295.16V8.768ZM297.12 5.044H318.596V7.564H297.12V5.044ZM302.916 16.328H315.46V18.428H302.916V16.328ZM302.916 19.66H315.46V21.76H302.916V19.66ZM302.552 23.02H315.488V25.568H302.552V23.02ZM316.552 0.312L318.484 2.692C317.047 2.93467 315.47 3.14 313.752 3.308C312.054 3.45733 310.28 3.588 308.432 3.7C306.584 3.79333 304.727 3.85867 302.86 3.896C300.994 3.93333 299.192 3.94267 297.456 3.924C297.438 3.56933 297.363 3.14933 297.232 2.664C297.102 2.17867 296.962 1.768 296.812 1.432C298.53 1.432 300.294 1.41333 302.104 1.376C303.934 1.32 305.726 1.24533 307.48 1.152C309.235 1.05867 310.887 0.946665 312.436 0.815998C313.986 0.666666 315.358 0.498666 316.552 0.312ZM304.624 2.636L308.096 3.336C307.462 5.65067 306.64 7.9 305.632 10.084C304.643 12.268 303.392 14.2747 301.88 16.104C300.368 17.9147 298.539 19.4453 296.392 20.696C296.224 20.4347 296.019 20.136 295.776 19.8C295.534 19.464 295.282 19.1373 295.02 18.82C294.759 18.5027 294.516 18.2413 294.292 18.036C296.271 16.9533 297.942 15.6 299.304 13.976C300.686 12.3333 301.806 10.532 302.664 8.572C303.523 6.612 304.176 4.63333 304.624 2.636ZM335.34 16.804L334.584 7.228L334.444 3.056H339.092L338.952 7.228L338.196 16.804H335.34ZM336.768 24.252C336.059 24.252 335.471 24.0187 335.004 23.552C334.538 23.0853 334.304 22.4973 334.304 21.788C334.304 21.06 334.538 20.4627 335.004 19.996C335.471 19.5293 336.059 19.296 336.768 19.296C337.478 19.296 338.066 19.5293 338.532 19.996C338.999 20.4627 339.232 21.06 339.232 21.788C339.232 22.4973 338.999 23.0853 338.532 23.552C338.066 24.0187 337.478 24.252 336.768 24.252ZM13.712 45.392C13.1333 46.2133 12.4427 47.0627 11.64 47.94C10.8373 48.7987 9.95067 49.6573 8.98001 50.516C8.00934 51.356 6.97334 52.1587 5.87201 52.924C4.78934 53.6893 3.66934 54.3893 2.51201 55.024C2.30667 54.632 1.98934 54.1747 1.56001 53.652C1.14934 53.1107 0.757339 52.672 0.384005 52.336C2.00801 51.496 3.55734 50.5067 5.03201 49.368C6.50667 48.2107 7.83201 46.9973 9.00801 45.728C10.184 44.4587 11.1173 43.2547 11.808 42.116H15.308C16.0547 43.18 16.8947 44.2067 17.828 45.196C18.7613 46.1853 19.7413 47.1093 20.768 47.968C21.8133 48.808 22.8867 49.5733 23.988 50.264C25.108 50.936 26.228 51.5147 27.348 52C26.9187 52.4293 26.5173 52.9053 26.144 53.428C25.7707 53.9507 25.4253 54.4733 25.108 54.996C24.044 54.3987 22.9613 53.7267 21.86 52.98C20.7587 52.2147 19.704 51.412 18.696 50.572C17.688 49.7133 16.7547 48.8453 15.896 47.968C15.0373 47.0907 14.3093 46.232 13.712 45.392ZM4.22001 58.552H23.372V61.464H4.22001V58.552ZM5.64801 52.336H22.084V55.304H5.64801V52.336ZM1.95201 64.852H25.892V67.848H1.95201V64.852ZM11.976 53.652H15.504V66.504H11.976V53.652ZM38.38 53.512H56.132V56.34H38.38V53.512ZM41.432 57.656H52.94V60.316H41.432V57.656ZM42.496 54.548L45.38 55.276C44.6893 56.8813 43.7467 58.3653 42.552 59.728C41.376 61.072 40.1253 62.1827 38.8 63.06C38.632 62.8733 38.408 62.6493 38.128 62.388C37.8667 62.108 37.5867 61.8467 37.288 61.604C37.008 61.3613 36.756 61.1653 36.532 61.016C37.8387 60.3067 39.0147 59.392 40.06 58.272C41.124 57.1333 41.936 55.892 42.496 54.548ZM52.436 57.656H55.544C55.544 57.656 55.5347 57.8053 55.516 58.104C55.516 58.384 55.4973 58.6267 55.46 58.832C55.348 60.6427 55.208 62.136 55.04 63.312C54.8907 64.4693 54.7227 65.3653 54.536 66C54.3493 66.6533 54.1253 67.12 53.864 67.4C53.6027 67.7173 53.3133 67.9413 52.996 68.072C52.6973 68.2027 52.3613 68.296 51.988 68.352C51.6707 68.3893 51.26 68.4173 50.756 68.436C50.2707 68.4547 49.7387 68.4453 49.16 68.408C49.1413 68.016 49.0667 67.5587 48.936 67.036C48.8053 66.532 48.628 66.112 48.404 65.776C48.852 65.8133 49.2533 65.8413 49.608 65.86C49.9627 65.86 50.2333 65.86 50.42 65.86C50.6067 65.86 50.756 65.8413 50.868 65.804C50.9987 65.7667 51.12 65.6827 51.232 65.552C51.4 65.3653 51.5493 65.0107 51.68 64.488C51.8293 63.9467 51.96 63.1627 52.072 62.136C52.2027 61.1093 52.324 59.7747 52.436 58.132V57.656ZM43.84 48.78V50.124H51.064V48.78H43.84ZM43.84 45.252V46.568H51.064V45.252H43.84ZM40.844 42.928H54.172V52.448H40.844V42.928ZM30.204 48.108H38.744V51.272H30.204V48.108ZM33.032 42.564H36.168V59.98H33.032V42.564ZM29.56 60.54C30.288 60.2787 31.128 59.952 32.08 59.56C33.0507 59.168 34.0773 58.748 35.16 58.3C36.2427 57.8333 37.316 57.3667 38.38 56.9L39.108 59.784C37.708 60.512 36.28 61.24 34.824 61.968C33.368 62.696 32.0333 63.3587 30.82 63.956L29.56 60.54ZM49.216 58.216L51.484 59.448C51.148 60.568 50.672 61.716 50.056 62.892C49.44 64.0493 48.7493 65.132 47.984 66.14C47.2187 67.148 46.416 67.9787 45.576 68.632C45.296 68.3147 44.932 67.9787 44.484 67.624C44.036 67.2693 43.5973 66.98 43.168 66.756C44.0827 66.1773 44.932 65.4307 45.716 64.516C46.5 63.6013 47.1907 62.5933 47.788 61.492C48.404 60.3907 48.88 59.2987 49.216 58.216ZM44.988 58.244L47.172 59.532C46.7053 60.5027 46.0893 61.4827 45.324 62.472C44.5773 63.4613 43.756 64.3853 42.86 65.244C41.964 66.1027 41.068 66.812 40.172 67.372C39.9107 67.036 39.5747 66.6813 39.164 66.308C38.772 65.9347 38.38 65.6267 37.988 65.384C38.9027 64.9173 39.808 64.3013 40.704 63.536C41.6187 62.7707 42.4493 61.9307 43.196 61.016C43.9427 60.0827 44.54 59.1587 44.988 58.244ZM69.04 57.152H83.74V68.352H80.52V60.204H72.12V68.492H69.04V57.152ZM81.5 42.2L84.076 44.832C82.7133 45.3547 81.2013 45.812 79.54 46.204C77.8787 46.5773 76.1707 46.8853 74.416 47.128C72.68 47.3707 70.9813 47.5667 69.32 47.716C69.264 47.324 69.1333 46.848 68.928 46.288C68.7413 45.7093 68.5547 45.2333 68.368 44.86C69.5627 44.7293 70.7667 44.58 71.98 44.412C73.212 44.244 74.4067 44.048 75.564 43.824C76.7213 43.6 77.804 43.3573 78.812 43.096C79.82 42.816 80.716 42.5173 81.5 42.2ZM74.78 45.364H77.972V58.916H74.78V45.364ZM67.304 50.376H85.14V53.568H67.304V50.376ZM71.252 64.292H81.864V67.344H71.252V64.292ZM60.388 45L62.292 42.564C62.8147 42.8253 63.4027 43.124 64.056 43.46C64.7093 43.796 65.344 44.132 65.96 44.468C66.5947 44.804 67.108 45.1027 67.5 45.364L65.512 48.08C65.1387 47.8 64.6533 47.4827 64.056 47.128C63.4587 46.7733 62.8333 46.4093 62.18 46.036C61.5267 45.644 60.9293 45.2987 60.388 45ZM59.044 52.756L60.864 50.264C61.3867 50.488 61.984 50.768 62.656 51.104C63.328 51.44 63.9813 51.776 64.616 52.112C65.2507 52.4293 65.764 52.7187 66.156 52.98L64.28 55.78C63.9067 55.5 63.412 55.1827 62.796 54.828C62.1987 54.4733 61.564 54.1093 60.892 53.736C60.22 53.3627 59.604 53.036 59.044 52.756ZM59.464 65.916C59.968 65.2067 60.5187 64.376 61.116 63.424C61.732 62.4533 62.3573 61.4267 62.992 60.344C63.6267 59.2427 64.224 58.1507 64.784 57.068L67.248 59.308C66.7627 60.2787 66.24 61.2773 65.68 62.304C65.1387 63.3307 64.5787 64.3387 64 65.328C63.44 66.3173 62.8707 67.2693 62.292 68.184L59.464 65.916ZM88.808 60.316H101.884V62.696H88.808V60.316ZM88.192 46.988H102.192V49.424H88.192V46.988ZM93.736 45.028H96.788V65.104H93.736V45.028ZM88.024 64.768C89.2 64.6933 90.544 64.6 92.056 64.488C93.568 64.376 95.164 64.2547 96.844 64.124C98.5427 63.9747 100.232 63.8253 101.912 63.676L101.94 66.224C100.353 66.392 98.748 66.56 97.124 66.728C95.5187 66.896 93.9693 67.0453 92.476 67.176C91.0013 67.3253 89.648 67.4653 88.416 67.596L88.024 64.768ZM91.58 55.864V57.124H98.972V55.864H91.58ZM91.58 52.616V53.876H98.972V52.616H91.58ZM88.92 50.516H101.744V59.224H88.92V50.516ZM100.4 42.368L101.856 44.86C100.68 45.1027 99.3547 45.3173 97.88 45.504C96.424 45.672 94.9307 45.812 93.4 45.924C91.8693 46.0173 90.404 46.0827 89.004 46.12C88.948 45.7653 88.8453 45.364 88.696 44.916C88.5653 44.4493 88.416 44.048 88.248 43.712C89.2933 43.656 90.3667 43.5907 91.468 43.516C92.5693 43.4227 93.652 43.32 94.716 43.208C95.7987 43.096 96.816 42.9747 97.768 42.844C98.7387 42.6947 99.616 42.536 100.4 42.368ZM102.164 48.556H111.88V51.636H102.164V48.556ZM110.508 48.556H113.728C113.728 48.556 113.728 48.6493 113.728 48.836C113.728 49.0227 113.728 49.2373 113.728 49.48C113.728 49.704 113.728 49.8907 113.728 50.04C113.653 52.9147 113.579 55.36 113.504 57.376C113.429 59.3733 113.345 61.0253 113.252 62.332C113.177 63.62 113.056 64.628 112.888 65.356C112.739 66.084 112.552 66.6067 112.328 66.924C112.011 67.3907 111.675 67.7173 111.32 67.904C110.984 68.1093 110.583 68.2587 110.116 68.352C109.687 68.4267 109.164 68.464 108.548 68.464C107.932 68.4827 107.288 68.4827 106.616 68.464C106.597 67.9973 106.495 67.456 106.308 66.84C106.14 66.224 105.925 65.692 105.664 65.244C106.261 65.3 106.812 65.3373 107.316 65.356C107.82 65.3747 108.203 65.384 108.464 65.384C108.688 65.384 108.875 65.3467 109.024 65.272C109.173 65.1973 109.313 65.076 109.444 64.908C109.593 64.684 109.724 64.2547 109.836 63.62C109.948 62.9667 110.041 62.0427 110.116 60.848C110.209 59.6347 110.284 58.076 110.34 56.172C110.415 54.268 110.471 51.9627 110.508 49.256V48.556ZM104.852 42.676H108.072C108.072 45.0653 108.044 47.3333 107.988 49.48C107.951 51.6267 107.829 53.652 107.624 55.556C107.437 57.4413 107.111 59.196 106.644 60.82C106.196 62.4253 105.561 63.8907 104.74 65.216C103.919 66.5413 102.864 67.708 101.576 68.716C101.408 68.436 101.184 68.1373 100.904 67.82C100.643 67.5027 100.363 67.1947 100.064 66.896C99.784 66.616 99.504 66.3827 99.224 66.196C100.4 65.3 101.352 64.2733 102.08 63.116C102.808 61.94 103.368 60.6427 103.76 59.224C104.152 57.7867 104.423 56.2187 104.572 54.52C104.721 52.8027 104.805 50.964 104.824 49.004C104.843 47.0253 104.852 44.916 104.852 42.676ZM139.516 43.6C139.591 45.8027 139.703 47.9867 139.852 50.152C140.02 52.2987 140.244 54.3427 140.524 56.284C140.823 58.2067 141.215 59.9707 141.7 61.576C142.185 63.1627 142.801 64.488 143.548 65.552C143.287 65.7573 142.997 66.0187 142.68 66.336C142.363 66.6533 142.064 66.98 141.784 67.316C141.504 67.652 141.271 67.9693 141.084 68.268C140.225 66.9427 139.516 65.412 138.956 63.676C138.396 61.9213 137.948 59.9987 137.612 57.908C137.295 55.7987 137.043 53.5587 136.856 51.188C136.688 48.8173 136.548 46.344 136.436 43.768L139.516 43.6ZM131.116 43.964L134.364 44.132C134.252 47.6227 134.056 50.8893 133.776 53.932C133.496 56.956 133.048 59.7093 132.432 62.192C131.816 64.6747 130.929 66.84 129.772 68.688C129.585 68.3707 129.343 68.0347 129.044 67.68C128.745 67.3253 128.437 66.98 128.12 66.644C127.803 66.3267 127.504 66.0653 127.224 65.86C127.971 64.74 128.577 63.396 129.044 61.828C129.511 60.2413 129.884 58.496 130.164 56.592C130.444 54.688 130.649 52.672 130.78 50.544C130.929 48.3973 131.041 46.204 131.116 43.964ZM121.064 46.12V49.732H124.9V46.12H121.064ZM118.292 43.264H127.812V52.56H118.292V43.264ZM121.904 51.748H124.956V64.264H121.904V51.748ZM118.124 54.912H120.812V65.104H118.124V54.912ZM116.892 64.46C117.807 64.236 118.861 63.9467 120.056 63.592C121.251 63.2373 122.511 62.864 123.836 62.472C125.18 62.0613 126.505 61.6507 127.812 61.24L128.344 64.068C126.515 64.684 124.657 65.3 122.772 65.916C120.905 66.532 119.225 67.092 117.732 67.596L116.892 64.46ZM123.136 55.752H128.176V58.664H123.136V55.752ZM168.636 43.6C168.711 45.8027 168.823 47.9867 168.972 50.152C169.14 52.2987 169.364 54.3427 169.644 56.284C169.943 58.2067 170.335 59.9707 170.82 61.576C171.305 63.1627 171.921 64.488 172.668 65.552C172.407 65.7573 172.117 66.0187 171.8 66.336C171.483 66.6533 171.184 66.98 170.904 67.316C170.624 67.652 170.391 67.9693 170.204 68.268C169.345 66.9427 168.636 65.412 168.076 63.676C167.516 61.9213 167.068 59.9987 166.732 57.908C166.415 55.7987 166.163 53.5587 165.976 51.188C165.808 48.8173 165.668 46.344 165.556 43.768L168.636 43.6ZM160.236 43.964L163.484 44.132C163.372 47.6227 163.176 50.8893 162.896 53.932C162.616 56.956 162.168 59.7093 161.552 62.192C160.936 64.6747 160.049 66.84 158.892 68.688C158.705 68.3707 158.463 68.0347 158.164 67.68C157.865 67.3253 157.557 66.98 157.24 66.644C156.923 66.3267 156.624 66.0653 156.344 65.86C157.091 64.74 157.697 63.396 158.164 61.828C158.631 60.2413 159.004 58.496 159.284 56.592C159.564 54.688 159.769 52.672 159.9 50.544C160.049 48.3973 160.161 46.204 160.236 43.964ZM150.184 46.12V49.732H154.02V46.12H150.184ZM147.412 43.264H156.932V52.56H147.412V43.264ZM151.024 51.748H154.076V64.264H151.024V51.748ZM147.244 54.912H149.932V65.104H147.244V54.912ZM146.012 64.46C146.927 64.236 147.981 63.9467 149.176 63.592C150.371 63.2373 151.631 62.864 152.956 62.472C154.3 62.0613 155.625 61.6507 156.932 61.24L157.464 64.068C155.635 64.684 153.777 65.3 151.892 65.916C150.025 66.532 148.345 67.092 146.852 67.596L146.012 64.46ZM152.256 55.752H157.296V58.664H152.256V55.752ZM188.544 57.432H199.156V60.428H188.544V57.432ZM182.328 58.496C182.869 59.8587 183.551 60.9693 184.372 61.828C185.212 62.668 186.164 63.3213 187.228 63.788C188.311 64.236 189.477 64.544 190.728 64.712C191.979 64.8613 193.295 64.936 194.676 64.936C194.937 64.936 195.292 64.936 195.74 64.936C196.207 64.936 196.711 64.936 197.252 64.936C197.812 64.936 198.381 64.936 198.96 64.936C199.539 64.936 200.071 64.936 200.556 64.936C201.06 64.9173 201.471 64.908 201.788 64.908C201.62 65.1507 201.461 65.468 201.312 65.86C201.163 66.252 201.023 66.644 200.892 67.036C200.761 67.4467 200.668 67.82 200.612 68.156H199.324H194.48C192.763 68.156 191.157 68.0347 189.664 67.792C188.171 67.568 186.799 67.148 185.548 66.532C184.297 65.916 183.177 65.048 182.188 63.928C181.217 62.7893 180.377 61.3147 179.668 59.504L182.328 58.496ZM178.576 45.084H198.82V48.164H178.576V45.084ZM176.084 50.908H201.032V54.016H176.084V50.908ZM186.724 42.228H190.168V52.644H186.724V42.228ZM186.724 52.952H190.168V66.196L186.724 64.964V52.952ZM180.004 55.192L183.476 55.584C183.215 57.152 182.851 58.748 182.384 60.372C181.917 61.996 181.301 63.5267 180.536 64.964C179.771 66.3827 178.809 67.568 177.652 68.52C177.465 68.296 177.213 68.044 176.896 67.764C176.597 67.5027 176.289 67.2413 175.972 66.98C175.673 66.7187 175.393 66.5133 175.132 66.364C176.196 65.524 177.055 64.488 177.708 63.256C178.38 62.024 178.893 60.6987 179.248 59.28C179.621 57.8613 179.873 56.4987 180.004 55.192ZM209.096 69.864L208.2 67.596C209.376 67.2227 210.272 66.7093 210.888 66.056C211.523 65.4213 211.84 64.6933 211.84 63.872L211.616 61.128L213.184 63.62C212.941 63.8253 212.68 63.984 212.4 64.096C212.12 64.208 211.821 64.264 211.504 64.264C210.813 64.264 210.197 64.0493 209.656 63.62C209.115 63.172 208.844 62.5467 208.844 61.744C208.844 60.96 209.115 60.344 209.656 59.896C210.197 59.448 210.841 59.224 211.588 59.224C212.577 59.224 213.324 59.5693 213.828 60.26C214.351 60.9507 214.612 61.884 214.612 63.06C214.612 64.6467 214.127 66.0467 213.156 67.26C212.185 68.4733 210.832 69.3413 209.096 69.864ZM245.44 43.628H256.836V46.708H245.44V43.628ZM244.488 53.344H259.972V56.536H244.488V53.344ZM250.424 50.096H253.784V64.768C253.784 65.608 253.681 66.2707 253.476 66.756C253.271 67.2413 252.897 67.6147 252.356 67.876C251.796 68.1373 251.124 68.3053 250.34 68.38C249.575 68.4733 248.679 68.5107 247.652 68.492C247.577 68.0253 247.419 67.4747 247.176 66.84C246.933 66.2053 246.691 65.6547 246.448 65.188C247.157 65.2067 247.839 65.2253 248.492 65.244C249.145 65.2627 249.593 65.2627 249.836 65.244C250.06 65.244 250.209 65.2067 250.284 65.132C250.377 65.0573 250.424 64.9267 250.424 64.74V50.096ZM255.604 43.628H256.444L257.116 43.432L259.3 45.084C258.759 45.9053 258.143 46.764 257.452 47.66C256.78 48.5373 256.071 49.3867 255.324 50.208C254.577 51.0107 253.84 51.72 253.112 52.336C252.888 52.0373 252.58 51.692 252.188 51.3C251.796 50.908 251.46 50.6 251.18 50.376C251.74 49.8533 252.309 49.228 252.888 48.5C253.467 47.772 253.989 47.0347 254.456 46.288C254.941 45.5413 255.324 44.888 255.604 44.328V43.628ZM233.82 47.772H242.892V50.908H233.82V47.772ZM237.6 42.2L240.736 42.536C240.475 44.0293 240.176 45.5973 239.84 47.24C239.523 48.8827 239.187 50.5253 238.832 52.168C238.477 53.792 238.123 55.3693 237.768 56.9C237.413 58.412 237.068 59.7933 236.732 61.044L233.988 59.616C234.305 58.5147 234.623 57.2547 234.94 55.836C235.276 54.4173 235.603 52.924 235.92 51.356C236.237 49.7693 236.536 48.2013 236.816 46.652C237.115 45.084 237.376 43.6 237.6 42.2ZM235.472 59.14L237.292 56.76C238.263 57.376 239.28 58.0667 240.344 58.832C241.427 59.5973 242.425 60.372 243.34 61.156C244.273 61.94 245.011 62.6867 245.552 63.396L243.536 66.112C243.013 65.4027 242.304 64.6373 241.408 63.816C240.512 62.976 239.541 62.1453 238.496 61.324C237.469 60.5027 236.461 59.7747 235.472 59.14ZM241.716 47.772H242.276L242.864 47.716L244.852 48.052C244.647 51.692 244.189 54.8373 243.48 57.488C242.789 60.12 241.819 62.3413 240.568 64.152C239.336 65.9627 237.787 67.4467 235.92 68.604C235.715 68.1933 235.416 67.7173 235.024 67.176C234.632 66.6533 234.259 66.2427 233.904 65.944C235.491 65.104 236.835 63.872 237.936 62.248C239.037 60.624 239.896 58.6453 240.512 56.312C241.147 53.9787 241.548 51.3467 241.716 48.416V47.772ZM276.044 62.836L278.648 62.136C278.965 62.6213 279.236 63.1533 279.46 63.732C279.684 64.3107 279.843 64.824 279.936 65.272L277.192 66.084C277.136 65.636 276.996 65.104 276.772 64.488C276.548 63.872 276.305 63.3213 276.044 62.836ZM283.436 62.08L286.348 62.864C286.049 63.4613 285.751 64.04 285.452 64.6C285.172 65.16 284.911 65.636 284.668 66.028L282.176 65.3C282.4 64.852 282.633 64.32 282.876 63.704C283.119 63.088 283.305 62.5467 283.436 62.08ZM277.584 58.972V60.372H284.528V58.972H277.584ZM274.784 56.984H287.412V62.36H274.784V56.984ZM276.576 49.256V50.544H285.424V49.256H276.576ZM276.576 46.064V47.324H285.424V46.064H276.576ZM273.916 44.02H288.224V52.588H273.916V44.02ZM273.496 53.54H288.7V56.06H273.496V53.54ZM272.936 65.496H289.092V67.988H272.936V65.496ZM277.668 42.2H280.132V45.532H277.668V42.2ZM281.784 42.2H284.276V45.532H281.784V42.2ZM278.144 44.972H280.132V52.196H278.144V44.972ZM281.784 44.972H283.772V52.196H281.784V44.972ZM263.052 49.536H272.88V52.448H263.052V49.536ZM263.724 43.964H272.32V46.848H263.724V43.964ZM270.668 53.876H272.796V64.292H270.668V53.876ZM266.72 50.992H269.492V68.492H266.72V50.992ZM263.444 53.904H265.572V57.264C265.572 58.7013 265.507 60.2133 265.376 61.8C265.245 63.368 264.937 64.824 264.452 66.168C264.228 65.944 263.929 65.692 263.556 65.412C263.183 65.132 262.856 64.9173 262.576 64.768C262.949 63.6293 263.183 62.388 263.276 61.044C263.388 59.7 263.444 58.4213 263.444 57.208V53.904ZM294.3 59.056H315.944V61.324H294.3V59.056ZM292.228 62.332H317.848V64.6H292.228V62.332ZM303.372 56.48H306.704V65.552C306.704 66.2987 306.592 66.8587 306.368 67.232C306.163 67.624 305.78 67.9227 305.22 68.128C304.66 68.3147 303.988 68.4267 303.204 68.464C302.42 68.52 301.487 68.5387 300.404 68.52C300.329 68.128 300.18 67.6893 299.956 67.204C299.751 66.7187 299.545 66.2987 299.34 65.944C299.788 65.9627 300.245 65.9813 300.712 66C301.197 66 301.627 66 302 66C302.373 66 302.635 66 302.784 66C302.989 65.9813 303.139 65.9347 303.232 65.86C303.325 65.7853 303.372 65.6547 303.372 65.468V56.48ZM312.5 55.192L314.628 57.012C313.359 57.236 311.94 57.432 310.372 57.6C308.823 57.7493 307.199 57.8707 305.5 57.964C303.82 58.0387 302.121 58.0947 300.404 58.132C298.705 58.1507 297.053 58.16 295.448 58.16C295.429 57.8613 295.364 57.516 295.252 57.124C295.14 56.7133 295.019 56.3773 294.888 56.116C296.437 56.116 298.033 56.1067 299.676 56.088C301.319 56.0507 302.933 55.9947 304.52 55.92C306.107 55.8453 307.581 55.752 308.944 55.64C310.325 55.528 311.511 55.3787 312.5 55.192ZM304.856 44.58C303.997 45.252 302.943 45.924 301.692 46.596C300.46 47.2493 299.125 47.8653 297.688 48.444C296.251 49.004 294.813 49.48 293.376 49.872C293.208 49.4987 292.965 49.0507 292.648 48.528C292.331 48.0053 292.032 47.576 291.752 47.24C293.245 46.904 294.72 46.484 296.176 45.98C297.632 45.4573 298.967 44.8693 300.18 44.216C301.393 43.5627 302.401 42.9 303.204 42.228H306.256C307.357 43.0307 308.561 43.7493 309.868 44.384C311.175 45 312.547 45.5227 313.984 45.952C315.421 46.3813 316.849 46.7267 318.268 46.988C317.913 47.3613 317.568 47.8093 317.232 48.332C316.896 48.836 316.616 49.3027 316.392 49.732C315.459 49.4893 314.46 49.1907 313.396 48.836C312.351 48.4813 311.305 48.08 310.26 47.632C309.215 47.1653 308.225 46.68 307.292 46.176C306.359 45.6533 305.547 45.1213 304.856 44.58ZM298.696 47.072H311.52V49.06H298.696V47.072ZM299.564 51.916V53.148H310.26V51.916H299.564ZM296.428 49.928H313.564V55.136H296.428V49.928ZM321.964 44.076H346.38V47.52H321.964V44.076ZM335.488 53.484L338.092 51.3C338.839 51.8413 339.641 52.4387 340.5 53.092C341.377 53.7267 342.245 54.3893 343.104 55.08C343.981 55.7707 344.793 56.452 345.54 57.124C346.287 57.7773 346.921 58.3747 347.444 58.916L344.588 61.52C344.121 60.96 343.524 60.344 342.796 59.672C342.087 58.9813 341.312 58.272 340.472 57.544C339.651 56.816 338.801 56.1067 337.924 55.416C337.065 54.7253 336.253 54.0813 335.488 53.484ZM334.368 45.364L338.092 46.68C337.028 48.64 335.759 50.5533 334.284 52.42C332.828 54.2867 331.185 56.0133 329.356 57.6C327.527 59.168 325.539 60.512 323.392 61.632C323.224 61.3333 323 60.9973 322.72 60.624C322.44 60.2507 322.151 59.8867 321.852 59.532C321.572 59.1587 321.311 58.8413 321.068 58.58C322.58 57.8893 324.008 57.0493 325.352 56.06C326.696 55.052 327.937 53.96 329.076 52.784C330.233 51.608 331.251 50.3947 332.128 49.144C333.024 47.8747 333.771 46.6147 334.368 45.364ZM332.324 52.14L335.992 48.472V68.464H332.324V52.14ZM358.392 44.692H376.228V47.52H358.392V44.692ZM365.448 42.256H368.808V46.036H365.448V42.256ZM363.376 50.768V52.308H371.02V50.768H363.376ZM360.212 48.556H374.38V54.52H360.212V48.556ZM357.72 55.584H376.592V60.988H373.512V58.132H360.66V61.016H357.72V55.584ZM361.612 59.308H372.728V61.968H361.612V59.308ZM365.448 59.952H368.78V65.244C368.78 66.028 368.677 66.644 368.472 67.092C368.285 67.54 367.903 67.876 367.324 68.1C366.745 68.3053 366.045 68.4267 365.224 68.464C364.421 68.52 363.488 68.548 362.424 68.548C362.368 68.0813 362.247 67.568 362.06 67.008C361.892 66.448 361.696 65.944 361.472 65.496C361.939 65.5147 362.396 65.5333 362.844 65.552C363.311 65.5707 363.731 65.58 364.104 65.58C364.477 65.5613 364.729 65.552 364.86 65.552C365.084 65.552 365.233 65.524 365.308 65.468C365.401 65.3933 365.448 65.2813 365.448 65.132V59.952ZM355.9 42.312L359.064 43.32C358.467 44.888 357.757 46.4747 356.936 48.08C356.115 49.6667 355.228 51.1787 354.276 52.616C353.324 54.0347 352.335 55.276 351.308 56.34C351.215 56.06 351.056 55.7053 350.832 55.276C350.627 54.828 350.403 54.38 350.16 53.932C349.917 53.484 349.703 53.12 349.516 52.84C350.356 51.9813 351.168 50.992 351.952 49.872C352.755 48.752 353.492 47.548 354.164 46.26C354.855 44.972 355.433 43.656 355.9 42.312ZM353.212 50.068L356.404 46.876V46.904V68.464H353.212V50.068ZM390.956 58.804L390.2 49.228L390.06 45.056H394.708L394.568 49.228L393.812 58.804H390.956ZM392.384 66.252C391.675 66.252 391.087 66.0187 390.62 65.552C390.153 65.0853 389.92 64.4973 389.92 63.788C389.92 63.06 390.153 62.4627 390.62 61.996C391.087 61.5293 391.675 61.296 392.384 61.296C393.093 61.296 393.681 61.5293 394.148 61.996C394.615 62.4627 394.848 63.06 394.848 63.788C394.848 64.4973 394.615 65.0853 394.148 65.552C393.681 66.0187 393.093 66.252 392.384 66.252ZM43.672 97.444H55.124V110.38H51.904V100.496H46.696V110.492H43.672V97.444ZM47.396 84.256H50.644V98.284H47.396V84.256ZM49.328 90.024H56.076V93.132H49.328V90.024ZM45.268 106.348H53.416V109.4H45.268V106.348ZM33.284 87.308V93.44H40.088V87.308H33.284ZM30.792 85.068H42.692V95.68H30.792V85.068ZM33.228 88.512L34.628 88.12C34.852 88.7547 35.048 89.4453 35.216 90.192C35.384 90.9387 35.4867 91.5827 35.524 92.124L34.04 92.6C34.0213 92.0587 33.9373 91.4053 33.788 90.64C33.6387 89.8747 33.452 89.1653 33.228 88.512ZM33.928 104.584L35.972 104.332C36.14 105.097 36.2707 105.937 36.364 106.852C36.476 107.767 36.5413 108.56 36.56 109.232L34.404 109.512C34.4227 108.84 34.3853 108.047 34.292 107.132C34.1987 106.199 34.0773 105.349 33.928 104.584ZM36.728 104.444L38.716 104.08C38.996 104.827 39.248 105.629 39.472 106.488C39.696 107.328 39.8547 108.075 39.948 108.728L37.848 109.148C37.792 108.513 37.652 107.757 37.428 106.88C37.2227 106.003 36.9893 105.191 36.728 104.444ZM39.444 104.22L41.432 103.464C41.8987 104.136 42.3373 104.883 42.748 105.704C43.1587 106.525 43.448 107.244 43.616 107.86L41.488 108.728C41.3387 108.093 41.068 107.356 40.676 106.516C40.3027 105.676 39.892 104.911 39.444 104.22ZM31.464 104.416L33.732 105.06C33.564 106.068 33.3307 107.067 33.032 108.056C32.752 109.045 32.3133 109.867 31.716 110.52L29.532 109.4C30.0547 108.803 30.4747 108.056 30.792 107.16C31.1093 106.245 31.3333 105.331 31.464 104.416ZM38.716 88.092L40.396 88.652C40.1347 89.324 39.864 90.0333 39.584 90.78C39.3227 91.5267 39.08 92.152 38.856 92.656L37.596 92.18C37.7453 91.788 37.8853 91.3587 38.016 90.892C38.1653 90.4067 38.3053 89.9213 38.436 89.436C38.5667 88.932 38.66 88.484 38.716 88.092ZM30.148 100.916C31.2493 100.897 32.5 100.869 33.9 100.832C35.3187 100.776 36.812 100.72 38.38 100.664C39.948 100.608 41.516 100.543 43.084 100.468L43.028 103.1C41.516 103.175 39.9853 103.259 38.436 103.352C36.9053 103.427 35.44 103.501 34.04 103.576C32.6587 103.632 31.3893 103.688 30.232 103.744L30.148 100.916ZM30.848 96.884H42.636V99.432H30.848V96.884ZM35.636 86.216H37.652V94.644H38.128V101.952H35.16V94.644H35.636V86.216ZM61.396 101.476H82.984V103.52H61.396V101.476ZM59.548 104.444H84.664V106.6H59.548V104.444ZM70.412 99.18H73.744V107.636C73.744 108.383 73.632 108.933 73.408 109.288C73.2027 109.661 72.82 109.941 72.26 110.128C71.7 110.315 71.028 110.427 70.244 110.464C69.46 110.501 68.5267 110.52 67.444 110.52C67.3507 110.128 67.2013 109.699 66.996 109.232C66.7907 108.765 66.5853 108.364 66.38 108.028C66.828 108.047 67.2853 108.056 67.752 108.056C68.2373 108.056 68.6667 108.047 69.04 108.028C69.4133 108.028 69.6747 108.028 69.824 108.028C70.0293 108.028 70.1787 108 70.272 107.944C70.3653 107.869 70.412 107.739 70.412 107.552V99.18ZM78.784 98.088L80.744 99.74C79.5307 99.9453 78.1867 100.113 76.712 100.244C75.256 100.375 73.7253 100.477 72.12 100.552C70.5333 100.627 68.9373 100.683 67.332 100.72C65.7267 100.739 64.168 100.729 62.656 100.692C62.6373 100.449 62.572 100.141 62.46 99.768C62.348 99.3947 62.2453 99.096 62.152 98.872C63.608 98.872 65.1107 98.8627 66.66 98.844C68.2093 98.8067 69.7307 98.76 71.224 98.704C72.7173 98.6293 74.108 98.5453 75.396 98.452C76.7027 98.3587 77.832 98.2373 78.784 98.088ZM59.688 85.488H71.952V87.14H59.688V85.488ZM59.268 93.272H72.036V94.896H59.268V93.272ZM62.628 90.752V91.452H68.984V90.752H62.628ZM62.628 88.96V89.632H68.984V88.96H62.628ZM60.444 87.812H71.252V92.6H60.444V87.812ZM64.448 84.228H66.996V97.892H64.448V84.228ZM72.484 91.06H82.088V93.16H72.484V91.06ZM75.368 84.984H80.352V87.252H75.368V84.984ZM81.024 91.06H81.528L82.032 91.004L83.572 91.452C83.0493 92.908 82.284 94.112 81.276 95.064C80.268 95.9973 79.064 96.7253 77.664 97.248C76.264 97.7707 74.6867 98.1627 72.932 98.424C72.8387 98.088 72.68 97.7147 72.456 97.304C72.2507 96.8747 72.036 96.5293 71.812 96.268C73.3053 96.1187 74.668 95.8573 75.9 95.484C77.132 95.092 78.1867 94.56 79.064 93.888C79.9413 93.216 80.5947 92.3573 81.024 91.312V91.06ZM76.012 92.908C76.8333 93.9907 78.0653 94.8773 79.708 95.568C81.3507 96.2587 83.2173 96.716 85.308 96.94C85.0093 97.22 84.692 97.5933 84.356 98.06C84.0387 98.508 83.796 98.9093 83.628 99.264C82.116 99.0213 80.7253 98.648 79.456 98.144C78.1867 97.64 77.0573 97.0147 76.068 96.268C75.0787 95.5027 74.2573 94.6253 73.604 93.636L76.012 92.908ZM73.744 84.984H76.516V86.72C76.516 87.28 76.4413 87.8587 76.292 88.456C76.1427 89.0347 75.872 89.5947 75.48 90.136C75.1067 90.6587 74.5467 91.1253 73.8 91.536C73.6507 91.3307 73.4453 91.1067 73.184 90.864C72.9227 90.6027 72.652 90.3507 72.372 90.108C72.092 89.8467 71.8587 89.66 71.672 89.548C72.5867 89.1 73.156 88.6333 73.38 88.148C73.6227 87.6627 73.744 87.1587 73.744 86.636V84.984ZM78.84 84.984H81.668V87.448C81.668 87.84 81.6867 88.0733 81.724 88.148C81.78 88.2227 81.8733 88.26 82.004 88.26C82.06 88.26 82.1253 88.26 82.2 88.26C82.2933 88.26 82.368 88.26 82.424 88.26C82.4987 88.26 82.564 88.26 82.62 88.26C82.676 88.2413 82.7227 88.2227 82.76 88.204C82.7973 88.1667 82.8347 88.1293 82.872 88.092C82.928 88.036 82.9653 87.952 82.984 87.84C83.0213 87.7467 83.04 87.588 83.04 87.364C83.0587 87.14 83.0773 86.888 83.096 86.608C83.32 86.8133 83.6187 87.0187 83.992 87.224C84.384 87.4107 84.748 87.56 85.084 87.672C85.0467 88.0453 84.9907 88.4187 84.916 88.792C84.86 89.1467 84.7853 89.408 84.692 89.576C84.4867 89.968 84.1973 90.2293 83.824 90.36C83.6373 90.4533 83.4227 90.5187 83.18 90.556C82.9373 90.5747 82.7133 90.584 82.508 90.584C82.3213 90.584 82.0973 90.584 81.836 90.584C81.5933 90.584 81.388 90.584 81.22 90.584C80.9027 90.584 80.576 90.5373 80.24 90.444C79.904 90.3507 79.6333 90.2013 79.428 89.996C79.2227 89.772 79.0733 89.492 78.98 89.156C78.8867 88.8013 78.84 88.26 78.84 87.532V84.984ZM60.612 95.092H62.908V96.492H68.62V95.092H71V98.172H60.612V95.092ZM103.984 84.2H107.372V89.184H103.984V84.2ZM97.936 87.84H114.092V93.776H110.816V90.752H101.072V93.804H97.936V87.84ZM103.172 91.368L106.532 91.872C106.177 92.936 105.804 94.056 105.412 95.232C105.02 96.3893 104.619 97.5373 104.208 98.676C103.797 99.8147 103.396 100.916 103.004 101.98C102.612 103.025 102.239 103.977 101.884 104.836L98.832 103.856C99.168 103.053 99.532 102.148 99.924 101.14C100.316 100.113 100.699 99.04 101.072 97.92C101.464 96.8 101.837 95.68 102.192 94.56C102.565 93.4213 102.892 92.3573 103.172 91.368ZM97.74 95.344H114.372V98.34H97.74V95.344ZM108.52 97.248L112.076 97.388C111.721 99.4413 111.189 101.215 110.48 102.708C109.789 104.183 108.893 105.424 107.792 106.432C106.691 107.44 105.347 108.271 103.76 108.924C102.192 109.596 100.363 110.137 98.272 110.548C98.216 110.287 98.0947 109.969 97.908 109.596C97.7213 109.241 97.516 108.887 97.292 108.532C97.0867 108.177 96.8907 107.879 96.704 107.636C99.2053 107.281 101.277 106.721 102.92 105.956C104.581 105.191 105.869 104.108 106.784 102.708C107.699 101.289 108.277 99.4693 108.52 97.248ZM100.624 103.52L102.528 101.084C103.555 101.457 104.628 101.896 105.748 102.4C106.868 102.904 107.969 103.455 109.052 104.052C110.135 104.631 111.133 105.228 112.048 105.844C112.981 106.441 113.775 107.029 114.428 107.608L112.272 110.408C111.675 109.829 110.928 109.223 110.032 108.588C109.155 107.953 108.184 107.328 107.12 106.712C106.075 106.096 104.992 105.517 103.872 104.976C102.752 104.416 101.669 103.931 100.624 103.52ZM87.744 98.536C88.9947 98.2747 90.488 97.9387 92.224 97.528C93.96 97.0987 95.696 96.66 97.432 96.212L97.824 99.236C96.2373 99.684 94.632 100.132 93.008 100.58C91.4027 101.028 89.928 101.429 88.584 101.784L87.744 98.536ZM88.192 89.492H97.488V92.6H88.192V89.492ZM91.58 84.2H94.8V106.992C94.8 107.795 94.716 108.42 94.548 108.868C94.38 109.316 94.0627 109.661 93.596 109.904C93.1293 110.147 92.5507 110.305 91.86 110.38C91.1693 110.473 90.3387 110.52 89.368 110.52C89.312 110.091 89.1907 109.587 89.004 109.008C88.836 108.429 88.6493 107.916 88.444 107.468C88.9853 107.487 89.508 107.505 90.012 107.524C90.516 107.524 90.8613 107.524 91.048 107.524C91.2347 107.524 91.3653 107.487 91.44 107.412C91.5333 107.319 91.58 107.179 91.58 106.992V84.2ZM129.52 85.712H140.104V88.904H129.52V85.712ZM128.848 95.624H143.464V98.816H128.848V95.624ZM127.672 106.488H143.492V109.68H127.672V106.488ZM132.432 86.776L135.652 86.972C135.559 88.3533 135.447 89.8 135.316 91.312C135.185 92.8053 135.055 94.3173 134.924 95.848C134.793 97.3787 134.653 98.872 134.504 100.328C134.355 101.784 134.205 103.165 134.056 104.472C133.907 105.76 133.757 106.927 133.608 107.972H130.388C130.556 106.908 130.715 105.713 130.864 104.388C131.032 103.044 131.191 101.635 131.34 100.16C131.508 98.6667 131.657 97.1547 131.788 95.624C131.937 94.0933 132.059 92.572 132.152 91.06C132.264 89.548 132.357 88.12 132.432 86.776ZM138.228 85.712H141.504C141.485 87.1867 141.448 88.7267 141.392 90.332C141.355 91.9187 141.308 93.524 141.252 95.148C141.215 96.7533 141.159 98.3307 141.084 99.88C141.028 101.411 140.963 102.876 140.888 104.276C140.813 105.657 140.729 106.899 140.636 108H137.248C137.341 106.861 137.435 105.592 137.528 104.192C137.64 102.792 137.733 101.317 137.808 99.768C137.901 98.2187 137.976 96.6413 138.032 95.036C138.088 93.412 138.125 91.816 138.144 90.248C138.181 88.68 138.209 87.168 138.228 85.712ZM118.964 91.172H127.308V93.972H118.964V91.172ZM117.732 96.016H128.12V98.872H117.732V96.016ZM117.928 100.496L120.112 99.936C120.355 100.701 120.579 101.532 120.784 102.428C120.989 103.324 121.129 104.089 121.204 104.724L118.88 105.396C118.843 104.705 118.731 103.912 118.544 103.016C118.357 102.12 118.152 101.28 117.928 100.496ZM117.396 106.908C118.329 106.777 119.403 106.628 120.616 106.46C121.829 106.273 123.108 106.068 124.452 105.844C125.815 105.62 127.168 105.405 128.512 105.2L128.68 108.028C127.467 108.252 126.225 108.476 124.956 108.7C123.705 108.924 122.492 109.139 121.316 109.344C120.14 109.549 119.057 109.736 118.068 109.904L117.396 106.908ZM125.796 99.684L128.316 100.3C128.036 101.121 127.765 101.971 127.504 102.848C127.243 103.707 127 104.435 126.776 105.032L124.76 104.444C124.891 103.996 125.021 103.492 125.152 102.932C125.283 102.372 125.404 101.812 125.516 101.252C125.647 100.673 125.74 100.151 125.796 99.684ZM121.568 92.348H124.48V107.384L121.568 107.916V92.348ZM121.568 84.2H123.388V84.844H124.34V85.712C123.985 86.4213 123.547 87.2053 123.024 88.064C122.52 88.904 121.923 89.772 121.232 90.668C120.541 91.564 119.729 92.4413 118.796 93.3C118.647 93.0573 118.451 92.7867 118.208 92.488C117.965 92.1893 117.713 91.9093 117.452 91.648C117.191 91.3867 116.948 91.1813 116.724 91.032C117.527 90.36 118.227 89.6413 118.824 88.876C119.44 88.092 119.972 87.2987 120.42 86.496C120.887 85.6933 121.269 84.928 121.568 84.2ZM121.988 84.2H124.312C124.891 84.6853 125.497 85.2267 126.132 85.824C126.767 86.4027 127.355 87 127.896 87.616C128.456 88.2133 128.913 88.764 129.268 89.268L127.084 91.844C126.785 91.3587 126.375 90.7987 125.852 90.164C125.348 89.5107 124.807 88.8667 124.228 88.232C123.668 87.5787 123.108 87.028 122.548 86.58H121.988V84.2ZM150.856 111.864L149.96 109.596C151.136 109.223 152.032 108.709 152.648 108.056C153.283 107.421 153.6 106.693 153.6 105.872L153.376 103.128L154.944 105.62C154.701 105.825 154.44 105.984 154.16 106.096C153.88 106.208 153.581 106.264 153.264 106.264C152.573 106.264 151.957 106.049 151.416 105.62C150.875 105.172 150.604 104.547 150.604 103.744C150.604 102.96 150.875 102.344 151.416 101.896C151.957 101.448 152.601 101.224 153.348 101.224C154.337 101.224 155.084 101.569 155.588 102.26C156.111 102.951 156.372 103.884 156.372 105.06C156.372 106.647 155.887 108.047 154.916 109.26C153.945 110.473 152.592 111.341 150.856 111.864ZM181.656 96.604H198.372V110.576H195.012V99.124H184.848V110.576H181.656V96.604ZM176.056 92.768H201.032V95.428H176.056V92.768ZM178.016 89.044H199.492V91.564H178.016V89.044ZM183.812 100.328H196.356V102.428H183.812V100.328ZM183.812 103.66H196.356V105.76H183.812V103.66ZM183.448 107.02H196.384V109.568H183.448V107.02ZM197.448 84.312L199.38 86.692C197.943 86.9347 196.365 87.14 194.648 87.308C192.949 87.4573 191.176 87.588 189.328 87.7C187.48 87.7933 185.623 87.8587 183.756 87.896C181.889 87.9333 180.088 87.9427 178.352 87.924C178.333 87.5693 178.259 87.1493 178.128 86.664C177.997 86.1787 177.857 85.768 177.708 85.432C179.425 85.432 181.189 85.4133 183 85.376C184.829 85.32 186.621 85.2453 188.376 85.152C190.131 85.0587 191.783 84.9467 193.332 84.816C194.881 84.6667 196.253 84.4987 197.448 84.312ZM185.52 86.636L188.992 87.336C188.357 89.6507 187.536 91.9 186.528 94.084C185.539 96.268 184.288 98.2747 182.776 100.104C181.264 101.915 179.435 103.445 177.288 104.696C177.12 104.435 176.915 104.136 176.672 103.8C176.429 103.464 176.177 103.137 175.916 102.82C175.655 102.503 175.412 102.241 175.188 102.036C177.167 100.953 178.837 99.6 180.2 97.976C181.581 96.3333 182.701 94.532 183.56 92.572C184.419 90.612 185.072 88.6333 185.52 86.636ZM205.344 85.488H230.012V88.484H205.344V85.488ZM216.124 86.748H219.652V98.06C219.652 99.1987 219.54 100.291 219.316 101.336C219.092 102.381 218.7 103.371 218.14 104.304C217.599 105.237 216.843 106.096 215.872 106.88C214.92 107.664 213.697 108.364 212.204 108.98C210.711 109.596 208.909 110.119 206.8 110.548C206.669 110.287 206.483 109.969 206.24 109.596C206.016 109.223 205.773 108.849 205.512 108.476C205.251 108.121 204.999 107.813 204.756 107.552C206.772 107.253 208.461 106.871 209.824 106.404C211.187 105.937 212.288 105.415 213.128 104.836C213.968 104.239 214.603 103.585 215.032 102.876C215.461 102.167 215.751 101.411 215.9 100.608C216.049 99.7867 216.124 98.928 216.124 98.032V86.748ZM210.972 97.164V98.984H224.916V97.164H210.972ZM210.972 92.824V94.644H224.916V92.824H210.972ZM207.78 90.108H228.248V101.7H207.78V90.108ZM211.112 101.56C212.101 102.811 213.249 103.8 214.556 104.528C215.881 105.256 217.365 105.797 219.008 106.152C220.669 106.488 222.508 106.703 224.524 106.796C226.559 106.871 228.771 106.908 231.16 106.908C230.861 107.281 230.572 107.785 230.292 108.42C230.012 109.055 229.825 109.652 229.732 110.212C227.268 110.175 224.963 110.053 222.816 109.848C220.669 109.661 218.691 109.307 216.88 108.784C215.069 108.28 213.436 107.543 211.98 106.572C210.524 105.601 209.264 104.323 208.2 102.736L211.112 101.56ZM239.532 91.172L241.772 89.296C242.351 89.5573 242.957 89.8653 243.592 90.22C244.227 90.5747 244.824 90.9387 245.384 91.312C245.963 91.6853 246.429 92.04 246.784 92.376L244.432 94.448C244.096 94.112 243.648 93.748 243.088 93.356C242.528 92.964 241.94 92.572 241.324 92.18C240.708 91.788 240.111 91.452 239.532 91.172ZM252.16 86.328H252.776L253.336 86.16L255.492 87.448C254.596 89.128 253.448 90.6307 252.048 91.956C250.648 93.2627 249.071 94.4013 247.316 95.372C245.58 96.3427 243.732 97.1733 241.772 97.864C239.812 98.536 237.824 99.0773 235.808 99.488C235.659 99.0587 235.435 98.564 235.136 98.004C234.856 97.4253 234.567 96.9587 234.268 96.604C236.153 96.3053 238.011 95.876 239.84 95.316C241.669 94.7373 243.387 94.0373 244.992 93.216C246.597 92.3947 248.016 91.452 249.248 90.388C250.48 89.3053 251.451 88.1107 252.16 86.804V86.328ZM243.284 86.328H252.916V89.072H243.284V86.328ZM244.852 84.116L248.52 84.9C247.083 86.524 245.403 87.9987 243.48 89.324C241.576 90.6493 239.327 91.8347 236.732 92.88C236.564 92.6187 236.349 92.3293 236.088 92.012C235.845 91.6947 235.575 91.3867 235.276 91.088C234.996 90.7893 234.735 90.556 234.492 90.388C236.135 89.8653 237.619 89.2587 238.944 88.568C240.269 87.8773 241.427 87.1587 242.416 86.412C243.405 85.6467 244.217 84.8813 244.852 84.116ZM243.34 101.784L245.776 99.88C246.355 100.197 246.961 100.552 247.596 100.944C248.231 101.336 248.837 101.747 249.416 102.176C249.995 102.587 250.461 102.969 250.816 103.324L248.212 105.396C247.895 105.041 247.456 104.649 246.896 104.22C246.355 103.791 245.767 103.361 245.132 102.932C244.516 102.503 243.919 102.12 243.34 101.784ZM255.688 96.52H256.36L256.948 96.38L259.16 97.528C258.301 99.6187 257.172 101.411 255.772 102.904C254.391 104.397 252.776 105.648 250.928 106.656C249.099 107.664 247.092 108.476 244.908 109.092C242.743 109.708 240.456 110.184 238.048 110.52C237.917 110.072 237.712 109.549 237.432 108.952C237.152 108.355 236.872 107.86 236.592 107.468C238.813 107.244 240.932 106.88 242.948 106.376C244.964 105.872 246.812 105.209 248.492 104.388C250.172 103.548 251.619 102.521 252.832 101.308C254.064 100.076 255.016 98.6387 255.688 96.996V96.52ZM247.428 96.52H256.584V99.32H247.428V96.52ZM249.388 93.804L253.056 94.644C251.507 96.492 249.621 98.1627 247.4 99.656C245.197 101.131 242.537 102.428 239.42 103.548C239.308 103.268 239.131 102.969 238.888 102.652C238.645 102.316 238.393 101.989 238.132 101.672C237.871 101.355 237.619 101.103 237.376 100.916C239.336 100.319 241.081 99.6467 242.612 98.9C244.161 98.1347 245.496 97.3227 246.616 96.464C247.755 95.5867 248.679 94.7 249.388 93.804ZM272.88 99.152H287.58V110.352H284.36V102.204H275.96V110.492H272.88V99.152ZM285.34 84.2L287.916 86.832C286.553 87.3547 285.041 87.812 283.38 88.204C281.719 88.5773 280.011 88.8853 278.256 89.128C276.52 89.3707 274.821 89.5667 273.16 89.716C273.104 89.324 272.973 88.848 272.768 88.288C272.581 87.7093 272.395 87.2333 272.208 86.86C273.403 86.7293 274.607 86.58 275.82 86.412C277.052 86.244 278.247 86.048 279.404 85.824C280.561 85.6 281.644 85.3573 282.652 85.096C283.66 84.816 284.556 84.5173 285.34 84.2ZM278.62 87.364H281.812V100.916H278.62V87.364ZM271.144 92.376H288.98V95.568H271.144V92.376ZM275.092 106.292H285.704V109.344H275.092V106.292ZM264.228 87L266.132 84.564C266.655 84.8253 267.243 85.124 267.896 85.46C268.549 85.796 269.184 86.132 269.8 86.468C270.435 86.804 270.948 87.1027 271.34 87.364L269.352 90.08C268.979 89.8 268.493 89.4827 267.896 89.128C267.299 88.7733 266.673 88.4093 266.02 88.036C265.367 87.644 264.769 87.2987 264.228 87ZM262.884 94.756L264.704 92.264C265.227 92.488 265.824 92.768 266.496 93.104C267.168 93.44 267.821 93.776 268.456 94.112C269.091 94.4293 269.604 94.7187 269.996 94.98L268.12 97.78C267.747 97.5 267.252 97.1827 266.636 96.828C266.039 96.4733 265.404 96.1093 264.732 95.736C264.06 95.3627 263.444 95.036 262.884 94.756ZM263.304 107.916C263.808 107.207 264.359 106.376 264.956 105.424C265.572 104.453 266.197 103.427 266.832 102.344C267.467 101.243 268.064 100.151 268.624 99.068L271.088 101.308C270.603 102.279 270.08 103.277 269.52 104.304C268.979 105.331 268.419 106.339 267.84 107.328C267.28 108.317 266.711 109.269 266.132 110.184L263.304 107.916ZM292.648 102.316H305.724V104.696H292.648V102.316ZM292.032 88.988H306.032V91.424H292.032V88.988ZM297.576 87.028H300.628V107.104H297.576V87.028ZM291.864 106.768C293.04 106.693 294.384 106.6 295.896 106.488C297.408 106.376 299.004 106.255 300.684 106.124C302.383 105.975 304.072 105.825 305.752 105.676L305.78 108.224C304.193 108.392 302.588 108.56 300.964 108.728C299.359 108.896 297.809 109.045 296.316 109.176C294.841 109.325 293.488 109.465 292.256 109.596L291.864 106.768ZM295.42 97.864V99.124H302.812V97.864H295.42ZM295.42 94.616V95.876H302.812V94.616H295.42ZM292.76 92.516H305.584V101.224H292.76V92.516ZM304.24 84.368L305.696 86.86C304.52 87.1027 303.195 87.3173 301.72 87.504C300.264 87.672 298.771 87.812 297.24 87.924C295.709 88.0173 294.244 88.0827 292.844 88.12C292.788 87.7653 292.685 87.364 292.536 86.916C292.405 86.4493 292.256 86.048 292.088 85.712C293.133 85.656 294.207 85.5907 295.308 85.516C296.409 85.4227 297.492 85.32 298.556 85.208C299.639 85.096 300.656 84.9747 301.608 84.844C302.579 84.6947 303.456 84.536 304.24 84.368ZM306.004 90.556H315.72V93.636H306.004V90.556ZM314.348 90.556H317.568C317.568 90.556 317.568 90.6493 317.568 90.836C317.568 91.0227 317.568 91.2373 317.568 91.48C317.568 91.704 317.568 91.8907 317.568 92.04C317.493 94.9147 317.419 97.36 317.344 99.376C317.269 101.373 317.185 103.025 317.092 104.332C317.017 105.62 316.896 106.628 316.728 107.356C316.579 108.084 316.392 108.607 316.168 108.924C315.851 109.391 315.515 109.717 315.16 109.904C314.824 110.109 314.423 110.259 313.956 110.352C313.527 110.427 313.004 110.464 312.388 110.464C311.772 110.483 311.128 110.483 310.456 110.464C310.437 109.997 310.335 109.456 310.148 108.84C309.98 108.224 309.765 107.692 309.504 107.244C310.101 107.3 310.652 107.337 311.156 107.356C311.66 107.375 312.043 107.384 312.304 107.384C312.528 107.384 312.715 107.347 312.864 107.272C313.013 107.197 313.153 107.076 313.284 106.908C313.433 106.684 313.564 106.255 313.676 105.62C313.788 104.967 313.881 104.043 313.956 102.848C314.049 101.635 314.124 100.076 314.18 98.172C314.255 96.268 314.311 93.9627 314.348 91.256V90.556ZM308.692 84.676H311.912C311.912 87.0653 311.884 89.3333 311.828 91.48C311.791 93.6267 311.669 95.652 311.464 97.556C311.277 99.4413 310.951 101.196 310.484 102.82C310.036 104.425 309.401 105.891 308.58 107.216C307.759 108.541 306.704 109.708 305.416 110.716C305.248 110.436 305.024 110.137 304.744 109.82C304.483 109.503 304.203 109.195 303.904 108.896C303.624 108.616 303.344 108.383 303.064 108.196C304.24 107.3 305.192 106.273 305.92 105.116C306.648 103.94 307.208 102.643 307.6 101.224C307.992 99.7867 308.263 98.2187 308.412 96.52C308.561 94.8027 308.645 92.964 308.664 91.004C308.683 89.0253 308.692 86.916 308.692 84.676ZM336.132 94.728V97.696H342.18V94.728H336.132ZM333.052 91.872H345.456V100.58H333.052V91.872ZM339.548 99.74H342.712V106.46C342.712 106.852 342.74 107.104 342.796 107.216C342.852 107.309 342.983 107.356 343.188 107.356C343.244 107.356 343.337 107.356 343.468 107.356C343.617 107.356 343.757 107.356 343.888 107.356C344.037 107.356 344.149 107.356 344.224 107.356C344.373 107.356 344.485 107.272 344.56 107.104C344.653 106.936 344.719 106.609 344.756 106.124C344.812 105.62 344.849 104.855 344.868 103.828C345.073 103.996 345.335 104.164 345.652 104.332C345.988 104.5 346.333 104.649 346.688 104.78C347.061 104.911 347.388 105.013 347.668 105.088C347.593 106.469 347.435 107.533 347.192 108.28C346.968 109.045 346.641 109.568 346.212 109.848C345.801 110.147 345.251 110.296 344.56 110.296C344.448 110.296 344.299 110.296 344.112 110.296C343.944 110.296 343.767 110.296 343.58 110.296C343.412 110.296 343.244 110.296 343.076 110.296C342.908 110.296 342.759 110.296 342.628 110.296C341.788 110.296 341.144 110.175 340.696 109.932C340.248 109.689 339.94 109.288 339.772 108.728C339.623 108.187 339.548 107.44 339.548 106.488V99.74ZM334.844 100.16H338.148C338.073 101.373 337.924 102.503 337.7 103.548C337.495 104.575 337.168 105.527 336.72 106.404C336.272 107.281 335.647 108.065 334.844 108.756C334.06 109.447 333.033 110.053 331.764 110.576C331.652 110.296 331.484 109.988 331.26 109.652C331.036 109.335 330.803 109.017 330.56 108.7C330.317 108.383 330.075 108.121 329.832 107.916C330.896 107.543 331.745 107.104 332.38 106.6C333.015 106.077 333.5 105.499 333.836 104.864C334.172 104.211 334.405 103.501 334.536 102.736C334.685 101.952 334.788 101.093 334.844 100.16ZM335.656 84.984H342.432V88.008H335.656V84.984ZM333.696 87.476L336.972 88.316C336.505 89.4547 335.936 90.6213 335.264 91.816C334.611 92.992 333.883 93.9813 333.08 94.784C332.744 94.4853 332.324 94.168 331.82 93.832C331.316 93.4773 330.877 93.1973 330.504 92.992C331.213 92.2827 331.848 91.4147 332.408 90.388C332.987 89.3427 333.416 88.372 333.696 87.476ZM339.884 84.984H343.356C343.636 85.88 344 86.776 344.448 87.672C344.896 88.5493 345.4 89.38 345.96 90.164C346.52 90.948 347.099 91.6107 347.696 92.152C347.416 92.32 347.089 92.5253 346.716 92.768C346.361 93.0107 346.016 93.272 345.68 93.552C345.344 93.8133 345.064 94.056 344.84 94.28C343.925 93.272 343.095 92.0773 342.348 90.696C341.601 89.3147 340.985 87.924 340.5 86.524H339.884V84.984ZM322.3 92.796H330.756V95.344H322.3V92.796ZM322.412 85.096H330.7V87.616H322.412V85.096ZM322.3 96.632H330.756V99.152H322.3V96.632ZM320.984 88.848H331.68V91.508H320.984V88.848ZM323.756 100.496H330.812V109.036H323.756V106.376H327.928V103.156H323.756V100.496ZM322.244 100.496H325.072V110.128H322.244V100.496ZM352.96 85.74H361.024V102.932H352.96V99.88H357.916V88.792H352.96V85.74ZM353.016 92.74H359.12V95.736H353.016V92.74ZM364.972 85.348H373.54V88.456H364.972V85.348ZM364.972 92.012H373.54V95.036H364.972V92.012ZM364.916 98.648H373.512V101.672H364.916V98.648ZM351.196 85.74H354.304V105.368H351.196V85.74ZM372.308 85.348H375.64V106.656C375.64 107.533 375.528 108.215 375.304 108.7C375.099 109.204 374.716 109.596 374.156 109.876C373.596 110.137 372.905 110.305 372.084 110.38C371.263 110.455 370.264 110.492 369.088 110.492C369.032 110.175 368.939 109.811 368.808 109.4C368.696 109.008 368.556 108.616 368.388 108.224C368.239 107.851 368.08 107.524 367.912 107.244C368.416 107.263 368.92 107.281 369.424 107.3C369.928 107.3 370.376 107.3 370.768 107.3C371.179 107.281 371.459 107.272 371.608 107.272C371.869 107.272 372.047 107.225 372.14 107.132C372.252 107.039 372.308 106.871 372.308 106.628V85.348ZM362.956 85.348H366.26V95.512C366.26 96.7067 366.185 97.9947 366.036 99.376C365.887 100.757 365.607 102.139 365.196 103.52C364.804 104.883 364.216 106.189 363.432 107.44C362.648 108.672 361.612 109.764 360.324 110.716C360.156 110.492 359.913 110.231 359.596 109.932C359.297 109.652 358.98 109.372 358.644 109.092C358.327 108.812 358.037 108.607 357.776 108.476C358.971 107.599 359.913 106.637 360.604 105.592C361.295 104.528 361.808 103.427 362.144 102.288C362.48 101.131 362.695 99.9733 362.788 98.816C362.9 97.6587 362.956 96.548 362.956 95.484V85.348Z" fill="black"/>
</svg>
