<svg width="745" height="220" viewBox="0 0 745 220" fill="none" xmlns="http://www.w3.org/2000/svg">
<g clip-path="url(#clip0_745_478)">
<g opacity="0.9">
<path d="M696.559 101.74L701.169 116.32C701.599 117.66 702.649 118.72 703.989 119.14L718.569 123.75C722.599 125.03 722.599 130.73 718.569 132.01L703.989 136.62C702.649 137.05 701.589 138.1 701.169 139.44L696.559 154.02C695.279 158.05 689.579 158.05 688.299 154.02L683.689 139.44C683.259 138.1 682.209 137.04 680.869 136.62L666.289 132.01C662.259 130.73 662.259 125.03 666.289 123.75L680.869 119.14C682.209 118.71 683.269 117.66 683.689 116.32L688.299 101.74C689.579 97.71 695.279 97.71 696.559 101.74Z" fill="#39BF63"/>
<path d="M744.748 99.7601L741.248 106.5C740.928 107.12 740.928 107.86 741.248 108.48L744.748 115.22C745.718 117.08 743.708 119.09 741.848 118.12L735.108 114.62C734.488 114.3 733.748 114.3 733.128 114.62L726.389 118.12C724.529 119.09 722.518 117.08 723.488 115.22L726.988 108.48C727.308 107.86 727.308 107.12 726.988 106.5L723.488 99.7601C722.518 97.9001 724.529 95.8901 726.389 96.8601L733.128 100.36C733.748 100.68 734.488 100.68 735.108 100.36L741.848 96.8601C743.708 95.8901 745.718 97.9001 744.748 99.7601Z" fill="#39BF63"/>
<path d="M66.5386 97.25L66.4886 97.22C66.4586 97.31 66.4186 97.39 66.5386 97.25Z" fill="#39BF63"/>
<path d="M160.829 4.05004L157.869 4.54004C156.879 4.71004 155.909 4.92004 154.929 5.11004L149.029 6.29004L148.289 6.44004L147.559 6.61004L146.089 6.96004L143.149 7.65004L140.209 8.35004L139.469 8.53004L138.739 8.73004L137.279 9.13004L131.419 10.73C129.479 11.3 127.549 11.92 125.599 12.51L122.679 13.42L119.789 14.42L116.899 15.42C115.939 15.76 114.959 16.08 114.009 16.45L108.269 18.65C107.299 19.01 106.369 19.42 105.419 19.81L102.569 21C101.619 21.41 100.659 21.78 99.7185 22.22L96.8985 23.5L94.0785 24.79C93.6085 25 93.1385 25.23 92.6785 25.46L91.2885 26.15C83.8285 29.78 76.4885 33.82 69.3485 38.31C66.2385 40.26 63.1685 42.3 60.1385 44.43L57.8685 36.46C55.8985 29.55 46.2085 29.26 43.8385 36.05L35.2785 60.59C34.4885 62.85 32.6485 64.59 30.3385 65.25L5.33853 72.36C-1.57147 74.33 -1.86147 84.02 4.92853 86.39L29.4685 94.95C31.7285 95.74 33.4685 97.58 34.1285 99.89L41.2385 124.89C43.2085 131.8 52.8985 132.09 55.2685 125.3L63.8285 100.76C64.3285 99.32 65.2585 98.1 66.4585 97.23H66.4685C66.4685 97.23 66.4685 97.23 66.4685 97.22C67.1485 96.73 67.9185 96.35 68.7485 96.11L93.7485 89C100.659 87.03 100.949 77.34 94.1585 74.97L84.4685 71.59C86.4285 69.34 88.4585 67.12 90.5485 64.95C100.549 54.56 111.929 45.12 124.259 36.71C125.019 36.16 125.809 35.67 126.589 35.16L128.939 33.63L131.299 32.1L133.709 30.65C135.319 29.69 136.919 28.69 138.549 27.75L143.499 24.99L144.739 24.3L145.359 23.95L145.989 23.63L148.519 22.33L151.049 21.03L152.319 20.38L152.959 20.05L153.599 19.75L158.769 17.31C159.639 16.91 160.499 16.48 161.369 16.1L163.999 14.97C178.049 8.87004 192.789 3.89004 207.959 0.0400391C192.319 0.140039 176.539 1.43004 160.789 4.09004L160.829 4.05004Z" fill="#39BF63"/>
</g>
<path d="M135.248 82.4799C135.248 82.2299 135.388 82.0699 135.658 81.9999C135.928 81.9299 136.608 81.8599 137.688 81.8199C138.428 81.8199 139.588 81.7799 141.158 81.7099C142.738 81.6399 144.358 81.5999 146.038 81.5999C147.568 81.5499 149.078 81.4999 150.578 81.4499C152.078 81.3999 153.598 81.3299 155.118 81.2299C158.078 81.0799 159.848 80.9299 160.438 80.7899H160.878V76.1399C160.878 74.9099 160.898 73.8199 160.948 72.8899C160.998 71.9599 161.018 71.4099 161.018 71.2599C161.068 71.1099 160.908 71.0299 160.538 70.9999C160.168 70.9799 159.298 70.9599 157.918 70.9599C156.928 70.9599 155.878 70.9699 154.738 70.9999C153.608 71.0299 152.598 71.0899 151.708 71.1799C150.868 71.2299 149.748 71.2799 148.348 71.3299C146.948 71.3799 145.628 71.3999 144.398 71.3999L139.818 71.4699L139.668 69.8399V68.6599C139.668 68.3199 139.718 68.1199 139.818 68.0699V67.6999C139.618 67.3099 139.618 66.8599 139.818 66.3699V66.1499C139.668 66.1499 139.598 65.7099 139.598 64.8199V63.4199L141.668 63.4899C144.768 63.5899 147.888 63.6699 151.018 63.7499C154.148 63.8199 157.258 63.8599 160.368 63.8599C160.468 63.8599 160.528 63.8099 160.548 63.7099C160.568 63.6099 160.598 63.3799 160.618 63.0099C160.638 62.6399 160.658 62.0999 160.658 61.3799V58.5399C160.658 57.0599 160.678 55.8199 160.728 54.8099C160.778 53.7999 160.798 53.2699 160.798 53.2199C160.848 53.2199 161.238 53.1799 161.978 53.1099C162.718 53.0399 163.608 52.9499 164.638 52.8499C165.668 52.7999 166.728 52.7499 167.818 52.6999C168.898 52.6499 169.738 52.6299 170.328 52.6299H172.178L171.958 62.5999H175.878C177.058 62.5999 178.628 62.6299 180.568 62.6699C182.518 62.7199 184.448 62.7399 186.368 62.7399L192.948 62.8099V70.7199L186.968 70.7899C185.248 70.7899 183.418 70.8199 181.498 70.8599C179.578 70.9099 178.028 70.9599 176.848 71.0099H175.218C174.728 71.0099 174.278 71.0399 173.888 71.0799C173.198 71.0799 172.778 71.1099 172.628 71.1499C172.578 71.1999 172.528 71.6699 172.478 72.5499C172.428 73.4399 172.408 74.5199 172.408 75.7999L172.338 80.4499L197.828 80.0799L197.678 84.5099V88.9399L191.918 89.1599C190.248 89.1599 188.308 89.1899 186.118 89.2299C183.928 89.2799 181.988 89.2999 180.318 89.2999H177.178C176.418 89.2999 175.838 89.3299 175.438 89.3699C175.038 89.4199 174.798 89.4699 174.698 89.5199C174.598 89.5699 174.578 89.6399 174.628 89.7399C176.888 92.0099 179.258 94.1899 181.718 96.2799C184.178 98.3699 186.838 100.18 189.698 101.71C190.488 102.11 191.338 102.55 192.248 103.04C193.158 103.53 194.128 104.07 195.168 104.67C197.238 105.85 198.568 106.66 199.158 107.11C199.308 107.11 199.318 107.36 199.198 107.85C199.078 108.34 198.688 109.43 198.048 111.1C197.608 112.23 197.238 113.14 196.938 113.83C196.638 114.52 196.448 114.91 196.348 115.01C196.248 115.06 196.038 115.08 195.718 115.08C195.398 115.08 195.008 115.04 194.538 114.97C194.068 114.9 193.568 114.81 193.028 114.71C192.488 114.61 191.968 114.49 191.478 114.34C190.398 114.04 189.398 113.69 188.488 113.27C187.578 112.85 186.408 112.1 184.978 111.02C184.238 110.48 183.418 109.9 182.498 109.28C181.588 108.66 180.788 108.13 180.098 107.69C179.308 107.2 178.488 106.62 177.618 105.95C176.758 105.29 175.828 104.46 174.848 103.47C172.978 101.6 171.988 100.81 171.888 101.11C171.788 101.21 171.728 102.07 171.708 103.7C171.678 105.33 171.618 107.32 171.528 109.68V114.67C171.528 116.03 171.498 117.05 171.458 117.74C171.408 118.43 171.348 119.08 171.278 119.7C171.208 120.32 171.138 120.87 171.098 121.36L171.028 122.32H166.448L162.018 122.47L161.798 118.55C161.798 117.37 161.788 115.78 161.758 113.78C161.728 111.79 161.718 109.83 161.718 107.91V101.11L161.278 101.7C159.508 104.11 157.568 106.42 155.478 108.61C153.388 110.8 150.808 113.08 147.758 115.44C147.118 115.93 146.418 116.4 145.648 116.84C144.888 117.28 144.148 117.67 143.428 117.99C142.718 118.31 142.068 118.56 141.508 118.73C140.938 118.9 140.538 118.96 140.288 118.91C140.138 118.81 139.988 118.65 139.848 118.43C139.708 118.21 139.508 117.93 139.258 117.58C139.008 117.04 138.728 116.4 138.408 115.66C138.088 114.92 137.708 114.06 137.258 113.07C136.818 112.08 136.478 111.33 136.258 110.82C136.038 110.31 135.898 110 135.848 109.9C135.948 109.85 136.018 109.81 136.068 109.79C136.118 109.77 136.188 109.7 136.288 109.61C136.488 109.51 136.668 109.41 136.838 109.31C137.008 109.21 137.198 109.11 137.388 109.01C138.568 108.32 139.798 107.42 141.078 106.31C142.358 105.2 143.628 104.02 144.888 102.76C146.148 101.5 147.348 100.24 148.508 98.9499C149.668 97.6699 150.688 96.5099 151.578 95.4799C152.018 94.8899 152.468 94.2699 152.908 93.6299C153.348 92.9899 153.778 92.3999 154.198 91.8599C154.618 91.3199 154.958 90.8499 155.228 90.4599C155.498 90.0699 155.658 89.8199 155.708 89.7199H154.008C153.418 89.7699 152.378 89.8199 150.908 89.8699C149.428 89.9199 147.858 89.9699 146.178 90.0199C144.408 90.1199 142.758 90.1999 141.228 90.2799C139.698 90.3499 138.638 90.3899 138.048 90.3899L136.058 90.4599L135.838 89.5699C135.838 89.3699 135.798 88.9199 135.728 88.1999C135.658 87.4899 135.568 86.7299 135.468 85.9499C135.418 85.2099 135.368 84.5599 135.318 83.9899C135.268 83.4199 135.248 83.1199 135.248 83.0699C135.198 82.8199 135.198 82.5999 135.248 82.4099V82.4799Z" fill="#FF5F17"/>
<path d="M210.239 91.3399L211.199 90.2299C212.969 88.1599 214.559 85.8199 215.969 83.2099C217.369 80.5999 218.489 78.0099 219.329 75.4499C219.719 74.5599 220.029 73.8099 220.249 73.1999C220.469 72.5799 220.579 72.2299 220.579 72.1299C220.579 72.0799 220.599 72.0399 220.649 72.0199C220.699 71.9999 220.829 71.9999 221.059 72.0199C221.279 72.0499 221.649 72.1199 222.169 72.2399C222.689 72.3599 223.409 72.5199 224.349 72.7199C227.259 73.2099 228.829 73.7299 229.079 74.2699C229.179 74.3199 229.189 74.4299 229.119 74.5999C229.049 74.7699 228.959 75.0599 228.859 75.4499C228.809 75.5999 228.749 75.8199 228.679 76.1099C228.609 76.3999 228.519 76.6999 228.419 76.9999C228.369 77.3999 228.269 77.7899 228.119 78.1799C227.969 78.5799 227.849 78.9199 227.749 79.2099C227.549 79.6499 227.449 79.9699 227.449 80.1699C227.449 80.3699 227.549 80.6099 227.749 80.9099C227.999 81.2099 228.439 81.6699 229.079 82.3099C229.719 82.9499 230.879 83.8399 232.549 84.9699C233.439 85.5599 233.879 86.0499 233.879 86.4499C233.829 86.6499 233.619 87.0299 233.249 87.5999C232.879 88.1699 232.469 88.7499 232.029 89.3399C231.589 89.9299 231.149 90.4699 230.739 90.9699C230.319 91.4599 230.039 91.7599 229.889 91.8599C229.639 91.8599 229.369 91.7099 229.079 91.4199C228.639 90.9799 228.009 90.4999 227.199 89.9799C226.389 89.4599 225.609 89.0299 224.869 88.6899C224.719 88.5399 224.559 88.4299 224.389 88.3599C224.219 88.2899 224.059 88.1999 223.909 88.0999L223.469 87.8799C223.369 87.9799 223.239 88.1499 223.059 88.3999C222.889 88.6499 222.649 88.9699 222.359 89.3599C222.019 89.7999 221.609 90.3199 221.139 90.9099C220.669 91.4999 220.149 92.0899 219.589 92.6799C219.019 93.2699 218.459 93.7999 217.889 94.2699C217.319 94.7399 216.769 95.0999 216.229 95.3399L214.749 95.9999L214.089 95.5599C213.939 95.4099 213.659 95.1199 213.239 94.6699C212.819 94.2299 212.359 93.7399 211.869 93.1899L210.239 91.3399ZM212.529 111.14C212.919 110.89 213.329 110.6 213.749 110.25C214.169 109.91 214.709 109.44 215.379 108.85C216.049 108.26 216.829 107.52 217.739 106.63C218.649 105.74 219.769 104.64 221.099 103.31C224.499 99.9099 227.229 97.0599 229.299 94.7399C231.369 92.4199 232.749 90.9199 233.439 90.2299C233.589 90.0799 233.709 89.9299 233.809 89.7899C233.909 89.6399 234.009 89.5699 234.109 89.5699C234.259 89.5699 234.429 89.3899 234.629 89.0199C234.829 88.6499 235.019 88.2399 235.219 87.7999C235.419 87.3599 235.599 86.9099 235.769 86.4699C235.939 86.0299 236.049 85.7299 236.099 85.5799C236.099 85.1399 236.139 84.0999 236.209 82.4799C236.279 80.8599 236.319 78.9299 236.319 76.7199V69.1799H233.959C233.319 69.1799 232.409 69.1899 231.229 69.2199C230.049 69.2499 228.869 69.3099 227.679 69.3999C226.499 69.4499 225.029 69.5099 223.279 69.5799C221.529 69.6499 219.919 69.6899 218.439 69.6899C217.009 69.7899 215.729 69.8699 214.599 69.9499C213.469 70.0199 212.699 70.0599 212.309 70.0599L211.349 70.1299V68.2799C211.349 67.7399 211.319 67.0199 211.279 66.1399C211.229 65.2499 211.209 64.3699 211.209 63.4799L210.989 60.5999L211.579 60.7499C212.069 60.7999 212.819 60.8599 213.829 60.9299C214.839 60.9999 216.499 61.0399 218.819 61.0399C220.249 61.0899 221.819 61.1299 223.549 61.1499C225.269 61.1799 227.169 61.1899 229.239 61.1899H235.959C235.959 61.0899 235.979 60.7699 236.029 60.2299C236.079 59.6899 236.099 58.9699 236.099 58.0899C236.099 57.2499 236.109 56.4499 236.139 55.6899C236.159 54.9299 236.179 54.3499 236.179 53.9499L236.329 52.8399L240.389 52.7699C241.569 52.7699 242.639 52.7499 243.599 52.6999C244.559 52.6499 245.239 52.6299 245.629 52.6299H246.739L246.519 55.0699C246.519 55.8099 246.489 56.5099 246.449 57.1799C246.399 57.8399 246.349 58.3299 246.299 58.6199C245.999 59.4099 246.299 59.9299 247.189 60.1699C247.629 60.2699 248.589 60.3399 250.069 60.3899C251.549 60.4399 253.539 60.4899 256.049 60.5399C257.529 60.5399 258.829 60.5499 259.969 60.5799C261.099 60.6099 261.789 60.6699 262.039 60.7599C262.829 60.8099 263.909 60.8599 265.289 60.9099C266.669 60.9599 268.099 61.0099 269.579 61.0599H272.539V68.5199L269.809 68.7399C268.969 68.7399 268.109 68.7799 267.219 68.8499C266.329 68.9199 265.669 68.9599 265.229 68.9599C264.639 69.0099 263.379 69.0699 261.459 69.1399C259.539 69.2099 257.399 69.2499 255.029 69.2499C252.619 69.3499 250.609 69.4099 249.009 69.4299C247.409 69.4599 246.529 69.4699 246.389 69.4699C246.339 69.6199 246.319 70.0999 246.319 70.9099C246.319 71.7199 246.289 72.8399 246.249 74.2699C246.199 75.7499 246.189 77.2599 246.209 78.8099C246.229 80.3599 246.269 81.9499 246.319 83.5799L246.389 90.0799L247.419 91.5599C248.109 92.4999 248.849 93.4199 249.639 94.3299C250.429 95.2399 251.349 96.1499 252.409 97.0599C253.469 97.9699 254.669 98.9299 256.029 99.9399C257.379 100.95 258.949 102.02 260.719 103.15C261.359 103.64 262.279 104.31 263.489 105.14C264.699 105.98 265.979 106.83 267.329 107.69C268.679 108.55 269.989 109.34 271.249 110.05C272.509 110.76 273.449 111.24 274.089 111.49C274.239 111.49 274.309 111.56 274.309 111.71C274.259 112.01 274.079 112.49 273.759 113.15C273.439 113.81 273.079 114.53 272.689 115.29C272.289 116.05 271.909 116.78 271.539 117.47C271.169 118.16 270.889 118.68 270.689 119.02C270.439 119.46 270.249 119.72 270.099 119.8C269.949 119.88 269.659 119.89 269.209 119.84L267.879 119.4C267.289 119.2 266.699 118.98 266.109 118.74C265.369 118.4 264.479 117.94 263.449 117.37C262.419 116.8 261.229 116.13 259.899 115.34C258.519 114.55 257.339 113.87 256.349 113.31C255.359 112.74 254.549 112.26 253.909 111.87C253.019 111.18 252.049 110.33 250.989 109.32C249.929 108.31 248.979 107.34 248.149 106.4L246.749 104.85V107.29C246.699 109.11 246.649 110.84 246.599 112.46C246.549 114.09 246.479 115.61 246.379 117.04C246.279 118.47 246.219 119.59 246.199 120.4C246.169 121.21 246.139 121.72 246.089 121.91L245.719 122.5H236.849V121.24C236.849 120.9 236.839 119.79 236.809 117.92C236.779 116.05 236.719 113.86 236.629 111.34L236.559 102.47L233.459 105.5C232.569 106.39 231.649 107.25 230.689 108.09C229.729 108.93 228.979 109.62 228.439 110.16C227.849 110.6 227.219 111.11 226.559 111.67C225.899 112.24 225.339 112.69 224.899 113.04C223.419 114.37 221.909 115.65 220.359 116.88C218.809 118.11 217.609 118.97 216.779 119.47L215.009 120.5L214.489 119.91C214.239 119.61 213.909 119.15 213.489 118.51C213.069 117.87 212.659 117.19 212.269 116.48C211.869 115.77 211.509 115.06 211.159 114.37C210.819 113.68 210.589 113.16 210.499 112.82C210.549 112.77 210.759 112.57 211.129 112.23C211.499 111.89 211.979 111.52 212.569 111.12L212.529 111.14ZM248.149 88.0199C250.409 86.4399 252.139 84.4499 253.319 82.0399C254.499 79.6299 255.439 77.1199 256.129 74.4999C256.519 73.3199 256.769 72.5899 256.869 72.3199C256.969 72.0499 257.139 71.9599 257.389 72.0599C257.539 72.1099 257.829 72.1499 258.279 72.1699C258.719 72.1999 259.169 72.2599 259.609 72.3499C261.729 72.6899 263.109 72.9499 263.749 73.1299C264.389 73.2999 264.659 73.5399 264.559 73.8299C264.559 74.4199 264.469 75.0599 264.299 75.7499C264.129 76.4399 263.819 77.1999 263.379 78.0399C263.129 78.5299 262.939 78.9499 262.789 79.2999C262.639 79.6399 262.569 79.8399 262.569 79.8899C262.669 80.1399 263.169 80.7299 264.079 81.6599C264.989 82.5999 266.029 83.6099 267.179 84.6899C268.339 85.7699 269.469 86.7999 270.579 87.7599C271.689 88.7199 272.459 89.3199 272.909 89.5699L273.429 90.0899L272.909 91.1999C272.809 91.3999 272.649 91.7099 272.429 92.1199C272.209 92.5399 271.969 92.9299 271.729 93.2999C271.479 93.6699 271.209 93.9999 270.919 94.2999C270.629 94.5999 270.349 94.7399 270.109 94.7399C269.809 94.7399 269.469 94.6799 269.079 94.5599C268.679 94.4399 268.219 94.2499 267.679 94.0099C266.599 93.5699 265.659 93.0499 264.869 92.4599C264.079 91.8699 263.099 90.9799 261.909 89.7999C261.019 88.8099 260.439 88.2199 260.169 88.0299C259.899 87.8299 259.709 87.8299 259.619 88.0299C259.369 88.4299 259.249 88.6499 259.249 88.6899C259.149 88.8899 258.919 89.2199 258.549 89.6899C258.179 90.1599 257.769 90.6399 257.329 91.1299C256.889 91.6199 256.439 92.0899 255.999 92.5299C255.559 92.9699 255.239 93.2699 255.039 93.4199C254.839 93.6699 254.609 93.8399 254.339 93.9399C254.069 94.0399 253.859 94.0899 253.709 94.0899C253.409 93.9899 252.999 93.7299 252.449 93.3099C251.909 92.8899 251.349 92.4099 250.789 91.8699C250.219 91.3299 249.709 90.7899 249.239 90.2399C248.769 89.6999 248.459 89.2799 248.319 88.9799C247.779 88.4399 247.729 88.1199 248.169 88.0199H248.149Z" fill="#FF5F17"/>
<path d="M283.828 107.97C283.978 107.97 284.238 107.83 284.608 107.56C284.978 107.29 285.398 106.94 285.868 106.53C286.338 106.11 286.798 105.67 287.268 105.2C287.738 104.73 288.138 104.3 288.488 103.91C288.828 103.52 289.348 102.94 290.038 102.17C290.728 101.41 291.438 100.66 292.178 99.92C294.538 97.56 295.728 96.03 295.728 95.34C295.628 95.34 295.088 95.33 294.098 95.3C293.108 95.28 291.828 95.26 290.258 95.26H284.938L284.788 94.37C284.738 94.12 284.718 93.66 284.718 92.97C284.718 92.28 284.668 91.57 284.568 90.83V88.02H298.458V85.95C298.558 85.26 298.578 84.73 298.528 84.36C298.478 83.99 298.428 83.78 298.378 83.73C298.278 83.63 297.638 83.58 296.458 83.58H292.248L286.268 83.73V82.7C286.268 82.4 286.238 81.95 286.198 81.33C286.148 80.71 286.128 80.06 286.128 79.37L286.058 77.08H289.018C290.598 77.13 291.528 77.08 291.828 76.93C292.128 76.78 292.168 76.41 291.978 75.82C291.878 75.67 291.778 75.33 291.678 74.79C291.578 74.25 291.478 73.68 291.378 73.09C291.228 72.2 291.058 71.33 290.858 70.47C290.658 69.61 290.418 68.88 290.118 68.29C290.068 68.14 290.218 68.03 290.558 67.96C290.898 67.89 291.668 67.85 292.848 67.85C293.638 67.8 294.388 67.75 295.098 67.7C295.808 67.65 296.318 67.63 296.608 67.63L297.568 67.41L297.938 68.22C297.938 68.42 297.988 68.77 298.088 69.29C298.188 69.81 298.238 70.29 298.238 70.73C298.338 71.32 298.418 71.97 298.498 72.69C298.568 73.4 298.638 74.08 298.678 74.72L299.048 76.71L302.368 76.93L303.028 75.3C303.368 74.31 303.708 73.27 304.028 72.16C304.348 71.05 304.708 69.81 305.098 68.43C305.248 67.89 305.378 67.4 305.508 66.95C305.628 66.51 305.768 66.21 305.918 66.06C306.358 65.62 306.088 65.37 305.108 65.32H302.448C301.118 65.32 299.318 65.35 297.058 65.39L287.898 65.54L287.828 63.84C287.728 63.4 287.668 62.88 287.648 62.29C287.618 61.7 287.608 61.18 287.608 60.74L287.388 59.34H297.288L296.918 58.23C296.868 57.93 296.778 57.54 296.658 57.05C296.538 56.56 296.448 56.14 296.398 55.79C296.298 55.35 296.198 54.95 296.098 54.61C295.998 54.27 295.898 54.07 295.798 54.02V53.65C295.948 53.65 296.238 53.63 296.688 53.58C297.128 53.53 297.678 53.47 298.318 53.4C298.958 53.33 299.638 53.25 300.348 53.18C301.058 53.11 301.738 53.04 302.378 53C302.818 53 303.168 53.01 303.408 53.04C303.658 53.07 303.858 53.15 304.038 53.3C304.208 53.45 304.368 53.7 304.518 54.04C304.668 54.38 304.838 54.9 305.038 55.59C305.238 56.23 305.448 56.81 305.668 57.33C305.888 57.85 305.998 58.16 305.998 58.25C306.098 58.4 306.528 58.48 307.288 58.51C308.048 58.54 309.588 58.55 311.908 58.55H315.678V61.65C315.678 62.83 315.648 63.67 315.608 64.16C315.558 64.65 315.458 64.92 315.308 64.97C315.258 65.12 314.938 65.22 314.348 65.27C313.758 65.32 312.598 65.34 310.878 65.34H306.818L307.998 65.86C308.388 66.06 308.748 66.2 309.068 66.3C309.388 66.4 309.618 66.47 309.768 66.52C309.868 66.52 309.998 66.56 310.178 66.63C310.348 66.7 310.558 66.74 310.808 66.74C311.398 66.89 311.998 67.14 312.618 67.48C313.238 67.82 313.588 68.1 313.688 68.29C313.688 68.39 313.538 68.86 313.248 69.69C312.948 70.53 312.608 71.54 312.218 72.72C311.878 73.9 311.568 74.9 311.298 75.71C311.028 76.52 310.938 76.98 311.038 77.08C311.038 77.13 311.108 77.18 311.258 77.23C311.408 77.28 311.558 77.3 311.698 77.3H315.468L315.318 79.52C315.318 80.16 315.308 80.78 315.278 81.37C315.248 81.96 315.238 82.38 315.238 82.63V83.52H306.818C306.718 83.57 306.658 83.8 306.638 84.22C306.608 84.64 306.598 85.17 306.598 85.81L306.448 88.03H309.548C310.388 88.13 311.218 88.19 312.058 88.21C312.898 88.24 313.728 88.25 314.568 88.25H315.898L315.748 91.57V94.89H311.458C310.178 94.84 309.128 94.83 308.318 94.85C307.508 94.88 307.078 94.89 307.028 94.89C307.028 94.99 307.098 95.12 307.248 95.3C307.398 95.47 307.548 95.71 307.688 96C307.888 96.4 308.228 96.85 308.718 97.37C309.208 97.89 310.048 98.84 311.228 100.21C311.528 100.55 311.958 101.07 312.518 101.76C313.088 102.45 313.668 103.19 314.258 103.98C314.848 104.77 315.388 105.52 315.888 106.23C316.378 106.94 316.698 107.5 316.848 107.89C316.798 108.19 316.528 108.65 316.038 109.29C315.548 109.93 314.858 110.6 313.968 111.28C313.178 111.92 312.648 112.31 312.378 112.46C312.108 112.61 311.868 112.53 311.678 112.24C311.138 111.31 310.518 110.31 309.828 109.25C309.138 108.19 308.568 107.29 308.128 106.55C307.588 105.86 307.228 105.44 307.058 105.29C306.888 105.14 306.798 105.19 306.798 105.44C306.698 105.64 306.648 106.46 306.648 107.92C306.648 109.38 306.618 111.21 306.578 113.42C306.578 115.49 306.548 117.26 306.508 118.74C306.458 120.22 306.408 121.03 306.358 121.18C306.358 121.33 306.108 121.44 305.618 121.51C305.128 121.58 304.068 121.62 302.438 121.62C300.668 121.62 299.578 121.58 299.188 121.51C298.788 121.44 298.598 121.33 298.598 121.18V113.35C298.598 111.48 298.608 109.95 298.638 108.77C298.658 107.59 298.678 106.68 298.678 106.04C298.678 105.4 298.668 104.98 298.638 104.78C298.608 104.58 298.548 104.53 298.458 104.63C298.408 104.73 298.318 104.86 298.198 105.04C298.078 105.21 297.988 105.42 297.938 105.67C297.598 106.41 297.088 107.21 296.428 108.07C295.768 108.93 295.028 109.78 294.208 110.62C293.398 111.46 292.548 112.26 291.658 113.02C290.768 113.78 289.938 114.44 289.148 114.98C288.658 115.32 288.338 115.5 288.188 115.5C287.938 115.5 287.698 115.34 287.448 115.02C287.198 114.7 286.828 114.15 286.338 113.36C285.158 111.49 284.368 110.12 283.978 109.26C283.578 108.4 283.538 107.97 283.828 107.97ZM317.298 115.58C317.398 115.48 317.558 115.37 317.778 115.25C317.998 115.13 318.258 114.94 318.558 114.7C319.348 114.01 320.088 113.14 320.778 112.08C321.468 111.02 322.068 109.91 322.588 108.76C323.108 107.6 323.538 106.43 323.878 105.25C324.218 104.07 324.448 102.99 324.538 102L324.608 100.45H319.878L319.728 90.18V79.17C319.678 76.95 319.658 74.88 319.658 72.96V54.78L320.178 54.71C320.328 54.71 320.778 54.7 321.548 54.67C322.308 54.65 323.318 54.63 324.578 54.63C325.838 54.63 327.278 54.62 328.898 54.59C330.528 54.57 332.268 54.55 334.148 54.55C337.988 54.55 341.168 54.54 343.678 54.51C346.188 54.49 347.518 54.47 347.668 54.47H348.258L348.778 54.54V93.03C348.728 95.25 348.708 96.92 348.708 98.05V99.9C348.608 100.05 348.378 100.13 348.008 100.16C347.638 100.19 346.988 100.2 346.048 100.2H344.198C343.708 100.2 343.458 100.25 343.458 100.35V107L343.608 113.65L345.158 113.58C345.598 113.48 345.968 113.42 346.268 113.4C346.568 113.38 346.738 113.31 346.788 113.22C346.888 113.17 346.948 112.89 346.968 112.37C346.988 111.85 347.058 111.18 347.148 110.34C347.148 109.6 347.158 108.95 347.188 108.38C347.208 107.81 347.278 107.53 347.368 107.53C347.418 107.53 347.698 107.52 348.218 107.49C348.738 107.47 349.368 107.45 350.098 107.45L352.758 107.3L353.198 108.63C353.398 109.17 353.508 109.91 353.528 110.85C353.548 111.79 353.538 112.94 353.488 114.32C353.438 115.6 353.348 116.67 353.228 117.53C353.108 118.39 352.948 119.09 352.748 119.64C352.548 120.38 351.648 120.9 350.048 121.19C348.448 121.49 345.998 121.63 342.698 121.63H338.118L337.458 120.97C337.258 120.67 337.088 120.34 336.938 119.97C336.788 119.6 336.638 119.05 336.498 118.31C336.248 117.13 336.088 115.44 336.018 113.25C335.948 111.06 335.908 108.34 335.908 105.09V100.44H333.838L333.688 101.92C333.388 104.83 332.828 107.38 331.988 109.57C331.148 111.76 329.948 114.09 328.368 116.55C327.778 117.34 327.138 118.11 326.448 118.88C325.758 119.64 325.078 120.31 324.418 120.87C323.758 121.43 323.138 121.87 322.568 122.16C321.998 122.46 321.568 122.55 321.278 122.46C321.078 122.16 320.628 121.45 319.908 120.32C319.198 119.19 318.468 118.08 317.728 117C317.388 116.51 317.188 116.16 317.138 115.97C317.088 115.77 317.138 115.65 317.288 115.6L317.298 115.58ZM328.088 93.04C328.088 93.04 328.778 93.14 330.008 93.19C331.238 93.24 332.838 93.26 334.808 93.26L341.238 93.33V90.6C341.188 89.76 341.168 89.05 341.168 88.46C341.168 87.87 341.118 87.55 341.018 87.5C341.018 87.4 340.558 87.34 339.648 87.32C338.738 87.3 337.098 87.28 334.738 87.28C332.968 87.28 331.458 87.29 330.228 87.32C328.998 87.35 328.308 87.36 328.158 87.36C328.008 87.36 327.928 87.54 327.898 87.91C327.868 88.28 327.858 89.03 327.858 90.16C327.858 91.93 327.928 92.89 328.078 93.04H328.088ZM327.938 77.16V80.19H329.198C329.638 80.09 330.318 80.03 331.228 80.01C332.138 79.99 333.108 79.92 334.148 79.83C335.178 79.83 336.218 79.82 337.248 79.79C338.278 79.77 339.018 79.75 339.468 79.75H341.168V73.32H339.028C338.188 73.37 337.238 73.42 336.188 73.47C335.128 73.52 333.958 73.59 332.678 73.69C331.398 73.79 330.378 73.86 329.608 73.91C328.848 73.96 328.368 74.01 328.168 74.06C328.118 74.16 328.068 74.5 328.018 75.09C327.968 75.68 327.948 76.37 327.948 77.16H327.938ZM331.628 67.63C332.558 67.63 333.608 67.62 334.768 67.59C335.928 67.57 336.948 67.5 337.838 67.41L340.798 67.19V65.86C340.798 65.42 340.788 64.9 340.758 64.31C340.728 63.72 340.668 63.2 340.578 62.76L340.508 61.13L337.408 61.2C336.518 61.2 335.498 61.23 334.338 61.27C333.178 61.32 332.158 61.34 331.268 61.34L328.308 61.41V67.62H331.628V67.63Z" fill="#FF5F17"/>
<path d="M362.588 83.21H368.798C370.518 83.21 372.028 83.22 373.308 83.25C374.588 83.28 375.818 83.3 376.998 83.32C378.178 83.35 379.398 83.41 380.658 83.5C381.918 83.6 383.358 83.72 384.978 83.87C386.108 83.92 387.058 83.98 387.818 84.05C388.578 84.12 389.008 84.14 389.108 84.09V82.76C389.158 82.37 389.178 81.89 389.178 81.32C389.178 80.75 389.228 80.13 389.328 79.44C389.478 78.16 389.558 77.06 389.588 76.15C389.608 75.24 389.678 74.71 389.768 74.56C389.818 74.36 389.938 74.2 390.138 74.08C390.338 73.96 390.608 73.77 390.948 73.53C392.968 72.15 395.138 70.62 397.448 68.95C399.768 67.28 401.778 65.67 403.508 64.15L404.618 63.04L403.068 63.11C402.528 63.11 401.618 63.14 400.338 63.18C399.058 63.23 397.628 63.28 396.048 63.33C395.258 63.33 394.288 63.36 393.128 63.4C391.968 63.45 390.748 63.5 389.468 63.55C388.188 63.6 386.848 63.65 385.438 63.7C384.038 63.75 382.668 63.77 381.338 63.77C378.378 63.92 376.068 64.03 374.388 64.1C372.718 64.17 371.628 64.19 371.138 64.14C370.148 64.14 369.858 63.94 370.248 63.55V62.59C370.248 62.15 370.198 61.66 370.098 61.11C370.098 60.62 370.058 60.11 369.988 59.6C369.918 59.09 369.878 58.7 369.878 58.45C369.878 58.15 369.848 57.79 369.808 57.34C369.758 56.9 369.708 56.45 369.658 56.01L369.508 54.46L394.478 54.61H412.058C414.418 54.66 416.218 54.68 417.448 54.68H419.438C419.438 54.78 419.448 55.25 419.478 56.08C419.498 56.92 419.518 57.98 419.518 59.26L419.738 63.77L418.848 64.8C417.818 66.03 416.598 67.29 415.188 68.57C413.788 69.85 412.298 71.11 410.718 72.34C409.138 73.57 407.548 74.7 405.948 75.74C404.348 76.77 402.808 77.66 401.328 78.4L400.888 78.62V79.28C400.838 79.48 400.818 79.71 400.818 79.98V80.83L400.668 83.19H425.858V89.21C425.858 90.71 425.808 91.54 425.708 91.69C425.168 91.74 424.598 91.76 424.008 91.76H422.158C421.028 91.81 419.718 91.85 418.238 91.87C416.758 91.9 415.158 91.91 413.438 91.91L401.028 92.06V93.83C400.928 95.9 400.828 97.68 400.728 99.19C400.628 100.69 400.528 101.86 400.428 102.7C400.278 104.62 400.118 106.54 399.948 108.46C399.778 110.38 399.638 111.98 399.538 113.26C399.488 114.34 399.428 115.43 399.358 116.51C399.288 117.59 399.178 118.6 399.028 119.54C398.928 119.84 398.828 120.06 398.728 120.2C398.628 120.35 398.358 120.54 397.918 120.79C395.698 121.63 393.458 122.18 391.198 122.45C388.928 122.72 386.618 122.86 384.248 122.86L380.628 123.01L380.478 121.75C380.478 121.41 380.448 120.86 380.408 120.12C380.358 119.38 380.298 118.63 380.228 117.87C380.158 117.11 380.078 116.39 380.008 115.73C379.938 115.07 379.868 114.63 379.828 114.44C379.828 114 380.028 113.78 380.418 113.78C380.568 113.78 381.008 113.74 381.748 113.67C382.488 113.6 383.378 113.53 384.408 113.49C385.338 113.49 386.168 113.45 386.888 113.38C387.598 113.31 387.988 113.27 388.038 113.27C388.138 113.17 388.218 112.69 388.298 111.83C388.368 110.97 388.438 110.02 388.478 108.99C388.528 107.96 388.568 106.96 388.588 106C388.608 105.04 388.628 104.41 388.628 104.12C388.628 103.87 388.638 103.41 388.668 102.72C388.688 102.03 388.728 101.19 388.778 100.21C388.828 99.22 388.878 98.14 388.928 96.96C388.978 95.78 389.028 94.6 389.078 93.41V92.38L387.528 92.53H385.898C385.108 92.53 384.138 92.54 382.978 92.57C381.818 92.6 380.528 92.62 379.098 92.64C377.668 92.67 376.138 92.7 374.518 92.75C371.268 92.8 368.568 92.85 366.428 92.9C364.288 92.95 363.168 92.93 363.068 92.83V91.57C363.018 91.18 362.998 90.71 362.998 90.17C362.998 89.63 362.948 89.04 362.848 88.4C362.848 87.22 362.808 86.17 362.738 85.26C362.668 84.35 362.628 83.82 362.628 83.67L362.558 83.23L362.588 83.21Z" fill="#FF5F17"/>
<path d="M435.588 70.65V60.38C435.588 57.87 435.608 56.27 435.658 55.58L435.808 54.99L453.098 55.21C455.558 55.21 457.838 55.22 459.928 55.25C462.018 55.28 463.848 55.29 465.398 55.29C466.948 55.29 468.198 55.3 469.128 55.33C470.058 55.36 470.608 55.37 470.758 55.37C470.808 55.37 470.868 55.41 470.938 55.48C471.008 55.55 471.098 55.62 471.198 55.66C471.298 56.45 471.358 58.07 471.378 60.54C471.398 63 471.368 66.33 471.268 70.51C471.168 74.7 471.088 78.13 471.008 80.82C470.938 83.51 470.848 85.44 470.748 86.62C470.748 86.82 470.708 86.99 470.638 87.14C470.568 87.29 470.318 87.41 469.898 87.51C469.478 87.61 468.868 87.67 468.048 87.69C467.238 87.72 466.088 87.73 464.608 87.73C463.228 87.78 461.958 87.83 460.798 87.88C459.638 87.93 458.888 87.95 458.548 87.95H457.218L457.068 91.35V94.82L457.728 94.89C457.878 94.89 458.268 94.92 458.908 94.96C459.548 95.01 460.188 95.06 460.828 95.11C461.568 95.11 462.338 95.15 463.158 95.22C463.978 95.29 464.648 95.33 465.188 95.33L466.818 95.48V97.47C466.818 98.06 466.808 98.63 466.778 99.17C466.748 99.71 466.738 100.13 466.738 100.43L466.588 101.46L463.408 101.68C462.418 101.68 461.488 101.69 460.598 101.72C459.708 101.75 459.048 101.76 458.608 101.76H457.058V109.52L458.088 109.45C458.388 109.4 458.868 109.31 459.528 109.19C460.188 109.07 460.918 108.93 461.708 108.78C462.498 108.63 463.308 108.47 464.148 108.3C464.988 108.13 465.728 107.94 466.368 107.75L468.068 107.45L468.138 108.11C468.138 108.26 468.178 108.63 468.248 109.22C468.318 109.81 468.408 110.43 468.508 111.07C468.508 111.76 468.548 112.43 468.618 113.06C468.688 113.7 468.758 114.17 468.798 114.46L468.948 115.35L467.248 115.79C466.758 115.89 466.178 116.04 465.508 116.23C464.848 116.43 464.218 116.6 463.628 116.75C462.988 116.9 462.248 117.07 461.408 117.27C460.568 117.47 459.708 117.65 458.818 117.82C457.928 117.99 457.068 118.14 456.228 118.26C455.388 118.38 454.628 118.47 453.938 118.52C453.498 118.67 452.828 118.82 451.948 118.96C451.068 119.1 450.228 119.26 449.438 119.4C448.548 119.5 447.518 119.63 446.338 119.81C445.158 119.98 444.068 120.14 443.088 120.29C442.098 120.44 441.228 120.55 440.468 120.62C439.708 120.69 439.178 120.78 438.878 120.88H437.988L437.618 119.18C436.728 115.14 436.358 113.12 436.508 113.12C436.608 113.02 436.838 112.96 437.208 112.94C437.578 112.92 438.008 112.85 438.498 112.76C439.038 112.71 439.768 112.62 440.678 112.5C441.588 112.38 442.508 112.22 443.448 112.02C444.238 111.87 445.028 111.71 445.808 111.54C446.598 111.37 447.138 111.28 447.438 111.28L448.548 111.06L448.398 106.85V102.64H444.998C444.008 102.64 442.978 102.67 441.898 102.71C440.818 102.76 439.948 102.78 439.308 102.78C438.278 102.83 437.618 102.84 437.348 102.82C437.078 102.8 436.938 102.66 436.938 102.41C436.938 102.26 436.908 101.91 436.868 101.34C436.818 100.77 436.758 100.16 436.688 99.49C436.618 98.82 436.548 98.19 436.508 97.57C436.458 96.95 436.438 96.5 436.438 96.2C436.338 95.9 436.318 95.67 436.368 95.5C436.418 95.33 436.438 95.19 436.438 95.09H436.658C436.908 95.09 437.078 95.14 437.178 95.24C437.718 95.39 438.438 95.49 439.318 95.54C440.208 95.59 441.678 95.66 443.748 95.76L448.108 95.91L448.178 92.44V88.82C448.178 88.72 447.758 88.66 446.918 88.64C446.078 88.62 444.598 88.63 442.488 88.68C440.958 88.78 439.608 88.84 438.428 88.86C437.248 88.89 436.578 88.9 436.438 88.9L435.778 89.05L435.628 87.13C435.578 86 435.558 84.09 435.558 81.4V70.65H435.588ZM444.598 64.67V66.11C444.598 66.53 444.618 66.91 444.668 67.26V68.29H449.248V64.97C449.148 64.04 449.098 63.21 449.098 62.49C449.098 61.77 449.068 61.39 449.028 61.34C449.028 61.19 448.238 61.12 446.668 61.12H444.448L444.598 64.67ZM448.668 82.25V78.85C448.768 77.27 448.778 76.3 448.708 75.93C448.638 75.56 448.478 75.38 448.228 75.38C447.888 75.33 447.318 75.31 446.528 75.31C445.738 75.31 445.248 75.34 445.048 75.38C445.048 75.48 445.018 75.86 444.978 76.53C444.928 77.19 444.908 78 444.908 78.93V82.25H448.678H448.668ZM461.228 81.59L461.448 79.15C461.448 78.51 461.458 77.86 461.488 77.19C461.508 76.53 461.498 76 461.448 75.6V74.49H456.868V75.64C456.868 76.3 456.838 77.11 456.798 78.04L456.648 81.59H461.228ZM456.868 64.89V68.29H458.938C459.328 68.29 459.728 68.34 460.118 68.44L461.298 68.51V61.12H460.338C460.088 61.12 459.768 61.1 459.378 61.05C458.978 61 458.638 60.98 458.348 60.98C458.058 60.98 457.798 61.01 457.568 61.05C457.348 61.1 457.188 61.15 457.088 61.2C457.038 61.3 456.988 61.69 456.938 62.38C456.888 63.07 456.868 63.91 456.868 64.89ZM477.258 79.15C478.588 79.15 480.018 79.18 481.548 79.22C483.078 79.27 484.278 79.32 485.168 79.37L488.488 79.52L488.048 78.71C487.648 77.97 487.138 77.24 486.498 76.53C485.858 75.82 485.218 75.29 484.578 74.94C484.238 74.74 483.728 74.42 483.068 73.98C482.408 73.54 481.778 73.09 481.188 72.65C480.498 72.26 479.928 71.91 479.488 71.62C479.048 71.33 478.828 71.15 478.828 71.1L479.048 70.44C479.148 70.24 479.248 70.02 479.348 69.78C479.448 69.53 479.548 69.26 479.648 68.97C480.238 67.44 480.758 66.68 481.198 66.68C481.348 66.68 481.588 66.77 481.938 66.94C482.278 67.11 482.668 67.31 483.088 67.53C483.508 67.75 483.898 67.97 484.268 68.19C484.638 68.41 484.898 68.57 485.048 68.67C485.298 68.82 485.498 68.79 485.678 68.6C485.848 68.4 486.228 67.86 486.828 66.97C487.128 66.53 487.428 66.04 487.748 65.49C488.068 64.95 488.348 64.43 488.598 63.94C488.848 63.45 489.048 63.01 489.228 62.61C489.398 62.22 489.488 61.95 489.488 61.8C489.388 61.75 488.978 61.71 488.268 61.69C487.558 61.67 486.528 61.7 485.198 61.8C482.538 62 480.028 62.14 477.658 62.24C476.528 62.29 475.578 62.35 474.818 62.42C474.058 62.49 473.668 62.51 473.668 62.46C473.618 62.36 473.558 62.1 473.488 61.68C473.418 61.26 473.348 60.76 473.308 60.17C473.258 59.58 473.208 58.96 473.158 58.32C473.108 57.68 473.088 57.09 473.088 56.55V54.56L477.228 54.49H486.318C487.698 54.49 489.228 54.5 490.898 54.53C492.568 54.56 493.928 54.57 494.958 54.57C496.728 54.52 497.818 54.53 498.208 54.61C498.598 54.68 498.778 54.82 498.728 55.02C498.878 55.56 498.988 56.09 499.058 56.61C499.128 57.13 499.168 57.85 499.168 58.79C499.218 59.92 499.168 60.97 499.018 61.93C498.868 62.89 498.548 63.91 498.058 65C497.758 65.84 497.268 66.8 496.578 67.88C495.888 68.96 495.128 69.92 494.288 70.76C493.448 71.6 493.028 72.16 493.028 72.46C493.028 72.66 493.128 72.9 493.328 73.2C493.528 73.5 493.718 73.84 493.918 74.23C494.068 74.38 494.278 74.67 494.548 75.12C494.818 75.56 495.098 76.03 495.398 76.52L496.288 78.44L497.838 78.51C498.278 78.61 498.838 78.67 499.498 78.69C500.158 78.72 500.738 78.73 501.238 78.73C502.468 78.98 503.188 79.13 503.378 79.17C503.528 79.32 503.658 79.69 503.788 80.28C503.908 80.87 504.018 81.46 504.118 82.05C504.168 82.39 504.178 82.95 504.158 83.71C504.128 84.47 504.088 85.26 504.008 86.07C503.928 86.88 503.848 87.66 503.748 88.4C503.648 89.14 503.548 89.68 503.448 90.03C503.398 90.28 503.238 90.81 502.968 91.62C502.698 92.43 502.388 93.27 502.048 94.13C501.708 94.99 501.368 95.77 501.048 96.46C500.728 97.15 500.468 97.52 500.268 97.57C500.018 97.52 499.578 97.39 498.938 97.16C498.298 96.94 497.608 96.68 496.868 96.38C496.128 96.08 495.438 95.8 494.798 95.53C494.158 95.26 493.718 95.05 493.468 94.9C493.518 94.85 493.568 94.73 493.618 94.53C493.668 94.43 493.708 94.3 493.728 94.12C493.748 93.95 493.818 93.76 493.908 93.57C494.008 93.27 494.138 92.83 494.318 92.24C494.488 91.65 494.678 91.01 494.868 90.32C495.068 89.63 495.238 88.93 495.388 88.21C495.538 87.5 495.638 86.84 495.688 86.25L495.908 85.51H491.258V87.95C491.258 88.69 491.248 89.4 491.218 90.09C491.188 90.78 491.178 91.32 491.178 91.72C491.178 92.06 491.148 92.6 491.108 93.31C491.058 94.02 491.038 94.75 491.038 95.49C491.038 96.13 491.028 96.92 490.998 97.85C490.968 98.79 490.908 99.62 490.818 100.36C490.768 101 490.718 101.99 490.668 103.32C490.618 104.65 490.568 106.03 490.518 107.46C490.368 109.82 490.238 111.93 490.108 113.78C489.988 115.63 489.848 117.14 489.698 118.32C489.648 119.75 488.988 120.64 487.708 120.98C486.078 121.32 484.288 121.61 482.318 121.83C480.348 122.05 478.528 122.21 476.848 122.31L474.558 122.46L474.408 121.65V120.1C474.358 119.9 474.308 119.48 474.258 118.84C474.208 118.2 474.188 117.51 474.188 116.77L474.118 114.26H474.858C475.108 114.26 475.488 114.24 476.008 114.19C476.528 114.14 477.078 114.08 477.668 114.01C478.258 113.94 478.798 113.85 479.298 113.75C479.788 113.65 480.138 113.55 480.328 113.45V111.46C480.378 110.82 480.418 110.07 480.438 109.21C480.458 108.35 480.498 107.43 480.548 106.44C480.548 103.63 480.588 100.86 480.658 98.13C480.728 95.4 480.818 92.63 480.918 89.82C480.968 87.8 480.918 86.54 480.768 86.05C480.768 86 480.278 85.98 479.288 85.98C478.948 85.98 478.398 86.02 477.658 86.09C476.918 86.16 476.128 86.2 475.298 86.2L472.788 86.27L472.638 82.72V79.1L477.288 79.17L477.258 79.15Z" fill="#FF5F17"/>
<path d="M514.198 70.21C514.938 69.62 515.758 68.82 516.678 67.81C517.588 66.8 518.508 65.72 519.448 64.56C520.378 63.4 521.248 62.23 522.038 61.05C522.828 59.87 523.468 58.83 523.958 57.95C524.208 57.95 524.538 58.13 524.958 58.5C525.378 58.87 525.808 59.29 526.248 59.76C526.688 60.23 527.068 60.7 527.398 61.16C527.718 61.63 527.898 61.99 527.948 62.23C527.898 62.33 527.918 62.39 528.018 62.41C528.118 62.44 528.358 62.45 528.758 62.45L529.498 62.38L529.648 57.73V54.33C529.648 53.4 529.668 52.85 529.718 52.7C529.718 52.65 529.998 52.6 530.568 52.55C531.138 52.5 532.078 52.48 533.408 52.48H537.028V54.25L538.798 54.4C539.338 54.45 540.058 54.47 540.938 54.47H543.448L546.258 54.4L546.328 56.69V59.05H537.238L537.388 60.68C537.388 61.22 537.398 61.64 537.428 61.94C537.448 62.24 537.468 62.41 537.468 62.46C537.568 62.46 537.958 62.49 538.648 62.53C539.338 62.58 540.198 62.6 541.238 62.6H544.928L545.148 63.56C545.298 63.86 545.418 64.15 545.518 64.45C545.618 64.75 545.718 64.97 545.818 65.11C545.868 65.26 545.878 65.44 545.858 65.66C545.828 65.88 545.698 66.19 545.448 66.58C545.108 67.42 544.278 68.59 542.968 70.09C541.658 71.59 540.198 73.12 538.568 74.67C536.938 76.22 535.328 77.67 533.728 79.03C532.128 80.39 530.858 81.33 529.918 81.87C529.578 82.07 529.038 82.33 528.328 82.65C527.618 82.97 526.878 83.29 526.108 83.61C525.348 83.93 524.618 84.25 523.928 84.57C523.238 84.89 522.718 85.12 522.378 85.27C522.078 85.42 521.718 85.54 521.268 85.64C520.828 85.74 520.388 85.82 519.978 85.9C519.558 85.97 519.188 86.04 518.868 86.08C518.548 86.13 518.338 86.15 518.238 86.15C518.238 86 518.168 85.68 518.018 85.19C517.868 84.7 517.708 84.16 517.538 83.56C517.368 82.97 517.198 82.41 517.018 81.9C516.848 81.38 516.738 81.03 516.688 80.83C516.538 80.39 516.428 80.02 516.358 79.72C516.288 79.42 516.298 79.25 516.398 79.2C516.448 79.1 516.698 78.98 517.138 78.83C517.578 78.68 518.148 78.46 518.838 78.17C520.418 77.68 521.698 77.22 522.678 76.8C523.668 76.38 524.158 76.1 524.158 75.95C524.058 75.7 523.848 75.45 523.528 75.17C523.208 74.9 522.948 74.69 522.748 74.54C522.208 74.1 521.808 73.78 521.568 73.58C521.318 73.38 521.148 73.33 521.048 73.43C520.898 73.48 520.678 73.64 520.388 73.91C520.088 74.18 519.728 74.49 519.278 74.83C518.388 75.72 517.798 76.16 517.508 76.16C517.258 76.06 516.908 75.8 516.438 75.38C515.968 74.96 515.478 74.49 514.958 73.98C514.438 73.47 513.988 72.96 513.588 72.47C513.188 71.98 512.948 71.58 512.848 71.29C512.848 71.04 513.288 70.67 514.178 70.18L514.198 70.21ZM517.968 90.53C520.578 89.54 523.038 88.47 525.358 87.32C527.678 86.16 529.888 84.88 532.008 83.48C534.128 82.08 536.178 80.55 538.178 78.9C540.168 77.25 542.158 75.44 544.128 73.47L547.678 69.78L548.268 70.22C548.318 70.32 548.478 70.44 548.748 70.59C549.018 70.74 549.248 70.89 549.448 71.03C549.838 71.23 550.268 71.5 550.738 71.84C551.208 72.18 551.648 72.54 552.068 72.91C552.488 73.28 552.848 73.62 553.138 73.94C553.438 74.26 553.608 74.49 553.658 74.64C553.758 74.89 553.918 75.1 554.138 75.27C554.358 75.44 554.838 75.68 555.578 75.97C556.568 76.51 557.158 76.78 557.348 76.78C557.348 76.53 557.198 76.26 556.908 75.97C556.568 75.58 556.178 75.15 555.758 74.68C555.338 74.21 554.948 73.75 554.578 73.28C554.208 72.81 553.918 72.38 553.688 71.99C553.468 71.6 553.358 71.3 553.358 71.1L553.508 71.03H553.658C553.958 71.03 554.458 70.86 555.168 70.51C555.878 70.17 556.458 69.85 556.908 69.55C557.358 69.25 557.478 69.02 557.278 68.85C557.078 68.68 556.318 68.32 554.988 67.78C554.498 67.58 554.028 67.37 553.588 67.15C553.148 66.93 552.798 66.77 552.558 66.67L552.038 66.23L552.558 65.27C552.708 64.97 552.888 64.57 553.108 64.05C553.328 63.53 553.558 63.05 553.808 62.61C553.958 62.17 554.108 61.77 554.248 61.43C554.398 61.09 554.498 60.89 554.548 60.84C554.698 60.69 555.348 60.83 556.508 61.25C557.668 61.67 559.158 62.22 560.978 62.91L563.858 64.02L564.228 63.58C564.328 63.43 564.498 63.17 564.748 62.8C564.998 62.43 565.248 62.05 565.528 61.65C565.798 61.26 566.058 60.87 566.308 60.5C566.558 60.13 566.748 59.87 566.898 59.72C566.948 59.62 566.568 59.56 565.748 59.54C564.938 59.52 563.248 59.53 560.688 59.58C558.818 59.58 557.278 59.61 556.068 59.65C554.858 59.7 554.208 59.75 554.108 59.8C554.058 59.75 553.998 59.66 553.928 59.54C553.858 59.42 553.818 59.26 553.818 59.06C553.768 58.81 553.718 58.46 553.668 57.99C553.618 57.52 553.568 56.92 553.518 56.18C553.468 55.44 553.428 54.85 553.408 54.41C553.378 53.97 553.398 53.7 553.448 53.6H554.778C555.168 53.6 555.638 53.59 556.178 53.56C556.718 53.54 557.338 53.52 558.028 53.52C560.388 53.42 562.568 53.36 564.568 53.34C566.558 53.32 568.298 53.3 569.778 53.3C571.258 53.3 572.438 53.33 573.328 53.37C574.218 53.42 574.728 53.47 574.878 53.52C574.928 53.57 574.988 53.74 575.058 54.04C575.128 54.34 575.168 54.68 575.168 55.07C575.418 56.89 575.708 58.37 576.058 59.5C576.158 59.84 576.218 60.12 576.238 60.31C576.258 60.51 576.198 60.75 576.058 61.05C575.918 61.35 575.698 61.73 575.428 62.2C575.158 62.67 574.838 63.16 574.468 63.68C574.098 64.2 573.708 64.7 573.288 65.19C572.868 65.68 572.458 66.1 572.068 66.45L571.258 67.26C571.108 67.41 571.008 67.56 570.958 67.7C570.958 67.75 571.278 67.95 571.918 68.29C572.558 68.63 573.348 69.05 574.278 69.55C575.168 70.09 575.948 70.56 576.638 70.95C577.328 71.35 577.768 71.59 577.968 71.69L578.408 71.99L578.038 73.1C577.888 73.44 577.718 73.85 577.518 74.32C577.318 74.79 577.118 75.26 576.928 75.72C576.728 76.19 576.548 76.62 576.378 77.01C576.208 77.41 576.098 77.7 576.048 77.9C575.998 78.05 575.898 78.1 575.748 78.05C575.598 78 575.228 77.88 574.638 77.68C574.048 77.43 573.348 77.11 572.528 76.72C571.718 76.33 570.788 75.88 569.758 75.39C568.728 74.9 567.878 74.48 567.208 74.13C566.548 73.79 566.088 73.51 565.838 73.32C565.348 72.98 565.028 72.88 564.878 73.02C564.778 73.02 564.568 73.13 564.248 73.35C563.928 73.57 563.568 73.86 563.178 74.2C562.838 74.5 562.338 74.84 561.698 75.23C561.058 75.63 560.488 75.94 559.998 76.19L558.078 77.22L559.998 78.18C561.378 78.87 563.018 79.62 564.908 80.43C566.808 81.24 568.488 81.94 569.968 82.54C570.458 82.69 571.078 82.91 571.818 83.2C572.558 83.49 573.218 83.74 573.808 83.94C574.398 84.19 575.048 84.42 575.768 84.64C576.478 84.86 577.138 85.07 577.728 85.27C578.218 85.42 578.648 85.55 579.018 85.68C579.388 85.8 579.618 85.89 579.718 85.94C579.768 85.99 579.598 87.05 579.198 89.12C578.998 90.06 578.818 90.79 578.648 91.34C578.478 91.88 578.338 92.28 578.238 92.52C577.748 92.52 577.018 92.4 576.058 92.15C575.098 91.9 574.088 91.62 573.028 91.3C571.968 90.98 570.938 90.65 569.928 90.3C568.918 89.96 568.118 89.68 567.528 89.49C566.098 88.9 564.688 88.34 563.278 87.83C561.868 87.32 560.188 86.66 558.218 85.87C556.298 85.03 555.288 84.61 555.188 84.61C555.188 84.71 555.208 84.88 555.258 85.13C555.308 85.38 555.358 85.7 555.408 86.09C555.508 86.43 555.558 86.74 555.558 87.01V87.49C555.408 87.54 555.048 87.61 554.488 87.71C553.918 87.81 553.228 87.91 552.418 88.01C551.608 88.11 550.718 88.19 549.758 88.27C548.798 88.35 547.848 88.38 546.918 88.38C545.888 88.48 544.848 88.56 543.818 88.64C542.788 88.72 541.968 88.75 541.378 88.75C540.488 88.8 539.878 88.79 539.528 88.71C539.188 88.64 538.988 88.45 538.938 88.16C538.938 88.11 538.878 88.07 538.758 88.05C538.638 88.03 538.478 88.11 538.278 88.31C538.128 88.46 537.878 88.62 537.538 88.79C537.198 88.96 536.918 89.12 536.728 89.27C536.428 89.42 536.178 89.55 535.948 89.68C535.728 89.8 535.618 89.89 535.618 89.94C536.748 89.99 541.408 89.99 549.578 89.94C557.808 89.84 562.978 89.77 565.098 89.72C566.178 89.57 566.858 89.67 567.128 90.02C567.398 90.36 567.538 91.35 567.538 92.98C567.588 93.97 567.598 95.16 567.578 96.56C567.548 97.96 567.518 99.6 567.468 101.47C567.418 103.29 567.368 104.73 567.318 105.79C567.268 106.85 567.198 107.53 567.098 107.82C566.898 107.87 566.248 107.94 565.138 108.04C564.028 108.14 562.818 108.22 561.518 108.3C560.208 108.37 558.968 108.44 557.788 108.48C556.608 108.53 555.818 108.55 555.428 108.55L554.318 108.7L555.648 109.44C556.038 109.69 556.538 109.93 557.128 110.18C557.718 110.43 558.258 110.67 558.758 110.92C559.198 111.07 559.678 111.25 560.198 111.47C560.718 111.69 561.118 111.85 561.418 111.95L562.528 112.39L564.008 111.13C564.448 110.74 565.008 110.2 565.668 109.5C566.328 108.81 567.058 108.12 567.848 107.43C568.538 106.79 569.118 106.25 569.588 105.8C570.058 105.36 570.338 105.14 570.438 105.14C570.638 105.24 570.958 105.48 571.398 105.88C571.838 106.28 572.298 106.71 572.768 107.17C573.238 107.64 573.658 108.09 574.028 108.54C574.398 108.99 574.628 109.33 574.728 109.57C574.728 109.72 574.618 109.95 574.398 110.27C574.178 110.59 573.878 110.95 573.508 111.34C573.138 111.74 572.758 112.13 572.358 112.52C571.958 112.91 571.568 113.26 571.178 113.55C570.838 113.95 570.558 114.23 570.368 114.4C570.168 114.57 570.118 114.71 570.218 114.81C570.268 114.81 570.538 114.88 571.028 115.03C571.518 115.18 572.088 115.35 572.728 115.55C574.358 116.04 575.428 116.38 575.938 116.55C576.458 116.72 576.688 116.91 576.638 117.1C576.638 117.15 576.518 117.59 576.268 118.43C576.218 118.73 576.128 119.12 576.008 119.61C575.888 120.1 575.748 120.57 575.598 121.01L575.298 122.56L574.408 122.41C571.598 121.92 569.048 121.46 566.758 121.04C564.468 120.62 562.878 120.24 561.988 119.89C561.688 119.79 561.288 119.63 560.768 119.41C560.248 119.19 559.718 119 559.178 118.86C558.688 118.66 558.118 118.42 557.478 118.12C556.838 117.82 556.298 117.55 555.848 117.31C555.358 117.11 554.788 116.84 554.148 116.5C553.508 116.16 552.938 115.88 552.448 115.69C551.858 115.44 551.258 115.19 550.638 114.91C550.018 114.64 549.428 114.33 548.868 113.99C548.298 113.65 547.788 113.3 547.318 112.96C546.848 112.62 546.488 112.3 546.248 112C545.808 111.61 545.588 111.21 545.588 110.82C545.588 110.43 545.888 109.96 546.478 109.42L547.218 108.46L545.368 108.53C544.828 108.63 544.108 108.7 543.228 108.75C542.338 108.8 541.508 108.87 540.718 108.97L538.058 109.19V110.52C538.058 110.92 538.068 111.43 538.098 112.07C538.118 112.71 538.188 113.28 538.278 113.77L538.498 115.76L539.158 115.91C539.408 115.91 539.838 115.86 540.448 115.76C541.068 115.66 541.868 115.56 542.848 115.46C544.818 115.21 546.348 114.99 547.428 114.8C547.728 114.7 547.908 114.69 547.978 114.76C548.048 114.83 548.138 115.07 548.238 115.46C548.238 115.66 548.288 115.97 548.388 116.38C548.488 116.8 548.588 117.23 548.688 117.67C548.988 118.9 549.128 119.66 549.128 119.96C549.128 120.26 548.978 120.4 548.688 120.4C548.198 120.65 547.678 120.79 547.138 120.84C546.108 121.14 545.168 121.39 544.328 121.62C543.488 121.84 542.718 122.04 541.998 122.21C541.288 122.38 540.608 122.52 539.968 122.62C539.328 122.72 538.638 122.79 537.898 122.84C536.958 122.99 536.028 123.12 535.088 123.25C534.148 123.37 533.508 123.46 533.168 123.51C532.138 123.61 531.138 123.66 530.178 123.66C529.218 123.66 528.668 123.59 528.518 123.44C528.518 123.34 528.478 123.03 528.408 122.52C528.338 122.01 528.248 121.37 528.148 120.64C527.998 119.75 527.888 118.24 527.818 116.1C527.748 113.96 527.708 110.77 527.708 106.53C527.708 104.95 527.698 103.48 527.668 102.1C527.638 100.72 527.608 99.53 527.558 98.52C527.508 97.51 527.458 96.39 527.408 95.16L526.818 95.31C526.568 95.36 526.308 95.43 526.038 95.53C525.768 95.63 525.508 95.73 525.258 95.83C523.188 96.42 521.578 96.86 520.418 97.16C519.258 97.46 518.658 97.53 518.608 97.38C518.458 97.23 518.288 96.69 518.088 95.75C517.888 94.82 517.768 93.73 517.718 92.5C517.618 91.66 517.598 91.12 517.648 90.87C517.698 90.62 517.798 90.5 517.948 90.5L517.968 90.53ZM526.168 69.03C526.268 69.13 526.498 69.36 526.868 69.73C527.238 70.1 527.618 70.48 528.018 70.88C528.408 71.28 528.948 71.79 529.648 72.43C529.848 72.38 530.148 72.21 530.568 71.91C530.988 71.61 531.418 71.28 531.858 70.91C532.298 70.54 532.718 70.17 533.118 69.8C533.508 69.43 533.758 69.17 533.858 69.02C533.858 68.92 533.638 68.87 533.198 68.87C532.758 68.87 532.238 68.85 531.648 68.8H529.508C528.768 68.8 528.178 68.75 527.738 68.65C526.998 68.6 526.498 68.59 526.228 68.61C525.958 68.64 525.948 68.77 526.188 69.02L526.168 69.03ZM537.618 96.37C537.618 96.52 537.628 96.69 537.658 96.89C537.678 97.09 537.748 97.21 537.838 97.26C538.328 97.41 539.438 97.47 541.158 97.44C542.878 97.42 545.248 97.38 548.248 97.33C551.248 97.28 553.638 97.23 555.418 97.18C557.188 97.13 558.348 97.06 558.888 96.96C558.938 96.86 558.988 96.74 559.038 96.59C559.088 96.44 559.108 96.27 559.108 96.07V95.41H552.868C551.758 95.41 550.838 95.36 550.098 95.26H546.698C546.398 95.36 545.778 95.42 544.818 95.44C543.858 95.47 542.808 95.48 541.678 95.48L537.688 95.7L537.618 96.36V96.37ZM538.068 103.46C538.118 103.71 538.208 103.84 538.328 103.87C538.448 103.9 538.738 103.88 539.178 103.83C539.518 103.83 540.678 103.81 542.648 103.76C544.618 103.71 546.888 103.69 549.448 103.69H558.908V102.29L558.978 100.96H556.988C556.988 100.96 556.788 101.03 556.548 101.03C556.498 101.13 556.118 101.19 555.398 101.21C554.688 101.24 553.808 101.25 552.778 101.25C547.848 101.4 544.178 101.53 541.768 101.66C539.358 101.78 538.078 101.87 537.928 101.92C537.878 102.02 537.858 102.22 537.858 102.51C537.858 102.8 537.928 103.13 538.078 103.47L538.068 103.46ZM545.598 83.21C546.188 83.21 547.048 83.12 548.188 82.95C549.318 82.78 550.178 82.59 550.778 82.4C550.878 82.35 550.818 82.23 550.598 82.03C550.378 81.83 550.068 81.64 549.678 81.44C549.338 81.19 549.028 81 548.758 80.85C548.488 80.7 548.328 80.63 548.278 80.63C548.128 80.63 547.978 80.75 547.838 81C547.738 81.15 547.568 81.33 547.318 81.55C547.068 81.77 546.798 81.98 546.508 82.18L545.768 82.92C545.568 83.12 545.518 83.22 545.618 83.22L545.598 83.21Z" fill="#FF5F17"/>
<path d="M596.728 114.32C596.728 113.58 596.738 112.66 596.768 111.55C596.788 110.44 596.818 109.26 596.838 108C596.858 106.74 596.888 105.43 596.908 104.05C596.928 102.67 596.948 101.32 596.948 99.9899C596.848 94.0799 596.838 89.1299 596.908 85.1399C596.978 81.1499 597.068 78.5399 597.168 77.3099C597.268 76.5199 597.348 75.3999 597.428 73.9499C597.498 72.4999 597.588 70.6599 597.688 68.4499C597.788 66.2299 597.858 64.2399 597.908 62.4699C597.958 60.6999 598.008 59.0999 598.058 57.6699V55.8199L610.248 55.6699C611.968 55.6699 613.598 55.6599 615.128 55.6299C616.658 55.6099 618.048 55.5699 619.298 55.5199C620.558 55.4699 621.598 55.4299 622.438 55.4099C623.278 55.3899 623.838 55.3699 624.138 55.3699C625.468 55.3199 628.468 55.2499 633.148 55.1499H639.318C641.068 55.1499 642.508 55.1799 643.638 55.2199L645.628 55.3699L645.698 56.4799C645.798 56.0899 645.848 57.8799 645.848 61.8699C645.848 63.7399 645.838 67.2399 645.808 72.3599C645.778 77.4799 645.748 84.3799 645.698 93.0499V110.63C645.648 115.36 645.578 117.85 645.478 118.09C645.478 118.24 645.078 118.31 644.298 118.31C643.898 118.31 643.338 118.35 642.598 118.42C641.858 118.49 641.098 118.58 640.308 118.68C639.418 118.73 638.678 118.79 638.088 118.86C637.498 118.93 637.148 118.97 637.058 118.97C636.758 118.97 636.518 118.58 636.318 117.79L635.948 116.53L621.248 116.68H606.468L606.168 117.79C606.118 118.23 606.008 118.59 605.838 118.86C605.668 119.13 605.358 119.34 604.918 119.49C604.478 119.64 603.888 119.75 603.148 119.82C602.408 119.89 601.448 119.96 600.268 120H597.348C596.828 120 596.568 119.93 596.568 119.78C596.518 119.68 596.508 119.12 596.528 118.08C596.548 117.05 596.618 115.79 596.708 114.31L596.728 114.32ZM608.478 90.8199V107L621.258 106.85C629.678 106.85 633.968 106.78 634.118 106.63C634.168 106.24 634.178 105.39 634.158 104.08C634.128 102.78 634.098 100.99 634.048 98.7199C633.998 96.4599 633.948 94.6699 633.898 93.3599C633.848 92.0599 633.798 91.2099 633.748 90.8099C633.548 90.7599 633.048 90.7099 632.238 90.6599C631.428 90.6099 630.308 90.5599 628.878 90.5099C627.448 90.4599 626.208 90.4499 625.148 90.4699C624.088 90.4999 623.168 90.5299 622.378 90.5799C621.638 90.6299 620.508 90.6799 618.978 90.7299C617.448 90.7799 615.878 90.7999 614.248 90.7999H608.488L608.478 90.8199ZM608.848 72.4999V80.2599L610.698 80.4799C610.998 80.4799 611.518 80.4899 612.288 80.5199C613.048 80.5499 613.988 80.5599 615.098 80.5599C616.208 80.5599 617.458 80.5699 618.868 80.5999C620.268 80.6299 621.738 80.6399 623.268 80.6399H633.758L633.978 78.4999C633.978 77.8599 633.998 76.7399 634.048 75.1399C634.098 73.5399 634.118 71.8299 634.118 70.0099V63.6599L633.228 63.8099H631.748C631.548 63.8099 630.368 63.8599 628.198 63.9599C626.028 64.0599 623.368 64.1099 620.218 64.1099C617.068 64.1099 614.268 64.1499 612.278 64.2199C610.288 64.2899 609.238 64.3799 609.138 64.4799C609.088 64.5299 609.038 65.2799 608.988 66.7299C608.938 68.1799 608.888 70.1199 608.838 72.5299L608.848 72.4999Z" fill="#FF5F17"/>
<path d="M198.378 191.47C198.378 191.37 198.528 191.2 198.818 190.95C199.118 190.7 199.438 190.43 199.778 190.14C200.218 189.84 200.668 189.5 201.108 189.11C201.548 188.72 201.898 188.32 202.138 187.93C202.878 186.8 203.688 185.57 204.578 184.24C205.468 182.91 206.208 181.73 206.798 180.69C207.238 179.9 207.538 179.4 207.688 179.18C207.838 178.96 207.988 178.92 208.128 179.07C208.668 179.27 209.238 179.48 209.828 179.7C210.418 179.92 211.228 180.16 212.268 180.4C212.568 180.5 212.848 180.57 213.118 180.62C213.388 180.67 213.648 180.74 213.898 180.84L214.558 181.06C214.558 181.16 214.408 181.48 214.118 182.02C213.718 182.71 213.648 183.05 213.898 183.05C213.998 183.1 214.268 183.12 214.708 183.12H216.338L218.558 182.9V181.57C218.558 181.03 218.578 180.61 218.628 180.31C218.678 180.01 218.828 179.79 219.068 179.65C219.318 179.5 219.688 179.39 220.178 179.32C220.668 179.25 221.358 179.18 222.248 179.14C223.038 179.14 223.798 179.13 224.538 179.1C225.278 179.08 225.768 179.09 226.018 179.14C226.358 179.14 226.568 179.2 226.648 179.32C226.718 179.44 226.758 179.68 226.758 180.02V180.87C226.758 181.19 226.808 181.5 226.908 181.79L226.978 182.82L229.418 182.89H231.858V185.55C231.858 186.39 231.848 187.06 231.818 187.58C231.788 188.1 231.728 188.38 231.638 188.43C231.588 188.53 231.338 188.58 230.898 188.58H227.128V189.91C227.128 190.65 227.238 191.09 227.458 191.24C227.678 191.39 228.408 191.46 229.638 191.46L231.558 191.68V193.97L231.408 196.33H229.558L227.568 196.4V198.54C227.568 199.92 227.638 200.61 227.788 200.61C227.838 200.71 228.108 200.77 228.598 200.79C229.088 200.82 229.658 200.83 230.298 200.83L232.658 201.05V205.41L227.558 205.63V206.59C227.558 206.89 227.528 207.23 227.488 207.62C227.438 208.02 227.418 208.36 227.418 208.65L227.348 209.54L230.008 209.61H232.668V213.08L232.738 216.48H230.668C229.238 216.53 227.698 216.58 226.048 216.63C224.398 216.68 222.588 216.73 220.618 216.78C218.648 216.83 217.018 216.88 215.738 216.93C214.458 216.98 213.518 217.05 212.928 217.15C212.338 217.25 211.558 217.31 210.598 217.33C209.638 217.35 208.668 217.42 207.678 217.51L204.578 217.58V206.57L204.428 195.64L203.098 196.38C202.408 196.92 201.888 197.19 201.548 197.19C201.498 197.19 201.368 197.04 201.138 196.75C200.908 196.46 200.678 196.11 200.438 195.72C199.998 194.83 199.548 193.94 199.108 193.02C198.668 192.11 198.418 191.58 198.368 191.43L198.378 191.47ZM199.558 152.76L203.548 152.91H206.578C207.468 152.91 208.028 152.86 208.278 152.76L209.018 152.69V148.55L210.568 148.48C211.008 148.48 211.568 148.46 212.228 148.41C212.888 148.36 213.518 148.34 214.108 148.34H216.098L216.248 152.33V157.91C216.248 158.67 216.238 159.3 216.208 159.79C216.178 160.28 216.148 160.58 216.098 160.68C215.998 160.68 215.758 160.71 215.358 160.75C214.958 160.8 214.508 160.85 213.988 160.9C213.468 160.95 212.938 161 212.398 161.05C211.858 161.1 211.388 161.12 210.998 161.12L209.228 160.97L209.158 160.45V159.79H207.388C206.848 159.79 206.148 159.8 205.278 159.83C204.418 159.86 203.538 159.92 202.658 160.01L199.778 160.08V157.42C199.778 156.68 199.768 155.97 199.738 155.28C199.708 154.59 199.698 154.1 199.698 153.8L199.548 152.77L199.558 152.76ZM201.778 163.32L207.468 163.17H212.088C213.588 163.17 214.688 163.15 215.378 163.1H217.598V169.97C217.498 172.33 217.438 174.08 217.418 175.22C217.388 176.35 217.328 176.99 217.238 177.14C217.188 177.44 216.548 177.66 215.318 177.8C214.088 177.95 211.918 178.1 208.818 178.24C207.338 178.34 206.058 178.4 204.978 178.42C203.898 178.45 203.258 178.46 203.058 178.46H202.248L202.178 177.5C201.978 175.28 201.858 173.04 201.808 170.78C201.758 168.52 201.738 166.25 201.738 163.98L201.808 163.32H201.778ZM208.358 170.49V172.63H211.168L211.238 170.93V169.56C211.238 169.14 211.208 168.83 211.168 168.64C211.168 168.49 211.098 168.38 210.948 168.31C210.798 168.24 210.458 168.15 209.918 168.05C209.578 168.05 209.268 168.08 208.998 168.12C208.728 168.17 208.568 168.19 208.518 168.19C208.518 168.24 208.488 168.49 208.448 168.93C208.398 169.37 208.378 169.89 208.378 170.48L208.358 170.49ZM211.898 191.55H218.768L218.698 190.44V189.33H214.638C213.998 189.33 213.508 189.38 213.158 189.48H212.128L212.058 190.59L211.908 191.55H211.898ZM212.488 201.45H218.548V199.46L218.478 197.47H217.368C217.068 197.47 216.628 197.48 216.038 197.51C215.448 197.54 214.878 197.55 214.338 197.55L212.348 197.7V199.47L212.498 201.46L212.488 201.45ZM212.708 209.57C213.008 209.72 213.968 209.79 215.588 209.79C217.208 209.79 218.128 209.72 218.318 209.57C218.318 209.47 218.338 209.26 218.388 208.94C218.438 208.62 218.458 208.26 218.458 207.87V206.39H215.648C214.858 206.39 214.198 206.38 213.658 206.35C213.118 206.33 212.798 206.39 212.698 206.53C212.648 206.63 212.608 206.81 212.588 207.08C212.558 207.35 212.548 207.65 212.548 207.97C212.548 208.29 212.558 208.6 212.588 208.89C212.608 209.19 212.648 209.41 212.698 209.55L212.708 209.57ZM220.988 177.14V169.75C220.988 166.84 221.008 164.86 221.058 163.8C221.108 162.74 221.158 162.24 221.208 162.29H222.978C223.668 162.24 224.618 162.18 225.818 162.11C227.028 162.04 228.658 161.95 230.728 161.85C231.718 161.85 232.548 161.84 233.238 161.81C233.928 161.79 234.318 161.77 234.418 161.77C234.668 161.77 234.888 161.87 235.078 162.07C235.178 162.12 235.288 162.39 235.408 162.88C235.528 163.37 235.498 164.51 235.298 166.28C235.148 168.79 235.018 170.97 234.888 172.82C234.768 174.67 234.678 175.74 234.628 176.03C234.528 176.33 233.818 176.55 232.488 176.69C231.158 176.83 229.068 176.91 226.208 176.91L220.958 177.13L220.988 177.14ZM223.208 154.01V148.47L224.098 148.32C224.398 148.27 224.718 148.25 225.058 148.25H228.978L231.198 148.32L231.128 149.8V151.2H233.638L236.298 151.35V153.86C236.298 154.99 236.288 155.74 236.258 156.11C236.228 156.48 236.148 156.66 235.998 156.66C235.848 156.71 235.518 156.77 234.998 156.84C234.478 156.91 233.848 156.95 233.118 156.95L230.678 157.1L230.528 158.28C230.528 158.58 230.518 158.86 230.488 159.13C230.458 159.4 230.398 159.54 230.308 159.54C230.258 159.54 229.938 159.57 229.348 159.61C228.758 159.66 228.018 159.73 227.128 159.83C225.698 159.93 224.768 159.98 224.318 159.98C223.868 159.98 223.628 159.91 223.578 159.76C223.428 159.66 223.328 159.24 223.278 158.5C223.228 157.76 223.208 156.26 223.208 153.99V154.01ZM226.678 169.38C226.678 169.92 226.688 170.38 226.718 170.75C226.738 171.12 226.758 171.33 226.758 171.38C226.858 171.38 227.018 171.41 227.238 171.45C227.458 171.5 227.738 171.52 228.088 171.52H229.198L229.348 169.38V167.31H228.688C228.438 167.31 228.198 167.32 227.948 167.35C227.698 167.38 227.458 167.39 227.208 167.39L226.548 167.54L226.698 169.39L226.678 169.38ZM235.988 174.85C236.678 172.88 237.278 170.95 237.798 169.05C238.318 167.15 238.748 165.17 239.088 163.1L239.638 160.51C239.858 159.48 240.068 158.52 240.268 157.63C240.368 157.33 240.518 156.74 240.708 155.86C240.908 154.97 241.118 154.04 241.338 153.05C241.558 152.06 241.758 151.13 241.928 150.24C242.098 149.35 242.188 148.79 242.188 148.54C242.528 148.34 243.888 148.39 246.248 148.69C247.378 148.84 248.308 148.97 249.018 149.1C249.728 149.22 250.208 149.41 250.458 149.65C250.608 149.8 250.658 150.19 250.608 150.83C250.558 151.47 250.338 152.48 249.948 153.86C249.748 154.6 249.608 155.18 249.508 155.6C249.408 156.02 249.458 156.31 249.658 156.49C249.858 156.66 250.228 156.76 250.768 156.79C251.308 156.82 252.098 156.8 253.128 156.75H261.438C263.528 156.75 264.918 156.78 265.608 156.82C266.988 156.87 267.678 156.99 267.678 157.19L268.338 157.63V160.44C268.338 162.36 268.088 164.52 267.598 166.9C267.108 169.29 266.488 171.67 265.748 174.03L265.088 176.17H263.978C263.678 176.07 263.228 175.97 262.608 175.87C261.988 175.77 261.338 175.6 260.648 175.35C259.708 175.15 259.098 174.98 258.798 174.83C258.498 174.68 258.358 174.53 258.358 174.39C258.358 174.25 258.448 173.73 258.618 172.84C258.788 171.95 258.948 170.92 259.098 169.74C259.248 168.56 259.378 167.52 259.508 166.64C259.628 165.75 259.718 165.24 259.768 165.09V164.5H247.058L246.838 165.53C246.738 165.83 246.618 166.24 246.468 166.79C246.318 167.33 246.168 167.9 246.028 168.49C245.928 168.98 245.778 169.6 245.588 170.34C245.388 171.08 245.158 171.85 244.888 172.67C244.618 173.48 244.338 174.3 244.038 175.11C243.738 175.92 243.448 176.67 243.148 177.36C242.948 178.05 242.718 178.44 242.448 178.54C242.178 178.64 241.798 178.59 241.298 178.39C240.998 178.24 240.608 178.06 240.118 177.84C239.628 177.62 239.118 177.4 238.608 177.18C238.098 176.96 237.618 176.77 237.208 176.63C236.788 176.48 236.478 176.41 236.288 176.41C235.948 176.21 235.768 176.07 235.768 175.97C235.818 175.87 235.838 175.72 235.838 175.53C235.838 175.34 235.888 175.11 235.988 174.87V174.85ZM238.058 207.8C239.778 203.86 241.128 200.61 242.088 198.05C243.048 195.49 243.698 193.25 244.048 191.33C244.298 190.54 244.498 189.68 244.678 188.74C244.848 187.81 245.008 187.04 245.158 186.45C245.408 185.52 245.678 184.17 245.968 182.42C246.268 180.67 246.628 178.25 247.078 175.14C247.228 174.35 247.338 173.45 247.408 172.44C247.478 171.43 247.548 170.56 247.588 169.82L247.738 167.31L250.178 167.16H252.208C252.918 167.16 253.448 167.14 253.798 167.09C254.338 167.09 254.698 167.1 254.868 167.13C255.038 167.16 255.128 167.24 255.128 167.39C255.228 167.64 255.308 168.09 255.388 168.76C255.468 169.43 255.498 170.2 255.498 171.09C255.498 171.98 255.468 172.93 255.428 173.93C255.378 174.94 255.278 175.91 255.128 176.85C254.928 179.31 254.848 181.16 254.868 182.39C254.888 183.62 255.048 184.8 255.348 185.94C255.888 188.01 256.558 190.16 257.338 192.4C258.128 194.64 259.028 196.85 260.038 199.01C261.048 201.18 262.178 203.26 263.438 205.25C264.698 207.24 266.058 209.06 267.538 210.68L269.238 212.31L268.578 213.2C268.478 213.45 268.178 213.84 267.688 214.38C267.198 214.92 266.658 215.48 266.058 216.04C265.458 216.6 264.888 217.1 264.318 217.52C263.748 217.94 263.348 218.15 263.098 218.15C262.758 218.15 262.218 217.81 261.508 217.12C260.798 216.43 260.058 215.64 259.288 214.76C258.528 213.87 257.808 213.01 257.148 212.17C256.488 211.33 256.028 210.77 255.778 210.47C255.038 209.29 254.328 207.97 253.638 206.52C252.948 205.07 252.378 203.55 251.938 201.98L250.908 199.1L250.608 200.21C250.118 201.93 249.538 203.62 248.868 205.27C248.208 206.92 247.398 208.53 246.468 210.11C246.068 210.75 245.668 211.42 245.248 212.1C244.828 212.79 244.448 213.42 244.098 213.98C243.758 214.55 243.458 215.01 243.208 215.38C242.958 215.75 242.788 215.96 242.688 216.01C242.538 215.96 242.288 215.83 241.948 215.6C241.608 215.38 241.208 215.12 240.768 214.82C240.328 214.52 239.888 214.22 239.478 213.9C239.058 213.58 238.698 213.27 238.408 212.98C238.008 212.68 237.668 212.41 237.378 212.17C237.078 211.92 236.908 211.75 236.858 211.65C236.708 211.65 236.608 211.63 236.558 211.58C236.508 211.53 236.518 211.37 236.598 211.1C236.668 210.83 236.828 210.44 237.078 209.92C237.328 209.4 237.648 208.7 238.038 207.81L238.058 207.8Z" fill="#FF5F17"/>
<path d="M276.769 215.56C276.769 215.41 276.819 215.01 276.919 214.34C277.019 213.68 277.189 212.85 277.439 211.86C277.639 210.93 277.849 209.88 278.069 208.72C278.289 207.56 278.479 206.61 278.619 205.88C278.759 205.15 278.949 204.18 279.169 203C279.389 201.82 279.619 200.71 279.869 199.68C280.259 197.76 280.599 196.07 280.869 194.62C281.139 193.17 281.399 191.46 281.649 189.49C281.699 188.75 281.759 188.06 281.829 187.42C281.899 186.78 281.939 186.39 281.939 186.24C282.039 186.04 282.099 185.13 282.119 183.51C282.139 181.88 282.159 179.89 282.159 177.53C282.209 176.35 282.249 175.15 282.269 173.95C282.289 172.74 282.319 171.59 282.339 170.48C282.359 169.37 282.389 168.36 282.409 167.45C282.429 166.54 282.469 165.79 282.519 165.2C282.569 164.02 282.619 162.65 282.669 161.1C282.719 159.55 282.739 158.16 282.739 156.93C282.739 154.86 282.749 153.58 282.779 153.09C282.799 152.6 282.939 152.4 283.189 152.5C283.729 152.45 285.039 152.41 287.109 152.39C289.179 152.37 292.059 152.38 295.749 152.43C299.439 152.48 302.399 152.5 304.619 152.5C306.839 152.5 308.409 152.53 309.349 152.57C309.889 152.67 310.199 152.61 310.269 152.39C310.339 152.17 310.309 151.57 310.159 150.58C310.009 149.55 309.939 148.91 309.939 148.66C309.939 148.41 310.039 148.29 310.239 148.29C310.339 148.29 310.729 148.27 311.419 148.22C312.109 148.17 312.949 148.15 313.929 148.15H316.039C316.559 148.15 316.949 148.21 317.219 148.33C317.489 148.45 317.669 148.64 317.769 148.88C317.869 149.13 317.939 149.47 317.989 149.91C318.189 150.45 318.349 150.77 318.469 150.87C318.589 150.97 318.919 151.02 319.469 151.02C320.059 151.12 321.579 151.2 324.009 151.28C326.439 151.36 329.609 151.42 333.499 151.46C335.859 151.46 337.849 151.49 339.449 151.53C341.049 151.58 341.879 151.6 341.929 151.6C341.979 151.85 342.019 152.23 342.039 152.75C342.059 153.27 342.079 153.92 342.079 154.71C342.079 155.6 342.069 156.3 342.039 156.82C342.009 157.34 341.979 157.7 341.929 157.89C342.029 157.99 341.629 158.04 340.749 158.04C339.859 158.09 337.449 158.16 333.509 158.26C331.539 158.26 329.999 158.27 328.889 158.3C327.779 158.33 327.049 158.39 326.709 158.48C325.969 158.68 325.719 159.29 325.969 160.33V161.44L327.519 161.59C328.059 161.64 329.029 161.66 330.439 161.66C331.849 161.66 333.379 161.64 335.059 161.59L341.039 161.44L341.259 162.99C341.309 163.73 341.329 164.53 341.329 165.39C341.329 166.25 341.319 167.11 341.289 167.98C341.259 168.84 341.229 169.64 341.179 170.38C341.129 171.12 341.079 171.76 341.029 172.3C341.029 172.35 341.019 172.57 340.989 172.96C340.959 173.36 340.929 173.77 340.879 174.22C340.829 174.66 340.779 175.06 340.729 175.4C340.679 175.74 340.629 175.94 340.579 175.99C340.779 176.14 339.569 176.24 336.959 176.29C330.999 176.44 325.159 176.57 319.449 176.7C313.739 176.82 307.899 176.93 301.939 177.03C299.869 177.08 298.219 177.13 296.989 177.18C295.759 177.23 294.899 177.28 294.399 177.33L291.369 177.55L291.299 178.44V179.33L308.149 179.18C311.549 179.18 314.869 179.16 318.119 179.11C321.369 179.06 324.699 178.99 328.089 178.89C330.309 178.84 333.289 178.77 337.029 178.67H341.349C342.359 178.67 342.989 178.7 343.229 178.74C343.329 178.89 343.399 179.17 343.449 179.59C343.499 180.01 343.539 180.51 343.559 181.1C343.579 181.69 343.579 182.33 343.559 183.02C343.529 183.71 343.499 184.35 343.449 184.94C343.399 186.42 343.229 187.34 342.929 187.71C342.629 188.08 341.919 188.26 340.789 188.26C338.819 188.46 337.609 188.24 337.169 187.6C337.019 187.45 336.909 187.26 336.839 187.01C336.769 186.76 336.729 186.35 336.729 185.75V184.27L327.719 184.42C325.059 184.42 322.659 184.46 320.519 184.53C318.379 184.6 316.859 184.64 315.979 184.64C315.189 184.69 314.279 184.74 313.249 184.79C312.219 184.84 311.279 184.86 310.439 184.86C309.549 184.86 308.409 184.9 306.999 184.97C305.589 185.04 304.199 185.15 302.829 185.3C301.499 185.35 300.069 185.41 298.539 185.48C297.009 185.55 295.729 185.59 294.699 185.59H291.299L291.149 186.25C291.149 186.5 291.109 186.91 291.039 187.51C290.969 188.11 290.899 188.72 290.859 189.36C290.859 190.05 290.799 190.81 290.679 191.65C290.559 192.49 290.419 193.18 290.269 193.72C290.119 194.31 289.999 194.98 289.899 195.71C289.799 196.45 289.699 197.11 289.599 197.7C289.449 198.93 289.049 200.79 288.379 203.28C287.719 205.77 286.909 208.56 285.979 211.67C285.289 214.18 284.769 215.91 284.429 216.84C284.089 217.77 283.809 218.27 283.619 218.32C283.369 218.47 282.909 218.43 282.219 218.21C281.529 217.99 280.669 217.63 279.629 217.14C279.089 216.89 278.599 216.66 278.149 216.44C277.699 216.22 277.409 216.08 277.259 216.03C276.919 215.83 276.739 215.69 276.739 215.59L276.769 215.56ZM291.549 202.41C292.239 202.11 292.939 201.83 293.659 201.56C294.369 201.29 295.079 201.03 295.769 200.78C296.699 200.24 297.759 199.59 298.949 198.82C300.129 198.06 301.019 197.33 301.609 196.64C302.149 196.05 302.519 195.75 302.719 195.75C302.819 195.75 303.049 195.84 303.419 196.01C303.789 196.18 304.179 196.38 304.599 196.6C305.019 196.82 305.389 197.06 305.709 197.3C306.029 197.55 306.189 197.74 306.189 197.89C305.989 198.04 306.359 198.11 307.299 198.11C308.289 198.16 310.719 198.16 314.609 198.11C317.419 198.01 319.719 197.93 321.519 197.85C323.319 197.78 324.629 197.71 325.469 197.67C326.109 197.57 326.859 197.47 327.719 197.37C328.579 197.27 329.329 197.17 329.969 197.07C330.659 197.02 331.259 196.96 331.779 196.89C332.299 196.82 332.629 196.73 332.779 196.63C333.219 196.58 333.539 196.66 333.739 196.85C333.889 197 334.049 197.26 334.219 197.63C334.389 198 334.549 198.41 334.699 198.85L335.139 200.18C335.289 200.62 335.389 200.97 335.439 201.21C335.339 201.41 334.969 201.83 334.329 202.47C333.689 203.11 332.959 203.78 332.149 204.46C331.339 205.15 330.549 205.8 329.789 206.42C329.029 207.04 328.499 207.42 328.199 207.57C327.949 207.72 327.689 207.88 327.419 208.05C327.149 208.22 326.889 208.43 326.639 208.68C326.789 208.73 327.159 208.8 327.749 208.9C328.339 209 329.069 209.11 329.929 209.23C330.789 209.35 331.729 209.46 332.739 209.56C333.749 209.66 334.749 209.76 335.729 209.86C337.599 210.01 338.959 210.13 339.789 210.23C340.629 210.33 341.089 210.5 341.189 210.75C341.239 210.85 341.259 211.24 341.259 211.93V214.66L341.039 218.43H339.489C335.749 218.23 331.999 217.81 328.259 217.17C324.519 216.53 320.799 215.72 317.099 214.73C316.609 214.53 316.259 214.45 316.069 214.47C315.869 214.5 315.599 214.58 315.259 214.73C315.009 214.83 314.579 215.01 313.969 215.28C313.349 215.55 312.679 215.81 311.939 216.06C311.199 216.31 310.459 216.55 309.719 216.8L307.949 217.39C307.549 217.54 307.059 217.71 306.469 217.91C305.879 218.11 305.359 218.28 304.919 218.43C304.229 218.58 303.469 218.74 302.629 218.91C301.789 219.08 300.829 219.27 299.749 219.46C298.759 219.66 297.899 219.79 297.159 219.87C296.419 219.95 295.829 219.98 295.389 219.98C295.049 219.98 294.769 219.87 294.579 219.65C294.379 219.43 294.039 218.95 293.549 218.21C293.299 217.81 293.069 217.25 292.849 216.51C292.629 215.77 292.419 215.16 292.219 214.66C292.069 214.27 292.119 214.02 292.369 213.92C292.619 213.82 293.449 213.65 294.879 213.4C296.649 213.15 298.569 212.76 300.639 212.22C302.709 211.68 304.629 211.19 306.399 210.74C306.789 210.64 306.919 210.59 306.769 210.59C306.769 210.54 306.789 210.49 306.839 210.44C306.839 210.39 306.499 210.1 305.809 209.55C305.509 209.3 305.169 209 304.779 208.63C304.379 208.26 303.979 207.88 303.559 207.48C303.139 207.09 302.769 206.7 302.449 206.33C302.129 205.96 301.899 205.68 301.749 205.48C301.749 205.33 301.499 205.32 301.009 205.44C300.519 205.56 299.429 205.99 297.759 206.73C295.889 207.57 294.639 208.07 294.029 208.24C293.409 208.41 293.059 208.4 292.959 208.2C292.909 208.05 292.779 207.71 292.549 207.17C292.329 206.63 292.109 206.04 291.889 205.4C291.669 204.76 291.459 204.17 291.259 203.63C291.059 203.09 290.959 202.74 290.959 202.6C291.059 202.55 291.159 202.53 291.259 202.53C291.359 202.53 291.459 202.48 291.559 202.38L291.549 202.41ZM291.399 170.19V171.74L292.949 171.81C293.489 171.91 294.139 171.97 294.909 171.99C295.669 172.02 296.419 172.08 297.159 172.17L299.819 172.24L299.749 171.28V167.51H295.099C294.999 167.56 294.799 167.58 294.509 167.58C294.219 167.58 293.819 167.63 293.329 167.73C292.339 167.63 291.769 167.72 291.589 167.99C291.419 168.26 291.359 168.99 291.409 170.17L291.399 170.19ZM291.549 160.66C291.549 161 291.559 161.32 291.589 161.62C291.609 161.92 291.679 162.06 291.769 162.06C291.819 162.16 292.099 162.22 292.619 162.24C293.139 162.27 293.769 162.33 294.499 162.42C295.189 162.42 295.899 162.43 296.639 162.46C297.379 162.49 297.969 162.5 298.409 162.5L299.809 162.65V159.18H296.999C296.209 159.18 295.369 159.23 294.489 159.33L291.389 159.4L291.539 160.66H291.549ZM291.989 191.77C292.089 191.57 292.309 191.19 292.649 190.62C292.989 190.05 293.359 189.47 293.759 188.88C294.149 188.29 294.549 187.76 294.939 187.29C295.329 186.82 295.629 186.59 295.829 186.59C295.979 186.59 296.219 186.68 296.569 186.85C296.909 187.02 297.329 187.23 297.829 187.48C298.269 187.68 298.679 187.85 299.049 188C299.419 188.15 299.649 188.22 299.749 188.22C299.949 188.22 300.049 188.29 300.049 188.44C300.049 188.54 299.959 188.81 299.789 189.25C299.619 189.69 299.329 190.24 298.939 190.88C298.449 192.01 297.879 193.03 297.239 193.95C296.599 194.86 296.109 195.39 295.759 195.54C295.609 195.54 295.209 195.34 294.539 194.95C293.879 194.56 293.199 194.06 292.509 193.47L291.769 192.66L291.989 191.77ZM302.929 186.89C303.179 186.89 303.559 186.88 304.079 186.85C304.599 186.83 305.179 186.76 305.819 186.67L308.039 186.6L308.189 188.15C308.189 188.49 308.199 188.84 308.229 189.18C308.249 189.52 308.319 189.72 308.409 189.77C308.459 189.87 309.029 189.93 310.109 189.95C311.189 189.98 312.719 189.99 314.689 189.99H319.939C320.429 189.99 320.759 189.97 320.939 189.92C321.109 189.87 321.219 189.8 321.269 189.7C321.319 189.6 321.379 189.4 321.449 189.11C321.519 188.82 321.559 188.37 321.559 187.78V186.15L323.109 186C324.239 185.95 325.039 185.94 325.509 185.96C325.979 185.99 326.289 186.14 326.429 186.44C326.869 186.88 327.089 188.63 327.089 191.69C327.189 192.87 327.099 193.66 326.829 194.05C326.559 194.45 325.949 194.76 325.019 195.01C323.889 195.26 322.839 195.47 321.879 195.64C320.919 195.81 319.549 195.9 317.779 195.9C315.909 196 313.999 195.99 312.049 195.86C310.099 195.74 308.069 195.55 305.949 195.31C304.919 195.26 304.209 195.16 303.839 195.01C303.469 194.86 303.159 194.59 302.919 194.2C302.769 193.86 302.619 193.09 302.479 191.91C302.339 190.73 302.259 189.57 302.259 188.44V187.04L302.919 186.89H302.929ZM308.249 171.08C308.399 171.13 308.909 171.18 309.799 171.23C310.689 171.28 311.719 171.26 312.899 171.16H317.329V169.09L317.479 167.1H308.389L308.169 168.95C308.019 170.38 308.049 171.09 308.239 171.09L308.249 171.08ZM308.389 161.62C308.389 161.77 309.889 161.84 312.899 161.84H317.479V158.66H308.239V160.36C308.239 160.61 308.209 160.8 308.169 160.95C308.169 161.05 308.179 161.17 308.209 161.32C308.229 161.47 308.299 161.57 308.389 161.62ZM312.239 205.29C312.879 205.63 313.429 205.88 313.899 206.03C314.369 206.18 314.769 206.28 315.119 206.33C315.509 206.38 315.869 206.36 316.189 206.26C316.509 206.16 317.039 205.84 317.779 205.3C318.319 204.96 318.779 204.65 319.149 204.38C319.519 204.11 319.729 203.97 319.779 203.97C319.779 203.92 319.739 203.87 319.669 203.82C319.599 203.77 319.489 203.8 319.339 203.89C319.139 203.89 318.609 203.9 317.749 203.93C316.889 203.96 315.909 203.97 314.829 203.97C313.649 204.07 312.649 204.13 311.839 204.15C311.029 204.18 310.569 204.19 310.469 204.19C310.419 204.34 311.009 204.71 312.239 205.3V205.29ZM313.339 185.49C313.339 185.49 313.429 185.42 313.449 185.42C313.469 185.42 313.509 185.4 313.559 185.35C313.659 185.35 313.759 185.34 313.859 185.31C313.959 185.29 314.059 185.27 314.159 185.27C314.359 185.17 314.659 185.11 315.079 185.09C315.499 185.07 315.929 185.05 316.369 185.05C317.259 185.05 317.719 185.15 317.769 185.35C317.769 185.5 317.859 185.71 318.029 185.98C318.199 186.25 318.389 186.53 318.579 186.83C318.779 187.13 318.939 187.38 319.059 187.61C319.179 187.83 319.199 187.97 319.099 188.02C318.659 188.42 317.739 188.64 316.369 188.68L314.889 188.9L314.149 187.27C313.899 186.83 313.709 186.43 313.559 186.09C313.409 185.75 313.339 185.55 313.339 185.5V185.49ZM328.119 170.27C328.709 170.37 329.309 170.43 329.929 170.45C330.549 170.48 330.999 170.49 331.299 170.49H332.409V166.5H326.129L325.909 167.09C325.909 167.29 325.879 167.56 325.839 167.9C325.789 168.24 325.769 168.59 325.769 168.93V170.19L328.129 170.26L328.119 170.27ZM329.299 189.11C329.399 189.11 329.519 188.97 329.669 188.7C329.819 188.43 329.969 188.11 330.109 187.74C330.249 187.37 330.409 187.01 330.549 186.67C330.699 186.33 330.799 186.1 330.849 186.01C330.949 186.01 331.049 185.97 331.149 185.9C331.249 185.83 331.369 185.79 331.519 185.79C331.909 185.79 332.529 186.09 333.369 186.68C334.209 187.27 335.589 188.35 337.509 189.93L337.949 190.37L336.769 191.92C336.229 192.61 335.829 193.1 335.589 193.4C335.339 193.7 335.119 193.84 334.929 193.84C334.779 193.84 334.589 193.72 334.339 193.47C333.799 192.93 333.329 192.54 332.939 192.29C332.539 192.04 332.129 191.8 331.679 191.55C330.689 191.11 330.009 190.65 329.609 190.18C329.209 189.71 329.119 189.36 329.309 189.11H329.299Z" fill="#FF5F17"/>
<path d="M354.648 205.88C356.618 205.78 358.378 205.66 359.928 205.51C361.478 205.36 362.408 205.24 362.698 205.14C362.798 205.14 362.858 205.03 362.878 204.81C362.898 204.59 362.938 204.15 362.988 203.48C363.038 202.82 363.058 201.88 363.058 200.67V191.58C363.058 189.93 363.078 188.07 363.128 186V174.62L363.348 162.06L360.168 162.21C359.228 162.21 358.318 162.22 357.438 162.25C356.548 162.28 355.908 162.36 355.518 162.51C354.578 162.56 354.068 162.56 353.968 162.51C353.818 161.82 353.738 161.13 353.708 160.44C353.678 159.75 353.668 159.06 353.668 158.37C353.618 157.29 353.568 156.24 353.518 155.23C353.468 154.22 353.448 153.47 353.448 152.98V151.43L357.068 151.36C358.988 151.26 360.958 151.15 362.978 151.03C364.998 150.91 367.338 150.7 369.998 150.4C370.888 150.25 371.698 150.17 372.438 150.14C373.178 150.12 373.698 150.08 373.988 150.03H374.798C375.048 150.03 375.218 149.98 375.318 149.88C375.368 149.88 375.438 149.93 375.538 150.03C375.638 150.13 375.688 150.3 375.688 150.55C375.738 151.68 375.798 154.16 375.868 157.98C375.938 161.8 376.008 167.08 376.048 173.83C376.098 180.63 376.118 186.33 376.118 190.93C376.118 195.53 376.068 199.17 375.968 201.83L375.818 205.97L381.138 206.12H386.388L386.538 210.18C386.538 211.26 386.548 212.33 386.578 213.39C386.598 214.45 386.618 215.18 386.618 215.57V217.12L369.478 217.05C367.068 217 364.798 216.96 362.678 216.94C360.558 216.91 358.728 216.89 357.178 216.87C355.628 216.84 354.398 216.82 353.488 216.8C352.578 216.77 352.098 216.74 352.048 216.69C351.798 215.16 351.588 213.5 351.418 211.7C351.248 209.9 351.158 208.24 351.158 206.71V205.97L354.628 205.9L354.648 205.88Z" fill="#FF5F17"/>
<path d="M394.988 168.64C395.678 166.32 396.528 164.12 397.538 162.03C398.548 159.94 399.788 158.07 401.268 156.41C402.748 154.76 404.468 153.41 406.438 152.35C408.408 151.29 410.678 150.66 413.238 150.47C413.828 150.47 414.388 150.46 414.898 150.43C415.418 150.41 415.748 150.39 415.898 150.39C416.338 150.39 416.888 150.4 417.528 150.43C418.168 150.46 418.828 150.5 419.518 150.58C420.208 150.65 420.868 150.74 421.508 150.84C422.148 150.94 422.668 151.06 423.058 151.21C424.088 151.41 425.318 151.8 426.748 152.39C428.178 152.98 429.408 153.6 430.438 154.24C431.618 154.88 432.828 155.83 434.058 157.08C435.288 158.34 436.278 159.48 437.018 160.52C437.608 161.51 438.098 162.61 438.498 163.84C438.888 165.07 439.208 166.55 439.458 168.27C439.558 168.96 439.668 169.85 439.788 170.93C439.908 172.01 440.018 173.05 440.118 174.03C440.368 176 440.548 178.05 440.668 180.16C440.788 182.28 440.868 184.36 440.888 186.4C440.908 188.44 440.888 190.4 440.818 192.27C440.748 194.14 440.608 195.84 440.408 197.37C440.108 198.7 439.748 200.13 439.298 201.66C438.858 203.19 438.458 204.37 438.118 205.21C437.778 206.05 437.318 206.9 436.748 207.76C436.178 208.62 435.568 209.45 434.898 210.24C434.238 211.03 433.578 211.74 432.938 212.38C432.298 213.02 431.708 213.54 431.168 213.93C430.918 213.98 430.578 214.15 430.138 214.45C429.698 214.75 429.248 215.02 428.808 215.26C427.528 216.05 426.058 216.66 424.408 217.11C422.758 217.55 420.728 217.8 418.308 217.85C414.858 218.19 410.648 217.04 405.678 214.38C403.608 213.49 401.958 212.35 400.728 210.94C399.498 209.54 398.338 207.87 397.258 205.95C396.918 205.21 396.618 204.52 396.368 203.88C396.118 203.24 395.908 202.62 395.738 202.03C395.568 201.44 395.418 200.81 395.298 200.15C395.178 199.49 395.068 198.73 394.968 197.9C394.868 197.21 394.798 195.39 394.748 192.43C394.698 191 394.648 189.5 394.598 187.92C394.548 186.34 394.498 184.69 394.448 182.97C394.448 179.28 394.498 176.15 394.598 173.59C394.698 171.03 394.818 169.38 394.968 168.64H394.988ZM406.438 183.86C406.438 186.52 406.498 189.04 406.618 191.43C406.738 193.82 407.148 196.27 407.838 198.78C408.138 199.96 408.528 200.92 409.018 201.66C409.508 202.4 410.178 203.06 411.008 203.65C412.288 204.54 413.578 205.12 414.888 205.39C416.188 205.66 417.558 205.7 418.988 205.5C419.778 205.3 420.498 205.08 421.168 204.84C421.828 204.59 422.588 204.18 423.418 203.58C424.258 203.14 424.948 202.59 425.488 201.95C426.028 201.31 426.478 200.47 426.818 199.44C427.158 198.41 427.418 197.15 427.598 195.67C427.768 194.19 427.878 192.39 427.928 190.28C428.078 187.32 428.088 184.6 427.968 182.12C427.848 179.63 427.638 176.96 427.338 174.1C427.038 172.08 426.788 170.53 426.558 169.45C426.338 168.37 426.028 167.31 425.638 166.27C425.048 164.64 424.028 163.35 422.568 162.39C421.118 161.43 419.528 160.95 417.798 160.95C417.398 160.95 417.008 160.99 416.618 161.06C416.218 161.13 415.758 161.22 415.218 161.32C413.888 161.66 412.768 162.08 411.858 162.58C410.948 163.07 410.188 163.73 409.568 164.54C408.948 165.35 408.458 166.36 408.088 167.57C407.718 168.78 407.388 170.27 407.088 172.04C406.938 172.73 406.828 173.41 406.758 174.07C406.688 174.73 406.618 175.39 406.578 176.03C406.528 176.72 406.488 177.7 406.468 178.99C406.438 180.27 406.428 181.9 406.428 183.87L406.438 183.86Z" fill="#FF5F17"/>
<path d="M450.469 213.71C450.719 212.82 451.009 211.72 451.359 210.39C451.699 209.06 452.099 207.53 452.539 205.81C453.029 203.84 453.489 201.97 453.909 200.19C454.329 198.42 454.699 196.64 455.019 194.87C455.339 193.1 455.609 191.3 455.829 189.48C456.049 187.66 456.209 185.71 456.309 183.64C456.409 182.85 456.469 181.3 456.489 178.99C456.509 176.67 456.529 174.04 456.529 171.08C456.529 168.12 456.549 165.83 456.599 163.91C456.649 161.99 456.669 160.95 456.669 160.81C456.669 160.71 456.709 160.17 456.779 159.18C456.849 158.19 456.889 156.92 456.889 155.34C456.939 153.86 456.989 152.63 457.039 151.65C457.089 150.66 457.109 150.12 457.109 150.02C457.159 150.02 457.969 150.01 459.549 149.98C461.129 149.96 463.119 149.94 465.529 149.94C467.889 149.84 470.109 149.78 472.179 149.76C474.249 149.74 475.699 149.67 476.539 149.58H512.889C513.529 149.58 513.959 149.61 514.179 149.65C514.399 149.7 514.589 149.82 514.729 150.02C514.979 150.32 515.169 150.93 515.319 151.87C515.469 152.81 515.569 154.26 515.619 156.23C515.719 157.26 515.799 158.22 515.879 159.11C515.959 160 515.989 160.59 515.989 160.88C516.089 162.01 516.149 163.33 516.169 164.83C516.189 166.33 516.229 168.04 516.279 169.96V194.53C516.279 196.82 516.269 198.85 516.239 200.63C516.209 202.4 516.199 203.86 516.199 204.99V207.13C516.099 207.57 516.039 208.3 516.019 209.31C515.989 210.32 515.929 211.37 515.839 212.45L515.619 216.37L514.959 216.67C514.519 216.97 513.479 217.29 511.859 217.63C510.229 217.97 508.089 218.39 505.429 218.89C504.789 218.99 504.059 219.04 503.249 219.04C502.439 219.04 501.959 218.99 501.809 218.89C501.809 218.84 501.769 218.56 501.699 218.04C501.629 217.52 501.539 216.85 501.439 216.01C501.439 215.27 501.399 214.57 501.329 213.9C501.259 213.23 501.189 212.75 501.149 212.46L500.999 211.5H502.329C502.719 211.5 503.139 211.49 503.589 211.46C504.029 211.44 504.429 211.37 504.769 211.28L506.029 211.06L506.099 203.01C506.149 200.2 506.189 197.21 506.209 194.03C506.229 190.85 506.219 187.42 506.169 183.72C506.119 180.03 506.069 176.82 506.019 174.12C505.969 171.41 505.919 169.12 505.869 167.25C505.819 165.77 505.799 164.33 505.799 162.93V159.72L506.019 157.36L488.579 157.51C486.169 157.51 483.859 157.52 481.669 157.55C479.479 157.58 477.529 157.6 475.829 157.62C474.129 157.65 472.709 157.67 471.579 157.69C470.449 157.72 469.729 157.73 469.439 157.73H468.039C467.939 157.78 467.739 157.8 467.449 157.8C467.349 157.9 467.299 158.26 467.299 158.87V161.27C467.349 164.23 467.389 167.03 467.409 169.69C467.429 172.35 467.419 175.01 467.369 177.67C467.319 180.33 467.309 182.5 467.329 184.17C467.349 185.84 467.319 187.1 467.219 187.94C467.019 189.86 466.799 191.67 466.559 193.37C466.309 195.07 465.899 197.03 465.299 199.24C464.759 201.31 464.299 203.08 463.929 204.56C463.559 206.04 463.199 207.25 462.859 208.18C462.519 209.12 462.109 210.17 461.639 211.36C461.169 212.54 460.619 213.87 459.979 215.35L458.799 218.16L457.169 218.23C456.279 218.33 455.499 218.24 454.809 217.97C454.119 217.7 453.259 217.19 452.219 216.46C451.089 215.82 450.429 215.35 450.259 215.06C450.089 214.76 450.149 214.32 450.439 213.73L450.469 213.71ZM475.739 162.8C476.579 162.8 477.319 162.79 477.959 162.76C478.599 162.74 479.189 162.72 479.729 162.72H480.509C480.779 162.72 481.039 162.7 481.289 162.65V160.58L481.439 158.59H482.329C482.629 158.59 483.069 158.6 483.659 158.63C484.249 158.66 484.869 158.72 485.509 158.81C486.199 158.86 486.949 158.91 487.759 158.96C488.569 159.01 489.269 159.03 489.869 159.03L491.859 159.1L491.929 160.43C492.029 160.83 492.089 161.17 492.109 161.46C492.129 161.76 492.199 161.9 492.289 161.9C492.439 161.95 492.979 162 493.919 162.05C494.849 162.1 495.889 162.15 497.019 162.2C498.149 162.25 499.239 162.29 500.269 162.31C501.299 162.34 501.969 162.35 502.259 162.35H504.109V165.23C504.109 166.31 504.099 167.08 504.069 167.52C504.039 167.96 503.959 168.18 503.809 168.18C503.759 168.23 503.229 168.27 502.219 168.29C501.209 168.32 500.079 168.34 498.819 168.36C497.559 168.39 496.359 168.4 495.199 168.4H493.019L492.129 168.62V174.16H501.769C502.729 174.16 503.359 174.19 503.649 174.23C504.139 174.28 504.289 174.4 504.089 174.6V179.88C504.089 180.3 504.019 180.43 503.869 180.29C503.719 180.15 503.649 180.14 503.649 180.29C503.749 180.34 503.369 180.39 502.499 180.44C501.639 180.49 500.099 180.51 497.879 180.51C495.659 180.51 494.139 180.52 493.299 180.55C492.459 180.58 492.039 180.64 492.039 180.73C492.039 180.88 492.009 181.17 491.969 181.62C491.919 182.06 491.899 182.58 491.899 183.17L491.829 185.24L497.449 185.39H503.209V187.61C503.159 188.25 503.109 189.24 503.059 190.57C503.009 191.9 502.959 193.23 502.909 194.56C502.809 195.99 502.749 197.37 502.729 198.7C502.699 200.03 502.639 201.06 502.549 201.8C502.499 203.77 502.399 205.26 502.249 206.27C502.099 207.28 501.909 207.91 501.659 208.15C501.609 208.2 501.179 208.26 500.369 208.33C499.559 208.4 498.559 208.49 497.379 208.59C496.199 208.64 495.049 208.73 493.939 208.85C492.829 208.97 492.009 209.03 491.459 209.03C490.719 209.13 489.709 209.23 488.429 209.33C487.149 209.43 485.569 209.53 483.699 209.63C481.829 209.73 479.969 209.81 478.119 209.89C476.269 209.97 474.409 210.05 472.539 210.15L470.549 210.22L470.619 203.2C470.619 201.23 470.659 199.44 470.729 197.84C470.799 196.24 470.839 195.27 470.839 194.92C470.889 194.53 470.939 193.93 470.989 193.15C471.039 192.36 471.089 191.55 471.139 190.71C471.189 189.87 471.229 189.08 471.249 188.35C471.269 187.61 471.289 187.09 471.289 186.8V186.14L476.169 186.07C477.599 186.07 478.789 186.03 479.749 185.96C480.709 185.89 481.219 185.85 481.259 185.85C481.409 185.7 481.479 184.89 481.479 183.41V181.05L477.269 181.2C476.089 181.25 474.999 181.3 474.019 181.35C473.029 181.4 472.389 181.42 472.099 181.42C471.359 181.62 470.889 181.53 470.699 181.16C470.499 180.79 470.449 179.72 470.549 177.95V174.85H473.729C474.719 174.85 475.719 174.88 476.759 174.92C477.789 174.97 478.609 175.02 479.199 175.07C480.129 175.17 480.739 175.19 481.009 175.14C481.279 175.09 481.369 174.99 481.269 174.84C481.219 174.69 481.199 174.31 481.199 173.69V168.63L477.879 168.85C476.889 168.85 475.909 168.88 474.919 168.92C473.929 168.97 473.149 169.02 472.559 169.07L470.639 169.22L470.569 167.96C470.469 167.62 470.409 167.12 470.389 166.48C470.359 165.84 470.349 165.22 470.349 164.63L470.129 162.78H475.749L475.739 162.8ZM480.539 192.36L480.609 197.16C480.709 198.54 480.769 199.67 480.789 200.56C480.809 201.45 480.829 201.94 480.829 202.04C480.929 202.04 481.569 202.05 482.749 202.08C483.929 202.11 485.409 202.12 487.179 202.12L493.459 202.34V194.18C493.459 193.47 493.449 192.92 493.419 192.55C493.389 192.18 493.369 191.95 493.349 191.85C493.319 191.75 493.259 191.7 493.169 191.7C493.069 191.8 492.829 191.85 492.429 191.85H491.029C490.539 191.85 489.699 191.88 488.519 191.92C487.339 191.97 486.159 192.04 484.969 192.14L480.539 192.36Z" fill="#FF5F17"/>
<path d="M526.128 170.12C526.178 169.97 526.308 169.76 526.538 169.49C526.758 169.22 526.988 168.91 527.238 168.57C528.168 167.39 529.408 165.57 530.928 163.1C532.458 160.64 534.398 157.24 536.768 152.9C537.068 152.56 537.408 152 537.798 151.24C538.188 150.48 538.558 149.7 538.908 148.91C539.108 148.47 539.318 148.01 539.538 147.54C539.758 147.07 540.018 146.64 540.318 146.25C540.468 146.25 540.688 146.4 540.978 146.69C541.418 146.99 542.218 147.39 543.378 147.91C544.538 148.43 545.728 148.91 546.958 149.35C547.598 149.55 548.088 149.72 548.438 149.87C548.778 150.02 549.008 150.2 549.098 150.42C549.198 150.64 549.188 150.95 549.058 151.34C548.938 151.74 548.728 152.3 548.428 153.04C548.178 153.53 548.008 153.99 547.908 154.41C547.808 154.83 547.758 155.06 547.758 155.11C547.558 155.26 548.498 155.36 550.568 155.41C551.648 155.46 553.239 155.48 555.339 155.48H575.698C577.568 155.53 579.138 155.55 580.388 155.55H583.308L587.668 155.7L587.518 159.1V162.57L586.779 162.64C586.479 162.74 585.518 162.79 583.898 162.79H578.138L570.378 162.86L570.228 164.12C570.128 164.66 570.108 165.33 570.158 166.11C570.208 166.9 570.258 167.86 570.308 168.99C570.358 170.12 570.378 171.01 570.378 171.65C570.378 172.29 570.398 172.68 570.448 172.83C570.548 172.93 571.368 172.98 572.928 172.98C574.488 172.98 576.438 173.01 578.798 173.05H586.998V181.47L583.308 181.62C582.228 181.62 581.288 181.63 580.498 181.66C579.708 181.69 579.218 181.7 579.018 181.7H574.138L569.708 181.85V186.14C569.708 187.32 569.718 188.49 569.748 189.65C569.768 190.81 569.788 191.63 569.788 192.13L569.938 193.83H577.658C579.508 193.83 581.319 193.86 583.089 193.9L589.518 194.05L590.108 197.15C590.308 198.04 590.438 198.82 590.518 199.51C590.588 200.2 590.628 200.62 590.628 200.77V201.36H588.558C587.968 201.36 587.168 201.37 586.158 201.4C585.148 201.43 584.198 201.49 583.318 201.58C582.378 201.63 581.108 201.68 579.508 201.73C577.908 201.78 576.338 201.83 574.818 201.88C571.318 201.98 569.568 202.1 569.568 202.25C569.518 202.59 569.478 203.38 569.458 204.61C569.428 205.84 569.369 207.57 569.279 209.78C569.129 214.21 569.058 216.99 569.058 218.13V218.57H558.488V202.02H542.968C538.488 202.02 534.788 202 531.888 201.95C528.978 201.9 527.428 201.88 527.238 201.88C527.188 201.58 527.168 201.29 527.168 200.99V200.03C527.118 199.49 527.078 198.91 527.058 198.29C527.028 197.67 526.968 197.07 526.878 196.48C526.878 196.33 526.869 196.16 526.839 195.96C526.809 195.76 526.748 195.64 526.658 195.59C526.658 195.44 526.708 195.32 526.808 195.22C527.058 195.12 527.058 194.95 526.808 194.7C526.508 194.4 526.468 194.26 526.658 194.26C526.808 194.21 527.108 194.17 527.578 194.15C528.048 194.13 528.609 194.11 529.279 194.11C529.949 194.11 530.658 194.12 531.418 194.15C532.178 194.18 532.908 194.24 533.598 194.33C534.778 194.33 535.398 194.31 535.448 194.26C535.448 194.16 535.468 193.37 535.518 191.9C535.568 190.42 535.589 188.58 535.589 186.36C535.589 184.14 535.598 182.14 535.628 180.34C535.648 178.54 535.668 177.37 535.668 176.83L535.818 174.98L535.228 175.28C534.588 175.82 533.908 176.31 533.198 176.76C532.488 177.2 532.078 177.42 531.978 177.42C531.828 177.32 531.498 177 530.978 176.46C530.458 175.92 529.908 175.33 529.318 174.69C528.728 174.05 528.168 173.43 527.658 172.84C527.148 172.25 526.779 171.85 526.589 171.66L525.698 170.63L526.138 170.11L526.128 170.12ZM537.798 173.89C538.138 173.99 539.308 174.05 541.308 174.07C543.298 174.1 545.708 174.11 548.508 174.11L558.258 174.18V162.88C557.858 162.78 557.078 162.72 555.898 162.7C554.718 162.68 553.118 162.69 551.098 162.74C549.028 162.79 547.388 162.84 546.188 162.89C544.978 162.94 544.178 163.01 543.788 163.11C543.788 163.26 543.678 163.49 543.458 163.81C543.238 164.13 542.928 164.61 542.538 165.25C542.238 165.74 541.858 166.36 541.388 167.1C540.918 167.84 540.488 168.55 540.098 169.24C539.758 169.83 539.358 170.45 538.918 171.09C538.478 171.73 538.128 172.22 537.888 172.57L536.998 173.75L537.808 173.9L537.798 173.89ZM546.968 194.5L552.508 194.28C554.088 194.28 555.388 194.26 556.428 194.21C557.458 194.16 558.008 194.11 558.058 194.06C558.108 193.81 558.128 193.54 558.128 193.25V192.29C558.178 191.75 558.198 191.1 558.198 190.33V187.93L558.268 181.87H546.968V194.5Z" fill="#FF5F17"/>
</g>
<defs>
<clipPath id="clip0_745_478">
<rect width="745" height="219.99" fill="white" transform="translate(-0.00146484)"/>
</clipPath>
</defs>
</svg>
