<svg width="414" height="137" viewBox="0 0 414 137" fill="none" xmlns="http://www.w3.org/2000/svg">
<path d="M0 0H65C81.5685 0 95 13.4315 95 30V98H0V0Z" fill="#FF5F17"/>
<path d="M108 0H171C187.569 0 201 13.4315 201 30V98H108V0Z" fill="#39BF63"/>
<path d="M214 0H278C294.569 0 308 13.4315 308 30V98H214V0Z" fill="#FF5F17"/>
<path d="M321 0H384C400.569 0 414 13.4315 414 30V98H321V0Z" fill="#39BF63"/>
<path d="M58.6555 44.3L68.2555 47C65.4055 53.85 61.6555 59.675 57.0055 64.475C52.4055 69.275 47.0055 73.25 40.8055 76.4C34.6555 79.55 27.7805 82.05 20.1805 83.9C19.8805 83.15 19.3805 82.225 18.6805 81.125C18.0305 80.075 17.3305 79.025 16.5805 77.975C15.8305 76.925 15.1305 76.075 14.4805 75.425C21.8805 73.975 28.4805 71.95 34.2805 69.35C40.1305 66.75 45.1055 63.4 49.2055 59.3C53.3055 55.15 56.4555 50.15 58.6555 44.3ZM34.4305 31.325L43.7305 34.85C41.9805 37.2 39.9305 39.525 37.5805 41.825C35.2305 44.125 32.7805 46.275 30.2305 48.275C27.6805 50.275 25.2305 52 22.8805 53.45C22.3305 52.8 21.6055 52.025 20.7055 51.125C19.8055 50.225 18.8805 49.35 17.9305 48.5C16.9805 47.65 16.1305 46.95 15.3805 46.4C17.7805 45.25 20.1555 43.875 22.5055 42.275C24.8555 40.675 27.0555 38.925 29.1055 37.025C31.2055 35.125 32.9805 33.225 34.4305 31.325ZM41.1805 44.675C44.5305 52.925 49.8055 59.625 57.0055 64.775C64.2555 69.875 73.6305 73.35 85.1305 75.2C84.4805 75.85 83.7805 76.675 83.0305 77.675C82.2805 78.725 81.5555 79.775 80.8555 80.825C80.2055 81.925 79.6805 82.9 79.2805 83.75C71.1305 82.2 64.0805 79.85 58.1305 76.7C52.2305 73.5 47.1805 69.45 42.9805 64.55C38.8305 59.65 35.3555 53.875 32.5555 47.225L41.1805 44.675ZM16.5055 21.95H83.0305V30.725H16.5055V21.95ZM44.9305 13.175H54.2305V27.725H44.9305V13.175ZM56.9305 35.975L64.2805 30.575C66.4805 32.025 68.8305 33.7 71.3305 35.6C73.8805 37.45 76.2805 39.325 78.5305 41.225C80.8305 43.125 82.7055 44.9 84.1555 46.55L76.0555 52.7C74.8055 51.1 73.1055 49.325 70.9555 47.375C68.8055 45.375 66.4805 43.4 63.9805 41.45C61.5305 39.45 59.1805 37.625 56.9305 35.975ZM137.855 42.5V70.175H129.23V50.825H119.63V42.5H137.855ZM137.855 66.575C139.355 69.125 141.405 70.975 144.005 72.125C146.655 73.275 149.88 73.925 153.68 74.075C155.93 74.175 158.63 74.25 161.78 74.3C164.93 74.3 168.23 74.275 171.68 74.225C175.18 74.175 178.605 74.1 181.955 74C185.305 73.85 188.28 73.65 190.88 73.4C190.53 74.05 190.155 74.925 189.755 76.025C189.405 77.075 189.08 78.15 188.78 79.25C188.48 80.35 188.23 81.325 188.03 82.175C185.73 82.325 183.08 82.425 180.08 82.475C177.08 82.525 173.98 82.55 170.78 82.55C167.58 82.6 164.48 82.6 161.48 82.55C158.53 82.55 155.905 82.5 153.605 82.4C149.105 82.2 145.28 81.475 142.13 80.225C139.03 78.975 136.355 76.9 134.105 74C132.355 75.5 130.555 76.975 128.705 78.425C126.905 79.925 124.955 81.475 122.855 83.075L118.655 74.075C120.455 73.075 122.355 71.925 124.355 70.625C126.355 69.325 128.255 67.975 130.055 66.575H137.855ZM120.755 20.6L126.905 14.825C128.505 15.875 130.13 17.1 131.78 18.5C133.48 19.85 135.08 21.225 136.58 22.625C138.08 23.975 139.255 25.25 140.105 26.45L133.355 32.9C132.605 31.7 131.53 30.375 130.13 28.925C128.73 27.475 127.205 26.025 125.555 24.575C123.905 23.075 122.305 21.75 120.755 20.6ZM151.055 27.875L156.83 23.075C159.03 23.825 161.455 24.75 164.105 25.85C166.755 26.9 169.305 28 171.755 29.15C174.255 30.3 176.33 31.35 177.98 32.3L171.83 37.7C170.33 36.7 168.38 35.625 165.98 34.475C163.63 33.325 161.13 32.175 158.48 31.025C155.83 29.825 153.355 28.775 151.055 27.875ZM144.305 32.075H182.48V38.6H152.705V70.925H144.305V32.075ZM178.28 32.075H186.83V63.2C186.83 65.05 186.605 66.5 186.155 67.55C185.755 68.55 184.955 69.35 183.755 69.95C182.605 70.55 181.18 70.925 179.48 71.075C177.83 71.175 175.88 71.225 173.63 71.225C173.43 70.125 173.105 68.925 172.655 67.625C172.255 66.275 171.83 65.1 171.38 64.1C172.53 64.15 173.68 64.175 174.83 64.175C175.98 64.175 176.755 64.175 177.155 64.175C177.555 64.175 177.83 64.1 177.98 63.95C178.18 63.75 178.28 63.45 178.28 63.05V32.075ZM144.98 15.8H180.68V22.625H144.98V15.8ZM148.955 42.65H181.205V48.95H148.955V42.65ZM148.955 53.15H181.205V59.675H148.955V53.15ZM161.33 35.15H169.355V70.625H161.33V35.15ZM177.455 15.8H179.555L181.28 15.35L186.605 19.625C184.855 21.275 182.88 22.95 180.68 24.65C178.53 26.35 176.28 27.95 173.93 29.45C171.58 30.9 169.255 32.175 166.955 33.275C166.455 32.525 165.73 31.65 164.78 30.65C163.88 29.65 163.13 28.85 162.53 28.25C164.43 27.35 166.33 26.275 168.23 25.025C170.18 23.725 171.955 22.4 173.555 21.05C175.205 19.7 176.505 18.475 177.455 17.375V15.8ZM253.805 16.25H282.905V24.8H253.805V16.25ZM252.905 41.45H276.755V49.85H252.905V41.45ZM261.155 21.95H269.705V40.925C269.705 44.475 269.555 48.125 269.255 51.875C268.955 55.625 268.33 59.375 267.38 63.125C266.48 66.875 265.105 70.5 263.255 74C261.405 77.45 258.955 80.7 255.905 83.75C255.455 83.1 254.83 82.35 254.03 81.5C253.23 80.7 252.405 79.925 251.555 79.175C250.755 78.425 250.005 77.825 249.305 77.375C251.955 74.725 254.08 71.9 255.68 68.9C257.28 65.9 258.455 62.825 259.205 59.675C260.005 56.475 260.53 53.3 260.78 50.15C261.03 46.95 261.155 43.825 261.155 40.775V21.95ZM278.18 16.25H287.405C287.305 20.5 287.23 24.85 287.18 29.3C287.13 33.75 287.105 38.1 287.105 42.35C287.155 46.55 287.255 50.525 287.405 54.275C287.555 57.975 287.755 61.275 288.005 64.175C288.305 67.025 288.655 69.325 289.055 71.075C289.455 72.775 289.955 73.7 290.555 73.85C290.755 73.9 290.93 73.425 291.08 72.425C291.23 71.425 291.355 70.125 291.455 68.525C291.605 66.925 291.705 65.275 291.755 63.575C292.205 64.325 292.73 65.2 293.33 66.2C293.93 67.2 294.53 68.125 295.13 68.975C295.73 69.825 296.255 70.475 296.705 70.925C296.305 74.825 295.605 77.775 294.605 79.775C293.655 81.775 292.505 83 291.155 83.45C289.805 83.9 288.305 83.775 286.655 83.075C284.855 82.425 283.405 80.7 282.305 77.9C281.205 75.15 280.38 71.625 279.83 67.325C279.28 62.975 278.88 58.075 278.63 52.625C278.43 47.125 278.305 41.275 278.255 35.075C278.205 28.875 278.18 22.6 278.18 16.25ZM228.005 36.275H250.655V43.1H228.005V36.275ZM228.305 15.65H250.505V22.4H228.305V15.65ZM228.005 46.55H250.655V53.3H228.005V46.55ZM224.48 25.7H253.13V32.825H224.48V25.7ZM231.905 56.9H250.805V79.775H231.905V72.65H243.08V64.025H231.905V56.9ZM227.855 56.9H235.43V82.7H227.855V56.9ZM348.68 62.375H357.53V73.1C357.53 74.15 357.78 74.825 358.28 75.125C358.78 75.425 359.93 75.575 361.73 75.575C362.13 75.575 362.78 75.575 363.68 75.575C364.63 75.575 365.655 75.575 366.755 75.575C367.855 75.575 368.905 75.575 369.905 75.575C370.905 75.575 371.655 75.575 372.155 75.575C373.105 75.575 373.805 75.425 374.255 75.125C374.755 74.825 375.105 74.225 375.305 73.325C375.555 72.375 375.73 70.975 375.83 69.125C376.48 69.575 377.255 70 378.155 70.4C379.105 70.8 380.105 71.175 381.155 71.525C382.205 71.825 383.105 72.075 383.855 72.275C383.555 75.275 383.005 77.575 382.205 79.175C381.405 80.825 380.28 81.95 378.83 82.55C377.38 83.2 375.43 83.525 372.98 83.525C372.58 83.525 371.955 83.525 371.105 83.525C370.305 83.525 369.38 83.525 368.33 83.525C367.33 83.525 366.33 83.525 365.33 83.525C364.33 83.525 363.405 83.525 362.555 83.525C361.755 83.525 361.155 83.525 360.755 83.525C357.505 83.525 355.005 83.2 353.255 82.55C351.505 81.95 350.305 80.9 349.655 79.4C349.005 77.9 348.68 75.85 348.68 73.25V62.375ZM356.93 60.575L363.605 56.225C364.905 57.175 366.23 58.275 367.58 59.525C368.98 60.725 370.255 61.975 371.405 63.275C372.555 64.525 373.48 65.725 374.18 66.875L367.13 71.75C366.53 70.65 365.68 69.45 364.58 68.15C363.48 66.8 362.255 65.475 360.905 64.175C359.605 62.875 358.28 61.675 356.93 60.575ZM380.33 64.55L387.53 59.975C389.28 61.525 391.03 63.25 392.78 65.15C394.53 67 396.105 68.9 397.505 70.85C398.955 72.75 400.03 74.55 400.73 76.25L393.005 81.35C392.355 79.7 391.355 77.9 390.005 75.95C388.655 74 387.13 72.025 385.43 70.025C383.78 68.025 382.08 66.2 380.33 64.55ZM337.505 60.95L345.53 63.8C344.63 66.9 343.455 70.025 342.005 73.175C340.605 76.275 338.755 78.95 336.455 81.2L328.88 75.95C330.93 74.1 332.68 71.85 334.13 69.2C335.63 66.5 336.755 63.75 337.505 60.95ZM349.805 36.05V39.8H380.18V36.05H349.805ZM349.805 46.25V50H380.18V46.25H349.805ZM349.805 25.85V29.6H380.18V25.85H349.805ZM341.18 19.025H389.33V56.9H341.18V19.025ZM360.08 12.5L371.03 13.85C370.18 15.6 369.305 17.25 368.405 18.8C367.555 20.3 366.78 21.6 366.08 22.7L357.83 21.05C358.28 19.75 358.705 18.325 359.105 16.775C359.555 15.175 359.88 13.75 360.08 12.5Z" fill="white"/>
</svg>
