<svg width="599" height="139" viewBox="0 0 599 139" fill="none" xmlns="http://www.w3.org/2000/svg">
<path d="M42 0H107C123.569 0 137 13.4315 137 30V98H42V0Z" fill="#FF5F17"/>
<path d="M150 0H213C229.569 0 243 13.4315 243 30V98H150V0Z" fill="#39BF63"/>
<path d="M256 0H320C336.569 0 350 13.4315 350 30V98H256V0Z" fill="#FF5F17"/>
<path d="M363 0H426C442.569 0 456 13.4315 456 30V98H363V0Z" fill="#39BF63"/>
<path d="M469 1H534C550.569 1 564 14.4315 564 31V99H469V1Z" fill="#FF5F17"/>
<path d="M53.2 35.5H119.95V44.8H53.2V35.5ZM91.675 39.25C96.175 56.425 105.7 70.675 121.6 76.975C119.35 79 116.35 82.9 114.85 85.525C97.675 77.5 88.3 61.975 82.6 41.35L91.675 39.25ZM81.325 15.325H91.225C90.85 38.2 90.7 70 58.525 85.525C57.1 83.05 54.325 79.825 51.7 77.875C82.45 64.15 81.1 35.65 81.325 15.325ZM158.8 63.1H227.125V70.45H158.8V63.1ZM198.1 65.575C202.375 74.2 212.125 77.125 229.3 77.5C227.425 79.375 225.175 83.125 224.2 85.675C204.625 84.325 195.175 79.45 189.25 66.85L198.1 65.575ZM202.15 60.625L205.825 55.525C210.7 56.575 217.525 58.75 221.125 60.325L217.3 66.025C213.85 64.375 207.175 61.975 202.15 60.625ZM184.975 38.575H228.325V44.8H184.975V38.575ZM209.875 33.7H218.35V49.3C218.35 52.9 217.6 54.625 214.975 55.6C212.275 56.575 208.75 56.575 203.875 56.575C203.5 54.475 202.45 51.85 201.475 50.05C204.4 50.125 207.7 50.125 208.6 50.05C209.5 50.05 209.875 49.825 209.875 49V33.7ZM157.9 37.6H178.9V44.65H157.9V37.6ZM174.475 15.25H182.65V58.45H174.475V15.25ZM161.35 17.425H168.85V26.8H179.125V33.7H161.35V17.425ZM189.475 47.2L195.475 43.75C198.1 45.925 201.175 49.075 202.525 51.4L196.15 55.15C195.025 52.9 192.1 49.525 189.475 47.2ZM187.75 26.35L192.625 24.475C195.7 26.35 199.375 29.35 201.175 31.525L196.15 33.475C194.425 31.375 190.825 28.375 187.75 26.35ZM195.4 23.575L199.6 21.4C203.425 23.2 208 26.2 210.325 28.525L205.825 30.925C203.725 28.6 199.225 25.525 195.4 23.575ZM217.75 18.85H219.175L220.6 18.625L225.25 20.875C218.725 32.35 204.625 36.925 188.65 38.95C188.05 37.3 186.475 34.825 185.275 33.4C199.525 32.05 212.65 28.15 217.75 19.825V18.85ZM204.625 15.25L211.975 16.9C206.05 22.45 197.95 26.275 186.775 29.35C185.875 27.7 183.925 25.3 182.425 24.175C192.85 22.075 200.425 18.925 204.625 15.25ZM202.975 18.85H220.075V23.725H196.3L202.975 18.85ZM162.4 41.275H170.275V45.025C170.275 48.55 169.3 56.05 164.275 60.25C162.775 59.05 159.4 57.325 157.45 56.425C161.725 53.05 162.4 47.425 162.4 44.8V41.275ZM187.825 56.05H196.75V62.875C196.75 71.95 191.95 82.15 161.875 85.9C160.9 83.8 158.65 80.5 157 78.55C183.775 75.4 187.825 68.5 187.825 62.65V56.05ZM274.45 60.1H299.275V65.35H274.45V60.1ZM274.45 68.275H299.275V73.525H274.45V68.275ZM274.375 76.45H301.15V82.525H274.375V76.45ZM264.625 19.75H303.025V26.275H264.625V19.75ZM283.6 55.3H291.1V79.525H283.6V55.3ZM272.275 15.4H280.075V29.95H272.275V15.4ZM287.125 15.4H295.075V29.95H287.125V15.4ZM272.275 36.4V40.825H276.175V36.4H272.275ZM266.425 31.15H282.4V46.15H266.425V31.15ZM290.5 36.4V40.825H294.775V36.4H290.5ZM284.65 31.15H301V46.15H284.65V31.15ZM277.45 51.25H301.3V57.175H277.45V85.525H269.875V58.45L276.55 51.25H277.45ZM286.075 45.7L293.95 47.425C292.15 50.575 290.425 53.65 289.15 55.825L283.15 54.1C284.275 51.625 285.475 48.175 286.075 45.7ZM272.575 45.4L279.925 47.35C277.225 56.05 272.725 64.975 267.55 70.675C266.725 68.95 264.4 65.2 263.05 63.55C267.175 59.05 270.625 52.3 272.575 45.4ZM307.9 28.9H328.975V37H307.9V28.9ZM317.2 32.05H321.475V44.95C321.4 52.225 323.8 68.8 335.05 77.95C333.475 79.825 331 83.575 329.725 85.75C321.625 79.3 317.95 66.625 317.2 60.25C316.225 66.775 311.95 79.075 303.025 85.75C302.05 83.8 299.575 79.975 298.075 78.325C310.525 69.025 312.925 52.375 312.85 44.95V32.05H317.2ZM307.375 15.175L316.225 16.45C314.5 29.95 311.275 43.15 306.025 51.475C304.525 50.05 300.775 47.275 298.675 46.075C303.55 38.875 306.175 27.1 307.375 15.175ZM325.975 28.9H327.25L328.525 28.375L334.45 30.475C333.7 37.825 332.275 46.15 330.475 51.775L324.1 48.175C325 43.525 325.675 36.175 325.975 30.25V28.9ZM372.55 58.075H439.525V65.875H372.55V58.075ZM401.275 52.225H410.425V85.675H401.275V52.225ZM398.5 61.45L405.85 64.675C399.025 73.525 387.625 81.175 376.525 85.15C375.175 82.9 372.475 79.45 370.525 77.65C381.325 74.575 392.725 68.35 398.5 61.45ZM413.125 61.675C419.05 68.2 430.525 74.125 441.475 76.975C439.525 78.775 436.75 82.3 435.475 84.55C424.375 80.8 412.825 73.45 405.7 65.125L413.125 61.675ZM402.025 40.975V46.6H409.6V40.975H402.025ZM402.025 29.125V34.675H409.6V29.125H402.025ZM394.525 22.375H417.4V53.35H394.525V22.375ZM402.4 15.25L411.475 16.3C410.05 20.2 408.625 24.025 407.425 26.65L400.3 25.375C401.125 22.375 402.025 18.25 402.4 15.25ZM371.875 32.05L375.4 25.975C379.225 28.675 384.1 32.65 386.275 35.35L382.525 42.25C380.425 39.25 375.625 34.975 371.875 32.05ZM386.275 41.5L391.825 39.775C393.625 44.275 395.35 50.125 395.8 53.725L389.875 55.9C389.5 52.15 387.925 46.075 386.275 41.5ZM387.325 26.275L394.075 28.975C389.875 36.4 384.55 45.025 380.125 50.575L374.575 47.875C378.925 42.25 384.325 33.1 387.325 26.275ZM381.325 15.85L388.3 18.325C385.825 23.425 383.05 29.05 380.725 32.8L374.95 30.4C377.125 26.5 379.9 20.35 381.325 15.85ZM371.725 47.125C376.9 46.825 384.175 46.3 391.825 45.7L391.9 51.85C385 52.9 378.25 53.725 372.55 54.55L371.725 47.125ZM415.45 31.3L419.5 25.6C423.4 28.825 428.275 33.4 430.45 36.475L426.175 43C424.15 39.625 419.35 34.75 415.45 31.3ZM430.225 41.2L436.075 39.1C438.175 43.825 440.275 50.05 440.95 53.875L434.65 56.425C434.05 52.45 432.175 46.075 430.225 41.2ZM431.2 26.425L438.025 29.2C433.75 36.625 428.2 45.25 423.7 50.8L418.15 48.175C422.575 42.475 428.125 33.25 431.2 26.425ZM425.5 15.775L432.55 18.25C429.925 23.425 427.075 28.975 424.675 32.65L418.9 30.325C421.15 26.425 424.075 20.275 425.5 15.775ZM415.975 46.975C421.3 46.75 428.725 46.3 436.45 45.85V52.15C429.55 52.975 422.65 53.725 416.95 54.4L415.975 46.975ZM476.5 53.725C483.175 52.3 493.075 49.825 502.45 47.5L503.5 55.6C494.95 58 485.875 60.475 478.75 62.35L476.5 53.725ZM477.625 29.5H502.6V37.825H477.625V29.5ZM486.7 15.325H495.4V76.375C495.4 80.575 494.575 82.825 492.1 84.175C489.625 85.525 486.025 85.75 480.775 85.75C480.55 83.5 479.425 79.9 478.3 77.65C481.225 77.725 484.3 77.725 485.275 77.725C486.325 77.725 486.7 77.35 486.7 76.3V15.325ZM504.325 32.125H546.175V85.15H537.175V40.675H512.875V85.6H504.325V32.125ZM509.725 51.475H539.65V59.875H509.725V51.475ZM509.95 71.575H539.95V80.2H509.95V71.575ZM520.6 15.475H529.075V76.825H520.6V15.475Z" fill="white"/>
</svg>
