<svg width="829" height="131" viewBox="0 0 829 131" fill="none" xmlns="http://www.w3.org/2000/svg">
<g clip-path="url(#clip0_179_161)">
<path d="M160.782 66.6554C163.87 66.4152 166.84 66.2351 169.751 66.1751C172.661 66.115 175.691 66.055 178.72 66.055C182.7 66.055 184.719 65.995 184.778 65.8149C184.778 65.6948 184.778 65.3346 184.778 64.7343C184.778 64.1339 184.778 63.2334 184.778 62.2128C184.778 61.1922 184.778 59.9315 184.778 58.4907C184.778 57.0499 184.778 55.609 184.778 53.9881C184.778 52.3672 184.778 50.8063 184.778 49.4255C184.778 48.0447 184.778 46.784 184.838 45.7034C184.897 44.6228 184.838 43.7823 184.897 43.1219C184.957 42.4615 184.897 42.1013 184.897 42.0413C184.897 42.0413 185.254 42.0413 185.907 41.9212C186.56 41.8011 187.333 41.7411 188.224 41.6811C189.055 41.6811 189.946 41.561 190.956 41.561C191.966 41.561 192.797 41.501 193.451 41.501C194.46 41.501 195.114 41.501 195.351 41.561C195.589 41.621 195.708 41.7411 195.708 41.9212C195.708 42.1614 195.767 43.302 195.767 45.3432V53.0276C195.767 54.4684 195.767 55.8492 195.767 57.23C195.767 58.6108 195.767 59.7514 195.767 60.772C195.767 61.7926 195.767 62.6331 195.767 63.2934C195.767 63.9538 195.767 64.374 195.767 64.4941L196.005 65.3346L197.549 65.2145C198.084 65.2145 199.153 65.0945 200.816 65.0344C202.479 64.9744 204.32 64.8543 206.34 64.7943C208.419 64.7943 210.379 64.6742 212.161 64.6142C213.943 64.5541 215.19 64.4941 215.903 64.4941L218.279 64.374L218.516 65.5747L218.873 67.6759C218.992 68.5164 219.17 69.537 219.289 70.6777C219.586 72.959 219.704 74.3397 219.704 74.7C219.586 74.7 219.11 74.7 218.16 74.82C217.21 74.9401 216.022 74.9401 214.537 74.9401C213.171 75.0602 211.804 75.1202 210.557 75.1802C209.31 75.2403 208.419 75.3003 208.003 75.3603C207.468 75.4804 206.577 75.5404 205.33 75.6005C204.083 75.6605 202.657 75.7205 201.172 75.7806C199.628 75.9006 198.381 75.9607 197.311 75.9607C196.242 75.9607 195.648 76.0207 195.529 76.1408C195.411 76.0207 195.292 76.2608 195.292 76.8012C195.292 77.3415 195.292 78.5421 195.292 80.4032C195.292 81.0036 195.292 81.9041 195.292 82.9847C195.292 84.0653 195.292 85.3861 195.292 86.7668C195.292 88.1476 195.292 89.7085 195.292 91.3295C195.292 92.9504 195.292 94.5713 195.292 96.1922V107.959L189.887 108.079H184.66V98.8938C184.66 97.8132 184.66 97.1528 184.6 96.9727C184.6 96.7325 184.6 95.6519 184.541 93.6108C184.481 91.5696 184.481 89.1682 184.481 86.1665L184.244 75.8406H180.68C178.898 75.9607 176.997 76.0207 174.859 76.0807C172.721 76.1408 170.404 76.2008 167.85 76.3209C162.801 76.4409 159.95 76.561 159.356 76.561V75.6605C159.356 75.1802 159.356 74.5198 159.237 73.7394C159.119 72.1185 159 70.9178 159 70.1974C159 69.6571 158.94 69.3569 158.762 69.1168C158.94 68.9367 159 68.5164 158.881 67.9161C158.762 67.796 158.762 67.6759 158.762 67.4358C158.762 67.1957 158.881 67.0156 159.059 66.9555C159.237 66.8955 159.772 66.7754 160.604 66.6554H160.782Z" fill="#FF5F17"/>
<path d="M230.634 78.4221C230.634 78.4221 230.871 78.242 231.168 78.0618C231.465 77.8817 231.881 77.7016 232.297 77.5215C233.247 76.8612 234.554 75.7205 236.217 73.9795C237.286 72.8989 238.237 71.8783 239.009 70.9778C239.781 70.0773 240.494 69.1167 241.147 68.2162C241.8 67.3157 242.394 66.2951 242.929 65.2145C243.464 64.1339 244.176 62.8732 244.83 61.4924L246.433 58.1905L234.435 58.4306V54.2282C234.257 53.0876 234.198 52.127 234.198 51.3466V50.0258C234.198 50.0258 234.791 49.9058 235.504 49.9058C236.217 49.9058 237.167 49.7857 238.177 49.7857C239.187 49.7857 240.375 49.6656 241.563 49.6656C242.751 49.6656 243.998 49.6056 245.127 49.5456C246.255 49.4855 247.324 49.5456 248.275 49.4855C249.225 49.4255 249.879 49.4855 250.294 49.4855C250.473 49.4855 250.71 49.1853 251.066 48.525C251.423 47.8646 251.72 47.0841 252.017 46.1236C252.314 45.2231 252.67 44.2625 253.145 43.1219C253.621 41.9812 253.918 41.2608 254.096 40.7805C254.215 40.6605 254.274 40.5404 254.393 40.3603C254.393 40.3603 254.393 40.2402 254.452 40.2402C254.452 40.2402 254.749 40.3003 255.165 40.4804C255.581 40.6605 256.056 40.8406 256.65 41.1407C257.303 41.3809 258.016 41.621 258.907 41.9212C259.798 42.2214 260.451 42.4615 261.045 42.6416C262.293 42.9418 263.184 43.1819 263.718 43.4221C264.253 43.6622 264.49 43.9624 264.49 44.2025C264.49 44.5027 264.431 45.043 264.134 45.9435C263.837 46.844 263.481 47.6845 263.065 48.645L262.293 49.9058H263.124C263.124 49.9058 263.837 50.0859 264.669 50.0859C265.5 50.0859 266.629 50.0859 268.054 50.1459C269.48 50.2059 271.024 50.1459 272.865 50.2059C274.707 50.266 276.608 50.2059 278.686 50.326C280.765 50.326 282.726 50.326 284.507 50.326C286.289 50.326 287.834 50.326 289.14 50.386C290.447 50.4461 291.873 50.386 293.358 50.5061V51.7668C293.358 52.5473 293.358 53.5078 293.298 54.5884V58.5507L277.023 58.7908C274.766 58.7908 272.628 58.7908 270.608 58.7908C268.589 58.7908 266.866 58.7908 265.381 58.8509C263.896 58.9109 262.649 58.8509 261.699 58.9109C260.748 58.9709 260.154 58.9109 259.976 58.9109C259.739 58.9109 259.56 59.031 259.323 59.2711C259.085 59.5112 258.788 60.1716 258.254 61.1922C257.957 61.7925 257.6 62.513 257.066 63.3534C256.531 64.1939 256.115 64.9744 255.7 65.6948C255.165 66.4152 254.749 67.0756 254.333 67.796C253.918 68.5164 253.621 69.0567 253.502 69.4169C253.324 69.7171 253.145 70.0773 252.967 70.4375C252.789 70.7977 252.611 71.0378 252.492 71.1579C252.373 71.398 252.254 71.6982 252.195 72.0584C252.136 72.4186 252.076 72.9589 252.076 73.7394C252.076 74.3998 252.076 75.4203 251.957 76.7411C251.839 78.0618 251.839 79.4426 251.839 80.8835C251.839 82.2642 251.72 83.645 251.66 85.0258C251.601 86.4066 251.542 87.7874 251.482 89.2282C251.423 90.669 251.423 92.2299 251.363 93.8509C251.304 95.4718 251.363 97.3329 251.363 99.314C251.363 101.055 251.363 102.616 251.245 103.997C251.126 105.377 251.126 106.278 251.126 106.698L251.007 107.959H241.622L241.741 95.832V83.7051L239.959 85.2059C239.425 85.6862 238.89 86.1064 238.355 86.5267C237.821 86.9469 237.464 87.127 237.227 87.1871L236.395 87.6073L235.564 87.127C235.029 86.7668 234.435 86.0464 233.782 85.0859C233.128 84.1253 232.297 82.9246 231.465 81.4838C230.871 80.3431 230.515 79.6227 230.337 79.2025C230.158 78.7823 230.277 78.6022 230.574 78.4821L230.634 78.4221ZM254.333 99.374H268.767V82.9847H267.104C266.569 82.9847 265.797 82.9847 264.609 82.9847C263.421 82.9847 262.293 83.0447 261.105 83.1648C259.917 83.2848 258.966 83.4049 258.135 83.4049C257.303 83.4049 256.887 83.4049 256.828 83.4049C256.828 83.4049 256.828 83.1648 256.769 82.8646C256.709 82.5644 256.709 82.1442 256.709 81.6639C256.709 81.1236 256.59 80.6433 256.59 80.2231C256.59 79.8028 256.531 79.4426 256.531 79.1425C256.412 78.0618 256.293 77.1013 256.234 76.2008C256.175 75.3003 256.115 74.82 256.115 74.6999C256.293 74.5198 257.125 74.4598 258.61 74.5799C261.105 74.6999 263.302 74.82 265.084 74.9401C266.866 75.0601 267.995 75.1802 268.351 75.2402C268.826 75.2402 269.064 75.1802 269.064 75.0001C269.183 74.88 269.242 74.2197 269.242 73.019C269.242 71.8183 269.242 70.3775 269.242 68.6965L269.48 62.8131H273.162C274.172 62.7531 275.123 62.7531 276.073 62.7531C277.023 62.7531 277.617 62.7531 277.974 62.633C278.508 62.633 278.865 62.633 279.043 62.6931C279.221 62.7531 279.28 62.9332 279.28 63.1733C279.399 63.2934 279.459 63.8937 279.459 64.9744C279.459 66.055 279.459 67.3757 279.459 68.9366C279.459 70.1373 279.459 71.1579 279.459 71.8783C279.459 72.5987 279.459 73.1991 279.518 73.6193C279.577 74.0395 279.518 74.2797 279.637 74.3397C279.756 74.3998 279.756 74.4598 279.756 74.3998C280.528 74.3998 281.419 74.5198 282.369 74.5198C283.319 74.5198 284.389 74.6399 285.517 74.6399C286.646 74.6399 287.656 74.6999 288.368 74.76C289.081 74.82 289.616 74.76 289.972 74.76C290.15 74.76 290.328 74.76 290.447 74.82C290.566 74.88 290.685 74.9401 290.804 74.9401C290.804 75.1802 290.863 75.6004 290.863 76.2008V78.6022C290.863 79.6227 290.863 80.4632 290.804 81.0035C290.744 81.5438 290.685 81.9641 290.685 82.0841C290.685 82.2042 290.031 82.2642 288.962 82.2642C287.893 82.2642 286.468 82.3243 284.864 82.4444C283.26 82.4444 281.953 82.4444 280.825 82.4444C279.696 82.4444 279.102 82.5044 279.043 82.6245C279.043 82.6245 278.924 83.4649 278.924 85.0258C278.924 86.5867 278.805 88.4478 278.805 90.7291L278.686 98.6536L285.161 98.8938C287.121 99.0138 288.784 99.0739 290.15 99.1339C291.516 99.1939 292.407 99.254 292.823 99.314L294.07 99.4341V108.319L278.627 108.199H266.51C264.669 108.199 263.124 108.139 261.877 108.139H255.046V106.518C255.046 106.518 255.046 105.978 254.927 105.798C254.927 105.498 254.927 105.077 254.809 104.537C254.69 103.997 254.69 103.336 254.69 102.736C254.69 102.016 254.571 101.415 254.571 100.935C254.571 100.455 254.512 100.034 254.512 99.7943V99.314L254.333 99.374Z" fill="#FF5F17"/>
<path d="M299.595 92.4701C299.595 92.4701 299.714 92.29 299.714 92.2299C299.714 92.1699 299.832 92.1099 299.832 91.9898C299.951 91.8697 300.07 91.7497 300.189 91.6296C300.308 91.5095 300.486 91.3294 300.605 91.1493C300.902 90.8492 301.199 90.4889 301.496 90.0087C301.793 89.5284 302.09 89.1082 302.268 88.6879C302.446 88.2677 302.743 87.7274 303.099 87.067C303.456 86.4066 303.812 85.8063 304.228 85.266C304.644 84.7257 305.059 83.8251 305.713 82.5644C306.366 81.3037 306.901 80.043 307.495 78.7222C308.089 77.4015 308.623 76.0807 309.098 74.82C309.574 73.5593 309.871 72.5987 309.989 71.9984L310.108 71.2179L308.029 71.4581C307.376 71.4581 306.663 71.4581 305.891 71.5181C305.119 71.5781 304.465 71.5781 303.931 71.5781H302.03L301.911 70.3775C301.911 69.9572 301.911 69.4769 301.911 68.8766C301.911 68.2763 301.911 67.796 301.852 67.2557C301.793 66.7154 301.852 66.2951 301.852 65.8749C301.852 65.4546 301.852 65.2145 301.911 65.0944C301.911 65.0944 302.387 65.0944 303.218 65.0944C304.05 65.0944 305.059 65.0944 306.307 65.0944C306.96 64.9744 307.554 64.9744 308.029 64.9744C308.505 64.9744 308.98 64.9744 309.336 64.9143H310.583C310.583 64.9143 310.583 64.5541 310.583 64.0138C310.583 63.4735 310.583 62.6931 310.702 61.7325C310.821 60.772 310.762 59.6313 310.821 58.3706C310.88 57.1099 310.821 55.669 310.821 54.1682C310.94 51.0464 310.999 48.4649 310.999 46.3637C310.999 44.2625 311.059 43.0618 311.177 42.7617V42.1013L314.979 42.1613H318.899V43.2419C318.899 43.2419 318.899 44.0224 318.899 44.7428C318.899 45.4632 318.899 46.3037 318.78 47.2642C318.662 48.2248 318.662 49.3654 318.543 50.5061C318.424 51.6468 318.365 52.9075 318.246 54.2282C318.127 55.4289 318.186 56.1493 318.246 56.3895C318.305 56.6296 318.602 56.3895 318.899 55.609C319.315 54.8286 319.671 53.9881 319.968 53.2076C320.265 52.4272 320.503 51.3466 320.8 49.9658C320.919 49.2454 321.037 48.645 321.156 48.1648C321.275 47.6845 321.334 47.3243 321.394 47.2642C321.513 47.2642 322.107 47.3843 323.057 47.6845C324.007 47.9847 325.017 48.2848 326.027 48.645L327.274 49.0653V49.9658C327.274 50.5061 327.215 51.1064 327.037 51.7668C326.858 52.4272 326.68 52.9675 326.383 53.3277C326.383 53.4478 326.264 53.6879 326.086 54.0481C325.908 54.4083 325.789 54.7685 325.67 55.1888C325.255 56.4495 324.898 57.4701 324.601 58.2505C324.304 59.031 324.067 59.6313 323.829 59.9915C323.592 60.3517 323.413 60.6519 323.235 60.7119C323.057 60.772 322.879 60.832 322.76 60.772C322.463 60.6519 322.107 60.5318 321.691 60.4118C321.275 60.2917 320.8 60.2317 320.325 60.1716C319.849 60.1116 319.434 60.0516 319.077 60.0516C318.721 60.0516 318.483 60.0516 318.365 60.0516C318.246 60.2317 318.127 60.5318 318.008 60.892C317.889 61.2522 317.83 61.6725 317.83 62.0927C317.83 62.513 317.83 62.8732 317.83 63.2334C317.83 63.5936 317.949 63.8337 318.127 63.9538C318.246 63.9538 318.483 63.9538 318.84 64.0138C319.196 64.0739 319.552 64.1339 320.028 64.1939C320.503 64.254 320.919 64.314 321.394 64.374C321.869 64.4341 322.285 64.4341 322.701 64.4341L323.948 64.5541V70.3174L321.037 70.4375H318.959C318.959 70.4375 318.543 70.4975 318.127 70.4975C318.008 70.7977 318.246 71.6982 318.78 73.1991C319.196 74.4598 319.552 75.4804 319.909 76.3209C320.265 77.1613 320.622 77.8217 321.037 78.4821C321.453 79.1425 321.988 79.7428 322.582 80.4032C323.176 81.0636 324.007 81.844 325.076 82.8046C325.552 83.2248 325.908 83.585 326.264 83.9452C326.621 84.3054 326.74 84.5456 326.74 84.6656C326.74 84.7857 326.561 85.0859 326.443 85.4461C326.324 85.8063 326.086 86.2865 325.849 86.7068C325.611 87.127 325.373 87.6073 325.136 88.0876C324.898 88.5679 324.72 88.9281 324.483 89.2282C324.304 89.4083 324.126 89.5884 324.007 89.7685C323.889 89.9486 323.77 90.0687 323.651 90.0687C323.473 90.0687 322.998 89.7685 322.166 89.1082C321.453 88.5078 320.8 88.0275 320.206 87.7874C319.612 87.5473 319.315 87.3672 319.137 87.4272C319.018 87.5473 318.959 88.2076 318.959 89.3483C318.959 90.4889 318.899 91.8697 318.78 93.5507C318.78 98.1133 318.662 101.475 318.543 103.757C318.424 106.038 318.305 107.359 318.186 107.779C318.186 107.899 318.186 107.959 318.068 108.019C317.949 108.079 317.83 108.139 317.533 108.139C317.236 108.139 316.82 108.199 316.286 108.199H310.168L310.286 99.314C310.286 96.7325 310.286 94.5713 310.286 92.8303C310.286 91.0893 310.286 90.0687 310.286 89.8886C310.405 89.3483 310.286 89.2282 309.989 89.5284C309.692 89.8286 309.336 90.3088 308.92 91.2094C308.386 92.1099 307.673 93.0704 306.96 94.031C306.247 94.9915 305.416 96.0121 304.644 96.8526L303.693 97.9332L302.565 96.7325C302.565 96.7325 301.971 96.0721 301.614 95.6519C301.258 95.2317 300.902 94.7514 300.545 94.2711C300.189 93.7908 299.892 93.3706 299.654 93.0104C299.417 92.6502 299.298 92.4701 299.298 92.41L299.595 92.4701ZM302.743 49.0653C302.743 49.0653 303.159 49.0653 303.515 48.9452C303.871 48.8251 304.347 48.8251 304.822 48.7651C305.238 48.645 305.653 48.585 306.129 48.585C306.604 48.585 306.96 48.585 307.257 48.585C307.554 48.4649 307.732 48.4649 307.792 48.585C307.851 48.7051 307.911 48.8251 307.911 49.1253C307.911 49.3654 307.911 49.6656 307.97 50.0258C308.029 50.386 308.089 50.6862 308.208 50.9864C308.326 51.4066 308.505 52.067 308.683 52.9075C308.861 53.748 308.98 54.6485 309.158 55.4889C309.336 56.3294 309.395 57.2299 309.514 58.0104C309.633 58.7908 309.633 59.3311 309.633 59.6913V60.9521L308.267 61.0121C307.851 61.1322 307.435 61.1922 306.96 61.1922C306.485 61.1922 306.129 61.1922 305.832 61.1922L304.762 61.4323V60.2917C304.584 59.9315 304.465 59.3311 304.347 58.5507C304.228 57.7703 304.05 56.9298 303.871 56.0893C303.634 55.2488 303.456 54.4083 303.278 53.5678C303.099 52.7274 302.981 52.067 302.921 51.6468C302.921 51.2265 302.802 50.8663 302.743 50.5061C302.684 50.1459 302.624 49.9058 302.624 49.7857C302.505 49.5456 302.505 49.4255 302.565 49.3054C302.624 49.1853 302.684 49.1853 302.862 49.1853L302.743 49.0653ZM329.234 68.3963V65.0944H330.422C330.838 65.0944 331.67 65.0944 332.798 65.1545C333.927 65.2145 335.293 65.2745 336.718 65.2745C338.085 65.3946 339.332 65.4546 340.461 65.4546C341.589 65.4546 342.183 65.4546 342.361 65.4546H343.133V60.9521L337.906 61.0121H332.323C332.323 61.0121 332.204 60.7119 332.204 60.4718C332.204 60.2317 332.085 59.8715 332.085 59.5713C332.085 59.2711 332.026 58.9109 331.967 58.6708C331.907 58.4306 331.967 58.1905 331.967 58.0104C331.967 57.7102 331.967 57.4701 331.967 57.2299C331.967 56.9898 331.967 56.7497 331.848 56.5095C331.848 56.2094 331.848 56.0293 331.788 55.9692C331.907 55.9692 332.382 55.9092 333.214 55.9092H336.362C337.609 55.7891 338.797 55.7891 339.867 55.7891C340.936 55.7891 341.648 55.7891 342.005 55.7291H343.193V52.1871L341.114 52.3071C340.401 52.3071 339.629 52.4272 338.797 52.4272C337.966 52.4272 337.194 52.5473 336.54 52.5473C335.827 52.6673 335.115 52.7274 334.402 52.7274C333.689 52.7274 333.095 52.7274 332.561 52.7274C331.848 52.8474 331.313 52.8474 331.135 52.7874C330.957 52.7274 330.838 52.6073 330.897 52.4272C330.897 52.3071 330.897 52.067 330.897 51.6468C330.897 51.2265 330.838 50.6262 330.719 49.9658C330.719 49.0653 330.6 48.2248 330.6 47.4444C330.6 46.6639 330.6 46.2437 330.719 46.1236C330.719 46.1236 330.957 46.1236 331.491 46.1236C332.026 46.1236 332.679 46.1836 333.392 46.3037C334.521 46.3037 335.59 46.3637 336.659 46.4238C337.728 46.4838 338.679 46.4238 339.57 46.4238C340.461 46.4238 341.114 46.4238 341.708 46.3037C342.302 46.1836 342.539 46.1836 342.599 46.1836V44.0224C342.599 43.4821 342.599 42.9418 342.658 42.5215C342.718 42.1013 342.718 41.8011 342.718 41.6811C342.836 41.4409 343.193 41.3209 343.846 41.3209C344.143 41.3209 344.559 41.3209 345.153 41.2008C345.747 41.0807 346.341 41.0807 346.935 41.0207C347.469 40.9006 348.063 40.8406 348.657 40.8406C349.251 40.8406 349.727 40.8406 349.964 40.8406H350.855V42.7617C350.677 43.4821 350.677 43.9624 350.677 44.3226C350.677 44.6828 350.736 44.8629 350.855 44.9829C350.974 45.103 352.993 45.2231 356.914 45.2231C358.577 45.2231 360.002 45.2231 361.131 45.2831C362.259 45.3431 362.913 45.4032 362.913 45.4032C362.913 45.5233 362.913 45.8234 362.972 46.4238C363.032 47.0241 363.032 47.6845 363.032 48.525C363.032 49.6656 363.032 50.4461 363.032 50.8663C363.032 51.2865 362.972 51.5267 362.853 51.5267C362.438 51.6468 360.893 51.7068 358.161 51.7668C356.795 51.7668 355.607 51.8269 354.538 51.8869C353.469 51.9469 352.518 51.8869 351.746 51.8869H350.677V52.9675C350.499 53.808 350.558 54.3483 350.736 54.5884C350.915 54.8286 351.33 55.0087 351.924 55.0687C352.993 55.0687 354.122 55.1888 355.31 55.1888C356.498 55.1888 357.805 55.2488 359.111 55.2488H361.666V60.4118H356.379C352.875 60.4118 351.033 60.4118 350.974 60.5318C350.796 60.5318 350.736 61.3723 350.855 62.8732V64.8543H364.576V70.0773C364.576 70.0773 364.398 70.3174 364.041 70.3174H361.963C360.953 70.3174 359.646 70.3174 357.983 70.4375C355.191 70.5576 352.459 70.6176 349.845 70.7377C347.232 70.8577 344.5 70.9778 341.708 71.1579C339.985 71.1579 338.263 71.278 336.54 71.338C334.818 71.398 333.452 71.4581 332.442 71.4581C331.907 71.4581 331.491 71.5181 331.076 71.5781C330.66 71.6382 330.363 71.5781 330.066 71.5781H329.116C329.116 71.5781 328.997 70.7977 328.997 70.0173V68.3963H329.234ZM331.076 99.1939V95.2917C331.076 93.9709 331.076 92.7102 331.076 91.5095C331.076 90.3088 331.076 89.2282 331.076 88.1476V85.5661C331.313 81.784 331.491 78.9624 331.551 77.1013C331.61 75.2402 331.67 74.3397 331.67 74.2197C331.788 74.2197 332.264 74.2197 333.095 74.2197C333.927 74.2197 335.055 74.2197 336.421 74.2197C337.728 74.0996 339.094 74.0396 340.461 74.0396C341.827 74.0396 342.955 73.9795 343.787 73.8594C344.618 73.8594 345.509 73.7394 346.519 73.7394C347.529 73.7394 348.301 73.6793 349.014 73.6793H362.319V86.1064C362.2 92.8303 362.141 97.9932 362.022 101.475C361.903 104.957 361.784 106.758 361.547 106.938C361.547 107.058 361.309 107.118 360.893 107.178C360.478 107.239 360.062 107.299 359.587 107.359C359.052 107.479 358.399 107.539 357.567 107.599C356.736 107.659 355.963 107.779 355.191 108.019C354.835 108.139 354.478 108.199 354.122 108.199C353.766 108.199 353.469 108.199 353.231 108.319C352.815 108.319 352.578 108.319 352.459 108.379C352.34 108.259 352.281 107.959 352.281 107.479C352.281 106.998 352.281 106.278 352.281 105.498C352.162 104.057 352.221 103.156 352.281 102.796C352.34 102.436 352.756 102.376 353.35 102.436H354.181V97.8732L350.38 97.9932C349.192 97.9932 347.885 97.9932 346.46 97.9932C345.034 97.9932 343.846 98.0533 342.836 98.1733H339.154V100.094C339.154 100.635 339.154 101.415 339.154 102.376C339.154 103.336 339.154 104.237 339.154 105.197L338.916 108.379L334.937 108.259H331.016V99.314L331.076 99.1939ZM339.867 92.29H354.36V90.3689L354.3 88.4478H351.865C351.865 88.4478 351.212 88.5679 350.142 88.5679C349.073 88.5679 347.648 88.6279 346.044 88.6279C345.212 88.6279 344.44 88.6279 343.727 88.6279C343.015 88.6279 342.421 88.6279 341.886 88.748H340.995C340.995 88.748 340.461 88.748 340.223 88.808V89.2282C340.223 89.2282 340.164 89.5284 340.164 89.7685C340.164 90.0087 340.164 90.2488 340.045 90.4889V92.1699L339.867 92.29ZM340.045 83.2848C340.045 83.2848 340.817 83.2848 342.183 83.3449C343.549 83.4049 345.212 83.3449 347.172 83.2848H354.122V81.784C354.36 80.8234 354.36 80.3432 354.122 80.2231C354.122 80.2231 354.122 80.2231 353.884 80.2231C353.647 80.2231 353.29 80.2231 352.696 80.2231H350.142C349.073 80.2231 347.648 80.2231 345.925 80.2831H340.104L339.867 81.784V82.8646C339.867 82.8646 339.867 83.2848 339.985 83.3449L340.045 83.2848Z" fill="#FF5F17"/>
<path d="M372.773 72.8988H376.158C377.228 72.9589 378.594 73.0189 380.316 73.0789C382.039 73.139 383.702 73.199 385.425 73.199C387.088 73.3191 388.81 73.3791 390.592 73.4391C392.374 73.4992 393.8 73.5592 394.928 73.5592H398.67V68.9966H401.521C402.353 68.9366 403.184 68.8765 403.957 68.8765C404.729 68.8765 405.382 68.8165 405.917 68.8165C406.748 68.6964 407.224 68.7565 407.402 68.9966C407.58 69.2367 407.639 70.0772 407.639 71.518V73.259L409.243 73.3791C409.718 73.3791 410.847 73.3791 412.629 73.4992C414.411 73.6192 416.43 73.6192 418.628 73.6192C420.885 73.6192 422.786 73.7393 424.389 73.7393C425.993 73.7393 426.944 73.7993 427.241 73.7993C427.478 73.7993 427.894 73.7993 428.429 73.7993C428.963 73.7993 429.557 73.8594 430.151 73.9794H432.468V77.5815L432.586 81.0035L429.676 81.1235H419.103C416.311 81.0035 414.351 81.0035 413.104 81.0635C411.857 81.1235 411.322 81.1836 411.322 81.1836C411.5 81.4837 412.154 82.024 413.223 82.9246C414.292 83.8251 415.48 84.6055 416.727 85.446C417.202 85.8062 417.678 86.1664 418.212 86.5866C418.747 87.0069 419.162 87.247 419.519 87.4872C419.935 87.7873 420.707 88.2676 421.776 88.988C422.845 89.7084 424.389 90.669 426.35 91.9297C426.944 92.2299 427.716 92.7702 428.666 93.4306C429.616 94.0909 430.507 94.7513 431.398 95.3517L434.665 97.633L433.002 100.815C432.468 101.775 432.111 102.496 431.755 103.096C431.398 103.696 431.28 103.997 431.28 104.117C431.161 104.117 430.626 103.877 429.616 103.456C428.607 103.036 427.538 102.556 426.468 101.955C425.756 101.535 425.043 101.115 424.271 100.695C423.499 100.274 422.905 99.9743 422.489 99.7942C422.132 99.5541 421.657 99.3139 421.182 99.0137C420.707 98.7136 420.232 98.4734 419.816 98.1733C419.459 97.9932 419.103 97.8131 418.865 97.633C418.628 97.4529 418.45 97.3328 418.39 97.3328C418.271 97.3328 417.974 97.1527 417.559 96.9125C417.143 96.6724 416.668 96.4323 416.133 96.1321C415.599 95.8319 415.064 95.4717 414.47 95.1716C413.876 94.8714 413.401 94.5112 412.985 94.211C412.569 93.8508 412.094 93.4306 411.619 93.0103C411.144 92.5901 410.669 92.1698 410.253 91.7496C409.718 91.2093 409.302 90.8491 409.124 90.7891C408.946 90.729 408.827 90.789 408.827 90.9091C408.827 91.6896 408.708 92.7702 408.708 94.0909C408.708 95.4117 408.59 96.9726 408.471 98.8937C408.352 100.875 408.293 102.376 408.233 103.456C408.174 104.537 408.174 105.257 408.174 105.618C408.174 105.738 408.114 105.918 408.114 106.158V108.259H403.719C401.7 108.259 400.393 108.259 399.918 108.199C399.442 108.139 399.205 108.079 399.383 107.899V104.777C399.383 102.916 399.383 100.635 399.264 97.9331V89.7084C399.264 88.868 399.145 88.5077 398.967 88.7479C398.492 89.4683 397.957 90.1887 397.363 91.0292C396.769 91.8697 396.057 92.7101 395.285 93.6707C394.512 94.6312 393.8 95.4117 393.265 96.1921C392.73 96.9726 392.196 97.5129 391.721 97.9932C391.186 98.5335 390.414 99.2539 389.345 100.154C388.276 101.055 387.147 101.955 385.9 102.856C384.652 103.756 383.464 104.537 382.217 105.197C380.97 105.858 380.019 106.158 379.247 106.158C378.95 106.158 378.713 106.098 378.534 105.918C378.356 105.738 378 105.437 377.584 104.837C377.406 104.657 377.109 104.297 376.752 103.756C376.396 103.216 376.04 102.676 375.624 102.076C375.208 101.475 374.911 100.935 374.614 100.395C374.317 99.8542 374.139 99.5541 374.139 99.3139C374.139 99.3139 374.317 99.1338 374.614 98.9537C374.911 98.7736 375.267 98.5335 375.683 98.2333C376.337 97.8131 376.931 97.3928 377.584 96.9726C378.237 96.5523 378.831 96.0721 379.485 95.4717C380.138 94.8714 380.91 94.271 381.682 93.4906C382.455 92.7101 383.405 91.8096 384.415 90.669C385.543 89.5283 386.612 88.4477 387.622 87.3671C388.632 86.2865 389.582 85.3259 390.355 84.4254C391.127 83.5249 391.839 82.8045 392.315 82.2041C392.79 81.6038 393.087 81.2436 393.087 81.0635C392.968 81.0635 392.612 81.0035 392.018 81.0035C391.008 80.8834 389.939 80.9434 388.87 81.0635C385.781 81.0635 383.227 81.1836 381.207 81.1836C379.188 81.1836 377.525 81.2436 376.277 81.2436C375.03 81.2436 374.198 81.2436 373.723 81.2436C373.248 81.2436 373.01 81.2436 373.07 81.1235C373.07 79.8028 373.07 78.542 372.951 77.2813C372.832 76.0206 372.773 74.7599 372.713 73.4391V72.5986L372.773 72.8988ZM380.019 44.2024H382.989C383.821 44.2024 384.237 44.2024 384.296 44.0824C384.415 44.0824 385.187 44.0824 386.553 43.9623C387.919 43.8422 389.582 43.8422 391.602 43.8422C395.344 43.7221 399.086 43.542 402.709 43.1818C406.333 42.8216 410.015 42.4014 413.698 41.8611C415.836 41.5609 417.737 41.3208 419.459 41.1407C421.182 40.9606 422.37 40.7805 423.083 40.6604C424.211 40.6604 424.924 40.6604 425.28 40.6604C425.637 40.6604 425.815 40.8405 425.815 41.0206C425.815 41.5009 425.815 42.0412 425.934 42.6415C426.053 43.2419 426.112 43.9023 426.171 44.5026C426.231 45.1029 426.35 45.7633 426.468 46.3036C426.587 46.8439 426.647 47.3842 426.765 47.8045C426.884 48.0446 426.765 48.2247 426.528 48.2848C426.29 48.3448 425.518 48.5249 424.389 48.765C423.677 48.8851 422.786 49.0652 421.598 49.3053C420.41 49.5455 419.341 49.7256 418.331 49.9057C417.262 50.1458 416.252 50.3259 415.242 50.506C414.232 50.6861 413.52 50.8062 413.104 50.9863C409.599 51.7067 405.857 52.187 401.937 52.3671C398.017 52.5472 394.275 52.6072 390.652 52.6072C389.285 52.6072 387.919 52.6072 386.553 52.6072C385.187 52.6072 384.058 52.6072 382.989 52.6673C381.92 52.7273 381.029 52.6673 380.257 52.7273C379.485 52.7873 378.95 52.7273 378.534 52.7273C378 52.7273 377.465 52.8474 376.99 52.8474C376.515 52.8474 376.277 52.8474 376.277 52.7873C376.277 52.7873 376.158 52.3071 376.158 51.4666C376.158 50.6261 376.04 49.6055 376.04 48.3448L375.921 44.0824H380.138L380.019 44.2024ZM382.989 56.9297C383.346 56.9297 383.702 56.8096 384.118 56.6896C384.534 56.5695 384.831 56.4494 385.068 56.3294C385.9 56.0892 386.315 55.9692 386.375 55.9692C386.672 55.9692 386.969 56.1493 387.088 56.4494C387.206 56.7496 387.444 57.3499 387.682 58.1904C387.8 58.8508 387.979 59.4511 388.157 59.9914C388.335 60.5318 388.454 60.892 388.513 61.0721C388.513 61.2522 388.632 61.4923 388.751 61.7925C388.87 62.0926 388.929 62.3328 388.988 62.5729C388.988 62.753 389.107 63.1132 389.285 63.6535C389.464 64.1938 389.582 64.7942 389.701 65.3945C389.939 65.9348 390.117 66.4151 390.176 66.8354C390.236 67.2556 390.295 67.4357 390.295 67.4957C390.295 67.7359 389.226 67.976 387.088 68.2762C386.375 68.2762 385.721 68.3962 385.128 68.5163C384.534 68.6364 383.999 68.6964 383.643 68.6964C383.346 68.6964 383.049 68.8165 382.752 68.8765C382.455 68.9366 382.276 68.9966 382.158 68.9966C382.039 69.1167 381.92 69.0566 381.92 68.9366C381.92 68.8165 381.861 68.4563 381.742 67.976C381.564 66.4151 381.267 64.7942 380.851 62.9932C380.435 61.1921 380.019 59.8113 379.544 58.7908C379.544 58.6707 379.544 58.4906 379.425 58.0704L379.366 57.9503C379.366 57.9503 379.366 57.8302 379.307 57.8302C379.425 57.8302 379.96 57.6501 380.791 57.47C381.623 57.2899 382.395 57.1098 383.108 56.9897L382.989 56.9297ZM396.71 55.4889C396.71 55.4889 397.007 55.3688 397.542 55.3088L399.502 55.0686C400.274 55.0686 400.927 54.9486 401.462 54.8885C401.996 54.8285 402.293 54.7685 402.353 54.7685C402.353 54.7685 402.472 54.7084 402.65 54.7084C402.65 54.7084 402.887 54.6484 403.303 54.6484H404.135L404.551 56.0292C404.788 56.8697 405.026 57.7702 405.323 58.6107C405.62 59.4511 405.857 60.3517 406.095 61.1321C406.333 61.9125 406.511 62.5729 406.689 63.1733C406.867 63.7736 406.927 64.1938 406.986 64.494C407.105 64.9743 407.045 65.2745 406.808 65.3945C406.57 65.5146 405.857 65.5746 404.729 65.6347C404.254 65.6347 403.719 65.6347 403.006 65.8148C402.293 65.9949 401.759 65.9949 401.284 66.0549C400.69 66.235 400.096 66.3551 399.502 66.3551C399.145 66.3551 398.908 66.295 398.789 66.1149C398.67 65.9348 398.67 65.7547 398.67 65.3945C398.67 64.7342 398.551 64.0137 398.433 63.1733C398.314 62.3328 398.195 61.4923 397.957 60.6518C397.72 59.8113 397.601 58.9709 397.363 58.1304C397.126 57.2899 396.948 56.6295 396.71 56.0292C396.532 55.8491 396.532 55.669 396.71 55.4889ZM413.817 65.7547C413.817 65.7547 414.054 65.2144 414.351 64.7942C414.648 64.374 414.826 64.0738 414.945 63.8937C415.183 63.4734 415.48 62.9932 415.836 62.3928C416.193 61.7925 416.549 61.1921 416.965 60.5318C417.381 59.8714 417.737 59.211 418.212 58.6107L419.4 56.8096C419.4 56.8096 419.697 56.4494 419.935 56.0892C420.172 55.729 420.529 55.2487 420.885 54.7685C421.241 54.2882 421.538 53.8079 421.835 53.3877C422.132 52.9674 422.251 52.7273 422.311 52.6072C422.311 52.7273 422.548 52.8474 422.964 53.0275C423.38 53.2076 423.855 53.5077 424.33 53.8679C424.568 54.0481 424.805 54.2282 425.043 54.3482C425.28 54.4683 425.459 54.6484 425.577 54.7685C425.696 54.8885 425.756 54.9486 425.874 54.9486C425.993 54.9486 426.112 55.0086 426.171 55.1287C426.171 55.1287 426.409 55.3088 426.706 55.4889C427.003 55.669 427.359 55.8491 427.656 56.0892C427.953 56.3294 428.31 56.5095 428.607 56.6896C428.904 56.8697 429.023 56.9897 429.082 57.0498C428.963 57.3499 428.844 57.8302 428.547 58.4306C428.25 59.0309 428.013 59.6312 427.775 60.2316C427.538 60.8319 427.181 61.4323 426.884 61.9726C426.587 62.5129 426.35 62.9331 426.171 63.2333C425.874 63.5935 425.577 64.0738 425.221 64.6141C424.865 65.1544 424.508 65.6947 424.152 66.175C424.152 66.295 423.974 66.5352 423.677 66.9554C423.38 67.3757 423.142 67.8559 422.786 68.3362C422.429 68.8165 422.192 69.2367 421.895 69.657C421.598 70.0772 421.479 70.1973 421.36 70.1973C421.063 70.1973 420.588 70.0172 419.994 69.777C419.4 69.5369 418.747 69.2367 418.093 68.9366L416.193 67.976C415.599 67.6758 415.123 67.4357 414.886 67.2556C414.292 66.8954 413.935 66.5952 413.757 66.4752C413.579 66.3551 413.638 66.1149 413.757 65.9348L413.817 65.7547Z" fill="#FF5F17"/>
<path d="M460.028 102.136C460.206 100.935 460.385 99.9143 460.503 98.9538C460.622 97.9932 460.8 97.1527 460.919 96.2522C461.038 95.7119 461.097 94.9915 461.157 94.2711C461.216 93.5507 461.335 92.8303 461.454 92.1699C461.454 91.8097 461.513 91.5095 461.573 91.2694C461.632 91.0292 461.573 90.8491 461.573 90.609C461.573 90.4889 461.632 90.4289 461.632 90.3088C461.632 90.1888 461.632 90.1287 461.691 90.0087L462.939 90.4289C463.295 90.549 463.77 90.7291 464.246 90.8491C464.721 90.9692 465.196 91.0893 465.552 91.1493C466.681 91.2694 467.334 91.3894 467.512 91.6296C467.691 91.8697 467.75 92.29 467.631 93.0104C467.512 94.2711 467.453 95.5318 467.334 96.7325C467.215 97.9332 467.097 99.0138 466.978 100.034C466.859 101.055 466.681 101.895 466.503 102.616C466.324 103.336 466.206 103.877 466.027 104.177L465.79 104.597L464.543 104.177C463.533 103.757 462.701 103.456 462.107 103.216C461.513 102.976 460.979 102.856 460.563 102.676C460.266 102.676 460.028 102.556 459.969 102.496C459.909 102.436 459.85 102.256 459.85 102.016L460.028 102.136ZM460.86 63.0532C461.573 61.7925 462.285 60.4117 462.998 58.8508C463.711 57.29 464.483 55.7291 465.196 54.1081C465.909 52.4872 466.621 50.8062 467.275 49.0653C467.928 47.3243 468.582 45.6433 469.116 43.9023C469.294 43.1819 469.473 42.5815 469.651 42.1013C469.829 41.621 469.948 41.3809 470.007 41.3809C470.185 41.5009 470.482 41.621 470.957 41.8011C471.433 41.9812 471.67 42.1013 471.848 42.2213L473.452 43.0018C474.046 43.302 474.581 43.5421 474.997 43.6622C476.184 44.0224 476.838 44.3826 476.957 44.6827C477.075 44.9829 477.075 45.6433 476.838 46.6038C476.66 47.3243 476.422 48.1047 476.125 48.8851C475.828 49.6656 475.472 50.5061 475.056 51.4066C474.64 52.3071 474.106 53.3277 473.512 54.4083C472.918 55.4889 472.205 56.7496 471.433 58.1905C470.482 59.8114 470.185 60.7119 470.363 60.892C470.363 61.0121 470.66 61.1321 471.314 61.1321C471.611 61.1321 471.789 61.1321 471.967 61.0121C472.145 60.892 472.324 60.7719 472.561 60.5318C473.036 60.0515 473.571 59.2711 474.165 58.1905C474.759 57.1098 475.472 55.7291 476.303 54.1682C476.778 53.2076 477.194 52.4272 477.551 51.8268C477.907 51.2265 478.145 50.8663 478.204 50.8663C478.917 50.9863 479.867 51.2865 480.936 51.8268C482.005 52.3671 482.837 52.9074 483.49 53.3877C483.847 53.6879 484.144 53.928 484.381 54.1081C484.619 54.2882 484.678 54.5884 484.678 54.9486C484.678 55.3088 484.5 55.7891 484.263 56.4495C484.025 57.1098 483.609 57.9503 483.015 59.0309C482.481 60.0515 481.768 61.4323 480.877 63.1733C479.986 64.9143 478.976 66.7153 477.907 68.5164C476.838 70.3174 475.769 72.0584 474.759 73.6793C473.749 75.3002 472.799 76.4409 472.086 77.2213C471.908 77.4014 471.73 77.5815 471.611 77.7617C471.492 77.9418 471.492 78.0618 471.611 78.0618C471.73 78.0618 471.967 78.0618 472.442 78.0018C472.918 77.9418 473.393 77.8817 473.987 77.8217C474.581 77.7617 475.056 77.7016 475.531 77.5815C476.006 77.4615 476.303 77.4615 476.481 77.4014L477.016 77.2814L476.6 75.7805C476.244 74.88 476.066 74.2797 476.125 74.0395C476.184 73.7994 476.422 73.5592 476.838 73.4992C477.135 73.4992 477.491 73.3791 477.966 73.2591C478.442 73.139 478.917 73.0189 479.333 72.7788C480.402 72.3586 481.115 72.1184 481.471 72.1184C481.827 72.1184 482.124 72.2385 482.243 72.5387C482.481 72.9589 482.718 73.5592 482.896 74.2797C483.075 75.0001 483.312 75.7805 483.55 76.561C483.787 77.3414 483.966 78.1219 484.084 78.8423C484.203 79.5627 484.381 80.2231 484.441 80.6433C484.56 81.3637 484.678 82.0241 484.797 82.6244C484.916 83.2248 485.035 83.705 485.094 84.0052L485.332 85.0858L483.431 85.8663C482.302 86.3466 481.471 86.6467 480.877 86.7668C480.283 86.8869 479.867 86.8869 479.63 86.7668C479.63 86.6467 479.451 86.4066 479.273 86.1064C479.095 85.8062 478.976 85.446 478.917 85.0258C478.62 84.3054 478.442 83.8852 478.323 83.7651C478.204 83.645 478.026 83.645 477.729 83.7651C476.6 83.8852 476.244 84.0653 476.6 84.4855C476.6 84.6056 476.6 85.6261 476.719 87.4272C476.838 89.2282 476.838 91.4495 476.897 94.031C476.897 95.2917 476.897 96.5524 476.897 97.7531C476.897 98.9538 476.897 100.094 476.957 101.055C477.016 102.016 476.957 102.856 477.016 103.576C477.075 104.297 477.016 104.777 477.016 105.077C477.135 105.798 477.194 106.338 477.254 106.638C477.313 106.938 477.254 107.118 476.957 107.178C476.838 107.178 476.541 107.299 476.066 107.359C475.591 107.419 474.937 107.539 474.284 107.599C473.512 107.599 472.739 107.719 472.027 107.779C471.314 107.839 470.779 107.899 470.363 107.899L469.116 108.139V105.738C468.997 104.537 468.938 103.096 468.879 101.295C468.819 99.4941 468.76 97.4529 468.76 95.0515C468.76 92.6502 468.641 90.7891 468.641 89.3483C468.641 87.9075 468.641 87.0069 468.7 86.4666L468.819 85.386L465.552 85.5061H462.404L462.048 83.8852C461.929 83.4049 461.751 82.9246 461.573 82.3843C461.394 81.844 461.276 81.4237 461.097 81.0635L460.563 79.8629L461.216 79.2025C461.216 79.2025 461.691 78.7222 461.988 78.302C462.285 77.8817 462.642 77.4014 462.998 76.9212C463.295 76.3809 463.652 75.7805 464.067 75.1201C464.483 74.4598 464.839 73.9795 465.196 73.5592C465.552 73.139 465.909 72.6587 466.265 72.0584C466.621 71.458 466.918 71.0378 467.156 70.7376C467.334 70.3774 467.572 70.0172 467.809 69.597C468.047 69.1767 468.225 68.8766 468.463 68.6364C468.879 67.916 468.997 67.4958 468.879 67.3757C468.76 67.2556 468.166 67.1956 467.215 67.2556C466.74 67.2556 466.265 67.2556 465.671 67.3757C465.077 67.4958 464.661 67.5558 464.364 67.6159C463.949 67.6159 463.592 67.6159 463.236 67.6159C462.879 67.6159 462.701 67.6159 462.523 67.6159C462.523 67.4958 462.285 67.3157 462.048 66.9555L461.097 65.6948L460.028 64.0138L460.563 63.1733L460.86 63.0532ZM478.56 91.0292C478.917 90.9092 479.154 90.9092 479.214 90.9092C479.451 90.9092 479.689 90.8491 479.927 90.7891C480.164 90.7291 480.402 90.7291 480.699 90.609C481.411 90.4289 482.124 90.3088 482.837 90.3088C483.253 90.3088 483.55 90.3689 483.609 90.549C483.669 90.7291 483.787 90.9692 483.847 91.3294C483.966 91.6896 484.025 92.29 484.144 93.0104C484.263 93.7308 484.381 94.5713 484.441 95.3517C484.5 96.1322 484.619 96.9726 484.678 97.693C484.738 98.4135 484.797 98.9538 484.797 99.2539V100.395L482.718 100.815C482.184 100.935 481.649 101.055 481.174 101.175C480.699 101.295 480.402 101.415 480.224 101.415C479.986 101.415 479.867 101.415 479.748 101.415C479.63 101.415 479.63 101.175 479.63 100.815C479.63 100.575 479.511 100.154 479.392 99.4941C479.273 98.8337 479.154 98.1133 478.917 97.3328C478.798 96.3723 478.679 95.5318 478.56 94.7514C478.442 93.9709 478.382 93.3105 478.382 92.7702V91.5695C478.382 91.2694 478.382 91.0893 478.501 91.0893L478.56 91.0292ZM486.104 60.952C486.817 60.5918 487.767 59.9915 488.836 59.151C489.905 58.3105 491.034 57.41 492.044 56.4495C493.053 55.4889 494.063 54.5284 494.895 53.6279C495.726 52.7273 496.261 51.8869 496.499 51.2865C496.499 51.2865 496.499 51.2265 496.439 51.1665C496.38 51.1064 496.083 51.1665 495.667 51.1665C495.251 51.1665 494.598 51.1665 493.766 51.2265C492.935 51.2865 491.747 51.3466 490.262 51.4666C489.905 51.4666 489.549 51.4666 489.193 51.4666C488.836 51.4666 488.539 51.4666 488.302 51.4666H487.529C487.529 51.4666 487.351 51.1064 487.351 50.386C487.351 49.6656 487.292 48.7651 487.173 47.6845C487.173 46.1236 487.114 45.103 487.114 44.6227C487.114 44.1424 487.173 43.8423 487.351 43.8423C487.47 43.8423 487.886 43.8423 488.717 43.8423C489.549 43.8423 490.678 43.8423 492.162 43.8423C493.647 43.8423 495.37 43.8423 497.39 43.8423C499.409 43.8423 501.607 43.8423 504.042 43.8423C508.378 43.8423 511.823 43.8423 514.377 43.8423C516.931 43.8423 518.595 43.9023 519.367 44.0224C520.852 44.1424 521.505 44.5627 521.267 45.2831C521.386 45.7634 521.446 46.4838 521.446 47.4443C521.446 48.4049 521.446 49.6656 521.564 51.1665C521.683 52.6673 521.564 53.9881 521.564 55.1287C521.564 56.2694 521.386 57.2299 521.327 58.0104C521.327 58.7308 521.267 59.3912 521.089 59.8714C520.911 60.3517 520.614 60.7719 520.198 61.0721C519.782 61.3723 519.188 61.6124 518.476 61.7925C517.763 61.9726 516.813 62.0927 515.684 62.2728C513.664 62.573 512.001 62.693 510.695 62.7531C509.388 62.8131 508.616 62.7531 508.497 62.5129C508.497 62.3929 508.497 62.1527 508.438 61.7325C508.378 61.3122 508.378 60.7719 508.378 60.1716V58.1304L509.566 57.8903C510.101 57.7702 510.635 57.7102 511.229 57.5901C511.823 57.4701 512.417 57.4701 512.892 57.4701C512.892 57.4701 512.892 57.0498 512.892 56.3894C512.892 55.7291 512.952 54.9486 513.071 54.0481V50.7462L511.883 50.8663C511.467 50.8663 510.932 50.8663 510.338 50.8663C509.744 50.8663 509.091 50.8663 508.497 50.8663H506.418L505.646 52.4872C505.349 53.1476 504.933 53.928 504.339 54.8285C503.745 55.7291 503.092 56.6296 502.379 57.5901C501.666 58.5507 500.953 59.3311 500.241 60.1716C499.528 61.0121 498.993 61.6124 498.518 62.0927C498.221 62.2728 497.924 62.5129 497.508 62.8131L496.32 63.6536C495.905 63.9538 495.548 64.1939 495.192 64.374C494.835 64.5541 494.598 64.7342 494.42 64.8543C494.717 64.9743 497.865 65.0344 503.864 65.0944C506.953 65.0944 509.625 65.1544 512.001 65.2145C514.377 65.2745 516.456 65.2145 518.179 65.2145L523.109 65.0944V65.5147L523.168 67.796C523.168 68.3363 523.109 69.1767 523.109 70.3174C523.109 71.458 523.109 72.5987 522.99 73.7393C522.99 76.561 522.99 78.9623 522.871 80.8834C522.752 82.8045 522.634 84.4855 522.396 85.7462C522.277 86.7068 522.158 87.3671 522.099 87.6673C522.04 87.9675 521.921 88.0876 521.743 88.0876C521.624 88.0876 521.089 88.0876 520.258 88.1476C519.426 88.2076 518.476 88.2677 517.347 88.2677C516.219 88.2677 515.209 88.2677 514.377 88.3277C513.546 88.3877 513.011 88.4478 512.833 88.4478C512.655 88.4478 511.823 88.4478 510.398 88.5078C508.972 88.5678 507.19 88.5678 505.111 88.5678C503.092 88.5678 501.429 88.6879 500.003 88.6879C498.577 88.6879 497.865 88.7479 497.746 88.7479C497.746 88.7479 497.746 89.3483 497.746 90.3689C497.746 91.3894 497.746 92.6502 497.746 94.091C497.746 95.2917 497.686 96.1922 497.686 96.8526C497.686 97.5129 497.686 98.0532 497.686 98.4735C497.686 98.8937 497.686 99.1339 497.805 99.314C497.924 99.4941 497.924 99.6141 497.924 99.6742C498.043 99.6742 498.399 99.7942 498.874 99.9143C499.35 100.034 499.944 100.094 500.597 100.214C501.25 100.335 501.963 100.395 502.676 100.515C503.389 100.635 504.042 100.695 504.636 100.755C505.171 100.755 505.883 100.755 506.893 100.635C507.903 100.515 508.853 100.455 509.922 100.335C510.992 100.214 512.001 100.094 512.952 99.9743C513.902 99.8543 514.674 99.7942 515.09 99.7342C516.575 99.434 517.466 99.0138 517.763 98.4735C517.763 98.3534 517.763 98.0532 517.882 97.693C518.001 97.3328 518.001 96.8526 518.001 96.3123C517.882 95.5918 517.882 95.1116 518.001 94.9315C518.119 94.7514 518.238 94.6313 518.476 94.5713C518.595 94.5713 518.891 94.5713 519.367 94.5112C519.842 94.4512 520.436 94.4512 521.089 94.3912C521.743 94.3311 522.337 94.3912 522.871 94.2711C523.406 94.151 523.881 94.2111 524.119 94.2111C524.119 94.2111 524.237 94.3912 524.356 94.6913C524.475 94.9915 524.594 95.2917 524.712 95.6519C524.831 96.0121 524.95 96.4323 525.069 96.9126C525.188 97.3929 525.247 97.7531 525.306 98.1133C525.425 99.1339 525.425 100.335 525.306 101.715C525.188 103.096 524.891 104.177 524.534 104.897C524.237 105.978 523.643 106.818 522.871 107.359C522.099 107.899 520.852 108.439 519.07 108.859C518.119 109.1 517.347 109.28 516.694 109.4C516.04 109.52 515.387 109.64 514.734 109.7C514.08 109.76 513.486 109.82 512.833 109.88C512.18 109.94 511.407 109.94 510.457 109.94C509.388 109.94 508.497 109.88 507.784 109.88C507.071 109.88 506.715 109.88 506.656 109.76C506.537 109.76 506.121 109.76 505.349 109.64C504.577 109.52 503.686 109.52 502.676 109.52C501.547 109.52 500.538 109.4 499.528 109.28C498.518 109.16 497.865 109.1 497.449 109.04C497.093 108.919 496.617 108.859 496.083 108.739C495.548 108.619 495.014 108.559 494.598 108.439C492.044 108.139 490.381 106.818 489.49 104.657C488.955 103.997 488.717 102.556 488.658 100.275C488.658 99.0738 488.599 97.2128 488.539 94.6313C488.48 92.0498 488.539 88.6279 488.539 84.3654L488.658 67.9761L487.886 68.0961C487.589 68.2162 487.351 68.2162 487.232 68.0961C487.114 67.9761 486.995 67.7359 486.757 67.3157L485.51 64.374C485.213 63.7136 485.035 63.1733 484.857 62.8131C484.678 62.4529 484.619 62.1527 484.56 62.0327C484.56 62.0327 484.857 61.8526 485.332 61.6124L486.163 61.1922L486.104 60.952ZM497.33 80.6433C497.33 80.6433 497.686 80.6433 498.221 80.7033C498.756 80.7634 499.468 80.7634 500.241 80.7634L502.795 81.0035V71.5781H496.974V76.0207C496.974 77.7016 496.974 78.9023 497.033 79.6227C497.093 80.3431 497.152 80.7033 497.33 80.7033V80.6433ZM511.17 80.5833H512.298C512.714 80.5833 513.071 80.5833 513.427 80.5232C513.783 80.4632 514.021 80.4632 514.199 80.4632C514.496 80.4632 514.674 80.2831 514.734 80.103C514.793 79.9229 514.852 79.4426 514.852 78.7822C514.971 78.302 515.031 77.6416 515.031 76.7411C515.031 75.8406 515.031 74.94 515.031 74.0395V70.8577H514.318C514.318 70.8577 513.783 70.9177 513.427 70.9177H512.298L511.17 71.0378V80.5232V80.5833Z" fill="#FF5F17"/>
<path d="M533.622 47.5042C533.622 47.5042 534.097 47.204 534.394 47.0239C534.691 46.8438 534.929 46.6637 535.226 46.4236C535.82 46.1234 536.235 45.9433 536.473 45.9433C536.592 45.9433 536.829 46.1234 537.126 46.4836C537.423 46.8438 537.78 47.2641 538.077 47.8044C538.374 48.3447 538.73 48.7649 539.027 49.1851C539.324 49.6054 539.502 49.9656 539.68 50.1457C539.799 50.2658 539.859 50.4459 539.977 50.686C540.096 50.9261 540.215 51.0462 540.334 51.2263L540.631 51.9467L540.156 52.3069L539.443 52.8472C539.443 52.8472 538.908 53.2675 538.73 53.4476C538.195 53.9879 537.898 54.228 537.78 54.228C537.483 53.9879 536.473 52.7272 534.869 50.4459C534.572 49.9056 534.216 49.4853 533.919 49.0651C533.622 48.6448 533.384 48.4047 533.384 48.3447C533.087 48.0445 533.206 47.7443 533.681 47.5642L533.622 47.5042ZM533.325 58.4304L533.562 55.909L535.523 55.7889C536.889 55.7889 538.136 55.6689 539.324 55.5488C540.512 55.4287 541.225 55.3086 541.462 55.1886C541.462 55.1886 541.462 54.5282 541.462 53.3275C541.462 52.1268 541.522 50.626 541.641 48.885C541.641 47.0839 541.759 45.5231 541.759 44.3224C541.759 43.1217 541.878 42.4613 541.878 42.3412C541.997 42.3412 542.294 42.3412 542.829 42.2212C543.363 42.1011 544.016 42.0411 544.789 41.921C545.561 41.921 546.274 41.921 546.927 41.8009C547.58 41.6809 547.996 41.6809 548.293 41.6809H549.006V42.7615C549.006 43.3018 548.887 44.5025 548.768 46.3035C548.649 48.1045 548.531 50.2057 548.412 52.6071V54.7683H551.679V52.8472C551.857 52.367 551.916 51.5265 551.916 50.3258C551.916 49.1251 551.916 47.8644 551.916 46.4836V42.0411H552.867C552.867 42.0411 553.58 41.8009 554.233 41.8009C554.886 41.8009 555.54 41.8009 556.252 41.8009L558.569 41.5608L558.688 44.0822V49.7855C558.688 50.686 558.688 51.5265 558.688 52.2469C558.688 52.9673 558.747 53.5076 558.866 53.8078V54.6483H560.767C561.955 54.5282 562.667 54.5882 562.905 54.8884C563.143 55.1886 563.321 55.849 563.321 56.9896C563.44 57.5299 563.499 58.0702 563.499 58.5505C563.499 59.0308 563.499 59.391 563.499 59.5711L563.618 60.4116L561.955 60.5316C558.866 60.6517 555.837 60.7117 552.867 60.8318C549.897 60.9519 546.452 61.0119 542.532 61.0119C539.859 61.0119 537.661 61.0119 535.938 61.0119C534.216 61.0119 533.265 61.0119 533.206 61.0119V58.4905L533.325 58.4304ZM534.691 98.8936L535.76 98.6534C535.76 98.6534 536.473 98.4733 537.067 98.4133C537.661 98.3532 538.255 98.2932 538.849 98.2332C540.037 98.1131 541.225 97.933 542.413 97.6929C543.601 97.4527 544.432 97.2726 545.086 97.0325C545.501 96.7924 545.739 96.5522 545.739 96.252C545.858 95.9519 545.858 95.2915 545.858 94.451C545.858 93.6105 545.858 92.7701 545.739 92.0496V91.1491H541.344L536.829 91.2092V83.7649H537.364C537.364 83.7649 538.136 84.005 538.908 84.005C539.68 84.005 540.928 84.1251 542.71 84.2452C543.125 84.2452 543.541 84.2452 544.016 84.3052C544.492 84.3653 544.729 84.4253 544.907 84.4253H545.383C545.383 84.4253 545.561 84.3653 545.68 84.1852C545.68 84.1852 545.68 83.885 545.68 83.4047C545.68 82.9244 545.68 82.3241 545.68 81.6637V79.2623H541.106L536.414 79.3224L536.176 77.8215C536.176 77.4013 536.176 76.981 536.176 76.5608C536.176 76.1406 536.117 75.7803 535.998 75.4802V72.2383H551.382V71.8181C551.382 71.8181 551.441 71.4579 551.619 71.2177C551.798 70.9776 551.857 70.7375 551.976 70.5574C552.154 70.2572 552.392 69.837 552.748 69.1766C553.104 68.5162 553.401 67.8558 553.698 67.1954C554.352 66.0548 554.886 65.1543 555.243 64.3738L556.015 62.8129C556.015 62.8129 556.252 62.8129 556.371 62.8129C556.49 62.8129 556.728 62.933 557.084 63.0531C557.381 63.1731 557.678 63.3532 558.034 63.5333C558.391 63.7135 558.807 63.8335 559.163 64.0136C559.519 64.1937 559.935 64.2538 560.291 64.3738C560.648 64.4939 560.945 64.5539 561.182 64.5539C561.479 64.734 561.717 64.8541 562.014 64.9742C562.133 65.0942 562.192 65.2143 562.192 65.4544C562.192 65.6946 562.014 66.1148 561.836 66.8352C561.717 67.2555 561.539 67.7357 561.301 68.216C561.064 68.6963 560.885 69.1165 560.707 69.3567C560.291 70.0171 559.994 70.4973 559.816 70.8575C559.638 71.2177 559.579 71.3978 559.697 71.5179C559.697 71.5179 559.638 71.5779 559.46 71.5779C559.222 71.698 559.46 71.758 560.232 71.8781C561.004 71.9982 561.776 71.9982 562.608 71.9982H564.093V77.8215H559.519C558.272 77.8215 557.203 77.8815 556.312 77.8815H554.946C554.946 77.8815 554.827 78.3018 554.827 78.7821C554.827 79.2623 554.708 79.8627 554.708 80.7032C554.708 81.5436 554.649 82.144 554.589 82.6243C554.53 83.1045 554.589 83.4047 554.589 83.5848C554.708 83.5848 555.124 83.5848 555.896 83.7049C556.668 83.8249 557.619 83.885 558.806 83.945C559.876 83.945 560.767 84.0651 561.539 84.1251C562.311 84.1852 562.727 84.2452 562.786 84.2452C562.786 85.1457 562.846 85.8661 562.846 86.4064V88.0874C562.846 88.6277 562.846 89.0479 562.786 89.3481V89.8884H554.649L554.411 92.65V95.5917C554.411 95.5917 554.827 95.5917 555.421 95.5316C556.015 95.4716 556.846 95.2915 557.916 95.0514C558.45 94.9313 558.985 94.7512 559.638 94.6311C560.291 94.5111 560.945 94.391 561.717 94.2709C563.321 94.0308 564.152 93.9707 564.212 93.9707C564.331 94.0908 564.568 95.4716 565.043 98.0531C565.221 99.4339 565.221 100.394 565.043 100.815C564.865 101.235 564.331 101.535 563.321 101.715C562.905 101.835 562.252 102.015 561.42 102.255C560.588 102.496 559.697 102.736 558.747 102.916C557.797 103.096 556.906 103.336 556.074 103.456C555.243 103.576 554.53 103.696 554.114 103.696C552.867 103.876 551.798 104.057 550.907 104.177C550.016 104.297 549.125 104.477 548.293 104.597C547.343 104.837 546.214 105.077 544.789 105.317C543.363 105.557 541.997 105.737 540.571 105.798C540.096 105.798 539.621 105.918 539.086 105.978C538.552 106.038 538.136 106.158 537.78 106.218C536.948 106.218 536.473 106.218 536.295 106.098C536.295 106.098 536.176 105.737 535.998 105.137C535.82 104.537 535.701 103.876 535.582 103.156C535.463 102.436 535.344 101.715 535.226 101.055C535.107 100.394 535.047 99.9141 535.047 99.674L534.81 98.8335L534.691 98.8936ZM539.443 65.4544L541.462 65.0342C542.116 64.9141 542.71 64.7941 543.244 64.674C543.779 64.5539 544.195 64.4339 544.492 64.1937C544.789 64.0136 545.204 63.8936 545.68 63.8936C545.977 63.8936 546.214 64.0737 546.333 64.3738C546.452 64.674 546.63 65.2743 546.868 66.0548C547.224 67.6757 547.462 68.7563 547.58 69.1766C547.699 69.5968 547.699 69.837 547.64 69.837C547.462 69.837 547.046 69.957 546.452 70.0771C545.858 70.1972 545.204 70.3172 544.492 70.4373C543.779 70.5574 543.125 70.6774 542.532 70.7375C541.938 70.7975 541.462 70.8575 541.225 70.8575C541.047 70.8575 540.928 70.5574 540.928 70.0171C540.928 69.7169 540.809 69.2966 540.631 68.7563C540.453 68.216 540.156 67.3155 539.74 66.1749L539.383 65.3944L539.443 65.4544ZM559.994 50.5059C559.994 50.5059 560.113 50.0857 560.351 49.4253C560.588 48.7649 560.885 48.1646 561.123 47.4442C561.361 46.7237 561.658 46.0634 561.895 45.463C562.133 44.8627 562.252 44.5625 562.252 44.5025C562.37 44.3824 562.43 44.2023 562.489 44.0822C562.549 43.9622 562.608 43.8421 562.667 43.8421C562.786 43.8421 563.083 44.0222 563.618 44.3224C564.152 44.6225 564.687 44.8627 565.281 45.1028C565.875 45.343 566.647 45.7632 567.657 46.2435C567.776 46.5436 567.597 47.0839 567.182 47.9845C566.766 48.885 566.291 49.7255 565.697 50.4459C565.34 50.8661 565.043 51.2263 564.806 51.5865L564.33 52.3069C564.33 52.3069 564.331 52.487 564.212 52.6071L564.093 52.7272C563.38 52.427 562.786 52.1268 562.37 51.9467C561.955 51.7666 561.539 51.5265 561.182 51.4064C560.826 51.2863 560.588 51.1663 560.529 51.1062C560.113 50.9862 559.876 50.8661 559.816 50.8061C559.757 50.746 559.816 50.626 559.935 50.5059H559.994ZM568.429 60.1714H580.962L581.199 59.3309V42.4013L581.734 42.2812H584.645C585.239 42.4013 585.892 42.4013 586.605 42.4013H589.337V49.8455C589.159 51.9467 589.099 53.8078 589.099 55.3086C589.099 56.8095 589.099 57.8301 589.099 58.1903V58.7906C589.099 58.7906 589.099 59.1508 589.159 59.2709C589.278 59.391 589.812 59.511 590.644 59.6311L593.138 59.9313C593.673 59.9313 593.97 59.9313 594.089 59.9313C594.208 59.9313 594.326 60.0514 594.326 60.1714V61.4321C594.326 61.9725 594.326 62.5728 594.386 63.3532C594.386 65.0342 594.386 65.9347 594.326 66.0548C594.326 66.0548 594.089 66.1749 593.614 66.1749C593.138 66.1749 592.485 66.1749 591.653 66.1148C590.466 66.1148 589.693 66.1148 589.396 66.1749C589.099 66.2349 588.921 66.355 588.921 66.5351C588.921 67.2555 588.802 68.9364 588.802 71.5779C588.802 74.2195 588.684 77.9416 588.684 82.6243C588.684 87.3069 588.624 91.2692 588.565 94.391C588.505 97.5128 588.565 99.9742 588.565 101.595V104.297C588.565 104.957 588.565 105.437 588.505 105.798C588.446 106.158 588.446 106.338 588.387 106.458C588.327 106.578 588.327 106.578 588.208 106.578C588.09 106.698 587.852 106.758 587.496 106.818C587.139 106.878 586.783 106.998 586.367 107.118C585.714 107.238 584.942 107.358 584.11 107.478C583.278 107.599 582.269 107.719 581.081 107.839C578.764 108.079 577.457 108.139 577.16 108.079C577.16 108.079 577.042 107.779 576.863 107.238C576.685 106.698 576.566 106.038 576.448 105.257C576.329 104.537 576.151 103.816 575.972 103.096C575.794 102.376 575.675 101.835 575.616 101.475C575.497 101.175 575.438 100.935 575.438 100.695C575.438 100.454 575.438 100.334 575.438 100.334C575.438 100.334 575.676 100.214 576.151 100.214C576.626 100.214 577.16 100.094 577.754 100.094C578.111 99.9742 578.467 99.9742 578.705 99.9742C578.942 99.9742 579.18 99.9742 579.358 99.9141H580.012C580.19 98.4133 580.368 96.9124 580.487 95.4716C580.605 94.0308 580.665 92.5299 580.724 91.0291V67.5556H574.785C572.824 67.6757 571.399 67.6757 570.448 67.6157C569.498 67.5556 569.023 67.4956 569.023 67.4956C569.142 67.3755 569.142 67.0754 569.082 66.5951C569.023 66.1148 568.964 65.4544 568.964 64.7941C568.845 64.0737 568.785 63.4133 568.726 62.8129C568.667 62.2126 568.607 61.7323 568.607 61.4321V60.4716L568.429 60.1714ZM569.676 75.9604C569.676 75.9604 570.033 75.7203 570.567 75.5402C571.102 75.3601 571.577 75.18 572.171 74.9999C572.765 74.8198 573.3 74.6997 573.834 74.5196C574.369 74.3395 574.725 74.2795 574.903 74.2795C575.2 74.2795 575.378 74.3996 575.438 74.5797C575.497 74.7598 575.616 75.12 575.675 75.5402C575.794 76.5008 576.091 77.8815 576.448 79.6225C576.804 81.3635 577.279 83.2246 577.814 85.2057C577.933 85.8061 578.051 86.3464 578.17 86.8267C578.289 87.3069 578.348 87.5471 578.348 87.6071C578.23 87.7272 578.111 87.7872 577.992 87.9073C577.873 88.0273 577.636 88.0874 577.398 88.1474C576.685 88.2675 575.913 88.3876 575.26 88.6277C574.606 88.8678 573.894 89.0479 573.181 89.2881C573.062 89.2881 573.003 89.228 573.003 89.0479C573.003 88.8678 572.943 88.7478 572.824 88.5677C572.824 88.0273 572.646 87.367 572.468 86.5865C572.29 85.8061 572.052 84.9056 571.815 83.885C571.577 82.8644 571.28 81.8438 570.983 80.7632C570.686 79.6826 570.389 78.602 570.033 77.5814C569.914 77.1011 569.795 76.7409 569.736 76.3807C569.676 76.0205 569.676 75.8404 569.676 75.8404V75.9604Z" fill="#FF5F17"/>
<path d="M606.147 82.0241C606.681 82.0241 607.81 82.1442 609.413 82.1442C611.017 82.1442 612.74 82.2042 614.581 82.2042H621.115L621.887 80.8234C622.837 79.0224 623.491 77.7617 623.847 77.0413C624.204 76.3208 624.56 75.9006 624.797 75.9006C624.797 75.9006 624.916 75.9006 625.094 75.8406C625.273 75.7805 625.391 75.7805 625.51 75.7805C625.629 75.9006 625.867 75.9606 626.223 75.9606C626.579 75.9606 626.876 76.0207 627.173 76.1407C627.292 76.1407 627.589 76.1407 628.064 76.3208C628.54 76.5009 628.955 76.561 629.43 76.681C629.906 76.8011 630.381 76.9812 630.856 77.1013C631.331 77.2214 631.628 77.3414 631.747 77.4015C631.747 77.4015 632.044 77.4015 632.519 77.5215L632.638 77.5816C632.638 77.5816 632.757 77.5816 632.757 77.6416C632.876 77.7617 632.876 78.0018 632.757 78.2419C632.638 78.4821 632.579 78.7822 632.46 79.1425C632.341 79.5027 632.222 79.8028 632.103 80.043C631.985 80.2831 631.925 80.4632 631.925 80.5232C632.044 80.5232 632.935 80.5833 634.658 80.5833C636.38 80.5833 638.578 80.5833 641.251 80.5232C643.033 80.4032 644.221 80.3431 644.755 80.2231C645.29 80.103 645.587 79.8629 645.646 79.4426C645.646 79.3226 645.646 79.2025 645.765 79.1425C645.884 79.0824 646.062 79.0224 646.418 78.9623C646.775 78.9023 647.19 78.9023 647.844 78.8423C648.497 78.7822 649.269 78.8423 650.339 78.8423C651.586 78.7222 652.714 78.6021 653.665 78.6021H655.15C655.15 78.6021 655.506 79.0824 655.506 79.7428V80.8234H656.219C656.219 80.8234 656.932 80.9435 657.763 80.9435C658.595 80.9435 659.486 80.9435 660.555 81.0035L663.941 81.1236L664.178 88.0876H663.762C663.762 88.0876 662.99 88.0876 661.862 88.0876C660.733 88.0876 659.367 88.0876 657.704 88.0876C656.457 88.0876 655.447 88.2076 654.675 88.2076C653.902 88.2076 653.308 88.2677 652.893 88.3277C652.477 88.3877 652.18 88.3277 652.002 88.4478C651.823 88.5678 651.764 88.5678 651.764 88.6879C651.645 88.808 651.527 89.0481 651.408 89.3483C651.289 89.6485 651.051 90.0087 650.814 90.3689C650.339 91.0893 649.863 91.8697 649.269 92.7102C648.675 93.5507 648.081 94.2111 647.487 94.8714L646.656 95.7119L647.844 96.3723C648.26 96.4924 648.854 96.7325 649.626 97.0327C650.398 97.3329 651.289 97.633 652.18 97.9332C653.724 98.4135 655.209 98.8937 656.694 99.434C658.179 99.9744 659.486 100.455 660.793 100.935L662.099 101.415V102.076C661.862 102.616 661.743 103.276 661.505 103.997C661.268 104.717 661.09 105.437 660.852 106.158C660.614 106.878 660.436 107.479 660.199 108.079C659.961 108.679 659.783 109.04 659.545 109.28C659.426 109.64 659.248 109.64 658.832 109.28C658.595 109.28 658.357 109.16 658.179 109.16C658.001 109.16 657.823 109.1 657.644 109.1C657.466 109.1 657.229 109.04 656.754 108.859C656.278 108.679 655.744 108.559 655.15 108.319C654.556 108.079 653.902 107.899 653.249 107.659C652.596 107.419 651.942 107.178 651.408 106.938C650.754 106.698 649.863 106.398 648.735 105.978C647.606 105.558 646.181 105.017 644.458 104.417C642.736 103.817 641.369 103.336 640.36 103.036C639.35 102.736 638.697 102.556 638.4 102.436C638.103 102.436 637.806 102.496 637.449 102.676C637.093 102.856 636.677 103.096 636.142 103.456C634.895 104.417 633.529 105.197 631.985 105.798C630.44 106.398 628.896 106.998 627.292 107.419C625.688 107.839 624.085 108.259 622.481 108.559C620.877 108.859 619.274 109.1 617.729 109.28C615.947 109.52 614.581 109.7 613.571 109.82C612.562 109.94 611.908 110 611.611 109.94C611.433 109.7 611.195 109.34 610.958 108.799C610.72 108.259 610.423 107.599 610.186 106.698C609.532 104.777 609.235 103.757 609.295 103.696C609.413 103.696 609.651 103.576 610.067 103.516C610.483 103.456 611.077 103.336 611.73 103.276C612.443 103.276 613.096 103.156 613.809 103.036C614.522 102.916 615.056 102.796 615.472 102.676C616.066 102.556 616.838 102.316 617.789 102.016C618.739 101.715 619.808 101.415 620.996 101.055C622.184 100.695 623.194 100.395 623.966 100.154C624.738 99.9143 625.332 99.7342 625.629 99.6742L626.282 99.434L625.332 99.0138C625.332 99.0138 624.56 98.7737 623.847 98.6536C623.134 98.5335 622.362 98.4135 621.531 98.3534C619.749 98.0533 618.323 97.8131 617.373 97.573C616.422 97.3329 615.769 97.0927 615.472 96.8526L614.997 96.4323L616.125 93.6708C616.482 92.9503 616.838 92.1699 617.076 91.5095C617.313 90.8491 617.551 90.2488 617.729 89.8886L618.145 88.808H617.61C617.61 88.808 616.838 88.808 615.71 88.868C614.581 88.928 613.156 88.9881 611.492 89.1682C609.889 89.1682 608.463 89.2883 607.335 89.3483C606.206 89.4083 605.493 89.4684 605.315 89.4684C605.137 89.4684 604.959 89.4684 604.84 89.4684C604.721 89.4684 604.662 89.2882 604.602 88.9881C604.543 88.6879 604.543 88.2076 604.483 87.4872C604.424 86.7668 604.483 85.8063 604.483 84.5455V81.784L606.206 81.904L606.147 82.0241ZM619.214 43.1819C620.996 43.1819 622.659 43.1819 624.203 43.1819C625.748 43.1819 627.173 43.1819 628.421 43.1219C629.668 43.0618 630.737 43.1219 631.569 43.0618C632.4 43.0018 632.935 43.0618 633.232 43.0618C633.767 42.9418 634.717 42.8817 636.083 42.8817C637.449 42.8817 638.934 42.8817 640.538 42.8817C644.102 42.7617 648.438 42.6416 653.546 42.6416C658.714 42.7617 661.565 42.8217 662.159 42.8817C662.159 43.0018 662.218 43.302 662.218 43.7823C662.218 44.2625 662.218 44.8629 662.278 45.7034C662.337 46.5438 662.278 47.1442 662.278 47.6244C662.278 48.1047 662.277 48.4049 662.159 48.585C662.159 48.585 661.387 48.585 659.902 48.585C658.417 48.585 656.694 48.645 654.615 48.7651H647.25L647.131 51.3466C647.131 52.4272 647.131 53.1476 647.19 53.5078C647.25 53.868 647.309 54.0481 647.309 54.0481C647.428 54.0481 648.141 54.1082 649.388 54.1082C650.636 54.1082 652.18 54.1082 653.962 54.2282H658.714C660.08 54.2282 660.911 54.2282 661.208 54.2883L662.04 54.4083L661.802 64.374C661.802 67.1956 661.802 69.597 661.743 71.5181C661.684 73.4392 661.624 74.5198 661.624 74.6399H661.149C661.149 74.6399 660.614 74.6999 660.02 74.6999C659.545 74.82 659.07 74.88 658.595 74.88C658.12 74.88 657.704 74.9401 657.288 75.0601C655.922 75.1802 652.774 75.3003 647.903 75.3003C645.409 75.3003 643.151 75.3603 641.132 75.3603C639.112 75.3603 637.271 75.3003 635.549 75.1202C634.361 75.0001 633.173 74.9401 632.044 74.9401C630.915 74.9401 629.787 74.9401 628.718 74.9401C627.649 74.9401 626.104 75.0601 624.144 75.1802C622.184 75.3003 619.689 75.4203 616.779 75.5404C615.65 75.6605 614.462 75.7205 613.215 75.7205C611.968 75.7205 610.958 75.7805 610.126 75.9006H607.394V55.4889L613.868 55.2488H621.115L622.006 55.3689V52.4272C621.946 51.5867 621.946 50.8663 621.946 50.326C621.946 49.7857 621.946 49.4255 621.828 49.3654C621.828 49.3654 621.055 49.3654 619.689 49.4255C618.323 49.4855 616.541 49.5455 614.462 49.5455C612.383 49.6656 610.661 49.7256 609.295 49.7256C607.928 49.7256 607.156 49.7256 607.038 49.7256C607.038 49.7256 607.038 49.3654 606.978 48.7051C606.919 48.0447 606.919 47.3243 606.919 46.4838V43.1819L619.155 43.1219L619.214 43.1819ZM617.076 68.9967L618.977 69.1167C619.511 69.1167 620.046 69.1768 620.521 69.1768H622.481L622.54 65.5747V61.9726H617.135V65.5147L617.076 68.9366V68.9967ZM626.876 91.5095C626.876 91.5095 627.411 91.6296 628.243 91.8697C629.074 92.1099 630.203 92.41 631.45 92.7702L635.905 93.8509L636.677 93.3106C637.509 92.7102 638.4 91.9298 639.35 90.9692C640.3 90.0087 641.013 89.1682 641.488 88.3877C641.488 88.2677 641.488 88.2076 641.369 88.2076C641.251 88.2076 641.072 88.2076 640.716 88.2076C640.419 88.2076 639.647 88.2076 638.34 88.2076C637.033 88.2076 635.489 88.2677 633.767 88.3877L627.589 88.6279L627.173 89.9486C626.876 90.9092 626.817 91.4495 626.876 91.5696V91.5095ZM631.094 67.7359C631.094 67.7359 631.331 67.9761 631.747 68.0361C632.163 68.0961 633.291 68.1562 635.133 68.1562H638.875L639.112 61.1322H636.618C635.905 61.1322 635.192 61.1922 634.479 61.1922H632.757C632.341 61.1922 632.044 61.1922 631.806 61.2522C631.569 61.3123 631.391 61.4323 631.331 61.6124C631.272 61.7925 631.153 62.0927 631.153 62.513C631.153 62.9332 631.153 63.5335 631.153 64.314C631.153 64.9744 631.153 65.5147 631.094 65.9949C631.034 66.4752 631.034 66.7154 631.034 66.8955V67.3157C631.034 67.3157 631.034 67.6159 631.153 67.7359H631.094ZM631.331 54.2282C631.331 54.2282 631.806 54.4083 632.579 54.4083C633.351 54.4083 634.182 54.4083 635.251 54.4083H638.994V48.9452H635.489C634.539 48.9452 633.707 48.9452 632.994 49.0052C632.282 49.0653 631.866 49.0653 631.747 49.0653C631.569 49.3654 631.45 50.266 631.391 51.5867C631.391 52.3071 631.331 52.8474 631.272 53.2677C631.212 53.6879 631.272 53.9881 631.272 54.1682L631.331 54.2282ZM647.012 68.0961H647.666C647.666 68.0961 648.438 68.3363 649.091 68.3363C649.745 68.3363 650.457 68.3363 651.23 68.3363L653.962 68.5764L654.081 67.2557C654.081 66.8955 654.199 66.3551 654.199 65.6347C654.199 64.9143 654.259 64.254 654.259 63.5335L654.496 61.1322H652.239C651.645 61.1322 650.992 61.1322 650.339 61.0721C649.685 61.0121 649.091 61.0121 648.675 61.0121C648.438 61.0121 648.26 60.9521 648.081 60.9521H647.19C647.19 60.9521 647.19 61.3723 647.19 62.0327C647.19 62.6931 647.19 63.5936 647.19 64.6142L647.072 68.1562L647.012 68.0961Z" fill="#FF5F17"/>
<path d="M675.761 83.645C675.761 83.645 676.058 83.4649 676.355 83.2848C676.652 83.1047 677.067 82.9246 677.602 82.7445C679.265 81.9641 680.988 80.8835 682.71 79.6227C684.433 78.362 685.858 76.9812 686.928 75.6605C687.462 75.0001 687.937 74.3397 688.412 73.7394C688.888 73.139 689.303 72.5387 689.66 71.9984C690.016 71.4581 690.313 71.0378 690.551 70.6776C690.788 70.3174 690.907 70.1373 690.907 70.0773H688.828C687.581 70.0773 686.334 70.1974 685.146 70.1974C683.958 70.1974 682.888 70.3174 681.938 70.3174C680.988 70.3174 680.156 70.3775 679.443 70.4375C678.731 70.4975 678.315 70.4375 678.077 70.4375H677.424V67.916C677.364 67.1356 677.364 66.3552 677.364 65.6347C677.364 64.9143 677.364 64.314 677.246 63.8937V62.513C677.899 62.513 678.968 62.573 680.513 62.7531C681.998 62.8732 682.888 62.9932 683.245 62.9932C683.482 63.1133 684.136 63.1733 685.264 63.1733C686.393 63.1733 687.7 63.1733 689.303 63.1733L694.887 63.2934L695.303 61.9126C695.421 61.4924 695.54 61.1322 695.659 60.772C695.778 60.4118 695.837 60.1716 695.956 60.0516V59.5713H694.293C693.758 59.4512 692.808 59.4512 691.501 59.4512H682.532V58.7908C682.532 58.7908 682.294 58.2505 682.294 57.6502C682.294 57.0498 682.294 56.4495 682.294 55.8492V53.6879H684.195C685.146 53.808 686.274 53.868 687.581 53.9281C688.888 53.9881 690.491 53.9881 692.333 53.9881H696.491C697.5 53.9881 698.154 53.9881 698.391 53.9281C698.51 53.6879 698.569 53.3877 698.688 53.0275L698.985 51.8869C699.104 51.5267 699.163 51.1665 699.223 50.8663C699.282 50.5661 699.282 50.326 699.282 50.2059C699.282 50.2059 698.332 50.2059 696.609 50.2059C694.887 50.2059 692.214 50.326 688.591 50.4461C687.462 50.5661 686.393 50.6262 685.443 50.6862C684.492 50.7462 683.72 50.8063 683.304 50.8063H681.938L681.819 48.4649C681.819 47.7445 681.76 47.0841 681.76 46.3637V43.6622H687.818C689.185 43.6622 690.491 43.6622 691.62 43.6622C692.749 43.6622 693.877 43.6622 694.887 43.6022C695.897 43.5421 696.966 43.5421 698.035 43.4821C699.104 43.422 700.233 43.302 701.421 43.2419C702.312 43.1219 703.321 43.0618 704.45 43.0018C705.578 42.9418 706.766 42.8817 707.954 42.7617C709.142 42.6416 710.39 42.6416 711.578 42.5816C712.766 42.5215 713.894 42.4615 714.963 42.4615C717.458 42.4615 719.775 42.3414 721.972 42.1613C724.17 41.9812 725.774 41.8612 726.902 41.7411C727.437 41.621 727.912 41.561 728.268 41.501C728.625 41.4409 728.922 41.4409 729.159 41.4409C729.694 41.4409 729.932 41.561 729.932 41.8011C729.932 41.9212 729.932 42.2814 729.991 42.8217C730.05 43.362 730.169 43.9624 730.347 44.6828C730.466 45.2831 730.585 45.8234 730.644 46.3037C730.704 46.784 730.763 47.0241 730.763 47.0841C730.407 47.2042 729.575 47.3843 728.387 47.6245C727.199 47.8646 725.477 48.1047 723.338 48.525C721.081 48.8852 719.121 49.1853 717.458 49.4255C715.795 49.6656 714.251 49.7857 712.884 49.7857H710.33L709.796 51.9469C709.677 52.4872 709.558 53.0275 709.439 53.4478C709.32 53.868 709.321 54.1082 709.38 54.2282C709.499 54.2282 710.093 54.3483 711.221 54.3483C712.35 54.3483 713.835 54.4083 715.557 54.4083H718.527C719.596 54.4083 720.665 54.4083 721.735 54.4083C722.804 54.4083 723.873 54.4083 724.942 54.4083H727.734L733.792 54.5284V60.5318H729.635C728.447 60.5318 727.259 60.5318 726.071 60.5318C724.883 60.5318 723.873 60.4718 723.16 60.3517C722.507 60.3517 721.853 60.3517 721.141 60.2917C720.428 60.2317 719.656 60.1716 718.824 60.1116C717.993 60.0516 716.983 59.9915 715.914 59.9315C714.845 59.8714 713.538 59.8714 712.112 59.8714C709.855 59.7514 708.43 59.6913 707.836 59.7514C707.242 59.8114 706.945 59.9915 707.063 60.2917C707.063 60.2917 707.004 60.5318 706.826 60.892C706.648 61.2522 706.529 61.6124 706.291 62.0327C706.113 62.573 705.935 62.9332 705.816 63.2334C705.697 63.5335 705.578 63.6536 705.578 63.7136C705.697 63.7136 706.172 63.8337 707.004 63.8337C707.836 63.8337 708.786 63.8937 709.974 63.9538C711.162 64.0138 712.409 63.9538 713.716 64.0138C715.023 64.0739 716.329 64.0138 717.517 64.0739C718.705 64.1339 719.774 64.0739 720.665 64.0739H722.447C723.932 64.0739 725.358 64.1339 726.665 64.1939C727.971 64.254 729.219 64.1939 730.347 64.254C731.476 64.314 732.426 64.254 733.258 64.254H734.98L737.119 64.374V67.1956L737.237 70.0773L723.517 70.3174H706.113L702.43 70.0773L701.718 71.5781C701.183 72.2385 700.945 72.7188 700.945 73.079C700.767 73.1991 701.361 73.3191 702.846 73.3792C703.559 73.3792 704.628 73.4392 706.172 73.4992C707.717 73.5593 709.677 73.4992 711.993 73.4992C725.774 73.4992 732.783 73.6793 733.02 73.9195V75.0001C733.02 75.6605 733.02 76.561 733.02 77.6416C733.02 78.7222 733.02 80.043 733.02 81.5438V86.4066C733.02 89.2282 733.02 91.6896 733.02 93.8509C733.02 96.0121 733.02 97.8131 732.961 99.4341C732.901 101.055 732.901 102.316 732.783 103.396C732.664 104.477 732.545 105.437 732.426 106.218V107.058H730.466C726.724 107.299 723.041 107.479 719.418 107.599C715.795 107.719 712.112 107.779 708.37 107.779C706.885 107.899 705.578 107.959 704.45 107.959C703.321 107.959 702.609 107.959 702.371 107.959C702.074 107.959 701.421 107.959 700.292 108.079C699.163 108.199 697.916 108.199 696.491 108.199C694.412 108.319 692.986 108.319 692.214 108.259C691.442 108.199 691.085 108.139 691.085 108.139C691.085 108.139 691.026 107.779 690.967 107.178C690.907 106.578 690.967 105.738 690.907 104.717C690.848 103.696 690.907 102.496 690.907 101.115V85.6262L689.838 86.1064C689.244 86.4066 688.769 86.7068 688.353 87.067C688.116 87.3071 687.64 87.6673 686.868 88.2076C686.096 88.7479 685.324 89.2883 684.433 89.8286C683.542 90.3689 682.71 90.8492 681.879 91.2694C681.047 91.6896 680.453 91.9298 680.097 91.9298C679.8 91.9298 679.443 91.6296 679.206 91.0893C676.949 86.5267 675.88 84.1253 675.939 83.7651L675.761 83.645ZM700.054 97.8131V99.5541C700.114 100.094 700.173 100.515 700.173 100.875C700.173 101.235 700.233 101.415 700.233 101.475C700.233 101.475 701.183 101.475 703.024 101.475C704.866 101.475 707.063 101.415 709.677 101.295C712.469 101.295 714.904 101.175 717.042 101.175C719.181 101.175 720.606 101.055 721.259 101.055H723.338V97.513H721.141C720.487 97.513 719.596 97.513 718.587 97.513C717.577 97.513 716.329 97.513 715.023 97.573C713.716 97.633 712.231 97.573 710.687 97.6931L699.995 97.8131H700.054ZM700.114 80.163C700.114 80.163 700.114 80.6433 700.173 80.9435C700.233 81.2437 700.233 81.6639 700.233 82.0241V83.1648H708.014C710.271 83.1648 712.409 83.1047 714.607 83.1047H719.537L723.22 82.9847V81.6639C723.22 81.2437 723.22 80.8835 723.16 80.5233C723.101 80.163 723.101 79.9229 723.101 79.8629C723.101 79.7428 722.507 79.6227 721.2 79.5627C720.487 79.5627 719.359 79.5627 717.755 79.5627C716.151 79.5627 714.072 79.5627 711.518 79.4426H700.114V80.2231V80.163ZM705.697 92.2299C706.469 92.2299 707.36 92.2299 708.311 92.2299C709.261 92.2299 710.271 92.2299 711.281 92.2299C712.29 92.2299 713.3 92.2299 714.369 92.2299C715.438 92.2299 716.329 92.2299 717.22 92.2299L723.457 91.9898V88.5678H721.853C721.438 88.5678 720.606 88.5678 719.299 88.5678C717.993 88.5678 716.626 88.6279 715.141 88.748H712.766C711.875 88.748 710.984 88.748 710.093 88.748C709.202 88.748 708.311 88.748 707.42 88.748H700.292V92.35H705.638L705.697 92.2299Z" fill="#FF5F17"/>
</g>
<g opacity="0.9">
<path d="M780.293 46.1324L784.903 60.7124C785.333 62.0524 786.383 63.1124 787.723 63.5324L802.303 68.1424C806.333 69.4224 806.333 75.1224 802.303 76.4024L787.723 81.0124C786.383 81.4424 785.323 82.4924 784.903 83.8324L780.293 98.4124C779.013 102.442 773.313 102.442 772.033 98.4124L767.423 83.8324C766.993 82.4924 765.943 81.4324 764.603 81.0124L750.023 76.4024C745.992 75.1224 745.992 69.4224 750.023 68.1424L764.603 63.5324C765.943 63.1024 767.003 62.0524 767.423 60.7124L772.033 46.1324C773.313 42.1024 779.013 42.1024 780.293 46.1324Z" fill="#39BF63"/>
<path d="M828.483 44.1524L824.983 50.8924C824.663 51.5124 824.663 52.2524 824.983 52.8724L828.483 59.6124C829.453 61.4724 827.443 63.4824 825.583 62.5124L818.843 59.0124C818.223 58.6924 817.483 58.6924 816.863 59.0124L810.123 62.5124C808.263 63.4824 806.253 61.4724 807.223 59.6124L810.723 52.8724C811.043 52.2524 811.043 51.5124 810.723 50.8924L807.223 44.1524C806.253 42.2924 808.263 40.2824 810.123 41.2524L816.863 44.7524C817.483 45.0724 818.223 45.0724 818.843 44.7524L825.583 41.2524C827.443 40.2824 829.453 42.2924 828.483 44.1524Z" fill="#39BF63"/>
</g>
<path d="M66.5457 97.2099L66.4957 97.1799C66.4657 97.2699 66.4257 97.3499 66.5457 97.2099Z" fill="#39BF63"/>
<path d="M160.836 4.01L157.876 4.5C156.886 4.67 155.916 4.88 154.936 5.07L149.036 6.25L148.296 6.4L147.566 6.57L146.096 6.92L143.156 7.61L140.216 8.31L139.476 8.49L138.746 8.69L137.286 9.09L131.426 10.69C129.486 11.26 127.556 11.88 125.606 12.47L122.686 13.38L119.796 14.38L116.906 15.38C115.946 15.72 114.966 16.04 114.016 16.41L108.276 18.61C107.306 18.97 106.376 19.38 105.426 19.77L102.576 20.96C101.626 21.37 100.666 21.74 99.7259 22.18L96.9059 23.46L94.0859 24.75C93.6159 24.96 93.1459 25.19 92.6859 25.42L91.2959 26.11C83.8359 29.74 76.4959 33.78 69.3559 38.27C66.2459 40.22 63.1759 42.26 60.1459 44.39L57.8759 36.42C55.9059 29.51 46.2159 29.22 43.8459 36.01L35.2859 60.55C34.4959 62.81 32.6559 64.55 30.3459 65.21L5.34585 72.32C-1.56415 74.29 -1.85415 83.98 4.93585 86.35L29.4759 94.91C31.7359 95.7 33.4759 97.54 34.1359 99.85L41.2459 124.85C43.2159 131.76 52.9059 132.05 55.2759 125.26L63.8359 100.72C64.3359 99.28 65.2659 98.06 66.4659 97.19H66.4759C66.4759 97.19 66.4759 97.19 66.4759 97.18C67.1559 96.69 67.9259 96.31 68.7559 96.07L93.7559 88.96C100.666 86.99 100.956 77.3 94.1659 74.93L84.4759 71.55C86.4359 69.3 88.4659 67.08 90.5559 64.91C100.556 54.52 111.936 45.08 124.266 36.67C125.026 36.12 125.816 35.63 126.596 35.12L128.946 33.59L131.306 32.06L133.716 30.61C135.326 29.65 136.926 28.65 138.556 27.71L143.506 24.95L144.746 24.26L145.366 23.91L145.996 23.59L148.526 22.29L151.056 20.99L152.326 20.34L152.966 20.01L153.606 19.71L158.776 17.27C159.646 16.87 160.506 16.44 161.376 16.06L164.006 14.93C178.056 8.83 192.796 3.85 207.966 0C192.326 0.1 176.546 1.39 160.796 4.05L160.836 4.01Z" fill="#39BF63"/>
<defs>
<clipPath id="clip0_179_161">
<rect width="578" height="70" fill="white" transform="translate(159 40)"/>
</clipPath>
</defs>
</svg>
