<svg width="522" height="111" viewBox="0 0 522 111" fill="none" xmlns="http://www.w3.org/2000/svg">
<path d="M0 6H65C81.5685 6 95 19.4315 95 36V104H0V6Z" fill="#FF5F17"/>
<path d="M108 6H171C187.569 6 201 19.4315 201 36V104H108V6Z" fill="#39BF63"/>
<path d="M214 6H278C294.569 6 308 19.4315 308 36V104H214V6Z" fill="#FF5F17"/>
<path d="M321 6H384C400.569 6 414 19.4315 414 36V104H321V6Z" fill="#39BF63"/>
<path d="M427 7H492C508.569 7 522 20.4315 522 37V105H427V7Z" fill="#FF5F17"/>
<path d="M38.675 59.45H47.975V92.75H38.675V59.45ZM31.1 50.225V54.95H53.525V50.225H31.1ZM22.475 43.925H62.675V61.25H22.475V43.925ZM15.275 65.75H65.75V73.775H24.425V89.375H15.275V65.75ZM61.475 65.75H70.775V81.2C70.775 83.25 70.5 84.875 69.95 86.075C69.45 87.275 68.45 88.225 66.95 88.925C65.4 89.525 63.6 89.875 61.55 89.975C59.5 90.125 57.15 90.2 54.5 90.2C54.3 89 53.9 87.625 53.3 86.075C52.75 84.525 52.175 83.175 51.575 82.025C52.675 82.075 53.8 82.125 54.95 82.175C56.15 82.175 57.2 82.175 58.1 82.175C59.05 82.175 59.675 82.175 59.975 82.175C60.575 82.175 60.975 82.1 61.175 81.95C61.375 81.8 61.475 81.5 61.475 81.05V65.75ZM37.775 22.175H47.075V36.05H37.775V22.175ZM10.325 32.525H75.05V50.675H66.05V40.325H18.95V50.675H10.325V32.525ZM16.25 25.925L24.5 22.7C25.55 23.9 26.575 25.25 27.575 26.75C28.625 28.25 29.4 29.6 29.9 30.8L21.35 34.55C20.9 33.35 20.2 31.95 19.25 30.35C18.3 28.7 17.3 27.225 16.25 25.925ZM60.125 22.85L69.875 25.7C68.525 27.3 67.2 28.8 65.9 30.2C64.6 31.6 63.425 32.8 62.375 33.8L54.725 31.1C55.375 30.3 56.025 29.425 56.675 28.475C57.375 27.475 58.025 26.5 58.625 25.55C59.275 24.55 59.775 23.65 60.125 22.85ZM139.325 44.375V49.025H170.75V44.375H139.325ZM139.325 56.375V61.1H170.75V56.375H139.325ZM139.325 32.45V37.1H170.75V32.45H139.325ZM130.625 24.65H179.9V68.9H130.625V24.65ZM158.45 62.9H167.675V80.825C167.675 82.025 167.85 82.8 168.2 83.15C168.6 83.45 169.5 83.6 170.9 83.6C171.2 83.6 171.675 83.6 172.325 83.6C173.025 83.6 173.8 83.6 174.65 83.6C175.5 83.6 176.3 83.6 177.05 83.6C177.8 83.6 178.375 83.6 178.775 83.6C179.625 83.6 180.275 83.375 180.725 82.925C181.175 82.475 181.5 81.525 181.7 80.075C181.9 78.625 182.05 76.425 182.15 73.475C182.8 73.975 183.6 74.475 184.55 74.975C185.55 75.475 186.575 75.9 187.625 76.25C188.725 76.6 189.65 76.9 190.4 77.15C190.1 81.1 189.575 84.15 188.825 86.3C188.075 88.5 186.975 90.025 185.525 90.875C184.075 91.725 182.1 92.15 179.6 92.15C179.2 92.15 178.65 92.15 177.95 92.15C177.3 92.15 176.575 92.15 175.775 92.15C174.975 92.15 174.15 92.15 173.3 92.15C172.5 92.15 171.775 92.15 171.125 92.15C170.475 92.15 169.975 92.15 169.625 92.15C166.675 92.15 164.375 91.8 162.725 91.1C161.125 90.4 160 89.225 159.35 87.575C158.75 85.925 158.45 83.7 158.45 80.9V62.9ZM140.15 65.975H149.75C149.45 69.375 148.9 72.5 148.1 75.35C147.35 78.15 146.1 80.675 144.35 82.925C142.65 85.175 140.225 87.125 137.075 88.775C133.925 90.475 129.825 91.9 124.775 93.05C124.525 92.2 124.1 91.275 123.5 90.275C122.95 89.325 122.325 88.35 121.625 87.35C120.975 86.4 120.325 85.625 119.675 85.025C124.025 84.225 127.5 83.25 130.1 82.1C132.7 80.9 134.675 79.525 136.025 77.975C137.425 76.425 138.4 74.675 138.95 72.725C139.5 70.725 139.9 68.475 140.15 65.975ZM258.706 64.5085H269.814L275.398 71.6925L280.891 78.0916L291.245 91.071H279.05L271.926 82.3175L268.274 77.1257L258.706 64.5085ZM292.18 55.0909C292.18 61.8321 290.903 67.5672 288.347 72.2962C285.811 77.0251 282.35 80.6372 277.963 83.1325C273.597 85.6076 268.687 86.8452 263.233 86.8452C257.74 86.8452 252.81 85.5975 248.443 83.1023C244.076 80.607 240.625 76.9949 238.089 72.266C235.554 67.537 234.286 61.812 234.286 55.0909C234.286 48.3497 235.554 42.6146 238.089 37.8857C240.625 33.1567 244.076 29.5547 248.443 27.0795C252.81 24.5843 257.74 23.3366 263.233 23.3366C268.687 23.3366 273.597 24.5843 277.963 27.0795C282.35 29.5547 285.811 33.1567 288.347 37.8857C290.903 42.6146 292.18 48.3497 292.18 55.0909ZM278.929 55.0909C278.929 50.7242 278.275 47.0417 276.967 44.0433C275.679 41.045 273.858 38.7711 271.504 37.2216C269.15 35.6721 266.393 34.8974 263.233 34.8974C260.074 34.8974 257.317 35.6721 254.963 37.2216C252.608 38.7711 250.777 41.045 249.469 44.0433C248.181 47.0417 247.537 50.7242 247.537 55.0909C247.537 59.4576 248.181 63.1402 249.469 66.1385C250.777 69.1368 252.608 71.4107 254.963 72.9602C257.317 74.5097 260.074 75.2844 263.233 75.2844C266.393 75.2844 269.15 74.5097 271.504 72.9602C273.858 71.4107 275.679 69.1368 276.967 66.1385C278.275 63.1402 278.929 59.4576 278.929 55.0909ZM363.077 86.9055C358.811 86.9055 355.128 86.1409 352.029 84.6115C348.93 83.0821 346.545 81.0095 344.875 78.3935C343.225 75.7573 342.4 72.8194 342.4 69.5795C342.4 67.1648 342.883 65.0217 343.849 63.1502C344.815 61.2788 346.163 59.5582 347.894 57.9886C349.624 56.3989 351.637 54.8192 353.931 53.2496L365.914 45.3714C367.463 44.3854 368.6 43.3491 369.325 42.2624C370.049 41.1557 370.411 39.9583 370.411 38.6705C370.411 37.4429 369.918 36.306 368.932 35.2596C367.946 34.2132 366.548 33.7 364.737 33.7202C363.529 33.7202 362.483 33.9918 361.598 34.5352C360.712 35.0584 360.018 35.7526 359.515 36.6179C359.032 37.4631 358.79 38.4089 358.79 39.4553C358.79 40.7431 359.153 42.0511 359.877 43.3793C360.601 44.7074 361.567 46.116 362.775 47.6051C363.982 49.0741 365.3 50.6638 366.729 52.3743L396.038 86H382.636L358.187 58.7734C356.577 56.9422 354.967 55.0305 353.357 53.0384C351.767 51.026 350.439 48.893 349.373 46.6392C348.306 44.3653 347.773 41.9002 347.773 39.244C347.773 36.2456 348.467 33.5491 349.856 31.1545C351.264 28.7598 353.236 26.8683 355.772 25.4798C358.307 24.0711 361.266 23.3668 364.646 23.3668C367.946 23.3668 370.794 24.041 373.188 25.3892C375.603 26.7173 377.455 28.4882 378.742 30.7017C380.05 32.8951 380.704 35.3099 380.704 37.946C380.704 40.8639 379.98 43.5101 378.531 45.8846C377.102 48.239 375.09 50.3519 372.494 52.2234L359.877 61.3089C358.167 62.5566 356.899 63.8344 356.074 65.1424C355.269 66.4303 354.866 67.6679 354.866 68.8551C354.866 70.3241 355.229 71.6422 355.953 72.8093C356.677 73.9764 357.704 74.9021 359.032 75.5863C360.36 76.2504 361.92 76.5824 363.71 76.5824C365.884 76.5824 368.027 76.0894 370.14 75.1033C372.273 74.0972 374.205 72.6785 375.935 70.8473C377.686 68.996 379.085 66.8026 380.131 64.267C381.177 61.7315 381.701 58.9244 381.701 55.8455H392.356C392.356 59.6287 391.943 63.0395 391.118 66.0781C390.293 69.0966 389.146 71.7327 387.677 73.9865C386.208 76.2202 384.528 78.0514 382.636 79.4801C382.033 79.8625 381.449 80.2247 380.886 80.5668C380.322 80.9089 379.739 81.2711 379.135 81.6534C376.841 83.5047 374.275 84.8429 371.438 85.668C368.621 86.493 365.833 86.9055 363.077 86.9055ZM454.793 86H440.787L462.128 24.1818H478.971L500.281 86H486.275L470.791 38.3082H470.308L454.793 86ZM453.917 61.7013H487V71.9038H453.917V61.7013Z" fill="white"/>
</svg>
