<svg width="599" height="136" viewBox="0 0 599 136" fill="none" xmlns="http://www.w3.org/2000/svg">
<path d="M44 6H109C125.569 6 139 19.4315 139 36V104H44V6Z" fill="#FF5F17"/>
<path d="M152 6H215C231.569 6 245 19.4315 245 36V104H152V6Z" fill="#39BF63"/>
<path d="M258 6H322C338.569 6 352 19.4315 352 36V104H258V6Z" fill="#FF5F17"/>
<path d="M365 6H428C444.569 6 458 19.4315 458 36V104H365V6Z" fill="#39BF63"/>
<path d="M471 7H536C552.569 7 566 20.4315 566 37V105H471V7Z" fill="#FF5F17"/>
<path d="M84.5007 59.45H93.8007V92.75H84.5007V59.45ZM76.9257 50.3V54.95H99.2757V50.3H76.9257ZM68.3007 43.925H108.501V61.325H68.3007V43.925ZM61.1007 65.825H111.576V73.85H70.1757V89.45H61.1007V65.825ZM107.301 65.825H116.526V81.275C116.526 85.325 115.701 87.65 112.701 88.925C109.701 90.2 105.651 90.275 100.251 90.275C99.8007 87.8 98.5257 84.35 97.3257 82.1C100.701 82.25 104.751 82.25 105.801 82.25C106.926 82.175 107.301 81.95 107.301 81.125V65.825ZM83.5257 22.25H92.8257V36.05H83.5257V22.25ZM56.0757 32.6H120.801V50.75H111.876V40.325H64.7007V50.75H56.0757V32.6ZM62.0757 26L70.2507 22.775C72.4257 25.175 74.6757 28.475 75.7257 30.8L67.1007 34.625C66.2757 32.225 64.1007 28.55 62.0757 26ZM105.951 22.85L115.626 25.775C112.926 28.925 110.226 31.85 108.126 33.8L100.551 31.1C102.426 28.775 104.676 25.325 105.951 22.85ZM185.076 44.45V49.1H216.576V44.45H185.076ZM185.076 56.45V61.1H216.576V56.45H185.076ZM185.076 32.525V37.175H216.576V32.525H185.076ZM176.376 24.65H225.726V68.975H176.376V24.65ZM204.276 62.9H213.426V80.9C213.426 83.3 213.951 83.675 216.651 83.675C217.926 83.675 222.951 83.675 224.526 83.675C227.151 83.675 227.601 82.4 227.976 73.55C229.776 75.05 233.751 76.55 236.226 77.15C235.251 89.075 232.851 92.15 225.351 92.15C223.476 92.15 217.176 92.15 215.451 92.15C206.451 92.15 204.276 89.45 204.276 80.9V62.9ZM185.901 65.975H195.576C194.301 79.625 190.776 88.475 170.526 93.05C169.776 90.65 167.376 86.975 165.501 85.025C182.901 81.8 184.926 76.025 185.901 65.975ZM304.531 64.5085H315.639L321.223 71.6925L326.717 78.0916L337.07 91.071H324.876L317.752 82.3175L314.1 77.1257L304.531 64.5085ZM338.006 55.0909C338.006 61.8321 336.728 67.5672 334.173 72.2962C331.637 77.0251 328.176 80.6372 323.789 83.1325C319.422 85.6076 314.512 86.8452 309.059 86.8452C303.565 86.8452 298.635 85.5975 294.269 83.1023C289.902 80.607 286.451 76.9949 283.915 72.266C281.38 67.537 280.112 61.812 280.112 55.0909C280.112 48.3497 281.38 42.6146 283.915 37.8857C286.451 33.1567 289.902 29.5547 294.269 27.0795C298.635 24.5843 303.565 23.3366 309.059 23.3366C314.512 23.3366 319.422 24.5843 323.789 27.0795C328.176 29.5547 331.637 33.1567 334.173 37.8857C336.728 42.6146 338.006 48.3497 338.006 55.0909ZM324.755 55.0909C324.755 50.7242 324.101 47.0417 322.793 44.0433C321.505 41.045 319.684 38.7711 317.33 37.2216C314.975 35.6721 312.218 34.8974 309.059 34.8974C305.9 34.8974 303.143 35.6721 300.788 37.2216C298.434 38.7711 296.603 41.045 295.295 44.0433C294.007 47.0417 293.363 50.7242 293.363 55.0909C293.363 59.4576 294.007 63.1402 295.295 66.1385C296.603 69.1368 298.434 71.4107 300.788 72.9602C303.143 74.5097 305.9 75.2844 309.059 75.2844C312.218 75.2844 314.975 74.5097 317.33 72.9602C319.684 71.4107 321.505 69.1368 322.793 66.1385C324.101 63.1402 324.755 59.4576 324.755 55.0909ZM408.902 86.9055C404.636 86.9055 400.954 86.1409 397.855 84.6115C394.756 83.0821 392.371 81.0095 390.701 78.3935C389.051 75.7573 388.226 72.8194 388.226 69.5795C388.226 67.1648 388.709 65.0217 389.675 63.1502C390.641 61.2788 391.989 59.5582 393.719 57.9886C395.45 56.3989 397.462 54.8192 399.756 53.2496L411.74 45.3714C413.289 44.3854 414.426 43.3491 415.151 42.2624C415.875 41.1557 416.237 39.9583 416.237 38.6705C416.237 37.4429 415.744 36.306 414.758 35.2596C413.772 34.2132 412.374 33.7 410.562 33.7202C409.355 33.7202 408.309 33.9918 407.423 34.5352C406.538 35.0584 405.844 35.7526 405.341 36.6179C404.858 37.4631 404.616 38.4089 404.616 39.4553C404.616 40.7431 404.978 42.0511 405.703 43.3793C406.427 44.7074 407.393 46.116 408.6 47.6051C409.808 49.0741 411.126 50.6638 412.555 52.3743L441.864 86H428.462L404.012 58.7734C402.403 56.9422 400.793 55.0305 399.183 53.0384C397.593 51.026 396.265 48.893 395.198 46.6392C394.132 44.3653 393.599 41.9002 393.599 39.244C393.599 36.2456 394.293 33.5491 395.681 31.1545C397.09 28.7598 399.062 26.8683 401.598 25.4798C404.133 24.0711 407.091 23.3668 410.472 23.3668C413.772 23.3668 416.62 24.041 419.014 25.3892C421.429 26.7173 423.28 28.4882 424.568 30.7017C425.876 32.8951 426.53 35.3099 426.53 37.946C426.53 40.8639 425.806 43.5101 424.357 45.8846C422.928 48.239 420.916 50.3519 418.32 52.2234L405.703 61.3089C403.992 62.5566 402.725 63.8344 401.899 65.1424C401.095 66.4303 400.692 67.6679 400.692 68.8551C400.692 70.3241 401.054 71.6422 401.779 72.8093C402.503 73.9764 403.529 74.9021 404.858 75.5863C406.186 76.2504 407.745 76.5824 409.536 76.5824C411.709 76.5824 413.853 76.0894 415.966 75.1033C418.099 74.0972 420.03 72.6785 421.761 70.8473C423.512 68.996 424.91 66.8026 425.957 64.267C427.003 61.7315 427.526 58.9244 427.526 55.8455H438.181C438.181 59.6287 437.769 63.0395 436.944 66.0781C436.119 69.0966 434.972 71.7327 433.503 73.9865C432.034 76.2202 430.354 78.0514 428.462 79.4801C427.858 79.8625 427.275 80.2247 426.711 80.5668C426.148 80.9089 425.564 81.2711 424.961 81.6534C422.667 83.5047 420.101 84.8429 417.263 85.668C414.446 86.493 411.659 86.9055 408.902 86.9055ZM500.618 86H486.613L507.953 24.1818H524.796L546.107 86H532.101L516.616 38.3082H516.133L500.618 86ZM499.743 61.7013H532.825V71.9038H499.743V61.7013Z" fill="white"/>
</svg>
