<svg width="599" height="137" viewBox="0 0 599 137" fill="none" xmlns="http://www.w3.org/2000/svg">
<path d="M90 0H155C171.569 0 185 13.4315 185 30V98H90V0Z" fill="#FF5F17"/>
<path d="M198 0H261C277.569 0 291 13.4315 291 30V98H198V0Z" fill="#39BF63"/>
<path d="M304 0H368C384.569 0 398 13.4315 398 30V98H304V0Z" fill="#FF5F17"/>
<path d="M411 0H474C490.569 0 504 13.4315 504 30V98H411V0Z" fill="#39BF63"/>
<path d="M150.85 44.3L160.525 47C151.825 67.625 135.175 78.35 112.45 83.975C111.4 81.725 108.55 77.525 106.75 75.425C128.8 71.225 144.25 62 150.85 44.3ZM126.7 31.325L136 34.925C130.6 41.9 122.2 49.1 115.15 53.525C113.425 51.575 109.825 48.125 107.575 46.475C114.7 42.95 122.35 37.175 126.7 31.325ZM133.375 44.675C140.05 61.25 154.375 71.6 177.4 75.2C175.375 77.225 172.75 81.275 171.475 83.825C147.1 79.175 133.225 67.325 124.75 47.225L133.375 44.675ZM108.7 21.95H175.225V30.8H108.7V21.95ZM137.2 13.175H146.425V27.725H137.2V13.175ZM149.125 36.05L156.55 30.575C163.15 35 172 41.675 176.35 46.55L168.325 52.775C164.5 47.975 155.875 40.85 149.125 36.05ZM230.05 42.575V70.175H221.5V50.9H211.9V42.575H230.05ZM230.05 66.65C233.05 71.675 238.225 73.775 245.95 74.075C254.875 74.525 272.725 74.3 283.075 73.475C282.1 75.5 280.75 79.625 280.3 82.25C271 82.7 255.025 82.85 245.8 82.4C236.8 82.025 230.8 79.85 226.3 74.075C222.85 77 219.325 79.925 215.05 83.075L210.925 74.15C214.45 72.125 218.65 69.425 222.25 66.65H230.05ZM212.95 20.675L219.175 14.9C223.825 18.05 229.675 22.925 232.375 26.525L225.625 32.975C223.225 29.375 217.6 24.125 212.95 20.675ZM243.325 27.875L249.025 23.075C255.7 25.4 265.15 29.45 270.25 32.375L264.1 37.7C259.525 34.85 250.225 30.575 243.325 27.875ZM236.5 32.15H274.675V38.675H244.975V71H236.5V32.15ZM270.475 32.15H279.025V63.2C279.025 66.875 278.425 68.75 275.95 69.95C273.625 71.225 270.325 71.225 265.825 71.225C265.525 69.05 264.55 66.125 263.575 64.175C265.975 64.25 268.6 64.25 269.35 64.25C270.25 64.25 270.475 63.95 270.475 63.125V32.15ZM237.175 15.8H272.95V22.625H237.175V15.8ZM241.225 42.725H273.4V48.95H241.225V42.725ZM241.225 53.225H273.4V59.75H241.225V53.225ZM253.6 35.225H261.625V70.7H253.6V35.225ZM269.725 15.8H271.75L273.55 15.35L278.875 19.7C273.55 24.65 266.125 29.975 259.225 33.275C258.175 31.775 256 29.45 254.725 28.25C260.35 25.55 266.875 20.825 269.725 17.375V15.8ZM346 16.25H375.1V24.8H346V16.25ZM345.175 41.45H368.95V49.85H345.175V41.45ZM353.35 21.95H361.9V40.925C361.9 55.175 360.55 71.675 348.1 83.825C346.675 81.875 343.6 78.8 341.5 77.45C352.225 66.875 353.35 52.85 353.35 40.85V21.95ZM370.45 16.25H379.675C378.925 41.825 379.225 72.875 382.825 73.925C383.275 74.075 383.8 68.825 383.95 63.65C385.375 65.975 387.625 69.575 388.9 70.925C387.7 82.7 383.725 85.25 378.925 83.15C369.925 79.775 370.525 48.125 370.45 16.25ZM320.275 36.35H342.925V43.1H320.275V36.35ZM320.5 15.65H342.7V22.475H320.5V15.65ZM320.275 46.55H342.925V53.375H320.275V46.55ZM316.675 25.775H345.4V32.9H316.675V25.775ZM324.175 56.975H343V79.775H324.175V72.65H335.35V64.1H324.175V56.975ZM320.125 56.975H327.7V82.775H320.125V56.975ZM440.875 62.375H449.8V73.175C449.8 75.275 450.4 75.575 454 75.575C455.575 75.575 462.325 75.575 464.35 75.575C467.2 75.575 467.725 74.75 468.1 69.2C469.9 70.475 473.725 71.825 476.125 72.275C475 81.275 472.525 83.525 465.25 83.525C463.15 83.525 454.975 83.525 452.95 83.525C443.2 83.525 440.875 81.05 440.875 73.25V62.375ZM449.2 60.65L455.8 56.225C459.775 59.225 464.35 63.575 466.45 66.95L459.4 71.75C457.525 68.525 453.1 63.875 449.2 60.65ZM472.525 64.55L479.725 59.975C484.975 64.7 490.75 71.225 493 76.325L485.2 81.35C483.175 76.475 477.775 69.575 472.525 64.55ZM429.775 60.95L437.8 63.875C435.925 70.025 433.225 76.775 428.65 81.2L421.15 75.95C425.2 72.35 428.2 66.575 429.775 60.95ZM442.075 36.05V39.8H472.45V36.05H442.075ZM442.075 46.325V50.075H472.45V46.325H442.075ZM442.075 25.85V29.6H472.45V25.85H442.075ZM433.375 19.025H481.525V56.975H433.375V19.025ZM452.35 12.5L463.3 13.85C461.575 17.45 459.625 20.525 458.35 22.775L450.025 21.125C450.925 18.5 451.9 15.05 452.35 12.5Z" fill="white"/>
</svg>
