<svg width="911" height="131" viewBox="0 0 911 131" fill="none" xmlns="http://www.w3.org/2000/svg">
<g opacity="0.9">
<path d="M862.062 46.1324L866.672 60.7124C867.102 62.0524 868.152 63.1124 869.492 63.5324L884.072 68.1424C888.102 69.4224 888.102 75.1224 884.072 76.4024L869.492 81.0124C868.152 81.4424 867.092 82.4924 866.672 83.8324L862.062 98.4124C860.782 102.442 855.082 102.442 853.802 98.4124L849.192 83.8324C848.762 82.4924 847.712 81.4324 846.372 81.0124L831.792 76.4024C827.762 75.1224 827.762 69.4224 831.792 68.1424L846.372 63.5324C847.712 63.1024 848.772 62.0524 849.192 60.7124L853.802 46.1324C855.082 42.1024 860.782 42.1024 862.062 46.1324Z" fill="#39BF63"/>
<path d="M910.252 44.1524L906.752 50.8924C906.432 51.5124 906.432 52.2524 906.752 52.8724L910.252 59.6124C911.222 61.4724 909.212 63.4824 907.352 62.5124L900.612 59.0124C899.992 58.6924 899.252 58.6924 898.632 59.0124L891.892 62.5124C890.032 63.4824 888.022 61.4724 888.992 59.6124L892.492 52.8724C892.812 52.2524 892.812 51.5124 892.492 50.8924L888.992 44.1524C888.022 42.2924 890.032 40.2824 891.892 41.2524L898.632 44.7524C899.252 45.0724 899.992 45.0724 900.612 44.7524L907.352 41.2524C909.212 40.2824 911.222 42.2924 910.252 44.1524Z" fill="#39BF63"/>
</g>
<path d="M67.3152 97.2099L67.2652 97.1799C67.2352 97.2699 67.1952 97.3499 67.3152 97.2099Z" fill="#39BF63"/>
<path d="M161.605 4.01L158.645 4.5C157.655 4.67 156.685 4.88 155.705 5.07L149.805 6.25L149.065 6.4L148.335 6.57L146.865 6.92L143.925 7.61L140.985 8.31L140.245 8.49L139.515 8.69L138.055 9.09L132.195 10.69C130.255 11.26 128.325 11.88 126.375 12.47L123.455 13.38L120.565 14.38L117.675 15.38C116.715 15.72 115.735 16.04 114.785 16.41L109.045 18.61C108.075 18.97 107.145 19.38 106.195 19.77L103.345 20.96C102.395 21.37 101.435 21.74 100.495 22.18L97.6754 23.46L94.8554 24.75C94.3854 24.96 93.9154 25.19 93.4554 25.42L92.0654 26.11C84.6054 29.74 77.2654 33.78 70.1254 38.27C67.0154 40.22 63.9454 42.26 60.9154 44.39L58.6454 36.42C56.6754 29.51 46.9854 29.22 44.6154 36.01L36.0554 60.55C35.2654 62.81 33.4254 64.55 31.1154 65.21L6.11538 72.32C-0.794616 74.29 -1.08462 83.98 5.70538 86.35L30.2454 94.91C32.5054 95.7 34.2454 97.54 34.9054 99.85L42.0154 124.85C43.9854 131.76 53.6754 132.05 56.0454 125.26L64.6054 100.72C65.1054 99.28 66.0354 98.06 67.2354 97.19H67.2454C67.2454 97.19 67.2454 97.19 67.2454 97.18C67.9254 96.69 68.6954 96.31 69.5254 96.07L94.5254 88.96C101.435 86.99 101.725 77.3 94.9354 74.93L85.2454 71.55C87.2054 69.3 89.2354 67.08 91.3254 64.91C101.325 54.52 112.705 45.08 125.035 36.67C125.795 36.12 126.585 35.63 127.365 35.12L129.715 33.59L132.075 32.06L134.485 30.61C136.095 29.65 137.695 28.65 139.325 27.71L144.275 24.95L145.515 24.26L146.135 23.91L146.765 23.59L149.295 22.29L151.825 20.99L153.095 20.34L153.735 20.01L154.375 19.71L159.545 17.27C160.415 16.87 161.275 16.44 162.145 16.06L164.775 14.93C178.825 8.83 193.565 3.85 208.735 0C193.095 0.1 177.315 1.39 161.565 4.05L161.605 4.01Z" fill="#39BF63"/>
<path d="M152.77 80.3734C152.77 80.3734 152.889 80.135 153.189 79.8966C153.488 79.6582 153.787 79.4199 154.086 79.1219C154.505 78.8239 154.924 78.5259 155.343 78.1683C155.762 77.8107 156.062 77.4532 156.301 77.036C157.019 75.9632 157.797 74.7713 158.635 73.5198C159.473 72.2682 160.192 71.1359 160.73 70.1823C161.149 69.4672 161.448 68.9308 161.568 68.752C161.688 68.5732 161.867 68.5136 161.987 68.6328C162.526 68.8116 163.065 68.9904 163.603 69.2288C164.142 69.4672 164.92 69.646 165.938 69.8844C166.237 70.0036 166.476 70.0631 166.716 70.1227C166.955 70.1823 167.195 70.2419 167.434 70.3611L168.092 70.5995C168.092 70.5995 167.973 71.0167 167.673 71.4935C167.314 72.149 167.254 72.447 167.434 72.447C167.554 72.447 167.793 72.5066 168.212 72.5066H169.768L171.863 72.2682V71.0167C171.863 70.4803 171.863 70.1227 171.923 69.8248C171.983 69.5268 172.103 69.348 172.342 69.1692C172.581 68.9904 172.941 68.9308 173.419 68.8712C173.898 68.8116 174.557 68.752 175.395 68.6924C176.113 68.6924 176.891 68.6924 177.549 68.6924C178.208 68.6924 178.746 68.6924 178.926 68.6924C179.225 68.6924 179.465 68.6924 179.525 68.8712C179.584 69.05 179.644 69.2288 179.644 69.5268V70.3015C179.644 70.5995 179.644 70.8975 179.764 71.1955V72.149L182.158 72.2086H184.493V74.7117C184.493 75.4865 184.493 76.142 184.493 76.6188C184.493 77.0956 184.433 77.3936 184.313 77.3936C184.313 77.5128 184.014 77.5128 183.595 77.5128H180.003V78.7643C180.003 79.4794 180.123 79.8966 180.303 80.0158C180.482 80.135 181.201 80.2542 182.398 80.2542L184.193 80.4926V82.6381L184.074 84.9028H180.422V86.9887C180.422 88.2998 180.482 88.9553 180.662 88.9553C180.662 89.0745 180.961 89.1341 181.44 89.1341C181.919 89.1341 182.457 89.1341 183.056 89.1341L185.33 89.3725V93.4847L180.482 93.7231V94.617C180.482 94.617 180.482 95.213 180.422 95.5706C180.363 95.9282 180.363 96.2858 180.363 96.5241V97.3585L182.817 97.4181H185.33V103.914H183.415C182.038 103.914 180.602 104.033 179.046 104.033C177.49 104.033 175.754 104.153 173.898 104.153C172.043 104.153 170.487 104.272 169.289 104.272C168.092 104.272 167.195 104.391 166.596 104.51C165.997 104.629 165.279 104.689 164.381 104.689C163.484 104.689 162.526 104.749 161.628 104.868H158.695V94.5574L158.575 84.2472L157.318 84.9624C156.66 85.4987 156.181 85.7371 155.822 85.7371C155.822 85.7371 155.643 85.6179 155.463 85.3199C155.283 85.022 155.044 84.724 154.805 84.3664C154.386 83.532 153.967 82.6977 153.548 81.8037C153.129 80.9098 152.889 80.433 152.829 80.3138L152.77 80.3734ZM153.907 43.7809L157.678 43.9001H160.551C161.389 43.9001 161.927 43.9001 162.167 43.7809H162.885V39.7879H164.381C164.8 39.7284 165.339 39.6688 165.938 39.6688C166.536 39.6688 167.195 39.6092 167.733 39.6092H169.649L169.768 43.3638V48.6083C169.768 49.3234 169.768 49.9194 169.768 50.3962C169.768 50.873 169.768 51.1113 169.649 51.2305C169.529 51.2305 169.349 51.2305 168.93 51.2901C168.511 51.3497 168.152 51.4093 167.613 51.4093C167.075 51.4093 166.596 51.5285 166.117 51.5285C165.638 51.5285 165.159 51.5881 164.8 51.5881L163.124 51.4689V50.9922L163.065 50.3366H161.389C160.85 50.3366 160.192 50.3366 159.413 50.3366C158.635 50.3366 157.737 50.3962 156.9 50.5154H154.086V48.0719C154.086 47.3567 154.086 46.7012 154.086 46.0456C154.086 45.3901 154.086 44.9133 154.086 44.6749L153.967 43.7213L153.907 43.7809ZM156.002 53.7932L161.389 53.674H165.758C167.195 53.674 168.212 53.674 168.87 53.6144H170.965V60.1105C170.846 62.3752 170.786 63.9843 170.786 65.057C170.786 66.1298 170.726 66.7257 170.606 66.8449C170.606 67.1429 169.948 67.3217 168.811 67.5005C167.673 67.6793 165.578 67.7985 162.646 67.9177C161.269 68.0369 160.012 68.0965 158.994 68.0965C157.977 68.0965 157.378 68.0965 157.199 68.0965H156.421V67.2025C156.181 65.1166 156.062 62.9711 156.002 60.8256C155.942 58.6801 155.942 56.5347 155.942 54.3892V53.7336L156.002 53.7932ZM162.227 60.5872V62.6135H164.92V61.0044C164.98 60.5277 164.98 60.1105 164.98 59.6933C164.98 59.2761 164.98 58.9781 164.92 58.7993C164.92 58.6801 164.86 58.561 164.681 58.5014C164.501 58.4418 164.202 58.3226 163.723 58.263C163.424 58.263 163.124 58.263 162.825 58.3226C162.526 58.3822 162.406 58.3822 162.346 58.3822C162.346 58.3822 162.346 58.6801 162.286 59.0973C162.227 59.5145 162.227 59.9913 162.227 60.5872ZM165.578 80.433H172.103V79.3603L172.043 78.2875H168.212C167.613 78.2875 167.135 78.2875 166.835 78.4067H165.878V79.4794L165.638 80.3734L165.578 80.433ZM166.177 89.8493H171.923V86.0947H170.786C170.786 86.0947 170.068 86.0947 169.529 86.0947C168.99 86.0947 168.451 86.0947 167.913 86.0947L165.997 86.2139V87.8826L166.117 89.7897L166.177 89.8493ZM166.357 97.4777C166.357 97.4777 167.554 97.7161 169.11 97.7161C170.666 97.7161 171.504 97.6565 171.684 97.4777C171.684 97.3585 171.684 97.1797 171.743 96.8817C171.803 96.5837 171.803 96.2262 171.803 95.8686V94.4979H169.11C168.392 94.4979 167.733 94.4979 167.195 94.4979C166.656 94.4979 166.357 94.4979 166.297 94.6766C166.297 94.7958 166.237 94.915 166.177 95.213C166.117 95.511 166.177 95.7494 166.177 96.0474C166.177 96.3454 166.177 96.6433 166.177 96.9413C166.177 97.2393 166.177 97.4181 166.297 97.5969L166.357 97.4777ZM174.257 66.8449V59.8721C174.257 57.1306 174.257 55.2235 174.317 54.27C174.377 53.3164 174.437 52.7801 174.437 52.8397H176.113C176.771 52.8397 177.669 52.7205 178.806 52.6609C179.944 52.6013 181.5 52.4821 183.475 52.4225C184.433 52.4225 185.211 52.4225 185.869 52.4225C186.528 52.4225 186.887 52.4225 187.006 52.4225C187.246 52.4225 187.425 52.5417 187.665 52.7205C187.785 52.7205 187.844 53.0184 187.964 53.4952C188.084 53.972 188.024 55.0447 187.844 56.7135C187.725 59.0973 187.605 61.1236 187.485 62.9115C187.366 64.6994 187.306 65.653 187.246 65.951C187.126 66.249 186.468 66.4277 185.211 66.6065C183.954 66.7853 181.979 66.8449 179.225 66.8449L174.257 67.0833V66.8449ZM176.352 44.9729V39.7284L177.19 39.6092C177.19 39.6092 177.789 39.5496 178.088 39.5496H183.894L183.834 41.0395V42.3506H186.228L188.742 42.4698V44.8537C188.742 45.9264 188.742 46.6416 188.742 46.9992C188.742 47.3567 188.622 47.5355 188.503 47.5355C188.383 47.5355 188.024 47.6547 187.545 47.7143C187.066 47.7739 186.468 47.8335 185.749 47.8335L183.415 47.9527L183.295 49.0851C183.295 49.0851 183.295 49.6214 183.295 49.8598C183.295 50.0982 183.236 50.2174 183.116 50.2174C183.116 50.2174 182.757 50.2174 182.218 50.277C181.679 50.3366 180.961 50.3962 180.123 50.5154C178.746 50.6346 177.849 50.6346 177.43 50.6346C177.011 50.6346 176.771 50.575 176.711 50.3962C176.592 50.277 176.472 49.9194 176.412 49.2043C176.352 48.4891 176.352 47.0588 176.352 44.9729ZM179.644 59.5145C179.644 60.0509 179.644 60.4681 179.644 60.8256C179.644 61.1832 179.644 61.362 179.644 61.4216C179.764 61.4216 179.884 61.4216 180.123 61.4812C180.363 61.5408 180.602 61.5408 180.901 61.5408H181.979L182.098 59.5145V57.5478H181.44C181.44 57.5478 180.961 57.5478 180.722 57.5478C180.482 57.5478 180.243 57.5478 180.003 57.5478L179.345 57.667L179.465 59.3953L179.644 59.5145ZM188.443 64.6994C189.101 62.8519 189.7 61.0044 190.179 59.2165C190.658 57.4286 191.077 55.5215 191.436 53.6144L191.974 51.1709C192.214 50.2174 192.393 49.2638 192.573 48.4295C192.693 48.1315 192.812 47.5951 192.992 46.7608C193.171 45.9264 193.351 45.0325 193.59 44.0789C193.83 43.1254 194.009 42.291 194.129 41.3971C194.249 40.5031 194.369 40.0263 194.369 39.7879C194.668 39.6092 195.985 39.6688 198.199 39.9071C199.277 40.0263 200.174 40.1455 200.833 40.2647C201.491 40.3839 201.97 40.5627 202.209 40.8011C202.329 40.9203 202.389 41.3375 202.329 41.9334C202.269 42.5294 202.09 43.483 201.671 44.7941C201.491 45.5092 201.372 46.0456 201.252 46.4628C201.132 46.88 201.252 47.1184 201.372 47.2972C201.491 47.4759 201.91 47.5355 202.449 47.5951C202.988 47.6547 203.706 47.5951 204.723 47.5951H212.624C214.599 47.5951 215.916 47.5951 216.575 47.6547C217.891 47.6547 218.55 47.8335 218.55 48.0123L219.208 48.4295V51.1113C219.208 52.8993 218.969 54.9851 218.49 57.2498C218.011 59.5145 217.413 61.7792 216.754 63.9843L216.096 66.0106H215.018C215.018 66.0106 214.3 65.8318 213.702 65.7126C213.103 65.5934 212.504 65.4742 211.846 65.2358C210.948 65.057 210.35 64.8782 210.11 64.759C209.871 64.6398 209.691 64.461 209.691 64.3418C209.691 64.2227 209.751 63.6863 209.931 62.8519C210.11 62.0176 210.23 61.064 210.41 59.9317C210.589 58.7993 210.649 57.8458 210.769 57.0114C210.888 56.1771 210.948 55.7003 211.008 55.5215V54.9851H198.917L198.678 55.9387C198.678 55.9387 198.439 56.5943 198.319 57.1306C198.199 57.667 198.02 58.2034 197.9 58.7397C197.78 59.2165 197.661 59.8125 197.481 60.4681C197.301 61.1236 197.062 61.8984 196.823 62.6731C196.583 63.4479 196.284 64.2227 196.044 64.9974C195.805 65.7722 195.506 66.4873 195.206 67.1429C195.027 67.7985 194.788 68.156 194.548 68.2752C194.309 68.3944 193.95 68.2752 193.471 68.156C193.171 68.0369 192.812 67.8581 192.333 67.6197C191.855 67.3813 191.376 67.2025 190.897 66.9641C190.418 66.7257 189.939 66.6065 189.58 66.4277C189.221 66.249 188.862 66.1894 188.682 66.1894C188.383 66.0106 188.203 65.8914 188.203 65.7722C188.203 65.653 188.263 65.5338 188.263 65.355C188.263 65.1762 188.263 64.9378 188.383 64.6994H188.443ZM190.418 95.809C192.034 92.114 193.351 89.0149 194.249 86.5715C195.147 84.128 195.805 82.0421 196.104 80.1946C196.344 79.4794 196.523 78.6451 196.703 77.7511C196.882 76.8572 197.002 76.142 197.182 75.6057C197.421 74.7117 197.661 73.4602 197.96 71.7915C198.259 70.1227 198.618 67.8581 199.037 64.9378C199.157 64.2227 199.277 63.3287 199.336 62.3752C199.396 61.4216 199.456 60.5872 199.516 59.8721L199.636 57.4882L201.97 57.369H203.885C204.544 57.369 205.083 57.369 205.382 57.3094C205.92 57.3094 206.22 57.3094 206.399 57.3094C206.579 57.3094 206.639 57.4286 206.639 57.5478C206.758 57.7862 206.818 58.2034 206.878 58.8589C206.938 59.5145 206.998 60.2297 206.998 61.064C206.998 61.8984 206.998 62.7923 206.938 63.7459C206.878 64.6994 206.818 65.5934 206.639 66.4873C206.459 68.8116 206.399 70.5399 206.399 71.7319C206.399 72.9238 206.579 73.9965 206.878 75.0693C207.417 77.036 208.015 79.0623 208.794 81.2078C209.572 83.3532 210.41 85.4391 211.367 87.4654C212.325 89.4917 213.402 91.4584 214.599 93.3655C215.797 95.2726 217.113 96.9413 218.49 98.4908L220.106 100.04L219.448 100.875C219.448 100.875 219.089 101.471 218.61 102.007C218.131 102.543 217.652 103.02 217.053 103.557C216.455 104.093 215.916 104.57 215.378 104.927C214.839 105.285 214.48 105.523 214.24 105.523C213.941 105.523 213.402 105.225 212.744 104.57C212.086 103.914 211.367 103.199 210.649 102.305C209.931 101.411 209.272 100.636 208.614 99.8616C207.956 99.0868 207.537 98.5504 207.297 98.2525C206.579 97.1201 205.92 95.8686 205.262 94.4979C204.604 93.1271 204.065 91.6968 203.646 90.2069L202.688 87.4654L202.389 88.5382C201.91 90.1473 201.372 91.7564 200.713 93.3059C200.055 94.8554 199.336 96.405 198.439 97.8949C198.08 98.4908 197.661 99.1464 197.301 99.802C196.942 100.458 196.523 101.054 196.224 101.59C195.925 102.126 195.625 102.543 195.386 102.901C195.147 103.259 194.967 103.437 194.907 103.497C194.788 103.497 194.548 103.318 194.189 103.139C193.83 102.961 193.471 102.663 193.052 102.424C192.633 102.186 192.214 101.828 191.795 101.53C191.376 101.232 191.077 100.934 190.777 100.636C190.418 100.338 190.059 100.1 189.82 99.8616C189.58 99.6232 189.401 99.4444 189.341 99.3848C189.221 99.3848 189.101 99.3848 189.041 99.3252C188.982 99.2656 189.041 99.1464 189.041 98.8484C189.041 98.5504 189.281 98.1929 189.52 97.7161C189.76 97.2393 190.059 96.5837 190.418 95.7494V95.809Z" fill="#FF5F17"/>
<path d="M227.827 55.0446C229.024 53.6739 230.401 50.8728 232.017 46.7606C232.197 46.1647 232.436 45.4495 232.795 44.6151C233.154 43.7808 233.394 43.006 233.573 42.3505C233.573 42.2313 233.693 42.0525 233.873 41.6949C234.052 41.3373 234.172 41.0393 234.292 40.6222C234.411 40.205 234.531 39.907 234.651 39.5494C234.771 39.1918 234.83 39.013 234.83 38.8342C234.83 38.8342 234.89 38.7747 234.89 38.7151C234.89 38.6555 234.89 38.7151 234.95 38.5959C235.07 38.5959 235.13 38.5959 235.249 38.7151C235.369 38.8342 235.489 38.8938 235.728 39.013C235.908 39.013 236.267 39.1918 236.806 39.4898C237.344 39.7878 237.943 40.0262 238.661 40.2646C240.337 40.9201 241.355 41.3969 241.594 41.7545C241.833 42.1121 241.833 42.5889 241.355 43.304C241.235 43.602 241.115 43.9596 240.876 44.4364C240.636 44.9131 240.517 45.3899 240.337 45.8071C240.157 46.3435 239.918 46.999 239.559 47.8334C239.2 48.6677 238.9 49.4425 238.661 50.2172C238.541 50.5748 238.362 50.9324 238.242 51.29C238.122 51.6476 238.003 51.886 237.883 52.1243L237.763 52.5415L237.644 52.9587C237.644 52.9587 237.703 53.1375 237.883 53.1375C238.063 53.1375 238.182 53.1375 238.302 53.1375C238.482 53.1375 238.661 53.1375 238.781 53.0779C238.9 53.0183 239.02 52.8991 239.14 52.7799C239.26 52.6607 239.439 52.3627 239.679 52.0052C239.918 51.6476 240.157 51.1708 240.576 50.5152C240.995 49.8001 241.355 49.2041 241.654 48.7273C241.953 48.2506 242.133 47.893 242.252 47.8334C242.432 47.8334 242.911 48.0122 243.569 48.4889C243.868 48.6081 244.228 48.8465 244.706 49.1445C245.185 49.4425 245.724 49.6213 246.203 49.8001C247.101 50.2172 247.639 50.5152 247.939 50.694C248.238 50.8728 248.298 51.1112 248.178 51.4092C248.178 52.0052 247.759 52.9587 247.101 54.1506C246.442 55.3426 245.724 56.6537 244.826 58.0244C243.928 59.3952 243.15 60.6467 242.312 61.8386C241.474 63.0306 240.876 63.9841 240.517 64.5801C239.918 65.5336 239.379 66.3084 238.96 66.964C238.541 67.6195 238.242 68.1559 238.003 68.6327C238.003 68.7519 238.063 68.8711 238.242 68.9307C238.422 68.9903 238.721 68.9903 239.2 68.9903C239.918 68.9903 240.397 68.9307 240.517 68.7519C240.636 68.5731 240.636 68.2751 240.457 67.7983C240.217 67.2619 240.217 66.8448 240.457 66.6064C240.696 66.368 241.235 66.0104 242.252 65.474C243.09 65.0569 243.689 64.8185 244.048 64.8185C244.467 64.8185 244.826 65.0569 245.066 65.5932C245.305 66.1296 245.664 67.0236 246.023 68.3347C246.143 68.5135 246.263 68.9307 246.502 69.5266C246.741 70.1226 246.981 70.7782 247.22 71.4933C247.46 72.2085 247.639 72.864 247.879 73.46C248.118 74.056 248.178 74.4732 248.178 74.7116C248.058 74.8903 247.4 75.3671 246.083 76.0823L244.168 77.155L243.868 76.7378C243.868 76.7378 243.629 76.3207 243.509 76.0823C243.39 75.8439 243.27 75.5459 243.21 75.3075L242.851 74.2348H241.714C241.355 74.2348 240.756 74.2348 239.978 74.354C239.2 74.4732 238.362 74.4732 237.524 74.5328C236.566 74.652 235.549 74.7116 234.471 74.8307C233.394 74.9499 232.436 75.0095 231.718 75.1287C230.042 75.2479 229.084 75.2479 228.845 75.1287C228.845 75.0095 228.725 74.7116 228.605 74.2348C228.486 73.758 228.426 73.0428 228.306 72.2681C228.187 71.4337 228.127 70.659 228.067 69.9438C228.007 69.2286 227.947 68.7519 227.887 68.3943L227.768 67.2024L230.042 64.8781C231.06 63.7457 231.897 62.7922 232.616 61.9578C233.334 61.1235 233.873 60.2891 234.411 59.4548L234.83 58.7396H233.035C232.496 58.9184 232.017 58.978 231.479 58.978C230.94 58.978 230.581 59.0376 230.281 59.1568H229.324L228.665 57.9648C228.546 57.6669 228.366 57.3689 228.127 57.0113L227.648 56.2961L227.169 55.6406L227.827 55.1638V55.0446ZM227.468 80.0157C227.468 80.0157 228.007 80.1349 228.486 80.1349H229.563C232.197 80.2541 236.806 80.3733 243.39 80.3733C246.682 80.3733 249.195 80.3733 251.051 80.3733C252.906 80.3733 254.044 80.3137 254.463 80.1945V79.5389C254.463 79.1217 254.463 78.7045 254.523 78.2278C254.523 77.6914 254.523 77.2742 254.582 76.857C254.642 76.4399 254.642 76.1419 254.642 76.0227C254.642 75.8439 254.642 75.7247 254.463 75.6651C254.283 75.6055 253.744 75.6055 252.727 75.6055C251.47 75.6055 250.572 75.6055 250.033 75.4863C249.495 75.3671 249.195 75.3075 249.136 75.1883C249.136 75.1883 249.136 74.9499 249.016 74.652C248.896 74.354 248.896 73.9368 248.896 73.5196C248.896 71.7317 248.896 67.0236 248.896 59.4548C249.016 51.886 249.076 47.595 249.136 46.4626C249.435 46.4626 249.614 46.4626 249.674 46.403H250.991C251.47 46.403 251.889 46.403 252.308 46.3435C252.727 46.2839 252.966 46.2243 253.086 46.2243C253.086 46.1051 253.325 45.8071 253.565 45.2111C253.804 44.6151 254.223 43.7212 254.642 42.5293C254.882 41.9929 255.121 41.4565 255.361 40.9797C255.6 40.503 255.78 40.0858 255.839 39.7282C255.959 39.3706 256.019 39.1322 256.079 39.0726L256.318 38.8342C256.318 38.8342 256.677 38.8938 257.216 39.0726L259.012 39.5494C259.67 39.7282 260.269 39.8474 260.807 40.0262C261.346 40.205 261.645 40.2646 261.705 40.3242C261.705 40.4434 261.705 40.6222 261.645 40.9201C261.585 41.2181 261.526 41.5757 261.406 41.9929C261.286 42.4101 261.226 42.7676 261.107 43.1252C260.987 43.4828 260.927 43.7808 260.807 44.0192C260.688 44.1384 260.628 44.2576 260.508 44.496C260.388 44.7343 260.328 44.9727 260.209 45.2707L259.79 46.2243H267.99C268.229 47.0586 268.349 50.396 268.409 56.1173C268.409 59.0376 268.469 61.5406 268.469 63.6861C268.469 65.8316 268.469 67.5003 268.349 68.8711C268.229 70.5398 268.11 71.9701 267.99 73.1024C267.87 74.2348 267.691 75.0095 267.511 75.3671C267.511 75.4863 267.331 75.6055 266.972 75.6055C266.613 75.6055 265.895 75.6055 264.818 75.6055H262.304V77.5126C262.304 78.049 262.304 78.4662 262.364 78.8237C262.423 79.1813 262.423 79.4197 262.423 79.5389H263.561C264.219 79.5389 265.177 79.5389 266.314 79.5389C267.451 79.5389 268.828 79.5389 270.444 79.5389H288.58V82.8167L288.52 86.035L284.929 86.1541C281.577 86.1541 278.644 86.2733 276.13 86.3329C273.616 86.3925 271.761 86.4521 270.504 86.4521H267.99L268.948 87.2865C271.282 89.3128 273.736 90.9219 276.25 92.1138C278.764 93.3058 281.517 94.3785 284.51 95.3321C285.467 95.63 286.305 95.9876 286.964 96.226C287.622 96.4644 287.981 96.6432 288.101 96.6432C288.101 96.7624 288.101 97.0008 288.041 97.418C287.981 97.8351 287.802 98.3715 287.562 98.9675C287.383 99.623 287.203 100.219 287.024 100.755C286.844 101.292 286.724 101.709 286.665 102.007L286.425 102.841L284.51 102.603C282.954 102.484 281.637 102.364 280.499 102.186C279.362 102.007 278.105 101.649 276.729 101.113C275.891 100.815 274.993 100.517 274.155 100.159C273.317 99.8018 272.419 99.4442 271.581 99.0271C270.743 98.6099 270.025 98.2523 269.307 97.8947C268.588 97.5371 268.05 97.12 267.631 96.822C267.331 96.6432 266.972 96.3452 266.494 95.9876C266.015 95.63 265.476 95.2129 264.997 94.7361C264.518 94.3189 264.099 93.9613 263.74 93.6634C263.381 93.3654 263.142 93.2462 263.082 93.3058C262.962 93.3058 262.842 94.2593 262.842 96.1664C262.842 97.0008 262.783 98.0139 262.783 99.1463V105.702H254.044V101.947C254.044 100.875 254.044 99.7422 254.044 98.6099C254.044 97.4775 253.984 96.524 253.864 95.6896V93.2462L251.769 95.2129C251.171 95.6896 250.452 96.226 249.614 96.9412C248.777 97.6563 247.998 98.1927 247.34 98.6099C246.622 99.0867 246.023 99.5038 245.425 99.921C244.826 100.338 244.527 100.577 244.347 100.696C243.809 100.994 242.971 101.292 241.893 101.649C240.816 102.007 239.679 102.305 238.482 102.603C237.284 102.901 236.147 103.199 235.01 103.378C233.873 103.556 232.975 103.735 232.316 103.795C231.957 103.795 231.718 103.795 231.598 103.676C231.479 103.556 231.359 103.437 231.299 103.199C231.299 103.08 231.179 102.722 231 102.245C230.82 101.769 230.7 101.173 230.521 100.577C230.341 99.9806 230.162 99.4442 230.042 98.9675C229.922 98.4907 229.803 98.1927 229.803 98.1927C229.803 98.1927 229.982 98.0735 230.341 97.9543C230.7 97.8351 231.179 97.7159 231.718 97.4775C232.855 97.1796 233.933 96.822 235.01 96.3452C236.087 95.8684 237.404 95.0937 238.96 94.0805C239.319 93.8421 240.038 93.3654 241.115 92.7098C242.193 92.0542 243.27 91.2795 244.347 90.5047C245.425 89.73 246.502 88.9552 247.34 88.1804C248.178 87.4057 248.657 86.8693 248.657 86.4521C248.657 86.3329 248.417 86.3329 247.998 86.3329C247.579 86.3329 247.16 86.3329 246.622 86.3329C246.083 86.3329 245.544 86.3329 244.946 86.4521C244.347 86.5713 243.868 86.5117 243.449 86.5117C243.03 86.6309 242.312 86.6905 241.235 86.7501C240.157 86.8097 239.02 86.8693 237.763 86.9289C236.506 86.9289 235.19 86.9289 233.813 87.1077C232.436 87.2865 231.299 87.2865 230.461 87.2865C229.623 87.2865 228.905 87.3461 228.366 87.3461H227.468C227.468 87.3461 227.349 86.7501 227.349 86.0945C227.349 85.439 227.229 84.6046 227.229 83.5319C227.229 82.4591 227.169 81.6248 227.109 80.9692C227.049 80.3137 227.109 79.9561 227.109 79.7177L227.468 80.0157ZM261.645 70.361V63.7457H257.036V68.5731C257.036 69.2286 257.036 69.5862 256.917 69.8246V70.361H261.705H261.645ZM256.977 58.4416H261.466V51.886H257.276L257.036 52.7203C257.036 52.7203 257.036 53.4355 257.036 54.091C257.036 54.7466 257.036 55.4022 257.036 56.0577V58.4416H256.977ZM269.726 54.389C269.726 54.389 269.786 54.0314 269.965 53.6739C270.145 53.3163 270.264 53.0183 270.504 52.7203C270.683 52.3031 270.983 51.6476 271.402 50.8132C271.821 49.9789 272.18 49.0849 272.479 48.1314C272.838 47.2374 273.257 46.1647 273.796 44.9131C274.334 43.6616 274.753 42.5293 275.172 41.5757C275.591 40.6222 275.951 39.8474 276.25 39.2514C276.549 38.6555 276.729 38.2979 276.848 38.2383C277.028 38.2383 277.207 38.3575 277.387 38.5363C277.567 38.7151 277.866 38.8342 278.285 39.0726C278.704 39.311 279.123 39.5494 279.542 39.7878C279.961 40.0262 280.38 40.2646 280.799 40.4434C281.218 40.6222 281.457 40.8009 281.577 40.8009C282.415 41.0989 282.834 41.4565 282.834 41.7545C282.834 42.0525 282.654 42.6484 282.355 43.4232C282.056 44.198 281.816 44.9727 281.457 45.8071C281.098 46.6414 280.799 47.4162 280.499 48.0718C280.2 48.7273 279.961 49.2041 279.841 49.3829C279.841 49.5021 279.662 49.8001 279.482 50.2172L278.764 51.7072C278.105 52.8991 277.746 53.6739 277.686 53.9718C277.686 53.9718 277.806 54.091 277.986 54.091C278.165 54.091 278.524 54.091 278.943 54.0314H280.081L281.278 51.7072C282.475 49.3829 283.313 48.4293 283.672 48.7869C283.792 48.9061 284.031 49.1445 284.39 49.5021C284.749 49.8597 285.108 50.2172 285.467 50.6344C285.827 51.0516 286.246 51.4688 286.605 51.886C286.964 52.3031 287.263 52.6607 287.443 52.9587L287.862 53.6143L287.443 55.2234C287.443 55.2234 287.263 55.7598 287.084 56.2365C286.904 56.7133 286.665 57.2497 286.425 57.786C286.186 58.3224 285.946 58.7992 285.707 59.276C285.467 59.7527 285.288 60.1103 285.228 60.3487C284.869 61.3023 284.45 62.2558 283.911 63.269C283.373 64.2821 283.013 65.1165 282.654 65.772C282.415 66.1296 282.175 66.4872 281.996 66.9044C281.816 67.3215 281.637 67.6791 281.457 68.0963C281.457 68.0963 281.577 68.0963 281.756 68.0963C281.936 68.0963 282.235 68.0963 282.475 68.0963L283.313 67.9771V66.4872L284.929 65.6528C285.886 65.1165 286.545 64.8185 286.964 64.8185C287.323 64.8185 287.622 64.9377 287.742 65.2357C288.46 66.666 289.059 68.2155 289.538 69.8246C290.016 71.4337 290.376 73.0428 290.675 74.652C290.675 74.652 290.435 74.7711 290.196 74.9499L289.238 75.4267C288.879 75.6055 288.46 75.7843 288.101 75.9631C287.742 76.1419 287.383 76.2611 287.084 76.3207L286.305 76.6782L285.408 74.5924H284.57C284.57 74.5924 283.851 74.7116 283.253 74.7712C282.654 74.8307 282.056 74.9499 281.457 75.0095C280.799 75.0095 279.961 75.0095 279.003 75.1287C278.045 75.2479 277.088 75.3075 276.19 75.4267C274.993 75.5459 274.095 75.6651 273.496 75.6651C272.898 75.6651 272.599 75.6651 272.419 75.4863C272.299 75.4863 272.12 75.2479 271.94 74.8903C271.761 74.5328 271.521 73.8772 271.162 72.9832C270.983 72.2681 270.803 71.7317 270.623 71.2549C270.444 70.7782 270.324 70.5398 270.264 70.4802C270.145 70.4802 270.025 70.3014 270.025 70.0034C270.025 69.5862 270.564 68.9307 271.581 68.0963C272.12 67.5599 272.539 67.0832 272.958 66.5468C273.377 66.0104 273.796 65.4144 274.215 64.7589C275.232 63.0902 275.951 61.8982 276.37 61.1831C276.789 60.4679 276.908 60.1103 276.729 60.1103C276.729 59.9911 276.489 59.9911 276.01 60.0507C275.532 60.1103 274.993 60.1699 274.394 60.3487C273.616 60.3487 273.018 60.4083 272.659 60.4083C272.299 60.4083 272.06 60.4083 271.94 60.3487L271.701 59.8719C271.701 59.8719 271.521 59.3356 271.461 58.978C271.342 58.68 271.222 58.3224 270.983 57.786C270.743 57.2497 270.564 56.8325 270.384 56.4153C270.145 55.9981 269.965 55.581 269.845 55.1638C269.726 54.7466 269.606 54.5678 269.606 54.5082L269.726 54.389Z" fill="#FF5F17"/>
<path d="M299.414 95.9878C299.533 95.6898 299.593 94.9151 299.653 93.6635C299.713 92.412 299.773 90.5049 299.892 87.8827C300.012 80.1947 300.132 75.6653 300.311 74.235C300.311 73.7582 300.311 73.4602 300.431 73.341C300.551 73.2218 300.73 73.1622 300.97 73.1026C301.508 72.9834 302.047 72.9238 302.706 72.8642C303.364 72.8047 303.962 72.7451 304.501 72.6855C305.04 72.6259 305.579 72.6259 305.998 72.5663C306.417 72.5067 306.656 72.5663 306.716 72.6855C306.776 72.8047 306.776 73.7582 306.776 75.6057V77.8108C306.776 78.4664 306.776 78.9431 306.716 79.3603C306.716 79.5391 306.716 80.1351 306.656 81.1482C306.596 82.1614 306.536 83.3533 306.536 84.6644C306.536 85.916 306.536 87.1675 306.476 88.419C306.417 89.6706 306.357 90.5645 306.357 91.1009C306.357 91.6373 306.357 92.114 306.297 92.4716C306.237 92.8292 306.297 93.008 306.357 93.008C306.536 92.8888 306.955 92.7696 307.494 92.6504C308.033 92.5312 308.392 92.3524 308.511 92.2332C308.631 92.0544 308.691 90.7433 308.691 88.2998C308.691 85.8564 308.691 82.7573 308.691 79.0027V65.8318H300.79C300.79 65.8318 300.491 65.7126 300.431 65.5338C300.371 65.355 300.431 64.6995 300.491 63.6863C300.491 63.15 300.491 62.3752 300.491 61.4813C300.491 60.5873 300.551 59.7529 300.67 59.0974C300.67 58.3226 300.79 57.3691 300.79 56.3559C300.79 55.3428 300.91 54.3296 300.91 53.4357C301.03 51.0518 301.089 49.0851 301.149 47.5356C301.209 45.9861 301.269 44.7345 301.329 43.781C301.389 42.8274 301.449 42.0527 301.449 41.3375C301.449 41.0395 301.927 41.0395 302.706 41.2779H303.962C304.621 41.2779 305.519 41.2779 306.536 41.2779C307.554 41.2779 308.751 41.2779 310.068 41.2779H314.257C317.19 41.2779 319.644 41.2779 321.679 41.3375C323.715 41.3971 324.792 41.3971 325.031 41.3971C325.211 41.3971 325.331 41.5759 325.331 41.9335C325.331 42.2911 325.331 43.1254 325.271 44.4366C325.271 45.2709 325.271 46.0457 325.211 46.7012C325.151 47.3568 325.151 47.774 325.151 47.9528C325.031 48.6679 324.852 49.9195 324.732 51.5286C324.612 53.1377 324.493 54.9256 324.433 56.7135C324.313 58.7398 324.193 60.4085 324.074 61.8984C323.954 63.3884 323.715 64.1631 323.475 64.3419C323.475 64.3419 323.116 64.3419 322.517 64.4611C321.919 64.5803 321.141 64.5803 320.243 64.5803C319.285 64.6995 318.567 64.7591 317.968 64.7591C317.37 64.7591 317.071 64.7591 316.951 64.7591C316.951 64.8783 316.951 65.2954 316.951 66.0702C316.951 66.845 316.891 67.7985 316.771 68.9309V73.043L319.465 73.2814C320.303 73.2814 320.961 73.2814 321.38 73.4006C321.799 73.5198 322.098 73.5198 322.158 73.5794C322.158 73.6986 322.158 74.0562 322.158 74.6522C322.158 75.2481 322.158 76.0229 322.158 76.8572L322.278 80.0159H316.831V80.8502C316.831 80.8502 316.831 81.7442 316.771 82.6381C316.712 83.5321 316.712 84.5452 316.712 85.6776C316.712 88.2402 316.712 89.4918 316.831 89.4918C316.831 89.4918 317.071 89.4918 317.43 89.3726C317.789 89.2534 318.208 89.1342 318.747 89.015C319.285 88.8958 319.764 88.7766 320.123 88.6574C320.482 88.5382 320.662 88.4786 320.722 88.4786C321.021 88.7766 321.32 90.1473 321.5 92.4716C321.679 94.9151 321.679 96.405 321.5 96.9414C321.38 96.9414 321.141 97.1202 320.722 97.299C320.303 97.4777 319.764 97.7161 319.166 98.0141C318.507 98.1929 317.729 98.4313 316.891 98.7889C316.053 99.1465 315.215 99.4444 314.557 99.6828C313.18 100.16 311.863 100.517 310.666 100.875C309.469 101.232 307.973 101.471 306.237 101.65C304.262 101.948 302.825 102.126 301.868 102.186C300.91 102.245 300.371 102.186 300.192 102.067C300.072 101.948 300.012 101.65 299.892 101.232C299.773 100.815 299.653 100.398 299.533 99.9212C299.414 99.4444 299.294 99.0273 299.234 98.5505C299.174 98.0737 299.114 97.7757 299.114 97.4777C299.114 97.299 299.234 96.8222 299.473 95.9878H299.414ZM309.23 59.5146C309.23 59.5146 309.888 59.5146 310.606 59.5146C311.325 59.5146 312.163 59.5146 313.06 59.5146C314.437 59.5146 315.395 59.5146 315.814 59.5146C316.233 59.5146 316.472 59.3954 316.472 59.2762C316.472 59.0378 316.592 58.5014 316.592 57.6075C316.592 56.7135 316.712 55.5216 316.712 54.0316C316.712 52.6013 316.712 51.4094 316.712 50.4558C316.712 49.5023 316.712 48.8467 316.592 48.3699V47.5356H315.275C314.796 47.5356 314.257 47.5356 313.599 47.5952C312.941 47.6548 312.342 47.7144 311.744 47.7144C311.145 47.7144 310.606 47.8336 310.128 47.8336C309.649 47.8336 309.349 47.8932 309.23 47.8932C309.11 47.8932 308.99 48.5487 308.93 49.7407C308.871 50.9326 308.751 52.8397 308.631 55.5216V59.2762L309.17 59.3954L309.23 59.5146ZM323.834 94.1403C323.954 93.7231 324.193 93.1868 324.493 92.4716C324.792 91.7565 325.031 91.1009 325.271 90.3857C326.049 88.7766 326.767 86.6907 327.426 84.1281C328.084 81.5654 328.623 78.9431 329.101 76.1421C329.58 73.341 329.999 70.6592 330.239 67.9773C330.478 65.2955 330.718 63.0904 330.777 61.1833C330.777 60.3489 330.777 59.455 330.897 58.5014C331.017 57.5479 331.017 56.8327 331.017 56.2367C331.137 55.5812 331.196 54.568 331.316 53.2569C331.436 51.9458 331.496 50.575 331.615 49.1447C331.615 47.8336 331.735 46.7012 331.735 45.7477C331.735 44.7941 331.855 44.3174 331.855 44.2578C332.034 44.2578 332.214 44.1982 332.393 44.1982C332.573 44.1982 332.753 44.1982 332.992 44.1386C333.351 44.1386 333.77 44.1386 334.309 44.1386C334.847 44.1386 335.326 44.1386 335.805 44.1386C336.942 44.0194 337.9 43.9598 338.618 43.9002C339.337 43.8406 339.815 43.781 339.875 43.781C339.995 43.781 340.115 43.781 340.234 43.781C340.354 43.781 340.534 43.781 340.653 43.781C340.953 43.781 341.072 43.9002 341.072 44.079C341.072 44.3174 340.953 44.8537 340.953 45.7477C340.953 46.6416 340.833 47.8336 340.713 49.4427C340.594 51.0518 340.534 52.6609 340.474 54.3892C340.414 56.1175 340.354 57.8458 340.175 59.6338C340.055 61.0045 339.995 62.256 339.935 63.4479C339.875 64.6399 339.815 65.4742 339.756 65.951C339.636 66.4874 339.576 67.2025 339.516 68.0965C339.456 68.9905 339.396 69.8248 339.337 70.6592C338.798 75.4269 338.02 80.3139 337.002 85.32C335.985 90.3261 334.488 94.9747 332.393 99.2657C331.077 102.007 330.179 103.497 329.64 103.735C329.461 103.735 328.982 103.497 328.144 103.139C327.306 102.782 326.528 102.424 325.63 102.007C324.732 101.59 323.894 101.173 323.176 100.756C322.458 100.338 321.979 100.1 321.859 99.9808C321.859 99.8616 321.859 99.6828 321.919 99.2657C321.979 98.8485 322.158 98.4313 322.338 97.8949C322.517 97.3586 322.757 96.703 322.996 96.107C323.236 95.5111 323.535 94.8555 323.774 94.1999L323.834 94.1403ZM344.005 43.6022H346.759C347.477 43.6022 348.195 43.6022 348.913 43.5426C349.632 43.483 350.17 43.483 350.41 43.483C351.068 43.483 351.427 43.483 351.547 43.781C351.667 44.079 351.727 44.7941 351.786 46.1649L351.966 48.2508C352.026 49.0851 352.145 49.8599 352.205 50.6346C352.205 51.4094 352.325 52.4821 352.505 53.8529C352.684 55.2236 352.744 56.5347 352.864 57.7862C353.103 60.7065 353.283 63.2096 353.522 65.2359C353.762 67.2621 353.881 68.8713 354.001 70.0632C354.121 71.2551 354.3 72.4471 354.54 73.5198C354.779 74.5926 354.959 75.7249 355.198 76.738C355.737 79.8371 356.455 82.8765 357.353 85.8564C358.251 88.8362 359.508 91.7564 361.064 94.5575C361.363 95.2727 361.722 95.9282 361.962 96.5242C362.201 97.1202 362.441 97.5373 362.62 97.7161C362.74 98.0737 362.859 98.3717 362.859 98.4909C362.859 98.6101 362.74 98.8485 362.44 99.1465C362.261 99.3253 361.902 99.6828 361.363 100.1C360.824 100.517 360.286 101.054 359.747 101.53C359.208 102.007 358.67 102.424 358.131 102.782C357.592 103.139 357.233 103.318 356.994 103.318C356.575 103.318 356.036 102.961 355.438 102.186C354.839 101.411 354.181 100.577 353.582 99.6232C352.983 98.6697 352.445 97.7161 351.906 96.8222C351.367 95.9282 351.128 95.2727 350.948 94.9747C349.632 92.5312 348.614 89.8494 347.836 86.9887C347.058 84.1281 346.459 81.2674 346.04 78.2876C345.621 75.3077 345.322 72.3875 345.142 69.4076C344.963 66.4278 344.843 63.5671 344.664 60.8257C344.664 59.5742 344.544 58.263 344.484 56.9519C344.424 55.6408 344.364 54.3296 344.305 53.0781C344.245 51.8266 344.185 50.6346 344.185 49.5619C344.185 48.4891 344.125 47.5356 344.125 46.7608V43.6022H344.005Z" fill="#FF5F17"/>
<path d="M370.94 97.4778C370.94 97.4778 371.12 97.1798 371.479 97.1798C371.658 97.1798 371.778 97.0606 371.838 96.703C371.898 96.3454 371.957 95.4515 371.957 94.0808C371.957 93.604 371.957 92.9484 371.957 92.1737C371.957 91.3989 371.957 90.4453 371.957 89.4322C371.957 88.4191 371.957 87.2867 371.957 86.1544C371.957 85.022 371.957 83.8301 371.957 82.5786V76.5593C371.957 74.9502 372.017 74.0562 372.197 73.9966C372.317 73.9966 372.556 73.8774 372.915 73.8178C373.274 73.7582 373.813 73.6986 374.412 73.5794C375.01 73.4602 375.609 73.4006 376.207 73.3411C376.806 73.2815 377.464 73.1623 378.003 73.1027C378.482 72.9835 378.781 73.1623 378.901 73.5794C379.02 73.9966 379.02 75.129 378.901 76.9169C378.901 77.8704 378.901 79.2411 378.901 81.0886C378.901 82.9361 378.841 84.7836 378.721 86.6907V93.3656L379.14 93.2464C379.918 93.2464 380.397 93.008 380.517 92.7696C380.636 92.5312 380.756 91.8161 380.816 90.6837C380.816 90.3262 380.816 89.7302 380.816 88.8958C380.816 88.0615 380.816 87.0483 380.876 85.8564C380.936 84.6645 380.876 83.3533 380.936 81.8634C380.996 80.3735 380.936 78.8836 380.936 77.2744V65.951H372.736L372.616 65.2955C372.616 65.2955 372.556 64.8187 372.556 64.2227V61.8985C372.556 60.9449 372.556 59.8126 372.616 58.561C372.676 57.3095 372.736 55.9984 372.736 54.568C372.736 49.1447 372.855 45.6285 372.975 44.0194C372.975 42.4103 373.095 41.6951 373.214 41.7547H373.334L373.394 41.6355C373.514 41.6355 374.471 41.6355 376.207 41.6355C377.943 41.6355 380.158 41.6951 382.791 41.8143C387.46 41.9335 390.812 42.0527 392.847 42.0527C394.882 42.0527 395.84 42.0527 395.84 42.1719V43.3042C395.84 44.0194 395.84 44.8538 395.72 45.8073C395.72 46.9396 395.66 48.4892 395.48 50.5155C395.301 52.5418 395.241 54.6872 395.241 56.8923C395.241 58.9782 395.121 60.7661 395.061 62.256C395.002 63.746 394.942 64.5207 394.942 64.6399C394.942 64.7591 394.702 64.7591 394.164 64.7591H393.026C392.547 64.7591 392.009 64.7591 391.35 64.8187C390.572 64.8187 390.034 64.8187 389.674 64.9379C389.315 65.0571 389.196 65.1167 389.076 65.2359C389.076 65.3551 389.076 65.8914 388.956 66.7854C388.837 67.6794 388.836 68.6925 388.836 69.8844L388.597 74.2946H393.804V75.2482C393.804 75.7249 393.864 76.3805 393.864 77.1553C393.864 77.93 393.864 78.6452 393.804 79.2411V79.9563L391.291 80.0755C389.555 80.1947 388.657 80.3139 388.597 80.4927C388.477 80.7311 388.418 81.2674 388.358 82.0422C388.298 82.817 388.238 83.9493 388.118 85.2604C387.999 86.6311 387.999 87.7635 387.999 88.5978C387.999 89.4322 387.999 89.909 388.058 90.1474C388.238 90.1474 388.597 90.0878 389.136 89.909C389.674 89.7302 390.034 89.611 390.153 89.5514C390.812 89.0746 391.35 88.8362 391.71 88.8958C392.069 88.9554 392.248 89.015 392.248 89.1342C392.368 89.2534 392.488 89.611 392.607 90.207C392.727 90.8029 392.847 91.3989 392.966 92.0545C393.086 92.71 393.146 93.306 393.206 93.9616C393.266 94.6171 393.326 94.9747 393.326 95.1535C393.326 95.2727 393.146 95.3919 392.727 95.5111C392.308 95.6303 391.829 95.8687 391.291 96.1666C390.034 96.8222 388.597 97.4182 386.981 98.0737C385.365 98.7293 383.749 99.2657 382.013 99.7425C380.636 100.16 379.499 100.517 378.661 100.875C377.823 101.232 376.866 101.59 375.788 102.067C375.309 102.305 374.831 102.484 374.352 102.603C373.873 102.722 373.514 102.841 373.274 102.901L372.436 103.02L371.359 100.279C371.06 99.4445 370.88 98.7293 370.701 98.1929C370.521 97.6566 370.461 97.299 370.521 97.2394L370.94 97.4778ZM381.295 48.668C381.295 48.668 381.295 49.3831 381.235 50.4559C381.175 51.5286 381.175 52.7205 381.175 54.2105V58.7994C381.175 59.157 381.175 59.3954 381.235 59.5146C381.295 59.6338 381.355 59.6338 381.355 59.6338C381.594 59.6338 381.953 59.6934 382.492 59.753C383.031 59.8126 383.749 59.753 384.707 59.753C385.664 59.753 386.323 59.753 386.861 59.753C387.4 59.753 387.759 59.753 387.999 59.6338C387.999 59.6338 387.999 59.0378 387.999 57.9055C387.999 56.7731 387.999 55.462 387.999 53.9125V48.2508H385.006C383.39 48.2508 382.312 48.2508 381.834 48.2508C381.355 48.2508 381.115 48.4296 381.235 48.6084L381.295 48.668ZM396.677 80.1947C397.635 79.0028 398.593 77.8108 399.431 76.4401C400.269 75.0694 401.226 73.3411 402.364 71.1956L403.621 68.4541H403.082C403.082 68.4541 402.603 68.2157 402.184 68.2157C401.765 68.2157 401.286 68.2157 400.807 68.2157H399.55C399.191 68.2157 399.012 68.2157 399.012 68.0965C398.892 67.5602 398.892 66.3682 398.892 64.4015C398.892 62.4348 398.892 59.753 398.952 56.2368C399.012 52.7205 399.012 49.8599 399.072 47.5952C399.132 45.3305 399.132 43.6022 399.251 42.4699L399.491 41.3375L406.913 41.0992C409.008 41.0992 410.803 41.0992 412.24 40.98C413.676 40.8608 414.514 40.8608 414.634 40.8608C414.993 40.8608 415.891 40.8012 417.208 40.7416C418.524 40.682 420.38 40.7416 422.654 40.7416C424.929 40.7416 426.725 40.7416 428.041 40.7416C429.358 40.7416 430.136 40.7416 430.555 40.8608C430.675 41.3971 430.735 42.6487 430.795 44.4962C430.854 46.3437 430.914 48.9063 430.914 52.1246C430.914 55.3428 430.914 57.9055 430.914 59.8722C430.914 61.8389 430.854 63.2096 430.735 63.9843C430.735 64.1035 430.735 64.4015 430.615 64.8783C430.495 65.3551 430.495 65.8318 430.495 66.4278V68.5137H421.158C418.465 68.5137 416.31 68.5137 414.574 68.5137C412.838 68.5137 411.94 68.5137 411.881 68.5137C411.761 68.6329 411.641 68.8117 411.521 69.1693C411.402 69.5269 411.222 69.944 411.102 70.4208C410.743 71.4936 410.444 72.1491 410.264 72.4471C410.264 72.5663 410.324 72.6855 410.624 72.6855C410.923 72.6855 411.701 72.7451 412.958 72.8643H419.303C420.799 72.8643 422.415 72.8643 424.091 72.8643C425.767 72.8643 427.323 72.8643 428.76 72.8643C430.196 72.8643 431.393 72.8643 432.291 72.8643C433.189 72.8643 433.728 72.8643 433.787 72.9835C434.027 73.1623 434.146 74.3542 434.206 76.5593C434.206 77.6916 434.266 78.824 434.326 80.0159C434.386 81.2078 434.326 82.4594 434.446 83.7705C434.446 86.0352 434.446 87.9423 434.446 89.611C434.446 91.2797 434.326 92.71 434.206 93.9616C434.087 95.2131 433.907 96.3454 433.668 97.299C433.428 98.2525 433.129 99.1465 432.77 99.9808C432.291 101.352 431.752 102.365 431.034 102.901C430.316 103.437 429.298 103.855 427.922 104.153C426.605 104.331 425.348 104.51 424.151 104.689C422.954 104.868 422.235 104.927 422.056 104.808C422.056 104.808 421.936 103.974 421.757 102.424C421.637 101.769 421.577 101.173 421.517 100.636C421.457 100.1 421.397 99.5637 421.397 99.1465V97.895H422.235C422.774 97.895 423.313 97.8354 423.792 97.6566C424.27 97.4778 424.63 97.3586 424.929 97.1798L425.228 96.6434C425.228 96.6434 425.468 96.107 425.587 95.8091C425.707 95.5111 425.767 94.9747 425.887 94.3191C426.006 93.6636 426.126 92.8888 426.246 91.9949C426.365 91.1009 426.485 90.207 426.605 89.2534C426.725 88.2999 426.904 87.4059 427.024 86.512C427.143 85.7372 427.203 84.9028 427.263 84.1281C427.323 83.3533 427.383 82.5786 427.503 81.8634L427.682 80.1351C427.682 79.6583 427.742 79.3603 427.742 79.2411C427.742 79.0028 427.503 78.9432 427.084 79.0028C426.784 79.0028 426.605 79.0624 426.545 79.2411C426.485 79.4199 426.365 79.7775 426.186 80.4331C425.887 81.6846 425.408 82.9957 424.869 84.3665C424.33 85.7372 423.732 87.1079 423.073 88.4787C422.415 89.8494 421.697 91.2201 420.978 92.4716C420.26 93.7232 419.542 94.9747 418.764 96.107C418.465 96.5242 417.986 97.2394 417.267 98.1929C416.549 99.1465 415.831 100.1 414.993 101.113C414.155 102.126 413.437 102.961 412.778 103.795C412.12 104.629 411.641 105.047 411.402 105.106C411.282 104.987 410.983 104.808 410.624 104.391C410.264 103.974 409.786 103.616 409.307 103.139C408.828 102.663 408.409 102.305 407.99 101.888L407.212 101.113C407.212 101.113 406.972 100.875 406.972 100.756C406.972 100.636 406.972 100.458 407.152 100.219C407.332 99.9808 407.511 99.6233 407.81 99.1465C408.11 98.6697 408.529 98.1333 409.127 97.3586C410.983 94.5575 412.599 91.9353 413.975 89.5514C415.352 87.1675 416.489 84.8432 417.387 82.7574C417.746 81.6846 417.986 80.8503 418.046 80.1947C418.105 79.5391 418.046 79.2411 417.746 79.3007C417.627 79.4199 417.447 79.4199 417.148 79.4199H414.873L414.454 80.6715C414.335 81.0886 414.095 81.625 413.796 82.3402C413.497 83.0553 413.197 83.7109 412.838 84.4857C412.479 85.2604 412.12 86.0352 411.701 86.8099C411.282 87.5847 410.923 88.2403 410.564 88.717C410.205 89.1938 409.845 89.7302 409.606 90.207C409.367 90.6837 409.127 91.1009 408.948 91.4585C407.81 93.4252 406.553 95.1535 405.117 96.6434C403.68 98.1333 402.364 99.1465 401.107 99.5637C400.688 99.6829 400.388 99.7425 400.269 99.7425C400.149 99.7425 399.969 99.5637 399.85 99.3849C399.67 99.1465 399.431 98.8485 399.191 98.4313C398.952 98.0141 398.653 97.597 398.413 97.1202C398.174 96.6434 397.934 96.2858 397.755 95.8687C397.575 95.4515 397.456 95.1535 397.396 94.9747C397.396 94.8555 397.456 94.6767 397.635 94.4383C397.815 94.1999 398.054 94.0212 398.413 93.7828C398.832 93.4848 399.191 93.2464 399.491 92.9484C399.79 92.6504 400.149 92.2928 400.508 91.8161C400.867 91.3393 401.286 90.8029 401.765 90.1474C402.244 89.4918 402.783 88.6574 403.501 87.6443L404.459 85.7372C404.818 85.022 405.177 84.3069 405.536 83.5917C405.895 82.8765 406.194 82.1614 406.494 81.4462C406.793 80.7311 406.972 80.1947 407.152 79.7179C407.152 79.4199 407.032 79.2411 406.733 79.2411C406.553 79.2411 406.075 79.6583 405.356 80.5523C404.518 81.8038 403.501 82.9361 402.364 84.0089C401.226 85.0816 400.209 85.6776 399.371 85.916C399.251 85.916 399.072 85.916 398.952 85.916C398.832 85.916 398.593 85.6776 398.294 85.32C397.695 84.6645 397.096 83.9493 396.618 83.1149C396.139 82.2806 395.84 81.8038 395.84 81.5654C395.84 81.4462 395.959 81.2674 396.139 81.029C396.318 80.7907 396.558 80.4927 396.857 80.1947H396.677ZM407.272 49.6215C407.391 50.2771 407.451 50.8134 407.511 51.2902C407.571 51.767 407.631 52.0054 407.691 52.065C407.691 52.065 409.187 52.1246 411.94 52.1246H416.011C417.387 52.1246 418.884 52.1246 420.44 52.065L423.193 51.9458V46.9396H416.07C415.232 46.9396 414.813 46.9396 414.754 47.0588H413.796C413.497 47.0588 413.078 47.1184 412.659 47.1184H411.282C410.384 47.1184 409.606 47.1184 408.888 47.178C408.17 47.2376 407.751 47.2376 407.631 47.2376C407.391 47.2376 407.272 47.3568 407.272 47.6548V49.6215ZM407.391 62.3156H408.469C408.469 62.3156 409.606 62.4348 411.102 62.4348C412.599 62.4348 414.275 62.4944 416.25 62.4944H423.193V60.1701C423.193 59.0974 423.193 58.4418 423.133 58.1439C423.073 57.8459 423.014 57.7863 422.834 57.8459C422.654 57.8459 421.816 57.8459 420.38 57.8459C418.943 57.8459 417.148 57.8459 415.053 57.8459C412.958 57.9651 411.222 58.0247 409.846 58.0247C408.469 58.0247 407.751 58.0247 407.691 58.0247C407.691 58.1439 407.691 58.3226 407.691 58.7398C407.691 59.157 407.631 59.5742 407.511 60.1106V62.1368L407.391 62.3156Z" fill="#FF5F17"/>
<path d="M462.517 64.4611C465.63 64.2227 468.623 64.0439 471.556 63.9843C474.488 63.9247 477.541 63.8651 480.594 63.8651C484.604 63.8651 486.639 63.8055 486.699 63.6267C486.699 63.5075 486.699 63.1499 486.699 62.554C486.699 61.958 486.699 61.064 486.699 60.0509C486.699 59.0378 486.699 57.7862 486.699 56.3559C486.699 54.9256 486.699 53.4952 486.699 51.8861C486.699 50.277 486.699 48.7275 486.699 47.3568C486.699 45.986 486.699 44.7345 486.759 43.6618C486.818 42.589 486.759 41.7547 486.818 41.0991C486.878 40.4435 486.818 40.086 486.818 40.0264C486.818 40.0264 487.178 40.0264 487.836 39.9072C488.494 39.788 489.273 39.7284 490.17 39.6688C491.008 39.6688 491.906 39.5496 492.924 39.5496C493.941 39.5496 494.779 39.49 495.438 39.49C496.455 39.49 497.113 39.49 497.353 39.5496C497.592 39.6092 497.712 39.7284 497.712 39.9072C497.712 40.1456 497.772 41.2779 497.772 43.3042V50.9326C497.772 52.3629 497.772 53.7336 497.772 55.1044C497.772 56.4751 497.772 57.6074 497.772 58.6206C497.772 59.6337 497.772 60.4681 497.772 61.1236C497.772 61.7792 497.772 62.1964 497.772 62.3156L498.011 63.1499L499.568 63.0307C500.106 63.0307 501.184 62.9116 502.86 62.852C504.535 62.7924 506.391 62.6732 508.426 62.6136C510.521 62.6136 512.496 62.4944 514.292 62.4348C516.087 62.3752 517.344 62.3156 518.063 62.3156L520.457 62.1964L520.696 63.3883L521.055 65.4742C521.175 66.3086 521.355 67.3217 521.474 68.4541C521.774 70.7187 521.893 72.0895 521.893 72.447C521.774 72.447 521.295 72.447 520.337 72.5662C519.379 72.6854 518.182 72.6854 516.686 72.6854C515.309 72.8046 513.933 72.8642 512.676 72.9238C511.419 72.9834 510.521 73.043 510.102 73.1026C509.563 73.2218 508.665 73.2814 507.408 73.341C506.152 73.4006 504.715 73.4602 503.219 73.5198C501.662 73.639 500.406 73.6986 499.328 73.6986C498.251 73.6986 497.652 73.7582 497.532 73.8774C497.413 73.7582 497.293 73.9966 497.293 74.5329C497.293 75.0693 497.293 76.2612 497.293 78.1087C497.293 78.7047 497.293 79.5987 497.293 80.6714C497.293 81.7442 497.293 83.0553 497.293 84.426C497.293 85.7967 497.293 87.3463 497.293 88.9554C497.293 90.5645 497.293 92.1736 497.293 93.7827V105.464L491.846 105.583H486.579V96.4646C486.579 95.3918 486.579 94.7363 486.519 94.5575C486.519 94.3191 486.519 93.2463 486.459 91.2201C486.399 89.1938 486.4 86.8099 486.4 83.83L486.16 73.5794H482.569C480.773 73.6986 478.858 73.7582 476.703 73.8178C474.548 73.8774 472.214 73.937 469.64 74.0562C464.553 74.1754 461.68 74.2945 461.081 74.2945V73.4006C461.081 72.9238 461.081 72.2683 460.961 71.4935C460.842 69.8844 460.722 68.6924 460.722 67.9773C460.722 67.4409 460.662 67.1429 460.482 66.9045C460.662 66.7257 460.722 66.3086 460.602 65.7126C460.482 65.5934 460.482 65.4742 460.482 65.2358C460.482 64.9974 460.602 64.8186 460.782 64.7591C460.961 64.6995 461.5 64.5803 462.338 64.4611H462.517Z" fill="#FF5F17"/>
<path d="M532.847 76.1419C532.847 76.1419 533.086 75.9631 533.385 75.7843C533.684 75.6055 534.103 75.4267 534.522 75.2479C535.48 74.5924 536.797 73.46 538.473 71.7317C539.55 70.659 540.508 69.6458 541.286 68.7519C542.064 67.8579 542.782 66.9044 543.441 66.0104C544.099 65.1165 544.698 64.1033 545.236 63.0306C545.775 61.9578 546.493 60.7063 547.152 59.3356L548.768 56.0577L536.677 56.2961V52.1243C536.498 50.992 536.438 50.0385 536.438 49.2637V47.9526C536.438 47.9526 537.036 47.8334 537.755 47.8334C538.473 47.8334 539.431 47.7142 540.448 47.7142C541.466 47.7142 542.663 47.595 543.86 47.595C545.057 47.595 546.314 47.5354 547.451 47.4758C548.588 47.4162 549.666 47.4758 550.623 47.4162C551.581 47.3566 552.239 47.4162 552.658 47.4162C552.838 47.4162 553.077 47.1182 553.437 46.4626C553.796 45.8071 554.095 45.0323 554.394 44.0788C554.693 43.1848 555.053 42.2313 555.531 41.0989C556.01 39.9666 556.31 39.2514 556.489 38.7747C556.609 38.6555 556.669 38.5363 556.788 38.3575C556.788 38.3575 556.788 38.2383 556.848 38.2383C556.848 38.2383 557.148 38.2979 557.566 38.4767C557.985 38.6555 558.464 38.8342 559.063 39.1322C559.721 39.3706 560.44 39.609 561.337 39.907C562.235 40.205 562.894 40.4434 563.492 40.6222C564.749 40.9201 565.647 41.1585 566.186 41.3969C566.724 41.6353 566.964 41.9333 566.964 42.1717C566.964 42.4697 566.904 43.006 566.605 43.9C566.305 44.7939 565.946 45.6283 565.527 46.5818L564.749 47.8334H565.587C565.587 47.8334 566.305 48.0122 567.143 48.0122C567.981 48.0122 569.118 48.0122 570.555 48.0718C571.992 48.1314 573.548 48.0718 575.403 48.1314C577.259 48.191 579.174 48.1314 581.269 48.2506C583.364 48.2506 585.339 48.2506 587.135 48.2506C588.93 48.2506 590.487 48.2506 591.803 48.3101C593.12 48.3697 594.557 48.3101 596.053 48.4293V49.6809C596.053 50.4556 596.053 51.4092 595.993 52.4819V56.4153L579.593 56.6537C577.319 56.6537 575.164 56.6537 573.129 56.6537C571.094 56.6537 569.358 56.6537 567.862 56.7133C566.365 56.7729 565.108 56.7133 564.151 56.7729C563.193 56.8325 562.594 56.7729 562.415 56.7729C562.175 56.7729 561.996 56.8921 561.756 57.1305C561.517 57.3689 561.218 58.0244 560.679 59.0376C560.38 59.6335 560.021 60.3487 559.482 61.1831C558.943 62.0174 558.524 62.7922 558.105 63.5073C557.567 64.2225 557.148 64.8781 556.729 65.5932C556.31 66.3084 556.01 66.8448 555.891 67.2024C555.711 67.5003 555.531 67.8579 555.352 68.2155C555.172 68.5731 554.993 68.8115 554.873 68.9307C554.753 69.169 554.634 69.467 554.574 69.8246C554.514 70.1822 554.454 70.7186 554.454 71.4933C554.454 72.1489 554.454 73.162 554.334 74.4732C554.215 75.7843 554.215 77.155 554.215 78.5853C554.215 79.9561 554.095 81.3268 554.035 82.6975C553.975 84.0683 553.915 85.439 553.856 86.8693C553.796 88.2996 553.796 89.8492 553.736 91.4583C553.676 93.0674 553.736 94.9149 553.736 96.8816C553.736 98.6099 553.736 100.159 553.616 101.53C553.496 102.901 553.496 103.795 553.496 104.212L553.377 105.464H543.92L544.039 93.425V81.3864L542.244 82.8763C541.705 83.3531 541.166 83.7703 540.628 84.1875C540.089 84.6046 539.73 84.7834 539.49 84.843L538.652 85.2602L537.814 84.7834C537.276 84.4258 536.677 83.7107 536.019 82.7571C535.36 81.8036 534.522 80.6116 533.684 79.1813C533.086 78.049 532.727 77.3338 532.547 76.9166C532.368 76.4995 532.487 76.3207 532.787 76.2015L532.847 76.1419ZM556.788 96.9412H571.333V80.6712H569.657C569.118 80.6712 568.34 80.6712 567.143 80.6712C565.946 80.6712 564.809 80.7308 563.612 80.85C562.415 80.9692 561.457 81.0884 560.619 81.0884C559.781 81.0884 559.362 81.0884 559.302 81.0884C559.302 81.0884 559.302 80.85 559.242 80.552C559.183 80.2541 559.183 79.8369 559.183 79.3601C559.183 78.8237 559.063 78.347 559.063 77.9298C559.063 77.5126 559.003 77.155 559.003 76.857C558.883 75.7843 558.764 74.8307 558.704 73.9368C558.644 73.0428 558.584 72.5661 558.584 72.4469C558.764 72.2681 559.602 72.2085 561.098 72.3277C563.612 72.4469 565.826 72.5661 567.622 72.6853C569.418 72.8045 570.555 72.9236 570.914 72.9832C571.393 72.9832 571.632 72.9236 571.632 72.7449C571.752 72.6257 571.812 71.9701 571.812 70.7782C571.812 69.5862 571.812 68.1559 571.812 66.4872L572.051 60.6467H575.762C576.78 60.5871 577.738 60.5871 578.695 60.5871C579.653 60.5871 580.251 60.5871 580.611 60.4679C581.149 60.4679 581.508 60.4679 581.688 60.5275C581.868 60.5871 581.927 60.7659 581.927 61.0043C582.047 61.1235 582.107 61.7194 582.107 62.7922C582.107 63.8649 582.107 65.1761 582.107 66.7256C582.107 67.9175 582.107 68.9307 582.107 69.6458C582.107 70.361 582.107 70.957 582.167 71.3741C582.227 71.7913 582.167 72.0297 582.287 72.0893C582.406 72.1489 582.406 72.2085 582.406 72.1489C583.184 72.1489 584.082 72.2681 585.04 72.2681C585.997 72.2681 587.075 72.3873 588.212 72.3873C589.349 72.3873 590.367 72.4469 591.085 72.5065C591.803 72.5661 592.342 72.5065 592.701 72.5065C592.881 72.5065 593.06 72.5065 593.18 72.5661C593.3 72.6257 593.419 72.6853 593.539 72.6853C593.539 72.9236 593.599 73.3408 593.599 73.9368V76.3207C593.599 77.3338 593.599 78.1682 593.539 78.7045C593.479 79.2409 593.419 79.6581 593.419 79.7773C593.419 79.8965 592.761 79.9561 591.684 79.9561C590.606 79.9561 589.17 80.0157 587.554 80.1349C585.938 80.1349 584.621 80.1349 583.484 80.1349C582.346 80.1349 581.748 80.1945 581.688 80.3137C581.688 80.3137 581.568 81.148 581.568 82.6975C581.568 84.247 581.449 86.0945 581.449 88.3592L581.329 96.226L587.853 96.4644C589.828 96.5836 591.504 96.6432 592.881 96.7028C594.257 96.7624 595.155 96.822 595.574 96.8816L596.831 97.0008V105.821L581.269 105.702H569.059C567.203 105.702 565.647 105.642 564.39 105.642H557.507V104.033C557.507 104.033 557.507 103.497 557.387 103.318C557.387 103.02 557.387 102.603 557.267 102.067C557.148 101.53 557.148 100.875 557.148 100.279C557.148 99.5634 557.028 98.9675 557.028 98.4907C557.028 98.0139 556.968 97.5967 556.968 97.3584V96.8816L556.788 96.9412Z" fill="#FF5F17"/>
<path d="M602.817 43.4234C602.817 43.4234 602.877 43.0658 603.056 43.0658C603.236 43.0658 603.535 43.0658 604.134 43.0658C604.433 43.0658 605.091 43.0658 606.109 43.185C607.126 43.3042 608.204 43.3042 609.401 43.3042C611.017 43.3042 612.633 43.4234 614.189 43.4234C615.745 43.4234 617.182 43.483 618.439 43.5426C619.696 43.6022 620.893 43.5426 621.911 43.6022C622.928 43.6618 623.706 43.6022 624.245 43.6022H625.801V46.7608C625.801 47.7143 625.801 48.4891 625.801 49.0851C625.801 49.681 625.801 49.979 625.801 50.0982C625.681 50.0982 625.322 50.2174 624.784 50.2174C624.245 50.2174 623.586 50.277 622.868 50.277C620.953 50.3962 619.995 50.4558 619.995 50.575C619.995 50.6942 619.875 51.2306 619.875 52.1245C619.875 53.0185 619.756 54.0912 619.756 55.3427C619.636 56.5943 619.576 57.7862 619.516 58.9186C619.456 60.0509 619.397 60.8853 619.397 61.4812V63.2691L621.492 63.1499C622.03 63.1499 622.569 63.0903 623.048 63.0903C623.527 63.0903 623.766 63.0903 623.766 63.1499C623.766 63.2691 623.826 63.6267 623.826 64.3419C623.826 65.057 623.826 65.8914 623.766 66.8449L623.646 70.4803L621.551 70.5995C621.013 70.5995 620.474 70.5995 620.055 70.5995C619.636 70.5995 619.397 70.6591 619.397 70.7783V71.3147C619.397 71.3147 619.337 71.6723 619.337 71.9107C619.337 72.1491 619.337 72.3874 619.217 72.6258C619.217 73.1622 619.217 73.6986 619.217 74.1753C619.217 74.6521 619.217 75.0097 619.217 75.1885C619.097 75.7249 619.038 76.3804 619.038 77.2744C619.038 78.1683 619.037 79.1815 618.918 80.3734C618.918 81.625 618.918 82.6381 618.918 83.4129C618.918 84.1876 618.918 84.724 619.038 84.9624V85.6775L620.354 85.3796C620.773 85.2604 621.252 85.1412 621.791 85.022C622.33 84.9028 622.808 84.8432 623.287 84.7836C623.766 84.724 624.185 84.6644 624.544 84.6644C624.903 84.6644 625.143 84.6644 625.203 84.6644C625.203 84.7836 625.262 84.9028 625.262 85.022C625.262 85.1412 625.262 85.32 625.382 85.4987C625.502 85.7967 625.621 86.2735 625.741 86.8099C625.861 87.3462 625.981 88.121 626.16 89.0746C626.16 89.4917 626.28 89.8493 626.34 90.2069C626.4 90.5645 626.519 90.8029 626.579 90.9221C626.579 90.9221 626.16 91.1604 625.382 91.5776C625.083 91.6968 624.604 91.8756 623.946 92.114C623.287 92.3524 622.689 92.5908 622.15 92.8292C620.414 93.4847 618.798 94.1403 617.182 94.7959C615.566 95.4514 614.548 95.9282 613.95 96.2262C611.855 96.7626 610.179 97.1797 608.862 97.4181C607.545 97.6565 606.648 97.7757 606.109 97.7757C605.989 97.7757 605.81 97.7757 605.69 97.7757C605.57 97.7757 605.45 97.6565 605.331 97.4181C605.211 97.1797 605.151 96.8817 605.031 96.405C604.912 95.9282 604.792 95.2726 604.672 94.4383C604.553 93.9019 604.433 93.3655 604.313 92.9484C604.194 92.5312 604.134 92.2332 604.014 92.114C603.834 91.5776 603.834 91.1605 604.014 90.9817C604.194 90.8029 604.912 90.5049 605.989 90.2069C607.306 89.8493 608.204 89.5513 608.683 89.3129C609.161 89.0746 609.461 88.8362 609.64 88.5978C609.88 88.4786 609.999 88.0018 610.059 87.0483C610.059 86.5715 610.119 85.7371 610.119 84.5452V71.3743H607.246C605.57 71.4935 604.613 71.3743 604.433 71.0763C604.194 70.7187 604.074 69.5268 604.074 67.5601C604.074 66.4278 604.074 65.653 604.074 65.1762C604.074 64.6995 604.134 64.4611 604.253 64.4015C604.253 64.2823 604.613 64.2227 605.151 64.2227C605.69 64.2227 606.288 64.1631 607.007 64.0439C607.725 64.0439 608.383 64.0439 608.982 64.0439C609.58 64.0439 609.94 63.9843 610.179 63.8651H610.837L610.957 59.0377C610.957 57.7266 610.957 56.4751 610.957 55.2236C610.957 53.972 610.957 53.0781 610.957 52.5417L611.077 50.873L608.383 50.9922C607.665 50.9922 607.007 50.9922 606.288 50.9922C605.57 50.9922 605.151 51.0518 604.852 51.171C604.553 51.171 604.313 51.171 604.074 51.171C603.834 51.171 603.655 51.171 603.595 51.171C603.595 51.171 603.475 50.6942 603.415 49.9194C603.356 49.1447 603.296 48.3103 603.176 47.3568C603.056 46.4032 603.056 45.5093 602.937 44.6749C602.817 43.8406 602.817 43.3042 602.817 43.1254V43.4234ZM623.167 99.802C623.167 99.802 623.467 99.6828 623.826 99.3848C624.784 98.6697 625.741 97.7161 626.819 96.5838C627.896 95.4514 628.734 94.3191 629.273 93.1271C629.751 92.1736 630.23 91.0413 630.649 89.8493C631.068 88.6574 631.547 87.4058 631.966 86.2139C632.385 85.022 632.744 83.83 633.103 82.6381C633.462 81.4462 633.702 80.433 633.881 79.5391C634.001 78.2875 634.181 76.5592 634.3 74.2945C634.42 72.3874 634.48 71.0763 634.36 70.3016C634.36 70.3016 633.403 70.242 631.547 70.242H628.674C628.674 70.242 628.435 69.8844 628.375 69.1692C628.315 68.4541 628.255 67.2621 628.195 65.5934L628.076 63.0903H635.677C637.712 63.0903 639.508 63.0903 641.184 63.0903C642.86 63.0903 644.416 63.0903 645.852 62.9711C647.289 62.8519 648.666 62.8519 650.042 62.8519C651.419 62.8519 652.736 62.7328 654.172 62.7328C655.309 62.6136 656.387 62.554 657.464 62.554C658.542 62.554 659.38 62.4944 660.038 62.3752H663.629V64.0439C663.809 64.5803 663.869 65.1762 663.869 65.8318C663.869 66.4874 663.928 67.2025 664.048 67.7985V69.8248H659.918H656.926C656.088 69.8248 655.669 69.8248 655.669 69.8844C655.669 70.0036 655.549 70.5995 655.489 71.7915C655.429 72.9834 655.309 74.4137 655.25 76.0824C655.25 76.6784 655.25 77.5128 655.13 78.6451C655.01 79.7775 655.01 80.7906 654.95 81.7441C654.95 82.7573 654.95 84.128 654.831 85.7967C654.711 87.4654 654.711 89.0746 654.711 90.5645V95.809L655.19 96.0474C655.669 96.2262 656.267 96.3454 657.105 96.3454C657.943 96.3454 658.482 96.3454 658.901 96.2262C659.08 96.2262 659.26 96.107 659.499 95.9878C659.739 95.8686 659.858 95.809 660.038 95.7494C660.277 95.6302 660.397 95.3322 660.517 94.9746C660.637 94.6171 660.636 93.8423 660.636 92.71V90.2069H667.041L667.4 91.5776C667.52 92.0544 667.58 92.6504 667.699 93.4251C667.819 94.1999 667.819 95.3322 667.819 96.8221V100.815L667.4 101.769C666.682 102.782 665.245 103.557 663.21 104.093C662.672 104.093 662.073 104.212 661.415 104.391C660.756 104.57 660.098 104.629 659.499 104.749C658.781 104.868 658.182 104.927 657.584 104.987C656.985 105.047 656.447 105.106 655.848 105.106C655.369 105.106 654.89 105.106 654.412 105.047C653.933 104.987 653.334 104.927 652.676 104.749C651.718 104.629 651 104.51 650.521 104.391C650.042 104.272 649.563 104.033 649.085 103.676C647.887 103.378 647.109 102.305 646.81 100.398C646.511 98.4909 646.391 93.2463 646.391 84.7836V70.242H645.314C644.835 70.242 644.536 70.242 644.356 70.242C644.176 70.242 644.057 70.4207 643.997 70.7187C643.997 70.8379 643.997 71.1955 643.817 71.6723C643.638 72.1491 643.638 72.6854 643.638 73.2218C643.219 77.1552 642.68 80.6714 642.082 83.7108C641.483 86.7503 640.765 89.3725 639.987 91.5776C639.388 93.0675 638.73 94.5575 638.131 96.0474C637.533 97.5373 636.695 98.9676 635.797 100.398C635.498 100.875 635.019 101.411 634.42 102.067C633.822 102.722 633.163 103.259 632.505 103.795C631.846 104.331 631.068 104.808 630.35 105.166C629.632 105.523 628.913 105.762 628.315 105.821C627.477 105.821 626.459 104.808 625.322 102.841C625.023 102.484 624.784 102.067 624.484 101.59C624.185 101.113 624.005 100.815 623.826 100.577C623.706 100.458 623.586 100.338 623.527 100.219C623.467 100.1 623.407 100.04 623.347 99.9808C623.287 99.9212 623.287 99.8616 623.287 99.8616C623.287 99.8616 623.287 99.7424 623.227 99.7424L623.167 99.802ZM630.949 41.8143C632.924 42.0526 634.959 42.1718 637.114 42.1718C639.268 42.1718 641.303 42.1718 643.279 42.1718C644.476 42.0526 645.852 41.9931 647.289 41.9931C648.725 41.9931 650.401 41.9931 652.137 41.8739C653.933 41.8739 655.429 41.8739 656.626 41.8739C657.823 41.8739 658.781 41.8739 659.439 41.9931L661.115 42.1122V45.5093C661.115 46.582 661.055 47.4164 661.055 48.0719C661.055 48.7275 661.055 49.0255 660.936 49.0255C660.936 49.1447 660.577 49.2043 659.858 49.2043C659.14 49.2043 658.242 49.2639 657.165 49.3831C656.147 49.3831 655.01 49.5023 653.873 49.5619C652.736 49.6214 651.778 49.7406 651.06 49.8002C650.042 49.9194 648.606 49.979 646.87 50.0386C645.134 50.0982 642.86 50.1578 640.226 50.277C637.592 50.3962 635.498 50.3962 633.941 50.3962C632.385 50.3962 631.487 50.3962 631.128 50.3366C631.128 50.3366 631.008 49.6214 630.829 48.4295C630.649 47.2376 630.589 45.5093 630.47 43.3638V41.6951L631.008 41.7547L630.949 41.8143Z" fill="#FF5F17"/>
<path d="M676.079 80.0158C676.079 80.0158 676.319 79.7774 676.738 79.5391C677.156 79.3007 677.695 79.0027 678.294 78.6451C680.688 77.2744 682.962 75.7249 685.117 73.937C687.272 72.1491 689.307 70.2419 691.282 68.1561C693.257 66.0702 695.053 63.9843 696.849 61.7792C698.644 59.5741 700.32 57.4286 701.996 55.3427C702.954 54.1508 703.672 53.1377 704.271 52.3629C704.869 51.5881 705.228 50.9922 705.528 50.575C705.827 50.1578 705.947 49.8598 706.006 49.681C706.066 49.5022 706.006 49.4427 705.887 49.4427H704.211C703.313 49.4427 702.056 49.4427 700.5 49.5618C698.944 49.681 697.447 49.681 696.13 49.681C694.814 49.681 693.617 49.681 692.539 49.8002C691.522 49.8002 690.384 49.9194 689.247 49.979C688.11 50.0386 686.973 50.0982 685.835 50.2174C684.698 50.3366 683.74 50.3366 682.843 50.3962C681.945 50.4558 681.227 50.4558 680.688 50.4558H679.192L678.952 45.986C678.832 44.6153 678.832 43.5426 678.832 42.7082C678.832 41.8739 678.832 41.4567 678.832 41.3971C678.952 41.3971 679.551 41.3971 680.628 41.3971C681.705 41.3971 683.322 41.3971 685.237 41.3375C687.152 41.2779 689.546 41.3375 692.24 41.2779C694.933 41.2183 697.926 41.2779 701.218 41.2779H710.376C713.249 41.2779 716.122 41.2779 718.875 41.2183C721.629 41.1587 724.023 41.1587 725.818 41.1587H736.772L736.652 44.0789C736.652 44.9133 736.652 45.7476 736.652 46.4628C736.652 47.178 736.652 47.7739 736.652 48.1911V49.3235L728.452 49.5618C726.058 49.5618 724.023 49.5618 722.347 49.6214C720.671 49.681 719.653 49.7406 719.414 49.7406C719.055 49.7406 718.755 49.8002 718.636 49.979C718.516 50.1578 718.337 50.4558 718.217 50.9326C718.037 51.2306 717.678 51.8861 717.199 52.7801C716.72 53.674 716.182 54.6872 715.643 55.7599C714.805 57.1306 714.266 58.1438 713.967 58.7398C713.668 59.3357 713.608 59.6337 713.728 59.6337C713.728 59.7529 713.967 59.8721 714.266 60.1105C714.566 60.3489 714.925 60.5873 715.224 60.8256C715.643 61.1236 716.182 61.4216 716.78 61.8388C717.379 62.256 718.037 62.6136 718.576 62.9711C719.234 63.3883 720.012 63.9247 720.91 64.5207C721.808 65.1166 722.706 65.7126 723.544 66.249C725.34 67.4409 727.075 68.454 728.632 69.4076C730.188 70.3611 731.864 71.2551 733.659 72.149C735.275 72.9834 736.592 73.7582 737.729 74.4733C738.867 75.1885 739.465 75.6057 739.525 75.7249C739.525 76.0228 739.286 76.5592 738.747 77.2148C736.233 81.8037 734.916 84.0684 734.737 83.8896C734.497 83.7704 734.138 83.5916 733.599 83.2937C733.061 82.9957 732.462 82.6381 731.864 82.3401C731.265 82.0421 730.667 81.625 730.128 81.2674C729.589 80.9098 729.17 80.6714 728.871 80.4926C728.452 80.1946 727.973 79.8966 727.375 79.5391C726.776 79.1815 726.297 78.8835 725.878 78.6451L722.706 76.738C721.988 76.3208 721.269 75.8441 720.551 75.2481C720.012 74.9501 719.534 74.5925 719.055 74.2349C718.576 73.8774 718.157 73.5794 717.918 73.341C717.618 73.1622 717.139 72.8642 716.601 72.447C716.062 72.0299 715.583 71.5531 715.104 71.0763C713.907 70.1228 713.189 69.7056 713.069 69.8248V70.7783C713.069 71.3743 713.069 72.2086 713.069 73.2218C713.069 74.2349 713.069 75.4269 713.009 76.7976C712.95 78.1683 713.009 79.5987 712.89 81.1482V85.6775C712.89 87.1079 712.89 88.3594 712.89 89.4917C712.89 90.6241 712.89 91.5776 712.83 92.2928C712.77 93.0079 712.83 93.5443 712.71 93.8423C712.71 94.2595 712.71 94.9746 712.71 95.9282C712.71 96.8817 712.65 97.8353 712.531 98.8484C712.531 99.802 712.531 100.756 712.471 101.649C712.411 102.543 712.351 103.199 712.231 103.616L711.992 105.166H707.443L702.954 105.285L702.834 102.186C702.834 101.232 702.834 99.802 702.834 97.9545C702.834 96.107 702.774 94.1999 702.655 92.1736C702.655 91.22 702.655 90.1473 702.655 88.9554C702.655 87.7634 702.655 86.5715 702.595 85.3795C702.535 84.1876 702.595 82.9361 702.535 81.7441C702.475 80.5522 702.535 79.4795 702.535 78.5259V71.4935L702.116 72.149C701.936 72.447 701.517 72.9238 700.859 73.5794C700.201 74.2349 699.542 74.8905 698.824 75.5461C698.106 76.2016 697.387 76.9168 696.729 77.5128C696.071 78.1087 695.592 78.5259 695.233 78.7643C694.814 79.0623 694.215 79.5391 693.497 80.0754C692.779 80.6118 692 81.2078 691.162 81.8037C690.324 82.3997 689.546 82.9361 688.828 83.4725C688.11 84.0088 687.452 84.3664 687.033 84.6644L684.938 85.9159L683.022 87.0483C682.424 87.4058 681.945 87.7038 681.526 87.9422C681.107 88.1806 680.867 88.2998 680.808 88.2998C680.448 88.2998 680.209 88.121 680.149 87.823C679.97 87.525 679.67 86.9887 679.251 86.2735C678.832 85.5583 678.473 84.7836 677.994 84.0088C677.516 83.2341 677.216 82.4593 676.857 81.6845C676.498 80.9098 676.259 80.433 676.139 80.0754L676.079 80.0158Z" fill="#FF5F17"/>
<path d="M747.486 64.5802C748.024 63.865 748.623 63.1499 749.281 62.3751C749.94 61.6004 750.538 60.8852 751.077 60.1104C751.616 59.3357 752.154 58.7397 752.633 58.0841C753.112 57.4286 753.531 56.9518 753.77 56.5346C754.608 55.0447 755.506 53.2568 756.524 51.1113C757.541 48.9658 758.439 46.5223 759.277 43.7213C759.576 42.7677 759.876 41.9334 760.175 41.1586C760.474 40.3839 760.773 39.7879 760.953 39.3707L761.492 38L762.33 38.4172C762.689 38.596 763.108 38.8344 763.646 39.0727C764.185 39.3111 764.664 39.6091 765.143 39.8475C765.622 40.0859 766.16 40.3839 766.639 40.5627L767.896 41.099C768.614 41.397 769.093 41.6354 769.153 41.8738C769.333 42.4698 769.033 44.1981 768.195 47.1183C767.716 48.6082 767.238 49.979 766.819 51.2901C766.4 52.6012 765.861 53.7932 765.322 54.9255C764.963 55.7599 764.664 56.5346 764.424 57.1902C764.185 57.8457 764.005 58.4417 763.946 58.8589C763.946 59.2761 763.826 60.8256 763.826 63.4479C763.826 66.0701 763.766 69.7055 763.766 74.1753C763.766 78.3471 763.766 82.0421 763.766 85.2603C763.766 88.4785 763.706 91.2796 763.646 93.7231C763.586 96.1665 763.467 98.2524 763.347 99.9807C763.227 101.709 763.048 103.199 762.868 104.391L762.629 105.881L758.439 105.762H754.249V102.782C754.249 101.828 754.249 100.696 754.249 99.2656C754.249 97.8352 754.249 96.5241 754.369 95.213C754.489 93.6039 754.548 91.518 754.608 89.0149C754.668 86.5118 754.728 83.5916 754.728 80.1946C754.848 73.5197 754.848 69.8247 754.728 69.1096C754.728 69.1096 754.668 69.2287 754.608 69.2287C754.548 69.2287 754.548 69.3479 754.429 69.4671C754.309 69.5863 754.249 69.6459 754.189 69.7651C754.129 69.8843 754.01 70.0035 753.95 70.2419C752.992 71.851 752.214 72.6854 751.675 72.6854C751.556 72.6854 751.316 72.447 750.957 72.149C750.598 71.851 750.299 71.4934 749.88 71.0762C749.461 70.6591 749.102 70.1823 748.623 69.7055C748.144 69.2287 747.785 68.752 747.366 68.3348C747.067 67.9176 746.827 67.56 746.648 67.2025C746.468 66.8449 746.289 66.7257 746.289 66.7257C746.169 66.7257 746.169 66.4873 746.289 66.1893C746.408 65.8913 746.887 65.355 747.545 64.6398L747.486 64.5802ZM770.769 72.2682C771.727 72.2682 772.804 72.3278 773.941 72.3278H777.533C778.79 72.3278 780.585 72.3278 782.92 72.2682C785.254 72.2086 788.067 72.149 791.419 72.149C792.975 72.149 794.531 72.149 796.028 72.149C797.524 72.149 799.02 72.149 800.397 72.0894C801.774 72.0298 802.971 72.0894 804.048 72.0298C805.126 71.9702 805.964 72.0298 806.622 72.0298H811.051L811.291 72.9833C811.41 73.3409 811.47 73.9369 811.53 74.6521C811.59 75.3672 811.65 76.3804 811.71 77.5127C811.829 79.837 811.829 81.2077 811.71 81.6249C811.53 81.7441 811.171 81.8037 810.632 81.8037C810.094 81.8037 809.435 81.8633 808.537 81.9825C806.742 82.1017 805.664 82.1017 805.365 81.9825C805.245 81.8633 805.126 81.5057 805.006 80.9693C804.886 80.433 804.886 79.837 804.886 79.1218V77.8703H800.277C798.901 77.8703 797.584 77.8703 796.327 77.9299C795.07 77.9895 794.172 77.9895 793.574 77.9895C792.975 77.9895 792.077 78.1087 790.88 78.1683C789.683 78.2279 788.546 78.3471 787.469 78.4067C786.271 78.4067 784.895 78.5259 783.219 78.645C781.543 78.7642 780.047 78.8834 778.61 79.0026C777.293 79.0026 776.276 79.1218 775.617 79.241C774.959 79.3602 774.42 79.4794 774.121 79.5986C773.822 79.7178 773.642 79.8966 773.582 80.135C773.522 80.3734 773.582 80.6713 773.582 80.9693C773.582 81.2077 773.582 81.4461 773.582 81.7441C773.582 82.0421 773.522 82.3401 773.403 82.5188L773.103 83.234H770.171C769.333 83.1744 768.614 83.1148 768.016 83.1148C767.417 83.1148 767.058 82.9956 767.058 82.9956C767.058 82.8764 767.058 82.3401 766.998 81.3269C766.938 80.3138 766.938 79.0622 766.938 77.5127V72.149L770.889 72.2682H770.769ZM769.991 45.1516C769.991 45.1516 770.051 44.9728 770.23 44.9132C770.41 44.8536 770.709 44.8536 771.188 44.794C771.667 44.7344 772.385 44.794 773.343 44.794C774.3 44.794 775.557 44.794 777.173 44.9132L784.236 45.0324L784.117 44.0789C784.117 44.0789 783.997 43.4233 783.877 43.0061C783.758 42.589 783.638 42.1718 783.518 41.7546C783.219 40.9202 783.099 40.4435 783.099 40.2647C783.219 40.2647 783.758 40.2647 784.835 40.1455C785.912 40.0263 787.169 39.9667 788.666 39.8475C789.204 39.8475 789.743 39.7283 790.222 39.7283C790.701 39.7283 791 39.6687 791.18 39.6687C791.359 39.6687 791.479 39.7879 791.598 39.9667C791.718 40.1455 791.838 40.7415 792.077 41.695C792.197 42.1122 792.257 42.4698 792.377 42.8273C792.496 43.1849 792.556 43.3637 792.676 43.3637C792.676 43.3637 793.574 43.4829 795.25 43.4829C796.926 43.4829 799.02 43.5425 801.534 43.5425H810.393V50.6941H809.315C808.717 50.6941 806.921 50.8133 803.929 50.8729C800.936 50.9325 797.165 51.0517 792.616 51.1113C790.94 51.1113 789.144 51.1113 787.289 51.2305C785.433 51.3497 783.877 51.3497 782.74 51.4093C781.543 51.4093 780.106 51.4093 778.55 51.5285C776.994 51.6477 775.617 51.6477 774.36 51.6477L770.171 51.8861L769.931 50.2174C769.931 49.0254 769.871 47.9527 769.871 46.9991C769.871 46.0456 769.871 45.39 769.931 45.2112L769.991 45.1516ZM772.684 69.2287C772.684 69.2287 772.804 68.9904 772.684 68.8116C772.565 68.8116 772.505 68.6924 772.565 68.3944C772.565 68.2752 772.565 67.5004 772.625 66.0701C772.684 64.6398 772.744 62.9711 772.744 61.064C772.744 59.0973 772.744 57.4882 772.804 56.1174C772.864 54.7467 772.924 54.0316 772.924 53.9124C773.163 53.9124 773.343 53.9124 773.403 53.8528H774.719C775.258 53.8528 775.976 53.8528 776.814 53.7336C777.652 53.6144 778.49 53.5548 779.328 53.4952C780.286 53.4952 781.663 53.4356 783.578 53.4356C785.493 53.4356 787.887 53.4356 790.82 53.376C793.753 53.3164 796.327 53.376 798.482 53.376C800.637 53.376 802.492 53.376 803.988 53.4952H806.442V55.4023C806.442 55.9387 806.442 56.6538 806.383 57.5478C806.323 58.4417 806.263 59.2761 806.263 60.1104C806.263 60.9448 806.263 61.8983 806.143 63.0307C806.023 64.163 806.023 64.9974 806.023 65.7125C805.904 66.4277 805.844 67.0833 805.844 67.56C805.844 68.0368 805.844 68.3348 805.844 68.454C805.724 68.454 805.305 68.454 804.467 68.454C803.629 68.454 802.552 68.5136 801.295 68.6328C799.978 68.6328 798.601 68.752 797.225 68.8116C795.848 68.8712 794.651 68.9904 793.693 69.05C793.274 69.05 792.676 69.05 791.898 69.05C791.12 69.05 790.162 69.05 789.144 69.1691C788.127 69.2883 786.93 69.2883 785.733 69.2883C784.536 69.2883 783.219 69.4075 781.962 69.4075C779.508 69.4075 777.473 69.4075 775.737 69.5267C774.001 69.6459 773.103 69.6459 773.044 69.6459C772.505 69.6459 772.385 69.5267 772.625 69.2883L772.684 69.2287ZM774.181 82.9956V81.9229H776.575C777.233 82.0421 778.071 82.1017 779.029 82.1017C779.987 82.1017 781.244 82.1017 782.8 82.1017H803.929C804.108 82.8764 804.228 83.8896 804.348 85.0815C804.467 86.2734 804.467 87.2866 804.467 88.0613C804.348 88.0613 803.809 88.0613 802.851 88.1209C801.893 88.1805 800.637 88.1805 799.2 88.1805H796.207C795.489 88.1805 794.95 88.1805 794.591 88.1805C794.232 88.1805 794.053 88.1805 793.933 88.2997C793.813 88.4189 793.873 88.4189 793.933 88.5977C793.813 88.7169 793.753 89.1341 793.693 89.9684C793.634 90.8028 793.574 91.6968 793.514 92.7099C793.454 93.7231 793.454 94.6766 793.394 95.5706C793.334 96.4645 793.394 97.0605 793.394 97.3585C793.394 97.7756 793.334 98.312 793.334 98.908C793.334 99.5039 793.334 100.04 793.215 100.517C793.215 102.007 793.095 103.02 792.975 103.616C792.855 104.212 792.736 104.45 792.616 104.51C792.496 104.629 791.958 104.748 791.12 104.868C790.282 104.987 789.144 105.166 787.768 105.225C787.289 105.225 786.75 105.344 786.152 105.404C785.553 105.464 785.014 105.583 784.595 105.642C784.117 105.642 783.578 105.762 782.979 105.762C782.381 105.762 781.842 105.821 781.363 105.821H779.687L779.268 103.08C779.149 102.245 779.029 101.53 778.969 100.875C778.909 100.219 778.79 99.8019 778.73 99.5635V98.908H781.184C782.441 98.7292 783.219 98.6696 783.518 98.6696C783.817 98.6696 784.117 98.6696 784.416 98.7888H784.835V93.9018C784.835 92.1139 784.835 90.8028 784.835 90.0876C784.835 89.3725 784.775 89.0149 784.655 89.0149H779.628L774.779 88.8957V88.2401C774.779 88.2401 774.66 87.7038 774.66 87.227C774.66 86.7502 774.54 86.2138 774.54 85.6775C774.42 85.1411 774.36 84.5451 774.36 84.0088C774.36 83.4724 774.36 83.0552 774.36 82.7572L774.181 82.9956ZM781.543 58.8589V61.1832C781.603 61.7791 781.663 62.3155 781.663 62.7923C781.663 63.2691 781.782 63.5074 781.782 63.567C781.902 63.567 782.68 63.567 784.236 63.6266C785.793 63.6862 787.648 63.6862 789.923 63.6862H797.943L798.183 61.362V58.9185C798.183 58.9185 797.225 58.8589 795.669 58.8589H781.543Z" fill="#FF5F17"/>
</svg>
