<svg width="35" height="35" viewBox="0 0 35 35" fill="none" xmlns="http://www.w3.org/2000/svg">
<path d="M17.5 0C7.8351 0 0 7.83475 0 17.5C0 27.1652 7.8351 35 17.5 35C27.1649 35 35 27.1652 35 17.5C35 7.83475 27.1649 0 17.5 0ZM17.5 3.5C25.232 3.5 31.5 9.7685 31.5 17.5C31.5 25.2315 25.232 31.5 17.5 31.5C9.76797 31.5 3.5 25.2315 3.5 17.5C3.5 9.7685 9.76797 3.5 17.5 3.5ZM17.5 8.75C16.5335 8.75 15.75 9.534 15.75 10.5C15.75 11.466 16.5335 12.25 17.5 12.25C18.4665 12.25 19.25 11.466 19.25 10.5C19.25 9.534 18.4665 8.75 17.5 8.75ZM17.5 14C16.5335 14 15.75 14.784 15.75 15.75V24.5C15.75 25.466 16.5335 26.25 17.5 26.25C18.4665 26.25 19.25 25.466 19.25 24.5V15.75C19.25 14.784 18.4665 14 17.5 14Z" fill="white"/>
</svg>
