<svg width="46" height="46" viewBox="0 0 46 46" fill="none" xmlns="http://www.w3.org/2000/svg">
<path d="M23.01 45.9001C35.5911 45.9001 45.79 35.7011 45.79 23.1201C45.79 10.539 35.5911 0.340088 23.01 0.340088C10.429 0.340088 0.22998 10.539 0.22998 23.1201C0.22998 35.7011 10.429 45.9001 23.01 45.9001Z" fill="#DBDCDC"/>
<path d="M22.37 15.99L22.4101 15.96H22.4201L22.45 15.93H22.48C22.51 15.88 22.54 15.85 22.58 15.84H22.61L22.6401 15.81C22.6801 15.8 22.7201 15.78 22.7601 15.77H22.7701L22.84 15.75H22.9201L22.98 15.74H23.1701L23.25 15.77H23.2601C23.2601 15.77 23.3401 15.8 23.3801 15.82L23.4101 15.84H23.44V15.85C23.48 15.86 23.5001 15.89 23.5401 15.93H23.5601L23.59 15.96H23.6L23.6401 16.01L30.96 23.33C31.31 23.7 31.31 24.27 30.96 24.63C30.6 24.98 30.0201 24.98 29.6601 24.63L23.9001 18.87V29.62C23.9001 30.12 23.49 30.54 22.99 30.54C22.49 30.54 22.08 30.12 22.08 29.62V18.87L16.33 24.63C15.97 24.98 15.4001 24.98 15.0301 24.63C14.6801 24.27 14.6801 23.7 15.0301 23.33L22.33 16.03H22.35L22.37 15.99Z" fill="#231815"/>
</svg>
