<svg width="386" height="66" viewBox="0 0 386 66" fill="none" xmlns="http://www.w3.org/2000/svg">
<path d="M366.23 8.91992C355.4 8.91992 344.7 16.0099 339.45 25.7999C338.44 16.0099 330.8 8.91992 319.97 8.91992C309.14 8.91992 298.44 16.0099 293.19 25.7999C292.18 16.0099 284.54 8.91992 273.71 8.91992C260.3 8.91992 247.07 19.7899 244.17 33.2099C241.27 46.6299 249.79 57.4999 263.2 57.4999C274.03 57.4999 284.73 50.4099 289.98 40.6199C290.99 50.4099 298.63 57.4999 309.46 57.4999C320.29 57.4999 330.99 50.4099 336.24 40.6199C337.25 50.4099 344.89 57.4999 355.72 57.4999C369.13 57.4999 382.36 46.6299 385.26 33.2099C388.16 19.7899 379.64 8.91992 366.23 8.91992Z" fill="#00A6DE"/>
<path d="M267.85 31.4998C268.1 31.8298 268.17 32.2198 268.07 32.6698C267.97 33.1198 267.73 33.5098 267.34 33.8198C266.95 34.1398 266.53 34.2998 266.07 34.2998H261.13C260.96 34.2998 260.84 34.3998 260.77 34.5898C260.42 35.5198 260.22 36.0398 260.17 36.1598C260.1 36.3598 260.12 36.5098 260.21 36.6398C261.13 37.8098 262.61 39.9198 264.66 42.9698C264.94 43.3898 265.01 43.8898 264.88 44.4698C264.76 45.0098 264.5 45.4798 264.1 45.8998C263.73 46.2398 263.33 46.4098 262.89 46.4098H262.82C262.33 46.4098 262 46.2098 261.81 45.8298C260.83 43.9298 259.75 42.0598 258.56 40.2298C258.52 40.1798 258.48 40.1598 258.43 40.1798C258.38 40.1898 258.33 40.2198 258.3 40.2698C256.25 43.9798 253.62 47.0198 250.4 49.3798C250.02 49.6498 249.64 49.7798 249.25 49.7798C249.18 49.7798 249.09 49.7698 249 49.7398C248.52 49.6898 248.16 49.4698 247.9 49.0798C247.68 48.7598 247.61 48.3798 247.71 47.9498C247.82 47.4598 248.09 47.0498 248.53 46.7098C252.56 43.7798 255.47 39.7398 257.26 34.5898C257.33 34.3898 257.26 34.2998 257.07 34.2998H251.87C251.41 34.2998 251.05 34.1398 250.8 33.8198C250.55 33.4998 250.48 33.1198 250.57 32.6698C250.67 32.2198 250.91 31.8298 251.3 31.4998C251.69 31.1698 252.11 30.9998 252.58 30.9998H258C258.19 30.9998 258.31 30.9198 258.35 30.7398L258.53 29.8998L259.68 24.5898C259.72 24.3998 259.64 24.2998 259.45 24.2998H257.73C257.53 24.2998 257.39 24.3798 257.31 24.5598C256.51 25.8798 255.66 27.1098 254.75 28.2598C254.42 28.6498 254.02 28.8798 253.54 28.9598C253.44 28.9798 253.34 28.9998 253.24 28.9998C252.9 28.9998 252.61 28.8898 252.36 28.6698C252.03 28.3998 251.86 28.0398 251.87 27.5698C251.87 27.4498 251.89 27.3298 251.91 27.1998C251.98 26.8798 252.14 26.5798 252.4 26.2798C254.13 24.1298 255.78 21.3298 257.33 17.8598C257.53 17.3998 257.85 17.0398 258.29 16.7998C258.62 16.5998 258.96 16.5098 259.31 16.5098C259.41 16.5098 259.51 16.5198 259.63 16.5498C260.08 16.6198 260.39 16.8498 260.58 17.2498C260.69 17.5198 260.71 17.8098 260.65 18.1298C260.62 18.2498 260.58 18.3898 260.53 18.5298C260.17 19.3098 259.81 20.0698 259.45 20.7998C259.41 20.8698 259.41 20.9298 259.45 20.9798C259.49 21.0298 259.54 21.0498 259.62 21.0498H267.93C268.39 21.0498 268.75 21.2098 269 21.5298C269.25 21.8498 269.32 22.2298 269.23 22.6798C269.13 23.1298 268.89 23.5198 268.5 23.8298C268.11 24.1498 267.69 24.3098 267.23 24.3098H263.57C263.37 24.3098 263.26 24.4098 263.21 24.5998L262.05 29.9398L261.88 30.7398C261.84 30.9098 261.92 30.9998 262.12 30.9998H266.81C267.27 30.9998 267.63 31.1698 267.87 31.4998H267.85ZM271.57 21.5598C271.7 20.9498 272.03 20.4398 272.54 20.0198C273.06 19.6098 273.61 19.3998 274.19 19.3998H283.6C284.19 19.3998 284.65 19.6098 284.98 20.0198C285.32 20.4398 285.42 20.9498 285.29 21.5598L279.71 47.3298C279.6 47.8198 279.34 48.2298 278.93 48.5798C278.51 48.9198 278.06 49.0898 277.57 49.0898C277.08 49.0898 276.7 48.9198 276.44 48.5798C276.17 48.2398 276.09 47.8198 276.2 47.3298L276.28 46.9598C276.32 46.7698 276.25 46.6698 276.05 46.6698H269.79C269.59 46.6698 269.48 46.7698 269.43 46.9598L269.25 47.7998C269.15 48.2598 268.9 48.6598 268.5 48.9898C268.1 49.3198 267.67 49.4798 267.2 49.4798C266.73 49.4798 266.38 49.3098 266.12 48.9898C265.86 48.6598 265.78 48.2598 265.88 47.7998L271.56 21.5598H271.57ZM270.27 43.1598C270.23 43.3298 270.31 43.4198 270.51 43.4198H276.77C276.97 43.4198 277.08 43.3298 277.12 43.1598L281.48 22.9898C281.52 22.7998 281.45 22.6998 281.25 22.6998H274.99C274.79 22.6998 274.68 22.7998 274.63 22.9898L270.27 43.1598Z" fill="white"/>
<path d="M304.61 37.5197C305.2 37.5197 305.66 37.7297 305.99 38.1397C306.33 38.5597 306.43 39.0697 306.3 39.6797L304.87 46.2997C304.74 46.8797 304.42 47.3897 303.9 47.8197C303.38 48.2497 302.83 48.4597 302.24 48.4597H297.99C297.87 48.4597 297.79 48.5197 297.77 48.6397L297.75 48.7097C297.67 49.0997 297.46 49.4297 297.13 49.6997C296.8 49.9697 296.45 50.0997 296.07 50.0997C295.69 50.0997 295.4 49.9697 295.19 49.6997C294.98 49.4297 294.92 49.0997 295 48.7097L296.96 39.6697C297.09 39.0597 297.41 38.5497 297.91 38.1297C298.41 37.7197 298.97 37.5097 299.58 37.5097H304.59L304.61 37.5197ZM299.41 35.1797C299.04 35.1797 298.76 35.0497 298.55 34.7797C298.34 34.5097 298.28 34.1897 298.36 33.8097C298.44 33.4297 298.65 33.1097 298.97 32.8397C299.3 32.5697 299.64 32.4397 300.01 32.4397H306.42C306.81 32.4397 307.11 32.5697 307.32 32.8397C307.53 33.1097 307.59 33.4297 307.51 33.8097C307.43 34.1897 307.22 34.5097 306.9 34.7797C306.57 35.0497 306.21 35.1797 305.82 35.1797H299.41ZM303.32 40.5997C303.36 40.3997 303.3 40.3097 303.13 40.3097H299.84C299.67 40.3097 299.56 40.4097 299.52 40.5997L298.47 45.4297C298.43 45.6297 298.49 45.7197 298.66 45.7197H301.95C302.12 45.7197 302.23 45.6197 302.27 45.4297L303.32 40.5997ZM309.46 22.3697C309.85 22.3697 310.15 22.4997 310.36 22.7697C310.57 23.0397 310.63 23.3597 310.55 23.7397C310.47 24.1197 310.26 24.4497 309.93 24.7297C309.6 25.0097 309.24 25.1497 308.85 25.1497H300.1C299.71 25.1497 299.41 25.0097 299.2 24.7297C298.99 24.4497 298.93 24.1197 299.01 23.7397C299.09 23.3597 299.3 23.0397 299.62 22.7697C299.95 22.4997 300.3 22.3697 300.7 22.3697H309.45H309.46ZM307.52 27.4597C307.89 27.4597 308.17 27.5897 308.38 27.8597C308.59 28.1297 308.66 28.4497 308.58 28.8097C308.5 29.1797 308.3 29.4897 307.97 29.7597C307.64 30.0297 307.3 30.1597 306.93 30.1597H300.49C300.12 30.1597 299.84 30.0297 299.63 29.7597C299.42 29.4897 299.35 29.1697 299.43 28.8097C299.51 28.4397 299.71 28.1297 300.04 27.8597C300.37 27.5897 300.71 27.4597 301.08 27.4597H307.52ZM309.62 17.4297C310.01 17.4297 310.31 17.5597 310.52 17.8297C310.73 18.0997 310.79 18.4197 310.71 18.7997C310.63 19.1797 310.42 19.4997 310.1 19.7497C309.78 20.0097 309.42 20.1297 309.03 20.1297H302.81C302.44 20.1297 302.15 19.9997 301.94 19.7497C301.73 19.4897 301.66 19.1797 301.74 18.7997C301.82 18.4197 302.03 18.0997 302.35 17.8297C302.68 17.5597 303.02 17.4297 303.39 17.4297H309.61H309.62ZM326.94 34.6297C327.14 34.2597 327.44 34.0097 327.84 33.8597C328.24 33.7097 328.59 33.7297 328.89 33.8997C329.23 34.1197 329.43 34.4297 329.5 34.8197C329.55 35.0397 329.55 35.2497 329.51 35.4397C329.47 35.6297 329.38 35.8297 329.24 36.0297C327.78 38.4897 326.12 40.7397 324.27 42.7597C324.14 42.9097 324.07 43.0697 324.06 43.2397C324.1 44.3897 324.25 45.2697 324.49 45.8897C324.73 46.5097 325.09 46.8597 325.56 46.9297H325.6C326.06 46.9297 326.65 45.8597 327.36 43.7097C327.44 43.4397 327.63 43.2597 327.92 43.1597C328.21 43.0597 328.44 43.1097 328.62 43.3097C329.14 43.8497 329.32 44.4597 329.18 45.1397C329.15 45.2897 329.1 45.4397 329.04 45.6197C328.24 47.4997 327.48 48.8197 326.76 49.5697C326.06 50.3297 325.37 50.6997 324.68 50.6997H324.64C322.72 50.5497 321.59 48.9997 321.25 46.0497C321.24 45.9997 321.2 45.9697 321.14 45.9597C321.08 45.9497 321.03 45.9597 320.97 45.9797C319.37 47.3997 317.69 48.6397 315.92 49.7097C315.55 49.9297 315.18 50.0097 314.81 49.9497C314.43 49.8897 314.13 49.7197 313.89 49.4597C313.7 49.2197 313.66 48.9197 313.77 48.5797C313.88 48.2397 314.09 47.9697 314.4 47.7697C315.1 47.3497 315.77 46.9197 316.4 46.4497C316.43 46.4297 316.44 46.3897 316.44 46.3397C316.44 46.2897 316.41 46.2697 316.36 46.2697H309.92C309.8 46.2697 309.72 46.3297 309.7 46.4497L309.66 46.6297C309.58 46.9997 309.38 47.3097 309.05 47.5797C308.72 47.8497 308.37 47.9797 307.99 47.9797C307.61 47.9797 307.32 47.8497 307.11 47.5797C306.9 47.3097 306.83 46.9997 306.91 46.6297L309.26 35.7597C309.39 35.1797 309.71 34.6697 310.23 34.2397C310.75 33.8097 311.3 33.5997 311.89 33.5997H317.97C318.56 33.5997 319.02 33.8097 319.35 34.2397C319.68 34.6697 319.79 35.1697 319.66 35.7597L317.59 45.3097C317.59 45.3097 317.59 45.3997 317.64 45.4197C317.68 45.4497 317.72 45.4497 317.75 45.4197C318.84 44.5697 319.88 43.6297 320.89 42.5997C321.04 42.4497 321.12 42.2797 321.11 42.0897C321.25 39.5297 321.68 36.1197 322.4 31.8797C322.44 31.7097 322.37 31.6197 322.2 31.6197H309.83C309.44 31.6197 309.13 31.4797 308.91 31.1997C308.69 30.9197 308.62 30.5797 308.71 30.1697C308.8 29.7597 309.01 29.4297 309.35 29.1497C309.69 28.8697 310.06 28.7297 310.45 28.7297H318.91C318.91 28.7297 318.95 28.7297 318.95 28.7097C318.95 28.6997 318.95 28.6797 318.96 28.6597C318.42 28.5597 318.06 28.2697 317.87 27.7797C317.75 27.4397 317.73 27.0797 317.81 26.7197C317.84 26.5697 317.89 26.4197 317.95 26.2397C318.24 25.5597 318.52 24.8997 318.78 24.2597C318.94 23.8697 319.2 23.5597 319.57 23.3297C319.94 23.0997 320.31 23.0197 320.68 23.0897C321.05 23.1597 321.31 23.3597 321.45 23.6897C321.59 24.0197 321.56 24.3797 321.38 24.7697C320.35 26.8397 319.73 28.0797 319.52 28.4697C319.48 28.5197 319.48 28.5697 319.5 28.6397C319.52 28.6997 319.57 28.7297 319.65 28.7297H322.69C322.89 28.7297 323 28.6297 323.05 28.4397C323.62 25.3397 324.35 21.7697 325.22 17.7197C325.31 17.2997 325.53 16.9497 325.89 16.6597C326.25 16.3697 326.63 16.2197 327.05 16.2197C327.47 16.2197 327.78 16.3697 328 16.6597C328.22 16.9497 328.28 17.2897 328.2 17.6797L327.43 21.2297C326.93 23.5497 326.43 25.9497 325.94 28.4397C325.9 28.6397 325.96 28.7297 326.13 28.7297H330.63C331.04 28.7297 331.36 28.8697 331.58 29.1497C331.8 29.4297 331.87 29.7697 331.78 30.1697C331.69 30.5697 331.48 30.9197 331.14 31.1997C330.8 31.4797 330.42 31.6197 330.01 31.6197H325.58C325.41 31.6197 325.31 31.7097 325.27 31.8797C324.93 33.9097 324.62 36.0797 324.34 38.3997C324.34 38.4197 324.34 38.4397 324.38 38.4497C324.41 38.4597 324.45 38.4497 324.48 38.4297C325.35 37.2297 326.17 35.9697 326.95 34.6197L326.94 34.6297ZM310.35 43.4497C310.31 43.6497 310.37 43.7397 310.54 43.7397H314.75C314.94 43.7397 315.06 43.6397 315.11 43.4497L315.57 41.3297C315.61 41.1597 315.53 41.0697 315.33 41.0697H311.12C310.95 41.0697 310.85 41.1597 310.81 41.3297L310.35 43.4497ZM316.64 36.3897C316.68 36.2197 316.6 36.1297 316.4 36.1297H312.19C312.02 36.1297 311.92 36.2197 311.88 36.3897L311.44 38.3997C311.4 38.5697 311.47 38.6597 311.64 38.6597H315.85C316.04 38.6597 316.16 38.5797 316.2 38.3997L316.64 36.3897ZM322.55 20.0597C322.92 20.0597 323.2 20.1897 323.4 20.4597C323.6 20.7297 323.66 21.0497 323.58 21.4097C323.5 21.7797 323.31 22.0897 322.99 22.3397C322.68 22.5997 322.34 22.7197 321.97 22.7197H312.6C312.23 22.7197 311.95 22.5897 311.75 22.3397C311.55 22.0797 311.49 21.7697 311.57 21.4097C311.65 21.0397 311.85 20.7297 312.16 20.4597C312.47 20.1897 312.81 20.0597 313.18 20.0597H316.03C316.22 20.0597 316.34 19.9697 316.38 19.7997L316.82 17.7897C316.92 17.3497 317.15 16.9697 317.52 16.6597C317.89 16.3397 318.31 16.1797 318.76 16.1797C319.21 16.1797 319.56 16.3397 319.81 16.6597C320.06 16.9797 320.14 17.3597 320.04 17.7897L319.6 19.7997C319.56 19.9697 319.63 20.0597 319.8 20.0597H322.55ZM312.54 24.7097C312.54 24.3697 312.65 24.0597 312.87 23.7797C313.09 23.4997 313.37 23.3197 313.7 23.2497C314.08 23.1797 314.41 23.2297 314.67 23.3997C314.94 23.5697 315.08 23.8297 315.11 24.1697C315.18 25.0697 315.19 25.9597 315.11 26.8397C315.11 27.2097 314.95 27.5397 314.65 27.8497C314.35 28.1597 314.01 28.3597 313.62 28.4497C313.29 28.5197 313 28.4497 312.77 28.2497C312.53 28.0397 312.44 27.7697 312.49 27.4297C312.59 26.5297 312.6 25.6297 312.53 24.7197L312.54 24.7097ZM333.09 23.2797C333.12 23.4797 333.12 23.6697 333.07 23.8697C333.02 24.0697 332.95 24.2697 332.83 24.4897C332.57 24.8797 332.22 25.1597 331.77 25.3297C331.37 25.4797 331 25.4597 330.66 25.2897C330.32 25.1197 330.1 24.8397 330.02 24.4497C329.76 23.0597 329.35 21.6797 328.79 20.3097C328.66 20.0197 328.68 19.6997 328.85 19.3597C329.02 19.0197 329.29 18.7897 329.66 18.6597C329.9 18.5597 330.13 18.5097 330.35 18.5097C330.52 18.5097 330.69 18.5397 330.85 18.5797C331.24 18.6997 331.52 18.9297 331.69 19.2797C332.31 20.5997 332.78 21.9297 333.1 23.2697L333.09 23.2797Z" fill="white"/>
<path d="M380.18 19.7195C380.42 20.0195 380.49 20.3895 380.4 20.8195C380.31 21.2495 380.08 21.6095 379.7 21.9195C379.33 22.2195 378.92 22.3795 378.48 22.3795H352.57C352.4 22.3795 352.3 22.4695 352.26 22.6395L350.43 31.0995C348.73 38.9295 346.45 44.9295 343.57 49.1095C343.29 49.4995 342.92 49.7295 342.47 49.8095C342.37 49.8295 342.27 49.8495 342.17 49.8495C341.83 49.8495 341.55 49.7395 341.33 49.5195C341 49.2495 340.82 48.8995 340.79 48.4595C340.81 48.2595 340.83 48.0795 340.87 47.9095C340.93 47.6395 341.04 47.3695 341.19 47.0995C342.68 44.9295 343.88 42.5095 344.78 39.8295C345.68 37.1595 346.46 34.2495 347.14 31.0995L349.23 21.4395C349.36 20.8295 349.68 20.3195 350.19 19.8995C350.69 19.4795 351.25 19.2795 351.86 19.2795H362.99C363.18 19.2795 363.3 19.1795 363.35 18.9895L363.56 18.0395C363.67 17.5295 363.94 17.0895 364.37 16.7395C364.8 16.3895 365.27 16.2095 365.77 16.2095C366.27 16.2095 366.66 16.3895 366.94 16.7395C367.22 17.0895 367.3 17.5295 367.19 18.0395L366.98 18.9895C366.94 19.1895 367 19.2795 367.17 19.2795H379.18C379.62 19.2795 379.96 19.4295 380.2 19.7395L380.18 19.7195ZM374.3 43.4495C374.71 43.4495 375.03 43.5895 375.25 43.8695C375.47 44.1495 375.54 44.4895 375.45 44.8995C375.36 45.2995 375.15 45.6395 374.81 45.9195C374.47 46.1995 374.09 46.3395 373.68 46.3395H362.85C362.68 46.3395 362.57 46.4395 362.53 46.6295L362.03 48.9395C361.93 49.3995 361.68 49.7995 361.28 50.1295C360.88 50.4595 360.45 50.6195 359.98 50.6195C359.51 50.6195 359.16 50.4595 358.92 50.1295C358.67 49.7995 358.6 49.3995 358.7 48.9395L359.2 46.6295C359.24 46.4395 359.17 46.3395 358.97 46.3395H348.83C348.41 46.3395 348.1 46.1995 347.88 45.9195C347.66 45.6395 347.59 45.2995 347.68 44.8995C347.77 44.4995 347.98 44.1595 348.32 43.8695C348.66 43.5895 349.04 43.4495 349.45 43.4495H359.59C359.78 43.4495 359.9 43.3695 359.94 43.1895L360.32 41.4295C360.36 41.2595 360.28 41.1695 360.08 41.1695H353.46C352.85 41.1695 352.38 40.9595 352.06 40.5295C351.74 40.0995 351.64 39.5995 351.77 39.0095L353.3 31.9495C353.43 31.3395 353.75 30.8295 354.26 30.4095C354.76 29.9895 355.32 29.7895 355.93 29.7895H362.55C362.75 29.7895 362.86 29.6895 362.91 29.4995L363.25 27.9295C363.29 27.7295 363.21 27.6395 363.02 27.6395H354.35C353.98 27.6395 353.69 27.5095 353.48 27.2595C353.27 26.9995 353.2 26.6895 353.28 26.3095C353.36 25.9295 353.57 25.6095 353.89 25.3395C354.22 25.0695 354.56 24.9395 354.93 24.9395H363.6C363.79 24.9395 363.91 24.8595 363.95 24.6895L364.05 24.2495C364.15 23.7895 364.39 23.3895 364.78 23.0595C365.17 22.7295 365.59 22.5595 366.06 22.5595C366.53 22.5595 366.88 22.7295 367.14 23.0595C367.4 23.3895 367.48 23.7895 367.38 24.2495L367.28 24.6895C367.24 24.8595 367.31 24.9395 367.48 24.9395H377.18C377.57 24.9395 377.86 25.0695 378.06 25.3395C378.26 25.6095 378.32 25.9295 378.23 26.3095C378.15 26.6895 377.95 27.0095 377.64 27.2595C377.33 27.5195 376.98 27.6395 376.59 27.6395H366.89C366.72 27.6395 366.61 27.7395 366.57 27.9295L366.23 29.4995C366.19 29.6995 366.25 29.7895 366.42 29.7895H373.48C374.07 29.7895 374.53 29.9995 374.86 30.4095C375.2 30.8295 375.3 31.3395 375.17 31.9495L373.64 39.0095C373.51 39.5995 373.19 40.0995 372.67 40.5295C372.15 40.9595 371.6 41.1695 371.01 41.1695H363.95C363.78 41.1695 363.67 41.2595 363.64 41.4295L363.26 43.1895C363.22 43.3595 363.29 43.4495 363.46 43.4495H374.29H374.3ZM354.94 38.6895C354.9 38.8595 354.97 38.9495 355.14 38.9495H360.56C360.75 38.9495 360.87 38.8695 360.91 38.6895L361.32 36.7895C361.36 36.6195 361.28 36.5295 361.08 36.5295H355.66C355.49 36.5295 355.38 36.6195 355.35 36.7895L354.94 38.6895ZM356.64 32.0295C356.47 32.0295 356.36 32.1295 356.32 32.3195L355.93 34.1095C355.89 34.3095 355.95 34.3995 356.12 34.3995H361.54C361.74 34.3995 361.85 34.2995 361.9 34.1095L362.29 32.3195C362.33 32.1195 362.26 32.0295 362.06 32.0295H356.64ZM370.15 38.9495C370.35 38.9495 370.46 38.8695 370.5 38.6895L370.91 36.7895C370.95 36.6195 370.87 36.5295 370.67 36.5295H364.96C364.79 36.5295 364.68 36.6195 364.65 36.7895L364.24 38.6895C364.2 38.8595 364.27 38.9495 364.44 38.9495H370.15ZM371.87 32.3295C371.91 32.1295 371.84 32.0395 371.64 32.0395H365.93C365.76 32.0395 365.65 32.1395 365.61 32.3295L365.22 34.1195C365.18 34.3195 365.24 34.4095 365.41 34.4095H371.12C371.32 34.4095 371.43 34.3095 371.48 34.1195L371.87 32.3295Z" fill="white"/>
<path d="M34.58 44.8803C34.7 46.6503 35.47 48.1703 36.8 49.3003C42.4 52.2903 51.78 53.6603 51.78 53.6603C54.44 54.0403 56.95 52.1803 57.36 49.5303L57.83 46.4803C51.83 46.3603 45.86 44.9803 40.01 42.2903C39.21 41.8103 38.37 41.6003 37.55 41.6703C35.58 42.0303 34.56 43.1003 34.58 44.8803ZM54.44 31.1203C54.04 28.8203 51.96 27.7603 48.26 27.9203C41.43 28.6103 35.21 29.2603 29.48 29.8803C29.43 29.1203 29.43 28.2903 29.36 27.4603C29.14 24.0503 28.96 21.0303 28.89 18.3603C33.82 17.8103 39.47 17.2003 45.95 16.5403C48.25 16.0803 49.43 14.7603 49.4 12.4703C49 10.0903 47.05 9.01032 43.48 9.17032C38.09 9.75032 33.11 10.2303 28.47 10.7403C28.32 8.95032 28.28 7.59032 28.21 6.70032C27.7 3.78032 26.27 2.38033 23.88 2.44033C21.43 2.92033 20.11 4.54033 19.92 7.37033C19.98 8.81033 20.11 10.2603 20.21 11.7003C11.49 12.8203 4.35998 14.1003 4.35998 14.1003C2.81998 14.3703 1.53998 15.3803 0.72998 16.7003V22.3503C4.73998 21.8703 8.89997 21.2703 13.23 20.4603C15.33 20.1403 17.85 19.7203 20.71 19.3603C20.9 23.3403 21.13 27.1103 21.43 30.7903C11.7 32.0003 3.27998 33.5203 3.27998 33.5203C2.32998 33.6903 1.44997 34.1503 0.739975 34.7803V41.9003C4.95997 41.4103 9.29997 40.7403 13.79 39.9503C16.11 39.5503 18.83 39.1203 21.95 38.6703C22.05 39.7603 22.06 40.8603 22.17 41.8903C19.88 42.6803 17.21 44.5703 14.02 47.5103C9.50998 51.5903 4.11998 56.7003 4.11998 56.7003C2.17998 58.5203 2.06998 61.6503 3.88998 63.6403L5.63998 65.5503C11.78 60.5103 17.52 55.8303 22.79 51.3503C23.1 56.0003 23.37 59.1903 23.37 59.1903C23.59 61.8803 25.96 63.8803 28.63 63.6703L31.76 63.4003C31.05 54.5203 30.49 45.9503 29.93 37.6803C35.94 36.9703 42.82 36.2803 50.75 35.5003C53.27 35.0803 54.52 33.6003 54.45 31.1203" fill="#00A6DE"/>
<path d="M86.7601 33.7202C86.7201 33.9602 88.1701 32.4602 89.9701 30.4302C89.9701 30.4302 95.5901 24.0502 99.8301 20.0502C95.4101 19.6402 91.4401 19.2702 87.8901 18.9602C87.5901 22.7602 87.2401 27.7302 86.7701 33.7202M78.9901 30.4202C79.3701 25.9402 79.6901 21.8502 79.9701 18.2902C78.6201 18.2002 77.3401 18.1402 76.2101 18.0102C76.1601 18.3302 76.2101 18.6002 76.1801 18.8602C76.0301 20.1702 75.2601 21.4902 73.9601 22.8102C72.7201 24.2102 71.6301 25.4802 70.6101 26.7002C72.5801 27.8502 75.3201 29.9402 78.7701 32.8502C78.8801 31.9802 78.9001 31.2002 78.9901 30.4102M113.13 17.7302C112.73 19.8802 111.32 20.9302 109.01 20.9302C108.03 20.8302 107.23 21.0302 107.28 21.4002L107.3 21.7502C107.1 22.9102 106.43 24.0402 105.35 25.1902C103.67 26.8702 102.06 28.5502 100.53 30.1802C102.76 31.8902 105.8 34.4002 109.47 37.8702L108.12 39.8202C106.59 42.0402 103.66 42.4102 101.6 40.6202C101.6 40.6202 98.4201 37.8502 95.5701 35.4102C93.5101 37.5902 91.4301 39.8202 89.3901 42.1102C87.6901 40.3202 86.1301 40.8202 85.8801 43.2002L85.7301 45.1002C89.0001 45.6502 96.3101 49.3802 107.66 56.3502L106.31 58.2902C104.75 60.5202 101.54 61.2902 99.1501 60.0002C99.1501 60.0002 90.3901 55.3502 85.1201 52.3502C84.5801 58.2202 84.1801 62.3702 83.9001 64.9202L80.7301 64.5802C78.0201 64.2802 76.0201 61.8502 76.2901 59.1702C76.2901 59.1702 76.9201 52.8402 77.3901 48.1802C71.4001 52.0502 65.1701 56.1502 58.7001 60.5702L57.1301 58.9302C55.2501 56.9802 55.5301 54.0502 57.7001 52.4202C57.7001 52.4202 67.8001 45.0102 74.6801 41.0302C75.8401 40.3702 77.0401 39.9702 78.1901 39.9602C78.3601 37.8502 78.5201 35.8702 78.7301 34.0402L78.0201 35.0302C76.4601 37.2302 73.4401 37.6402 71.3101 35.9602C71.3101 35.9602 68.8201 34.0102 66.3501 31.9602C63.7401 35.2502 61.6501 38.0902 60.1601 40.5302L58.1301 38.7002C56.1001 36.9202 55.7301 33.6402 57.3301 31.4502C57.3301 31.4502 64.9601 20.9702 67.9301 17.5602C64.5701 17.4602 61.2701 17.2302 58.1201 16.8902L58.3401 14.8402C58.6501 12.1802 61.1201 10.0902 63.8701 10.2202C63.8701 10.2202 71.4901 10.5802 80.5201 11.2902C80.5801 10.1002 80.7001 9.11021 80.8001 8.20021C81.0801 5.84021 82.4801 4.73022 85.1601 5.01022C87.7601 5.36022 88.9401 6.95021 88.6101 9.84021C88.5501 10.2502 88.4901 10.9002 88.4201 11.9502C94.4001 12.4802 100.98 13.0602 108.24 13.7702C111.57 14.2802 113.17 15.5902 113.16 17.7102" fill="#00A6DE"/>
<path d="M142.55 7.43029C142.71 9.23029 141.79 10.4903 139.85 11.2603C134.15 12.6803 128.54 14.1803 123.04 15.7203C123.07 15.9703 123.16 16.1703 123.16 16.2803C123.19 16.5403 123.05 17.2103 122.81 18.3203C122.23 20.4603 121.84 22.3003 121.54 23.8803C125.28 23.6703 128.57 23.6203 131.42 23.6203C133.5 23.9403 134.63 24.9403 134.93 26.6103C135.04 28.6603 133.93 29.8803 131.5 30.2203C127.41 30.5903 123.78 30.7903 120.7 30.8203C121.06 34.8103 123.23 37.3203 127.21 38.3103C132.25 39.7903 137.62 40.2703 143.27 39.7403C149.56 39.1603 154.22 37.7003 157.35 35.2103C158.82 34.1703 159.65 32.0903 159.9 29.0903C157.52 29.2303 152.94 29.4003 146.09 29.6503L146.06 27.7103C146.02 25.0103 147.46 22.6703 149.25 22.5503L153.12 22.3103C156.04 22.1903 158.08 22.1203 159.37 22.0003C158.74 19.4003 157.6 17.5603 155.95 16.4203C154.52 15.8503 152.7 15.6203 150.38 15.8303C149.1 15.9503 147.31 16.2503 144.89 16.6003L144.78 14.4403C144.62 11.7303 146.59 9.21029 149.16 8.83029L151.29 8.63029C155.52 8.25029 159.03 9.1403 161.7 11.3703C164.57 13.8203 166.32 17.9903 166.87 23.9103C167.54 31.2203 166.21 36.4603 162.88 39.7303C161.22 41.1903 159.18 42.4203 156.82 43.4003C156.91 43.7803 157.02 44.1603 157.11 44.5503C157.16 44.8703 157.06 45.2703 156.91 45.7403C156.06 49.0503 155.73 51.0803 155.77 51.7303C155.93 53.2703 157.14 53.8703 159.46 53.6603C160.74 53.5303 164.27 52.6303 170.08 50.9303L170.26 52.7703C170.49 55.4703 168.59 58.3403 166.01 59.1703C166.01 59.1703 161.84 60.4903 158.89 60.8403C158.26 60.9003 155.77 60.7403 153.41 60.4903L151.48 59.1303C149.95 57.9703 149.07 56.3003 148.88 54.1803C148.69 52.2703 149.14 49.2903 150.14 45.3903C148.11 45.8303 145.94 46.1103 143.63 46.3303C139.25 46.7203 135.23 46.7103 131.72 46.2403C131.58 46.4503 131.53 46.5903 131.49 46.6603C130.27 49.0303 129.14 52.1203 127.94 55.9903C126.71 59.4703 125.93 62.3303 125.55 64.4303L123.75 64.1103C121.09 63.6303 119.54 61.1103 120.33 58.5203C120.33 58.5203 123.75 47.1803 124.95 44.7303C124.76 44.7603 124.57 44.7203 124.41 44.6103C118.34 42.4403 115.02 38.0903 114.43 31.5403C114.07 27.8803 114.69 23.2303 116.31 17.6403C115.76 17.8203 115.24 18.0003 114.74 18.1203L113.93 16.1303C112.9 13.6203 114.19 10.9603 116.81 10.2303C116.81 10.2303 134.59 5.2703 138.5 4.8003C141.02 4.6703 142.39 5.58029 142.57 7.44029" fill="#00A6DE"/>
<path d="M197.09 39.6501C193.25 39.2201 189.99 38.5201 187.33 37.5001C185.73 36.9401 184.56 36.0201 183.99 34.7301C187.94 35.3701 192.39 35.9301 197.31 36.5101C197.22 37.5301 197.19 38.5601 197.1 39.6501M197.77 31.5501C194.23 31.0901 190.38 30.6701 186.34 30.2201C190.02 29.3301 193.88 28.8601 197.95 28.8401C197.89 29.4401 197.83 30.1301 197.83 30.8101C197.81 31.0801 197.78 31.2901 197.76 31.5501M204.48 40.3901C204.51 39.3101 204.59 38.3601 204.68 37.4101C206.74 37.6801 208.86 37.8701 211.12 38.0801C212.83 38.1001 213.82 37.3701 214.03 35.8801C214.06 34.8601 213.45 34.1201 212.11 33.5901C209.93 33.2501 207.55 32.8901 205.01 32.5201C205.16 30.9501 205.19 29.8701 205.25 29.3201C210.73 29.9601 214.52 30.8001 216.65 31.6801C219.03 32.8001 220.14 34.1901 219.98 35.9701C219.83 37.5301 218.74 38.7201 216.8 39.5101C214.19 40.6401 210.09 40.9401 204.49 40.4001M177.65 54.1801C175.03 54.1001 172.69 56.1801 172.44 58.7901L172.34 59.8801C177.08 60.1801 182.03 60.3601 187.26 60.5801C195.68 60.8101 208.19 61.7101 224.72 63.1101C226.58 63.0701 227.63 62.2101 227.93 60.4701C227.98 58.6201 226.49 57.5101 223.62 57.1101C216.23 56.4901 209.42 55.9301 203.24 55.4801C203.23 54.8601 203.31 54.0501 203.38 53.1001C208.55 53.4501 214.45 53.9301 221.19 54.4801C223.03 54.5201 224.11 53.6001 224.4 51.8401C224.42 50.2001 223.06 49.1801 220.41 48.7901C214.38 48.3101 208.88 47.8601 203.87 47.5301L203.92 47.1201C203.95 46.6301 204.19 46.2401 204.4 46.2701C211.87 46.9701 217.91 46.0901 222.57 43.6401C225.53 42.2201 225.79 41.5801 225.79 41.5801C226.72 39.1201 227.55 36.3901 227.63 35.4801C227.92 32.5601 226.55 30.1101 223.57 28.1301C220.82 26.4901 217.9 25.2601 214.77 24.5501C211.64 24.0701 209.19 23.7901 209.19 23.7901C206.59 23.5101 203.13 23.1301 201.51 22.9801C195.33 22.5401 190.19 22.6201 186.08 23.2601C185.62 22.3201 184.69 21.7601 183.33 21.5601C181.52 21.4701 180.07 22.3001 178.99 24.0401C177.33 26.4901 177.12 27.4601 177.12 27.4601C176.56 30.0401 176.08 32.4701 176.03 32.8801C175.68 36.5401 177.68 39.6001 182.09 42.0001C185.66 43.6301 190.53 44.8401 196.62 45.5401C196.59 45.9501 196.53 46.4301 196.48 46.9701C188.01 46.4601 181.15 46.2201 181.15 46.2201C178.52 46.1201 176.17 48.1901 175.92 50.8001L175.85 51.6201C179.96 51.9401 184.23 52.1301 188.78 52.2701C190.85 52.3201 193.26 52.4701 195.95 52.6001C195.86 53.4101 195.8 54.1501 195.8 54.9701C186.17 54.4201 177.69 54.1501 177.69 54.1501M211.54 11.7401C211.12 12.6701 210.57 13.9901 209.94 15.5701C205.15 15.2001 200.75 14.8501 196.7 14.4701C196.19 13.3201 195.83 12.0601 195.69 10.6801C199.96 10.9401 205.23 11.3001 211.54 11.7501M230 10.3801C230.06 8.46007 228.57 7.37008 225.69 7.05008C219.31 6.52008 213.41 6.05007 208.06 5.54007C205.84 2.67007 204.04 1.12008 202.76 0.870076C200.37 0.780076 199.02 1.83007 198.73 4.00007C198.71 4.25007 198.74 4.54007 198.85 4.88007C191.04 4.37007 184.85 4.10007 184.85 4.10007C182.22 4.00007 179.86 6.03007 179.62 8.64007L179.51 9.73008C182.32 9.99008 185.28 10.1301 188.38 10.2801C188.35 10.7501 188.45 11.8701 188.7 13.6601C188.69 13.7301 188.69 13.7901 188.73 13.8701C183.37 13.5001 179.98 13.3101 179.98 13.3101C177.34 13.1501 175 15.1601 174.75 17.7801L174.64 19.1401C179.57 19.5901 184.78 19.9501 190.23 20.2401C199 20.8601 212.05 21.9301 229.33 23.4301C229.71 23.4301 230.04 23.3901 230.36 23.3201V17.6301C229.83 17.4601 229.23 17.3401 228.53 17.2501C224.7 16.9601 221.05 16.6201 217.48 16.3001C217.85 15.4401 218.2 14.5801 218.62 13.8001C218.88 13.2701 219.06 12.8001 219.24 12.4001C221.55 12.6301 224.04 12.7801 226.79 13.0301C228.66 13.0801 229.71 12.1701 230.01 10.3901" fill="#00A6DE"/>
</svg>
