<svg width="73" height="26" viewBox="0 0 73 26" fill="none" xmlns="http://www.w3.org/2000/svg">
<path d="M13.9599 9.08026C14.1199 12.6903 15.7899 15.0903 18.9199 16.3403L19.3699 14.2103C17.2899 13.2503 16.1699 11.5403 15.9799 9.08026H20.3399L20.6999 7.37024H12.7299L13.3199 4.59027H20.5299L20.8899 2.92023H13.6799L14.3099 0.530273H12.1599L11.5299 2.92023H4.35994L3.99994 4.59027H11.1699L10.5799 7.37024H2.65994L2.29994 9.08026H6.60994C5.75994 11.4003 3.93994 13.1602 1.10994 14.3702L0.679932 16.3802C2.51993 15.7702 4.20993 14.8403 5.72993 13.5303C6.96993 12.5003 7.94993 11.0303 8.64993 9.08026H10.2299L7.11993 21.9902H9.26994L12.3799 9.08026H13.9799H13.9599Z" fill="#DD5E2E"/>
<path d="M35.9201 20.2604L36.3501 18.1304C33.8401 17.2604 31.8901 16.0004 30.5001 14.3804C32.1001 13.8804 33.3201 13.1804 34.1501 12.3104C34.6701 13.2004 35.4801 13.9204 36.5401 14.4404L36.9401 12.4704C36.0301 12.0404 35.4701 11.3504 35.2601 10.4204C35.2801 10.3004 35.3301 10.1904 35.3501 10.0704L35.6301 8.6604H33.6701L33.3701 10.1505C33.1201 11.2705 32.1801 12.1005 30.5801 12.6505L30.2801 14.1404C29.9201 13.7104 29.6001 13.2504 29.3301 12.7304L30.2701 8.02045H38.2901L38.6601 6.15045H30.6501L31.4601 2.17041H29.2301L28.4301 6.15045H20.8301L20.4501 8.02045H28.0501L27.2201 12.1304C26.8001 12.8804 26.2201 13.6004 25.5201 14.2604L25.8801 12.4804C24.9501 12.0504 24.4001 11.3904 24.1901 10.4704C24.2101 10.3504 24.2601 10.2104 24.2901 10.0804L24.5701 8.67041H22.6101L22.3101 10.1604C22.0601 11.2804 21.1301 12.1104 19.5201 12.6604L19.1501 14.5004C20.8901 13.9604 22.2001 13.2404 23.0901 12.3304C23.5701 13.2004 24.3401 13.9005 25.3801 14.4005C23.7201 15.8905 21.2301 17.1704 17.9601 18.2304L17.5601 20.2404C21.3701 19.1204 24.3701 17.5904 26.5101 15.6904L24.5401 25.4604H26.7601L28.6801 15.4504C30.3201 17.6004 32.8001 19.2104 35.9101 20.2704" fill="#DD5E2E"/>
<path d="M65.03 10.1602L65.3699 8.70026C67.0999 7.86026 68.93 6.75023 70.55 5.61023L71.1799 3.00024L58.7599 2.97021L58.24 5.23022H67.4799C66.2 6.05022 64.64 6.92023 63.32 7.49023L62.7 10.1503H55.2299L54.7 12.4302H62.17L61.11 16.9902C61.03 17.3202 60.88 17.4102 60.46 17.4302C60.12 17.4502 58.05 17.4503 56.92 17.4003L56.35 19.8303C58.11 19.8303 61.28 19.8203 61.33 19.8203C62.42 19.8203 63.12 18.8702 63.39 17.6802L64.5 12.4302H71.82L72.35 10.1503H65.03V10.1602Z" fill="#DD5E2E"/>
<path d="M47.8498 4.16022H45.3198C45.2598 3.78022 45.1598 3.36021 45.0598 2.97021H42.7698L42.6798 2.99023C42.7498 3.33023 42.8198 3.76022 42.8798 4.16022H39.9398L39.5098 6.02026H47.4098L47.8398 4.16022H47.8498Z" fill="#DD5E2E"/>
<path d="M38.7299 14.5402C38.5799 14.9502 37.3199 16.1402 36.7099 16.2302C36.7099 16.2302 36.2299 18.5402 36.2399 18.5402C37.4899 18.0402 39.6899 16.2603 40.4599 14.5703L38.7299 14.5303V14.5402Z" fill="#DD5E2E"/>
<path d="M45.4699 16.8403C45.3299 16.1503 45.0699 15.3103 44.8199 14.5103L43.1399 14.5502C43.3399 15.1202 43.5199 16.1203 43.6499 16.8403H45.4699Z" fill="#DD5E2E"/>
<path d="M52.6898 16.2805C52.3698 17.4705 52.3498 17.8905 52.0098 17.8905H51.5198C51.3098 17.8905 51.2898 17.8305 51.3998 17.3305L52.1498 14.0905H53.8998L56.4598 3.02051H48.7998L46.2398 14.0905H47.1998C46.6398 15.9005 45.8698 17.4105 43.7598 18.1105L43.2798 20.2005C46.6998 19.6805 48.3498 16.9405 49.2598 14.0905H50.1098L49.3598 17.3505C48.9298 19.1905 49.1298 19.8205 50.7098 19.8205H51.7998C53.5298 19.8205 53.7298 18.8905 54.5098 16.2705H52.6798L52.6898 16.2805ZM50.3498 5.02051H53.8898L53.6198 6.21051H50.0798L50.3498 5.02051ZM49.6698 7.97046H53.2098L52.9398 9.16046H49.3998L49.6798 7.97046H49.6698ZM48.6998 12.1305L48.9698 10.9405H52.5098L52.2298 12.1305H48.6898H48.6998Z" fill="#DD5E2E"/>
<path d="M46.7698 6.49023H44.6898C44.3998 7.18023 43.9998 7.98025 43.6698 8.63025H38.5798L38.1398 10.5502H41.7398L41.4298 11.8702H38.0198L37.5798 13.7703H40.9898L39.5098 20.1503H41.5498L43.0298 13.7703H45.7298L46.1698 11.8702H43.4698L43.7798 10.5502H46.7798L47.2198 8.63025H45.5598C45.9298 7.99025 46.3498 7.25023 46.7798 6.49023H46.7698Z" fill="#DD5E2E"/>
<path d="M42.2999 8.48022C42.3199 8.04022 42.3099 7.09027 42.2499 6.53027H40.3599C40.4199 7.02027 40.4399 7.97022 40.4199 8.48022H42.2999Z" fill="#DD5E2E"/>
</svg>
