<?xml version="1.0" encoding="utf-8"?>
<!-- Generator: Adobe Illustrator 28.0.0, SVG Export Plug-In . SVG Version: 6.00 Build 0)  -->
<svg version="1.1" id="圖層_1" xmlns="http://www.w3.org/2000/svg" xmlns:xlink="http://www.w3.org/1999/xlink" x="0px" y="0px"
	 viewBox="0 0 170.8 40" style="enable-background:new 0 0 170.8 40;" xml:space="preserve">
<style type="text/css">
	.st0{fill:#FFFFFF;}
</style>
<g>
	<path class="st0" d="M50.7,10.2l0.5-2.9h-9.9L42.5,1h-3l-1.2,6.3H29l-0.5,2.9h9.3l-1,5.6c-0.4,0.9-1,1.7-1.8,2.6l0.4-2.1l-0.1,0
		c-1.1-0.6-1.7-1.5-2-2.7c0,0,0-0.1,0-0.1c0-0.1,0.1-0.3,0.1-0.4l0.4-2.1h-2.7L30.8,13c-0.3,1.5-1.4,2.7-3.3,3.4l-0.1,0l-0.5,2.9
		l0.2-0.1c2.1-0.7,3.7-1.7,4.8-2.9c0.6,1.1,1.5,2,2.6,2.7c-2,2-5,3.7-8.9,5.2l-0.1,0l-0.5,3.1l0.2-0.1c4.5-1.5,8.1-3.6,10.8-6.1
		l-1.3,7.6h3l1.4-7.9c2,2.9,4.9,5.1,8.7,6.5l0.2,0.1l0.6-3.2l-0.1,0c-3-1.2-5.3-2.9-7-5.1c1.8-0.7,3.2-1.6,4.3-2.7
		c0.7,1.2,1.6,2.2,2.9,2.9l0.2,0.1l0.5-3l-0.1,0c-1.1-0.6-1.7-1.5-2-2.8c0-0.1,0-0.1,0-0.2c0-0.1,0-0.2,0.1-0.3l0.4-2.1h-2.7
		L44.4,13c-0.3,1.5-1.4,2.7-3.3,3.4l-0.1,0l-0.3,1.8c-0.4-0.5-0.7-1.1-1-1.7l1.1-6.4H50.7z"/>
	<path class="st0" d="M21.4,24.1c-0.6-1.2-1-2.6-1.2-4.3h5.3l0.5-3h-9.7l0.6-3.6h8.8l0.5-2.9h-8.8L18,7.3h-3.1l-0.5,3.1H5.6
		l-0.5,2.9h8.7l-0.6,3.6H2.1l-0.5,3h6.7c-1.1,3.2-3.2,5.7-6.5,7.4l-0.1,0.1L1,30.7l0.4-0.2c2.3-0.9,4.4-2.4,6.2-4.2
		c1.5-1.5,2.7-3.7,3.6-6.5h1.5L10,35.5h3.1l2.7-15.6h1.5c0.3,5.2,2.3,8.8,6.2,10.7l0.3,0.1l0.6-3.6L24.3,27
		C23,26.3,22.1,25.3,21.4,24.1z"/>
	<path class="st0" d="M86.6,18.3l0.3-2c2.2-1.2,4.6-2.7,6.6-4.2l0.6-3.6l-16.4,0l-0.5,3.1h12.2c-1.6,1.1-3.6,2.3-5.3,3.1l-0.6,3.7
		h-9.9l-0.5,3.1H83l-1,6.3c-0.1,0.4-0.3,0.6-0.8,0.6c-0.5,0-3.2,0-4.7,0l-0.6,3.3c2.3,0,6.5,0,6.6,0c1.4,0,2.3-1.3,2.6-2.9l1-7.2
		h9.7l0.5-3.1H86.6z"/>
	<g>
		<path class="st0" d="M62.7,10h-3.3c-0.2-0.8-0.2-1.6-0.3-2.4l-3.3,0c0.1,0.5,0.2,1.4,0.4,2.4h-3.9l-0.4,2.6h10.4L62.7,10z"/>
		<path class="st0" d="M51.5,24.3c-0.2,0.6-1.7,2.2-2.5,2.3c0,0-0.5,3.2-0.4,3.2c1.6-0.7,4.4-3.1,5.3-5.5L51.5,24.3z"/>
		<path class="st0" d="M60.6,27.5c-0.2-0.9-0.7-2.1-1-3.2l-2.2,0.1c0.3,0.8,0.6,2.2,0.9,3.2H60.6z"/>
		<path class="st0" d="M70.1,26.7c-0.3,1.6-0.3,2.2-0.8,2.2h-0.6c-0.3,0-0.3-0.1-0.2-0.8l0.7-4.5h2.3L74,8.5H63.9l-2.5,15.2h1.3
			c-0.6,2.5-1.5,4.6-4.2,5.5L58,32.1c4.5-0.7,6.5-4.5,7.4-8.4h1.1l-0.7,4.5c-0.4,2.5-0.1,3.4,2,3.4h1.4c2.3,0,2.5-1.3,3.3-4.9H70.1z
			 M66.1,11.2h4.7l-0.3,1.6h-4.7L66.1,11.2z M65.4,15.3h4.7l-0.3,1.6h-4.7L65.4,15.3z M64.5,21l0.3-1.6h4.7L69.2,21H64.5z"/>
		<g>
			<polygon class="st0" points="58.9,12.6 58.9,12.6 58.9,12.6 			"/>
			<path class="st0" d="M61.5,13.2h-2.8c-0.3,1-0.8,2.1-1.2,2.9h-6.7l-0.4,2.6h4.8l-0.3,1.8h-4.5l-0.4,2.6h4.5L53,32h2.7l1.4-8.8
				h3.6l0.4-2.6h-3.6l0.3-1.8h4l0.4-2.6H60C60.5,15.3,61,14.3,61.5,13.2z"/>
		</g>
		<path class="st0" d="M55.7,16c0-0.6-0.1-1.9-0.2-2.7h-2.4l-0.1,0c0.1,0.7,0.2,2,0.2,2.7H55.7z"/>
	</g>
</g>
<g>
	<path class="st0" d="M123.8,13.3c-0.5-0.3-1.2-0.5-2.1-0.5c-0.5,0-1.4,0.2-2.7,0.7c-1.2,0.5-2.4,1.1-3.3,1.7
		c-1,0.7-1.6,1.3-1.6,1.9c0,0.3,0.1,0.5,0.3,0.7c0.2,0.2,0.5,0.3,0.7,0.3c0.1,0,0.4,0,1.1-0.4c0,0,0,0,0,0c0.6-0.3,1-0.4,1.1-0.4
		c0.1,0,0.1,0.2,0.1,0.4c0,0.2,0.1,2.2,0.1,2.4c0,1-0.1,2.1-0.2,3.3l-0.1,0.9c-0.1,1-0.4,2.6-0.9,4.7c-0.3,1.5-0.6,2.7-0.7,3.6
		c-0.2,0.9-0.2,1.9-0.2,2.9c0,1.7,0.9,2,1.6,2c0.8,0,1.4-0.7,2-2.2c0.5-1.4,0.9-3,1.2-4.7c0.3-1.7,0.4-3,0.4-3.8
		c0-0.8-0.1-2.2-0.3-4.2c-0.2-2-0.4-3.2-0.6-3.6c-0.4-0.9-0.5-1.7-0.6-2.5c1-0.5,1.5-0.7,1.8-0.8v0.4c0,0.4,0,0.7,0.1,0.9
		c0.1,0.3,0.4,0.5,0.7,0.5c0.5,0,1.1-0.3,1.7-1c0.6-0.7,0.9-1.3,0.9-1.8C124.5,14.2,124.3,13.6,123.8,13.3z"/>
	<path class="st0" d="M116.1,12.5c0.4,0,1-0.1,1.8-0.4c0.8-0.3,1.4-0.6,2-1c0.7-0.5,1-0.9,1-1.4c0-0.3-0.1-0.5-0.4-0.7
		c-0.2-0.1-0.5-0.2-0.8-0.2c-0.2,0-0.4,0-0.7,0.1C118.8,9,118.7,9,118.6,9l0,0c0.1-0.1,0.1-0.2,0.2-0.4c0.1-0.3,0.3-0.6,0.4-1
		c0.1-0.4,0.2-0.8,0.2-1.2c0-0.4-0.2-0.8-0.6-1c-0.4-0.2-0.8-0.3-1.2-0.3c-0.5,0-1,0.1-1.6,0.4c-0.6,0.3-0.9,0.7-0.9,1.3
		c0,0.6,0.3,0.9,0.5,1c0.2,0.1,0.5,0.2,0.9,0.2c0,0.2-0.1,0.4-0.2,0.7c-0.2,0.4-0.5,0.8-0.8,1.3c0,0,0,0,0,0c0,0.1-0.1,0.2-0.4,0.6
		c-0.2,0.4-0.4,0.6-0.4,0.9C114.6,11.9,114.9,12.5,116.1,12.5z"/>
	<path class="st0" d="M110.7,23.2C110.7,23.2,110.7,23.2,110.7,23.2c-0.4-0.2-0.8-0.3-1.3-0.3c-0.4,0-1.1,0.1-1.9,0.4c0,0,0,0,0,0
		c-0.6,0.2-1.1,0.3-1.5,0.4c0-0.6,0.1-0.9,0.2-1.1c0.1-0.2,0.3-0.5,0.6-0.6c0,0,0,0,0,0c0.2-0.2,0.4-0.3,0.5-0.4
		c0.1-0.1,0.2-0.3,0.2-0.6c0-0.2-0.1-0.5-0.5-0.7c-0.2-0.1-0.3-0.2-0.4-0.3c0-0.1-0.1-0.2-0.1-0.5c0-0.4,0-0.8,0-1l0-1
		c0-0.3,0.1-0.5,0.3-0.6c0.2-0.2,0.5-0.5,1-0.7c0.5-0.3,0.8-0.5,1.1-0.8c0.3-0.3,0.5-0.6,0.6-1c0.3-1.1,0.5-2.5,0.5-4.2
		c0-1.2-0.2-2.2-0.6-3.1c-0.4-1-1.1-1.4-2.2-1.4c-0.9,0-1.8,0.2-2.7,0.7c-0.8,0.4-1.5,0.9-2.2,1.6c-0.1-0.1-0.2-0.2-0.3-0.3
		c-0.3-0.3-0.6-0.4-0.8-0.4c-0.2,0-0.6,0.1-0.8,0.6c-0.2,0.4-0.3,0.9-0.4,1.6c-0.1,1.3-0.2,2.7-0.2,4c0,0.7,0.1,1.5,0.2,2.3
		c0.1,1,0.3,1.5,0.6,1.7c0.2,0.1,0.6,0.2,1,0.2h0.4c0.8,0,1,0.1,1,0.2c0,0,0.2,0.2,0.2,1c0,1.6-0.1,2.2-0.2,2.4
		c-0.1,0.2-0.3,0.4-0.6,0.7c-0.4,0.3-0.6,0.4-0.6,0.5c-0.5,0.4-1,0.7-1.3,1c-0.3,0.3-0.5,0.7-0.5,1.2c0,1.1,0.7,1.3,1.1,1.3
		c0.2,0,0.4-0.1,0.6-0.2c0.1-0.1,0.2-0.3,0.4-0.5c0.1-0.2,0.3-0.4,0.4-0.5c0.1-0.1,0.2-0.1,0.4-0.1c0,0,0,0,0,0.1
		c0,0.1,0.1,0.2,0.1,0.3c0,0.5-0.1,0.9-0.3,1c-0.2,0.2-0.6,0.4-1.1,0.5c-0.5,0.1-0.9,0.3-1.2,0.5c-0.3,0.3-0.4,0.7-0.4,1.3
		c0,0.5,0.2,1,0.6,1.4c0.4,0.4,0.8,0.6,1.4,0.6c0.7,0,2-0.4,4.2-1.2c2.1-0.8,3.4-1.4,4-1.9c0.2-0.1,0.5-0.3,0.7-0.5
		c0.3-0.2,0.5-0.5,0.7-0.7c0.1-0.3,0.2-0.7,0.2-1.3C111.3,23.7,111.1,23.4,110.7,23.2z M104.2,13.1c0,0.2-0.1,0.4-0.4,0.9
		c-0.3,0.3-0.5,0.5-0.7,0.5c-0.1,0-0.2-0.2-0.2-0.3c-0.1-0.3-0.2-0.6-0.2-0.8c0-0.1,0-0.3,0.4-0.6c0.3-0.2,0.5-0.3,0.7-0.3h0.3
		C104.1,12.7,104.2,12.9,104.2,13.1z M104.6,8.5c-0.1,0.4-0.5,1-1.3,1.7c-0.5,0.4-0.9,0.7-1.2,0.9c0.1-0.2,0.2-0.4,0.3-0.8
		c0.1-0.6,0.4-1,0.7-1.4C103.3,8.8,103.7,8.6,104.6,8.5z M106.4,12C106.4,12,106.4,12,106.4,12c0.3-0.3,0.6-0.4,0.7-0.4
		c0.1,0,0.2,0.2,0.2,0.7c0,0.3-0.1,0.5-0.3,0.8c-0.2,0.3-0.4,0.4-0.5,0.4c-0.1,0-0.2-0.1-0.3-0.3c-0.1-0.2-0.2-0.5-0.2-0.6
		C105.9,12.5,106,12.3,106.4,12z M107.2,9.5c-0.3,0-0.6,0-0.9-0.1c-0.2,0-0.3-0.1-0.3-0.1c0-0.4,0.1-0.8,0.2-1.1
		c0.1-0.3,0.3-0.4,0.6-0.4c0.3,0,0.4,0.1,0.5,0.2c0.1,0.2,0.1,0.6,0.1,1C107.3,9.4,107.2,9.5,107.2,9.5z"/>
</g>
<g>
	<path class="st0" d="M135,19.6c0.3-0.5,0.6-0.9,0.9-1.3c0.2-0.3,0.3-0.4,0.4-0.5c0.1,0.1,0.3,0.3,0.5,0.4c0.2,0.2,0.5,0.4,0.7,0.5
		c0.2,0.1,0.5,0.2,0.8,0.2c0.6,0,1-0.1,1.3-0.3c0.2-0.2,0.4-0.6,0.4-1.2c0-0.3-0.1-0.6-0.2-0.7c-0.1-0.2-0.3-0.4-0.6-0.6
		c0,0-0.1,0-0.1-0.1c0.4,0.1,0.9,0.2,1.4,0.4c0.8,0.3,1.9,0.8,3.3,1.5c1.1,0.5,2,1,2.6,1.2c0.7,0.3,1.2,0.4,1.7,0.4
		c0.3,0,0.5-0.1,0.7-0.4c0.2-0.3,0.3-0.5,0.3-0.7c0-0.5-0.6-1-2-1.6c-1.3-0.6-2.9-1.2-4.8-2c-0.4-0.2-0.7-0.3-0.9-0.4
		c-0.1,0-0.2-0.1-0.2-0.1c0,0,0,0-0.1,0c-0.1-0.1-0.3-0.2-0.6-0.4c0,0,0,0,0,0c0,0-0.1-0.1-0.4-0.3c-0.3-0.2-0.6-0.3-0.8-0.3
		c-1.6,0-3.8,2-6.8,6l-0.5,0.7c-0.4,0.5-0.7,1-0.9,1.3c0,0,0,0,0,0c0,0-0.1,0.1-0.4,0.7c0,0,0,0,0,0c-0.9,1.4-1,1.8-1,2
		c0,0.2,0.1,0.4,0.3,0.6c0.2,0.2,0.4,0.3,0.6,0.3c0.6,0,1.4-0.5,2.2-1.5C133,22.5,134,21.2,135,19.6C135,19.6,135,19.6,135,19.6z"/>
	<path class="st0" d="M140.2,10.6c-0.1,0.2-0.2,0.4-0.3,0.6c-0.1,0.3-0.2,0.5-0.2,0.7c0,0.2,0.1,0.5,0.3,0.7
		c0.2,0.2,0.4,0.4,0.7,0.4c0.3,0,0.6-0.1,0.9-0.4c0.3-0.2,0.7-0.6,1.1-1c0,0,0,0,0,0c0.7-0.8,0.9-0.8,0.9-0.8c0.3,0,0.7,0.1,1.2,0.4
		c0.1,0,0.2,0.1,0.5,0.2c0.3,0.1,0.6,0.2,0.9,0.2c0.2,0,0.5-0.1,0.8-0.2c0.3-0.2,0.5-0.4,0.5-0.7c0-0.3-0.1-0.6-0.4-0.9
		c-0.3-0.2-0.6-0.5-1.1-0.8c0,0,0,0,0,0c-0.2-0.1-0.4-0.2-0.5-0.4c-0.1-0.1-0.2-0.1-0.2-0.2c0-0.1,0.1-0.2,0.4-0.8
		c0.5-1,0.8-1.7,0.8-2.1c0-0.4-0.2-0.8-0.5-1.1c-0.3-0.3-0.7-0.5-1.2-0.5c-0.4,0-0.9,0.1-1.7,0.4c-0.7,0.3-1.4,0.6-1.9,1
		c-0.6,0.4-0.9,0.9-0.9,1.3c0,0.1,0.1,0.3,0.2,0.4c0,0.1,0.1,0.1,0.1,0.2c-0.1,0.1-0.1,0.1-0.2,0.2c-0.1,0.1-0.2,0.2-0.3,0.3
		c-0.1,0.1-0.1,0.3-0.1,0.5c0,0.3,0.1,0.5,0.3,0.7c0.2,0.1,0.4,0.3,0.6,0.4c0.1,0.1,0.2,0.1,0.2,0.2c0,0.1,0,0.3-0.5,0.8
		C140.4,10.3,140.3,10.4,140.2,10.6z M141.4,7.4c-0.2,0-0.4-0.1-0.5-0.1c0.1-0.1,0.5-0.4,1.5-0.8c1.3-0.7,1.7-0.8,1.9-0.8l0.4,0.2
		c-0.1,0.4-0.3,0.8-0.7,1.1c-0.4,0.4-0.9,0.5-1.4,0.5C142.3,7.5,141.9,7.5,141.4,7.4z"/>
	<path class="st0" d="M149.1,32.6c-1-0.7-2.2-1.4-3.5-2.1c-1.3-0.7-2.2-1.1-2.6-1.3c0,0-0.2-0.1-0.6-0.2c-0.2-0.1-0.3-0.1-0.3-0.2
		c0-0.1,0.2-0.3,0.9-1c0.5-0.6,0.9-1,1.2-1.3c0.3-0.4,0.4-0.6,0.4-0.9c0-0.1-0.1-0.3-0.1-0.4c-0.1-0.1-0.2-0.1-0.4-0.1
		c-0.3,0-0.5,0.1-0.8,0.3c-0.3,0.2-0.7,0.5-1.2,0.9c-0.7,0.6-1.3,1.1-1.8,1.4c-0.5,0.3-0.9,0.4-1.4,0.5l-0.1-0.1c0-0.5,0-1,0.1-1.4
		c0.1,0,0.1-0.1,0.2-0.1c0,0,0,0,0,0c1.1-0.4,1.8-0.7,2.1-1c0.4-0.3,0.6-0.6,0.7-1.1c0.1-0.4,0.1-1.2,0.1-2.3c0-0.8-0.1-1.6-0.2-2.1
		c-0.2-0.6-0.6-1-1.3-1c-0.3,0-0.9,0.1-1.7,0.3c-0.8,0.2-1.3,0.4-1.6,0.6c0,0,0,0,0,0c-0.2,0.1-0.3,0.5-0.4,2
		c-0.1,1.1-0.1,2.3-0.1,3.5c0,0.2,0,0.5,0,0.8c-0.1,1.2-0.2,2.3-0.4,3.4c0,0,0,0,0,0c0,0.3-0.1,0.6-0.2,0.9
		c-0.1,0.3-0.2,0.5-0.2,0.6l0,0.1c-0.2,0.7-0.4,1.2-0.5,1.5c-0.1,0.4-0.1,0.8-0.1,1.2c0,0.7,0.2,1.6,1.1,1.6c0.6,0,1.1-0.4,1.3-1.1
		c0.3-0.7,0.5-1.6,0.7-2.8c0.1-0.7,0.3-1.2,0.3-1.5c0.1-0.2,0.1-0.3,0.2-0.3c0.8,0,2.2,0.5,4.1,1.5c1.9,1,3.4,1.8,4.5,2.6
		c0.9,0.6,1.7,0.9,2.4,0.9c0.3,0,0.5-0.1,0.7-0.2c0.2-0.2,0.3-0.4,0.3-0.7C150.7,34,150.5,33.6,149.1,32.6z M139.8,23.7
		c0,0.2-0.1,0.4-0.3,0.6c-0.2,0.2-0.4,0.3-0.7,0.3c0,0,0-0.1,0-0.2c0-0.2-0.1-0.4-0.1-0.5c0-0.1,0-0.3,0.4-0.4
		c0.2-0.1,0.5-0.1,0.7-0.1C139.8,23.6,139.8,23.7,139.8,23.7z M140.1,21.8c0,0.2-0.4,0.2-0.5,0.2h-0.3c-0.2,0-0.3,0-0.5-0.1
		c-0.1,0-0.2-0.1-0.2-0.2c0-0.1,0-0.2,0.3-0.3c0.2-0.1,0.5-0.1,0.7-0.1C139.9,21.3,140.1,21.4,140.1,21.8z"/>
	<path class="st0" d="M130,20.8c0.5,0,1.1-0.6,1.9-1.8c0.7-1.2,1.4-2.4,2-3.8c0.6-1.4,0.9-2.4,0.9-2.8c0-0.6-0.1-1-0.4-1.2
		c-0.2-0.2-0.5-0.4-0.9-0.4c-0.3-0.1-0.4-0.2-0.5-0.2c-0.1-0.1-0.1-0.2-0.1-0.3c0-0.3,0.1-0.5,0.2-0.7c0.1-0.2,0.4-0.4,0.7-0.7
		c0.3-0.2,0.5-0.5,0.7-0.7c0.2-0.2,0.3-0.6,0.3-0.9c0-0.4-0.2-0.6-0.4-0.7c-0.2-0.1-0.5-0.2-0.8-0.3c0,0,0,0,0,0
		c-0.4-0.1-0.7-0.3-1-0.7c0,0,0,0,0,0c-0.2-0.2-0.4-0.4-0.5-0.5c-0.1-0.1-0.3-0.2-0.6-0.2c-0.3,0-0.5,0.1-0.7,0.2
		c-0.2,0.1-0.4,0.2-0.4,0.3c-0.1,0-0.1,0.1-0.1,0.2l0,1.3c0,1.2-0.1,2.1-0.1,2.7c0,0.6,0.1,1.3,0.2,2.1c-0.2,0.1-0.4,0.3-0.7,0.4
		c0,0,0,0,0,0c-0.5,0.3-1,0.6-1.2,0.7c-0.3,0.2-0.5,0.4-0.5,0.7c0,0.1,0,0.3,0.1,0.5c0.1,0.2,0.1,0.3,0.1,0.3c0,0,0,0.1-0.2,0.3
		c-0.2,0.2-0.2,0.4-0.2,0.6c0,0.2,0.1,0.6,0.5,0.7c0.3,0.1,0.7,0.2,1.2,0.2c0.1,0,0.2,0,0.4,0.1c0.2,0,0.4,0.1,0.5,0.1
		c0.1,0,0.1,0.1,0.1,0.2c0,0,0,0.2-0.5,1c-0.3,0.6-0.6,1-0.7,1.2c-0.4,0.6-0.5,0.8-0.6,0.9c0,0,0,0.1,0,0.1c0.1,0.2,0.2,0.4,0.5,0.7
		C129.6,20.7,129.8,20.8,130,20.8z M131,14.4c-0.1-0.1-0.3-0.2-0.3-0.3c0,0,0-0.3,0.8-0.6c0.5-0.3,0.9-0.4,1.2-0.4l0.3,0.2
		c-0.1,0.3-0.2,0.6-0.4,0.9c-0.2,0.3-0.5,0.4-0.9,0.4C131.5,14.6,131.2,14.5,131,14.4z"/>
</g>
<g>
	<path class="st0" d="M155.7,30.1c-0.1-0.1-0.3-0.2-0.4-0.4c-0.1-0.2-0.2-0.3-0.2-0.4c-0.1-0.2-0.4-0.5-0.6-0.7
		c-0.3-0.3-0.5-0.6-0.6-0.8c-0.1-0.3-0.2-0.6-0.2-0.9c0-0.2,0.1-0.5,0.4-0.9c0.1-0.1,0.1-0.3,0.3-0.5c0.1-0.2,0.2-0.4,0.2-0.5
		c0.1-0.4,0.2-1.1,0.2-2c0-3.7,0.1-6.7,0.3-9.1c0-0.2,0.1-0.7,0.1-1.5c0-0.8,0.1-1.5,0.3-2.1c0.2-0.6,0.5-0.9,0.8-0.9
		c0.2,0,0.5,0.1,0.8,0.3c0.3,0.2,0.5,0.4,0.6,0.6c0,0.3,0.1,0.4,0.2,0.4c0,0,0.6-0.4,1.8-1.2c1.2-0.8,2.5-1.2,4.1-1.2
		c2.4,0,3.8,1,4,3.1c0.3,2.6,0.4,4.6,0.4,6c0,0.8,0,1.9-0.1,3.3c-0.1,1.5-0.1,2.6-0.1,3.3c0,1.3-0.2,2.5-0.7,3.5
		c-0.5,1-1.3,1.5-2.5,1.5c-0.2,0-0.5-0.1-0.7-0.2c-0.2-0.1-0.5-0.3-0.7-0.6c-0.3-0.2-0.5-0.4-0.7-0.6l0,0l-3.4,1
		c-0.4,0.1-0.7,0.4-1.1,0.8c-0.2,0.3-0.5,0.5-0.7,0.7c-0.2,0.1-0.6,0.2-1,0.2C156.2,30.3,155.9,30.2,155.7,30.1z M158.7,15.8
		c0.3,0,0.8-0.2,1.7-0.5c0.7-0.3,1.1-0.4,1.3-0.4c0.2-0.1,0.6-0.1,1.2-0.2c0.5-0.1,0.9-0.2,1-0.2c0.2-0.1,0.3-0.3,0.3-0.5
		c0-0.5,0-0.9,0-1.2c0-0.3-0.1-0.6-0.1-0.8c-0.3-0.3-0.9-0.4-1.7-0.4c-1.5,0-2.9,0.5-4.2,1.4l0,1.5c0,0.3,0,0.8,0,1.5L158.7,15.8z
		 M158.3,22.9c0.1,1,0.1,1.5,0.2,1.7l0.2,0.1c0.3,0,1.1-0.2,2.6-0.6c1.4-0.4,2.2-0.7,2.3-0.8c0.1-0.1,0.2-0.6,0.3-1.4
		c0.1-0.8,0.1-1.4,0.1-1.9c0-0.9-0.2-1.4-0.6-1.4c-0.3,0-1.2,0.2-2.6,0.7c-1.4,0.5-2.2,0.8-2.5,1c-0.1,0.2-0.1,0.3-0.1,0.4
		C158.2,21.1,158.3,21.9,158.3,22.9z"/>
</g>
</svg>
