<svg width="233" height="153" viewBox="0 0 233 153" fill="none" xmlns="http://www.w3.org/2000/svg">
<path d="M123 11.4635C66.4049 -14.3293 13 11.4635 13 11.4635V142.713C31.0423 138.925 81.3027 130.452 123 143V142.713C141.042 138.925 191.303 130.452 233 143V11.4635C176.405 -14.3293 123 11.4635 123 11.4635Z" fill="#FF5F17"/>
<circle cx="22" cy="78" r="22" fill="#39BF63"/>
<path d="M23.172 89L26.9902 65.7273H30.172L26.3538 89H23.172ZM12.6833 83L13.2174 79.8182H31.1265L30.5924 83H12.6833ZM14.9902 89L18.8083 65.7273H21.9902L18.172 89H14.9902ZM14.0356 74.9091L14.5583 71.7273H32.4674L31.9447 74.9091H14.0356ZM61.1064 74.28V86.088H57.4264V77.832H53.8104V74.28H61.1064ZM61.1064 84.552C61.725 85.6187 62.5997 86.408 63.7304 86.92C64.861 87.4107 66.237 87.688 67.8584 87.752C68.8184 87.7947 69.9704 87.8267 71.3144 87.848C72.6797 87.848 74.0984 87.8373 75.5704 87.816C77.0637 87.7947 78.5144 87.7627 79.9224 87.72C81.3517 87.656 82.6317 87.5707 83.7624 87.464C83.613 87.7413 83.453 88.1147 83.2824 88.584C83.133 89.032 82.9837 89.4907 82.8344 89.96C82.7064 90.4293 82.6104 90.8453 82.5464 91.208C81.565 91.272 80.4344 91.3147 79.1544 91.336C77.8744 91.3573 76.5517 91.368 75.1864 91.368C73.821 91.3893 72.4984 91.3893 71.2184 91.368C69.9384 91.368 68.8077 91.3467 67.8264 91.304C65.9064 91.2187 64.2744 90.9093 62.9304 90.376C61.5864 89.8427 60.4344 88.9573 59.4744 87.72C58.8557 88.36 58.1944 88.9893 57.4904 89.608C56.8077 90.248 56.061 90.9093 55.2504 91.592L53.4264 87.784C54.109 87.336 54.8237 86.8347 55.5704 86.28C56.3384 85.7253 57.0744 85.1493 57.7784 84.552H61.1064ZM53.9384 64.808L56.8504 62.632C57.469 63.1013 58.109 63.6347 58.7704 64.232C59.4317 64.8293 60.0397 65.4267 60.5944 66.024C61.149 66.6213 61.597 67.1867 61.9384 67.72L58.7704 70.152C58.4717 69.6187 58.0557 69.0427 57.5224 68.424C57.0104 67.784 56.4344 67.1547 55.7944 66.536C55.1544 65.896 54.5357 65.32 53.9384 64.808ZM70.6744 66.12H74.3864V87.016H70.6744V66.12ZM67.4104 77.352V78.632H77.7784V77.352H67.4104ZM67.4104 73.928V75.176H77.7784V73.928H67.4104ZM64.1464 71.56H81.2344V81H64.1464V71.56ZM62.6104 62.824H82.8024V67.208H79.2504V65.544H65.9704V67.208H62.6104V62.824ZM63.5064 67.752H81.7464V70.376H63.5064V67.752ZM62.3224 82.152H83.1544V84.936H62.3224V82.152ZM87.7304 82.504H102.674V85.224H87.7304V82.504ZM87.0264 67.272H103.026V70.056H87.0264V67.272ZM93.3624 65.032H96.8504V87.976H93.3624V65.032ZM86.8344 87.592C88.1784 87.5067 89.7144 87.4 91.4424 87.272C93.1704 87.144 94.9944 87.0053 96.9144 86.856C98.8557 86.6853 100.786 86.5147 102.706 86.344L102.738 89.256C100.925 89.448 99.0904 89.64 97.2344 89.832C95.3997 90.024 93.629 90.1947 91.9224 90.344C90.237 90.5147 88.6904 90.6747 87.2824 90.824L86.8344 87.592ZM90.8984 77.416V78.856H99.3464V77.416H90.8984ZM90.8984 73.704V75.144H99.3464V73.704H90.8984ZM87.8584 71.304H102.514V81.256H87.8584V71.304ZM100.978 61.992L102.642 64.84C101.298 65.1173 99.7837 65.3627 98.0984 65.576C96.4344 65.768 94.7277 65.928 92.9784 66.056C91.229 66.1627 89.5544 66.2373 87.9544 66.28C87.8904 65.8747 87.773 65.416 87.6024 64.904C87.453 64.3707 87.2824 63.912 87.0904 63.528C88.285 63.464 89.5117 63.3893 90.7704 63.304C92.029 63.1973 93.2664 63.08 94.4824 62.952C95.7197 62.824 96.8824 62.6853 97.9704 62.536C99.0797 62.3653 100.082 62.184 100.978 61.992ZM102.994 69.064H114.098V72.584H102.994V69.064ZM112.53 69.064H116.21C116.21 69.064 116.21 69.1707 116.21 69.384C116.21 69.5973 116.21 69.8427 116.21 70.12C116.21 70.376 116.21 70.5893 116.21 70.76C116.125 74.0453 116.04 76.84 115.954 79.144C115.869 81.4267 115.773 83.3147 115.666 84.808C115.581 86.28 115.442 87.432 115.25 88.264C115.08 89.096 114.866 89.6933 114.61 90.056C114.248 90.5893 113.864 90.9627 113.458 91.176C113.074 91.4107 112.616 91.5813 112.082 91.688C111.592 91.7733 110.994 91.816 110.29 91.816C109.586 91.8373 108.85 91.8373 108.082 91.816C108.061 91.2827 107.944 90.664 107.73 89.96C107.538 89.256 107.293 88.648 106.994 88.136C107.677 88.2 108.306 88.2427 108.882 88.264C109.458 88.2853 109.896 88.296 110.194 88.296C110.45 88.296 110.664 88.2533 110.834 88.168C111.005 88.0827 111.165 87.944 111.314 87.752C111.485 87.496 111.634 87.0053 111.762 86.28C111.89 85.5333 111.997 84.4773 112.082 83.112C112.189 81.7253 112.274 79.944 112.338 77.768C112.424 75.592 112.488 72.9573 112.53 69.864V69.064ZM106.066 62.344H109.746C109.746 65.0747 109.714 67.6667 109.65 70.12C109.608 72.5733 109.469 74.888 109.234 77.064C109.021 79.2187 108.648 81.224 108.114 83.08C107.602 84.9147 106.877 86.5893 105.938 88.104C105 89.6187 103.794 90.952 102.322 92.104C102.13 91.784 101.874 91.4427 101.554 91.08C101.256 90.7173 100.936 90.3653 100.594 90.024C100.274 89.704 99.9544 89.4373 99.6344 89.224C100.978 88.2 102.066 87.0267 102.898 85.704C103.73 84.36 104.37 82.8773 104.818 81.256C105.266 79.6133 105.576 77.8213 105.746 75.88C105.917 73.9173 106.013 71.816 106.034 69.576C106.056 67.3147 106.066 64.904 106.066 62.344ZM121.17 82.92H149.17V85.96H121.17V82.92ZM126.834 77.48H140.498V80.168H126.834V77.48ZM133.266 81.48H137.042V88.296C137.042 89.1707 136.925 89.8427 136.69 90.312C136.456 90.7813 136.008 91.1333 135.346 91.368C134.685 91.6027 133.906 91.7413 133.01 91.784C132.114 91.848 131.058 91.88 129.842 91.88C129.757 91.368 129.597 90.8133 129.362 90.216C129.128 89.6187 128.882 89.096 128.626 88.648C129.16 88.6693 129.693 88.6907 130.226 88.712C130.781 88.712 131.272 88.712 131.698 88.712C132.146 88.712 132.445 88.712 132.594 88.712C132.85 88.6907 133.021 88.648 133.106 88.584C133.213 88.52 133.266 88.3813 133.266 88.168V81.48ZM139.602 77.48H140.53L141.33 77.288L143.474 79.24C142.77 79.7947 141.992 80.36 141.138 80.936C140.306 81.4907 139.442 82.0347 138.546 82.568C137.672 83.1013 136.797 83.5707 135.922 83.976C135.73 83.6773 135.453 83.336 135.09 82.952C134.728 82.568 134.429 82.2693 134.194 82.056C134.856 81.7147 135.528 81.32 136.21 80.872C136.893 80.4027 137.533 79.9227 138.13 79.432C138.749 78.9413 139.24 78.504 139.602 78.12V77.48ZM121.17 73.32H149.234V79.912H145.426V76.104H124.786V79.912H121.17V73.32ZM123.026 63.24L127.506 64.136C127.421 64.392 127.144 64.5627 126.674 64.648L127.218 74.568H123.698L123.026 63.24ZM143.922 62.856H147.57C147.506 64.1787 147.432 65.5653 147.346 67.016C147.261 68.4453 147.165 69.832 147.058 71.176C146.952 72.52 146.834 73.6933 146.706 74.696H142.994C143.144 73.6507 143.282 72.456 143.41 71.112C143.538 69.768 143.645 68.3813 143.73 66.952C143.816 65.5013 143.88 64.136 143.922 62.856ZM139.41 62.856H145.33V65.256H139.41V62.856ZM129.49 61.96L131.282 64.04C130.386 64.4453 129.394 64.8187 128.306 65.16C127.218 65.5013 126.237 65.768 125.362 65.96L123.858 64.008C124.434 63.8587 125.064 63.6667 125.746 63.432C126.429 63.1973 127.101 62.952 127.762 62.696C128.424 62.44 129 62.1947 129.49 61.96ZM125.042 66.376H131.026V68.744H125.042V66.376ZM125.106 69.832H131.09V72.232H125.106V69.832ZM139.538 66.376H144.946V68.744H139.538V66.376ZM139.442 69.832H144.818V72.232H139.442V69.832ZM136.242 61.992L138.706 62.76C138.002 63.72 137.096 64.6373 135.986 65.512C134.877 66.3867 133.789 67.1013 132.722 67.656C132.488 67.4213 132.168 67.1333 131.762 66.792C131.357 66.4293 131.005 66.152 130.706 65.96C131.794 65.4693 132.84 64.8827 133.842 64.2C134.845 63.5173 135.645 62.7813 136.242 61.992ZM131.506 63.688L133.234 62.216C133.874 62.5147 134.536 62.8773 135.218 63.304C135.901 63.7093 136.541 64.1253 137.138 64.552C137.757 64.9787 138.269 65.3733 138.674 65.736L136.818 67.368C136.456 67.0053 135.976 66.6 135.378 66.152C134.781 65.704 134.141 65.2667 133.458 64.84C132.797 64.4133 132.146 64.0293 131.506 63.688ZM136.402 67.368L138.898 68.104C138.173 69.1493 137.234 70.1307 136.082 71.048C134.952 71.9653 133.821 72.7227 132.69 73.32C132.477 73.0853 132.157 72.7867 131.73 72.424C131.325 72.0613 130.973 71.784 130.674 71.592C131.805 71.08 132.882 70.4613 133.906 69.736C134.952 68.9893 135.784 68.2 136.402 67.368ZM131.57 69.128L133.33 67.656C133.992 67.976 134.674 68.3493 135.378 68.776C136.104 69.2027 136.776 69.64 137.394 70.088C138.034 70.536 138.557 70.952 138.962 71.336L137.074 73C136.69 72.616 136.189 72.2 135.57 71.752C134.952 71.2827 134.29 70.824 133.586 70.376C132.904 69.9067 132.232 69.4907 131.57 69.128ZM157.874 78.408H179.41V91.944H175.41V81.288H161.682V91.944H157.874V78.408ZM159.794 83.144H176.466V86.024H159.794V83.144ZM160.018 87.88H176.626V90.792H160.018V87.88ZM166.386 75.464L170.514 76.04C170.109 76.872 169.682 77.6613 169.234 78.408C168.786 79.1547 168.392 79.784 168.05 80.296L164.914 79.624C165.192 79.0053 165.469 78.312 165.746 77.544C166.045 76.776 166.258 76.0827 166.386 75.464ZM154.418 63.24H164.722V66.216H154.418V63.24ZM163.858 63.24H167.346V73.864C167.346 74.5893 167.25 75.1547 167.058 75.56C166.866 75.9653 166.525 76.296 166.034 76.552C165.522 76.7653 164.904 76.8933 164.178 76.936C163.453 76.9573 162.61 76.968 161.65 76.968C161.586 76.5627 161.458 76.104 161.266 75.592C161.074 75.08 160.882 74.632 160.69 74.248C161.245 74.2693 161.778 74.28 162.29 74.28C162.824 74.28 163.186 74.28 163.378 74.28C163.549 74.28 163.666 74.248 163.73 74.184C163.816 74.0987 163.858 73.9813 163.858 73.832V63.24ZM169.042 63.24H180.082V66.216H169.042V63.24ZM178.29 63.24H181.874V73.768C181.874 74.5573 181.768 75.1653 181.554 75.592C181.362 75.9973 180.989 76.328 180.434 76.584C179.901 76.8187 179.24 76.968 178.45 77.032C177.682 77.0747 176.776 77.0853 175.73 77.064C175.666 76.616 175.528 76.1253 175.314 75.592C175.122 75.0373 174.92 74.5573 174.706 74.152C175.325 74.1733 175.933 74.1947 176.53 74.216C177.149 74.216 177.554 74.216 177.746 74.216C177.938 74.1947 178.077 74.152 178.162 74.088C178.248 74.024 178.29 73.9067 178.29 73.736V63.24ZM168.114 72.68C169.266 72.3387 170.621 71.912 172.178 71.4C173.736 70.8667 175.314 70.3227 176.914 69.768L177.522 72.52C176.136 73.0533 174.728 73.5867 173.298 74.12C171.89 74.632 170.589 75.1013 169.394 75.528L168.114 72.68ZM169.586 68.104L171.442 65.832C172.146 66.1733 172.914 66.6 173.746 67.112C174.6 67.6027 175.261 68.0613 175.73 68.488L173.778 70.984C173.352 70.536 172.722 70.0453 171.89 69.512C171.08 68.9573 170.312 68.488 169.586 68.104ZM153.554 73.224C154.621 72.904 155.89 72.4987 157.362 72.008C158.856 71.496 160.37 70.9627 161.906 70.408L162.482 73.192C161.181 73.7253 159.869 74.28 158.546 74.856C157.245 75.4107 156.029 75.912 154.898 76.36L153.554 73.224ZM155.25 68.136L157.074 65.928C157.778 66.2693 158.536 66.696 159.346 67.208C160.157 67.6987 160.786 68.1573 161.234 68.584L159.314 71.048C158.888 70.6 158.28 70.0987 157.49 69.544C156.701 68.9893 155.954 68.52 155.25 68.136ZM188.114 68.488H212.658V72.424H188.114V68.488ZM211.058 68.488H215.058C215.058 68.488 215.058 68.6053 215.058 68.84C215.058 69.0747 215.048 69.3413 215.026 69.64C215.026 69.9173 215.016 70.1413 214.994 70.312C214.824 73.512 214.653 76.2533 214.482 78.536C214.312 80.7973 214.12 82.6747 213.906 84.168C213.714 85.6613 213.48 86.8453 213.202 87.72C212.946 88.5947 212.637 89.2453 212.274 89.672C211.784 90.2907 211.282 90.7173 210.77 90.952C210.28 91.1867 209.682 91.3467 208.978 91.432C208.402 91.5173 207.645 91.56 206.706 91.56C205.768 91.56 204.808 91.5493 203.826 91.528C203.805 90.952 203.666 90.28 203.41 89.512C203.176 88.744 202.877 88.0933 202.514 87.56C203.538 87.6453 204.477 87.6987 205.33 87.72C206.205 87.72 206.856 87.72 207.282 87.72C207.602 87.72 207.88 87.688 208.114 87.624C208.349 87.56 208.562 87.4213 208.754 87.208C209.032 86.9307 209.288 86.3973 209.522 85.608C209.757 84.7973 209.96 83.6773 210.13 82.248C210.322 80.8187 210.493 79.0373 210.642 76.904C210.792 74.7493 210.93 72.2 211.058 69.256V68.488ZM197.938 61.864H202.034V68.488C202.034 69.9387 201.96 71.4853 201.81 73.128C201.682 74.7707 201.405 76.4453 200.978 78.152C200.552 79.8373 199.901 81.512 199.026 83.176C198.152 84.84 196.989 86.4293 195.538 87.944C194.109 89.4587 192.306 90.824 190.13 92.04C189.917 91.72 189.629 91.3573 189.266 90.952C188.925 90.5467 188.552 90.1627 188.146 89.8C187.762 89.4373 187.41 89.1387 187.09 88.904C189.096 87.8373 190.749 86.6427 192.05 85.32C193.373 83.9973 194.429 82.6213 195.218 81.192C196.008 79.7413 196.594 78.28 196.978 76.808C197.384 75.3147 197.64 73.864 197.746 72.456C197.874 71.0267 197.938 69.704 197.938 68.488V61.864Z" fill="white"/>
<g clip-path="url(#clip0_193_179)">
<path d="M123 146.987V147.304C82.819 133.448 34.3862 142.804 17 146.987V152.681C34.3862 148.497 82.819 139.138 123 152.998V152.681C140.386 148.497 188.819 139.138 229 152.998V147.304C188.819 133.445 140.386 142.801 123 146.987Z" fill="#FF5F17"/>
</g>
<defs>
<clipPath id="clip0_193_179">
<rect width="212" height="13" fill="white" transform="translate(17 140)"/>
</clipPath>
</defs>
</svg>
