<svg width="241" height="153" viewBox="0 0 241 153" fill="none" xmlns="http://www.w3.org/2000/svg">
<g clip-path="url(#clip0_113_1898)">
<path d="M123 146.986V147.304C82.819 133.447 34.3862 142.803 17 146.986V152.68C34.3862 148.497 82.819 139.138 123 152.997V152.68C140.386 148.497 188.819 139.138 229 152.997V147.304C188.819 133.444 140.386 142.8 123 146.986Z" fill="#FF5F17"/>
</g>
<path d="M123 11.4635C66.4049 -14.3293 13 11.4635 13 11.4635V142.713C31.0423 138.925 81.3027 130.452 123 143V142.713C141.042 138.925 191.303 130.452 233 143V11.4635C176.405 -14.3293 123 11.4635 123 11.4635Z" fill="#FF5F17"/>
<rect x="55" y="81.001" width="125" height="32" rx="16" fill="#FF5F17" stroke="white" stroke-width="2"/>
<path d="M80.342 99.193V100.975H85.776V99.193H80.342ZM79 98.115H87.184V102.075H79V98.115ZM83.752 101.657H85.182V104.473C85.182 104.891 85.226 104.935 85.644 104.935C85.842 104.935 86.744 104.935 86.986 104.935C87.382 104.935 87.448 104.781 87.492 103.461C87.778 103.659 88.328 103.857 88.724 103.945C88.592 105.727 88.196 106.167 87.184 106.167C86.92 106.167 85.732 106.167 85.446 106.167C84.082 106.167 83.752 105.815 83.752 104.473V101.657ZM80.584 102.053H81.97C81.64 104.275 80.606 105.551 77.724 106.321C77.57 105.991 77.174 105.419 76.888 105.177C79.418 104.649 80.32 103.725 80.584 102.053ZM75.106 90.371H81.09V91.515H75.106V90.371ZM81.75 95.321H85.71V96.553H81.75V95.321ZM85.006 90.371H91.056V91.515H85.006V90.371ZM90.396 87.599H92.046V104.737C92.046 105.617 91.892 106.123 91.386 106.409C90.88 106.695 90.088 106.739 89.01 106.739C88.966 106.277 88.768 105.485 88.526 105.045C89.23 105.067 89.868 105.067 90.11 105.045C90.33 105.045 90.396 104.979 90.396 104.737V87.599ZM75.15 87.599H82.058V94.375H75.15V93.143H80.496V88.809H75.15V87.599ZM91.32 87.599V88.809H85.6V93.143H91.32V94.375H84.038V87.599H91.32ZM74.292 87.599H75.92V106.739H74.292V87.599ZM84.478 95.321H85.974C86.524 96.729 87.888 97.961 89.208 98.577C88.878 98.797 88.394 99.259 88.152 99.567C86.788 98.775 85.446 97.477 84.852 96.025H84.478V95.321ZM79.924 95.695L81.288 96.025C80.628 97.433 79.352 98.863 77.988 99.699C77.746 99.435 77.306 99.039 77.02 98.819C78.274 98.093 79.418 96.861 79.924 95.695ZM103.662 87.753H115.828V88.897H103.662V87.753ZM104.432 89.953H115.212V91.053H104.432V89.953ZM108.788 86.543H110.394V90.547H108.788V86.543ZM110.372 92.395H111.494V93.407C111.494 93.737 111.56 93.781 112.044 93.781C112.286 93.781 113.496 93.781 113.804 93.781C114.134 93.781 114.222 93.781 114.266 93.715C114.508 93.869 114.904 93.957 115.19 94.001C115.102 94.419 114.772 94.595 114.002 94.595C113.738 94.595 112.176 94.595 111.956 94.595C110.68 94.595 110.372 94.397 110.372 93.385V92.395ZM107.886 92.461H108.92C108.898 93.957 108.26 94.639 105.796 94.881C105.73 94.639 105.488 94.265 105.29 94.089C107.38 93.935 107.842 93.583 107.886 92.461ZM105.18 92.901V95.365H114.266V92.901H105.18ZM103.816 91.933H115.674V96.311H103.816V91.933ZM105.972 99.875V100.821H113.54V99.875H105.972ZM105.972 101.613V102.625H113.54V101.613H105.972ZM105.972 98.137V99.061H113.54V98.137H105.972ZM104.476 97.125H115.08V103.615H104.476V97.125ZM110.702 104.429L111.736 103.549C113.364 104.297 115.256 105.221 116.378 105.881L115.036 106.805C114.024 106.145 112.286 105.199 110.702 104.429ZM107.16 103.593L108.524 104.407C107.27 105.331 105.268 106.277 103.618 106.783C103.376 106.475 102.892 106.013 102.562 105.749C104.234 105.265 106.214 104.385 107.16 103.593ZM96.798 93.187H102.452V94.507H96.798V93.187ZM96.93 87.313H102.386V88.633H96.93V87.313ZM96.798 96.135H102.452V97.455H96.798V96.135ZM95.896 90.195H103.002V91.559H95.896V90.195ZM97.568 99.105H102.43V105.507H97.568V104.143H101.044V100.469H97.568V99.105ZM96.754 99.105H98.118V106.541H96.754V99.105ZM119.348 87.709H138.51V89.205H119.348V87.709ZM128.214 88.347H129.93V96.883C129.93 101.129 128.764 104.913 119.942 106.783C119.766 106.431 119.304 105.727 118.952 105.331C127.532 103.747 128.214 100.513 128.214 96.861V88.347ZM122.934 95.959V98.203H135.474V95.959H122.934ZM122.934 92.439V94.639H135.474V92.439H122.934ZM121.372 91.053H137.146V99.589H121.372V91.053ZM123.484 99.765C126.278 104.121 131.294 104.869 139.236 105.067C138.95 105.463 138.62 106.167 138.532 106.695C130.436 106.365 125.024 105.331 122.076 100.337L123.484 99.765ZM146.342 91.383L147.442 90.415C149.092 91.185 151.116 92.417 152.106 93.341L150.94 94.419C149.994 93.495 147.992 92.197 146.342 91.383ZM156.506 88.391H156.836L157.122 88.303L158.2 88.963C155.34 94.089 148.828 97.169 143.02 98.445C142.866 98.027 142.536 97.345 142.228 96.993C147.772 95.959 154.108 92.989 156.506 88.655V88.391ZM149.158 88.391H156.924V89.777H149.158V88.391ZM150.786 86.499L152.634 86.895C150.61 89.227 147.618 91.405 143.526 93.033C143.284 92.637 142.778 92.087 142.404 91.801C146.364 90.415 149.268 88.347 150.786 86.499ZM149.158 99.457L150.368 98.511C152.106 99.413 154.218 100.799 155.274 101.855L153.976 102.911C152.986 101.877 150.896 100.403 149.158 99.457ZM159.718 96.091H160.048L160.356 96.003L161.434 96.597C158.662 103.021 151.798 105.771 144.604 106.827C144.494 106.365 144.164 105.683 143.9 105.309C150.698 104.495 157.342 101.877 159.718 96.333V96.091ZM152.568 96.091H160.158V97.499H152.568V96.091ZM154.35 94.023L156.176 94.441C153.954 97.037 150.478 99.435 145.66 101.129C145.462 100.755 144.978 100.161 144.626 99.853C149.29 98.401 152.634 96.113 154.35 94.023Z" fill="white"/>
<circle cx="22" cy="53" r="22" fill="#39BF63"/>
<path d="M23.172 64.001L26.9902 40.7282H30.172L26.3538 64.001H23.172ZM12.6833 58.001L13.2174 54.8192H31.1265L30.5924 58.001H12.6833ZM14.9902 64.001L18.8083 40.7282H21.9902L18.172 64.001H14.9902ZM14.0356 49.9101L14.5583 46.7282H32.4674L31.9447 49.9101H14.0356ZM61.0744 49.313V61.089H57.3944V52.865H53.8104V49.313H61.0744ZM61.0744 59.585C62.2904 61.697 64.5624 62.625 67.8584 62.753C71.6984 62.945 79.2824 62.849 83.7304 62.497C83.3144 63.361 82.7064 65.121 82.5464 66.241C78.5464 66.433 71.7304 66.497 67.8264 66.305C63.9864 66.145 61.3944 65.217 59.4744 62.753C58.1944 64.001 56.8504 65.217 55.2504 66.593L53.4264 62.785C54.7704 61.921 56.3384 60.769 57.7464 59.585H61.0744ZM53.9064 39.809L56.8504 37.665C58.6744 39.073 60.9144 41.217 61.9064 42.721L58.7384 45.153C57.8744 43.585 55.7304 41.377 53.9064 39.809ZM70.6744 41.121H74.3864V62.049H70.6744V41.121ZM67.3784 52.385V53.665H77.7784V52.385H67.3784ZM67.3784 48.929V50.177H77.7784V48.929H67.3784ZM64.1144 46.593H81.2024V56.001H64.1144V46.593ZM62.5784 37.825H82.8024V42.241H79.2504V40.545H65.9704V42.241H62.5784V37.825ZM63.4744 42.753H81.7464V45.409H63.4744V42.753ZM62.3224 57.153H83.1544V59.937H62.3224V57.153ZM87.7304 57.537H102.674V60.257H87.7304V57.537ZM86.9944 42.305H102.994V45.089H86.9944V42.305ZM93.3624 40.033H96.8184V62.977H93.3624V40.033ZM86.8344 62.625C90.8024 62.337 96.9144 61.889 102.674 61.377L102.706 64.289C97.2664 64.865 91.4424 65.441 87.2824 65.825L86.8344 62.625ZM90.8984 52.417V53.889H99.3464V52.417H90.8984ZM90.8984 48.737V50.177H99.3464V48.737H90.8984ZM87.8264 46.337H102.514V56.289H87.8264V46.337ZM100.946 36.993L102.642 39.873C98.5464 40.705 92.7224 41.185 87.9224 41.281C87.7944 40.513 87.4424 39.297 87.0904 38.561C91.8584 38.337 97.4264 37.761 100.946 36.993ZM102.994 44.065H114.066V47.585H102.994V44.065ZM112.53 44.065H116.21C116.21 44.065 116.178 45.313 116.178 45.761C115.89 58.945 115.634 63.617 114.578 65.057C113.874 66.145 113.138 66.497 112.082 66.689C111.09 66.881 109.586 66.881 108.082 66.817C107.986 65.761 107.57 64.193 106.962 63.169C108.338 63.297 109.554 63.297 110.194 63.297C110.674 63.297 110.994 63.201 111.282 62.753C112.018 61.793 112.274 57.281 112.53 44.897V44.065ZM106.066 37.377H109.746C109.714 51.041 109.682 61.313 102.29 67.137C101.746 66.209 100.498 64.897 99.6344 64.257C106.386 59.105 106.034 50.145 106.066 37.377ZM121.17 57.953H149.17V60.993H121.17V57.953ZM126.834 52.481H140.466V55.201H126.834V52.481ZM133.234 56.481H137.01V63.329C137.01 65.057 136.658 65.921 135.314 66.401C134.034 66.881 132.242 66.913 129.81 66.913C129.618 65.889 129.106 64.545 128.626 63.681C130.162 63.745 132.082 63.713 132.562 63.713C133.074 63.681 133.234 63.585 133.234 63.201V56.481ZM139.57 52.481H140.498L141.298 52.289L143.442 54.241C141.33 55.937 138.482 57.761 135.922 59.009C135.506 58.433 134.642 57.505 134.194 57.057C136.114 56.097 138.482 54.305 139.57 53.121V52.481ZM121.138 48.353H149.234V54.945H145.426V51.137H124.786V54.945H121.138V48.353ZM122.994 38.241L127.474 39.137C127.41 39.393 127.154 39.553 126.642 39.649L127.218 49.569H123.666L122.994 38.241ZM143.89 37.889H147.538C147.346 41.825 147.026 46.689 146.674 49.729H142.994C143.41 46.593 143.762 41.729 143.89 37.889ZM139.378 37.889H145.298V40.289H139.378V37.889ZM129.458 36.993L131.25 39.041C129.49 39.905 127.058 40.577 125.362 40.993L123.826 39.009C125.522 38.625 127.986 37.633 129.458 36.993ZM125.01 41.377H131.026V43.745H125.01V41.377ZM125.106 44.865H131.09V47.233H125.106V44.865ZM139.506 41.377H144.914V43.745H139.506V41.377ZM139.41 44.865H144.818V47.233H139.41V44.865ZM136.242 37.025L138.706 37.761C137.266 39.713 134.866 41.537 132.69 42.689C132.274 42.209 131.282 41.377 130.674 40.961C132.882 40.001 135.026 38.593 136.242 37.025ZM131.474 38.689L133.202 37.249C135.09 38.145 137.458 39.649 138.642 40.769L136.818 42.369C135.698 41.281 133.362 39.713 131.474 38.689ZM136.37 42.401L138.898 43.137C137.426 45.217 134.93 47.137 132.69 48.321C132.242 47.873 131.25 47.009 130.642 46.593C132.914 45.569 135.154 44.065 136.37 42.401ZM131.57 44.161L133.33 42.689C135.25 43.649 137.714 45.217 138.962 46.369L137.042 48.001C135.922 46.849 133.522 45.217 131.57 44.161ZM157.874 53.409H179.41V66.945H175.41V56.321H161.682V66.945H157.874V53.409ZM159.794 58.145H176.434V61.025H159.794V58.145ZM159.986 62.913H176.594V65.793H159.986V62.913ZM166.386 50.497L170.514 51.073C169.682 52.705 168.754 54.305 168.018 55.329L164.882 54.657C165.458 53.409 166.098 51.713 166.386 50.497ZM154.386 38.273H164.722V41.217H154.386V38.273ZM163.858 38.273H167.314V48.865C167.314 50.369 166.994 51.105 166.002 51.553C164.978 52.001 163.57 52.001 161.618 52.001C161.49 51.169 161.042 50.049 160.658 49.281C161.778 49.313 162.994 49.313 163.346 49.313C163.73 49.313 163.858 49.185 163.858 48.865V38.273ZM169.01 38.273H180.05V41.217H169.01V38.273ZM178.258 38.273H181.842V48.769C181.842 50.337 181.522 51.105 180.434 51.617C179.346 52.065 177.81 52.097 175.698 52.065C175.538 51.201 175.122 49.985 174.706 49.185C175.89 49.249 177.33 49.249 177.714 49.217C178.13 49.185 178.258 49.121 178.258 48.737V38.273ZM168.082 47.681C170.354 47.009 173.682 45.921 176.914 44.769L177.49 47.521C174.738 48.577 171.762 49.697 169.362 50.529L168.082 47.681ZM169.586 43.105L171.41 40.865C172.85 41.537 174.77 42.657 175.698 43.521L173.778 46.017C172.914 45.121 171.026 43.905 169.586 43.105ZM153.522 48.225C155.666 47.617 158.802 46.529 161.906 45.441L162.45 48.193C159.858 49.313 157.138 50.465 154.898 51.361L153.522 48.225ZM155.218 43.137L157.074 40.929C158.482 41.633 160.338 42.753 161.202 43.617L159.282 46.049C158.45 45.185 156.658 43.937 155.218 43.137ZM188.114 43.489H212.626V47.425H188.114V43.489ZM211.058 43.489H215.058C215.058 43.489 215.026 44.801 214.962 45.345C214.322 58.145 213.682 63.009 212.242 64.705C211.314 65.921 210.386 66.273 208.978 66.465C207.762 66.657 205.778 66.625 203.826 66.529C203.762 65.409 203.218 63.681 202.482 62.561C204.53 62.721 206.418 62.753 207.282 62.753C207.922 62.753 208.306 62.625 208.754 62.209C209.874 61.121 210.514 56.065 211.058 44.257V43.489ZM197.938 36.897H202.002V43.489C202.002 50.753 200.978 60.897 190.098 67.041C189.49 66.113 188.05 64.609 187.09 63.937C197.042 58.529 197.938 49.665 197.938 43.489V36.897Z" fill="white"/>
<defs>
<clipPath id="clip0_113_1898">
<rect width="212" height="13" fill="white" transform="translate(17 140)"/>
</clipPath>
</defs>
</svg>
