<svg width="242" height="153" viewBox="0 0 242 153" fill="none" xmlns="http://www.w3.org/2000/svg">
<g clip-path="url(#clip0_192_1687)">
<path d="M123.605 146.987V147.304C83.4245 133.448 34.9917 142.804 17.6055 146.987V152.681C34.9917 148.497 83.4245 139.138 123.605 152.998V152.681C140.992 148.497 189.424 139.138 229.605 152.998V147.304C189.424 133.445 140.992 142.801 123.605 146.987Z" fill="#39BF63"/>
</g>
<path d="M123.605 11.4635C67.0104 -14.3293 13.6055 11.4635 13.6055 11.4635V142.713C31.6478 138.925 81.9082 130.452 123.605 143V142.713C141.648 138.925 191.908 130.452 233.605 143V11.4635C177.01 -14.3293 123.605 11.4635 123.605 11.4635Z" fill="#39BF63"/>
<circle cx="22.6055" cy="76" r="22" fill="#FF5F17"/>
<path d="M23.7775 87L27.5956 63.7273H30.7775L26.9593 87H23.7775ZM13.2888 81L13.8229 77.8182H31.732L31.1979 81H13.2888ZM15.5956 87L19.4138 63.7273H22.5956L18.7775 87H15.5956ZM14.6411 72.9091L15.1638 69.7273H33.0729L32.5502 72.9091H14.6411ZM67.1838 59.832H71.1518V64.408H67.1838V59.832ZM55.6318 62.36H82.8958V69.56H78.9598V65.848H59.4078V69.56H55.6318V62.36ZM60.5278 67.864H77.8078V71.128H60.5278V67.864ZM63.6318 73.592L66.6078 71.864C68.1225 72.9093 69.3385 74.0827 70.2558 75.384C71.1732 76.664 71.8452 77.976 72.2718 79.32C72.6985 80.6427 72.9012 81.9227 72.8798 83.16C72.8585 84.376 72.6558 85.464 72.2718 86.424C71.8878 87.3627 71.3438 88.088 70.6398 88.6C70.0425 89.112 69.4452 89.464 68.8478 89.656C68.2718 89.848 67.5572 89.944 66.7038 89.944C66.3198 89.9653 65.8932 89.9653 65.4238 89.944C64.9545 89.9227 64.4745 89.9013 63.9838 89.88C63.9625 89.3467 63.8665 88.728 63.6958 88.024C63.5252 87.3413 63.2585 86.7333 62.8958 86.2C63.4932 86.2427 64.0478 86.2853 64.5598 86.328C65.0932 86.3493 65.5625 86.36 65.9678 86.36C66.3732 86.36 66.7358 86.3173 67.0558 86.232C67.3758 86.1467 67.6638 85.9653 67.9198 85.688C68.3038 85.3893 68.5812 84.9307 68.7518 84.312C68.9438 83.672 69.0078 82.9253 68.9438 82.072C68.9012 81.1973 68.6878 80.28 68.3038 79.32C67.9412 78.3387 67.3758 77.3573 66.6078 76.376C65.8612 75.3947 64.8692 74.4667 63.6318 73.592ZM68.7198 68.696L71.8878 70.04C70.7572 71.192 69.3918 72.2373 67.7918 73.176C66.1918 74.0933 64.4852 74.904 62.6718 75.608C60.8798 76.312 59.0985 76.8987 57.3278 77.368C57.1998 77.112 57.0185 76.8027 56.7838 76.44C56.5492 76.056 56.3038 75.672 56.0478 75.288C55.7918 74.904 55.5572 74.5947 55.3438 74.36C57.0718 74.0187 58.7785 73.5813 60.4638 73.048C62.1705 72.5147 63.7385 71.8853 65.1678 71.16C66.5972 70.4133 67.7812 69.592 68.7198 68.696ZM66.2238 75.064L68.6878 76.792C67.8132 77.4747 66.7465 78.1787 65.4878 78.904C64.2292 79.6293 62.9172 80.3013 61.5518 80.92C60.2078 81.5387 58.9385 82.0613 57.7438 82.488C57.5305 82.0613 57.2425 81.56 56.8798 80.984C56.5172 80.408 56.1652 79.9387 55.8238 79.576C56.6772 79.3627 57.5838 79.096 58.5438 78.776C59.5252 78.4347 60.4852 78.0613 61.4238 77.656C62.3838 77.2507 63.2798 76.8347 64.1118 76.408C64.9438 75.96 65.6478 75.512 66.2238 75.064ZM68.8158 78.136L71.4398 80.088C70.5865 80.8987 69.5732 81.7093 68.3998 82.52C67.2478 83.3307 65.9998 84.1093 64.6558 84.856C63.3332 85.5813 61.9892 86.2533 60.6238 86.872C59.2585 87.4907 57.9465 88.0133 56.6878 88.44C56.4532 87.9493 56.1438 87.4053 55.7598 86.808C55.3972 86.1893 55.0345 85.6667 54.6718 85.24C55.9305 84.9413 57.2318 84.536 58.5758 84.024C59.9198 83.512 61.2318 82.936 62.5118 82.296C63.7918 81.656 64.9758 80.984 66.0638 80.28C67.1518 79.5547 68.0692 78.84 68.8158 78.136ZM73.6478 69.24C74.1812 71.48 74.9065 73.5813 75.8238 75.544C76.7412 77.5067 77.8825 79.2347 79.2478 80.728C80.6345 82.2213 82.2772 83.3947 84.1758 84.248C83.8985 84.504 83.5892 84.824 83.2478 85.208C82.9065 85.592 82.5758 85.9973 82.2558 86.424C81.9572 86.8507 81.7012 87.2347 81.4878 87.576C79.4825 86.488 77.7652 85.08 76.3358 83.352C74.9065 81.6027 73.7225 79.5973 72.7838 77.336C71.8452 75.0533 71.0665 72.5787 70.4478 69.912L73.6478 69.24ZM79.9198 71.32L82.8958 73.912C82.1705 74.4667 81.3918 75.032 80.5598 75.608C79.7278 76.1627 78.9065 76.6853 78.0958 77.176C77.2852 77.6453 76.5278 78.072 75.8238 78.456L73.3918 76.12C74.0532 75.736 74.7785 75.2773 75.5678 74.744C76.3785 74.1893 77.1678 73.6133 77.9358 73.016C78.7038 72.4187 79.3652 71.8533 79.9198 71.32ZM94.3518 67.544H99.8558V70.584H94.3518V67.544ZM96.5598 74.264H101.328V77.176H96.5598V74.264ZM103.728 73.784H117.072V77.016H103.728V73.784ZM104.304 80.664H116.464V83.864H104.304V80.664ZM108.464 69.304H112.016V82.296H108.464V69.304ZM98.8958 67.544H99.3758L99.9198 67.384L102.288 68.152C101.819 69.176 101.275 70.264 100.656 71.416C100.059 72.5467 99.4292 73.688 98.7678 74.84C98.1278 75.9707 97.5092 77.0587 96.9118 78.104L93.9038 77.176C94.5012 76.152 95.1198 75.064 95.7598 73.912C96.3998 72.76 96.9865 71.6507 97.5198 70.584C98.0745 69.5173 98.5332 68.6213 98.8958 67.896V67.544ZM114.064 66.776L116.528 69.368C115.44 69.752 114.224 70.0933 112.88 70.392C111.536 70.6693 110.16 70.904 108.752 71.096C107.365 71.288 106.011 71.4267 104.688 71.512C104.624 71.1493 104.496 70.712 104.304 70.2C104.133 69.6667 103.941 69.2187 103.728 68.856C104.987 68.7067 106.245 68.536 107.504 68.344C108.763 68.1307 109.957 67.896 111.088 67.64C112.24 67.3627 113.232 67.0747 114.064 66.776ZM96.7198 78.52C97.1678 80.1627 97.7438 81.4853 98.4478 82.488C99.1732 83.4693 100.027 84.2267 101.008 84.76C101.989 85.272 103.088 85.6347 104.304 85.848C105.541 86.04 106.885 86.136 108.336 86.136C108.635 86.136 109.093 86.136 109.712 86.136C110.331 86.136 111.024 86.136 111.792 86.136C112.56 86.136 113.328 86.136 114.096 86.136C114.885 86.1147 115.611 86.104 116.272 86.104C116.933 86.0827 117.456 86.0613 117.84 86.04C117.669 86.3173 117.499 86.6587 117.328 87.064C117.179 87.4693 117.04 87.8853 116.912 88.312C116.784 88.76 116.688 89.144 116.624 89.464H114.928H108.144C106.309 89.464 104.645 89.3253 103.152 89.048C101.659 88.792 100.325 88.312 99.1518 87.608C97.9998 86.904 96.9865 85.8907 96.1118 84.568C95.2372 83.224 94.5012 81.5067 93.9038 79.416L96.7198 78.52ZM100.112 74.264H100.784L101.36 74.2L103.408 74.84C103.045 77.4427 102.48 79.736 101.712 81.72C100.944 83.6827 99.9945 85.3573 98.8638 86.744C97.7545 88.1093 96.4745 89.1973 95.0238 90.008C94.8745 89.752 94.6505 89.4533 94.3518 89.112C94.0532 88.792 93.7438 88.472 93.4238 88.152C93.1252 87.8533 92.8585 87.6293 92.6238 87.48C94.6505 86.4133 96.2932 84.8453 97.5518 82.776C98.8318 80.7067 99.6852 78.0613 100.112 74.84V74.264ZM101.488 59.8H105.488V64.344H101.488V59.8ZM91.7278 62.552H117.104V65.976H91.7278V62.552ZM89.7758 62.552H93.5198V71.8C93.5198 73.1013 93.4772 74.5413 93.3918 76.12C93.3278 77.6773 93.1892 79.288 92.9758 80.952C92.7625 82.5947 92.4532 84.184 92.0478 85.72C91.6638 87.256 91.1305 88.6533 90.4478 89.912C90.2345 89.6987 89.9252 89.4533 89.5198 89.176C89.1358 88.8987 88.7305 88.632 88.3038 88.376C87.8985 88.12 87.5465 87.928 87.2478 87.8C87.8452 86.648 88.3145 85.3893 88.6558 84.024C88.9972 82.6587 89.2425 81.2613 89.3918 79.832C89.5625 78.4027 89.6692 76.9947 89.7118 75.608C89.7545 74.2213 89.7758 72.952 89.7758 71.8V62.552ZM135.536 85.336H146.768V88.728H135.536V85.336ZM139.184 59.8H142.928V65.208H139.184V59.8ZM133.584 77.72H148.752V89.752H144.976V81.112H137.2V89.88H133.584V77.72ZM132.368 63.384H150.064V66.776H132.368V63.384ZM131.44 72.024H150.832V75.448H131.44V72.024ZM144.144 66.424L147.792 67.256C147.451 68.1947 147.109 69.112 146.768 70.008C146.448 70.8827 146.139 71.64 145.84 72.28L142.736 71.48C142.907 71.032 143.077 70.5093 143.248 69.912C143.44 69.3147 143.611 68.7173 143.76 68.12C143.931 67.5013 144.059 66.936 144.144 66.424ZM134.544 67.32L137.84 66.552C138.16 67.32 138.448 68.1627 138.704 69.08C138.981 69.976 139.163 70.7653 139.248 71.448L135.76 72.312C135.717 71.6507 135.579 70.8507 135.344 69.912C135.109 68.952 134.843 68.088 134.544 67.32ZM122.032 61.176H129.584V64.632H125.392V89.88H122.032V61.176ZM128.432 61.176H129.104L129.648 61.048L132.24 62.552C131.963 63.4907 131.653 64.4827 131.312 65.528C130.992 66.5733 130.661 67.608 130.32 68.632C130 69.656 129.68 70.584 129.36 71.416C130.384 72.6533 131.035 73.8267 131.312 74.936C131.611 76.0453 131.76 77.0693 131.76 78.008C131.76 79.0747 131.643 79.9493 131.408 80.632C131.173 81.3147 130.789 81.8373 130.256 82.2C130 82.392 129.712 82.5413 129.392 82.648C129.093 82.7547 128.763 82.84 128.4 82.904C128.123 82.9467 127.792 82.9787 127.408 83C127.024 83 126.64 83 126.256 83C126.235 82.5093 126.16 81.9333 126.032 81.272C125.904 80.6107 125.701 80.0453 125.424 79.576C125.701 79.5973 125.947 79.608 126.16 79.608C126.395 79.608 126.608 79.608 126.8 79.608C127.184 79.5867 127.493 79.4907 127.728 79.32C127.92 79.1707 128.059 78.9467 128.144 78.648C128.229 78.328 128.272 77.944 128.272 77.496C128.272 76.7493 128.123 75.8853 127.824 74.904C127.525 73.9227 126.917 72.8987 126 71.832C126.235 71.1067 126.469 70.3067 126.704 69.432C126.939 68.5573 127.163 67.6827 127.376 66.808C127.589 65.912 127.792 65.08 127.984 64.312C128.176 63.5227 128.325 62.872 128.432 62.36V61.176ZM171.664 60.248H175.536V89.88H171.664V60.248ZM164.528 69.944H182.832V73.496H164.528V69.944ZM163.216 77.784H184.144V81.336H163.216V77.784ZM164.4 62.616L167.632 61.4C168.016 62.104 168.378 62.8613 168.72 63.672C169.082 64.4613 169.402 65.24 169.68 66.008C169.978 66.776 170.181 67.4693 170.288 68.088L166.832 69.464C166.725 68.8667 166.544 68.1733 166.288 67.384C166.053 66.5947 165.765 65.784 165.424 64.952C165.104 64.12 164.762 63.3413 164.4 62.616ZM179.536 61.176L183.472 62.52C183.109 63.3307 182.725 64.152 182.32 64.984C181.914 65.7947 181.509 66.5733 181.104 67.32C180.72 68.0667 180.357 68.7387 180.016 69.336L176.88 68.088C177.2 67.4693 177.52 66.7547 177.84 65.944C178.181 65.1333 178.501 64.312 178.8 63.48C179.12 62.648 179.365 61.88 179.536 61.176ZM161.2 59.896L164.752 61.048C164.026 62.8613 163.162 64.6747 162.16 66.488C161.178 68.28 160.112 69.9867 158.96 71.608C157.829 73.208 156.656 74.616 155.44 75.832C155.333 75.512 155.162 75.1067 154.928 74.616C154.693 74.1253 154.437 73.624 154.16 73.112C153.882 72.6 153.637 72.1947 153.424 71.896C154.448 70.9147 155.44 69.784 156.4 68.504C157.381 67.224 158.277 65.848 159.088 64.376C159.898 62.904 160.602 61.4107 161.2 59.896ZM158.096 68.728L161.744 65.08V65.112V89.784H158.096V68.728ZM188.72 66.488H213.264V70.424H188.72V66.488ZM211.664 66.488H215.664C215.664 66.488 215.664 66.6053 215.664 66.84C215.664 67.0747 215.653 67.3413 215.632 67.64C215.632 67.9173 215.621 68.1413 215.6 68.312C215.429 71.512 215.259 74.2533 215.088 76.536C214.917 78.7973 214.725 80.6747 214.512 82.168C214.32 83.6613 214.085 84.8453 213.808 85.72C213.552 86.5947 213.243 87.2453 212.88 87.672C212.389 88.2907 211.888 88.7173 211.376 88.952C210.885 89.1867 210.288 89.3467 209.584 89.432C209.008 89.5173 208.251 89.56 207.312 89.56C206.373 89.56 205.413 89.5493 204.432 89.528C204.411 88.952 204.272 88.28 204.016 87.512C203.781 86.744 203.483 86.0933 203.12 85.56C204.144 85.6453 205.083 85.6987 205.936 85.72C206.811 85.72 207.461 85.72 207.888 85.72C208.208 85.72 208.485 85.688 208.72 85.624C208.955 85.56 209.168 85.4213 209.36 85.208C209.637 84.9307 209.893 84.3973 210.128 83.608C210.363 82.7973 210.565 81.6773 210.736 80.248C210.928 78.8187 211.099 77.0373 211.248 74.904C211.397 72.7493 211.536 70.2 211.664 67.256V66.488ZM198.544 59.864H202.64V66.488C202.64 67.9387 202.565 69.4853 202.416 71.128C202.288 72.7707 202.011 74.4453 201.584 76.152C201.157 77.8373 200.507 79.512 199.632 81.176C198.757 82.84 197.595 84.4293 196.144 85.944C194.715 87.4587 192.912 88.824 190.736 90.04C190.523 89.72 190.235 89.3573 189.872 88.952C189.531 88.5467 189.157 88.1627 188.752 87.8C188.368 87.4373 188.016 87.1387 187.696 86.904C189.701 85.8373 191.355 84.6427 192.656 83.32C193.979 81.9973 195.035 80.6213 195.824 79.192C196.613 77.7413 197.2 76.28 197.584 74.808C197.989 73.3147 198.245 71.864 198.352 70.456C198.48 69.0267 198.544 67.704 198.544 66.488V59.864Z" fill="white"/>
<defs>
<clipPath id="clip0_192_1687">
<rect width="212" height="13" fill="white" transform="translate(17.6055 140)"/>
</clipPath>
</defs>
</svg>
