<svg width="242" height="153" viewBox="0 0 242 153" fill="none" xmlns="http://www.w3.org/2000/svg">
<g clip-path="url(#clip0_192_1679)">
<path d="M123.605 146.987V147.304C83.4245 133.448 34.9917 142.804 17.6055 146.987V152.681C34.9917 148.497 83.4245 139.138 123.605 152.998V152.681C140.992 148.497 189.424 139.138 229.605 152.998V147.304C189.424 133.445 140.992 142.801 123.605 146.987Z" fill="#39BF63"/>
</g>
<path d="M123.605 11.4635C67.0104 -14.3293 13.6055 11.4635 13.6055 11.4635V142.713C31.6478 138.925 81.9082 130.452 123.605 143V142.713C141.648 138.925 191.908 130.452 233.605 143V11.4635C177.01 -14.3293 123.605 11.4635 123.605 11.4635Z" fill="#39BF63"/>
<circle cx="22.6055" cy="75" r="22" fill="#FF5F17"/>
<path d="M23.7775 86L27.5956 62.7273H30.7775L26.9593 86H23.7775ZM13.2888 80L13.8229 76.8182H31.732L31.1979 80H13.2888ZM15.5956 86L19.4138 62.7273H22.5956L18.7775 86H15.5956ZM14.6411 71.9091L15.1638 68.7273H33.0729L32.5502 71.9091H14.6411ZM58.2878 68.56V70.96H66.1598V68.56H58.2878ZM58.2878 63.376V65.712H66.1598V63.376H58.2878ZM55.1518 60.304H69.4238V74H55.1518V60.304ZM55.2158 76.624H69.4558V80.08H55.2158V76.624ZM54.1598 84.176C55.4825 84.048 57.0078 83.9093 58.7358 83.76C60.4638 83.5893 62.2878 83.3973 64.2078 83.184C66.1278 82.9707 68.0478 82.7573 69.9678 82.544L70.0638 85.936C68.2505 86.1707 66.4158 86.4053 64.5598 86.64C62.7252 86.8747 60.9545 87.0987 59.2478 87.312C57.5412 87.5467 55.9945 87.7493 54.6078 87.92L54.1598 84.176ZM70.4798 60.304H81.5198V63.728H70.4798V60.304ZM70.1278 70.8H81.9998V74.448H70.1278V70.8ZM79.7918 60.304H80.7198L81.5518 60.112L83.9838 61.84C83.4292 62.7147 82.7892 63.6107 82.0638 64.528C81.3598 65.4453 80.6025 66.32 79.7918 67.152C78.9812 67.9627 78.1492 68.6667 77.2958 69.264C77.0612 68.9227 76.7198 68.5387 76.2718 68.112C75.8452 67.6853 75.4932 67.344 75.2158 67.088C75.8132 66.5547 76.4105 65.936 77.0078 65.232C77.6052 64.5067 78.1385 63.7813 78.6078 63.056C79.0985 62.3093 79.4932 61.6373 79.7918 61.04V60.304ZM70.9598 67.312L73.3278 64.944C74.3092 65.3707 75.3012 65.872 76.3038 66.448C77.3278 67.024 78.2878 67.6107 79.1838 68.208C80.1012 68.8053 80.8692 69.36 81.4878 69.872L79.0878 72.56C78.4905 72.0053 77.7332 71.408 76.8158 70.768C75.9198 70.128 74.9598 69.5093 73.9358 68.912C72.9118 68.2933 71.9198 67.76 70.9598 67.312ZM80.8478 70.8H81.3918L81.9358 70.704L84.5598 71.248C84.2612 72.6773 83.9092 74.1387 83.5038 75.632C83.1198 77.1253 82.7358 78.3947 82.3518 79.44L79.2478 78.768C79.4398 78.1493 79.6318 77.424 79.8238 76.592C80.0158 75.7387 80.1972 74.8533 80.3678 73.936C80.5598 73.0187 80.7198 72.1547 80.8478 71.344V70.8ZM74.3518 72.624H78.1598V84.72C78.1598 85.6373 78.0532 86.3733 77.8398 86.928C77.6265 87.4827 77.2105 87.9093 76.5918 88.208C75.9732 88.5067 75.2265 88.688 74.3518 88.752C73.4772 88.816 72.4532 88.848 71.2798 88.848C71.2372 88.3147 71.0985 87.6853 70.8638 86.96C70.6505 86.2347 70.4158 85.6053 70.1598 85.072C70.8852 85.1147 71.5998 85.1467 72.3038 85.168C73.0292 85.168 73.5092 85.1573 73.7438 85.136C73.9785 85.136 74.1385 85.104 74.2238 85.04C74.3092 84.9547 74.3518 84.816 74.3518 84.624V72.624ZM60.6558 61.392H63.8558V72.144H64.1118V84.08H60.3998V72.144H60.6558V61.392ZM94.0318 58.8H97.1998V64.4H94.0318V58.8ZM95.3118 60.08H102.352V62.32H95.3118V60.08ZM93.1678 63.312H100.048V65.552H91.3438L93.1678 63.312ZM99.3118 63.312H99.8878L100.432 63.184L102.448 64.24C101.637 65.7973 100.528 67.1413 99.1198 68.272C97.7332 69.3813 96.1758 70.3093 94.4478 71.056C92.7198 71.8027 90.9385 72.4 89.1038 72.848C88.9118 72.4853 88.6558 72.0693 88.3358 71.6C88.0372 71.1307 87.7385 70.7573 87.4398 70.48C88.6772 70.224 89.8932 69.8933 91.0878 69.488C92.3038 69.0827 93.4452 68.6027 94.5118 68.048C95.5785 67.472 96.5278 66.8213 97.3598 66.096C98.1918 65.3707 98.8425 64.592 99.3118 63.76V63.312ZM90.0638 67.12L91.9198 65.584C92.6025 65.8613 93.3385 66.2133 94.1278 66.64C94.9172 67.0453 95.5358 67.44 95.9838 67.824L94.0638 69.488C93.7652 69.2533 93.3918 68.9973 92.9438 68.72C92.4958 68.4213 92.0158 68.1333 91.5038 67.856C91.0132 67.5787 90.5332 67.3333 90.0638 67.12ZM92.0798 62.672L94.7998 63.472C94.1172 64.3893 93.2532 65.264 92.2078 66.096C91.1838 66.928 90.1705 67.6213 89.1678 68.176C88.9332 67.92 88.5812 67.6 88.1118 67.216C87.6638 66.832 87.2905 66.5333 86.9918 66.32C87.9945 65.872 88.9545 65.328 89.8718 64.688C90.7892 64.048 91.5252 63.376 92.0798 62.672ZM103.376 59.92H113.232V62.512H103.376V59.92ZM112.432 59.92H113.04L113.616 59.824L115.728 60.688C115.131 62.352 114.299 63.824 113.232 65.104C112.165 66.3627 110.939 67.44 109.552 68.336C108.187 69.2107 106.715 69.9147 105.136 70.448C104.944 70.064 104.667 69.616 104.304 69.104C103.941 68.5707 103.6 68.144 103.28 67.824C104.645 67.4187 105.936 66.864 107.152 66.16C108.368 65.4347 109.435 64.592 110.352 63.632C111.291 62.6507 111.984 61.5733 112.432 60.4V59.92ZM103.056 64.976L105.2 62.928C106.48 63.4613 107.835 64.1013 109.264 64.848C110.693 65.5733 112.048 66.3307 113.328 67.12C114.608 67.9093 115.664 68.656 116.496 69.36L114.16 71.728C113.392 71.0453 112.389 70.2987 111.152 69.488C109.915 68.6773 108.581 67.8773 107.152 67.088C105.744 66.2773 104.379 65.5733 103.056 64.976ZM102.32 70.992C101.36 71.8027 100.165 72.6027 98.7358 73.392C97.3065 74.16 95.7598 74.8747 94.0958 75.536C92.4318 76.1973 90.7465 76.752 89.0398 77.2C88.8692 76.8373 88.6345 76.4 88.3358 75.888C88.0372 75.3547 87.7492 74.9173 87.4718 74.576C89.2212 74.1707 90.9278 73.6693 92.5918 73.072C94.2772 72.4533 95.8132 71.76 97.1998 70.992C98.5865 70.224 99.7385 69.4133 100.656 68.56H103.728C104.965 69.5413 106.341 70.4053 107.856 71.152C109.371 71.8987 110.96 72.528 112.624 73.04C114.288 73.552 115.931 73.9573 117.552 74.256C117.211 74.6187 116.88 75.0667 116.56 75.6C116.261 76.1333 115.995 76.6133 115.76 77.04C114.629 76.784 113.456 76.4533 112.24 76.048C111.024 75.6213 109.808 75.1413 108.592 74.608C107.376 74.0747 106.224 73.5093 105.136 72.912C104.069 72.2933 103.131 71.6533 102.32 70.992ZM95.5038 75.44H111.664V83.088H95.5038V81.104H108.016V77.456H95.5038V75.44ZM93.5518 75.504H97.1998V86.608L93.5518 86.864V75.504ZM112.336 81.04L114.992 82.704C114.011 83.408 112.987 84.1013 111.92 84.784C110.875 85.4453 109.915 86 109.04 86.448L107.088 85.04C107.664 84.6987 108.272 84.304 108.912 83.856C109.552 83.3867 110.171 82.9067 110.768 82.416C111.387 81.904 111.909 81.4453 112.336 81.04ZM103.248 81.968C104.016 82.864 105.061 83.6107 106.384 84.208C107.707 84.784 109.253 85.232 111.024 85.552C112.816 85.872 114.768 86.0853 116.88 86.192C116.539 86.512 116.197 86.9387 115.856 87.472C115.515 88.0267 115.248 88.5173 115.056 88.944C112.816 88.7307 110.768 88.3787 108.912 87.888C107.056 87.4187 105.424 86.7573 104.016 85.904C102.608 85.0507 101.435 83.984 100.496 82.704L103.248 81.968ZM95.5038 78.384H109.104V80.08H95.5038V78.384ZM98.1278 72.688H106.512V74.672H98.1278V72.688ZM89.8078 85.616C91.0025 85.5093 92.3572 85.4027 93.8718 85.296C95.4078 85.1893 97.0185 85.0613 98.7038 84.912C100.411 84.7627 102.117 84.6133 103.824 84.464L103.856 87.216C102.235 87.3867 100.603 87.5467 98.9598 87.696C97.3385 87.8453 95.7812 87.984 94.2878 88.112C92.7945 88.2613 91.4292 88.3893 90.1918 88.496L89.8078 85.616ZM120.944 61.2H131.92V64.752H120.944V61.2ZM121.296 70.416H131.664V73.936H121.296V70.416ZM120.368 81.52C121.392 81.328 122.555 81.0933 123.856 80.816C125.157 80.5173 126.533 80.1973 127.984 79.856C129.456 79.4933 130.917 79.152 132.368 78.832L132.752 82.128C130.747 82.6827 128.72 83.2267 126.672 83.76C124.645 84.2933 122.8 84.7733 121.136 85.2L120.368 81.52ZM133.552 61.072H148.976V64.752H133.552V61.072ZM132.24 70.096H150.64V73.776H132.24V70.096ZM135.92 72.688H139.632C139.568 74.736 139.419 76.6027 139.184 78.288C138.949 79.9733 138.533 81.488 137.936 82.832C137.339 84.1547 136.464 85.3173 135.312 86.32C134.16 87.3227 132.613 88.176 130.672 88.88C130.544 88.5813 130.363 88.24 130.128 87.856C129.893 87.4933 129.637 87.1307 129.36 86.768C129.083 86.4267 128.805 86.1493 128.528 85.936C130.213 85.36 131.536 84.6773 132.496 83.888C133.477 83.0773 134.203 82.1387 134.672 81.072C135.141 79.984 135.451 78.7467 135.6 77.36C135.749 75.9733 135.856 74.416 135.92 72.688ZM141.776 72.624H145.584V83.952C145.584 84.464 145.616 84.7947 145.68 84.944C145.744 85.072 145.883 85.136 146.096 85.136C146.16 85.136 146.267 85.136 146.416 85.136C146.565 85.136 146.715 85.136 146.864 85.136C147.035 85.136 147.152 85.136 147.216 85.136C147.387 85.136 147.515 85.04 147.6 84.848C147.707 84.6347 147.781 84.208 147.824 83.568C147.867 82.928 147.899 81.9787 147.92 80.72C148.176 80.9333 148.507 81.1467 148.912 81.36C149.317 81.5733 149.733 81.7653 150.16 81.936C150.608 82.0853 150.992 82.2027 151.312 82.288C151.205 83.9307 151.024 85.2213 150.768 86.16C150.512 87.0987 150.128 87.76 149.616 88.144C149.104 88.528 148.443 88.72 147.632 88.72C147.483 88.72 147.312 88.72 147.12 88.72C146.928 88.72 146.725 88.72 146.512 88.72C146.299 88.72 146.096 88.72 145.904 88.72C145.712 88.72 145.552 88.72 145.424 88.72C144.443 88.72 143.685 88.5707 143.152 88.272C142.619 87.9733 142.256 87.472 142.064 86.768C141.872 86.0853 141.776 85.1467 141.776 83.952V72.624ZM124.784 62.608H128.464V81.616L124.784 82.192V62.608ZM154.768 77.04H183.344V80.368H154.768V77.04ZM167.056 74.544H170.96V88.816H167.056V74.544ZM165.872 78.512L169.008 79.856C168.048 81.1147 166.885 82.3093 165.52 83.44C164.176 84.5493 162.725 85.5413 161.168 86.416C159.632 87.312 158.074 88.048 156.496 88.624C156.304 88.304 156.048 87.9413 155.728 87.536C155.429 87.1307 155.12 86.736 154.8 86.352C154.501 85.968 154.202 85.6587 153.904 85.424C155.461 84.9547 156.997 84.368 158.512 83.664C160.026 82.96 161.424 82.1707 162.704 81.296C164.005 80.4 165.061 79.472 165.872 78.512ZM172.112 78.608C172.944 79.5253 174 80.4107 175.28 81.264C176.581 82.096 178 82.8427 179.536 83.504C181.093 84.1653 182.65 84.7093 184.208 85.136C183.909 85.392 183.6 85.712 183.28 86.096C182.96 86.48 182.65 86.8747 182.352 87.28C182.053 87.6853 181.808 88.048 181.616 88.368C180.058 87.8347 178.501 87.1413 176.944 86.288C175.386 85.456 173.914 84.5067 172.528 83.44C171.162 82.3733 169.968 81.2533 168.944 80.08L172.112 78.608ZM167.376 69.776V72.176H170.576V69.776H167.376ZM167.376 64.72V67.088H170.576V64.72H167.376ZM164.176 61.84H173.936V75.056H164.176V61.84ZM167.504 58.768L171.376 59.216C171.098 60.0693 170.8 60.88 170.48 61.648C170.181 62.416 169.914 63.0773 169.68 63.632L166.608 63.12C166.778 62.48 166.949 61.7547 167.12 60.944C167.312 60.1333 167.44 59.408 167.504 58.768ZM154.48 65.936L155.984 63.376C156.538 63.7387 157.114 64.1653 157.712 64.656C158.309 65.1253 158.864 65.5947 159.376 66.064C159.909 66.5333 160.325 66.9707 160.624 67.376L159.024 70.288C158.746 69.8613 158.352 69.392 157.84 68.88C157.328 68.368 156.773 67.856 156.176 67.344C155.6 66.832 155.034 66.3627 154.48 65.936ZM160.624 69.968L163.024 69.232C163.408 70.192 163.749 71.2373 164.048 72.368C164.368 73.4987 164.592 74.448 164.72 75.216L162.16 76.112C162.096 75.3227 161.914 74.352 161.616 73.2C161.317 72.048 160.986 70.9707 160.624 69.968ZM161.104 63.472L163.984 64.656C163.386 65.7013 162.746 66.7893 162.064 67.92C161.381 69.0293 160.688 70.096 159.984 71.12C159.301 72.144 158.64 73.0507 158 73.84L155.664 72.72C156.282 71.9093 156.922 70.9707 157.584 69.904C158.266 68.8373 158.917 67.7387 159.536 66.608C160.154 65.4773 160.677 64.432 161.104 63.472ZM158.512 59.056L161.488 60.112C160.997 61.2 160.453 62.2987 159.856 63.408C159.28 64.5173 158.746 65.4667 158.256 66.256L155.824 65.264C156.144 64.7093 156.464 64.0693 156.784 63.344C157.125 62.6187 157.445 61.8827 157.744 61.136C158.064 60.368 158.32 59.6747 158.512 59.056ZM154.416 72.4C155.546 72.336 156.858 72.2507 158.352 72.144C159.845 72.016 161.392 71.888 162.992 71.76L163.024 74.416C161.552 74.6293 160.112 74.832 158.704 75.024C157.317 75.1947 156.016 75.3653 154.8 75.536L154.416 72.4ZM173.072 65.648L174.8 63.184C175.354 63.6533 175.93 64.1653 176.528 64.72C177.146 65.2747 177.712 65.8187 178.224 66.352C178.757 66.8853 179.184 67.376 179.504 67.824L177.68 70.608C177.381 70.1173 176.976 69.584 176.464 69.008C175.952 68.432 175.397 67.856 174.8 67.28C174.224 66.6827 173.648 66.1387 173.072 65.648ZM179.376 69.872L181.872 68.976C182.17 69.6373 182.458 70.352 182.736 71.12C183.034 71.888 183.29 72.6347 183.504 73.36C183.738 74.064 183.898 74.6933 183.984 75.248L181.264 76.336C181.2 75.76 181.072 75.1093 180.88 74.384C180.688 73.6373 180.453 72.8693 180.176 72.08C179.92 71.2907 179.653 70.5547 179.376 69.872ZM179.824 63.536L182.736 64.752C182.138 65.7973 181.477 66.8853 180.752 68.016C180.048 69.1253 179.344 70.192 178.64 71.216C177.936 72.24 177.264 73.1467 176.624 73.936L174.256 72.816C174.896 72.0053 175.557 71.0667 176.24 70C176.922 68.9333 177.584 67.8347 178.224 66.704C178.864 65.5733 179.397 64.5173 179.824 63.536ZM177.392 59.024L180.368 60.08C179.813 61.1467 179.248 62.2453 178.672 63.376C178.096 64.4853 177.552 65.4347 177.04 66.224L174.544 65.2C174.885 64.6667 175.226 64.0373 175.568 63.312C175.93 62.5867 176.272 61.8507 176.592 61.104C176.912 60.336 177.178 59.6427 177.392 59.024ZM173.328 72.304C174.458 72.2613 175.781 72.1973 177.296 72.112C178.81 72.0267 180.4 71.9307 182.064 71.824L182.032 74.512C180.56 74.704 179.109 74.8853 177.68 75.056C176.272 75.2053 174.949 75.344 173.712 75.472L173.328 72.304ZM188.72 65.488H213.264V69.424H188.72V65.488ZM211.664 65.488H215.664C215.664 65.488 215.664 65.6053 215.664 65.84C215.664 66.0747 215.653 66.3413 215.632 66.64C215.632 66.9173 215.621 67.1413 215.6 67.312C215.429 70.512 215.259 73.2533 215.088 75.536C214.917 77.7973 214.725 79.6747 214.512 81.168C214.32 82.6613 214.085 83.8453 213.808 84.72C213.552 85.5947 213.243 86.2453 212.88 86.672C212.389 87.2907 211.888 87.7173 211.376 87.952C210.885 88.1867 210.288 88.3467 209.584 88.432C209.008 88.5173 208.251 88.56 207.312 88.56C206.373 88.56 205.413 88.5493 204.432 88.528C204.411 87.952 204.272 87.28 204.016 86.512C203.781 85.744 203.483 85.0933 203.12 84.56C204.144 84.6453 205.083 84.6987 205.936 84.72C206.811 84.72 207.461 84.72 207.888 84.72C208.208 84.72 208.485 84.688 208.72 84.624C208.955 84.56 209.168 84.4213 209.36 84.208C209.637 83.9307 209.893 83.3973 210.128 82.608C210.363 81.7973 210.565 80.6773 210.736 79.248C210.928 77.8187 211.099 76.0373 211.248 73.904C211.397 71.7493 211.536 69.2 211.664 66.256V65.488ZM198.544 58.864H202.64V65.488C202.64 66.9387 202.565 68.4853 202.416 70.128C202.288 71.7707 202.011 73.4453 201.584 75.152C201.157 76.8373 200.507 78.512 199.632 80.176C198.757 81.84 197.595 83.4293 196.144 84.944C194.715 86.4587 192.912 87.824 190.736 89.04C190.523 88.72 190.235 88.3573 189.872 87.952C189.531 87.5467 189.157 87.1627 188.752 86.8C188.368 86.4373 188.016 86.1387 187.696 85.904C189.701 84.8373 191.355 83.6427 192.656 82.32C193.979 80.9973 195.035 79.6213 195.824 78.192C196.613 76.7413 197.2 75.28 197.584 73.808C197.989 72.3147 198.245 70.864 198.352 69.456C198.48 68.0267 198.544 66.704 198.544 65.488V58.864Z" fill="white"/>
<defs>
<clipPath id="clip0_192_1679">
<rect width="212" height="13" fill="white" transform="translate(17.6055 140)"/>
</clipPath>
</defs>
</svg>
