<svg width="241" height="153" viewBox="0 0 241 153" fill="none" xmlns="http://www.w3.org/2000/svg">
<g clip-path="url(#clip0_113_1918)">
<path d="M123 146.986V147.304C82.819 133.447 34.3862 142.803 17 146.986V152.68C34.3862 148.497 82.819 139.138 123 152.997V152.68C140.386 148.497 188.819 139.138 229 152.997V147.304C188.819 133.444 140.386 142.8 123 146.986Z" fill="#39BF63"/>
</g>
<path d="M123 11.4635C66.4049 -14.3293 13 11.4635 13 11.4635V142.713C31.0423 138.925 81.3027 130.452 123 143V142.713C141.042 138.925 191.303 130.452 233 143V11.4635C176.405 -14.3293 123 11.4635 123 11.4635Z" fill="#39BF63"/>
<rect x="55" y="81.001" width="125" height="32" rx="16" fill="#39BF63" stroke="white" stroke-width="2"/>
<path d="M80.342 99.193V100.975H85.776V99.193H80.342ZM79 98.115H87.184V102.075H79V98.115ZM83.752 101.657H85.182V104.473C85.182 104.891 85.226 104.935 85.644 104.935C85.842 104.935 86.744 104.935 86.986 104.935C87.382 104.935 87.448 104.781 87.492 103.461C87.778 103.659 88.328 103.857 88.724 103.945C88.592 105.727 88.196 106.167 87.184 106.167C86.92 106.167 85.732 106.167 85.446 106.167C84.082 106.167 83.752 105.815 83.752 104.473V101.657ZM80.584 102.053H81.97C81.64 104.275 80.606 105.551 77.724 106.321C77.57 105.991 77.174 105.419 76.888 105.177C79.418 104.649 80.32 103.725 80.584 102.053ZM75.106 90.371H81.09V91.515H75.106V90.371ZM81.75 95.321H85.71V96.553H81.75V95.321ZM85.006 90.371H91.056V91.515H85.006V90.371ZM90.396 87.599H92.046V104.737C92.046 105.617 91.892 106.123 91.386 106.409C90.88 106.695 90.088 106.739 89.01 106.739C88.966 106.277 88.768 105.485 88.526 105.045C89.23 105.067 89.868 105.067 90.11 105.045C90.33 105.045 90.396 104.979 90.396 104.737V87.599ZM75.15 87.599H82.058V94.375H75.15V93.143H80.496V88.809H75.15V87.599ZM91.32 87.599V88.809H85.6V93.143H91.32V94.375H84.038V87.599H91.32ZM74.292 87.599H75.92V106.739H74.292V87.599ZM84.478 95.321H85.974C86.524 96.729 87.888 97.961 89.208 98.577C88.878 98.797 88.394 99.259 88.152 99.567C86.788 98.775 85.446 97.477 84.852 96.025H84.478V95.321ZM79.924 95.695L81.288 96.025C80.628 97.433 79.352 98.863 77.988 99.699C77.746 99.435 77.306 99.039 77.02 98.819C78.274 98.093 79.418 96.861 79.924 95.695ZM103.662 87.753H115.828V88.897H103.662V87.753ZM104.432 89.953H115.212V91.053H104.432V89.953ZM108.788 86.543H110.394V90.547H108.788V86.543ZM110.372 92.395H111.494V93.407C111.494 93.737 111.56 93.781 112.044 93.781C112.286 93.781 113.496 93.781 113.804 93.781C114.134 93.781 114.222 93.781 114.266 93.715C114.508 93.869 114.904 93.957 115.19 94.001C115.102 94.419 114.772 94.595 114.002 94.595C113.738 94.595 112.176 94.595 111.956 94.595C110.68 94.595 110.372 94.397 110.372 93.385V92.395ZM107.886 92.461H108.92C108.898 93.957 108.26 94.639 105.796 94.881C105.73 94.639 105.488 94.265 105.29 94.089C107.38 93.935 107.842 93.583 107.886 92.461ZM105.18 92.901V95.365H114.266V92.901H105.18ZM103.816 91.933H115.674V96.311H103.816V91.933ZM105.972 99.875V100.821H113.54V99.875H105.972ZM105.972 101.613V102.625H113.54V101.613H105.972ZM105.972 98.137V99.061H113.54V98.137H105.972ZM104.476 97.125H115.08V103.615H104.476V97.125ZM110.702 104.429L111.736 103.549C113.364 104.297 115.256 105.221 116.378 105.881L115.036 106.805C114.024 106.145 112.286 105.199 110.702 104.429ZM107.16 103.593L108.524 104.407C107.27 105.331 105.268 106.277 103.618 106.783C103.376 106.475 102.892 106.013 102.562 105.749C104.234 105.265 106.214 104.385 107.16 103.593ZM96.798 93.187H102.452V94.507H96.798V93.187ZM96.93 87.313H102.386V88.633H96.93V87.313ZM96.798 96.135H102.452V97.455H96.798V96.135ZM95.896 90.195H103.002V91.559H95.896V90.195ZM97.568 99.105H102.43V105.507H97.568V104.143H101.044V100.469H97.568V99.105ZM96.754 99.105H98.118V106.541H96.754V99.105ZM119.348 87.709H138.51V89.205H119.348V87.709ZM128.214 88.347H129.93V96.883C129.93 101.129 128.764 104.913 119.942 106.783C119.766 106.431 119.304 105.727 118.952 105.331C127.532 103.747 128.214 100.513 128.214 96.861V88.347ZM122.934 95.959V98.203H135.474V95.959H122.934ZM122.934 92.439V94.639H135.474V92.439H122.934ZM121.372 91.053H137.146V99.589H121.372V91.053ZM123.484 99.765C126.278 104.121 131.294 104.869 139.236 105.067C138.95 105.463 138.62 106.167 138.532 106.695C130.436 106.365 125.024 105.331 122.076 100.337L123.484 99.765ZM146.342 91.383L147.442 90.415C149.092 91.185 151.116 92.417 152.106 93.341L150.94 94.419C149.994 93.495 147.992 92.197 146.342 91.383ZM156.506 88.391H156.836L157.122 88.303L158.2 88.963C155.34 94.089 148.828 97.169 143.02 98.445C142.866 98.027 142.536 97.345 142.228 96.993C147.772 95.959 154.108 92.989 156.506 88.655V88.391ZM149.158 88.391H156.924V89.777H149.158V88.391ZM150.786 86.499L152.634 86.895C150.61 89.227 147.618 91.405 143.526 93.033C143.284 92.637 142.778 92.087 142.404 91.801C146.364 90.415 149.268 88.347 150.786 86.499ZM149.158 99.457L150.368 98.511C152.106 99.413 154.218 100.799 155.274 101.855L153.976 102.911C152.986 101.877 150.896 100.403 149.158 99.457ZM159.718 96.091H160.048L160.356 96.003L161.434 96.597C158.662 103.021 151.798 105.771 144.604 106.827C144.494 106.365 144.164 105.683 143.9 105.309C150.698 104.495 157.342 101.877 159.718 96.333V96.091ZM152.568 96.091H160.158V97.499H152.568V96.091ZM154.35 94.023L156.176 94.441C153.954 97.037 150.478 99.435 145.66 101.129C145.462 100.755 144.978 100.161 144.626 99.853C149.29 98.401 152.634 96.113 154.35 94.023Z" fill="white"/>
<circle cx="22" cy="53" r="22" fill="#FF5F17"/>
<path d="M23.172 64.001L26.9902 40.7282H30.172L26.3538 64.001H23.172ZM12.6833 58.001L13.2174 54.8192H31.1265L30.5924 58.001H12.6833ZM14.9902 64.001L18.8083 40.7282H21.9902L18.172 64.001H14.9902ZM14.0356 49.9101L14.5583 46.7282H32.4674L31.9447 49.9101H14.0356ZM57.6504 46.561V48.961H65.5544V46.561H57.6504ZM57.6504 41.377V43.745H65.5544V41.377H57.6504ZM54.5464 38.337H68.7864V52.033H54.5464V38.337ZM54.5784 54.625H68.8184V58.081H54.5784V54.625ZM53.5224 62.209C57.4904 61.857 63.6024 61.217 69.3624 60.577L69.4264 63.937C63.9864 64.705 58.1624 65.409 53.9704 65.953L53.5224 62.209ZM69.8424 38.337H80.8824V41.761H69.8424V38.337ZM69.4904 48.833H81.3944V52.449H69.4904V48.833ZM79.1544 38.337H80.1144L80.9144 38.145L83.3784 39.841C81.7144 42.497 79.2184 45.473 76.6584 47.297C76.1784 46.625 75.1544 45.601 74.5784 45.121C76.4024 43.553 78.3224 40.865 79.1544 39.041V38.337ZM70.3544 45.345L72.7224 42.977C75.6024 44.225 78.9944 46.369 80.8824 47.873L78.4824 50.561C76.6264 48.929 73.2024 46.689 70.3544 45.345ZM80.2424 48.833H80.7544L81.3304 48.705L83.9224 49.249C83.3144 52.129 82.5144 55.361 81.7464 57.441L78.6424 56.769C79.1864 54.913 79.8584 51.809 80.2424 49.377V48.833ZM73.7144 50.625H77.5544V62.753C77.5544 64.545 77.2344 65.633 75.9544 66.241C74.7384 66.817 73.0104 66.881 70.6744 66.881C70.5464 65.793 70.0344 64.161 69.5544 63.105C70.9944 63.201 72.6264 63.201 73.1064 63.169C73.5864 63.169 73.7144 63.041 73.7144 62.625V50.625ZM60.0184 39.425H63.2184V50.145H63.4744V62.081H59.7944V50.145H60.0184V39.425ZM93.4264 36.833H96.5624V42.401H93.4264V36.833ZM94.7064 38.081H101.746V40.353H94.7064V38.081ZM92.5304 41.313H99.4424V43.585H90.7064L92.5304 41.313ZM98.7064 41.313H99.2824L99.8264 41.217L101.842 42.273C99.3464 46.913 93.9704 49.537 88.4664 50.881C88.1144 50.177 87.3784 49.089 86.8344 48.481C91.7624 47.521 96.8184 45.185 98.7064 41.761V41.313ZM89.4584 45.153L91.2824 43.617C92.6584 44.161 94.4504 45.089 95.3464 45.825L93.4264 47.489C92.5944 46.785 90.8344 45.761 89.4584 45.153ZM91.4744 40.673L94.1624 41.473C92.7864 43.329 90.5784 45.121 88.5304 46.209C88.0504 45.697 86.9944 44.769 86.3544 44.321C88.3704 43.425 90.3544 42.113 91.4744 40.673ZM102.738 37.953H112.626V40.545H102.738V37.953ZM111.794 37.953H112.434L112.978 37.825L115.122 38.721C113.298 43.713 109.202 46.849 104.498 48.481C104.114 47.713 103.282 46.465 102.642 45.825C106.77 44.673 110.45 41.953 111.794 38.401V37.953ZM102.45 43.009L104.594 40.929C108.402 42.561 113.362 45.281 115.89 47.361L113.554 49.761C111.218 47.681 106.354 44.801 102.45 43.009ZM101.714 48.993C98.8344 51.457 93.5224 53.889 88.4024 55.233C88.0824 54.465 87.3784 53.281 86.8344 52.577C92.0824 51.425 97.2984 49.121 100.05 46.593H103.09C106.77 49.505 112.05 51.425 116.946 52.257C116.274 53.025 115.57 54.209 115.154 55.041C110.674 54.017 104.914 51.617 101.714 48.993ZM94.8664 53.473H111.026V61.121H94.8664V59.105H107.41V55.457H94.8664V53.473ZM92.9464 53.505H96.5624V64.641L92.9464 64.897V53.505ZM111.73 59.073L114.386 60.737C112.434 62.113 110.194 63.553 108.434 64.449L106.45 63.041C108.178 62.049 110.418 60.321 111.73 59.073ZM102.642 59.969C104.882 62.689 109.938 63.937 116.242 64.225C115.602 64.865 114.834 66.113 114.45 66.945C107.666 66.369 102.674 64.545 99.8904 60.737L102.642 59.969ZM94.8664 56.385H108.498V58.113H94.8664V56.385ZM97.5224 50.689H105.874V52.705H97.5224V50.689ZM89.2024 63.617C92.7544 63.361 98.0984 62.945 103.218 62.497V65.249C98.3864 65.697 93.2344 66.177 89.5544 66.497L89.2024 63.617ZM120.338 39.201H131.314V42.753H120.338V39.201ZM120.658 48.449H131.026V51.969H120.658V48.449ZM119.762 59.553C122.77 58.945 127.378 57.889 131.73 56.833L132.146 60.161C128.114 61.249 123.794 62.369 120.53 63.233L119.762 59.553ZM132.914 39.105H148.338V42.753H132.914V39.105ZM131.634 48.129H150.034V51.809H131.634V48.129ZM135.282 50.721H138.994C138.706 58.881 137.778 64.097 130.066 66.913C129.682 66.017 128.69 64.609 127.922 63.937C134.642 61.665 135.058 57.633 135.282 50.721ZM141.138 50.625H144.946V61.953C144.946 63.009 145.01 63.137 145.458 63.137C145.65 63.137 146.386 63.137 146.578 63.137C147.09 63.137 147.218 62.529 147.314 58.753C148.05 59.425 149.682 60.065 150.706 60.321C150.386 65.281 149.458 66.721 146.994 66.721C146.45 66.721 145.33 66.721 144.786 66.721C141.81 66.721 141.138 65.537 141.138 61.985V50.625ZM124.146 40.609H127.858V59.649L124.146 60.225V40.609ZM154.162 55.073H182.738V58.401H154.162V55.073ZM166.418 52.577H170.322V66.849H166.418V52.577ZM165.234 56.513L168.37 57.889C165.458 61.665 160.594 64.929 155.858 66.625C155.282 65.665 154.13 64.193 153.298 63.425C157.906 62.113 162.77 59.457 165.234 56.513ZM171.474 56.609C174.002 59.393 178.898 61.921 183.57 63.137C182.738 63.905 181.554 65.409 181.01 66.369C176.274 64.769 171.346 61.633 168.306 58.081L171.474 56.609ZM166.738 47.777V50.177H169.97V47.777H166.738ZM166.738 42.721V45.089H169.97V42.721H166.738ZM163.538 39.841H173.298V53.057H163.538V39.841ZM166.898 36.801L170.77 37.249C170.162 38.913 169.554 40.545 169.042 41.665L166.002 41.121C166.354 39.841 166.738 38.081 166.898 36.801ZM153.874 43.969L155.378 41.377C157.01 42.529 159.09 44.225 160.018 45.377L158.418 48.321C157.522 47.041 155.474 45.217 153.874 43.969ZM160.018 48.001L162.386 47.265C163.154 49.185 163.89 51.681 164.082 53.217L161.554 54.145C161.394 52.545 160.722 49.953 160.018 48.001ZM160.466 41.505L163.346 42.657C161.554 45.825 159.282 49.505 157.394 51.873L155.026 50.721C156.882 48.321 159.186 44.417 160.466 41.505ZM157.906 37.057L160.882 38.113C159.826 40.289 158.642 42.689 157.65 44.289L155.186 43.265C156.114 41.601 157.298 38.977 157.906 37.057ZM153.81 50.401C156.018 50.273 159.122 50.049 162.386 49.793L162.418 52.417C159.474 52.865 156.594 53.217 154.162 53.569L153.81 50.401ZM172.466 43.649L174.194 41.217C175.858 42.593 177.938 44.545 178.866 45.857L177.042 48.641C176.178 47.201 174.13 45.121 172.466 43.649ZM178.77 47.873L181.266 46.977C182.162 48.993 183.058 51.649 183.346 53.281L180.658 54.369C180.402 52.673 179.602 49.953 178.77 47.873ZM179.186 41.569L182.098 42.753C180.274 45.921 177.906 49.601 175.986 51.969L173.618 50.849C175.506 48.417 177.874 44.481 179.186 41.569ZM176.754 37.025L179.762 38.081C178.642 40.289 177.426 42.657 176.402 44.225L173.938 43.233C174.898 41.569 176.146 38.945 176.754 37.025ZM172.69 50.337C174.962 50.241 178.13 50.049 181.426 49.857V52.545C178.482 52.897 175.538 53.217 173.106 53.505L172.69 50.337ZM188.114 43.489H212.626V47.425H188.114V43.489ZM211.058 43.489H215.058C215.058 43.489 215.026 44.801 214.962 45.345C214.322 58.145 213.682 63.009 212.242 64.705C211.314 65.921 210.386 66.273 208.978 66.465C207.762 66.657 205.778 66.625 203.826 66.529C203.762 65.409 203.218 63.681 202.482 62.561C204.53 62.721 206.418 62.753 207.282 62.753C207.922 62.753 208.306 62.625 208.754 62.209C209.874 61.121 210.514 56.065 211.058 44.257V43.489ZM197.938 36.897H202.002V43.489C202.002 50.753 200.978 60.897 190.098 67.041C189.49 66.113 188.05 64.609 187.09 63.937C197.042 58.529 197.938 49.665 197.938 43.489V36.897Z" fill="white"/>
<defs>
<clipPath id="clip0_113_1918">
<rect width="212" height="13" fill="white" transform="translate(17 140)"/>
</clipPath>
</defs>
</svg>
