<svg width="122" height="122" viewBox="0 0 122 122" fill="none" xmlns="http://www.w3.org/2000/svg">
<path d="M55.8504 2.20985C58.6784 5.60348 63.3085 5.60348 66.1365 2.20985C68.9645 -1.18379 72.6212 -0.605033 74.2654 3.4989C75.9097 7.60284 80.3161 9.03658 84.0518 6.68208C87.7874 4.32758 91.089 6.01125 91.3915 10.4177C91.694 14.8242 95.4296 17.547 99.7177 16.4684C104.006 15.3898 106.623 18.0074 105.532 22.2823C104.44 26.5572 107.176 30.306 111.582 30.6086C115.989 30.9111 117.672 34.1995 115.318 37.9483C112.963 41.6971 114.397 46.0904 118.501 47.7346C122.605 49.3788 123.184 53.0355 119.79 55.8635C116.397 58.6916 116.397 63.3217 119.79 66.1497C123.184 68.9777 122.605 72.6344 118.501 74.2786C114.397 75.9228 112.963 80.3293 115.318 84.0649C117.672 87.8006 115.989 91.1021 111.582 91.4047C107.176 91.7072 104.453 95.4428 105.532 99.7309C106.61 104.019 103.993 106.637 99.7177 105.545C95.4428 104.453 91.694 107.189 91.3915 111.595C91.089 116.002 87.8005 117.686 84.0518 115.331C80.303 112.977 75.9097 114.41 74.2654 118.514C72.6212 122.618 68.9645 123.197 66.1365 119.803C63.3085 116.41 58.6784 116.41 55.8504 119.803C53.0223 123.197 49.3656 122.618 47.7214 118.514C46.0772 114.41 41.6707 112.977 37.9351 115.331C34.1995 117.686 30.8979 116.002 30.5954 111.595C30.2928 107.189 26.5572 104.466 22.2691 105.545C17.981 106.623 15.3635 104.006 16.4552 99.7309C17.547 95.456 14.811 91.7072 10.4045 91.4047C5.99806 91.1021 4.3144 87.8137 6.6689 84.0649C9.0234 80.3162 7.58965 75.9228 3.48572 74.2786C-0.618217 72.6344 -1.19698 68.9777 2.19666 66.1497C5.5903 63.3217 5.5903 58.6916 2.19666 55.8635C-1.19698 53.0355 -0.618217 49.3788 3.48572 47.7346C7.58965 46.0904 9.0234 41.6839 6.6689 37.9483C4.3144 34.2127 5.99806 30.9111 10.4045 30.6086C14.811 30.306 17.5338 26.5704 16.4552 22.2823C15.3766 17.9942 17.9942 15.3766 22.2691 16.4684C26.544 17.5601 30.2928 14.8242 30.5954 10.4177C30.8979 6.01125 34.1863 4.32758 37.9351 6.68208C41.6839 9.03658 46.0772 7.60284 47.7214 3.4989C49.3656 -0.605033 53.0223 -1.18379 55.8504 2.20985Z" fill="#39BF63"/>
</svg>
