<svg width="1928" height="112" viewBox="0 0 1928 112" fill="none" xmlns="http://www.w3.org/2000/svg">
<path fill-rule="evenodd" clip-rule="evenodd" d="M10.1994 79.1169C21.8762 46.2054 92.2533 31.2048 152.936 28.7261C226.778 25.7149 301.902 32.6645 369.897 48.8035C402.729 56.5976 434.195 66.5307 468.842 71.3871C496.959 75.3254 526.659 75.7569 555.127 72.6448C610.962 66.549 658.818 47.5458 710.489 34.372C815.014 7.7215 939.211 5.53659 1046.6 28.4507C1102.95 40.4769 1157.22 59.3517 1217.65 59.2415C1276.05 59.1313 1328.64 41.294 1381.78 27.9366C1473.78 4.79298 1577.62 -5.9021 1677.38 3.27823C1777.14 12.4586 1871.99 42.6251 1928.01 89.0317C1367.22 115.93 803.321 113.093 240.437 110.238C183.885 109.954 127.334 109.669 70.7821 109.375C48.8777 109.265 24.5913 108.632 9.0001 100.149C-6.59114 91.6664 -1.39406 72.8284 20.477 72.2133" fill="#E1F9E9"/>
</svg>
