<svg width="1920" height="124" viewBox="0 0 1920 124" fill="none" xmlns="http://www.w3.org/2000/svg">
<g clip-path="url(#clip0_751_3715)">
<path d="M-63 0C-14.2703 80.0825 98.7696 104.165 190.808 80.1379C231.086 69.6244 269.867 51.8468 311.364 48.5594C409.679 40.7756 501.018 115.142 599.208 105.935C682.757 98.0991 751.636 31.2494 835.053 22.1112C968.983 7.43737 1087.67 144.313 1220.44 121.409C1321.24 104.023 1386.94 58.0648 1488.93 50.2291C1603.04 41.4615 1701.06 99.2007 1815.5 98.8751C1881.01 98.688 1942.27 57.2819 1976.25 1.26785C1976.5 0.848698 1976.75 0.426081 1977 0L-63 0Z" fill="#E1F9E9"/>
</g>
<defs>
<clipPath id="clip0_751_3715">
<rect width="2040" height="124" fill="white" transform="translate(-63)"/>
</clipPath>
</defs>
</svg>
