<svg width="83" height="136" viewBox="0 0 83 136" fill="none" xmlns="http://www.w3.org/2000/svg">
<g clip-path="url(#clip0_499_314)">
<path fill-rule="evenodd" clip-rule="evenodd" d="M55.4363 3.45797C55.4363 4.83693 55.7426 5.03216 55.8013 5.74488C55.0866 5.93701 52.5806 8.50901 51.7607 9.37977C51.5503 9.60288 51.3863 9.75782 51.1667 9.97474L49.5671 11.6667C49.3011 11.9301 49.2485 12.0261 49.0164 12.3019C48.6575 12.7296 48.3327 12.9713 47.9614 13.4392C47.785 13.6592 47.6211 13.7925 47.42 13.9939L46.3526 15.2117C46.1515 15.4534 46.0091 15.5681 45.8328 15.7881L44.2704 17.6071C44.0507 17.8426 43.9672 17.9758 43.7661 18.1989C43.5588 18.4314 43.466 18.5429 43.2587 18.7877C43.0669 19.0139 42.906 19.2277 42.7172 19.4323C42.3491 19.8289 38.8561 23.8914 38.723 24.3934H38.5405C38.5405 23.1508 37.5566 20.8608 36.7801 19.9405C36.217 19.2711 35.8209 18.9953 34.9825 18.6297C32.2227 17.4242 29.1938 18.2268 27.3468 20.5912C25.2708 23.25 25.3017 24.5205 25.3017 27.9571C25.3017 30.8792 26.762 33.2467 26.762 33.9006L26.6723 35.0874C24.7788 35.0874 22.6348 34.9634 21.3972 36.2959C20.3545 37.4208 20.6918 39.184 21.357 40.408L21.8736 41.3532C22.4058 42.2363 22.938 42.8716 23.4763 43.6772C22.9225 44.7277 22.4398 45.7565 21.8644 46.8194C21.1775 48.0899 20.3422 49.252 19.5687 50.4605C17.403 53.8444 15.5838 57.126 14.736 61.1607C14.5906 61.8579 14.473 62.4002 14.3245 63.1253C14.0956 64.2502 13.879 66.2768 13.9564 67.0329C14.0708 68.2011 14.0461 69.1989 14.1915 70.3455C14.2317 70.6647 14.3493 71.0613 14.3493 71.4673C13.5851 70.5872 13.5047 69.1184 13.2015 68.0462C12.725 66.3542 11.6823 64.5972 9.69606 64.8854C7.53962 65.1984 7.38802 67.0236 7.12504 68.0741C7.0415 68.5916 7.04459 68.7744 7.03841 69.0967C6.83112 69.0936 6.44128 68.9603 6.20924 68.9201C5.45124 68.7961 4.49213 68.6257 2.81524 69.3353C1.45083 69.9117 0.507187 71.0365 0.139013 72.5054C-0.473579 74.9317 0.952708 76.9955 2.84617 78.3218C6.30825 80.7544 7.53034 80.0757 7.96039 80.6056C7.96658 80.6118 8.20171 81.027 8.22646 81.0704C9.54756 83.3171 11.1842 85.48 13.0034 87.3486C13.9656 88.3371 14.8598 89.4775 15.8313 90.4598C16.085 90.717 16.3294 90.9246 16.5614 91.1911L18.0001 92.7684C17.8763 93.2983 16.9203 94.764 16.6016 95.3001L15.098 97.8163C14.9681 98.0332 14.8319 98.244 14.7175 98.4423L13.6501 100.388C13.4118 100.859 13.1767 101.197 12.9168 101.665C11.7442 103.772 10.2963 105.759 8.96281 107.76L6.992 110.816C5.44196 113.4 4.9624 113.626 10.4231 115.077C13.1519 115.802 16.054 116.229 18.8633 116.682C19.2748 116.747 19.4759 116.815 19.9183 116.815C19.8348 117.81 19.5254 118.857 19.2779 119.833C19.0304 120.822 18.7983 121.801 18.5106 122.811C18.2259 123.806 17.9258 124.692 17.6721 125.718C17.3627 126.97 17.0874 128.259 17.0874 129.613C17.0874 130.967 17.4927 132.529 18.0156 133.344C18.4054 133.951 18.5446 134.094 19.1201 134.525C21.7623 136.499 24.4694 136.375 26.9384 134.267C26.9538 134.255 26.9724 134.236 26.9879 134.224L27.288 133.976C27.5045 133.781 27.6005 133.601 27.7923 133.384C30.0849 130.812 31.7308 126.167 32.5167 122.941C32.6714 122.312 32.7301 121.566 32.8786 120.927C33.8842 120.949 36.9038 121.751 40.2731 121.751L44.0105 121.652C44.5303 121.612 45.0253 121.423 45.477 121.386C45.477 122.78 46.5908 129.731 47.0178 130.998C47.2591 131.72 47.5004 132.281 47.915 132.842C48.3358 133.412 48.6977 133.896 49.2577 134.333C49.5486 134.559 49.7404 134.708 50.0745 134.887C52.3795 136.13 53.6356 136.499 56.0984 135.132C57.7381 134.221 58.4992 132.696 59.0221 130.93C59.9069 127.955 59.2634 121.968 59.2634 118.922V117.367C59.9255 117.351 63.8331 116.676 64.6654 116.561C65.4852 116.446 69.2134 115.889 69.2134 114.9L68.7215 112.467C68.5327 111.6 68.4368 110.881 68.2636 110.001C67.7933 107.624 67.1281 105.219 66.6516 102.839C66.5681 102.43 66.4815 102.04 66.3856 101.643C66.1566 100.711 65.1078 96.301 65.1078 95.517C65.5966 95.3869 67.3601 93.9707 67.8088 93.6516L73.5294 89.1428C74.1079 88.5912 74.8938 88.1295 75.3331 87.4756L76.7934 87.5686C82.9379 87.5686 84.259 81.8265 81.8798 78.6348C80.8464 77.2465 80.0018 77.3302 77.7061 77.3302C78.3589 74.5196 75.5311 72.4 72.3877 75.2044C72.2207 75.3532 72.1217 75.3965 71.9855 75.5329C71.8339 75.6847 71.7875 75.7963 71.6112 75.9822C71.3822 76.2239 71.1409 76.5121 70.9336 76.7662C70.6892 77.0699 70.5592 77.3891 70.2901 77.6742C69.8198 78.17 69.1391 78.5945 68.576 78.9725L69.9466 76.2332C70.8408 74.1911 71.5833 72.2544 71.902 69.9613C72.4063 66.314 72.1217 62.772 72.1371 59.131L71.8215 53.048C71.7442 52.5367 71.6854 51.5885 71.6792 51.0896C71.673 50.6124 71.6081 50.5845 71.5864 50.1754C71.5678 49.8222 71.5957 49.4317 71.5864 49.0723C71.5586 47.5074 71.8587 48.2263 71.8587 47.34C71.8587 46.4538 71.41 46.6335 71.3049 45.1523C71.2461 44.3528 71.1378 43.4417 71.1316 42.5834C71.1223 40.9131 70.4881 41.0836 72.0598 40.3182C72.8271 39.9432 73.4335 39.3854 74.0894 38.8741C75.924 37.4487 77.5205 34.7868 77.5205 32.4348C77.5205 29.6428 74.9618 25.3045 71.8587 25.3045C69.5351 25.3045 68.1553 25.4656 66.1968 26.7671C65.8998 26.9623 65.6585 27.1018 65.3739 27.3156C65.0614 27.5511 64.8665 27.6844 64.5756 27.9787C64.3127 28.2452 64.0992 28.4219 63.8609 28.7256C63.6258 29.0261 63.5206 29.3825 63.0937 29.4197C63.0194 29.2121 63.0442 29.2833 62.8956 29.1594C62.7781 29.0633 62.6698 29.0292 62.546 28.9611C62.546 28.0872 62.3357 27.1297 62.2181 26.2713C61.8406 23.532 61.5962 20.7555 61.3549 17.9913L60.337 8.31378C60.2844 7.88305 60.1111 7.43372 60.0771 7.01849C61.1228 6.77368 62.4501 5.41951 62.4501 4.27605C62.4501 3.05822 62.249 1.92716 61.3796 1.0502C59.1675 -1.17473 55.4208 0.349875 55.4208 3.45177L55.4363 3.45797Z" fill="#864322"/>
<path fill-rule="evenodd" clip-rule="evenodd" d="M37.2257 54.5482C36.7586 54.7063 36.4554 54.9511 35.9944 55.1122C34.7228 55.5522 33.247 55.9179 31.9228 56.1565C28.3834 56.798 22.8855 56.9746 20.1784 58.0127C18.848 58.5209 18.059 59.0539 17.103 60.0548C16.9514 60.2128 16.8339 60.3151 16.6884 60.4576L16.3327 60.8884C16.3234 60.8729 16.2986 60.9349 16.2801 60.9565C15.9552 61.6538 15.4571 64.8084 15.4045 65.7101C15.2034 69.1777 15.717 72.4066 17.3227 75.3536C17.6785 76.0074 18.0529 76.5869 18.4303 77.1695C19.1698 78.3191 18.8758 77.8822 19.705 78.8211C21.5706 80.9314 23.6528 82.5056 26.2548 83.8722C29.5034 85.5765 35.4963 87.225 39.4379 88.0369C40.6228 88.2817 43.7167 88.071 45.1214 88.0493C52.7881 87.9316 56.8937 87.0701 62.9948 82.6977C64.1488 81.8703 65.3245 81.0615 66.0949 80.042C66.5466 79.444 68.1121 77.2376 68.304 76.4288C68.2111 74.1667 66.6827 70.7332 65.671 69.2768C63.2733 65.8279 61.1663 64.545 57.8002 62.5307C56.1202 61.5267 55.6747 61.4678 54.6165 60.8729C52.7138 59.8007 51.8537 59.5001 50.0438 58.1397C49.5735 57.7865 49.0816 57.3495 48.7969 56.9374C48.2029 56.4168 47.6646 56.4571 47.1788 54.979C46.6776 53.4482 47.2747 52.2954 47.2005 51.5734L47.8502 46.8725C47.6553 46.4542 46.393 45.2302 45.8577 44.4307C45.4277 44.5081 42.3709 46.3519 41.8821 46.7083C41.9285 48.7473 42.6524 52.9926 40.0257 54.3158C38.8346 54.917 38.4293 54.604 37.2288 54.5575L37.2257 54.5482Z" fill="#FBDAD1"/>
<path fill-rule="evenodd" clip-rule="evenodd" d="M7.8833 78.9977C8.98163 79.2549 8.47114 79.1929 9.01876 79.9181C9.34671 80.3519 9.61588 80.6618 9.9624 81.17C12.3787 84.715 13.1646 85.4463 15.7727 88.2445C16.4132 88.9325 17.1464 89.8869 17.8147 90.4974C18.6439 91.2597 19.1946 91.9104 19.9619 92.6448C21.0726 93.7077 21.3758 93.4908 21.0386 95.5329C20.8344 96.7662 20.6209 97.9717 20.4291 99.2143C19.5411 104.894 19.7484 109.146 21.3015 114.525C21.4995 115.207 21.7316 115.56 21.4903 116.273C21.2984 116.837 21.2489 117.497 21.1283 118.114C20.4755 121.405 18.8264 126.171 18.5542 128.547C19.2905 128.693 21.3015 130.487 24.6182 131.405C25.3267 131.6 26.4467 131.745 26.9912 132.086L27.4275 131.547C27.5698 131.34 27.6719 131.172 27.8173 130.934C29.3735 128.352 31.4279 123.301 31.4464 120.475C30.5585 119.967 29.4323 120.125 29.5189 119.285C30.8184 118.665 38.6923 121.113 44.2026 120.193C45.4958 119.976 46.5787 119.338 46.8107 120.875C47.0954 122.759 47.906 130.41 48.7042 131.253C48.7877 130.937 49.3508 131.042 49.9665 131.03C52.2158 130.992 54.9477 130.19 56.8226 128.988C57.7136 128.417 57.6208 128.898 57.8095 128.402L57.9178 128.64C58.4995 127.212 57.5744 118.476 57.859 115.808C57.9178 115.26 58.2551 114.671 58.4252 114.135C58.6201 113.521 58.7655 112.973 58.9141 112.347C60.164 107.144 60.7797 102.198 60.7797 96.5462C61.1014 96.1682 63.8272 94.6745 64.4893 94.2469C65.7113 93.4567 66.8654 92.5983 68.007 91.7369C68.3195 91.5014 74.4547 86.6518 74.6898 86.2365C74.2103 85.8802 73.1336 83.4817 72.7654 82.738C72.4313 82.0593 71.0421 79.5431 71.0762 78.9791C70.8039 79.0938 70.5316 79.3696 70.213 79.5958L67.4594 81.5016C66.887 81.8827 66.1321 82.3723 65.634 82.7814C64.5016 83.7079 65.3803 83.1594 63.855 84.1076C62.5834 84.8947 61.2685 85.6942 59.9258 86.3915C59.2234 86.7571 57.4445 87.7642 56.7205 87.8479C56.309 87.8944 55.8233 88.0214 55.5077 88.2043L55.8109 88.291C56.5008 90.4478 55.7985 97.1009 55.5634 99.6946C55.2045 103.661 54.8085 106.301 53.543 109.809C52.3736 113.05 51.0896 114.817 47.9122 116.326C44.8678 117.773 41.2541 117.841 37.5476 118.008C34.364 118.151 30.2181 116.623 28.2442 115.167C27.0036 114.25 26.2858 113.363 25.4969 111.789C23.1579 107.119 23.424 100.987 24.3954 95.9729C24.677 94.5134 25.6577 90.1131 26.0971 88.6288C26.5828 86.9926 26.456 87.6155 26.9819 86.4379C26.8489 86.252 26.3693 85.5672 26.2363 85.4525C26.094 85.3317 25.3422 84.966 25.107 84.8421C23.1238 83.7947 20.3641 81.7557 19.1049 80.1567C18.6098 79.5276 18.1179 78.7963 17.626 78.1641C17.3537 77.814 17.131 77.4979 16.8711 77.1849L14.3929 74.2721C14.1299 73.9436 13.8824 73.6616 13.6318 73.2959C13.409 72.9737 13.2574 72.4035 12.9449 72.1277C12.7036 72.5057 10.8132 74.1264 10.0645 75.2234C9.62826 75.8586 8.11534 78.3067 7.88639 78.9977H7.8833Z" fill="#C7C8C2"/>
<path fill-rule="evenodd" clip-rule="evenodd" d="M55.5046 88.198C54.496 88.2848 47.773 93.1592 45.8795 93.3575C45.6815 94.3801 45.765 95.6166 45.5701 96.6918C45.468 97.2465 45.0318 97.6401 44.5151 97.2248C44.1593 96.9397 44.6605 97.0823 43.4044 96.4408C43.7726 97.2434 44.2181 97.9004 44.2614 99.0004C44.3759 102.037 41.4088 102.127 39.8062 99.1957C39.6267 98.8703 39.3699 98.1979 39.206 98.0119C35.549 103.444 33.1698 99.9146 34.067 97.702C34.8528 95.7622 35.2086 96.1402 35.7006 95.4585C33.7916 95.3036 33.1976 96.3851 32.6562 95.7498C32.2571 95.2819 32.5231 92.9764 32.5757 92.2265L31.1556 90.7576C30.6792 90.2401 30.2213 89.8559 29.7263 89.357L26.9789 86.4348C26.4529 87.6124 26.5798 86.9895 26.094 88.6257C25.6547 90.11 24.677 94.5103 24.3924 95.9698C23.4209 100.984 23.1548 107.116 25.4938 111.786C26.2827 113.36 27.0005 114.247 28.2412 115.164C30.2151 116.62 34.3578 118.148 37.5445 118.005C41.251 117.838 44.8616 117.77 47.9091 116.323C51.0865 114.814 52.3736 113.047 53.54 109.806C54.8023 106.298 55.2014 103.658 55.5603 99.6915C55.7954 97.1009 56.4978 90.4478 55.8078 88.2879L55.5046 88.2011V88.198Z" fill="#FBDAD1"/>
<path fill-rule="evenodd" clip-rule="evenodd" d="M34.8404 30.7835C33.4575 31.1212 32.3529 32.5901 31.4217 33.6251C30.9359 34.1643 30.5059 34.7127 30.0078 35.3201C29.7788 35.599 29.587 35.8469 29.3333 36.1971C29.0084 36.6464 28.9466 36.6774 28.2937 36.5689C27.1521 36.3799 23.4549 36.4605 22.6412 37.0864C20.9829 38.36 23.953 41.9391 24.8781 43.0981C25.3979 43.7519 25.8001 44.2694 25.5556 45.4904C25.2617 46.953 24.7048 49.5281 24.9709 51.0651C25.1473 52.0691 25.4381 52.6517 26.6416 52.4224C27.675 52.2271 29.9614 51.031 30.8741 50.4484C33.2811 48.9114 32.2818 49.5932 34.5249 51.4493C36.1677 52.8097 39.339 54.6783 40.3909 51.6601C40.9199 50.1448 40.2114 46.8104 40.6229 46.0419C40.9478 45.4377 43.5869 44.0215 44.3727 43.5753C46.0434 42.6271 46.294 42.7944 47.3955 44.1393C48.0792 44.976 48.8218 45.7352 49.5117 46.6834C50.0253 47.393 50.0779 47.8578 49.6262 49.0106C49.1157 50.3214 48.1968 52.3852 48.3917 54.0089C48.6763 56.3981 50.6379 55.7598 52.1539 54.9324C52.8686 54.5419 53.4317 54.2166 54.1123 53.7827C56.2966 52.4007 56.0862 52.7229 56.9896 53.8199L59.2173 56.2494C59.6535 56.6677 60.3527 57.272 61.0519 57.523C62.2864 57.9661 62.4751 57.3556 62.7783 56.426C63.4404 54.4149 63.36 51.9359 64.0901 51.5237C65.139 50.9318 66.5931 50.4732 68.2514 49.4754C69.1765 48.9207 71.6269 47.297 69.6282 46.1907C68.4494 45.5399 66.5653 44.8303 65.1328 44.4801C63.8736 44.1703 64.0499 43.9131 63.7498 42.7541C63.2548 40.8484 62.1998 37.2816 61.086 36.0018C59.7989 34.5206 59.3286 35.2736 57.5775 37.0492L55.9779 38.5552C55.5077 39.0882 54.9477 39.6336 54.5052 40.1914C53.8988 40.9599 53.6885 41.1799 52.324 41.1396C51.4485 41.1118 50.5729 40.7988 49.7468 40.5943C47.6028 40.0582 44.3387 39.2959 42.1235 38.9023C39.4565 38.4282 39.1286 38.9271 38.2716 36.5472C37.7642 35.1404 37.1423 33.4453 36.4338 32.1717C36.0656 31.5117 35.88 30.5294 34.8404 30.7804V30.7835Z" fill="#8EBBE5"/>
<path fill-rule="evenodd" clip-rule="evenodd" d="M26.5858 70.3643C27.118 71.5108 26.4342 71.8889 29.1909 76.2706C32.8448 82.087 39.376 85.5577 46.6343 83.0383C49.5611 82.0219 53.5615 79.2981 55.455 76.974C55.786 76.5681 56.1944 76.2148 56.4791 75.8058C57.0793 74.9381 56.5812 75.2325 57.7909 75.0187C59.5358 74.7057 60.7981 73.9186 61.8532 72.5954C62.1842 72.1802 62.4379 71.8207 62.7504 71.39C62.9979 71.0429 63.5455 70.293 63.035 69.8065C62.407 69.2115 61.9398 70.0699 61.782 70.3302C61.5283 70.7578 61.1447 71.2443 60.8662 71.6069C59.474 73.4011 57.7507 74.0239 54.598 73.7017C49.2455 73.1532 42.9928 69.8963 33.1789 69.3448C30.4346 69.1898 27.9843 69.3448 25.3792 68.6599C23.1083 68.0619 21.453 67.1384 20.4042 65.0498C20.2774 64.7988 19.9494 63.6058 19.8287 63.5221C19.3801 63.2122 19.0862 63.9653 19.244 64.8515C19.6741 67.2531 21.1932 68.5081 23.2723 69.4036C24.9461 70.1226 25.3266 69.9738 26.5889 70.3643H26.5858Z" fill="#864322"/>
<path fill-rule="evenodd" clip-rule="evenodd" d="M49.3168 14.0686C51.2598 13.9416 52.4014 16.182 51.0092 17.5796C50.542 18.0475 49.4467 18.534 48.5681 18.1931C47.9493 17.9545 47.3862 17.1829 47.3119 16.3246C46.8819 16.6375 46.5044 17.2356 46.127 17.626C45.8888 17.874 45.8083 18.0165 45.5732 18.2644C45.3319 18.5216 45.2019 18.6672 44.9884 19.0019C45.8919 19.6217 45.9661 21.5026 45.2298 22.3083C44.4284 23.1884 43.0145 23.3805 41.9255 22.6492C41.5295 22.9808 39.6762 25.2925 39.4565 25.7635L39.8062 26.439C40.4404 26.0548 41.4892 24.2451 44.0262 26.2066C44.119 25.3761 45.0998 24.524 46.1239 24.5643C47.2006 24.6045 47.9555 25.3668 48.0174 26.4235C48.2711 26.6311 48.5371 26.7241 48.828 26.9875C49.1343 27.2633 49.224 27.4492 49.5024 27.8056C50.8607 27.1053 51.1855 26.6993 53.1656 27.443C53.5214 26.9069 54.5919 26.6157 55.3932 26.8109C56.1265 26.9875 56.7978 27.6011 56.9061 28.3448C58.5675 28.6113 58.6573 29.1567 59.273 29.8477C59.5174 29.6525 59.6628 29.4697 60.0248 29.2558C60.4239 29.0203 60.7271 29.0761 61.0736 28.8344C61.154 28.4501 60.8725 26.3987 60.7395 26.03C59.9072 26.2996 59.3751 26.4266 58.5892 25.9928C58.0787 25.7108 57.5558 25.1406 57.3981 24.4403C57.0113 22.6957 58.7099 21.8435 60.3187 21.9241L59.9134 17.8244C59.5854 18.3884 59.3379 19.7549 57.7941 19.8882C55.4706 20.0865 54.1557 16.8111 56.7917 15.5932C58.5242 14.7937 59.242 15.8256 59.7432 16.275C59.7278 14.8991 59.471 13.0367 59.3256 11.664C59.1678 10.1487 58.9976 8.63954 58.8027 7.14282C57.7941 7.04366 57.692 6.80505 56.9928 6.58813C55.2014 7.84315 52.6427 10.3501 51.1484 12.0482C50.8112 12.4325 50.6503 12.6463 50.2264 13.046C49.8737 13.3807 49.6602 13.7247 49.3199 14.0686H49.3168Z" fill="#E64F0A"/>
<path fill-rule="evenodd" clip-rule="evenodd" d="M55.749 54.5079C55.254 54.7124 54.9137 54.9231 54.6662 55.1091C53.8741 55.4716 53.045 56.0914 52.0951 56.519C50.9102 57.052 50.2048 57.2813 48.7939 56.9281C49.0786 57.3402 49.5705 57.7802 50.0408 58.1304C51.8507 59.4908 52.7077 59.7944 54.6136 60.8635C55.6717 61.4585 56.1172 61.5174 57.7972 62.5214C61.1633 64.5356 63.2703 65.8185 65.6681 69.2675C66.6829 70.727 68.2082 74.1574 68.301 76.4195C69.2291 75.4805 70.0057 72.3322 70.2996 70.9811C71.4289 65.7844 70.476 55.3415 70.1882 49.9031C69.8974 49.9651 69.3405 50.4454 68.9878 50.6592C67.7626 51.406 66.2961 51.9979 64.9719 52.6672C64.7275 54.0772 64.5666 55.3818 64.1551 56.6956C63.7375 58.0343 63.2919 59.0848 61.646 59.0321C59.7309 58.9702 57.8034 57.0024 56.6772 55.5987C56.4142 55.2733 56.0986 54.793 55.7521 54.5017L55.749 54.5079Z" fill="#C7C8C2"/>
<path fill-rule="evenodd" clip-rule="evenodd" d="M59.2822 37.353C58.5706 37.6505 56.3956 40.0706 55.7675 40.8112C55.5169 41.1056 55.3498 41.2637 55.0652 41.5705C54.663 42.0074 54.3103 42.7542 53.3388 42.7139C51.9806 42.6581 50.1149 41.6913 48.7691 41.6572C47.7048 41.6293 47.7852 42.7418 48.2462 43.3832C49.0383 44.4864 49.9912 45.5462 50.678 46.5254C51.1823 47.2413 51.3061 47.7433 50.9905 48.7318C50.6192 49.8907 49.6416 51.7655 49.5488 52.9461C49.3724 55.2269 52.095 53.4729 52.8623 53.0794C53.5399 52.7323 54.0473 52.4286 54.632 52.0165C56.5255 50.6809 55.8417 51.124 58.354 53.7394C58.5891 53.9842 58.8521 54.1981 59.0718 54.4831C59.4616 54.9913 61.7078 57.5912 62.0295 55.2547C62.144 54.4305 62.1131 53.538 62.2214 52.6827C62.3668 51.5393 62.2276 51.1116 63.0072 50.6251C64.7615 49.5344 71.5185 47.9664 66.9674 46.3891C65.8227 45.9924 63.3197 45.413 62.8618 44.8366C62.4039 44.2633 61.847 41.5395 61.5469 40.585C61.2066 39.5005 60.4919 36.8448 59.2791 37.353H59.2822Z" fill="#5A8CC6"/>
<path fill-rule="evenodd" clip-rule="evenodd" d="M28.6867 38.6264C27.5575 38.6264 25.4196 38.3258 24.575 38.8371C24.6306 39.8535 27.0934 42.7106 27.6596 43.4326C28.5661 44.5854 26.7685 47.2442 27.245 50.0548C28.6496 49.9525 31.9725 46.7236 33.2905 47.6656C33.4606 47.7865 33.6927 48.0591 33.8505 48.2017L35.583 49.7573C35.9419 50.0827 37.6993 51.5639 38.4696 51.1889C39.3607 49.9122 37.9097 45.2981 38.9244 44.4274C39.3081 44.0958 42.2999 42.5216 43.1786 42.0134L43.7819 41.5827C43.6426 41.3843 43.8128 41.5021 43.5189 41.3565C43.4354 41.3162 43.1878 41.2573 43.0857 41.2356C42.074 41.0311 41.545 41.028 40.3291 40.7088C36.6009 39.7389 37.4177 40.4051 36.0843 36.3643C35.8584 35.6764 35.1994 33.7179 34.8653 33.2996C33.9495 33.2934 32.3932 35.258 31.8456 35.9676C31.5424 36.3612 30.1997 38.081 29.8067 38.3196C29.584 38.4529 28.9497 38.6295 28.6836 38.6295L28.6867 38.6264Z" fill="#FFEB7C"/>
<path fill-rule="evenodd" clip-rule="evenodd" d="M28.6867 39.0387C28.4144 39.0387 28.0586 39.0201 27.6719 38.9984C26.7561 38.9488 25.6701 38.8899 25.0483 39.079C25.3731 39.9745 26.8675 41.8059 27.6286 42.7418C27.7709 42.9153 27.8885 43.0609 27.9813 43.1787C28.5598 43.9162 28.3092 44.9636 28.006 46.2434C27.7709 47.235 27.4955 48.3816 27.5946 49.5467C28.0648 49.3701 28.7022 48.9703 29.3704 48.5551C30.871 47.6224 32.5138 46.6029 33.5286 47.3311C33.6648 47.4271 33.804 47.5759 33.937 47.7091C34.0051 47.7773 34.067 47.8455 34.1258 47.8951L35.8584 49.4506C36.0749 49.649 36.8236 50.2842 37.5229 50.6313C37.792 50.7645 38.0365 50.8544 38.1973 50.842C38.4665 50.2718 38.3582 49.0137 38.2499 47.7804C38.1138 46.2217 37.9808 44.6971 38.6583 44.1145C38.9492 43.8635 40.4342 43.0516 41.6408 42.3947C42.1916 42.0941 42.6835 41.8245 42.9527 41.6696L42.9991 41.6355C42.6216 41.558 42.3153 41.5115 42.0121 41.465C41.4985 41.3845 40.9973 41.307 40.2269 41.1087C39.8154 41.0002 39.4566 40.9135 39.1441 40.836C38.0024 40.5571 37.4517 40.4208 37.0371 39.9962C36.6566 39.6058 36.4926 39.0666 36.1739 38.0192C36.0533 37.6256 35.9109 37.1515 35.6913 36.4915C35.5768 36.1413 35.351 35.4658 35.1282 34.8739C34.9611 34.4308 34.7941 34.0062 34.661 33.7521C34.3454 33.873 33.9216 34.2387 33.5101 34.6539C32.9532 35.2179 32.4396 35.8717 32.1704 36.2188C31.9755 36.4698 31.3629 37.2569 30.84 37.8642C30.5121 38.2423 30.2058 38.5584 30.0202 38.673C29.8778 38.7598 29.6241 38.8528 29.3704 38.9209C29.1167 38.9891 28.8538 39.0418 28.6867 39.0418V39.0387ZM27.7121 38.1772C28.0679 38.1958 28.3959 38.2144 28.6867 38.2144C28.7857 38.2144 28.9713 38.1772 29.1539 38.1276C29.3395 38.075 29.5159 38.013 29.5963 37.9665C29.6984 37.9045 29.9397 37.6473 30.2182 37.3251C30.7318 36.7332 31.332 35.9616 31.5207 35.7168C31.7992 35.3542 32.3375 34.6725 32.9253 34.0775C33.5627 33.4299 34.2774 32.8845 34.8683 32.8907H35.0663L35.187 33.0456C35.3819 33.2935 35.6511 33.9288 35.8986 34.5888C36.1461 35.252 36.3658 35.9027 36.474 36.2374C36.6628 36.8045 36.8236 37.3405 36.9598 37.7837C37.2382 38.7009 37.3805 39.175 37.6219 39.4198C37.8725 39.677 38.352 39.7948 39.3359 40.0365C39.6484 40.114 40.0104 40.2007 40.4311 40.3123C41.1644 40.5044 41.6439 40.5788 42.1359 40.6532C42.4515 40.7027 42.7732 40.7523 43.1661 40.8329C43.2249 40.8422 43.3456 40.8701 43.4662 40.9042C43.5591 40.929 43.6457 40.9599 43.7014 40.9878C43.7725 41.025 43.8097 41.0405 43.8313 41.0498C43.8932 41.0777 43.921 41.0901 43.9706 41.1304C44.0634 41.2078 44.0757 41.245 44.1036 41.3225L44.1191 41.3504L44.348 41.682L44.017 41.9175L43.4137 42.3482L43.4013 42.3575L43.3796 42.3699C43.0795 42.5434 42.5845 42.813 42.0276 43.1167C40.8581 43.7551 39.4163 44.5422 39.1874 44.7405C38.8316 45.0473 38.9461 46.3642 39.0667 47.7122C39.1967 49.178 39.3266 50.6778 38.8037 51.4277L38.7419 51.5144L38.646 51.5609C38.2283 51.7654 37.6899 51.6384 37.1547 51.375C36.3688 50.9846 35.5428 50.2842 35.3045 50.0673L33.572 48.5117C33.507 48.4528 33.4265 48.3723 33.3461 48.2855C33.2378 48.1739 33.1233 48.0562 33.0491 48.0035C32.4767 47.5945 31.0783 48.4621 29.7974 49.2585C28.8321 49.8566 27.9287 50.4206 27.2697 50.4671L26.8984 50.4949L26.8365 50.1262C26.5859 48.6512 26.9201 47.2505 27.2047 46.0575C27.4584 44.9946 27.6657 44.1176 27.3316 43.6931C27.2635 43.6032 27.1397 43.4545 26.9881 43.2685C26.0847 42.1592 24.216 39.8692 24.1603 38.8652L24.1479 38.6173L24.3583 38.4902C25.1009 38.0409 26.5364 38.1183 27.709 38.1834L27.7121 38.1772Z" fill="#5A8CC6"/>
<path fill-rule="evenodd" clip-rule="evenodd" d="M61.5251 34.3532C61.8964 34.9326 62.2522 35.1031 62.8679 36.1474C64.0003 38.0779 64.5046 40.5446 65.1605 42.7106C65.3585 43.3614 65.8504 43.1661 67.5613 43.7921C68.2389 44.04 69.2073 44.5203 69.8044 44.6814C69.8539 42.345 69.0588 41.1953 70.5841 39.838C71.7814 38.772 72.1898 38.7689 73.7801 37.1855C76.0324 34.9419 77.0194 32.4195 74.897 28.9489C72.954 25.7757 69.5569 26.3862 66.8436 28.044C66.231 28.419 65.6277 28.89 65.2255 29.3486C64.9563 29.6585 64.0683 30.5881 64.0621 31.0281C64.0498 32.0569 64.124 32.5621 63.5207 33.3089C63.1247 33.8047 62.4502 34.2385 61.5251 34.3501V34.3532Z" fill="#C7C8C2"/>
<path fill-rule="evenodd" clip-rule="evenodd" d="M48.6423 42.3637C48.6052 42.9772 49.0074 43.2375 49.2951 43.6125C49.9943 44.5235 51.5567 46.3239 51.8104 47.2195C52.2838 48.9114 49.9386 52.0443 50.1676 53.5255C51.1545 53.4388 53.8029 51.7127 54.793 51.0775C55.9346 50.3462 56.3523 50.1757 57.6579 51.8739C57.9487 52.2519 58.419 52.8345 58.7717 53.1351C59.4121 53.6805 60.4022 55.2175 61.287 55.4995C61.4479 54.4521 61.451 53.3024 61.5841 52.2116C61.7078 51.2138 61.5902 51.3873 62.0358 50.8296C62.3637 50.4205 62.4318 50.1788 62.9144 49.8844C63.7281 49.3855 67.4408 48.1708 67.7626 47.5139C67.3325 47.1389 65.3091 46.5563 64.548 46.3363C63.0877 45.9149 62.472 45.8591 61.9522 44.5607C61.2871 42.8966 60.7425 38.924 59.6349 38.0129C58.9233 38.109 56.0738 41.5177 55.257 42.4008C54.2887 43.4482 53.939 43.6125 52.1013 43.1817C51.2443 42.9803 49.4189 42.342 48.6423 42.3606V42.3637Z" fill="#FFEB7C"/>
<path fill-rule="evenodd" clip-rule="evenodd" d="M7.61719 112.691C10.575 113.757 16.9298 115.198 20.0732 115.399C19.934 114.628 19.6339 113.85 19.4421 113.091C18.2819 108.446 18.2942 103.59 19.0708 98.8827C19.1574 98.3559 19.9154 94.6869 19.6958 94.3677C19.6091 94.2376 18.8914 93.5775 18.6995 93.4722C18.2602 94.9069 16.9608 97.2744 16.2399 98.5945C14.1577 102.4 12.9356 104.464 10.5162 108.037C9.96855 108.845 7.8121 111.938 7.61719 112.691Z" fill="#E64F0A"/>
<path fill-rule="evenodd" clip-rule="evenodd" d="M34.6206 80.0822C35.128 79.1805 34.8403 79.3076 35.7685 78.1982C37.1329 76.5682 39.8277 75.4557 42.2904 75.4743C46.3249 75.5053 48.9485 77.0919 51.1637 78.9357C52.0083 78.539 54.8888 75.7997 55.1579 75.1459C52.6024 74.9475 50.8512 74.4177 48.5772 73.7731C41.5479 71.7806 35.4096 70.5627 27.7708 70.5225C28.1482 71.8921 29.7911 74.6656 30.5893 75.8772C31.3442 77.0237 33.4233 79.5988 34.6175 80.0853L34.6206 80.0822Z" fill="#CC7F74"/>
<path fill-rule="evenodd" clip-rule="evenodd" d="M28.1327 35.1805C28.5473 35.1403 28.4792 35.007 28.9835 34.381L31.2668 31.7316C32.2105 30.6749 33.185 29.4106 35.4312 29.3486C35.0228 28.3942 34.1503 26.5845 35.8705 25.3697C36.3841 25.0072 36.6719 25.0785 37.204 24.8461C37.1298 23.8978 36.6038 22.46 36.2171 21.6884C34.8124 18.884 30.7316 18.6144 28.2719 21.6946C26.824 23.5074 26.5363 25.3574 26.725 28.2547C26.8054 29.5221 26.9663 30.678 27.2571 31.8524C27.6439 33.408 28.2719 33.0424 28.1296 35.1774L28.1327 35.1805Z" fill="#C7C8C2"/>
<path fill-rule="evenodd" clip-rule="evenodd" d="M59.1956 115.907C60.2537 115.929 62.3328 115.452 63.5115 115.281C65.0399 115.061 66.2001 114.745 67.6017 114.451C67.5398 112.858 64.3036 98.898 63.8395 96.4314L62.4318 97.2185C62.1255 97.4106 62.1688 97.3115 62.1379 97.7081C62.0636 98.6346 62.0822 99.6913 62.0327 100.63C61.7882 105.303 61.2066 109.208 59.9938 113.698C59.7679 114.538 59.2079 115.845 59.1956 115.907Z" fill="#E64F0A"/>
<path fill-rule="evenodd" clip-rule="evenodd" d="M16.2771 60.9594C16.2957 60.9377 16.3204 60.8758 16.3297 60.8913L16.6855 60.4605C16.8309 60.318 16.9485 60.2157 17.1001 60.0577C18.0561 59.0537 18.845 58.5238 20.1754 58.0156C22.8857 56.9775 28.3804 56.8008 31.9198 56.1594C33.244 55.9208 34.7229 55.552 35.9914 55.1151C36.4524 54.954 36.7587 54.7123 37.2228 54.5511C36.8144 54.3187 36.2111 54.1328 35.7934 53.9376C35.3386 53.7268 34.9364 53.4789 34.5187 53.2031C33.8876 52.7817 32.6407 51.7746 32.3808 51.2416C31.9724 51.3408 31.1866 51.9109 30.7504 52.1527C29.222 52.9955 26.7283 54.3559 25.104 53.6711C22.4742 52.5617 23.9159 47.6346 24.0057 45.8838C23.39 46.8444 22.8547 48.0375 21.9327 49.4505C19.8072 52.698 16.9609 56.9341 16.2771 60.9656V60.9594Z" fill="#C7C8C2"/>
<path fill-rule="evenodd" clip-rule="evenodd" d="M7.88331 78.9977C8.11226 78.3067 9.62518 75.8586 10.0614 75.2234C10.8101 74.1264 12.7005 72.5057 12.9418 72.1277C12.8985 71.8085 12.5829 71.2538 12.4406 70.8324C11.9673 69.4317 11.9518 67.8482 11.0112 66.776C10.7049 66.4259 10.3894 66.1408 9.7675 66.3329C9.33435 66.4662 8.94762 66.8132 8.78054 67.1758C8.59491 67.5879 8.54541 68.3161 8.56707 68.8274C8.61038 69.7943 8.61657 69.4348 8.69701 70.3242C7.88331 70.7208 7.54299 70.6123 6.61791 70.4419C5.54123 70.1847 5.09881 70.1816 4.01594 70.4574C2.60203 70.8169 1.42635 71.9572 1.3985 73.6678C1.35828 76.1468 5.23494 78.725 7.88022 78.9977H7.88331Z" fill="#FBDACF"/>
<path fill-rule="evenodd" clip-rule="evenodd" d="M71.0731 78.976C71.0391 79.5431 72.4282 82.0562 72.7623 82.7348C73.1305 83.4786 74.2041 85.877 74.6868 86.2334C75.1508 86.1776 75.0209 86.0289 75.7944 86.0846C78.3437 86.2675 81.0354 85.7159 81.4964 82.6667C81.713 81.2412 81.0695 79.3758 80.1444 78.9047C79.7113 78.6847 78.4582 78.5205 77.8951 78.4926C76.936 78.443 76.3729 79.0101 75.8222 78.5112C75.9738 77.814 76.6143 76.8967 76.2739 76.0167C75.8965 75.0405 74.9992 75.242 74.1639 75.6944C73.1151 76.2615 72.4035 77.1291 71.7754 78.0588L71.0669 78.976H71.0731Z" fill="#FBDACF"/>
<path fill-rule="evenodd" clip-rule="evenodd" d="M35.5241 80.705C36.0903 81.2256 37.8631 81.8702 38.8067 82.0809C41.5324 82.6914 44.3788 82.4218 46.9375 81.4301C47.7233 81.1265 49.4281 80.2743 49.9447 79.7909C49.5302 79.1866 47.6615 78.1547 46.7116 77.7333C44.1189 76.5805 40.6692 76.4535 38.1446 78.0215C37.6434 78.3313 37.0092 78.8581 36.6812 79.2083C36.3223 79.5895 35.7623 80.2092 35.521 80.705H35.5241Z" fill="#F3AAB8"/>
<path fill-rule="evenodd" clip-rule="evenodd" d="M45.0131 38.0687C45.1925 37.1856 45.7278 35.8469 46.0526 35.0195C46.2537 34.5082 46.4517 34.0899 46.6807 33.6343C46.9344 33.1261 47.1974 32.7388 47.4573 32.2275C45.7525 32.4599 44.7284 31.6108 44.317 30.3248C43.8281 30.6471 43.0949 31.7069 41.319 31.304C40.1866 31.0468 39.7999 30.2288 39.4379 29.1597C38.8408 29.8259 38.3365 30.3155 37.0618 30.2876C37.365 31.0964 37.9497 32.057 38.3488 32.9092C40.4589 37.4087 38.949 37.0709 41.7057 37.4304C42.8195 37.576 43.8869 37.8425 45.0131 38.0687Z" fill="#C7C8C2"/>
<path fill-rule="evenodd" clip-rule="evenodd" d="M51.2812 33.0796L51.8815 33.2594C51.5999 34.2231 51.2101 35.3139 50.8728 36.2745C50.6841 36.8168 50.1148 38.862 49.7312 39.1378C50.483 39.4353 52.3517 39.9528 53.0726 39.5716C53.3882 39.4043 54.8299 37.7991 55.1424 37.4396C55.7767 36.7083 56.5811 36.1536 57.2525 35.4409C57.8496 34.8088 58.5705 33.9907 59.7895 33.78C58.4684 32.243 58.62 34.031 56.8069 34.0805C56.1015 34.0991 55.4735 33.8915 55.0682 33.5321C54.4556 32.9867 54.5824 32.6799 54.1586 32.1438C53.1469 32.7078 52.986 33.2191 51.2812 33.0765V33.0796Z" fill="#C7C8C2"/>
<path fill-rule="evenodd" clip-rule="evenodd" d="M47.4574 32.2275C47.1975 32.7388 46.9345 33.1293 46.6808 33.6344C46.4518 34.0899 46.2569 34.5082 46.0527 35.0195C45.7279 35.8469 45.1895 37.1856 45.0132 38.0688L49.7283 39.1378C50.115 38.8621 50.6812 36.8168 50.8699 36.2746C51.2041 35.3139 51.597 34.2232 51.8785 33.2594L51.2783 33.0797C50.1243 32.8256 49.3632 32.2151 49.0507 31.1584C48.7382 31.3196 48.633 31.5241 48.2958 31.7813C47.9957 32.0137 47.776 32.0571 47.4543 32.2275H47.4574Z" fill="#FBDACF"/>
<path fill-rule="evenodd" clip-rule="evenodd" d="M33.5255 94.5505C35.6943 94.1446 36.8391 94.1477 38.5469 95.223C38.6614 95.0371 39.1471 90.2215 39.1873 89.5522C38.3025 88.9417 38.4974 88.7961 36.9721 88.5792C35.6046 88.387 35.518 88.1794 34.3485 88.8457C33.8906 89.106 34.0143 89.3446 33.9401 90.017C33.7483 91.6965 33.5193 92.7192 33.5255 94.5505Z" fill="white"/>
<path fill-rule="evenodd" clip-rule="evenodd" d="M48.698 131.25C49.0105 132.594 51.9157 135.228 54.4001 134.336C55.6438 133.89 56.3771 133.304 56.9432 132.316C57.4414 131.448 58.0199 129.83 57.9116 128.637L57.8033 128.399C57.6177 128.894 57.7074 128.414 56.8164 128.984C54.9415 130.187 52.2065 130.986 49.9603 131.026C49.3446 131.036 48.7815 130.933 48.698 131.25Z" fill="#FBDACF"/>
<path fill-rule="evenodd" clip-rule="evenodd" d="M26.9849 132.089C26.4404 131.748 25.3204 131.603 24.6119 131.408C21.2952 130.49 19.2842 128.696 18.5478 128.551C18.4334 129.734 18.6066 131.25 19.0367 132.235C19.4172 133.103 20.3856 133.794 21.2952 134.181C22.4926 134.689 23.5259 134.63 24.6768 134.104C25.54 133.71 26.561 132.79 26.9849 132.089Z" fill="#FBDACF"/>
<path fill-rule="evenodd" clip-rule="evenodd" d="M39.803 94.9348C40.7992 94.6806 41.1983 94.4265 42.3802 94.6063C43.3362 94.7519 43.8962 95.2322 44.4531 95.3469C44.5274 94.0051 44.6944 92.6447 44.8615 91.3154C45.0038 90.1936 45.2111 90.3795 44.58 89.7474C44.0416 89.2113 44.58 89.3879 42.8721 89.2701C39.803 89.0563 40.134 88.8425 39.8061 94.9348H39.803Z" fill="white"/>
<path fill-rule="evenodd" clip-rule="evenodd" d="M51.2257 20.2382C50.0284 20.5512 49.2796 21.9301 49.5395 23.0705C49.7994 24.2201 50.9473 25.0103 52.3148 24.6447C55.1271 23.8917 54.5609 19.3643 51.2288 20.2382H51.2257Z" fill="#F0895E"/>
<path fill-rule="evenodd" clip-rule="evenodd" d="M59.9104 17.8243L59.7402 16.2749C59.2359 15.8224 58.5212 14.7905 56.7886 15.5931C54.1557 16.811 55.4706 20.0864 57.791 19.8881C59.3349 19.7548 59.5824 18.3913 59.9104 17.8243Z" fill="#F0895E"/>
<path fill-rule="evenodd" clip-rule="evenodd" d="M58.3694 1.51536C57.0947 1.9275 56.6987 3.00278 56.8658 4.28878C56.9462 4.91164 58.2364 6.00551 59.5853 5.68014C60.003 5.58098 60.6465 5.06658 60.8105 4.81558C61.6056 3.59155 60.464 0.83982 58.3725 1.51536H58.3694Z" fill="#FFEB7C"/>
<path fill-rule="evenodd" clip-rule="evenodd" d="M55.4024 8.79131C54.4279 8.98344 53.5461 9.98435 53.4564 11.0596C53.3512 12.3301 54.4186 13.142 55.7149 12.9995C58.5768 12.6865 58.0106 8.27072 55.4024 8.78822V8.79131Z" fill="#F0895E"/>
<path fill-rule="evenodd" clip-rule="evenodd" d="M57.1782 44.66C55.0156 45.0721 54.3102 48.0253 55.0125 48.5861C56.2872 49.6025 55.851 46.5905 57.1937 46.0792C57.6609 45.9026 58.1343 46.0234 58.3911 46.3891C59.0408 47.3125 58.3199 48.5118 58.4622 49.2338C58.5272 49.5623 59.6534 50.7119 59.9751 48.3227C60.2783 46.0668 59.2481 44.2633 57.1782 44.66Z" fill="#AB973A"/>
<path fill-rule="evenodd" clip-rule="evenodd" d="M47.312 16.3275C47.3863 17.1859 47.9494 17.9544 48.5681 18.1961C49.4468 18.537 50.542 18.0504 51.0092 17.5825C52.4015 16.185 51.2598 13.9445 49.3169 14.0716C48.9208 14.4156 48.7135 14.7781 48.3206 15.1655C48.101 15.3824 47.476 16.0796 47.312 16.3306V16.3275Z" fill="#F0895E"/>
<path fill-rule="evenodd" clip-rule="evenodd" d="M32.6777 39.9497C31.6196 40.2379 31.3937 40.4393 30.8554 41.1923C30.5615 41.6044 29.9086 42.7386 30.3232 43.3181C30.5522 43.6404 31.0101 43.6992 31.3164 43.3925C31.6412 43.0671 31.7248 41.8833 32.4921 41.4619C34.4629 40.3835 33.6306 43.6961 33.8101 44.0339C33.9678 44.3345 35.0105 44.9542 35.2209 43.2003C35.4808 41.0405 34.2989 39.5097 32.6777 39.9497Z" fill="#AB973A"/>
<path fill-rule="evenodd" clip-rule="evenodd" d="M60.7364 26.033L60.3157 21.9271C58.7068 21.8465 57.0083 22.6956 57.395 24.4433C57.5497 25.1468 58.0757 25.7138 58.5862 25.9958C59.372 26.4328 59.9042 26.3026 60.7364 26.033Z" fill="#F0895E"/>
<path fill-rule="evenodd" clip-rule="evenodd" d="M41.9253 22.649C43.0143 23.3803 44.4283 23.1882 45.2296 22.3081C45.9628 21.5024 45.8917 19.6215 44.9883 19.0017C44.8088 19.1226 42.1326 22.2957 41.9253 22.649Z" fill="#F0895E"/>
<path fill-rule="evenodd" clip-rule="evenodd" d="M51.2103 28.5741C50.6596 28.8963 50.0996 29.7733 50.3749 30.7432C50.5977 31.521 51.532 31.9982 52.4726 31.5706C54.7559 30.5356 52.5561 27.787 51.2134 28.5741H51.2103Z" fill="#C3E5EE"/>
<path fill-rule="evenodd" clip-rule="evenodd" d="M41.418 26.7985C40.1433 27.6786 40.7775 30.9292 42.7669 29.8043C43.3393 29.4821 43.7477 28.4285 43.3393 27.6321C43.1165 27.2014 42.1574 26.2872 41.418 26.7954V26.7985Z" fill="#C3E5EE"/>
<path fill-rule="evenodd" clip-rule="evenodd" d="M46.5538 27.6413C44.8336 28.2549 45.5638 31.6543 47.2994 30.7804C49.2146 29.8167 48.1719 27.0649 46.5538 27.6413Z" fill="#F3AAB8"/>
<path fill-rule="evenodd" clip-rule="evenodd" d="M38.6026 96.289C37.9838 96.258 37.6713 95.9419 37.2567 96.0473C35.7933 96.4253 34.6424 98.2381 35.0569 99.1895C35.7283 100.723 38.4479 96.9057 38.6026 96.2859V96.289Z" fill="#E64F0A"/>
<path fill-rule="evenodd" clip-rule="evenodd" d="M45.7092 89.4314C46.3589 90.141 45.9908 90.9312 45.9567 92.0406L51.071 89.1897C51.0153 89.1804 51.0276 89.1742 50.876 89.1587L49.9262 89.2424C49.4528 89.2857 48.9764 89.3074 48.503 89.3322C47.68 89.3725 46.4765 89.326 45.7092 89.4314Z" fill="#E64F0A"/>
<path fill-rule="evenodd" clip-rule="evenodd" d="M39.9639 96.3045C40.0752 97.1009 41.2293 99.4095 42.1203 99.8031C42.439 99.9456 42.6246 99.9394 42.7484 99.8C43.3672 98.6441 41.8295 96.6516 41.3747 95.9574C40.7807 95.911 40.4249 96.1682 39.9639 96.3045Z" fill="#E64F0A"/>
<path fill-rule="evenodd" clip-rule="evenodd" d="M56.0336 29.8817C55.6963 30.0273 55.9284 29.7546 55.6716 30.2102C54.9445 31.4931 56.0398 33.4577 57.4413 32.432C58.9666 31.3164 57.7723 29.138 56.0336 29.8817Z" fill="#F3AAB8"/>
<path fill-rule="evenodd" clip-rule="evenodd" d="M32.8292 90.3578C33.0953 87.7145 33.1974 88.8951 33.8874 88.0244C32.9592 87.8323 32.0032 87.5782 31.1214 87.3179C30.3974 87.104 29.1228 86.5927 28.5256 86.4905L31.7588 89.4188C31.9939 89.6451 32.4704 90.3485 32.8262 90.3578H32.8292Z" fill="#E64F0A"/>
<path fill-rule="evenodd" clip-rule="evenodd" d="M44.0229 26.2065C44.19 26.3987 44.2736 26.4792 44.4283 26.7271C44.518 26.8728 44.617 27.1083 44.75 27.2787C45.8329 26.442 45.7741 25.8564 48.0141 26.4234C47.9522 25.3668 47.1973 24.6045 46.1206 24.5642C45.0965 24.527 44.1158 25.3761 44.0229 26.2065Z" fill="#F0895E"/>
<path fill-rule="evenodd" clip-rule="evenodd" d="M51.6742 63.2929C50.8203 63.5191 48.4782 64.4643 48.5587 65.4342C48.6051 66.0199 49.2208 66.1903 49.7189 65.8401C50.5264 65.2731 50.8358 64.9694 51.9929 64.644C53.478 64.2257 52.986 62.9428 51.6742 63.2898V63.2929Z" fill="#864322"/>
<path fill-rule="evenodd" clip-rule="evenodd" d="M61.5841 30.2257C60.7519 30.393 60.2012 30.5573 60.13 31.4528C59.9846 33.2749 62.5401 33.5042 62.6979 31.71C62.7629 30.9694 62.206 30.1017 61.5841 30.2288V30.2257Z" fill="#C3E5EE"/>
<path fill-rule="evenodd" clip-rule="evenodd" d="M53.1654 27.4429C53.5058 27.7249 53.7223 27.8365 54.0379 28.1681C54.5886 28.7475 54.4711 28.8405 54.7062 29.107C55.2198 28.7228 55.6282 28.2362 56.9029 28.3416C56.7977 27.601 56.1232 26.9874 55.39 26.8077C54.5886 26.6125 53.5182 26.9038 53.1624 27.4398L53.1654 27.4429Z" fill="#F0895E"/>
<path fill-rule="evenodd" clip-rule="evenodd" d="M36.9256 26.3894C35.4591 27.1269 36.5822 29.5316 37.8692 28.7445C38.2312 28.5244 38.7232 27.8179 38.4818 27.099C38.2158 26.3057 37.4083 26.1446 36.9225 26.3894H36.9256Z" fill="#F3AAB8"/>
<path fill-rule="evenodd" clip-rule="evenodd" d="M31.1371 61.291C30.6699 61.5234 30.8617 61.9635 31.0938 62.2951C31.6073 63.0264 32.6871 64.8175 33.5132 64.331C34.3795 63.8228 33.0553 62.7134 32.8697 62.5275C32.5943 62.2517 31.6661 61.0276 31.134 61.291H31.1371Z" fill="#864322"/>
<path fill-rule="evenodd" clip-rule="evenodd" d="M47.1975 51.5639L48.1195 49.0632C48.1999 48.8649 48.5526 48.0034 48.5557 47.8794C48.5557 47.6687 48.4196 47.5479 48.2866 47.3681C48.1968 47.2473 48.2061 47.2442 48.0885 47.1078L47.8472 46.863L47.1975 51.5639Z" fill="#C7C8C2"/>
<path fill-rule="evenodd" clip-rule="evenodd" d="M40.9973 90.5779C41.2386 90.6957 41.4521 90.5159 41.7769 90.423C42.3276 90.2618 42.9928 90.3207 43.5033 90.6461C43.8931 90.8971 43.6797 91.0551 44.1716 91.0056C44.4686 89.6173 40.7033 89.6173 41.0004 90.5779H40.9973Z" fill="#CBCBC7"/>
<path fill-rule="evenodd" clip-rule="evenodd" d="M40.7437 92.2263C41.1737 92.4619 41.8327 91.8483 42.6495 92.0218C42.8939 92.0745 44.2367 93.032 43.853 92.2294C43.7911 92.0993 43.4292 91.8235 43.2404 91.7305C42.6742 91.4485 41.9936 91.4981 41.3996 91.6934C40.9633 91.839 40.7839 91.8328 40.7437 92.2263Z" fill="#CBCBC7"/>
<path fill-rule="evenodd" clip-rule="evenodd" d="M34.9209 89.9983C35.4128 90.0727 35.7439 89.7164 36.5823 89.8992C37.2382 90.0417 37.4548 90.6088 37.9375 90.4322C38.0334 90.0634 37.7982 89.9705 37.5105 89.7907C36.4802 89.1493 34.8807 89.2484 34.9209 89.9983Z" fill="#CBCBC7"/>
<path fill-rule="evenodd" clip-rule="evenodd" d="M34.8465 91.4486C35.3013 91.6128 35.8644 91.3618 36.4429 91.588C37.0401 91.8204 36.9503 92.1117 37.3618 92.1086C37.5382 92.1086 37.4701 92.1086 37.566 92.0559C37.8042 91.1449 34.8001 90.4105 34.8465 91.4517V91.4486Z" fill="#CBCBC7"/>
<path fill-rule="evenodd" clip-rule="evenodd" d="M34.7043 92.9577C34.989 93.1498 35.8584 93.0445 36.3008 93.1994C36.7896 93.3698 37.0371 93.8285 37.4363 93.689C37.5971 92.7439 34.8807 92.0838 34.7043 92.9577Z" fill="#CBCBC7"/>
<path fill-rule="evenodd" clip-rule="evenodd" d="M40.7094 93.9183C41.3498 93.9214 41.6159 93.6177 42.3553 93.7014C42.9865 93.7695 43.3299 94.1569 43.7043 94.098C43.9642 93.221 41.9036 93.1839 41.3839 93.3357C40.96 93.4597 40.8084 93.5123 40.7063 93.9183H40.7094Z" fill="#CBCBC7"/>
</g>
<defs>
<clipPath id="clip0_499_314">
<rect width="83" height="136" fill="white"/>
</clipPath>
</defs>
</svg>
