<svg width="30" height="30" viewBox="0 0 30 30" fill="none" xmlns="http://www.w3.org/2000/svg">
<path fill-rule="evenodd" clip-rule="evenodd" d="M15 0C6.71573 0 0 6.71573 0 15C0 23.2843 6.71573 30 15 30C23.2843 30 30 23.2843 30 15C30 6.71573 23.2843 0 15 0ZM15.2499 7C20.3506 7 24.5 10.3431 24.5 14.4523C24.5 16.097 23.8579 17.578 22.5173 19.0374H22.5177C20.5771 21.2551 16.2372 23.9561 15.2499 24.3691C14.2905 24.7706 14.4013 24.1432 14.4452 23.8945C14.4464 23.8874 14.4476 23.8806 14.4488 23.8741C14.4722 23.7361 14.5807 23.0881 14.5807 23.0881C14.6119 22.8536 14.6442 22.4899 14.5509 22.2577C14.4472 22.002 14.0372 21.8693 13.7359 21.8049C9.29077 21.2214 6 18.1363 6 14.4523C6 10.3431 10.1499 7 15.2499 7Z" fill="white"/>
</svg>
