<svg width="116" height="245" viewBox="0 0 116 245" fill="none" xmlns="http://www.w3.org/2000/svg">
<path d="M66.4286 228.028L63.9028 244.397L80.3206 241.288L66.4286 228.028Z" fill="#EB612A"/>
<path d="M57.2678 233.711C88.8959 233.711 114.536 208.115 114.536 176.541C114.536 144.968 88.8959 119.372 57.2678 119.372C25.6397 119.372 0 144.968 0 176.541C0 208.115 25.6397 233.711 57.2678 233.711Z" fill="#EB612A"/>
<path fill-rule="evenodd" clip-rule="evenodd" d="M32.0873 74.3453C31.6015 76.6282 30.7272 80.6597 31.1644 83.0883C31.4558 84.6426 31.893 85.5655 33.7873 85.2255C35.3902 84.934 38.9847 83.0397 40.4419 82.1168C44.2306 79.6882 42.6276 80.7568 46.1735 83.6711C48.7479 85.8083 53.7509 88.7227 55.4024 84.0111C56.2281 81.6311 55.111 76.3853 55.791 75.2196C56.2767 74.2967 60.454 72.0624 61.6683 71.3338C64.2913 69.828 64.6799 70.1195 66.4285 72.2081C67.4971 73.5195 68.6629 74.7338 69.7315 76.191C70.5572 77.3082 70.6058 78.0368 69.9258 79.8339C69.1 81.874 67.6914 85.1283 67.9828 87.6541C68.42 91.3941 71.5287 90.3741 73.9088 89.1112C75.026 88.4798 75.9003 87.9941 76.9689 87.3141C80.4176 85.1283 80.0776 85.6626 81.4862 87.3626L84.9834 91.1513C85.6635 91.7827 86.7807 92.7542 87.8493 93.1427C89.7922 93.8228 90.0836 92.8999 90.5694 91.4427C91.5894 88.2855 91.4923 84.3997 92.6094 83.7683C94.2609 82.8454 96.5439 82.1168 99.1668 80.5625C100.624 79.6882 104.461 77.1625 101.304 75.4139C99.4583 74.3938 96.4953 73.2767 94.2609 72.7424C92.2694 72.2567 92.5609 71.8681 92.0751 70.0223C91.298 67.0594 89.6465 61.425 87.8978 59.4336C85.8578 57.1021 85.1292 58.3164 82.4091 61.085L79.8833 63.4651C79.1547 64.2908 78.2804 65.1651 77.5518 66.0394C76.5803 67.2537 76.2888 67.5937 74.1031 67.5451C72.743 67.5451 71.3344 67.0109 70.0715 66.6709C66.7199 65.8451 61.5712 64.6308 58.1225 63.9994C53.9452 63.2708 53.4109 63.9994 52.0994 60.3079C51.3222 58.1221 50.3508 55.4507 49.2336 53.4592C48.6507 52.4392 48.3593 50.8849 46.7564 51.2734C44.5706 51.8077 42.8705 54.0906 41.4133 55.7421C40.6361 56.5678 39.9561 57.4421 39.179 58.4136C38.8389 58.8507 38.4989 59.2393 38.1103 59.7736C37.576 60.4536 37.4789 60.5022 36.4589 60.3565C34.6616 60.065 28.8814 60.2107 27.57 61.1822C24.947 63.1736 29.61 68.808 31.0672 70.6052C31.893 71.6252 32.5244 72.4509 32.1358 74.3453H32.0873Z" fill="#864322" stroke="#864322" stroke-width="9" stroke-miterlimit="10" stroke-linecap="round"/>
<path fill-rule="evenodd" clip-rule="evenodd" d="M61.0855 44.0846C61.3284 44.376 61.4741 44.5217 61.717 44.9103C61.8627 45.1532 62.0084 45.4932 62.2027 45.7846C63.9028 44.4732 63.8056 43.5503 67.3029 44.4246C67.6915 44.7646 68.1287 44.9103 68.5658 45.2989C69.0515 45.7361 69.1973 46.0275 69.6344 46.5618C71.7716 45.4446 72.2574 44.8132 75.3661 45.9789C75.9004 46.4161 76.2404 46.6104 76.7261 47.0961C77.6004 48.019 77.4061 48.1647 77.7947 48.5532C78.6205 47.9704 79.2519 47.1932 81.2434 47.3389C83.8664 47.7761 84.0121 48.6018 84.9835 49.719C85.3721 49.4276 85.615 49.1361 86.1493 48.7961C86.7808 48.4075 87.2665 48.5047 87.8008 48.1161C87.9465 47.5332 87.5093 44.2789 87.2665 43.7446L86.5865 37.2845L85.955 30.8729L85.7121 28.4443C85.7121 26.3072 85.275 23.3928 85.0807 21.2071C84.8378 18.827 84.5464 16.447 84.2549 14.1155C82.652 13.9698 82.5063 13.5812 81.3891 13.2412C78.5719 15.1841 74.5403 19.1185 72.2088 21.7899C71.6745 22.3728 71.4316 22.7128 70.7516 23.3442C70.2173 23.8785 69.8773 24.4128 69.343 24.9471C68.7115 25.4814 68.3715 26.0643 67.7886 26.6472C67.4486 26.9872 66.4772 28.1043 66.1857 28.4929C65.5057 28.9786 64.9228 29.9015 64.3399 30.5329C63.9514 30.9215 63.8542 31.1644 63.4656 31.553C63.077 31.9415 62.8828 32.1844 62.5427 32.7187C62.2513 32.913 58.074 37.8674 57.734 38.4502C57.1025 38.9845 54.1882 42.5789 53.8481 43.356L54.3824 44.4246C55.4025 43.8417 57.0054 40.976 60.9884 44.036L61.0855 44.0846Z" fill="#864322" stroke="#864322" stroke-width="9" stroke-miterlimit="10" stroke-linecap="round"/>
<path fill-rule="evenodd" clip-rule="evenodd" d="M100.284 82.4569C98.3412 83.6226 96.0583 84.5455 93.9696 85.6141C93.581 87.8484 93.3382 89.8884 92.7067 91.9285C92.0267 94.0171 91.3467 95.6685 88.7723 95.5714C85.7607 95.4742 82.7492 92.4142 80.952 90.1799C80.5634 89.6456 80.0291 88.917 79.4948 88.4798C78.7176 88.8198 78.1833 89.1113 77.7948 89.4027C76.5319 89.9856 75.269 90.957 73.7632 91.5884C71.9174 92.4142 70.8002 92.8027 68.5659 92.2199C67.643 91.3942 66.7686 91.4913 66.0401 89.1598C65.2629 86.7798 66.1858 84.934 66.0401 83.8169L67.4972 79.8825C67.643 79.5911 68.1773 78.2311 68.1773 78.0368C68.1773 77.6968 67.983 77.5025 67.7401 77.2596C67.5944 77.0653 67.5944 77.0653 67.4487 76.8711L67.0601 76.4825C66.7687 75.8025 64.7772 73.9081 63.9514 72.6453C63.2714 72.791 58.4626 75.6567 57.6855 76.191C57.7826 79.3968 58.8998 86.0512 54.7711 88.0912C52.9253 89.0141 52.2453 88.5284 50.3995 88.4798C49.768 88.1398 48.7966 87.7998 48.1651 87.5084C47.4365 87.1684 46.8051 86.7798 46.1736 86.3426C45.2022 85.6626 43.2107 84.1083 42.8221 83.2826C42.1906 83.4283 40.9277 84.3512 40.2477 84.6912C37.8676 86.0026 33.9332 88.1398 31.4074 87.0712C27.2787 85.3226 29.5616 77.5996 29.7073 74.8796C28.7359 76.3853 27.9101 78.2796 26.4529 80.4654C23.1014 85.5655 18.6326 92.1713 17.564 98.5343C17.0783 99.6029 16.2526 104.557 16.204 105.966C15.9125 111.406 16.6897 116.457 19.2155 121.072C19.7498 122.092 20.3813 123.015 20.9642 123.938C22.1299 125.735 21.6442 125.055 22.9557 126.512C25.87 129.815 29.173 132.292 33.2532 134.429C38.3533 137.101 47.7765 139.675 53.9453 140.938C55.7911 141.326 60.6484 140.986 62.8828 140.938C74.9289 140.744 81.3892 139.384 90.9581 132.535C92.7553 131.223 94.6011 129.961 95.8154 128.358C96.544 127.435 98.9727 123.938 99.2641 122.675C100.721 121.218 101.936 116.263 102.421 114.175C104.17 106.014 102.713 89.6456 102.227 81.1454C101.79 81.2426 100.916 81.9711 100.333 82.3111L100.284 82.4569Z" fill="#864322" stroke="#864322" stroke-width="9" stroke-miterlimit="10" stroke-linecap="round"/>
<path fill-rule="evenodd" clip-rule="evenodd" d="M109.562 48.4076C106.502 43.4532 101.159 44.3761 96.9327 46.999C95.9612 47.5819 95.0384 48.3105 94.4069 49.039C93.9697 49.5248 92.6097 50.9819 92.5611 51.6619C92.5611 53.2648 92.6583 54.042 91.7354 55.2563C91.1039 56.0334 90.0353 56.7135 88.5781 56.9077C89.161 57.8306 89.7439 58.0735 90.6668 59.7249C92.464 62.7364 93.2411 66.6222 94.2612 70.0223C94.5526 71.0423 95.3298 70.7508 98.0499 71.7223C99.1185 72.1109 100.624 72.888 101.547 73.1309C101.644 69.488 100.381 67.6908 102.761 65.5536C104.656 63.9021 105.287 63.8536 107.765 61.3764C111.31 57.8792 112.865 53.8963 109.513 48.4562L109.562 48.4076Z" fill="#864322" stroke="#864322" stroke-width="9" stroke-miterlimit="10" stroke-linecap="round"/>
<path fill-rule="evenodd" clip-rule="evenodd" d="M34.7589 52.9734C35.3903 55.402 36.3618 54.8191 36.1189 58.1706C36.7504 58.122 36.6532 57.8792 37.4789 56.9077L41.0734 52.7305C42.5306 51.079 44.0849 49.0876 47.6307 48.9904C46.9993 47.4847 45.6392 44.6675 48.3108 42.7732C49.1365 42.1903 49.5737 42.336 50.3994 41.9475C50.3023 40.4417 49.4765 38.2074 48.8451 36.9931C46.6593 32.6216 40.2476 32.1844 36.3618 36.9931C34.0788 39.8589 33.6417 42.7246 33.9331 47.2904C34.0788 49.2819 34.3217 51.079 34.7589 52.9248V52.9734Z" fill="#864322" stroke="#864322" stroke-width="9" stroke-miterlimit="10" stroke-linecap="round"/>
<path fill-rule="evenodd" clip-rule="evenodd" d="M52.148 54.6248C55.451 61.6678 53.0709 61.1335 57.4425 61.7164C59.1911 61.9592 60.8912 62.3478 62.6398 62.7364L70.0229 64.4364C71.1887 64.9221 74.1516 65.6993 75.2688 65.1164C75.7546 64.8736 78.0375 62.3478 78.5232 61.7649C79.5433 60.5992 80.8062 59.7249 81.8262 58.6077C82.7491 57.6363 83.9149 56.3248 85.8092 55.9848C83.7206 53.5562 83.9634 56.3734 81.1462 56.4705C80.029 56.4705 79.0575 56.1791 78.4261 55.5962C77.4546 54.7219 77.6489 54.2848 77.0175 53.4105C75.4145 54.2848 75.1717 55.1105 72.5002 54.8677C70.7029 54.4791 69.4886 53.5076 69.0029 51.8562C68.5172 52.099 68.3229 52.439 67.8371 52.8276C67.3514 53.1676 67.0114 53.2648 66.5257 53.5076C63.8541 53.8962 62.2512 52.5362 61.6198 50.5447C60.8426 51.0305 59.7254 52.7305 56.9082 52.099C55.111 51.7105 54.5281 50.399 53.9452 48.7476C53.0223 49.8161 52.1966 50.5447 50.2051 50.4962C50.6908 51.759 51.6137 53.2648 52.2451 54.6248H52.148Z" fill="#864322" stroke="#864322" stroke-width="9" stroke-miterlimit="10" stroke-linecap="round"/>
<path fill-rule="evenodd" clip-rule="evenodd" d="M85.5181 11.9299C86.1496 11.7842 87.1696 10.9584 87.4611 10.5699C88.724 8.67554 86.9268 4.3526 83.6238 5.37262C81.6323 6.00406 81.0008 7.70409 81.2437 9.69555C81.3894 10.667 83.3809 12.367 85.5181 11.8813V11.9299Z" fill="#864322" stroke="#864322" stroke-width="9" stroke-miterlimit="10" stroke-linecap="round"/>
<path fill-rule="evenodd" clip-rule="evenodd" d="M72.3545 47.8248C71.4802 48.3105 70.6059 49.7191 71.043 51.2248C71.383 52.4391 72.8402 53.1677 74.346 52.5363C77.9404 50.9334 74.4917 46.6105 72.3545 47.8248Z" fill="#864322" stroke="#864322" stroke-width="9" stroke-miterlimit="10" stroke-linecap="round"/>
<path fill-rule="evenodd" clip-rule="evenodd" d="M57.0053 45.0561C55.0138 46.4161 55.9852 51.5162 59.1425 49.7676C60.0654 49.2819 60.6968 47.6304 60.0168 46.3676C59.6768 45.6875 58.171 44.279 57.0053 45.0561Z" fill="#864322" stroke="#864322" stroke-width="9" stroke-miterlimit="10" stroke-linecap="round"/>
<path fill-rule="evenodd" clip-rule="evenodd" d="M65.0687 46.3676C62.3486 47.3391 63.5144 52.682 66.2345 51.2734C69.246 49.7677 67.5945 45.4448 65.0687 46.3676Z" fill="#864322" stroke="#864322" stroke-width="9" stroke-miterlimit="10" stroke-linecap="round"/>
<path fill-rule="evenodd" clip-rule="evenodd" d="M79.9321 49.8649C79.3978 50.1078 79.7864 49.6706 79.3492 50.3992C78.232 52.3907 79.9321 55.4993 82.1179 53.8964C84.498 52.1478 82.6522 48.7478 79.9321 49.9135V49.8649Z" fill="#864322" stroke="#864322" stroke-width="9" stroke-miterlimit="10" stroke-linecap="round"/>
<path fill-rule="evenodd" clip-rule="evenodd" d="M86.3435 52.3419C86.1007 55.2077 90.1323 55.5477 90.3751 52.7305C90.4723 51.5648 89.598 50.2047 88.6265 50.399C87.315 50.6419 86.4407 50.9333 86.3435 52.3419Z" fill="#864322" stroke="#864322" stroke-width="9" stroke-miterlimit="10" stroke-linecap="round"/>
<path fill-rule="evenodd" clip-rule="evenodd" d="M51.4196 48.0677C52.0025 47.7277 52.7796 46.6105 52.3911 45.4933C51.9539 44.2305 50.691 43.9876 49.9624 44.3762C47.6795 45.5419 49.4281 49.282 51.4682 48.0677H51.4196Z" fill="#864322" stroke="#864322" stroke-width="9" stroke-miterlimit="10" stroke-linecap="round"/>
<path fill-rule="evenodd" clip-rule="evenodd" d="M50.7396 88.5769C50.011 88.8198 49.5252 89.2084 48.7966 89.4513C46.8051 90.1313 44.4736 90.7141 42.385 91.1027C36.8476 92.1227 28.2016 92.3656 23.9272 94.017C21.8385 94.7942 20.6242 95.6685 19.1184 97.2228C18.8756 97.4657 18.6813 97.6114 18.487 97.8542L17.9527 98.5343C17.9527 98.5343 17.9041 98.6314 17.8555 98.6314C17.3698 99.7 16.5441 104.654 16.4955 106.063C16.2041 111.503 16.9812 116.555 19.507 121.169C20.0413 122.189 20.6728 123.112 21.2557 124.035C22.4214 125.832 21.9357 125.152 23.2472 126.609C26.1616 129.912 29.4645 132.389 33.5447 134.526C38.6449 137.198 48.0681 139.772 54.2368 141.035C56.0826 141.424 60.9399 141.084 63.1743 141.035C75.2204 140.841 81.6807 139.481 91.2496 132.632C93.0468 131.321 94.8926 130.058 96.1069 128.455C96.8355 127.532 99.2642 124.035 99.5556 122.772C99.4099 119.226 97.0298 113.835 95.4269 111.552C91.6868 106.16 88.3352 104.12 83.0893 100.963C80.4664 99.4086 79.7378 99.3114 78.0863 98.34C75.0747 96.6399 73.7633 96.2028 70.8974 94.0656C70.1688 93.5313 69.3917 92.8027 68.9545 92.1713C68.0316 91.3456 67.1573 91.4427 66.4287 89.1112C65.6515 86.7312 66.5744 84.8855 66.4287 83.7683L67.4487 76.3853C67.1573 75.7053 65.1658 73.811 64.3401 72.5481C63.66 72.6938 58.8513 75.5596 58.0741 76.0939C58.1713 79.2996 59.2885 85.9541 55.1597 87.9941C53.314 88.917 52.6339 88.4312 50.7881 88.3827L50.7396 88.5769Z" fill="#FBDAD1"/>
<path fill-rule="evenodd" clip-rule="evenodd" d="M46.9995 51.3706C44.8137 51.9049 43.1137 54.1878 41.6565 55.8393C40.8793 56.665 40.1993 57.5393 39.4221 58.5107C39.0821 58.9479 38.7421 59.3365 38.3535 59.8708C37.8192 60.5508 37.7221 60.5993 36.702 60.4536C34.9048 60.1622 29.1246 60.3079 27.8131 61.2794C25.1902 63.2708 29.8532 68.9052 31.3104 70.7024C32.1361 71.7224 32.7676 72.5481 32.379 74.4424C31.8933 76.7253 31.019 80.7568 31.4561 83.1854C31.7476 84.7398 32.1847 85.6626 34.0791 85.3226C35.682 85.0312 39.2764 83.1369 40.7336 82.214C44.5223 79.7854 42.9194 80.854 46.4652 83.7683C49.0396 85.9055 54.0426 88.8198 55.6941 84.1083C56.5199 81.7283 55.4027 76.4825 56.0827 75.3167C56.5684 74.3939 60.7457 72.1595 61.9601 71.431C64.583 69.9252 64.9716 70.2166 66.7202 72.3052C67.7888 73.6167 68.9546 74.831 70.0232 76.2882C70.849 77.4053 70.8975 78.1339 70.2175 79.9311C69.3918 81.9711 67.9831 85.2255 68.2746 87.7512C68.7117 91.4913 71.8204 90.4713 74.2005 89.2084C75.3177 88.577 76.192 88.0912 77.2606 87.4112C80.7093 85.2255 80.3693 85.7598 81.7779 87.4598L85.2752 91.2484C85.9552 91.8799 87.0724 92.8513 88.141 93.2399C90.0839 93.9199 90.3754 92.997 90.8611 91.5399C91.8811 88.3827 91.784 84.4969 92.9012 83.8655C94.5527 82.9426 96.8356 82.214 99.4585 80.6597C100.916 79.7854 104.753 77.2596 101.596 75.511C99.75 74.491 96.787 73.3738 94.5527 72.8395C92.5612 72.3538 92.8526 71.9652 92.3669 70.1195C91.5897 67.1566 89.9382 61.5222 88.1896 59.5307C86.1495 57.1993 85.4209 58.4136 82.7008 61.1822L80.175 63.5622C79.4464 64.388 78.5721 65.2623 77.8435 66.1366C76.872 67.3509 76.5806 67.6909 74.3948 67.6423C73.0347 67.6423 71.6261 67.108 70.3632 66.768C67.0117 65.9423 61.8629 64.728 58.4142 64.0965C54.2369 63.368 53.7026 64.0965 52.3912 60.405C51.614 58.2193 50.6425 55.5478 49.5253 53.5564C48.9425 52.5363 48.651 50.982 47.0481 51.3706H46.9995Z" fill="#8EBBE5"/>
<path fill-rule="evenodd" clip-rule="evenodd" d="M34.0303 113.397C34.8561 115.195 33.7875 115.777 38.1105 122.675C43.8421 131.806 54.0911 137.246 65.5058 133.263C70.1202 131.661 76.3861 127.386 79.3491 123.743C79.8834 123.112 80.5149 122.578 80.952 121.898C81.8749 120.537 81.0977 121.023 82.9921 120.683C85.7122 120.197 87.7037 118.983 89.3552 116.895C89.8895 116.263 90.2781 115.68 90.7638 115C91.1524 114.466 92.0267 113.3 91.201 112.523C90.2295 111.6 89.5009 112.912 89.258 113.349C88.8694 114.029 88.238 114.806 87.8008 115.34C85.615 118.157 82.8949 119.129 77.9405 118.643C69.5373 117.769 59.7256 112.669 44.3279 111.794C40.0048 111.552 36.1676 111.794 32.0874 110.726C28.5416 109.803 25.9186 108.346 24.2671 105.043C24.0728 104.654 23.5385 102.76 23.3443 102.663C22.6642 102.177 22.1785 103.343 22.4214 104.752C23.1014 108.492 25.4815 110.483 28.7359 111.892C31.3588 113.009 31.9417 112.766 33.9332 113.397H34.0303Z" fill="#864322"/>
<path fill-rule="evenodd" clip-rule="evenodd" d="M69.7317 25.1417C72.7918 24.9474 74.589 28.4446 72.4032 30.6304C71.6746 31.359 69.9259 32.1361 68.5659 31.6018C67.5944 31.2132 66.7201 29.9989 66.5744 28.6875C65.8944 29.1732 65.3115 30.0961 64.7286 30.7275C64.34 31.1161 64.2429 31.359 63.8543 31.7475C63.4657 32.1361 63.2714 32.379 62.9314 32.9133C64.34 33.8847 64.4858 36.8476 63.32 38.1105C62.0571 39.4705 59.8227 39.8105 58.1227 38.6448C57.4912 39.1791 54.5768 42.7734 54.2368 43.5506L54.7711 44.6192C55.7912 44.0363 57.3941 41.1706 61.3771 44.2306C61.5228 42.9192 63.0771 41.6077 64.68 41.6563C66.3801 41.7048 67.5459 42.9192 67.643 44.5706C68.0316 44.9106 68.4688 45.0563 68.9059 45.4449C69.3916 45.8821 69.5374 46.1735 69.9745 46.7078C72.1117 45.5906 72.5975 44.9592 75.7062 46.1249C76.289 45.2992 77.9405 44.8135 79.2034 45.1535C80.3692 45.4449 81.3892 46.4164 81.5835 47.5335C84.2065 47.9707 84.3522 48.7964 85.3236 49.9136C85.7122 49.6221 85.9551 49.3307 86.4894 48.9907C87.1208 48.6021 87.6066 48.6992 88.1409 48.3107C88.2866 47.7278 87.8494 44.4735 87.6066 43.8906C86.2951 44.3278 85.4694 44.522 84.255 43.842C83.4779 43.4049 82.6521 42.5306 82.4093 41.4134C81.7778 38.6934 84.4493 37.3333 86.9751 37.4791L86.3437 31.0675C85.8094 31.9418 85.4208 34.079 82.9921 34.3219C79.3491 34.6133 77.2605 29.5132 81.4378 27.5703C84.1579 26.3074 85.2751 27.9103 86.0522 28.6389C86.0522 26.5017 85.6151 23.5874 85.4208 21.4016C85.1779 19.0216 84.8865 16.6416 84.595 14.3101C82.9921 14.1644 82.8464 13.7758 81.7292 13.4358C78.912 15.3787 74.8804 19.313 72.5489 21.9845C72.0146 22.5674 71.7717 22.9074 71.0917 23.5388C70.5574 24.0731 70.2174 24.6074 69.6831 25.1417H69.7317Z" fill="#E64F0A"/>
<path fill-rule="evenodd" clip-rule="evenodd" d="M79.8347 88.5284C79.0576 88.8684 78.5232 89.1599 78.1347 89.4513C76.8718 90.0342 75.6089 91.0056 74.1031 91.637C72.2573 92.4628 71.1401 92.8513 68.9058 92.2685C69.3429 92.8999 70.1201 93.5799 70.8487 94.1628C73.7145 96.3 75.026 96.7857 78.0375 98.4372C79.689 99.36 80.4176 99.4572 83.0405 101.06C88.335 104.217 91.638 106.209 95.3781 111.649C96.9811 113.932 99.3611 119.323 99.5069 122.869C100.964 121.412 102.178 116.457 102.664 114.369C104.413 106.209 102.956 89.8399 102.47 81.3397C102.033 81.4369 101.158 82.1654 100.575 82.5055C98.6325 83.6712 96.3496 84.5941 94.261 85.6627C93.8724 87.897 93.6295 89.937 92.998 91.977C92.318 94.0657 91.638 95.7171 89.0636 95.62C86.0521 95.5228 83.0405 92.4628 81.2433 90.2285C80.8548 89.6942 80.3205 88.9656 79.7861 88.5284H79.8347Z" fill="#C7C8C2"/>
<path fill-rule="evenodd" clip-rule="evenodd" d="M85.3722 61.6679C84.255 62.1536 80.8549 65.9423 79.8349 67.108C79.4463 67.5937 79.2034 67.8366 78.7177 68.3223C78.0863 69.0023 77.5519 70.1681 75.9976 70.1195C73.8604 70.0223 70.946 68.5166 68.8088 68.468C67.1573 68.468 67.2544 70.1681 67.983 71.1881C69.2459 72.9367 70.7031 74.5881 71.8203 76.0939C72.5975 77.211 72.7918 77.9882 72.306 79.5425C71.7232 81.3397 70.1688 84.3026 70.0231 86.1483C69.7317 89.7427 74.0061 86.9741 75.2204 86.3426C76.289 85.8083 77.0662 85.3226 77.9891 84.6912C80.9521 82.6026 79.8835 83.2826 83.8179 87.4112C84.2065 87.7998 84.5951 88.1398 84.9351 88.577C85.5665 89.3541 89.0638 93.4342 89.5981 89.7913C89.7924 88.4798 89.7438 87.1198 89.8895 85.7598C90.1324 83.9626 89.8895 83.2826 91.1039 82.554C93.8725 80.854 104.461 78.3768 97.3212 75.8996C95.524 75.2682 91.5896 74.3453 90.861 73.471C90.1324 72.5481 89.2581 68.3223 88.7723 66.8166C88.238 65.1165 87.1209 60.9393 85.2265 61.7651L85.3722 61.6679Z" fill="#5A8CC6"/>
<path fill-rule="evenodd" clip-rule="evenodd" d="M37.3333 63.6594C35.5846 63.6594 32.1845 63.1736 30.873 63.9994C30.9702 65.6023 34.8075 70.0709 35.7304 71.1881C37.139 72.9852 34.3217 77.1624 35.0989 81.5825C37.2847 81.4368 42.5306 76.3367 44.5707 77.8425C44.8135 78.0368 45.2021 78.4739 45.445 78.6682L48.1651 81.0968C48.748 81.6311 51.4681 83.914 52.6824 83.3311C54.091 81.3397 51.8081 74.1024 53.411 72.7424C53.9939 72.2081 58.7055 69.7309 60.1141 68.9537L61.0856 68.2737C60.8913 67.9823 61.0856 68.128 60.6484 67.9337C60.5027 67.8851 60.1141 67.788 59.9684 67.7394C58.3655 67.3994 57.5397 67.3994 55.6454 66.9137C49.8166 65.408 51.0795 66.428 48.9908 60.1136C48.6508 59.045 47.5822 55.9849 47.0965 55.3049C45.6393 55.3049 43.2106 58.365 42.3363 59.4821C41.8506 60.1136 39.7619 62.7851 39.1305 63.1736C38.7905 63.3679 37.7704 63.6594 37.3819 63.6594H37.3333Z" fill="#FFEB7C"/>
<path fill-rule="evenodd" clip-rule="evenodd" d="M37.3336 64.2909C36.8964 64.2909 36.3621 64.2909 35.7307 64.2423C34.2735 64.1452 32.5734 64.0966 31.6019 64.388C32.0877 65.7966 34.4678 68.6624 35.6335 70.1195C35.8764 70.411 36.0221 70.6053 36.1678 70.7996C37.0907 71.9653 36.7021 73.6168 36.1678 75.6082C35.7792 77.1625 35.3906 78.9597 35.5364 80.8054C36.265 80.514 37.285 79.8826 38.305 79.2511C40.6851 77.794 43.2595 76.1911 44.8138 77.3083C45.0081 77.454 45.251 77.6968 45.4453 77.8911C45.5424 77.9883 45.6396 78.0854 45.7367 78.1825L48.4568 80.6112C48.7968 80.9026 49.9626 81.9226 51.0798 82.4569C51.5169 82.6512 51.9055 82.7969 52.1484 82.7969C52.5855 81.9226 52.3913 79.9312 52.2455 77.9883C52.0512 75.5597 51.8084 73.1796 52.877 72.2567C53.3141 71.8682 55.6457 70.6053 57.54 69.5367C58.4143 69.051 59.1915 68.6624 59.5801 68.4195H59.6287C59.0458 68.2252 58.56 68.1767 58.0743 68.0795C57.2486 67.9338 56.4714 67.8367 55.2571 67.4967C54.6256 67.3509 54.0427 67.2052 53.557 67.0595C51.7598 66.6224 50.8855 66.4281 50.254 65.748C49.6712 65.1166 49.3797 64.2909 48.894 62.6394C48.6997 62.008 48.4568 61.2794 48.1168 60.2594C47.9225 59.7251 47.5825 58.6565 47.2425 57.7336C46.9996 57.0536 46.7082 56.3736 46.5139 55.985C46.0282 56.1793 45.3481 56.7622 44.7167 57.3936C43.8424 58.2679 43.0166 59.2879 42.628 59.8222C42.3366 60.2108 41.3651 61.4737 40.5394 62.3966C40.0051 62.9794 39.5679 63.4652 39.2279 63.6594C38.9851 63.8052 38.5965 63.9509 38.2079 64.048C37.8193 64.1452 37.3821 64.2423 37.1393 64.2423L37.3336 64.2909ZM35.7792 62.9309C36.3135 62.9309 36.8478 62.9794 37.285 62.9794C37.7222 62.9794 37.7222 62.9309 38.0136 62.8337C38.305 62.7366 38.5965 62.6394 38.6936 62.5908C38.8393 62.4937 39.2279 62.1051 39.6651 61.5708C40.4908 60.648 41.4137 59.4337 41.7052 59.0451C42.1423 58.4622 42.9681 57.3936 43.891 56.4707C44.911 55.4507 46.0282 54.625 46.9511 54.625H47.2425L47.4368 54.8679C47.7282 55.2564 48.1654 56.2279 48.554 57.2965C48.9426 58.3165 49.2826 59.3365 49.4769 59.8708C49.7683 60.7451 50.0112 61.6194 50.254 62.2994C50.6912 63.7566 50.9341 64.4852 51.2741 64.8738C51.6627 65.2623 52.4398 65.4566 53.9456 65.8452C54.4313 65.9423 55.0142 66.0881 55.6457 66.2823C56.8114 66.5738 57.54 66.7195 58.3172 66.8166C58.8029 66.9138 59.3372 66.9624 59.9201 67.1081C60.0172 67.1081 60.2115 67.1566 60.4058 67.2052C60.5515 67.2052 60.6973 67.3024 60.7944 67.3509C60.8916 67.3995 60.9401 67.4481 60.9887 67.4481C61.0858 67.4481 61.1344 67.4967 61.183 67.5938C61.3287 67.6909 61.3287 67.7881 61.3773 67.8852L61.7173 68.4195L61.183 68.8081L60.2115 69.4881C59.7258 69.7795 58.9486 70.1681 58.0743 70.6538C56.2285 71.6739 53.9942 72.8882 53.6056 73.1796C53.0713 73.6653 53.217 75.7054 53.4113 77.8426C53.6056 80.1254 53.7999 82.5055 52.9741 83.6712L52.877 83.8169L52.7313 83.9141C52.0512 84.2541 51.2255 84.0112 50.3998 83.6226C49.1854 82.9912 47.8739 81.9226 47.4854 81.5826L44.7653 79.154C44.6681 79.0569 44.5224 78.9111 44.4253 78.814C44.2795 78.6197 44.0852 78.474 43.9395 78.3768C43.0652 77.7454 40.8308 79.1054 38.8393 80.3197C37.3336 81.2426 35.9249 82.1169 34.8563 82.2141H34.2735L34.1763 81.6798C33.7877 79.3483 34.322 77.1625 34.7592 75.3168C35.1478 73.6653 35.4878 72.2567 34.9535 71.6253C34.8563 71.4796 34.6621 71.2367 34.4192 70.9453C33.0106 69.1967 30.0476 65.6023 29.999 64.048V63.6594L30.2905 63.4652C31.4562 62.7851 33.6906 62.8823 35.5364 62.9794L35.7792 62.9309Z" fill="#5A8CC6"/>
<path fill-rule="evenodd" clip-rule="evenodd" d="M88.8694 56.9563C89.4522 57.8792 90.0351 58.1221 90.958 59.7735C92.7552 62.785 93.5324 66.6708 94.5524 70.0709C94.8439 71.0909 95.621 70.7994 98.3411 71.7709C99.4097 72.1595 100.916 72.9366 101.838 73.1795C101.936 69.5366 100.673 67.7394 103.053 65.6022C104.947 63.9507 105.579 63.9022 108.056 61.425C111.602 57.9278 113.156 53.9449 109.804 48.5048C106.744 43.5504 101.401 44.4733 97.1754 47.0962C96.2039 47.679 95.281 48.4076 94.6496 49.1362C94.2124 49.6219 92.8524 51.0791 92.8038 51.7591C92.8038 53.362 92.9009 54.1391 91.9781 55.3535C91.3466 56.1306 90.278 56.8106 88.8208 57.0049L88.8694 56.9563Z" fill="#C7C8C2"/>
<path fill-rule="evenodd" clip-rule="evenodd" d="M68.6628 69.4881C68.6142 70.4596 69.2457 70.8481 69.6828 71.431C70.8 72.8396 73.2287 75.6568 73.6173 77.0654C74.3459 79.7369 70.7029 84.6427 71.0429 86.9741C72.5972 86.8284 76.7259 84.1569 78.2803 83.1369C80.0775 81.9712 80.7089 81.7283 82.7976 84.3998C83.2347 84.9827 84.0119 85.9055 84.5462 86.3913C85.5663 87.2656 87.1206 89.6456 88.4807 90.0828C88.7235 88.4313 88.7235 86.6341 88.9664 84.9341C89.1607 83.3798 88.9664 83.6226 89.695 82.7483C90.2293 82.1169 90.3264 81.7283 91.055 81.2912C92.3179 80.514 98.1467 78.6197 98.681 77.5997C98.001 77.0168 94.8437 76.0939 93.6294 75.7539C91.3465 75.0739 90.375 75.0254 89.5493 72.9853C88.4807 70.3624 87.6549 64.1452 85.9063 62.7366C84.7891 62.8823 80.3204 68.2252 79.0575 69.6338C77.5517 71.2853 76.9688 71.5281 74.103 70.8481C72.7429 70.5081 69.8771 69.5367 68.6628 69.5367V69.4881Z" fill="#FFEB7C"/>
<path fill-rule="evenodd" clip-rule="evenodd" d="M46.6595 128.601C47.4366 127.192 46.9995 127.386 48.4567 125.638C50.5939 123.063 54.8198 121.315 58.7056 121.363C65.0201 121.363 69.1488 123.889 72.6461 126.803C73.9576 126.172 78.4749 121.898 78.9121 120.878C74.8805 120.586 72.1604 119.76 68.566 118.74C57.5399 115.632 47.8738 113.689 35.9248 113.64C36.5077 115.777 39.0821 120.149 40.345 122.043C41.5107 123.84 44.8137 127.872 46.6595 128.649V128.601Z" fill="#CC7F74"/>
<path fill-rule="evenodd" clip-rule="evenodd" d="M36.4592 58.2192C37.0907 58.1706 36.9935 57.9278 37.8193 56.9563L41.4137 52.7791C42.8709 51.1276 44.4252 49.1362 47.9711 49.039C47.3396 47.5333 45.9796 44.7161 48.6511 42.8218C49.4768 42.2389 49.914 42.3846 50.7397 41.996C50.6426 40.4903 49.8169 38.256 49.1854 37.0417C46.9996 32.6702 40.588 32.233 36.7021 37.0417C34.4192 39.9074 33.982 42.7732 34.2734 47.339C34.4192 49.3305 34.662 51.1276 35.0992 52.9734C35.7306 55.402 36.7021 54.8191 36.4592 58.1706V58.2192Z" fill="#C7C8C2"/>
<path fill-rule="evenodd" clip-rule="evenodd" d="M17.8555 98.6315C17.8555 98.6315 17.904 98.4858 17.9526 98.5344L18.4869 97.8543C18.7298 97.6115 18.9241 97.4658 19.1184 97.2229C20.6241 95.6686 21.8385 94.7943 23.9271 94.0171C28.2016 92.4143 36.799 92.1228 42.3849 91.1028C44.4736 90.7142 46.8051 90.1314 48.7966 89.4514C49.5252 89.2085 50.0109 88.8199 50.7395 88.577C50.108 88.237 49.1366 87.897 48.5051 87.6056C47.7765 87.2656 47.1451 86.877 46.5136 86.4399C45.5422 85.7599 43.5507 84.2055 43.1621 83.3798C42.5306 83.5255 41.2677 84.4484 40.5877 84.7884C38.2076 86.0999 34.2732 88.237 31.7474 87.1684C27.6187 85.4198 29.9016 77.6969 30.0473 74.9768C29.0759 76.4825 28.2501 78.3769 26.7929 80.5626C23.4414 85.6627 18.9727 92.2685 17.904 98.6315H17.8555Z" fill="#C7C8C2"/>
<path fill-rule="evenodd" clip-rule="evenodd" d="M48.0679 129.621C48.9422 130.446 51.7594 131.466 53.2166 131.758C57.4911 132.729 61.9598 132.292 65.9914 130.738C67.2057 130.252 69.8772 128.941 70.703 128.163C70.0715 127.192 67.1086 125.589 65.6514 124.958C61.5712 123.16 56.1796 122.966 52.1966 125.395C51.4194 125.88 50.3994 126.706 49.9137 127.241C49.3308 127.823 48.4565 128.795 48.1164 129.572L48.0679 129.621Z" fill="#F3AAB8"/>
<path fill-rule="evenodd" clip-rule="evenodd" d="M62.9799 62.7852C63.2713 61.4252 64.0971 59.288 64.6314 58.0251C64.9714 57.1994 65.2628 56.568 65.6028 55.8394C65.9914 55.0622 66.4286 54.4308 66.8172 53.6536C64.1456 54.0422 62.5427 52.6822 61.9113 50.6907C61.1341 51.1764 60.0169 52.8765 57.1997 52.245C55.4025 51.8565 54.8196 50.545 54.2367 48.8936C53.3138 49.9621 52.4881 50.6907 50.4966 50.6422C50.9823 51.905 51.9052 53.4108 52.5367 54.7708C55.8396 61.8138 53.4595 61.2795 57.8311 61.8623C59.5798 62.1052 61.2798 62.4938 63.0285 62.8824L62.9799 62.7852Z" fill="#C7C8C2"/>
<path fill-rule="evenodd" clip-rule="evenodd" d="M72.7917 54.965L73.7146 55.2564C73.2774 56.7621 72.646 58.4622 72.1117 59.9679C71.8202 60.8422 70.9459 64.048 70.3145 64.4366C71.4802 64.9223 74.4432 65.6994 75.5604 65.1166C76.0461 64.8737 78.329 62.3479 78.8148 61.7651C79.8348 60.5993 81.0977 59.725 82.1177 58.6079C83.0406 57.6364 84.2064 56.325 86.1007 55.985C84.0121 53.5564 84.255 56.3736 81.4377 56.4707C80.3205 56.4707 79.3491 56.1793 78.7176 55.5964C77.7461 54.7221 77.9404 54.2849 77.309 53.4106C75.7061 54.2849 75.4632 55.1107 72.7917 54.8678V54.965Z" fill="#C7C8C2"/>
<path fill-rule="evenodd" clip-rule="evenodd" d="M66.8173 53.6048C66.4287 54.4306 65.9915 55.0134 65.6029 55.7906C65.2629 56.5192 64.9229 57.1506 64.6315 57.9763C64.0972 59.2878 63.2714 61.3764 62.98 62.7364L70.3631 64.4364C70.946 63.9993 71.8689 60.7935 72.1603 59.9678C72.6946 58.4621 73.2775 56.762 73.7632 55.2563L72.8403 54.9649C71.0431 54.5763 69.8288 53.6048 69.3431 51.9534C68.8573 52.1962 68.663 52.5362 68.1773 52.9248C67.6916 53.2648 67.3516 53.362 66.8658 53.6048H66.8173Z" fill="#FBDACF"/>
<path fill-rule="evenodd" clip-rule="evenodd" d="M72.6948 34.8075C70.8005 35.2933 69.6347 37.479 70.0233 39.2276C70.4119 41.0248 72.2091 42.2877 74.3949 41.7048C78.815 40.5391 77.9407 33.4475 72.6948 34.8075Z" fill="#F0895E"/>
<path fill-rule="evenodd" clip-rule="evenodd" d="M86.3437 31.0188L86.1008 28.5902C85.3236 27.8616 84.2065 26.2587 81.4864 27.5216C77.3576 29.4159 79.3977 34.5646 83.0407 34.2732C85.4694 34.0789 85.8579 31.9417 86.3922 31.0188H86.3437Z" fill="#F0895E"/>
<path fill-rule="evenodd" clip-rule="evenodd" d="M83.9148 5.46977C81.9233 6.10121 81.2919 7.80125 81.5347 9.79271C81.6804 10.7642 83.6719 12.4642 85.8092 11.9785C86.4406 11.8327 87.4606 11.007 87.7521 10.6184C89.015 8.72412 87.2178 4.40119 83.9148 5.42121V5.46977Z" fill="#FFEB7C"/>
<path fill-rule="evenodd" clip-rule="evenodd" d="M79.2522 16.8843C77.7464 17.1757 76.3378 18.7786 76.1921 20.43C76.0463 22.4215 77.6978 23.6844 79.7379 23.4901C84.2552 23.0044 83.3323 16.0585 79.2522 16.8843Z" fill="#F0895E"/>
<path fill-rule="evenodd" clip-rule="evenodd" d="M82.0693 73.0823C78.6692 73.7138 77.552 78.3767 78.6692 79.251C80.6607 80.8539 79.9806 76.1424 82.1179 75.3167C82.8465 75.0252 83.5751 75.2195 84.0122 75.8024C85.0322 77.2596 83.9151 79.1053 84.1094 80.271C84.2065 80.8053 85.9551 82.6025 86.4894 78.8624C86.9752 75.3167 85.3723 72.4995 82.1179 73.1309L82.0693 73.0823Z" fill="#AB973A"/>
<path fill-rule="evenodd" clip-rule="evenodd" d="M66.5742 28.6873C66.6714 30.0474 67.5943 31.2617 68.5657 31.6017C69.9258 32.136 71.6744 31.3588 72.403 30.6302C74.5888 28.4445 72.7916 24.9473 69.7315 25.1416C69.1 25.6758 68.76 26.2587 68.1771 26.8416C67.8371 27.1816 66.8657 28.2988 66.5742 28.6873Z" fill="#F0895E"/>
<path fill-rule="evenodd" clip-rule="evenodd" d="M43.5995 65.6996C41.948 66.1367 41.5594 66.4767 40.7337 67.6424C40.2479 68.2739 39.2279 70.0711 39.9079 70.9939C40.2479 71.4797 40.9765 71.5768 41.4623 71.0911C41.948 70.6053 42.0937 68.711 43.308 68.0796C46.4167 66.3796 45.1053 71.5768 45.3967 72.1111C45.6396 72.5968 47.291 73.5683 47.6311 70.7996C48.0196 67.3996 46.1739 65.0195 43.6481 65.6996H43.5995Z" fill="#AB973A"/>
<path fill-rule="evenodd" clip-rule="evenodd" d="M87.6551 43.8904L86.9751 37.4303C84.4493 37.2846 81.7778 38.6446 82.4092 41.3646C82.6521 42.4818 83.4778 43.3561 84.255 43.7932C85.4693 44.4733 86.3437 44.279 87.6066 43.8418L87.6551 43.8904Z" fill="#F0895E"/>
<path fill-rule="evenodd" clip-rule="evenodd" d="M58.1226 38.596C59.8226 39.7618 62.057 39.4218 63.3199 38.0617C64.4856 36.7989 64.3399 33.8359 62.9313 32.8645C62.6399 33.0588 58.4626 38.0132 58.1226 38.596Z" fill="#F0895E"/>
<path fill-rule="evenodd" clip-rule="evenodd" d="M72.6944 47.8733C71.82 48.3591 70.9457 49.7677 71.3829 51.2734C71.7229 52.4877 73.1801 53.2163 74.6859 52.5849C78.2803 50.982 74.8316 46.659 72.6944 47.8733Z" fill="#C3E5EE"/>
<path fill-rule="evenodd" clip-rule="evenodd" d="M57.2968 45.1047C55.3053 46.4647 56.2767 51.5648 59.434 49.8162C60.3569 49.3305 60.9883 47.679 60.3083 46.4161C59.9683 45.7361 58.4625 44.3275 57.2968 45.1047Z" fill="#C3E5EE"/>
<path fill-rule="evenodd" clip-rule="evenodd" d="M65.3602 46.4162C62.6401 47.3877 63.8059 52.7306 66.526 51.322C69.5375 49.8163 67.886 45.4934 65.3602 46.4162Z" fill="#F3AAB8"/>
<path fill-rule="evenodd" clip-rule="evenodd" d="M80.2719 49.9135C79.7376 50.1564 80.1262 49.7192 79.6891 50.4478C78.5719 52.4393 80.2719 55.5479 82.4577 53.945C84.8378 52.1964 82.992 48.7964 80.2719 49.9621V49.9135Z" fill="#F3AAB8"/>
<path fill-rule="evenodd" clip-rule="evenodd" d="M61.4255 44.1818C61.6684 44.4733 61.8141 44.619 62.057 45.0076C62.2027 45.2504 62.3484 45.5904 62.5427 45.8819C64.2428 44.5704 64.1456 43.6475 67.6429 44.5218C67.5457 42.8704 66.38 41.6561 64.6799 41.6075C63.077 41.5589 61.5227 42.8704 61.377 44.1818H61.4255Z" fill="#F0895E"/>
<path fill-rule="evenodd" clip-rule="evenodd" d="M73.4234 102.323C72.0634 102.663 68.4204 104.169 68.5175 105.674C68.6147 106.597 69.5376 106.84 70.3147 106.306C71.5776 105.431 72.0634 104.946 73.9092 104.411C76.2407 103.78 75.4635 101.74 73.4234 102.274V102.323Z" fill="#864322"/>
<path fill-rule="evenodd" clip-rule="evenodd" d="M88.9668 50.4962C87.6554 50.7391 86.781 51.0305 86.6839 52.4391C86.441 55.3049 90.4726 55.6449 90.7155 52.8277C90.8126 51.6619 89.9383 50.3019 88.9668 50.4962Z" fill="#C3E5EE"/>
<path fill-rule="evenodd" clip-rule="evenodd" d="M75.7549 46.1248C76.2892 46.5619 76.6292 46.7562 77.1149 47.2419C77.9892 48.1648 77.795 48.3105 78.1835 48.6991C79.0093 48.1162 79.6407 47.3391 81.6322 47.4848C81.4865 46.3191 80.4179 45.3476 79.2522 45.1048C77.9893 44.8133 76.3378 45.2505 75.7549 46.0762V46.1248Z" fill="#F0895E"/>
<path fill-rule="evenodd" clip-rule="evenodd" d="M50.2539 44.4733C47.971 45.6391 49.7196 49.3791 51.7597 48.1648C52.3426 47.8248 53.1197 46.7077 52.7311 45.5905C52.294 44.3276 51.0311 44.0848 50.3025 44.4733H50.2539Z" fill="#F3AAB8"/>
<path fill-rule="evenodd" clip-rule="evenodd" d="M41.1707 99.1657C40.4421 99.5057 40.7335 100.234 41.1221 100.72C41.9479 101.886 43.6479 104.654 44.9108 103.926C46.2709 103.149 44.1822 101.4 43.8908 101.109C43.4536 100.671 41.9964 98.7771 41.1707 99.1657Z" fill="#864322"/>
<path fill-rule="evenodd" clip-rule="evenodd" d="M66.3799 83.914L67.8371 79.9796C67.9828 79.6882 68.5171 78.3282 68.5171 78.1339C68.5171 77.7939 68.3228 77.5996 68.0799 77.3567C67.9342 77.1625 67.9342 77.1625 67.7885 76.9682L67.3999 76.5796L66.3799 83.9626V83.914Z" fill="#C7C8C2"/>
<path d="M40.41 152.21H55.05V155.66H40.41V152.21ZM48 161.57H51.69V174.53C51.69 175.47 51.57 176.21 51.33 176.75C51.11 177.31 50.67 177.73 50.01 178.01C49.35 178.27 48.54 178.43 47.58 178.49C46.62 178.57 45.47 178.61 44.13 178.61C44.05 178.09 43.9 177.47 43.68 176.75C43.48 176.05 43.26 175.45 43.02 174.95C43.6 174.97 44.18 174.99 44.76 175.01C45.34 175.03 45.86 175.04 46.32 175.04C46.78 175.02 47.1 175.01 47.28 175.01C47.56 175.01 47.75 174.97 47.85 174.89C47.95 174.79 48 174.64 48 174.44V161.57ZM39.12 160.55H55.83V163.97H39.12V160.55ZM32.37 164.09L35.52 160.91L35.97 161.09V178.73H32.37V164.09ZM35.76 157.04L39.18 158.36C38.4 159.68 37.49 161.01 36.45 162.35C35.43 163.67 34.35 164.92 33.21 166.1C32.09 167.28 30.99 168.31 29.91 169.19C29.75 168.93 29.52 168.61 29.22 168.23C28.92 167.83 28.61 167.43 28.29 167.03C27.99 166.63 27.71 166.31 27.45 166.07C28.49 165.35 29.52 164.51 30.54 163.55C31.56 162.57 32.52 161.53 33.42 160.43C34.32 159.31 35.1 158.18 35.76 157.04ZM34.62 150.5L38.1 151.94C37.36 152.88 36.53 153.84 35.61 154.82C34.69 155.78 33.73 156.7 32.73 157.58C31.73 158.46 30.75 159.23 29.79 159.89C29.65 159.61 29.46 159.29 29.22 158.93C28.98 158.55 28.73 158.18 28.47 157.82C28.23 157.46 28 157.16 27.78 156.92C28.62 156.4 29.47 155.77 30.33 155.03C31.19 154.29 32 153.53 32.76 152.75C33.52 151.95 34.14 151.2 34.62 150.5ZM58.35 154.97H85.65V158.24H58.35V154.97ZM61.92 165.17H69.69V167.84H61.92V165.17ZM61.92 169.79H69.69V172.43H61.92V169.79ZM74.49 160.61H77.79V172.91H74.49V160.61ZM68.46 160.28H71.91V175.16C71.91 175.9 71.82 176.5 71.64 176.96C71.46 177.42 71.12 177.78 70.62 178.04C70.1 178.3 69.49 178.46 68.79 178.52C68.11 178.58 67.31 178.61 66.39 178.61C66.29 178.15 66.13 177.62 65.91 177.02C65.71 176.44 65.49 175.95 65.25 175.55C65.79 175.57 66.33 175.59 66.87 175.61C67.41 175.61 67.77 175.6 67.95 175.58C68.13 175.58 68.26 175.54 68.34 175.46C68.42 175.38 68.46 175.26 68.46 175.1V160.28ZM80.49 159.77H84.03V174.74C84.03 175.62 83.92 176.3 83.7 176.78C83.5 177.28 83.11 177.68 82.53 177.98C81.95 178.24 81.25 178.41 80.43 178.49C79.61 178.57 78.65 178.6 77.55 178.58C77.47 178.1 77.3 177.53 77.04 176.87C76.8 176.21 76.54 175.65 76.26 175.19C77.04 175.23 77.77 175.25 78.45 175.25C79.15 175.25 79.62 175.24 79.86 175.22C80.1 175.22 80.26 175.19 80.34 175.13C80.44 175.05 80.49 174.91 80.49 174.71V159.77ZM62.49 151.67L65.91 150.47C66.45 151.07 66.99 151.73 67.53 152.45C68.07 153.17 68.47 153.82 68.73 154.4L65.07 155.66C64.87 155.12 64.52 154.47 64.02 153.71C63.54 152.95 63.03 152.27 62.49 151.67ZM77.91 150.41L81.81 151.58C81.21 152.54 80.59 153.48 79.95 154.4C79.33 155.3 78.75 156.08 78.21 156.74L74.97 155.63C75.33 155.15 75.69 154.61 76.05 154.01C76.41 153.41 76.75 152.8 77.07 152.18C77.41 151.54 77.69 150.95 77.91 150.41ZM60 160.28H69.45V163.31H63.39V178.52H60V160.28ZM28.23 190.07H39.63V193.52H28.23V190.07ZM32.04 191.63H35.61V206.57H32.04V191.63ZM27.72 206.03C28.72 205.85 29.88 205.62 31.2 205.34C32.54 205.04 33.96 204.72 35.46 204.38C36.98 204.02 38.48 203.67 39.96 203.33L40.35 206.54C38.31 207.1 36.25 207.67 34.17 208.25C32.09 208.81 30.22 209.32 28.56 209.78L27.72 206.03ZM42.27 191.84H56.01V195.29H42.27V191.84ZM43.02 186.44L46.56 187.16C46.1 189.04 45.54 190.88 44.88 192.68C44.24 194.48 43.52 196.15 42.72 197.69C41.94 199.23 41.09 200.58 40.17 201.74C39.97 201.54 39.68 201.3 39.3 201.02C38.92 200.74 38.53 200.47 38.13 200.21C37.73 199.95 37.39 199.74 37.11 199.58C38.03 198.56 38.86 197.36 39.6 195.98C40.34 194.58 41 193.07 41.58 191.45C42.16 189.81 42.64 188.14 43.02 186.44ZM50.25 194.09L53.94 194.66C53.44 197.34 52.76 199.74 51.9 201.86C51.04 203.98 49.97 205.86 48.69 207.5C47.41 209.12 45.88 210.53 44.1 211.73C42.34 212.91 40.29 213.91 37.95 214.73C37.85 214.43 37.68 214.07 37.44 213.65C37.22 213.25 36.98 212.84 36.72 212.42C36.46 212 36.23 211.66 36.03 211.4C38.91 210.52 41.3 209.34 43.2 207.86C45.12 206.36 46.64 204.48 47.76 202.22C48.9 199.96 49.73 197.25 50.25 194.09ZM43.95 194.48C44.49 197.18 45.28 199.65 46.32 201.89C47.36 204.13 48.71 206.07 50.37 207.71C52.03 209.33 54.07 210.58 56.49 211.46C56.23 211.7 55.94 212.01 55.62 212.39C55.3 212.77 54.99 213.16 54.69 213.56C54.41 213.98 54.18 214.36 54 214.7C51.4 213.62 49.23 212.15 47.49 210.29C45.75 208.43 44.34 206.23 43.26 203.69C42.18 201.13 41.29 198.27 40.59 195.11L43.95 194.48ZM60.87 188.27H69.51V208.79H60.87V205.7H66.78V191.36H60.87V188.27ZM59.04 188.27H61.68V211.25H59.04V188.27ZM60.48 196.73H68.16V199.67H60.48V196.73ZM73.35 210.56H82.62V213.71H73.35V210.56ZM74.25 189.47H82.26V192.47H74.25V189.47ZM63.09 190.1H65.31V207.05H63.09V190.1ZM71.28 203.54H84.27V214.64H80.79V206.66H74.61V214.67H71.28V203.54ZM81.48 189.47H82.11L82.71 189.32L85.05 190.49C84.41 192.25 83.58 193.88 82.56 195.38C81.56 196.86 80.42 198.21 79.14 199.43C77.88 200.65 76.52 201.74 75.06 202.7C73.6 203.64 72.09 204.45 70.53 205.13C70.31 204.69 69.99 204.2 69.57 203.66C69.17 203.1 68.79 202.65 68.43 202.31C69.85 201.79 71.23 201.12 72.57 200.3C73.91 199.48 75.16 198.54 76.32 197.48C77.48 196.42 78.5 195.27 79.38 194.03C80.28 192.77 80.98 191.46 81.48 190.1V189.47ZM74.64 186.44L78.06 187.4C77.52 188.72 76.87 190.01 76.11 191.27C75.35 192.51 74.53 193.66 73.65 194.72C72.77 195.78 71.87 196.71 70.95 197.51C70.77 197.27 70.52 196.99 70.2 196.67C69.88 196.35 69.55 196.04 69.21 195.74C68.87 195.42 68.57 195.16 68.31 194.96C69.65 193.98 70.88 192.74 72 191.24C73.12 189.72 74 188.12 74.64 186.44ZM74.55 191.66C75.21 192.92 76.11 194.21 77.25 195.53C78.41 196.83 79.79 198.03 81.39 199.13C83.01 200.23 84.81 201.1 86.79 201.74C86.55 201.96 86.28 202.25 85.98 202.61C85.68 202.97 85.4 203.34 85.14 203.72C84.88 204.1 84.66 204.45 84.48 204.77C82.98 204.17 81.58 203.44 80.28 202.58C79 201.7 77.83 200.74 76.77 199.7C75.73 198.64 74.8 197.56 73.98 196.46C73.18 195.34 72.51 194.25 71.97 193.19L74.55 191.66Z" fill="white"/>
</svg>
