<svg width="229" height="38" viewBox="0 0 229 38" fill="none" xmlns="http://www.w3.org/2000/svg">
<path fill-rule="evenodd" clip-rule="evenodd" d="M6.6357 0.19955C78.1319 0.0674989 152.642 -0.058957 224.144 0.0294502C224.891 2.3963 228.347 5.49503 228.596 7.86524C229.579 17.2196 226.417 23.2526 225.171 34.2196C225.084 34.9693 227.705 36.8796 224.237 37.297C221.286 37.6518 217.382 37.3239 213.827 37.3339C171.987 37.4459 130.146 37.5589 88.3056 37.6708C77.6462 37.6999 66.9869 37.7279 56.3275 37.757C42.6671 37.7939 28.9818 37.8297 15.3587 37.6428C13.964 37.6238 12.4759 37.5958 11.3988 37.4358C10.3465 37.2802 9.89826 37.0329 9.51846 36.7979C-0.10112 30.8847 0.0234053 24.6201 0.228872 18.4584C0.291135 16.5336 0.359623 14.6043 1.57374 12.6918C2.9622 10.5085 5.83874 8.35652 6.48004 6.16312C7.11512 3.9798 5.10404 2.36944 6.64192 0.200669" fill="#39BF63"/>
</svg>
