<svg width="289" height="269" viewBox="0 0 289 269" fill="none" xmlns="http://www.w3.org/2000/svg">
<path fill-rule="evenodd" clip-rule="evenodd" d="M8.1453 2.12942C98.2513 1.19184 192.155 0.293981 282.269 0.921687C283.211 17.7267 287.566 39.7282 287.879 56.5571C289.119 122.975 285.133 165.81 283.564 243.677C283.454 249.001 286.757 262.564 282.387 265.527C278.667 268.046 273.747 265.718 269.267 265.79C216.535 266.584 163.804 267.387 111.073 268.181C97.6392 268.388 84.2053 268.587 70.7714 268.793C53.5553 269.055 36.3078 269.31 19.1388 267.983C17.3811 267.848 15.5057 267.649 14.1482 266.513C12.8221 265.408 12.2571 263.652 11.7784 261.984C-0.34505 219.999 -0.188112 175.519 0.070836 131.771C0.149305 118.104 0.235621 104.406 1.76577 90.8266C3.51563 75.3247 7.14089 60.0452 7.94912 44.4717C8.74951 28.9698 6.21496 17.536 8.15314 2.13737" fill="white"/>
</svg>
