<svg width="319" height="55" viewBox="0 0 319 55" fill="none" xmlns="http://www.w3.org/2000/svg">
<path d="M66.1655 35.47H106.845V39.79H66.1655V35.47ZM74.8055 18.73H102.075V22.24H74.8055V18.73ZM74.8055 24.13H102.12V27.64H74.8055V24.13ZM73.7255 12.655H104.325V16.885H73.7255V12.655ZM84.9305 15.31H90.1055V31.105H84.9305V15.31ZM83.6705 32.59H89.0705V50.005H83.6705V32.59ZM83.2655 37.27L87.3155 39.25C82.6805 43.84 74.9405 47.8 68.1005 49.78C67.3355 48.43 65.8055 46.45 64.6355 45.325C71.4755 43.885 79.2605 40.735 83.2655 37.27ZM89.6555 37.135C93.5255 40.555 101.13 43.705 107.88 45.19C106.755 46.27 105.27 48.25 104.505 49.555C97.7105 47.62 90.1505 43.66 85.5605 39.16L89.6555 37.135ZM87.1805 7.795L93.2555 8.515C91.8155 11.215 90.1955 13.735 88.9355 15.49L84.1655 14.545C85.2905 12.61 86.5505 9.82 87.1805 7.795ZM75.6605 7.705L81.1955 8.785C78.1805 14.05 74.2205 19.225 68.6855 23.68C67.8305 22.465 66.0755 20.8 64.8605 20.035C69.9005 16.39 73.5905 11.665 75.6605 7.705ZM71.2955 15.4H76.4255V29.575H105.63V33.67H71.2955V15.4ZM112.74 41.14H153.825V45.415H112.74V41.14ZM130.335 37.36H136.005V50.05H130.335V37.36ZM122.865 33.445V35.56H143.52V33.445H122.865ZM122.865 27.955V30.07H143.52V27.955H122.865ZM117.6 24.355H149.01V39.16H117.6V24.355ZM115.8 10.765H150.99V14.995H115.8V10.765ZM112.92 18.325H153.6V22.555H112.92V18.325ZM130.29 7.795H136.005V13.78H130.29V7.795ZM139.515 14.05L145.275 15.04C144.33 16.885 143.475 18.46 142.8 19.63L137.67 18.685C138.3 17.335 139.11 15.4 139.515 14.05ZM121.74 15.175L126.96 14.275C127.815 15.535 128.625 17.335 128.895 18.595L123.45 19.72C123.225 18.46 122.505 16.525 121.74 15.175ZM160.035 33.445H200.22V38.125H160.035V33.445ZM177.27 29.935H182.76V50.005H177.27V29.935ZM175.605 35.47L180.015 37.405C175.92 42.715 169.08 47.305 162.42 49.69C161.61 48.34 159.99 46.27 158.82 45.19C165.3 43.345 172.14 39.61 175.605 35.47ZM184.38 35.605C187.935 39.52 194.82 43.075 201.39 44.785C200.22 45.865 198.555 47.98 197.79 49.33C191.13 47.08 184.2 42.67 179.925 37.675L184.38 35.605ZM177.72 23.185V26.56H182.265V23.185H177.72ZM177.72 16.075V19.405H182.265V16.075H177.72ZM173.22 12.025H186.945V30.61H173.22V12.025ZM177.945 7.75L183.39 8.38C182.535 10.72 181.68 13.015 180.96 14.59L176.685 13.825C177.18 12.025 177.72 9.55 177.945 7.75ZM159.63 17.83L161.745 14.185C164.04 15.805 166.965 18.19 168.27 19.81L166.02 23.95C164.76 22.15 161.88 19.585 159.63 17.83ZM168.27 23.5L171.6 22.465C172.68 25.165 173.715 28.675 173.985 30.835L170.43 32.14C170.205 29.89 169.26 26.245 168.27 23.5ZM168.9 14.365L172.95 15.985C170.43 20.44 167.235 25.615 164.58 28.945L161.25 27.325C163.86 23.95 167.1 18.46 168.9 14.365ZM165.3 8.11L169.485 9.595C168 12.655 166.335 16.03 164.94 18.28L161.475 16.84C162.78 14.5 164.445 10.81 165.3 8.11ZM159.54 26.875C162.645 26.695 167.01 26.38 171.6 26.02L171.645 29.71C167.505 30.34 163.455 30.835 160.035 31.33L159.54 26.875ZM185.775 17.38L188.205 13.96C190.545 15.895 193.47 18.64 194.775 20.485L192.21 24.4C190.995 22.375 188.115 19.45 185.775 17.38ZM194.64 23.32L198.15 22.06C199.41 24.895 200.67 28.63 201.075 30.925L197.295 32.455C196.935 30.07 195.81 26.245 194.64 23.32ZM195.225 14.455L199.32 16.12C196.755 20.575 193.425 25.75 190.725 29.08L187.395 27.505C190.05 24.085 193.38 18.55 195.225 14.455ZM191.805 8.065L196.035 9.55C194.46 12.655 192.75 15.985 191.31 18.19L187.845 16.795C189.195 14.455 190.95 10.765 191.805 8.065ZM186.09 26.785C189.285 26.65 193.74 26.38 198.375 26.11V29.89C194.235 30.385 190.095 30.835 186.675 31.24L186.09 26.785ZM217.14 37.09H234.465V40.06H217.14V37.09ZM219.615 33.175H235.5V35.65H219.615V33.175ZM219.615 29.26H235.32V31.78H219.615V29.26ZM225.15 26.695H229.2V38.8H225.15V26.695ZM233.835 37.09H238.02C238.02 37.09 238.02 38.035 237.975 38.53C237.705 44.245 237.39 46.63 236.58 47.62C235.905 48.385 235.095 48.7 234.105 48.79C233.25 48.88 231.81 48.925 230.28 48.835C230.235 47.89 229.83 46.495 229.38 45.64C230.55 45.73 231.495 45.775 231.99 45.73C232.44 45.775 232.71 45.685 232.98 45.415C233.43 44.83 233.655 42.895 233.835 37.675V37.09ZM216.285 40.78L219.39 41.635C218.985 44.29 218.265 46.945 216.465 48.565L213.63 46.72C215.115 45.37 215.97 43.075 216.285 40.78ZM228.705 41.185L230.865 40.51C231.63 41.635 232.305 43.3 232.62 44.335L230.28 45.145C230.055 44.065 229.425 42.4 228.705 41.185ZM220.515 41.86L223.17 41.5C223.575 43.435 223.71 45.91 223.62 47.485L220.785 47.89C220.965 46.27 220.83 43.84 220.515 41.86ZM224.745 41.68L227.22 41.05C227.85 42.715 228.3 44.875 228.435 46.27L225.78 46.945C225.735 45.505 225.33 43.345 224.745 41.68ZM217.14 24.94H236.58V27.91H221.37V38.755H217.14V24.94ZM210.615 14.545H221.91V17.605H210.615V14.545ZM231.18 14.545H242.61V17.605H231.18V14.545ZM240.99 9.235H246.165V44.695C246.165 47.08 245.715 48.385 244.32 49.24C242.88 50.005 240.855 50.14 238.065 50.14C237.93 48.79 237.255 46.63 236.625 45.37C238.11 45.46 239.73 45.415 240.225 45.415C240.81 45.415 240.99 45.19 240.99 44.65V9.235ZM211.11 9.235H225.375V22.96H211.11V19.54H220.29V12.7H211.11V9.235ZM243.6 9.235V12.7H233.43V19.54H243.6V22.96H228.3V9.235H243.6ZM207.915 9.235H212.91V50.095H207.915V9.235ZM269.34 31.645L271.95 30.835C272.985 32.365 273.975 34.39 274.245 35.74L271.545 36.685C271.23 35.335 270.33 33.22 269.34 31.645ZM261.825 28.225L263.58 26.155C265.2 27.28 267.135 28.945 268.035 30.16L266.235 32.545C265.38 31.24 263.445 29.44 261.825 28.225ZM266.82 23.275L269.97 24.49C268.71 26.065 267.405 27.685 266.37 28.765L264.03 27.73C264.975 26.47 266.19 24.535 266.82 23.275ZM269.88 26.56L272.67 27.82C270.465 30.25 267.675 33.13 265.515 34.885L263.445 33.85C265.605 31.915 268.35 28.72 269.88 26.56ZM274.605 36.595H278.25V49.195H274.605V36.595ZM261.465 33.49C264.255 33.31 268.035 33.085 272.085 32.77L272.13 35.515C268.395 35.875 264.84 36.19 261.78 36.415L261.465 33.49ZM280.725 31.375L283.425 30.61C284.55 32.23 285.63 34.48 285.99 36.01L283.155 36.955C282.84 35.425 281.805 33.13 280.725 31.375ZM272.535 28L274.47 26.02C276.225 27.28 278.34 29.17 279.285 30.475L277.26 32.725C276.36 31.375 274.29 29.35 272.535 28ZM277.755 23.23L280.995 24.49C279.6 26.2 278.16 27.955 276.99 29.125L274.605 28.045C275.64 26.74 277.035 24.625 277.755 23.23ZM280.95 26.605L283.83 27.91C281.49 30.43 278.565 33.355 276.225 35.2L274.11 34.075C276.405 32.14 279.33 28.855 280.95 26.605ZM273.435 33.49C276.225 33.355 279.87 33.13 283.83 32.86L283.875 35.56C280.41 35.92 276.99 36.145 274.065 36.415L273.435 33.49ZM262.815 37.315H266.145V41.23H271.005V44.2H262.815V37.315ZM281.085 37.315H284.415V44.2H277.485V41.23H281.085V37.315ZM268.845 36.595H272.445V40.96C272.445 44.47 271.59 47.845 265.875 49.825C265.425 48.97 264.3 47.575 263.535 46.9C268.215 45.505 268.845 43.21 268.845 40.825V36.595ZM257.415 15.265H268.71V18.505H257.415V15.265ZM278.115 15.265H289.545V18.505H278.115V15.265ZM287.7 9.505H292.92V43.885C292.92 46.45 292.515 47.935 290.985 48.835C289.455 49.735 287.385 49.825 284.415 49.825C284.235 48.385 283.56 45.955 282.885 44.56C284.55 44.65 286.35 44.65 286.935 44.65C287.52 44.65 287.7 44.425 287.7 43.84V9.505ZM257.91 9.505H272.175V24.22H257.91V20.575H267.09V13.15H257.91V9.505ZM290.4 9.505V13.15H280.23V20.575H290.4V24.22H275.1V9.505H290.4ZM254.715 9.505H259.845V50.05H254.715V9.505Z" fill="white"/>
<path d="M30.0668 18.1071L42.4597 30.5L30.0668 42.8929" stroke="white" stroke-width="7" stroke-miterlimit="10" stroke-linecap="round" stroke-linejoin="round"/>
<path d="M7.75128 30.5H42.1125" stroke="white" stroke-width="7" stroke-miterlimit="10" stroke-linecap="round" stroke-linejoin="round"/>
</svg>
