<svg width="570" height="316" viewBox="0 0 570 316" fill="none" xmlns="http://www.w3.org/2000/svg">
<path d="M-0.000976562 32.75H539.999C556.568 32.75 569.999 46.1815 569.999 62.75V315.122H29.999C13.4305 315.122 -0.000976562 301.69 -0.000976562 285.122V32.75Z" fill="#39BF63"/>
<line x1="347.796" y1="221.621" x2="38.6433" y2="221.621" stroke="white"/>
<path d="M154.055 105.785H166.407V107.865H154.055V105.785ZM155.815 102.969H167.111V104.761H155.815V102.969ZM155.815 100.217H166.983V101.977H155.815V100.217ZM159.751 98.3931H162.631V107.001H159.751V98.3931ZM165.959 105.785H168.903C168.903 105.785 168.903 105.913 168.903 106.169C168.903 106.404 168.892 106.617 168.871 106.809C168.807 108.153 168.732 109.262 168.647 110.137C168.583 111.012 168.487 111.684 168.359 112.153C168.252 112.644 168.092 113.017 167.879 113.273C167.666 113.529 167.41 113.721 167.111 113.849C166.812 113.977 166.492 114.062 166.151 114.105C165.831 114.126 165.426 114.137 164.935 114.137C164.466 114.158 163.964 114.158 163.431 114.137C163.41 113.774 163.335 113.369 163.207 112.921C163.079 112.494 162.93 112.132 162.759 111.833C163.164 111.876 163.527 111.908 163.847 111.929C164.188 111.95 164.444 111.95 164.615 111.929C164.935 111.95 165.18 111.865 165.351 111.673C165.5 111.481 165.618 110.99 165.703 110.201C165.81 109.39 165.895 108.046 165.959 106.169V105.785ZM153.447 108.409L155.687 108.985C155.538 109.945 155.314 110.873 155.015 111.769C154.716 112.644 154.247 113.369 153.607 113.945L151.591 112.601C152.103 112.132 152.508 111.513 152.807 110.745C153.127 109.977 153.34 109.198 153.447 108.409ZM162.279 108.665L163.815 108.185C164.114 108.59 164.37 109.049 164.583 109.561C164.796 110.073 164.956 110.521 165.063 110.905L163.431 111.513C163.346 111.108 163.196 110.638 162.983 110.105C162.791 109.572 162.556 109.092 162.279 108.665ZM156.487 109.177L158.375 108.921C158.503 109.582 158.588 110.318 158.631 111.129C158.695 111.94 158.716 112.612 158.695 113.145L156.647 113.465C156.711 112.889 156.722 112.206 156.679 111.417C156.658 110.606 156.594 109.86 156.487 109.177ZM159.495 109.017L161.255 108.601C161.468 109.177 161.65 109.817 161.799 110.521C161.948 111.204 162.044 111.79 162.087 112.281L160.231 112.793C160.21 112.281 160.135 111.673 160.007 110.969C159.879 110.265 159.708 109.614 159.495 109.017ZM154.055 97.1451H167.911V99.2571H157.063V106.937H154.055V97.1451ZM149.415 89.7211H157.479V91.8971H149.415V89.7211ZM164.039 89.7211H172.167V91.8971H164.039V89.7211ZM171.015 85.9771H174.695V111.161C174.695 112.014 174.599 112.686 174.407 113.177C174.236 113.689 173.895 114.094 173.383 114.393C172.892 114.692 172.274 114.873 171.527 114.937C170.802 115.001 169.938 115.033 168.935 115.033C168.892 114.564 168.775 113.998 168.583 113.337C168.391 112.676 168.178 112.121 167.943 111.673C168.455 111.694 168.956 111.705 169.447 111.705C169.959 111.705 170.311 111.705 170.503 111.705C170.695 111.684 170.823 111.63 170.887 111.545C170.972 111.46 171.015 111.321 171.015 111.129V85.9771ZM149.767 85.9771H159.911V95.7371H149.767V93.3051H156.327V88.4091H149.767V85.9771ZM172.871 85.9771V88.4091H165.671V93.2731H172.871V95.7051H162.023V85.9771H172.871ZM147.495 85.9771H151.079V115.033H147.495V85.9771ZM191.207 101.913L193.063 101.337C193.426 101.87 193.756 102.468 194.055 103.129C194.375 103.769 194.588 104.334 194.695 104.825L192.743 105.497C192.636 104.985 192.434 104.398 192.135 103.737C191.858 103.076 191.548 102.468 191.207 101.913ZM185.863 99.4811L187.079 98.0091C187.655 98.3931 188.252 98.8518 188.871 99.3851C189.49 99.9184 189.948 100.398 190.247 100.825L188.967 102.521C188.668 102.073 188.22 101.561 187.623 100.985C187.026 100.409 186.439 99.9078 185.863 99.4811ZM189.415 95.9611L191.623 96.8251C191.196 97.3584 190.759 97.9024 190.311 98.4571C189.884 99.0118 189.479 99.4704 189.095 99.8331L187.399 99.0971C187.74 98.6491 188.103 98.1264 188.487 97.5291C188.871 96.9318 189.18 96.4091 189.415 95.9611ZM191.591 98.2971L193.575 99.1611C193.042 99.7371 192.476 100.334 191.879 100.953C191.282 101.572 190.695 102.169 190.119 102.745C189.543 103.3 188.999 103.79 188.487 104.217L187.015 103.449C187.527 102.98 188.06 102.446 188.615 101.849C189.191 101.23 189.735 100.612 190.247 99.9931C190.78 99.3531 191.228 98.7878 191.591 98.2971ZM194.919 105.401H197.543V114.361H194.919V105.401ZM185.575 103.193C186.599 103.129 187.751 103.065 189.031 103.001C190.332 102.916 191.708 102.82 193.159 102.713V104.665C191.836 104.793 190.556 104.91 189.319 105.017C188.082 105.102 186.919 105.188 185.831 105.273L185.575 103.193ZM199.271 101.721L201.223 101.145C201.607 101.742 201.97 102.404 202.311 103.129C202.652 103.833 202.887 104.462 203.015 105.017L200.999 105.657C200.892 105.124 200.679 104.494 200.359 103.769C200.039 103.022 199.676 102.34 199.271 101.721ZM193.479 99.3211L194.855 97.9131C195.495 98.3398 196.135 98.8518 196.775 99.4491C197.436 100.046 197.927 100.59 198.247 101.081L196.839 102.681C196.519 102.169 196.039 101.604 195.399 100.985C194.759 100.345 194.119 99.7904 193.479 99.3211ZM197.159 95.9291L199.495 96.7931C199.004 97.4118 198.514 98.0091 198.023 98.5851C197.532 99.1611 197.074 99.6731 196.647 100.121L194.919 99.3531C195.303 98.8838 195.708 98.3184 196.135 97.6571C196.562 96.9958 196.903 96.4198 197.159 95.9291ZM199.463 98.2971L201.479 99.2251C200.924 99.8224 200.338 100.441 199.719 101.081C199.1 101.721 198.482 102.329 197.863 102.905C197.244 103.481 196.647 103.993 196.071 104.441L194.599 103.609C195.132 103.14 195.698 102.606 196.295 102.009C196.914 101.39 197.5 100.761 198.055 100.121C198.61 99.4598 199.079 98.8518 199.463 98.2971ZM194.119 103.193C195.1 103.15 196.22 103.086 197.479 103.001C198.759 102.916 200.103 102.83 201.511 102.745V104.665C200.274 104.793 199.058 104.91 197.863 105.017C196.69 105.102 195.591 105.188 194.567 105.273L194.119 103.193ZM186.567 105.945H188.903V108.697H192.359V110.841H186.567V105.945ZM199.527 105.945H201.927V110.841H196.999V108.697H199.527V105.945ZM190.855 105.401H193.383V108.505C193.383 109.337 193.276 110.148 193.063 110.937C192.85 111.726 192.412 112.452 191.751 113.113C191.09 113.774 190.076 114.34 188.711 114.809C188.562 114.489 188.316 114.126 187.975 113.721C187.634 113.316 187.335 112.985 187.079 112.729C188.188 112.409 189.01 112.025 189.543 111.577C190.076 111.108 190.428 110.606 190.599 110.073C190.77 109.54 190.855 108.996 190.855 108.441V105.401ZM182.695 90.2331H190.759V92.5691H182.695V90.2331ZM197.415 90.2331H205.543V92.5691H197.415V90.2331ZM204.263 86.1691H207.943V110.585C207.943 111.502 207.858 112.238 207.687 112.793C207.516 113.369 207.154 113.817 206.599 114.137C206.066 114.457 205.415 114.649 204.647 114.713C203.879 114.798 202.962 114.841 201.895 114.841C201.852 114.478 201.778 114.073 201.671 113.625C201.564 113.177 201.436 112.718 201.287 112.249C201.159 111.801 201.01 111.417 200.839 111.097C201.415 111.118 201.98 111.14 202.535 111.161C203.111 111.161 203.506 111.15 203.719 111.129C203.932 111.129 204.071 111.086 204.135 111.001C204.22 110.916 204.263 110.766 204.263 110.553V86.1691ZM183.047 86.1691H193.191V96.6011H183.047V94.0411H189.607V88.7291H183.047V86.1691ZM206.151 86.1691V88.7291H198.951V94.0411H206.151V96.6011H195.303V86.1691H206.151ZM180.775 86.1691H184.423V115.001H180.775V86.1691ZM213.095 104.633H242.023V107.673H213.095V104.633ZM219.239 92.6971H238.631V95.1931H219.239V92.6971ZM219.239 96.5371H238.695V99.0651H219.239V96.5371ZM218.471 88.4091H240.231V91.3851H218.471V88.4091ZM226.471 90.2971H230.151V101.529H226.471V90.2971ZM225.575 102.585H229.383V114.969H225.575V102.585ZM225.255 105.881L228.135 107.321C227.324 108.11 226.386 108.889 225.319 109.657C224.274 110.404 223.143 111.108 221.927 111.769C220.711 112.409 219.474 112.985 218.215 113.497C216.956 114.009 215.719 114.436 214.503 114.777C214.204 114.308 213.82 113.753 213.351 113.113C212.882 112.494 212.444 111.993 212.039 111.609C213.255 111.353 214.492 111.033 215.751 110.649C217.01 110.244 218.226 109.796 219.399 109.305C220.594 108.793 221.692 108.249 222.695 107.673C223.698 107.097 224.551 106.5 225.255 105.881ZM229.831 105.785C230.535 106.404 231.367 107.001 232.327 107.577C233.308 108.153 234.375 108.697 235.527 109.209C236.7 109.7 237.906 110.148 239.143 110.553C240.38 110.937 241.596 111.268 242.791 111.545C242.514 111.78 242.226 112.078 241.927 112.441C241.628 112.825 241.34 113.209 241.063 113.593C240.786 113.977 240.562 114.318 240.391 114.617C239.175 114.276 237.938 113.849 236.679 113.337C235.442 112.825 234.226 112.249 233.031 111.609C231.858 110.969 230.748 110.286 229.703 109.561C228.658 108.814 227.719 108.046 226.887 107.257L229.831 105.785ZM228.039 84.9211L232.359 85.4651C231.868 86.4038 231.346 87.3104 230.791 88.1851C230.258 89.0598 229.767 89.7958 229.319 90.3931L225.927 89.7531C226.311 89.0491 226.706 88.2491 227.111 87.3531C227.516 86.4571 227.826 85.6464 228.039 84.9211ZM219.847 84.8571L223.815 85.6571C223.09 86.8944 222.29 88.1211 221.415 89.3371C220.54 90.5531 219.57 91.7478 218.503 92.9211C217.436 94.0731 216.242 95.1718 214.919 96.2171C214.727 95.9398 214.471 95.6411 214.151 95.3211C213.831 94.9798 213.49 94.6598 213.127 94.3611C212.786 94.0411 212.476 93.7958 212.199 93.6251C213.394 92.7718 214.471 91.8544 215.431 90.8731C216.412 89.8704 217.276 88.8571 218.023 87.8331C218.77 86.7878 219.378 85.7958 219.847 84.8571ZM216.775 90.3611H220.391V100.441H241.159V103.321H216.775V90.3611ZM246.247 108.633H275.463V111.705H246.247V108.633ZM258.727 105.977H262.791V114.969H258.727V105.977ZM253.415 103.161V104.665H268.103V103.161H253.415ZM253.415 99.2891V100.761H268.103V99.2891H253.415ZM249.671 96.7291H272.039V107.225H249.671V96.7291ZM248.391 87.0651H273.447V90.0731H248.391V87.0651ZM246.375 92.4091H275.303V95.4491H246.375V92.4091ZM258.727 84.9211H262.791V89.2091H258.727V84.9211ZM265.255 89.4011L269.383 90.0731C269.042 90.7344 268.722 91.3424 268.423 91.8971C268.124 92.4518 267.847 92.9318 267.591 93.3371L263.975 92.6651C264.124 92.3451 264.274 91.9931 264.423 91.6091C264.594 91.2251 264.754 90.8411 264.903 90.4571C265.052 90.0518 265.17 89.6998 265.255 89.4011ZM252.615 90.1691L256.327 89.5291C256.647 89.9984 256.935 90.5211 257.191 91.0971C257.447 91.6518 257.628 92.1638 257.735 92.6331L253.831 93.4011C253.767 92.9744 253.618 92.4518 253.383 91.8331C253.148 91.2144 252.892 90.6598 252.615 90.1691ZM296.418 97.0491H316.866V100.505H296.418V97.0491ZM297.538 90.5851H315.778V93.9771H297.538V90.5851ZM304.29 92.2491H308.13V97.3691C308.13 98.3931 308.002 99.4598 307.746 100.569C307.511 101.678 307.063 102.788 306.402 103.897C305.762 104.985 304.834 106.041 303.618 107.065C302.423 108.068 300.877 108.985 298.978 109.817C298.807 109.54 298.573 109.23 298.274 108.889C297.975 108.548 297.666 108.206 297.346 107.865C297.026 107.524 296.717 107.246 296.418 107.033C298.231 106.372 299.661 105.636 300.706 104.825C301.773 104.014 302.551 103.172 303.042 102.297C303.554 101.422 303.885 100.569 304.034 99.7371C304.205 98.8838 304.29 98.0838 304.29 97.3371V92.2491ZM308.706 99.4811C309.367 101.252 310.37 102.756 311.714 103.993C313.079 105.209 314.829 106.084 316.962 106.617C316.685 106.873 316.386 107.193 316.066 107.577C315.767 107.961 315.479 108.356 315.202 108.761C314.946 109.145 314.722 109.508 314.53 109.849C312.183 109.081 310.285 107.876 308.834 106.233C307.383 104.59 306.263 102.574 305.474 100.185L308.706 99.4811ZM295.138 97.4011V109.209H291.394V100.953H287.682V97.4011H295.138ZM295.138 107.545C295.799 108.59 296.727 109.358 297.922 109.849C299.117 110.34 300.546 110.617 302.21 110.681C303.149 110.724 304.258 110.756 305.538 110.777C306.839 110.777 308.205 110.766 309.634 110.745C311.063 110.724 312.461 110.681 313.826 110.617C315.213 110.553 316.439 110.478 317.506 110.393C317.378 110.692 317.229 111.076 317.058 111.545C316.887 112.014 316.727 112.494 316.578 112.985C316.45 113.476 316.354 113.913 316.29 114.297C315.33 114.361 314.231 114.404 312.994 114.425C311.757 114.468 310.487 114.489 309.186 114.489C307.885 114.51 306.626 114.51 305.41 114.489C304.194 114.468 303.106 114.436 302.146 114.393C300.183 114.308 298.509 113.998 297.122 113.465C295.735 112.953 294.509 112.078 293.442 110.841C292.738 111.438 292.013 112.057 291.266 112.697C290.541 113.337 289.741 113.998 288.866 114.681L286.978 110.681C287.725 110.233 288.503 109.742 289.314 109.209C290.125 108.676 290.903 108.121 291.65 107.545H295.138ZM287.714 87.9931L290.562 85.6891C291.223 86.1158 291.895 86.6171 292.578 87.1931C293.261 87.7478 293.901 88.3238 294.498 88.9211C295.095 89.4971 295.575 90.0304 295.938 90.5211L292.898 93.0811C292.578 92.5691 292.13 92.0144 291.554 91.4171C290.999 90.8198 290.381 90.2224 289.698 89.6251C289.015 89.0064 288.354 88.4624 287.714 87.9931ZM310.914 84.9211L314.818 86.1371C314.242 87.0544 313.645 87.9611 313.026 88.8571C312.429 89.7318 311.874 90.4784 311.362 91.0971L308.226 90.0091C308.546 89.5184 308.877 88.9851 309.218 88.4091C309.559 87.8118 309.879 87.2144 310.178 86.6171C310.477 85.9984 310.722 85.4331 310.914 84.9211ZM298.37 86.3291L301.602 84.9851C302.199 85.7104 302.765 86.5318 303.298 87.4491C303.831 88.3664 304.205 89.1771 304.418 89.8811L300.962 91.3531C300.791 90.6704 300.45 89.8598 299.938 88.9211C299.447 87.9611 298.925 87.0971 298.37 86.3291Z" fill="white"/>
<path d="M36.9179 248.201H59.1419V251.345H36.9179V248.201ZM73.4219 243.161H82.1099V245.177H73.4219V243.161ZM73.4219 246.377H82.1099V248.393H73.4219V246.377ZM70.4219 249.665H84.2459V252.161H70.4219V249.665ZM72.1499 239.537H82.9979V241.985H74.9099V251.009H72.1499V239.537ZM70.3019 258.209C71.3099 258.097 72.5179 257.961 73.9259 257.801C75.3339 257.625 76.7579 257.441 78.1979 257.249L78.3179 259.745C76.9899 259.969 75.6699 260.177 74.3579 260.369C73.0459 260.561 71.8459 260.737 70.7579 260.897L70.3019 258.209ZM78.3179 251.009C78.6379 252.209 79.0699 253.329 79.6139 254.369C80.1579 255.393 80.8459 256.281 81.6779 257.033C82.5099 257.785 83.4939 258.369 84.6299 258.785C84.4219 258.977 84.1979 259.217 83.9579 259.505C83.7179 259.809 83.4859 260.121 83.2619 260.441C83.0539 260.761 82.8859 261.049 82.7579 261.305C81.4939 260.745 80.4219 259.985 79.5419 259.025C78.6779 258.065 77.9579 256.945 77.3819 255.665C76.8059 254.385 76.3339 252.969 75.9659 251.417L78.3179 251.009ZM81.8459 252.233L84.2219 253.529C83.5659 254.105 82.8859 254.673 82.1819 255.233C81.4779 255.777 80.8379 256.241 80.2619 256.625L78.4859 255.521C78.8539 255.233 79.2459 254.905 79.6619 254.537C80.0779 254.153 80.4779 253.761 80.8619 253.361C81.2459 252.945 81.5739 252.569 81.8459 252.233ZM72.2219 250.385H74.9819V258.593L72.2219 259.049V250.385ZM63.1979 250.409H68.9339V252.977H63.1979V250.409ZM67.6379 250.409H70.4939C70.4939 250.409 70.4859 250.481 70.4699 250.625C70.4699 250.753 70.4699 250.905 70.4699 251.081C70.4699 251.241 70.4619 251.385 70.4459 251.513C70.3339 253.369 70.2139 254.889 70.0859 256.073C69.9739 257.257 69.8299 258.177 69.6539 258.833C69.4779 259.489 69.2699 259.961 69.0299 260.249C68.7579 260.553 68.4699 260.769 68.1659 260.897C67.8779 261.041 67.5419 261.137 67.1579 261.185C66.8379 261.249 66.4139 261.281 65.8859 261.281C65.3739 261.297 64.8219 261.289 64.2299 261.257C64.2139 260.857 64.1339 260.401 63.9899 259.889C63.8459 259.377 63.6619 258.945 63.4379 258.593C63.9339 258.625 64.3899 258.649 64.8059 258.665C65.2219 258.681 65.5419 258.689 65.7659 258.689C65.9419 258.689 66.0939 258.673 66.2219 258.641C66.3659 258.593 66.4939 258.513 66.6059 258.401C66.7659 258.225 66.9019 257.873 67.0139 257.345C67.1419 256.801 67.2539 256.001 67.3499 254.945C67.4619 253.889 67.5579 252.521 67.6379 250.841V250.409ZM62.9339 245.417H65.5499C65.4539 246.329 65.3419 247.289 65.2139 248.297C65.1019 249.305 64.9819 250.281 64.8539 251.225C64.7419 252.153 64.6219 252.977 64.4939 253.697L61.8299 253.409C61.9739 252.705 62.1099 251.897 62.2379 250.985C62.3819 250.073 62.5179 249.129 62.6459 248.153C62.7739 247.177 62.8699 246.265 62.9339 245.417ZM63.1259 245.417H67.4699V242.585H62.2619V239.945H70.0859V248.057H63.1259V245.417ZM92.7179 254.369H101.982V255.929H92.7179V254.369ZM94.0379 252.257H102.51V253.601H94.0379V252.257ZM94.0379 250.193H102.414V251.513H94.0379V250.193ZM96.9899 248.825H99.1499V255.281H96.9899V248.825ZM101.646 254.369H103.854C103.854 254.369 103.854 254.465 103.854 254.657C103.854 254.833 103.846 254.993 103.83 255.137C103.782 256.145 103.726 256.977 103.662 257.633C103.614 258.289 103.542 258.793 103.446 259.145C103.366 259.513 103.246 259.793 103.086 259.985C102.926 260.177 102.734 260.321 102.51 260.417C102.286 260.513 102.046 260.577 101.79 260.609C101.55 260.625 101.246 260.633 100.878 260.633C100.526 260.649 100.15 260.649 99.7499 260.633C99.7339 260.361 99.6779 260.057 99.5819 259.721C99.4859 259.401 99.3739 259.129 99.2459 258.905C99.5499 258.937 99.8219 258.961 100.062 258.977C100.318 258.993 100.51 258.993 100.638 258.977C100.878 258.993 101.062 258.929 101.19 258.785C101.302 258.641 101.39 258.273 101.454 257.681C101.534 257.073 101.598 256.065 101.646 254.657V254.369ZM92.2619 256.337L93.9419 256.769C93.8299 257.489 93.6619 258.185 93.4379 258.857C93.2139 259.513 92.8619 260.057 92.3819 260.489L90.8699 259.481C91.2539 259.129 91.5579 258.665 91.7819 258.089C92.0219 257.513 92.1819 256.929 92.2619 256.337ZM98.8859 256.529L100.038 256.169C100.262 256.473 100.454 256.817 100.614 257.201C100.774 257.585 100.894 257.921 100.974 258.209L99.7499 258.665C99.6859 258.361 99.5739 258.009 99.4139 257.609C99.2699 257.209 99.0939 256.849 98.8859 256.529ZM94.5419 256.913L95.9579 256.721C96.0539 257.217 96.1179 257.769 96.1499 258.377C96.1979 258.985 96.2139 259.489 96.1979 259.889L94.6619 260.129C94.7099 259.697 94.7179 259.185 94.6859 258.593C94.6699 257.985 94.6219 257.425 94.5419 256.913ZM96.7979 256.793L98.1179 256.481C98.2779 256.913 98.4139 257.393 98.5259 257.921C98.6379 258.433 98.7099 258.873 98.7419 259.241L97.3499 259.625C97.3339 259.241 97.2779 258.785 97.1819 258.257C97.0859 257.729 96.9579 257.241 96.7979 256.793ZM92.7179 247.889H103.11V249.473H94.9739V255.233H92.7179V247.889ZM89.2379 242.321H95.2859V243.953H89.2379V242.321ZM100.206 242.321H106.302V243.953H100.206V242.321ZM105.438 239.513H108.198V258.401C108.198 259.041 108.126 259.545 107.982 259.913C107.854 260.297 107.598 260.601 107.214 260.825C106.846 261.049 106.382 261.185 105.822 261.233C105.278 261.281 104.63 261.305 103.878 261.305C103.846 260.953 103.758 260.529 103.614 260.033C103.47 259.537 103.31 259.121 103.134 258.785C103.518 258.801 103.894 258.809 104.262 258.809C104.646 258.809 104.91 258.809 105.054 258.809C105.198 258.793 105.294 258.753 105.342 258.689C105.406 258.625 105.438 258.521 105.438 258.377V239.513ZM89.5019 239.513H97.1099V246.833H89.5019V245.009H94.4219V241.337H89.5019V239.513ZM106.83 239.513V241.337H101.43V244.985H106.83V246.809H98.6939V239.513H106.83ZM87.7979 239.513H90.4859V261.305H87.7979V239.513ZM120.582 251.465L121.974 251.033C122.246 251.433 122.494 251.881 122.718 252.377C122.958 252.857 123.118 253.281 123.198 253.649L121.734 254.153C121.654 253.769 121.502 253.329 121.278 252.833C121.07 252.337 120.838 251.881 120.582 251.465ZM116.574 249.641L117.486 248.537C117.918 248.825 118.366 249.169 118.83 249.569C119.294 249.969 119.638 250.329 119.862 250.649L118.902 251.921C118.678 251.585 118.342 251.201 117.894 250.769C117.446 250.337 117.006 249.961 116.574 249.641ZM119.238 247.001L120.894 247.649C120.574 248.049 120.246 248.457 119.91 248.873C119.59 249.289 119.286 249.633 118.998 249.905L117.726 249.353C117.982 249.017 118.254 248.625 118.542 248.177C118.83 247.729 119.062 247.337 119.238 247.001ZM120.87 248.753L122.358 249.401C121.958 249.833 121.534 250.281 121.086 250.745C120.638 251.209 120.198 251.657 119.766 252.089C119.334 252.505 118.926 252.873 118.542 253.193L117.438 252.617C117.822 252.265 118.222 251.865 118.638 251.417C119.07 250.953 119.478 250.489 119.862 250.025C120.262 249.545 120.598 249.121 120.87 248.753ZM123.366 254.081H125.334V260.801H123.366V254.081ZM116.358 252.425C117.126 252.377 117.99 252.329 118.95 252.281C119.926 252.217 120.958 252.145 122.046 252.065V253.529C121.054 253.625 120.094 253.713 119.166 253.793C118.238 253.857 117.366 253.921 116.55 253.985L116.358 252.425ZM126.63 251.321L128.094 250.889C128.382 251.337 128.654 251.833 128.91 252.377C129.166 252.905 129.342 253.377 129.438 253.793L127.926 254.273C127.846 253.873 127.686 253.401 127.446 252.857C127.206 252.297 126.934 251.785 126.63 251.321ZM122.286 249.521L123.318 248.465C123.798 248.785 124.278 249.169 124.758 249.617C125.254 250.065 125.622 250.473 125.862 250.841L124.806 252.041C124.566 251.657 124.206 251.233 123.726 250.769C123.246 250.289 122.766 249.873 122.286 249.521ZM125.046 246.977L126.798 247.625C126.43 248.089 126.062 248.537 125.694 248.969C125.326 249.401 124.982 249.785 124.662 250.121L123.366 249.545C123.654 249.193 123.958 248.769 124.278 248.273C124.598 247.777 124.854 247.345 125.046 246.977ZM126.774 248.753L128.286 249.449C127.87 249.897 127.43 250.361 126.966 250.841C126.502 251.321 126.038 251.777 125.574 252.209C125.11 252.641 124.662 253.025 124.23 253.361L123.126 252.737C123.526 252.385 123.95 251.985 124.398 251.537C124.862 251.073 125.302 250.601 125.718 250.121C126.134 249.625 126.486 249.169 126.774 248.753ZM122.766 252.425C123.502 252.393 124.342 252.345 125.286 252.281C126.246 252.217 127.254 252.153 128.31 252.089V253.529C127.382 253.625 126.47 253.713 125.574 253.793C124.694 253.857 123.87 253.921 123.102 253.985L122.766 252.425ZM117.102 254.489H118.854V256.553H121.446V258.161H117.102V254.489ZM126.822 254.489H128.622V258.161H124.926V256.553H126.822V254.489ZM120.318 254.081H122.214V256.409C122.214 257.033 122.134 257.641 121.974 258.233C121.814 258.825 121.486 259.369 120.99 259.865C120.494 260.361 119.734 260.785 118.71 261.137C118.598 260.897 118.414 260.625 118.158 260.321C117.902 260.017 117.678 259.769 117.486 259.577C118.318 259.337 118.934 259.049 119.334 258.713C119.734 258.361 119.998 257.985 120.126 257.585C120.254 257.185 120.318 256.777 120.318 256.361V254.081ZM114.198 242.705H120.246V244.457H114.198V242.705ZM125.238 242.705H131.334V244.457H125.238V242.705ZM130.374 239.657H133.134V257.969C133.134 258.657 133.07 259.209 132.942 259.625C132.814 260.057 132.542 260.393 132.126 260.633C131.726 260.873 131.238 261.017 130.662 261.065C130.086 261.129 129.398 261.161 128.598 261.161C128.566 260.889 128.51 260.585 128.43 260.249C128.35 259.913 128.254 259.569 128.142 259.217C128.046 258.881 127.934 258.593 127.806 258.353C128.238 258.369 128.662 258.385 129.078 258.401C129.51 258.401 129.806 258.393 129.966 258.377C130.126 258.377 130.23 258.345 130.278 258.281C130.342 258.217 130.374 258.105 130.374 257.945V239.657ZM114.462 239.657H122.07V247.481H114.462V245.561H119.382V241.577H114.462V239.657ZM131.79 239.657V241.577H126.39V245.561H131.79V247.481H123.654V239.657H131.79ZM112.758 239.657H115.494V261.281H112.758V239.657ZM136.95 247.217H158.814V250.073H136.95V247.217ZM147.654 241.673H156.198V244.433H147.654V241.673ZM145.782 238.721H148.854V248.585H145.782V238.721ZM145.782 249.041H148.854V261.257H145.782V249.041ZM147.966 253.625L149.43 251.321C150.038 251.497 150.702 251.705 151.422 251.945C152.142 252.169 152.87 252.417 153.606 252.689C154.342 252.945 155.038 253.201 155.694 253.457C156.35 253.713 156.902 253.953 157.35 254.177L155.814 256.793C155.382 256.553 154.846 256.297 154.206 256.025C153.582 255.753 152.91 255.473 152.19 255.185C151.47 254.897 150.742 254.617 150.006 254.345C149.286 254.073 148.606 253.833 147.966 253.625ZM172.95 244.193H181.206V246.545H172.95V244.193ZM168.822 258.113C169.542 258.001 170.374 257.865 171.318 257.705C172.278 257.545 173.294 257.377 174.366 257.201C175.438 257.009 176.502 256.817 177.558 256.625L177.798 259.121C176.406 259.441 175.006 259.753 173.598 260.057C172.19 260.377 170.91 260.657 169.758 260.897L168.822 258.113ZM171.318 239.801H174.102V258.761H171.318V239.801ZM172.95 239.801H182.526V251.033H172.95V248.561H179.67V242.273H172.95V239.801ZM177.942 249.377C178.246 250.817 178.662 252.153 179.19 253.385C179.718 254.601 180.39 255.673 181.206 256.601C182.022 257.529 183.022 258.249 184.206 258.761C183.998 258.953 183.774 259.185 183.534 259.457C183.294 259.745 183.062 260.041 182.838 260.345C182.63 260.665 182.462 260.953 182.334 261.209C181.038 260.521 179.95 259.625 179.07 258.521C178.206 257.401 177.494 256.105 176.934 254.633C176.374 253.161 175.918 251.545 175.566 249.785L177.942 249.377ZM181.422 251.201L183.678 252.761C183.022 253.401 182.326 254.033 181.59 254.657C180.87 255.265 180.206 255.785 179.598 256.217L177.822 254.849C178.206 254.529 178.614 254.161 179.046 253.745C179.494 253.329 179.926 252.897 180.342 252.449C180.758 252.001 181.118 251.585 181.422 251.201ZM162.582 239.753H168.558V242.345H165.27V261.281H162.582V239.753ZM167.766 239.753H168.27L168.678 239.657L170.646 240.785C170.422 241.489 170.182 242.233 169.926 243.017C169.67 243.801 169.414 244.577 169.158 245.345C168.902 246.113 168.646 246.809 168.39 247.433C169.174 248.361 169.678 249.241 169.902 250.073C170.142 250.889 170.262 251.649 170.262 252.353C170.262 253.153 170.174 253.809 169.998 254.321C169.822 254.833 169.534 255.233 169.134 255.521C168.942 255.665 168.718 255.777 168.462 255.857C168.222 255.937 167.974 256.001 167.718 256.049C167.494 256.081 167.23 256.097 166.926 256.097C166.638 256.097 166.342 256.097 166.038 256.097C166.022 255.729 165.958 255.297 165.846 254.801C165.75 254.305 165.606 253.881 165.414 253.529C165.638 253.545 165.838 253.553 166.014 253.553C166.206 253.553 166.374 253.553 166.518 253.553C166.646 253.553 166.766 253.537 166.878 253.505C167.006 253.457 167.126 253.401 167.238 253.337C167.382 253.225 167.486 253.057 167.55 252.833C167.63 252.593 167.662 252.305 167.646 251.969C167.646 251.409 167.526 250.769 167.286 250.049C167.062 249.313 166.59 248.545 165.87 247.745C166.046 247.201 166.222 246.601 166.398 245.945C166.59 245.289 166.766 244.633 166.926 243.977C167.102 243.305 167.262 242.681 167.406 242.105C167.566 241.513 167.686 241.025 167.766 240.641V239.753ZM197.718 238.673L200.382 239.105C199.854 240.385 199.182 241.625 198.366 242.825C197.566 244.025 196.51 245.121 195.198 246.113C194.99 245.793 194.694 245.465 194.31 245.129C193.942 244.777 193.606 244.513 193.302 244.337C194.086 243.809 194.758 243.233 195.318 242.609C195.894 241.985 196.382 241.337 196.782 240.665C197.182 239.977 197.494 239.313 197.718 238.673ZM198.39 240.449H203.094V242.657H197.046L198.39 240.449ZM198.75 246.017H200.79C200.742 246.785 200.638 247.481 200.478 248.105C200.318 248.729 200.046 249.281 199.662 249.761C199.278 250.225 198.726 250.625 198.006 250.961C197.894 250.721 197.718 250.449 197.478 250.145C197.238 249.841 197.014 249.601 196.806 249.425C197.574 249.089 198.078 248.641 198.318 248.081C198.574 247.521 198.718 246.833 198.75 246.017ZM201.702 246.113H203.79V248.057C203.79 248.281 203.806 248.417 203.838 248.465C203.886 248.513 203.998 248.537 204.174 248.537C204.238 248.537 204.326 248.537 204.438 248.537C204.566 248.537 204.694 248.537 204.822 248.537C204.966 248.537 205.062 248.537 205.11 248.537C205.254 248.537 205.35 248.521 205.398 248.489C205.462 248.441 205.51 248.369 205.542 248.273C205.734 248.401 206.006 248.529 206.358 248.657C206.71 248.785 207.03 248.881 207.318 248.945C207.206 249.473 206.998 249.841 206.694 250.049C206.39 250.241 205.966 250.337 205.422 250.337C205.342 250.337 205.23 250.337 205.086 250.337C204.942 250.337 204.79 250.337 204.63 250.337C204.47 250.337 204.318 250.337 204.174 250.337C204.046 250.337 203.942 250.337 203.862 250.337C203.27 250.337 202.814 250.273 202.494 250.145C202.19 250.001 201.982 249.769 201.87 249.449C201.758 249.113 201.702 248.649 201.702 248.057V246.113ZM193.806 253.097H208.734V255.473H193.806V253.097ZM202.71 253.889C203.142 255.265 203.862 256.369 204.87 257.201C205.878 258.017 207.294 258.553 209.118 258.809C208.83 259.081 208.526 259.457 208.206 259.937C207.902 260.417 207.67 260.841 207.51 261.209C206.086 260.905 204.902 260.449 203.958 259.841C203.014 259.233 202.246 258.465 201.654 257.537C201.062 256.593 200.59 255.473 200.238 254.177L202.71 253.889ZM197.238 244.385H206.118V246.641H197.238V252.353H194.862V244.385H194.886H197.238ZM205.494 244.385H207.942V252.329H205.494V244.385ZM202.134 240.449H202.734L203.142 240.329L204.966 241.481C204.726 241.961 204.446 242.481 204.126 243.041C203.822 243.585 203.502 244.113 203.166 244.625C202.83 245.121 202.51 245.569 202.206 245.969C201.966 245.793 201.654 245.585 201.27 245.345C200.886 245.105 200.55 244.913 200.262 244.769C200.502 244.417 200.742 244.009 200.982 243.545C201.238 243.081 201.462 242.617 201.654 242.153C201.862 241.673 202.022 241.265 202.134 240.929V240.449ZM199.902 251.153H202.518C202.438 252.497 202.278 253.713 202.038 254.801C201.798 255.889 201.39 256.849 200.814 257.681C200.238 258.513 199.414 259.225 198.342 259.817C197.27 260.425 195.862 260.929 194.118 261.329C194.006 260.993 193.806 260.601 193.518 260.153C193.246 259.721 192.982 259.369 192.726 259.097C194.278 258.809 195.518 258.441 196.446 257.993C197.374 257.529 198.07 256.977 198.534 256.337C199.014 255.697 199.342 254.953 199.518 254.105C199.71 253.241 199.838 252.257 199.902 251.153ZM186.27 250.793C187.23 250.585 188.374 250.305 189.702 249.953C191.046 249.601 192.398 249.233 193.758 248.849L194.118 251.441C192.886 251.809 191.638 252.177 190.374 252.545C189.126 252.913 187.966 253.249 186.894 253.553L186.27 250.793ZM186.654 243.281H193.998V245.921H186.654V243.281ZM189.174 238.745H191.814V258.233C191.814 258.889 191.742 259.409 191.598 259.793C191.47 260.193 191.222 260.505 190.854 260.729C190.502 260.953 190.054 261.105 189.51 261.185C188.982 261.265 188.318 261.297 187.518 261.281C187.486 260.929 187.398 260.489 187.254 259.961C187.11 259.449 186.95 259.001 186.774 258.617C187.222 258.633 187.63 258.649 187.998 258.665C188.382 258.665 188.646 258.657 188.79 258.641C188.934 258.641 189.03 258.617 189.078 258.569C189.142 258.505 189.174 258.393 189.174 258.233V238.745ZM216.054 259.121V256.265H221.334V244.985H217.158V242.777C218.278 242.569 219.246 242.385 220.062 242.225C220.878 242.049 221.614 241.737 222.27 241.289H224.862V256.265H229.662V259.121H216.054ZM248.142 243.161H256.83V245.177H248.142V243.161ZM248.142 246.377H256.83V248.393H248.142V246.377ZM245.142 249.665H258.966V252.161H245.142V249.665ZM246.87 239.537H257.718V241.985H249.63V251.009H246.87V239.537ZM245.022 258.209C246.03 258.097 247.238 257.961 248.646 257.801C250.054 257.625 251.478 257.441 252.918 257.249L253.038 259.745C251.71 259.969 250.39 260.177 249.078 260.369C247.766 260.561 246.566 260.737 245.478 260.897L245.022 258.209ZM253.038 251.009C253.358 252.209 253.79 253.329 254.334 254.369C254.878 255.393 255.566 256.281 256.398 257.033C257.23 257.785 258.214 258.369 259.35 258.785C259.142 258.977 258.918 259.217 258.678 259.505C258.438 259.809 258.206 260.121 257.982 260.441C257.774 260.761 257.606 261.049 257.478 261.305C256.214 260.745 255.142 259.985 254.262 259.025C253.398 258.065 252.678 256.945 252.102 255.665C251.526 254.385 251.054 252.969 250.686 251.417L253.038 251.009ZM256.566 252.233L258.942 253.529C258.286 254.105 257.606 254.673 256.902 255.233C256.198 255.777 255.558 256.241 254.982 256.625L253.206 255.521C253.574 255.233 253.966 254.905 254.382 254.537C254.798 254.153 255.198 253.761 255.582 253.361C255.966 252.945 256.294 252.569 256.566 252.233ZM246.942 250.385H249.702V258.593L246.942 259.049V250.385ZM237.918 250.409H243.654V252.977H237.918V250.409ZM242.358 250.409H245.214C245.214 250.409 245.206 250.481 245.19 250.625C245.19 250.753 245.19 250.905 245.19 251.081C245.19 251.241 245.182 251.385 245.166 251.513C245.054 253.369 244.934 254.889 244.806 256.073C244.694 257.257 244.55 258.177 244.374 258.833C244.198 259.489 243.99 259.961 243.75 260.249C243.478 260.553 243.19 260.769 242.886 260.897C242.598 261.041 242.262 261.137 241.878 261.185C241.558 261.249 241.134 261.281 240.606 261.281C240.094 261.297 239.542 261.289 238.95 261.257C238.934 260.857 238.854 260.401 238.71 259.889C238.566 259.377 238.382 258.945 238.158 258.593C238.654 258.625 239.11 258.649 239.526 258.665C239.942 258.681 240.262 258.689 240.486 258.689C240.662 258.689 240.814 258.673 240.942 258.641C241.086 258.593 241.214 258.513 241.326 258.401C241.486 258.225 241.622 257.873 241.734 257.345C241.862 256.801 241.974 256.001 242.07 254.945C242.182 253.889 242.278 252.521 242.358 250.841V250.409ZM237.654 245.417H240.27C240.174 246.329 240.062 247.289 239.934 248.297C239.822 249.305 239.702 250.281 239.574 251.225C239.462 252.153 239.342 252.977 239.214 253.697L236.55 253.409C236.694 252.705 236.83 251.897 236.958 250.985C237.102 250.073 237.238 249.129 237.366 248.153C237.494 247.177 237.59 246.265 237.654 245.417ZM237.846 245.417H242.19V242.585H236.982V239.945H244.806V248.057H237.846V245.417Z" fill="white"/>
<path d="M60.216 143.658H83.822V150.038H60.216V143.658ZM58.244 163.784H90.318V170.396H58.244V163.784ZM70.54 157.056H77.5V187.448C77.5 189.188 77.2873 190.561 76.862 191.566C76.4367 192.571 75.6633 193.345 74.542 193.886C73.382 194.427 71.99 194.775 70.366 194.93C68.7807 195.123 66.9247 195.201 64.798 195.162C64.6433 194.195 64.3147 193.055 63.812 191.74C63.3093 190.425 62.8067 189.285 62.304 188.318C63.7733 188.357 65.1847 188.395 66.538 188.434C67.8913 188.473 68.8193 188.473 69.322 188.434C69.786 188.434 70.0953 188.357 70.25 188.202C70.4433 188.047 70.54 187.777 70.54 187.39V157.056ZM81.27 143.658H83.01L84.402 143.252L88.926 146.674C87.8047 148.375 86.5287 150.154 85.098 152.01C83.706 153.827 82.2367 155.587 80.69 157.288C79.1433 158.951 77.616 160.42 76.108 161.696C75.644 161.077 75.006 160.362 74.194 159.55C73.382 158.738 72.686 158.1 72.106 157.636C73.266 156.553 74.4453 155.258 75.644 153.75C76.8427 152.242 77.9253 150.715 78.892 149.168C79.8973 147.621 80.69 146.268 81.27 145.108V143.658ZM36.146 152.242H54.938V158.738H36.146V152.242ZM43.976 140.7L50.472 141.396C49.9307 144.489 49.312 147.737 48.616 151.14C47.9587 154.543 47.2627 157.945 46.528 161.348C45.7933 164.712 45.0587 167.979 44.324 171.15C43.5893 174.282 42.874 177.143 42.178 179.734L36.494 176.776C37.1513 174.495 37.8087 171.885 38.466 168.946C39.162 166.007 39.8387 162.914 40.496 159.666C41.1533 156.379 41.772 153.131 42.352 149.922C42.9707 146.674 43.512 143.6 43.976 140.7ZM39.568 175.79L43.338 170.86C45.3487 172.136 47.456 173.567 49.66 175.152C51.9027 176.737 53.9713 178.342 55.866 179.966C57.7993 181.59 59.3267 183.137 60.448 184.606L56.272 190.232C55.1893 188.763 53.72 187.177 51.864 185.476C50.008 183.736 47.9973 182.015 45.832 180.314C43.7053 178.613 41.6173 177.105 39.568 175.79ZM52.502 152.242H53.662L54.88 152.126L58.998 152.822C58.5727 160.362 57.6253 166.877 56.156 172.368C54.7253 177.82 52.7147 182.421 50.124 186.172C47.572 189.923 44.3627 192.997 40.496 195.394C40.0707 194.543 39.452 193.557 38.64 192.436C37.828 191.353 37.0547 190.503 36.32 189.884C39.6067 188.144 42.3907 185.592 44.672 182.228C46.9533 178.864 48.732 174.765 50.008 169.932C51.3227 165.099 52.154 159.647 52.502 153.576V152.242ZM123.61 183.446L129.004 181.996C129.661 183.001 130.222 184.103 130.686 185.302C131.15 186.501 131.479 187.564 131.672 188.492L125.988 190.174C125.872 189.246 125.582 188.144 125.118 186.868C124.654 185.592 124.151 184.451 123.61 183.446ZM138.922 181.88L144.954 183.504C144.335 184.741 143.717 185.94 143.098 187.1C142.518 188.26 141.977 189.246 141.474 190.058L136.312 188.55C136.776 187.622 137.259 186.52 137.762 185.244C138.265 183.968 138.651 182.847 138.922 181.88ZM126.8 175.442V178.342H141.184V175.442H126.8ZM121 171.324H147.158V182.46H121V171.324ZM124.712 155.316V157.984H143.04V155.316H124.712ZM124.712 148.704V151.314H143.04V148.704H124.712ZM119.202 144.47H148.84V162.218H119.202V144.47ZM118.332 164.19H149.826V169.41H118.332V164.19ZM117.172 188.956H150.638V194.118H117.172V188.956ZM126.974 140.7H132.078V147.602H126.974V140.7ZM135.5 140.7H140.662V147.602H135.5V140.7ZM127.96 146.442H132.078V161.406H127.96V146.442ZM135.5 146.442H139.618V161.406H135.5V146.442ZM96.698 155.896H117.056V161.928H96.698V155.896ZM98.09 144.354H115.896V150.328H98.09V144.354ZM112.474 164.886H116.882V186.462H112.474V164.886ZM104.296 158.912H110.038V195.162H104.296V158.912ZM97.51 164.944H101.918V171.904C101.918 174.881 101.783 178.013 101.512 181.3C101.241 184.548 100.603 187.564 99.598 190.348C99.134 189.884 98.5153 189.362 97.742 188.782C96.9687 188.202 96.292 187.757 95.712 187.448C96.4853 185.089 96.9687 182.518 97.162 179.734C97.394 176.95 97.51 174.301 97.51 171.788V164.944ZM155.8 170.396C158.391 169.855 161.484 169.159 165.08 168.308C168.676 167.419 172.272 166.51 175.868 165.582L176.68 171.846C173.393 172.774 170.068 173.702 166.704 174.63C163.379 175.558 160.324 176.389 157.54 177.124L155.8 170.396ZM156.728 151.662H175.984V158.1H156.728V151.662ZM163.746 140.7H170.416V187.912C170.416 189.575 170.242 190.87 169.894 191.798C169.546 192.726 168.889 193.441 167.922 193.944C166.955 194.447 165.757 194.775 164.326 194.93C162.895 195.123 161.175 195.22 159.164 195.22C159.048 194.331 158.797 193.287 158.41 192.088C158.062 190.889 157.675 189.826 157.25 188.898C158.371 188.937 159.454 188.975 160.498 189.014C161.542 189.014 162.257 189.014 162.644 189.014C163.031 189.014 163.301 188.937 163.456 188.782C163.649 188.589 163.746 188.299 163.746 187.912V140.7ZM177.376 153.692H209.682V194.698H202.78V160.304H183.988V195.104H177.376V153.692ZM181.494 168.714H204.694V175.21H181.494V168.714ZM181.726 184.2H204.868V190.87H181.726V184.2ZM189.904 140.816H196.516V188.26H189.904V140.816ZM217.57 177.646H270.408V183.33H217.57V177.646ZM247.904 179.618C249.025 181.822 250.63 183.581 252.718 184.896C254.806 186.172 257.435 187.119 260.606 187.738C263.815 188.318 267.643 188.666 272.09 188.782C271.587 189.246 271.065 189.845 270.524 190.58C270.021 191.353 269.557 192.127 269.132 192.9C268.707 193.712 268.359 194.447 268.088 195.104C264.299 194.872 260.973 194.427 258.112 193.77C255.251 193.151 252.757 192.262 250.63 191.102C248.503 189.981 246.667 188.55 245.12 186.81C243.612 185.07 242.278 183.001 241.118 180.604L247.904 179.618ZM251.094 175.732L253.936 171.846C255.173 172.117 256.527 172.465 257.996 172.89C259.465 173.315 260.896 173.76 262.288 174.224C263.68 174.688 264.84 175.133 265.768 175.558L262.752 179.908C261.901 179.483 260.799 179.019 259.446 178.516C258.093 177.975 256.681 177.472 255.212 177.008C253.743 176.505 252.37 176.08 251.094 175.732ZM237.754 158.738H271.336V163.552H237.754V158.738ZM257.01 154.968H263.564V166.974C263.564 168.405 263.39 169.487 263.042 170.222C262.694 170.957 261.998 171.498 260.954 171.846C259.949 172.233 258.731 172.465 257.3 172.542C255.908 172.581 254.284 172.6 252.428 172.6C252.273 171.788 252.022 170.937 251.674 170.048C251.326 169.12 250.959 168.289 250.572 167.554C251.693 167.593 252.795 167.612 253.878 167.612C254.999 167.612 255.715 167.612 256.024 167.612C256.411 167.612 256.662 167.554 256.778 167.438C256.933 167.322 257.01 167.109 257.01 166.8V154.968ZM216.816 157.984H233.056V163.378H216.816V157.984ZM229.692 140.642H235.956V174.05H229.692V140.642ZM219.542 142.324H225.342V149.632H233.288V154.91H219.542V142.324ZM241.292 165.408L245.874 162.74C246.918 163.591 247.962 164.557 249.006 165.64C250.05 166.723 250.843 167.728 251.384 168.656L246.454 171.556C245.99 170.667 245.255 169.642 244.25 168.482C243.283 167.322 242.297 166.297 241.292 165.408ZM239.9 149.226L243.67 147.834C244.869 148.53 246.106 149.4 247.382 150.444C248.658 151.488 249.644 152.435 250.34 153.286L246.396 154.794C245.777 153.943 244.83 152.996 243.554 151.952C242.317 150.908 241.099 149.999 239.9 149.226ZM245.816 147.138L249.122 145.398C250.089 145.862 251.094 146.423 252.138 147.08C253.182 147.699 254.168 148.356 255.096 149.052C256.024 149.709 256.778 150.347 257.358 150.966L253.878 152.764C253.337 152.184 252.621 151.565 251.732 150.908C250.843 150.212 249.876 149.535 248.832 148.878C247.827 148.182 246.821 147.602 245.816 147.138ZM263.1 143.484H264.26L265.362 143.252L268.958 145.05C267.682 147.254 266.077 149.149 264.144 150.734C262.211 152.319 260.007 153.673 257.532 154.794C255.057 155.877 252.389 156.766 249.528 157.462C246.667 158.119 243.709 158.641 240.654 159.028C240.422 158.371 240.035 157.617 239.494 156.766C238.991 155.915 238.508 155.219 238.044 154.678C240.789 154.446 243.438 154.079 245.99 153.576C248.581 153.035 250.978 152.339 253.182 151.488C255.425 150.637 257.397 149.613 259.098 148.414C260.799 147.215 262.133 145.804 263.1 144.18V143.484ZM253.008 140.642L258.692 141.918C256.372 144.083 253.607 145.939 250.398 147.486C247.227 149.033 243.496 150.386 239.204 151.546C238.856 150.927 238.334 150.212 237.638 149.4C236.981 148.588 236.381 147.969 235.84 147.544C239.861 146.732 243.303 145.746 246.164 144.586C249.064 143.387 251.345 142.073 253.008 140.642ZM251.674 143.484H264.898V147.254H246.512L251.674 143.484ZM220.296 160.768H226.444V163.726C226.444 164.615 226.309 165.775 226.038 167.206C225.806 168.637 225.361 170.106 224.704 171.614C224.047 173.122 223.061 174.417 221.746 175.5C221.359 175.191 220.837 174.843 220.18 174.456C219.561 174.069 218.923 173.702 218.266 173.354C217.609 173.006 217.009 172.735 216.468 172.542C217.589 171.653 218.421 170.647 218.962 169.526C219.503 168.366 219.851 167.245 220.006 166.162C220.199 165.041 220.296 164.151 220.296 163.494V160.768ZM240.016 172.252H246.918V177.53C246.918 178.922 246.705 180.333 246.28 181.764C245.893 183.195 245.159 184.606 244.076 185.998C242.993 187.351 241.447 188.627 239.436 189.826C237.425 191.025 234.835 192.088 231.664 193.016C228.493 193.983 224.588 194.756 219.948 195.336C219.561 194.485 219.001 193.499 218.266 192.378C217.531 191.295 216.835 190.367 216.178 189.594C220.315 189.13 223.795 188.55 226.618 187.854C229.441 187.158 231.722 186.385 233.462 185.534C235.241 184.683 236.594 183.813 237.522 182.924C238.489 181.996 239.146 181.068 239.494 180.14C239.842 179.173 240.016 178.245 240.016 177.356V172.252ZM278.122 161.058H330.322V167.322H278.122V161.058ZM281.95 150.27H327.074V156.418H281.95V150.27ZM288.156 172.194H315.416V178.458H288.156V172.194ZM312.284 152.996C313.405 156.283 314.875 159.357 316.692 162.218C318.548 165.079 320.733 167.631 323.246 169.874C325.798 172.078 328.64 173.837 331.772 175.152C331.269 175.577 330.728 176.138 330.148 176.834C329.568 177.491 329.007 178.187 328.466 178.922C327.963 179.618 327.538 180.275 327.19 180.894C323.787 179.231 320.752 177.105 318.084 174.514C315.416 171.923 313.096 168.946 311.124 165.582C309.152 162.218 307.489 158.564 306.136 154.62L312.284 152.996ZM284.676 143.484L290.476 141.396C291.056 142.208 291.636 143.117 292.216 144.122C292.796 145.089 293.318 146.055 293.782 147.022C294.285 147.989 294.671 148.839 294.942 149.574L288.736 151.894C288.427 150.773 287.885 149.419 287.112 147.834C286.339 146.249 285.527 144.799 284.676 143.484ZM316.402 141.106L323.246 143.136C322.395 144.799 321.487 146.403 320.52 147.95C319.592 149.458 318.722 150.773 317.91 151.894L311.994 149.98C312.497 149.168 313.019 148.24 313.56 147.196C314.101 146.152 314.623 145.108 315.126 144.064C315.629 142.981 316.054 141.995 316.402 141.106ZM313.618 172.194H320.694C320.694 172.194 320.675 172.542 320.636 173.238C320.636 173.895 320.597 174.456 320.52 174.92C320.327 178.593 320.075 181.629 319.766 184.026C319.495 186.423 319.167 188.318 318.78 189.71C318.393 191.063 317.91 192.049 317.33 192.668C316.673 193.403 315.977 193.925 315.242 194.234C314.546 194.582 313.715 194.814 312.748 194.93C311.897 195.046 310.795 195.104 309.442 195.104C308.127 195.143 306.697 195.123 305.15 195.046C305.111 194.041 304.899 192.919 304.512 191.682C304.164 190.483 303.7 189.439 303.12 188.55C304.396 188.627 305.595 188.685 306.716 188.724C307.876 188.763 308.746 188.782 309.326 188.782C309.79 188.782 310.177 188.743 310.486 188.666C310.795 188.589 311.085 188.415 311.356 188.144C311.704 187.757 312.013 187.042 312.284 185.998C312.555 184.915 312.787 183.349 312.98 181.3C313.212 179.212 313.425 176.505 313.618 173.18V172.194ZM297.494 174.282H304.744C304.473 176.834 304.029 179.193 303.41 181.358C302.791 183.485 301.825 185.437 300.51 187.216C299.195 188.956 297.359 190.503 295 191.856C292.68 193.209 289.683 194.369 286.01 195.336C285.778 194.717 285.449 194.041 285.024 193.306C284.599 192.571 284.115 191.837 283.574 191.102C283.071 190.406 282.588 189.826 282.124 189.362C285.333 188.666 287.885 187.854 289.78 186.926C291.713 185.959 293.202 184.857 294.246 183.62C295.29 182.344 296.044 180.933 296.508 179.386C296.972 177.839 297.301 176.138 297.494 174.282ZM299.756 140.584L307.064 141.86C306.136 145.92 304.976 149.864 303.584 153.692C302.231 157.52 300.529 161.135 298.48 164.538C296.469 167.941 294.033 171.015 291.172 173.76C288.311 176.505 284.908 178.864 280.964 180.836C280.655 180.295 280.249 179.676 279.746 178.98C279.243 178.284 278.721 177.607 278.18 176.95C277.639 176.254 277.136 175.674 276.672 175.21C280.268 173.509 283.381 171.44 286.01 169.004C288.639 166.529 290.843 163.784 292.622 160.768C294.439 157.752 295.928 154.543 297.088 151.14C298.248 147.699 299.137 144.18 299.756 140.584Z" fill="white"/>
<ellipse cx="76.3214" cy="61" rx="54.1017" ry="56" fill="#6EE292"/>
<path d="M61.6412 27.3111V92.7656H45.8528V42.0767H45.4693L30.8315 51.0256V37.3466L46.9714 27.3111H61.6412ZM94.1815 94.3636C88.4712 94.3636 83.5494 93.0107 79.4158 90.3047C75.2823 87.5774 72.0969 83.6676 69.8597 78.5753C67.6225 73.4616 66.5146 67.3146 66.5359 60.1342C66.5572 52.9538 67.6758 46.8601 69.8917 41.853C72.1289 36.8246 75.3036 33 79.4158 30.3793C83.5494 27.7372 88.4712 26.4162 94.1815 26.4162C99.8917 26.4162 104.814 27.7372 108.947 30.3793C113.102 33 116.298 36.8246 118.535 41.853C120.772 46.8814 121.88 52.9751 121.859 60.1342C121.859 67.3359 120.74 73.4936 118.503 78.6072C116.266 83.7209 113.081 87.6307 108.947 90.3366C104.835 93.0213 99.913 94.3636 94.1815 94.3636ZM94.1815 81.4197C97.5906 81.4197 100.35 79.6832 102.459 76.2102C104.569 72.7159 105.613 67.3572 105.591 60.1342C105.591 55.4041 105.112 51.505 104.153 48.4368C103.194 45.3473 101.863 43.0462 100.158 41.5334C98.4535 40.0206 96.4613 39.2642 94.1815 39.2642C90.7937 39.2642 88.0558 40.9794 85.9677 44.4098C83.8796 47.8189 82.8249 53.0604 82.8036 60.1342C82.7823 64.9283 83.2404 68.902 84.1779 72.0554C85.1367 75.2088 86.479 77.5632 88.2049 79.1186C89.9308 80.6527 91.9229 81.4197 94.1815 81.4197Z" fill="white"/>
<path d="M514.481 215.535C510.519 233.79 488.183 227.61 460.29 221.556C432.397 215.502 409.509 211.865 413.471 193.61C418.435 170.743 445.128 156.846 473.022 162.9C500.915 168.954 519.607 191.921 514.481 215.535Z" fill="#6EE292"/>
<rect x="411.19" y="195.53" width="107.229" height="15.0374" rx="7.51872" transform="rotate(12.2465 411.19 195.53)" fill="#6EE292"/>
<rect x="463.475" y="121.382" width="36.4959" height="54.0699" transform="rotate(12.2465 463.475 121.382)" fill="#6EE292"/>
<path d="M502.186 129.784C497.931 149.385 485.074 163.233 473.469 160.714C461.864 158.195 455.906 140.263 460.16 120.662C467.334 87.611 463.09 84.1342 488.877 89.7313C514.971 95.3955 509.115 97.8616 502.186 129.784Z" fill="#6EE292"/>
<rect x="463.475" y="121.382" width="36.4959" height="54.0699" transform="rotate(12.2465 463.475 121.382)" fill="#6EE292"/>
<path d="M510 251.5C510 257.299 486.495 262 457.5 262C428.505 262 405 257.299 405 251.5C405 241.913 428.505 241 457.5 241C486.495 241 510 242.826 510 251.5Z" fill="#93FFB4"/>
</svg>
