<svg width="614" height="315" viewBox="0 0 614 315" fill="none" xmlns="http://www.w3.org/2000/svg">
<path d="M43.9988 31.9268H583.999C600.567 31.9268 613.999 45.3582 613.999 61.9268V314.298H73.9988C57.4302 314.298 43.9988 300.867 43.9988 284.298V31.9268Z" fill="#39BF63"/>
<line x1="391.795" y1="220.798" x2="82.6429" y2="220.798" stroke="white"/>
<path d="M195.753 92.6501H224.905V96.6501H195.753V92.6501ZM208.137 81.1301H212.329V111.178H208.137V81.1301ZM235.401 80.9701L239.337 81.9941C238.761 83.5728 238.078 85.1194 237.289 86.6341C236.521 88.1488 235.678 89.5568 234.761 90.8581C233.865 92.1381 232.937 93.2581 231.977 94.2181C231.721 94.0048 231.39 93.7381 230.985 93.4181C230.579 93.0768 230.163 92.7568 229.737 92.4581C229.331 92.1594 228.969 91.9141 228.649 91.7221C229.63 90.8901 230.547 89.9088 231.401 88.7781C232.254 87.6261 233.022 86.3888 233.705 85.0661C234.387 83.7221 234.953 82.3568 235.401 80.9701ZM236.105 84.6181H256.457V88.3301H234.249L236.105 84.6181ZM233.833 92.2021H255.689V95.7861H237.673V102.506H233.833V92.2021ZM228.745 100.618H258.185V104.298H228.745V100.618ZM243.241 86.5381H247.209V111.178H243.241V86.5381ZM276.937 88.3941H287.945V91.5301H276.937V88.3941ZM271.433 106.954C272.393 106.805 273.502 106.623 274.761 106.41C276.041 106.197 277.395 105.973 278.825 105.738C280.254 105.482 281.673 105.226 283.081 104.97L283.401 108.298C281.545 108.725 279.678 109.141 277.801 109.546C275.923 109.973 274.217 110.346 272.681 110.666L271.433 106.954ZM274.761 82.5381H278.473V107.818H274.761V82.5381ZM276.937 82.5381H289.705V97.5141H276.937V94.2181H285.897V85.8341H276.937V82.5381ZM283.593 95.3061C283.998 97.2261 284.553 99.0074 285.257 100.65C285.961 102.271 286.857 103.701 287.945 104.938C289.033 106.175 290.366 107.135 291.945 107.818C291.667 108.074 291.369 108.383 291.049 108.746C290.729 109.13 290.419 109.525 290.121 109.93C289.843 110.357 289.619 110.741 289.449 111.082C287.721 110.165 286.27 108.97 285.097 107.498C283.945 106.005 282.995 104.277 282.249 102.314C281.502 100.351 280.894 98.1968 280.425 95.8501L283.593 95.3061ZM288.233 97.7381L291.241 99.8181C290.366 100.671 289.438 101.514 288.457 102.346C287.497 103.157 286.611 103.85 285.801 104.426L283.433 102.602C283.945 102.175 284.489 101.685 285.065 101.13C285.662 100.575 286.238 99.9994 286.793 99.4021C287.347 98.8048 287.827 98.2501 288.233 97.7381ZM263.113 82.4741H271.081V85.9301H266.697V111.178H263.113V82.4741ZM270.025 82.4741H270.697L271.241 82.3461L273.865 83.8501C273.566 84.7888 273.246 85.7808 272.905 86.8261C272.563 87.8714 272.222 88.9061 271.881 89.9301C271.539 90.9541 271.198 91.8821 270.857 92.7141C271.902 93.9514 272.574 95.1248 272.873 96.2341C273.193 97.3221 273.353 98.3354 273.353 99.2741C273.353 100.341 273.235 101.215 273.001 101.898C272.766 102.581 272.382 103.114 271.849 103.498C271.593 103.69 271.294 103.839 270.953 103.946C270.633 104.053 270.302 104.138 269.961 104.202C269.662 104.245 269.31 104.266 268.905 104.266C268.521 104.266 268.126 104.266 267.721 104.266C267.699 103.775 267.614 103.199 267.465 102.538C267.337 101.877 267.145 101.311 266.889 100.842C267.187 100.863 267.454 100.874 267.689 100.874C267.945 100.874 268.169 100.874 268.361 100.874C268.531 100.874 268.691 100.853 268.841 100.81C269.011 100.746 269.171 100.671 269.321 100.586C269.513 100.437 269.651 100.213 269.737 99.9141C269.843 99.5941 269.886 99.2101 269.865 98.7621C269.865 98.0154 269.705 97.1621 269.385 96.2021C269.086 95.2208 268.457 94.1968 267.497 93.1301C267.731 92.4048 267.966 91.6048 268.201 90.7301C268.457 89.8554 268.691 88.9808 268.905 88.1061C269.139 87.2101 269.353 86.3781 269.545 85.6101C269.758 84.8208 269.918 84.1701 270.025 83.6581V82.4741ZM301.161 90.7621H318.857V94.4421H301.161V90.7621ZM310.025 98.4421H320.809V102.058H310.025V98.4421ZM308.009 92.9061H312.009V108.362L308.009 107.882V92.9061ZM300.361 96.2021L304.361 96.6181C303.934 99.8821 303.209 102.762 302.185 105.258C301.161 107.754 299.731 109.791 297.897 111.37C297.683 111.135 297.385 110.847 297.001 110.506C296.617 110.165 296.211 109.834 295.785 109.514C295.379 109.194 295.027 108.938 294.729 108.746C296.457 107.466 297.758 105.749 298.633 103.594C299.507 101.418 300.083 98.9541 300.361 96.2021ZM303.465 100.234C303.955 101.685 304.595 102.869 305.385 103.786C306.195 104.682 307.123 105.365 308.169 105.834C309.235 106.282 310.398 106.591 311.657 106.762C312.915 106.933 314.249 107.018 315.657 107.018C315.998 107.018 316.457 107.018 317.033 107.018C317.63 107.018 318.281 107.018 318.985 107.018C319.71 107.018 320.446 107.018 321.193 107.018C321.939 106.997 322.633 106.986 323.273 106.986C323.913 106.965 324.446 106.943 324.873 106.922C324.681 107.242 324.489 107.637 324.297 108.106C324.126 108.554 323.966 109.023 323.817 109.514C323.667 110.005 323.561 110.453 323.497 110.858H321.865H315.465C313.609 110.858 311.902 110.73 310.345 110.474C308.787 110.218 307.379 109.749 306.121 109.066C304.883 108.405 303.774 107.445 302.793 106.186C301.833 104.927 301.011 103.285 300.329 101.258L303.465 100.234ZM307.945 81.1621H312.041V86.9861H307.945V81.1621ZM296.297 84.3941H323.785V92.4261H319.849V88.0101H300.073V92.4261H296.297V84.3941ZM345.604 93.2261H366.052V96.6821H345.604V93.2261ZM346.724 86.7621H364.964V90.1541H346.724V86.7621ZM353.476 88.4261H357.316V93.5461C357.316 94.5701 357.188 95.6368 356.932 96.7461C356.697 97.8554 356.249 98.9648 355.588 100.074C354.948 101.162 354.02 102.218 352.804 103.242C351.609 104.245 350.062 105.162 348.164 105.994C347.993 105.717 347.758 105.407 347.46 105.066C347.161 104.725 346.852 104.383 346.532 104.042C346.212 103.701 345.902 103.423 345.604 103.21C347.417 102.549 348.846 101.813 349.892 101.002C350.958 100.191 351.737 99.3488 352.228 98.4741C352.74 97.5994 353.07 96.7461 353.22 95.9141C353.39 95.0608 353.476 94.2608 353.476 93.5141V88.4261ZM357.892 95.6581C358.553 97.4288 359.556 98.9328 360.9 100.17C362.265 101.386 364.014 102.261 366.148 102.794C365.87 103.05 365.572 103.37 365.252 103.754C364.953 104.138 364.665 104.533 364.388 104.938C364.132 105.322 363.908 105.685 363.716 106.026C361.369 105.258 359.47 104.053 358.02 102.41C356.569 100.767 355.449 98.7514 354.66 96.3621L357.892 95.6581ZM344.324 93.5781V105.386H340.58V97.1301H336.868V93.5781H344.324ZM344.324 103.722C344.985 104.767 345.913 105.535 347.108 106.026C348.302 106.517 349.732 106.794 351.396 106.858C352.334 106.901 353.444 106.933 354.724 106.954C356.025 106.954 357.39 106.943 358.82 106.922C360.249 106.901 361.646 106.858 363.012 106.794C364.398 106.73 365.625 106.655 366.692 106.57C366.564 106.869 366.414 107.253 366.244 107.722C366.073 108.191 365.913 108.671 365.764 109.162C365.636 109.653 365.54 110.09 365.476 110.474C364.516 110.538 363.417 110.581 362.18 110.602C360.942 110.645 359.673 110.666 358.372 110.666C357.07 110.687 355.812 110.687 354.596 110.666C353.38 110.645 352.292 110.613 351.332 110.57C349.369 110.485 347.694 110.175 346.308 109.642C344.921 109.13 343.694 108.255 342.628 107.018C341.924 107.615 341.198 108.234 340.452 108.874C339.726 109.514 338.926 110.175 338.052 110.858L336.164 106.858C336.91 106.41 337.689 105.919 338.5 105.386C339.31 104.853 340.089 104.298 340.836 103.722H344.324ZM336.9 84.1701L339.748 81.8661C340.409 82.2928 341.081 82.7941 341.764 83.3701C342.446 83.9248 343.086 84.5008 343.684 85.0981C344.281 85.6741 344.761 86.2074 345.124 86.6981L342.084 89.2581C341.764 88.7461 341.316 88.1914 340.74 87.5941C340.185 86.9968 339.566 86.3994 338.884 85.8021C338.201 85.1834 337.54 84.6394 336.9 84.1701ZM360.1 81.0981L364.004 82.3141C363.428 83.2314 362.83 84.1381 362.212 85.0341C361.614 85.9088 361.06 86.6554 360.548 87.2741L357.412 86.1861C357.732 85.6954 358.062 85.1621 358.404 84.5861C358.745 83.9888 359.065 83.3914 359.364 82.7941C359.662 82.1754 359.908 81.6101 360.1 81.0981ZM347.556 82.5061L350.788 81.1621C351.385 81.8874 351.95 82.7088 352.484 83.6261C353.017 84.5434 353.39 85.3541 353.604 86.0581L350.148 87.5301C349.977 86.8474 349.636 86.0368 349.124 85.0981C348.633 84.1381 348.11 83.2741 347.556 82.5061Z" fill="white"/>
<path d="M95.0329 242.37H103.289V244.722H95.0329V242.37ZM90.9049 256.29C91.6249 256.178 92.4569 256.042 93.4009 255.882C94.3609 255.722 95.3769 255.554 96.4489 255.378C97.5209 255.186 98.5849 254.994 99.6409 254.802L99.8809 257.298C98.4889 257.618 97.0889 257.93 95.6809 258.234C94.2729 258.554 92.9929 258.834 91.8409 259.074L90.9049 256.29ZM93.4009 237.978H96.1849V256.938H93.4009V237.978ZM95.0329 237.978H104.609V249.21H95.0329V246.738H101.753V240.45H95.0329V237.978ZM100.025 247.554C100.329 248.994 100.745 250.33 101.273 251.562C101.801 252.778 102.473 253.85 103.289 254.778C104.105 255.706 105.105 256.426 106.289 256.938C106.081 257.13 105.857 257.362 105.617 257.634C105.377 257.922 105.145 258.218 104.921 258.522C104.713 258.842 104.545 259.13 104.417 259.386C103.121 258.698 102.033 257.802 101.153 256.698C100.289 255.578 99.5769 254.282 99.0169 252.81C98.4569 251.338 98.0009 249.722 97.6489 247.962L100.025 247.554ZM103.505 249.378L105.761 250.938C105.105 251.578 104.409 252.21 103.673 252.834C102.953 253.442 102.289 253.962 101.681 254.394L99.9049 253.026C100.289 252.706 100.697 252.338 101.129 251.922C101.577 251.506 102.009 251.074 102.425 250.626C102.841 250.178 103.201 249.762 103.505 249.378ZM84.6649 237.93H90.6409V240.522H87.3529V259.458H84.6649V237.93ZM89.8489 237.93H90.3529L90.7609 237.834L92.7289 238.962C92.5049 239.666 92.2649 240.41 92.0089 241.194C91.7529 241.978 91.4969 242.754 91.2409 243.522C90.9849 244.29 90.7289 244.986 90.4729 245.61C91.2569 246.538 91.7609 247.418 91.9849 248.25C92.2249 249.066 92.3449 249.826 92.3449 250.53C92.3449 251.33 92.2569 251.986 92.0809 252.498C91.9049 253.01 91.6169 253.41 91.2169 253.698C91.0249 253.842 90.8009 253.954 90.5449 254.034C90.3049 254.114 90.0569 254.178 89.8009 254.226C89.5769 254.258 89.3129 254.274 89.0089 254.274C88.7209 254.274 88.4249 254.274 88.1209 254.274C88.1049 253.906 88.0409 253.474 87.9289 252.978C87.8329 252.482 87.6889 252.058 87.4969 251.706C87.7209 251.722 87.9209 251.73 88.0969 251.73C88.2889 251.73 88.4569 251.73 88.6009 251.73C88.7289 251.73 88.8489 251.714 88.9609 251.682C89.0889 251.634 89.2089 251.578 89.3209 251.514C89.4649 251.402 89.5689 251.234 89.6329 251.01C89.7129 250.77 89.7449 250.482 89.7289 250.146C89.7289 249.586 89.6089 248.946 89.3689 248.226C89.1449 247.49 88.6729 246.722 87.9529 245.922C88.1289 245.378 88.3049 244.778 88.4809 244.122C88.6729 243.466 88.8489 242.81 89.0089 242.154C89.1849 241.482 89.3449 240.858 89.4889 240.282C89.6489 239.69 89.7689 239.202 89.8489 238.818V237.93ZM114.761 241.314V242.13H124.745V241.314H114.761ZM114.761 239.106V239.922H124.745V239.106H114.761ZM112.001 237.642H127.649V243.594H112.001V237.642ZM114.257 250.89V251.73H125.417V250.89H114.257ZM114.257 248.61V249.45H125.417V248.61H114.257ZM111.569 247.098H128.249V253.266H111.569V247.098ZM118.433 247.602H121.217V257.898H118.433V247.602ZM108.953 244.314H130.817V246.378H108.953V244.314ZM111.065 254.058H128.705V255.882H111.065V254.058ZM108.905 256.77H130.865V258.858H108.905V256.77ZM133.883 254.4V251.111L141.033 239.844H143.957V244.309H142.261L138.076 250.94V251.077H148.431V254.4H133.883ZM142.312 257.298V253.395L142.397 251.954V239.844H146.343V257.298H142.312ZM158.821 257.724C157.299 257.724 155.986 257.363 154.884 256.642C153.782 255.915 152.932 254.872 152.336 253.514C151.739 252.15 151.444 250.511 151.449 248.596C151.455 246.682 151.753 245.057 152.344 243.721C152.941 242.38 153.787 241.361 154.884 240.662C155.986 239.957 157.299 239.605 158.821 239.605C160.344 239.605 161.657 239.957 162.759 240.662C163.867 241.361 164.719 242.38 165.316 243.721C165.912 245.062 166.208 246.687 166.202 248.596C166.202 250.517 165.904 252.159 165.307 253.523C164.711 254.886 163.861 255.929 162.759 256.65C161.662 257.366 160.35 257.724 158.821 257.724ZM158.821 254.273C159.731 254.273 160.466 253.809 161.029 252.883C161.591 251.952 161.87 250.523 161.864 248.596C161.864 247.335 161.736 246.295 161.481 245.477C161.225 244.653 160.87 244.04 160.415 243.636C159.961 243.233 159.429 243.031 158.821 243.031C157.918 243.031 157.188 243.488 156.631 244.403C156.074 245.312 155.793 246.71 155.787 248.596C155.782 249.875 155.904 250.934 156.154 251.775C156.41 252.616 156.768 253.244 157.228 253.659C157.688 254.068 158.219 254.273 158.821 254.273ZM176.797 257.724C175.274 257.724 173.962 257.363 172.86 256.642C171.757 255.915 170.908 254.872 170.311 253.514C169.715 252.15 169.419 250.511 169.425 248.596C169.431 246.682 169.729 245.057 170.32 243.721C170.916 242.38 171.763 241.361 172.86 240.662C173.962 239.957 175.274 239.605 176.797 239.605C178.32 239.605 179.632 239.957 180.735 240.662C181.843 241.361 182.695 242.38 183.291 243.721C183.888 245.062 184.183 246.687 184.178 248.596C184.178 250.517 183.88 252.159 183.283 253.523C182.686 254.886 181.837 255.929 180.735 256.65C179.638 257.366 178.326 257.724 176.797 257.724ZM176.797 254.273C177.706 254.273 178.442 253.809 179.005 252.883C179.567 251.952 179.845 250.523 179.84 248.596C179.84 247.335 179.712 246.295 179.456 245.477C179.201 244.653 178.845 244.04 178.391 243.636C177.936 243.233 177.405 243.031 176.797 243.031C175.894 243.031 175.164 243.488 174.607 244.403C174.05 245.312 173.769 246.71 173.763 248.596C173.757 249.875 173.88 250.934 174.13 251.775C174.385 252.616 174.743 253.244 175.203 253.659C175.664 254.068 176.195 254.273 176.797 254.273ZM205.319 244.05H212.471V246.642H205.319V244.05ZM205.319 250.05H212.471V252.642H205.319V250.05ZM203.831 238.122H214.103V257.802H211.199V240.714H206.591V257.802H203.831V238.122ZM201.599 256.218H215.735V258.81H201.599V256.218ZM196.703 236.922L199.247 237.81C198.927 238.434 198.591 239.074 198.239 239.73C197.887 240.37 197.543 240.994 197.207 241.602C196.871 242.194 196.543 242.714 196.223 243.162L194.279 242.37C194.567 241.874 194.863 241.314 195.167 240.69C195.471 240.05 195.759 239.402 196.031 238.746C196.303 238.09 196.527 237.482 196.703 236.922ZM199.583 239.778L202.031 240.786C201.439 241.698 200.799 242.658 200.111 243.666C199.423 244.658 198.727 245.61 198.023 246.522C197.319 247.434 196.663 248.234 196.055 248.922L194.303 248.034C194.767 247.49 195.239 246.874 195.719 246.186C196.199 245.498 196.671 244.786 197.135 244.05C197.615 243.314 198.063 242.578 198.479 241.842C198.911 241.09 199.279 240.402 199.583 239.778ZM193.007 242.61L194.375 240.642C194.791 240.994 195.223 241.394 195.671 241.842C196.119 242.274 196.527 242.706 196.895 243.138C197.279 243.57 197.567 243.97 197.759 244.338L196.295 246.57C196.103 246.202 195.823 245.786 195.455 245.322C195.103 244.842 194.711 244.37 194.279 243.906C193.847 243.426 193.423 242.994 193.007 242.61ZM199.007 245.562L201.047 244.674C201.367 245.202 201.679 245.77 201.983 246.378C202.287 246.986 202.551 247.586 202.775 248.178C202.999 248.754 203.167 249.274 203.279 249.738L201.071 250.746C200.975 250.298 200.823 249.778 200.615 249.186C200.407 248.578 200.159 247.962 199.871 247.338C199.599 246.698 199.311 246.106 199.007 245.562ZM193.007 247.482C194.111 247.45 195.439 247.402 196.991 247.338C198.559 247.274 200.151 247.202 201.767 247.122L201.743 249.402C200.239 249.514 198.743 249.626 197.255 249.738C195.767 249.834 194.431 249.914 193.247 249.978L193.007 247.482ZM199.415 251.562L201.527 250.866C201.863 251.586 202.175 252.37 202.463 253.218C202.751 254.066 202.959 254.802 203.087 255.426L200.855 256.242C200.743 255.602 200.551 254.85 200.279 253.986C200.007 253.106 199.719 252.298 199.415 251.562ZM194.039 251.01L196.415 251.442C196.287 252.594 196.095 253.73 195.839 254.85C195.583 255.97 195.287 256.914 194.951 257.682C194.791 257.57 194.575 257.442 194.303 257.298C194.031 257.17 193.751 257.042 193.463 256.914C193.191 256.786 192.951 256.69 192.743 256.626C193.095 255.906 193.375 255.05 193.583 254.058C193.791 253.05 193.943 252.034 194.039 251.01ZM196.823 248.754H199.367V259.458H196.823V248.754Z" fill="white"/>
<path d="M87.8448 162.72H128.735V167.128H87.8448V162.72ZM97.0668 147.524H103.099V159.298H97.0668V147.524ZM110.291 147.524H116.439V159.298H110.291V147.524ZM88.9468 150.366H130.069V160.806H88.9468V156.978H123.689V154.194H88.9468V150.366ZM103.041 174.378L108.899 175.712C106.695 177.839 104.123 179.733 101.185 181.396C98.2461 183.059 94.8241 184.567 90.9188 185.92C90.5321 185.301 89.9714 184.586 89.2368 183.774C88.5408 182.962 87.9028 182.343 87.3228 181.918C90.9188 180.913 94.0508 179.772 96.7188 178.496C99.3868 177.181 101.494 175.809 103.041 174.378ZM103.099 177.916H121.369V181.686H99.3288L103.099 177.916ZM119.977 177.916H121.195L122.239 177.684L126.125 180.178C124.307 182.266 122.065 184.064 119.397 185.572C116.729 187.08 113.771 188.356 110.523 189.4C107.313 190.444 103.911 191.275 100.315 191.894C96.7574 192.551 93.1808 193.073 89.5848 193.46C89.3528 192.764 88.9854 191.952 88.4828 191.024C88.0188 190.096 87.5548 189.323 87.0908 188.704C90.3774 188.472 93.6641 188.105 96.9508 187.602C100.276 187.099 103.427 186.442 106.405 185.63C109.382 184.818 112.05 183.851 114.409 182.73C116.767 181.57 118.623 180.236 119.977 178.728V177.916ZM101.359 180.352C102.828 181.589 104.665 182.672 106.869 183.6C109.111 184.528 111.625 185.321 114.409 185.978C117.193 186.597 120.17 187.099 123.341 187.486C126.511 187.834 129.779 188.085 133.143 188.24C132.524 188.859 131.886 189.69 131.229 190.734C130.61 191.778 130.107 192.687 129.721 193.46C126.241 193.189 122.877 192.783 119.629 192.242C116.381 191.701 113.307 190.985 110.407 190.096C107.545 189.207 104.916 188.124 102.519 186.848C100.16 185.572 98.0914 184.083 96.3128 182.382L101.359 180.352ZM98.8648 168.346H104.317V170.898C104.317 171.478 104.452 171.845 104.723 172C105.032 172.155 105.631 172.232 106.521 172.232C106.753 172.232 107.139 172.232 107.681 172.232C108.222 172.232 108.821 172.232 109.479 172.232C110.175 172.232 110.793 172.232 111.335 172.232C111.915 172.232 112.34 172.232 112.611 172.232C113.307 172.232 113.771 172.097 114.003 171.826C114.235 171.517 114.409 170.84 114.525 169.796C115.066 170.144 115.762 170.453 116.613 170.724C117.502 170.995 118.295 171.188 118.991 171.304C118.759 173.237 118.217 174.552 117.367 175.248C116.555 175.905 115.221 176.234 113.365 176.234C113.133 176.234 112.765 176.234 112.263 176.234C111.76 176.234 111.18 176.234 110.523 176.234C109.865 176.234 109.227 176.234 108.609 176.234C107.99 176.234 107.429 176.234 106.927 176.234C106.424 176.234 106.057 176.234 105.825 176.234C103.969 176.234 102.519 176.079 101.475 175.77C100.469 175.422 99.7734 174.881 99.3868 174.146C99.0388 173.373 98.8648 172.29 98.8648 170.898V168.346ZM127.111 162.72H128.097L129.083 162.546L133.607 163.532C133.065 165.04 132.466 166.587 131.809 168.172C131.151 169.757 130.513 171.091 129.895 172.174L124.443 171.072C124.907 170.067 125.39 168.868 125.893 167.476C126.395 166.084 126.801 164.75 127.111 163.474V162.72ZM93.8188 167.708L98.4588 169.738C97.8401 171.053 97.0668 172.367 96.1388 173.682C95.2494 174.997 94.1281 176.118 92.7748 177.046L88.3088 174.146C89.5074 173.411 90.5901 172.445 91.5568 171.246C92.5234 170.047 93.2774 168.868 93.8188 167.708ZM104.085 167.592L107.739 164.982C108.783 165.485 109.885 166.123 111.045 166.896C112.205 167.669 113.113 168.365 113.771 168.984L110.001 171.884C109.343 171.227 108.435 170.473 107.275 169.622C106.153 168.771 105.09 168.095 104.085 167.592ZM116.729 169.506L121.021 167.244C122.219 168.172 123.437 169.293 124.675 170.608C125.912 171.884 126.84 173.025 127.459 174.03L122.935 176.524C122.393 175.48 121.523 174.301 120.325 172.986C119.126 171.671 117.927 170.511 116.729 169.506ZM104.201 138.998H111.451V146.364H104.201V138.998ZM86.5108 142.478H132.099V147.698H86.5108V142.478ZM83.2048 142.478H89.5268V159.762C89.5268 162.198 89.4494 164.866 89.2948 167.766C89.1401 170.666 88.8501 173.643 88.4248 176.698C87.9994 179.753 87.3808 182.711 86.5688 185.572C85.7568 188.433 84.6934 191.024 83.3788 193.344C82.9921 192.957 82.4701 192.493 81.8128 191.952C81.1554 191.449 80.4788 190.966 79.7828 190.502C79.1254 190.038 78.5454 189.69 78.0428 189.458C79.2414 187.331 80.1694 185.011 80.8268 182.498C81.5228 179.946 82.0448 177.355 82.3928 174.726C82.7408 172.058 82.9534 169.448 83.0308 166.896C83.1468 164.344 83.2048 161.966 83.2048 159.762V142.478ZM149.383 149.554H189.751V156.34H149.383V149.554ZM146.947 166.606H187.489V173.334H146.947V166.606ZM140.277 185.05H192.709V191.836H140.277V185.05ZM162.781 138.998H170.089V188.356H162.781V138.998ZM149.383 139.752L156.575 141.376C155.763 144.353 154.757 147.292 153.559 150.192C152.36 153.092 151.065 155.799 149.673 158.312C148.281 160.787 146.831 162.952 145.323 164.808C144.859 164.383 144.24 163.919 143.467 163.416C142.732 162.875 141.959 162.353 141.147 161.85C140.335 161.347 139.639 160.941 139.059 160.632C140.605 159.008 142.017 157.075 143.293 154.832C144.607 152.589 145.767 150.173 146.773 147.582C147.817 144.991 148.687 142.381 149.383 139.752ZM225.131 142.188H250.825V169.68H243.865V148.8H225.131V142.188ZM229.829 159.82H246.939V166.316H229.829V159.82ZM226.465 159.82H233.425V183.832C233.425 185.108 233.618 185.92 234.005 186.268C234.391 186.577 235.281 186.732 236.673 186.732C236.943 186.732 237.446 186.732 238.181 186.732C238.915 186.732 239.727 186.732 240.617 186.732C241.506 186.732 242.337 186.732 243.111 186.732C243.884 186.732 244.464 186.732 244.851 186.732C245.701 186.732 246.359 186.519 246.823 186.094C247.287 185.63 247.596 184.741 247.751 183.426C247.944 182.111 248.099 180.178 248.215 177.626C248.717 178.013 249.355 178.399 250.129 178.786C250.902 179.134 251.695 179.463 252.507 179.772C253.319 180.043 254.034 180.255 254.653 180.41C254.382 183.735 253.937 186.326 253.319 188.182C252.7 189.999 251.753 191.295 250.477 192.068C249.239 192.841 247.538 193.228 245.373 193.228C245.063 193.228 244.58 193.228 243.923 193.228C243.265 193.228 242.531 193.228 241.719 193.228C240.945 193.228 240.153 193.228 239.341 193.228C238.529 193.228 237.794 193.228 237.137 193.228C236.518 193.228 236.073 193.228 235.803 193.228C233.444 193.228 231.588 192.957 230.235 192.416C228.881 191.875 227.915 190.927 227.335 189.574C226.755 188.221 226.465 186.326 226.465 183.89V159.82ZM209.239 167.592H215.851V193.518H209.239V167.592ZM208.833 139.056L215.155 141.666C214.265 143.135 213.318 144.663 212.313 146.248C211.346 147.833 210.399 149.341 209.471 150.772C208.543 152.203 207.653 153.459 206.803 154.542L201.989 152.222C202.801 151.062 203.632 149.728 204.483 148.22C205.333 146.673 206.145 145.107 206.919 143.522C207.692 141.898 208.33 140.409 208.833 139.056ZM216.373 145.784L222.289 148.626C220.742 150.83 219.041 153.131 217.185 155.528C215.329 157.925 213.473 160.226 211.617 162.43C209.761 164.634 208.001 166.548 206.339 168.172L202.163 165.678C203.361 164.402 204.599 162.933 205.875 161.27C207.189 159.607 208.485 157.887 209.761 156.108C211.037 154.329 212.235 152.551 213.357 150.772C214.517 148.993 215.522 147.331 216.373 145.784ZM199.205 153.324L202.337 148.51C203.419 149.322 204.521 150.231 205.643 151.236C206.764 152.241 207.808 153.247 208.775 154.252C209.741 155.257 210.476 156.185 210.979 157.036L207.557 162.43C207.054 161.541 206.339 160.574 205.411 159.53C204.483 158.447 203.458 157.365 202.337 156.282C201.254 155.199 200.21 154.213 199.205 153.324ZM215.039 159.646L220.201 157.326C221.051 158.602 221.902 160.013 222.753 161.56C223.642 163.068 224.435 164.557 225.131 166.026C225.827 167.457 226.349 168.733 226.697 169.854L221.129 172.522C220.819 171.401 220.336 170.105 219.679 168.636C219.021 167.128 218.287 165.601 217.475 164.054C216.663 162.469 215.851 160.999 215.039 159.646ZM199.147 164.46C202.047 164.344 205.469 164.209 209.413 164.054C213.395 163.861 217.417 163.667 221.477 163.474L221.419 169.216C217.629 169.448 213.821 169.68 209.993 169.912C206.203 170.144 202.82 170.357 199.843 170.55L199.147 164.46ZM216.199 174.726L221.709 172.696C222.327 173.856 222.927 175.113 223.507 176.466C224.087 177.819 224.609 179.134 225.073 180.41C225.575 181.686 225.962 182.827 226.233 183.832L220.433 186.152C220.201 185.108 219.853 183.929 219.389 182.614C218.925 181.299 218.403 179.965 217.823 178.612C217.281 177.22 216.74 175.925 216.199 174.726ZM202.047 173.16L208.195 174.262C207.847 177.085 207.305 179.869 206.571 182.614C205.836 185.321 205.005 187.602 204.077 189.458C203.651 189.187 203.091 188.878 202.395 188.53C201.737 188.182 201.041 187.853 200.307 187.544C199.572 187.196 198.953 186.925 198.451 186.732C199.417 185.031 200.171 182.962 200.713 180.526C201.293 178.051 201.737 175.596 202.047 173.16ZM274.837 175.19H281.681V184.528C281.681 185.379 281.835 185.92 282.145 186.152C282.493 186.345 283.266 186.442 284.465 186.442C284.697 186.442 285.103 186.442 285.683 186.442C286.301 186.442 286.978 186.442 287.713 186.442C288.447 186.442 289.143 186.442 289.801 186.442C290.458 186.442 290.941 186.442 291.251 186.442C291.947 186.442 292.469 186.307 292.817 186.036C293.165 185.765 293.416 185.185 293.571 184.296C293.725 183.407 293.841 182.073 293.919 180.294C294.383 180.642 294.963 180.99 295.659 181.338C296.393 181.647 297.147 181.937 297.921 182.208C298.733 182.479 299.448 182.691 300.067 182.846C299.796 185.398 299.371 187.389 298.791 188.82C298.249 190.251 297.418 191.237 296.297 191.778C295.214 192.358 293.745 192.648 291.889 192.648C291.618 192.648 291.193 192.648 290.613 192.648C290.071 192.648 289.453 192.648 288.757 192.648C288.061 192.648 287.365 192.648 286.669 192.648C286.011 192.648 285.393 192.648 284.813 192.648C284.271 192.648 283.865 192.648 283.595 192.648C281.236 192.648 279.419 192.397 278.143 191.894C276.867 191.391 275.997 190.541 275.533 189.342C275.069 188.182 274.837 186.597 274.837 184.586V175.19ZM277.969 172.522L282.319 167.998C283.711 168.578 285.122 169.293 286.553 170.144C287.983 170.956 289.317 171.826 290.555 172.754C291.831 173.643 292.855 174.533 293.629 175.422L288.873 180.352C288.177 179.501 287.229 178.593 286.031 177.626C284.832 176.659 283.517 175.731 282.087 174.842C280.695 173.953 279.322 173.179 277.969 172.522ZM297.573 177.046L303.315 173.624C304.745 174.939 306.157 176.389 307.549 177.974C308.941 179.521 310.197 181.087 311.319 182.672C312.44 184.257 313.291 185.746 313.871 187.138L307.665 190.966C307.162 189.613 306.369 188.124 305.287 186.5C304.243 184.876 303.044 183.252 301.691 181.628C300.376 179.965 299.003 178.438 297.573 177.046ZM267.065 174.552L273.329 176.524C272.865 178.419 272.285 180.294 271.589 182.15C270.893 183.967 270.023 185.688 268.979 187.312C267.973 188.897 266.755 190.289 265.325 191.488L259.467 187.544C260.781 186.539 261.922 185.359 262.889 184.006C263.894 182.614 264.725 181.125 265.383 179.54C266.079 177.916 266.639 176.253 267.065 174.552ZM267.703 159.298H299.835V165.098H267.703V159.298ZM276.461 151.236H296.935V156.63H276.461V151.236ZM286.611 145.146C285.025 146.925 282.995 148.742 280.521 150.598C278.046 152.415 275.339 154.117 272.401 155.702C269.462 157.287 266.465 158.641 263.411 159.762C263.179 159.182 262.831 158.525 262.367 157.79C261.903 157.055 261.419 156.34 260.917 155.644C260.453 154.909 259.989 154.271 259.525 153.73C262.695 152.725 265.75 151.429 268.689 149.844C271.666 148.259 274.353 146.538 276.751 144.682C279.187 142.787 281.159 140.912 282.667 139.056H289.917C292.082 141.337 294.479 143.406 297.109 145.262C299.738 147.079 302.522 148.665 305.461 150.018C308.399 151.333 311.338 152.396 314.277 153.208C313.503 154.097 312.73 155.141 311.957 156.34C311.183 157.5 310.526 158.583 309.985 159.588C307.974 158.853 305.867 157.964 303.663 156.92C301.459 155.837 299.293 154.658 297.167 153.382C295.079 152.106 293.126 150.772 291.309 149.38C289.491 147.988 287.925 146.577 286.611 145.146ZM297.805 159.298H299.313L300.357 158.95L305.055 161.792C304.359 163.261 303.489 164.847 302.445 166.548C301.401 168.249 300.299 169.912 299.139 171.536C298.017 173.16 296.935 174.629 295.891 175.944C295.195 175.403 294.325 174.803 293.281 174.146C292.275 173.489 291.367 172.986 290.555 172.638C291.521 171.478 292.469 170.163 293.397 168.694C294.363 167.225 295.233 165.775 296.007 164.344C296.819 162.913 297.418 161.657 297.805 160.574V159.298ZM319.671 168.462C321.411 168.114 323.383 167.689 325.587 167.186C327.791 166.683 330.091 166.142 332.489 165.562C334.886 164.943 337.283 164.344 339.681 163.764L340.551 170.434C337.264 171.362 333.919 172.29 330.517 173.218C327.114 174.107 324.001 174.9 321.179 175.596L319.671 168.462ZM320.425 150.076H339.913V156.804H320.425V150.076ZM326.979 138.998H334.113V185.92C334.113 187.544 333.939 188.839 333.591 189.806C333.243 190.811 332.585 191.585 331.619 192.126C330.652 192.667 329.473 193.015 328.081 193.17C326.727 193.363 325.084 193.441 323.151 193.402C323.035 192.474 322.783 191.372 322.397 190.096C322.049 188.859 321.662 187.776 321.237 186.848C322.203 186.887 323.151 186.906 324.079 186.906C325.007 186.906 325.645 186.906 325.993 186.906C326.379 186.867 326.631 186.79 326.747 186.674C326.901 186.519 326.979 186.249 326.979 185.862V138.998ZM342.175 149.322H371.929V192.764H364.679V155.876H349.135V193.17H342.175V149.322ZM346.409 166.316H367.579V172.87H346.409V166.316ZM346.409 183.658H367.579V190.212H346.409V183.658ZM353.775 139.114L362.069 139.984C361.334 142.381 360.561 144.759 359.749 147.118C358.937 149.477 358.163 151.487 357.429 153.15L350.933 152.048C351.319 150.811 351.706 149.457 352.093 147.988C352.479 146.48 352.827 144.953 353.137 143.406C353.446 141.859 353.659 140.429 353.775 139.114ZM418.967 151.584H434.859V157.906H418.967V151.584ZM409.803 184.818H429.407V191.082H409.803V184.818ZM406.497 167.07H432.481V193.286H425.753V173.16H412.935V193.518H406.497V167.07ZM415.313 139.114H422.215V169.854H415.313V139.114ZM386.545 179.192L393.041 180.758C392.19 183.194 391.069 185.572 389.677 187.892C388.285 190.173 386.815 192.087 385.269 193.634C384.843 193.247 384.302 192.803 383.645 192.3C382.987 191.836 382.291 191.372 381.557 190.908C380.861 190.444 380.261 190.077 379.759 189.806C381.228 188.491 382.562 186.887 383.761 184.992C384.959 183.097 385.887 181.164 386.545 179.192ZM394.201 181.454L399.711 179.018C400.948 180.487 402.108 182.111 403.191 183.89C404.273 185.63 405.085 187.177 405.627 188.53L399.827 191.372C399.324 190.019 398.531 188.414 397.449 186.558C396.405 184.663 395.322 182.962 394.201 181.454ZM389.619 157.268V162.662H396.753V157.268H389.619ZM389.619 167.766V173.218H396.753V167.766H389.619ZM389.619 146.828V152.106H396.753V146.828H389.619ZM383.297 141.26H403.365V178.728H383.297V141.26Z" fill="white"/>
<ellipse cx="120.321" cy="68.2859" rx="54.1017" ry="56" fill="#6EE292"/>
<path d="M89.4582 90.212V76.5046L119.252 29.5586H131.433V48.1666H124.366L106.93 75.7944V76.3626H150.076V90.212H89.4582ZM124.579 102.286V86.0217L124.934 80.0203V29.5586H141.376V102.286H124.579Z" fill="white"/>
</svg>
