<svg width="570" height="314" viewBox="0 0 570 314" fill="none" xmlns="http://www.w3.org/2000/svg">
<path d="M-0.00683594 31.6284H539.993C556.562 31.6284 569.993 45.0599 569.993 61.6284V314H29.9932C13.4246 314 -0.00683594 300.569 -0.00683594 284V31.6284Z" fill="#FF5F17"/>
<line x1="347.79" y1="221.5" x2="38.6372" y2="221.5" stroke="white"/>
<path d="M159.159 79.296H176.151V81.984H159.159V79.296ZM158.647 87.008H176.759V89.696H158.647V87.008ZM158.487 98.976H176.791V101.696H158.487V98.976ZM159.927 83.168H175.671V85.728H159.927V83.168ZM162.647 76.832H165.975V88.192H162.647V76.832ZM169.271 76.832H172.663V88.192H169.271V76.832ZM165.975 88.256H169.303V99.744H165.975V88.256ZM171.799 90.912H175.287V103.392C175.287 104.181 175.191 104.8 174.999 105.248C174.829 105.717 174.477 106.08 173.943 106.336C173.389 106.592 172.727 106.741 171.959 106.784C171.213 106.848 170.306 106.88 169.239 106.88C169.175 106.411 169.047 105.888 168.855 105.312C168.663 104.736 168.461 104.235 168.247 103.808C168.866 103.829 169.474 103.84 170.071 103.84C170.69 103.84 171.095 103.84 171.287 103.84C171.479 103.84 171.607 103.808 171.671 103.744C171.757 103.659 171.799 103.531 171.799 103.36V90.912ZM160.183 90.912H173.303V93.6H163.607V106.912H160.183V90.912ZM161.879 95.04H173.271V97.44H161.879V95.04ZM149.815 98.976L153.143 99.744C152.738 101.088 152.194 102.411 151.511 103.712C150.829 104.992 150.103 106.069 149.335 106.944C149.143 106.752 148.866 106.539 148.503 106.304C148.141 106.069 147.778 105.835 147.415 105.6C147.053 105.365 146.743 105.184 146.487 105.056C147.213 104.288 147.863 103.36 148.439 102.272C149.037 101.184 149.495 100.085 149.815 98.976ZM153.559 100.128L156.407 98.912C156.941 99.7227 157.463 100.619 157.975 101.6C158.509 102.56 158.914 103.403 159.191 104.128L156.215 105.536C156.066 105.045 155.842 104.491 155.543 103.872C155.266 103.232 154.957 102.592 154.615 101.952C154.274 101.291 153.922 100.683 153.559 100.128ZM151.543 86.848V89.856H154.711V86.848H151.543ZM151.543 92.672V95.68H154.711V92.672H151.543ZM151.543 81.056V84H154.711V81.056H151.543ZM148.279 78.016H158.071V98.752H148.279V78.016ZM200.183 80.992V83.2H204.215V80.992H200.183ZM193.079 80.992V83.2H196.983V80.992H193.079ZM186.071 80.992V83.2H189.879V80.992H186.071ZM182.519 78.144H207.959V86.048H182.519V78.144ZM188.119 93.632V95.2H202.167V93.632H188.119ZM188.119 97.472V99.072H202.167V97.472H188.119ZM188.119 89.824V91.36H202.167V89.824H188.119ZM184.247 87.392H206.199V101.472H184.247V87.392ZM196.919 103.168L199.991 101.216C201.186 101.6 202.402 102.016 203.639 102.464C204.898 102.912 206.093 103.36 207.223 103.808C208.354 104.235 209.325 104.629 210.135 104.992L205.975 106.912C205.314 106.549 204.493 106.155 203.511 105.728C202.551 105.301 201.506 104.864 200.375 104.416C199.245 103.968 198.093 103.552 196.919 103.168ZM189.847 101.184L193.335 102.752C192.461 103.328 191.437 103.883 190.263 104.416C189.09 104.949 187.874 105.429 186.615 105.856C185.378 106.304 184.205 106.688 183.095 107.008C182.882 106.731 182.605 106.411 182.263 106.048C181.922 105.707 181.57 105.365 181.207 105.024C180.845 104.683 180.525 104.405 180.247 104.192C181.399 103.979 182.573 103.723 183.767 103.424C184.962 103.104 186.082 102.752 187.127 102.368C188.194 101.984 189.101 101.589 189.847 101.184ZM216.855 82.88H224.855V85.6H216.855V82.88ZM231.639 82.88H239.703V85.6H231.639V82.88ZM238.167 78.08H242.071V102.208C242.071 103.317 241.933 104.171 241.655 104.768C241.378 105.387 240.898 105.845 240.215 106.144C239.511 106.464 238.615 106.656 237.527 106.72C236.439 106.805 235.116 106.848 233.559 106.848C233.516 106.485 233.42 106.059 233.271 105.568C233.122 105.099 232.951 104.619 232.759 104.128C232.588 103.659 232.396 103.253 232.183 102.912C232.866 102.955 233.559 102.987 234.263 103.008C234.967 103.008 235.586 103.008 236.119 103.008C236.674 103.008 237.058 103.008 237.271 103.008C237.612 103.008 237.847 102.944 237.975 102.816C238.103 102.688 238.167 102.475 238.167 102.176V78.08ZM217.143 78.08H227.223V90.528H217.143V87.424H223.639V81.184H217.143V78.08ZM240.247 78.08V81.184H233.079V87.52H240.247V90.592H229.431V78.08H240.247ZM214.967 78.08H218.775V106.88H214.967V78.08ZM265.751 101.28L268.567 99.392C269.399 99.7973 270.274 100.288 271.191 100.864C272.108 101.44 272.994 102.016 273.847 102.592C274.7 103.168 275.415 103.712 275.991 104.224L272.919 106.368C272.428 105.877 271.778 105.333 270.967 104.736C270.178 104.139 269.324 103.541 268.407 102.944C267.49 102.325 266.604 101.771 265.751 101.28ZM251.031 91.776H272.375V94.688H251.031V91.776ZM247.223 96.032H276.247V99.04H247.223V96.032ZM247.671 77.856H275.607V80.896H247.671V77.856ZM259.767 96.576H263.639V103.2C263.639 104.053 263.532 104.725 263.319 105.216C263.127 105.707 262.732 106.08 262.135 106.336C261.538 106.592 260.834 106.752 260.023 106.816C259.234 106.88 258.306 106.912 257.239 106.912C257.175 106.4 257.026 105.813 256.791 105.152C256.556 104.512 256.322 103.957 256.087 103.488C256.727 103.509 257.356 103.531 257.975 103.552C258.594 103.552 259.01 103.541 259.223 103.52C259.436 103.52 259.575 103.488 259.639 103.424C259.724 103.36 259.767 103.243 259.767 103.072V96.576ZM253.559 99.296L257.079 100.512C256.482 101.301 255.778 102.08 254.967 102.848C254.156 103.616 253.303 104.331 252.407 104.992C251.532 105.653 250.679 106.229 249.847 106.72C249.634 106.485 249.356 106.197 249.015 105.856C248.674 105.536 248.322 105.216 247.959 104.896C247.596 104.597 247.276 104.352 246.999 104.16C248.258 103.584 249.474 102.869 250.647 102.016C251.842 101.141 252.812 100.235 253.559 99.296ZM253.079 85.312V87.712H270.103V85.312H253.079ZM249.527 82.592H273.911V90.464H249.527V82.592ZM256.311 79.04H259.831V89.344H256.311V79.04ZM263.159 79.04H266.775V89.344H263.159V79.04ZM297.266 88.928H317.714V92.384H297.266V88.928ZM298.386 82.464H316.626V85.856H298.386V82.464ZM305.138 84.128H308.978V89.248C308.978 90.272 308.85 91.3387 308.594 92.448C308.359 93.5573 307.911 94.6667 307.25 95.776C306.61 96.864 305.682 97.92 304.466 98.944C303.271 99.9467 301.725 100.864 299.826 101.696C299.655 101.419 299.421 101.109 299.122 100.768C298.823 100.427 298.514 100.085 298.194 99.744C297.874 99.4027 297.565 99.1253 297.266 98.912C299.079 98.2507 300.509 97.5147 301.554 96.704C302.621 95.8933 303.399 95.0507 303.89 94.176C304.402 93.3013 304.733 92.448 304.882 91.616C305.053 90.7627 305.138 89.9627 305.138 89.216V84.128ZM309.554 91.36C310.215 93.1307 311.218 94.6347 312.562 95.872C313.927 97.088 315.677 97.9627 317.81 98.496C317.533 98.752 317.234 99.072 316.914 99.456C316.615 99.84 316.327 100.235 316.05 100.64C315.794 101.024 315.57 101.387 315.378 101.728C313.031 100.96 311.133 99.7547 309.682 98.112C308.231 96.4693 307.111 94.4533 306.322 92.064L309.554 91.36ZM295.986 89.28V101.088H292.242V92.832H288.53V89.28H295.986ZM295.986 99.424C296.647 100.469 297.575 101.237 298.77 101.728C299.965 102.219 301.394 102.496 303.058 102.56C303.997 102.603 305.106 102.635 306.386 102.656C307.687 102.656 309.053 102.645 310.482 102.624C311.911 102.603 313.309 102.56 314.674 102.496C316.061 102.432 317.287 102.357 318.354 102.272C318.226 102.571 318.077 102.955 317.906 103.424C317.735 103.893 317.575 104.373 317.426 104.864C317.298 105.355 317.202 105.792 317.138 106.176C316.178 106.24 315.079 106.283 313.842 106.304C312.605 106.347 311.335 106.368 310.034 106.368C308.733 106.389 307.474 106.389 306.258 106.368C305.042 106.347 303.954 106.315 302.994 106.272C301.031 106.187 299.357 105.877 297.97 105.344C296.583 104.832 295.357 103.957 294.29 102.72C293.586 103.317 292.861 103.936 292.114 104.576C291.389 105.216 290.589 105.877 289.714 106.56L287.826 102.56C288.573 102.112 289.351 101.621 290.162 101.088C290.973 100.555 291.751 100 292.498 99.424H295.986ZM288.562 79.872L291.41 77.568C292.071 77.9947 292.743 78.496 293.426 79.072C294.109 79.6267 294.749 80.2027 295.346 80.8C295.943 81.376 296.423 81.9093 296.786 82.4L293.746 84.96C293.426 84.448 292.978 83.8933 292.402 83.296C291.847 82.6987 291.229 82.1013 290.546 81.504C289.863 80.8853 289.202 80.3413 288.562 79.872ZM311.762 76.8L315.666 78.016C315.09 78.9333 314.493 79.84 313.874 80.736C313.277 81.6107 312.722 82.3573 312.21 82.976L309.074 81.888C309.394 81.3973 309.725 80.864 310.066 80.288C310.407 79.6907 310.727 79.0933 311.026 78.496C311.325 77.8773 311.57 77.312 311.762 76.8ZM299.218 78.208L302.45 76.864C303.047 77.5893 303.613 78.4107 304.146 79.328C304.679 80.2453 305.053 81.056 305.266 81.76L301.81 83.232C301.639 82.5493 301.298 81.7387 300.786 80.8C300.295 79.84 299.773 78.976 299.218 78.208Z" fill="white"/>
<path d="M35.08 240.176H56.92V242.792H35.08V240.176ZM37.936 248.336H44.152V250.472H37.936V248.336ZM37.936 252.032H44.152V254.144H37.936V252.032ZM47.992 244.688H50.632V254.528H47.992V244.688ZM43.168 244.424H45.928V256.328C45.928 256.92 45.856 257.4 45.712 257.768C45.568 258.136 45.296 258.424 44.896 258.632C44.48 258.84 43.992 258.968 43.432 259.016C42.888 259.064 42.248 259.088 41.512 259.088C41.432 258.72 41.304 258.296 41.128 257.816C40.968 257.352 40.792 256.96 40.6 256.64C41.032 256.656 41.464 256.672 41.896 256.688C42.328 256.688 42.616 256.68 42.76 256.664C42.904 256.664 43.008 256.632 43.072 256.568C43.136 256.504 43.168 256.408 43.168 256.28V244.424ZM52.792 244.016H55.624V255.992C55.624 256.696 55.536 257.24 55.36 257.624C55.2 258.024 54.888 258.344 54.424 258.584C53.96 258.792 53.4 258.928 52.744 258.992C52.088 259.056 51.32 259.08 50.44 259.064C50.376 258.68 50.24 258.224 50.032 257.696C49.84 257.168 49.632 256.72 49.408 256.352C50.032 256.384 50.616 256.4 51.16 256.4C51.72 256.4 52.096 256.392 52.288 256.376C52.48 256.376 52.608 256.352 52.672 256.304C52.752 256.24 52.792 256.128 52.792 255.968V244.016ZM38.392 237.536L41.128 236.576C41.56 237.056 41.992 237.584 42.424 238.16C42.856 238.736 43.176 239.256 43.384 239.72L40.456 240.728C40.296 240.296 40.016 239.776 39.616 239.168C39.232 238.56 38.824 238.016 38.392 237.536ZM50.728 236.528L53.848 237.464C53.368 238.232 52.872 238.984 52.36 239.72C51.864 240.44 51.4 241.064 50.968 241.592L48.376 240.704C48.664 240.32 48.952 239.888 49.24 239.408C49.528 238.928 49.8 238.44 50.056 237.944C50.328 237.432 50.552 236.96 50.728 236.528ZM36.4 244.424H43.96V246.848H39.112V259.016H36.4V244.424ZM67.2441 257.239C66.2895 257.239 65.3748 257.085 64.4998 256.778C63.6248 256.466 62.8464 255.972 62.1645 255.295C61.4827 254.614 60.9458 253.722 60.5537 252.619C60.1617 251.511 59.9685 250.162 59.9742 248.571C59.9799 247.134 60.156 245.844 60.5026 244.702C60.8492 243.554 61.3435 242.58 61.9856 241.778C62.6333 240.977 63.406 240.366 64.3037 239.946C65.2072 239.52 66.2157 239.307 67.3293 239.307C68.5509 239.307 69.6276 239.545 70.5594 240.023C71.4969 240.494 72.2469 241.131 72.8094 241.932C73.3719 242.727 73.7043 243.614 73.8066 244.591H69.656C69.531 244.04 69.2555 243.622 68.8293 243.338C68.4089 243.048 67.9089 242.903 67.3293 242.903C66.2611 242.903 65.4628 243.366 64.9344 244.293C64.4117 245.219 64.1447 246.457 64.1333 248.009H64.2441C64.4827 247.486 64.8265 247.037 65.2753 246.662C65.7242 246.287 66.2384 246 66.818 245.801C67.4032 245.597 68.0225 245.494 68.6759 245.494C69.7214 245.494 70.6447 245.736 71.4458 246.219C72.2469 246.702 72.8748 247.364 73.3293 248.205C73.7839 249.04 74.0083 249.997 74.0026 251.077C74.0083 252.293 73.7242 253.366 73.1503 254.298C72.5765 255.224 71.781 255.946 70.764 256.463C69.7526 256.98 68.5793 257.239 67.2441 257.239ZM67.2185 254C67.7356 254 68.1986 253.878 68.6077 253.634C69.0168 253.389 69.3378 253.057 69.5708 252.636C69.8037 252.216 69.9174 251.741 69.9117 251.213C69.9174 250.679 69.8037 250.205 69.5708 249.79C69.3435 249.375 69.0253 249.045 68.6162 248.801C68.2128 248.557 67.7498 248.435 67.227 248.435C66.8464 248.435 66.4912 248.506 66.1617 248.648C65.8322 248.79 65.5452 248.989 65.3009 249.244C65.0623 249.494 64.8748 249.79 64.7384 250.131C64.602 250.466 64.531 250.83 64.5253 251.222C64.531 251.739 64.6503 252.207 64.8833 252.628C65.1162 253.048 65.4344 253.384 65.8378 253.634C66.2412 253.878 66.7015 254 67.2185 254ZM84.5741 257.426C83.0514 257.426 81.7389 257.065 80.6366 256.344C79.5343 255.616 78.6849 254.574 78.0883 253.216C77.4917 251.852 77.1963 250.213 77.202 248.298C77.2076 246.384 77.5059 244.759 78.0968 243.423C78.6934 242.082 79.54 241.062 80.6366 240.364C81.7389 239.659 83.0514 239.307 84.5741 239.307C86.0968 239.307 87.4093 239.659 88.5116 240.364C89.6196 241.062 90.4718 242.082 91.0684 243.423C91.665 244.764 91.9605 246.389 91.9548 248.298C91.9548 250.219 91.6565 251.861 91.0599 253.224C90.4633 254.588 89.6139 255.631 88.5116 256.352C87.415 257.068 86.1025 257.426 84.5741 257.426ZM84.5741 253.974C85.4832 253.974 86.219 253.511 86.7815 252.585C87.344 251.653 87.6224 250.224 87.6167 248.298C87.6167 247.037 87.4889 245.997 87.2332 245.179C86.9775 244.355 86.6224 243.741 86.1679 243.338C85.7133 242.935 85.1821 242.733 84.5741 242.733C83.6707 242.733 82.9406 243.19 82.3838 244.105C81.827 245.014 81.5457 246.412 81.54 248.298C81.5343 249.577 81.6565 250.636 81.9065 251.477C82.1622 252.318 82.5201 252.946 82.9804 253.361C83.4406 253.77 83.9718 253.974 84.5741 253.974ZM102.55 257.426C101.027 257.426 99.7145 257.065 98.6122 256.344C97.51 255.616 96.6605 254.574 96.064 253.216C95.4674 251.852 95.1719 250.213 95.1776 248.298C95.1833 246.384 95.4816 244.759 96.0725 243.423C96.6691 242.082 97.5157 241.062 98.6122 240.364C99.7145 239.659 101.027 239.307 102.55 239.307C104.072 239.307 105.385 239.659 106.487 240.364C107.595 241.062 108.447 242.082 109.044 243.423C109.641 244.764 109.936 246.389 109.93 248.298C109.93 250.219 109.632 251.861 109.036 253.224C108.439 254.588 107.59 255.631 106.487 256.352C105.391 257.068 104.078 257.426 102.55 257.426ZM102.55 253.974C103.459 253.974 104.195 253.511 104.757 252.585C105.32 251.653 105.598 250.224 105.592 248.298C105.592 247.037 105.465 245.997 105.209 245.179C104.953 244.355 104.598 243.741 104.143 243.338C103.689 242.935 103.158 242.733 102.55 242.733C101.646 242.733 100.916 243.19 100.359 244.105C99.8026 245.014 99.5213 246.412 99.5157 248.298C99.51 249.577 99.6321 250.636 99.8821 251.477C100.138 252.318 100.496 252.946 100.956 253.361C101.416 253.77 101.947 253.974 102.55 253.974ZM121.188 255.584H131.916V258.2H121.188V255.584ZM119.964 238.976H128.484V241.52H119.964V238.976ZM120.612 236.48L123.852 237.104C123.164 238.272 122.372 239.408 121.476 240.512C120.596 241.6 119.588 242.648 118.452 243.656C117.332 244.648 116.052 245.568 114.612 246.416C114.468 246.176 114.276 245.92 114.036 245.648C113.796 245.36 113.548 245.08 113.292 244.808C113.036 244.536 112.796 244.32 112.572 244.16C113.9 243.456 115.076 242.68 116.1 241.832C117.14 240.984 118.036 240.104 118.788 239.192C119.54 238.264 120.148 237.36 120.612 236.48ZM127.572 238.976H128.1L128.58 238.832L130.572 239.864C129.868 241.736 128.956 243.448 127.836 245C126.732 246.536 125.46 247.92 124.02 249.152C122.596 250.384 121.052 251.456 119.388 252.368C117.724 253.28 115.996 254.04 114.204 254.648C114.092 254.376 113.94 254.08 113.748 253.76C113.556 253.44 113.356 253.128 113.148 252.824C112.94 252.52 112.732 252.264 112.524 252.056C114.188 251.592 115.796 250.96 117.348 250.16C118.916 249.344 120.364 248.392 121.692 247.304C123.036 246.216 124.212 245.016 125.22 243.704C126.228 242.376 127.012 240.96 127.572 239.456V238.976ZM116.82 244.232L118.98 242.384C119.54 242.768 120.124 243.2 120.732 243.68C121.356 244.16 121.94 244.648 122.484 245.144C123.044 245.624 123.5 246.08 123.852 246.512L121.524 248.576C121.22 248.16 120.804 247.696 120.276 247.184C119.748 246.656 119.18 246.136 118.572 245.624C117.964 245.112 117.38 244.648 116.82 244.232ZM130.596 248.288H133.572V259.16H130.596V248.288ZM122.412 248.288H132.036V250.88H122.412V259.136H119.508V250.4L121.716 248.288H122.412ZM151.692 254.216H157.836V256.976H151.692V254.216ZM138.18 240.92H146.964V243.728H138.18V240.92ZM150.396 239.36H159.132V258.488H156.252V242.144H153.156V258.656H150.396V239.36ZM146.268 240.92H149.052C149.052 240.92 149.052 241.008 149.052 241.184C149.052 241.344 149.052 241.528 149.052 241.736C149.052 241.944 149.044 242.112 149.028 242.24C148.98 244.8 148.924 246.984 148.86 248.792C148.812 250.584 148.748 252.056 148.668 253.208C148.604 254.36 148.508 255.264 148.38 255.92C148.252 256.576 148.092 257.04 147.9 257.312C147.628 257.712 147.348 258 147.06 258.176C146.772 258.352 146.428 258.48 146.028 258.56C145.676 258.64 145.244 258.68 144.732 258.68C144.22 258.696 143.684 258.688 143.124 258.656C143.108 258.24 143.028 257.752 142.884 257.192C142.74 256.648 142.548 256.176 142.308 255.776C142.788 255.808 143.228 255.832 143.628 255.848C144.028 255.864 144.34 255.872 144.564 255.872C144.74 255.872 144.892 255.84 145.02 255.776C145.148 255.712 145.268 255.592 145.38 255.416C145.508 255.24 145.62 254.872 145.716 254.312C145.812 253.752 145.892 252.936 145.956 251.864C146.02 250.792 146.076 249.416 146.124 247.736C146.172 246.04 146.22 243.976 146.268 241.544V240.92ZM141.036 236.96H143.868C143.868 239.328 143.828 241.592 143.748 243.752C143.684 245.896 143.524 247.912 143.268 249.8C143.012 251.688 142.588 253.424 141.996 255.008C141.42 256.576 140.612 257.96 139.572 259.16C139.428 258.92 139.236 258.664 138.996 258.392C138.756 258.12 138.5 257.864 138.228 257.624C137.956 257.384 137.7 257.192 137.46 257.048C138.212 256.2 138.812 255.248 139.26 254.192C139.724 253.12 140.076 251.952 140.316 250.688C140.572 249.424 140.748 248.072 140.844 246.632C140.94 245.176 140.996 243.64 141.012 242.024C141.028 240.392 141.036 238.704 141.036 236.96ZM174.516 245.528V246.896H181.908V245.528H174.516ZM174.516 242.384V243.704H181.908V242.384H174.516ZM172.044 240.368H184.5V248.912H172.044V240.368ZM173.028 249.944H183.636V259.16H180.9V252.08H175.644V259.16H173.028V249.944ZM181.14 236.576L184.02 237.416C183.652 238.072 183.284 238.704 182.916 239.312C182.548 239.904 182.212 240.408 181.908 240.824L179.532 240.056C179.804 239.56 180.092 238.992 180.396 238.352C180.716 237.696 180.964 237.104 181.14 236.576ZM172.764 237.56L175.14 236.672C175.476 237.168 175.804 237.728 176.124 238.352C176.46 238.96 176.7 239.496 176.844 239.96L174.3 240.968C174.188 240.504 173.98 239.96 173.676 239.336C173.388 238.696 173.084 238.104 172.764 237.56ZM174.612 253.208H182.076V255.224H174.612V253.208ZM174.612 256.4H182.076V258.488H174.612V256.4ZM176.844 241.376H179.388V247.688H176.844V241.376ZM164.916 253.232L167.412 253.808C167.108 254.816 166.7 255.808 166.188 256.784C165.676 257.744 165.132 258.552 164.556 259.208C164.412 259.064 164.204 258.904 163.932 258.728C163.66 258.552 163.388 258.376 163.116 258.2C162.844 258.024 162.612 257.888 162.42 257.792C162.964 257.216 163.452 256.52 163.884 255.704C164.332 254.888 164.676 254.064 164.916 253.232ZM167.724 254.096L169.86 253.184C170.26 253.792 170.652 254.464 171.036 255.2C171.436 255.92 171.74 256.552 171.948 257.096L169.716 258.152C169.604 257.784 169.436 257.368 169.212 256.904C169.004 256.424 168.772 255.944 168.516 255.464C168.26 254.968 167.996 254.512 167.724 254.096ZM166.212 244.136V246.392H168.588V244.136H166.212ZM166.212 248.504V250.76H168.588V248.504H166.212ZM166.212 239.792V242H168.588V239.792H166.212ZM163.764 237.512H171.108V253.064H163.764V237.512ZM188.484 238.904L190.116 236.84C190.548 237.016 191.004 237.232 191.484 237.488C191.964 237.744 192.42 238.016 192.852 238.304C193.284 238.576 193.636 238.848 193.908 239.12L192.18 241.4C191.94 241.128 191.612 240.848 191.196 240.56C190.78 240.256 190.332 239.96 189.852 239.672C189.372 239.368 188.916 239.112 188.484 238.904ZM187.572 245.312L189.156 243.2C189.604 243.376 190.068 243.584 190.548 243.824C191.028 244.064 191.484 244.32 191.916 244.592C192.348 244.864 192.7 245.12 192.972 245.36L191.268 247.688C191.028 247.432 190.7 247.16 190.284 246.872C189.868 246.584 189.42 246.304 188.94 246.032C188.46 245.76 188.004 245.52 187.572 245.312ZM187.98 257.408C188.284 256.784 188.612 256.048 188.964 255.2C189.332 254.352 189.7 253.456 190.068 252.512C190.452 251.552 190.796 250.608 191.1 249.68L193.428 251.168C193.172 252.032 192.884 252.912 192.564 253.808C192.244 254.688 191.916 255.56 191.58 256.424C191.244 257.272 190.908 258.096 190.572 258.896L187.98 257.408ZM193.068 256.016C193.916 255.872 194.9 255.704 196.02 255.512C197.14 255.304 198.316 255.088 199.548 254.864C200.796 254.624 202.036 254.384 203.268 254.144L203.484 256.472C202.364 256.728 201.228 256.976 200.076 257.216C198.924 257.472 197.812 257.712 196.74 257.936C195.668 258.16 194.684 258.36 193.788 258.536L193.068 256.016ZM194.484 251.504L196.764 250.832C197.052 251.392 197.292 252.016 197.484 252.704C197.692 253.376 197.828 253.96 197.892 254.456L195.468 255.224C195.452 254.712 195.348 254.112 195.156 253.424C194.98 252.72 194.756 252.08 194.484 251.504ZM193.62 238.376H202.932V240.656H193.62V238.376ZM194.052 242H202.428V244.232H194.052V242ZM196.86 236.744H199.572V243.68H196.86V236.744ZM199.5 250.76L202.26 251.336C202.036 251.992 201.812 252.64 201.588 253.28C201.38 253.904 201.18 254.456 200.988 254.936L198.708 254.384C198.804 254.032 198.9 253.648 198.996 253.232C199.108 252.816 199.204 252.392 199.284 251.96C199.38 251.512 199.452 251.112 199.5 250.76ZM196.716 247.184V248.768H199.716V247.184H196.716ZM194.244 245.264H202.284V250.712H194.244V245.264ZM206.94 236.96L209.508 237.872C209.092 238.672 208.604 239.448 208.044 240.2C207.5 240.936 206.908 241.624 206.268 242.264C205.628 242.904 204.98 243.48 204.324 243.992C204.084 243.688 203.78 243.36 203.412 243.008C203.044 242.64 202.684 242.328 202.332 242.072C202.908 241.672 203.484 241.2 204.06 240.656C204.652 240.112 205.196 239.528 205.692 238.904C206.204 238.264 206.62 237.616 206.94 236.96ZM207.108 243.824L209.724 244.76C209.276 245.544 208.748 246.304 208.14 247.04C207.548 247.76 206.9 248.424 206.196 249.032C205.492 249.64 204.772 250.184 204.036 250.664C203.812 250.344 203.516 250 203.148 249.632C202.78 249.248 202.428 248.928 202.092 248.672C202.732 248.32 203.372 247.888 204.012 247.376C204.652 246.864 205.244 246.304 205.788 245.696C206.332 245.072 206.772 244.448 207.108 243.824ZM207.348 250.544L210.06 251.264C209.42 253.024 208.532 254.56 207.396 255.872C206.276 257.184 204.892 258.272 203.244 259.136C203.052 258.8 202.78 258.432 202.428 258.032C202.092 257.648 201.764 257.328 201.444 257.072C202.852 256.432 204.06 255.544 205.068 254.408C206.092 253.272 206.852 251.984 207.348 250.544ZM213.444 238.904L215.076 236.84C215.508 237.016 215.964 237.232 216.444 237.488C216.924 237.744 217.38 238.016 217.812 238.304C218.244 238.576 218.596 238.848 218.868 239.12L217.14 241.4C216.9 241.128 216.572 240.848 216.156 240.56C215.74 240.256 215.292 239.96 214.812 239.672C214.332 239.368 213.876 239.112 213.444 238.904ZM212.532 245.312L214.116 243.2C214.564 243.376 215.028 243.584 215.508 243.824C215.988 244.064 216.444 244.32 216.876 244.592C217.308 244.864 217.66 245.12 217.932 245.36L216.228 247.688C215.988 247.432 215.66 247.16 215.244 246.872C214.828 246.584 214.38 246.304 213.9 246.032C213.42 245.76 212.964 245.52 212.532 245.312ZM212.94 257.408C213.244 256.784 213.572 256.048 213.924 255.2C214.292 254.352 214.66 253.456 215.028 252.512C215.412 251.552 215.756 250.608 216.06 249.68L218.388 251.168C218.132 252.032 217.844 252.912 217.524 253.808C217.204 254.688 216.876 255.56 216.54 256.424C216.204 257.272 215.868 258.096 215.532 258.896L212.94 257.408ZM226.212 237.8H234.972V240.416H226.212V237.8ZM226.5 242.432H234.588V245.024H226.5V242.432ZM218.676 243.632H226.116V246.224H218.676V243.632ZM226.5 247.088H234.588V249.68H226.5V247.088ZM225.3 251.792H235.14V254.408H225.3V251.792ZM229.14 239.264H231.876V259.136H229.14V239.264ZM224.604 236.72L226.668 238.952C225.932 239.288 225.124 239.6 224.244 239.888C223.38 240.16 222.5 240.408 221.604 240.632C220.708 240.84 219.844 241.024 219.012 241.184C218.948 240.864 218.828 240.488 218.652 240.056C218.476 239.624 218.308 239.256 218.148 238.952C218.932 238.776 219.716 238.576 220.5 238.352C221.3 238.112 222.052 237.856 222.756 237.584C223.46 237.296 224.076 237.008 224.604 236.72ZM218.1 249.848C219.14 249.736 220.372 249.576 221.796 249.368C223.236 249.144 224.692 248.912 226.164 248.672L226.308 251.096C224.948 251.352 223.588 251.6 222.228 251.84C220.884 252.08 219.652 252.304 218.532 252.512L218.1 249.848ZM221.244 238.904H223.836V247.712C223.836 249.168 223.756 250.6 223.596 252.008C223.452 253.416 223.116 254.744 222.588 255.992C222.06 257.224 221.244 258.344 220.14 259.352C219.964 259.176 219.74 258.976 219.468 258.752C219.212 258.528 218.932 258.304 218.628 258.08C218.34 257.872 218.084 257.704 217.86 257.576C218.868 256.712 219.604 255.752 220.068 254.696C220.548 253.64 220.86 252.52 221.004 251.336C221.164 250.152 221.244 248.936 221.244 247.688V238.904ZM247.236 248.144H250.212V259.112H247.236V248.144ZM243.06 244.208V245.984H254.412V244.208H243.06ZM243.06 240.152V241.88H254.412V240.152H243.06ZM240.228 237.608H257.388V248.504H240.228V237.608ZM237.852 251.24H259.884V253.976H237.852V251.24ZM265.86 250.472H282.3V252.512H265.86V250.472ZM267.348 247.424H284.748V249.416H267.348V247.424ZM267.396 241.472H279.852V243.224H267.396V241.472ZM281.436 250.472H284.172C284.172 250.472 284.164 250.6 284.148 250.856C284.148 251.096 284.132 251.304 284.1 251.48C284.004 252.904 283.892 254.08 283.764 255.008C283.652 255.936 283.516 256.656 283.356 257.168C283.212 257.696 283.036 258.08 282.828 258.32C282.588 258.592 282.332 258.784 282.06 258.896C281.788 259.008 281.484 259.08 281.148 259.112C280.844 259.16 280.452 259.184 279.972 259.184C279.492 259.2 278.972 259.192 278.412 259.16C278.396 258.824 278.324 258.432 278.196 257.984C278.084 257.552 277.94 257.176 277.764 256.856C278.196 256.904 278.596 256.936 278.964 256.952C279.332 256.952 279.604 256.952 279.78 256.952C280.116 256.952 280.364 256.872 280.524 256.712C280.652 256.552 280.772 256.264 280.884 255.848C280.996 255.432 281.1 254.824 281.196 254.024C281.292 253.208 281.372 252.144 281.436 250.832V250.472ZM271.98 236.48L275.436 236.72C275.196 237.312 274.916 237.872 274.596 238.4C274.292 238.928 274.02 239.384 273.78 239.768L271.236 239.336C271.38 238.904 271.524 238.424 271.668 237.896C271.828 237.368 271.932 236.896 271.98 236.48ZM267.612 238.4H281.364V246.368H267.612V244.4H278.532V240.392H267.612V238.4ZM265.86 238.4H268.716V251.432H265.86V238.4ZM272.268 253.88L274.452 253.352C274.724 253.992 274.98 254.68 275.22 255.416C275.46 256.152 275.612 256.784 275.676 257.312L273.324 257.936C273.276 257.408 273.148 256.76 272.94 255.992C272.748 255.224 272.524 254.52 272.268 253.88ZM276.012 253.424L278.052 252.728C278.356 253.208 278.66 253.744 278.964 254.336C279.268 254.912 279.476 255.408 279.588 255.824L277.452 256.64C277.324 256.224 277.124 255.712 276.852 255.104C276.596 254.496 276.316 253.936 276.012 253.424ZM268.38 253.928L270.732 253.568C270.94 254.272 271.092 255.04 271.188 255.872C271.3 256.704 271.356 257.416 271.356 258.008L268.836 258.392C268.868 257.8 268.836 257.088 268.74 256.256C268.66 255.408 268.54 254.632 268.38 253.928ZM264.996 252.968L267.396 253.808C267.14 254.768 266.796 255.728 266.364 256.688C265.948 257.632 265.412 258.44 264.756 259.112L262.452 257.672C263.06 257.096 263.58 256.384 264.012 255.536C264.444 254.688 264.772 253.832 264.996 252.968ZM298.86 254.288L301.092 253.688C301.364 254.104 301.596 254.56 301.788 255.056C301.98 255.552 302.116 255.992 302.196 256.376L299.844 257.072C299.796 256.688 299.676 256.232 299.484 255.704C299.292 255.176 299.084 254.704 298.86 254.288ZM305.196 253.64L307.692 254.312C307.436 254.824 307.18 255.32 306.924 255.8C306.684 256.28 306.46 256.688 306.252 257.024L304.116 256.4C304.308 256.016 304.508 255.56 304.716 255.032C304.924 254.504 305.084 254.04 305.196 253.64ZM300.18 250.976V252.176H306.132V250.976H300.18ZM297.78 249.272H308.604V253.88H297.78V249.272ZM299.316 242.648V243.752H306.9V242.648H299.316ZM299.316 239.912V240.992H306.9V239.912H299.316ZM297.036 238.16H309.3V245.504H297.036V238.16ZM296.676 246.32H309.708V248.48H296.676V246.32ZM296.196 256.568H310.044V258.704H296.196V256.568ZM300.252 236.6H302.364V239.456H300.252V236.6ZM303.78 236.6H305.916V239.456H303.78V236.6ZM300.66 238.976H302.364V245.168H300.66V238.976ZM303.78 238.976H305.484V245.168H303.78V238.976ZM287.724 242.888H296.148V245.384H287.724V242.888ZM288.3 238.112H295.668V240.584H288.3V238.112ZM294.252 246.608H296.076V255.536H294.252V246.608ZM290.868 244.136H293.244V259.136H290.868V244.136ZM288.06 246.632H289.884V249.512C289.884 250.744 289.828 252.04 289.716 253.4C289.604 254.744 289.34 255.992 288.924 257.144C288.732 256.952 288.476 256.736 288.156 256.496C287.836 256.256 287.556 256.072 287.316 255.944C287.636 254.968 287.836 253.904 287.916 252.752C288.012 251.6 288.06 250.504 288.06 249.464V246.632Z" fill="white"/>
<path d="M62.768 140.846H85.446V146.646H62.768V140.846ZM69.438 143.166L75.934 143.572C75.47 148.096 74.3873 151.885 72.686 154.94C70.9847 157.995 68.6453 160.489 65.668 162.422C65.32 162.035 64.8173 161.591 64.16 161.088C63.5027 160.547 62.826 160.025 62.13 159.522C61.434 159.019 60.854 158.633 60.39 158.362C63.3287 156.931 65.494 154.959 66.886 152.446C68.3167 149.894 69.1673 146.801 69.438 143.166ZM81.85 140.846H88.462C88.462 140.846 88.462 141.155 88.462 141.774C88.462 142.393 88.4427 142.876 88.404 143.224C88.288 146.472 88.1333 149.159 87.94 151.286C87.7467 153.374 87.4953 155.017 87.186 156.216C86.9153 157.415 86.548 158.285 86.084 158.826C85.5427 159.483 84.9433 159.947 84.286 160.218C83.6673 160.489 82.9713 160.682 82.198 160.798C81.4633 160.914 80.516 160.991 79.356 161.03C78.2347 161.03 77.0167 161.011 75.702 160.972C75.6633 160.044 75.4893 159.039 75.18 157.956C74.8707 156.835 74.484 155.887 74.02 155.114C75.0253 155.191 75.9533 155.249 76.804 155.288C77.6547 155.288 78.2927 155.288 78.718 155.288C79.4913 155.327 80.052 155.153 80.4 154.766C80.6707 154.418 80.8833 153.799 81.038 152.91C81.1927 151.982 81.328 150.629 81.444 148.85C81.5987 147.033 81.734 144.674 81.85 141.774V140.846ZM37.886 144.674H61.028V150.706H37.886V144.674ZM36.552 156.042H62.072V162.132H36.552V156.042ZM50.124 168.454H61.318V174.486H50.124V168.454ZM46.412 138.758H52.792V159.232H46.412V138.758ZM47.456 159.638H53.662V185.39H47.456V159.638ZM43.57 171.064C44.3433 174.119 45.3293 176.574 46.528 178.43C47.7653 180.286 49.2733 181.697 51.052 182.664C52.8693 183.592 54.9767 184.23 57.374 184.578C59.7713 184.887 62.4973 185.042 65.552 185.042C66.2867 185.042 67.292 185.061 68.568 185.1C69.8827 185.1 71.3327 185.1 72.918 185.1C74.5033 185.061 76.1467 185.042 77.848 185.042C79.588 185.042 81.2893 185.042 82.952 185.042C84.6147 185.042 86.1227 185.023 87.476 184.984C88.8293 184.907 89.9507 184.868 90.84 184.868C90.492 185.371 90.144 186.028 89.796 186.84C89.448 187.652 89.1193 188.483 88.81 189.334C88.5393 190.223 88.3267 191.016 88.172 191.712H83.996H65.552C61.6853 191.712 58.2827 191.461 55.344 190.958C52.4053 190.494 49.8727 189.585 47.746 188.232C45.6193 186.879 43.802 184.945 42.294 182.432C40.8247 179.919 39.5873 176.632 38.582 172.572L43.57 171.064ZM38.408 165.09L44.498 165.496C44.4593 169.169 44.324 172.707 44.092 176.11C43.86 179.513 43.454 182.664 42.874 185.564C42.294 188.425 41.5013 190.958 40.496 193.162C40.1093 192.853 39.568 192.505 38.872 192.118C38.176 191.731 37.4607 191.345 36.726 190.958C36.03 190.61 35.4307 190.339 34.928 190.146C35.8947 188.213 36.6293 185.931 37.132 183.302C37.6347 180.673 37.9633 177.811 38.118 174.718C38.2727 171.625 38.3693 168.415 38.408 165.09ZM70.714 168.802V175.994H80.168V168.802H70.714ZM64.218 163.176H87.128V181.504H64.218V163.176ZM113.75 144.036H149.13V149.952H113.75V144.036ZM111.198 186.26H150.464V192.118H111.198V186.26ZM116.244 153.954H145.998V187.362H139.618V159.058H122.334V187.362H116.244V153.954ZM120.826 162.19H140.72V167.004H120.826V162.19ZM120.652 170.252H142.286V174.95H120.652V170.252ZM120.536 178.198H140.836V182.954H120.536V178.198ZM128.25 138.816L135.616 139.048C135.307 141.097 134.939 143.185 134.514 145.312C134.089 147.4 133.663 149.391 133.238 151.286C132.813 153.181 132.387 154.843 131.962 156.274L125.93 155.81C126.278 154.263 126.607 152.504 126.916 150.532C127.225 148.56 127.496 146.549 127.728 144.5C127.999 142.451 128.173 140.556 128.25 138.816ZM108.008 138.874L114.446 140.962C113.247 144.21 111.836 147.497 110.212 150.822C108.588 154.109 106.829 157.221 104.934 160.16C103.078 163.099 101.145 165.689 99.134 167.932C98.9407 167.352 98.612 166.617 98.148 165.728C97.7227 164.8 97.278 163.872 96.814 162.944C96.35 162.016 95.9053 161.262 95.48 160.682C97.1427 158.942 98.7473 156.912 100.294 154.592C101.879 152.233 103.329 149.72 104.644 147.052C105.959 144.384 107.08 141.658 108.008 138.874ZM102.324 154.998L108.704 148.444L108.762 148.502V193.162H102.324V154.998ZM157.888 154.36H209.508V161.552H157.888V154.36ZM187.7 157.26C188.86 161.668 190.465 165.786 192.514 169.614C194.563 173.442 197.096 176.787 200.112 179.648C203.167 182.509 206.724 184.771 210.784 186.434C210.204 186.937 209.585 187.575 208.928 188.348C208.309 189.121 207.691 189.914 207.072 190.726C206.492 191.577 206.009 192.331 205.622 192.988C201.175 190.9 197.347 188.213 194.138 184.926C190.967 181.639 188.299 177.811 186.134 173.442C183.969 169.034 182.151 164.181 180.682 158.884L187.7 157.26ZM179.696 138.758H187.294C187.255 141.697 187.159 144.809 187.004 148.096C186.888 151.344 186.598 154.65 186.134 158.014C185.67 161.378 184.916 164.723 183.872 168.048C182.867 171.335 181.436 174.505 179.58 177.56C177.763 180.576 175.404 183.399 172.504 186.028C169.643 188.657 166.143 190.977 162.006 192.988C161.465 192.06 160.711 191.035 159.744 189.914C158.777 188.793 157.791 187.865 156.786 187.13C160.73 185.351 164.036 183.302 166.704 180.982C169.372 178.623 171.537 176.091 173.2 173.384C174.901 170.639 176.197 167.797 177.086 164.858C177.975 161.881 178.575 158.884 178.884 155.868C179.232 152.852 179.445 149.894 179.522 146.994C179.599 144.094 179.657 141.349 179.696 138.758ZM250.92 170.02H257.126V189.276H250.92V170.02ZM247.788 154.708V158.826H260.78V154.708H247.788ZM241.64 149.43H267.218V164.104H241.64V149.43ZM238.74 166.656H269.77V193.046H263.042V172.224H245.12V193.104H238.74V166.656ZM242.394 176.052H266.522V181.272H242.394V176.052ZM242.452 185.216H266.58V190.784H242.452V185.216ZM238.45 141.136H269.944V146.994H238.45V141.136ZM217.802 149.488H235.202V155.752H217.802V149.488ZM224.82 138.758H231.606V152.388H224.82V138.758ZM232.186 163.002C232.611 163.273 233.191 163.717 233.926 164.336C234.661 164.955 235.453 165.631 236.304 166.366C237.155 167.062 237.928 167.719 238.624 168.338C239.32 168.957 239.803 169.401 240.074 169.672L236.014 175.298C235.589 174.679 235.028 173.964 234.332 173.152C233.675 172.34 232.979 171.509 232.244 170.658C231.509 169.807 230.794 169.015 230.098 168.28C229.441 167.507 228.841 166.869 228.3 166.366L232.186 163.002ZM232.65 149.488H233.984L235.144 149.198L239.03 151.692C237.715 155.443 235.975 159.039 233.81 162.48C231.683 165.883 229.344 168.976 226.792 171.76C224.24 174.544 221.611 176.845 218.904 178.662C218.749 178.043 218.459 177.309 218.034 176.458C217.647 175.569 217.241 174.718 216.816 173.906C216.391 173.094 216.004 172.475 215.656 172.05C218.092 170.619 220.412 168.783 222.616 166.54C224.859 164.259 226.85 161.765 228.59 159.058C230.369 156.313 231.722 153.529 232.65 150.706V149.488ZM224.82 169.324L231.606 161.146V193.22H224.82V169.324ZM300.626 162.422H307.644V170.774H300.626V162.422ZM300.336 169.962L305.962 172.398C304.531 173.867 302.869 175.221 300.974 176.458C299.079 177.695 297.03 178.836 294.826 179.88C292.622 180.885 290.321 181.775 287.924 182.548C285.527 183.283 283.091 183.882 280.616 184.346C280.191 183.611 279.591 182.722 278.818 181.678C278.083 180.634 277.368 179.783 276.672 179.126C279.031 178.778 281.37 178.314 283.69 177.734C286.01 177.115 288.195 176.419 290.244 175.646C292.332 174.873 294.227 174.022 295.928 173.094C297.668 172.127 299.137 171.083 300.336 169.962ZM309.79 170.194C311.375 174.679 313.947 178.353 317.504 181.214C321.061 184.075 325.759 186.028 331.598 187.072C331.134 187.536 330.631 188.116 330.09 188.812C329.549 189.547 329.027 190.301 328.524 191.074C328.06 191.847 327.673 192.543 327.364 193.162C323.033 192.195 319.341 190.745 316.286 188.812C313.231 186.917 310.66 184.52 308.572 181.62C306.484 178.72 304.763 175.317 303.41 171.412L309.79 170.194ZM323.71 173.79L329.104 177.908C327.905 178.643 326.61 179.377 325.218 180.112C323.826 180.808 322.453 181.465 321.1 182.084C319.785 182.664 318.529 183.186 317.33 183.65L312.806 179.88C313.927 179.377 315.145 178.778 316.46 178.082C317.813 177.386 319.128 176.651 320.404 175.878C321.719 175.105 322.821 174.409 323.71 173.79ZM283.864 186.956C286.145 186.724 288.736 186.473 291.636 186.202C294.536 185.893 297.591 185.564 300.8 185.216C304.048 184.829 307.257 184.462 310.428 184.114L310.602 189.798C307.586 190.185 304.531 190.552 301.438 190.9C298.383 191.287 295.425 191.654 292.564 192.002C289.741 192.35 287.151 192.659 284.792 192.93L283.864 186.956ZM278.18 167.874H330.438V173.848H278.18V167.874ZM294.942 148.56L329.858 145.312L330.554 150.938L295.638 154.36L294.942 148.56ZM315.126 142.818L318.084 138.816C319.167 139.048 320.307 139.357 321.506 139.744C322.705 140.092 323.865 140.479 324.986 140.904C326.146 141.291 327.113 141.658 327.886 142.006L324.812 146.414C324.077 145.989 323.149 145.563 322.028 145.138C320.945 144.674 319.785 144.249 318.548 143.862C317.349 143.437 316.209 143.089 315.126 142.818ZM304.396 139.106H311.298C311.491 142.006 311.975 144.732 312.748 147.284C313.56 149.836 314.546 152.079 315.706 154.012C316.905 155.907 318.181 157.395 319.534 158.478C320.926 159.561 322.337 160.083 323.768 160.044C324.503 160.044 325.025 159.638 325.334 158.826C325.643 158.014 325.875 156.603 326.03 154.592C326.765 155.211 327.635 155.791 328.64 156.332C329.684 156.873 330.631 157.279 331.482 157.55C331.211 160.025 330.747 161.919 330.09 163.234C329.433 164.549 328.563 165.457 327.48 165.96C326.436 166.424 325.102 166.656 323.478 166.656C320.887 166.656 318.49 165.96 316.286 164.568C314.121 163.176 312.187 161.223 310.486 158.71C308.823 156.197 307.47 153.277 306.426 149.952C305.382 146.627 304.705 143.011 304.396 139.106ZM291.404 138.7L297.9 140.904C296.585 143.263 295 145.544 293.144 147.748C291.288 149.913 289.316 151.924 287.228 153.78C285.14 155.597 283.033 157.183 280.906 158.536C280.558 158.111 280.075 157.569 279.456 156.912C278.876 156.255 278.257 155.597 277.6 154.94C276.981 154.283 276.44 153.741 275.976 153.316C279.031 151.692 281.95 149.585 284.734 146.994C287.518 144.403 289.741 141.639 291.404 138.7ZM286.068 149.488L290.766 144.79L292.738 145.37V165.844H286.068V149.488ZM290.65 179.416L295.232 174.834L297.32 175.472V189.102H290.65V179.416Z" fill="white"/>
<ellipse cx="472.904" cy="194.57" rx="85.9498" ry="75.9224" fill="#FF9C1E"/>
<path d="M479.076 131.118L443.419 138.475L421.912 110.743L483.973 95.6142L479.076 131.118Z" fill="#FF9C1E"/>
<circle cx="78.9932" cy="68.0485" r="56" fill="#FF9C1E"/>
<path d="M89.1311 29.3212V102.048H71.5885V45.7274H71.1624L54.8982 55.6706V40.4718L72.8314 29.3212H89.1311Z" fill="white"/>
</svg>
