<svg width="574" height="314" viewBox="0 0 574 314" fill="none" xmlns="http://www.w3.org/2000/svg">
<path d="M3.99878 31.5352H543.999C560.567 31.5352 573.999 44.9666 573.999 61.5352V313.907H33.9988C17.4302 313.907 3.99878 300.475 3.99878 283.907V31.5352Z" fill="#39BF63"/>
<line x1="351.795" y1="220.407" x2="42.6429" y2="220.407" stroke="white"/>
<path d="M154.5 94.6823H165.636V96.9222H154.5V94.6823ZM154.5 98.1702H165.636V100.41H154.5V98.1702ZM154.34 101.658H166.276V104.218H154.34V101.658ZM150.948 77.6262H166.436V80.3142H150.948V77.6262ZM158.148 92.3462H161.284V103.226H158.148V92.3462ZM153.828 75.8982H157.06V82.0102H153.828V75.8982ZM160.452 75.8982H163.684V82.0102H160.452V75.8982ZM154.02 84.8263V86.5542H155.62V84.8263H154.02ZM151.556 82.5862H158.18V88.8262H151.556V82.5862ZM161.732 84.8263V86.5542H163.46V84.8263H161.732ZM159.268 82.5862H166.052V88.8262H159.268V82.5862ZM155.844 90.9062H166.212V93.4662H155.844V105.562H152.772V93.0182L154.692 90.9062H155.844ZM159.428 88.5062L162.564 89.2102C162.201 89.8716 161.849 90.5222 161.508 91.1622C161.188 91.8022 160.889 92.3569 160.612 92.8262L158.244 92.1542C158.479 91.6209 158.703 91.0129 158.916 90.3302C159.151 89.6476 159.321 89.0396 159.428 88.5062ZM154.116 88.2822L156.9 89.0182C156.345 90.7249 155.62 92.3996 154.724 94.0422C153.849 95.6636 152.889 97.0289 151.844 98.1382C151.737 97.9249 151.577 97.6582 151.364 97.3382C151.151 96.9969 150.927 96.6662 150.692 96.3462C150.479 96.0262 150.276 95.7702 150.084 95.5782C150.937 94.6822 151.716 93.5942 152.42 92.3142C153.124 91.0129 153.689 89.6689 154.116 88.2822ZM170.66 85.0822V87.0982H175.94V85.0822H170.66ZM170.66 90.0422V92.0582H175.94V90.0422H170.66ZM170.66 80.1222V82.1382H175.94V80.1222H170.66ZM167.364 76.8582H179.364V95.3542H167.364V76.8582ZM173.38 94.8102H176.612V101.242C176.612 101.648 176.633 101.904 176.676 102.01C176.719 102.117 176.815 102.17 176.964 102.17C177.007 102.17 177.071 102.17 177.156 102.17C177.263 102.17 177.369 102.17 177.476 102.17C177.583 102.17 177.657 102.17 177.7 102.17C177.828 102.17 177.924 102.096 177.988 101.946C178.073 101.776 178.137 101.424 178.18 100.89C178.244 100.336 178.276 99.5036 178.276 98.3942C178.596 98.6716 179.044 98.9276 179.62 99.1622C180.196 99.3756 180.697 99.5462 181.124 99.6742C181.039 101.125 180.879 102.245 180.644 103.034C180.431 103.845 180.111 104.4 179.684 104.698C179.279 105.018 178.745 105.178 178.084 105.178C177.913 105.178 177.721 105.178 177.508 105.178C177.316 105.178 177.113 105.178 176.9 105.178C176.708 105.178 176.537 105.178 176.388 105.178C175.556 105.178 174.916 105.061 174.468 104.826C174.041 104.592 173.753 104.186 173.604 103.61C173.455 103.034 173.38 102.266 173.38 101.306V94.8102ZM169.028 94.9382H172.26C172.175 96.6022 171.972 98.1169 171.652 99.4822C171.353 100.826 170.82 102.01 170.052 103.034C169.284 104.08 168.175 104.976 166.724 105.722C166.532 105.317 166.233 104.826 165.828 104.25C165.423 103.696 165.028 103.258 164.644 102.938C165.86 102.426 166.767 101.797 167.364 101.05C167.961 100.304 168.367 99.4182 168.58 98.3942C168.815 97.3702 168.964 96.2182 169.028 94.9382ZM196.932 75.7062H200.772V80.9862H196.932V75.7062ZM185.412 79.0662H212.772V85.1462H209.028V81.6582H188.964V85.1462H185.412V79.0662ZM194.052 84.9862V86.3302H203.812V84.9862H194.052ZM190.5 82.8742H207.62V88.4422H190.5V82.8742ZM188.292 76.7622L191.716 75.8662C192.143 76.3356 192.548 76.8582 192.932 77.4342C193.316 78.0102 193.625 78.5116 193.86 78.9382L190.34 80.0902C190.148 79.6422 189.86 79.1089 189.476 78.4902C189.092 77.8502 188.697 77.2742 188.292 76.7622ZM206.276 75.7702L210.276 76.6982C209.764 77.3809 209.252 78.0102 208.74 78.5862C208.228 79.1622 207.769 79.6636 207.364 80.0902L204.196 79.1942C204.559 78.7036 204.943 78.1382 205.348 77.4982C205.753 76.8369 206.063 76.2609 206.276 75.7702ZM192.292 94.7142V95.8982H205.86V94.7142H192.292ZM192.292 97.8502V99.0342H205.86V97.8502H192.292ZM192.292 91.6102V92.7622H205.86V91.6102H192.292ZM188.676 89.5622H209.636V101.082H188.676V89.5622ZM193.54 100.954L197.22 102.362C196.409 102.896 195.449 103.397 194.34 103.866C193.231 104.336 192.068 104.741 190.852 105.082C189.636 105.445 188.473 105.744 187.364 105.978C187.151 105.722 186.863 105.402 186.5 105.018C186.159 104.656 185.817 104.304 185.476 103.962C185.135 103.621 184.815 103.344 184.516 103.13C185.647 102.981 186.777 102.81 187.908 102.618C189.06 102.405 190.127 102.16 191.108 101.882C192.111 101.605 192.921 101.296 193.54 100.954ZM200.644 102.81L203.588 100.73C204.719 101.029 205.881 101.36 207.076 101.722C208.292 102.064 209.433 102.416 210.5 102.778C211.588 103.141 212.516 103.472 213.284 103.77L209.284 105.818C208.644 105.541 207.855 105.232 206.916 104.89C205.999 104.549 204.996 104.186 203.908 103.802C202.841 103.44 201.753 103.109 200.644 102.81ZM233.252 84.4102H243.492V87.5782H233.252V84.4102ZM232.292 95.6742H244.164V98.7782H232.292V95.6742ZM235.172 90.5862H237.476V105.37H235.172V90.5862ZM239.044 90.5862H241.38V105.37H239.044V90.5862ZM238.244 79.2582C237.711 80.1116 237.06 81.0182 236.292 81.9782C235.545 82.9382 234.713 83.8662 233.796 84.7622C232.879 85.6369 231.919 86.4156 230.916 87.0982C230.724 86.6289 230.447 86.0956 230.084 85.4982C229.721 84.9009 229.369 84.4102 229.028 84.0262C230.031 83.3862 231.012 82.6076 231.972 81.6902C232.932 80.7516 233.796 79.7702 234.564 78.7462C235.353 77.7009 235.983 76.7302 236.452 75.8342H239.78C240.441 76.8582 241.199 77.8822 242.052 78.9062C242.905 79.9089 243.812 80.8369 244.772 81.6902C245.732 82.5222 246.692 83.2049 247.652 83.7382C247.311 84.1862 246.948 84.7089 246.564 85.3062C246.201 85.9036 245.881 86.4796 245.604 87.0342C244.708 86.3942 243.791 85.6369 242.852 84.7622C241.935 83.8876 241.071 82.9702 240.26 82.0102C239.471 81.0502 238.799 80.1329 238.244 79.2582ZM230.756 89.4022H244.26V92.5062H233.636V105.786H230.756V89.4022ZM242.98 89.4022H246.212V102.522C246.212 103.162 246.148 103.696 246.02 104.122C245.892 104.57 245.636 104.922 245.252 105.178C244.868 105.456 244.441 105.626 243.972 105.69C243.503 105.754 242.948 105.776 242.308 105.754C242.265 105.328 242.159 104.826 241.988 104.25C241.817 103.674 241.625 103.184 241.412 102.778C241.689 102.8 241.945 102.81 242.18 102.81C242.436 102.81 242.607 102.81 242.692 102.81C242.884 102.81 242.98 102.693 242.98 102.458V89.4022ZM217.54 78.8102H229.796V82.1062H217.54V78.8102ZM217.092 97.3382H229.924V100.698H217.092V97.3382ZM222.052 75.7382H225.22V85.0822H222.052V75.7382ZM222.436 85.1142H224.9V94.0102H225.252V105.754H222.084V94.0102H222.436V85.1142ZM220.708 90.8742V92.7622H226.66V90.8742H220.708ZM220.708 86.4902V88.3462H226.66V86.4902H220.708ZM218.084 83.8022H229.444V95.4502H218.084V83.8022ZM269.668 94.9702V100.986H266.532V94.9702H269.668ZM275.3 92.2502V105.786H271.844V92.2502H275.3ZM280.036 99.3862V102.266H263.556V99.3862H280.036ZM279.204 93.7222V96.6982H265.22V93.7222H279.204ZM256.356 96.5382C256.761 96.7942 257.188 97.1036 257.636 97.4662C258.084 97.8076 258.5 98.1596 258.884 98.5222C259.268 98.8636 259.588 99.1836 259.844 99.4822L257.284 101.21C257.071 100.912 256.772 100.581 256.388 100.218C256.025 99.8556 255.631 99.4929 255.204 99.1302C254.777 98.7462 254.361 98.4049 253.956 98.1062L256.356 96.5382ZM262.532 93.8822L263.108 93.7862L265.156 94.7462C264.495 96.7516 263.577 98.4796 262.404 99.9302C261.252 101.381 259.908 102.586 258.372 103.546C256.857 104.506 255.204 105.264 253.412 105.818C253.305 105.562 253.124 105.264 252.868 104.922C252.612 104.581 252.345 104.24 252.068 103.898C251.791 103.557 251.545 103.301 251.332 103.13C253.017 102.682 254.553 102.074 255.94 101.306C257.348 100.517 258.553 99.5569 259.556 98.4262C260.58 97.2742 261.337 95.9196 261.828 94.3622V93.8822H262.532ZM260.036 92.3782C259.204 93.9356 258.116 95.3542 256.772 96.6342C255.428 97.9142 254.031 98.9596 252.58 99.7702C252.431 99.5782 252.207 99.3436 251.908 99.0662C251.631 98.7676 251.343 98.4796 251.044 98.2023C250.767 97.9036 250.511 97.6689 250.276 97.4982C251.684 96.8156 252.985 95.9622 254.18 94.9382C255.396 93.9142 256.335 92.7836 256.996 91.5462L260.036 92.3782ZM275.332 79.5462V90.3302H271.78V79.5462H275.332ZM269.764 79.5462V90.3302H266.596V79.5462H269.764ZM264.548 79.5462V90.3302H261.38V79.5462H264.548ZM259.396 79.5462V90.3302H255.94V79.5462H259.396ZM279.364 88.8902V91.8982H251.876V88.8902H279.364ZM279.748 83.6742V86.7463H251.268V83.6742H279.748ZM262.916 93.8822V96.3782H254.756L257.252 93.8822H262.916ZM278.34 78.4902V81.4982H254.212L257.188 78.4902H278.34ZM260.196 76.3142C259.407 77.6369 258.5 78.9062 257.476 80.1222C256.473 81.3382 255.279 82.4796 253.892 83.5462C253.572 83.1622 253.135 82.7569 252.58 82.3302C252.025 81.8822 251.535 81.5409 251.108 81.3062C252.367 80.4956 253.455 79.5782 254.372 78.5542C255.289 77.5302 256.015 76.5489 256.548 75.6102L260.196 76.3142ZM301.055 87.8342H321.503V91.2902H301.055V87.8342ZM302.175 81.3702H320.415V84.7622H302.175V81.3702ZM308.927 83.0342H312.767V88.1542C312.767 89.1782 312.639 90.2449 312.383 91.3542C312.148 92.4636 311.7 93.5729 311.039 94.6823C310.399 95.7702 309.471 96.8262 308.255 97.8502C307.06 98.8529 305.514 99.7702 303.615 100.602C303.444 100.325 303.21 100.016 302.911 99.6742C302.612 99.3329 302.303 98.9916 301.983 98.6502C301.663 98.3089 301.354 98.0316 301.055 97.8182C302.868 97.1569 304.298 96.4209 305.343 95.6102C306.41 94.7996 307.188 93.9569 307.679 93.0822C308.191 92.2076 308.522 91.3542 308.671 90.5222C308.842 89.6689 308.927 88.8689 308.927 88.1222V83.0342ZM313.343 90.2662C314.004 92.0369 315.007 93.5409 316.351 94.7782C317.716 95.9942 319.466 96.8689 321.599 97.4022C321.322 97.6582 321.023 97.9782 320.703 98.3622C320.404 98.7462 320.116 99.1409 319.839 99.5462C319.583 99.9302 319.359 100.293 319.167 100.634C316.82 99.8662 314.922 98.6609 313.471 97.0182C312.02 95.3756 310.9 93.3596 310.111 90.9702L313.343 90.2662ZM299.775 88.1862V99.9942H296.031V91.7382H292.319V88.1862H299.775ZM299.775 98.3302C300.436 99.3756 301.364 100.144 302.559 100.634C303.754 101.125 305.183 101.402 306.847 101.466C307.786 101.509 308.895 101.541 310.175 101.562C311.476 101.562 312.842 101.552 314.271 101.53C315.7 101.509 317.098 101.466 318.463 101.402C319.85 101.338 321.076 101.264 322.143 101.178C322.015 101.477 321.866 101.861 321.695 102.33C321.524 102.8 321.364 103.28 321.215 103.77C321.087 104.261 320.991 104.698 320.927 105.082C319.967 105.146 318.868 105.189 317.631 105.21C316.394 105.253 315.124 105.274 313.823 105.274C312.522 105.296 311.263 105.296 310.047 105.274C308.831 105.253 307.743 105.221 306.783 105.178C304.82 105.093 303.146 104.784 301.759 104.25C300.372 103.738 299.146 102.864 298.079 101.626C297.375 102.224 296.65 102.842 295.903 103.482C295.178 104.122 294.378 104.784 293.503 105.466L291.615 101.466C292.362 101.018 293.14 100.528 293.951 99.9942C294.762 99.4609 295.54 98.9062 296.287 98.3302H299.775ZM292.351 78.7782L295.199 76.4742C295.86 76.9009 296.532 77.4022 297.215 77.9782C297.898 78.5329 298.538 79.1089 299.135 79.7062C299.732 80.2822 300.212 80.8156 300.575 81.3062L297.535 83.8662C297.215 83.3542 296.767 82.7996 296.191 82.2022C295.636 81.6049 295.018 81.0076 294.335 80.4102C293.652 79.7916 292.991 79.2476 292.351 78.7782ZM315.551 75.7062L319.455 76.9222C318.879 77.8396 318.282 78.7462 317.663 79.6422C317.066 80.5169 316.511 81.2636 315.999 81.8822L312.863 80.7942C313.183 80.3036 313.514 79.7702 313.855 79.1942C314.196 78.5969 314.516 77.9996 314.815 77.4022C315.114 76.7836 315.359 76.2182 315.551 75.7062ZM303.007 77.1142L306.239 75.7702C306.836 76.4956 307.402 77.3169 307.935 78.2342C308.468 79.1516 308.842 79.9622 309.055 80.6662L305.599 82.1382C305.428 81.4556 305.087 80.6449 304.575 79.7062C304.084 78.7462 303.562 77.8822 303.007 77.1142Z" fill="white"/>
<path d="M39.5241 238.115H59.2041V240.563H39.5241V238.115ZM40.6521 241.787H58.2681V244.067H40.6521V241.787ZM38.6361 245.411H59.9481V247.859H38.6361V245.411ZM47.8041 236.507H50.7081V247.451H47.8041V236.507ZM47.8281 246.299L50.3241 247.499C49.6681 248.187 48.9241 248.851 48.0921 249.491C47.2761 250.131 46.3961 250.731 45.4521 251.291C44.5081 251.835 43.5401 252.331 42.5481 252.779C41.5561 253.211 40.5641 253.579 39.5721 253.883C39.4441 253.659 39.2681 253.403 39.0441 253.115C38.8361 252.827 38.6121 252.547 38.3721 252.275C38.1481 251.987 37.9321 251.747 37.7241 251.555C38.6681 251.299 39.6281 250.987 40.6041 250.619C41.5801 250.251 42.5161 249.835 43.4121 249.371C44.3081 248.907 45.1321 248.419 45.8841 247.907C46.6521 247.395 47.3001 246.859 47.8281 246.299ZM51.9801 246.755C52.3961 248.339 52.9801 249.779 53.7321 251.075C54.4841 252.371 55.4441 253.475 56.6121 254.387C57.7801 255.283 59.1801 255.963 60.8121 256.427C60.6041 256.635 60.3801 256.883 60.1401 257.171C59.9001 257.475 59.6761 257.787 59.4681 258.107C59.2601 258.443 59.0841 258.739 58.9401 258.995C57.1641 258.387 55.6521 257.539 54.4041 256.451C53.1721 255.347 52.1481 254.027 51.3321 252.491C50.5321 250.955 49.8681 249.211 49.3401 247.259L51.9801 246.755ZM57.5001 248.195L59.9001 249.995C59.2921 250.427 58.6601 250.859 58.0041 251.291C57.3481 251.707 56.7001 252.099 56.0601 252.467C55.4201 252.835 54.8201 253.163 54.2601 253.451L52.4601 251.891C52.9881 251.571 53.5561 251.203 54.1641 250.787C54.7881 250.371 55.3881 249.939 55.9641 249.491C56.5561 249.043 57.0681 248.611 57.5001 248.195ZM40.2681 256.355C41.2441 256.179 42.3561 255.971 43.6041 255.731C44.8681 255.475 46.1881 255.203 47.5641 254.915C48.9561 254.627 50.3321 254.331 51.6921 254.027L51.9561 256.619C50.7081 256.907 49.4361 257.195 48.1401 257.483C46.8601 257.771 45.6201 258.043 44.4201 258.299C43.2361 258.555 42.1401 258.795 41.1321 259.019L40.2681 256.355ZM43.5561 251.483L45.4521 249.587L46.4601 249.851V256.739H43.5561V251.483ZM69.9801 238.427H85.2681V242.867H82.5081V240.755H72.5961V242.867H69.9801V238.427ZM75.9561 236.507H78.9081V240.323H75.9561V236.507ZM76.0521 243.683H78.7881V253.091H76.0521V243.683ZM78.3801 255.587L80.5881 254.147C81.1321 254.451 81.7161 254.803 82.3401 255.203C82.9801 255.587 83.5881 255.979 84.1641 256.379C84.7561 256.763 85.2521 257.123 85.6521 257.459L83.2761 259.067C82.9401 258.747 82.4841 258.379 81.9081 257.963C81.3481 257.563 80.7561 257.155 80.1321 256.739C79.5081 256.323 78.9241 255.939 78.3801 255.587ZM73.9881 254.387L76.7241 255.419C76.2441 255.899 75.6841 256.379 75.0441 256.859C74.4041 257.323 73.7321 257.755 73.0281 258.155C72.3401 258.555 71.6761 258.899 71.0361 259.187C70.8761 259.011 70.6601 258.787 70.3881 258.515C70.1161 258.243 69.8441 257.979 69.5721 257.723C69.3001 257.483 69.0521 257.283 68.8281 257.123C69.7881 256.803 70.7401 256.403 71.6841 255.923C72.6281 255.427 73.3961 254.915 73.9881 254.387ZM73.5561 251.027V252.299H81.5241V251.027H73.5561ZM73.5561 247.763V249.035H81.5241V247.763H73.5561ZM71.0121 245.651H84.1881V254.435H71.0121V245.651ZM71.9001 242.219H83.2761V244.499H71.9001V242.219ZM64.1961 238.739L65.7801 236.603C66.2601 236.779 66.7641 237.003 67.2921 237.275C67.8361 237.531 68.3481 237.803 68.8281 238.091C69.3241 238.379 69.7161 238.651 70.0041 238.907L68.3241 241.283C68.0521 241.011 67.6761 240.723 67.1961 240.419C66.7321 240.099 66.2361 239.795 65.7081 239.507C65.1801 239.203 64.6761 238.947 64.1961 238.739ZM62.9481 245.243L64.5081 243.083C64.9881 243.243 65.4921 243.443 66.0201 243.683C66.5641 243.923 67.0761 244.179 67.5561 244.451C68.0361 244.723 68.4281 244.995 68.7321 245.267L67.0761 247.667C66.7881 247.395 66.4041 247.115 65.9241 246.827C65.4601 246.523 64.9641 246.235 64.4361 245.963C63.9241 245.691 63.4281 245.451 62.9481 245.243ZM63.5481 257.075C63.9321 256.451 64.3481 255.715 64.7961 254.867C65.2441 254.019 65.7081 253.123 66.1881 252.179C66.6681 251.219 67.1081 250.267 67.5081 249.323L69.7641 251.051C69.4121 251.915 69.0281 252.795 68.6121 253.691C68.2121 254.571 67.8041 255.443 67.3881 256.307C66.9721 257.171 66.5561 257.995 66.1401 258.779L63.5481 257.075ZM97.5081 239.075H109.796V241.571H97.5081V239.075ZM96.7161 243.683H110.492V246.203H96.7161V243.683ZM96.7641 248.243H110.324V250.763H96.7641V248.243ZM102.14 236.483H104.996V245.315H102.14V236.483ZM105.188 246.083H108.02V256.019C108.02 256.707 107.932 257.243 107.756 257.627C107.58 258.027 107.26 258.339 106.796 258.563C106.332 258.771 105.764 258.899 105.092 258.947C104.436 259.011 103.66 259.043 102.764 259.043C102.7 258.643 102.58 258.179 102.404 257.651C102.228 257.139 102.044 256.699 101.852 256.331C102.444 256.347 103.02 256.363 103.58 256.379C104.14 256.379 104.516 256.379 104.708 256.379C104.884 256.379 105.004 256.355 105.068 256.307C105.148 256.243 105.188 256.123 105.188 255.947V246.083ZM97.7241 252.395L100.004 251.075C100.388 251.443 100.772 251.859 101.156 252.323C101.54 252.787 101.892 253.251 102.212 253.715C102.532 254.179 102.78 254.603 102.956 254.987L100.46 256.451C100.332 256.067 100.116 255.643 99.8121 255.179C99.5081 254.699 99.1721 254.219 98.8041 253.739C98.4521 253.243 98.0921 252.795 97.7241 252.395ZM90.1161 237.995H96.2841V254.411H90.1161V251.843H93.6201V240.563H90.1161V237.995ZM90.2601 244.811H94.9161V247.331H90.2601V244.811ZM88.7481 237.995H91.4121V256.547H88.7481V237.995ZM120.908 251.171H127.46V253.211H120.908V251.171ZM120.74 247.595H128.828V256.835H120.74V254.699H126.116V249.731H120.74V247.595ZM119.54 247.595H122.156V258.059H119.54V247.595ZM115.532 240.779H121.532V242.723H115.532V240.779ZM126.668 240.779H132.716V242.723H126.668V240.779ZM131.54 237.443H134.444V255.659C134.444 256.427 134.356 257.035 134.18 257.483C134.004 257.931 133.676 258.275 133.196 258.515C132.7 258.755 132.092 258.907 131.372 258.971C130.668 259.035 129.796 259.067 128.756 259.067C128.724 258.779 128.66 258.459 128.564 258.107C128.468 257.755 128.356 257.395 128.228 257.027C128.1 256.675 127.964 256.371 127.82 256.115C128.252 256.147 128.676 256.171 129.092 256.187C129.524 256.187 129.908 256.187 130.244 256.187C130.596 256.171 130.836 256.163 130.964 256.163C131.188 256.163 131.34 256.123 131.42 256.043C131.5 255.963 131.54 255.819 131.54 255.611V237.443ZM115.748 237.443H123.356V246.155H115.748V244.091H120.644V239.531H115.748V237.443ZM133.076 237.443V239.531H127.7V244.139H133.076V246.203H124.964V237.443H133.076ZM114.092 237.443H116.948V259.067H114.092V237.443ZM138.716 238.115H159.644V241.067H138.716V238.115ZM150.308 246.179L152.54 244.307C153.18 244.771 153.868 245.283 154.604 245.843C155.356 246.387 156.1 246.955 156.836 247.547C157.588 248.139 158.284 248.723 158.924 249.299C159.564 249.859 160.108 250.371 160.556 250.835L158.108 253.067C157.708 252.587 157.196 252.059 156.572 251.483C155.964 250.891 155.3 250.283 154.58 249.659C153.876 249.035 153.148 248.427 152.396 247.835C151.66 247.243 150.964 246.691 150.308 246.179ZM149.348 239.219L152.54 240.347C151.628 242.027 150.54 243.667 149.276 245.267C148.028 246.867 146.62 248.347 145.052 249.707C143.484 251.051 141.78 252.203 139.94 253.163C139.796 252.907 139.604 252.619 139.364 252.299C139.124 251.979 138.876 251.667 138.62 251.363C138.38 251.043 138.156 250.771 137.948 250.547C139.244 249.955 140.468 249.235 141.62 248.387C142.772 247.523 143.836 246.587 144.812 245.579C145.804 244.571 146.676 243.531 147.428 242.459C148.196 241.371 148.836 240.291 149.348 239.219ZM147.596 245.027L150.74 241.883V259.019H147.596V245.027ZM167.468 243.755H180.74V246.515H167.468V243.755ZM174.116 249.515H182.204V252.227H174.116V249.515ZM172.604 245.363H175.604V256.955L172.604 256.595V245.363ZM166.868 247.835L169.868 248.147C169.548 250.595 169.004 252.755 168.236 254.627C167.468 256.499 166.396 258.027 165.02 259.211C164.86 259.035 164.636 258.819 164.348 258.563C164.06 258.307 163.756 258.059 163.436 257.819C163.132 257.579 162.868 257.387 162.644 257.243C163.94 256.283 164.916 254.995 165.572 253.379C166.228 251.747 166.66 249.899 166.868 247.835ZM169.196 250.859C169.564 251.947 170.044 252.835 170.636 253.523C171.244 254.195 171.94 254.707 172.724 255.059C173.524 255.395 174.396 255.627 175.34 255.755C176.284 255.883 177.284 255.947 178.34 255.947C178.596 255.947 178.94 255.947 179.372 255.947C179.82 255.947 180.308 255.947 180.836 255.947C181.38 255.947 181.932 255.947 182.492 255.947C183.052 255.931 183.572 255.923 184.052 255.923C184.532 255.907 184.932 255.891 185.252 255.875C185.108 256.115 184.964 256.411 184.82 256.763C184.692 257.099 184.572 257.451 184.46 257.819C184.348 258.187 184.268 258.523 184.22 258.827H182.996H178.196C176.804 258.827 175.524 258.731 174.356 258.539C173.188 258.347 172.132 257.995 171.188 257.483C170.26 256.987 169.428 256.267 168.692 255.323C167.972 254.379 167.356 253.147 166.844 251.627L169.196 250.859ZM172.556 236.555H175.628V240.923H172.556V236.555ZM163.82 238.979H184.436V245.003H181.484V241.691H166.652V245.003H163.82V238.979ZM199.7 247.859H209.516V258.947H206.756V250.475H202.292V259.043H199.7V247.859ZM202.892 236.555H205.676V248.579H202.892V236.555ZM204.548 241.499H210.332V244.163H204.548V241.499ZM201.068 255.491H208.052V258.107H201.068V255.491ZM190.796 239.171V244.427H196.628V239.171H190.796ZM188.66 237.251H198.86V246.347H188.66V237.251ZM190.748 240.203L191.948 239.867C192.14 240.411 192.308 241.003 192.452 241.643C192.596 242.283 192.684 242.835 192.716 243.299L191.444 243.707C191.428 243.243 191.356 242.683 191.228 242.027C191.1 241.371 190.94 240.763 190.748 240.203ZM191.348 253.979L193.1 253.763C193.244 254.419 193.356 255.139 193.436 255.923C193.532 256.707 193.588 257.387 193.604 257.963L191.756 258.203C191.772 257.627 191.74 256.947 191.66 256.163C191.58 255.363 191.476 254.635 191.348 253.979ZM193.748 253.859L195.452 253.547C195.692 254.187 195.908 254.875 196.1 255.611C196.292 256.331 196.428 256.971 196.508 257.531L194.708 257.891C194.66 257.347 194.54 256.699 194.348 255.947C194.172 255.195 193.972 254.499 193.748 253.859ZM196.076 253.667L197.78 253.019C198.18 253.595 198.556 254.235 198.908 254.939C199.26 255.643 199.508 256.259 199.652 256.787L197.828 257.531C197.7 256.987 197.468 256.355 197.132 255.635C196.812 254.915 196.46 254.259 196.076 253.667ZM189.236 253.835L191.18 254.387C191.036 255.251 190.836 256.107 190.58 256.955C190.34 257.803 189.964 258.507 189.452 259.067L187.58 258.107C188.028 257.595 188.388 256.955 188.66 256.187C188.932 255.403 189.124 254.619 189.236 253.835ZM195.452 239.843L196.892 240.323C196.668 240.899 196.436 241.507 196.196 242.147C195.972 242.787 195.764 243.323 195.572 243.755L194.492 243.347C194.62 243.011 194.74 242.643 194.852 242.243C194.98 241.827 195.1 241.411 195.212 240.995C195.324 240.563 195.404 240.179 195.452 239.843ZM188.108 250.835C189.052 250.819 190.124 250.795 191.324 250.763C192.54 250.715 193.82 250.667 195.164 250.619C196.508 250.571 197.852 250.515 199.196 250.451L199.148 252.707C197.852 252.771 196.54 252.843 195.212 252.923C193.9 252.987 192.644 253.051 191.444 253.115C190.26 253.163 189.172 253.211 188.18 253.259L188.108 250.835ZM188.708 247.379H198.812V249.563H188.708V247.379ZM192.812 238.235H194.54V245.459H194.948V251.723H192.404V245.459H192.812V238.235ZM219.74 238.427H235.028V242.867H232.268V240.755H222.356V242.867H219.74V238.427ZM225.716 236.507H228.668V240.323H225.716V236.507ZM225.812 243.683H228.548V253.091H225.812V243.683ZM228.14 255.587L230.348 254.147C230.892 254.451 231.476 254.803 232.1 255.203C232.74 255.587 233.348 255.979 233.924 256.379C234.516 256.763 235.012 257.123 235.412 257.459L233.036 259.067C232.7 258.747 232.244 258.379 231.668 257.963C231.108 257.563 230.516 257.155 229.892 256.739C229.268 256.323 228.684 255.939 228.14 255.587ZM223.748 254.387L226.484 255.419C226.004 255.899 225.444 256.379 224.804 256.859C224.164 257.323 223.492 257.755 222.788 258.155C222.1 258.555 221.436 258.899 220.796 259.187C220.636 259.011 220.42 258.787 220.148 258.515C219.876 258.243 219.604 257.979 219.332 257.723C219.06 257.483 218.812 257.283 218.588 257.123C219.548 256.803 220.5 256.403 221.444 255.923C222.388 255.427 223.156 254.915 223.748 254.387ZM223.316 251.027V252.299H231.284V251.027H223.316ZM223.316 247.763V249.035H231.284V247.763H223.316ZM220.772 245.651H233.948V254.435H220.772V245.651ZM221.66 242.219H233.036V244.499H221.66V242.219ZM213.956 238.739L215.54 236.603C216.02 236.779 216.524 237.003 217.052 237.275C217.596 237.531 218.108 237.803 218.588 238.091C219.084 238.379 219.476 238.651 219.764 238.907L218.084 241.283C217.812 241.011 217.436 240.723 216.956 240.419C216.492 240.099 215.996 239.795 215.468 239.507C214.94 239.203 214.436 238.947 213.956 238.739ZM212.708 245.243L214.268 243.083C214.748 243.243 215.252 243.443 215.78 243.683C216.324 243.923 216.836 244.179 217.316 244.451C217.796 244.723 218.188 244.995 218.492 245.267L216.836 247.667C216.548 247.395 216.164 247.115 215.684 246.827C215.22 246.523 214.724 246.235 214.196 245.963C213.684 245.691 213.188 245.451 212.708 245.243ZM213.308 257.075C213.692 256.451 214.108 255.715 214.556 254.867C215.004 254.019 215.468 253.123 215.948 252.179C216.428 251.219 216.868 250.267 217.268 249.323L219.524 251.051C219.172 251.915 218.788 252.795 218.372 253.691C217.972 254.571 217.564 255.443 217.148 256.307C216.732 257.171 216.316 257.995 215.9 258.779L213.308 257.075ZM240.836 254.843H257.228V257.651H240.836V254.843ZM247.364 236.771H250.34V256.571H247.364V236.771ZM239.42 248.843H242.348V259.067H239.42V248.843ZM255.692 248.843H258.692V259.043H255.692V248.843ZM240.356 238.787H243.236V244.739H254.708V238.763H257.732V247.547H240.356V238.787Z" fill="white"/>
<path d="M59.9668 140.753H87.8068V146.553H59.9668V140.753ZM75.6848 150.207H88.1548V155.659H75.6848V150.207ZM64.8968 151.309H74.3508V156.587H64.8968V151.309ZM64.8968 161.517H74.3508V166.795H64.8968V161.517ZM71.9728 143.305H77.4828V184.079H71.9728V143.305ZM62.4608 142.899H67.8548V175.089L62.4608 175.901V142.899ZM58.8648 175.147C60.8368 174.799 63.1761 174.354 65.8828 173.813C68.5894 173.271 71.3734 172.711 74.2348 172.131L74.7568 177.235C72.2048 177.892 69.6528 178.53 67.1008 179.149C64.5874 179.729 62.2288 180.289 60.0248 180.831L58.8648 175.147ZM86.8208 150.207H87.9808L89.0248 150.033L92.5048 151.077C91.8088 158.694 90.4941 165.248 88.5608 170.739C86.6274 176.191 84.1141 180.367 81.0208 183.267C80.7888 182.764 80.4408 182.203 79.9768 181.585C79.5128 180.927 79.0294 180.309 78.5268 179.729C78.0241 179.149 77.5601 178.704 77.1348 178.395C79.8801 175.881 82.0454 172.305 83.6308 167.665C85.2548 163.025 86.3181 157.592 86.8208 151.367V150.207ZM82.0648 156.935C82.6834 160.028 83.5341 163.005 84.6168 165.867C85.7381 168.728 87.0721 171.319 88.6188 173.639C90.1654 175.92 91.9248 177.776 93.8968 179.207C93.2394 179.709 92.5241 180.405 91.7508 181.295C91.0161 182.184 90.4168 182.996 89.9528 183.731C87.8261 181.991 85.9508 179.806 84.3268 177.177C82.7414 174.509 81.3688 171.551 80.2088 168.303C79.0874 165.016 78.1594 161.575 77.4248 157.979L82.0648 156.935ZM41.0008 144.523H60.3148V150.555H41.0008V144.523ZM39.6668 155.253H61.2428V161.401H39.6668V155.253ZM51.4988 166.679H60.8948V172.711H51.4988V166.679ZM48.4828 138.607H54.7468V159.197H48.4828V138.607ZM49.7008 159.255H55.7328V185.181H49.7008V159.255ZM46.8588 170.971C47.6708 174.025 48.7341 176.481 50.0488 178.337C51.4021 180.154 52.9874 181.546 54.8048 182.513C56.6221 183.479 58.7488 184.137 61.1848 184.485C63.6208 184.794 66.3661 184.949 69.4208 184.949C70.1554 184.949 71.1221 184.949 72.3208 184.949C73.5581 184.949 74.9308 184.949 76.4388 184.949C77.9468 184.949 79.5128 184.949 81.1368 184.949C82.7994 184.949 84.4234 184.929 86.0088 184.891C87.5941 184.852 89.0441 184.833 90.3588 184.833C91.6734 184.794 92.7368 184.755 93.5488 184.717C93.2008 185.219 92.8334 185.877 92.4468 186.689C92.0988 187.501 91.7894 188.332 91.5188 189.183C91.2481 190.072 91.0354 190.884 90.8808 191.619H86.8788H69.3628C65.5734 191.619 62.1901 191.367 59.2128 190.865C56.2741 190.401 53.7028 189.492 51.4988 188.139C49.2948 186.785 47.4001 184.852 45.8148 182.339C44.2681 179.825 42.9534 176.539 41.8708 172.479L46.8588 170.971ZM41.2908 164.707L46.9748 164.997C47.1294 168.09 47.1101 171.299 46.9168 174.625C46.7621 177.911 46.3368 181.14 45.6408 184.311C44.9448 187.443 43.8428 190.362 42.3348 193.069C42.0641 192.566 41.6581 192.044 41.1168 191.503C40.5754 190.961 40.0148 190.439 39.4348 189.937C38.8548 189.473 38.3521 189.144 37.9268 188.951C39.1254 186.631 39.9761 184.117 40.4788 181.411C40.9814 178.665 41.2714 175.862 41.3488 173.001C41.4648 170.139 41.4454 167.375 41.2908 164.707ZM119.997 161.169H153.289V167.781H119.997V161.169ZM121.853 147.365H151.491V153.977H121.853V147.365ZM132.467 139.129H139.485V192.953H132.467V139.129ZM131.829 165.229L137.281 166.911C136.121 170.043 134.69 173.059 132.989 175.959C131.287 178.82 129.373 181.411 127.247 183.731C125.12 186.012 122.819 187.945 120.345 189.531C119.997 188.989 119.552 188.39 119.011 187.733C118.469 187.037 117.889 186.36 117.271 185.703C116.691 185.045 116.149 184.485 115.647 184.021C117.967 182.783 120.171 181.179 122.259 179.207C124.347 177.235 126.203 175.05 127.827 172.653C129.489 170.255 130.823 167.781 131.829 165.229ZM140.065 165.055C141.031 167.452 142.23 169.849 143.661 172.247C145.13 174.605 146.754 176.79 148.533 178.801C150.311 180.811 152.148 182.513 154.043 183.905C153.54 184.33 152.96 184.891 152.303 185.587C151.645 186.244 151.007 186.94 150.389 187.675C149.809 188.371 149.306 189.028 148.881 189.647C146.947 187.907 145.111 185.819 143.371 183.383C141.631 180.947 140.045 178.298 138.615 175.437C137.184 172.575 135.947 169.656 134.903 166.679L140.065 165.055ZM104.511 143.653H118.431V178.511H104.511V171.725H112.167V150.381H104.511V143.653ZM100.915 143.653H107.295V183.151H100.915V143.653ZM183.217 145.219H210.709V151.077H183.217V145.219ZM175.619 155.949H213.145V161.807H175.619V155.949ZM182.347 139.187L188.843 140.695C187.837 143.633 186.523 146.475 184.899 149.221C183.313 151.927 181.67 154.209 179.969 156.065C179.505 155.717 178.905 155.33 178.171 154.905C177.475 154.479 176.759 154.073 176.025 153.687C175.29 153.3 174.652 152.991 174.111 152.759C175.928 151.135 177.552 149.105 178.983 146.669C180.413 144.233 181.535 141.739 182.347 139.187ZM191.105 138.607H198.007V159.893H191.105V138.607ZM173.705 161.227V182.629H166.919V167.665H160.191V161.227H173.705ZM173.705 179.613C174.903 181.507 176.585 182.899 178.751 183.789C180.916 184.678 183.507 185.181 186.523 185.297C188.224 185.374 190.235 185.432 192.555 185.471C194.913 185.471 197.388 185.451 199.979 185.413C202.569 185.374 205.102 185.297 207.577 185.181C210.09 185.065 212.313 184.929 214.247 184.775C214.015 185.316 213.744 186.012 213.435 186.863C213.125 187.713 212.835 188.583 212.565 189.473C212.333 190.362 212.159 191.155 212.043 191.851C210.303 191.967 208.311 192.044 206.069 192.083C203.826 192.16 201.525 192.199 199.167 192.199C196.808 192.237 194.527 192.237 192.323 192.199C190.119 192.16 188.147 192.102 186.407 192.025C182.849 191.87 179.814 191.309 177.301 190.343C174.787 189.415 172.564 187.829 170.631 185.587C169.355 186.669 168.04 187.791 166.687 188.951C165.372 190.111 163.922 191.309 162.337 192.547L158.915 185.297C160.268 184.485 161.679 183.595 163.149 182.629C164.618 181.662 166.029 180.657 167.383 179.613H173.705ZM160.249 144.175L165.411 139.999C166.609 140.772 167.827 141.681 169.065 142.725C170.302 143.73 171.462 144.774 172.545 145.857C173.627 146.901 174.497 147.867 175.155 148.757L169.645 153.397C169.065 152.469 168.253 151.463 167.209 150.381C166.203 149.298 165.082 148.215 163.845 147.133C162.607 146.011 161.409 145.025 160.249 144.175ZM187.045 170.507V176.423H202.357V170.507H187.045ZM180.259 164.939H209.607V181.933H180.259V164.939ZM223.179 140.695H249.685V146.785H223.179V140.695ZM221.207 152.875H250.961V159.023H221.207V152.875ZM220.627 184.775H273.117V191.213H220.627V184.775ZM226.543 173.813H267.317V180.135H226.543V173.813ZM239.071 143.073H245.567V170.217H239.071V143.073ZM243.363 169.231H250.497V189.531H243.363V169.231ZM253.397 141.971H259.777V161.691H253.397V141.971ZM264.011 139.303H270.623V164.185C270.623 165.77 270.429 167.007 270.043 167.897C269.695 168.786 268.979 169.501 267.897 170.043C266.814 170.507 265.519 170.797 264.011 170.913C262.503 171.029 260.724 171.087 258.675 171.087C258.559 170.197 258.288 169.173 257.863 168.013C257.476 166.814 257.051 165.809 256.587 164.997C257.901 165.035 259.177 165.055 260.415 165.055C261.691 165.055 262.522 165.035 262.909 164.997C263.373 164.997 263.663 164.939 263.779 164.823C263.933 164.707 264.011 164.455 264.011 164.069V139.303ZM227.761 143.131H234.141V153.513C234.141 155.601 233.889 157.785 233.387 160.067C232.923 162.348 231.995 164.513 230.603 166.563C229.211 168.573 227.181 170.313 224.513 171.783C224.203 171.319 223.759 170.777 223.179 170.159C222.637 169.54 222.057 168.921 221.439 168.303C220.859 167.684 220.375 167.22 219.989 166.911C222.347 165.673 224.068 164.32 225.151 162.851C226.233 161.343 226.929 159.777 227.239 158.153C227.587 156.49 227.761 154.885 227.761 153.339V143.131ZM292.721 143.595H332.335V148.815H292.721V143.595ZM293.243 151.077H327.289V156.123H293.243V151.077ZM286.573 158.443H320.097V163.721H286.573V158.443ZM282.745 173.639H317.255V178.859H282.745V173.639ZM292.199 138.607L299.623 140.463C298.579 143.169 297.322 145.799 295.853 148.351C294.422 150.864 292.856 153.203 291.155 155.369C289.492 157.534 287.771 159.409 285.993 160.995C285.529 160.531 284.891 160.028 284.079 159.487C283.267 158.945 282.435 158.404 281.585 157.863C280.773 157.283 280.077 156.838 279.497 156.529C282.242 154.518 284.736 151.927 286.979 148.757C289.221 145.547 290.961 142.164 292.199 138.607ZM317.951 158.443H324.969C324.969 161.381 324.988 164.223 325.027 166.969C325.104 169.675 325.22 172.189 325.375 174.509C325.568 176.829 325.819 178.859 326.129 180.599C326.477 182.3 326.863 183.634 327.289 184.601C327.753 185.567 328.313 186.051 328.971 186.051C329.396 186.051 329.686 185.316 329.841 183.847C330.034 182.377 330.15 180.405 330.189 177.931C330.846 178.743 331.561 179.555 332.335 180.367C333.147 181.179 333.92 181.836 334.655 182.339C334.384 186.051 333.823 188.738 332.973 190.401C332.161 192.102 330.672 192.953 328.507 192.953C326.148 192.953 324.273 192.044 322.881 190.227C321.489 188.448 320.445 185.973 319.749 182.803C319.053 179.632 318.589 175.978 318.357 171.841C318.125 167.665 317.989 163.199 317.951 158.443ZM285.993 167.375L291.213 165.287C292.025 166.292 292.798 167.433 293.533 168.709C294.267 169.946 294.789 171.048 295.099 172.015L289.531 174.277C289.299 173.31 288.835 172.189 288.139 170.913C287.443 169.598 286.727 168.419 285.993 167.375ZM299.797 181.817L304.089 178.163C305.519 178.936 307.047 179.845 308.671 180.889C310.333 181.894 311.938 182.899 313.485 183.905C315.031 184.91 316.288 185.819 317.255 186.631L312.673 190.807C311.745 189.917 310.546 188.951 309.077 187.907C307.607 186.824 306.061 185.761 304.437 184.717C302.813 183.634 301.266 182.667 299.797 181.817ZM297.187 164.881H303.683V192.953H297.187V164.881ZM309.425 165.113L315.573 166.969C314.567 168.283 313.562 169.579 312.557 170.855C311.551 172.092 310.643 173.175 309.831 174.103L305.423 172.363C305.887 171.705 306.37 170.951 306.873 170.101C307.375 169.211 307.859 168.341 308.323 167.491C308.787 166.601 309.154 165.809 309.425 165.113ZM295.795 175.901L300.899 177.873C299.739 179.806 298.308 181.701 296.607 183.557C294.905 185.374 293.069 187.037 291.097 188.545C289.125 190.053 287.133 191.329 285.123 192.373C284.813 191.831 284.407 191.232 283.905 190.575C283.402 189.956 282.88 189.337 282.339 188.719C281.797 188.1 281.275 187.597 280.773 187.211C282.706 186.476 284.62 185.509 286.515 184.311C288.409 183.112 290.169 181.797 291.793 180.367C293.417 178.897 294.751 177.409 295.795 175.901ZM340.861 143.015H360.407V149.453H340.861V143.015ZM359.769 148.409H394.975V154.731H359.769V148.409ZM341.267 159.255H359.711V165.635H341.267V159.255ZM339.701 179.497C341.441 179.071 343.432 178.549 345.675 177.931C347.917 177.312 350.295 176.655 352.809 175.959C355.322 175.224 357.835 174.489 360.349 173.755L361.277 179.671C357.874 180.792 354.433 181.913 350.953 183.035C347.511 184.156 344.36 185.161 341.499 186.051L339.701 179.497ZM373.515 138.549H380.185V185.239C380.185 186.94 379.972 188.293 379.547 189.299C379.16 190.304 378.464 191.077 377.459 191.619C376.453 192.199 375.197 192.585 373.689 192.779C372.181 192.972 370.344 193.069 368.179 193.069C368.101 192.411 367.927 191.677 367.657 190.865C367.386 190.091 367.077 189.299 366.729 188.487C366.419 187.675 366.11 186.959 365.801 186.341C367.193 186.379 368.507 186.418 369.745 186.457C370.982 186.457 371.813 186.457 372.239 186.457C372.664 186.418 372.973 186.321 373.167 186.167C373.399 185.973 373.515 185.664 373.515 185.239V138.549ZM355.883 180.831C357.739 179.864 360.001 178.607 362.669 177.061C365.337 175.514 368.005 173.929 370.673 172.305L372.819 177.989C370.615 179.574 368.333 181.159 365.975 182.745C363.655 184.33 361.47 185.761 359.421 187.037L355.883 180.831ZM360.233 159.777L365.627 157.399C366.4 158.404 367.154 159.525 367.889 160.763C368.623 161.961 369.3 163.16 369.919 164.359C370.576 165.519 371.059 166.563 371.369 167.491L365.627 170.159C365.356 169.231 364.931 168.167 364.351 166.969C363.771 165.77 363.113 164.533 362.379 163.257C361.683 161.981 360.967 160.821 360.233 159.777ZM388.711 156.761L394.801 159.893C393.95 161.091 393.061 162.309 392.133 163.547C391.243 164.745 390.354 165.905 389.465 167.027C388.614 168.148 387.802 169.134 387.029 169.985L382.099 167.201C382.833 166.273 383.607 165.209 384.419 164.011C385.269 162.812 386.062 161.575 386.797 160.299C387.57 159.023 388.208 157.843 388.711 156.761ZM382.331 142.435L386.159 138.839C387.048 139.419 387.976 140.057 388.943 140.753C389.948 141.449 390.895 142.164 391.785 142.899C392.674 143.633 393.389 144.31 393.931 144.929L389.871 148.931C389.097 148.003 387.976 146.92 386.507 145.683C385.076 144.445 383.684 143.363 382.331 142.435ZM347.357 145.741H354.085V179.439L347.357 180.483V145.741ZM380.011 155.485C380.591 158.81 381.287 161.826 382.099 164.533C382.911 167.239 383.916 169.714 385.115 171.957C386.352 174.161 387.86 176.21 389.639 178.105C391.417 179.961 393.525 181.72 395.961 183.383C395.149 184.001 394.337 184.813 393.525 185.819C392.713 186.824 392.094 187.791 391.669 188.719C388.962 186.669 386.642 184.523 384.709 182.281C382.775 180.038 381.151 177.641 379.837 175.089C378.522 172.498 377.42 169.675 376.531 166.621C375.641 163.566 374.868 160.202 374.211 156.529L380.011 155.485Z" fill="white"/>
<ellipse cx="80.3207" cy="65.9062" rx="54.1017" ry="56" fill="#6EE292"/>
<path d="M79.4387 103.901C73.7806 103.901 68.7261 103.001 64.2753 101.202C59.8483 99.3788 56.3682 96.9167 53.835 93.8153C51.3255 90.6903 50.0708 87.1629 50.0708 83.233C50.0708 80.2263 50.7929 77.4683 52.237 74.9588C53.6811 72.4493 55.6342 70.366 58.0964 68.7088C60.5822 67.0279 63.3521 65.9508 66.406 65.4773V64.9091C62.4051 64.1752 59.1262 62.3168 56.5694 59.3338C54.0362 56.3509 52.7697 52.8589 52.7697 48.858C52.7697 45.0701 53.9179 41.6965 56.2143 38.7372C58.5343 35.7779 61.6949 33.446 65.6958 31.7415C69.7204 30.0369 74.3014 29.1847 79.4387 29.1847C84.576 29.1847 89.1451 30.0369 93.1461 31.7415C97.1707 33.446 100.331 35.7779 102.628 38.7372C104.948 41.6965 106.108 45.0701 106.108 48.858C106.108 52.8826 104.817 56.3864 102.237 59.3693C99.6802 62.3286 96.425 64.1752 92.4714 64.9091V65.4773C95.5017 65.9508 98.2479 67.0279 100.71 68.7088C103.196 70.366 105.161 72.4493 106.605 74.9588C108.073 77.4683 108.807 80.2263 108.807 83.233C108.807 87.1629 107.54 90.6903 105.007 93.8153C102.474 96.9167 98.9936 99.3788 94.5665 101.202C90.1631 103.001 85.1205 103.901 79.4387 103.901ZM79.4387 91.4361C81.5931 91.4361 83.487 91.0336 85.1205 90.2287C86.754 89.4001 88.0325 88.2519 88.9557 86.7841C89.9027 85.3163 90.3762 83.6591 90.3762 81.8125C90.3762 79.9186 89.9027 78.2377 88.9557 76.7699C88.0088 75.3021 86.7067 74.1539 85.0495 73.3253C83.416 72.473 81.5457 72.0469 79.4387 72.0469C77.3554 72.0469 75.4851 72.473 73.8279 73.3253C72.1707 74.1539 70.8686 75.3021 69.9217 76.7699C68.9747 78.2377 68.5012 79.9186 68.5012 81.8125C68.5012 83.6591 68.9628 85.3163 69.8861 86.7841C70.8331 88.2282 72.1234 89.3646 73.7569 90.1932C75.4141 91.0218 77.308 91.4361 79.4387 91.4361ZM79.4387 59.6534C81.2853 59.6534 82.9188 59.2746 84.3393 58.517C85.7834 57.7595 86.9079 56.706 87.7128 55.3565C88.5414 54.0071 88.9557 52.4801 88.9557 50.7756C88.9557 49.071 88.5414 47.5677 87.7128 46.2656C86.9079 44.9635 85.7952 43.9455 84.3748 43.2116C82.9543 42.4541 81.309 42.0753 79.4387 42.0753C77.5921 42.0753 75.9467 42.4541 74.5026 43.2116C73.0585 43.9455 71.934 44.9635 71.129 46.2656C70.3241 47.5677 69.9217 49.071 69.9217 50.7756C69.9217 52.4801 70.3241 54.0071 71.129 55.3565C71.9576 56.6823 73.094 57.7358 74.5381 58.517C75.9823 59.2746 77.6158 59.6534 79.4387 59.6534Z" fill="white"/>
</svg>
