<svg width="619" height="319" viewBox="0 0 619 319" fill="none" xmlns="http://www.w3.org/2000/svg">
<path d="M48.9985 35.7778H588.999C605.567 35.7778 618.999 49.2093 618.999 65.7778V318.149H78.9985C62.43 318.149 48.9985 304.718 48.9985 288.149V35.7778Z" fill="#FF5F17"/>
<line x1="396.795" y1="225.649" x2="87.6426" y2="225.649" stroke="white"/>
<path d="M196.992 93.2854H213.024V96.6774H196.992V93.2854ZM196.576 108.485H213.12V111.877H196.576V108.485ZM194.88 99.8774H215.296V113.061H211.328V103.237H198.656V113.061H194.88V99.8774ZM204.864 86.7574C203.989 88.0161 202.88 89.2961 201.536 90.5974C200.213 91.8987 198.731 93.1467 197.088 94.3414C195.467 95.5361 193.781 96.6134 192.032 97.5734C191.861 97.2747 191.637 96.9334 191.36 96.5494C191.104 96.1654 190.816 95.7921 190.496 95.4294C190.197 95.0454 189.899 94.7254 189.6 94.4694C191.456 93.5521 193.227 92.4534 194.912 91.1734C196.619 89.8934 198.144 88.5387 199.488 87.1094C200.832 85.6801 201.899 84.3147 202.688 83.0134H206.688C207.541 84.2294 208.501 85.3921 209.568 86.5014C210.635 87.6107 211.755 88.6454 212.928 89.6054C214.123 90.5654 215.36 91.4187 216.64 92.1654C217.92 92.9121 219.189 93.5414 220.448 94.0534C219.979 94.5441 219.531 95.0987 219.104 95.7174C218.677 96.3147 218.293 96.9121 217.952 97.5094C216.715 96.8694 215.467 96.1334 214.208 95.3014C212.949 94.4481 211.733 93.5521 210.56 92.6134C209.408 91.6534 208.341 90.6827 207.36 89.7014C206.379 88.6987 205.547 87.7174 204.864 86.7574ZM224.736 84.1654H228.32V104.645H224.736V84.1654ZM226.784 84.1654H234.976V103.141H226.784V99.7494H231.424V87.5574H226.784V84.1654ZM226.688 91.7174H233.312V95.0774H226.688V91.7174ZM235.904 84.1014H250.016V87.4294H235.904V84.1014ZM248.8 84.1014H252.448C252.448 84.1014 252.448 84.2614 252.448 84.5814C252.448 84.8801 252.437 85.1467 252.416 85.3814C252.331 86.8321 252.235 88.0481 252.128 89.0294C252.021 89.9894 251.883 90.7574 251.712 91.3334C251.563 91.8881 251.36 92.3147 251.104 92.6134C250.805 92.9547 250.475 93.2001 250.112 93.3494C249.749 93.4774 249.344 93.5627 248.896 93.6054C248.491 93.6481 247.957 93.6801 247.296 93.7014C246.635 93.7227 245.931 93.7227 245.184 93.7014C245.163 93.2107 245.067 92.6774 244.896 92.1014C244.725 91.5254 244.512 91.0241 244.256 90.5974C244.875 90.6614 245.429 90.7041 245.92 90.7254C246.432 90.7467 246.816 90.7574 247.072 90.7574C247.285 90.7574 247.456 90.7361 247.584 90.6934C247.733 90.6507 247.872 90.5654 248 90.4374C248.149 90.2881 248.267 90.0107 248.352 89.6054C248.459 89.1787 248.544 88.5601 248.608 87.7494C248.693 86.9174 248.757 85.8507 248.8 84.5494V84.1014ZM240.8 85.1254H244.544C244.437 86.3201 244.245 87.4294 243.968 88.4534C243.712 89.4561 243.307 90.3734 242.752 91.2054C242.197 92.0161 241.44 92.7414 240.48 93.3814C239.541 94.0001 238.315 94.5334 236.8 94.9814C236.629 94.5334 236.341 94.0321 235.936 93.4774C235.552 92.9227 235.179 92.4747 234.816 92.1334C236.053 91.8134 237.045 91.4401 237.792 91.0134C238.539 90.5654 239.115 90.0534 239.52 89.4774C239.947 88.8801 240.245 88.2294 240.416 87.5254C240.587 86.8001 240.715 86.0001 240.8 85.1254ZM240.48 97.7334V101.189H247.68V97.7334H240.48ZM236.864 94.6934H251.456V104.261H236.864V94.6934ZM232.576 106.181L236.16 105.733C236.373 106.779 236.555 107.931 236.704 109.189C236.853 110.427 236.939 111.472 236.96 112.325L233.184 112.901C233.184 112.325 233.163 111.653 233.12 110.885C233.077 110.117 233.013 109.317 232.928 108.485C232.843 107.653 232.725 106.885 232.576 106.181ZM239.392 106.085L242.976 105.445C243.253 106.128 243.52 106.864 243.776 107.653C244.032 108.443 244.256 109.221 244.448 109.989C244.64 110.736 244.779 111.397 244.864 111.973L241.024 112.773C240.981 112.219 240.864 111.557 240.672 110.789C240.501 110.021 240.299 109.232 240.064 108.421C239.851 107.589 239.627 106.811 239.392 106.085ZM246.016 106.085L249.472 104.709C249.92 105.392 250.389 106.139 250.88 106.949C251.371 107.76 251.819 108.56 252.224 109.349C252.651 110.117 252.981 110.811 253.216 111.429L249.504 113.029C249.291 112.411 248.992 111.696 248.608 110.885C248.224 110.096 247.797 109.275 247.328 108.421C246.88 107.568 246.443 106.789 246.016 106.085ZM227.232 104.965L230.944 105.989C230.432 107.205 229.813 108.475 229.088 109.797C228.363 111.099 227.669 112.229 227.008 113.189L223.296 111.589C223.744 111.056 224.203 110.427 224.672 109.701C225.163 108.955 225.632 108.176 226.08 107.365C226.528 106.555 226.912 105.755 227.232 104.965ZM256.576 99.2054C257.621 98.9921 258.795 98.7361 260.096 98.4374C261.419 98.1174 262.805 97.7761 264.256 97.4134C265.728 97.0507 267.179 96.6987 268.608 96.3574L269.088 100.005C267.125 100.539 265.131 101.072 263.104 101.605C261.099 102.139 259.275 102.619 257.632 103.045L256.576 99.2054ZM256.928 89.0614H268.576V92.6774H256.928V89.0614ZM261.056 82.9494H264.96V108.581C264.96 109.52 264.853 110.256 264.64 110.789C264.427 111.323 264.043 111.739 263.488 112.037C262.933 112.336 262.261 112.528 261.472 112.613C260.683 112.699 259.701 112.741 258.528 112.741C258.464 112.229 258.325 111.621 258.112 110.917C257.899 110.235 257.664 109.637 257.408 109.125C258.027 109.147 258.635 109.168 259.232 109.189C259.829 109.189 260.235 109.189 260.448 109.189C260.853 109.189 261.056 108.987 261.056 108.581V82.9494ZM269.088 85.3814H286.528V89.2214H269.088V85.3814ZM277.248 86.7894H281.376V108.005C281.376 109.115 281.227 109.979 280.928 110.597C280.651 111.237 280.149 111.728 279.424 112.069C278.699 112.411 277.792 112.624 276.704 112.709C275.616 112.795 274.325 112.837 272.832 112.837C272.768 112.432 272.651 111.973 272.48 111.461C272.309 110.949 272.117 110.437 271.904 109.925C271.712 109.413 271.509 108.987 271.296 108.645C271.957 108.667 272.629 108.688 273.312 108.709C274.016 108.731 274.645 108.741 275.2 108.741C275.755 108.741 276.139 108.741 276.352 108.741C276.672 108.741 276.896 108.688 277.024 108.581C277.173 108.453 277.248 108.24 277.248 107.941V86.7894ZM290.272 94.2774H319.424V98.0854H290.272V94.2774ZM304.544 86.8854H315.936V90.5654H304.544V86.8854ZM302.048 82.9494H306.144V96.1014H302.048V82.9494ZM302.048 96.7094H306.144V112.997H302.048V96.7094ZM304.96 102.821L306.912 99.7494C307.723 99.9841 308.608 100.261 309.568 100.581C310.528 100.88 311.499 101.211 312.48 101.573C313.461 101.915 314.389 102.256 315.264 102.597C316.139 102.939 316.875 103.259 317.472 103.557L315.424 107.045C314.848 106.725 314.133 106.384 313.28 106.021C312.448 105.659 311.552 105.285 310.592 104.901C309.632 104.517 308.661 104.144 307.68 103.781C306.72 103.419 305.813 103.099 304.96 102.821ZM340.379 95.0774H360.827V98.5334H340.379V95.0774ZM341.499 88.6134H359.739V92.0054H341.499V88.6134ZM348.251 90.2774H352.091V95.3974C352.091 96.4214 351.963 97.4881 351.707 98.5974C351.472 99.7067 351.024 100.816 350.363 101.925C349.723 103.013 348.795 104.069 347.579 105.093C346.384 106.096 344.838 107.013 342.939 107.845C342.768 107.568 342.534 107.259 342.235 106.917C341.936 106.576 341.627 106.235 341.307 105.893C340.987 105.552 340.678 105.275 340.379 105.061C342.192 104.4 343.622 103.664 344.667 102.853C345.734 102.043 346.512 101.2 347.003 100.325C347.515 99.4507 347.846 98.5974 347.995 97.7654C348.166 96.9121 348.251 96.1121 348.251 95.3654V90.2774ZM352.667 97.5094C353.328 99.2801 354.331 100.784 355.675 102.021C357.04 103.237 358.79 104.112 360.923 104.645C360.646 104.901 360.347 105.221 360.027 105.605C359.728 105.989 359.44 106.384 359.163 106.789C358.907 107.173 358.683 107.536 358.491 107.877C356.144 107.109 354.246 105.904 352.795 104.261C351.344 102.619 350.224 100.603 349.435 98.2134L352.667 97.5094ZM339.099 95.4294V107.237H335.355V98.9814H331.643V95.4294H339.099ZM339.099 105.573C339.76 106.619 340.688 107.387 341.883 107.877C343.078 108.368 344.507 108.645 346.171 108.709C347.11 108.752 348.219 108.784 349.499 108.805C350.8 108.805 352.166 108.795 353.595 108.773C355.024 108.752 356.422 108.709 357.787 108.645C359.174 108.581 360.4 108.507 361.467 108.421C361.339 108.72 361.19 109.104 361.019 109.573C360.848 110.043 360.688 110.523 360.539 111.013C360.411 111.504 360.315 111.941 360.251 112.325C359.291 112.389 358.192 112.432 356.955 112.453C355.718 112.496 354.448 112.517 353.147 112.517C351.846 112.539 350.587 112.539 349.371 112.517C348.155 112.496 347.067 112.464 346.107 112.421C344.144 112.336 342.47 112.027 341.083 111.493C339.696 110.981 338.47 110.107 337.403 108.869C336.699 109.467 335.974 110.085 335.227 110.725C334.502 111.365 333.702 112.027 332.827 112.709L330.939 108.709C331.686 108.261 332.464 107.771 333.275 107.237C334.086 106.704 334.864 106.149 335.611 105.573H339.099ZM331.675 86.0214L334.523 83.7174C335.184 84.1441 335.856 84.6454 336.539 85.2214C337.222 85.7761 337.862 86.3521 338.459 86.9494C339.056 87.5254 339.536 88.0587 339.899 88.5494L336.859 91.1094C336.539 90.5974 336.091 90.0427 335.515 89.4454C334.96 88.8481 334.342 88.2507 333.659 87.6534C332.976 87.0347 332.315 86.4907 331.675 86.0214ZM354.875 82.9494L358.779 84.1654C358.203 85.0827 357.606 85.9894 356.987 86.8854C356.39 87.7601 355.835 88.5067 355.323 89.1254L352.187 88.0374C352.507 87.5467 352.838 87.0134 353.179 86.4374C353.52 85.8401 353.84 85.2427 354.139 84.6454C354.438 84.0267 354.683 83.4614 354.875 82.9494ZM342.331 84.3574L345.563 83.0134C346.16 83.7387 346.726 84.5601 347.259 85.4774C347.792 86.3947 348.166 87.2054 348.379 87.9094L344.923 89.3814C344.752 88.6987 344.411 87.8881 343.899 86.9494C343.408 85.9894 342.886 85.1254 342.331 84.3574Z" fill="white"/>
<path d="M97.6117 246.221H105.868V248.573H97.6117V246.221ZM93.4837 260.141C94.2037 260.029 95.0357 259.893 95.9797 259.733C96.9397 259.573 97.9557 259.405 99.0277 259.229C100.1 259.037 101.164 258.845 102.22 258.653L102.46 261.149C101.068 261.469 99.6677 261.781 98.2597 262.085C96.8517 262.405 95.5717 262.685 94.4197 262.925L93.4837 260.141ZM95.9797 241.829H98.7637V260.789H95.9797V241.829ZM97.6117 241.829H107.188V253.061H97.6117V250.589H104.332V244.301H97.6117V241.829ZM102.604 251.405C102.908 252.845 103.324 254.181 103.852 255.413C104.38 256.629 105.052 257.701 105.868 258.629C106.684 259.557 107.684 260.277 108.868 260.789C108.66 260.981 108.436 261.213 108.196 261.485C107.956 261.773 107.724 262.069 107.5 262.373C107.292 262.693 107.124 262.981 106.996 263.237C105.7 262.549 104.612 261.653 103.732 260.549C102.868 259.429 102.156 258.133 101.596 256.661C101.036 255.189 100.58 253.573 100.228 251.813L102.604 251.405ZM106.084 253.229L108.34 254.789C107.684 255.429 106.988 256.061 106.252 256.685C105.532 257.293 104.868 257.813 104.26 258.245L102.484 256.877C102.868 256.557 103.276 256.189 103.708 255.773C104.156 255.357 104.588 254.925 105.004 254.477C105.42 254.029 105.78 253.613 106.084 253.229ZM87.2437 241.781H93.2197V244.373H89.9317V263.309H87.2437V241.781ZM92.4277 241.781H92.9317L93.3397 241.685L95.3077 242.813C95.0837 243.517 94.8437 244.261 94.5877 245.045C94.3317 245.829 94.0757 246.605 93.8197 247.373C93.5637 248.141 93.3077 248.837 93.0517 249.461C93.8357 250.389 94.3397 251.269 94.5637 252.101C94.8037 252.917 94.9237 253.677 94.9237 254.381C94.9237 255.181 94.8357 255.837 94.6597 256.349C94.4837 256.861 94.1957 257.261 93.7957 257.549C93.6037 257.693 93.3797 257.805 93.1237 257.885C92.8837 257.965 92.6357 258.029 92.3797 258.077C92.1557 258.109 91.8917 258.125 91.5877 258.125C91.2997 258.125 91.0037 258.125 90.6997 258.125C90.6837 257.757 90.6197 257.325 90.5077 256.829C90.4117 256.333 90.2677 255.909 90.0757 255.557C90.2997 255.573 90.4997 255.581 90.6757 255.581C90.8677 255.581 91.0357 255.581 91.1797 255.581C91.3077 255.581 91.4277 255.565 91.5397 255.533C91.6677 255.485 91.7877 255.429 91.8997 255.365C92.0437 255.253 92.1477 255.085 92.2117 254.861C92.2917 254.621 92.3237 254.333 92.3077 253.997C92.3077 253.437 92.1877 252.797 91.9477 252.077C91.7237 251.341 91.2517 250.573 90.5317 249.773C90.7077 249.229 90.8837 248.629 91.0597 247.973C91.2517 247.317 91.4277 246.661 91.5877 246.005C91.7637 245.333 91.9237 244.709 92.0677 244.133C92.2277 243.541 92.3477 243.053 92.4277 242.669V241.781ZM117.34 245.165V245.981H127.324V245.165H117.34ZM117.34 242.957V243.773H127.324V242.957H117.34ZM114.58 241.493H130.228V247.445H114.58V241.493ZM116.836 254.741V255.581H127.996V254.741H116.836ZM116.836 252.461V253.301H127.996V252.461H116.836ZM114.148 250.949H130.828V257.117H114.148V250.949ZM121.012 251.453H123.796V261.749H121.012V251.453ZM111.532 248.165H133.396V250.229H111.532V248.165ZM113.644 257.909H131.284V259.733H113.644V257.909ZM111.484 260.621H133.444V262.709H111.484V260.621ZM149.473 261.388C148.2 261.388 147.069 261.158 146.081 260.698C145.092 260.237 144.311 259.604 143.737 258.797C143.169 257.99 142.873 257.064 142.851 256.019H146.941C146.976 256.661 147.237 257.178 147.726 257.57C148.214 257.956 148.797 258.149 149.473 258.149C150.001 258.149 150.47 258.033 150.879 257.8C151.288 257.567 151.609 257.24 151.842 256.82C152.075 256.394 152.189 255.905 152.183 255.354C152.189 254.791 152.072 254.3 151.834 253.88C151.601 253.459 151.277 253.132 150.862 252.899C150.453 252.661 149.981 252.541 149.447 252.541C148.941 252.536 148.461 252.647 148.007 252.874C147.558 253.101 147.217 253.411 146.984 253.803L143.26 253.104L144.018 243.695H155.217V247.095H147.487L147.086 251.212H147.189C147.478 250.729 147.944 250.331 148.586 250.019C149.234 249.701 149.97 249.541 150.794 249.541C151.839 249.541 152.771 249.786 153.589 250.274C154.413 250.757 155.061 251.428 155.532 252.286C156.01 253.144 156.248 254.127 156.248 255.235C156.248 256.434 155.964 257.496 155.396 258.422C154.834 259.348 154.044 260.076 153.027 260.604C152.015 261.127 150.831 261.388 149.473 261.388ZM166.743 261.576C165.22 261.576 163.908 261.215 162.806 260.493C161.703 259.766 160.854 258.723 160.257 257.365C159.661 256.002 159.365 254.362 159.371 252.448C159.377 250.533 159.675 248.908 160.266 247.573C160.862 246.232 161.709 245.212 162.806 244.513C163.908 243.809 165.22 243.456 166.743 243.456C168.266 243.456 169.578 243.809 170.681 244.513C171.789 245.212 172.641 246.232 173.237 247.573C173.834 248.914 174.129 250.539 174.124 252.448C174.124 254.368 173.825 256.01 173.229 257.374C172.632 258.737 171.783 259.78 170.681 260.502C169.584 261.218 168.271 261.576 166.743 261.576ZM166.743 258.124C167.652 258.124 168.388 257.661 168.95 256.735C169.513 255.803 169.791 254.374 169.786 252.448C169.786 251.186 169.658 250.147 169.402 249.328C169.146 248.505 168.791 247.891 168.337 247.487C167.882 247.084 167.351 246.882 166.743 246.882C165.84 246.882 165.11 247.34 164.553 248.255C163.996 249.164 163.715 250.561 163.709 252.448C163.703 253.726 163.825 254.786 164.075 255.627C164.331 256.468 164.689 257.095 165.149 257.51C165.61 257.919 166.141 258.124 166.743 258.124ZM184.719 261.576C183.196 261.576 181.883 261.215 180.781 260.493C179.679 259.766 178.83 258.723 178.233 257.365C177.636 256.002 177.341 254.362 177.347 252.448C177.352 250.533 177.651 248.908 178.241 247.573C178.838 246.232 179.685 245.212 180.781 244.513C181.883 243.809 183.196 243.456 184.719 243.456C186.241 243.456 187.554 243.809 188.656 244.513C189.764 245.212 190.616 246.232 191.213 247.573C191.81 248.914 192.105 250.539 192.099 252.448C192.099 254.368 191.801 256.01 191.205 257.374C190.608 258.737 189.758 259.78 188.656 260.502C187.56 261.218 186.247 261.576 184.719 261.576ZM184.719 258.124C185.628 258.124 186.364 257.661 186.926 256.735C187.489 255.803 187.767 254.374 187.761 252.448C187.761 251.186 187.633 250.147 187.378 249.328C187.122 248.505 186.767 247.891 186.312 247.487C185.858 247.084 185.327 246.882 184.719 246.882C183.815 246.882 183.085 247.34 182.528 248.255C181.972 249.164 181.69 250.561 181.685 252.448C181.679 253.726 181.801 254.786 182.051 255.627C182.307 256.468 182.665 257.095 183.125 257.51C183.585 257.919 184.116 258.124 184.719 258.124ZM213.241 247.901H220.393V250.493H213.241V247.901ZM213.241 253.901H220.393V256.493H213.241V253.901ZM211.753 241.973H222.025V261.653H219.121V244.565H214.513V261.653H211.753V241.973ZM209.521 260.069H223.657V262.661H209.521V260.069ZM204.625 240.773L207.169 241.661C206.849 242.285 206.513 242.925 206.161 243.581C205.809 244.221 205.465 244.845 205.129 245.453C204.793 246.045 204.465 246.565 204.145 247.013L202.201 246.221C202.489 245.725 202.785 245.165 203.089 244.541C203.393 243.901 203.681 243.253 203.953 242.597C204.225 241.941 204.449 241.333 204.625 240.773ZM207.505 243.629L209.953 244.637C209.361 245.549 208.721 246.509 208.033 247.517C207.345 248.509 206.649 249.461 205.945 250.373C205.241 251.285 204.585 252.085 203.977 252.773L202.225 251.885C202.689 251.341 203.161 250.725 203.641 250.037C204.121 249.349 204.593 248.637 205.057 247.901C205.537 247.165 205.985 246.429 206.401 245.693C206.833 244.941 207.201 244.253 207.505 243.629ZM200.929 246.461L202.297 244.493C202.713 244.845 203.145 245.245 203.593 245.693C204.041 246.125 204.449 246.557 204.817 246.989C205.201 247.421 205.489 247.821 205.681 248.189L204.217 250.421C204.025 250.053 203.745 249.637 203.377 249.173C203.025 248.693 202.633 248.221 202.201 247.757C201.769 247.277 201.345 246.845 200.929 246.461ZM206.929 249.413L208.969 248.525C209.289 249.053 209.601 249.621 209.905 250.229C210.209 250.837 210.473 251.437 210.697 252.029C210.921 252.605 211.089 253.125 211.201 253.589L208.993 254.597C208.897 254.149 208.745 253.629 208.537 253.037C208.329 252.429 208.081 251.813 207.793 251.189C207.521 250.549 207.233 249.957 206.929 249.413ZM200.929 251.333C202.033 251.301 203.361 251.253 204.913 251.189C206.481 251.125 208.073 251.053 209.689 250.973L209.665 253.253C208.161 253.365 206.665 253.477 205.177 253.589C203.689 253.685 202.353 253.765 201.169 253.829L200.929 251.333ZM207.337 255.413L209.449 254.717C209.785 255.437 210.097 256.221 210.385 257.069C210.673 257.917 210.881 258.653 211.009 259.277L208.777 260.093C208.665 259.453 208.473 258.701 208.201 257.837C207.929 256.957 207.641 256.149 207.337 255.413ZM201.961 254.861L204.337 255.293C204.209 256.445 204.017 257.581 203.761 258.701C203.505 259.821 203.209 260.765 202.873 261.533C202.713 261.421 202.497 261.293 202.225 261.149C201.953 261.021 201.673 260.893 201.385 260.765C201.113 260.637 200.873 260.541 200.665 260.477C201.017 259.757 201.297 258.901 201.505 257.909C201.713 256.901 201.865 255.885 201.961 254.861ZM204.745 252.605H207.289V263.309H204.745V252.605Z" fill="white"/>
<path d="M85.9565 166.165H101.443V172.719H85.9565V166.165ZM93.9605 154.623H112.753V161.293H93.9605V154.623ZM115.363 157.175C116.561 161.854 118.224 166.204 120.351 170.225C122.477 174.208 125.145 177.727 128.355 180.781C131.564 183.797 135.353 186.137 139.723 187.799C139.22 188.225 138.64 188.805 137.983 189.539C137.364 190.274 136.765 191.047 136.185 191.859C135.643 192.633 135.199 193.348 134.851 194.005C130.249 191.879 126.325 189.114 123.077 185.711C119.829 182.27 117.103 178.268 114.899 173.705C112.733 169.104 110.935 164.039 109.505 158.509L115.363 157.175ZM131.313 159.205L137.693 163.961C136.069 165.431 134.348 166.919 132.531 168.427C130.713 169.897 128.915 171.308 127.137 172.661C125.358 174.015 123.676 175.213 122.091 176.257L117.219 172.197C118.765 171.115 120.389 169.839 122.091 168.369C123.792 166.9 125.455 165.373 127.079 163.787C128.703 162.202 130.114 160.675 131.313 159.205ZM108.577 154.623H116.059V189.249C116.059 191.105 115.827 192.555 115.363 193.599C114.899 194.682 114.048 195.513 112.811 196.093C111.612 196.635 110.123 196.963 108.345 197.079C106.566 197.195 104.439 197.253 101.965 197.253C101.81 196.248 101.501 195.069 101.037 193.715C100.573 192.362 100.089 191.221 99.5865 190.293C100.553 190.332 101.559 190.371 102.603 190.409C103.647 190.448 104.575 190.467 105.387 190.467C106.237 190.429 106.837 190.409 107.185 190.409C107.726 190.371 108.093 190.274 108.287 190.119C108.48 189.926 108.577 189.597 108.577 189.133V154.623ZM98.4845 148.765L102.023 143.081C103.685 143.429 105.503 143.874 107.475 144.415C109.447 144.957 111.419 145.556 113.391 146.213C115.363 146.871 117.219 147.547 118.959 148.243C120.737 148.901 122.226 149.558 123.425 150.215L119.713 156.653C118.553 155.996 117.122 155.3 115.421 154.565C113.758 153.831 111.941 153.096 109.969 152.361C108.035 151.627 106.083 150.95 104.111 150.331C102.139 149.713 100.263 149.191 98.4845 148.765ZM98.8325 166.165H100.225L101.443 165.875L106.083 167.847C105.155 171.907 103.898 175.6 102.313 178.925C100.727 182.251 98.8905 185.17 96.8025 187.683C94.7145 190.158 92.4912 192.207 90.1325 193.831C89.7459 193.329 89.2239 192.749 88.5665 192.091C87.9092 191.395 87.2132 190.738 86.4785 190.119C85.7439 189.462 85.0865 188.959 84.5065 188.611C86.7879 187.219 88.8759 185.479 90.7705 183.391C92.7039 181.303 94.3665 178.906 95.7585 176.199C97.1505 173.493 98.1752 170.593 98.8325 167.499V166.165ZM174.697 179.331V181.187H189.719V179.331H174.697ZM174.697 184.029V186.001H189.719V184.029H174.697ZM174.697 174.691V176.489H189.719V174.691H174.697ZM168.665 171.327H196.041V189.307H168.665V171.327ZM183.629 191.627L188.037 188.089C189.429 188.708 190.859 189.365 192.329 190.061C193.837 190.719 195.267 191.376 196.621 192.033C197.974 192.691 199.134 193.309 200.101 193.889L194.185 197.427C193.411 196.886 192.445 196.287 191.285 195.629C190.125 194.972 188.868 194.276 187.515 193.541C186.2 192.845 184.905 192.207 183.629 191.627ZM178.525 142.849H185.311V154.275H178.525V142.849ZM165.475 145.923H198.825V150.157H165.475V145.923ZM168.259 151.955H196.563V155.957H168.259V151.955ZM171.971 161.061V166.223H192.387V161.061H171.971ZM166.693 157.639H198.013V169.587H166.693V157.639ZM177.075 159.727H181.193C180.961 161.429 180.342 162.782 179.337 163.787C178.331 164.754 176.572 165.508 174.059 166.049C173.865 165.624 173.556 165.16 173.131 164.657C172.705 164.155 172.299 163.749 171.913 163.439C173.769 163.13 175.045 162.705 175.741 162.163C176.475 161.583 176.92 160.771 177.075 159.727ZM183.339 158.915H188.153V161.293C188.153 161.835 188.211 162.183 188.327 162.337C188.443 162.453 188.713 162.511 189.139 162.511C189.293 162.511 189.545 162.511 189.893 162.511C190.241 162.511 190.608 162.511 190.995 162.511C191.381 162.511 191.633 162.511 191.749 162.511C192.097 162.511 192.348 162.492 192.503 162.453C192.657 162.415 192.754 162.337 192.793 162.221C193.257 162.415 193.837 162.589 194.533 162.743C195.229 162.859 195.847 162.956 196.389 163.033C196.273 163.768 195.905 164.29 195.287 164.599C194.707 164.87 193.779 165.005 192.503 165.005C192.271 165.005 191.981 165.005 191.633 165.005C191.285 165.005 190.879 165.005 190.415 165.005C189.989 165.005 189.603 165.005 189.255 165.005C188.907 165.005 188.617 165.005 188.385 165.005C187.031 165.005 185.987 164.909 185.253 164.715C184.518 164.483 184.015 164.097 183.745 163.555C183.474 163.014 183.339 162.241 183.339 161.235V158.915ZM175.277 188.089L180.381 191.569C179.221 192.265 177.867 192.981 176.321 193.715C174.774 194.489 173.189 195.165 171.565 195.745C169.979 196.364 168.471 196.867 167.041 197.253C166.538 196.712 165.861 196.055 165.011 195.281C164.16 194.508 163.387 193.87 162.691 193.367C164.16 192.981 165.687 192.497 167.273 191.917C168.858 191.337 170.347 190.719 171.739 190.061C173.169 189.365 174.349 188.708 175.277 188.089ZM153.527 142.907L159.443 144.879C158.669 146.349 157.857 147.895 157.007 149.519C156.195 151.105 155.383 152.613 154.571 154.043C153.759 155.474 152.966 156.731 152.193 157.813L147.611 156.073C148.307 154.875 149.022 153.521 149.757 152.013C150.491 150.505 151.187 148.939 151.845 147.315C152.541 145.691 153.101 144.222 153.527 142.907ZM159.559 149.809L165.185 152.187C163.909 154.353 162.497 156.653 160.951 159.089C159.404 161.487 157.857 163.787 156.311 165.991C154.764 168.195 153.295 170.129 151.903 171.791L147.901 169.703C148.906 168.389 149.95 166.919 151.033 165.295C152.115 163.633 153.159 161.912 154.165 160.133C155.209 158.316 156.175 156.518 157.065 154.739C157.993 152.961 158.824 151.317 159.559 149.809ZM144.827 156.479L148.249 151.839C149.215 152.729 150.201 153.715 151.207 154.797C152.251 155.88 153.198 156.963 154.049 158.045C154.938 159.089 155.615 160.075 156.079 161.003L152.309 166.339C151.922 165.373 151.303 164.329 150.453 163.207C149.641 162.047 148.732 160.887 147.727 159.727C146.76 158.529 145.793 157.446 144.827 156.479ZM157.819 163.149L162.401 161.583C163.097 162.898 163.735 164.309 164.315 165.817C164.933 167.325 165.455 168.795 165.881 170.225C166.345 171.656 166.654 172.932 166.809 174.053L161.879 175.909C161.763 174.788 161.492 173.512 161.067 172.081C160.68 170.612 160.197 169.104 159.617 167.557C159.075 165.972 158.476 164.503 157.819 163.149ZM144.827 168.659C147.263 168.582 150.124 168.466 153.411 168.311C156.697 168.118 160.061 167.925 163.503 167.731V173.183C160.332 173.415 157.181 173.647 154.049 173.879C150.955 174.111 148.113 174.324 145.523 174.517L144.827 168.659ZM159.095 178.055L163.619 176.663C164.199 178.133 164.74 179.757 165.243 181.535C165.745 183.275 166.113 184.764 166.345 186.001L161.589 187.625C161.395 186.311 161.047 184.764 160.545 182.985C160.081 181.207 159.597 179.563 159.095 178.055ZM147.031 176.953L152.425 177.881C152.115 180.665 151.671 183.391 151.091 186.059C150.549 188.727 149.873 190.989 149.061 192.845C148.674 192.613 148.171 192.362 147.553 192.091C146.934 191.782 146.315 191.492 145.697 191.221C145.078 190.912 144.537 190.68 144.073 190.525C144.923 188.785 145.581 186.697 146.045 184.261C146.509 181.825 146.837 179.389 147.031 176.953ZM153.121 171.443H158.921V197.369H153.121V171.443ZM229.043 148.301H235.945V164.135H229.043V148.301ZM209.497 145.169H252.649V150.795H209.497V145.169ZM250.909 145.169H252.011L253.113 144.937L258.275 146.213C257.579 148.069 256.786 149.945 255.897 151.839C255.046 153.734 254.195 155.358 253.345 156.711L247.313 155.145C247.97 153.947 248.627 152.516 249.285 150.853C249.942 149.152 250.483 147.547 250.909 146.039V145.169ZM232.871 153.695H248.937V158.393H232.871V153.695ZM220.517 155.319C221.599 157.098 223.011 158.432 224.751 159.321C226.491 160.211 228.598 160.791 231.073 161.061C233.586 161.293 236.409 161.409 239.541 161.409C240.237 161.409 241.242 161.409 242.557 161.409C243.871 161.409 245.341 161.409 246.965 161.409C248.627 161.409 250.29 161.409 251.953 161.409C253.615 161.371 255.162 161.332 256.593 161.293C258.023 161.255 259.183 161.216 260.073 161.177C259.763 161.641 259.454 162.241 259.145 162.975C258.835 163.71 258.565 164.464 258.333 165.237C258.101 166.011 257.927 166.707 257.811 167.325H253.809H239.483C235.423 167.325 231.904 167.093 228.927 166.629C225.949 166.127 223.417 165.121 221.329 163.613C219.241 162.067 217.481 159.785 216.051 156.769L220.517 155.319ZM218.255 176.431V180.143H246.501V176.431H218.255ZM211.701 171.385H253.519V185.247H211.701V171.385ZM229.275 168.311H236.119V192.787H229.275V168.311ZM207.061 189.539C209.69 189.539 212.725 189.539 216.167 189.539C219.608 189.501 223.32 189.462 227.303 189.423C231.324 189.385 235.461 189.327 239.715 189.249C244.007 189.172 248.279 189.114 252.533 189.075L252.243 194.179C246.945 194.411 241.571 194.643 236.119 194.875C230.705 195.146 225.543 195.359 220.633 195.513C215.722 195.707 211.333 195.861 207.467 195.977L207.061 189.539ZM241.745 187.103L246.153 183.333C247.699 184.377 249.343 185.537 251.083 186.813C252.823 188.051 254.466 189.288 256.013 190.525C257.559 191.724 258.874 192.787 259.957 193.715L255.491 198.065C254.408 197.099 253.074 195.958 251.489 194.643C249.942 193.329 248.299 192.014 246.559 190.699C244.857 189.346 243.253 188.147 241.745 187.103ZM216.631 151.607L223.011 153.231C221.619 157.253 219.647 160.945 217.095 164.309C214.581 167.673 211.623 170.419 208.221 172.545C208.027 172.004 207.737 171.327 207.351 170.515C206.964 169.665 206.558 168.814 206.133 167.963C205.707 167.113 205.321 166.436 204.973 165.933C207.641 164.425 209.98 162.434 211.991 159.959C214.04 157.485 215.587 154.701 216.631 151.607ZM288.435 151.955H319.117V158.335H288.435V151.955ZM289.537 162.685H317.435V168.949H289.537V162.685ZM287.449 173.763H319.639V180.317H287.449V173.763ZM299.629 155.203H306.821V177.939H299.629V155.203ZM291.567 144.705L297.947 142.907C298.681 144.145 299.377 145.498 300.035 146.967C300.731 148.437 301.233 149.732 301.543 150.853L294.757 152.825C294.525 151.781 294.099 150.486 293.481 148.939C292.901 147.393 292.263 145.981 291.567 144.705ZM309.257 142.791L316.681 144.473C315.869 146.213 315.037 147.953 314.187 149.693C313.336 151.395 312.563 152.845 311.867 154.043L306.125 152.419C306.511 151.491 306.898 150.467 307.285 149.345C307.71 148.224 308.097 147.103 308.445 145.981C308.793 144.821 309.063 143.758 309.257 142.791ZM295.047 184.203L300.441 183.739C300.75 185.054 301.021 186.485 301.253 188.031C301.485 189.578 301.659 191.067 301.775 192.497C301.929 193.928 302.007 195.165 302.007 196.209L296.265 196.963C296.265 195.842 296.207 194.566 296.091 193.135C296.013 191.705 295.878 190.197 295.685 188.611C295.491 187.026 295.279 185.557 295.047 184.203ZM302.703 183.913L308.039 183.043C308.503 184.397 308.928 185.827 309.315 187.335C309.701 188.843 310.03 190.313 310.301 191.743C310.61 193.135 310.823 194.392 310.939 195.513L305.255 196.615C305.139 195.533 304.945 194.257 304.675 192.787C304.443 191.357 304.153 189.868 303.805 188.321C303.457 186.736 303.089 185.267 302.703 183.913ZM310.359 183.681L316.043 181.999C316.739 183.391 317.396 184.88 318.015 186.465C318.672 188.051 319.233 189.597 319.697 191.105C320.199 192.613 320.547 193.967 320.741 195.165L314.651 197.137C314.496 195.977 314.206 194.624 313.781 193.077C313.355 191.531 312.833 189.926 312.215 188.263C311.635 186.601 311.016 185.073 310.359 183.681ZM288.203 182.347L294.119 183.507C293.848 185.054 293.481 186.678 293.017 188.379C292.553 190.042 292.011 191.647 291.393 193.193C290.774 194.74 290.059 196.113 289.247 197.311L283.331 195.223C284.413 193.715 285.38 191.763 286.231 189.365C287.12 186.968 287.777 184.629 288.203 182.347ZM273.761 142.733H280.025V197.195H273.761V142.733ZM266.047 161.815H286.695V168.253H266.047V161.815ZM273.181 165.237L276.893 167.035C276.429 168.969 275.868 171.018 275.211 173.183C274.553 175.31 273.819 177.437 273.007 179.563C272.233 181.651 271.402 183.623 270.513 185.479C269.623 187.335 268.715 188.959 267.787 190.351C267.477 189.346 266.994 188.167 266.337 186.813C265.718 185.46 265.157 184.319 264.655 183.391C265.815 181.961 266.936 180.201 268.019 178.113C269.14 176.025 270.145 173.841 271.035 171.559C271.963 169.278 272.678 167.171 273.181 165.237ZM279.329 168.485C279.754 168.833 280.353 169.413 281.127 170.225C281.939 170.999 282.77 171.869 283.621 172.835C284.51 173.763 285.322 174.633 286.057 175.445C286.791 176.257 287.294 176.857 287.565 177.243L283.505 182.405C283.157 181.671 282.673 180.801 282.055 179.795C281.475 178.751 280.817 177.688 280.083 176.605C279.387 175.523 278.71 174.498 278.053 173.531C277.395 172.565 276.835 171.753 276.371 171.095L279.329 168.485ZM265.989 147.199L270.571 146.097C271.305 148.185 271.943 150.447 272.485 152.883C273.026 155.281 273.355 157.388 273.471 159.205L268.599 160.423C268.56 159.225 268.405 157.871 268.135 156.363C267.903 154.855 267.593 153.289 267.207 151.665C266.82 150.041 266.414 148.553 265.989 147.199ZM282.809 145.633L288.435 146.851C287.932 148.359 287.41 149.925 286.869 151.549C286.327 153.173 285.805 154.739 285.303 156.247C284.8 157.755 284.297 159.051 283.795 160.133L279.619 158.973C280.044 157.775 280.45 156.402 280.837 154.855C281.262 153.309 281.649 151.723 281.997 150.099C282.345 148.437 282.615 146.948 282.809 145.633ZM349.683 143.661H357.281V188.611C357.281 190.777 357.01 192.401 356.469 193.483C355.927 194.566 354.999 195.397 353.685 195.977C352.331 196.519 350.63 196.867 348.581 197.021C346.57 197.215 344.153 197.292 341.331 197.253C341.215 196.596 341.002 195.823 340.693 194.933C340.383 194.083 340.035 193.213 339.649 192.323C339.301 191.434 338.933 190.68 338.547 190.061C339.823 190.1 341.099 190.139 342.375 190.177C343.651 190.216 344.791 190.235 345.797 190.235C346.802 190.197 347.517 190.177 347.943 190.177C348.561 190.177 349.006 190.061 349.277 189.829C349.547 189.597 349.683 189.191 349.683 188.611V143.661ZM363.603 158.915L370.447 156.363C372.032 159.109 373.559 162.047 375.029 165.179C376.537 168.273 377.851 171.327 378.973 174.343C380.133 177.321 380.964 180.027 381.467 182.463L373.811 185.479C373.424 183.121 372.709 180.433 371.665 177.417C370.659 174.363 369.441 171.231 368.011 168.021C366.619 164.773 365.149 161.738 363.603 158.915ZM334.487 157.001L342.375 158.335C341.717 161.197 340.925 164.251 339.997 167.499C339.069 170.709 337.967 173.783 336.691 176.721C335.453 179.621 334.023 182.154 332.399 184.319C331.819 183.894 331.103 183.449 330.253 182.985C329.441 182.521 328.609 182.096 327.759 181.709C326.947 181.284 326.212 180.936 325.555 180.665C327.14 178.693 328.513 176.354 329.673 173.647C330.871 170.902 331.877 168.079 332.689 165.179C333.501 162.241 334.1 159.515 334.487 157.001ZM413.889 185.595L419.283 184.145C419.94 185.151 420.501 186.253 420.965 187.451C421.429 188.65 421.757 189.713 421.951 190.641L416.267 192.323C416.151 191.395 415.861 190.293 415.397 189.017C414.933 187.741 414.43 186.601 413.889 185.595ZM429.201 184.029L435.233 185.653C434.614 186.891 433.995 188.089 433.377 189.249C432.797 190.409 432.255 191.395 431.753 192.207L426.591 190.699C427.055 189.771 427.538 188.669 428.041 187.393C428.543 186.117 428.93 184.996 429.201 184.029ZM417.079 177.591V180.491H431.463V177.591H417.079ZM411.279 173.473H437.437V184.609H411.279V173.473ZM414.991 157.465V160.133H433.319V157.465H414.991ZM414.991 150.853V153.463H433.319V150.853H414.991ZM409.481 146.619H439.119V164.367H409.481V146.619ZM408.611 166.339H440.105V171.559H408.611V166.339ZM407.451 191.105H440.917V196.267H407.451V191.105ZM417.253 142.849H422.357V149.751H417.253V142.849ZM425.779 142.849H430.941V149.751H425.779V142.849ZM418.239 148.591H422.357V163.555H418.239V148.591ZM425.779 148.591H429.897V163.555H425.779V148.591ZM386.977 158.045H407.335V164.077H386.977V158.045ZM388.369 146.503H406.175V152.477H388.369V146.503ZM402.753 167.035H407.161V188.611H402.753V167.035ZM394.575 161.061H400.317V197.311H394.575V161.061ZM387.789 167.093H392.197V174.053C392.197 177.031 392.061 180.163 391.791 183.449C391.52 186.697 390.882 189.713 389.877 192.497C389.413 192.033 388.794 191.511 388.021 190.931C387.247 190.351 386.571 189.907 385.991 189.597C386.764 187.239 387.247 184.667 387.441 181.883C387.673 179.099 387.789 176.451 387.789 173.937V167.093Z" fill="white"/>
<circle cx="127.999" cy="67.1494" r="56" fill="#FF9C1E"/>
<path d="M128.34 103.144C123.037 103.144 118.326 102.185 114.207 100.267C110.087 98.3497 106.832 95.71 104.441 92.3483C102.074 88.9865 100.843 85.1276 100.748 80.7716H117.793C117.936 83.4468 119.025 85.6011 121.061 87.2346C123.096 88.8445 125.523 89.6494 128.34 89.6494C130.542 89.6494 132.495 89.1641 134.2 88.1934C135.904 87.2228 137.242 85.8615 138.212 84.1096C139.183 82.3341 139.657 80.2981 139.633 78.0017C139.657 75.6579 139.171 73.6101 138.177 71.8582C137.206 70.1063 135.857 68.7451 134.129 67.7744C132.424 66.7801 130.459 66.2829 128.234 66.2829C126.127 66.2593 124.126 66.7209 122.232 67.6679C120.362 68.6148 118.942 69.9051 117.971 71.5386L102.453 68.6267L105.613 29.4221H152.275V43.5912H120.066L118.397 60.7432H118.823C120.031 58.7309 121.972 57.0737 124.647 55.7716C127.346 54.4458 130.412 53.7829 133.845 53.7829C138.201 53.7829 142.083 54.8009 145.492 56.8369C148.925 58.8492 151.624 61.6428 153.589 65.2176C155.578 68.7924 156.572 72.888 156.572 77.5045C156.572 82.4998 155.388 86.9269 153.021 90.7858C150.677 94.6447 147.386 97.675 143.149 99.8767C138.935 102.055 133.998 103.144 128.34 103.144Z" fill="white"/>
</svg>
