<svg width="570" height="314" viewBox="0 0 570 314" fill="none" xmlns="http://www.w3.org/2000/svg">
<path d="M-0.0065918 31.5348H539.993C556.562 31.5348 569.993 44.9662 569.993 61.5348V313.906H29.9934C13.4249 313.906 -0.0065918 300.475 -0.0065918 283.906V31.5348Z" fill="#39BF63"/>
<line x1="347.79" y1="220.406" x2="38.6375" y2="220.406" stroke="white"/>
<path d="M150.495 94.682H161.631V96.922H150.495V94.682ZM150.495 98.17H161.631V100.41H150.495V98.17ZM150.335 101.658H162.271V104.218H150.335V101.658ZM146.943 77.626H162.431V80.314H146.943V77.626ZM154.143 92.346H157.279V103.226H154.143V92.346ZM149.823 75.898H153.055V82.01H149.823V75.898ZM156.447 75.898H159.679V82.01H156.447V75.898ZM150.015 84.826V86.554H151.615V84.826H150.015ZM147.551 82.586H154.175V88.826H147.551V82.586ZM157.727 84.826V86.554H159.455V84.826H157.727ZM155.263 82.586H162.047V88.826H155.263V82.586ZM151.839 90.906H162.207V93.466H151.839V105.562H148.767V93.018L150.687 90.906H151.839ZM155.423 88.506L158.559 89.21C158.196 89.8713 157.844 90.522 157.503 91.162C157.183 91.802 156.884 92.3567 156.607 92.826L154.239 92.154C154.474 91.6207 154.698 91.0127 154.911 90.33C155.146 89.6473 155.316 89.0393 155.423 88.506ZM150.111 88.282L152.895 89.018C152.34 90.7247 151.615 92.3993 150.719 94.042C149.844 95.6633 148.884 97.0287 147.839 98.138C147.732 97.9247 147.572 97.658 147.359 97.338C147.146 96.9967 146.922 96.666 146.687 96.346C146.474 96.026 146.271 95.77 146.079 95.578C146.932 94.682 147.711 93.594 148.415 92.314C149.119 91.0127 149.684 89.6687 150.111 88.282ZM166.655 85.082V87.098H171.935V85.082H166.655ZM166.655 90.042V92.058H171.935V90.042H166.655ZM166.655 80.122V82.138H171.935V80.122H166.655ZM163.359 76.858H175.359V95.354H163.359V76.858ZM169.375 94.81H172.607V101.242C172.607 101.647 172.628 101.903 172.671 102.01C172.714 102.117 172.81 102.17 172.959 102.17C173.002 102.17 173.066 102.17 173.151 102.17C173.258 102.17 173.364 102.17 173.471 102.17C173.578 102.17 173.652 102.17 173.695 102.17C173.823 102.17 173.919 102.095 173.983 101.946C174.068 101.775 174.132 101.423 174.175 100.89C174.239 100.335 174.271 99.5033 174.271 98.394C174.591 98.6713 175.039 98.9273 175.615 99.162C176.191 99.3753 176.692 99.546 177.119 99.674C177.034 101.125 176.874 102.245 176.639 103.034C176.426 103.845 176.106 104.399 175.679 104.698C175.274 105.018 174.74 105.178 174.079 105.178C173.908 105.178 173.716 105.178 173.503 105.178C173.311 105.178 173.108 105.178 172.895 105.178C172.703 105.178 172.532 105.178 172.383 105.178C171.551 105.178 170.911 105.061 170.463 104.826C170.036 104.591 169.748 104.186 169.599 103.61C169.45 103.034 169.375 102.266 169.375 101.306V94.81ZM165.023 94.938H168.255C168.17 96.602 167.967 98.1167 167.647 99.482C167.348 100.826 166.815 102.01 166.047 103.034C165.279 104.079 164.17 104.975 162.719 105.722C162.527 105.317 162.228 104.826 161.823 104.25C161.418 103.695 161.023 103.258 160.639 102.938C161.855 102.426 162.762 101.797 163.359 101.05C163.956 100.303 164.362 99.418 164.575 98.394C164.81 97.37 164.959 96.218 165.023 94.938ZM192.927 75.706H196.767V80.986H192.927V75.706ZM181.407 79.066H208.767V85.146H205.023V81.658H184.959V85.146H181.407V79.066ZM190.047 84.986V86.33H199.807V84.986H190.047ZM186.495 82.874H203.615V88.442H186.495V82.874ZM184.287 76.762L187.711 75.866C188.138 76.3353 188.543 76.858 188.927 77.434C189.311 78.01 189.62 78.5113 189.855 78.938L186.335 80.09C186.143 79.642 185.855 79.1087 185.471 78.49C185.087 77.85 184.692 77.274 184.287 76.762ZM202.271 75.77L206.271 76.698C205.759 77.3807 205.247 78.01 204.735 78.586C204.223 79.162 203.764 79.6633 203.359 80.09L200.191 79.194C200.554 78.7033 200.938 78.138 201.343 77.498C201.748 76.8367 202.058 76.2607 202.271 75.77ZM188.287 94.714V95.898H201.855V94.714H188.287ZM188.287 97.85V99.034H201.855V97.85H188.287ZM188.287 91.61V92.762H201.855V91.61H188.287ZM184.671 89.562H205.631V101.082H184.671V89.562ZM189.535 100.954L193.215 102.362C192.404 102.895 191.444 103.397 190.335 103.866C189.226 104.335 188.063 104.741 186.847 105.082C185.631 105.445 184.468 105.743 183.359 105.978C183.146 105.722 182.858 105.402 182.495 105.018C182.154 104.655 181.812 104.303 181.471 103.962C181.13 103.621 180.81 103.343 180.511 103.13C181.642 102.981 182.772 102.81 183.903 102.618C185.055 102.405 186.122 102.159 187.103 101.882C188.106 101.605 188.916 101.295 189.535 100.954ZM196.639 102.81L199.583 100.73C200.714 101.029 201.876 101.359 203.071 101.722C204.287 102.063 205.428 102.415 206.495 102.778C207.583 103.141 208.511 103.471 209.279 103.77L205.279 105.818C204.639 105.541 203.85 105.231 202.911 104.89C201.994 104.549 200.991 104.186 199.903 103.802C198.836 103.439 197.748 103.109 196.639 102.81ZM229.247 84.41H239.487V87.578H229.247V84.41ZM228.287 95.674H240.159V98.778H228.287V95.674ZM231.167 90.586H233.471V105.37H231.167V90.586ZM235.039 90.586H237.375V105.37H235.039V90.586ZM234.239 79.258C233.706 80.1113 233.055 81.018 232.287 81.978C231.54 82.938 230.708 83.866 229.791 84.762C228.874 85.6367 227.914 86.4153 226.911 87.098C226.719 86.6287 226.442 86.0953 226.079 85.498C225.716 84.9007 225.364 84.41 225.023 84.026C226.026 83.386 227.007 82.6073 227.967 81.69C228.927 80.7513 229.791 79.77 230.559 78.746C231.348 77.7007 231.978 76.73 232.447 75.834H235.775C236.436 76.858 237.194 77.882 238.047 78.906C238.9 79.9087 239.807 80.8367 240.767 81.69C241.727 82.522 242.687 83.2047 243.647 83.738C243.306 84.186 242.943 84.7087 242.559 85.306C242.196 85.9033 241.876 86.4793 241.599 87.034C240.703 86.394 239.786 85.6367 238.847 84.762C237.93 83.8873 237.066 82.97 236.255 82.01C235.466 81.05 234.794 80.1327 234.239 79.258ZM226.751 89.402H240.255V92.506H229.631V105.786H226.751V89.402ZM238.975 89.402H242.207V102.522C242.207 103.162 242.143 103.695 242.015 104.122C241.887 104.57 241.631 104.922 241.247 105.178C240.863 105.455 240.436 105.626 239.967 105.69C239.498 105.754 238.943 105.775 238.303 105.754C238.26 105.327 238.154 104.826 237.983 104.25C237.812 103.674 237.62 103.183 237.407 102.778C237.684 102.799 237.94 102.81 238.175 102.81C238.431 102.81 238.602 102.81 238.687 102.81C238.879 102.81 238.975 102.693 238.975 102.458V89.402ZM213.535 78.81H225.791V82.106H213.535V78.81ZM213.087 97.338H225.919V100.698H213.087V97.338ZM218.047 75.738H221.215V85.082H218.047V75.738ZM218.431 85.114H220.895V94.01H221.247V105.754H218.079V94.01H218.431V85.114ZM216.703 90.874V92.762H222.655V90.874H216.703ZM216.703 86.49V88.346H222.655V86.49H216.703ZM214.079 83.802H225.439V95.45H214.079V83.802ZM265.663 94.97V100.986H262.527V94.97H265.663ZM271.295 92.25V105.786H267.839V92.25H271.295ZM276.031 99.386V102.266H259.551V99.386H276.031ZM275.199 93.722V96.698H261.215V93.722H275.199ZM252.351 96.538C252.756 96.794 253.183 97.1033 253.631 97.466C254.079 97.8073 254.495 98.1593 254.879 98.522C255.263 98.8633 255.583 99.1833 255.839 99.482L253.279 101.21C253.066 100.911 252.767 100.581 252.383 100.218C252.02 99.8553 251.626 99.4927 251.199 99.13C250.772 98.746 250.356 98.4047 249.951 98.106L252.351 96.538ZM258.527 93.882L259.103 93.786L261.151 94.746C260.49 96.7513 259.572 98.4793 258.399 99.93C257.247 101.381 255.903 102.586 254.367 103.546C252.852 104.506 251.199 105.263 249.407 105.818C249.3 105.562 249.119 105.263 248.863 104.922C248.607 104.581 248.34 104.239 248.063 103.898C247.786 103.557 247.54 103.301 247.327 103.13C249.012 102.682 250.548 102.074 251.935 101.306C253.343 100.517 254.548 99.5567 255.551 98.426C256.575 97.274 257.332 95.9193 257.823 94.362V93.882H258.527ZM256.031 92.378C255.199 93.9353 254.111 95.354 252.767 96.634C251.423 97.914 250.026 98.9593 248.575 99.77C248.426 99.578 248.202 99.3433 247.903 99.066C247.626 98.7673 247.338 98.4793 247.039 98.202C246.762 97.9033 246.506 97.6687 246.271 97.498C247.679 96.8153 248.98 95.962 250.175 94.938C251.391 93.914 252.33 92.7833 252.991 91.546L256.031 92.378ZM271.327 79.546V90.33H267.775V79.546H271.327ZM265.759 79.546V90.33H262.591V79.546H265.759ZM260.543 79.546V90.33H257.375V79.546H260.543ZM255.391 79.546V90.33H251.935V79.546H255.391ZM275.359 88.89V91.898H247.871V88.89H275.359ZM275.743 83.674V86.746H247.263V83.674H275.743ZM258.911 93.882V96.378H250.751L253.247 93.882H258.911ZM274.335 78.49V81.498H250.207L253.183 78.49H274.335ZM256.191 76.314C255.402 77.6367 254.495 78.906 253.471 80.122C252.468 81.338 251.274 82.4793 249.887 83.546C249.567 83.162 249.13 82.7567 248.575 82.33C248.02 81.882 247.53 81.5407 247.103 81.306C248.362 80.4953 249.45 79.578 250.367 78.554C251.284 77.53 252.01 76.5487 252.543 75.61L256.191 76.314ZM297.05 87.834H317.498V91.29H297.05V87.834ZM298.17 81.37H316.41V84.762H298.17V81.37ZM304.922 83.034H308.762V88.154C308.762 89.178 308.634 90.2447 308.378 91.354C308.143 92.4633 307.695 93.5727 307.034 94.682C306.394 95.77 305.466 96.826 304.25 97.85C303.055 98.8527 301.509 99.77 299.61 100.602C299.439 100.325 299.205 100.015 298.906 99.674C298.607 99.3327 298.298 98.9913 297.978 98.65C297.658 98.3087 297.349 98.0313 297.05 97.818C298.863 97.1567 300.293 96.4207 301.338 95.61C302.405 94.7993 303.183 93.9567 303.674 93.082C304.186 92.2073 304.517 91.354 304.666 90.522C304.837 89.6687 304.922 88.8687 304.922 88.122V83.034ZM309.338 90.266C309.999 92.0367 311.002 93.5407 312.346 94.778C313.711 95.994 315.461 96.8687 317.594 97.402C317.317 97.658 317.018 97.978 316.698 98.362C316.399 98.746 316.111 99.1407 315.834 99.546C315.578 99.93 315.354 100.293 315.162 100.634C312.815 99.866 310.917 98.6607 309.466 97.018C308.015 95.3753 306.895 93.3593 306.106 90.97L309.338 90.266ZM295.77 88.186V99.994H292.026V91.738H288.314V88.186H295.77ZM295.77 98.33C296.431 99.3753 297.359 100.143 298.554 100.634C299.749 101.125 301.178 101.402 302.842 101.466C303.781 101.509 304.89 101.541 306.17 101.562C307.471 101.562 308.837 101.551 310.266 101.53C311.695 101.509 313.093 101.466 314.458 101.402C315.845 101.338 317.071 101.263 318.138 101.178C318.01 101.477 317.861 101.861 317.69 102.33C317.519 102.799 317.359 103.279 317.21 103.77C317.082 104.261 316.986 104.698 316.922 105.082C315.962 105.146 314.863 105.189 313.626 105.21C312.389 105.253 311.119 105.274 309.818 105.274C308.517 105.295 307.258 105.295 306.042 105.274C304.826 105.253 303.738 105.221 302.778 105.178C300.815 105.093 299.141 104.783 297.754 104.25C296.367 103.738 295.141 102.863 294.074 101.626C293.37 102.223 292.645 102.842 291.898 103.482C291.173 104.122 290.373 104.783 289.498 105.466L287.61 101.466C288.357 101.018 289.135 100.527 289.946 99.994C290.757 99.4607 291.535 98.906 292.282 98.33H295.77ZM288.346 78.778L291.194 76.474C291.855 76.9007 292.527 77.402 293.21 77.978C293.893 78.5327 294.533 79.1087 295.13 79.706C295.727 80.282 296.207 80.8153 296.57 81.306L293.53 83.866C293.21 83.354 292.762 82.7993 292.186 82.202C291.631 81.6047 291.013 81.0073 290.33 80.41C289.647 79.7913 288.986 79.2473 288.346 78.778ZM311.546 75.706L315.45 76.922C314.874 77.8393 314.277 78.746 313.658 79.642C313.061 80.5167 312.506 81.2633 311.994 81.882L308.858 80.794C309.178 80.3033 309.509 79.77 309.85 79.194C310.191 78.5967 310.511 77.9993 310.81 77.402C311.109 76.7833 311.354 76.218 311.546 75.706ZM299.002 77.114L302.234 75.77C302.831 76.4953 303.397 77.3167 303.93 78.234C304.463 79.1513 304.837 79.962 305.05 80.666L301.594 82.138C301.423 81.4553 301.082 80.6447 300.57 79.706C300.079 78.746 299.557 77.882 299.002 77.114Z" fill="white"/>
<path d="M35.208 238.114H54.888V240.562H35.208V238.114ZM36.336 241.786H53.952V244.066H36.336V241.786ZM34.32 245.41H55.632V247.858H34.32V245.41ZM43.488 236.506H46.392V247.45H43.488V236.506ZM43.512 246.298L46.008 247.498C45.352 248.186 44.608 248.85 43.776 249.49C42.96 250.13 42.08 250.73 41.136 251.29C40.192 251.834 39.224 252.33 38.232 252.778C37.24 253.21 36.248 253.578 35.256 253.882C35.128 253.658 34.952 253.402 34.728 253.114C34.52 252.826 34.296 252.546 34.056 252.274C33.832 251.986 33.616 251.746 33.408 251.554C34.352 251.298 35.312 250.986 36.288 250.618C37.264 250.25 38.2 249.834 39.096 249.37C39.992 248.906 40.816 248.418 41.568 247.906C42.336 247.394 42.984 246.858 43.512 246.298ZM47.664 246.754C48.08 248.338 48.664 249.778 49.416 251.074C50.168 252.37 51.128 253.474 52.296 254.386C53.464 255.282 54.864 255.962 56.496 256.426C56.288 256.634 56.064 256.882 55.824 257.17C55.584 257.474 55.36 257.786 55.152 258.106C54.944 258.442 54.768 258.738 54.624 258.994C52.848 258.386 51.336 257.538 50.088 256.45C48.856 255.346 47.832 254.026 47.016 252.49C46.216 250.954 45.552 249.21 45.024 247.258L47.664 246.754ZM53.184 248.194L55.584 249.994C54.976 250.426 54.344 250.858 53.688 251.29C53.032 251.706 52.384 252.098 51.744 252.466C51.104 252.834 50.504 253.162 49.944 253.45L48.144 251.89C48.672 251.57 49.24 251.202 49.848 250.786C50.472 250.37 51.072 249.938 51.648 249.49C52.24 249.042 52.752 248.61 53.184 248.194ZM35.952 256.354C36.928 256.178 38.04 255.97 39.288 255.73C40.552 255.474 41.872 255.202 43.248 254.914C44.64 254.626 46.016 254.33 47.376 254.026L47.64 256.618C46.392 256.906 45.12 257.194 43.824 257.482C42.544 257.77 41.304 258.042 40.104 258.298C38.92 258.554 37.824 258.794 36.816 259.018L35.952 256.354ZM39.24 251.482L41.136 249.586L42.144 249.85V256.738H39.24V251.482ZM65.664 238.426H80.952V242.866H78.192V240.754H68.28V242.866H65.664V238.426ZM71.64 236.506H74.592V240.322H71.64V236.506ZM71.736 243.682H74.472V253.09H71.736V243.682ZM74.064 255.586L76.272 254.146C76.816 254.45 77.4 254.802 78.024 255.202C78.664 255.586 79.272 255.978 79.848 256.378C80.44 256.762 80.936 257.122 81.336 257.458L78.96 259.066C78.624 258.746 78.168 258.378 77.592 257.962C77.032 257.562 76.44 257.154 75.816 256.738C75.192 256.322 74.608 255.938 74.064 255.586ZM69.672 254.386L72.408 255.418C71.928 255.898 71.368 256.378 70.728 256.858C70.088 257.322 69.416 257.754 68.712 258.154C68.024 258.554 67.36 258.898 66.72 259.186C66.56 259.01 66.344 258.786 66.072 258.514C65.8 258.242 65.528 257.978 65.256 257.722C64.984 257.482 64.736 257.282 64.512 257.122C65.472 256.802 66.424 256.402 67.368 255.922C68.312 255.426 69.08 254.914 69.672 254.386ZM69.24 251.026V252.298H77.208V251.026H69.24ZM69.24 247.762V249.034H77.208V247.762H69.24ZM66.696 245.65H79.872V254.434H66.696V245.65ZM67.584 242.218H78.96V244.498H67.584V242.218ZM59.88 238.738L61.464 236.602C61.944 236.778 62.448 237.002 62.976 237.274C63.52 237.53 64.032 237.802 64.512 238.09C65.008 238.378 65.4 238.65 65.688 238.906L64.008 241.282C63.736 241.01 63.36 240.722 62.88 240.418C62.416 240.098 61.92 239.794 61.392 239.506C60.864 239.202 60.36 238.946 59.88 238.738ZM58.632 245.242L60.192 243.082C60.672 243.242 61.176 243.442 61.704 243.682C62.248 243.922 62.76 244.178 63.24 244.45C63.72 244.722 64.112 244.994 64.416 245.266L62.76 247.666C62.472 247.394 62.088 247.114 61.608 246.826C61.144 246.522 60.648 246.234 60.12 245.962C59.608 245.69 59.112 245.45 58.632 245.242ZM59.232 257.074C59.616 256.45 60.032 255.714 60.48 254.866C60.928 254.018 61.392 253.122 61.872 252.178C62.352 251.218 62.792 250.266 63.192 249.322L65.448 251.05C65.096 251.914 64.712 252.794 64.296 253.69C63.896 254.57 63.488 255.442 63.072 256.306C62.656 257.17 62.24 257.994 61.824 258.778L59.232 257.074ZM93.192 239.074H105.48V241.57H93.192V239.074ZM92.4 243.682H106.176V246.202H92.4V243.682ZM92.448 248.242H106.008V250.762H92.448V248.242ZM97.824 236.482H100.68V245.314H97.824V236.482ZM100.872 246.082H103.704V256.018C103.704 256.706 103.616 257.242 103.44 257.626C103.264 258.026 102.944 258.338 102.48 258.562C102.016 258.77 101.448 258.898 100.776 258.946C100.12 259.01 99.344 259.042 98.448 259.042C98.384 258.642 98.264 258.178 98.088 257.65C97.912 257.138 97.728 256.698 97.536 256.33C98.128 256.346 98.704 256.362 99.264 256.378C99.824 256.378 100.2 256.378 100.392 256.378C100.568 256.378 100.688 256.354 100.752 256.306C100.832 256.242 100.872 256.122 100.872 255.946V246.082ZM93.408 252.394L95.688 251.074C96.072 251.442 96.456 251.858 96.84 252.322C97.224 252.786 97.576 253.25 97.896 253.714C98.216 254.178 98.464 254.602 98.64 254.986L96.144 256.45C96.016 256.066 95.8 255.642 95.496 255.178C95.192 254.698 94.856 254.218 94.488 253.738C94.136 253.242 93.776 252.794 93.408 252.394ZM85.8 237.994H91.968V254.41H85.8V251.842H89.304V240.562H85.8V237.994ZM85.944 244.81H90.6V247.33H85.944V244.81ZM84.432 237.994H87.096V256.546H84.432V237.994ZM116.592 251.17H123.144V253.21H116.592V251.17ZM116.424 247.594H124.512V256.834H116.424V254.698H121.8V249.73H116.424V247.594ZM115.224 247.594H117.84V258.058H115.224V247.594ZM111.216 240.778H117.216V242.722H111.216V240.778ZM122.352 240.778H128.4V242.722H122.352V240.778ZM127.224 237.442H130.128V255.658C130.128 256.426 130.04 257.034 129.864 257.482C129.688 257.93 129.36 258.274 128.88 258.514C128.384 258.754 127.776 258.906 127.056 258.97C126.352 259.034 125.48 259.066 124.44 259.066C124.408 258.778 124.344 258.458 124.248 258.106C124.152 257.754 124.04 257.394 123.912 257.026C123.784 256.674 123.648 256.37 123.504 256.114C123.936 256.146 124.36 256.17 124.776 256.186C125.208 256.186 125.592 256.186 125.928 256.186C126.28 256.17 126.52 256.162 126.648 256.162C126.872 256.162 127.024 256.122 127.104 256.042C127.184 255.962 127.224 255.818 127.224 255.61V237.442ZM111.432 237.442H119.04V246.154H111.432V244.09H116.328V239.53H111.432V237.442ZM128.76 237.442V239.53H123.384V244.138H128.76V246.202H120.648V237.442H128.76ZM109.776 237.442H112.632V259.066H109.776V237.442ZM134.4 238.114H155.328V241.066H134.4V238.114ZM145.992 246.178L148.224 244.306C148.864 244.77 149.552 245.282 150.288 245.842C151.04 246.386 151.784 246.954 152.52 247.546C153.272 248.138 153.968 248.722 154.608 249.298C155.248 249.858 155.792 250.37 156.24 250.834L153.792 253.066C153.392 252.586 152.88 252.058 152.256 251.482C151.648 250.89 150.984 250.282 150.264 249.658C149.56 249.034 148.832 248.426 148.08 247.834C147.344 247.242 146.648 246.69 145.992 246.178ZM145.032 239.218L148.224 240.346C147.312 242.026 146.224 243.666 144.96 245.266C143.712 246.866 142.304 248.346 140.736 249.706C139.168 251.05 137.464 252.202 135.624 253.162C135.48 252.906 135.288 252.618 135.048 252.298C134.808 251.978 134.56 251.666 134.304 251.362C134.064 251.042 133.84 250.77 133.632 250.546C134.928 249.954 136.152 249.234 137.304 248.386C138.456 247.522 139.52 246.586 140.496 245.578C141.488 244.57 142.36 243.53 143.112 242.458C143.88 241.37 144.52 240.29 145.032 239.218ZM143.28 245.026L146.424 241.882V259.018H143.28V245.026ZM163.152 243.754H176.424V246.514H163.152V243.754ZM169.8 249.514H177.888V252.226H169.8V249.514ZM168.288 245.362H171.288V256.954L168.288 256.594V245.362ZM162.552 247.834L165.552 248.146C165.232 250.594 164.688 252.754 163.92 254.626C163.152 256.498 162.08 258.026 160.704 259.21C160.544 259.034 160.32 258.818 160.032 258.562C159.744 258.306 159.44 258.058 159.12 257.818C158.816 257.578 158.552 257.386 158.328 257.242C159.624 256.282 160.6 254.994 161.256 253.378C161.912 251.746 162.344 249.898 162.552 247.834ZM164.88 250.858C165.248 251.946 165.728 252.834 166.32 253.522C166.928 254.194 167.624 254.706 168.408 255.058C169.208 255.394 170.08 255.626 171.024 255.754C171.968 255.882 172.968 255.946 174.024 255.946C174.28 255.946 174.624 255.946 175.056 255.946C175.504 255.946 175.992 255.946 176.52 255.946C177.064 255.946 177.616 255.946 178.176 255.946C178.736 255.93 179.256 255.922 179.736 255.922C180.216 255.906 180.616 255.89 180.936 255.874C180.792 256.114 180.648 256.41 180.504 256.762C180.376 257.098 180.256 257.45 180.144 257.818C180.032 258.186 179.952 258.522 179.904 258.826H178.68H173.88C172.488 258.826 171.208 258.73 170.04 258.538C168.872 258.346 167.816 257.994 166.872 257.482C165.944 256.986 165.112 256.266 164.376 255.322C163.656 254.378 163.04 253.146 162.528 251.626L164.88 250.858ZM168.24 236.554H171.312V240.922H168.24V236.554ZM159.504 238.978H180.12V245.002H177.168V241.69H162.336V245.002H159.504V238.978ZM195.384 247.858H205.2V258.946H202.44V250.474H197.976V259.042H195.384V247.858ZM198.576 236.554H201.36V248.578H198.576V236.554ZM200.232 241.498H206.016V244.162H200.232V241.498ZM196.752 255.49H203.736V258.106H196.752V255.49ZM186.48 239.17V244.426H192.312V239.17H186.48ZM184.344 237.25H194.544V246.346H184.344V237.25ZM186.432 240.202L187.632 239.866C187.824 240.41 187.992 241.002 188.136 241.642C188.28 242.282 188.368 242.834 188.4 243.298L187.128 243.706C187.112 243.242 187.04 242.682 186.912 242.026C186.784 241.37 186.624 240.762 186.432 240.202ZM187.032 253.978L188.784 253.762C188.928 254.418 189.04 255.138 189.12 255.922C189.216 256.706 189.272 257.386 189.288 257.962L187.44 258.202C187.456 257.626 187.424 256.946 187.344 256.162C187.264 255.362 187.16 254.634 187.032 253.978ZM189.432 253.858L191.136 253.546C191.376 254.186 191.592 254.874 191.784 255.61C191.976 256.33 192.112 256.97 192.192 257.53L190.392 257.89C190.344 257.346 190.224 256.698 190.032 255.946C189.856 255.194 189.656 254.498 189.432 253.858ZM191.76 253.666L193.464 253.018C193.864 253.594 194.24 254.234 194.592 254.938C194.944 255.642 195.192 256.258 195.336 256.786L193.512 257.53C193.384 256.986 193.152 256.354 192.816 255.634C192.496 254.914 192.144 254.258 191.76 253.666ZM184.92 253.834L186.864 254.386C186.72 255.25 186.52 256.106 186.264 256.954C186.024 257.802 185.648 258.506 185.136 259.066L183.264 258.106C183.712 257.594 184.072 256.954 184.344 256.186C184.616 255.402 184.808 254.618 184.92 253.834ZM191.136 239.842L192.576 240.322C192.352 240.898 192.12 241.506 191.88 242.146C191.656 242.786 191.448 243.322 191.256 243.754L190.176 243.346C190.304 243.01 190.424 242.642 190.536 242.242C190.664 241.826 190.784 241.41 190.896 240.994C191.008 240.562 191.088 240.178 191.136 239.842ZM183.792 250.834C184.736 250.818 185.808 250.794 187.008 250.762C188.224 250.714 189.504 250.666 190.848 250.618C192.192 250.57 193.536 250.514 194.88 250.45L194.832 252.706C193.536 252.77 192.224 252.842 190.896 252.922C189.584 252.986 188.328 253.05 187.128 253.114C185.944 253.162 184.856 253.21 183.864 253.258L183.792 250.834ZM184.392 247.378H194.496V249.562H184.392V247.378ZM188.496 238.234H190.224V245.458H190.632V251.722H188.088V245.458H188.496V238.234ZM215.424 238.426H230.712V242.866H227.952V240.754H218.04V242.866H215.424V238.426ZM221.4 236.506H224.352V240.322H221.4V236.506ZM221.496 243.682H224.232V253.09H221.496V243.682ZM223.824 255.586L226.032 254.146C226.576 254.45 227.16 254.802 227.784 255.202C228.424 255.586 229.032 255.978 229.608 256.378C230.2 256.762 230.696 257.122 231.096 257.458L228.72 259.066C228.384 258.746 227.928 258.378 227.352 257.962C226.792 257.562 226.2 257.154 225.576 256.738C224.952 256.322 224.368 255.938 223.824 255.586ZM219.432 254.386L222.168 255.418C221.688 255.898 221.128 256.378 220.488 256.858C219.848 257.322 219.176 257.754 218.472 258.154C217.784 258.554 217.12 258.898 216.48 259.186C216.32 259.01 216.104 258.786 215.832 258.514C215.56 258.242 215.288 257.978 215.016 257.722C214.744 257.482 214.496 257.282 214.272 257.122C215.232 256.802 216.184 256.402 217.128 255.922C218.072 255.426 218.84 254.914 219.432 254.386ZM219 251.026V252.298H226.968V251.026H219ZM219 247.762V249.034H226.968V247.762H219ZM216.456 245.65H229.632V254.434H216.456V245.65ZM217.344 242.218H228.72V244.498H217.344V242.218ZM209.64 238.738L211.224 236.602C211.704 236.778 212.208 237.002 212.736 237.274C213.28 237.53 213.792 237.802 214.272 238.09C214.768 238.378 215.16 238.65 215.448 238.906L213.768 241.282C213.496 241.01 213.12 240.722 212.64 240.418C212.176 240.098 211.68 239.794 211.152 239.506C210.624 239.202 210.12 238.946 209.64 238.738ZM208.392 245.242L209.952 243.082C210.432 243.242 210.936 243.442 211.464 243.682C212.008 243.922 212.52 244.178 213 244.45C213.48 244.722 213.872 244.994 214.176 245.266L212.52 247.666C212.232 247.394 211.848 247.114 211.368 246.826C210.904 246.522 210.408 246.234 209.88 245.962C209.368 245.69 208.872 245.45 208.392 245.242ZM208.992 257.074C209.376 256.45 209.792 255.714 210.24 254.866C210.688 254.018 211.152 253.122 211.632 252.178C212.112 251.218 212.552 250.266 212.952 249.322L215.208 251.05C214.856 251.914 214.472 252.794 214.056 253.69C213.656 254.57 213.248 255.442 212.832 256.306C212.416 257.17 212 257.994 211.584 258.778L208.992 257.074ZM236.52 254.842H252.912V257.65H236.52V254.842ZM243.048 236.77H246.024V256.57H243.048V236.77ZM235.104 248.842H238.032V259.066H235.104V248.842ZM251.376 248.842H254.376V259.042H251.376V248.842ZM236.04 238.786H238.92V244.738H250.392V238.762H253.416V247.546H236.04V238.786Z" fill="white"/>
<path d="M55.968 140.752H83.808V146.552H55.968V140.752ZM71.686 150.206H84.156V155.658H71.686V150.206ZM60.898 151.308H70.352V156.586H60.898V151.308ZM60.898 161.516H70.352V166.794H60.898V161.516ZM67.974 143.304H73.484V184.078H67.974V143.304ZM58.462 142.898H63.856V175.088L58.462 175.9V142.898ZM54.866 175.146C56.838 174.798 59.1773 174.354 61.884 173.812C64.5907 173.271 67.3747 172.71 70.236 172.13L70.758 177.234C68.206 177.892 65.654 178.53 63.102 179.148C60.5887 179.728 58.23 180.289 56.026 180.83L54.866 175.146ZM82.822 150.206H83.982L85.026 150.032L88.506 151.076C87.81 158.694 86.4953 165.248 84.562 170.738C82.6287 176.19 80.1153 180.366 77.022 183.266C76.79 182.764 76.442 182.203 75.978 181.584C75.514 180.927 75.0307 180.308 74.528 179.728C74.0253 179.148 73.5613 178.704 73.136 178.394C75.8813 175.881 78.0467 172.304 79.632 167.664C81.256 163.024 82.3193 157.592 82.822 151.366V150.206ZM78.066 156.934C78.6847 160.028 79.5353 163.005 80.618 165.866C81.7393 168.728 83.0733 171.318 84.62 173.638C86.1667 175.92 87.926 177.776 89.898 179.206C89.2407 179.709 88.5253 180.405 87.752 181.294C87.0173 182.184 86.418 182.996 85.954 183.73C83.8273 181.99 81.952 179.806 80.328 177.176C78.7427 174.508 77.37 171.55 76.21 168.302C75.0887 165.016 74.1607 161.574 73.426 157.978L78.066 156.934ZM37.002 144.522H56.316V150.554H37.002V144.522ZM35.668 155.252H57.244V161.4H35.668V155.252ZM47.5 166.678H56.896V172.71H47.5V166.678ZM44.484 138.606H50.748V159.196H44.484V138.606ZM45.702 159.254H51.734V185.18H45.702V159.254ZM42.86 170.97C43.672 174.025 44.7353 176.48 46.05 178.336C47.4033 180.154 48.9887 181.546 50.806 182.512C52.6233 183.479 54.75 184.136 57.186 184.484C59.622 184.794 62.3673 184.948 65.422 184.948C66.1567 184.948 67.1233 184.948 68.322 184.948C69.5593 184.948 70.932 184.948 72.44 184.948C73.948 184.948 75.514 184.948 77.138 184.948C78.8007 184.948 80.4247 184.929 82.01 184.89C83.5953 184.852 85.0453 184.832 86.36 184.832C87.6747 184.794 88.738 184.755 89.55 184.716C89.202 185.219 88.8347 185.876 88.448 186.688C88.1 187.5 87.7907 188.332 87.52 189.182C87.2493 190.072 87.0367 190.884 86.882 191.618H82.88H65.364C61.5747 191.618 58.1913 191.367 55.214 190.864C52.2753 190.4 49.704 189.492 47.5 188.138C45.296 186.785 43.4013 184.852 41.816 182.338C40.2693 179.825 38.9547 176.538 37.872 172.478L42.86 170.97ZM37.292 164.706L42.976 164.996C43.1307 168.09 43.1113 171.299 42.918 174.624C42.7633 177.911 42.338 181.14 41.642 184.31C40.946 187.442 39.844 190.362 38.336 193.068C38.0653 192.566 37.6593 192.044 37.118 191.502C36.5767 190.961 36.016 190.439 35.436 189.936C34.856 189.472 34.3533 189.144 33.928 188.95C35.1267 186.63 35.9773 184.117 36.48 181.41C36.9827 178.665 37.2727 175.862 37.35 173C37.466 170.139 37.4467 167.374 37.292 164.706ZM115.998 161.168H149.29V167.78H115.998V161.168ZM117.854 147.364H147.492V153.976H117.854V147.364ZM128.468 139.128H135.486V192.952H128.468V139.128ZM127.83 165.228L133.282 166.91C132.122 170.042 130.691 173.058 128.99 175.958C127.289 178.82 125.375 181.41 123.248 183.73C121.121 186.012 118.821 187.945 116.346 189.53C115.998 188.989 115.553 188.39 115.012 187.732C114.471 187.036 113.891 186.36 113.272 185.702C112.692 185.045 112.151 184.484 111.648 184.02C113.968 182.783 116.172 181.178 118.26 179.206C120.348 177.234 122.204 175.05 123.828 172.652C125.491 170.255 126.825 167.78 127.83 165.228ZM136.066 165.054C137.033 167.452 138.231 169.849 139.662 172.246C141.131 174.605 142.755 176.79 144.534 178.8C146.313 180.811 148.149 182.512 150.044 183.904C149.541 184.33 148.961 184.89 148.304 185.586C147.647 186.244 147.009 186.94 146.39 187.674C145.81 188.37 145.307 189.028 144.882 189.646C142.949 187.906 141.112 185.818 139.372 183.382C137.632 180.946 136.047 178.298 134.616 175.436C133.185 172.575 131.948 169.656 130.904 166.678L136.066 165.054ZM100.512 143.652H114.432V178.51H100.512V171.724H108.168V150.38H100.512V143.652ZM96.916 143.652H103.296V183.15H96.916V143.652ZM164.486 162.328H205.376V166.736H164.486V162.328ZM173.708 147.132H179.74V158.906H173.708V147.132ZM186.932 147.132H193.08V158.906H186.932V147.132ZM165.588 149.974H206.71V160.414H165.588V156.586H200.33V153.802H165.588V149.974ZM179.682 173.986L185.54 175.32C183.336 177.447 180.765 179.342 177.826 181.004C174.887 182.667 171.465 184.175 167.56 185.528C167.173 184.91 166.613 184.194 165.878 183.382C165.182 182.57 164.544 181.952 163.964 181.526C167.56 180.521 170.692 179.38 173.36 178.104C176.028 176.79 178.135 175.417 179.682 173.986ZM179.74 177.524H198.01V181.294H175.97L179.74 177.524ZM196.618 177.524H197.836L198.88 177.292L202.766 179.786C200.949 181.874 198.706 183.672 196.038 185.18C193.37 186.688 190.412 187.964 187.164 189.008C183.955 190.052 180.552 190.884 176.956 191.502C173.399 192.16 169.822 192.682 166.226 193.068C165.994 192.372 165.627 191.56 165.124 190.632C164.66 189.704 164.196 188.931 163.732 188.312C167.019 188.08 170.305 187.713 173.592 187.21C176.917 186.708 180.069 186.05 183.046 185.238C186.023 184.426 188.691 183.46 191.05 182.338C193.409 181.178 195.265 179.844 196.618 178.336V177.524ZM178 179.96C179.469 181.198 181.306 182.28 183.51 183.208C185.753 184.136 188.266 184.929 191.05 185.586C193.834 186.205 196.811 186.708 199.982 187.094C203.153 187.442 206.42 187.694 209.784 187.848C209.165 188.467 208.527 189.298 207.87 190.342C207.251 191.386 206.749 192.295 206.362 193.068C202.882 192.798 199.518 192.392 196.27 191.85C193.022 191.309 189.948 190.594 187.048 189.704C184.187 188.815 181.557 187.732 179.16 186.456C176.801 185.18 174.733 183.692 172.954 181.99L178 179.96ZM175.506 167.954H180.958V170.506C180.958 171.086 181.093 171.454 181.364 171.608C181.673 171.763 182.273 171.84 183.162 171.84C183.394 171.84 183.781 171.84 184.322 171.84C184.863 171.84 185.463 171.84 186.12 171.84C186.816 171.84 187.435 171.84 187.976 171.84C188.556 171.84 188.981 171.84 189.252 171.84C189.948 171.84 190.412 171.705 190.644 171.434C190.876 171.125 191.05 170.448 191.166 169.404C191.707 169.752 192.403 170.062 193.254 170.332C194.143 170.603 194.936 170.796 195.632 170.912C195.4 172.846 194.859 174.16 194.008 174.856C193.196 175.514 191.862 175.842 190.006 175.842C189.774 175.842 189.407 175.842 188.904 175.842C188.401 175.842 187.821 175.842 187.164 175.842C186.507 175.842 185.869 175.842 185.25 175.842C184.631 175.842 184.071 175.842 183.568 175.842C183.065 175.842 182.698 175.842 182.466 175.842C180.61 175.842 179.16 175.688 178.116 175.378C177.111 175.03 176.415 174.489 176.028 173.754C175.68 172.981 175.506 171.898 175.506 170.506V167.954ZM203.752 162.328H204.738L205.724 162.154L210.248 163.14C209.707 164.648 209.107 166.195 208.45 167.78C207.793 169.366 207.155 170.7 206.536 171.782L201.084 170.68C201.548 169.675 202.031 168.476 202.534 167.084C203.037 165.692 203.443 164.358 203.752 163.082V162.328ZM170.46 167.316L175.1 169.346C174.481 170.661 173.708 171.976 172.78 173.29C171.891 174.605 170.769 175.726 169.416 176.654L164.95 173.754C166.149 173.02 167.231 172.053 168.198 170.854C169.165 169.656 169.919 168.476 170.46 167.316ZM180.726 167.2L184.38 164.59C185.424 165.093 186.526 165.731 187.686 166.504C188.846 167.278 189.755 167.974 190.412 168.592L186.642 171.492C185.985 170.835 185.076 170.081 183.916 169.23C182.795 168.38 181.731 167.703 180.726 167.2ZM193.37 169.114L197.662 166.852C198.861 167.78 200.079 168.902 201.316 170.216C202.553 171.492 203.481 172.633 204.1 173.638L199.576 176.132C199.035 175.088 198.165 173.909 196.966 172.594C195.767 171.28 194.569 170.12 193.37 169.114ZM180.842 138.606H188.092V145.972H180.842V138.606ZM163.152 142.086H208.74V147.306H163.152V142.086ZM159.846 142.086H166.168V159.37C166.168 161.806 166.091 164.474 165.936 167.374C165.781 170.274 165.491 173.252 165.066 176.306C164.641 179.361 164.022 182.319 163.21 185.18C162.398 188.042 161.335 190.632 160.02 192.952C159.633 192.566 159.111 192.102 158.454 191.56C157.797 191.058 157.12 190.574 156.424 190.11C155.767 189.646 155.187 189.298 154.684 189.066C155.883 186.94 156.811 184.62 157.468 182.106C158.164 179.554 158.686 176.964 159.034 174.334C159.382 171.666 159.595 169.056 159.672 166.504C159.788 163.952 159.846 161.574 159.846 159.37V142.086ZM226.024 149.162H266.392V155.948H226.024V149.162ZM223.588 166.214H264.13V172.942H223.588V166.214ZM216.918 184.658H269.35V191.444H216.918V184.658ZM239.422 138.606H246.73V187.964H239.422V138.606ZM226.024 139.36L233.216 140.984C232.404 143.962 231.399 146.9 230.2 149.8C229.001 152.7 227.706 155.407 226.314 157.92C224.922 160.395 223.472 162.56 221.964 164.416C221.5 163.991 220.881 163.527 220.108 163.024C219.373 162.483 218.6 161.961 217.788 161.458C216.976 160.956 216.28 160.55 215.7 160.24C217.247 158.616 218.658 156.683 219.934 154.44C221.249 152.198 222.409 149.781 223.414 147.19C224.458 144.6 225.328 141.99 226.024 139.36ZM288.722 143.594H328.336V148.814H288.722V143.594ZM289.244 151.076H323.29V156.122H289.244V151.076ZM282.574 158.442H316.098V163.72H282.574V158.442ZM278.746 173.638H313.256V178.858H278.746V173.638ZM288.2 138.606L295.624 140.462C294.58 143.169 293.323 145.798 291.854 148.35C290.423 150.864 288.857 153.203 287.156 155.368C285.493 157.534 283.773 159.409 281.994 160.994C281.53 160.53 280.892 160.028 280.08 159.486C279.268 158.945 278.437 158.404 277.586 157.862C276.774 157.282 276.078 156.838 275.498 156.528C278.243 154.518 280.737 151.927 282.98 148.756C285.223 145.547 286.963 142.164 288.2 138.606ZM313.952 158.442H320.97C320.97 161.381 320.989 164.223 321.028 166.968C321.105 169.675 321.221 172.188 321.376 174.508C321.569 176.828 321.821 178.858 322.13 180.598C322.478 182.3 322.865 183.634 323.29 184.6C323.754 185.567 324.315 186.05 324.972 186.05C325.397 186.05 325.687 185.316 325.842 183.846C326.035 182.377 326.151 180.405 326.19 177.93C326.847 178.742 327.563 179.554 328.336 180.366C329.148 181.178 329.921 181.836 330.656 182.338C330.385 186.05 329.825 188.738 328.974 190.4C328.162 192.102 326.673 192.952 324.508 192.952C322.149 192.952 320.274 192.044 318.882 190.226C317.49 188.448 316.446 185.973 315.75 182.802C315.054 179.632 314.59 175.978 314.358 171.84C314.126 167.664 313.991 163.198 313.952 158.442ZM281.994 167.374L287.214 165.286C288.026 166.292 288.799 167.432 289.534 168.708C290.269 169.946 290.791 171.048 291.1 172.014L285.532 174.276C285.3 173.31 284.836 172.188 284.14 170.912C283.444 169.598 282.729 168.418 281.994 167.374ZM295.798 181.816L300.09 178.162C301.521 178.936 303.048 179.844 304.672 180.888C306.335 181.894 307.939 182.899 309.486 183.904C311.033 184.91 312.289 185.818 313.256 186.63L308.674 190.806C307.746 189.917 306.547 188.95 305.078 187.906C303.609 186.824 302.062 185.76 300.438 184.716C298.814 183.634 297.267 182.667 295.798 181.816ZM293.188 164.88H299.684V192.952H293.188V164.88ZM305.426 165.112L311.574 166.968C310.569 168.283 309.563 169.578 308.558 170.854C307.553 172.092 306.644 173.174 305.832 174.102L301.424 172.362C301.888 171.705 302.371 170.951 302.874 170.1C303.377 169.211 303.86 168.341 304.324 167.49C304.788 166.601 305.155 165.808 305.426 165.112ZM291.796 175.9L296.9 177.872C295.74 179.806 294.309 181.7 292.608 183.556C290.907 185.374 289.07 187.036 287.098 188.544C285.126 190.052 283.135 191.328 281.124 192.372C280.815 191.831 280.409 191.232 279.906 190.574C279.403 189.956 278.881 189.337 278.34 188.718C277.799 188.1 277.277 187.597 276.774 187.21C278.707 186.476 280.621 185.509 282.516 184.31C284.411 183.112 286.17 181.797 287.794 180.366C289.418 178.897 290.752 177.408 291.796 175.9ZM336.862 143.014H356.408V149.452H336.862V143.014ZM355.77 148.408H390.976V154.73H355.77V148.408ZM337.268 159.254H355.712V165.634H337.268V159.254ZM335.702 179.496C337.442 179.071 339.433 178.549 341.676 177.93C343.919 177.312 346.297 176.654 348.81 175.958C351.323 175.224 353.837 174.489 356.35 173.754L357.278 179.67C353.875 180.792 350.434 181.913 346.954 183.034C343.513 184.156 340.361 185.161 337.5 186.05L335.702 179.496ZM369.516 138.548H376.186V185.238C376.186 186.94 375.973 188.293 375.548 189.298C375.161 190.304 374.465 191.077 373.46 191.618C372.455 192.198 371.198 192.585 369.69 192.778C368.182 192.972 366.345 193.068 364.18 193.068C364.103 192.411 363.929 191.676 363.658 190.864C363.387 190.091 363.078 189.298 362.73 188.486C362.421 187.674 362.111 186.959 361.802 186.34C363.194 186.379 364.509 186.418 365.746 186.456C366.983 186.456 367.815 186.456 368.24 186.456C368.665 186.418 368.975 186.321 369.168 186.166C369.4 185.973 369.516 185.664 369.516 185.238V138.548ZM351.884 180.83C353.74 179.864 356.002 178.607 358.67 177.06C361.338 175.514 364.006 173.928 366.674 172.304L368.82 177.988C366.616 179.574 364.335 181.159 361.976 182.744C359.656 184.33 357.471 185.76 355.422 187.036L351.884 180.83ZM356.234 159.776L361.628 157.398C362.401 158.404 363.155 159.525 363.89 160.762C364.625 161.961 365.301 163.16 365.92 164.358C366.577 165.518 367.061 166.562 367.37 167.49L361.628 170.158C361.357 169.23 360.932 168.167 360.352 166.968C359.772 165.77 359.115 164.532 358.38 163.256C357.684 161.98 356.969 160.82 356.234 159.776ZM384.712 156.76L390.802 159.892C389.951 161.091 389.062 162.309 388.134 163.546C387.245 164.745 386.355 165.905 385.466 167.026C384.615 168.148 383.803 169.134 383.03 169.984L378.1 167.2C378.835 166.272 379.608 165.209 380.42 164.01C381.271 162.812 382.063 161.574 382.798 160.298C383.571 159.022 384.209 157.843 384.712 156.76ZM378.332 142.434L382.16 138.838C383.049 139.418 383.977 140.056 384.944 140.752C385.949 141.448 386.897 142.164 387.786 142.898C388.675 143.633 389.391 144.31 389.932 144.928L385.872 148.93C385.099 148.002 383.977 146.92 382.508 145.682C381.077 144.445 379.685 143.362 378.332 142.434ZM343.358 145.74H350.086V179.438L343.358 180.482V145.74ZM376.012 155.484C376.592 158.81 377.288 161.826 378.1 164.532C378.912 167.239 379.917 169.714 381.116 171.956C382.353 174.16 383.861 176.21 385.64 178.104C387.419 179.96 389.526 181.72 391.962 183.382C391.15 184.001 390.338 184.813 389.526 185.818C388.714 186.824 388.095 187.79 387.67 188.718C384.963 186.669 382.643 184.523 380.71 182.28C378.777 180.038 377.153 177.64 375.838 175.088C374.523 172.498 373.421 169.675 372.532 166.62C371.643 163.566 370.869 160.202 370.212 156.528L376.012 155.484Z" fill="white"/>
<ellipse cx="76.3153" cy="65.906" rx="54.1017" ry="56" fill="#6EE292"/>
<path d="M75.4333 103.9C69.7752 103.9 64.7207 103.001 60.27 101.201C55.8429 99.3785 52.3628 96.9164 49.8296 93.8151C47.3202 90.6901 46.0654 87.1626 46.0654 83.2327C46.0654 80.2261 46.7875 77.468 48.2316 74.9586C49.6758 72.4491 51.6289 70.3658 54.091 68.7086C56.5768 67.0277 59.3467 65.9505 62.4007 65.477V64.9088C58.3997 64.1749 55.1208 62.3165 52.564 59.3336C50.0309 56.3506 48.7643 52.8587 48.7643 48.8577C48.7643 45.0698 49.9125 41.6963 52.2089 38.737C54.529 35.7777 57.6895 33.4458 61.6904 31.7412C65.7151 30.0367 70.296 29.1844 75.4333 29.1844C80.5706 29.1844 85.1398 30.0367 89.1407 31.7412C93.1653 33.4458 96.3258 35.7777 98.6223 38.737C100.942 41.6963 102.102 45.0698 102.102 48.8577C102.102 52.8823 100.812 56.3861 98.2316 59.3691C95.6748 62.3284 92.4196 64.1749 88.466 64.9088V65.477C91.4963 65.9505 94.2425 67.0277 96.7046 68.7086C99.1904 70.3658 101.155 72.4491 102.6 74.9586C104.067 77.468 104.801 80.2261 104.801 83.2327C104.801 87.1626 103.535 90.6901 101.002 93.8151C98.4684 96.9164 94.9883 99.3785 90.5612 101.201C86.1578 103.001 81.1151 103.9 75.4333 103.9ZM75.4333 91.4358C77.5877 91.4358 79.4816 91.0334 81.1151 90.2284C82.7487 89.3999 84.0271 88.2516 84.9504 86.7838C85.8973 85.316 86.3708 83.6588 86.3708 81.8123C86.3708 79.9183 85.8973 78.2374 84.9504 76.7696C84.0034 75.3018 82.7013 74.1536 81.0441 73.325C79.4106 72.4728 77.5403 72.0466 75.4333 72.0466C73.35 72.0466 71.4797 72.4728 69.8225 73.325C68.1653 74.1536 66.8633 75.3018 65.9163 76.7696C64.9693 78.2374 64.4958 79.9183 64.4958 81.8123C64.4958 83.6588 64.9575 85.316 65.8808 86.7838C66.8277 88.228 68.118 89.3643 69.7515 90.1929C71.4087 91.0215 73.3026 91.4358 75.4333 91.4358ZM75.4333 59.6532C77.2799 59.6532 78.9134 59.2744 80.3339 58.5168C81.778 57.7592 82.9026 56.7057 83.7075 55.3563C84.5361 54.0069 84.9504 52.4799 84.9504 50.7753C84.9504 49.0708 84.5361 47.5675 83.7075 46.2654C82.9026 44.9633 81.7899 43.9453 80.3694 43.2114C78.949 42.4538 77.3036 42.075 75.4333 42.075C73.5867 42.075 71.9414 42.4538 70.4972 43.2114C69.0531 43.9453 67.9286 44.9633 67.1237 46.2654C66.3187 47.5675 65.9163 49.0708 65.9163 50.7753C65.9163 52.4799 66.3187 54.0069 67.1237 55.3563C67.9523 56.682 69.0886 57.7355 70.5328 58.5168C71.9769 59.2744 73.6104 59.6532 75.4333 59.6532Z" fill="white"/>
<rect x="443.482" y="132.491" width="100.668" height="92.8848" fill="#6EE292"/>
<path d="M546.221 225.376C546.221 258.756 512.845 255.37 471.673 255.37C430.501 255.37 394.537 260.691 397.125 225.376C397.125 204.001 430.501 186.674 471.673 186.674C512.845 186.674 546.221 204.001 546.221 225.376Z" fill="#6EE292"/>
<ellipse cx="413.174" cy="254.886" rx="16.0485" ry="14.997" fill="#6EE292"/>
<ellipse cx="447.342" cy="254.886" rx="16.0485" ry="14.997" fill="#6EE292"/>
<ellipse cx="494.969" cy="254.886" rx="16.0485" ry="14.997" fill="#6EE292"/>
<ellipse cx="530.172" cy="254.886" rx="16.0485" ry="14.997" fill="#6EE292"/>
<ellipse cx="487.316" cy="228.491" rx="19.322" ry="20" fill="white"/>
<path d="M486.055 230.443C485.969 229.75 486.021 229.143 486.211 228.623C486.419 228.103 486.705 227.635 487.069 227.219C487.451 226.803 487.867 226.422 488.317 226.075C488.785 225.728 489.219 225.39 489.617 225.061C490.033 224.732 490.371 224.394 490.631 224.047C490.891 223.7 491.021 223.319 491.021 222.903C491.021 222.383 490.891 221.941 490.631 221.577C490.371 221.213 489.99 220.936 489.487 220.745C489.002 220.554 488.413 220.459 487.719 220.459C486.922 220.459 486.194 220.632 485.535 220.979C484.877 221.326 484.227 221.837 483.585 222.513L481.453 220.537C482.285 219.584 483.265 218.821 484.391 218.249C485.535 217.66 486.792 217.365 488.161 217.365C489.427 217.365 490.545 217.556 491.515 217.937C492.503 218.318 493.275 218.899 493.829 219.679C494.401 220.442 494.687 221.404 494.687 222.565C494.687 223.206 494.549 223.77 494.271 224.255C494.011 224.723 493.665 225.148 493.231 225.529C492.815 225.893 492.373 226.248 491.905 226.595C491.437 226.924 491.004 227.271 490.605 227.635C490.207 227.999 489.895 228.406 489.669 228.857C489.444 229.308 489.357 229.836 489.409 230.443H486.055ZM487.745 237.359C487.087 237.359 486.541 237.142 486.107 236.709C485.674 236.276 485.457 235.73 485.457 235.071C485.457 234.395 485.674 233.84 486.107 233.407C486.541 232.974 487.087 232.757 487.745 232.757C488.404 232.757 488.95 232.974 489.383 233.407C489.817 233.84 490.033 234.395 490.033 235.071C490.033 235.73 489.817 236.276 489.383 236.709C488.95 237.142 488.404 237.359 487.745 237.359Z" fill="#39BF63"/>
<path d="M471.214 160.951H479.394V170.191H477.094V163.131H473.374V170.271H471.214V160.951ZM473.874 151.531H476.194V161.551H473.874V151.531ZM475.254 155.651H480.074V157.871H475.254V155.651ZM472.354 167.311H478.174V169.491H472.354V167.311ZM463.794 153.711V158.091H468.654V153.711H463.794ZM462.014 152.111H470.514V159.691H462.014V152.111ZM463.754 154.571L464.754 154.291C464.914 154.745 465.054 155.238 465.174 155.771C465.294 156.305 465.367 156.765 465.394 157.151L464.334 157.491C464.32 157.105 464.26 156.638 464.154 156.091C464.047 155.545 463.914 155.038 463.754 154.571ZM464.254 166.051L465.714 165.871C465.834 166.418 465.927 167.018 465.994 167.671C466.074 168.325 466.12 168.891 466.134 169.371L464.594 169.571C464.607 169.091 464.58 168.525 464.514 167.871C464.447 167.205 464.36 166.598 464.254 166.051ZM466.254 165.951L467.674 165.691C467.874 166.225 468.054 166.798 468.214 167.411C468.374 168.011 468.487 168.545 468.554 169.011L467.054 169.311C467.014 168.858 466.914 168.318 466.754 167.691C466.607 167.065 466.44 166.485 466.254 165.951ZM468.194 165.791L469.614 165.251C469.947 165.731 470.26 166.265 470.554 166.851C470.847 167.438 471.054 167.951 471.174 168.391L469.654 169.011C469.547 168.558 469.354 168.031 469.074 167.431C468.807 166.831 468.514 166.285 468.194 165.791ZM462.494 165.931L464.114 166.391C463.994 167.111 463.827 167.825 463.614 168.531C463.414 169.238 463.1 169.825 462.674 170.291L461.114 169.491C461.487 169.065 461.787 168.531 462.014 167.891C462.24 167.238 462.4 166.585 462.494 165.931ZM467.674 154.271L468.874 154.671C468.687 155.151 468.494 155.658 468.294 156.191C468.107 156.725 467.934 157.171 467.774 157.531L466.874 157.191C466.98 156.911 467.08 156.605 467.174 156.271C467.28 155.925 467.38 155.578 467.474 155.231C467.567 154.871 467.634 154.551 467.674 154.271ZM461.554 163.431C462.34 163.418 463.234 163.398 464.234 163.371C465.247 163.331 466.314 163.291 467.434 163.251C468.554 163.211 469.674 163.165 470.794 163.111L470.754 164.991C469.674 165.045 468.58 165.105 467.474 165.171C466.38 165.225 465.334 165.278 464.334 165.331C463.347 165.371 462.44 165.411 461.614 165.451L461.554 163.431ZM462.054 160.551H470.474V162.371H462.054V160.551ZM465.474 152.931H466.914V158.951H467.254V164.171H465.134V158.951H465.474V152.931ZM495.594 153.271L497.394 152.051C497.754 152.358 498.12 152.705 498.494 153.091C498.88 153.465 499.24 153.845 499.574 154.231C499.92 154.605 500.187 154.951 500.374 155.271L498.434 156.611C498.274 156.291 498.034 155.938 497.714 155.551C497.407 155.151 497.067 154.758 496.694 154.371C496.32 153.971 495.954 153.605 495.594 153.271ZM482.494 157.191H500.534V159.451H482.494V157.191ZM482.114 162.831C482.914 162.711 483.847 162.565 484.914 162.391C485.98 162.218 487.107 162.025 488.294 161.811C489.494 161.598 490.674 161.391 491.834 161.191L491.994 163.351C490.927 163.578 489.84 163.805 488.734 164.031C487.64 164.258 486.574 164.478 485.534 164.691C484.507 164.891 483.56 165.078 482.694 165.251L482.114 162.831ZM486.274 153.951H488.694V167.471C488.694 168.125 488.614 168.631 488.454 168.991C488.307 169.351 488.034 169.625 487.634 169.811C487.234 169.998 486.734 170.118 486.134 170.171C485.534 170.238 484.82 170.271 483.994 170.271C483.967 170.045 483.907 169.785 483.814 169.491C483.72 169.198 483.614 168.905 483.494 168.611C483.387 168.318 483.274 168.065 483.154 167.851C483.714 167.878 484.254 167.891 484.774 167.891C485.294 167.891 485.64 167.885 485.814 167.871C485.987 167.871 486.107 167.845 486.174 167.791C486.24 167.725 486.274 167.611 486.274 167.451V153.951ZM490.374 151.631L492.014 153.671C491.147 153.938 490.207 154.178 489.194 154.391C488.18 154.591 487.147 154.771 486.094 154.931C485.054 155.091 484.047 155.225 483.074 155.331C483.034 155.051 482.94 154.711 482.794 154.311C482.66 153.911 482.527 153.578 482.394 153.311C483.327 153.191 484.28 153.045 485.254 152.871C486.227 152.698 487.154 152.505 488.034 152.291C488.914 152.078 489.694 151.858 490.374 151.631ZM492.354 151.651H494.854C494.827 153.265 494.867 154.858 494.974 156.431C495.094 158.005 495.267 159.485 495.494 160.871C495.72 162.245 495.987 163.465 496.294 164.531C496.6 165.585 496.927 166.411 497.274 167.011C497.62 167.611 497.98 167.911 498.354 167.911C498.567 167.911 498.727 167.651 498.834 167.131C498.954 166.611 499.04 165.758 499.094 164.571C499.347 164.838 499.66 165.105 500.034 165.371C500.407 165.625 500.754 165.818 501.074 165.951C500.94 167.125 500.76 168.025 500.534 168.651C500.307 169.291 499.994 169.731 499.594 169.971C499.207 170.225 498.714 170.351 498.114 170.351C497.42 170.351 496.794 170.098 496.234 169.591C495.687 169.098 495.2 168.405 494.774 167.511C494.36 166.618 494 165.578 493.694 164.391C493.4 163.191 493.154 161.898 492.954 160.511C492.754 159.111 492.607 157.658 492.514 156.151C492.42 154.645 492.367 153.145 492.354 151.651ZM497.794 160.111L499.894 161.031C499.214 162.271 498.407 163.425 497.474 164.491C496.54 165.558 495.52 166.525 494.414 167.391C493.307 168.245 492.147 168.991 490.934 169.631C490.76 169.338 490.52 169.011 490.214 168.651C489.92 168.291 489.62 167.978 489.314 167.711C490.46 167.178 491.567 166.531 492.634 165.771C493.714 165.011 494.694 164.151 495.574 163.191C496.454 162.231 497.194 161.205 497.794 160.111ZM507.374 160.351H519.314V170.331H516.914V162.151H509.654V170.331H507.374V160.351ZM503.374 157.611H521.214V159.511H503.374V157.611ZM504.774 154.951H520.114V156.751H504.774V154.951ZM508.914 163.011H517.874V164.511H508.914V163.011ZM508.914 165.391H517.874V166.891H508.914V165.391ZM508.654 167.791H517.894V169.611H508.654V167.791ZM518.654 151.571L520.034 153.271C519.007 153.445 517.88 153.591 516.654 153.711C515.44 153.818 514.174 153.911 512.854 153.991C511.534 154.058 510.207 154.105 508.874 154.131C507.54 154.158 506.254 154.165 505.014 154.151C505 153.898 504.947 153.598 504.854 153.251C504.76 152.905 504.66 152.611 504.554 152.371C505.78 152.371 507.04 152.358 508.334 152.331C509.64 152.291 510.92 152.238 512.174 152.171C513.427 152.105 514.607 152.025 515.714 151.931C516.82 151.825 517.8 151.705 518.654 151.571ZM510.134 153.231L512.614 153.731C512.16 155.385 511.574 156.991 510.854 158.551C510.147 160.111 509.254 161.545 508.174 162.851C507.094 164.145 505.787 165.238 504.254 166.131C504.134 165.945 503.987 165.731 503.814 165.491C503.64 165.251 503.46 165.018 503.274 164.791C503.087 164.565 502.914 164.378 502.754 164.231C504.167 163.458 505.36 162.491 506.334 161.331C507.32 160.158 508.12 158.871 508.734 157.471C509.347 156.071 509.814 154.658 510.134 153.231ZM458.134 188.171H468.634V196.171H466.334V190.351H460.334V196.271H458.134V188.171ZM467.034 177.491L468.874 179.371C467.9 179.745 466.82 180.071 465.634 180.351C464.447 180.618 463.227 180.838 461.974 181.011C460.734 181.185 459.52 181.325 458.334 181.431C458.294 181.151 458.2 180.811 458.054 180.411C457.92 179.998 457.787 179.658 457.654 179.391C458.507 179.298 459.367 179.191 460.234 179.071C461.114 178.951 461.967 178.811 462.794 178.651C463.62 178.491 464.394 178.318 465.114 178.131C465.834 177.931 466.474 177.718 467.034 177.491ZM462.234 179.751H464.514V189.431H462.234V179.751ZM456.894 183.331H469.634V185.611H456.894V183.331ZM459.714 193.271H467.294V195.451H459.714V193.271ZM451.954 179.491L453.314 177.751C453.687 177.938 454.107 178.151 454.574 178.391C455.04 178.631 455.494 178.871 455.934 179.111C456.387 179.351 456.754 179.565 457.034 179.751L455.614 181.691C455.347 181.491 455 181.265 454.574 181.011C454.147 180.758 453.7 180.498 453.234 180.231C452.767 179.951 452.34 179.705 451.954 179.491ZM450.994 185.031L452.294 183.251C452.667 183.411 453.094 183.611 453.574 183.851C454.054 184.091 454.52 184.331 454.974 184.571C455.427 184.798 455.794 185.005 456.074 185.191L454.734 187.191C454.467 186.991 454.114 186.765 453.674 186.511C453.247 186.258 452.794 185.998 452.314 185.731C451.834 185.465 451.394 185.231 450.994 185.031ZM451.294 194.431C451.654 193.925 452.047 193.331 452.474 192.651C452.914 191.958 453.36 191.225 453.814 190.451C454.267 189.665 454.694 188.885 455.094 188.111L456.854 189.711C456.507 190.405 456.134 191.118 455.734 191.851C455.347 192.585 454.947 193.305 454.534 194.011C454.134 194.718 453.727 195.398 453.314 196.051L451.294 194.431ZM472.254 190.431H481.594V192.131H472.254V190.431ZM471.814 180.911H481.814V182.651H471.814V180.911ZM475.774 179.511H477.954V193.851H475.774V179.511ZM471.694 193.611C472.534 193.558 473.494 193.491 474.574 193.411C475.654 193.331 476.794 193.245 477.994 193.151C479.207 193.045 480.414 192.938 481.614 192.831L481.634 194.651C480.5 194.771 479.354 194.891 478.194 195.011C477.047 195.131 475.94 195.238 474.874 195.331C473.82 195.438 472.854 195.538 471.974 195.631L471.694 193.611ZM474.234 187.251V188.151H479.514V187.251H474.234ZM474.234 184.931V185.831H479.514V184.931H474.234ZM472.334 183.431H481.494V189.651H472.334V183.431ZM480.534 177.611L481.574 179.391C480.734 179.565 479.787 179.718 478.734 179.851C477.694 179.971 476.627 180.071 475.534 180.151C474.44 180.218 473.394 180.265 472.394 180.291C472.354 180.038 472.28 179.751 472.174 179.431C472.08 179.098 471.974 178.811 471.854 178.571C472.6 178.531 473.367 178.485 474.154 178.431C474.94 178.365 475.714 178.291 476.474 178.211C477.247 178.131 477.974 178.045 478.654 177.951C479.347 177.845 479.974 177.731 480.534 177.611ZM481.794 182.031H488.734V184.231H481.794V182.031ZM487.754 182.031H490.054C490.054 182.031 490.054 182.098 490.054 182.231C490.054 182.365 490.054 182.518 490.054 182.691C490.054 182.851 490.054 182.985 490.054 183.091C490 185.145 489.947 186.891 489.894 188.331C489.84 189.758 489.78 190.938 489.714 191.871C489.66 192.791 489.574 193.511 489.454 194.031C489.347 194.551 489.214 194.925 489.054 195.151C488.827 195.485 488.587 195.718 488.334 195.851C488.094 195.998 487.807 196.105 487.474 196.171C487.167 196.225 486.794 196.251 486.354 196.251C485.914 196.265 485.454 196.265 484.974 196.251C484.96 195.918 484.887 195.531 484.754 195.091C484.634 194.651 484.48 194.271 484.294 193.951C484.72 193.991 485.114 194.018 485.474 194.031C485.834 194.045 486.107 194.051 486.294 194.051C486.454 194.051 486.587 194.025 486.694 193.971C486.8 193.918 486.9 193.831 486.994 193.711C487.1 193.551 487.194 193.245 487.274 192.791C487.354 192.325 487.42 191.665 487.474 190.811C487.54 189.945 487.594 188.831 487.634 187.471C487.687 186.111 487.727 184.465 487.754 182.531V182.031ZM483.714 177.831H486.014C486.014 179.538 485.994 181.158 485.954 182.691C485.927 184.225 485.84 185.671 485.694 187.031C485.56 188.378 485.327 189.631 484.994 190.791C484.674 191.938 484.22 192.985 483.634 193.931C483.047 194.878 482.294 195.711 481.374 196.431C481.254 196.231 481.094 196.018 480.894 195.791C480.707 195.565 480.507 195.345 480.294 195.131C480.094 194.931 479.894 194.765 479.694 194.631C480.534 193.991 481.214 193.258 481.734 192.431C482.254 191.591 482.654 190.665 482.934 189.651C483.214 188.625 483.407 187.505 483.514 186.291C483.62 185.065 483.68 183.751 483.694 182.351C483.707 180.938 483.714 179.431 483.714 177.831ZM503.314 185.011V187.131H507.634V185.011H503.314ZM501.114 182.971H509.974V189.191H501.114V182.971ZM505.754 188.591H508.014V193.391C508.014 193.671 508.034 193.851 508.074 193.931C508.114 193.998 508.207 194.031 508.354 194.031C508.394 194.031 508.46 194.031 508.554 194.031C508.66 194.031 508.76 194.031 508.854 194.031C508.96 194.031 509.04 194.031 509.094 194.031C509.2 194.031 509.28 193.971 509.334 193.851C509.4 193.731 509.447 193.498 509.474 193.151C509.514 192.791 509.54 192.245 509.554 191.511C509.7 191.631 509.887 191.751 510.114 191.871C510.354 191.991 510.6 192.098 510.854 192.191C511.12 192.285 511.354 192.358 511.554 192.411C511.5 193.398 511.387 194.158 511.214 194.691C511.054 195.238 510.82 195.611 510.514 195.811C510.22 196.025 509.827 196.131 509.334 196.131C509.254 196.131 509.147 196.131 509.014 196.131C508.894 196.131 508.767 196.131 508.634 196.131C508.514 196.131 508.394 196.131 508.274 196.131C508.154 196.131 508.047 196.131 507.954 196.131C507.354 196.131 506.894 196.045 506.574 195.871C506.254 195.698 506.034 195.411 505.914 195.011C505.807 194.625 505.754 194.091 505.754 193.411V188.591ZM502.394 188.891H504.754C504.7 189.758 504.594 190.565 504.434 191.311C504.287 192.045 504.054 192.725 503.734 193.351C503.414 193.978 502.967 194.538 502.394 195.031C501.834 195.525 501.1 195.958 500.194 196.331C500.114 196.131 499.994 195.911 499.834 195.671C499.674 195.445 499.507 195.218 499.334 194.991C499.16 194.765 498.987 194.578 498.814 194.431C499.574 194.165 500.18 193.851 500.634 193.491C501.087 193.118 501.434 192.705 501.674 192.251C501.914 191.785 502.08 191.278 502.174 190.731C502.28 190.171 502.354 189.558 502.394 188.891ZM502.974 178.051H507.814V180.211H502.974V178.051ZM501.574 179.831L503.914 180.431C503.58 181.245 503.174 182.078 502.694 182.931C502.227 183.771 501.707 184.478 501.134 185.051C500.894 184.838 500.594 184.611 500.234 184.371C499.874 184.118 499.56 183.918 499.294 183.771C499.8 183.265 500.254 182.645 500.654 181.911C501.067 181.165 501.374 180.471 501.574 179.831ZM505.994 178.051H508.474C508.674 178.691 508.934 179.331 509.254 179.971C509.574 180.598 509.934 181.191 510.334 181.751C510.734 182.311 511.147 182.785 511.574 183.171C511.374 183.291 511.14 183.438 510.874 183.611C510.62 183.785 510.374 183.971 510.134 184.171C509.894 184.358 509.694 184.531 509.534 184.691C508.88 183.971 508.287 183.118 507.754 182.131C507.22 181.145 506.78 180.151 506.434 179.151H505.994V178.051ZM493.434 183.631H499.474V185.451H493.434V183.631ZM493.514 178.131H499.434V179.931H493.514V178.131ZM493.434 186.371H499.474V188.171H493.434V186.371ZM492.494 180.811H500.134V182.711H492.494V180.811ZM494.474 189.131H499.514V195.231H494.474V193.331H497.454V191.031H494.474V189.131ZM493.394 189.131H495.414V196.011H493.394V189.131ZM515.334 178.591H521.094V190.871H515.334V188.691H518.874V180.771H515.334V178.591ZM515.374 183.591H519.734V185.731H515.374V183.591ZM523.914 178.311H530.034V180.531H523.914V178.311ZM523.914 183.071H530.034V185.231H523.914V183.071ZM523.874 187.811H530.014V189.971H523.874V187.811ZM514.074 178.591H516.294V192.611H514.074V178.591ZM529.154 178.311H531.534V193.531C531.534 194.158 531.454 194.645 531.294 194.991C531.147 195.351 530.874 195.631 530.474 195.831C530.074 196.018 529.58 196.138 528.994 196.191C528.407 196.245 527.694 196.271 526.854 196.271C526.814 196.045 526.747 195.785 526.654 195.491C526.574 195.211 526.474 194.931 526.354 194.651C526.247 194.385 526.134 194.151 526.014 193.951C526.374 193.965 526.734 193.978 527.094 193.991C527.454 193.991 527.774 193.991 528.054 193.991C528.347 193.978 528.547 193.971 528.654 193.971C528.84 193.971 528.967 193.938 529.034 193.871C529.114 193.805 529.154 193.685 529.154 193.511V178.311ZM522.474 178.311H524.834V185.571C524.834 186.425 524.78 187.345 524.674 188.331C524.567 189.318 524.367 190.305 524.074 191.291C523.794 192.265 523.374 193.198 522.814 194.091C522.254 194.971 521.514 195.751 520.594 196.431C520.474 196.271 520.3 196.085 520.074 195.871C519.86 195.671 519.634 195.471 519.394 195.271C519.167 195.071 518.96 194.925 518.774 194.831C519.627 194.205 520.3 193.518 520.794 192.771C521.287 192.011 521.654 191.225 521.894 190.411C522.134 189.585 522.287 188.758 522.354 187.931C522.434 187.105 522.474 186.311 522.474 185.551V178.311Z" fill="white"/>
</svg>
