<svg width="570" height="314" viewBox="0 0 570 314" fill="none" xmlns="http://www.w3.org/2000/svg">
<path d="M-0.00146484 31.6284H539.999C556.567 31.6284 569.999 45.0599 569.999 61.6284V314H29.9985C13.43 314 -0.00146484 300.569 -0.00146484 284V31.6284Z" fill="#FF5F17"/>
<line x1="347.795" y1="221.5" x2="38.6426" y2="221.5" stroke="white"/>
<path d="M159.165 79.296H176.157V81.984H159.165V79.296ZM158.653 87.008H176.765V89.696H158.653V87.008ZM158.493 98.976H176.797V101.696H158.493V98.976ZM159.933 83.168H175.677V85.728H159.933V83.168ZM162.653 76.832H165.981V88.192H162.653V76.832ZM169.277 76.832H172.669V88.192H169.277V76.832ZM165.981 88.256H169.309V99.744H165.981V88.256ZM171.805 90.912H175.293V103.392C175.293 104.181 175.197 104.8 175.005 105.248C174.834 105.717 174.482 106.08 173.949 106.336C173.394 106.592 172.733 106.741 171.965 106.784C171.218 106.848 170.311 106.88 169.245 106.88C169.181 106.411 169.053 105.888 168.861 105.312C168.669 104.736 168.466 104.235 168.253 103.808C168.871 103.829 169.479 103.84 170.077 103.84C170.695 103.84 171.101 103.84 171.293 103.84C171.485 103.84 171.613 103.808 171.677 103.744C171.762 103.659 171.805 103.531 171.805 103.36V90.912ZM160.189 90.912H173.309V93.6H163.613V106.912H160.189V90.912ZM161.885 95.04H173.277V97.44H161.885V95.04ZM149.821 98.976L153.149 99.744C152.743 101.088 152.199 102.411 151.517 103.712C150.834 104.992 150.109 106.069 149.341 106.944C149.149 106.752 148.871 106.539 148.509 106.304C148.146 106.069 147.783 105.835 147.421 105.6C147.058 105.365 146.749 105.184 146.493 105.056C147.218 104.288 147.869 103.36 148.445 102.272C149.042 101.184 149.501 100.085 149.821 98.976ZM153.565 100.128L156.413 98.912C156.946 99.7227 157.469 100.619 157.981 101.6C158.514 102.56 158.919 103.403 159.197 104.128L156.221 105.536C156.071 105.045 155.847 104.491 155.549 103.872C155.271 103.232 154.962 102.592 154.621 101.952C154.279 101.291 153.927 100.683 153.565 100.128ZM151.549 86.848V89.856H154.717V86.848H151.549ZM151.549 92.672V95.68H154.717V92.672H151.549ZM151.549 81.056V84H154.717V81.056H151.549ZM148.285 78.016H158.077V98.752H148.285V78.016ZM200.189 80.992V83.2H204.221V80.992H200.189ZM193.085 80.992V83.2H196.989V80.992H193.085ZM186.077 80.992V83.2H189.885V80.992H186.077ZM182.525 78.144H207.965V86.048H182.525V78.144ZM188.125 93.632V95.2H202.173V93.632H188.125ZM188.125 97.472V99.072H202.173V97.472H188.125ZM188.125 89.824V91.36H202.173V89.824H188.125ZM184.253 87.392H206.205V101.472H184.253V87.392ZM196.925 103.168L199.997 101.216C201.191 101.6 202.407 102.016 203.645 102.464C204.903 102.912 206.098 103.36 207.229 103.808C208.359 104.235 209.33 104.629 210.141 104.992L205.981 106.912C205.319 106.549 204.498 106.155 203.517 105.728C202.557 105.301 201.511 104.864 200.381 104.416C199.25 103.968 198.098 103.552 196.925 103.168ZM189.853 101.184L193.341 102.752C192.466 103.328 191.442 103.883 190.269 104.416C189.095 104.949 187.879 105.429 186.621 105.856C185.383 106.304 184.21 106.688 183.101 107.008C182.887 106.731 182.61 106.411 182.269 106.048C181.927 105.707 181.575 105.365 181.213 105.024C180.85 104.683 180.53 104.405 180.253 104.192C181.405 103.979 182.578 103.723 183.773 103.424C184.967 103.104 186.087 102.752 187.133 102.368C188.199 101.984 189.106 101.589 189.853 101.184ZM216.861 82.88H224.861V85.6H216.861V82.88ZM231.645 82.88H239.709V85.6H231.645V82.88ZM238.173 78.08H242.077V102.208C242.077 103.317 241.938 104.171 241.661 104.768C241.383 105.387 240.903 105.845 240.221 106.144C239.517 106.464 238.621 106.656 237.533 106.72C236.445 106.805 235.122 106.848 233.565 106.848C233.522 106.485 233.426 106.059 233.277 105.568C233.127 105.099 232.957 104.619 232.765 104.128C232.594 103.659 232.402 103.253 232.189 102.912C232.871 102.955 233.565 102.987 234.269 103.008C234.973 103.008 235.591 103.008 236.125 103.008C236.679 103.008 237.063 103.008 237.277 103.008C237.618 103.008 237.853 102.944 237.981 102.816C238.109 102.688 238.173 102.475 238.173 102.176V78.08ZM217.149 78.08H227.229V90.528H217.149V87.424H223.645V81.184H217.149V78.08ZM240.253 78.08V81.184H233.085V87.52H240.253V90.592H229.437V78.08H240.253ZM214.973 78.08H218.781V106.88H214.973V78.08ZM265.757 101.28L268.573 99.392C269.405 99.7973 270.279 100.288 271.197 100.864C272.114 101.44 272.999 102.016 273.853 102.592C274.706 103.168 275.421 103.712 275.997 104.224L272.925 106.368C272.434 105.877 271.783 105.333 270.973 104.736C270.183 104.139 269.33 103.541 268.413 102.944C267.495 102.325 266.61 101.771 265.757 101.28ZM251.037 91.776H272.381V94.688H251.037V91.776ZM247.229 96.032H276.253V99.04H247.229V96.032ZM247.677 77.856H275.613V80.896H247.677V77.856ZM259.773 96.576H263.645V103.2C263.645 104.053 263.538 104.725 263.325 105.216C263.133 105.707 262.738 106.08 262.141 106.336C261.543 106.592 260.839 106.752 260.029 106.816C259.239 106.88 258.311 106.912 257.245 106.912C257.181 106.4 257.031 105.813 256.797 105.152C256.562 104.512 256.327 103.957 256.093 103.488C256.733 103.509 257.362 103.531 257.981 103.552C258.599 103.552 259.015 103.541 259.229 103.52C259.442 103.52 259.581 103.488 259.645 103.424C259.73 103.36 259.773 103.243 259.773 103.072V96.576ZM253.565 99.296L257.085 100.512C256.487 101.301 255.783 102.08 254.973 102.848C254.162 103.616 253.309 104.331 252.413 104.992C251.538 105.653 250.685 106.229 249.853 106.72C249.639 106.485 249.362 106.197 249.021 105.856C248.679 105.536 248.327 105.216 247.965 104.896C247.602 104.597 247.282 104.352 247.005 104.16C248.263 103.584 249.479 102.869 250.653 102.016C251.847 101.141 252.818 100.235 253.565 99.296ZM253.085 85.312V87.712H270.109V85.312H253.085ZM249.533 82.592H273.917V90.464H249.533V82.592ZM256.317 79.04H259.837V89.344H256.317V79.04ZM263.165 79.04H266.781V89.344H263.165V79.04ZM297.272 88.928H317.72V92.384H297.272V88.928ZM298.392 82.464H316.632V85.856H298.392V82.464ZM305.144 84.128H308.984V89.248C308.984 90.272 308.856 91.3387 308.6 92.448C308.365 93.5573 307.917 94.6667 307.256 95.776C306.616 96.864 305.688 97.92 304.472 98.944C303.277 99.9467 301.73 100.864 299.832 101.696C299.661 101.419 299.426 101.109 299.128 100.768C298.829 100.427 298.52 100.085 298.2 99.744C297.88 99.4027 297.57 99.1253 297.272 98.912C299.085 98.2507 300.514 97.5147 301.56 96.704C302.626 95.8933 303.405 95.0507 303.896 94.176C304.408 93.3013 304.738 92.448 304.888 91.616C305.058 90.7627 305.144 89.9627 305.144 89.216V84.128ZM309.56 91.36C310.221 93.1307 311.224 94.6347 312.568 95.872C313.933 97.088 315.682 97.9627 317.816 98.496C317.538 98.752 317.24 99.072 316.92 99.456C316.621 99.84 316.333 100.235 316.056 100.64C315.8 101.024 315.576 101.387 315.384 101.728C313.037 100.96 311.138 99.7547 309.688 98.112C308.237 96.4693 307.117 94.4533 306.328 92.064L309.56 91.36ZM295.992 89.28V101.088H292.248V92.832H288.536V89.28H295.992ZM295.992 99.424C296.653 100.469 297.581 101.237 298.776 101.728C299.97 102.219 301.4 102.496 303.064 102.56C304.002 102.603 305.112 102.635 306.392 102.656C307.693 102.656 309.058 102.645 310.488 102.624C311.917 102.603 313.314 102.56 314.68 102.496C316.066 102.432 317.293 102.357 318.36 102.272C318.232 102.571 318.082 102.955 317.912 103.424C317.741 103.893 317.581 104.373 317.432 104.864C317.304 105.355 317.208 105.792 317.144 106.176C316.184 106.24 315.085 106.283 313.848 106.304C312.61 106.347 311.341 106.368 310.04 106.368C308.738 106.389 307.48 106.389 306.264 106.368C305.048 106.347 303.96 106.315 303 106.272C301.037 106.187 299.362 105.877 297.976 105.344C296.589 104.832 295.362 103.957 294.296 102.72C293.592 103.317 292.866 103.936 292.12 104.576C291.394 105.216 290.594 105.877 289.72 106.56L287.832 102.56C288.578 102.112 289.357 101.621 290.168 101.088C290.978 100.555 291.757 100 292.504 99.424H295.992ZM288.568 79.872L291.416 77.568C292.077 77.9947 292.749 78.496 293.432 79.072C294.114 79.6267 294.754 80.2027 295.352 80.8C295.949 81.376 296.429 81.9093 296.792 82.4L293.752 84.96C293.432 84.448 292.984 83.8933 292.408 83.296C291.853 82.6987 291.234 82.1013 290.552 81.504C289.869 80.8853 289.208 80.3413 288.568 79.872ZM311.768 76.8L315.672 78.016C315.096 78.9333 314.498 79.84 313.88 80.736C313.282 81.6107 312.728 82.3573 312.216 82.976L309.08 81.888C309.4 81.3973 309.73 80.864 310.072 80.288C310.413 79.6907 310.733 79.0933 311.032 78.496C311.33 77.8773 311.576 77.312 311.768 76.8ZM299.224 78.208L302.456 76.864C303.053 77.5893 303.618 78.4107 304.152 79.328C304.685 80.2453 305.058 81.056 305.272 81.76L301.816 83.232C301.645 82.5493 301.304 81.7387 300.792 80.8C300.301 79.84 299.778 78.976 299.224 78.208Z" fill="white"/>
<path d="M38.5965 240.176H60.4365V242.792H38.5965V240.176ZM41.4285 248.36H47.6685V250.472H41.4285V248.36ZM41.4285 252.032H47.6685V254.168H41.4285V252.032ZM51.4845 244.688H54.1485V254.528H51.4845V244.688ZM46.6605 244.448H49.4445V256.328C49.4445 257.552 49.2045 258.224 48.3885 258.632C47.5965 259.064 46.4925 259.088 45.0045 259.088C44.8605 258.368 44.4525 257.312 44.0925 256.64C44.9805 256.688 45.9645 256.688 46.2525 256.664C46.5645 256.664 46.6605 256.568 46.6605 256.28V244.448ZM56.3085 244.04H59.1405V256.016C59.1405 257.408 58.8765 258.152 57.9165 258.584C57.0045 259.016 55.7085 259.112 53.9325 259.088C53.7885 258.32 53.3325 257.096 52.9245 256.352C54.1485 256.424 55.3965 256.424 55.8045 256.4C56.1885 256.4 56.3085 256.304 56.3085 255.968V244.04ZM41.9085 237.56L44.6445 236.6C45.5085 237.536 46.4685 238.808 46.8765 239.72L43.9725 240.752C43.6365 239.888 42.7485 238.52 41.9085 237.56ZM54.2205 236.552L57.3645 237.488C56.3805 239.024 55.3245 240.56 54.4845 241.616L51.8925 240.728C52.7085 239.6 53.6925 237.848 54.2205 236.552ZM39.9165 244.448H47.4765V246.848H42.6285V259.016H39.9165V244.448ZM70.7606 257.239C69.806 257.239 68.8912 257.085 68.0162 256.778C67.1412 256.466 66.3628 255.972 65.681 255.295C64.9992 254.614 64.4623 253.722 64.0702 252.619C63.6782 251.511 63.485 250.162 63.4907 248.571C63.4963 247.134 63.6725 245.844 64.0191 244.702C64.3657 243.554 64.86 242.58 65.502 241.778C66.1498 240.977 66.9225 240.366 67.8202 239.946C68.7236 239.52 69.7321 239.307 70.8458 239.307C72.0674 239.307 73.1441 239.545 74.0759 240.023C75.0134 240.494 75.7634 241.131 76.3259 241.932C76.8884 242.727 77.2208 243.614 77.3231 244.591H73.1725C73.0475 244.04 72.7719 243.622 72.3458 243.338C71.9253 243.048 71.4253 242.903 70.8458 242.903C69.7776 242.903 68.9793 243.366 68.4509 244.293C67.9282 245.219 67.6611 246.457 67.6498 248.009H67.7606C67.9992 247.486 68.3429 247.037 68.7918 246.662C69.2407 246.287 69.7549 246 70.3344 245.801C70.9196 245.597 71.539 245.494 72.1924 245.494C73.2378 245.494 74.1611 245.736 74.9623 246.219C75.7634 246.702 76.3912 247.364 76.8458 248.205C77.3003 249.04 77.5248 249.997 77.5191 251.077C77.5248 252.293 77.2407 253.366 76.6668 254.298C76.0929 255.224 75.2975 255.946 74.2804 256.463C73.2691 256.98 72.0958 257.239 70.7606 257.239ZM70.735 254C71.252 254 71.7151 253.878 72.1242 253.634C72.5333 253.389 72.8543 253.057 73.0873 252.636C73.3202 252.216 73.4339 251.741 73.4282 251.213C73.4339 250.679 73.3202 250.205 73.0873 249.79C72.86 249.375 72.5418 249.045 72.1327 248.801C71.7293 248.557 71.2662 248.435 70.7435 248.435C70.3628 248.435 70.0077 248.506 69.6782 248.648C69.3486 248.79 69.0617 248.989 68.8174 249.244C68.5787 249.494 68.3912 249.79 68.2549 250.131C68.1185 250.466 68.0475 250.83 68.0418 251.222C68.0475 251.739 68.1668 252.207 68.3998 252.628C68.6327 253.048 68.9509 253.384 69.3543 253.634C69.7577 253.878 70.2179 254 70.735 254ZM88.0906 257.426C86.5679 257.426 85.2554 257.065 84.1531 256.344C83.0508 255.616 82.2014 254.574 81.6048 253.216C81.0082 251.852 80.7127 250.213 80.7184 248.298C80.7241 246.384 81.0224 244.759 81.6133 243.423C82.2099 242.082 83.0565 241.062 84.1531 240.364C85.2554 239.659 86.5679 239.307 88.0906 239.307C89.6133 239.307 90.9258 239.659 92.0281 240.364C93.136 241.062 93.9883 242.082 94.5849 243.423C95.1815 244.764 95.4769 246.389 95.4713 248.298C95.4713 250.219 95.173 251.861 94.5764 253.224C93.9798 254.588 93.1304 255.631 92.0281 256.352C90.9315 257.068 89.619 257.426 88.0906 257.426ZM88.0906 253.974C88.9997 253.974 89.7355 253.511 90.298 252.585C90.8605 251.653 91.1389 250.224 91.1332 248.298C91.1332 247.037 91.0054 245.997 90.7497 245.179C90.494 244.355 90.1389 243.741 89.6843 243.338C89.2298 242.935 88.6985 242.733 88.0906 242.733C87.1872 242.733 86.4571 243.19 85.9002 244.105C85.3434 245.014 85.0622 246.412 85.0565 248.298C85.0508 249.577 85.173 250.636 85.423 251.477C85.6787 252.318 86.0366 252.946 86.4968 253.361C86.9571 253.77 87.4883 253.974 88.0906 253.974ZM106.066 257.426C104.543 257.426 103.231 257.065 102.129 256.344C101.026 255.616 100.177 254.574 99.5804 253.216C98.9838 251.852 98.6884 250.213 98.6941 248.298C98.6997 246.384 98.998 244.759 99.5889 243.423C100.186 242.082 101.032 241.062 102.129 240.364C103.231 239.659 104.543 239.307 106.066 239.307C107.589 239.307 108.901 239.659 110.004 240.364C111.112 241.062 111.964 242.082 112.561 243.423C113.157 244.764 113.453 246.389 113.447 248.298C113.447 250.219 113.149 251.861 112.552 253.224C111.955 254.588 111.106 255.631 110.004 256.352C108.907 257.068 107.595 257.426 106.066 257.426ZM106.066 253.974C106.975 253.974 107.711 253.511 108.274 252.585C108.836 251.653 109.115 250.224 109.109 248.298C109.109 247.037 108.981 245.997 108.725 245.179C108.47 244.355 108.115 243.741 107.66 243.338C107.205 242.935 106.674 242.733 106.066 242.733C105.163 242.733 104.433 243.19 103.876 244.105C103.319 245.014 103.038 246.412 103.032 248.298C103.026 249.577 103.149 250.636 103.399 251.477C103.654 252.318 104.012 252.946 104.472 253.361C104.933 253.77 105.464 253.974 106.066 253.974ZM124.68 255.608H135.432V258.224H124.68V255.608ZM123.48 238.976H131.976V241.52H123.48V238.976ZM124.104 236.48L127.344 237.128C125.304 240.632 122.424 243.848 118.104 246.44C117.696 245.72 116.736 244.664 116.088 244.16C120.048 242.072 122.712 239.144 124.104 236.48ZM131.064 238.976H131.616L132.096 238.832L134.088 239.888C131.28 247.352 124.872 252.248 117.72 254.648C117.36 253.856 116.64 252.68 116.04 252.08C122.664 250.16 128.856 245.504 131.064 239.456V238.976ZM120.336 244.256L122.472 242.384C124.128 243.56 126.312 245.264 127.368 246.512L125.04 248.6C124.128 247.352 121.992 245.504 120.336 244.256ZM134.088 248.288H137.088V259.184H134.088V248.288ZM125.904 248.288H135.528V250.904H125.904V259.136H123.024V250.424L125.208 248.288H125.904ZM155.184 254.216H161.352V257H155.184V254.216ZM141.672 240.92H150.48V243.752H141.672V240.92ZM153.912 239.36H162.648V258.488H159.744V242.144H156.672V258.68H153.912V239.36ZM149.76 240.92H152.544C152.544 240.92 152.544 241.88 152.544 242.24C152.328 252.512 152.16 256.208 151.392 257.336C150.84 258.128 150.336 258.416 149.544 258.56C148.824 258.728 147.744 258.728 146.64 258.68C146.592 257.84 146.28 256.592 145.8 255.776C146.76 255.872 147.624 255.872 148.08 255.872C148.44 255.896 148.656 255.776 148.896 255.44C149.4 254.72 149.592 251.264 149.76 241.568V240.92ZM144.528 236.96H147.36C147.336 246.416 147.24 254.384 143.088 259.16C142.632 258.464 141.672 257.504 140.952 257.048C144.696 252.824 144.504 245.744 144.528 236.96ZM178.032 245.552V246.92H185.424V245.552H178.032ZM178.032 242.384V243.728H185.424V242.384H178.032ZM175.536 240.392H187.992V248.912H175.536V240.392ZM176.544 249.968H187.152V259.16H184.416V252.08H179.136V259.16H176.544V249.968ZM184.656 236.6L187.512 237.44C186.792 238.736 186.024 239.984 185.424 240.848L183.024 240.056C183.6 239.096 184.296 237.656 184.656 236.6ZM176.256 237.584L178.656 236.672C179.328 237.68 180.072 239.048 180.336 239.96L177.816 240.992C177.552 240.08 176.904 238.64 176.256 237.584ZM178.104 253.232H185.568V255.248H178.104V253.232ZM178.104 256.424H185.568V258.488H178.104V256.424ZM180.336 241.376H182.904V247.712H180.336V241.376ZM168.408 253.232L170.928 253.832C170.304 255.848 169.2 257.912 168.072 259.208C167.568 258.824 166.512 258.128 165.912 257.792C167.016 256.664 167.952 254.936 168.408 253.232ZM171.24 254.096L173.352 253.184C174.168 254.408 175.056 256.04 175.44 257.096L173.232 258.152C172.872 257.072 172.008 255.368 171.24 254.096ZM169.704 244.16V246.392H172.08V244.16H169.704ZM169.704 248.504V250.784H172.08V248.504H169.704ZM169.704 239.816V242.024H172.08V239.816H169.704ZM167.256 237.512H174.6V253.064H167.256V237.512ZM191.976 238.928L193.608 236.84C194.904 237.416 196.584 238.352 197.4 239.12L195.696 241.424C194.952 240.632 193.296 239.576 191.976 238.928ZM191.064 245.336L192.672 243.224C193.968 243.752 195.648 244.64 196.464 245.384L194.784 247.688C194.016 246.944 192.384 245.936 191.064 245.336ZM191.472 257.432C192.408 255.56 193.656 252.512 194.616 249.704L196.944 251.192C196.104 253.76 195.072 256.544 194.088 258.896L191.472 257.432ZM196.584 256.016C199.128 255.632 203.064 254.864 206.784 254.168L207 256.472C203.616 257.24 199.968 257.984 197.28 258.56L196.584 256.016ZM198 251.504L200.28 250.856C200.832 251.96 201.288 253.472 201.408 254.48L198.984 255.248C198.912 254.24 198.504 252.656 198 251.504ZM197.136 238.376H206.448V240.68H197.136V238.376ZM197.568 242H205.92V244.232H197.568V242ZM200.352 236.744H203.088V243.704H200.352V236.744ZM202.992 250.784L205.752 251.336C205.296 252.656 204.864 254.024 204.504 254.936L202.224 254.384C202.512 253.376 202.848 251.864 202.992 250.784ZM200.208 247.208V248.792H203.208V247.208H200.208ZM197.76 245.288H205.776V250.712H197.76V245.288ZM210.432 236.984L213.024 237.872C211.752 240.296 209.832 242.504 207.816 243.992C207.36 243.392 206.544 242.576 205.824 242.072C207.576 240.92 209.472 238.904 210.432 236.984ZM210.6 243.824L213.24 244.76C211.872 247.16 209.784 249.248 207.528 250.688C207.096 250.04 206.28 249.2 205.584 248.696C207.528 247.616 209.592 245.744 210.6 243.824ZM210.864 250.568L213.576 251.288C212.256 254.792 210.024 257.408 206.736 259.136C206.352 258.488 205.584 257.6 204.96 257.072C207.744 255.8 209.832 253.448 210.864 250.568ZM216.936 238.928L218.568 236.84C219.864 237.416 221.544 238.352 222.36 239.12L220.656 241.424C219.912 240.632 218.256 239.576 216.936 238.928ZM216.024 245.336L217.632 243.224C218.928 243.752 220.608 244.64 221.424 245.384L219.744 247.688C218.976 246.944 217.344 245.936 216.024 245.336ZM216.432 257.432C217.368 255.56 218.616 252.512 219.576 249.704L221.904 251.192C221.064 253.76 220.032 256.544 219.048 258.896L216.432 257.432ZM229.704 237.8H238.464V240.416H229.704V237.8ZM230.016 242.432H238.08V245.024H230.016V242.432ZM222.192 243.632H229.608V246.224H222.192V243.632ZM230.016 247.112H238.08V249.704H230.016V247.112ZM228.792 251.792H238.632V254.408H228.792V251.792ZM232.632 239.288H235.392V259.136H232.632V239.288ZM228.096 236.744L230.16 238.952C227.928 239.984 225.024 240.728 222.504 241.184C222.384 240.56 221.976 239.576 221.664 238.976C223.992 238.448 226.512 237.608 228.096 236.744ZM221.616 249.872C223.68 249.632 226.728 249.152 229.68 248.696L229.8 251.096C227.112 251.624 224.28 252.128 222.048 252.512L221.616 249.872ZM224.736 238.928H227.352V247.736C227.352 252.104 226.944 256.352 223.632 259.376C223.128 258.824 222.048 257.984 221.376 257.6C224.376 254.984 224.736 251.456 224.736 247.712V238.928ZM250.752 248.168H253.728V259.136H250.752V248.168ZM246.576 244.232V245.984H257.904V244.232H246.576ZM246.576 240.152V241.88H257.904V240.152H246.576ZM243.744 237.632H260.88V248.528H243.744V237.632ZM241.368 251.24H263.4V254H241.368V251.24ZM269.376 250.496H285.816V252.536H269.376V250.496ZM270.84 247.424H288.264V249.416H270.84V247.424ZM270.912 241.472H283.344V243.248H270.912V241.472ZM284.952 250.496H287.664C287.664 250.496 287.64 251.144 287.616 251.48C287.304 255.8 286.944 257.624 286.344 258.32C285.84 258.848 285.336 259.04 284.64 259.136C284.04 259.208 283.032 259.232 281.928 259.184C281.904 258.488 281.616 257.504 281.256 256.88C282.12 256.952 282.912 256.952 283.272 256.952C283.632 256.952 283.824 256.928 284.04 256.712C284.4 256.28 284.736 254.768 284.952 250.856V250.496ZM275.496 236.48L278.952 236.744C278.448 237.92 277.752 239.024 277.296 239.768L274.752 239.336C275.04 238.472 275.376 237.32 275.496 236.48ZM271.104 238.424H284.88V246.368H271.104V244.4H282.048V240.416H271.104V238.424ZM269.376 238.424H272.232V251.432H269.376V238.424ZM275.784 253.904L277.944 253.376C278.52 254.624 279.024 256.28 279.168 257.312L276.84 257.936C276.744 256.88 276.288 255.176 275.784 253.904ZM279.504 253.448L281.544 252.728C282.168 253.688 282.84 255.008 283.104 255.848L280.944 256.664C280.704 255.8 280.104 254.456 279.504 253.448ZM271.872 253.952L274.248 253.592C274.632 255.008 274.872 256.832 274.848 258.032L272.352 258.416C272.424 257.24 272.208 255.368 271.872 253.952ZM268.512 252.968L270.888 253.832C270.384 255.728 269.592 257.792 268.272 259.112L265.968 257.696C267.168 256.544 268.056 254.72 268.512 252.968ZM302.376 254.288L304.584 253.712C305.112 254.528 305.544 255.656 305.688 256.4L303.36 257.096C303.264 256.328 302.832 255.128 302.376 254.288ZM308.712 253.64L311.208 254.312C310.68 255.368 310.152 256.352 309.768 257.048L307.632 256.424C308.016 255.632 308.472 254.456 308.712 253.64ZM303.672 250.976V252.2H309.648V250.976H303.672ZM301.296 249.296H312.12V253.88H301.296V249.296ZM302.832 242.672V243.752H310.392V242.672H302.832ZM302.832 239.936V241.016H310.392V239.936H302.832ZM300.528 238.16H312.816V245.528H300.528V238.16ZM300.192 246.32H313.2V248.48H300.192V246.32ZM299.712 256.592H313.536V258.704H299.712V256.592ZM303.744 236.624H305.88V239.48H303.744V236.624ZM307.296 236.624H309.432V239.48H307.296V236.624ZM304.176 238.976H305.856V245.168H304.176V238.976ZM307.296 238.976H308.976V245.168H307.296V238.976ZM291.24 242.912H299.664V245.408H291.24V242.912ZM291.816 238.136H299.184V240.608H291.816V238.136ZM297.744 246.608H299.568V255.56H297.744V246.608ZM294.384 244.16H296.76V259.16H294.384V244.16ZM291.576 246.656H293.4V249.536C293.4 252.008 293.28 254.864 292.416 257.168C292.056 256.784 291.312 256.208 290.808 255.944C291.456 254 291.576 251.552 291.576 249.464V246.656Z" fill="white"/>
<path d="M62.7665 140.846H85.4445V146.646H62.7665V140.846ZM69.4365 143.166L75.9325 143.572C75.4685 148.096 74.3859 151.885 72.6845 154.94C70.9832 157.995 68.6439 160.489 65.6665 162.422C65.3185 162.035 64.8159 161.591 64.1585 161.088C63.5012 160.547 62.8245 160.025 62.1285 159.522C61.4325 159.019 60.8525 158.633 60.3885 158.362C63.3272 156.931 65.4925 154.959 66.8845 152.446C68.3152 149.894 69.1659 146.801 69.4365 143.166ZM81.8485 140.846H88.4605C88.4605 140.846 88.4605 141.155 88.4605 141.774C88.4605 142.393 88.4412 142.876 88.4025 143.224C88.2865 146.472 88.1319 149.159 87.9385 151.286C87.7452 153.374 87.4939 155.017 87.1845 156.216C86.9139 157.415 86.5465 158.285 86.0825 158.826C85.5412 159.483 84.9419 159.947 84.2845 160.218C83.6659 160.489 82.9699 160.682 82.1965 160.798C81.4619 160.914 80.5145 160.991 79.3545 161.03C78.2332 161.03 77.0152 161.011 75.7005 160.972C75.6619 160.044 75.4879 159.039 75.1785 157.956C74.8692 156.835 74.4825 155.887 74.0185 155.114C75.0239 155.191 75.9519 155.249 76.8025 155.288C77.6532 155.288 78.2912 155.288 78.7165 155.288C79.4899 155.327 80.0505 155.153 80.3985 154.766C80.6692 154.418 80.8819 153.799 81.0365 152.91C81.1912 151.982 81.3265 150.629 81.4425 148.85C81.5972 147.033 81.7325 144.674 81.8485 141.774V140.846ZM37.8845 144.674H61.0265V150.706H37.8845V144.674ZM36.5505 156.042H62.0705V162.132H36.5505V156.042ZM50.1225 168.454H61.3165V174.486H50.1225V168.454ZM46.4105 138.758H52.7905V159.232H46.4105V138.758ZM47.4545 159.638H53.6605V185.39H47.4545V159.638ZM43.5685 171.064C44.3419 174.119 45.3279 176.574 46.5265 178.43C47.7639 180.286 49.2719 181.697 51.0505 182.664C52.8679 183.592 54.9752 184.23 57.3725 184.578C59.7699 184.887 62.4959 185.042 65.5505 185.042C66.2852 185.042 67.2905 185.061 68.5665 185.1C69.8812 185.1 71.3312 185.1 72.9165 185.1C74.5019 185.061 76.1452 185.042 77.8465 185.042C79.5865 185.042 81.2879 185.042 82.9505 185.042C84.6132 185.042 86.1212 185.023 87.4745 184.984C88.8279 184.907 89.9492 184.868 90.8385 184.868C90.4905 185.371 90.1425 186.028 89.7945 186.84C89.4465 187.652 89.1179 188.483 88.8085 189.334C88.5379 190.223 88.3252 191.016 88.1705 191.712H83.9945H65.5505C61.6839 191.712 58.2812 191.461 55.3425 190.958C52.4039 190.494 49.8712 189.585 47.7445 188.232C45.6179 186.879 43.8005 184.945 42.2925 182.432C40.8232 179.919 39.5859 176.632 38.5805 172.572L43.5685 171.064ZM38.4065 165.09L44.4965 165.496C44.4579 169.169 44.3225 172.707 44.0905 176.11C43.8585 179.513 43.4525 182.664 42.8725 185.564C42.2925 188.425 41.4999 190.958 40.4945 193.162C40.1079 192.853 39.5665 192.505 38.8705 192.118C38.1745 191.731 37.4592 191.345 36.7245 190.958C36.0285 190.61 35.4292 190.339 34.9265 190.146C35.8932 188.213 36.6279 185.931 37.1305 183.302C37.6332 180.673 37.9619 177.811 38.1165 174.718C38.2712 171.625 38.3679 168.415 38.4065 165.09ZM70.7125 168.802V175.994H80.1665V168.802H70.7125ZM64.2165 163.176H87.1265V181.504H64.2165V163.176ZM113.749 144.036H149.129V149.952H113.749V144.036ZM111.197 186.26H150.463V192.118H111.197V186.26ZM116.243 153.954H145.997V187.362H139.617V159.058H122.333V187.362H116.243V153.954ZM120.825 162.19H140.719V167.004H120.825V162.19ZM120.651 170.252H142.285V174.95H120.651V170.252ZM120.535 178.198H140.835V182.954H120.535V178.198ZM128.249 138.816L135.615 139.048C135.305 141.097 134.938 143.185 134.513 145.312C134.087 147.4 133.662 149.391 133.237 151.286C132.811 153.181 132.386 154.843 131.961 156.274L125.929 155.81C126.277 154.263 126.605 152.504 126.915 150.532C127.224 148.56 127.495 146.549 127.727 144.5C127.997 142.451 128.171 140.556 128.249 138.816ZM108.007 138.874L114.445 140.962C113.246 144.21 111.835 147.497 110.211 150.822C108.587 154.109 106.827 157.221 104.933 160.16C103.077 163.099 101.143 165.689 99.1325 167.932C98.9392 167.352 98.6105 166.617 98.1465 165.728C97.7212 164.8 97.2765 163.872 96.8125 162.944C96.3485 162.016 95.9039 161.262 95.4785 160.682C97.1412 158.942 98.7459 156.912 100.293 154.592C101.878 152.233 103.328 149.72 104.643 147.052C105.957 144.384 107.079 141.658 108.007 138.874ZM102.323 154.998L108.703 148.444L108.761 148.502V193.162H102.323V154.998ZM157.887 154.36H209.507V161.552H157.887V154.36ZM187.699 157.26C188.859 161.668 190.463 165.786 192.513 169.614C194.562 173.442 197.095 176.787 200.111 179.648C203.165 182.509 206.723 184.771 210.783 186.434C210.203 186.937 209.584 187.575 208.927 188.348C208.308 189.121 207.689 189.914 207.071 190.726C206.491 191.577 206.007 192.331 205.621 192.988C201.174 190.9 197.346 188.213 194.137 184.926C190.966 181.639 188.298 177.811 186.133 173.442C183.967 169.034 182.15 164.181 180.681 158.884L187.699 157.26ZM179.695 138.758H187.293C187.254 141.697 187.157 144.809 187.003 148.096C186.887 151.344 186.597 154.65 186.133 158.014C185.669 161.378 184.915 164.723 183.871 168.048C182.865 171.335 181.435 174.505 179.579 177.56C177.761 180.576 175.403 183.399 172.503 186.028C169.641 188.657 166.142 190.977 162.005 192.988C161.463 192.06 160.709 191.035 159.743 189.914C158.776 188.793 157.79 187.865 156.785 187.13C160.729 185.351 164.035 183.302 166.703 180.982C169.371 178.623 171.536 176.091 173.199 173.384C174.9 170.639 176.195 167.797 177.085 164.858C177.974 161.881 178.573 158.884 178.883 155.868C179.231 152.852 179.443 149.894 179.521 146.994C179.598 144.094 179.656 141.349 179.695 138.758ZM250.919 170.02H257.125V189.276H250.919V170.02ZM247.787 154.708V158.826H260.779V154.708H247.787ZM241.639 149.43H267.217V164.104H241.639V149.43ZM238.739 166.656H269.769V193.046H263.041V172.224H245.119V193.104H238.739V166.656ZM242.393 176.052H266.521V181.272H242.393V176.052ZM242.451 185.216H266.579V190.784H242.451V185.216ZM238.449 141.136H269.943V146.994H238.449V141.136ZM217.801 149.488H235.201V155.752H217.801V149.488ZM224.819 138.758H231.605V152.388H224.819V138.758ZM232.185 163.002C232.61 163.273 233.19 163.717 233.925 164.336C234.659 164.955 235.452 165.631 236.303 166.366C237.153 167.062 237.927 167.719 238.623 168.338C239.319 168.957 239.802 169.401 240.073 169.672L236.013 175.298C235.587 174.679 235.027 173.964 234.331 173.152C233.673 172.34 232.977 171.509 232.243 170.658C231.508 169.807 230.793 169.015 230.097 168.28C229.439 167.507 228.84 166.869 228.299 166.366L232.185 163.002ZM232.649 149.488H233.983L235.143 149.198L239.029 151.692C237.714 155.443 235.974 159.039 233.809 162.48C231.682 165.883 229.343 168.976 226.791 171.76C224.239 174.544 221.609 176.845 218.903 178.662C218.748 178.043 218.458 177.309 218.033 176.458C217.646 175.569 217.24 174.718 216.815 173.906C216.389 173.094 216.003 172.475 215.655 172.05C218.091 170.619 220.411 168.783 222.615 166.54C224.857 164.259 226.849 161.765 228.589 159.058C230.367 156.313 231.721 153.529 232.649 150.706V149.488ZM224.819 169.324L231.605 161.146V193.22H224.819V169.324ZM300.625 162.422H307.643V170.774H300.625V162.422ZM300.335 169.962L305.961 172.398C304.53 173.867 302.867 175.221 300.973 176.458C299.078 177.695 297.029 178.836 294.825 179.88C292.621 180.885 290.32 181.775 287.923 182.548C285.525 183.283 283.089 183.882 280.615 184.346C280.189 183.611 279.59 182.722 278.817 181.678C278.082 180.634 277.367 179.783 276.671 179.126C279.029 178.778 281.369 178.314 283.689 177.734C286.009 177.115 288.193 176.419 290.243 175.646C292.331 174.873 294.225 174.022 295.927 173.094C297.667 172.127 299.136 171.083 300.335 169.962ZM309.789 170.194C311.374 174.679 313.945 178.353 317.503 181.214C321.06 184.075 325.758 186.028 331.597 187.072C331.133 187.536 330.63 188.116 330.089 188.812C329.547 189.547 329.025 190.301 328.523 191.074C328.059 191.847 327.672 192.543 327.363 193.162C323.032 192.195 319.339 190.745 316.285 188.812C313.23 186.917 310.659 184.52 308.571 181.62C306.483 178.72 304.762 175.317 303.409 171.412L309.789 170.194ZM323.709 173.79L329.103 177.908C327.904 178.643 326.609 179.377 325.217 180.112C323.825 180.808 322.452 181.465 321.099 182.084C319.784 182.664 318.527 183.186 317.329 183.65L312.805 179.88C313.926 179.377 315.144 178.778 316.459 178.082C317.812 177.386 319.127 176.651 320.403 175.878C321.717 175.105 322.819 174.409 323.709 173.79ZM283.863 186.956C286.144 186.724 288.735 186.473 291.635 186.202C294.535 185.893 297.589 185.564 300.799 185.216C304.047 184.829 307.256 184.462 310.427 184.114L310.601 189.798C307.585 190.185 304.53 190.552 301.437 190.9C298.382 191.287 295.424 191.654 292.563 192.002C289.74 192.35 287.149 192.659 284.791 192.93L283.863 186.956ZM278.179 167.874H330.437V173.848H278.179V167.874ZM294.941 148.56L329.857 145.312L330.553 150.938L295.637 154.36L294.941 148.56ZM315.125 142.818L318.083 138.816C319.165 139.048 320.306 139.357 321.505 139.744C322.703 140.092 323.863 140.479 324.985 140.904C326.145 141.291 327.111 141.658 327.885 142.006L324.811 146.414C324.076 145.989 323.148 145.563 322.027 145.138C320.944 144.674 319.784 144.249 318.547 143.862C317.348 143.437 316.207 143.089 315.125 142.818ZM304.395 139.106H311.297C311.49 142.006 311.973 144.732 312.747 147.284C313.559 149.836 314.545 152.079 315.705 154.012C316.903 155.907 318.179 157.395 319.533 158.478C320.925 159.561 322.336 160.083 323.767 160.044C324.501 160.044 325.023 159.638 325.333 158.826C325.642 158.014 325.874 156.603 326.029 154.592C326.763 155.211 327.633 155.791 328.639 156.332C329.683 156.873 330.63 157.279 331.481 157.55C331.21 160.025 330.746 161.919 330.089 163.234C329.431 164.549 328.561 165.457 327.479 165.96C326.435 166.424 325.101 166.656 323.477 166.656C320.886 166.656 318.489 165.96 316.285 164.568C314.119 163.176 312.186 161.223 310.485 158.71C308.822 156.197 307.469 153.277 306.425 149.952C305.381 146.627 304.704 143.011 304.395 139.106ZM291.403 138.7L297.899 140.904C296.584 143.263 294.999 145.544 293.143 147.748C291.287 149.913 289.315 151.924 287.227 153.78C285.139 155.597 283.031 157.183 280.905 158.536C280.557 158.111 280.073 157.569 279.455 156.912C278.875 156.255 278.256 155.597 277.599 154.94C276.98 154.283 276.439 153.741 275.975 153.316C279.029 151.692 281.949 149.585 284.733 146.994C287.517 144.403 289.74 141.639 291.403 138.7ZM286.067 149.488L290.765 144.79L292.737 145.37V165.844H286.067V149.488ZM290.649 179.416L295.231 174.834L297.319 175.472V189.102H290.649V179.416Z" fill="white"/>
<ellipse cx="472.91" cy="194.57" rx="85.9498" ry="75.9224" fill="#FF9C1E"/>
<path d="M479.081 131.118L443.425 138.475L421.917 110.743L483.978 95.6142L479.081 131.118Z" fill="#FF9C1E"/>
<circle cx="78.9985" cy="68.0483" r="56" fill="#FF9C1E"/>
<path d="M89.1365 29.3211V102.048H71.5939V45.7273H71.1677L54.9035 55.6705V40.4716L72.8368 29.3211H89.1365Z" fill="white"/>
</svg>
