<svg width="623" height="312" viewBox="0 0 623 312" fill="none" xmlns="http://www.w3.org/2000/svg">
<path d="M52.9985 29.5347H592.999C609.567 29.5347 622.999 42.9661 622.999 59.5347V311.906H82.9985C66.43 311.906 52.9985 298.475 52.9985 281.906V29.5347Z" fill="#FF5F17"/>
<line x1="400.795" y1="219.406" x2="91.6426" y2="219.406" stroke="white"/>
<path d="M221.077 105.301H229.269V108.981H221.077V105.301ZM203.061 87.5732H214.773V91.3172H203.061V87.5732ZM219.349 85.4932H230.997V110.997H227.157V89.2052H223.029V111.221H219.349V85.4932ZM213.845 87.5732H217.557C217.557 87.5732 217.557 87.6905 217.557 87.9252C217.557 88.1385 217.557 88.3838 217.557 88.6612C217.557 88.9385 217.547 89.1625 217.525 89.3332C217.461 92.7465 217.387 95.6585 217.301 98.0692C217.237 100.459 217.152 102.421 217.045 103.957C216.96 105.493 216.832 106.699 216.661 107.573C216.491 108.448 216.277 109.067 216.021 109.429C215.659 109.963 215.285 110.347 214.901 110.581C214.517 110.816 214.059 110.987 213.525 111.093C213.056 111.2 212.48 111.253 211.797 111.253C211.115 111.275 210.4 111.264 209.653 111.221C209.632 110.667 209.525 110.016 209.333 109.269C209.141 108.544 208.885 107.915 208.565 107.381C209.205 107.424 209.792 107.456 210.325 107.477C210.859 107.499 211.275 107.509 211.573 107.509C211.808 107.509 212.011 107.467 212.181 107.381C212.352 107.296 212.512 107.136 212.661 106.901C212.832 106.667 212.981 106.176 213.109 105.429C213.237 104.683 213.344 103.595 213.429 102.165C213.515 100.736 213.589 98.9012 213.653 96.6612C213.717 94.3998 213.781 91.6478 213.845 88.4052V87.5732ZM206.869 82.2932H210.645C210.645 85.4505 210.592 88.4692 210.485 91.3492C210.4 94.2078 210.187 96.8958 209.845 99.4132C209.504 101.931 208.939 104.245 208.149 106.357C207.381 108.448 206.304 110.293 204.917 111.893C204.725 111.573 204.469 111.232 204.149 110.869C203.829 110.507 203.488 110.165 203.125 109.845C202.763 109.525 202.421 109.269 202.101 109.077C203.104 107.947 203.904 106.677 204.501 105.269C205.12 103.84 205.589 102.283 205.909 100.597C206.251 98.9118 206.485 97.1092 206.613 95.1892C206.741 93.2479 206.816 91.1999 206.837 89.0452C206.859 86.8692 206.869 84.6185 206.869 82.2932ZM242.069 83.6052H251.157V87.5092H242.069V83.6052ZM249.269 83.6052H253.237C253.237 84.6292 253.28 85.7918 253.365 87.0932C253.451 88.3732 253.632 89.7492 253.909 91.2212C254.187 92.6718 254.603 94.1652 255.157 95.7012C255.712 97.2372 256.448 98.7625 257.365 100.277C258.304 101.771 259.477 103.211 260.885 104.597C262.293 105.984 263.979 107.264 265.941 108.437C265.664 108.651 265.323 108.96 264.917 109.365C264.512 109.771 264.117 110.187 263.733 110.613C263.371 111.061 263.072 111.456 262.837 111.797C260.832 110.56 259.093 109.173 257.621 107.637C256.149 106.08 254.912 104.437 253.909 102.709C252.907 100.96 252.096 99.1998 251.477 97.4292C250.859 95.6372 250.389 93.8985 250.069 92.2132C249.749 90.5065 249.536 88.9172 249.429 87.4452C249.323 85.9732 249.269 84.6932 249.269 83.6052ZM247.893 90.6452L252.277 91.4452C251.552 94.6025 250.581 97.4718 249.365 100.053C248.149 102.635 246.688 104.907 244.981 106.869C243.296 108.832 241.344 110.485 239.125 111.829C238.891 111.552 238.56 111.211 238.133 110.805C237.707 110.421 237.259 110.027 236.789 109.621C236.341 109.237 235.947 108.928 235.605 108.693C238.955 107.008 241.621 104.64 243.605 101.589C245.589 98.5172 247.019 94.8692 247.893 90.6452ZM282.485 83.4452H295.509V86.9652H282.485V83.4452ZM281.397 94.5492H299.093V98.1972H281.397V94.5492ZM288.181 90.8372H292.021V107.605C292.021 108.565 291.904 109.323 291.669 109.877C291.435 110.432 291.008 110.859 290.389 111.157C289.749 111.456 288.981 111.648 288.085 111.733C287.211 111.84 286.187 111.883 285.013 111.861C284.928 111.328 284.747 110.699 284.469 109.973C284.192 109.248 283.915 108.619 283.637 108.085C284.448 108.107 285.227 108.128 285.973 108.149C286.72 108.171 287.232 108.171 287.509 108.149C287.765 108.149 287.936 108.107 288.021 108.021C288.128 107.936 288.181 107.787 288.181 107.573V90.8372ZM294.101 83.4452H295.061L295.829 83.2212L298.325 85.1092C297.707 86.0478 297.003 87.0292 296.213 88.0532C295.445 89.0558 294.635 90.0265 293.781 90.9652C292.928 91.8825 292.085 92.6932 291.253 93.3972C290.997 93.0558 290.645 92.6612 290.197 92.2132C289.749 91.7652 289.365 91.4132 289.045 91.1572C289.685 90.5598 290.336 89.8452 290.997 89.0132C291.659 88.1812 292.256 87.3385 292.789 86.4852C293.344 85.6318 293.781 84.8852 294.101 84.2452V83.4452ZM269.205 88.1812H279.573V91.7652H269.205V88.1812ZM273.525 81.8132L277.109 82.1972C276.811 83.9038 276.469 85.6958 276.085 87.5732C275.723 89.4505 275.339 91.3278 274.933 93.2052C274.528 95.0612 274.123 96.8638 273.717 98.6132C273.312 100.341 272.917 101.92 272.533 103.349L269.397 101.717C269.76 100.459 270.123 99.0185 270.485 97.3972C270.869 95.7758 271.243 94.0692 271.605 92.2772C271.968 90.4638 272.309 88.6718 272.629 86.9012C272.971 85.1092 273.269 83.4132 273.525 81.8132ZM271.093 101.173L273.173 98.4532C274.283 99.1572 275.445 99.9465 276.661 100.821C277.899 101.696 279.04 102.581 280.085 103.477C281.152 104.373 281.995 105.227 282.613 106.037L280.309 109.141C279.712 108.331 278.901 107.456 277.877 106.517C276.853 105.557 275.744 104.608 274.549 103.669C273.376 102.731 272.224 101.899 271.093 101.173ZM278.229 88.1812H278.869L279.541 88.1172L281.813 88.5012C281.579 92.6612 281.056 96.2558 280.245 99.2852C279.456 102.293 278.347 104.832 276.917 106.901C275.509 108.971 273.739 110.667 271.605 111.989C271.371 111.52 271.029 110.976 270.581 110.357C270.133 109.76 269.707 109.291 269.301 108.949C271.115 107.989 272.651 106.581 273.909 104.725C275.168 102.869 276.149 100.608 276.853 97.9412C277.579 95.2745 278.037 92.2665 278.229 88.9172V88.1812ZM314.677 95.5732C316.043 98.9225 318.165 101.675 321.045 103.829C323.925 105.984 327.616 107.456 332.117 108.245C331.84 108.523 331.541 108.864 331.221 109.269C330.901 109.696 330.603 110.133 330.325 110.581C330.048 111.029 329.824 111.424 329.653 111.765C326.517 111.061 323.776 110.037 321.429 108.693C319.104 107.349 317.12 105.664 315.477 103.637C313.835 101.611 312.459 99.2425 311.349 96.5332L314.677 95.5732ZM324.501 93.6212H325.237L325.941 93.4612L328.565 94.5812C327.925 96.9918 327.061 99.1252 325.973 100.981C324.885 102.837 323.595 104.459 322.101 105.845C320.608 107.232 318.955 108.416 317.141 109.397C315.349 110.379 313.408 111.189 311.317 111.829C311.104 111.339 310.784 110.773 310.357 110.133C309.952 109.493 309.547 108.981 309.141 108.597C311.019 108.107 312.768 107.445 314.389 106.613C316.032 105.781 317.525 104.768 318.869 103.573C320.213 102.379 321.365 101.013 322.325 99.4772C323.285 97.9198 324.011 96.2025 324.501 94.3252V93.6212ZM303.317 86.5812H331.253V90.3252H303.317V86.5812ZM312.405 93.6212H324.885V97.3332H311.285L312.405 93.6212ZM311.317 81.8132H315.317C315.296 82.5385 315.253 83.4558 315.189 84.5652C315.125 85.6532 315.019 86.8905 314.869 88.2772C314.72 89.6639 314.496 91.1358 314.197 92.6932C313.92 94.2292 313.547 95.8078 313.077 97.4292C312.608 99.0292 312.021 100.619 311.317 102.197C310.635 103.776 309.803 105.291 308.821 106.741C307.84 108.192 306.688 109.515 305.365 110.709C304.981 110.219 304.501 109.739 303.925 109.269C303.349 108.8 302.731 108.373 302.069 107.989C303.371 106.901 304.491 105.707 305.429 104.405C306.389 103.083 307.2 101.685 307.861 100.213C308.523 98.7412 309.067 97.2692 309.493 95.7972C309.92 94.3038 310.251 92.8425 310.485 91.4132C310.72 89.9838 310.891 88.6505 310.997 87.4132C311.104 86.1545 311.179 85.0452 311.221 84.0852C311.264 83.1252 311.296 82.3678 311.317 81.8132ZM352.88 93.9412H373.328V97.3972H352.88V93.9412ZM354 87.4772H372.24V90.8692H354V87.4772ZM360.752 89.1412H364.592V94.2612C364.592 95.2852 364.464 96.3518 364.208 97.4612C363.974 98.5705 363.526 99.6798 362.864 100.789C362.224 101.877 361.296 102.933 360.08 103.957C358.886 104.96 357.339 105.877 355.44 106.709C355.27 106.432 355.035 106.123 354.736 105.781C354.438 105.44 354.128 105.099 353.808 104.757C353.488 104.416 353.179 104.139 352.88 103.925C354.694 103.264 356.123 102.528 357.168 101.717C358.235 100.907 359.014 100.064 359.504 99.1892C360.016 98.3145 360.347 97.4612 360.496 96.6292C360.667 95.7758 360.752 94.9758 360.752 94.2292V89.1412ZM365.168 96.3732C365.83 98.1439 366.832 99.6479 368.176 100.885C369.542 102.101 371.291 102.976 373.424 103.509C373.147 103.765 372.848 104.085 372.528 104.469C372.23 104.853 371.942 105.248 371.664 105.653C371.408 106.037 371.184 106.4 370.992 106.741C368.646 105.973 366.747 104.768 365.296 103.125C363.846 101.483 362.726 99.4665 361.936 97.0772L365.168 96.3732ZM351.6 94.2932V106.101H347.856V97.8452H344.144V94.2932H351.6ZM351.6 104.437C352.262 105.483 353.19 106.251 354.384 106.741C355.579 107.232 357.008 107.509 358.672 107.573C359.611 107.616 360.72 107.648 362 107.669C363.302 107.669 364.667 107.659 366.096 107.637C367.526 107.616 368.923 107.573 370.288 107.509C371.675 107.445 372.902 107.371 373.968 107.285C373.84 107.584 373.691 107.968 373.52 108.437C373.35 108.907 373.19 109.387 373.04 109.877C372.912 110.368 372.816 110.805 372.752 111.189C371.792 111.253 370.694 111.296 369.456 111.317C368.219 111.36 366.95 111.381 365.648 111.381C364.347 111.403 363.088 111.403 361.872 111.381C360.656 111.36 359.568 111.328 358.608 111.285C356.646 111.2 354.971 110.891 353.584 110.357C352.198 109.845 350.971 108.971 349.904 107.733C349.2 108.331 348.475 108.949 347.728 109.589C347.003 110.229 346.203 110.891 345.328 111.573L343.44 107.573C344.187 107.125 344.966 106.635 345.776 106.101C346.587 105.568 347.366 105.013 348.112 104.437H351.6ZM344.176 84.8852L347.024 82.5812C347.686 83.0078 348.358 83.5092 349.04 84.0852C349.723 84.6398 350.363 85.2158 350.96 85.8132C351.558 86.3892 352.038 86.9225 352.4 87.4132L349.36 89.9732C349.04 89.4612 348.592 88.9065 348.016 88.3092C347.462 87.7118 346.843 87.1145 346.16 86.5172C345.478 85.8985 344.816 85.3545 344.176 84.8852ZM367.376 81.8132L371.28 83.0292C370.704 83.9465 370.107 84.8532 369.488 85.7492C368.891 86.6238 368.336 87.3705 367.824 87.9892L364.688 86.9012C365.008 86.4105 365.339 85.8772 365.68 85.3012C366.022 84.7038 366.342 84.1065 366.64 83.5092C366.939 82.8905 367.184 82.3252 367.376 81.8132ZM354.832 83.2212L358.064 81.8772C358.662 82.6025 359.227 83.4238 359.76 84.3412C360.294 85.2585 360.667 86.0692 360.88 86.7732L357.424 88.2452C357.254 87.5625 356.912 86.7518 356.4 85.8132C355.91 84.8532 355.387 83.9892 354.832 83.2212Z" fill="white"/>
<path d="M102.385 240.222H109.953V242.378H102.385V240.222ZM98.6006 252.982C99.2606 252.88 100.023 252.755 100.889 252.608C101.769 252.462 102.7 252.308 103.683 252.146C104.665 251.97 105.641 251.794 106.609 251.618L106.829 253.906C105.553 254.2 104.269 254.486 102.979 254.764C101.688 255.058 100.515 255.314 99.4586 255.534L98.6006 252.982ZM100.889 236.196H103.441V253.576H100.889V236.196ZM102.385 236.196H111.163V246.492H102.385V244.226H108.545V238.462H102.385V236.196ZM106.961 244.974C107.239 246.294 107.621 247.519 108.105 248.648C108.589 249.763 109.205 250.746 109.953 251.596C110.701 252.447 111.617 253.107 112.703 253.576C112.512 253.752 112.307 253.965 112.087 254.214C111.867 254.478 111.654 254.75 111.449 255.028C111.258 255.322 111.104 255.586 110.987 255.82C109.799 255.19 108.801 254.368 107.995 253.356C107.203 252.33 106.55 251.142 106.037 249.792C105.523 248.443 105.105 246.962 104.783 245.348L106.961 244.974ZM110.151 246.646L112.219 248.076C111.617 248.663 110.979 249.242 110.305 249.814C109.645 250.372 109.036 250.848 108.479 251.244L106.851 249.99C107.203 249.697 107.577 249.36 107.973 248.978C108.383 248.597 108.779 248.201 109.161 247.79C109.542 247.38 109.872 246.998 110.151 246.646ZM92.8806 236.152H98.3586V238.528H95.3446V255.886H92.8806V236.152ZM97.6326 236.152H98.0946L98.4686 236.064L100.273 237.098C100.067 237.744 99.8473 238.426 99.6126 239.144C99.3779 239.863 99.1433 240.574 98.9086 241.278C98.6739 241.982 98.4393 242.62 98.2046 243.192C98.9233 244.043 99.3853 244.85 99.5906 245.612C99.8106 246.36 99.9206 247.057 99.9206 247.702C99.9206 248.436 99.8399 249.037 99.6786 249.506C99.5173 249.976 99.2533 250.342 98.8866 250.606C98.7106 250.738 98.5053 250.841 98.2706 250.914C98.0506 250.988 97.8233 251.046 97.5886 251.09C97.3833 251.12 97.1413 251.134 96.8626 251.134C96.5986 251.134 96.3273 251.134 96.0486 251.134C96.0339 250.797 95.9753 250.401 95.8726 249.946C95.7846 249.492 95.6526 249.103 95.4766 248.78C95.6819 248.795 95.8653 248.802 96.0266 248.802C96.2026 248.802 96.3566 248.802 96.4886 248.802C96.6059 248.802 96.7159 248.788 96.8186 248.758C96.9359 248.714 97.0459 248.663 97.1486 248.604C97.2806 248.502 97.3759 248.348 97.4346 248.142C97.5079 247.922 97.5373 247.658 97.5226 247.35C97.5226 246.837 97.4126 246.25 97.1926 245.59C96.9873 244.916 96.5546 244.212 95.8946 243.478C96.0559 242.98 96.2173 242.43 96.3786 241.828C96.5546 241.227 96.7159 240.626 96.8626 240.024C97.0239 239.408 97.1706 238.836 97.3026 238.308C97.4493 237.766 97.5593 237.318 97.6326 236.966V236.152ZM120.469 239.254V240.002H129.621V239.254H120.469ZM120.469 237.23V237.978H129.621V237.23H120.469ZM117.939 235.888H132.283V241.344H117.939V235.888ZM120.007 248.032V248.802H130.237V248.032H120.007ZM120.007 245.942V246.712H130.237V245.942H120.007ZM117.543 244.556H132.833V250.21H117.543V244.556ZM123.835 245.018H126.387V254.456H123.835V245.018ZM115.145 242.004H135.187V243.896H115.145V242.004ZM117.081 250.936H133.251V252.608H117.081V250.936ZM115.101 253.422H135.231V255.336H115.101V253.422ZM149.924 254.125C148.757 254.125 147.721 253.914 146.814 253.492C145.908 253.07 145.192 252.49 144.666 251.75C144.145 251.01 143.874 250.161 143.854 249.203H147.604C147.635 249.792 147.874 250.266 148.322 250.625C148.77 250.979 149.304 251.156 149.924 251.156C150.408 251.156 150.838 251.049 151.213 250.836C151.588 250.622 151.882 250.323 152.096 249.937C152.309 249.547 152.413 249.099 152.408 248.594C152.413 248.078 152.307 247.628 152.088 247.242C151.874 246.857 151.577 246.557 151.197 246.344C150.822 246.125 150.39 246.016 149.9 246.016C149.437 246.01 148.997 246.112 148.58 246.32C148.169 246.529 147.856 246.812 147.643 247.172L144.229 246.531L144.924 237.906H155.189V241.023H148.104L147.736 244.797H147.83C148.096 244.354 148.523 243.99 149.111 243.703C149.705 243.411 150.38 243.266 151.135 243.266C152.093 243.266 152.947 243.49 153.697 243.938C154.452 244.38 155.046 244.995 155.479 245.781C155.916 246.568 156.135 247.469 156.135 248.484C156.135 249.583 155.874 250.557 155.354 251.406C154.838 252.255 154.114 252.922 153.182 253.406C152.255 253.885 151.169 254.125 149.924 254.125ZM165.755 254.297C164.359 254.297 163.156 253.966 162.146 253.305C161.135 252.638 160.357 251.682 159.81 250.438C159.263 249.187 158.992 247.685 158.997 245.93C159.002 244.174 159.276 242.685 159.818 241.461C160.364 240.232 161.14 239.297 162.146 238.656C163.156 238.01 164.359 237.687 165.755 237.687C167.151 237.687 168.354 238.01 169.364 238.656C170.38 239.297 171.161 240.232 171.708 241.461C172.255 242.69 172.526 244.18 172.521 245.93C172.521 247.69 172.247 249.195 171.7 250.445C171.153 251.695 170.375 252.651 169.364 253.312C168.359 253.969 167.156 254.297 165.755 254.297ZM165.755 251.133C166.588 251.133 167.263 250.708 167.778 249.859C168.294 249.005 168.549 247.695 168.544 245.93C168.544 244.773 168.427 243.82 168.193 243.07C167.958 242.315 167.633 241.753 167.216 241.383C166.799 241.013 166.312 240.828 165.755 240.828C164.927 240.828 164.258 241.247 163.747 242.086C163.237 242.919 162.979 244.201 162.974 245.93C162.969 247.102 163.081 248.073 163.31 248.844C163.544 249.615 163.872 250.19 164.294 250.57C164.716 250.945 165.203 251.133 165.755 251.133ZM182.233 254.297C180.837 254.297 179.634 253.966 178.623 253.305C177.613 252.638 176.834 251.682 176.287 250.438C175.74 249.187 175.47 247.685 175.475 245.93C175.48 244.174 175.753 242.685 176.295 241.461C176.842 240.232 177.618 239.297 178.623 238.656C179.634 238.01 180.837 237.687 182.233 237.687C183.628 237.687 184.832 238.01 185.842 238.656C186.858 239.297 187.639 240.232 188.186 241.461C188.733 242.69 189.003 244.18 188.998 245.93C188.998 247.69 188.725 249.195 188.178 250.445C187.631 251.695 186.852 252.651 185.842 253.312C184.837 253.969 183.634 254.297 182.233 254.297ZM182.233 251.133C183.066 251.133 183.74 250.708 184.256 249.859C184.772 249.005 185.027 247.695 185.022 245.93C185.022 244.773 184.905 243.82 184.67 243.07C184.436 242.315 184.11 241.753 183.694 241.383C183.277 241.013 182.79 240.828 182.233 240.828C181.405 240.828 180.735 241.247 180.225 242.086C179.714 242.919 179.457 244.201 179.451 245.93C179.446 247.102 179.558 248.073 179.787 248.844C180.022 249.615 180.35 250.19 180.772 250.57C181.194 250.945 181.681 251.133 182.233 251.133ZM208.378 241.762H214.934V244.138H208.378V241.762ZM208.378 247.262H214.934V249.638H208.378V247.262ZM207.014 236.328H216.43V254.368H213.768V238.704H209.544V254.368H207.014V236.328ZM204.968 252.916H217.926V255.292H204.968V252.916ZM200.48 235.228L202.812 236.042C202.519 236.614 202.211 237.201 201.888 237.802C201.565 238.389 201.25 238.961 200.942 239.518C200.634 240.061 200.333 240.538 200.04 240.948L198.258 240.222C198.522 239.768 198.793 239.254 199.072 238.682C199.351 238.096 199.615 237.502 199.864 236.9C200.113 236.299 200.319 235.742 200.48 235.228ZM203.12 237.846L205.364 238.77C204.821 239.606 204.235 240.486 203.604 241.41C202.973 242.32 202.335 243.192 201.69 244.028C201.045 244.864 200.443 245.598 199.886 246.228L198.28 245.414C198.705 244.916 199.138 244.351 199.578 243.72C200.018 243.09 200.451 242.437 200.876 241.762C201.316 241.088 201.727 240.413 202.108 239.738C202.504 239.049 202.841 238.418 203.12 237.846ZM197.092 240.442L198.346 238.638C198.727 238.961 199.123 239.328 199.534 239.738C199.945 240.134 200.319 240.53 200.656 240.926C201.008 241.322 201.272 241.689 201.448 242.026L200.106 244.072C199.93 243.735 199.673 243.354 199.336 242.928C199.013 242.488 198.654 242.056 198.258 241.63C197.862 241.19 197.473 240.794 197.092 240.442ZM202.592 243.148L204.462 242.334C204.755 242.818 205.041 243.339 205.32 243.896C205.599 244.454 205.841 245.004 206.046 245.546C206.251 246.074 206.405 246.551 206.508 246.976L204.484 247.9C204.396 247.49 204.257 247.013 204.066 246.47C203.875 245.913 203.648 245.348 203.384 244.776C203.135 244.19 202.871 243.647 202.592 243.148ZM197.092 244.908C198.104 244.879 199.321 244.835 200.744 244.776C202.181 244.718 203.641 244.652 205.122 244.578L205.1 246.668C203.721 246.771 202.35 246.874 200.986 246.976C199.622 247.064 198.397 247.138 197.312 247.196L197.092 244.908ZM202.966 248.648L204.902 248.01C205.21 248.67 205.496 249.389 205.76 250.166C206.024 250.944 206.215 251.618 206.332 252.19L204.286 252.938C204.183 252.352 204.007 251.662 203.758 250.87C203.509 250.064 203.245 249.323 202.966 248.648ZM198.038 248.142L200.216 248.538C200.099 249.594 199.923 250.636 199.688 251.662C199.453 252.689 199.182 253.554 198.874 254.258C198.727 254.156 198.529 254.038 198.28 253.906C198.031 253.789 197.774 253.672 197.51 253.554C197.261 253.437 197.041 253.349 196.85 253.29C197.173 252.63 197.429 251.846 197.62 250.936C197.811 250.012 197.95 249.081 198.038 248.142ZM200.59 246.074H202.922V255.886H200.59V246.074Z" fill="white"/>
<path d="M90.191 185.906V143.724H100.386V177.626H117.935V185.906H90.191ZM135.728 143.724V185.906H125.532V143.724H135.728ZM180.348 143.724V185.906H171.697L154.911 161.561H154.644V185.906H144.448V143.724H153.222L169.823 168.028H170.173V143.724H180.348ZM189.079 185.906V143.724H218.491V152.004H199.274V160.655H216.987V168.955H199.274V177.626H218.491V185.906H189.079ZM250.219 139.564H273.825V145.944H250.219V139.564ZM248.247 159.69H280.321V166.302H248.247V159.69ZM260.543 152.962H267.503V183.354C267.503 185.094 267.29 186.467 266.865 187.472C266.44 188.478 265.666 189.251 264.545 189.792C263.385 190.334 261.993 190.682 260.369 190.836C258.784 191.03 256.928 191.107 254.801 191.068C254.646 190.102 254.318 188.961 253.815 187.646C253.312 186.332 252.81 185.191 252.307 184.224C253.776 184.263 255.188 184.302 256.541 184.34C257.894 184.379 258.822 184.379 259.325 184.34C259.789 184.34 260.098 184.263 260.253 184.108C260.446 183.954 260.543 183.683 260.543 183.296V152.962ZM271.273 139.564H273.013L274.405 139.158L278.929 142.58C277.808 144.282 276.532 146.06 275.101 147.916C273.709 149.734 272.24 151.493 270.693 153.194C269.146 154.857 267.619 156.326 266.111 157.602C265.647 156.984 265.009 156.268 264.197 155.456C263.385 154.644 262.689 154.006 262.109 153.542C263.269 152.46 264.448 151.164 265.647 149.656C266.846 148.148 267.928 146.621 268.895 145.074C269.9 143.528 270.693 142.174 271.273 141.014V139.564ZM226.149 148.148H244.941V154.644H226.149V148.148ZM233.979 136.606L240.475 137.302C239.934 140.396 239.315 143.644 238.619 147.046C237.962 150.449 237.266 153.852 236.531 157.254C235.796 160.618 235.062 163.886 234.327 167.056C233.592 170.188 232.877 173.05 232.181 175.64L226.497 172.682C227.154 170.401 227.812 167.791 228.469 164.852C229.165 161.914 229.842 158.82 230.499 155.572C231.156 152.286 231.775 149.038 232.355 145.828C232.974 142.58 233.515 139.506 233.979 136.606ZM229.571 171.696L233.341 166.766C235.352 168.042 237.459 169.473 239.663 171.058C241.906 172.644 243.974 174.248 245.869 175.872C247.802 177.496 249.33 179.043 250.451 180.512L246.275 186.138C245.192 184.669 243.723 183.084 241.867 181.382C240.011 179.642 238 177.922 235.835 176.22C233.708 174.519 231.62 173.011 229.571 171.696ZM242.505 148.148H243.665L244.883 148.032L249.001 148.728C248.576 156.268 247.628 162.784 246.159 168.274C244.728 173.726 242.718 178.328 240.127 182.078C237.575 185.829 234.366 188.903 230.499 191.3C230.074 190.45 229.455 189.464 228.643 188.342C227.831 187.26 227.058 186.409 226.323 185.79C229.61 184.05 232.394 181.498 234.675 178.134C236.956 174.77 238.735 170.672 240.011 165.838C241.326 161.005 242.157 155.553 242.505 149.482V148.148ZM308.567 161.546C311.042 167.617 314.889 172.605 320.109 176.51C325.329 180.416 332.018 183.084 340.177 184.514C339.674 185.017 339.133 185.636 338.553 186.37C337.973 187.144 337.432 187.936 336.929 188.748C336.426 189.56 336.02 190.276 335.711 190.894C330.027 189.618 325.058 187.762 320.805 185.326C316.59 182.89 312.994 179.836 310.017 176.162C307.04 172.489 304.546 168.197 302.535 163.286L308.567 161.546ZM326.373 158.008H327.707L328.983 157.718L333.739 159.748C332.579 164.118 331.013 167.984 329.041 171.348C327.069 174.712 324.73 177.651 322.023 180.164C319.316 182.678 316.32 184.824 313.033 186.602C309.785 188.381 306.266 189.85 302.477 191.01C302.09 190.121 301.51 189.096 300.737 187.936C300.002 186.776 299.268 185.848 298.533 185.152C301.936 184.263 305.106 183.064 308.045 181.556C311.022 180.048 313.729 178.212 316.165 176.046C318.601 173.881 320.689 171.406 322.429 168.622C324.169 165.8 325.484 162.687 326.373 159.284V158.008ZM287.977 145.248H338.611V152.034H287.977V145.248ZM304.449 158.008H327.069V164.736H302.419L304.449 158.008ZM302.477 136.606H309.727C309.688 137.921 309.611 139.584 309.495 141.594C309.379 143.566 309.186 145.809 308.915 148.322C308.644 150.836 308.238 153.504 307.697 156.326C307.194 159.11 306.518 161.972 305.667 164.91C304.816 167.81 303.753 170.691 302.477 173.552C301.24 176.414 299.732 179.159 297.953 181.788C296.174 184.418 294.086 186.815 291.689 188.98C290.993 188.091 290.123 187.221 289.079 186.37C288.035 185.52 286.914 184.746 285.715 184.05C288.074 182.078 290.104 179.913 291.805 177.554C293.545 175.157 295.014 172.624 296.213 169.956C297.412 167.288 298.398 164.62 299.171 161.952C299.944 159.246 300.544 156.597 300.969 154.006C301.394 151.416 301.704 148.999 301.897 146.756C302.09 144.475 302.226 142.464 302.303 140.724C302.38 138.984 302.438 137.612 302.477 136.606ZM373.933 179.352L379.327 177.902C379.984 178.908 380.545 180.01 381.009 181.208C381.473 182.407 381.802 183.47 381.995 184.398L376.311 186.08C376.195 185.152 375.905 184.05 375.441 182.774C374.977 181.498 374.474 180.358 373.933 179.352ZM389.245 177.786L395.277 179.41C394.658 180.648 394.04 181.846 393.421 183.006C392.841 184.166 392.3 185.152 391.797 185.964L386.635 184.456C387.099 183.528 387.582 182.426 388.085 181.15C388.588 179.874 388.974 178.753 389.245 177.786ZM377.123 171.348V174.248H391.507V171.348H377.123ZM371.323 167.23H397.481V178.366H371.323V167.23ZM375.035 151.222V153.89H393.363V151.222H375.035ZM375.035 144.61V147.22H393.363V144.61H375.035ZM369.525 140.376H399.163V158.124H369.525V140.376ZM368.655 160.096H400.149V165.316H368.655V160.096ZM367.495 184.862H400.961V190.024H367.495V184.862ZM377.297 136.606H382.401V143.508H377.297V136.606ZM385.823 136.606H390.985V143.508H385.823V136.606ZM378.283 142.348H382.401V157.312H378.283V142.348ZM385.823 142.348H389.941V157.312H385.823V142.348ZM347.021 151.802H367.379V157.834H347.021V151.802ZM348.413 140.26H366.219V146.234H348.413V140.26ZM362.797 160.792H367.205V182.368H362.797V160.792ZM354.619 154.818H360.361V191.068H354.619V154.818ZM347.833 160.85H352.241V167.81C352.241 170.788 352.106 173.92 351.835 177.206C351.564 180.454 350.926 183.47 349.921 186.254C349.457 185.79 348.838 185.268 348.065 184.688C347.292 184.108 346.615 183.664 346.035 183.354C346.808 180.996 347.292 178.424 347.485 175.64C347.717 172.856 347.833 170.208 347.833 167.694V160.85Z" fill="white"/>
<circle cx="131.999" cy="62.9062" r="56" fill="#FF9C1E"/>
<path d="M111.323 102.906L140.656 44.8097V44.348H106.352V30.179H158.837V44.4545L129.399 102.906H111.323Z" fill="white"/>
</svg>
