<svg width="619" height="313" viewBox="0 0 619 313" fill="none" xmlns="http://www.w3.org/2000/svg">
<path d="M48.9985 29.9265H588.999C605.567 29.9265 618.999 43.358 618.999 59.9265V312.298H78.9985C62.43 312.298 48.9985 298.867 48.9985 282.298V29.9265Z" fill="#FF5F17"/>
<line x1="396.795" y1="219.798" x2="87.6426" y2="219.798" stroke="white"/>
<path d="M202.453 90.4685H218.485V93.8605H202.453V90.4685ZM202.037 105.669H218.581V109.061H202.037V105.669ZM200.341 97.0605H220.757V110.245H216.789V100.421H204.117V110.245H200.341V97.0605ZM210.325 83.9405C209.45 85.1992 208.341 86.4792 206.997 87.7805C205.674 89.0819 204.191 90.3299 202.549 91.5245C200.927 92.7192 199.242 93.7965 197.493 94.7565C197.322 94.4579 197.098 94.1165 196.821 93.7325C196.565 93.3485 196.277 92.9752 195.957 92.6125C195.658 92.2285 195.359 91.9085 195.061 91.6525C196.917 90.7352 198.687 89.6365 200.373 88.3565C202.079 87.0765 203.605 85.7219 204.949 84.2925C206.293 82.8632 207.359 81.4979 208.149 80.1965H212.149C213.002 81.4125 213.962 82.5752 215.029 83.6845C216.095 84.7939 217.215 85.8285 218.389 86.7885C219.583 87.7485 220.821 88.6019 222.101 89.3485C223.381 90.0952 224.65 90.7245 225.909 91.2365C225.439 91.7272 224.991 92.2819 224.565 92.9005C224.138 93.4979 223.754 94.0952 223.413 94.6925C222.175 94.0525 220.927 93.3165 219.669 92.4845C218.41 91.6312 217.194 90.7352 216.021 89.7965C214.869 88.8365 213.802 87.8659 212.821 86.8845C211.839 85.8819 211.007 84.9005 210.325 83.9405ZM230.197 81.3485H233.781V101.829H230.197V81.3485ZM232.245 81.3485H240.437V100.325H232.245V96.9325H236.885V84.7405H232.245V81.3485ZM232.149 88.9005H238.773V92.2605H232.149V88.9005ZM241.365 81.2845H255.477V84.6125H241.365V81.2845ZM254.261 81.2845H257.909C257.909 81.2845 257.909 81.4445 257.909 81.7645C257.909 82.0632 257.898 82.3299 257.877 82.5645C257.791 84.0152 257.695 85.2312 257.589 86.2125C257.482 87.1725 257.343 87.9405 257.173 88.5165C257.023 89.0712 256.821 89.4979 256.565 89.7965C256.266 90.1379 255.935 90.3832 255.573 90.5325C255.21 90.6605 254.805 90.7459 254.357 90.7885C253.951 90.8312 253.418 90.8632 252.757 90.8845C252.095 90.9059 251.391 90.9059 250.645 90.8845C250.623 90.3939 250.527 89.8605 250.357 89.2845C250.186 88.7085 249.973 88.2072 249.717 87.7805C250.335 87.8445 250.89 87.8872 251.381 87.9085C251.893 87.9299 252.277 87.9405 252.533 87.9405C252.746 87.9405 252.917 87.9192 253.045 87.8765C253.194 87.8339 253.333 87.7485 253.461 87.6205C253.61 87.4712 253.727 87.1939 253.813 86.7885C253.919 86.3619 254.005 85.7432 254.069 84.9325C254.154 84.1005 254.218 83.0339 254.261 81.7325V81.2845ZM246.261 82.3085H250.005C249.898 83.5032 249.706 84.6125 249.429 85.6365C249.173 86.6392 248.767 87.5565 248.213 88.3885C247.658 89.1992 246.901 89.9245 245.941 90.5645C245.002 91.1832 243.775 91.7165 242.261 92.1645C242.09 91.7165 241.802 91.2152 241.397 90.6605C241.013 90.1059 240.639 89.6579 240.277 89.3165C241.514 88.9965 242.506 88.6232 243.253 88.1965C243.999 87.7485 244.575 87.2365 244.981 86.6605C245.407 86.0632 245.706 85.4125 245.877 84.7085C246.047 83.9832 246.175 83.1832 246.261 82.3085ZM245.941 94.9165V98.3725H253.141V94.9165H245.941ZM242.325 91.8765H256.917V101.445H242.325V91.8765ZM238.037 103.365L241.621 102.917C241.834 103.962 242.015 105.114 242.165 106.373C242.314 107.61 242.399 108.655 242.421 109.509L238.645 110.085C238.645 109.509 238.623 108.837 238.581 108.069C238.538 107.301 238.474 106.501 238.389 105.669C238.303 104.837 238.186 104.069 238.037 103.365ZM244.853 103.269L248.437 102.629C248.714 103.311 248.981 104.047 249.237 104.837C249.493 105.626 249.717 106.405 249.909 107.173C250.101 107.919 250.239 108.581 250.325 109.157L246.485 109.957C246.442 109.402 246.325 108.741 246.133 107.973C245.962 107.205 245.759 106.415 245.525 105.605C245.311 104.773 245.087 103.994 244.853 103.269ZM251.477 103.269L254.933 101.893C255.381 102.575 255.85 103.322 256.341 104.133C256.831 104.943 257.279 105.743 257.685 106.533C258.111 107.301 258.442 107.994 258.677 108.613L254.965 110.213C254.751 109.594 254.453 108.879 254.069 108.069C253.685 107.279 253.258 106.458 252.789 105.605C252.341 104.751 251.903 103.973 251.477 103.269ZM232.693 102.149L236.405 103.173C235.893 104.389 235.274 105.658 234.549 106.981C233.823 108.282 233.13 109.413 232.469 110.373L228.757 108.773C229.205 108.239 229.663 107.61 230.133 106.885C230.623 106.138 231.093 105.359 231.541 104.549C231.989 103.738 232.373 102.938 232.693 102.149ZM262.037 96.3885C263.082 96.1752 264.255 95.9192 265.557 95.6205C266.879 95.3005 268.266 94.9592 269.717 94.5965C271.189 94.2339 272.639 93.8819 274.069 93.5405L274.549 97.1885C272.586 97.7219 270.591 98.2552 268.565 98.7885C266.559 99.3219 264.735 99.8019 263.093 100.229L262.037 96.3885ZM262.389 86.2445H274.037V89.8605H262.389V86.2445ZM266.517 80.1325H270.421V105.765C270.421 106.703 270.314 107.439 270.101 107.973C269.887 108.506 269.503 108.922 268.949 109.221C268.394 109.519 267.722 109.711 266.933 109.797C266.143 109.882 265.162 109.925 263.989 109.925C263.925 109.413 263.786 108.805 263.573 108.101C263.359 107.418 263.125 106.821 262.869 106.309C263.487 106.33 264.095 106.351 264.693 106.373C265.29 106.373 265.695 106.373 265.909 106.373C266.314 106.373 266.517 106.17 266.517 105.765V80.1325ZM274.549 82.5645H291.989V86.4045H274.549V82.5645ZM282.709 83.9725H286.837V105.189C286.837 106.298 286.687 107.162 286.389 107.781C286.111 108.421 285.61 108.911 284.885 109.253C284.159 109.594 283.253 109.807 282.165 109.893C281.077 109.978 279.786 110.021 278.293 110.021C278.229 109.615 278.111 109.157 277.941 108.645C277.77 108.133 277.578 107.621 277.365 107.109C277.173 106.597 276.97 106.17 276.757 105.829C277.418 105.85 278.09 105.871 278.773 105.893C279.477 105.914 280.106 105.925 280.661 105.925C281.215 105.925 281.599 105.925 281.813 105.925C282.133 105.925 282.357 105.871 282.485 105.765C282.634 105.637 282.709 105.423 282.709 105.125V83.9725ZM295.733 91.4605H324.885V95.2685H295.733V91.4605ZM310.005 84.0685H321.397V87.7485H310.005V84.0685ZM307.509 80.1325H311.605V93.2845H307.509V80.1325ZM307.509 93.8925H311.605V110.181H307.509V93.8925ZM310.421 100.005L312.373 96.9325C313.183 97.1672 314.069 97.4445 315.029 97.7645C315.989 98.0632 316.959 98.3939 317.941 98.7565C318.922 99.0979 319.85 99.4392 320.725 99.7805C321.599 100.122 322.335 100.442 322.933 100.741L320.885 104.229C320.309 103.909 319.594 103.567 318.741 103.205C317.909 102.842 317.013 102.469 316.053 102.085C315.093 101.701 314.122 101.327 313.141 100.965C312.181 100.602 311.274 100.282 310.421 100.005ZM345.84 92.2605H366.288V95.7165H345.84V92.2605ZM346.96 85.7965H365.2V89.1885H346.96V85.7965ZM353.712 87.4605H357.552V92.5805C357.552 93.6045 357.424 94.6712 357.168 95.7805C356.933 96.8899 356.485 97.9992 355.824 99.1085C355.184 100.197 354.256 101.253 353.04 102.277C351.845 103.279 350.298 104.197 348.4 105.029C348.229 104.751 347.994 104.442 347.696 104.101C347.397 103.759 347.088 103.418 346.768 103.077C346.448 102.735 346.138 102.458 345.84 102.245C347.653 101.583 349.082 100.847 350.128 100.037C351.194 99.2259 351.973 98.3832 352.464 97.5085C352.976 96.6339 353.306 95.7805 353.456 94.9485C353.626 94.0952 353.712 93.2952 353.712 92.5485V87.4605ZM358.128 94.6925C358.789 96.4632 359.792 97.9672 361.136 99.2045C362.501 100.421 364.25 101.295 366.384 101.829C366.106 102.085 365.808 102.405 365.488 102.789C365.189 103.173 364.901 103.567 364.624 103.973C364.368 104.357 364.144 104.719 363.952 105.061C361.605 104.293 359.706 103.087 358.256 101.445C356.805 99.8019 355.685 97.7859 354.896 95.3965L358.128 94.6925ZM344.56 92.6125V104.421H340.816V96.1645H337.104V92.6125H344.56ZM344.56 102.757C345.221 103.802 346.149 104.57 347.344 105.061C348.538 105.551 349.968 105.829 351.632 105.893C352.57 105.935 353.68 105.967 354.96 105.989C356.261 105.989 357.626 105.978 359.056 105.957C360.485 105.935 361.882 105.893 363.248 105.829C364.634 105.765 365.861 105.69 366.928 105.605C366.8 105.903 366.65 106.287 366.48 106.757C366.309 107.226 366.149 107.706 366 108.197C365.872 108.687 365.776 109.125 365.712 109.509C364.752 109.573 363.653 109.615 362.416 109.637C361.178 109.679 359.909 109.701 358.608 109.701C357.306 109.722 356.048 109.722 354.832 109.701C353.616 109.679 352.528 109.647 351.568 109.605C349.605 109.519 347.93 109.21 346.544 108.677C345.157 108.165 343.93 107.29 342.864 106.053C342.16 106.65 341.434 107.269 340.688 107.909C339.962 108.549 339.162 109.21 338.288 109.893L336.4 105.893C337.146 105.445 337.925 104.954 338.736 104.421C339.546 103.887 340.325 103.333 341.072 102.757H344.56ZM337.136 83.2045L339.984 80.9005C340.645 81.3272 341.317 81.8285 342 82.4045C342.682 82.9592 343.322 83.5352 343.92 84.1325C344.517 84.7085 344.997 85.2419 345.36 85.7325L342.32 88.2925C342 87.7805 341.552 87.2259 340.976 86.6285C340.421 86.0312 339.802 85.4339 339.12 84.8365C338.437 84.2179 337.776 83.6739 337.136 83.2045ZM360.336 80.1325L364.24 81.3485C363.664 82.2659 363.066 83.1725 362.448 84.0685C361.85 84.9432 361.296 85.6899 360.784 86.3085L357.648 85.2205C357.968 84.7299 358.298 84.1965 358.64 83.6205C358.981 83.0232 359.301 82.4259 359.6 81.8285C359.898 81.2099 360.144 80.6445 360.336 80.1325ZM347.792 81.5405L351.024 80.1965C351.621 80.9219 352.186 81.7432 352.72 82.6605C353.253 83.5779 353.626 84.3885 353.84 85.0925L350.384 86.5645C350.213 85.8819 349.872 85.0712 349.36 84.1325C348.869 83.1725 348.346 82.3085 347.792 81.5405Z" fill="white"/>
<path d="M97.6117 240.37H105.868V242.722H97.6117V240.37ZM93.4837 254.29C94.2037 254.178 95.0357 254.042 95.9797 253.882C96.9397 253.722 97.9557 253.554 99.0277 253.378C100.1 253.186 101.164 252.994 102.22 252.802L102.46 255.298C101.068 255.618 99.6677 255.93 98.2597 256.234C96.8517 256.554 95.5717 256.834 94.4197 257.074L93.4837 254.29ZM95.9797 235.978H98.7637V254.938H95.9797V235.978ZM97.6117 235.978H107.188V247.21H97.6117V244.738H104.332V238.45H97.6117V235.978ZM102.604 245.554C102.908 246.994 103.324 248.33 103.852 249.562C104.38 250.778 105.052 251.85 105.868 252.778C106.684 253.706 107.684 254.426 108.868 254.938C108.66 255.13 108.436 255.362 108.196 255.634C107.956 255.922 107.724 256.218 107.5 256.522C107.292 256.842 107.124 257.13 106.996 257.386C105.7 256.698 104.612 255.802 103.732 254.698C102.868 253.578 102.156 252.282 101.596 250.81C101.036 249.338 100.58 247.722 100.228 245.962L102.604 245.554ZM106.084 247.378L108.34 248.938C107.684 249.578 106.988 250.21 106.252 250.834C105.532 251.442 104.868 251.962 104.26 252.394L102.484 251.026C102.868 250.706 103.276 250.338 103.708 249.922C104.156 249.506 104.588 249.074 105.004 248.626C105.42 248.178 105.78 247.762 106.084 247.378ZM87.2437 235.93H93.2197V238.522H89.9317V257.458H87.2437V235.93ZM92.4277 235.93H92.9317L93.3397 235.834L95.3077 236.962C95.0837 237.666 94.8437 238.41 94.5877 239.194C94.3317 239.978 94.0757 240.754 93.8197 241.522C93.5637 242.29 93.3077 242.986 93.0517 243.61C93.8357 244.538 94.3397 245.418 94.5637 246.25C94.8037 247.066 94.9237 247.826 94.9237 248.53C94.9237 249.33 94.8357 249.986 94.6597 250.498C94.4837 251.01 94.1957 251.41 93.7957 251.698C93.6037 251.842 93.3797 251.954 93.1237 252.034C92.8837 252.114 92.6357 252.178 92.3797 252.226C92.1557 252.258 91.8917 252.274 91.5877 252.274C91.2997 252.274 91.0037 252.274 90.6997 252.274C90.6837 251.906 90.6197 251.474 90.5077 250.978C90.4117 250.482 90.2677 250.058 90.0757 249.706C90.2997 249.722 90.4997 249.73 90.6757 249.73C90.8677 249.73 91.0357 249.73 91.1797 249.73C91.3077 249.73 91.4277 249.714 91.5397 249.682C91.6677 249.634 91.7877 249.578 91.8997 249.514C92.0437 249.402 92.1477 249.234 92.2117 249.01C92.2917 248.77 92.3237 248.482 92.3077 248.146C92.3077 247.586 92.1877 246.946 91.9477 246.226C91.7237 245.49 91.2517 244.722 90.5317 243.922C90.7077 243.378 90.8837 242.778 91.0597 242.122C91.2517 241.466 91.4277 240.81 91.5877 240.154C91.7637 239.482 91.9237 238.858 92.0677 238.282C92.2277 237.69 92.3477 237.202 92.4277 236.818V235.93ZM117.34 239.314V240.13H127.324V239.314H117.34ZM117.34 237.106V237.922H127.324V237.106H117.34ZM114.58 235.642H130.228V241.594H114.58V235.642ZM116.836 248.89V249.73H127.996V248.89H116.836ZM116.836 246.61V247.45H127.996V246.61H116.836ZM114.148 245.098H130.828V251.266H114.148V245.098ZM121.012 245.602H123.796V255.898H121.012V245.602ZM111.532 242.314H133.396V244.378H111.532V242.314ZM113.644 252.058H131.284V253.882H113.644V252.058ZM111.484 254.77H133.444V256.858H111.484V254.77ZM149.473 255.537C148.2 255.537 147.069 255.307 146.081 254.846C145.092 254.386 144.311 253.753 143.737 252.946C143.169 252.139 142.873 251.213 142.851 250.167H146.941C146.976 250.809 147.237 251.327 147.726 251.719C148.214 252.105 148.797 252.298 149.473 252.298C150.001 252.298 150.47 252.182 150.879 251.949C151.288 251.716 151.609 251.389 151.842 250.969C152.075 250.542 152.189 250.054 152.183 249.503C152.189 248.94 152.072 248.449 151.834 248.028C151.601 247.608 151.277 247.281 150.862 247.048C150.453 246.809 149.981 246.69 149.447 246.69C148.941 246.684 148.461 246.795 148.007 247.023C147.558 247.25 147.217 247.559 146.984 247.952L143.26 247.253L144.018 237.844H155.217V241.244H147.487L147.086 245.361H147.189C147.478 244.878 147.944 244.48 148.586 244.167C149.234 243.849 149.97 243.69 150.794 243.69C151.839 243.69 152.771 243.934 153.589 244.423C154.413 244.906 155.061 245.577 155.532 246.434C156.01 247.292 156.248 248.275 156.248 249.383C156.248 250.582 155.964 251.645 155.396 252.571C154.834 253.497 154.044 254.224 153.027 254.753C152.015 255.275 150.831 255.537 149.473 255.537ZM166.743 255.724C165.22 255.724 163.908 255.363 162.806 254.642C161.703 253.915 160.854 252.872 160.257 251.514C159.661 250.15 159.365 248.511 159.371 246.596C159.377 244.682 159.675 243.057 160.266 241.721C160.862 240.38 161.709 239.361 162.806 238.662C163.908 237.957 165.22 237.605 166.743 237.605C168.266 237.605 169.578 237.957 170.681 238.662C171.789 239.361 172.641 240.38 173.237 241.721C173.834 243.062 174.129 244.687 174.124 246.596C174.124 248.517 173.825 250.159 173.229 251.523C172.632 252.886 171.783 253.929 170.681 254.65C169.584 255.366 168.271 255.724 166.743 255.724ZM166.743 252.273C167.652 252.273 168.388 251.809 168.95 250.883C169.513 249.952 169.791 248.523 169.786 246.596C169.786 245.335 169.658 244.295 169.402 243.477C169.146 242.653 168.791 242.04 168.337 241.636C167.882 241.233 167.351 241.031 166.743 241.031C165.84 241.031 165.11 241.488 164.553 242.403C163.996 243.312 163.715 244.71 163.709 246.596C163.703 247.875 163.825 248.934 164.075 249.775C164.331 250.616 164.689 251.244 165.149 251.659C165.61 252.068 166.141 252.273 166.743 252.273ZM184.719 255.724C183.196 255.724 181.883 255.363 180.781 254.642C179.679 253.915 178.83 252.872 178.233 251.514C177.636 250.15 177.341 248.511 177.347 246.596C177.352 244.682 177.651 243.057 178.241 241.721C178.838 240.38 179.685 239.361 180.781 238.662C181.883 237.957 183.196 237.605 184.719 237.605C186.241 237.605 187.554 237.957 188.656 238.662C189.764 239.361 190.616 240.38 191.213 241.721C191.81 243.062 192.105 244.687 192.099 246.596C192.099 248.517 191.801 250.159 191.205 251.523C190.608 252.886 189.758 253.929 188.656 254.65C187.56 255.366 186.247 255.724 184.719 255.724ZM184.719 252.273C185.628 252.273 186.364 251.809 186.926 250.883C187.489 249.952 187.767 248.523 187.761 246.596C187.761 245.335 187.633 244.295 187.378 243.477C187.122 242.653 186.767 242.04 186.312 241.636C185.858 241.233 185.327 241.031 184.719 241.031C183.815 241.031 183.085 241.488 182.528 242.403C181.972 243.312 181.69 244.71 181.685 246.596C181.679 247.875 181.801 248.934 182.051 249.775C182.307 250.616 182.665 251.244 183.125 251.659C183.585 252.068 184.116 252.273 184.719 252.273ZM213.241 242.05H220.393V244.642H213.241V242.05ZM213.241 248.05H220.393V250.642H213.241V248.05ZM211.753 236.122H222.025V255.802H219.121V238.714H214.513V255.802H211.753V236.122ZM209.521 254.218H223.657V256.81H209.521V254.218ZM204.625 234.922L207.169 235.81C206.849 236.434 206.513 237.074 206.161 237.73C205.809 238.37 205.465 238.994 205.129 239.602C204.793 240.194 204.465 240.714 204.145 241.162L202.201 240.37C202.489 239.874 202.785 239.314 203.089 238.69C203.393 238.05 203.681 237.402 203.953 236.746C204.225 236.09 204.449 235.482 204.625 234.922ZM207.505 237.778L209.953 238.786C209.361 239.698 208.721 240.658 208.033 241.666C207.345 242.658 206.649 243.61 205.945 244.522C205.241 245.434 204.585 246.234 203.977 246.922L202.225 246.034C202.689 245.49 203.161 244.874 203.641 244.186C204.121 243.498 204.593 242.786 205.057 242.05C205.537 241.314 205.985 240.578 206.401 239.842C206.833 239.09 207.201 238.402 207.505 237.778ZM200.929 240.61L202.297 238.642C202.713 238.994 203.145 239.394 203.593 239.842C204.041 240.274 204.449 240.706 204.817 241.138C205.201 241.57 205.489 241.97 205.681 242.338L204.217 244.57C204.025 244.202 203.745 243.786 203.377 243.322C203.025 242.842 202.633 242.37 202.201 241.906C201.769 241.426 201.345 240.994 200.929 240.61ZM206.929 243.562L208.969 242.674C209.289 243.202 209.601 243.77 209.905 244.378C210.209 244.986 210.473 245.586 210.697 246.178C210.921 246.754 211.089 247.274 211.201 247.738L208.993 248.746C208.897 248.298 208.745 247.778 208.537 247.186C208.329 246.578 208.081 245.962 207.793 245.338C207.521 244.698 207.233 244.106 206.929 243.562ZM200.929 245.482C202.033 245.45 203.361 245.402 204.913 245.338C206.481 245.274 208.073 245.202 209.689 245.122L209.665 247.402C208.161 247.514 206.665 247.626 205.177 247.738C203.689 247.834 202.353 247.914 201.169 247.978L200.929 245.482ZM207.337 249.562L209.449 248.866C209.785 249.586 210.097 250.37 210.385 251.218C210.673 252.066 210.881 252.802 211.009 253.426L208.777 254.242C208.665 253.602 208.473 252.85 208.201 251.986C207.929 251.106 207.641 250.298 207.337 249.562ZM201.961 249.01L204.337 249.442C204.209 250.594 204.017 251.73 203.761 252.85C203.505 253.97 203.209 254.914 202.873 255.682C202.713 255.57 202.497 255.442 202.225 255.298C201.953 255.17 201.673 255.042 201.385 254.914C201.113 254.786 200.873 254.69 200.665 254.626C201.017 253.906 201.297 253.05 201.505 252.058C201.713 251.05 201.865 250.034 201.961 249.01ZM204.745 246.754H207.289V257.458H204.745V246.754Z" fill="white"/>
<path d="M88.5085 147.96H135.315V154.804H88.5085V147.96ZM91.5825 164.896H132.589V171.624H91.5825V164.896ZM86.0145 182.818H138.215V189.662H86.0145V182.818ZM108.171 153.876H115.827V186.472H108.171V153.876ZM103.009 140.942L108.809 136.94C110.046 137.713 111.361 138.622 112.753 139.666C114.183 140.71 115.537 141.754 116.813 142.798C118.127 143.842 119.191 144.828 120.003 145.756L113.797 150.222C113.101 149.333 112.134 148.347 110.897 147.264C109.698 146.143 108.403 145.041 107.011 143.958C105.619 142.837 104.285 141.831 103.009 140.942ZM154.629 151.092V153.818H162.923V151.092H154.629ZM154.629 143.958V146.684H162.923V143.958H154.629ZM148.481 139.26H169.361V158.516H148.481V139.26ZM145.813 161.88H171.971V166.926H145.813V161.88ZM171.739 139.434H198.477V144.364H171.739V139.434ZM156.601 163.446H162.459V186.762L156.601 183.456V163.446ZM159.675 171.624H170.869V176.67H159.675V171.624ZM182.933 140.652L189.255 141.986C188.52 143.61 187.785 145.253 187.051 146.916C186.355 148.54 185.717 149.913 185.137 151.034L180.149 149.7C180.651 148.424 181.173 146.935 181.715 145.234C182.256 143.533 182.662 142.005 182.933 140.652ZM179.685 159.27V161.996H190.299V159.27H179.685ZM179.685 166.462V169.188H190.299V166.462H179.685ZM179.685 152.136V154.862H190.299V152.136H179.685ZM173.537 147.438H196.737V173.944H173.537V147.438ZM178.235 174.35L183.919 176.148C182.72 177.772 181.173 179.357 179.279 180.904C177.423 182.412 175.586 183.669 173.769 184.674C173.421 184.326 172.976 183.901 172.435 183.398C171.893 182.857 171.333 182.335 170.753 181.832C170.211 181.329 169.709 180.923 169.245 180.614C170.985 179.879 172.667 178.951 174.291 177.83C175.915 176.709 177.229 175.549 178.235 174.35ZM148.423 169.246H154.049C153.933 172.185 153.72 175.065 153.411 177.888C153.101 180.672 152.56 183.263 151.787 185.66C151.052 188.019 149.95 190.087 148.481 191.866C148.055 191.131 147.437 190.281 146.625 189.314C145.851 188.347 145.117 187.613 144.421 187.11C145.503 185.757 146.315 184.133 146.857 182.238C147.437 180.343 147.823 178.294 148.017 176.09C148.249 173.847 148.384 171.566 148.423 169.246ZM153.063 174.06C153.913 176.496 154.996 178.429 156.311 179.86C157.625 181.291 159.191 182.373 161.009 183.108C162.865 183.843 164.991 184.326 167.389 184.558C169.786 184.751 172.454 184.848 175.393 184.848C176.205 184.848 177.403 184.848 178.989 184.848C180.574 184.848 182.372 184.848 184.383 184.848C186.393 184.848 188.423 184.848 190.473 184.848C192.522 184.809 194.397 184.771 196.099 184.732C197.8 184.693 199.134 184.674 200.101 184.674C199.637 185.293 199.173 186.182 198.709 187.342C198.283 188.502 197.993 189.507 197.839 190.358H193.373H175.393C171.835 190.358 168.645 190.184 165.823 189.836C163 189.488 160.506 188.792 158.341 187.748C156.214 186.743 154.377 185.235 152.831 183.224C151.284 181.213 149.989 178.584 148.945 175.336L153.063 174.06ZM186.413 176.496L191.227 174.002C192.271 174.659 193.334 175.433 194.417 176.322C195.499 177.173 196.505 178.043 197.433 178.932C198.399 179.783 199.173 180.575 199.753 181.31L194.765 184.268C194.146 183.495 193.373 182.644 192.445 181.716C191.517 180.788 190.511 179.86 189.429 178.932C188.385 178.004 187.379 177.192 186.413 176.496ZM239.599 176.902V179.57H244.355V176.902H239.599ZM235.191 173.364H248.879V183.05H235.191V173.364ZM226.781 167.1H257.695V191.402H251.721V171.45H232.523V191.46H226.781V167.1ZM225.505 141.754H257.985V146.974H225.505V141.754ZM230.319 184.906H253.867V189.43H230.319V184.906ZM224.403 159.27H259.783V164.606H224.403V159.27ZM205.437 165.766H220.517V171.74H205.437V165.766ZM217.037 137.056H223.185V191.518H217.037V137.056ZM238.381 136.998H244.819V162.112H238.381V136.998ZM229.623 153.934L232.929 151.092C233.895 151.749 234.881 152.523 235.887 153.412C236.892 154.301 237.665 155.094 238.207 155.79L234.785 158.98C234.243 158.245 233.47 157.395 232.465 156.428C231.498 155.461 230.551 154.63 229.623 153.934ZM207.989 168.26H213.847V171.798C213.847 172.958 213.789 174.35 213.673 175.974C213.595 177.598 213.421 179.319 213.151 181.136C212.919 182.953 212.571 184.751 212.107 186.53C211.643 188.309 211.024 189.933 210.251 191.402C209.864 191.131 209.342 190.841 208.685 190.532C208.066 190.223 207.409 189.913 206.713 189.604C206.055 189.295 205.456 189.043 204.915 188.85C205.804 187.11 206.461 185.177 206.887 183.05C207.312 180.885 207.602 178.797 207.757 176.786C207.911 174.737 207.989 173.016 207.989 171.624V168.26ZM230.029 147.148L235.133 148.192C234.475 150.435 233.528 152.523 232.291 154.456C231.092 156.389 229.758 158.013 228.289 159.328C227.825 158.903 227.148 158.4 226.259 157.82C225.369 157.201 224.596 156.737 223.939 156.428C225.408 155.268 226.645 153.895 227.651 152.31C228.695 150.686 229.487 148.965 230.029 147.148ZM250.329 153.644L253.635 150.802C254.679 151.498 255.761 152.349 256.883 153.354C258.004 154.321 258.874 155.191 259.493 155.964L256.013 159.096C255.433 158.284 254.582 157.375 253.461 156.37C252.378 155.326 251.334 154.417 250.329 153.644ZM250.271 147.148L255.433 148.076C254.853 150.357 253.963 152.465 252.765 154.398C251.605 156.331 250.251 157.936 248.705 159.212C248.241 158.787 247.564 158.265 246.675 157.646C245.785 157.027 245.012 156.563 244.355 156.254C245.863 155.171 247.119 153.837 248.125 152.252C249.13 150.667 249.845 148.965 250.271 147.148ZM207.583 140.072H213.441V153.296H221.155V159.502H207.583V140.072ZM290.175 139.956H313.781V146.336H290.175V139.956ZM288.203 160.082H320.277V166.694H288.203V160.082ZM300.499 153.354H307.459V183.746C307.459 185.486 307.246 186.859 306.821 187.864C306.395 188.869 305.622 189.643 304.501 190.184C303.341 190.725 301.949 191.073 300.325 191.228C298.739 191.421 296.883 191.499 294.757 191.46C294.602 190.493 294.273 189.353 293.771 188.038C293.268 186.723 292.765 185.583 292.263 184.616C293.732 184.655 295.143 184.693 296.497 184.732C297.85 184.771 298.778 184.771 299.281 184.732C299.745 184.732 300.054 184.655 300.209 184.5C300.402 184.345 300.499 184.075 300.499 183.688V153.354ZM311.229 139.956H312.969L314.361 139.55L318.885 142.972C317.763 144.673 316.487 146.452 315.057 148.308C313.665 150.125 312.195 151.885 310.649 153.586C309.102 155.249 307.575 156.718 306.067 157.994C305.603 157.375 304.965 156.66 304.153 155.848C303.341 155.036 302.645 154.398 302.065 153.934C303.225 152.851 304.404 151.556 305.603 150.048C306.801 148.54 307.884 147.013 308.851 145.466C309.856 143.919 310.649 142.566 311.229 141.406V139.956ZM266.105 148.54H284.897V155.036H266.105V148.54ZM273.935 136.998L280.431 137.694C279.889 140.787 279.271 144.035 278.575 147.438C277.917 150.841 277.221 154.243 276.487 157.646C275.752 161.01 275.017 164.277 274.283 167.448C273.548 170.58 272.833 173.441 272.137 176.032L266.453 173.074C267.11 170.793 267.767 168.183 268.425 165.244C269.121 162.305 269.797 159.212 270.455 155.964C271.112 152.677 271.731 149.429 272.311 146.22C272.929 142.972 273.471 139.898 273.935 136.998ZM269.527 172.088L273.297 167.158C275.307 168.434 277.415 169.865 279.619 171.45C281.861 173.035 283.93 174.64 285.825 176.264C287.758 177.888 289.285 179.435 290.407 180.904L286.231 186.53C285.148 185.061 283.679 183.475 281.823 181.774C279.967 180.034 277.956 178.313 275.791 176.612C273.664 174.911 271.576 173.403 269.527 172.088ZM282.461 148.54H283.621L284.839 148.424L288.957 149.12C288.531 156.66 287.584 163.175 286.115 168.666C284.684 174.118 282.673 178.719 280.083 182.47C277.531 186.221 274.321 189.295 270.455 191.692C270.029 190.841 269.411 189.855 268.599 188.734C267.787 187.651 267.013 186.801 266.279 186.182C269.565 184.442 272.349 181.89 274.631 178.526C276.912 175.162 278.691 171.063 279.967 166.23C281.281 161.397 282.113 155.945 282.461 149.874V148.54ZM353.569 179.744L358.963 178.294C359.62 179.299 360.181 180.401 360.645 181.6C361.109 182.799 361.437 183.862 361.631 184.79L355.947 186.472C355.831 185.544 355.541 184.442 355.077 183.166C354.613 181.89 354.11 180.749 353.569 179.744ZM368.881 178.178L374.913 179.802C374.294 181.039 373.675 182.238 373.057 183.398C372.477 184.558 371.935 185.544 371.433 186.356L366.271 184.848C366.735 183.92 367.218 182.818 367.721 181.542C368.223 180.266 368.61 179.145 368.881 178.178ZM356.759 171.74V174.64H371.143V171.74H356.759ZM350.959 167.622H377.117V178.758H350.959V167.622ZM354.671 151.614V154.282H372.999V151.614H354.671ZM354.671 145.002V147.612H372.999V145.002H354.671ZM349.161 140.768H378.799V158.516H349.161V140.768ZM348.291 160.488H379.785V165.708H348.291V160.488ZM347.131 185.254H380.597V190.416H347.131V185.254ZM356.933 136.998H362.037V143.9H356.933V136.998ZM365.459 136.998H370.621V143.9H365.459V136.998ZM357.919 142.74H362.037V157.704H357.919V142.74ZM365.459 142.74H369.577V157.704H365.459V142.74ZM326.657 152.194H347.015V158.226H326.657V152.194ZM328.049 140.652H345.855V146.626H328.049V140.652ZM342.433 161.184H346.841V182.76H342.433V161.184ZM334.255 155.21H339.997V191.46H334.255V155.21ZM327.469 161.242H331.877V168.202C331.877 171.179 331.741 174.311 331.471 177.598C331.2 180.846 330.562 183.862 329.557 186.646C329.093 186.182 328.474 185.66 327.701 185.08C326.927 184.5 326.251 184.055 325.671 183.746C326.444 181.387 326.927 178.816 327.121 176.032C327.353 173.248 327.469 170.599 327.469 168.086V161.242Z" fill="white"/>
<circle cx="127.999" cy="66.2859" r="56" fill="#FF9C1E"/>
<path d="M127.674 103.28C122.135 103.28 117.222 102.333 112.937 100.439C108.676 98.5217 105.314 95.882 102.852 92.5203C100.39 89.1585 99.1352 85.2878 99.0878 80.908H116.773C116.844 82.4942 117.353 83.9028 118.299 85.1339C119.246 86.3413 120.537 87.2883 122.17 87.9748C123.804 88.6614 125.662 89.0046 127.746 89.0046C129.829 89.0046 131.664 88.6377 133.25 87.9038C134.86 87.1462 136.114 86.1164 137.014 84.8143C137.914 83.4885 138.352 81.9734 138.328 80.2688C138.352 78.5643 137.866 77.0491 136.872 75.7234C135.878 74.3976 134.469 73.3678 132.646 72.6339C130.847 71.9 128.716 71.533 126.254 71.533H119.187V59.033H126.254C128.408 59.033 130.302 58.6779 131.936 57.9677C133.593 57.2575 134.883 56.2632 135.807 54.9848C136.73 53.6827 137.18 52.1912 137.156 50.5103C137.18 48.8768 136.789 47.4445 135.984 46.2134C135.203 44.9587 134.102 43.9881 132.682 43.3015C131.285 42.615 129.663 42.2717 127.817 42.2717C125.875 42.2717 124.112 42.615 122.525 43.3015C120.963 43.9881 119.72 44.9587 118.797 46.2134C117.873 47.4682 117.388 48.9241 117.341 50.5813H100.544C100.591 46.249 101.799 42.4374 104.166 39.1467C106.533 35.8323 109.753 33.24 113.825 31.3697C117.921 29.4994 122.585 28.5643 127.817 28.5643C133.025 28.5643 137.606 29.4758 141.559 31.2987C145.513 33.1216 148.591 35.6074 150.792 38.7561C152.994 41.8811 154.095 45.4204 154.095 49.374C154.119 53.4696 152.781 56.8432 150.082 59.4947C147.407 62.1462 143.962 63.7797 139.748 64.3953V64.9634C145.383 65.6263 149.632 67.4492 152.497 70.4322C155.385 73.4151 156.817 77.1438 156.794 81.6183C156.794 85.8323 155.551 89.5728 153.065 92.8399C150.603 96.0832 147.17 98.6401 142.767 100.51C138.387 102.357 133.356 103.28 127.674 103.28Z" fill="white"/>
</svg>
