<svg width="570" height="314" viewBox="0 0 570 314" fill="none" xmlns="http://www.w3.org/2000/svg">
<path d="M-0.0065918 31.6285H539.993C556.562 31.6285 569.993 45.06 569.993 61.6285V314H29.9934C13.4249 314 -0.0065918 300.569 -0.0065918 284V31.6285Z" fill="#39BF63"/>
<line x1="347.79" y1="220.5" x2="38.6375" y2="220.5" stroke="white"/>
<path d="M157.227 81.3859H169.931V84.0419H157.227V81.3859ZM155.787 87.3379H171.403V90.0899H155.787V87.3379ZM162.123 102.698H168.395V108.33H162.123V106.25H165.803V104.746H162.123V102.698ZM160.683 102.698H163.275V109.29H160.683V102.698ZM155.787 95.7859H171.307V98.3459H159.211V110.442H155.787V95.7859ZM169.771 95.7859H173.323V107.114C173.323 107.818 173.238 108.394 173.067 108.842C172.918 109.29 172.598 109.642 172.107 109.898C171.659 110.133 171.126 110.282 170.507 110.346C169.889 110.431 169.174 110.474 168.363 110.474C168.278 110.005 168.129 109.482 167.915 108.906C167.702 108.33 167.489 107.839 167.275 107.434C167.702 107.455 168.118 107.466 168.523 107.466C168.929 107.466 169.206 107.466 169.355 107.466C169.526 107.466 169.633 107.434 169.675 107.37C169.739 107.306 169.771 107.199 169.771 107.05V95.7859ZM163.723 88.7139H167.147V92.9379C167.147 93.6419 167.062 94.1859 166.891 94.5699C166.721 94.9539 166.379 95.2419 165.867 95.4339C165.398 95.6259 164.822 95.7432 164.139 95.7859C163.457 95.8285 162.657 95.8499 161.739 95.8499C161.654 95.4232 161.515 94.9859 161.323 94.5379C161.153 94.0685 160.971 93.6632 160.779 93.3219C161.291 93.3432 161.793 93.3539 162.283 93.3539C162.774 93.3539 163.105 93.3432 163.275 93.3219C163.574 93.3219 163.723 93.1832 163.723 92.9059V88.7139ZM161.259 97.2259H163.883C163.862 98.2712 163.745 99.1779 163.531 99.9459C163.339 100.714 162.966 101.343 162.411 101.834C161.857 102.303 161.014 102.666 159.883 102.922C159.798 102.623 159.617 102.261 159.339 101.834C159.062 101.407 158.795 101.077 158.539 100.842C159.35 100.693 159.937 100.479 160.299 100.202C160.683 99.9245 160.929 99.5512 161.035 99.0819C161.163 98.5912 161.238 97.9725 161.259 97.2259ZM165.099 97.3859H167.723V99.1779C167.723 99.4552 167.745 99.6259 167.787 99.6899C167.851 99.7539 167.99 99.7859 168.203 99.7859C168.267 99.7859 168.374 99.7859 168.523 99.7859C168.673 99.7859 168.822 99.7859 168.971 99.7859C169.142 99.7859 169.249 99.7859 169.291 99.7859C169.505 99.7859 169.643 99.7752 169.707 99.7539C169.771 99.7325 169.814 99.6792 169.835 99.5939C170.07 99.7645 170.411 99.9245 170.859 100.074C171.307 100.223 171.702 100.341 172.043 100.426C171.915 100.981 171.67 101.375 171.307 101.61C170.945 101.823 170.411 101.93 169.707 101.93C169.601 101.93 169.462 101.93 169.291 101.93C169.121 101.93 168.939 101.93 168.747 101.93C168.555 101.93 168.363 101.93 168.171 101.93C168.001 101.93 167.873 101.93 167.787 101.93C166.678 101.93 165.953 101.738 165.611 101.354C165.27 100.97 165.099 100.245 165.099 99.1779V97.3859ZM170.731 87.3379H171.275L171.787 87.1779L174.155 87.9779C173.729 88.9592 173.227 89.9512 172.651 90.9539C172.097 91.9565 171.542 92.7992 170.987 93.4819L168.331 92.3619C168.779 91.7859 169.227 91.0819 169.675 90.2499C170.123 89.3965 170.475 88.5859 170.731 87.8179V87.3379ZM159.371 86.2179L161.035 84.4579C161.953 84.6285 162.945 84.8419 164.011 85.0979C165.099 85.3325 166.145 85.5885 167.147 85.8659C168.171 86.1432 169.035 86.3992 169.739 86.6339L167.947 88.5859C167.329 88.3512 166.518 88.0952 165.515 87.8179C164.534 87.5192 163.499 87.2312 162.411 86.9539C161.323 86.6765 160.31 86.4312 159.371 86.2179ZM162.315 87.8819L164.651 89.3219C164.097 90.0685 163.371 90.8259 162.475 91.5939C161.601 92.3619 160.662 93.0659 159.659 93.7059C158.657 94.3459 157.675 94.8792 156.715 95.3059C156.502 94.9432 156.203 94.5165 155.819 94.0259C155.457 93.5352 155.094 93.1405 154.731 92.8419C155.67 92.5432 156.619 92.1379 157.579 91.6259C158.561 91.0925 159.467 90.4952 160.299 89.8339C161.153 89.1725 161.825 88.5219 162.315 87.8819ZM168.843 81.3859H169.675L170.347 81.2259L172.363 82.8259C171.425 83.7219 170.315 84.5752 169.035 85.3859C167.755 86.1965 166.454 86.8792 165.131 87.4339C164.939 87.1565 164.673 86.8365 164.331 86.4739C164.011 86.1112 163.734 85.8125 163.499 85.5779C164.182 85.3005 164.865 84.9592 165.547 84.5539C166.23 84.1272 166.859 83.6899 167.435 83.2419C168.033 82.7725 168.502 82.3459 168.843 81.9619V81.3859ZM144.619 87.0499H154.891V90.6019H144.619V87.0499ZM148.299 80.3939H151.787V110.442H148.299V80.3939ZM148.267 89.4819L150.411 90.1859C150.177 91.4445 149.899 92.7565 149.579 94.1219C149.259 95.4872 148.886 96.8312 148.459 98.1539C148.054 99.4552 147.606 100.682 147.115 101.834C146.625 102.965 146.102 103.946 145.547 104.778C145.377 104.266 145.121 103.679 144.779 103.018C144.438 102.357 144.129 101.802 143.851 101.354C144.342 100.65 144.811 99.8285 145.259 98.8899C145.707 97.9512 146.123 96.9485 146.507 95.8819C146.913 94.8152 147.265 93.7379 147.563 92.6499C147.862 91.5405 148.097 90.4845 148.267 89.4819ZM151.563 91.9459C151.755 92.1592 152.022 92.5432 152.363 93.0979C152.726 93.6312 153.11 94.2285 153.515 94.8899C153.942 95.5512 154.315 96.1485 154.635 96.6819C154.977 97.2152 155.222 97.5992 155.371 97.8339L153.483 100.554C153.313 100.085 153.078 99.5299 152.779 98.8899C152.502 98.2285 152.193 97.5459 151.851 96.8419C151.51 96.1379 151.179 95.4872 150.859 94.8899C150.561 94.2925 150.305 93.8125 150.091 93.4499L151.563 91.9459ZM183.307 96.2019H201.963V99.6579H183.307V96.2019ZM190.795 89.9939H194.635V97.9619H190.795V89.9939ZM183.115 88.5859H204.747V100.938H200.811V92.0419H183.115V88.5859ZM181.227 88.5859H185.099V104.234C185.099 104.917 185.185 105.429 185.355 105.77C185.547 106.111 185.931 106.335 186.507 106.442C187.105 106.549 187.969 106.602 189.099 106.602C189.377 106.602 189.782 106.602 190.315 106.602C190.87 106.602 191.489 106.602 192.171 106.602C192.875 106.602 193.601 106.602 194.347 106.602C195.115 106.602 195.851 106.602 196.555 106.602C197.259 106.602 197.889 106.602 198.443 106.602C199.019 106.602 199.457 106.602 199.755 106.602C200.758 106.602 201.515 106.506 202.027 106.314C202.539 106.101 202.902 105.695 203.115 105.098C203.35 104.501 203.542 103.605 203.691 102.41C204.161 102.709 204.758 102.997 205.483 103.274C206.23 103.53 206.881 103.711 207.435 103.818C207.201 105.439 206.849 106.709 206.379 107.626C205.91 108.565 205.174 109.226 204.171 109.61C203.19 109.994 201.814 110.186 200.043 110.186C199.787 110.186 199.382 110.186 198.827 110.186C198.273 110.186 197.622 110.186 196.875 110.186C196.129 110.186 195.35 110.186 194.539 110.186C193.75 110.186 192.982 110.186 192.235 110.186C191.51 110.186 190.87 110.186 190.315 110.186C189.782 110.186 189.387 110.186 189.131 110.186C187.126 110.186 185.537 110.015 184.363 109.674C183.211 109.333 182.401 108.735 181.931 107.882C181.462 107.029 181.227 105.813 181.227 104.234V88.5859ZM186.795 82.6019H196.619V85.8979H185.163L186.795 82.6019ZM186.315 80.2339L190.443 81.0659C189.633 82.4952 188.705 83.9139 187.659 85.3219C186.614 86.7299 185.441 88.0952 184.139 89.4179C182.859 90.7405 181.43 91.9885 179.851 93.1619C179.638 92.8632 179.371 92.5325 179.051 92.1699C178.731 91.8072 178.39 91.4659 178.027 91.1459C177.686 90.8259 177.366 90.5699 177.067 90.3779C178.539 89.3965 179.862 88.3299 181.035 87.1779C182.209 86.0259 183.233 84.8632 184.107 83.6899C185.003 82.4952 185.739 81.3432 186.315 80.2339ZM194.859 82.6019H195.723L196.491 82.3779L199.051 84.1059C198.582 85.0019 198.049 85.9299 197.451 86.8899C196.875 87.8499 196.257 88.7672 195.595 89.6419C194.955 90.5165 194.315 91.2845 193.675 91.9459C193.505 91.6685 193.27 91.3699 192.971 91.0499C192.673 90.7299 192.363 90.4205 192.043 90.1219C191.745 89.8232 191.478 89.5672 191.243 89.3539C191.713 88.8205 192.182 88.2019 192.651 87.4979C193.121 86.7725 193.547 86.0472 193.931 85.3219C194.337 84.5752 194.646 83.9139 194.859 83.3379V82.6019ZM215.819 99.3379H240.395V102.57H215.819V99.3379ZM214.187 93.4179H238.315V96.6499H214.187V93.4179ZM228.971 94.8899H232.779V106.538C232.779 107.455 232.662 108.17 232.427 108.682C232.214 109.194 231.787 109.578 231.147 109.834C230.529 110.133 229.782 110.314 228.907 110.378C228.054 110.463 227.051 110.495 225.899 110.474C225.793 109.962 225.601 109.365 225.323 108.682C225.067 108.021 224.811 107.445 224.555 106.954C225.323 106.975 226.081 106.997 226.827 107.018C227.574 107.018 228.075 107.018 228.331 107.018C228.566 106.997 228.726 106.954 228.811 106.89C228.918 106.805 228.971 106.666 228.971 106.474V94.8899ZM215.499 96.6819L219.211 97.0979C218.955 98.1859 218.657 99.3059 218.315 100.458C217.995 101.589 217.686 102.57 217.387 103.402L213.739 102.89C214.038 102.058 214.347 101.077 214.667 99.9459C215.009 98.7939 215.286 97.7059 215.499 96.6819ZM226.795 100.618L229.611 101.962C228.673 102.879 227.574 103.743 226.315 104.554C225.078 105.343 223.745 106.058 222.315 106.698C220.886 107.338 219.403 107.903 217.867 108.394C216.353 108.906 214.827 109.311 213.291 109.61C213.035 109.141 212.683 108.597 212.235 107.978C211.787 107.359 211.382 106.858 211.019 106.474C212.513 106.239 214.017 105.941 215.531 105.578C217.067 105.194 218.539 104.757 219.947 104.266C221.355 103.754 222.646 103.199 223.819 102.602C224.993 101.983 225.985 101.322 226.795 100.618ZM223.819 80.3619H227.787V84.9059H223.819V80.3619ZM220.491 85.5139H224.587C224.374 86.6232 224.065 87.6152 223.659 88.4899C223.254 89.3432 222.657 90.0899 221.867 90.7299C221.078 91.3699 220.011 91.9245 218.667 92.3939C217.323 92.8419 215.617 93.2152 213.547 93.5139C213.419 93.0659 213.174 92.5539 212.811 91.9779C212.47 91.4019 212.118 90.9325 211.755 90.5699C213.505 90.3992 214.913 90.1752 215.979 89.8979C217.067 89.5992 217.91 89.2472 218.507 88.8419C219.126 88.4152 219.574 87.9352 219.851 87.4019C220.129 86.8472 220.342 86.2179 220.491 85.5139ZM226.763 85.5779H230.603V88.7139C230.603 89.0979 230.657 89.3432 230.763 89.4499C230.87 89.5352 231.115 89.5779 231.499 89.5779C231.585 89.5779 231.713 89.5779 231.883 89.5779C232.075 89.5779 232.289 89.5779 232.523 89.5779C232.758 89.5779 232.971 89.5779 233.163 89.5779C233.377 89.5779 233.537 89.5779 233.643 89.5779C233.857 89.5779 234.017 89.5352 234.123 89.4499C234.23 89.3432 234.315 89.1619 234.379 88.9059C234.443 88.6285 234.486 88.2339 234.507 87.7219C234.87 87.9565 235.371 88.1912 236.011 88.4259C236.651 88.6392 237.206 88.7992 237.675 88.9059C237.505 90.3352 237.153 91.3059 236.619 91.8179C236.086 92.3085 235.243 92.5539 234.091 92.5539C233.921 92.5539 233.686 92.5539 233.387 92.5539C233.089 92.5539 232.779 92.5539 232.459 92.5539C232.139 92.5539 231.83 92.5539 231.531 92.5539C231.254 92.5539 231.03 92.5539 230.859 92.5539C229.75 92.5539 228.897 92.4365 228.299 92.2019C227.702 91.9672 227.297 91.5725 227.083 91.0179C226.87 90.4419 226.763 89.6845 226.763 88.7459V85.5779ZM211.979 82.9539H239.595V88.7139H235.659V86.1539H215.755V88.7459H211.979V82.9539ZM254.283 83.3059H273.643V86.5699H254.283V83.3059ZM257.835 80.3939H261.387V89.0339H257.835V80.3939ZM266.219 80.3939H269.867V89.1619H266.219V80.3939ZM263.627 91.4019C263.03 92.3192 262.251 93.2685 261.291 94.2499C260.353 95.2312 259.307 96.1699 258.155 97.0659C257.025 97.9405 255.83 98.6872 254.571 99.3059C254.379 98.8365 254.113 98.3032 253.771 97.7059C253.43 97.1085 253.099 96.6072 252.779 96.2019C254.017 95.6259 255.211 94.8899 256.363 93.9939C257.515 93.0979 258.561 92.1379 259.499 91.1139C260.438 90.0685 261.185 89.0552 261.739 88.0739H265.227C265.995 89.1619 266.881 90.1965 267.883 91.1779C268.886 92.1379 269.953 92.9912 271.083 93.7379C272.214 94.4845 273.345 95.0925 274.475 95.5619C274.134 95.9885 273.782 96.5219 273.419 97.1619C273.057 97.7805 272.747 98.3565 272.491 98.8899C271.403 98.3352 270.294 97.6525 269.163 96.8419C268.054 96.0312 267.009 95.1565 266.027 94.2179C265.067 93.2792 264.267 92.3405 263.627 91.4019ZM258.763 95.2739H268.747V98.2819H258.763V95.2739ZM258.155 106.314H269.323V109.322H258.155V106.314ZM256.299 100.234H271.339V110.346H267.723V103.274H259.755V110.474H256.299V100.234ZM243.691 96.0739C245.014 95.7752 246.603 95.3805 248.459 94.8899C250.337 94.3779 252.214 93.8659 254.091 93.3539L254.603 96.7459C252.875 97.3005 251.126 97.8445 249.355 98.3779C247.606 98.8899 245.985 99.3592 244.491 99.7859L243.691 96.0739ZM244.331 86.4739H254.219V89.9939H244.331V86.4739ZM248.075 80.4259H251.755V106.154C251.755 107.093 251.659 107.839 251.467 108.394C251.275 108.949 250.923 109.375 250.411 109.674C249.878 109.994 249.217 110.197 248.427 110.282C247.659 110.389 246.721 110.442 245.611 110.442C245.569 109.93 245.441 109.311 245.227 108.586C245.014 107.861 244.779 107.231 244.523 106.698C245.163 106.719 245.761 106.741 246.315 106.762C246.891 106.762 247.286 106.751 247.499 106.73C247.713 106.73 247.862 106.687 247.947 106.602C248.033 106.517 248.075 106.357 248.075 106.122V80.4259ZM294.598 92.5219H315.046V95.9779H294.598V92.5219ZM295.718 86.0579H313.958V89.4499H295.718V86.0579ZM302.47 87.7219H306.31V92.8419C306.31 93.8659 306.182 94.9325 305.926 96.0419C305.692 97.1512 305.244 98.2605 304.582 99.3699C303.942 100.458 303.014 101.514 301.798 102.538C300.604 103.541 299.057 104.458 297.158 105.29C296.988 105.013 296.753 104.703 296.454 104.362C296.156 104.021 295.846 103.679 295.526 103.338C295.206 102.997 294.897 102.719 294.598 102.506C296.412 101.845 297.841 101.109 298.886 100.298C299.953 99.4872 300.732 98.6445 301.222 97.7699C301.734 96.8952 302.065 96.0419 302.214 95.2099C302.385 94.3565 302.47 93.5565 302.47 92.8099V87.7219ZM306.886 94.9539C307.548 96.7245 308.55 98.2285 309.894 99.4659C311.26 100.682 313.009 101.557 315.142 102.09C314.865 102.346 314.566 102.666 314.246 103.05C313.948 103.434 313.66 103.829 313.382 104.234C313.126 104.618 312.902 104.981 312.71 105.322C310.364 104.554 308.465 103.349 307.014 101.706C305.564 100.063 304.444 98.0472 303.654 95.6579L306.886 94.9539ZM293.318 92.8739V104.682H289.574V96.4259H285.862V92.8739H293.318ZM293.318 103.018C293.98 104.063 294.908 104.831 296.102 105.322C297.297 105.813 298.726 106.09 300.39 106.154C301.329 106.197 302.438 106.229 303.718 106.25C305.02 106.25 306.385 106.239 307.814 106.218C309.244 106.197 310.641 106.154 312.006 106.09C313.393 106.026 314.62 105.951 315.686 105.866C315.558 106.165 315.409 106.549 315.238 107.018C315.068 107.487 314.908 107.967 314.758 108.458C314.63 108.949 314.534 109.386 314.47 109.77C313.51 109.834 312.412 109.877 311.174 109.898C309.937 109.941 308.668 109.962 307.366 109.962C306.065 109.983 304.806 109.983 303.59 109.962C302.374 109.941 301.286 109.909 300.326 109.866C298.364 109.781 296.689 109.471 295.302 108.938C293.916 108.426 292.689 107.551 291.622 106.314C290.918 106.911 290.193 107.53 289.446 108.17C288.721 108.81 287.921 109.471 287.046 110.154L285.158 106.154C285.905 105.706 286.684 105.215 287.494 104.682C288.305 104.149 289.084 103.594 289.83 103.018H293.318ZM285.894 83.4659L288.742 81.1619C289.404 81.5885 290.076 82.0899 290.758 82.6659C291.441 83.2205 292.081 83.7965 292.678 84.3939C293.276 84.9699 293.756 85.5032 294.118 85.9939L291.078 88.5539C290.758 88.0419 290.31 87.4872 289.734 86.8899C289.18 86.2925 288.561 85.6952 287.878 85.0979C287.196 84.4792 286.534 83.9352 285.894 83.4659ZM309.094 80.3939L312.998 81.6099C312.422 82.5272 311.825 83.4339 311.206 84.3299C310.609 85.2045 310.054 85.9512 309.542 86.5699L306.406 85.4819C306.726 84.9912 307.057 84.4579 307.398 83.8819C307.74 83.2845 308.06 82.6872 308.358 82.0899C308.657 81.4712 308.902 80.9059 309.094 80.3939ZM296.55 81.8019L299.782 80.4579C300.38 81.1832 300.945 82.0045 301.478 82.9219C302.012 83.8392 302.385 84.6499 302.598 85.3539L299.142 86.8259C298.972 86.1432 298.63 85.3325 298.118 84.3939C297.628 83.4339 297.105 82.5699 296.55 81.8019Z" fill="white"/>
<path d="M45.144 242.072H53.4V244.424H45.144V242.072ZM41.016 255.992C41.736 255.88 42.568 255.744 43.512 255.584C44.472 255.424 45.488 255.256 46.56 255.08C47.632 254.888 48.696 254.696 49.752 254.504L49.992 257C48.6 257.32 47.2 257.632 45.792 257.936C44.384 258.256 43.104 258.536 41.952 258.776L41.016 255.992ZM43.512 237.68H46.296V256.64H43.512V237.68ZM45.144 237.68H54.72V248.912H45.144V246.44H51.864V240.152H45.144V237.68ZM50.136 247.256C50.44 248.696 50.856 250.032 51.384 251.264C51.912 252.48 52.584 253.552 53.4 254.48C54.216 255.408 55.216 256.128 56.4 256.64C56.192 256.832 55.968 257.064 55.728 257.336C55.488 257.624 55.256 257.92 55.032 258.224C54.824 258.544 54.656 258.832 54.528 259.088C53.232 258.4 52.144 257.504 51.264 256.4C50.4 255.28 49.688 253.984 49.128 252.512C48.568 251.04 48.112 249.424 47.76 247.664L50.136 247.256ZM53.616 249.08L55.872 250.64C55.216 251.28 54.52 251.912 53.784 252.536C53.064 253.144 52.4 253.664 51.792 254.096L50.016 252.728C50.4 252.408 50.808 252.04 51.24 251.624C51.688 251.208 52.12 250.776 52.536 250.328C52.952 249.88 53.312 249.464 53.616 249.08ZM34.776 237.632H40.752V240.224H37.464V259.16H34.776V237.632ZM39.96 237.632H40.464L40.872 237.536L42.84 238.664C42.616 239.368 42.376 240.112 42.12 240.896C41.864 241.68 41.608 242.456 41.352 243.224C41.096 243.992 40.84 244.688 40.584 245.312C41.368 246.24 41.872 247.12 42.096 247.952C42.336 248.768 42.456 249.528 42.456 250.232C42.456 251.032 42.368 251.688 42.192 252.2C42.016 252.712 41.728 253.112 41.328 253.4C41.136 253.544 40.912 253.656 40.656 253.736C40.416 253.816 40.168 253.88 39.912 253.928C39.688 253.96 39.424 253.976 39.12 253.976C38.832 253.976 38.536 253.976 38.232 253.976C38.216 253.608 38.152 253.176 38.04 252.68C37.944 252.184 37.8 251.76 37.608 251.408C37.832 251.424 38.032 251.432 38.208 251.432C38.4 251.432 38.568 251.432 38.712 251.432C38.84 251.432 38.96 251.416 39.072 251.384C39.2 251.336 39.32 251.28 39.432 251.216C39.576 251.104 39.68 250.936 39.744 250.712C39.824 250.472 39.856 250.184 39.84 249.848C39.84 249.288 39.72 248.648 39.48 247.928C39.256 247.192 38.784 246.424 38.064 245.624C38.24 245.08 38.416 244.48 38.592 243.824C38.784 243.168 38.96 242.512 39.12 241.856C39.296 241.184 39.456 240.56 39.6 239.984C39.76 239.392 39.88 238.904 39.96 238.52V237.632ZM64.872 241.016V241.832H74.856V241.016H64.872ZM64.872 238.808V239.624H74.856V238.808H64.872ZM62.112 237.344H77.76V243.296H62.112V237.344ZM64.368 250.592V251.432H75.528V250.592H64.368ZM64.368 248.312V249.152H75.528V248.312H64.368ZM61.68 246.8H78.36V252.968H61.68V246.8ZM68.544 247.304H71.328V257.6H68.544V247.304ZM59.064 244.016H80.928V246.08H59.064V244.016ZM61.176 253.76H78.816V255.584H61.176V253.76ZM59.016 256.472H80.976V258.56H59.016V256.472ZM90.3232 257V253.966L96.6897 248.392C97.1669 247.96 97.5732 247.565 97.9084 247.208C98.2436 246.844 98.4993 246.48 98.6755 246.117C98.8516 245.747 98.9397 245.347 98.9397 244.915C98.9397 244.432 98.8345 244.02 98.6243 243.679C98.4141 243.333 98.1243 243.065 97.755 242.878C97.3857 242.69 96.9624 242.597 96.4851 242.597C96.0022 242.597 95.5789 242.696 95.2152 242.895C94.8516 243.088 94.5675 243.369 94.363 243.739C94.1641 244.108 94.0647 244.557 94.0647 245.085H90.0675C90.0675 243.898 90.3345 242.872 90.8686 242.009C91.4027 241.145 92.1527 240.48 93.1186 240.014C94.0902 239.543 95.2181 239.307 96.5022 239.307C97.826 239.307 98.9766 239.529 99.9539 239.972C100.931 240.415 101.687 241.034 102.221 241.83C102.761 242.619 103.031 243.537 103.031 244.583C103.031 245.247 102.897 245.906 102.63 246.56C102.363 247.213 101.883 247.935 101.19 248.725C100.502 249.514 99.5249 250.46 98.2578 251.563L96.1698 253.489V253.6H103.244V257H90.3232ZM110.875 254.614L110.798 255.56C110.73 256.344 110.591 257.108 110.38 257.852C110.176 258.602 109.957 259.276 109.724 259.872C109.491 260.469 109.307 260.932 109.17 261.261H106.545C106.636 260.932 106.758 260.469 106.912 259.872C107.071 259.276 107.219 258.602 107.355 257.852C107.491 257.102 107.568 256.341 107.585 255.568L107.602 254.614H110.875ZM121.47 257.426C119.947 257.426 118.635 257.065 117.532 256.344C116.43 255.617 115.581 254.574 114.984 253.216C114.387 251.852 114.092 250.213 114.098 248.298C114.103 246.384 114.402 244.759 114.992 243.423C115.589 242.083 116.436 241.063 117.532 240.364C118.635 239.659 119.947 239.307 121.47 239.307C122.992 239.307 124.305 239.659 125.407 240.364C126.515 241.063 127.367 242.083 127.964 243.423C128.561 244.764 128.856 246.389 128.85 248.298C128.85 250.219 128.552 251.861 127.956 253.225C127.359 254.588 126.51 255.631 125.407 256.352C124.311 257.068 122.998 257.426 121.47 257.426ZM121.47 253.975C122.379 253.975 123.115 253.511 123.677 252.585C124.24 251.654 124.518 250.225 124.512 248.298C124.512 247.037 124.385 245.997 124.129 245.179C123.873 244.355 123.518 243.742 123.063 243.338C122.609 242.935 122.078 242.733 121.47 242.733C120.566 242.733 119.836 243.19 119.279 244.105C118.723 245.014 118.441 246.412 118.436 248.298C118.43 249.577 118.552 250.636 118.802 251.477C119.058 252.318 119.416 252.946 119.876 253.361C120.336 253.77 120.867 253.975 121.47 253.975ZM139.445 257.426C137.923 257.426 136.61 257.065 135.508 256.344C134.406 255.617 133.556 254.574 132.96 253.216C132.363 251.852 132.068 250.213 132.073 248.298C132.079 246.384 132.377 244.759 132.968 243.423C133.565 242.083 134.411 241.063 135.508 240.364C136.61 239.659 137.923 239.307 139.445 239.307C140.968 239.307 142.281 239.659 143.383 240.364C144.491 241.063 145.343 242.083 145.94 243.423C146.536 244.764 146.832 246.389 146.826 248.298C146.826 250.219 146.528 251.861 145.931 253.225C145.335 254.588 144.485 255.631 143.383 256.352C142.286 257.068 140.974 257.426 139.445 257.426ZM139.445 253.975C140.354 253.975 141.09 253.511 141.653 252.585C142.215 251.654 142.494 250.225 142.488 248.298C142.488 247.037 142.36 245.997 142.104 245.179C141.849 244.355 141.494 243.742 141.039 243.338C140.585 242.935 140.053 242.733 139.445 242.733C138.542 242.733 137.812 243.19 137.255 244.105C136.698 245.014 136.417 246.412 136.411 248.298C136.406 249.577 136.528 250.636 136.778 251.477C137.033 252.318 137.391 252.946 137.852 253.361C138.312 253.77 138.843 253.975 139.445 253.975ZM157.421 257.426C155.898 257.426 154.586 257.065 153.483 256.344C152.381 255.617 151.532 254.574 150.935 253.216C150.339 251.852 150.043 250.213 150.049 248.298C150.055 246.384 150.353 244.759 150.944 243.423C151.54 242.083 152.387 241.063 153.483 240.364C154.586 239.659 155.898 239.307 157.421 239.307C158.944 239.307 160.256 239.659 161.358 240.364C162.466 241.063 163.319 242.083 163.915 243.423C164.512 244.764 164.807 246.389 164.802 248.298C164.802 250.219 164.503 251.861 163.907 253.225C163.31 254.588 162.461 255.631 161.358 256.352C160.262 257.068 158.949 257.426 157.421 257.426ZM157.421 253.975C158.33 253.975 159.066 253.511 159.628 252.585C160.191 251.654 160.469 250.225 160.464 248.298C160.464 247.037 160.336 245.997 160.08 245.179C159.824 244.355 159.469 243.742 159.015 243.338C158.56 242.935 158.029 242.733 157.421 242.733C156.518 242.733 155.787 243.19 155.231 244.105C154.674 245.014 154.393 246.412 154.387 248.298C154.381 249.577 154.503 250.636 154.753 251.477C155.009 252.318 155.367 252.946 155.827 253.361C156.287 253.77 156.819 253.975 157.421 253.975ZM185.943 243.752H193.095V246.344H185.943V243.752ZM185.943 249.752H193.095V252.344H185.943V249.752ZM184.455 237.824H194.727V257.504H191.823V240.416H187.215V257.504H184.455V237.824ZM182.223 255.92H196.359V258.512H182.223V255.92ZM177.327 236.624L179.871 237.512C179.551 238.136 179.215 238.776 178.863 239.432C178.511 240.072 178.167 240.696 177.831 241.304C177.495 241.896 177.167 242.416 176.847 242.864L174.903 242.072C175.191 241.576 175.487 241.016 175.791 240.392C176.095 239.752 176.383 239.104 176.655 238.448C176.927 237.792 177.151 237.184 177.327 236.624ZM180.207 239.48L182.655 240.488C182.063 241.4 181.423 242.36 180.735 243.368C180.047 244.36 179.351 245.312 178.647 246.224C177.943 247.136 177.287 247.936 176.679 248.624L174.927 247.736C175.391 247.192 175.863 246.576 176.343 245.888C176.823 245.2 177.295 244.488 177.759 243.752C178.239 243.016 178.687 242.28 179.103 241.544C179.535 240.792 179.903 240.104 180.207 239.48ZM173.631 242.312L174.999 240.344C175.415 240.696 175.847 241.096 176.295 241.544C176.743 241.976 177.151 242.408 177.519 242.84C177.903 243.272 178.191 243.672 178.383 244.04L176.919 246.272C176.727 245.904 176.447 245.488 176.079 245.024C175.727 244.544 175.335 244.072 174.903 243.608C174.471 243.128 174.047 242.696 173.631 242.312ZM179.631 245.264L181.671 244.376C181.991 244.904 182.303 245.472 182.607 246.08C182.911 246.688 183.175 247.288 183.399 247.88C183.623 248.456 183.791 248.976 183.903 249.44L181.695 250.448C181.599 250 181.447 249.48 181.239 248.888C181.031 248.28 180.783 247.664 180.495 247.04C180.223 246.4 179.935 245.808 179.631 245.264ZM173.631 247.184C174.735 247.152 176.063 247.104 177.615 247.04C179.183 246.976 180.775 246.904 182.391 246.824L182.367 249.104C180.863 249.216 179.367 249.328 177.879 249.44C176.391 249.536 175.055 249.616 173.871 249.68L173.631 247.184ZM180.039 251.264L182.151 250.568C182.487 251.288 182.799 252.072 183.087 252.92C183.375 253.768 183.583 254.504 183.711 255.128L181.479 255.944C181.367 255.304 181.175 254.552 180.903 253.688C180.631 252.808 180.343 252 180.039 251.264ZM174.663 250.712L177.039 251.144C176.911 252.296 176.719 253.432 176.463 254.552C176.207 255.672 175.911 256.616 175.575 257.384C175.415 257.272 175.199 257.144 174.927 257C174.655 256.872 174.375 256.744 174.087 256.616C173.815 256.488 173.575 256.392 173.367 256.328C173.719 255.608 173.999 254.752 174.207 253.76C174.415 252.752 174.567 251.736 174.663 250.712ZM177.447 248.456H179.991V259.16H177.447V248.456Z" fill="white"/>
<path d="M36.944 146.008H87.404V152.794H36.944V146.008ZM58.114 138.758H65.48V193.22H58.114V138.758ZM58.926 164.916L64.726 167.178C63.2953 169.73 61.652 172.185 59.796 174.544C57.9787 176.903 55.9873 179.107 53.822 181.156C51.6567 183.205 49.356 185.061 46.92 186.724C44.5227 188.387 42.0287 189.837 39.438 191.074C39.09 190.455 38.626 189.759 38.046 188.986C37.466 188.251 36.8667 187.536 36.248 186.84C35.6293 186.105 35.0493 185.506 34.508 185.042C36.9827 184.075 39.4187 182.877 41.816 181.446C44.252 180.015 46.5333 178.43 48.66 176.69C50.7867 174.911 52.72 173.036 54.46 171.064C56.2387 169.053 57.7273 167.004 58.926 164.916ZM65.19 165.38C66.814 168.048 68.8827 170.619 71.396 173.094C73.948 175.569 76.7707 177.811 79.864 179.822C82.9573 181.794 86.1667 183.399 89.492 184.636C88.912 185.1 88.2933 185.719 87.636 186.492C87.0173 187.227 86.3987 187.981 85.78 188.754C85.2 189.566 84.7167 190.32 84.33 191.016C81.0047 189.469 77.7953 187.517 74.702 185.158C71.6087 182.761 68.7667 180.073 66.176 177.096C63.5853 174.119 61.3427 170.967 59.448 167.642L65.19 165.38ZM43.962 162.828L48.37 158.478C49.2593 159.174 50.226 159.986 51.27 160.914C52.314 161.803 53.3193 162.673 54.286 163.524C55.2527 164.375 56.0453 165.129 56.664 165.786L52.024 170.716C51.4827 170.02 50.7287 169.208 49.762 168.28C48.834 167.352 47.8673 166.424 46.862 165.496C45.8567 164.529 44.89 163.64 43.962 162.828ZM46.34 153.142L53.068 154.418C52.024 158.633 50.4967 162.499 48.486 166.018C46.4753 169.498 44.1167 172.359 41.41 174.602C41.0233 174.177 40.5013 173.674 39.844 173.094C39.1867 172.514 38.51 171.953 37.814 171.412C37.1567 170.832 36.5573 170.387 36.016 170.078C38.6067 168.183 40.772 165.767 42.512 162.828C44.252 159.889 45.528 156.661 46.34 153.142ZM71.744 163.118L76.268 158.942C77.4667 159.831 78.8007 160.856 80.27 162.016C81.778 163.137 83.228 164.259 84.62 165.38C86.012 166.463 87.1333 167.429 87.984 168.28L83.17 173.036C82.358 172.185 81.2947 171.18 79.98 170.02C78.6653 168.86 77.2733 167.681 75.804 166.482C74.3347 165.245 72.9813 164.123 71.744 163.118ZM73.658 153.142L80.444 154.36C79.632 157.801 78.472 161.011 76.964 163.988C75.456 166.927 73.716 169.363 71.744 171.296C71.3187 170.948 70.7387 170.542 70.004 170.078C69.308 169.614 68.5733 169.169 67.8 168.744C67.0267 168.28 66.3693 167.913 65.828 167.642C67.8 165.979 69.4433 163.872 70.758 161.32C72.1113 158.768 73.078 156.042 73.658 153.142ZM118.782 138.642H125.8V146.472H118.782V138.642ZM97.264 142.006H147.318V150.996H140.822V147.4H103.528V150.996H97.264V142.006ZM100.744 149.372H120.116V153.316H100.744V149.372ZM101.498 155.056H119.652V158.536H101.498V155.056ZM121.102 154.882H146.274V158.362H121.102V154.882ZM98.308 160.798C101.092 160.682 104.456 160.527 108.4 160.334C112.383 160.141 116.443 159.967 120.58 159.812L120.522 164.104C116.617 164.375 112.731 164.626 108.864 164.858C105.036 165.051 101.672 165.225 98.772 165.38L98.308 160.798ZM107.878 150.996H113.62V161.842L107.878 162.306V150.996ZM125.336 147.284L130.034 148.038C129.338 149.546 128.545 150.957 127.656 152.272C126.767 153.587 125.645 154.843 124.292 156.042C123.828 155.539 123.209 155.037 122.436 154.534C121.701 153.993 121.025 153.587 120.406 153.316C121.566 152.427 122.552 151.441 123.364 150.358C124.176 149.275 124.833 148.251 125.336 147.284ZM127.018 149.778H142.678V153.258H124.988L127.018 149.778ZM130.556 151.228H136.298V162.596H130.556V151.228ZM122.726 158.826H127.54V161.204H139.488V158.826H144.592V164.684H122.726V158.826ZM110.488 174.95V176.69H134.964V174.95H110.488ZM110.488 180.112V181.91H134.964V180.112H110.488ZM110.488 169.846V171.528H134.964V169.846H110.488ZM103.76 166.192H142.04V185.564H103.76V166.192ZM124.814 187.652L129.338 183.882C131.503 184.423 133.727 185.023 136.008 185.68C138.328 186.299 140.513 186.937 142.562 187.594C144.65 188.213 146.429 188.773 147.898 189.276L141.866 193.278C140.59 192.737 139.043 192.137 137.226 191.48C135.409 190.861 133.437 190.223 131.31 189.566C129.183 188.909 127.018 188.271 124.814 187.652ZM114.374 183.824L119.826 187.594C118.202 188.406 116.288 189.179 114.084 189.914C111.88 190.649 109.579 191.287 107.182 191.828C104.823 192.369 102.542 192.814 100.338 193.162C99.8353 192.505 99.178 191.731 98.366 190.842C97.554 189.953 96.8193 189.199 96.162 188.58C98.3273 188.271 100.57 187.865 102.89 187.362C105.249 186.859 107.433 186.299 109.444 185.68C111.493 185.061 113.137 184.443 114.374 183.824ZM164.486 162.422H205.376V166.83H164.486V162.422ZM173.708 147.226H179.74V159H173.708V147.226ZM186.932 147.226H193.08V159H186.932V147.226ZM165.588 150.068H206.71V160.508H165.588V156.68H200.33V153.896H165.588V150.068ZM179.682 174.08L185.54 175.414C183.336 177.541 180.765 179.435 177.826 181.098C174.887 182.761 171.465 184.269 167.56 185.622C167.173 185.003 166.613 184.288 165.878 183.476C165.182 182.664 164.544 182.045 163.964 181.62C167.56 180.615 170.692 179.474 173.36 178.198C176.028 176.883 178.135 175.511 179.682 174.08ZM179.74 177.618H198.01V181.388H175.97L179.74 177.618ZM196.618 177.618H197.836L198.88 177.386L202.766 179.88C200.949 181.968 198.706 183.766 196.038 185.274C193.37 186.782 190.412 188.058 187.164 189.102C183.955 190.146 180.552 190.977 176.956 191.596C173.399 192.253 169.822 192.775 166.226 193.162C165.994 192.466 165.627 191.654 165.124 190.726C164.66 189.798 164.196 189.025 163.732 188.406C167.019 188.174 170.305 187.807 173.592 187.304C176.917 186.801 180.069 186.144 183.046 185.332C186.023 184.52 188.691 183.553 191.05 182.432C193.409 181.272 195.265 179.938 196.618 178.43V177.618ZM178 180.054C179.469 181.291 181.306 182.374 183.51 183.302C185.753 184.23 188.266 185.023 191.05 185.68C193.834 186.299 196.811 186.801 199.982 187.188C203.153 187.536 206.42 187.787 209.784 187.942C209.165 188.561 208.527 189.392 207.87 190.436C207.251 191.48 206.749 192.389 206.362 193.162C202.882 192.891 199.518 192.485 196.27 191.944C193.022 191.403 189.948 190.687 187.048 189.798C184.187 188.909 181.557 187.826 179.16 186.55C176.801 185.274 174.733 183.785 172.954 182.084L178 180.054ZM175.506 168.048H180.958V170.6C180.958 171.18 181.093 171.547 181.364 171.702C181.673 171.857 182.273 171.934 183.162 171.934C183.394 171.934 183.781 171.934 184.322 171.934C184.863 171.934 185.463 171.934 186.12 171.934C186.816 171.934 187.435 171.934 187.976 171.934C188.556 171.934 188.981 171.934 189.252 171.934C189.948 171.934 190.412 171.799 190.644 171.528C190.876 171.219 191.05 170.542 191.166 169.498C191.707 169.846 192.403 170.155 193.254 170.426C194.143 170.697 194.936 170.89 195.632 171.006C195.4 172.939 194.859 174.254 194.008 174.95C193.196 175.607 191.862 175.936 190.006 175.936C189.774 175.936 189.407 175.936 188.904 175.936C188.401 175.936 187.821 175.936 187.164 175.936C186.507 175.936 185.869 175.936 185.25 175.936C184.631 175.936 184.071 175.936 183.568 175.936C183.065 175.936 182.698 175.936 182.466 175.936C180.61 175.936 179.16 175.781 178.116 175.472C177.111 175.124 176.415 174.583 176.028 173.848C175.68 173.075 175.506 171.992 175.506 170.6V168.048ZM203.752 162.422H204.738L205.724 162.248L210.248 163.234C209.707 164.742 209.107 166.289 208.45 167.874C207.793 169.459 207.155 170.793 206.536 171.876L201.084 170.774C201.548 169.769 202.031 168.57 202.534 167.178C203.037 165.786 203.443 164.452 203.752 163.176V162.422ZM170.46 167.41L175.1 169.44C174.481 170.755 173.708 172.069 172.78 173.384C171.891 174.699 170.769 175.82 169.416 176.748L164.95 173.848C166.149 173.113 167.231 172.147 168.198 170.948C169.165 169.749 169.919 168.57 170.46 167.41ZM180.726 167.294L184.38 164.684C185.424 165.187 186.526 165.825 187.686 166.598C188.846 167.371 189.755 168.067 190.412 168.686L186.642 171.586C185.985 170.929 185.076 170.175 183.916 169.324C182.795 168.473 181.731 167.797 180.726 167.294ZM193.37 169.208L197.662 166.946C198.861 167.874 200.079 168.995 201.316 170.31C202.553 171.586 203.481 172.727 204.1 173.732L199.576 176.226C199.035 175.182 198.165 174.003 196.966 172.688C195.767 171.373 194.569 170.213 193.37 169.208ZM180.842 138.7H188.092V146.066H180.842V138.7ZM163.152 142.18H208.74V147.4H163.152V142.18ZM159.846 142.18H166.168V159.464C166.168 161.9 166.091 164.568 165.936 167.468C165.781 170.368 165.491 173.345 165.066 176.4C164.641 179.455 164.022 182.413 163.21 185.274C162.398 188.135 161.335 190.726 160.02 193.046C159.633 192.659 159.111 192.195 158.454 191.654C157.797 191.151 157.12 190.668 156.424 190.204C155.767 189.74 155.187 189.392 154.684 189.16C155.883 187.033 156.811 184.713 157.468 182.2C158.164 179.648 158.686 177.057 159.034 174.428C159.382 171.76 159.595 169.15 159.672 166.598C159.788 164.046 159.846 161.668 159.846 159.464V142.18ZM226.024 149.256H266.392V156.042H226.024V149.256ZM223.588 166.308H264.13V173.036H223.588V166.308ZM216.918 184.752H269.35V191.538H216.918V184.752ZM239.422 138.7H246.73V188.058H239.422V138.7ZM226.024 139.454L233.216 141.078C232.404 144.055 231.399 146.994 230.2 149.894C229.001 152.794 227.706 155.501 226.314 158.014C224.922 160.489 223.472 162.654 221.964 164.51C221.5 164.085 220.881 163.621 220.108 163.118C219.373 162.577 218.6 162.055 217.788 161.552C216.976 161.049 216.28 160.643 215.7 160.334C217.247 158.71 218.658 156.777 219.934 154.534C221.249 152.291 222.409 149.875 223.414 147.284C224.458 144.693 225.328 142.083 226.024 139.454ZM276.89 141.426H300.322V147.806H276.89V141.426ZM284.314 157.318V162.77H292.84V157.318H284.314ZM278.456 151.866H299.104V168.222H278.456V151.866ZM291.448 169.034L298.176 170.426C297.596 172.553 296.997 174.679 296.378 176.806C295.798 178.933 295.237 180.75 294.696 182.258L289.418 180.866C289.727 179.783 289.998 178.546 290.23 177.154C290.501 175.762 290.733 174.351 290.926 172.92C291.158 171.489 291.332 170.194 291.448 169.034ZM279.21 170.948L284.72 169.556C285.339 171.141 285.841 172.901 286.228 174.834C286.653 176.729 286.905 178.372 286.982 179.764L281.124 181.272C281.085 179.88 280.892 178.217 280.544 176.284C280.196 174.351 279.751 172.572 279.21 170.948ZM275.904 184.172C277.992 183.785 280.389 183.321 283.096 182.78C285.803 182.239 288.664 181.659 291.68 181.04C294.696 180.421 297.693 179.803 300.67 179.184L301.308 185.042C297.171 186.047 292.995 187.033 288.78 188C284.604 189.005 280.853 189.875 277.528 190.61L275.904 184.172ZM301.772 141.078H329.902V146.878H301.772V141.078ZM309.486 164.336V168.048H321.956V164.336H309.486ZM309.486 172.804V176.516H321.956V172.804H309.486ZM309.486 155.926V159.58H321.956V155.926H309.486ZM303.164 150.822H328.626V181.62H303.164V150.822ZM311.632 144.268L319.52 145.196C318.979 147.013 318.418 148.792 317.838 150.532C317.258 152.272 316.736 153.761 316.272 154.998L310.182 153.838C310.414 152.91 310.607 151.885 310.762 150.764C310.955 149.643 311.129 148.521 311.284 147.4C311.439 146.279 311.555 145.235 311.632 144.268ZM308.674 181.852L314.3 185.506C313.256 186.511 311.999 187.497 310.53 188.464C309.099 189.431 307.591 190.32 306.006 191.132C304.421 191.983 302.893 192.698 301.424 193.278C300.921 192.659 300.206 191.905 299.278 191.016C298.389 190.165 297.577 189.431 296.842 188.812C298.273 188.309 299.742 187.671 301.25 186.898C302.758 186.086 304.169 185.255 305.484 184.404C306.799 183.515 307.862 182.664 308.674 181.852ZM316.678 185.622L321.898 182.316C322.942 183.012 324.083 183.785 325.32 184.636C326.557 185.487 327.737 186.357 328.858 187.246C330.018 188.097 330.965 188.87 331.7 189.566L326.132 193.278C325.513 192.582 324.663 191.77 323.58 190.842C322.497 189.953 321.337 189.044 320.1 188.116C318.901 187.188 317.761 186.357 316.678 185.622ZM338.486 144.094H388.656V149.72H338.486V144.094ZM351.942 160.914H378.042V165.438H351.942V160.914ZM351.942 167.816H378.042V172.34H351.942V167.816ZM337.964 174.776H389.236V180.576H337.964V174.776ZM372.59 145.312C373.827 147.129 375.432 148.908 377.404 150.648C379.376 152.349 381.541 153.896 383.9 155.288C386.259 156.641 388.637 157.763 391.034 158.652C390.57 159.077 390.048 159.619 389.468 160.276C388.888 160.895 388.327 161.533 387.786 162.19C387.283 162.847 386.877 163.466 386.568 164.046C384.055 162.925 381.599 161.513 379.202 159.812C376.805 158.111 374.581 156.197 372.532 154.07C370.483 151.943 368.704 149.72 367.196 147.4L372.59 145.312ZM348.462 153.374H378.042V158.594H355.596V177.386H348.462V153.374ZM341.676 186.608C344.769 186.492 348.385 186.337 352.522 186.144C356.698 185.951 361.106 185.738 365.746 185.506C370.386 185.274 375.007 185.042 379.608 184.81L379.492 190.146C375.084 190.455 370.637 190.765 366.152 191.074C361.705 191.383 357.433 191.673 353.334 191.944C349.274 192.215 345.62 192.447 342.372 192.64L341.676 186.608ZM351.536 176.922L359.714 177.154C359.134 178.662 358.496 180.131 357.8 181.562C357.104 182.993 356.408 184.346 355.712 185.622C355.055 186.898 354.417 188.019 353.798 188.986L347.07 188.348C347.65 187.265 348.211 186.067 348.752 184.752C349.332 183.399 349.854 182.045 350.318 180.692C350.821 179.339 351.227 178.082 351.536 176.922ZM370.096 181.91L376.012 179.126C377.288 180.209 378.622 181.446 380.014 182.838C381.406 184.191 382.74 185.545 384.016 186.898C385.292 188.251 386.336 189.469 387.148 190.552L380.768 193.742C380.111 192.698 379.163 191.48 377.926 190.088C376.727 188.696 375.432 187.285 374.04 185.854C372.687 184.423 371.372 183.109 370.096 181.91ZM358.206 138.7L365.34 139.918C363.871 143.243 361.995 146.414 359.714 149.43C357.433 152.446 354.668 155.269 351.42 157.898C348.211 160.489 344.402 162.809 339.994 164.858C339.723 164.317 339.337 163.717 338.834 163.06C338.331 162.364 337.809 161.707 337.268 161.088C336.765 160.469 336.263 159.967 335.76 159.58C339.897 157.917 343.435 155.965 346.374 153.722C349.313 151.441 351.749 149.024 353.682 146.472C355.654 143.92 357.162 141.329 358.206 138.7Z" fill="white"/>
<ellipse cx="76.3153" cy="68" rx="54.1017" ry="56" fill="#6EE292"/>
<path d="M50.9285 102V89.358L77.4555 66.1335C79.4442 64.3343 81.1369 62.6889 82.5336 61.1974C83.9304 59.6823 84.9958 58.1671 85.7297 56.652C86.4636 55.1132 86.8305 53.4441 86.8305 51.6449C86.8305 49.6326 86.3926 47.9162 85.5166 46.4957C84.6407 45.0516 83.4333 43.9389 81.8944 43.1577C80.3556 42.3764 78.5919 41.9858 76.6032 41.9858C74.5909 41.9858 72.8272 42.4001 71.3121 43.2287C69.7969 44.0336 68.6132 45.2055 67.7609 46.7443C66.9323 48.2831 66.518 50.1534 66.518 52.3551H49.8632C49.8632 47.4072 50.9759 43.134 53.2013 39.5355C55.4266 35.937 58.5516 33.1671 62.5763 31.2259C66.6246 29.2609 71.3239 28.2784 76.6743 28.2784C82.1904 28.2784 86.9844 29.2017 91.0564 31.0483C95.1283 32.8949 98.277 35.4754 100.502 38.7898C102.751 42.0805 103.876 45.9039 103.876 50.2599C103.876 53.0298 103.32 55.776 102.207 58.4986C101.094 61.2211 99.0938 64.2277 96.2055 67.5185C93.3409 70.8092 89.269 74.7509 83.9896 79.3438L75.2893 87.3693V87.831H104.764V102H50.9285Z" fill="white"/>
<path d="M487.583 202.802C490.955 220.848 512.311 257.153 456.762 257.153C397.1 257.153 421.828 218.264 421.828 205.902C421.828 192.132 410.588 162.492 456.762 162.492C497.699 162.492 484.211 184.755 487.583 202.802Z" fill="#6EE292"/>
<ellipse cx="15.1916" cy="9.52043" rx="15.1916" ry="9.52043" transform="matrix(0.588919 0.808192 -0.788227 0.615385 419.404 147.689)" fill="#6EE292"/>
<ellipse cx="15.2132" cy="9.50661" rx="15.2132" ry="9.50661" transform="matrix(-0.55323 0.833029 -0.81479 -0.579756 493.497 155.33)" fill="#6EE292"/>
<path d="M537.828 182.325C542.285 206.181 570.517 254.172 497.085 254.172C418.217 254.172 450.905 202.765 450.905 186.424C450.906 168.22 436.047 129.039 497.085 129.039C551.201 129.039 533.37 158.469 537.828 182.325Z" fill="#B6FFCD"/>
<ellipse cx="20.082" cy="12.5852" rx="20.082" ry="12.5852" transform="matrix(0.588919 0.808192 -0.788227 0.615385 447.701 109.471)" fill="#B6FFCD"/>
<ellipse cx="20.1105" cy="12.5669" rx="20.1105" ry="12.5669" transform="matrix(-0.55323 0.833029 -0.81479 -0.579756 551.464 119.572)" fill="#B6FFCD"/>
<path d="M473.165 160.122H492.921V162.388H473.165V160.122ZM474.969 156.734H487.773V158.89H474.969V156.734ZM479.171 166.612H488.983V168.262H479.171V166.612ZM479.193 169.384H488.961V171.364H479.193V169.384ZM480.293 155.502H482.889V161.508H480.293V155.502ZM489.863 155.788L492.041 157.02C490.619 158.721 488.932 160.232 486.981 161.552C485.031 162.872 482.926 164.016 480.667 164.984C478.409 165.937 476.099 166.737 473.737 167.382C473.649 167.191 473.525 166.957 473.363 166.678C473.217 166.399 473.055 166.121 472.879 165.842C472.703 165.549 472.549 165.314 472.417 165.138C474.764 164.61 477.03 163.906 479.215 163.026C481.415 162.146 483.432 161.105 485.265 159.902C487.099 158.685 488.631 157.313 489.863 155.788ZM477.807 151.3H480.381V156.118H477.807V151.3ZM485.419 151.3H487.993V156.118H485.419V151.3ZM473.187 152.532H492.767V154.842H473.187V152.532ZM479.875 163.576H489.467V165.556H479.875V171.936H477.257V165.094L478.863 163.576H479.875ZM488.345 163.576H490.963V171.914H488.345V163.576ZM504.625 161.574H507.287V164.412H504.625V161.574ZM504.207 163.642L506.253 164.5C505.711 165.013 505.087 165.497 504.383 165.952C503.679 166.407 502.917 166.817 502.095 167.184C501.289 167.536 500.438 167.844 499.543 168.108C498.649 168.372 497.747 168.592 496.837 168.768C496.691 168.475 496.478 168.145 496.199 167.778C495.935 167.411 495.679 167.118 495.429 166.898C496.295 166.751 497.153 166.575 498.003 166.37C498.854 166.165 499.668 165.923 500.445 165.644C501.223 165.365 501.934 165.057 502.579 164.72C503.225 164.383 503.767 164.023 504.207 163.642ZM507.573 163.664C508.013 164.779 508.629 165.754 509.421 166.59C510.213 167.426 511.174 168.123 512.303 168.68C513.447 169.237 514.775 169.641 516.285 169.89C516.036 170.154 515.765 170.491 515.471 170.902C515.178 171.327 514.958 171.709 514.811 172.046C513.169 171.679 511.739 171.144 510.521 170.44C509.319 169.751 508.292 168.885 507.441 167.844C506.605 166.788 505.909 165.549 505.351 164.126L507.573 163.664ZM513.139 164.764L515.009 166.15C514.335 166.634 513.601 167.096 512.809 167.536C512.017 167.961 511.284 168.321 510.609 168.614L509.025 167.316C509.465 167.111 509.935 166.869 510.433 166.59C510.947 166.297 511.438 165.989 511.907 165.666C512.377 165.343 512.787 165.043 513.139 164.764ZM497.827 169.516C498.649 169.443 499.58 169.347 500.621 169.23C501.663 169.098 502.763 168.959 503.921 168.812C505.08 168.665 506.231 168.526 507.375 168.394L507.463 170.462C506.378 170.609 505.278 170.755 504.163 170.902C503.063 171.049 502 171.188 500.973 171.32C499.961 171.467 499.03 171.591 498.179 171.694L497.827 169.516ZM495.847 163.004H515.889V165.006H495.847V163.004ZM504.471 154.028H515.735V156.25H504.471V154.028ZM505.043 158.934H515.251V161.156H505.043V158.934ZM501.325 151.3H503.811V162.256H501.325V151.3ZM508.783 151.3H511.401V160.298H508.783V151.3ZM496.837 151.564H499.037V156.096H496.837V151.564ZM497.937 153.764H502.579V155.766H497.937V153.764ZM495.825 156.976H502.579V158.978H495.825V156.976ZM497.453 157.702H499.851C499.793 158.494 499.675 159.22 499.499 159.88C499.323 160.525 499.023 161.105 498.597 161.618C498.172 162.117 497.556 162.535 496.749 162.872C496.632 162.608 496.441 162.307 496.177 161.97C495.928 161.633 495.679 161.361 495.429 161.156C495.987 160.936 496.397 160.657 496.661 160.32C496.94 159.983 497.131 159.594 497.233 159.154C497.336 158.714 497.409 158.23 497.453 157.702ZM500.555 166.678L501.545 165.666L503.085 166.084V170.352H500.555V166.678ZM484.539 188.572V190.904H489.291V188.572H484.539ZM482.119 186.328H491.865V193.17H482.119V186.328ZM487.223 192.51H489.709V197.79C489.709 198.098 489.731 198.296 489.775 198.384C489.819 198.457 489.922 198.494 490.083 198.494C490.127 198.494 490.201 198.494 490.303 198.494C490.421 198.494 490.531 198.494 490.633 198.494C490.751 198.494 490.839 198.494 490.897 198.494C491.015 198.494 491.103 198.428 491.161 198.296C491.235 198.164 491.286 197.907 491.315 197.526C491.359 197.13 491.389 196.529 491.403 195.722C491.565 195.854 491.77 195.986 492.019 196.118C492.283 196.25 492.555 196.367 492.833 196.47C493.127 196.573 493.383 196.653 493.603 196.712C493.545 197.797 493.42 198.633 493.229 199.22C493.053 199.821 492.797 200.232 492.459 200.452C492.137 200.687 491.704 200.804 491.161 200.804C491.073 200.804 490.956 200.804 490.809 200.804C490.677 200.804 490.538 200.804 490.391 200.804C490.259 200.804 490.127 200.804 489.995 200.804C489.863 200.804 489.746 200.804 489.643 200.804C488.983 200.804 488.477 200.709 488.125 200.518C487.773 200.327 487.531 200.012 487.399 199.572C487.282 199.147 487.223 198.56 487.223 197.812V192.51ZM483.527 192.84H486.123C486.065 193.793 485.947 194.681 485.771 195.502C485.61 196.309 485.353 197.057 485.001 197.746C484.649 198.435 484.158 199.051 483.527 199.594C482.911 200.137 482.105 200.613 481.107 201.024C481.019 200.804 480.887 200.562 480.711 200.298C480.535 200.049 480.352 199.799 480.161 199.55C479.971 199.301 479.78 199.095 479.589 198.934C480.425 198.641 481.093 198.296 481.591 197.9C482.09 197.489 482.471 197.035 482.735 196.536C482.999 196.023 483.183 195.465 483.285 194.864C483.403 194.248 483.483 193.573 483.527 192.84ZM484.165 180.916H489.489V183.292H484.165V180.916ZM482.625 182.874L485.199 183.534C484.833 184.429 484.385 185.345 483.857 186.284C483.344 187.208 482.772 187.985 482.141 188.616C481.877 188.381 481.547 188.132 481.151 187.868C480.755 187.589 480.411 187.369 480.117 187.208C480.675 186.651 481.173 185.969 481.613 185.162C482.068 184.341 482.405 183.578 482.625 182.874ZM487.487 180.916H490.215C490.435 181.62 490.721 182.324 491.073 183.028C491.425 183.717 491.821 184.37 492.261 184.986C492.701 185.602 493.156 186.123 493.625 186.548C493.405 186.68 493.149 186.841 492.855 187.032C492.577 187.223 492.305 187.428 492.041 187.648C491.777 187.853 491.557 188.044 491.381 188.22C490.663 187.428 490.01 186.489 489.423 185.404C488.837 184.319 488.353 183.226 487.971 182.126H487.487V180.916ZM473.671 187.054H480.315V189.056H473.671V187.054ZM473.759 181.004H480.271V182.984H473.759V181.004ZM473.671 190.068H480.315V192.048H473.671V190.068ZM472.637 183.952H481.041V186.042H472.637V183.952ZM474.815 193.104H480.359V199.814H474.815V197.724H478.093V195.194H474.815V193.104ZM473.627 193.104H475.849V200.672H473.627V193.104ZM497.761 181.51H504.097V195.018H497.761V192.62H501.655V183.908H497.761V181.51ZM497.805 187.01H502.601V189.364H497.805V187.01ZM507.199 181.202H513.931V183.644H507.199V181.202ZM507.199 186.438H513.931V188.814H507.199V186.438ZM507.155 191.652H513.909V194.028H507.155V191.652ZM496.375 181.51H498.817V196.932H496.375V181.51ZM512.963 181.202H515.581V197.944C515.581 198.633 515.493 199.169 515.317 199.55C515.156 199.946 514.855 200.254 514.415 200.474C513.975 200.679 513.433 200.811 512.787 200.87C512.142 200.929 511.357 200.958 510.433 200.958C510.389 200.709 510.316 200.423 510.213 200.1C510.125 199.792 510.015 199.484 509.883 199.176C509.766 198.883 509.641 198.626 509.509 198.406C509.905 198.421 510.301 198.435 510.697 198.45C511.093 198.45 511.445 198.45 511.753 198.45C512.076 198.435 512.296 198.428 512.413 198.428C512.619 198.428 512.758 198.391 512.831 198.318C512.919 198.245 512.963 198.113 512.963 197.922V181.202ZM505.615 181.202H508.211V189.188C508.211 190.127 508.153 191.139 508.035 192.224C507.918 193.309 507.698 194.395 507.375 195.48C507.067 196.551 506.605 197.577 505.989 198.56C505.373 199.528 504.559 200.386 503.547 201.134C503.415 200.958 503.225 200.753 502.975 200.518C502.741 200.298 502.491 200.078 502.227 199.858C501.978 199.638 501.751 199.477 501.545 199.374C502.484 198.685 503.225 197.929 503.767 197.108C504.31 196.272 504.713 195.407 504.977 194.512C505.241 193.603 505.41 192.693 505.483 191.784C505.571 190.875 505.615 190.002 505.615 189.166V181.202Z" fill="#39BF63"/>
<ellipse cx="493.762" cy="227.357" rx="16.7688" ry="17.3571" fill="white"/>
<path d="M492.407 231.604C492.321 230.911 492.373 230.304 492.563 229.784C492.771 229.264 493.057 228.796 493.421 228.38C493.803 227.964 494.219 227.583 494.669 227.236C495.137 226.889 495.571 226.551 495.969 226.222C496.385 225.893 496.723 225.555 496.983 225.208C497.243 224.861 497.373 224.48 497.373 224.064C497.373 223.544 497.243 223.102 496.983 222.738C496.723 222.374 496.342 222.097 495.839 221.906C495.354 221.715 494.765 221.62 494.071 221.62C493.274 221.62 492.546 221.793 491.887 222.14C491.229 222.487 490.579 222.998 489.937 223.674L487.805 221.698C488.637 220.745 489.617 219.982 490.743 219.41C491.887 218.821 493.144 218.526 494.513 218.526C495.779 218.526 496.897 218.717 497.867 219.098C498.855 219.479 499.627 220.06 500.181 220.84C500.753 221.603 501.039 222.565 501.039 223.726C501.039 224.367 500.901 224.931 500.623 225.416C500.363 225.884 500.017 226.309 499.583 226.69C499.167 227.054 498.725 227.409 498.257 227.756C497.789 228.085 497.356 228.432 496.957 228.796C496.559 229.16 496.247 229.567 496.021 230.018C495.796 230.469 495.709 230.997 495.761 231.604H492.407ZM494.097 238.52C493.439 238.52 492.893 238.303 492.459 237.87C492.026 237.437 491.809 236.891 491.809 236.232C491.809 235.556 492.026 235.001 492.459 234.568C492.893 234.135 493.439 233.918 494.097 233.918C494.756 233.918 495.302 234.135 495.735 234.568C496.169 235.001 496.385 235.556 496.385 236.232C496.385 236.891 496.169 237.437 495.735 237.87C495.302 238.303 494.756 238.52 494.097 238.52Z" fill="#39BF63"/>
</svg>
