<svg width="601" height="314" viewBox="0 0 601 314" fill="none" xmlns="http://www.w3.org/2000/svg">
<path d="M30.9988 31.6287H570.999C587.567 31.6287 600.999 45.0601 600.999 61.6287V314H60.9988C44.4302 314 30.9988 300.569 30.9988 284V31.6287Z" fill="#39BF63"/>
<line x1="378.795" y1="220.5" x2="69.6429" y2="220.5" stroke="white"/>
<path d="M188.232 81.386H200.936V84.042H188.232V81.386ZM186.792 87.338H202.408V90.09H186.792V87.338ZM193.128 102.698H199.4V108.33H193.128V106.25H196.808V104.746H193.128V102.698ZM191.688 102.698H194.28V109.29H191.688V102.698ZM186.792 95.786H202.312V98.346H190.216V110.442H186.792V95.786ZM200.776 95.786H204.328V107.114C204.328 107.818 204.243 108.394 204.072 108.842C203.923 109.29 203.603 109.642 203.112 109.898C202.664 110.133 202.131 110.282 201.512 110.346C200.894 110.431 200.179 110.474 199.368 110.474C199.283 110.005 199.134 109.482 198.92 108.906C198.707 108.33 198.494 107.839 198.28 107.434C198.707 107.455 199.123 107.466 199.528 107.466C199.934 107.466 200.211 107.466 200.36 107.466C200.531 107.466 200.638 107.434 200.68 107.37C200.744 107.306 200.776 107.199 200.776 107.05V95.786ZM194.728 88.714H198.152V92.938C198.152 93.642 198.067 94.186 197.896 94.57C197.726 94.954 197.384 95.242 196.872 95.434C196.403 95.626 195.827 95.7433 195.144 95.786C194.462 95.8287 193.662 95.85 192.744 95.85C192.659 95.4233 192.52 94.986 192.328 94.538C192.158 94.0687 191.976 93.6633 191.784 93.322C192.296 93.3433 192.798 93.354 193.288 93.354C193.779 93.354 194.11 93.3433 194.28 93.322C194.579 93.322 194.728 93.1833 194.728 92.906V88.714ZM192.264 97.226H194.888C194.867 98.2713 194.75 99.178 194.536 99.946C194.344 100.714 193.971 101.343 193.416 101.834C192.862 102.303 192.019 102.666 190.888 102.922C190.803 102.623 190.622 102.261 190.344 101.834C190.067 101.407 189.8 101.077 189.544 100.842C190.355 100.693 190.942 100.479 191.304 100.202C191.688 99.9247 191.934 99.5513 192.04 99.082C192.168 98.5913 192.243 97.9727 192.264 97.226ZM196.104 97.386H198.728V99.178C198.728 99.4553 198.75 99.626 198.792 99.69C198.856 99.754 198.995 99.786 199.208 99.786C199.272 99.786 199.379 99.786 199.528 99.786C199.678 99.786 199.827 99.786 199.976 99.786C200.147 99.786 200.254 99.786 200.296 99.786C200.51 99.786 200.648 99.7753 200.712 99.754C200.776 99.7327 200.819 99.6793 200.84 99.594C201.075 99.7647 201.416 99.9247 201.864 100.074C202.312 100.223 202.707 100.341 203.048 100.426C202.92 100.981 202.675 101.375 202.312 101.61C201.95 101.823 201.416 101.93 200.712 101.93C200.606 101.93 200.467 101.93 200.296 101.93C200.126 101.93 199.944 101.93 199.752 101.93C199.56 101.93 199.368 101.93 199.176 101.93C199.006 101.93 198.878 101.93 198.792 101.93C197.683 101.93 196.958 101.738 196.616 101.354C196.275 100.97 196.104 100.245 196.104 99.178V97.386ZM201.736 87.338H202.28L202.792 87.178L205.16 87.978C204.734 88.9593 204.232 89.9513 203.656 90.954C203.102 91.9567 202.547 92.7993 201.992 93.482L199.336 92.362C199.784 91.786 200.232 91.082 200.68 90.25C201.128 89.3967 201.48 88.586 201.736 87.818V87.338ZM190.376 86.218L192.04 84.458C192.958 84.6287 193.95 84.842 195.016 85.098C196.104 85.3327 197.15 85.5887 198.152 85.866C199.176 86.1433 200.04 86.3993 200.744 86.634L198.952 88.586C198.334 88.3513 197.523 88.0953 196.52 87.818C195.539 87.5193 194.504 87.2313 193.416 86.954C192.328 86.6767 191.315 86.4313 190.376 86.218ZM193.32 87.882L195.656 89.322C195.102 90.0687 194.376 90.826 193.48 91.594C192.606 92.362 191.667 93.066 190.664 93.706C189.662 94.346 188.68 94.8793 187.72 95.306C187.507 94.9433 187.208 94.5167 186.824 94.026C186.462 93.5353 186.099 93.1407 185.736 92.842C186.675 92.5433 187.624 92.138 188.584 91.626C189.566 91.0927 190.472 90.4953 191.304 89.834C192.158 89.1727 192.83 88.522 193.32 87.882ZM199.848 81.386H200.68L201.352 81.226L203.368 82.826C202.43 83.722 201.32 84.5753 200.04 85.386C198.76 86.1967 197.459 86.8793 196.136 87.434C195.944 87.1567 195.678 86.8367 195.336 86.474C195.016 86.1113 194.739 85.8127 194.504 85.578C195.187 85.3007 195.87 84.9593 196.552 84.554C197.235 84.1273 197.864 83.69 198.44 83.242C199.038 82.7727 199.507 82.346 199.848 81.962V81.386ZM175.624 87.05H185.896V90.602H175.624V87.05ZM179.304 80.394H182.792V110.442H179.304V80.394ZM179.272 89.482L181.416 90.186C181.182 91.4447 180.904 92.7567 180.584 94.122C180.264 95.4873 179.891 96.8313 179.464 98.154C179.059 99.4553 178.611 100.682 178.12 101.834C177.63 102.965 177.107 103.946 176.552 104.778C176.382 104.266 176.126 103.679 175.784 103.018C175.443 102.357 175.134 101.802 174.856 101.354C175.347 100.65 175.816 99.8287 176.264 98.89C176.712 97.9513 177.128 96.9487 177.512 95.882C177.918 94.8153 178.27 93.738 178.568 92.65C178.867 91.5407 179.102 90.4847 179.272 89.482ZM182.568 91.946C182.76 92.1593 183.027 92.5433 183.368 93.098C183.731 93.6313 184.115 94.2287 184.52 94.89C184.947 95.5513 185.32 96.1487 185.64 96.682C185.982 97.2153 186.227 97.5993 186.376 97.834L184.488 100.554C184.318 100.085 184.083 99.53 183.784 98.89C183.507 98.2287 183.198 97.546 182.856 96.842C182.515 96.138 182.184 95.4873 181.864 94.89C181.566 94.2927 181.31 93.8127 181.096 93.45L182.568 91.946ZM214.312 96.202H232.968V99.658H214.312V96.202ZM221.8 89.994H225.64V97.962H221.8V89.994ZM214.12 88.586H235.752V100.938H231.816V92.042H214.12V88.586ZM212.232 88.586H216.104V104.234C216.104 104.917 216.19 105.429 216.36 105.77C216.552 106.111 216.936 106.335 217.512 106.442C218.11 106.549 218.974 106.602 220.104 106.602C220.382 106.602 220.787 106.602 221.32 106.602C221.875 106.602 222.494 106.602 223.176 106.602C223.88 106.602 224.606 106.602 225.352 106.602C226.12 106.602 226.856 106.602 227.56 106.602C228.264 106.602 228.894 106.602 229.448 106.602C230.024 106.602 230.462 106.602 230.76 106.602C231.763 106.602 232.52 106.506 233.032 106.314C233.544 106.101 233.907 105.695 234.12 105.098C234.355 104.501 234.547 103.605 234.696 102.41C235.166 102.709 235.763 102.997 236.488 103.274C237.235 103.53 237.886 103.711 238.44 103.818C238.206 105.439 237.854 106.709 237.384 107.626C236.915 108.565 236.179 109.226 235.176 109.61C234.195 109.994 232.819 110.186 231.048 110.186C230.792 110.186 230.387 110.186 229.832 110.186C229.278 110.186 228.627 110.186 227.88 110.186C227.134 110.186 226.355 110.186 225.544 110.186C224.755 110.186 223.987 110.186 223.24 110.186C222.515 110.186 221.875 110.186 221.32 110.186C220.787 110.186 220.392 110.186 220.136 110.186C218.131 110.186 216.542 110.015 215.368 109.674C214.216 109.333 213.406 108.735 212.936 107.882C212.467 107.029 212.232 105.813 212.232 104.234V88.586ZM217.8 82.602H227.624V85.898H216.168L217.8 82.602ZM217.32 80.234L221.448 81.066C220.638 82.4953 219.71 83.914 218.664 85.322C217.619 86.73 216.446 88.0953 215.144 89.418C213.864 90.7407 212.435 91.9887 210.856 93.162C210.643 92.8633 210.376 92.5327 210.056 92.17C209.736 91.8073 209.395 91.466 209.032 91.146C208.691 90.826 208.371 90.57 208.072 90.378C209.544 89.3967 210.867 88.33 212.04 87.178C213.214 86.026 214.238 84.8633 215.112 83.69C216.008 82.4953 216.744 81.3433 217.32 80.234ZM225.864 82.602H226.728L227.496 82.378L230.056 84.106C229.587 85.002 229.054 85.93 228.456 86.89C227.88 87.85 227.262 88.7673 226.6 89.642C225.96 90.5167 225.32 91.2847 224.68 91.946C224.51 91.6687 224.275 91.37 223.976 91.05C223.678 90.73 223.368 90.4207 223.048 90.122C222.75 89.8233 222.483 89.5673 222.248 89.354C222.718 88.8207 223.187 88.202 223.656 87.498C224.126 86.7727 224.552 86.0473 224.936 85.322C225.342 84.5753 225.651 83.914 225.864 83.338V82.602ZM246.824 99.338H271.4V102.57H246.824V99.338ZM245.192 93.418H269.32V96.65H245.192V93.418ZM259.976 94.89H263.784V106.538C263.784 107.455 263.667 108.17 263.432 108.682C263.219 109.194 262.792 109.578 262.152 109.834C261.534 110.133 260.787 110.314 259.912 110.378C259.059 110.463 258.056 110.495 256.904 110.474C256.798 109.962 256.606 109.365 256.328 108.682C256.072 108.021 255.816 107.445 255.56 106.954C256.328 106.975 257.086 106.997 257.832 107.018C258.579 107.018 259.08 107.018 259.336 107.018C259.571 106.997 259.731 106.954 259.816 106.89C259.923 106.805 259.976 106.666 259.976 106.474V94.89ZM246.504 96.682L250.216 97.098C249.96 98.186 249.662 99.306 249.32 100.458C249 101.589 248.691 102.57 248.392 103.402L244.744 102.89C245.043 102.058 245.352 101.077 245.672 99.946C246.014 98.794 246.291 97.706 246.504 96.682ZM257.8 100.618L260.616 101.962C259.678 102.879 258.579 103.743 257.32 104.554C256.083 105.343 254.75 106.058 253.32 106.698C251.891 107.338 250.408 107.903 248.872 108.394C247.358 108.906 245.832 109.311 244.296 109.61C244.04 109.141 243.688 108.597 243.24 107.978C242.792 107.359 242.387 106.858 242.024 106.474C243.518 106.239 245.022 105.941 246.536 105.578C248.072 105.194 249.544 104.757 250.952 104.266C252.36 103.754 253.651 103.199 254.824 102.602C255.998 101.983 256.99 101.322 257.8 100.618ZM254.824 80.362H258.792V84.906H254.824V80.362ZM251.496 85.514H255.592C255.379 86.6233 255.07 87.6153 254.664 88.49C254.259 89.3433 253.662 90.09 252.872 90.73C252.083 91.37 251.016 91.9247 249.672 92.394C248.328 92.842 246.622 93.2153 244.552 93.514C244.424 93.066 244.179 92.554 243.816 91.978C243.475 91.402 243.123 90.9327 242.76 90.57C244.51 90.3993 245.918 90.1753 246.984 89.898C248.072 89.5993 248.915 89.2473 249.512 88.842C250.131 88.4153 250.579 87.9353 250.856 87.402C251.134 86.8473 251.347 86.218 251.496 85.514ZM257.768 85.578H261.608V88.714C261.608 89.098 261.662 89.3433 261.768 89.45C261.875 89.5353 262.12 89.578 262.504 89.578C262.59 89.578 262.718 89.578 262.888 89.578C263.08 89.578 263.294 89.578 263.528 89.578C263.763 89.578 263.976 89.578 264.168 89.578C264.382 89.578 264.542 89.578 264.648 89.578C264.862 89.578 265.022 89.5353 265.128 89.45C265.235 89.3433 265.32 89.162 265.384 88.906C265.448 88.6287 265.491 88.234 265.512 87.722C265.875 87.9567 266.376 88.1913 267.016 88.426C267.656 88.6393 268.211 88.7993 268.68 88.906C268.51 90.3353 268.158 91.306 267.624 91.818C267.091 92.3087 266.248 92.554 265.096 92.554C264.926 92.554 264.691 92.554 264.392 92.554C264.094 92.554 263.784 92.554 263.464 92.554C263.144 92.554 262.835 92.554 262.536 92.554C262.259 92.554 262.035 92.554 261.864 92.554C260.755 92.554 259.902 92.4367 259.304 92.202C258.707 91.9673 258.302 91.5727 258.088 91.018C257.875 90.442 257.768 89.6847 257.768 88.746V85.578ZM242.984 82.954H270.6V88.714H266.664V86.154H246.76V88.746H242.984V82.954ZM285.288 83.306H304.648V86.57H285.288V83.306ZM288.84 80.394H292.392V89.034H288.84V80.394ZM297.224 80.394H300.872V89.162H297.224V80.394ZM294.632 91.402C294.035 92.3193 293.256 93.2687 292.296 94.25C291.358 95.2313 290.312 96.17 289.16 97.066C288.03 97.9407 286.835 98.6873 285.576 99.306C285.384 98.8367 285.118 98.3033 284.776 97.706C284.435 97.1087 284.104 96.6073 283.784 96.202C285.022 95.626 286.216 94.89 287.368 93.994C288.52 93.098 289.566 92.138 290.504 91.114C291.443 90.0687 292.19 89.0553 292.744 88.074H296.232C297 89.162 297.886 90.1967 298.888 91.178C299.891 92.138 300.958 92.9913 302.088 93.738C303.219 94.4847 304.35 95.0927 305.48 95.562C305.139 95.9887 304.787 96.522 304.424 97.162C304.062 97.7807 303.752 98.3567 303.496 98.89C302.408 98.3353 301.299 97.6527 300.168 96.842C299.059 96.0313 298.014 95.1567 297.032 94.218C296.072 93.2793 295.272 92.3407 294.632 91.402ZM289.768 95.274H299.752V98.282H289.768V95.274ZM289.16 106.314H300.328V109.322H289.16V106.314ZM287.304 100.234H302.344V110.346H298.728V103.274H290.76V110.474H287.304V100.234ZM274.696 96.074C276.019 95.7753 277.608 95.3807 279.464 94.89C281.342 94.378 283.219 93.866 285.096 93.354L285.608 96.746C283.88 97.3007 282.131 97.8447 280.36 98.378C278.611 98.89 276.99 99.3593 275.496 99.786L274.696 96.074ZM275.336 86.474H285.224V89.994H275.336V86.474ZM279.08 80.426H282.76V106.154C282.76 107.093 282.664 107.839 282.472 108.394C282.28 108.949 281.928 109.375 281.416 109.674C280.883 109.994 280.222 110.197 279.432 110.282C278.664 110.389 277.726 110.442 276.616 110.442C276.574 109.93 276.446 109.311 276.232 108.586C276.019 107.861 275.784 107.231 275.528 106.698C276.168 106.719 276.766 106.741 277.32 106.762C277.896 106.762 278.291 106.751 278.504 106.73C278.718 106.73 278.867 106.687 278.952 106.602C279.038 106.517 279.08 106.357 279.08 106.122V80.426ZM325.603 92.522H346.051V95.978H325.603V92.522ZM326.723 86.058H344.963V89.45H326.723V86.058ZM333.475 87.722H337.315V92.842C337.315 93.866 337.187 94.9327 336.931 96.042C336.697 97.1513 336.249 98.2607 335.587 99.37C334.947 100.458 334.019 101.514 332.803 102.538C331.609 103.541 330.062 104.458 328.163 105.29C327.993 105.013 327.758 104.703 327.459 104.362C327.161 104.021 326.851 103.679 326.531 103.338C326.211 102.997 325.902 102.719 325.603 102.506C327.417 101.845 328.846 101.109 329.891 100.298C330.958 99.4873 331.737 98.6447 332.227 97.77C332.739 96.8953 333.07 96.042 333.219 95.21C333.39 94.3567 333.475 93.5567 333.475 92.81V87.722ZM337.891 94.954C338.553 96.7247 339.555 98.2287 340.899 99.466C342.265 100.682 344.014 101.557 346.147 102.09C345.87 102.346 345.571 102.666 345.251 103.05C344.953 103.434 344.665 103.829 344.387 104.234C344.131 104.618 343.907 104.981 343.715 105.322C341.369 104.554 339.47 103.349 338.019 101.706C336.569 100.063 335.449 98.0473 334.659 95.658L337.891 94.954ZM324.323 92.874V104.682H320.579V96.426H316.867V92.874H324.323ZM324.323 103.018C324.985 104.063 325.913 104.831 327.107 105.322C328.302 105.813 329.731 106.09 331.395 106.154C332.334 106.197 333.443 106.229 334.723 106.25C336.025 106.25 337.39 106.239 338.819 106.218C340.249 106.197 341.646 106.154 343.011 106.09C344.398 106.026 345.625 105.951 346.691 105.866C346.563 106.165 346.414 106.549 346.243 107.018C346.073 107.487 345.913 107.967 345.763 108.458C345.635 108.949 345.539 109.386 345.475 109.77C344.515 109.834 343.417 109.877 342.179 109.898C340.942 109.941 339.673 109.962 338.371 109.962C337.07 109.983 335.811 109.983 334.595 109.962C333.379 109.941 332.291 109.909 331.331 109.866C329.369 109.781 327.694 109.471 326.307 108.938C324.921 108.426 323.694 107.551 322.627 106.314C321.923 106.911 321.198 107.53 320.451 108.17C319.726 108.81 318.926 109.471 318.051 110.154L316.163 106.154C316.91 105.706 317.689 105.215 318.499 104.682C319.31 104.149 320.089 103.594 320.835 103.018H324.323ZM316.899 83.466L319.747 81.162C320.409 81.5887 321.081 82.09 321.763 82.666C322.446 83.2207 323.086 83.7967 323.683 84.394C324.281 84.97 324.761 85.5033 325.123 85.994L322.083 88.554C321.763 88.042 321.315 87.4873 320.739 86.89C320.185 86.2927 319.566 85.6953 318.883 85.098C318.201 84.4793 317.539 83.9353 316.899 83.466ZM340.099 80.394L344.003 81.61C343.427 82.5273 342.83 83.434 342.211 84.33C341.614 85.2047 341.059 85.9513 340.547 86.57L337.411 85.482C337.731 84.9913 338.062 84.458 338.403 83.882C338.745 83.2847 339.065 82.6873 339.363 82.09C339.662 81.4713 339.907 80.906 340.099 80.394ZM327.555 81.802L330.787 80.458C331.385 81.1833 331.95 82.0047 332.483 82.922C333.017 83.8393 333.39 84.65 333.603 85.354L330.147 86.826C329.977 86.1433 329.635 85.3327 329.123 84.394C328.633 83.434 328.11 82.57 327.555 81.802Z" fill="white"/>
<path d="M79.7525 242.096H88.0325V244.448H79.7525V242.096ZM75.6245 255.992C77.8085 255.68 81.1685 255.08 84.3845 254.504L84.6005 257C81.8165 257.648 78.8645 258.296 76.5845 258.8L75.6245 255.992ZM78.1205 237.704H80.9285V256.664H78.1205V237.704ZM79.7525 237.704H89.3285V248.912H79.7525V246.44H86.4965V240.176H79.7525V237.704ZM84.7685 247.28C85.6325 251.552 87.4805 255.104 91.0085 256.664C90.3845 257.216 89.5445 258.344 89.1365 259.088C85.2725 257.048 83.4005 252.968 82.3685 247.664L84.7685 247.28ZM88.2245 249.08L90.4805 250.664C89.1605 251.912 87.6245 253.256 86.4245 254.12L84.6245 252.728C85.7765 251.792 87.3365 250.28 88.2245 249.08ZM69.3845 237.656H75.3845V240.224H72.0725V259.184H69.3845V237.656ZM74.5925 237.656H75.0965L75.5045 237.56L77.4485 238.688C76.8005 240.776 75.9365 243.44 75.1925 245.312C76.7765 247.184 77.0885 248.84 77.0885 250.232C77.0885 251.84 76.7285 252.848 75.9365 253.4C75.5525 253.688 75.0725 253.856 74.5205 253.928C74.0645 254 73.4405 254 72.8645 253.976C72.8405 253.256 72.6245 252.128 72.2165 251.408C72.6725 251.456 73.0085 251.456 73.3205 251.456C73.5845 251.432 73.8245 251.384 74.0405 251.24C74.3525 251.024 74.4725 250.544 74.4725 249.872C74.4725 248.744 74.1125 247.256 72.6965 245.624C73.3925 243.464 74.2085 240.056 74.5925 238.52V237.656ZM99.5045 241.016V241.832H109.489V241.016H99.5045ZM99.5045 238.832V239.624H109.489V238.832H99.5045ZM96.7205 237.368H112.393V243.296H96.7205V237.368ZM99.0005 250.592V251.456H110.137V250.592H99.0005ZM99.0005 248.336V249.176H110.137V248.336H99.0005ZM96.2885 246.8H112.969V252.968H96.2885V246.8ZM103.153 247.304H105.961V257.6H103.153V247.304ZM93.6725 244.04H115.537V246.08H93.6725V244.04ZM95.8085 253.76H113.425V255.608H95.8085V253.76ZM93.6245 256.472H115.585V258.584H93.6245V256.472ZM124.956 257V253.966L131.322 248.392C131.799 247.96 132.206 247.566 132.541 247.208C132.876 246.844 133.132 246.48 133.308 246.117C133.484 245.747 133.572 245.347 133.572 244.915C133.572 244.432 133.467 244.02 133.257 243.679C133.047 243.333 132.757 243.066 132.388 242.878C132.018 242.691 131.595 242.597 131.118 242.597C130.635 242.597 130.211 242.696 129.848 242.895C129.484 243.088 129.2 243.37 128.995 243.739C128.797 244.108 128.697 244.557 128.697 245.085H124.7C124.7 243.898 124.967 242.872 125.501 242.009C126.035 241.145 126.785 240.48 127.751 240.014C128.723 239.543 129.851 239.307 131.135 239.307C132.459 239.307 133.609 239.529 134.586 239.972C135.564 240.415 136.319 241.034 136.853 241.83C137.393 242.62 137.663 243.537 137.663 244.583C137.663 245.247 137.53 245.906 137.263 246.56C136.995 247.213 136.515 247.935 135.822 248.725C135.135 249.514 134.157 250.46 132.89 251.563L130.802 253.489V253.6H137.876V257H124.956ZM145.507 254.614L145.431 255.56C145.362 256.344 145.223 257.108 145.013 257.853C144.808 258.603 144.59 259.276 144.357 259.872C144.124 260.469 143.939 260.932 143.803 261.262H141.178C141.269 260.932 141.391 260.469 141.544 259.872C141.703 259.276 141.851 258.603 141.987 257.853C142.124 257.103 142.201 256.341 142.218 255.568L142.235 254.614H145.507ZM156.102 257.426C154.58 257.426 153.267 257.066 152.165 256.344C151.062 255.617 150.213 254.574 149.616 253.216C149.02 251.853 148.724 250.213 148.73 248.299C148.736 246.384 149.034 244.759 149.625 243.424C150.222 242.083 151.068 241.063 152.165 240.364C153.267 239.659 154.58 239.307 156.102 239.307C157.625 239.307 158.937 239.659 160.04 240.364C161.148 241.063 162 242.083 162.597 243.424C163.193 244.764 163.489 246.389 163.483 248.299C163.483 250.219 163.185 251.861 162.588 253.225C161.991 254.588 161.142 255.631 160.04 256.353C158.943 257.068 157.631 257.426 156.102 257.426ZM156.102 253.975C157.011 253.975 157.747 253.512 158.31 252.585C158.872 251.654 159.151 250.225 159.145 248.299C159.145 247.037 159.017 245.997 158.761 245.179C158.506 244.355 158.151 243.742 157.696 243.338C157.241 242.935 156.71 242.733 156.102 242.733C155.199 242.733 154.469 243.191 153.912 244.105C153.355 245.014 153.074 246.412 153.068 248.299C153.062 249.577 153.185 250.637 153.435 251.478C153.69 252.318 154.048 252.946 154.509 253.361C154.969 253.77 155.5 253.975 156.102 253.975ZM174.078 257.426C172.555 257.426 171.243 257.066 170.14 256.344C169.038 255.617 168.189 254.574 167.592 253.216C166.996 251.853 166.7 250.213 166.706 248.299C166.711 246.384 167.01 244.759 167.601 243.424C168.197 242.083 169.044 241.063 170.14 240.364C171.243 239.659 172.555 239.307 174.078 239.307C175.601 239.307 176.913 239.659 178.015 240.364C179.123 241.063 179.976 242.083 180.572 243.424C181.169 244.764 181.464 246.389 181.459 248.299C181.459 250.219 181.16 251.861 180.564 253.225C179.967 254.588 179.118 255.631 178.015 256.353C176.919 257.068 175.606 257.426 174.078 257.426ZM174.078 253.975C174.987 253.975 175.723 253.512 176.285 252.585C176.848 251.654 177.126 250.225 177.121 248.299C177.121 247.037 176.993 245.997 176.737 245.179C176.481 244.355 176.126 243.742 175.672 243.338C175.217 242.935 174.686 242.733 174.078 242.733C173.174 242.733 172.444 243.191 171.888 244.105C171.331 245.014 171.049 246.412 171.044 248.299C171.038 249.577 171.16 250.637 171.41 251.478C171.666 252.318 172.024 252.946 172.484 253.361C172.944 253.77 173.476 253.975 174.078 253.975ZM192.054 257.426C190.531 257.426 189.218 257.066 188.116 256.344C187.014 255.617 186.164 254.574 185.568 253.216C184.971 251.853 184.676 250.213 184.681 248.299C184.687 246.384 184.985 244.759 185.576 243.424C186.173 242.083 187.019 241.063 188.116 240.364C189.218 239.659 190.531 239.307 192.054 239.307C193.576 239.307 194.889 239.659 195.991 240.364C197.099 241.063 197.951 242.083 198.548 243.424C199.144 244.764 199.44 246.389 199.434 248.299C199.434 250.219 199.136 251.861 198.539 253.225C197.943 254.588 197.093 255.631 195.991 256.353C194.894 257.068 193.582 257.426 192.054 257.426ZM192.054 253.975C192.963 253.975 193.698 253.512 194.261 252.585C194.823 251.654 195.102 250.225 195.096 248.299C195.096 247.037 194.968 245.997 194.713 245.179C194.457 244.355 194.102 243.742 193.647 243.338C193.193 242.935 192.661 242.733 192.054 242.733C191.15 242.733 190.42 243.191 189.863 244.105C189.306 245.014 189.025 246.412 189.019 248.299C189.014 249.577 189.136 250.637 189.386 251.478C189.642 252.318 190 252.946 190.46 253.361C190.92 253.77 191.451 253.975 192.054 253.975ZM220.552 243.752H227.728V246.344H220.552V243.752ZM220.552 249.776H227.728V252.368H220.552V249.776ZM219.064 237.824H229.36V257.528H226.456V240.416H221.848V257.528H219.064V237.824ZM216.856 255.944H230.968V258.536H216.856V255.944ZM211.96 236.648L214.504 237.536C213.52 239.408 212.392 241.544 211.456 242.864L209.512 242.072C210.376 240.632 211.408 238.328 211.96 236.648ZM214.84 239.48L217.264 240.488C215.488 243.248 213.136 246.584 211.288 248.624L209.536 247.736C211.384 245.576 213.568 242.048 214.84 239.48ZM208.264 242.336L209.608 240.344C210.904 241.448 212.392 242.984 213.016 244.04L211.552 246.296C210.952 245.144 209.488 243.488 208.264 242.336ZM214.24 245.264L216.28 244.376C217.24 245.984 218.2 248.072 218.512 249.464L216.328 250.472C216.04 249.104 215.152 246.92 214.24 245.264ZM208.24 247.208C210.472 247.136 213.784 246.992 217 246.824V249.104C213.976 249.344 210.856 249.56 208.48 249.704L208.24 247.208ZM214.672 251.288L216.784 250.592C217.408 252.032 218.056 253.904 218.344 255.128L216.088 255.944C215.872 254.696 215.248 252.752 214.672 251.288ZM209.272 250.736L211.648 251.144C211.408 253.448 210.88 255.848 210.184 257.384C209.68 257.072 208.6 256.568 208 256.328C208.696 254.912 209.08 252.776 209.272 250.736ZM212.056 248.48H214.624V259.184H212.056V248.48Z" fill="white"/>
<path d="M67.9428 146.008H118.403V152.794H67.9428V146.008ZM89.1128 138.758H96.4208V193.22H89.1128V138.758ZM89.9248 164.974L95.7248 167.178C90.0408 177.444 80.7028 186.318 70.3788 191.074C69.2768 189.334 67.0148 186.492 65.4488 185.1C75.4828 181.214 85.0528 173.326 89.9248 164.974ZM96.1308 165.438C101.003 173.442 110.515 180.982 120.491 184.636C118.751 186.144 116.489 189.044 115.329 191.016C105.237 186.376 96.0728 177.618 90.3888 167.7L96.1308 165.438ZM74.9608 162.886L79.3688 158.478C81.9788 160.682 85.7488 163.872 87.6048 165.844L83.0228 170.716C81.2828 168.628 77.6288 165.264 74.9608 162.886ZM77.2808 153.142L84.0668 154.418C81.9208 162.886 77.8028 170.136 72.4088 174.66C71.2488 173.384 68.5808 171.122 67.0148 170.078C72.1188 166.366 75.6568 160.218 77.2808 153.142ZM102.685 163.118L107.209 158.942C110.805 161.668 116.315 165.786 118.983 168.28L114.169 173.094C111.733 170.484 106.397 166.192 102.685 163.118ZM104.657 153.142L111.385 154.36C109.819 161.32 106.629 167.468 102.743 171.354C101.409 170.252 98.4508 168.454 96.8268 167.7C100.713 164.394 103.439 159 104.657 153.142ZM149.781 138.7H156.741V146.53H149.781V138.7ZM128.263 142.064H178.317V151.054H171.763V147.458H134.469V151.054H128.263V142.064ZM131.685 149.43H151.057V153.316H131.685V149.43ZM132.439 155.114H150.593V158.536H132.439V155.114ZM152.043 154.882H177.273V158.362H152.043V154.882ZM129.249 160.856C134.933 160.624 143.285 160.218 151.579 159.812L151.521 164.104C143.691 164.684 135.571 165.09 129.713 165.438L129.249 160.856ZM138.877 150.996H144.561V161.842L138.877 162.306V150.996ZM156.277 147.284L161.033 148.096C159.583 151.112 157.901 153.722 155.291 156.042C154.363 155.056 152.623 153.896 151.405 153.316C153.667 151.576 155.349 149.314 156.277 147.284ZM158.017 149.778H173.677V153.258H155.929L158.017 149.778ZM161.555 151.286H167.239V162.654H161.555V151.286ZM153.667 158.884H158.539V161.262H170.487V158.884H175.591V164.742H153.667V158.884ZM141.429 174.95V176.748H165.963V174.95H141.429ZM141.429 180.17V181.91H165.963V180.17H141.429ZM141.429 169.846V171.586H165.963V169.846H141.429ZM134.701 166.192H173.039V185.564H134.701V166.192ZM155.755 187.71L160.337 183.94C166.833 185.564 174.373 187.768 178.839 189.334L172.865 193.278C169.037 191.654 162.367 189.45 155.755 187.71ZM145.373 183.882L150.767 187.652C145.895 190.088 137.891 192.234 131.279 193.162C130.351 191.944 128.437 189.798 127.103 188.638C133.657 187.768 141.603 185.738 145.373 183.882ZM195.427 162.48H236.375V166.83H195.427V162.48ZM204.649 147.226H210.681V159H204.649V147.226ZM217.873 147.226H224.079V159H217.873V147.226ZM196.587 150.068H237.651V160.566H196.587V156.68H231.271V153.954H196.587V150.068ZM210.681 174.138L216.539 175.414C212.073 179.706 206.273 182.954 198.501 185.68C197.747 184.404 196.123 182.49 194.905 181.678C202.097 179.706 207.549 176.922 210.681 174.138ZM210.681 177.618H229.009V181.388H206.911L210.681 177.618ZM227.617 177.618H228.777L229.821 177.386L233.707 179.88C226.515 188.232 211.551 191.712 197.225 193.162C196.703 191.77 195.601 189.624 194.673 188.406C207.897 187.536 222.049 184.52 227.617 178.43V177.618ZM208.941 180.054C214.857 185.042 227.269 187.42 240.783 188C239.565 189.276 238.115 191.654 237.361 193.22C223.383 192.176 211.029 188.928 203.895 182.142L208.941 180.054ZM206.447 168.106H211.957V170.6C211.957 171.818 212.305 171.992 214.161 171.992C215.031 171.992 219.149 171.992 220.251 171.992C221.643 171.992 221.933 171.586 222.165 169.556C223.209 170.194 225.239 170.774 226.631 171.064C226.167 174.892 224.717 175.936 221.005 175.936C219.787 175.936 214.567 175.936 213.465 175.936C207.781 175.936 206.447 174.776 206.447 170.658V168.106ZM234.751 162.48H235.679L236.665 162.306L241.247 163.234C240.145 166.308 238.695 169.73 237.535 171.934L232.025 170.774C232.953 168.802 234.113 165.728 234.751 163.176V162.48ZM201.401 167.468L206.041 169.44C204.823 172.108 203.083 174.95 200.357 176.748L195.949 173.848C198.327 172.398 200.357 169.788 201.401 167.468ZM211.725 167.294L215.321 164.684C217.467 165.786 220.019 167.468 221.353 168.686L217.583 171.644C216.307 170.252 213.697 168.338 211.725 167.294ZM224.311 169.208L228.603 166.946C231.039 168.86 233.823 171.702 235.099 173.79L230.517 176.226C229.415 174.196 226.747 171.296 224.311 169.208ZM211.841 138.758H219.091V146.124H211.841V138.758ZM194.093 142.18H239.739V147.4H194.093V142.18ZM190.787 142.18H197.109V159.522C197.109 169.15 196.297 183.824 190.961 193.046C189.859 191.886 187.075 189.856 185.683 189.218C190.439 180.634 190.787 168.28 190.787 159.522V142.18ZM256.965 149.256H297.333V156.042H256.965V149.256ZM254.587 166.366H295.129V173.036H254.587V166.366ZM247.859 184.752H300.291V191.538H247.859V184.752ZM270.421 138.758H277.671V188.116H270.421V138.758ZM257.023 139.454L264.215 141.078C261.663 150.068 257.429 159 252.905 164.568C251.513 163.35 248.439 161.32 246.641 160.334C251.223 155.462 254.935 147.458 257.023 139.454ZM307.889 141.426H331.321V147.864H307.889V141.426ZM315.313 157.376V162.77H323.839V157.376H315.313ZM309.455 151.924H330.045V168.222H309.455V151.924ZM322.389 169.034L329.175 170.484C327.957 174.718 326.739 179.3 325.695 182.258L320.359 180.924C321.229 177.676 322.099 172.63 322.389 169.034ZM310.151 170.948L315.719 169.556C316.937 172.804 317.807 176.98 317.981 179.822L312.065 181.33C312.007 178.546 311.253 174.254 310.151 170.948ZM306.903 184.172C313.167 183.07 322.679 181.098 331.669 179.184L332.249 185.1C324.013 187.072 315.139 189.102 308.527 190.668L306.903 184.172ZM332.713 141.078H360.901V146.936H332.713V141.078ZM340.485 164.336V168.048H352.897V164.336H340.485ZM340.485 172.804V176.574H352.897V172.804H340.485ZM340.485 155.926V159.638H352.897V155.926H340.485ZM334.105 150.88H359.567V181.62H334.105V150.88ZM342.573 144.326L350.519 145.196C349.417 148.85 348.199 152.504 347.213 154.998L341.181 153.896C341.761 151.112 342.399 147.168 342.573 144.326ZM339.615 181.91L345.299 185.564C342.109 188.464 336.831 191.654 332.365 193.336C331.321 192.06 329.291 190.088 327.783 188.87C332.133 187.362 337.179 184.288 339.615 181.91ZM347.619 185.68L352.897 182.374C356.029 184.404 360.437 187.536 362.699 189.624L357.131 193.278C355.159 191.19 350.867 187.884 347.619 185.68ZM369.485 144.094H419.655V149.72H369.485V144.094ZM382.941 160.914H409.041V165.438H382.941V160.914ZM382.941 167.816H409.041V172.398H382.941V167.816ZM368.905 174.834H420.177V180.576H368.905V174.834ZM403.589 145.312C407.301 150.822 414.725 156.1 421.975 158.652C420.525 159.928 418.495 162.422 417.509 164.046C410.027 160.74 402.603 154.418 398.195 147.4L403.589 145.312ZM379.461 153.374H408.983V158.594H386.595V177.386H379.461V153.374ZM372.675 186.608C381.897 186.318 396.745 185.564 410.607 184.81L410.491 190.146C397.209 191.19 382.999 192.06 373.371 192.698L372.675 186.608ZM382.477 176.922L390.713 177.212C388.915 181.678 386.595 186.086 384.797 189.044L378.069 188.406C379.751 185.1 381.549 180.402 382.477 176.922ZM401.095 181.968L407.011 179.184C410.665 182.49 415.653 187.362 418.089 190.552L411.767 193.8C409.621 190.61 404.865 185.506 401.095 181.968ZM389.147 138.758L396.339 139.976C391.815 149.894 384.101 158.768 370.935 164.858C370.123 163.234 368.151 160.798 366.759 159.638C379.055 154.592 386.015 146.588 389.147 138.758Z" fill="white"/>
<ellipse cx="107.321" cy="68" rx="54.1017" ry="56" fill="#6EE292"/>
<path d="M81.9339 102V89.358L108.461 66.1335C110.45 64.3343 112.142 62.6889 113.539 61.1974C114.936 59.6823 116.001 58.1671 116.735 56.652C117.469 55.1132 117.836 53.4441 117.836 51.6449C117.836 49.6326 117.398 47.9162 116.522 46.4957C115.646 45.0516 114.439 43.9389 112.9 43.1577C111.361 42.3764 109.597 41.9858 107.609 41.9858C105.596 41.9858 103.833 42.4001 102.317 43.2287C100.802 44.0336 99.6186 45.2055 98.7663 46.7443C97.9377 48.2831 97.5234 50.1534 97.5234 52.3551H80.8686C80.8686 47.4072 81.9813 43.134 84.2066 39.5355C86.432 35.937 89.557 33.1671 93.5816 31.2259C97.6299 29.2609 102.329 28.2784 107.68 28.2784C113.196 28.2784 117.99 29.2017 122.062 31.0483C126.134 32.8949 129.282 35.4754 131.508 38.7898C133.757 42.0805 134.881 45.9039 134.881 50.2599C134.881 53.0298 134.325 55.776 133.212 58.4986C132.1 61.2211 130.099 64.2277 127.211 67.5185C124.346 70.8092 120.274 74.7509 114.995 79.3438L106.295 87.3693V87.831H135.769V102H81.9339Z" fill="white"/>
<path d="M514.186 202.802C517.559 220.848 538.915 257.153 483.365 257.153C423.703 257.153 448.431 218.264 448.431 205.902C448.432 192.132 437.191 162.492 483.366 162.492C524.303 162.492 510.814 184.755 514.186 202.802Z" fill="#6EE292"/>
<ellipse cx="15.1916" cy="9.52043" rx="15.1916" ry="9.52043" transform="matrix(0.588919 0.808192 -0.788227 0.615385 446.007 147.689)" fill="#6EE292"/>
<ellipse cx="15.2132" cy="9.50661" rx="15.2132" ry="9.50661" transform="matrix(-0.55323 0.833029 -0.81479 -0.579756 524.502 155.33)" fill="#6EE292"/>
<path d="M568.833 182.325C573.29 206.181 601.522 254.172 528.09 254.172C449.222 254.172 481.91 202.765 481.91 186.424C481.911 168.22 467.052 129.039 528.09 129.039C582.206 129.039 564.375 158.469 568.833 182.325Z" fill="#B6FFCD"/>
<ellipse cx="20.082" cy="12.5852" rx="20.082" ry="12.5852" transform="matrix(0.588919 0.808192 -0.788227 0.615385 478.706 109.471)" fill="#B6FFCD"/>
<ellipse cx="20.1105" cy="12.5669" rx="20.1105" ry="12.5669" transform="matrix(-0.55323 0.833029 -0.81479 -0.579756 582.469 119.572)" fill="#B6FFCD"/>
<path d="M504.149 160.122H523.905V162.41H504.149V160.122ZM505.975 156.734H518.757V158.89H505.975V156.734ZM510.177 166.612H519.967V168.262H510.177V166.612ZM510.177 169.384H519.967V171.386H510.177V169.384ZM511.277 155.524H513.895V161.53H511.277V155.524ZM520.869 155.81L523.025 157.042C518.779 162.124 511.805 165.468 504.721 167.404C504.479 166.832 503.819 165.688 503.401 165.16C510.441 163.554 517.129 160.386 520.869 155.81ZM508.791 151.322H511.387V156.14H508.791V151.322ZM516.425 151.322H518.999V156.14H516.425V151.322ZM504.193 152.532H523.773V154.842H504.193V152.532ZM510.881 163.576H520.473V165.556H510.881V171.958H508.241V165.116L509.847 163.576H510.881ZM519.329 163.576H521.947V171.914H519.329V163.576ZM535.609 161.596H538.293V164.412H535.609V161.596ZM535.191 163.642L537.237 164.522C535.103 166.59 531.473 168.108 527.843 168.768C527.535 168.218 526.897 167.36 526.435 166.898C529.889 166.37 533.431 165.204 535.191 163.642ZM538.579 163.686C539.877 167.03 542.737 169.142 547.291 169.912C546.763 170.418 546.103 171.386 545.817 172.046C540.845 170.968 538.007 168.416 536.357 164.148L538.579 163.686ZM544.123 164.786L546.015 166.172C544.651 167.118 542.935 168.042 541.615 168.614L540.031 167.338C541.329 166.7 543.089 165.622 544.123 164.786ZM528.833 169.538C531.253 169.296 534.927 168.834 538.381 168.394L538.469 170.462C535.191 170.924 531.693 171.386 529.163 171.716L528.833 169.538ZM526.831 163.026H546.895V165.006H526.831V163.026ZM535.477 154.05H546.741V156.25H535.477V154.05ZM536.027 158.956H546.257V161.156H536.027V158.956ZM532.331 151.322H534.817V162.278H532.331V151.322ZM539.767 151.322H542.385V160.298H539.767V151.322ZM527.821 151.586H530.043V156.118H527.821V151.586ZM528.943 153.764H533.585V155.766H528.943V153.764ZM526.809 156.976H533.563V158.978H526.809V156.976ZM528.437 157.702H530.835C530.681 160.1 530.153 161.86 527.755 162.894C527.513 162.366 526.897 161.552 526.413 161.178C528.063 160.474 528.349 159.33 528.437 157.702ZM531.561 166.678L532.551 165.688L534.069 166.084V170.352H531.561V166.678ZM515.523 188.594V190.926H520.297V188.594H515.523ZM513.125 186.328H522.849V193.17H513.125V186.328ZM518.207 192.51H520.715V197.812C520.715 198.428 520.759 198.494 521.067 198.494C521.199 198.494 521.705 198.494 521.881 198.494C522.255 198.494 522.321 198.164 522.387 195.722C522.871 196.14 523.927 196.558 524.587 196.734C524.389 199.99 523.773 200.826 522.167 200.826C521.771 200.826 521.001 200.826 520.649 200.826C518.647 200.826 518.207 200.056 518.207 197.812V192.51ZM514.533 192.862H517.107C516.843 196.646 516.095 199.396 512.091 201.024C511.827 200.408 511.145 199.418 510.595 198.956C513.895 197.768 514.335 195.722 514.533 192.862ZM515.171 180.916H520.495V183.314H515.171V180.916ZM513.609 182.874L516.183 183.534C515.457 185.338 514.379 187.362 513.147 188.638C512.619 188.176 511.695 187.538 511.101 187.208C512.245 186.108 513.191 184.304 513.609 182.874ZM518.493 180.916H521.199C521.859 183.028 523.201 185.25 524.609 186.57C523.949 186.944 522.893 187.714 522.387 188.242C520.935 186.636 519.703 184.326 518.955 182.148H518.493V180.916ZM504.677 187.076H511.321V189.056H504.677V187.076ZM504.743 181.004H511.255V183.006H504.743V181.004ZM504.677 190.068H511.321V192.07H504.677V190.068ZM503.621 183.974H512.047V186.064H503.621V183.974ZM505.821 193.126H511.343V199.814H505.821V197.724H509.099V195.216H505.821V193.126ZM504.633 193.126H506.855V200.694H504.633V193.126ZM528.767 181.532H535.081V195.04H528.767V192.62H532.639V183.908H528.767V181.532ZM528.789 187.032H533.607V189.386H528.789V187.032ZM538.183 181.202H544.937V183.644H538.183V181.202ZM538.183 186.46H544.937V188.836H538.183V186.46ZM538.139 191.674H544.915V194.028H538.139V191.674ZM527.359 181.532H529.801V196.954H527.359V181.532ZM543.947 181.202H546.565V197.966C546.565 199.33 546.279 200.056 545.421 200.474C544.541 200.892 543.287 200.958 541.417 200.958C541.307 200.232 540.889 199.088 540.515 198.406C541.703 198.472 543.045 198.45 543.419 198.45C543.815 198.45 543.947 198.318 543.947 197.922V181.202ZM536.599 181.202H539.195V189.188C539.195 192.994 538.601 198.164 534.531 201.156C534.135 200.628 533.123 199.726 532.551 199.374C536.269 196.668 536.599 192.532 536.599 189.166V181.202Z" fill="#39BF63"/>
<ellipse cx="524.768" cy="227.357" rx="16.7688" ry="17.3571" fill="white"/>
<path d="M523.387 231.604C522.841 227.522 528.379 226.612 528.379 224.09C528.379 222.504 527.131 221.62 525.077 221.62C523.491 221.62 522.191 222.348 520.917 223.674L518.785 221.724C520.449 219.8 522.737 218.526 525.519 218.526C529.289 218.526 532.045 220.294 532.045 223.752C532.045 227.548 526.351 228.016 526.767 231.604H523.387ZM525.103 238.546C523.751 238.546 522.789 237.584 522.789 236.232C522.789 234.88 523.777 233.944 525.103 233.944C526.403 233.944 527.391 234.88 527.391 236.232C527.391 237.584 526.403 238.546 525.103 238.546Z" fill="#39BF63"/>
</svg>
