<svg width="570" height="315" viewBox="0 0 570 315" fill="none" xmlns="http://www.w3.org/2000/svg">
<path d="M-0.0065918 31.9266H539.993C556.562 31.9266 569.993 45.3581 569.993 61.9266V314.298H29.9934C13.4249 314.298 -0.0065918 300.867 -0.0065918 284.298V31.9266Z" fill="#39BF63"/>
<line x1="347.79" y1="220.798" x2="38.6375" y2="220.798" stroke="white"/>
<path d="M151.747 92.6502H180.899V96.6502H151.747V92.6502ZM164.131 81.1302H168.323V111.178H164.131V81.1302ZM191.555 93.5782V105.386H187.971V97.1302H184.643V93.5782H191.555ZM191.555 103.882C192.174 104.97 193.059 105.77 194.211 106.282C195.385 106.794 196.793 107.082 198.435 107.146C199.438 107.189 200.633 107.221 202.019 107.242C203.406 107.242 204.867 107.232 206.403 107.21C207.939 107.189 209.433 107.157 210.883 107.114C212.355 107.05 213.657 106.965 214.787 106.858C214.659 107.157 214.51 107.52 214.339 107.946C214.19 108.352 214.051 108.778 213.923 109.226C213.795 109.696 213.699 110.112 213.635 110.474C212.611 110.517 211.438 110.549 210.115 110.57C208.793 110.613 207.417 110.634 205.987 110.634C204.579 110.656 203.225 110.656 201.923 110.634C200.622 110.613 199.459 110.581 198.435 110.538C196.494 110.453 194.841 110.144 193.475 109.61C192.131 109.077 190.969 108.181 189.987 106.922C189.39 107.562 188.761 108.202 188.099 108.842C187.459 109.482 186.755 110.154 185.987 110.858L184.163 107.21C184.825 106.741 185.518 106.218 186.243 105.642C186.969 105.066 187.662 104.48 188.323 103.882H191.555ZM184.419 83.7222L187.459 81.8022C188.035 82.3142 188.611 82.8796 189.187 83.4982C189.785 84.1169 190.329 84.7355 190.819 85.3542C191.31 85.9729 191.694 86.5489 191.971 87.0822L188.707 89.2262C188.473 88.7142 188.121 88.1382 187.651 87.4982C187.182 86.8369 186.659 86.1755 186.083 85.5142C185.529 84.8529 184.974 84.2556 184.419 83.7222ZM196.515 82.0262H210.979V85.1302H196.515V82.0262ZM198.787 87.1782H208.291V89.7702H198.787V87.1782ZM198.691 91.4982H208.419V94.0582H198.691V91.4982ZM201.827 85.5782H204.963V93.0022H201.827V85.5782ZM194.403 82.0262H197.891V90.3142C197.891 91.4662 197.849 92.7142 197.763 94.0582C197.699 95.4022 197.561 96.7676 197.347 98.1542C197.134 99.5409 196.825 100.885 196.419 102.186C196.014 103.466 195.47 104.64 194.787 105.706C194.574 105.493 194.275 105.269 193.891 105.034C193.529 104.778 193.145 104.544 192.739 104.33C192.355 104.096 192.014 103.914 191.715 103.786C192.569 102.506 193.177 101.077 193.539 99.4982C193.923 97.9196 194.158 96.3302 194.243 94.7302C194.35 93.1302 194.403 91.6582 194.403 90.3142V82.0262ZM209.315 82.0262H212.835V102.314C212.835 103.125 212.739 103.776 212.547 104.266C212.355 104.736 212.003 105.109 211.491 105.386C210.979 105.664 210.339 105.834 209.571 105.898C208.825 105.962 207.918 105.994 206.851 105.994C206.787 105.525 206.659 104.981 206.467 104.362C206.275 103.744 206.073 103.21 205.859 102.762C206.457 102.784 207.033 102.805 207.587 102.826C208.163 102.826 208.558 102.826 208.771 102.826C208.963 102.826 209.102 102.784 209.187 102.698C209.273 102.613 209.315 102.464 209.315 102.25V82.0262ZM200.515 95.3062H207.715V102.602H200.515V100.074H204.803V97.8022H200.515V95.3062ZM199.075 95.3062H201.955V104.074H199.075V95.3062ZM224.675 80.9702L228.611 81.9942C228.035 83.5729 227.353 85.1196 226.563 86.6342C225.795 88.1489 224.953 89.5569 224.035 90.8582C223.139 92.1382 222.211 93.2582 221.251 94.2182C220.995 94.0049 220.665 93.7382 220.259 93.4182C219.854 93.0769 219.438 92.7569 219.011 92.4582C218.606 92.1596 218.243 91.9142 217.923 91.7222C218.905 90.8902 219.822 89.9089 220.675 88.7782C221.529 87.6262 222.297 86.3889 222.979 85.0662C223.662 83.7222 224.227 82.3569 224.675 80.9702ZM225.379 84.6182H245.731V88.3302H223.523L225.379 84.6182ZM223.107 92.2022H244.963V95.7862H226.947V102.506H223.107V92.2022ZM218.019 100.618H247.459V104.298H218.019V100.618ZM232.515 86.5382H236.483V111.178H232.515V86.5382ZM266.211 88.3942H277.219V91.5302H266.211V88.3942ZM260.707 106.954C261.667 106.805 262.777 106.624 264.035 106.41C265.315 106.197 266.67 105.973 268.099 105.738C269.529 105.482 270.947 105.226 272.355 104.97L272.675 108.298C270.819 108.725 268.953 109.141 267.075 109.546C265.198 109.973 263.491 110.346 261.955 110.666L260.707 106.954ZM264.035 82.5382H267.747V107.818H264.035V82.5382ZM266.211 82.5382H278.979V97.5142H266.211V94.2182H275.171V85.8342H266.211V82.5382ZM272.867 95.3062C273.273 97.2262 273.827 99.0076 274.531 100.65C275.235 102.272 276.131 103.701 277.219 104.938C278.307 106.176 279.641 107.136 281.219 107.818C280.942 108.074 280.643 108.384 280.323 108.746C280.003 109.13 279.694 109.525 279.395 109.93C279.118 110.357 278.894 110.741 278.723 111.082C276.995 110.165 275.545 108.97 274.371 107.498C273.219 106.005 272.27 104.277 271.523 102.314C270.777 100.352 270.169 98.1969 269.699 95.8502L272.867 95.3062ZM277.507 97.7382L280.515 99.8182C279.641 100.672 278.713 101.514 277.731 102.346C276.771 103.157 275.886 103.85 275.075 104.426L272.707 102.602C273.219 102.176 273.763 101.685 274.339 101.13C274.937 100.576 275.513 99.9996 276.067 99.4022C276.622 98.8049 277.102 98.2502 277.507 97.7382ZM252.387 82.4742H260.355V85.9302H255.971V111.178H252.387V82.4742ZM259.299 82.4742H259.971L260.515 82.3462L263.139 83.8502C262.841 84.7889 262.521 85.7809 262.179 86.8262C261.838 87.8716 261.497 88.9062 261.155 89.9302C260.814 90.9542 260.473 91.8822 260.131 92.7142C261.177 93.9516 261.849 95.1249 262.147 96.2342C262.467 97.3222 262.627 98.3356 262.627 99.2742C262.627 100.341 262.51 101.216 262.275 101.898C262.041 102.581 261.657 103.114 261.123 103.498C260.867 103.69 260.569 103.84 260.227 103.946C259.907 104.053 259.577 104.138 259.235 104.202C258.937 104.245 258.585 104.266 258.179 104.266C257.795 104.266 257.401 104.266 256.995 104.266C256.974 103.776 256.889 103.2 256.739 102.538C256.611 101.877 256.419 101.312 256.163 100.842C256.462 100.864 256.729 100.874 256.963 100.874C257.219 100.874 257.443 100.874 257.635 100.874C257.806 100.874 257.966 100.853 258.115 100.81C258.286 100.746 258.446 100.672 258.595 100.586C258.787 100.437 258.926 100.213 259.011 99.9142C259.118 99.5942 259.161 99.2102 259.139 98.7622C259.139 98.0156 258.979 97.1622 258.659 96.2022C258.361 95.2209 257.731 94.1969 256.771 93.1302C257.006 92.4049 257.241 91.6049 257.475 90.7302C257.731 89.8556 257.966 88.9809 258.179 88.1062C258.414 87.2102 258.627 86.3782 258.819 85.6102C259.033 84.8209 259.193 84.1702 259.299 83.6582V82.4742ZM290.435 90.7622H308.131V94.4422H290.435V90.7622ZM299.299 98.4422H310.083V102.058H299.299V98.4422ZM297.283 92.9062H301.283V108.362L297.283 107.882V92.9062ZM289.635 96.2022L293.635 96.6182C293.209 99.8822 292.483 102.762 291.459 105.258C290.435 107.754 289.006 109.792 287.171 111.37C286.958 111.136 286.659 110.848 286.275 110.506C285.891 110.165 285.486 109.834 285.059 109.514C284.654 109.194 284.302 108.938 284.003 108.746C285.731 107.466 287.033 105.749 287.907 103.594C288.782 101.418 289.358 98.9542 289.635 96.2022ZM292.739 100.234C293.23 101.685 293.87 102.869 294.659 103.786C295.47 104.682 296.398 105.365 297.443 105.834C298.51 106.282 299.673 106.592 300.931 106.762C302.19 106.933 303.523 107.018 304.931 107.018C305.273 107.018 305.731 107.018 306.307 107.018C306.905 107.018 307.555 107.018 308.259 107.018C308.985 107.018 309.721 107.018 310.467 107.018C311.214 106.997 311.907 106.986 312.547 106.986C313.187 106.965 313.721 106.944 314.147 106.922C313.955 107.242 313.763 107.637 313.571 108.106C313.401 108.554 313.241 109.024 313.091 109.514C312.942 110.005 312.835 110.453 312.771 110.858H311.139H304.739C302.883 110.858 301.177 110.73 299.619 110.474C298.062 110.218 296.654 109.749 295.395 109.066C294.158 108.405 293.049 107.445 292.067 106.186C291.107 104.928 290.286 103.285 289.603 101.258L292.739 100.234ZM297.219 81.1622H301.315V86.9862H297.219V81.1622ZM285.571 84.3942H313.059V92.4262H309.123V88.0102H289.347V92.4262H285.571V84.3942ZM334.878 93.2262H355.326V96.6822H334.878V93.2262ZM335.998 86.7622H354.238V90.1542H335.998V86.7622ZM342.75 88.4262H346.59V93.5462C346.59 94.5702 346.462 95.6369 346.206 96.7462C345.972 97.8556 345.524 98.9649 344.862 100.074C344.222 101.162 343.294 102.218 342.078 103.242C340.884 104.245 339.337 105.162 337.438 105.994C337.268 105.717 337.033 105.408 336.734 105.066C336.436 104.725 336.126 104.384 335.806 104.042C335.486 103.701 335.177 103.424 334.878 103.21C336.692 102.549 338.121 101.813 339.166 101.002C340.233 100.192 341.012 99.3489 341.502 98.4742C342.014 97.5996 342.345 96.7462 342.494 95.9142C342.665 95.0609 342.75 94.2609 342.75 93.5142V88.4262ZM347.166 95.6582C347.828 97.4289 348.83 98.9329 350.174 100.17C351.54 101.386 353.289 102.261 355.422 102.794C355.145 103.05 354.846 103.37 354.526 103.754C354.228 104.138 353.94 104.533 353.662 104.938C353.406 105.322 353.182 105.685 352.99 106.026C350.644 105.258 348.745 104.053 347.294 102.41C345.844 100.768 344.724 98.7516 343.934 96.3622L347.166 95.6582ZM333.598 93.5782V105.386H329.854V97.1302H326.142V93.5782H333.598ZM333.598 103.722C334.26 104.768 335.188 105.536 336.382 106.026C337.577 106.517 339.006 106.794 340.67 106.858C341.609 106.901 342.718 106.933 343.998 106.954C345.3 106.954 346.665 106.944 348.094 106.922C349.524 106.901 350.921 106.858 352.286 106.794C353.673 106.73 354.9 106.656 355.966 106.57C355.838 106.869 355.689 107.253 355.518 107.722C355.348 108.192 355.188 108.672 355.038 109.162C354.91 109.653 354.814 110.09 354.75 110.474C353.79 110.538 352.692 110.581 351.454 110.602C350.217 110.645 348.948 110.666 347.646 110.666C346.345 110.688 345.086 110.688 343.87 110.666C342.654 110.645 341.566 110.613 340.606 110.57C338.644 110.485 336.969 110.176 335.582 109.642C334.196 109.13 332.969 108.256 331.902 107.018C331.198 107.616 330.473 108.234 329.726 108.874C329.001 109.514 328.201 110.176 327.326 110.858L325.438 106.858C326.185 106.41 326.964 105.92 327.774 105.386C328.585 104.853 329.364 104.298 330.11 103.722H333.598ZM326.174 84.1702L329.022 81.8662C329.684 82.2929 330.356 82.7942 331.038 83.3702C331.721 83.9249 332.361 84.5009 332.958 85.0982C333.556 85.6742 334.036 86.2076 334.398 86.6982L331.358 89.2582C331.038 88.7462 330.59 88.1916 330.014 87.5942C329.46 86.9969 328.841 86.3996 328.158 85.8022C327.476 85.1835 326.814 84.6395 326.174 84.1702ZM349.374 81.0982L353.278 82.3142C352.702 83.2315 352.105 84.1382 351.486 85.0342C350.889 85.9089 350.334 86.6556 349.822 87.2742L346.686 86.1862C347.006 85.6955 347.337 85.1622 347.678 84.5862C348.02 83.9889 348.34 83.3915 348.638 82.7942C348.937 82.1755 349.182 81.6102 349.374 81.0982ZM336.83 82.5062L340.062 81.1622C340.66 81.8876 341.225 82.7089 341.758 83.6262C342.292 84.5435 342.665 85.3542 342.878 86.0582L339.422 87.5302C339.252 86.8475 338.91 86.0369 338.398 85.0982C337.908 84.1382 337.385 83.2742 336.83 82.5062Z" fill="white"/>
<path d="M45.144 242.37H53.4V244.722H45.144V242.37ZM41.016 256.29C41.736 256.178 42.568 256.042 43.512 255.882C44.472 255.722 45.488 255.554 46.56 255.378C47.632 255.186 48.696 254.994 49.752 254.802L49.992 257.298C48.6 257.618 47.2 257.93 45.792 258.234C44.384 258.554 43.104 258.834 41.952 259.074L41.016 256.29ZM43.512 237.978H46.296V256.938H43.512V237.978ZM45.144 237.978H54.72V249.21H45.144V246.738H51.864V240.45H45.144V237.978ZM50.136 247.554C50.44 248.994 50.856 250.33 51.384 251.562C51.912 252.778 52.584 253.85 53.4 254.778C54.216 255.706 55.216 256.426 56.4 256.938C56.192 257.13 55.968 257.362 55.728 257.634C55.488 257.922 55.256 258.218 55.032 258.522C54.824 258.842 54.656 259.13 54.528 259.386C53.232 258.698 52.144 257.802 51.264 256.698C50.4 255.578 49.688 254.282 49.128 252.81C48.568 251.338 48.112 249.722 47.76 247.962L50.136 247.554ZM53.616 249.378L55.872 250.938C55.216 251.578 54.52 252.21 53.784 252.834C53.064 253.442 52.4 253.962 51.792 254.394L50.016 253.026C50.4 252.706 50.808 252.338 51.24 251.922C51.688 251.506 52.12 251.074 52.536 250.626C52.952 250.178 53.312 249.762 53.616 249.378ZM34.776 237.93H40.752V240.522H37.464V259.458H34.776V237.93ZM39.96 237.93H40.464L40.872 237.834L42.84 238.962C42.616 239.666 42.376 240.41 42.12 241.194C41.864 241.978 41.608 242.754 41.352 243.522C41.096 244.29 40.84 244.986 40.584 245.61C41.368 246.538 41.872 247.418 42.096 248.25C42.336 249.066 42.456 249.826 42.456 250.53C42.456 251.33 42.368 251.986 42.192 252.498C42.016 253.01 41.728 253.41 41.328 253.698C41.136 253.842 40.912 253.954 40.656 254.034C40.416 254.114 40.168 254.178 39.912 254.226C39.688 254.258 39.424 254.274 39.12 254.274C38.832 254.274 38.536 254.274 38.232 254.274C38.216 253.906 38.152 253.474 38.04 252.978C37.944 252.482 37.8 252.058 37.608 251.706C37.832 251.722 38.032 251.73 38.208 251.73C38.4 251.73 38.568 251.73 38.712 251.73C38.84 251.73 38.96 251.714 39.072 251.682C39.2 251.634 39.32 251.578 39.432 251.514C39.576 251.402 39.68 251.234 39.744 251.01C39.824 250.77 39.856 250.482 39.84 250.146C39.84 249.586 39.72 248.946 39.48 248.226C39.256 247.49 38.784 246.722 38.064 245.922C38.24 245.378 38.416 244.778 38.592 244.122C38.784 243.466 38.96 242.81 39.12 242.154C39.296 241.482 39.456 240.858 39.6 240.282C39.76 239.69 39.88 239.202 39.96 238.818V237.93ZM64.872 241.314V242.13H74.856V241.314H64.872ZM64.872 239.106V239.922H74.856V239.106H64.872ZM62.112 237.642H77.76V243.594H62.112V237.642ZM64.368 250.89V251.73H75.528V250.89H64.368ZM64.368 248.61V249.45H75.528V248.61H64.368ZM61.68 247.098H78.36V253.266H61.68V247.098ZM68.544 247.602H71.328V257.898H68.544V247.602ZM59.064 244.314H80.928V246.378H59.064V244.314ZM61.176 254.058H78.816V255.882H61.176V254.058ZM59.016 256.77H80.976V258.858H59.016V256.77ZM90.1101 254.4V251.111L97.2607 239.844H100.184V244.31H98.488L94.3033 250.94V251.077H104.658V254.4H90.1101ZM98.5391 257.298V253.395L98.6243 251.954V239.844H102.57V257.298H98.5391ZM115.049 257.724C113.526 257.724 112.214 257.364 111.111 256.642C110.009 255.915 109.16 254.872 108.563 253.514C107.966 252.15 107.671 250.511 107.677 248.597C107.682 246.682 107.981 245.057 108.572 243.722C109.168 242.381 110.015 241.361 111.111 240.662C112.214 239.957 113.526 239.605 115.049 239.605C116.572 239.605 117.884 239.957 118.986 240.662C120.094 241.361 120.947 242.381 121.543 243.722C122.14 245.062 122.435 246.687 122.429 248.597C122.429 250.517 122.131 252.159 121.535 253.523C120.938 254.886 120.089 255.929 118.986 256.65C117.89 257.366 116.577 257.724 115.049 257.724ZM115.049 254.273C115.958 254.273 116.694 253.81 117.256 252.883C117.819 251.952 118.097 250.523 118.091 248.597C118.091 247.335 117.964 246.295 117.708 245.477C117.452 244.653 117.097 244.04 116.643 243.636C116.188 243.233 115.657 243.031 115.049 243.031C114.145 243.031 113.415 243.489 112.858 244.403C112.302 245.312 112.02 246.71 112.015 248.597C112.009 249.875 112.131 250.935 112.381 251.775C112.637 252.616 112.995 253.244 113.455 253.659C113.915 254.068 114.447 254.273 115.049 254.273ZM133.024 257.724C131.502 257.724 130.189 257.364 129.087 256.642C127.985 255.915 127.135 254.872 126.539 253.514C125.942 252.15 125.647 250.511 125.652 248.597C125.658 246.682 125.956 245.057 126.547 243.722C127.144 242.381 127.99 241.361 129.087 240.662C130.189 239.957 131.502 239.605 133.024 239.605C134.547 239.605 135.86 239.957 136.962 240.662C138.07 241.361 138.922 242.381 139.519 243.722C140.115 245.062 140.411 246.687 140.405 248.597C140.405 250.517 140.107 252.159 139.51 253.523C138.914 254.886 138.064 255.929 136.962 256.65C135.865 257.366 134.553 257.724 133.024 257.724ZM133.024 254.273C133.934 254.273 134.669 253.81 135.232 252.883C135.794 251.952 136.073 250.523 136.067 248.597C136.067 247.335 135.939 246.295 135.684 245.477C135.428 244.653 135.073 244.04 134.618 243.636C134.164 243.233 133.632 243.031 133.024 243.031C132.121 243.031 131.391 243.489 130.834 244.403C130.277 245.312 129.996 246.71 129.99 248.597C129.985 249.875 130.107 250.935 130.357 251.775C130.613 252.616 130.97 253.244 131.431 253.659C131.891 254.068 132.422 254.273 133.024 254.273ZM161.547 244.05H168.699V246.642H161.547V244.05ZM161.547 250.05H168.699V252.642H161.547V250.05ZM160.059 238.122H170.331V257.802H167.427V240.714H162.819V257.802H160.059V238.122ZM157.827 256.218H171.963V258.81H157.827V256.218ZM152.931 236.922L155.475 237.81C155.155 238.434 154.819 239.074 154.467 239.73C154.115 240.37 153.771 240.994 153.435 241.602C153.099 242.194 152.771 242.714 152.451 243.162L150.507 242.37C150.795 241.874 151.091 241.314 151.395 240.69C151.699 240.05 151.987 239.402 152.259 238.746C152.531 238.09 152.755 237.482 152.931 236.922ZM155.811 239.778L158.259 240.786C157.667 241.698 157.027 242.658 156.339 243.666C155.651 244.658 154.955 245.61 154.251 246.522C153.547 247.434 152.891 248.234 152.283 248.922L150.531 248.034C150.995 247.49 151.467 246.874 151.947 246.186C152.427 245.498 152.899 244.786 153.363 244.05C153.843 243.314 154.291 242.578 154.707 241.842C155.139 241.09 155.507 240.402 155.811 239.778ZM149.235 242.61L150.603 240.642C151.019 240.994 151.451 241.394 151.899 241.842C152.347 242.274 152.755 242.706 153.123 243.138C153.507 243.57 153.795 243.97 153.987 244.338L152.523 246.57C152.331 246.202 152.051 245.786 151.683 245.322C151.331 244.842 150.939 244.37 150.507 243.906C150.075 243.426 149.651 242.994 149.235 242.61ZM155.235 245.562L157.275 244.674C157.595 245.202 157.907 245.77 158.211 246.378C158.515 246.986 158.779 247.586 159.003 248.178C159.227 248.754 159.395 249.274 159.507 249.738L157.299 250.746C157.203 250.298 157.051 249.778 156.843 249.186C156.635 248.578 156.387 247.962 156.099 247.338C155.827 246.698 155.539 246.106 155.235 245.562ZM149.235 247.482C150.339 247.45 151.667 247.402 153.219 247.338C154.787 247.274 156.379 247.202 157.995 247.122L157.971 249.402C156.467 249.514 154.971 249.626 153.483 249.738C151.995 249.834 150.659 249.914 149.475 249.978L149.235 247.482ZM155.643 251.562L157.755 250.866C158.091 251.586 158.403 252.37 158.691 253.218C158.979 254.066 159.187 254.802 159.315 255.426L157.083 256.242C156.971 255.602 156.779 254.85 156.507 253.986C156.235 253.106 155.947 252.298 155.643 251.562ZM150.267 251.01L152.643 251.442C152.515 252.594 152.323 253.73 152.067 254.85C151.811 255.97 151.515 256.914 151.179 257.682C151.019 257.57 150.803 257.442 150.531 257.298C150.259 257.17 149.979 257.042 149.691 256.914C149.419 256.786 149.179 256.69 148.971 256.626C149.323 255.906 149.603 255.05 149.811 254.058C150.019 253.05 150.171 252.034 150.267 251.01ZM153.051 248.754H155.595V259.458H153.051V248.754Z" fill="white"/>
<path d="M43.846 162.72H84.736V167.128H43.846V162.72ZM53.068 147.524H59.1V159.298H53.068V147.524ZM66.292 147.524H72.44V159.298H66.292V147.524ZM44.948 150.366H86.07V160.806H44.948V156.978H79.69V154.194H44.948V150.366ZM59.042 174.378L64.9 175.712C62.696 177.839 60.1247 179.734 57.186 181.396C54.2473 183.059 50.8253 184.567 46.92 185.92C46.5333 185.302 45.9727 184.586 45.238 183.774C44.542 182.962 43.904 182.344 43.324 181.918C46.92 180.913 50.052 179.772 52.72 178.496C55.388 177.182 57.4953 175.809 59.042 174.378ZM59.1 177.916H77.37V181.686H55.33L59.1 177.916ZM75.978 177.916H77.196L78.24 177.684L82.126 180.178C80.3087 182.266 78.066 184.064 75.398 185.572C72.73 187.08 69.772 188.356 66.524 189.4C63.3147 190.444 59.912 191.276 56.316 191.894C52.7587 192.552 49.182 193.074 45.586 193.46C45.354 192.764 44.9867 191.952 44.484 191.024C44.02 190.096 43.556 189.323 43.092 188.704C46.3787 188.472 49.6653 188.105 52.952 187.602C56.2773 187.1 59.4287 186.442 62.406 185.63C65.3833 184.818 68.0513 183.852 70.41 182.73C72.7687 181.57 74.6247 180.236 75.978 178.728V177.916ZM57.36 180.352C58.8293 181.59 60.666 182.672 62.87 183.6C65.1127 184.528 67.626 185.321 70.41 185.978C73.194 186.597 76.1713 187.1 79.342 187.486C82.5127 187.834 85.78 188.086 89.144 188.24C88.5253 188.859 87.8873 189.69 87.23 190.734C86.6113 191.778 86.1087 192.687 85.722 193.46C82.242 193.19 78.878 192.784 75.63 192.242C72.382 191.701 69.308 190.986 66.408 190.096C63.5467 189.207 60.9173 188.124 58.52 186.848C56.1613 185.572 54.0927 184.084 52.314 182.382L57.36 180.352ZM54.866 168.346H60.318V170.898C60.318 171.478 60.4533 171.846 60.724 172C61.0333 172.155 61.6327 172.232 62.522 172.232C62.754 172.232 63.1407 172.232 63.682 172.232C64.2233 172.232 64.8227 172.232 65.48 172.232C66.176 172.232 66.7947 172.232 67.336 172.232C67.916 172.232 68.3413 172.232 68.612 172.232C69.308 172.232 69.772 172.097 70.004 171.826C70.236 171.517 70.41 170.84 70.526 169.796C71.0673 170.144 71.7633 170.454 72.614 170.724C73.5033 170.995 74.296 171.188 74.992 171.304C74.76 173.238 74.2187 174.552 73.368 175.248C72.556 175.906 71.222 176.234 69.366 176.234C69.134 176.234 68.7667 176.234 68.264 176.234C67.7613 176.234 67.1813 176.234 66.524 176.234C65.8667 176.234 65.2287 176.234 64.61 176.234C63.9913 176.234 63.4307 176.234 62.928 176.234C62.4253 176.234 62.058 176.234 61.826 176.234C59.97 176.234 58.52 176.08 57.476 175.77C56.4707 175.422 55.7747 174.881 55.388 174.146C55.04 173.373 54.866 172.29 54.866 170.898V168.346ZM83.112 162.72H84.098L85.084 162.546L89.608 163.532C89.0667 165.04 88.4673 166.587 87.81 168.172C87.1527 169.758 86.5147 171.092 85.896 172.174L80.444 171.072C80.908 170.067 81.3913 168.868 81.894 167.476C82.3967 166.084 82.8027 164.75 83.112 163.474V162.72ZM49.82 167.708L54.46 169.738C53.8413 171.053 53.068 172.368 52.14 173.682C51.2507 174.997 50.1293 176.118 48.776 177.046L44.31 174.146C45.5087 173.412 46.5913 172.445 47.558 171.246C48.5247 170.048 49.2787 168.868 49.82 167.708ZM60.086 167.592L63.74 164.982C64.784 165.485 65.886 166.123 67.046 166.896C68.206 167.67 69.1147 168.366 69.772 168.984L66.002 171.884C65.3447 171.227 64.436 170.473 63.276 169.622C62.1547 168.772 61.0913 168.095 60.086 167.592ZM72.73 169.506L77.022 167.244C78.2207 168.172 79.4387 169.294 80.676 170.608C81.9133 171.884 82.8413 173.025 83.46 174.03L78.936 176.524C78.3947 175.48 77.5247 174.301 76.326 172.986C75.1273 171.672 73.9287 170.512 72.73 169.506ZM60.202 138.998H67.452V146.364H60.202V138.998ZM42.512 142.478H88.1V147.698H42.512V142.478ZM39.206 142.478H45.528V159.762C45.528 162.198 45.4507 164.866 45.296 167.766C45.1413 170.666 44.8513 173.644 44.426 176.698C44.0007 179.753 43.382 182.711 42.57 185.572C41.758 188.434 40.6947 191.024 39.38 193.344C38.9933 192.958 38.4713 192.494 37.814 191.952C37.1567 191.45 36.48 190.966 35.784 190.502C35.1267 190.038 34.5467 189.69 34.044 189.458C35.2427 187.332 36.1707 185.012 36.828 182.498C37.524 179.946 38.046 177.356 38.394 174.726C38.742 172.058 38.9547 169.448 39.032 166.896C39.148 164.344 39.206 161.966 39.206 159.762V142.478ZM105.384 149.554H145.752V156.34H105.384V149.554ZM102.948 166.606H143.49V173.334H102.948V166.606ZM96.278 185.05H148.71V191.836H96.278V185.05ZM118.782 138.998H126.09V188.356H118.782V138.998ZM105.384 139.752L112.576 141.376C111.764 144.354 110.759 147.292 109.56 150.192C108.361 153.092 107.066 155.799 105.674 158.312C104.282 160.787 102.832 162.952 101.324 164.808C100.86 164.383 100.241 163.919 99.468 163.416C98.7333 162.875 97.96 162.353 97.148 161.85C96.336 161.348 95.64 160.942 95.06 160.632C96.6067 159.008 98.018 157.075 99.294 154.832C100.609 152.59 101.769 150.173 102.774 147.582C103.818 144.992 104.688 142.382 105.384 139.752ZM181.132 142.188H206.826V169.68H199.866V148.8H181.132V142.188ZM185.83 159.82H202.94V166.316H185.83V159.82ZM182.466 159.82H189.426V183.832C189.426 185.108 189.619 185.92 190.006 186.268C190.393 186.578 191.282 186.732 192.674 186.732C192.945 186.732 193.447 186.732 194.182 186.732C194.917 186.732 195.729 186.732 196.618 186.732C197.507 186.732 198.339 186.732 199.112 186.732C199.885 186.732 200.465 186.732 200.852 186.732C201.703 186.732 202.36 186.52 202.824 186.094C203.288 185.63 203.597 184.741 203.752 183.426C203.945 182.112 204.1 180.178 204.216 177.626C204.719 178.013 205.357 178.4 206.13 178.786C206.903 179.134 207.696 179.463 208.508 179.772C209.32 180.043 210.035 180.256 210.654 180.41C210.383 183.736 209.939 186.326 209.32 188.182C208.701 190 207.754 191.295 206.478 192.068C205.241 192.842 203.539 193.228 201.374 193.228C201.065 193.228 200.581 193.228 199.924 193.228C199.267 193.228 198.532 193.228 197.72 193.228C196.947 193.228 196.154 193.228 195.342 193.228C194.53 193.228 193.795 193.228 193.138 193.228C192.519 193.228 192.075 193.228 191.804 193.228C189.445 193.228 187.589 192.958 186.236 192.416C184.883 191.875 183.916 190.928 183.336 189.574C182.756 188.221 182.466 186.326 182.466 183.89V159.82ZM165.24 167.592H171.852V193.518H165.24V167.592ZM164.834 139.056L171.156 141.666C170.267 143.136 169.319 144.663 168.314 146.248C167.347 147.834 166.4 149.342 165.472 150.772C164.544 152.203 163.655 153.46 162.804 154.542L157.99 152.222C158.802 151.062 159.633 149.728 160.484 148.22C161.335 146.674 162.147 145.108 162.92 143.522C163.693 141.898 164.331 140.41 164.834 139.056ZM172.374 145.784L178.29 148.626C176.743 150.83 175.042 153.131 173.186 155.528C171.33 157.926 169.474 160.226 167.618 162.43C165.762 164.634 164.003 166.548 162.34 168.172L158.164 165.678C159.363 164.402 160.6 162.933 161.876 161.27C163.191 159.608 164.486 157.887 165.762 156.108C167.038 154.33 168.237 152.551 169.358 150.772C170.518 148.994 171.523 147.331 172.374 145.784ZM155.206 153.324L158.338 148.51C159.421 149.322 160.523 150.231 161.644 151.236C162.765 152.242 163.809 153.247 164.776 154.252C165.743 155.258 166.477 156.186 166.98 157.036L163.558 162.43C163.055 161.541 162.34 160.574 161.412 159.53C160.484 158.448 159.459 157.365 158.338 156.282C157.255 155.2 156.211 154.214 155.206 153.324ZM171.04 159.646L176.202 157.326C177.053 158.602 177.903 160.014 178.754 161.56C179.643 163.068 180.436 164.557 181.132 166.026C181.828 167.457 182.35 168.733 182.698 169.854L177.13 172.522C176.821 171.401 176.337 170.106 175.68 168.636C175.023 167.128 174.288 165.601 173.476 164.054C172.664 162.469 171.852 161 171.04 159.646ZM155.148 164.46C158.048 164.344 161.47 164.209 165.414 164.054C169.397 163.861 173.418 163.668 177.478 163.474L177.42 169.216C173.631 169.448 169.822 169.68 165.994 169.912C162.205 170.144 158.821 170.357 155.844 170.55L155.148 164.46ZM172.2 174.726L177.71 172.696C178.329 173.856 178.928 175.113 179.508 176.466C180.088 177.82 180.61 179.134 181.074 180.41C181.577 181.686 181.963 182.827 182.234 183.832L176.434 186.152C176.202 185.108 175.854 183.929 175.39 182.614C174.926 181.3 174.404 179.966 173.824 178.612C173.283 177.22 172.741 175.925 172.2 174.726ZM158.048 173.16L164.196 174.262C163.848 177.085 163.307 179.869 162.572 182.614C161.837 185.321 161.006 187.602 160.078 189.458C159.653 189.188 159.092 188.878 158.396 188.53C157.739 188.182 157.043 187.854 156.308 187.544C155.573 187.196 154.955 186.926 154.452 186.732C155.419 185.031 156.173 182.962 156.714 180.526C157.294 178.052 157.739 175.596 158.048 173.16ZM230.838 175.19H237.682V184.528C237.682 185.379 237.837 185.92 238.146 186.152C238.494 186.346 239.267 186.442 240.466 186.442C240.698 186.442 241.104 186.442 241.684 186.442C242.303 186.442 242.979 186.442 243.714 186.442C244.449 186.442 245.145 186.442 245.802 186.442C246.459 186.442 246.943 186.442 247.252 186.442C247.948 186.442 248.47 186.307 248.818 186.036C249.166 185.766 249.417 185.186 249.572 184.296C249.727 183.407 249.843 182.073 249.92 180.294C250.384 180.642 250.964 180.99 251.66 181.338C252.395 181.648 253.149 181.938 253.922 182.208C254.734 182.479 255.449 182.692 256.068 182.846C255.797 185.398 255.372 187.39 254.792 188.82C254.251 190.251 253.419 191.237 252.298 191.778C251.215 192.358 249.746 192.648 247.89 192.648C247.619 192.648 247.194 192.648 246.614 192.648C246.073 192.648 245.454 192.648 244.758 192.648C244.062 192.648 243.366 192.648 242.67 192.648C242.013 192.648 241.394 192.648 240.814 192.648C240.273 192.648 239.867 192.648 239.596 192.648C237.237 192.648 235.42 192.397 234.144 191.894C232.868 191.392 231.998 190.541 231.534 189.342C231.07 188.182 230.838 186.597 230.838 184.586V175.19ZM233.97 172.522L238.32 167.998C239.712 168.578 241.123 169.294 242.554 170.144C243.985 170.956 245.319 171.826 246.556 172.754C247.832 173.644 248.857 174.533 249.63 175.422L244.874 180.352C244.178 179.502 243.231 178.593 242.032 177.626C240.833 176.66 239.519 175.732 238.088 174.842C236.696 173.953 235.323 173.18 233.97 172.522ZM253.574 177.046L259.316 173.624C260.747 174.939 262.158 176.389 263.55 177.974C264.942 179.521 266.199 181.087 267.32 182.672C268.441 184.258 269.292 185.746 269.872 187.138L263.666 190.966C263.163 189.613 262.371 188.124 261.288 186.5C260.244 184.876 259.045 183.252 257.692 181.628C256.377 179.966 255.005 178.438 253.574 177.046ZM223.066 174.552L229.33 176.524C228.866 178.419 228.286 180.294 227.59 182.15C226.894 183.968 226.024 185.688 224.98 187.312C223.975 188.898 222.757 190.29 221.326 191.488L215.468 187.544C216.783 186.539 217.923 185.36 218.89 184.006C219.895 182.614 220.727 181.126 221.384 179.54C222.08 177.916 222.641 176.254 223.066 174.552ZM223.704 159.298H255.836V165.098H223.704V159.298ZM232.462 151.236H252.936V156.63H232.462V151.236ZM242.612 145.146C241.027 146.925 238.997 148.742 236.522 150.598C234.047 152.416 231.341 154.117 228.402 155.702C225.463 157.288 222.467 158.641 219.412 159.762C219.18 159.182 218.832 158.525 218.368 157.79C217.904 157.056 217.421 156.34 216.918 155.644C216.454 154.91 215.99 154.272 215.526 153.73C218.697 152.725 221.751 151.43 224.69 149.844C227.667 148.259 230.355 146.538 232.752 144.682C235.188 142.788 237.16 140.912 238.668 139.056H245.918C248.083 141.338 250.481 143.406 253.11 145.262C255.739 147.08 258.523 148.665 261.462 150.018C264.401 151.333 267.339 152.396 270.278 153.208C269.505 154.098 268.731 155.142 267.958 156.34C267.185 157.5 266.527 158.583 265.986 159.588C263.975 158.854 261.868 157.964 259.664 156.92C257.46 155.838 255.295 154.658 253.168 153.382C251.08 152.106 249.127 150.772 247.31 149.38C245.493 147.988 243.927 146.577 242.612 145.146ZM253.806 159.298H255.314L256.358 158.95L261.056 161.792C260.36 163.262 259.49 164.847 258.446 166.548C257.402 168.25 256.3 169.912 255.14 171.536C254.019 173.16 252.936 174.63 251.892 175.944C251.196 175.403 250.326 174.804 249.282 174.146C248.277 173.489 247.368 172.986 246.556 172.638C247.523 171.478 248.47 170.164 249.398 168.694C250.365 167.225 251.235 165.775 252.008 164.344C252.82 162.914 253.419 161.657 253.806 160.574V159.298ZM275.672 168.462C277.412 168.114 279.384 167.689 281.588 167.186C283.792 166.684 286.093 166.142 288.49 165.562C290.887 164.944 293.285 164.344 295.682 163.764L296.552 170.434C293.265 171.362 289.921 172.29 286.518 173.218C283.115 174.108 280.003 174.9 277.18 175.596L275.672 168.462ZM276.426 150.076H295.914V156.804H276.426V150.076ZM282.98 138.998H290.114V185.92C290.114 187.544 289.94 188.84 289.592 189.806C289.244 190.812 288.587 191.585 287.62 192.126C286.653 192.668 285.474 193.016 284.082 193.17C282.729 193.364 281.085 193.441 279.152 193.402C279.036 192.474 278.785 191.372 278.398 190.096C278.05 188.859 277.663 187.776 277.238 186.848C278.205 186.887 279.152 186.906 280.08 186.906C281.008 186.906 281.646 186.906 281.994 186.906C282.381 186.868 282.632 186.79 282.748 186.674C282.903 186.52 282.98 186.249 282.98 185.862V138.998ZM298.176 149.322H327.93V192.764H320.68V155.876H305.136V193.17H298.176V149.322ZM302.41 166.316H323.58V172.87H302.41V166.316ZM302.41 183.658H323.58V190.212H302.41V183.658ZM309.776 139.114L318.07 139.984C317.335 142.382 316.562 144.76 315.75 147.118C314.938 149.477 314.165 151.488 313.43 153.15L306.934 152.048C307.321 150.811 307.707 149.458 308.094 147.988C308.481 146.48 308.829 144.953 309.138 143.406C309.447 141.86 309.66 140.429 309.776 139.114ZM374.968 151.584H390.86V157.906H374.968V151.584ZM365.804 184.818H385.408V191.082H365.804V184.818ZM362.498 167.07H388.482V193.286H381.754V173.16H368.936V193.518H362.498V167.07ZM371.314 139.114H378.216V169.854H371.314V139.114ZM342.546 179.192L349.042 180.758C348.191 183.194 347.07 185.572 345.678 187.892C344.286 190.174 342.817 192.088 341.27 193.634C340.845 193.248 340.303 192.803 339.646 192.3C338.989 191.836 338.293 191.372 337.558 190.908C336.862 190.444 336.263 190.077 335.76 189.806C337.229 188.492 338.563 186.887 339.762 184.992C340.961 183.098 341.889 181.164 342.546 179.192ZM350.202 181.454L355.712 179.018C356.949 180.488 358.109 182.112 359.192 183.89C360.275 185.63 361.087 187.177 361.628 188.53L355.828 191.372C355.325 190.019 354.533 188.414 353.45 186.558C352.406 184.664 351.323 182.962 350.202 181.454ZM345.62 157.268V162.662H352.754V157.268H345.62ZM345.62 167.766V173.218H352.754V167.766H345.62ZM345.62 146.828V152.106H352.754V146.828H345.62ZM339.298 141.26H359.366V178.728H339.298V141.26Z" fill="white"/>
<ellipse cx="76.3153" cy="68.2859" rx="54.1017" ry="56" fill="#6EE292"/>
<path d="M45.4529 90.212V76.5046L75.2469 29.5586H87.4273V48.1666H80.3605L62.9245 75.7944V76.3626H106.071V90.212H45.4529ZM80.5736 102.286V86.0217L80.9287 80.0203V29.5586H97.3705V102.286H80.5736Z" fill="white"/>
<rect x="428.809" y="87.9664" width="64.9551" height="148" fill="white"/>
<rect x="428.809" y="87.9664" width="64.9551" height="148" fill="#B6FFCD"/>
<rect x="435.818" y="96.0094" width="50.9373" height="41.7006" fill="#6EE292"/>
<rect x="435.818" y="146.598" width="50.9373" height="41.7006" fill="#6EE292"/>
<rect x="471.417" y="117.298" width="64.9551" height="148" fill="white"/>
<rect x="471.417" y="117.298" width="64.9551" height="148" fill="#B6FFCD"/>
<rect x="478.426" y="125.341" width="50.9373" height="41.7006" fill="#6EE292"/>
<rect x="478.426" y="175.929" width="50.9373" height="41.7006" fill="#6EE292"/>
</svg>
