<svg width="570" height="312" viewBox="0 0 570 312" fill="none" xmlns="http://www.w3.org/2000/svg">
<path d="M-0.00683594 29.5346H539.993C556.562 29.5346 569.993 42.9661 569.993 59.5346V311.906H29.9932C13.4246 311.906 -0.00683594 298.475 -0.00683594 281.906V29.5346Z" fill="#FF5F17"/>
<line x1="347.79" y1="219.406" x2="38.6372" y2="219.406" stroke="white"/>
<path d="M168.072 105.301H176.264V108.981H168.072V105.301ZM150.056 87.5731H161.768V91.3171H150.056V87.5731ZM166.344 85.4931H177.992V110.997H174.152V89.2051H170.024V111.221H166.344V85.4931ZM160.84 87.5731H164.552C164.552 87.5731 164.552 87.6904 164.552 87.9251C164.552 88.1384 164.552 88.3837 164.552 88.6611C164.552 88.9384 164.541 89.1624 164.52 89.3331C164.456 92.7464 164.381 95.6584 164.296 98.0691C164.232 100.458 164.146 102.421 164.04 103.957C163.954 105.493 163.826 106.698 163.656 107.573C163.485 108.448 163.272 109.066 163.016 109.429C162.653 109.962 162.28 110.346 161.896 110.581C161.512 110.816 161.053 110.986 160.52 111.093C160.05 111.2 159.474 111.253 158.792 111.253C158.109 111.274 157.394 111.264 156.648 111.221C156.626 110.666 156.52 110.016 156.328 109.269C156.136 108.544 155.88 107.914 155.56 107.381C156.2 107.424 156.786 107.456 157.32 107.477C157.853 107.498 158.269 107.509 158.568 107.509C158.802 107.509 159.005 107.466 159.176 107.381C159.346 107.296 159.506 107.136 159.656 106.901C159.826 106.666 159.976 106.176 160.104 105.429C160.232 104.682 160.338 103.594 160.424 102.165C160.509 100.736 160.584 98.9011 160.648 96.6611C160.712 94.3997 160.776 91.6477 160.84 88.4051V87.5731ZM153.864 82.2931H157.64C157.64 85.4504 157.586 88.4691 157.48 91.3491C157.394 94.2077 157.181 96.8957 156.84 99.4131C156.498 101.93 155.933 104.245 155.144 106.357C154.376 108.448 153.298 110.293 151.912 111.893C151.72 111.573 151.464 111.232 151.144 110.869C150.824 110.506 150.482 110.165 150.12 109.845C149.757 109.525 149.416 109.269 149.096 109.077C150.098 107.946 150.898 106.677 151.496 105.269C152.114 103.84 152.584 102.282 152.904 100.597C153.245 98.9117 153.48 97.1091 153.608 95.1891C153.736 93.2477 153.81 91.1997 153.832 89.0451C153.853 86.8691 153.864 84.6184 153.864 82.2931ZM189.064 83.6051H198.152V87.5091H189.064V83.6051ZM196.264 83.6051H200.232C200.232 84.6291 200.274 85.7917 200.36 87.0931C200.445 88.3731 200.626 89.7491 200.904 91.2211C201.181 92.6717 201.597 94.1651 202.152 95.7011C202.706 97.2371 203.442 98.7624 204.36 100.277C205.298 101.77 206.472 103.21 207.88 104.597C209.288 105.984 210.973 107.264 212.936 108.437C212.658 108.65 212.317 108.96 211.912 109.365C211.506 109.77 211.112 110.186 210.728 110.613C210.365 111.061 210.066 111.456 209.832 111.797C207.826 110.56 206.088 109.173 204.616 107.637C203.144 106.08 201.906 104.437 200.904 102.709C199.901 100.96 199.09 99.1997 198.472 97.4291C197.853 95.6371 197.384 93.8984 197.064 92.2131C196.744 90.5064 196.53 88.9171 196.424 87.4451C196.317 85.9731 196.264 84.6931 196.264 83.6051ZM194.888 90.6451L199.272 91.4451C198.546 94.6024 197.576 97.4717 196.36 100.053C195.144 102.634 193.682 104.906 191.976 106.869C190.29 108.832 188.338 110.485 186.12 111.829C185.885 111.552 185.554 111.21 185.128 110.805C184.701 110.421 184.253 110.026 183.784 109.621C183.336 109.237 182.941 108.928 182.6 108.693C185.949 107.008 188.616 104.64 190.6 101.589C192.584 98.5171 194.013 94.8691 194.888 90.6451ZM229.48 83.4451H242.504V86.9651H229.48V83.4451ZM228.392 94.5491H246.088V98.1971H228.392V94.5491ZM235.176 90.8371H239.016V107.605C239.016 108.565 238.898 109.322 238.664 109.877C238.429 110.432 238.002 110.858 237.384 111.157C236.744 111.456 235.976 111.648 235.08 111.733C234.205 111.84 233.181 111.882 232.008 111.861C231.922 111.328 231.741 110.698 231.464 109.973C231.186 109.248 230.909 108.618 230.632 108.085C231.442 108.106 232.221 108.128 232.968 108.149C233.714 108.17 234.226 108.17 234.504 108.149C234.76 108.149 234.93 108.106 235.016 108.021C235.122 107.936 235.176 107.786 235.176 107.573V90.8371ZM241.096 83.4451H242.056L242.824 83.2211L245.32 85.1091C244.701 86.0477 243.997 87.0291 243.208 88.0531C242.44 89.0557 241.629 90.0264 240.776 90.9651C239.922 91.8824 239.08 92.6931 238.248 93.3971C237.992 93.0557 237.64 92.6611 237.192 92.2131C236.744 91.7651 236.36 91.4131 236.04 91.1571C236.68 90.5597 237.33 89.8451 237.992 89.0131C238.653 88.1811 239.25 87.3384 239.784 86.4851C240.338 85.6317 240.776 84.8851 241.096 84.2451V83.4451ZM216.2 88.1811H226.568V91.7651H216.2V88.1811ZM220.52 81.8131L224.104 82.1971C223.805 83.9037 223.464 85.6957 223.08 87.5731C222.717 89.4504 222.333 91.3277 221.928 93.2051C221.522 95.0611 221.117 96.8637 220.712 98.6131C220.306 100.341 219.912 101.92 219.528 103.349L216.392 101.717C216.754 100.458 217.117 99.0184 217.48 97.3971C217.864 95.7757 218.237 94.0691 218.6 92.2771C218.962 90.4637 219.304 88.6717 219.624 86.9011C219.965 85.1091 220.264 83.4131 220.52 81.8131ZM218.088 101.173L220.168 98.4531C221.277 99.1571 222.44 99.9464 223.656 100.821C224.893 101.696 226.034 102.581 227.08 103.477C228.146 104.373 228.989 105.226 229.608 106.037L227.304 109.141C226.706 108.33 225.896 107.456 224.872 106.517C223.848 105.557 222.738 104.608 221.544 103.669C220.37 102.73 219.218 101.898 218.088 101.173ZM225.224 88.1811H225.864L226.536 88.1171L228.808 88.5011C228.573 92.6611 228.05 96.2557 227.24 99.2851C226.45 102.293 225.341 104.832 223.912 106.901C222.504 108.97 220.733 110.666 218.6 111.989C218.365 111.52 218.024 110.976 217.576 110.357C217.128 109.76 216.701 109.29 216.296 108.949C218.109 107.989 219.645 106.581 220.904 104.725C222.162 102.869 223.144 100.608 223.848 97.9411C224.573 95.2744 225.032 92.2664 225.224 88.9171V88.1811ZM261.672 95.5731C263.037 98.9224 265.16 101.674 268.04 103.829C270.92 105.984 274.61 107.456 279.112 108.245C278.834 108.522 278.536 108.864 278.216 109.269C277.896 109.696 277.597 110.133 277.32 110.581C277.042 111.029 276.818 111.424 276.648 111.765C273.512 111.061 270.77 110.037 268.424 108.693C266.098 107.349 264.114 105.664 262.472 103.637C260.829 101.61 259.453 99.2424 258.344 96.5331L261.672 95.5731ZM271.496 93.6211H272.232L272.936 93.4611L275.56 94.5811C274.92 96.9917 274.056 99.1251 272.968 100.981C271.88 102.837 270.589 104.458 269.096 105.845C267.602 107.232 265.949 108.416 264.136 109.397C262.344 110.378 260.402 111.189 258.312 111.829C258.098 111.338 257.778 110.773 257.352 110.133C256.946 109.493 256.541 108.981 256.136 108.597C258.013 108.106 259.762 107.445 261.384 106.613C263.026 105.781 264.52 104.768 265.864 103.573C267.208 102.378 268.36 101.013 269.32 99.4771C270.28 97.9197 271.005 96.2024 271.496 94.3251V93.6211ZM250.312 86.5811H278.248V90.3251H250.312V86.5811ZM259.4 93.6211H271.88V97.3331H258.28L259.4 93.6211ZM258.312 81.8131H262.312C262.29 82.5384 262.248 83.4557 262.184 84.5651C262.12 85.6531 262.013 86.8904 261.864 88.2771C261.714 89.6637 261.49 91.1357 261.192 92.6931C260.914 94.2291 260.541 95.8077 260.072 97.4291C259.602 99.0291 259.016 100.618 258.312 102.197C257.629 103.776 256.797 105.29 255.816 106.741C254.834 108.192 253.682 109.514 252.36 110.709C251.976 110.218 251.496 109.738 250.92 109.269C250.344 108.8 249.725 108.373 249.064 107.989C250.365 106.901 251.485 105.706 252.424 104.405C253.384 103.082 254.194 101.685 254.856 100.213C255.517 98.7411 256.061 97.2691 256.488 95.7971C256.914 94.3037 257.245 92.8424 257.48 91.4131C257.714 89.9837 257.885 88.6504 257.992 87.4131C258.098 86.1544 258.173 85.0451 258.216 84.0851C258.258 83.1251 258.29 82.3677 258.312 81.8131ZM299.875 93.9411H320.323V97.3971H299.875V93.9411ZM300.995 87.4771H319.235V90.8691H300.995V87.4771ZM307.747 89.1411H311.587V94.2611C311.587 95.2851 311.459 96.3517 311.203 97.4611C310.968 98.5704 310.52 99.6797 309.859 100.789C309.219 101.877 308.291 102.933 307.075 103.957C305.88 104.96 304.333 105.877 302.435 106.709C302.264 106.432 302.029 106.122 301.731 105.781C301.432 105.44 301.123 105.098 300.803 104.757C300.483 104.416 300.173 104.138 299.875 103.925C301.688 103.264 303.117 102.528 304.163 101.717C305.229 100.906 306.008 100.064 306.499 99.1891C307.011 98.3144 307.341 97.4611 307.491 96.6291C307.661 95.7757 307.747 94.9757 307.747 94.2291V89.1411ZM312.163 96.3731C312.824 98.1437 313.827 99.6477 315.171 100.885C316.536 102.101 318.285 102.976 320.419 103.509C320.141 103.765 319.843 104.085 319.523 104.469C319.224 104.853 318.936 105.248 318.659 105.653C318.403 106.037 318.179 106.4 317.987 106.741C315.64 105.973 313.741 104.768 312.291 103.125C310.84 101.482 309.72 99.4664 308.931 97.0771L312.163 96.3731ZM298.595 94.2931V106.101H294.851V97.8451H291.139V94.2931H298.595ZM298.595 104.437C299.256 105.482 300.184 106.25 301.379 106.741C302.573 107.232 304.003 107.509 305.667 107.573C306.605 107.616 307.715 107.648 308.995 107.669C310.296 107.669 311.661 107.658 313.091 107.637C314.52 107.616 315.917 107.573 317.283 107.509C318.669 107.445 319.896 107.37 320.963 107.285C320.835 107.584 320.685 107.968 320.515 108.437C320.344 108.906 320.184 109.386 320.035 109.877C319.907 110.368 319.811 110.805 319.747 111.189C318.787 111.253 317.688 111.296 316.451 111.317C315.213 111.36 313.944 111.381 312.643 111.381C311.341 111.402 310.083 111.402 308.867 111.381C307.651 111.36 306.563 111.328 305.603 111.285C303.64 111.2 301.965 110.89 300.579 110.357C299.192 109.845 297.965 108.97 296.899 107.733C296.195 108.33 295.469 108.949 294.723 109.589C293.997 110.229 293.197 110.89 292.323 111.573L290.435 107.573C291.181 107.125 291.96 106.634 292.771 106.101C293.581 105.568 294.36 105.013 295.107 104.437H298.595ZM291.171 84.8851L294.019 82.5811C294.68 83.0077 295.352 83.5091 296.035 84.0851C296.717 84.6397 297.357 85.2157 297.955 85.8131C298.552 86.3891 299.032 86.9224 299.395 87.4131L296.355 89.9731C296.035 89.4611 295.587 88.9064 295.011 88.3091C294.456 87.7117 293.837 87.1144 293.155 86.5171C292.472 85.8984 291.811 85.3544 291.171 84.8851ZM314.371 81.8131L318.275 83.0291C317.699 83.9464 317.101 84.8531 316.483 85.7491C315.885 86.6237 315.331 87.3704 314.819 87.9891L311.683 86.9011C312.003 86.4104 312.333 85.8771 312.675 85.3011C313.016 84.7037 313.336 84.1064 313.635 83.5091C313.933 82.8904 314.179 82.3251 314.371 81.8131ZM301.827 83.2211L305.059 81.8771C305.656 82.6024 306.221 83.4237 306.755 84.3411C307.288 85.2584 307.661 86.0691 307.875 86.7731L304.419 88.2451C304.248 87.5624 303.907 86.7517 303.395 85.8131C302.904 84.8531 302.381 83.9891 301.827 83.2211Z" fill="white"/>
<path d="M45.132 240.222H52.7V242.378H45.132V240.222ZM41.348 252.982C42.008 252.88 42.7707 252.755 43.636 252.608C44.516 252.462 45.4473 252.308 46.43 252.146C47.4127 251.97 48.388 251.794 49.356 251.618L49.576 253.906C48.3 254.2 47.0167 254.486 45.726 254.764C44.4353 255.058 43.262 255.314 42.206 255.534L41.348 252.982ZM43.636 236.196H46.188V253.576H43.636V236.196ZM45.132 236.196H53.91V246.492H45.132V244.226H51.292V238.462H45.132V236.196ZM49.708 244.974C49.9867 246.294 50.368 247.519 50.852 248.648C51.336 249.763 51.952 250.746 52.7 251.596C53.448 252.447 54.3647 253.107 55.45 253.576C55.2593 253.752 55.054 253.965 54.834 254.214C54.614 254.478 54.4013 254.75 54.196 255.028C54.0053 255.322 53.8513 255.586 53.734 255.82C52.546 255.19 51.5487 254.368 50.742 253.356C49.95 252.33 49.2973 251.142 48.784 249.792C48.2707 248.443 47.8527 246.962 47.53 245.348L49.708 244.974ZM52.898 246.646L54.966 248.076C54.3647 248.663 53.7267 249.242 53.052 249.814C52.392 250.372 51.7833 250.848 51.226 251.244L49.598 249.99C49.95 249.697 50.324 249.36 50.72 248.978C51.1307 248.597 51.5267 248.201 51.908 247.79C52.2893 247.38 52.6193 246.998 52.898 246.646ZM35.628 236.152H41.106V238.528H38.092V255.886H35.628V236.152ZM40.38 236.152H40.842L41.216 236.064L43.02 237.098C42.8147 237.744 42.5947 238.426 42.36 239.144C42.1253 239.863 41.8907 240.574 41.656 241.278C41.4213 241.982 41.1867 242.62 40.952 243.192C41.6707 244.043 42.1327 244.85 42.338 245.612C42.558 246.36 42.668 247.057 42.668 247.702C42.668 248.436 42.5873 249.037 42.426 249.506C42.2647 249.976 42.0007 250.342 41.634 250.606C41.458 250.738 41.2527 250.841 41.018 250.914C40.798 250.988 40.5707 251.046 40.336 251.09C40.1307 251.12 39.8887 251.134 39.61 251.134C39.346 251.134 39.0747 251.134 38.796 251.134C38.7813 250.797 38.7227 250.401 38.62 249.946C38.532 249.492 38.4 249.103 38.224 248.78C38.4293 248.795 38.6127 248.802 38.774 248.802C38.95 248.802 39.104 248.802 39.236 248.802C39.3533 248.802 39.4633 248.788 39.566 248.758C39.6833 248.714 39.7933 248.663 39.896 248.604C40.028 248.502 40.1233 248.348 40.182 248.142C40.2553 247.922 40.2847 247.658 40.27 247.35C40.27 246.837 40.16 246.25 39.94 245.59C39.7347 244.916 39.302 244.212 38.642 243.478C38.8033 242.98 38.9647 242.43 39.126 241.828C39.302 241.227 39.4633 240.626 39.61 240.024C39.7713 239.408 39.918 238.836 40.05 238.308C40.1967 237.766 40.3067 237.318 40.38 236.966V236.152ZM63.216 239.254V240.002H72.368V239.254H63.216ZM63.216 237.23V237.978H72.368V237.23H63.216ZM60.686 235.888H75.03V241.344H60.686V235.888ZM62.754 248.032V248.802H72.984V248.032H62.754ZM62.754 245.942V246.712H72.984V245.942H62.754ZM60.29 244.556H75.58V250.21H60.29V244.556ZM66.582 245.018H69.134V254.456H66.582V245.018ZM57.892 242.004H77.934V243.896H57.892V242.004ZM59.828 250.936H75.998V252.608H59.828V250.936ZM57.848 253.422H77.978V255.336H57.848V253.422ZM92.6712 254.125C91.5046 254.125 90.4681 253.914 89.5619 253.492C88.6556 253.07 87.9395 252.49 87.4134 251.75C86.8926 251.01 86.6218 250.161 86.6009 249.203H90.3509C90.3822 249.792 90.6218 250.266 91.0697 250.625C91.5176 250.979 92.0515 251.156 92.6712 251.156C93.1556 251.156 93.5853 251.049 93.9603 250.836C94.3353 250.622 94.6296 250.323 94.8431 249.937C95.0567 249.547 95.1608 249.099 95.1556 248.594C95.1608 248.078 95.0541 247.628 94.8353 247.242C94.6218 246.857 94.3249 246.557 93.9447 246.344C93.5697 246.125 93.1374 246.016 92.6478 246.016C92.1843 246.01 91.7442 246.112 91.3275 246.32C90.916 246.529 90.6035 246.812 90.39 247.172L86.9759 246.531L87.6712 237.906H97.9369V241.023H90.8509L90.4837 244.797H90.5775C90.8431 244.354 91.2702 243.99 91.8587 243.703C92.4525 243.411 93.127 243.266 93.8822 243.266C94.8405 243.266 95.6947 243.49 96.4447 243.937C97.1999 244.38 97.7936 244.995 98.2259 245.781C98.6634 246.568 98.8822 247.469 98.8822 248.484C98.8822 249.583 98.6218 250.557 98.1009 251.406C97.5853 252.255 96.8614 252.922 95.9291 253.406C95.002 253.885 93.916 254.125 92.6712 254.125ZM108.502 254.297C107.107 254.297 105.903 253.966 104.893 253.305C103.883 252.638 103.104 251.682 102.557 250.437C102.01 249.187 101.739 247.685 101.745 245.93C101.75 244.174 102.023 242.685 102.565 241.461C103.112 240.232 103.888 239.297 104.893 238.656C105.903 238.01 107.107 237.687 108.502 237.687C109.898 237.687 111.101 238.01 112.112 238.656C113.127 239.297 113.909 240.232 114.456 241.461C115.002 242.69 115.273 244.18 115.268 245.93C115.268 247.69 114.995 249.195 114.448 250.445C113.901 251.695 113.122 252.651 112.112 253.312C111.107 253.969 109.903 254.297 108.502 254.297ZM108.502 251.133C109.336 251.133 110.01 250.708 110.526 249.859C111.041 249.005 111.297 247.695 111.291 245.93C111.291 244.773 111.174 243.82 110.94 243.07C110.706 242.315 110.38 241.753 109.963 241.383C109.547 241.013 109.06 240.828 108.502 240.828C107.674 240.828 107.005 241.247 106.495 242.086C105.984 242.919 105.726 244.2 105.721 245.93C105.716 247.102 105.828 248.073 106.057 248.844C106.291 249.615 106.62 250.19 107.041 250.57C107.463 250.945 107.95 251.133 108.502 251.133ZM124.98 254.297C123.584 254.297 122.381 253.966 121.371 253.305C120.36 252.638 119.582 251.682 119.035 250.437C118.488 249.187 118.217 247.685 118.222 245.93C118.227 244.174 118.501 242.685 119.043 241.461C119.589 240.232 120.365 239.297 121.371 238.656C122.381 238.01 123.584 237.687 124.98 237.687C126.376 237.687 127.579 238.01 128.589 238.656C129.605 239.297 130.386 240.232 130.933 241.461C131.48 242.69 131.751 244.18 131.746 245.93C131.746 247.69 131.472 249.195 130.925 250.445C130.379 251.695 129.6 252.651 128.589 253.312C127.584 253.969 126.381 254.297 124.98 254.297ZM124.98 251.133C125.813 251.133 126.488 250.708 127.004 249.859C127.519 249.005 127.774 247.695 127.769 245.93C127.769 244.773 127.652 243.82 127.418 243.07C127.183 242.315 126.858 241.753 126.441 241.383C126.024 241.013 125.537 240.828 124.98 240.828C124.152 240.828 123.483 241.247 122.972 242.086C122.462 242.919 122.204 244.2 122.199 245.93C122.194 247.102 122.306 248.073 122.535 248.844C122.769 249.615 123.097 250.19 123.519 250.57C123.941 250.945 124.428 251.133 124.98 251.133ZM151.125 241.762H157.681V244.138H151.125V241.762ZM151.125 247.262H157.681V249.638H151.125V247.262ZM149.761 236.328H159.177V254.368H156.515V238.704H152.291V254.368H149.761V236.328ZM147.715 252.916H160.673V255.292H147.715V252.916ZM143.227 235.228L145.559 236.042C145.266 236.614 144.958 237.201 144.635 237.802C144.313 238.389 143.997 238.961 143.689 239.518C143.381 240.061 143.081 240.538 142.787 240.948L141.005 240.222C141.269 239.768 141.541 239.254 141.819 238.682C142.098 238.096 142.362 237.502 142.611 236.9C142.861 236.299 143.066 235.742 143.227 235.228ZM145.867 237.846L148.111 238.77C147.569 239.606 146.982 240.486 146.351 241.41C145.721 242.32 145.083 243.192 144.437 244.028C143.792 244.864 143.191 245.598 142.633 246.228L141.027 245.414C141.453 244.916 141.885 244.351 142.325 243.72C142.765 243.09 143.198 242.437 143.623 241.762C144.063 241.088 144.474 240.413 144.855 239.738C145.251 239.049 145.589 238.418 145.867 237.846ZM139.839 240.442L141.093 238.638C141.475 238.961 141.871 239.328 142.281 239.738C142.692 240.134 143.066 240.53 143.403 240.926C143.755 241.322 144.019 241.689 144.195 242.026L142.853 244.072C142.677 243.735 142.421 243.354 142.083 242.928C141.761 242.488 141.401 242.056 141.005 241.63C140.609 241.19 140.221 240.794 139.839 240.442ZM145.339 243.148L147.209 242.334C147.503 242.818 147.789 243.339 148.067 243.896C148.346 244.454 148.588 245.004 148.793 245.546C148.999 246.074 149.153 246.551 149.255 246.976L147.231 247.9C147.143 247.49 147.004 247.013 146.813 246.47C146.623 245.913 146.395 245.348 146.131 244.776C145.882 244.19 145.618 243.647 145.339 243.148ZM139.839 244.908C140.851 244.879 142.069 244.835 143.491 244.776C144.929 244.718 146.388 244.652 147.869 244.578L147.847 246.668C146.469 246.771 145.097 246.874 143.733 246.976C142.369 247.064 141.145 247.138 140.059 247.196L139.839 244.908ZM145.713 248.648L147.649 248.01C147.957 248.67 148.243 249.389 148.507 250.166C148.771 250.944 148.962 251.618 149.079 252.19L147.033 252.938C146.931 252.352 146.755 251.662 146.505 250.87C146.256 250.064 145.992 249.323 145.713 248.648ZM140.785 248.142L142.963 248.538C142.846 249.594 142.67 250.636 142.435 251.662C142.201 252.689 141.929 253.554 141.621 254.258C141.475 254.156 141.277 254.038 141.027 253.906C140.778 253.789 140.521 253.672 140.257 253.554C140.008 253.437 139.788 253.349 139.597 253.29C139.92 252.63 140.177 251.846 140.367 250.936C140.558 250.012 140.697 249.081 140.785 248.142ZM143.337 246.074H145.669V255.886H143.337V246.074Z" fill="white"/>
<path d="M37.1925 185.906V143.724H47.3878V177.626H64.9361V185.906H37.1925ZM82.7293 143.724V185.906H72.534V143.724H82.7293ZM127.35 143.724V185.906H118.699L101.913 161.561H101.645V185.906H91.4497V143.724H100.224L116.825 168.028H117.175V143.724H127.35ZM136.08 185.906V143.724H165.492V152.004H146.276V160.655H163.989V168.955H146.276V177.626H165.492V185.906H136.08ZM197.221 139.564H220.827V145.944H197.221V139.564ZM195.249 159.69H227.323V166.302H195.249V159.69ZM207.545 152.962H214.505V183.354C214.505 185.094 214.292 186.467 213.867 187.472C213.441 188.478 212.668 189.251 211.547 189.792C210.387 190.334 208.995 190.682 207.371 190.836C205.785 191.03 203.929 191.107 201.803 191.068C201.648 190.102 201.319 188.961 200.817 187.646C200.314 186.332 199.811 185.191 199.309 184.224C200.778 184.263 202.189 184.302 203.543 184.34C204.896 184.379 205.824 184.379 206.327 184.34C206.791 184.34 207.1 184.263 207.255 184.108C207.448 183.954 207.545 183.683 207.545 183.296V152.962ZM218.275 139.564H220.015L221.407 139.158L225.931 142.58C224.809 144.282 223.533 146.06 222.103 147.916C220.711 149.734 219.241 151.493 217.695 153.194C216.148 154.857 214.621 156.326 213.113 157.602C212.649 156.984 212.011 156.268 211.199 155.456C210.387 154.644 209.691 154.006 209.111 153.542C210.271 152.46 211.45 151.164 212.649 149.656C213.847 148.148 214.93 146.621 215.897 145.074C216.902 143.528 217.695 142.174 218.275 141.014V139.564ZM173.151 148.148H191.943V154.644H173.151V148.148ZM180.981 136.606L187.477 137.302C186.935 140.396 186.317 143.644 185.621 147.046C184.963 150.449 184.267 153.852 183.533 157.254C182.798 160.618 182.063 163.886 181.329 167.056C180.594 170.188 179.879 173.05 179.183 175.64L173.499 172.682C174.156 170.401 174.813 167.791 175.471 164.852C176.167 161.914 176.843 158.82 177.501 155.572C178.158 152.286 178.777 149.038 179.357 145.828C179.975 142.58 180.517 139.506 180.981 136.606ZM176.573 171.696L180.343 166.766C182.353 168.042 184.461 169.473 186.665 171.058C188.907 172.644 190.976 174.248 192.871 175.872C194.804 177.496 196.331 179.043 197.453 180.512L193.277 186.138C192.194 184.669 190.725 183.084 188.869 181.382C187.013 179.642 185.002 177.922 182.837 176.22C180.71 174.519 178.622 173.011 176.573 171.696ZM189.507 148.148H190.667L191.885 148.032L196.003 148.728C195.577 156.268 194.63 162.784 193.161 168.274C191.73 173.726 189.719 178.328 187.129 182.078C184.577 185.829 181.367 188.903 177.501 191.3C177.075 190.45 176.457 189.464 175.645 188.342C174.833 187.26 174.059 186.409 173.325 185.79C176.611 184.05 179.395 181.498 181.677 178.134C183.958 174.77 185.737 170.672 187.013 165.838C188.327 161.005 189.159 155.553 189.507 149.482V148.148ZM255.569 161.546C258.043 167.617 261.891 172.605 267.111 176.51C272.331 180.416 279.02 183.084 287.179 184.514C286.676 185.017 286.135 185.636 285.555 186.37C284.975 187.144 284.433 187.936 283.931 188.748C283.428 189.56 283.022 190.276 282.713 190.894C277.029 189.618 272.06 187.762 267.807 185.326C263.592 182.89 259.996 179.836 257.019 176.162C254.041 172.489 251.547 168.197 249.537 163.286L255.569 161.546ZM273.375 158.008H274.709L275.985 157.718L280.741 159.748C279.581 164.118 278.015 167.984 276.043 171.348C274.071 174.712 271.731 177.651 269.025 180.164C266.318 182.678 263.321 184.824 260.035 186.602C256.787 188.381 253.268 189.85 249.479 191.01C249.092 190.121 248.512 189.096 247.739 187.936C247.004 186.776 246.269 185.848 245.535 185.152C248.937 184.263 252.108 183.064 255.047 181.556C258.024 180.048 260.731 178.212 263.167 176.046C265.603 173.881 267.691 171.406 269.431 168.622C271.171 165.8 272.485 162.687 273.375 159.284V158.008ZM234.979 145.248H285.613V152.034H234.979V145.248ZM251.451 158.008H274.071V164.736H249.421L251.451 158.008ZM249.479 136.606H256.729C256.69 137.921 256.613 139.584 256.497 141.594C256.381 143.566 256.187 145.809 255.917 148.322C255.646 150.836 255.24 153.504 254.699 156.326C254.196 159.11 253.519 161.972 252.669 164.91C251.818 167.81 250.755 170.691 249.479 173.552C248.241 176.414 246.733 179.159 244.955 181.788C243.176 184.418 241.088 186.815 238.691 188.98C237.995 188.091 237.125 187.221 236.081 186.37C235.037 185.52 233.915 184.746 232.717 184.05C235.075 182.078 237.105 179.913 238.807 177.554C240.547 175.157 242.016 172.624 243.215 169.956C244.413 167.288 245.399 164.62 246.173 161.952C246.946 159.246 247.545 156.597 247.971 154.006C248.396 151.416 248.705 148.999 248.899 146.756C249.092 144.475 249.227 142.464 249.305 140.724C249.382 138.984 249.44 137.612 249.479 136.606ZM320.935 179.352L326.329 177.902C326.986 178.908 327.547 180.01 328.011 181.208C328.475 182.407 328.803 183.47 328.997 184.398L323.313 186.08C323.197 185.152 322.907 184.05 322.443 182.774C321.979 181.498 321.476 180.358 320.935 179.352ZM336.247 177.786L342.279 179.41C341.66 180.648 341.041 181.846 340.423 183.006C339.843 184.166 339.301 185.152 338.799 185.964L333.637 184.456C334.101 183.528 334.584 182.426 335.087 181.15C335.589 179.874 335.976 178.753 336.247 177.786ZM324.125 171.348V174.248H338.509V171.348H324.125ZM318.325 167.23H344.483V178.366H318.325V167.23ZM322.037 151.222V153.89H340.365V151.222H322.037ZM322.037 144.61V147.22H340.365V144.61H322.037ZM316.527 140.376H346.165V158.124H316.527V140.376ZM315.657 160.096H347.151V165.316H315.657V160.096ZM314.497 184.862H347.963V190.024H314.497V184.862ZM324.299 136.606H329.403V143.508H324.299V136.606ZM332.825 136.606H337.987V143.508H332.825V136.606ZM325.285 142.348H329.403V157.312H325.285V142.348ZM332.825 142.348H336.943V157.312H332.825V142.348ZM294.023 151.802H314.381V157.834H294.023V151.802ZM295.415 140.26H313.221V146.234H295.415V140.26ZM309.799 160.792H314.207V182.368H309.799V160.792ZM301.621 154.818H307.363V191.068H301.621V154.818ZM294.835 160.85H299.243V167.81C299.243 170.788 299.107 173.92 298.837 177.206C298.566 180.454 297.928 183.47 296.923 186.254C296.459 185.79 295.84 185.268 295.067 184.688C294.293 184.108 293.617 183.664 293.037 183.354C293.81 180.996 294.293 178.424 294.487 175.64C294.719 172.856 294.835 170.208 294.835 167.694V160.85Z" fill="white"/>
<circle cx="78.9932" cy="62.906" r="56" fill="#FF9C1E"/>
<path d="M58.3179 102.906L87.6503 44.8094V44.3478H53.3463V30.1787H105.832V44.4543L76.3932 102.906H58.3179Z" fill="white"/>
<ellipse cx="476.22" cy="167.478" rx="71.7733" ry="59" fill="#FF9C1E"/>
<path d="M415.843 232.582L436.924 185.781L462.644 211.501L415.843 232.582Z" fill="#FF9C1E"/>
</svg>
