<svg width="591" height="317" viewBox="0 0 591 317" fill="none" xmlns="http://www.w3.org/2000/svg">
<path d="M20.9985 33.749H560.999C577.567 33.749 590.999 47.1805 590.999 63.749V316.121H50.9985C34.43 316.121 20.9985 302.689 20.9985 286.121V33.749Z" fill="#FF5F17"/>
<line x1="368.795" y1="223.621" x2="59.6426" y2="223.621" stroke="white"/>
<path d="M183.989 103.512H187.797V107.16C187.797 107.586 187.903 107.864 188.117 107.992C188.33 108.098 188.821 108.152 189.589 108.152C189.759 108.152 190.047 108.152 190.453 108.152C190.858 108.152 191.295 108.152 191.765 108.152C192.234 108.152 192.682 108.152 193.109 108.152C193.535 108.152 193.866 108.152 194.101 108.152C194.506 108.152 194.805 108.098 194.997 107.992C195.21 107.864 195.37 107.608 195.477 107.224C195.583 106.84 195.647 106.264 195.669 105.496C196.053 105.752 196.575 106.008 197.237 106.264C197.919 106.498 198.517 106.658 199.029 106.744C198.879 108.002 198.645 108.962 198.325 109.624C198.005 110.285 197.535 110.744 196.917 111C196.319 111.256 195.498 111.384 194.453 111.384C194.282 111.384 194.015 111.384 193.653 111.384C193.311 111.384 192.917 111.384 192.469 111.384C192.021 111.384 191.573 111.384 191.125 111.384C190.677 111.384 190.271 111.384 189.909 111.384C189.567 111.384 189.311 111.384 189.141 111.384C187.754 111.384 186.687 111.256 185.941 111C185.194 110.765 184.682 110.338 184.405 109.72C184.127 109.122 183.989 108.29 183.989 107.224V103.512ZM187.925 102.968L190.517 101.112C191.05 101.453 191.605 101.848 192.181 102.296C192.757 102.722 193.29 103.17 193.781 103.64C194.271 104.109 194.655 104.557 194.933 104.984L192.181 107C191.775 106.381 191.167 105.698 190.357 104.952C189.567 104.205 188.757 103.544 187.925 102.968ZM197.941 104.792L200.981 103.128C201.599 103.704 202.229 104.354 202.869 105.08C203.509 105.784 204.095 106.498 204.629 107.224C205.162 107.928 205.567 108.589 205.845 109.208L202.517 111.096C202.282 110.498 201.909 109.826 201.397 109.08C200.906 108.354 200.362 107.618 199.765 106.872C199.167 106.104 198.559 105.41 197.941 104.792ZM176.437 85.1757L178.709 82.4557C179.349 82.7331 180.021 83.0637 180.725 83.4477C181.45 83.8317 182.133 84.2264 182.773 84.6317C183.413 85.0157 183.946 85.3891 184.373 85.7517L181.941 88.7597C181.578 88.3971 181.077 88.0024 180.437 87.5757C179.818 87.1277 179.146 86.7011 178.421 86.2957C177.717 85.8691 177.055 85.4957 176.437 85.1757ZM196.245 97.0797L198.293 96.2477C198.634 96.6317 198.965 97.0797 199.285 97.5917C199.605 98.1037 199.839 98.5517 199.989 98.9357L197.845 99.8637C197.717 99.4584 197.503 98.9997 197.205 98.4877C196.906 97.9544 196.586 97.4851 196.245 97.0797ZM192.469 97.5277L194.933 96.8557C195.231 97.3891 195.519 97.9864 195.797 98.6477C196.074 99.3091 196.255 99.8851 196.341 100.376L193.781 101.144C193.695 100.653 193.525 100.077 193.269 99.4157C193.034 98.7331 192.767 98.1037 192.469 97.5277ZM179.893 102.84L183.125 104.12C182.677 105.4 182.101 106.669 181.397 107.928C180.693 109.165 179.829 110.232 178.805 111.128L175.701 108.984C176.682 108.237 177.525 107.32 178.229 106.232C178.933 105.144 179.487 104.013 179.893 102.84ZM186.357 82.7757H203.765V85.4957H190.005V94.8077H186.357V82.7757ZM188.949 86.6157H202.549V88.8557H188.949V86.6157ZM188.949 90.0077H202.549V92.2797H188.949V90.0077ZM186.357 93.4637H202.741V96.1517H186.357V93.4637ZM193.781 84.1197H197.237V94.7117H193.781V84.1197ZM175.957 98.1677C176.554 97.5704 177.215 96.8664 177.941 96.0557C178.687 95.2451 179.455 94.3704 180.245 93.4317C181.034 92.4931 181.791 91.5544 182.517 90.6157L184.821 93.0477C184.202 93.9011 183.562 94.7757 182.901 95.6717C182.261 96.5677 181.599 97.4531 180.917 98.3277C180.255 99.2024 179.583 100.045 178.901 100.856L175.957 98.1677ZM185.205 96.1837L187.957 97.2717C187.658 98.2104 187.274 99.1597 186.805 100.12C186.335 101.08 185.749 101.89 185.045 102.552L182.389 100.952C183.05 100.376 183.615 99.6504 184.085 98.7757C184.575 97.9011 184.949 97.0371 185.205 96.1837ZM201.397 93.4637H204.789C204.789 93.4637 204.778 93.6131 204.757 93.9117C204.757 94.1891 204.735 94.4344 204.693 94.6477C204.607 96.1411 204.501 97.3784 204.373 98.3597C204.245 99.3197 204.106 100.088 203.957 100.664C203.807 101.218 203.615 101.624 203.381 101.88C203.125 102.178 202.837 102.402 202.517 102.552C202.197 102.701 201.855 102.786 201.493 102.808C201.194 102.872 200.789 102.914 200.277 102.936C199.765 102.936 199.199 102.925 198.581 102.904C198.559 102.477 198.474 102.008 198.325 101.496C198.197 100.962 198.037 100.504 197.845 100.12C198.271 100.162 198.645 100.194 198.965 100.216C199.306 100.216 199.551 100.216 199.701 100.216C200.063 100.216 200.33 100.12 200.501 99.9277C200.714 99.6931 200.885 99.1384 201.013 98.2637C201.162 97.3677 201.29 95.9064 201.397 93.8797V93.4637ZM188.341 97.6237L190.997 97.0797C191.231 97.7197 191.434 98.4237 191.605 99.1917C191.797 99.9384 191.925 100.589 191.989 101.144L189.141 101.752C189.141 101.197 189.066 100.536 188.917 99.7677C188.767 98.9784 188.575 98.2637 188.341 97.6237ZM216.949 102.488H229.301V104.568H216.949V102.488ZM218.709 99.6717H230.005V101.464H218.709V99.6717ZM218.709 96.9197H229.877V98.6797H218.709V96.9197ZM222.645 95.0957H225.525V103.704H222.645V95.0957ZM228.853 102.488H231.797C231.797 102.488 231.797 102.616 231.797 102.872C231.797 103.106 231.786 103.32 231.765 103.512C231.701 104.856 231.626 105.965 231.541 106.84C231.477 107.714 231.381 108.386 231.253 108.856C231.146 109.346 230.986 109.72 230.773 109.976C230.559 110.232 230.303 110.424 230.005 110.552C229.706 110.68 229.386 110.765 229.045 110.808C228.725 110.829 228.319 110.84 227.829 110.84C227.359 110.861 226.858 110.861 226.325 110.84C226.303 110.477 226.229 110.072 226.101 109.624C225.973 109.197 225.823 108.834 225.653 108.536C226.058 108.578 226.421 108.61 226.741 108.632C227.082 108.653 227.338 108.653 227.509 108.632C227.829 108.653 228.074 108.568 228.245 108.376C228.394 108.184 228.511 107.693 228.597 106.904C228.703 106.093 228.789 104.749 228.853 102.872V102.488ZM216.341 105.112L218.581 105.688C218.431 106.648 218.207 107.576 217.909 108.472C217.61 109.346 217.141 110.072 216.501 110.648L214.485 109.304C214.997 108.834 215.402 108.216 215.701 107.448C216.021 106.68 216.234 105.901 216.341 105.112ZM225.173 105.368L226.709 104.888C227.007 105.293 227.263 105.752 227.477 106.264C227.69 106.776 227.85 107.224 227.957 107.608L226.325 108.216C226.239 107.81 226.09 107.341 225.877 106.808C225.685 106.274 225.45 105.794 225.173 105.368ZM219.381 105.88L221.269 105.624C221.397 106.285 221.482 107.021 221.525 107.832C221.589 108.642 221.61 109.314 221.589 109.848L219.541 110.168C219.605 109.592 219.615 108.909 219.573 108.12C219.551 107.309 219.487 106.562 219.381 105.88ZM222.389 105.72L224.149 105.304C224.362 105.88 224.543 106.52 224.693 107.224C224.842 107.906 224.938 108.493 224.981 108.984L223.125 109.496C223.103 108.984 223.029 108.376 222.901 107.672C222.773 106.968 222.602 106.317 222.389 105.72ZM216.949 93.8477H230.805V95.9597H219.957V103.64H216.949V93.8477ZM212.309 86.4237H220.373V88.5997H212.309V86.4237ZM226.933 86.4237H235.061V88.5997H226.933V86.4237ZM233.909 82.6797H237.589V107.864C237.589 108.717 237.493 109.389 237.301 109.88C237.13 110.392 236.789 110.797 236.277 111.096C235.786 111.394 235.167 111.576 234.421 111.64C233.695 111.704 232.831 111.736 231.829 111.736C231.786 111.266 231.669 110.701 231.477 110.04C231.285 109.378 231.071 108.824 230.837 108.376C231.349 108.397 231.85 108.408 232.341 108.408C232.853 108.408 233.205 108.408 233.397 108.408C233.589 108.386 233.717 108.333 233.781 108.248C233.866 108.162 233.909 108.024 233.909 107.832V82.6797ZM212.661 82.6797H222.805V92.4397H212.661V90.0077H219.221V85.1117H212.661V82.6797ZM235.765 82.6797V85.1117H228.565V89.9757H235.765V92.4077H224.917V82.6797H235.765ZM210.389 82.6797H213.973V111.736H210.389V82.6797ZM254.101 98.6157L255.957 98.0397C256.319 98.5731 256.65 99.1704 256.949 99.8317C257.269 100.472 257.482 101.037 257.589 101.528L255.637 102.2C255.53 101.688 255.327 101.101 255.029 100.44C254.751 99.7784 254.442 99.1704 254.101 98.6157ZM248.757 96.1837L249.973 94.7117C250.549 95.0957 251.146 95.5544 251.765 96.0877C252.383 96.6211 252.842 97.1011 253.141 97.5277L251.861 99.2237C251.562 98.7757 251.114 98.2637 250.517 97.6877C249.919 97.1117 249.333 96.6104 248.757 96.1837ZM252.309 92.6637L254.517 93.5277C254.09 94.0611 253.653 94.6051 253.205 95.1597C252.778 95.7144 252.373 96.1731 251.989 96.5357L250.293 95.7997C250.634 95.3517 250.997 94.8291 251.381 94.2317C251.765 93.6344 252.074 93.1117 252.309 92.6637ZM254.485 94.9997L256.469 95.8637C255.935 96.4397 255.37 97.0371 254.773 97.6557C254.175 98.2744 253.589 98.8717 253.013 99.4477C252.437 100.002 251.893 100.493 251.381 100.92L249.909 100.152C250.421 99.6824 250.954 99.1491 251.509 98.5517C252.085 97.9331 252.629 97.3144 253.141 96.6957C253.674 96.0557 254.122 95.4904 254.485 94.9997ZM257.813 102.104H260.437V111.064H257.813V102.104ZM248.469 99.8957C249.493 99.8317 250.645 99.7677 251.925 99.7037C253.226 99.6184 254.602 99.5224 256.053 99.4157V101.368C254.73 101.496 253.45 101.613 252.213 101.72C250.975 101.805 249.813 101.89 248.725 101.976L248.469 99.8957ZM262.165 98.4237L264.117 97.8477C264.501 98.4451 264.863 99.1064 265.205 99.8317C265.546 100.536 265.781 101.165 265.909 101.72L263.893 102.36C263.786 101.826 263.573 101.197 263.253 100.472C262.933 99.7251 262.57 99.0424 262.165 98.4237ZM256.373 96.0237L257.749 94.6157C258.389 95.0424 259.029 95.5544 259.669 96.1517C260.33 96.7491 260.821 97.2931 261.141 97.7837L259.733 99.3837C259.413 98.8717 258.933 98.3064 258.293 97.6877C257.653 97.0477 257.013 96.4931 256.373 96.0237ZM260.053 92.6317L262.389 93.4957C261.898 94.1144 261.407 94.7117 260.917 95.2877C260.426 95.8637 259.967 96.3757 259.541 96.8237L257.813 96.0557C258.197 95.5864 258.602 95.0211 259.029 94.3597C259.455 93.6984 259.797 93.1224 260.053 92.6317ZM262.357 94.9997L264.373 95.9277C263.818 96.5251 263.231 97.1437 262.613 97.7837C261.994 98.4237 261.375 99.0317 260.757 99.6077C260.138 100.184 259.541 100.696 258.965 101.144L257.493 100.312C258.026 99.8424 258.591 99.3091 259.189 98.7117C259.807 98.0931 260.394 97.4637 260.949 96.8237C261.503 96.1624 261.973 95.5544 262.357 94.9997ZM257.013 99.8957C257.994 99.8531 259.114 99.7891 260.373 99.7037C261.653 99.6184 262.997 99.5331 264.405 99.4477V101.368C263.167 101.496 261.951 101.613 260.757 101.72C259.583 101.805 258.485 101.89 257.461 101.976L257.013 99.8957ZM249.461 102.648H251.797V105.4H255.253V107.544H249.461V102.648ZM262.421 102.648H264.821V107.544H259.893V105.4H262.421V102.648ZM253.749 102.104H256.277V105.208C256.277 106.04 256.17 106.85 255.957 107.64C255.743 108.429 255.306 109.154 254.645 109.816C253.983 110.477 252.97 111.042 251.605 111.512C251.455 111.192 251.21 110.829 250.869 110.424C250.527 110.018 250.229 109.688 249.973 109.432C251.082 109.112 251.903 108.728 252.437 108.28C252.97 107.81 253.322 107.309 253.493 106.776C253.663 106.242 253.749 105.698 253.749 105.144V102.104ZM245.589 86.9357H253.653V89.2717H245.589V86.9357ZM260.309 86.9357H268.437V89.2717H260.309V86.9357ZM267.157 82.8717H270.837V107.288C270.837 108.205 270.751 108.941 270.581 109.496C270.41 110.072 270.047 110.52 269.493 110.84C268.959 111.16 268.309 111.352 267.541 111.416C266.773 111.501 265.855 111.544 264.789 111.544C264.746 111.181 264.671 110.776 264.565 110.328C264.458 109.88 264.33 109.421 264.181 108.952C264.053 108.504 263.903 108.12 263.733 107.8C264.309 107.821 264.874 107.842 265.429 107.864C266.005 107.864 266.399 107.853 266.613 107.832C266.826 107.832 266.965 107.789 267.029 107.704C267.114 107.618 267.157 107.469 267.157 107.256V82.8717ZM245.941 82.8717H256.085V93.3037H245.941V90.7437H252.501V85.4317H245.941V82.8717ZM269.045 82.8717V85.4317H261.845V90.7437H269.045V93.3037H258.197V82.8717H269.045ZM243.669 82.8717H247.317V111.704H243.669V82.8717ZM275.925 92.9517H305.077V96.7597H275.925V92.9517ZM290.197 85.5597H301.589V89.2397H290.197V85.5597ZM287.701 81.6237H291.797V94.7757H287.701V81.6237ZM287.701 95.3837H291.797V111.672H287.701V95.3837ZM290.613 101.496L292.565 98.4237C293.375 98.6584 294.261 98.9357 295.221 99.2557C296.181 99.5544 297.151 99.8851 298.133 100.248C299.114 100.589 300.042 100.93 300.917 101.272C301.791 101.613 302.527 101.933 303.125 102.232L301.077 105.72C300.501 105.4 299.786 105.058 298.933 104.696C298.101 104.333 297.205 103.96 296.245 103.576C295.285 103.192 294.314 102.818 293.333 102.456C292.373 102.093 291.466 101.773 290.613 101.496ZM326.032 93.7517H346.48V97.2077H326.032V93.7517ZM327.152 87.2877H345.392V90.6797H327.152V87.2877ZM333.904 88.9517H337.744V94.0717C337.744 95.0957 337.616 96.1624 337.36 97.2717C337.125 98.3811 336.677 99.4904 336.016 100.6C335.376 101.688 334.448 102.744 333.232 103.768C332.037 104.77 330.49 105.688 328.592 106.52C328.421 106.242 328.186 105.933 327.888 105.592C327.589 105.25 327.28 104.909 326.96 104.568C326.64 104.226 326.33 103.949 326.032 103.736C327.845 103.074 329.274 102.338 330.32 101.528C331.386 100.717 332.165 99.8744 332.656 98.9997C333.168 98.1251 333.498 97.2717 333.648 96.4397C333.818 95.5864 333.904 94.7864 333.904 94.0397V88.9517ZM338.32 96.1837C338.981 97.9544 339.984 99.4584 341.328 100.696C342.693 101.912 344.442 102.786 346.576 103.32C346.298 103.576 346 103.896 345.68 104.28C345.381 104.664 345.093 105.058 344.816 105.464C344.56 105.848 344.336 106.21 344.144 106.552C341.797 105.784 339.898 104.578 338.448 102.936C336.997 101.293 335.877 99.2771 335.088 96.8877L338.32 96.1837ZM324.752 94.1037V105.912H321.008V97.6557H317.296V94.1037H324.752ZM324.752 104.248C325.413 105.293 326.341 106.061 327.536 106.552C328.73 107.042 330.16 107.32 331.824 107.384C332.762 107.426 333.872 107.458 335.152 107.48C336.453 107.48 337.818 107.469 339.248 107.448C340.677 107.426 342.074 107.384 343.44 107.32C344.826 107.256 346.053 107.181 347.12 107.096C346.992 107.394 346.842 107.778 346.672 108.248C346.501 108.717 346.341 109.197 346.192 109.688C346.064 110.178 345.968 110.616 345.904 111C344.944 111.064 343.845 111.106 342.608 111.128C341.37 111.17 340.101 111.192 338.8 111.192C337.498 111.213 336.24 111.213 335.024 111.192C333.808 111.17 332.72 111.138 331.76 111.096C329.797 111.01 328.122 110.701 326.736 110.168C325.349 109.656 324.122 108.781 323.056 107.544C322.352 108.141 321.626 108.76 320.88 109.4C320.154 110.04 319.354 110.701 318.48 111.384L316.592 107.384C317.338 106.936 318.117 106.445 318.928 105.912C319.738 105.378 320.517 104.824 321.264 104.248H324.752ZM317.328 84.6957L320.176 82.3917C320.837 82.8184 321.509 83.3197 322.192 83.8957C322.874 84.4504 323.514 85.0264 324.112 85.6237C324.709 86.1997 325.189 86.7331 325.552 87.2237L322.512 89.7837C322.192 89.2717 321.744 88.7171 321.168 88.1197C320.613 87.5224 319.994 86.9251 319.312 86.3277C318.629 85.7091 317.968 85.1651 317.328 84.6957ZM340.528 81.6237L344.432 82.8397C343.856 83.7571 343.258 84.6637 342.64 85.5597C342.042 86.4344 341.488 87.1811 340.976 87.7997L337.84 86.7117C338.16 86.2211 338.49 85.6877 338.832 85.1117C339.173 84.5144 339.493 83.9171 339.792 83.3197C340.09 82.7011 340.336 82.1357 340.528 81.6237ZM327.984 83.0317L331.216 81.6877C331.813 82.4131 332.378 83.2344 332.912 84.1517C333.445 85.0691 333.818 85.8797 334.032 86.5837L330.576 88.0557C330.405 87.3731 330.064 86.5624 329.552 85.6237C329.061 84.6637 328.538 83.7997 327.984 83.0317Z" fill="white"/>
<path d="M60.9263 247.073H73.9823V249.737H60.9263V247.073ZM60.9263 252.209H73.9823V254.873H60.9263V252.209ZM60.9263 257.369H73.9823V260.033H60.9263V257.369ZM58.9823 241.841H76.4063V261.209H73.3583V244.601H61.8863V261.257H58.9823V241.841ZM65.7983 238.697L69.2783 239.081C68.9903 239.865 68.6863 240.633 68.3663 241.385C68.0463 242.137 67.7503 242.785 67.4783 243.329L64.8383 242.849C64.9663 242.449 65.0943 242.009 65.2223 241.529C65.3503 241.033 65.4623 240.545 65.5583 240.065C65.6703 239.569 65.7503 239.113 65.7983 238.697ZM91.4783 238.889H94.1423V244.721H91.4783V238.889ZM97.6943 238.889H100.406V244.721H97.6943V238.889ZM96.2063 249.881H98.4623V261.185H96.2063V249.881ZM88.0703 240.641H103.646V243.113H88.0703V240.641ZM93.1103 252.497H101.606V254.345H93.1103V252.497ZM93.1103 255.689H101.606V257.561H93.1103V255.689ZM89.3663 245.345H103.766V247.817H89.3663V245.345ZM88.1903 245.345H90.8063V250.649C90.8063 251.449 90.7743 252.313 90.7103 253.241C90.6463 254.169 90.5263 255.121 90.3503 256.097C90.1903 257.057 89.9503 257.993 89.6303 258.905C89.3103 259.801 88.8943 260.617 88.3823 261.353C88.2543 261.177 88.0543 260.969 87.7823 260.729C87.5263 260.505 87.2623 260.281 86.9903 260.057C86.7183 259.849 86.4863 259.689 86.2943 259.577C86.8863 258.713 87.3103 257.761 87.5663 256.721C87.8383 255.665 88.0063 254.609 88.0703 253.553C88.1503 252.497 88.1903 251.521 88.1903 250.625V245.345ZM91.6703 249.041H101.894V251.129H94.0703V261.233H91.6703V249.041ZM100.766 249.041H103.19V258.833C103.19 259.361 103.142 259.785 103.046 260.105C102.95 260.441 102.734 260.705 102.398 260.897C102.062 261.073 101.67 261.185 101.222 261.233C100.774 261.281 100.238 261.297 99.6143 261.281C99.5823 260.961 99.5103 260.593 99.3983 260.177C99.2863 259.761 99.1503 259.401 98.9903 259.097C99.3263 259.113 99.6303 259.121 99.9023 259.121C100.174 259.121 100.366 259.113 100.478 259.097C100.67 259.097 100.766 259.001 100.766 258.809V249.041ZM85.5263 238.769L88.1903 239.561C87.7423 240.953 87.1983 242.361 86.5583 243.785C85.9343 245.209 85.2463 246.561 84.4943 247.841C83.7423 249.105 82.9583 250.217 82.1423 251.177C82.0783 250.953 81.9663 250.641 81.8063 250.241C81.6463 249.841 81.4703 249.441 81.2783 249.041C81.0863 248.641 80.9183 248.313 80.7743 248.057C81.4143 247.305 82.0303 246.433 82.6223 245.441C83.2303 244.449 83.7823 243.385 84.2783 242.249C84.7743 241.097 85.1903 239.937 85.5263 238.769ZM83.6063 245.369L86.2703 242.705L86.3423 242.753V261.257H83.6063V245.369ZM113.078 243.737L115.838 244.673C115.342 245.393 114.758 246.097 114.086 246.785C113.414 247.457 112.702 248.089 111.95 248.681C111.198 249.257 110.446 249.753 109.694 250.169C109.566 249.961 109.382 249.713 109.142 249.425C108.902 249.137 108.654 248.849 108.398 248.561C108.142 248.273 107.918 248.041 107.726 247.865C108.766 247.401 109.766 246.801 110.726 246.065C111.686 245.329 112.47 244.553 113.078 243.737ZM118.91 245.369L120.95 243.689C121.622 244.089 122.334 244.545 123.086 245.057C123.854 245.569 124.59 246.089 125.294 246.617C125.998 247.129 126.566 247.617 126.998 248.081L124.814 249.977C124.414 249.529 123.886 249.033 123.23 248.489C122.574 247.945 121.862 247.401 121.094 246.857C120.342 246.297 119.614 245.801 118.91 245.369ZM117.542 249.377C116.918 250.193 116.102 251.025 115.094 251.873C114.102 252.721 112.998 253.529 111.782 254.297C110.582 255.065 109.342 255.737 108.062 256.313C107.95 256.073 107.798 255.809 107.606 255.521C107.43 255.217 107.238 254.921 107.03 254.633C106.822 254.329 106.622 254.073 106.43 253.865C107.758 253.353 109.03 252.705 110.246 251.921C111.462 251.137 112.566 250.289 113.558 249.377C114.55 248.465 115.342 247.585 115.934 246.737H118.886C119.526 247.521 120.23 248.257 120.998 248.945C121.782 249.633 122.598 250.265 123.446 250.841C124.294 251.401 125.174 251.905 126.086 252.353C126.998 252.801 127.918 253.177 128.846 253.481C128.51 253.849 128.182 254.273 127.862 254.753C127.558 255.233 127.286 255.681 127.046 256.097C126.198 255.729 125.318 255.289 124.406 254.777C123.51 254.265 122.63 253.713 121.766 253.121C120.918 252.529 120.126 251.913 119.39 251.273C118.67 250.633 118.054 250.001 117.542 249.377ZM110.702 252.977H124.358V261.233H121.43V255.521H113.486V261.281H110.702V252.977ZM111.998 258.065H122.894V260.609H111.998V258.065ZM115.886 238.721H118.862V242.153H115.886V238.721ZM107.15 240.641H127.742V245.849H124.814V243.257H109.982V245.849H107.15V240.641ZM135.614 241.913V244.409H138.518V241.913H135.614ZM133.022 239.657H141.278V246.665H133.022V239.657ZM146.126 241.913V244.409H149.054V241.913H146.126ZM143.51 239.657H151.79V246.665H143.51V239.657ZM131.51 247.985H153.374V250.505H131.51V247.985ZM134.774 258.185H140.054V260.537H134.774V258.185ZM144.614 258.185H149.918V260.537H144.614V258.185ZM145.982 248.633C146.494 249.369 147.166 250.057 147.998 250.697C148.846 251.337 149.798 251.897 150.854 252.377C151.91 252.857 153.022 253.233 154.19 253.505C153.982 253.681 153.758 253.913 153.518 254.201C153.294 254.473 153.078 254.753 152.87 255.041C152.678 255.313 152.51 255.569 152.366 255.809C151.102 255.441 149.91 254.961 148.79 254.369C147.67 253.777 146.646 253.081 145.718 252.281C144.79 251.465 143.99 250.577 143.318 249.617L145.982 248.633ZM133.43 253.193H141.398V261.281H138.782V255.545H135.926V261.329H133.43V253.193ZM143.27 253.193H151.334V261.281H148.67V255.545H145.79V261.329H143.27V253.193ZM140.774 245.633L143.558 246.569C142.518 248.793 141.03 250.657 139.094 252.161C137.174 253.665 134.942 254.865 132.398 255.761C132.286 255.537 132.134 255.289 131.942 255.017C131.75 254.729 131.534 254.449 131.294 254.177C131.07 253.905 130.87 253.689 130.694 253.529C133.046 252.761 135.102 251.713 136.862 250.385C138.622 249.057 139.926 247.473 140.774 245.633ZM160.022 262.433L159.254 260.489C160.262 260.169 161.03 259.729 161.558 259.169C162.102 258.625 162.374 258.001 162.374 257.297L162.182 254.945L163.526 257.081C163.318 257.257 163.094 257.393 162.854 257.489C162.614 257.585 162.358 257.633 162.086 257.633C161.494 257.633 160.966 257.449 160.502 257.081C160.038 256.697 159.806 256.161 159.806 255.473C159.806 254.801 160.038 254.273 160.502 253.889C160.966 253.505 161.518 253.313 162.158 253.313C163.006 253.313 163.646 253.609 164.078 254.201C164.526 254.793 164.75 255.593 164.75 256.601C164.75 257.961 164.334 259.161 163.502 260.201C162.67 261.241 161.51 261.985 160.022 262.433ZM187.934 247.817H203.27V250.409H187.934V247.817ZM188.774 242.969H202.454V245.513H188.774V242.969ZM193.838 244.217H196.718V248.057C196.718 248.825 196.622 249.625 196.43 250.457C196.254 251.289 195.918 252.121 195.422 252.953C194.942 253.769 194.246 254.561 193.334 255.329C192.438 256.081 191.278 256.769 189.854 257.393C189.726 257.185 189.55 256.953 189.326 256.697C189.102 256.441 188.87 256.185 188.63 255.929C188.39 255.673 188.158 255.465 187.934 255.305C189.294 254.809 190.366 254.257 191.15 253.649C191.95 253.041 192.534 252.409 192.902 251.753C193.286 251.097 193.534 250.457 193.646 249.833C193.774 249.193 193.838 248.593 193.838 248.033V244.217ZM197.15 249.641C197.646 250.969 198.398 252.097 199.406 253.025C200.43 253.937 201.742 254.593 203.342 254.993C203.134 255.185 202.91 255.425 202.67 255.713C202.446 256.001 202.23 256.297 202.022 256.601C201.83 256.889 201.662 257.161 201.518 257.417C199.758 256.841 198.334 255.937 197.246 254.705C196.158 253.473 195.318 251.961 194.726 250.169L197.15 249.641ZM186.974 248.081V256.937H184.166V250.745H181.382V248.081H186.974ZM186.974 255.689C187.47 256.473 188.166 257.049 189.062 257.417C189.958 257.785 191.03 257.993 192.278 258.041C192.982 258.073 193.814 258.097 194.774 258.113C195.75 258.113 196.774 258.105 197.846 258.089C198.918 258.073 199.966 258.041 200.99 257.993C202.03 257.945 202.95 257.889 203.75 257.825C203.654 258.049 203.542 258.337 203.414 258.689C203.286 259.041 203.166 259.401 203.054 259.769C202.958 260.137 202.886 260.465 202.838 260.753C202.118 260.801 201.294 260.833 200.366 260.849C199.438 260.881 198.486 260.897 197.51 260.897C196.534 260.913 195.59 260.913 194.678 260.897C193.766 260.881 192.95 260.857 192.23 260.825C190.758 260.761 189.502 260.529 188.462 260.129C187.422 259.745 186.502 259.089 185.702 258.161C185.174 258.609 184.63 259.073 184.07 259.553C183.526 260.033 182.926 260.529 182.27 261.041L180.854 258.041C181.414 257.705 181.998 257.337 182.606 256.937C183.214 256.537 183.798 256.121 184.358 255.689H186.974ZM181.406 241.025L183.542 239.297C184.038 239.617 184.542 239.993 185.054 240.425C185.566 240.841 186.046 241.273 186.494 241.721C186.942 242.153 187.302 242.553 187.574 242.921L185.294 244.841C185.054 244.457 184.718 244.041 184.286 243.593C183.87 243.145 183.406 242.697 182.894 242.249C182.382 241.785 181.886 241.377 181.406 241.025ZM198.806 238.721L201.734 239.633C201.302 240.321 200.854 241.001 200.39 241.673C199.942 242.329 199.526 242.889 199.142 243.353L196.79 242.537C197.03 242.169 197.278 241.769 197.534 241.337C197.79 240.889 198.03 240.441 198.254 239.993C198.478 239.529 198.662 239.105 198.806 238.721ZM189.398 239.777L191.822 238.769C192.27 239.313 192.694 239.929 193.094 240.617C193.494 241.305 193.774 241.913 193.934 242.441L191.342 243.545C191.214 243.033 190.958 242.425 190.574 241.721C190.206 241.001 189.814 240.353 189.398 239.777ZM210.998 245.537H223.454V248.153H210.998V245.537ZM206.534 249.881H228.038V252.569H206.534V249.881ZM212.342 252.041H215.462C215.35 253.145 215.166 254.177 214.91 255.137C214.654 256.081 214.246 256.945 213.686 257.729C213.142 258.497 212.374 259.185 211.382 259.793C210.39 260.401 209.11 260.913 207.542 261.329C207.446 261.073 207.302 260.785 207.11 260.465C206.934 260.145 206.734 259.825 206.51 259.505C206.286 259.201 206.07 258.953 205.862 258.761C207.238 258.457 208.334 258.089 209.15 257.657C209.982 257.225 210.606 256.737 211.022 256.193C211.454 255.633 211.758 255.009 211.934 254.321C212.126 253.617 212.262 252.857 212.342 252.041ZM218.534 251.561H221.438V257.417C221.438 257.801 221.494 258.049 221.606 258.161C221.734 258.257 222.014 258.305 222.446 258.305C222.542 258.305 222.694 258.305 222.902 258.305C223.11 258.305 223.342 258.305 223.598 258.305C223.854 258.305 224.094 258.305 224.318 258.305C224.542 258.305 224.718 258.305 224.846 258.305C225.102 258.305 225.294 258.241 225.422 258.113C225.566 257.985 225.662 257.713 225.71 257.297C225.774 256.865 225.822 256.233 225.854 255.401C226.062 255.545 226.318 255.689 226.622 255.833C226.926 255.977 227.238 256.105 227.558 256.217C227.894 256.329 228.19 256.425 228.446 256.505C228.35 257.657 228.182 258.553 227.942 259.193C227.702 259.849 227.358 260.297 226.91 260.537C226.478 260.793 225.878 260.921 225.11 260.921C224.966 260.921 224.75 260.921 224.462 260.921C224.19 260.921 223.886 260.921 223.55 260.921C223.23 260.921 222.926 260.921 222.638 260.921C222.366 260.921 222.158 260.921 222.014 260.921C221.086 260.921 220.366 260.817 219.854 260.609C219.358 260.401 219.014 260.041 218.822 259.529C218.63 259.017 218.534 258.329 218.534 257.465V251.561ZM215.678 238.745H218.75V243.113H215.678V238.745ZM206.966 241.049H227.582V246.761H224.51V243.785H209.894V246.761H206.966V241.049ZM234.974 251.393H251.246V253.865H234.974V251.393ZM231.71 242.633H247.622V245.225H231.71V242.633ZM238.814 247.049H249.686V249.521H238.814V247.049ZM250.142 251.393H252.998C252.998 251.393 252.99 251.465 252.974 251.609C252.974 251.737 252.966 251.889 252.95 252.065C252.95 252.241 252.942 252.385 252.926 252.497C252.798 254.129 252.654 255.473 252.494 256.529C252.35 257.569 252.182 258.393 251.99 259.001C251.798 259.593 251.574 260.025 251.318 260.297C251.046 260.601 250.75 260.817 250.43 260.945C250.126 261.073 249.774 261.161 249.374 261.209C249.054 261.257 248.614 261.281 248.054 261.281C247.51 261.297 246.934 261.289 246.326 261.257C246.31 260.873 246.222 260.433 246.062 259.937C245.918 259.441 245.734 259.009 245.51 258.641C246.038 258.689 246.534 258.721 246.998 258.737C247.462 258.753 247.814 258.753 248.054 258.737C248.246 258.737 248.406 258.721 248.534 258.689C248.678 258.657 248.814 258.585 248.942 258.473C249.102 258.313 249.246 257.993 249.374 257.513C249.518 257.017 249.654 256.305 249.782 255.377C249.91 254.449 250.03 253.257 250.142 251.801V251.393ZM245.03 254.705L246.998 254.033C247.334 254.529 247.646 255.073 247.934 255.665C248.222 256.257 248.43 256.769 248.558 257.201L246.446 257.993C246.35 257.561 246.166 257.033 245.894 256.409C245.622 255.785 245.334 255.217 245.03 254.705ZM234.398 239.729L236.99 238.721C237.422 239.185 237.862 239.713 238.31 240.305C238.758 240.897 239.102 241.417 239.342 241.865L236.582 242.993C236.406 242.561 236.102 242.041 235.67 241.433C235.254 240.809 234.83 240.241 234.398 239.729ZM237.782 255.353L240.11 255.089C240.334 255.857 240.502 256.705 240.614 257.633C240.726 258.545 240.782 259.337 240.782 260.009L238.31 260.321C238.342 259.889 238.334 259.385 238.286 258.809C238.254 258.233 238.19 257.649 238.094 257.057C238.014 256.449 237.91 255.881 237.782 255.353ZM241.406 255.161L243.614 254.657C243.902 255.345 244.166 256.081 244.406 256.865C244.646 257.649 244.806 258.337 244.886 258.929L242.558 259.505C242.494 258.913 242.35 258.209 242.126 257.393C241.902 256.577 241.662 255.833 241.406 255.161ZM234.566 254.561L236.99 255.353C236.83 256.057 236.63 256.761 236.39 257.465C236.166 258.153 235.886 258.817 235.55 259.457C235.214 260.097 234.814 260.673 234.35 261.185L232.118 259.601C232.534 259.185 232.894 258.705 233.198 258.161C233.518 257.617 233.79 257.041 234.014 256.433C234.254 255.809 234.438 255.185 234.566 254.561ZM241.814 238.697L244.766 239.417C244.222 241.129 243.574 242.809 242.822 244.457C242.086 246.089 241.206 247.649 240.182 249.137C239.174 250.609 238.006 251.969 236.678 253.217C235.35 254.449 233.838 255.513 232.142 256.409C232.03 256.185 231.878 255.921 231.686 255.617C231.51 255.297 231.326 254.985 231.134 254.681C230.942 254.377 230.758 254.121 230.582 253.913C232.118 253.145 233.486 252.209 234.686 251.105C235.902 250.001 236.966 248.777 237.878 247.433C238.806 246.089 239.59 244.681 240.23 243.209C240.886 241.721 241.414 240.217 241.814 238.697ZM247.046 242.633H249.71C249.534 243.529 249.334 244.465 249.11 245.441C248.902 246.417 248.702 247.257 248.51 247.961L245.99 247.553C246.182 246.897 246.374 246.121 246.566 245.225C246.758 244.313 246.918 243.449 247.046 242.633ZM248.606 247.049H251.27C251.11 247.929 250.926 248.849 250.718 249.809C250.51 250.769 250.302 251.593 250.094 252.281L247.574 251.945C247.766 251.273 247.958 250.489 248.15 249.593C248.342 248.697 248.494 247.849 248.606 247.049Z" fill="white"/>
<path d="M79.1845 147.549H110.737V153.813H79.1845V147.549ZM83.9405 173.881H106.619V179.623H83.9405V173.881ZM83.8245 185.771H106.735V191.745H83.8245V185.771ZM85.4485 141.343H91.7705V160.715H85.4485V141.343ZM98.6145 141.343H104.937V160.715H98.6145V141.343ZM92.1765 165.297H98.0345V188.787H92.1765V165.297ZM81.2725 162.107H109.345V195.225H102.849V168.081H87.4785V195.283H81.2725V162.107ZM65.7865 162.339L70.4265 159.671C72.3212 161.527 73.8679 163.673 75.0665 166.109C76.2652 168.545 77.1352 171.097 77.6765 173.765C78.2565 176.394 78.5465 178.946 78.5465 181.421C78.5465 183.857 78.2952 186.041 77.7925 187.975C77.3285 189.908 76.6905 191.339 75.8785 192.267C74.9892 193.349 74.0225 194.123 72.9785 194.587C71.9732 195.051 70.7745 195.302 69.3825 195.341C68.7639 195.341 68.0679 195.321 67.2945 195.283C66.5212 195.283 65.7672 195.263 65.0325 195.225C64.9939 194.374 64.8585 193.388 64.6265 192.267C64.3945 191.184 64.0272 190.217 63.5245 189.367C64.3752 189.444 65.1872 189.502 65.9605 189.541C66.7725 189.579 67.4299 189.599 67.9325 189.599C68.5512 189.599 69.0925 189.521 69.5565 189.367C70.0205 189.173 70.4652 188.729 70.8905 188.033C71.3932 187.491 71.7799 186.505 72.0505 185.075C72.3212 183.644 72.4372 181.962 72.3985 180.029C72.3599 178.095 72.1085 176.065 71.6445 173.939C71.2192 171.812 70.5232 169.743 69.5565 167.733C68.6285 165.683 67.3719 163.885 65.7865 162.339ZM70.4845 165.877L74.6605 168.603C73.5005 169.801 72.0892 171.077 70.4265 172.431C68.7639 173.745 67.0239 175.002 65.2065 176.201C63.3892 177.399 61.6685 178.424 60.0445 179.275C59.6579 178.579 59.1359 177.767 58.4785 176.839C57.8212 175.872 57.2025 175.099 56.6225 174.519C58.1692 173.9 59.8125 173.127 61.5525 172.199C63.3312 171.232 65.0132 170.207 66.5985 169.125C68.1839 168.003 69.4792 166.921 70.4845 165.877ZM73.0365 173.069L77.3285 175.853C76.0139 177.515 74.3705 179.236 72.3985 181.015C70.4265 182.793 68.3385 184.456 66.1345 186.003C63.9305 187.549 61.8039 188.864 59.7545 189.947C59.4065 189.173 58.9039 188.303 58.2465 187.337C57.5892 186.37 56.9512 185.597 56.3325 185.017C58.3045 184.205 60.3539 183.161 62.4805 181.885C64.6072 180.57 66.5985 179.139 68.4545 177.593C70.3492 176.046 71.8765 174.538 73.0365 173.069ZM58.5945 154.161L63.1765 152.131C63.9499 153.136 64.6845 154.257 65.3805 155.495C66.1152 156.732 66.6372 157.815 66.9465 158.743L62.1325 161.005C61.8232 160.115 61.3205 159.013 60.6245 157.699C59.9672 156.384 59.2905 155.205 58.5945 154.161ZM67.0625 151.145L71.3545 149.115C71.9732 149.927 72.5725 150.855 73.1525 151.899C73.7325 152.904 74.1579 153.793 74.4285 154.567L69.9045 156.829C69.6725 156.055 69.2859 155.147 68.7445 154.103C68.2032 153.02 67.6425 152.034 67.0625 151.145ZM76.6325 152.189L80.6925 156.249C78.9525 158.027 76.9419 159.729 74.6605 161.353C72.4179 162.938 70.0205 164.388 67.4685 165.703C64.9552 167.017 62.4032 168.197 59.8125 169.241C59.4259 168.583 58.9039 167.81 58.2465 166.921C57.5892 165.993 56.9512 165.239 56.3325 164.659C58.8845 163.692 61.3979 162.551 63.8725 161.237C66.3859 159.883 68.7445 158.453 70.9485 156.945C73.1525 155.398 75.0472 153.813 76.6325 152.189ZM75.0085 140.705L78.7205 144.881C77.0579 145.963 75.1245 146.988 72.9205 147.955C70.7552 148.921 68.4932 149.772 66.1345 150.507C63.7759 151.203 61.4172 151.802 59.0585 152.305C58.7105 151.609 58.2272 150.797 57.6085 149.869C57.0285 148.902 56.4485 148.109 55.8685 147.491C58.1499 146.988 60.4505 146.389 62.7705 145.693C65.1292 144.997 67.3719 144.223 69.4985 143.373C71.6252 142.483 73.4619 141.594 75.0085 140.705ZM118.335 145.113H170.361V152.131H118.335V145.113ZM139.389 151.377H146.871V195.167H139.389V151.377ZM143.333 165.471L148.089 159.903C149.674 160.676 151.375 161.565 153.193 162.571C155.049 163.537 156.885 164.562 158.703 165.645C160.52 166.727 162.241 167.791 163.865 168.835C165.489 169.84 166.842 170.807 167.925 171.735L162.763 178.115C161.757 177.187 160.481 176.181 158.935 175.099C157.427 173.977 155.764 172.856 153.947 171.735C152.168 170.613 150.37 169.511 148.553 168.429C146.735 167.307 144.995 166.321 143.333 165.471ZM182.715 148.535H227.085V155.495H182.715V148.535ZM178.249 163.731H231.261V170.807H178.249V163.731ZM200.695 140.763H208.061V167.733H200.695V140.763ZM195.591 168.197L203.885 170.401C202.918 172.682 201.874 175.002 200.753 177.361C199.67 179.719 198.568 181.981 197.447 184.147C196.364 186.312 195.301 188.226 194.257 189.889L187.819 187.801C188.515 186.447 189.23 184.959 189.965 183.335C190.738 181.711 191.453 180.029 192.111 178.289C192.807 176.549 193.445 174.828 194.025 173.127C194.643 171.387 195.165 169.743 195.591 168.197ZM180.395 186.119C183.256 186.003 186.407 185.867 189.849 185.713C193.329 185.558 197.002 185.384 200.869 185.191C204.735 184.997 208.66 184.804 212.643 184.611C216.625 184.379 220.55 184.147 224.417 183.915L224.243 190.933C219.177 191.281 214.054 191.609 208.873 191.919C203.73 192.267 198.8 192.557 194.083 192.789C189.404 193.059 185.189 193.311 181.439 193.543L180.395 186.119ZM211.657 176.665L218.269 173.765C219.931 175.621 221.575 177.651 223.199 179.855C224.861 182.059 226.369 184.243 227.723 186.409C229.115 188.574 230.236 190.527 231.087 192.267L224.069 195.921C223.334 194.142 222.29 192.131 220.937 189.889C219.583 187.646 218.095 185.384 216.471 183.103C214.885 180.783 213.281 178.637 211.657 176.665ZM276.791 157.815H283.113V172.431H276.791V157.815ZM270.933 175.157H277.023V189.889C277.023 191.203 276.868 192.209 276.559 192.905C276.288 193.601 275.689 194.142 274.761 194.529C273.91 194.954 272.885 195.205 271.687 195.283C270.527 195.36 269.154 195.399 267.569 195.399C267.414 194.664 267.124 193.813 266.699 192.847C266.312 191.919 265.906 191.126 265.481 190.469C266.447 190.507 267.375 190.527 268.265 190.527C269.193 190.527 269.792 190.507 270.063 190.469C270.643 190.469 270.933 190.237 270.933 189.773V175.157ZM283.055 171.677C283.789 172.643 284.698 173.629 285.781 174.635C286.863 175.601 288.043 176.491 289.319 177.303C290.633 178.115 291.929 178.772 293.205 179.275C292.586 179.816 291.909 180.512 291.175 181.363C290.44 182.213 289.841 182.987 289.377 183.683C288.023 182.948 286.689 182.02 285.375 180.899C284.06 179.777 282.842 178.559 281.721 177.245C280.599 175.93 279.652 174.596 278.879 173.243L283.055 171.677ZM276.849 186.873L279.923 183.335C281.972 184.263 284.021 185.326 286.071 186.525C288.12 187.685 289.802 188.748 291.117 189.715L287.405 193.485C286.167 192.518 284.563 191.416 282.591 190.179C280.657 188.941 278.743 187.839 276.849 186.873ZM282.301 176.723L286.245 179.159C285.51 180.048 284.756 180.879 283.983 181.653C283.209 182.387 282.513 183.025 281.895 183.567L278.415 181.247C278.995 180.667 279.671 179.932 280.445 179.043C281.218 178.153 281.837 177.38 282.301 176.723ZM257.419 161.469H290.189V166.225H257.419V161.469ZM255.679 168.893H292.161V173.707H255.679V168.893ZM264.263 157.815H270.527V172.431H264.263V157.815ZM255.737 188.671C257.438 188.091 259.429 187.337 261.711 186.409C264.031 185.481 266.389 184.533 268.787 183.567L269.889 187.743C267.801 188.709 265.713 189.676 263.625 190.643C261.575 191.648 259.623 192.576 257.767 193.427L255.737 188.671ZM265.307 171.677L269.947 173.533C269.057 174.809 267.975 176.104 266.699 177.419C265.423 178.733 264.031 179.951 262.523 181.073C261.053 182.155 259.584 183.064 258.115 183.799C257.689 183.103 257.09 182.31 256.317 181.421C255.543 180.531 254.828 179.835 254.171 179.333C255.563 178.791 256.955 178.115 258.347 177.303C259.777 176.491 261.092 175.601 262.291 174.635C263.528 173.629 264.533 172.643 265.307 171.677ZM261.943 179.797L265.945 177.187C266.641 177.767 267.337 178.463 268.033 179.275C268.729 180.048 269.251 180.763 269.599 181.421L265.423 184.321C265.113 183.663 264.63 182.909 263.973 182.059C263.315 181.208 262.639 180.454 261.943 179.797ZM264.959 152.653V154.857H282.649V152.653H264.959ZM264.959 146.505V148.651H282.649V146.505H264.959ZM258.927 142.213H288.913V159.091H258.927V142.213ZM245.181 141.459H251.155V161.585C251.155 165.49 250.961 169.434 250.575 173.417C250.227 177.399 249.415 181.247 248.139 184.959C246.863 188.671 244.891 192.112 242.223 195.283C241.875 194.819 241.43 194.277 240.889 193.659C240.386 193.079 239.845 192.499 239.265 191.919C238.685 191.339 238.163 190.894 237.699 190.585C239.941 187.839 241.585 184.862 242.629 181.653C243.673 178.443 244.349 175.118 244.659 171.677C245.007 168.235 245.181 164.852 245.181 161.527V141.459ZM239.903 153.117L244.485 153.697C244.523 155.669 244.446 157.66 244.253 159.671C244.098 161.643 243.808 163.557 243.383 165.413C242.957 167.23 242.358 168.815 241.585 170.169L237.293 167.501C237.95 166.418 238.453 165.084 238.801 163.499C239.187 161.913 239.458 160.212 239.613 158.395C239.806 156.577 239.903 154.818 239.903 153.117ZM253.591 150.333L259.101 152.363C258.25 154.451 257.419 156.616 256.607 158.859C255.795 161.063 255.021 162.938 254.287 164.485L250.401 162.803C250.787 161.681 251.174 160.386 251.561 158.917C251.986 157.447 252.373 155.959 252.721 154.451C253.107 152.943 253.397 151.57 253.591 150.333ZM250.169 172.779C250.517 173.165 251.039 173.842 251.735 174.809C252.469 175.775 253.243 176.839 254.055 177.999C254.905 179.12 255.659 180.164 256.317 181.131C257.013 182.097 257.515 182.793 257.825 183.219L253.243 187.859C252.856 187.008 252.334 186.041 251.677 184.959C251.058 183.876 250.401 182.755 249.705 181.595C249.009 180.435 248.332 179.352 247.675 178.347C247.017 177.303 246.457 176.452 245.993 175.795L250.169 172.779ZM299.179 162.571H351.437V169.589H299.179V162.571ZM321.509 140.879H328.991V195.341H321.509V140.879ZM341.751 143.373L349.523 146.389C348.517 148.09 347.473 149.811 346.391 151.551C345.308 153.252 344.225 154.876 343.143 156.423C342.06 157.969 341.035 159.342 340.069 160.541L333.979 157.815C334.907 156.539 335.854 155.069 336.821 153.407C337.787 151.705 338.696 149.985 339.547 148.245C340.436 146.505 341.171 144.881 341.751 143.373ZM301.905 146.389L308.227 143.663C309.309 144.977 310.353 146.427 311.359 148.013C312.403 149.598 313.331 151.164 314.143 152.711C314.993 154.257 315.612 155.669 315.999 156.945L309.097 160.019C308.749 158.781 308.207 157.389 307.473 155.843C306.738 154.257 305.868 152.653 304.863 151.029C303.896 149.366 302.91 147.819 301.905 146.389ZM318.783 166.225L324.873 168.545C323.597 171.019 322.127 173.455 320.465 175.853C318.802 178.211 317.004 180.473 315.071 182.639C313.176 184.804 311.185 186.795 309.097 188.613C307.047 190.43 304.959 192.035 302.833 193.427C302.446 192.847 301.943 192.189 301.325 191.455C300.706 190.72 300.068 190.005 299.411 189.309C298.792 188.613 298.212 188.033 297.671 187.569C299.72 186.409 301.75 185.036 303.761 183.451C305.81 181.865 307.763 180.145 309.619 178.289C311.513 176.394 313.234 174.422 314.781 172.373C316.366 170.323 317.7 168.274 318.783 166.225ZM331.427 165.761C332.548 167.81 333.901 169.859 335.487 171.909C337.111 173.919 338.889 175.872 340.823 177.767C342.756 179.661 344.767 181.421 346.855 183.045C348.943 184.63 351.011 185.983 353.061 187.105C352.481 187.569 351.862 188.168 351.205 188.903C350.547 189.599 349.909 190.314 349.291 191.049C348.672 191.822 348.15 192.537 347.725 193.195C345.637 191.764 343.549 190.121 341.461 188.265C339.373 186.409 337.343 184.398 335.371 182.233C333.437 180.067 331.62 177.805 329.919 175.447C328.256 173.049 326.748 170.633 325.395 168.197L331.427 165.761ZM372.665 157.177L379.567 159.323C378.252 162.029 376.705 164.659 374.927 167.211C373.148 169.763 371.253 172.141 369.243 174.345C367.271 176.549 365.279 178.463 363.269 180.087C362.843 179.623 362.283 179.081 361.587 178.463C360.891 177.844 360.175 177.245 359.441 176.665C358.706 176.046 358.068 175.543 357.527 175.157C359.537 173.765 361.49 172.121 363.385 170.227C365.279 168.332 367.019 166.263 368.605 164.021C370.19 161.778 371.543 159.497 372.665 157.177ZM386.005 158.221H392.849V185.075C392.849 186.351 393.023 187.163 393.371 187.511C393.719 187.859 394.531 188.033 395.807 188.033C396.116 188.033 396.619 188.033 397.315 188.033C398.011 188.033 398.765 188.033 399.577 188.033C400.389 188.033 401.143 188.033 401.839 188.033C402.573 188.033 403.095 188.033 403.405 188.033C404.217 188.033 404.835 187.82 405.261 187.395C405.686 186.931 405.976 186.099 406.131 184.901C406.324 183.663 406.479 181.846 406.595 179.449C407.136 179.835 407.774 180.222 408.509 180.609C409.243 180.957 409.997 181.266 410.771 181.537C411.583 181.807 412.298 182.039 412.917 182.233C412.646 185.326 412.201 187.781 411.583 189.599C411.003 191.377 410.113 192.634 408.915 193.369C407.716 194.103 406.092 194.471 404.043 194.471C403.733 194.471 403.269 194.471 402.651 194.471C402.032 194.471 401.336 194.471 400.563 194.471C399.828 194.471 399.074 194.471 398.301 194.471C397.566 194.471 396.889 194.471 396.271 194.471C395.691 194.471 395.246 194.471 394.937 194.471C392.578 194.471 390.741 194.2 389.427 193.659C388.151 193.117 387.261 192.151 386.759 190.759C386.256 189.405 386.005 187.511 386.005 185.075V158.221ZM405.551 162.223L410.829 167.501C408.895 168.699 406.807 169.859 404.565 170.981C402.322 172.063 400.041 173.107 397.721 174.113C395.401 175.079 393.139 175.988 390.935 176.839C390.703 176.104 390.355 175.234 389.891 174.229C389.427 173.223 388.963 172.373 388.499 171.677C390.587 170.826 392.655 169.879 394.705 168.835C396.793 167.752 398.765 166.65 400.621 165.529C402.515 164.369 404.159 163.267 405.551 162.223ZM359.789 145.751H411.409V152.421H359.789V145.751ZM372.665 140.821H379.567V157.815H372.665V140.821ZM391.863 140.821H398.765V157.931H391.863V140.821ZM368.373 169.357L375.275 162.513V162.571V195.341H368.373V169.357Z" fill="white"/>
<circle cx="99.9985" cy="65.167" r="56" fill="#FF9C1E"/>
<path d="M100.097 28.4454C104.075 28.4454 107.874 29.0964 111.497 30.3985C115.119 31.6769 118.35 33.7248 121.191 36.542C124.032 39.3356 126.269 43.0169 127.903 47.586C129.536 52.1552 130.353 57.7304 130.353 64.3119C130.377 70.3725 129.667 75.8057 128.222 80.6116C126.778 85.3938 124.707 89.4658 122.008 92.8275C119.333 96.1892 116.113 98.7579 112.349 100.533C108.585 102.285 104.382 103.161 99.7423 103.161C94.6287 103.161 90.1187 102.179 86.2125 100.214C82.3299 98.2252 79.2168 95.55 76.873 92.1883C74.5529 88.8266 73.168 85.0624 72.7182 80.8957H90.0122C90.5567 83.3105 91.7049 85.1334 93.4568 86.3644C95.2087 87.5718 97.3039 88.1755 99.7423 88.1755C104.193 88.1755 107.519 86.2461 109.721 82.3872C111.923 78.5283 113.024 73.2844 113.024 66.6556H112.597C111.579 68.8337 110.135 70.7039 108.265 72.2664C106.418 73.8289 104.276 75.0245 101.837 75.8531C99.399 76.6817 96.8304 77.096 94.1315 77.096C89.7755 77.096 85.9284 76.1016 82.5903 74.113C79.2759 72.1244 76.6718 69.39 74.7778 65.9099C72.9076 62.4298 71.9606 58.4525 71.9369 53.9781C71.9132 48.9591 73.0851 44.532 75.4525 40.6968C77.82 36.8379 81.1225 33.8313 85.3602 31.6769C89.5979 29.4989 94.5103 28.4217 100.097 28.4454ZM100.204 41.9397C98.0259 41.9397 96.0847 42.4487 94.3801 43.4667C92.6992 44.4847 91.3735 45.8578 90.4028 47.586C89.4322 49.3142 88.9587 51.2555 88.9824 53.4099C89.0061 55.5642 89.4914 57.5055 90.4383 59.2338C91.409 60.962 92.7229 62.3351 94.3801 63.3531C96.061 64.3711 97.9786 64.8801 100.133 64.8801C101.743 64.8801 103.234 64.5841 104.607 63.9923C105.98 63.4004 107.176 62.5837 108.194 61.542C109.212 60.4767 110.005 59.2456 110.573 57.8488C111.165 56.452 111.449 54.9606 111.426 53.3744C111.402 51.2674 110.905 49.3498 109.934 47.6215C108.963 45.8933 107.626 44.5202 105.921 43.5022C104.24 42.4606 102.335 41.9397 100.204 41.9397Z" fill="white"/>
</svg>
