<svg width="546" height="370" viewBox="0 0 546 370" fill="none" xmlns="http://www.w3.org/2000/svg">
<circle cx="435.5" cy="156.5" r="31.5" fill="#6EE292"/>
<path d="M92.3784 174.69C82.7596 174.69 74.167 173.161 66.6007 170.102C59.0747 167.003 53.1585 162.818 48.8522 157.545C44.5861 152.233 42.453 146.236 42.453 139.555C42.453 134.444 43.6805 129.755 46.1355 125.489C48.5906 121.223 51.9109 117.682 56.0965 114.864C60.3223 112.007 65.0311 110.176 70.2229 109.371V108.405C63.4213 107.157 57.8472 103.998 53.5006 98.9268C49.1943 93.8558 47.0411 87.9195 47.0411 81.1179C47.0411 74.6785 48.993 68.9434 52.8969 63.9126C56.841 58.8819 62.2139 54.9176 69.0155 52.0199C75.8574 49.1222 83.645 47.6733 92.3784 47.6733C101.112 47.6733 108.879 49.1222 115.681 52.0199C122.523 54.9176 127.896 58.8819 131.8 63.9126C135.744 68.9434 137.716 74.6785 137.716 81.1179C137.716 87.9597 135.522 93.9162 131.136 98.9872C126.789 104.018 121.255 107.157 114.534 108.405V109.371C119.685 110.176 124.354 112.007 128.54 114.864C132.766 117.682 136.106 121.223 138.561 125.489C141.056 129.755 142.304 134.444 142.304 139.555C142.304 146.236 140.151 152.233 135.844 157.545C131.538 162.818 125.622 167.003 118.096 170.102C110.61 173.161 102.038 174.69 92.3784 174.69ZM92.3784 153.501C96.0408 153.501 99.2605 152.817 102.038 151.448C104.815 150.04 106.988 148.088 108.557 145.592C110.167 143.097 110.972 140.28 110.972 137.141C110.972 133.921 110.167 131.063 108.557 128.568C106.948 126.073 104.734 124.121 101.917 122.712C99.1398 121.263 95.9604 120.539 92.3784 120.539C88.8368 120.539 85.6573 121.263 82.8401 122.712C80.0229 124.121 77.8093 126.073 76.1995 128.568C74.5896 131.063 73.7847 133.921 73.7847 137.141C73.7847 140.28 74.5695 143.097 76.1391 145.592C77.7489 148.047 79.9424 149.979 82.7194 151.388C85.5366 152.796 88.7563 153.501 92.3784 153.501ZM92.3784 99.4702C95.5176 99.4702 98.2946 98.8262 100.709 97.5383C103.164 96.2505 105.076 94.4595 106.444 92.1655C107.853 89.8714 108.557 87.2756 108.557 84.3778C108.557 81.4801 107.853 78.9245 106.444 76.7109C105.076 74.4974 103.185 72.7668 100.77 71.5192C98.355 70.2313 95.5579 69.5874 92.3784 69.5874C89.2392 69.5874 86.4421 70.2313 83.9871 71.5192C81.5321 72.7668 79.6204 74.4974 78.252 76.7109C76.8836 78.9245 76.1995 81.4801 76.1995 84.3778C76.1995 87.2756 76.8836 89.8714 78.252 92.1655C79.6606 94.4193 81.5925 96.2102 84.0475 97.5383C86.5025 98.8262 89.2795 99.4702 92.3784 99.4702Z" fill="white"/>
<line x1="47.647" y1="218.344" x2="517.647" y2="218.344" stroke="white"/>
<path d="M185.032 84.824H194.284V89H185.032V84.824ZM164.764 64.88H177.976V69.128H164.764V64.88ZM183.124 62.54H196.228V91.232H191.872V66.716H187.264V91.52H183.124V62.54ZM176.896 64.88H181.072C181.072 64.88 181.072 66.32 181.072 66.86C180.748 82.268 180.496 87.812 179.344 89.504C178.516 90.692 177.76 91.124 176.572 91.34C175.492 91.592 173.872 91.592 172.216 91.52C172.144 90.26 171.676 88.388 170.956 87.164C172.396 87.308 173.692 87.308 174.376 87.308C174.916 87.344 175.24 87.164 175.6 86.66C176.356 85.58 176.644 80.396 176.896 65.852V64.88ZM169.048 58.94H173.296C173.26 73.124 173.116 85.076 166.888 92.24C166.204 91.196 164.764 89.756 163.684 89.072C169.3 82.736 169.012 72.116 169.048 58.94ZM208.684 60.452H218.872V64.844H208.684V60.452ZM216.748 60.452H221.212C221.212 67.292 222.184 80.54 235.54 88.352C234.532 89.144 232.804 91.052 232.048 92.132C218.332 83.888 216.748 67.796 216.748 60.452ZM215.2 68.336L220.168 69.236C217.648 79.928 212.86 87.668 205.336 92.204C204.544 91.268 202.528 89.468 201.412 88.676C208.936 84.86 213.256 77.876 215.2 68.336ZM239.824 72.728H272.08V77.012H239.824V72.728ZM242.524 63.836H269.452V68.12H242.524V63.836ZM253.54 58.436H258.112V92.24H253.54V58.436ZM252.784 75.212L256.528 76.76C253.072 82.484 247.456 87.704 241.768 90.656C241.048 89.576 239.608 87.848 238.6 86.948C244.144 84.536 249.832 79.856 252.784 75.212ZM258.904 75.248C261.82 79.892 267.508 84.572 273.016 86.948C272.008 87.812 270.568 89.576 269.848 90.728C264.268 87.776 258.76 82.448 255.304 76.76L258.904 75.248ZM277.768 62.936H309.088V67.148H277.768V62.936ZM290.908 58.436H295.444V92.24H290.908V58.436ZM291.412 74.708L295.012 76.076C291.484 82.448 285.688 87.956 279.28 90.908C278.596 89.828 277.192 88.064 276.22 87.2C282.448 84.788 288.388 79.892 291.412 74.708ZM295.264 74.996C298.288 79.964 304.192 84.644 310.384 86.912C309.304 87.848 307.9 89.648 307.18 90.872C300.916 87.992 295.228 82.556 291.7 76.4L295.264 74.996ZM282.124 73.412L284.86 70.676C286.48 72.044 288.82 74.024 289.972 75.248L287.128 78.272C286.048 76.976 283.78 74.888 282.124 73.412ZM283.564 67.364L287.776 68.156C286.444 73.412 283.888 77.912 280.54 80.72C279.82 79.928 278.164 78.524 277.192 77.876C280.36 75.572 282.556 71.756 283.564 67.364ZM299.332 73.556L302.14 70.964C304.372 72.656 307.792 75.212 309.448 76.76L306.46 79.748C304.948 78.128 301.636 75.464 299.332 73.556ZM300.556 67.364L304.732 68.12C303.76 72.44 301.78 76.256 299.368 78.668C298.54 77.984 296.704 76.868 295.696 76.4C298.108 74.348 299.8 71 300.556 67.364ZM314.524 61.784H329.932V65.348H314.524V61.784ZM313.912 70.244H330.22V73.844H313.912V70.244ZM320.14 58.616H324.28V64.232H320.14V58.616ZM320.284 73.736H324.424V92.204H320.284V73.736ZM320.248 78.2L323.236 79.928C321.724 83.816 318.7 88.028 315.748 90.44C315.208 89.432 314.2 87.956 313.336 87.164C316.108 85.328 318.916 81.692 320.248 78.2ZM323.92 80C325.144 80.828 329.104 84.176 330.04 85.004L327.376 88.136C326.116 86.444 323.128 83.24 321.616 81.8L323.92 80ZM316.36 65.78L319.672 65.06C320.32 66.5 320.86 68.48 320.968 69.812L317.512 70.64C317.44 69.344 316.972 67.292 316.36 65.78ZM324.496 64.952L328.348 65.708C327.7 67.472 327.124 69.272 326.62 70.496L323.344 69.776C323.74 68.408 324.28 66.392 324.496 64.952ZM335.044 69.344V71.576H341.956V69.344H335.044ZM335.044 74.96V77.228H341.956V74.96H335.044ZM335.044 63.764V65.996H341.956V63.764H335.044ZM331.192 60.02H345.988V80.972H331.192V60.02ZM338.716 79.856H342.604V86.912C342.604 87.848 342.676 87.956 343.108 87.956C343.252 87.956 343.828 87.956 344.044 87.956C344.548 87.956 344.656 87.524 344.728 83.636C345.484 84.284 347.176 84.932 348.22 85.184C347.896 90.368 346.888 91.664 344.512 91.664C343.9 91.664 342.964 91.664 342.388 91.664C339.328 91.664 338.716 90.44 338.716 86.984V79.856ZM333.136 80.036H337.024C336.628 85.832 335.44 89.936 329.464 92.312C329.068 91.376 327.988 89.9 327.16 89.18C332.092 87.416 332.812 84.428 333.136 80.036ZM314.2 76.544H329.86V80.144H314.2V76.544ZM351.568 74.204H384.832V78.524H351.568V74.204ZM365.968 68.48H370.504V87.236C370.504 89.684 369.928 90.872 368.2 91.556C366.472 92.24 363.952 92.384 360.676 92.348C360.388 91.052 359.524 89.072 358.804 87.884C361.324 87.992 364.096 87.992 364.924 87.992C365.716 87.956 365.968 87.776 365.968 87.164V68.48ZM355.348 60.632H378.028V64.916H355.348V60.632ZM376.624 60.632H377.776L378.748 60.416L382.06 62.9C378.676 66.392 373.708 70.208 369.28 72.548C368.632 71.612 367.3 70.172 366.472 69.416C370.288 67.472 374.788 63.98 376.624 61.64V60.632ZM166.303 167V123.364H176.849V158.435H195.003V167H166.303ZM213.41 123.364V167H202.863V123.364H213.41ZM259.568 123.364V167H250.62L233.255 141.815H232.978V167H222.431V123.364H231.507L248.681 148.506H249.043V123.364H259.568ZM268.6 167V123.364H299.026V131.929H279.147V140.878H297.471V149.464H279.147V158.435H299.026V167H268.6ZM331.849 119.06H356.209V125.72H331.849V119.06ZM329.809 139.94H362.929V146.72H329.809V139.94ZM342.469 132.92H349.729V164.42C349.729 168.02 349.009 169.94 346.669 171.08C344.269 172.16 340.969 172.4 336.529 172.34C336.169 170.36 334.969 167.24 334.009 165.32C337.069 165.44 340.189 165.5 341.209 165.44C342.169 165.38 342.469 165.14 342.469 164.3V132.92ZM353.629 119.06H355.369L356.869 118.7L361.549 122.24C358.009 127.46 352.909 133.82 348.229 137.78C347.269 136.52 345.289 134.54 344.149 133.58C347.689 130.16 351.829 124.22 353.629 120.62V119.06ZM306.949 128H326.329V134.66H306.949V128ZM314.989 116.06L321.769 116.78C319.489 129.56 316.009 145.64 313.189 156.44L307.309 153.32C309.889 143.84 313.129 128 314.989 116.06ZM310.429 152.3L314.389 147.26C320.629 151.16 328.549 156.98 332.029 161.48L327.709 167.3C324.349 162.74 316.729 156.44 310.429 152.3ZM323.869 128H325.009L326.269 127.82L330.529 128.54C329.149 151.94 323.329 165.2 311.449 172.58C310.489 170.84 308.569 168.26 307.129 166.88C317.329 161.54 322.669 148.28 323.869 129.32V128ZM392.209 141.8C397.249 154.4 407.989 162.62 424.909 165.62C423.289 167.12 421.249 170.24 420.229 172.22C402.589 168.32 392.149 158.9 385.909 143.66L392.209 141.8ZM410.569 138.2H411.949L413.269 137.9L418.189 140C413.389 157.94 401.509 167.42 385.909 172.34C385.009 170.48 383.269 167.72 381.829 166.22C395.749 162.62 406.849 153.62 410.569 139.46V138.2ZM370.909 125H423.289V131.96H370.909V125ZM387.889 138.2H411.289V145.16H385.849L387.889 138.2ZM385.909 116.06H393.409C392.929 125.48 392.029 154.52 374.749 170.24C373.249 168.32 370.969 166.52 368.509 165.08C385.669 151.1 385.549 123.38 385.909 116.06Z" fill="white"/>
<circle cx="302.641" cy="214.9" r="26.8475" fill="white"/>
<path d="M302.968 212.176V214.228H314.056V212.176H302.968ZM302.968 207.424V209.44H314.056V207.424H302.968ZM299.224 204.436H317.908V217.216H299.224V204.436ZM300.736 218.8H316.648V232.588H312.544V221.968H304.624V232.588H300.736V218.8ZM312.904 198.748L317.188 200.008C316.108 201.952 314.956 203.824 314.056 205.12L310.456 203.932C311.32 202.492 312.364 200.332 312.904 198.748ZM300.304 200.224L303.904 198.856C304.912 200.368 306.028 202.42 306.424 203.788L302.644 205.336C302.248 203.968 301.276 201.808 300.304 200.224ZM303.076 223.696H314.272V226.72H303.076V223.696ZM303.076 228.484H314.272V231.58H303.076V228.484ZM306.424 205.912H310.276V215.416H306.424V205.912ZM288.532 223.696L292.312 224.596C291.376 227.62 289.72 230.716 288.028 232.66C287.272 232.084 285.688 231.04 284.788 230.536C286.444 228.844 287.848 226.252 288.532 223.696ZM292.78 224.992L295.948 223.624C297.172 225.46 298.504 227.908 299.08 229.492L295.768 231.076C295.228 229.456 293.932 226.9 292.78 224.992ZM290.476 210.088V213.436H294.04V210.088H290.476ZM290.476 216.604V220.024H294.04V216.604H290.476ZM290.476 203.572V206.884H294.04V203.572H290.476ZM286.804 200.116H297.82V223.444H286.804V200.116Z" fill="#39BF63"/>
<path d="M63.5883 340.58H71.8683V342.932H63.5883V340.58ZM59.4603 354.476C61.6443 354.164 65.0043 353.564 68.2203 352.988L68.4363 355.484C65.6523 356.132 62.7003 356.78 60.4203 357.284L59.4603 354.476ZM61.9563 336.188H64.7643V355.148H61.9563V336.188ZM63.5883 336.188H73.1643V347.396H63.5883V344.924H70.3323V338.66H63.5883V336.188ZM68.6043 345.764C69.4683 350.036 71.3163 353.588 74.8443 355.148C74.2203 355.7 73.3803 356.828 72.9723 357.572C69.1083 355.532 67.2363 351.452 66.2043 346.148L68.6043 345.764ZM72.0603 347.564L74.3163 349.148C72.9963 350.396 71.4603 351.74 70.2603 352.604L68.4603 351.212C69.6123 350.276 71.1723 348.764 72.0603 347.564ZM53.2203 336.14H59.2203V338.708H55.9083V357.668H53.2203V336.14ZM58.4283 336.14H58.9323L59.3403 336.044L61.2843 337.172C60.6363 339.26 59.7723 341.924 59.0283 343.796C60.6123 345.668 60.9243 347.324 60.9243 348.716C60.9243 350.324 60.5643 351.332 59.7723 351.884C59.3883 352.172 58.9083 352.34 58.3563 352.412C57.9003 352.484 57.2763 352.484 56.7003 352.46C56.6763 351.74 56.4603 350.612 56.0523 349.892C56.5083 349.94 56.8443 349.94 57.1563 349.94C57.4203 349.916 57.6603 349.868 57.8763 349.724C58.1883 349.508 58.3083 349.028 58.3083 348.356C58.3083 347.228 57.9483 345.74 56.5323 344.108C57.2283 341.948 58.0443 338.54 58.4283 337.004V336.14ZM83.3403 339.5V340.316H93.3243V339.5H83.3403ZM83.3403 337.316V338.108H93.3243V337.316H83.3403ZM80.5563 335.852H96.2283V341.78H80.5563V335.852ZM82.8363 349.076V349.94H93.9723V349.076H82.8363ZM82.8363 346.82V347.66H93.9723V346.82H82.8363ZM80.1243 345.284H96.8043V351.452H80.1243V345.284ZM86.9883 345.788H89.7963V356.084H86.9883V345.788ZM77.5083 342.524H99.3723V344.564H77.5083V342.524ZM79.6443 352.244H97.2603V354.092H79.6443V352.244ZM77.4603 354.956H99.4203V357.068H77.4603V354.956ZM115.473 355.722C114.201 355.722 113.07 355.492 112.081 355.032C111.093 354.572 110.311 353.938 109.737 353.131C109.169 352.325 108.874 351.398 108.851 350.353H112.942C112.976 350.995 113.237 351.512 113.726 351.904C114.215 352.29 114.797 352.484 115.473 352.484C116.002 352.484 116.47 352.367 116.88 352.134C117.289 351.901 117.61 351.575 117.843 351.154C118.076 350.728 118.189 350.239 118.183 349.688C118.189 349.126 118.073 348.634 117.834 348.214C117.601 347.793 117.277 347.467 116.862 347.234C116.453 346.995 115.982 346.876 115.448 346.876C114.942 346.87 114.462 346.981 114.007 347.208C113.558 347.435 113.218 347.745 112.985 348.137L109.26 347.438L110.019 338.029H121.218V341.43H113.487L113.087 345.546H113.189C113.479 345.063 113.945 344.665 114.587 344.353C115.235 344.035 115.97 343.876 116.794 343.876C117.84 343.876 118.772 344.12 119.59 344.609C120.414 345.092 121.061 345.762 121.533 346.62C122.01 347.478 122.249 348.461 122.249 349.569C122.249 350.768 121.965 351.83 121.397 352.756C120.834 353.683 120.044 354.41 119.027 354.938C118.016 355.461 116.831 355.722 115.473 355.722ZM132.744 355.91C131.221 355.91 129.908 355.549 128.806 354.827C127.704 354.1 126.854 353.058 126.258 351.7C125.661 350.336 125.366 348.697 125.371 346.782C125.377 344.867 125.675 343.242 126.266 341.907C126.863 340.566 127.71 339.546 128.806 338.847C129.908 338.143 131.221 337.79 132.744 337.79C134.266 337.79 135.579 338.143 136.681 338.847C137.789 339.546 138.641 340.566 139.238 341.907C139.835 343.248 140.13 344.873 140.124 346.782C140.124 348.702 139.826 350.344 139.229 351.708C138.633 353.072 137.783 354.114 136.681 354.836C135.585 355.552 134.272 355.91 132.744 355.91ZM132.744 352.458C133.653 352.458 134.389 351.995 134.951 351.069C135.514 350.137 135.792 348.708 135.786 346.782C135.786 345.521 135.658 344.481 135.403 343.663C135.147 342.839 134.792 342.225 134.337 341.822C133.883 341.418 133.352 341.217 132.744 341.217C131.84 341.217 131.11 341.674 130.553 342.589C129.996 343.498 129.715 344.896 129.71 346.782C129.704 348.06 129.826 349.12 130.076 349.961C130.332 350.802 130.69 351.43 131.15 351.844C131.61 352.254 132.141 352.458 132.744 352.458ZM150.719 355.91C149.197 355.91 147.884 355.549 146.782 354.827C145.679 354.1 144.83 353.058 144.233 351.7C143.637 350.336 143.341 348.697 143.347 346.782C143.353 344.867 143.651 343.242 144.242 341.907C144.839 340.566 145.685 339.546 146.782 338.847C147.884 338.143 149.197 337.79 150.719 337.79C152.242 337.79 153.554 338.143 154.657 338.847C155.765 339.546 156.617 340.566 157.214 341.907C157.81 343.248 158.106 344.873 158.1 346.782C158.1 348.702 157.802 350.344 157.205 351.708C156.608 353.072 155.759 354.114 154.657 354.836C153.56 355.552 152.248 355.91 150.719 355.91ZM150.719 352.458C151.628 352.458 152.364 351.995 152.927 351.069C153.489 350.137 153.768 348.708 153.762 346.782C153.762 345.521 153.634 344.481 153.378 343.663C153.123 342.839 152.768 342.225 152.313 341.822C151.858 341.418 151.327 341.217 150.719 341.217C149.816 341.217 149.086 341.674 148.529 342.589C147.972 343.498 147.691 344.896 147.685 346.782C147.679 348.06 147.802 349.12 148.052 349.961C148.307 350.802 148.665 351.43 149.126 351.844C149.586 352.254 150.117 352.458 150.719 352.458ZM175.617 344.78H185.121V347.372H175.617V344.78ZM178.185 335.78H184.257V338.3H178.185V335.78ZM182.217 335.78H185.289C185.889 339.212 187.473 342.5 189.945 344.204C189.297 344.732 188.313 345.932 187.857 346.652C185.193 344.444 183.465 340.796 182.745 337.148H182.217V335.78ZM184.017 344.78H186.873C186.873 344.78 186.873 345.596 186.849 345.956C186.657 352.844 186.465 355.508 185.817 356.396C185.313 357.092 184.809 357.332 184.065 357.452C183.417 357.572 182.385 357.596 181.281 357.548C181.233 356.708 180.921 355.484 180.489 354.716C181.353 354.812 182.145 354.812 182.529 354.812C182.889 354.812 183.081 354.74 183.297 354.476C183.705 353.948 183.873 351.668 184.017 345.284V344.78ZM178.257 346.076H181.089C180.753 351.044 179.601 355.028 175.257 357.62C174.921 356.972 174.153 355.94 173.553 355.436C177.369 353.42 178.017 350.084 178.257 346.076ZM176.409 338.084L179.169 338.78C178.161 341.588 176.505 344.78 174.465 346.772C174.033 346.196 173.145 345.332 172.593 344.876C174.345 343.196 175.785 340.34 176.409 338.084ZM171.993 335.204L174.705 336.044C173.145 340.148 170.649 344.468 168.033 347.204C167.769 346.508 167.001 344.924 166.497 344.228C168.681 342.044 170.769 338.636 171.993 335.204ZM169.665 341.828L172.401 339.092L172.425 339.116V357.62H169.665V341.828Z" fill="white"/>
<path d="M70.2683 288.034H75.9683V316.884H70.2683V288.034ZM61.8183 274.634L68.8683 276.584C68.8183 277.084 68.4683 277.334 67.5683 277.484V288.634C67.5683 296.584 66.7683 308.984 61.0683 317.334C60.1683 316.084 57.8683 314.184 56.3683 313.584C61.3683 306.134 61.8183 295.984 61.8183 288.584V274.634ZM86.2183 281.534L90.8683 286.134C84.5683 288.834 76.0683 290.834 68.6183 292.184C68.3183 290.884 67.4183 288.734 66.7183 287.484C73.7683 286.084 81.5183 283.834 86.2183 281.534ZM85.0183 269.984L89.9183 274.734C82.9183 277.684 73.6683 280.134 65.4683 281.734C65.2183 280.334 64.2183 278.134 63.5183 276.834C71.3183 275.184 79.7683 272.584 85.0183 269.984ZM82.5183 286.384C83.6683 297.434 86.0183 307.334 92.3683 311.834C90.9683 312.984 89.0183 315.434 88.1683 317.134C81.1683 311.184 78.8183 300.234 77.5683 286.884L82.5183 286.384ZM88.5183 290.284L92.5183 294.834C89.4683 296.934 86.5683 299.334 84.1683 300.734L81.4683 297.334C83.6183 295.634 86.7683 292.534 88.5183 290.284ZM47.4183 274.684L50.7183 270.184C53.7183 271.334 57.6183 273.384 59.5683 274.984L56.0683 279.984C54.2683 278.234 50.4183 275.984 47.4183 274.684ZM44.8183 288.234L48.1183 283.684C51.0683 284.734 54.9683 286.684 56.9183 288.234L53.4183 293.234C51.6183 291.634 47.8683 289.484 44.8183 288.234ZM45.6183 312.834C47.9683 308.984 51.2683 302.634 53.8683 296.734L58.5683 300.284C56.3183 305.684 53.6183 311.534 51.0183 316.434L45.6183 312.834ZM122.768 282.734H143.918V288.284H122.768V282.734ZM97.1683 280.434H123.168V285.334H97.1683V280.434ZM99.0183 291.834H121.218V296.734H99.0183V291.834ZM99.9183 299.984H120.568V304.834H99.9183V299.984ZM133.368 270.384H139.118V310.334C139.118 313.384 138.518 314.934 136.718 315.884C134.868 316.834 132.118 317.034 128.168 317.034C127.918 315.434 126.918 312.884 126.118 311.334C128.718 311.434 131.368 311.434 132.168 311.434C133.018 311.434 133.368 311.134 133.368 310.284V270.384ZM123.718 292.784L128.668 291.084C130.568 294.634 132.268 299.184 132.618 302.234L127.318 304.134C127.018 301.134 125.468 296.434 123.718 292.784ZM97.1683 273.134L101.268 271.284C102.768 273.534 104.168 276.434 104.618 278.434L100.218 280.484C99.8183 278.484 98.5183 275.434 97.1683 273.134ZM100.768 286.384L105.368 284.784C106.568 286.684 107.668 289.184 108.018 290.884L103.118 292.684C102.868 291.034 101.868 288.334 100.768 286.384ZM104.318 270.484H109.018V282.684H104.318V270.484ZM107.418 293.284H112.968V311.484H107.418V293.284ZM111.268 270.484H116.018V282.684H111.268V270.484ZM97.3183 309.534C103.768 308.984 113.568 308.034 122.618 307.034L122.718 312.234C114.068 313.334 104.718 314.334 98.0683 315.084L97.3183 309.534ZM119.218 271.034L124.468 272.884C122.818 275.534 121.168 278.434 119.818 280.334L115.818 278.684C117.018 276.634 118.518 273.334 119.218 271.034ZM114.618 284.734L120.068 286.034C119.018 288.384 117.968 290.684 117.118 292.284L112.368 291.084C113.168 289.334 114.168 286.634 114.618 284.734ZM170.068 272.534H190.368V278.084H170.068V272.534ZM168.368 289.934H195.968V295.584H168.368V289.934ZM178.918 284.084H184.968V310.334C184.968 313.334 184.368 314.934 182.418 315.884C180.418 316.784 177.668 316.984 173.968 316.934C173.668 315.284 172.668 312.684 171.868 311.084C174.418 311.184 177.018 311.234 177.868 311.184C178.668 311.134 178.918 310.934 178.918 310.234V284.084ZM188.218 272.534H189.668L190.918 272.234L194.818 275.184C191.868 279.534 187.618 284.834 183.718 288.134C182.918 287.084 181.268 285.434 180.318 284.634C183.268 281.784 186.718 276.834 188.218 273.834V272.534ZM149.318 279.984H165.468V285.534H149.318V279.984ZM156.018 270.034L161.668 270.634C159.768 281.284 156.868 294.684 154.518 303.684L149.618 301.084C151.768 293.184 154.468 279.984 156.018 270.034ZM152.218 300.234L155.518 296.034C160.718 299.284 167.318 304.134 170.218 307.884L166.618 312.734C163.818 308.934 157.468 303.684 152.218 300.234ZM163.418 279.984H164.368L165.418 279.834L168.968 280.434C167.818 299.934 162.968 310.984 153.068 317.134C152.268 315.684 150.668 313.534 149.468 312.384C157.968 307.934 162.418 296.884 163.418 281.084V279.984ZM220.368 291.484C224.568 301.984 233.518 308.834 247.618 311.334C246.268 312.584 244.568 315.184 243.718 316.834C229.018 313.584 220.318 305.734 215.118 293.034L220.368 291.484ZM235.668 288.484H236.818L237.918 288.234L242.018 289.984C238.018 304.934 228.118 312.834 215.118 316.934C214.368 315.384 212.918 313.084 211.718 311.834C223.318 308.834 232.568 301.334 235.668 289.534V288.484ZM202.618 277.484H246.268V283.284H202.618V277.484ZM216.768 288.484H236.268V294.284H215.068L216.768 288.484ZM215.118 270.034H221.368C220.968 277.884 220.218 302.084 205.818 315.184C204.568 313.584 202.668 312.084 200.618 310.884C214.918 299.234 214.818 276.134 215.118 270.034ZM276.718 306.834L281.318 305.634C282.418 307.334 283.318 309.684 283.618 311.234L278.768 312.684C278.568 311.084 277.668 308.584 276.718 306.834ZM289.918 305.484L295.118 306.884C294.018 309.084 292.918 311.134 292.118 312.584L287.668 311.284C288.468 309.634 289.418 307.184 289.918 305.484ZM279.418 299.934V302.484H291.868V299.934H279.418ZM274.468 296.434H297.018V305.984H274.468V296.434ZM277.668 282.634V284.884H293.418V282.634H277.668ZM277.668 276.934V279.184H293.418V276.934H277.668ZM272.868 273.234H298.468V288.584H272.868V273.234ZM272.168 290.234H299.268V294.734H272.168V290.234ZM271.168 311.634H299.968V316.034H271.168V311.634ZM279.568 270.034H284.018V275.984H279.568V270.034ZM286.968 270.034H291.418V275.984H286.968V270.034ZM280.468 274.934H283.968V287.834H280.468V274.934ZM286.968 274.934H290.468V287.834H286.968V274.934ZM253.518 283.134H271.068V288.334H253.518V283.134ZM254.718 273.184H270.068V278.334H254.718V273.184ZM267.068 290.834H270.868V309.484H267.068V290.834ZM260.068 285.734H265.018V316.984H260.068V285.734ZM254.218 290.934H258.018V296.934C258.018 302.084 257.768 308.034 255.968 312.834C255.218 312.034 253.668 310.834 252.618 310.284C253.968 306.234 254.218 301.134 254.218 296.784V290.934Z" fill="white"/>
<rect x="382" y="261" width="108.599" height="81.5475" rx="25" fill="#6EE292"/>
<path d="M447.448 359L451 336.264L473.699 329.306L447.448 359Z" fill="#6EE292"/>
<circle cx="436.357" cy="300.357" r="17.3571" fill="white"/>
<path d="M434.998 304.604C434.452 300.522 439.99 299.612 439.99 297.09C439.99 295.504 438.742 294.62 436.688 294.62C435.102 294.62 433.802 295.348 432.528 296.674L430.396 294.724C432.06 292.8 434.348 291.526 437.13 291.526C440.9 291.526 443.656 293.294 443.656 296.752C443.656 300.548 437.962 301.016 438.378 304.604H434.998ZM436.714 311.546C435.362 311.546 434.4 310.584 434.4 309.232C434.4 307.88 435.388 306.944 436.714 306.944C438.014 306.944 439.002 307.88 439.002 309.232C439.002 310.584 438.014 311.546 436.714 311.546Z" fill="#6EE292"/>
</svg>
