<svg width="570" height="314" viewBox="0 0 570 314" fill="none" xmlns="http://www.w3.org/2000/svg">
<path d="M-0.000976562 31.6289H539.999C556.568 31.6289 569.999 45.0604 569.999 61.6289V314H29.999C13.4305 314 -0.000976562 300.569 -0.000976562 284V31.6289Z" fill="#39BF63"/>
<line x1="347.796" y1="220.5" x2="38.6433" y2="220.5" stroke="white"/>
<path d="M157.233 81.3857H169.937V84.0417H157.233V81.3857ZM155.793 87.3377H171.409V90.0897H155.793V87.3377ZM162.129 102.698H168.401V108.33H162.129V106.25H165.809V104.746H162.129V102.698ZM160.689 102.698H163.281V109.29H160.689V102.698ZM155.793 95.7857H171.313V98.3457H159.217V110.442H155.793V95.7857ZM169.777 95.7857H173.329V107.114C173.329 107.818 173.243 108.394 173.073 108.842C172.923 109.29 172.603 109.642 172.113 109.898C171.665 110.132 171.131 110.282 170.513 110.346C169.894 110.431 169.179 110.474 168.369 110.474C168.283 110.004 168.134 109.482 167.921 108.906C167.707 108.33 167.494 107.839 167.281 107.434C167.707 107.455 168.123 107.466 168.529 107.466C168.934 107.466 169.211 107.466 169.361 107.466C169.531 107.466 169.638 107.434 169.681 107.37C169.745 107.306 169.777 107.199 169.777 107.05V95.7857ZM163.729 88.7137H167.153V92.9377C167.153 93.6417 167.067 94.1857 166.897 94.5697C166.726 94.9537 166.385 95.2417 165.873 95.4337C165.403 95.6257 164.827 95.7431 164.145 95.7857C163.462 95.8284 162.662 95.8497 161.745 95.8497C161.659 95.4231 161.521 94.9857 161.329 94.5377C161.158 94.0684 160.977 93.6631 160.785 93.3217C161.297 93.3431 161.798 93.3537 162.289 93.3537C162.779 93.3537 163.11 93.3431 163.281 93.3217C163.579 93.3217 163.729 93.1831 163.729 92.9057V88.7137ZM161.265 97.2257H163.889C163.867 98.2711 163.75 99.1777 163.537 99.9457C163.345 100.714 162.971 101.343 162.417 101.834C161.862 102.303 161.019 102.666 159.889 102.922C159.803 102.623 159.622 102.26 159.345 101.834C159.067 101.407 158.801 101.076 158.545 100.842C159.355 100.692 159.942 100.479 160.305 100.202C160.689 99.9244 160.934 99.5511 161.041 99.0817C161.169 98.5911 161.243 97.9724 161.265 97.2257ZM165.105 97.3857H167.729V99.1777C167.729 99.4551 167.75 99.6257 167.793 99.6897C167.857 99.7537 167.995 99.7857 168.209 99.7857C168.273 99.7857 168.379 99.7857 168.529 99.7857C168.678 99.7857 168.827 99.7857 168.977 99.7857C169.147 99.7857 169.254 99.7857 169.297 99.7857C169.51 99.7857 169.649 99.7751 169.713 99.7537C169.777 99.7324 169.819 99.6791 169.841 99.5938C170.075 99.7644 170.417 99.9244 170.865 100.074C171.313 100.223 171.707 100.34 172.049 100.426C171.921 100.98 171.675 101.375 171.313 101.61C170.95 101.823 170.417 101.93 169.713 101.93C169.606 101.93 169.467 101.93 169.297 101.93C169.126 101.93 168.945 101.93 168.753 101.93C168.561 101.93 168.369 101.93 168.177 101.93C168.006 101.93 167.878 101.93 167.793 101.93C166.683 101.93 165.958 101.738 165.617 101.354C165.275 100.97 165.105 100.244 165.105 99.1777V97.3857ZM170.737 87.3377H171.281L171.793 87.1777L174.161 87.9777C173.734 88.9591 173.233 89.9511 172.657 90.9537C172.102 91.9564 171.547 92.7991 170.993 93.4817L168.337 92.3617C168.785 91.7857 169.233 91.0817 169.681 90.2497C170.129 89.3964 170.481 88.5857 170.737 87.8177V87.3377ZM159.377 86.2177L161.041 84.4577C161.958 84.6284 162.95 84.8417 164.017 85.0977C165.105 85.3324 166.15 85.5884 167.153 85.8657C168.177 86.1431 169.041 86.3991 169.745 86.6337L167.953 88.5857C167.334 88.3511 166.523 88.0951 165.521 87.8177C164.539 87.5191 163.505 87.2311 162.417 86.9537C161.329 86.6764 160.315 86.4311 159.377 86.2177ZM162.321 87.8817L164.657 89.3217C164.102 90.0684 163.377 90.8257 162.481 91.5938C161.606 92.3617 160.667 93.0657 159.665 93.7057C158.662 94.3457 157.681 94.8791 156.721 95.3057C156.507 94.9431 156.209 94.5164 155.825 94.0257C155.462 93.5351 155.099 93.1404 154.737 92.8417C155.675 92.5431 156.625 92.1377 157.585 91.6257C158.566 91.0924 159.473 90.4951 160.305 89.8337C161.158 89.1724 161.83 88.5217 162.321 87.8817ZM168.849 81.3857H169.681L170.353 81.2257L172.369 82.8257C171.43 83.7217 170.321 84.5751 169.041 85.3857C167.761 86.1964 166.459 86.8791 165.137 87.4337C164.945 87.1564 164.678 86.8364 164.337 86.4737C164.017 86.1111 163.739 85.8124 163.505 85.5777C164.187 85.3004 164.87 84.9591 165.553 84.5537C166.235 84.1271 166.865 83.6897 167.441 83.2417C168.038 82.7724 168.507 82.3457 168.849 81.9617V81.3857ZM144.625 87.0497H154.897V90.6017H144.625V87.0497ZM148.305 80.3937H151.793V110.442H148.305V80.3937ZM148.273 89.4817L150.417 90.1857C150.182 91.4444 149.905 92.7564 149.585 94.1217C149.265 95.4871 148.891 96.8311 148.465 98.1537C148.059 99.4551 147.611 100.682 147.121 101.834C146.63 102.964 146.107 103.946 145.553 104.778C145.382 104.266 145.126 103.679 144.785 103.018C144.443 102.356 144.134 101.802 143.857 101.354C144.347 100.65 144.817 99.8284 145.265 98.8897C145.713 97.9511 146.129 96.9484 146.513 95.8817C146.918 94.8151 147.27 93.7377 147.569 92.6497C147.867 91.5404 148.102 90.4844 148.273 89.4817ZM151.569 91.9457C151.761 92.1591 152.027 92.5431 152.369 93.0977C152.731 93.6311 153.115 94.2284 153.521 94.8897C153.947 95.5511 154.321 96.1484 154.641 96.6817C154.982 97.2151 155.227 97.5991 155.377 97.8337L153.489 100.554C153.318 100.084 153.083 99.5297 152.785 98.8897C152.507 98.2284 152.198 97.5457 151.857 96.8417C151.515 96.1377 151.185 95.4871 150.865 94.8897C150.566 94.2924 150.31 93.8124 150.097 93.4497L151.569 91.9457ZM183.313 96.2017H201.969V99.6577H183.313V96.2017ZM190.801 89.9937H194.641V97.9617H190.801V89.9937ZM183.121 88.5857H204.753V100.938H200.817V92.0417H183.121V88.5857ZM181.233 88.5857H185.105V104.234C185.105 104.916 185.19 105.428 185.361 105.77C185.553 106.111 185.937 106.335 186.513 106.442C187.11 106.548 187.974 106.602 189.105 106.602C189.382 106.602 189.787 106.602 190.321 106.602C190.875 106.602 191.494 106.602 192.177 106.602C192.881 106.602 193.606 106.602 194.353 106.602C195.121 106.602 195.857 106.602 196.561 106.602C197.265 106.602 197.894 106.602 198.449 106.602C199.025 106.602 199.462 106.602 199.761 106.602C200.763 106.602 201.521 106.506 202.033 106.314C202.545 106.1 202.907 105.695 203.121 105.098C203.355 104.5 203.547 103.604 203.697 102.41C204.166 102.708 204.763 102.996 205.489 103.274C206.235 103.53 206.886 103.711 207.441 103.818C207.206 105.439 206.854 106.708 206.385 107.626C205.915 108.564 205.179 109.226 204.177 109.61C203.195 109.994 201.819 110.186 200.049 110.186C199.793 110.186 199.387 110.186 198.833 110.186C198.278 110.186 197.627 110.186 196.881 110.186C196.134 110.186 195.355 110.186 194.545 110.186C193.755 110.186 192.987 110.186 192.241 110.186C191.515 110.186 190.875 110.186 190.321 110.186C189.787 110.186 189.393 110.186 189.137 110.186C187.131 110.186 185.542 110.015 184.369 109.674C183.217 109.332 182.406 108.735 181.937 107.882C181.467 107.028 181.233 105.812 181.233 104.234V88.5857ZM186.801 82.6017H196.625V85.8977H185.169L186.801 82.6017ZM186.321 80.2337L190.449 81.0657C189.638 82.4951 188.71 83.9137 187.665 85.3217C186.619 86.7297 185.446 88.0951 184.145 89.4177C182.865 90.7404 181.435 91.9884 179.857 93.1617C179.643 92.8631 179.377 92.5324 179.057 92.1697C178.737 91.8071 178.395 91.4657 178.033 91.1458C177.691 90.8257 177.371 90.5697 177.073 90.3777C178.545 89.3964 179.867 88.3297 181.041 87.1777C182.214 86.0257 183.238 84.8631 184.113 83.6897C185.009 82.4951 185.745 81.3431 186.321 80.2337ZM194.865 82.6017H195.729L196.497 82.3777L199.057 84.1057C198.587 85.0017 198.054 85.9297 197.457 86.8897C196.881 87.8497 196.262 88.7671 195.601 89.6417C194.961 90.5164 194.321 91.2844 193.681 91.9457C193.51 91.6684 193.275 91.3697 192.977 91.0497C192.678 90.7297 192.369 90.4204 192.049 90.1217C191.75 89.8231 191.483 89.5671 191.249 89.3537C191.718 88.8204 192.187 88.2017 192.657 87.4977C193.126 86.7724 193.553 86.0471 193.937 85.3217C194.342 84.5751 194.651 83.9137 194.865 83.3377V82.6017ZM215.825 99.3377H240.401V102.57H215.825V99.3377ZM214.193 93.4177H238.321V96.6497H214.193V93.4177ZM228.977 94.8897H232.785V106.538C232.785 107.455 232.667 108.17 232.433 108.682C232.219 109.194 231.793 109.578 231.153 109.834C230.534 110.132 229.787 110.314 228.913 110.378C228.059 110.463 227.057 110.495 225.905 110.474C225.798 109.962 225.606 109.364 225.329 108.682C225.073 108.02 224.817 107.444 224.561 106.954C225.329 106.975 226.086 106.996 226.833 107.018C227.579 107.018 228.081 107.018 228.337 107.018C228.571 106.996 228.731 106.954 228.817 106.89C228.923 106.804 228.977 106.666 228.977 106.474V94.8897ZM215.505 96.6817L219.217 97.0977C218.961 98.1857 218.662 99.3057 218.321 100.458C218.001 101.588 217.691 102.57 217.393 103.402L213.745 102.89C214.043 102.058 214.353 101.076 214.673 99.9457C215.014 98.7937 215.291 97.7057 215.505 96.6817ZM226.801 100.618L229.617 101.962C228.678 102.879 227.579 103.743 226.321 104.554C225.083 105.343 223.75 106.058 222.321 106.698C220.891 107.338 219.409 107.903 217.873 108.394C216.358 108.906 214.833 109.311 213.297 109.61C213.041 109.14 212.689 108.596 212.241 107.978C211.793 107.359 211.387 106.858 211.025 106.474C212.518 106.239 214.022 105.94 215.537 105.578C217.073 105.194 218.545 104.756 219.953 104.266C221.361 103.754 222.651 103.199 223.825 102.602C224.998 101.983 225.99 101.322 226.801 100.618ZM223.825 80.3617H227.793V84.9057H223.825V80.3617ZM220.497 85.5137H224.593C224.379 86.6231 224.07 87.6151 223.665 88.4897C223.259 89.3431 222.662 90.0897 221.873 90.7297C221.083 91.3697 220.017 91.9244 218.673 92.3937C217.329 92.8417 215.622 93.2151 213.553 93.5137C213.425 93.0657 213.179 92.5537 212.817 91.9777C212.475 91.4017 212.123 90.9324 211.761 90.5697C213.51 90.3991 214.918 90.1751 215.985 89.8977C217.073 89.5991 217.915 89.2471 218.513 88.8417C219.131 88.4151 219.579 87.9351 219.857 87.4017C220.134 86.8471 220.347 86.2177 220.497 85.5137ZM226.769 85.5777H230.609V88.7137C230.609 89.0977 230.662 89.3431 230.769 89.4497C230.875 89.5351 231.121 89.5777 231.505 89.5777C231.59 89.5777 231.718 89.5777 231.889 89.5777C232.081 89.5777 232.294 89.5777 232.529 89.5777C232.763 89.5777 232.977 89.5777 233.169 89.5777C233.382 89.5777 233.542 89.5777 233.649 89.5777C233.862 89.5777 234.022 89.5351 234.129 89.4497C234.235 89.3431 234.321 89.1617 234.385 88.9057C234.449 88.6284 234.491 88.2337 234.513 87.7217C234.875 87.9564 235.377 88.1911 236.017 88.4257C236.657 88.6391 237.211 88.7991 237.681 88.9057C237.51 90.3351 237.158 91.3057 236.625 91.8177C236.091 92.3084 235.249 92.5537 234.097 92.5537C233.926 92.5537 233.691 92.5537 233.393 92.5537C233.094 92.5537 232.785 92.5537 232.465 92.5537C232.145 92.5537 231.835 92.5537 231.537 92.5537C231.259 92.5537 231.035 92.5537 230.865 92.5537C229.755 92.5537 228.902 92.4364 228.305 92.2017C227.707 91.9671 227.302 91.5724 227.089 91.0177C226.875 90.4417 226.769 89.6844 226.769 88.7457V85.5777ZM211.985 82.9537H239.601V88.7137H235.665V86.1537H215.761V88.7457H211.985V82.9537ZM254.289 83.3057H273.649V86.5697H254.289V83.3057ZM257.841 80.3937H261.393V89.0337H257.841V80.3937ZM266.225 80.3937H269.873V89.1617H266.225V80.3937ZM263.633 91.4017C263.035 92.3191 262.257 93.2684 261.297 94.2497C260.358 95.2311 259.313 96.1697 258.161 97.0657C257.03 97.9404 255.835 98.6871 254.577 99.3057C254.385 98.8364 254.118 98.3031 253.777 97.7057C253.435 97.1084 253.105 96.6071 252.785 96.2017C254.022 95.6257 255.217 94.8897 256.369 93.9937C257.521 93.0977 258.566 92.1377 259.505 91.1137C260.443 90.0684 261.19 89.0551 261.745 88.0737H265.233C266.001 89.1617 266.886 90.1964 267.889 91.1777C268.891 92.1377 269.958 92.9911 271.089 93.7377C272.219 94.4844 273.35 95.0924 274.481 95.5617C274.139 95.9884 273.787 96.5217 273.425 97.1617C273.062 97.7804 272.753 98.3564 272.497 98.8897C271.409 98.3351 270.299 97.6524 269.169 96.8417C268.059 96.0311 267.014 95.1564 266.033 94.2177C265.073 93.2791 264.273 92.3404 263.633 91.4017ZM258.769 95.2737H268.753V98.2817H258.769V95.2737ZM258.161 106.314H269.329V109.322H258.161V106.314ZM256.305 100.234H271.345V110.346H267.729V103.274H259.761V110.474H256.305V100.234ZM243.697 96.0737C245.019 95.7751 246.609 95.3804 248.465 94.8897C250.342 94.3777 252.219 93.8657 254.097 93.3537L254.609 96.7457C252.881 97.3004 251.131 97.8444 249.361 98.3777C247.611 98.8897 245.99 99.3591 244.497 99.7857L243.697 96.0737ZM244.337 86.4737H254.225V89.9937H244.337V86.4737ZM248.081 80.4257H251.761V106.154C251.761 107.092 251.665 107.839 251.473 108.394C251.281 108.948 250.929 109.375 250.417 109.674C249.883 109.994 249.222 110.196 248.433 110.282C247.665 110.388 246.726 110.442 245.617 110.442C245.574 109.93 245.446 109.311 245.233 108.586C245.019 107.86 244.785 107.231 244.529 106.698C245.169 106.719 245.766 106.74 246.321 106.762C246.897 106.762 247.291 106.751 247.505 106.73C247.718 106.73 247.867 106.687 247.953 106.602C248.038 106.516 248.081 106.356 248.081 106.122V80.4257ZM294.604 92.5217H315.052V95.9777H294.604V92.5217ZM295.724 86.0577H313.964V89.4497H295.724V86.0577ZM302.476 87.7217H306.316V92.8417C306.316 93.8657 306.188 94.9324 305.932 96.0417C305.697 97.1511 305.249 98.2604 304.588 99.3698C303.948 100.458 303.02 101.514 301.804 102.538C300.609 103.54 299.062 104.458 297.164 105.29C296.993 105.012 296.758 104.703 296.46 104.362C296.161 104.02 295.852 103.679 295.532 103.338C295.212 102.996 294.902 102.719 294.604 102.506C296.417 101.844 297.846 101.108 298.892 100.298C299.958 99.4871 300.737 98.6444 301.228 97.7697C301.74 96.8951 302.07 96.0417 302.22 95.2097C302.39 94.3564 302.476 93.5564 302.476 92.8097V87.7217ZM306.892 94.9537C307.553 96.7244 308.556 98.2284 309.9 99.4657C311.265 100.682 313.014 101.556 315.148 102.09C314.87 102.346 314.572 102.666 314.252 103.05C313.953 103.434 313.665 103.828 313.388 104.234C313.132 104.618 312.908 104.98 312.716 105.322C310.369 104.554 308.47 103.348 307.02 101.706C305.569 100.063 304.449 98.0471 303.66 95.6577L306.892 94.9537ZM293.324 92.8737V104.682H289.58V96.4257H285.868V92.8737H293.324ZM293.324 103.018C293.985 104.063 294.913 104.831 296.108 105.322C297.302 105.812 298.732 106.09 300.396 106.154C301.334 106.196 302.444 106.228 303.724 106.25C305.025 106.25 306.39 106.239 307.82 106.218C309.249 106.196 310.646 106.154 312.012 106.09C313.398 106.026 314.625 105.951 315.692 105.866C315.564 106.164 315.414 106.548 315.244 107.018C315.073 107.487 314.913 107.967 314.764 108.458C314.636 108.948 314.54 109.386 314.476 109.77C313.516 109.834 312.417 109.876 311.18 109.898C309.942 109.94 308.673 109.962 307.372 109.962C306.07 109.983 304.812 109.983 303.596 109.962C302.38 109.94 301.292 109.908 300.332 109.866C298.369 109.78 296.694 109.471 295.308 108.938C293.921 108.426 292.694 107.551 291.628 106.314C290.924 106.911 290.198 107.53 289.452 108.17C288.726 108.81 287.926 109.471 287.052 110.154L285.164 106.154C285.91 105.706 286.689 105.215 287.5 104.682C288.31 104.148 289.089 103.594 289.836 103.018H293.324ZM285.9 83.4657L288.748 81.1617C289.409 81.5884 290.081 82.0897 290.764 82.6657C291.446 83.2204 292.086 83.7964 292.684 84.3937C293.281 84.9697 293.761 85.5031 294.124 85.9937L291.084 88.5537C290.764 88.0417 290.316 87.4871 289.74 86.8897C289.185 86.2924 288.566 85.6951 287.884 85.0977C287.201 84.4791 286.54 83.9351 285.9 83.4657ZM309.1 80.3937L313.004 81.6097C312.428 82.5271 311.83 83.4337 311.212 84.3297C310.614 85.2044 310.06 85.9511 309.548 86.5697L306.412 85.4817C306.732 84.9911 307.062 84.4577 307.404 83.8817C307.745 83.2844 308.065 82.6871 308.364 82.0897C308.662 81.4711 308.908 80.9057 309.1 80.3937ZM296.556 81.8017L299.788 80.4577C300.385 81.1831 300.95 82.0044 301.484 82.9217C302.017 83.8391 302.39 84.6497 302.604 85.3537L299.148 86.8257C298.977 86.1431 298.636 85.3324 298.124 84.3937C297.633 83.4337 297.11 82.5697 296.556 81.8017Z" fill="white"/>
<path d="M36.3499 243.08H57.7099V246.056H36.3499V243.08ZM48.6859 244.28C49.1659 246.104 49.8299 247.808 50.6779 249.392C51.5259 250.976 52.5739 252.36 53.8219 253.544C55.0859 254.728 56.5579 255.664 58.2379 256.352C57.9979 256.56 57.7419 256.824 57.4699 257.144C57.2139 257.464 56.9579 257.792 56.7019 258.128C56.4619 258.48 56.2619 258.792 56.1019 259.064C54.2619 258.2 52.6779 257.088 51.3499 255.728C50.0379 254.368 48.9339 252.784 48.0379 250.976C47.1419 249.152 46.3899 247.144 45.7819 244.952L48.6859 244.28ZM45.3739 236.624H48.5179C48.5019 237.84 48.4619 239.128 48.3979 240.488C48.3499 241.832 48.2299 243.2 48.0379 244.592C47.8459 245.984 47.5339 247.368 47.1019 248.744C46.6859 250.104 46.0939 251.416 45.3259 252.68C44.5739 253.928 43.5979 255.096 42.3979 256.184C41.2139 257.272 39.7659 258.232 38.0539 259.064C37.8299 258.68 37.5179 258.256 37.1179 257.792C36.7179 257.328 36.3099 256.944 35.8939 256.64C37.5259 255.904 38.8939 255.056 39.9979 254.096C41.1019 253.12 41.9979 252.072 42.6859 250.952C43.3899 249.816 43.9259 248.64 44.2939 247.424C44.6619 246.192 44.9099 244.952 45.0379 243.704C45.1819 242.456 45.2699 241.232 45.3019 240.032C45.3339 238.832 45.3579 237.696 45.3739 236.624ZM69.9499 237.176H73.2619C73.2299 237.848 73.1739 238.712 73.0939 239.768C73.0139 240.824 72.8619 242 72.6379 243.296C72.4299 244.576 72.1099 245.92 71.6779 247.328C71.2459 248.736 70.6539 250.144 69.9019 251.552C69.1659 252.944 68.2219 254.28 67.0699 255.56C65.9339 256.824 64.5499 257.952 62.9179 258.944C62.6619 258.576 62.3099 258.184 61.8619 257.768C61.4299 257.352 60.9739 256.976 60.4939 256.64C62.0939 255.744 63.4379 254.72 64.5259 253.568C65.6139 252.416 66.5019 251.208 67.1899 249.944C67.8779 248.664 68.4059 247.384 68.7739 246.104C69.1419 244.808 69.4059 243.584 69.5659 242.432C69.7259 241.28 69.8219 240.248 69.8539 239.336C69.8859 238.424 69.9179 237.704 69.9499 237.176ZM73.1419 237.824C73.1579 238.128 73.1899 238.608 73.2379 239.264C73.2859 239.92 73.3819 240.704 73.5259 241.616C73.6699 242.528 73.8859 243.52 74.1739 244.592C74.4779 245.648 74.8779 246.736 75.3739 247.856C75.8699 248.976 76.4859 250.072 77.2219 251.144C77.9579 252.216 78.8459 253.208 79.8859 254.12C80.9419 255.032 82.1739 255.824 83.5819 256.496C83.1179 256.832 82.6859 257.224 82.2859 257.672C81.9019 258.12 81.5899 258.544 81.3499 258.944C79.8779 258.208 78.5899 257.336 77.4859 256.328C76.3979 255.304 75.4619 254.2 74.6779 253.016C73.9099 251.816 73.2699 250.6 72.7579 249.368C72.2459 248.136 71.8299 246.928 71.5099 245.744C71.2059 244.544 70.9739 243.432 70.8139 242.408C70.6539 241.384 70.5419 240.496 70.4779 239.744C70.4299 238.992 70.3899 238.448 70.3579 238.112L73.1419 237.824ZM95.4379 236.936H98.5819V255.536C98.5819 256.432 98.4699 257.104 98.2459 257.552C98.0219 258 97.6379 258.344 97.0939 258.584C96.5339 258.808 95.8299 258.952 94.9819 259.016C94.1499 259.096 93.1499 259.128 91.9819 259.112C91.9339 258.84 91.8459 258.52 91.7179 258.152C91.5899 257.8 91.4459 257.44 91.2859 257.072C91.1419 256.704 90.9899 256.392 90.8299 256.136C91.3579 256.152 91.8859 256.168 92.4139 256.184C92.9419 256.2 93.4139 256.208 93.8299 256.208C94.2459 256.192 94.5419 256.184 94.7179 256.184C94.9739 256.184 95.1579 256.136 95.2699 256.04C95.3819 255.944 95.4379 255.776 95.4379 255.536V236.936ZM101.198 243.248L104.03 242.192C104.686 243.328 105.318 244.544 105.926 245.84C106.55 247.12 107.094 248.384 107.558 249.632C108.038 250.864 108.382 251.984 108.59 252.992L105.422 254.24C105.262 253.264 104.966 252.152 104.534 250.904C104.118 249.64 103.614 248.344 103.022 247.016C102.446 245.672 101.838 244.416 101.198 243.248ZM89.1499 242.456L92.4139 243.008C92.1419 244.192 91.8139 245.456 91.4299 246.8C91.0459 248.128 90.5899 249.4 90.0619 250.616C89.5499 251.816 88.9579 252.864 88.2859 253.76C88.0459 253.584 87.7499 253.4 87.3979 253.208C87.0619 253.016 86.7179 252.84 86.3659 252.68C86.0299 252.504 85.7259 252.36 85.4539 252.248C86.1099 251.432 86.6779 250.464 87.1579 249.344C87.6539 248.208 88.0699 247.04 88.4059 245.84C88.7419 244.624 88.9899 243.496 89.1499 242.456ZM110.462 247.256C111.262 247.144 112.166 247.016 113.174 246.872C114.198 246.712 115.278 246.536 116.414 246.344C117.55 246.152 118.686 245.96 119.822 245.768L119.966 248.36C118.43 248.648 116.87 248.936 115.286 249.224C113.702 249.512 112.278 249.776 111.014 250.016L110.462 247.256ZM111.278 237.944H117.998V240.608H111.278V237.944ZM113.918 243.128H116.654V255.968C116.654 256.656 116.582 257.208 116.438 257.624C116.31 258.04 116.03 258.368 115.598 258.608C115.198 258.832 114.702 258.976 114.11 259.04C113.534 259.12 112.862 259.16 112.094 259.16C112.03 258.76 111.91 258.28 111.734 257.72C111.574 257.176 111.398 256.696 111.206 256.28C111.702 256.296 112.166 256.312 112.598 256.328C113.046 256.328 113.35 256.32 113.51 256.304C113.67 256.304 113.774 256.28 113.822 256.232C113.886 256.184 113.918 256.088 113.918 255.944V243.128ZM117.446 237.944H118.142L118.718 237.776L120.686 239.12C120.318 239.84 119.886 240.584 119.39 241.352C118.894 242.12 118.374 242.848 117.83 243.536C117.302 244.224 116.774 244.832 116.246 245.36C116.118 245.168 115.942 244.96 115.718 244.736C115.51 244.496 115.286 244.264 115.046 244.04C114.822 243.816 114.614 243.632 114.422 243.488C114.822 243.056 115.222 242.544 115.622 241.952C116.022 241.36 116.382 240.76 116.702 240.152C117.022 239.544 117.27 239.008 117.446 238.544V237.944ZM119.582 239.792H132.902V242.408H119.582V239.792ZM124.79 236.6H127.622V240.968H124.79V236.6ZM124.118 241.496L126.806 242.696C126.422 243.224 126.014 243.752 125.582 244.28C125.166 244.792 124.75 245.28 124.334 245.744C123.934 246.192 123.55 246.6 123.182 246.968L120.878 245.84C121.246 245.44 121.63 244.992 122.03 244.496C122.43 244 122.814 243.488 123.182 242.96C123.55 242.432 123.862 241.944 124.118 241.496ZM119.246 246.008L120.974 244.064C121.566 244.496 122.166 244.96 122.774 245.456C123.398 245.952 123.974 246.44 124.502 246.92C125.046 247.4 125.494 247.84 125.846 248.24L123.998 250.544C123.694 250.128 123.27 249.656 122.726 249.128C122.198 248.6 121.63 248.064 121.022 247.52C120.414 246.96 119.822 246.456 119.246 246.008ZM128.534 243.536L131.126 244.592C130.278 245.952 129.286 247.2 128.15 248.336C127.014 249.472 125.766 250.496 124.406 251.408C123.062 252.32 121.638 253.104 120.134 253.76C119.942 253.44 119.678 253.08 119.342 252.68C119.006 252.264 118.678 251.912 118.358 251.624C119.75 251.08 121.094 250.408 122.39 249.608C123.686 248.792 124.862 247.872 125.918 246.848C126.974 245.824 127.846 244.72 128.534 243.536ZM130.238 248.312L132.758 249.512C131.766 250.952 130.606 252.272 129.278 253.472C127.95 254.672 126.502 255.744 124.934 256.688C123.382 257.616 121.758 258.416 120.062 259.088C119.87 258.72 119.606 258.312 119.27 257.864C118.934 257.416 118.59 257.024 118.238 256.688C119.854 256.144 121.414 255.464 122.918 254.648C124.438 253.832 125.83 252.896 127.094 251.84C128.358 250.768 129.406 249.592 130.238 248.312ZM126.278 254.672L128.51 252.824C129.07 253.224 129.654 253.68 130.262 254.192C130.886 254.704 131.47 255.216 132.014 255.728C132.574 256.24 133.022 256.712 133.358 257.144L130.958 259.208C130.654 258.776 130.238 258.296 129.71 257.768C129.182 257.24 128.614 256.704 128.006 256.16C127.414 255.616 126.838 255.12 126.278 254.672ZM136.79 239.144H145.07V241.64H136.79V239.144ZM139.646 255.536H145.694V257.84H139.646V255.536ZM139.646 251.696H145.766V253.856H139.646V251.696ZM135.734 243.608H148.022V246.104H135.734V243.608ZM139.934 236.792H142.598V245.24H139.934V236.792ZM146.246 237.68L148.838 238.4C147.622 241.552 145.982 244.328 143.918 246.728C141.87 249.112 139.486 251.032 136.766 252.488C136.67 252.28 136.518 252.032 136.31 251.744C136.118 251.44 135.918 251.136 135.71 250.832C135.502 250.528 135.302 250.28 135.11 250.088C137.702 248.872 139.95 247.208 141.854 245.096C143.758 242.968 145.222 240.496 146.246 237.68ZM140.582 247.88H145.646V250.16H140.582V259.088H137.966V249.536L139.55 247.88H140.582ZM144.47 247.88H147.206V258.752H144.47V247.88ZM148.79 237.944H155.87V240.656H151.622V259.136H148.79V237.944ZM155.198 237.944H155.75L156.182 237.848L158.27 239.144C157.838 240.296 157.366 241.512 156.854 242.792C156.342 244.056 155.846 245.224 155.366 246.296C156.054 247.016 156.574 247.704 156.926 248.36C157.278 249.016 157.51 249.648 157.622 250.256C157.75 250.848 157.814 251.4 157.814 251.912C157.814 252.808 157.71 253.56 157.502 254.168C157.294 254.76 156.95 255.216 156.47 255.536C156.022 255.856 155.454 256.064 154.766 256.16C154.494 256.192 154.166 256.216 153.782 256.232C153.414 256.232 153.046 256.224 152.678 256.208C152.662 255.808 152.59 255.344 152.462 254.816C152.334 254.272 152.158 253.808 151.934 253.424C152.238 253.44 152.518 253.456 152.774 253.472C153.03 253.472 153.254 253.472 153.446 253.472C153.638 253.456 153.822 253.432 153.998 253.4C154.174 253.368 154.326 253.312 154.454 253.232C154.678 253.104 154.83 252.904 154.91 252.632C155.006 252.36 155.054 252.016 155.054 251.6C155.054 250.944 154.878 250.192 154.526 249.344C154.19 248.496 153.534 247.6 152.558 246.656C152.798 246.064 153.038 245.416 153.278 244.712C153.534 243.992 153.782 243.28 154.022 242.576C154.278 241.856 154.502 241.176 154.694 240.536C154.902 239.896 155.07 239.36 155.198 238.928V237.944ZM164.174 236.504L167.174 237.128C166.886 237.864 166.574 238.608 166.238 239.36C165.918 240.096 165.59 240.8 165.254 241.472C164.934 242.128 164.622 242.712 164.318 243.224L161.798 242.576C162.102 242.032 162.398 241.408 162.686 240.704C162.99 240 163.27 239.28 163.526 238.544C163.798 237.808 164.014 237.128 164.174 236.504ZM160.526 241.424C161.39 241.392 162.382 241.36 163.502 241.328C164.622 241.28 165.798 241.224 167.03 241.16C168.262 241.096 169.502 241.04 170.75 240.992L170.726 243.512C169.542 243.592 168.358 243.672 167.174 243.752C165.99 243.832 164.854 243.904 163.766 243.968C162.678 244.032 161.678 244.096 160.766 244.16L160.526 241.424ZM161.966 245.288H169.574V247.64H164.63V259.136H161.966V245.288ZM168.206 245.288H171.062V256.232C171.062 256.856 170.99 257.352 170.846 257.72C170.702 258.104 170.422 258.4 170.006 258.608C169.606 258.832 169.126 258.968 168.566 259.016C168.006 259.064 167.366 259.088 166.646 259.088C166.582 258.704 166.454 258.264 166.262 257.768C166.086 257.288 165.902 256.88 165.71 256.544C166.142 256.56 166.566 256.568 166.982 256.568C167.398 256.568 167.678 256.56 167.822 256.544C167.982 256.544 168.086 256.52 168.134 256.472C168.182 256.424 168.206 256.328 168.206 256.184V245.288ZM163.166 248.912H169.838V251.048H163.166V248.912ZM163.166 252.44H169.838V254.576H163.166V252.44ZM172.958 236.696H175.814V243.92C175.814 244.336 175.878 244.6 176.006 244.712C176.134 244.824 176.422 244.88 176.87 244.88C176.966 244.88 177.134 244.88 177.374 244.88C177.614 244.88 177.87 244.88 178.142 244.88C178.43 244.88 178.694 244.88 178.934 244.88C179.19 244.88 179.382 244.88 179.51 244.88C179.782 244.88 179.982 244.824 180.11 244.712C180.238 244.584 180.334 244.344 180.398 243.992C180.462 243.624 180.51 243.088 180.542 242.384C180.734 242.544 180.982 242.696 181.286 242.84C181.59 242.968 181.902 243.088 182.222 243.2C182.542 243.312 182.83 243.4 183.086 243.464C182.99 244.504 182.822 245.312 182.582 245.888C182.358 246.464 182.022 246.872 181.574 247.112C181.126 247.336 180.526 247.448 179.774 247.448C179.662 247.448 179.494 247.448 179.27 247.448C179.046 247.448 178.79 247.448 178.502 247.448C178.23 247.448 177.958 247.448 177.686 247.448C177.43 247.448 177.19 247.448 176.966 247.448C176.758 247.448 176.598 247.448 176.486 247.448C175.542 247.448 174.814 247.344 174.302 247.136C173.79 246.912 173.438 246.552 173.246 246.056C173.054 245.544 172.958 244.84 172.958 243.944V236.696ZM180.158 238.112L181.982 240.224C181.262 240.56 180.486 240.888 179.654 241.208C178.838 241.512 178.006 241.8 177.158 242.072C176.31 242.344 175.486 242.584 174.686 242.792C174.622 242.52 174.502 242.192 174.326 241.808C174.166 241.424 174.014 241.096 173.87 240.824C174.606 240.584 175.358 240.32 176.126 240.032C176.894 239.728 177.622 239.408 178.31 239.072C179.014 238.736 179.63 238.416 180.158 238.112ZM172.958 247.928H175.814V255.488C175.814 255.92 175.878 256.192 176.006 256.304C176.15 256.416 176.454 256.472 176.918 256.472C177.014 256.472 177.182 256.472 177.422 256.472C177.662 256.472 177.926 256.472 178.214 256.472C178.518 256.472 178.798 256.472 179.054 256.472C179.326 256.472 179.518 256.472 179.63 256.472C179.918 256.472 180.134 256.4 180.278 256.256C180.422 256.112 180.526 255.832 180.59 255.416C180.67 255 180.726 254.384 180.758 253.568C181.062 253.792 181.462 254.008 181.958 254.216C182.454 254.408 182.894 254.552 183.278 254.648C183.182 255.768 183.014 256.64 182.774 257.264C182.55 257.904 182.206 258.352 181.742 258.608C181.294 258.864 180.686 258.992 179.918 258.992C179.79 258.992 179.606 258.992 179.366 258.992C179.142 258.992 178.886 258.992 178.598 258.992C178.326 258.992 178.046 258.992 177.758 258.992C177.486 258.992 177.238 258.992 177.014 258.992C176.79 258.992 176.614 258.992 176.486 258.992C175.558 258.992 174.838 258.88 174.326 258.656C173.814 258.448 173.454 258.088 173.246 257.576C173.054 257.08 172.958 256.392 172.958 255.512V247.928ZM180.326 248.912L182.222 251.024C181.502 251.424 180.71 251.8 179.846 252.152C178.982 252.488 178.11 252.808 177.23 253.112C176.35 253.416 175.486 253.688 174.638 253.928C174.574 253.656 174.454 253.32 174.278 252.92C174.118 252.52 173.958 252.184 173.798 251.912C174.582 251.656 175.374 251.36 176.174 251.024C176.974 250.688 177.734 250.344 178.454 249.992C179.174 249.624 179.798 249.264 180.326 248.912ZM167.438 239.12L169.862 238.208C170.262 238.784 170.646 239.408 171.014 240.08C171.398 240.752 171.742 241.416 172.046 242.072C172.366 242.712 172.606 243.296 172.766 243.824L170.126 244.856C169.998 244.344 169.79 243.76 169.502 243.104C169.23 242.448 168.91 241.776 168.542 241.088C168.19 240.384 167.822 239.728 167.438 239.12ZM189.206 247.856V248.72H195.494V247.856H189.206ZM189.206 245.72V246.584H195.494V245.72H189.206ZM186.95 244.376H197.846V250.064H186.95V244.376ZM198.758 236.576H201.542C201.51 238.56 201.55 240.512 201.662 242.432C201.774 244.352 201.942 246.152 202.166 247.832C202.39 249.512 202.654 250.992 202.958 252.272C203.278 253.552 203.614 254.56 203.966 255.296C204.334 256.032 204.71 256.4 205.094 256.4C205.302 256.384 205.462 256.136 205.574 255.656C205.702 255.176 205.79 254.376 205.838 253.256C206.126 253.56 206.462 253.856 206.846 254.144C207.246 254.432 207.614 254.648 207.95 254.792C207.806 255.928 207.606 256.808 207.35 257.432C207.11 258.056 206.782 258.488 206.366 258.728C205.966 258.984 205.446 259.112 204.806 259.112C204.054 259.112 203.374 258.808 202.766 258.2C202.174 257.608 201.654 256.776 201.206 255.704C200.774 254.632 200.398 253.384 200.078 251.96C199.774 250.52 199.526 248.968 199.334 247.304C199.142 245.624 198.998 243.872 198.902 242.048C198.806 240.224 198.758 238.4 198.758 236.576ZM201.902 238.472L203.846 237.008C204.39 237.392 204.942 237.848 205.502 238.376C206.062 238.888 206.486 239.368 206.774 239.816L204.71 241.4C204.438 240.968 204.03 240.48 203.486 239.936C202.958 239.376 202.43 238.888 201.902 238.472ZM192.494 256.208L194.654 255.128C195.118 255.512 195.614 255.952 196.142 256.448C196.686 256.944 197.102 257.384 197.39 257.768L195.11 258.944C194.838 258.576 194.446 258.128 193.934 257.6C193.438 257.088 192.958 256.624 192.494 256.208ZM189.398 255.128L191.822 255.944C191.31 256.552 190.67 257.152 189.902 257.744C189.134 258.352 188.414 258.856 187.742 259.256C187.598 259.096 187.398 258.912 187.142 258.704C186.902 258.512 186.654 258.312 186.398 258.104C186.142 257.912 185.918 257.76 185.726 257.648C186.414 257.328 187.086 256.944 187.742 256.496C188.414 256.048 188.966 255.592 189.398 255.128ZM185.582 241.352H207.542V243.584H185.582V241.352ZM186.974 238.28H197.846V240.44H186.974V238.28ZM185.942 253.4H198.59V255.2H185.942V253.4ZM186.542 250.856H198.254V252.536H186.542V250.856ZM191.03 236.6H193.79V243.008H191.03V236.6ZM191.198 244.808H193.454V249.416H191.198V244.808ZM189.134 249.536H191.438V254.072H189.134V249.536ZM193.262 249.536H195.59V254.072H193.262V249.536ZM204.35 244.928L207.038 245.528C206.622 247.608 206.07 249.488 205.382 251.168C204.71 252.832 203.846 254.32 202.79 255.632C201.75 256.928 200.47 258.048 198.95 258.992C198.774 258.656 198.502 258.28 198.134 257.864C197.782 257.448 197.43 257.112 197.078 256.856C198.454 256.104 199.614 255.152 200.558 254C201.518 252.848 202.302 251.512 202.91 249.992C203.534 248.472 204.014 246.784 204.35 244.928ZM214.382 260.312L213.614 258.368C214.622 258.048 215.39 257.608 215.918 257.048C216.462 256.504 216.734 255.88 216.734 255.176L216.542 252.824L217.886 254.96C217.678 255.136 217.454 255.272 217.214 255.368C216.974 255.464 216.718 255.512 216.446 255.512C215.854 255.512 215.326 255.328 214.862 254.96C214.398 254.576 214.166 254.04 214.166 253.352C214.166 252.68 214.398 252.152 214.862 251.768C215.326 251.384 215.878 251.192 216.518 251.192C217.366 251.192 218.006 251.488 218.438 252.08C218.886 252.672 219.11 253.472 219.11 254.48C219.11 255.84 218.694 257.04 217.862 258.08C217.03 259.12 215.87 259.864 214.382 260.312ZM249.974 240.992H257.966V243.656H249.974V240.992ZM250.238 236.6L252.974 236.984C252.75 238.632 252.454 240.24 252.086 241.808C251.734 243.376 251.294 244.84 250.766 246.2C250.254 247.56 249.646 248.752 248.942 249.776C248.814 249.6 248.622 249.376 248.366 249.104C248.126 248.832 247.87 248.568 247.598 248.312C247.326 248.04 247.086 247.824 246.878 247.664C247.502 246.8 248.03 245.784 248.462 244.616C248.894 243.448 249.254 242.184 249.542 240.824C249.83 239.448 250.062 238.04 250.238 236.6ZM254.102 242.552L256.79 242.744C256.518 245.4 256.078 247.768 255.47 249.848C254.862 251.928 254.006 253.744 252.902 255.296C251.798 256.848 250.366 258.168 248.606 259.256C248.526 259.048 248.39 258.792 248.198 258.488C248.022 258.2 247.83 257.904 247.622 257.6C247.414 257.312 247.222 257.072 247.046 256.88C248.63 256.016 249.902 254.912 250.862 253.568C251.838 252.208 252.574 250.608 253.07 248.768C253.566 246.928 253.91 244.856 254.102 242.552ZM251.486 243.224C251.774 245.24 252.174 247.144 252.686 248.936C253.214 250.728 253.91 252.312 254.774 253.688C255.654 255.048 256.758 256.12 258.086 256.904C257.894 257.08 257.67 257.304 257.414 257.576C257.174 257.848 256.942 258.128 256.718 258.416C256.51 258.704 256.342 258.968 256.214 259.208C254.758 258.232 253.558 256.976 252.614 255.44C251.686 253.904 250.942 252.136 250.382 250.136C249.822 248.12 249.382 245.928 249.062 243.56L251.486 243.224ZM240.71 236.6H243.158V249.44H240.71V236.6ZM239.318 239.6V243.08H244.67V239.6H239.318ZM236.942 237.8H247.166V244.904H236.942V237.8ZM238.814 247.4V248.408H245.15V247.4H238.814ZM236.462 245.672H247.646V250.136H236.462V245.672ZM235.478 251.12C236.614 251.12 237.902 251.112 239.342 251.096C240.798 251.08 242.326 251.064 243.926 251.048C245.542 251.016 247.158 250.992 248.774 250.976L248.678 253.016C247.11 253.048 245.526 253.08 243.926 253.112C242.342 253.144 240.83 253.176 239.39 253.208C237.966 253.224 236.694 253.24 235.574 253.256L235.478 251.12ZM240.134 249.632L242.51 250.16C242.158 250.8 241.782 251.472 241.382 252.176C240.998 252.88 240.606 253.552 240.206 254.192C239.822 254.832 239.462 255.408 239.126 255.92L236.822 255.344C237.158 254.848 237.518 254.272 237.902 253.616C238.302 252.96 238.694 252.288 239.078 251.6C239.478 250.896 239.83 250.24 240.134 249.632ZM238.67 255.368L240.038 253.688C240.95 254.008 241.87 254.368 242.798 254.768C243.726 255.152 244.598 255.552 245.414 255.968C246.23 256.368 246.918 256.752 247.478 257.12L245.726 258.896C245.198 258.512 244.55 258.104 243.782 257.672C243.03 257.256 242.214 256.848 241.334 256.448C240.454 256.048 239.566 255.688 238.67 255.368ZM244.214 252.128L246.638 252.392C246.302 253.816 245.742 254.976 244.958 255.872C244.19 256.768 243.158 257.472 241.862 257.984C240.566 258.512 238.958 258.936 237.038 259.256C236.974 258.872 236.838 258.472 236.63 258.056C236.438 257.656 236.246 257.32 236.054 257.048C237.67 256.904 239.022 256.656 240.11 256.304C241.214 255.952 242.094 255.44 242.75 254.768C243.422 254.096 243.91 253.216 244.214 252.128ZM235.406 240.32H237.83V240.464H246.014V240.32H248.75V242.36H246.014V242.216H237.83V242.36H235.406V240.32ZM266.558 241.016V241.832H276.542V241.016H266.558ZM266.558 238.808V239.624H276.542V238.808H266.558ZM263.798 237.344H279.446V243.296H263.798V237.344ZM266.054 250.592V251.432H277.214V250.592H266.054ZM266.054 248.312V249.152H277.214V248.312H266.054ZM263.366 246.8H280.046V252.968H263.366V246.8ZM270.23 247.304H273.014V257.6H270.23V247.304ZM260.75 244.016H282.614V246.08H260.75V244.016ZM262.862 253.76H280.502V255.584H262.862V253.76ZM260.702 256.472H282.662V258.56H260.702V256.472ZM285.926 239.504H307.334V242.216H285.926V239.504ZM292.406 248.168H302.822V250.568H292.406V248.168ZM290.27 244.112H302.39V246.632H293.102V259.136H290.27V244.112ZM301.814 244.112H304.646V256.04C304.646 256.744 304.558 257.304 304.382 257.72C304.222 258.136 303.894 258.456 303.398 258.68C302.918 258.904 302.326 259.04 301.622 259.088C300.918 259.136 300.078 259.16 299.102 259.16C299.054 258.76 298.942 258.288 298.766 257.744C298.606 257.216 298.43 256.76 298.238 256.376C298.654 256.392 299.07 256.408 299.486 256.424C299.902 256.44 300.27 256.448 300.59 256.448C300.926 256.448 301.158 256.448 301.286 256.448C301.494 256.432 301.63 256.392 301.694 256.328C301.774 256.264 301.814 256.152 301.814 255.992V244.112ZM293.366 236.6L296.342 237.272C295.782 239.064 295.078 240.848 294.23 242.624C293.398 244.384 292.39 246.024 291.206 247.544C290.038 249.064 288.67 250.368 287.102 251.456C286.958 251.248 286.766 251.008 286.526 250.736C286.302 250.448 286.07 250.176 285.83 249.92C285.606 249.648 285.398 249.424 285.206 249.248C286.262 248.544 287.222 247.712 288.086 246.752C288.966 245.792 289.742 244.752 290.414 243.632C291.102 242.496 291.686 241.336 292.166 240.152C292.662 238.952 293.062 237.768 293.366 236.6ZM292.406 252.128H302.822V254.528H292.406V252.128ZM321.71 242.072H329.966V244.424H321.71V242.072ZM317.582 255.992C318.302 255.88 319.134 255.744 320.078 255.584C321.038 255.424 322.054 255.256 323.126 255.08C324.198 254.888 325.262 254.696 326.318 254.504L326.558 257C325.166 257.32 323.766 257.632 322.358 257.936C320.95 258.256 319.67 258.536 318.518 258.776L317.582 255.992ZM320.078 237.68H322.862V256.64H320.078V237.68ZM321.71 237.68H331.286V248.912H321.71V246.44H328.43V240.152H321.71V237.68ZM326.702 247.256C327.006 248.696 327.422 250.032 327.95 251.264C328.478 252.48 329.15 253.552 329.966 254.48C330.782 255.408 331.782 256.128 332.966 256.64C332.758 256.832 332.534 257.064 332.294 257.336C332.054 257.624 331.822 257.92 331.598 258.224C331.39 258.544 331.222 258.832 331.094 259.088C329.798 258.4 328.71 257.504 327.83 256.4C326.966 255.28 326.254 253.984 325.694 252.512C325.134 251.04 324.678 249.424 324.326 247.664L326.702 247.256ZM330.182 249.08L332.438 250.64C331.782 251.28 331.086 251.912 330.35 252.536C329.63 253.144 328.966 253.664 328.358 254.096L326.582 252.728C326.966 252.408 327.374 252.04 327.806 251.624C328.254 251.208 328.686 250.776 329.102 250.328C329.518 249.88 329.878 249.464 330.182 249.08ZM311.342 237.632H317.318V240.224H314.03V259.16H311.342V237.632ZM316.526 237.632H317.03L317.438 237.536L319.406 238.664C319.182 239.368 318.942 240.112 318.686 240.896C318.43 241.68 318.174 242.456 317.918 243.224C317.662 243.992 317.406 244.688 317.15 245.312C317.934 246.24 318.438 247.12 318.662 247.952C318.902 248.768 319.022 249.528 319.022 250.232C319.022 251.032 318.934 251.688 318.758 252.2C318.582 252.712 318.294 253.112 317.894 253.4C317.702 253.544 317.478 253.656 317.222 253.736C316.982 253.816 316.734 253.88 316.478 253.928C316.254 253.96 315.99 253.976 315.686 253.976C315.398 253.976 315.102 253.976 314.798 253.976C314.782 253.608 314.718 253.176 314.606 252.68C314.51 252.184 314.366 251.76 314.174 251.408C314.398 251.424 314.598 251.432 314.774 251.432C314.966 251.432 315.134 251.432 315.278 251.432C315.406 251.432 315.526 251.416 315.638 251.384C315.766 251.336 315.886 251.28 315.998 251.216C316.142 251.104 316.246 250.936 316.31 250.712C316.39 250.472 316.422 250.184 316.406 249.848C316.406 249.288 316.286 248.648 316.046 247.928C315.822 247.192 315.35 246.424 314.63 245.624C314.806 245.08 314.982 244.48 315.158 243.824C315.35 243.168 315.526 242.512 315.686 241.856C315.862 241.184 316.022 240.56 316.166 239.984C316.326 239.392 316.446 238.904 316.526 238.52V237.632Z" fill="white"/>
<path d="M36.944 147.008H87.404V153.794H36.944V147.008ZM58.114 139.758H65.48V194.22H58.114V139.758ZM58.926 165.916L64.726 168.178C63.2953 170.73 61.652 173.185 59.796 175.544C57.9787 177.903 55.9873 180.107 53.822 182.156C51.6567 184.205 49.356 186.061 46.92 187.724C44.5227 189.387 42.0287 190.837 39.438 192.074C39.09 191.455 38.626 190.759 38.046 189.986C37.466 189.251 36.8667 188.536 36.248 187.84C35.6293 187.105 35.0493 186.506 34.508 186.042C36.9827 185.075 39.4187 183.877 41.816 182.446C44.252 181.015 46.5333 179.43 48.66 177.69C50.7867 175.911 52.72 174.036 54.46 172.064C56.2387 170.053 57.7273 168.004 58.926 165.916ZM65.19 166.38C66.814 169.048 68.8827 171.619 71.396 174.094C73.948 176.569 76.7707 178.811 79.864 180.822C82.9573 182.794 86.1667 184.399 89.492 185.636C88.912 186.1 88.2933 186.719 87.636 187.492C87.0173 188.227 86.3987 188.981 85.78 189.754C85.2 190.566 84.7167 191.32 84.33 192.016C81.0047 190.469 77.7953 188.517 74.702 186.158C71.6087 183.761 68.7667 181.073 66.176 178.096C63.5853 175.119 61.3427 171.967 59.448 168.642L65.19 166.38ZM43.962 163.828L48.37 159.478C49.2593 160.174 50.226 160.986 51.27 161.914C52.314 162.803 53.3193 163.673 54.286 164.524C55.2527 165.375 56.0453 166.129 56.664 166.786L52.024 171.716C51.4827 171.02 50.7287 170.208 49.762 169.28C48.834 168.352 47.8673 167.424 46.862 166.496C45.8567 165.529 44.89 164.64 43.962 163.828ZM46.34 154.142L53.068 155.418C52.024 159.633 50.4967 163.499 48.486 167.018C46.4753 170.498 44.1167 173.359 41.41 175.602C41.0233 175.177 40.5013 174.674 39.844 174.094C39.1867 173.514 38.51 172.953 37.814 172.412C37.1567 171.832 36.5573 171.387 36.016 171.078C38.6067 169.183 40.772 166.767 42.512 163.828C44.252 160.889 45.528 157.661 46.34 154.142ZM71.744 164.118L76.268 159.942C77.4667 160.831 78.8007 161.856 80.27 163.016C81.778 164.137 83.228 165.259 84.62 166.38C86.012 167.463 87.1333 168.429 87.984 169.28L83.17 174.036C82.358 173.185 81.2947 172.18 79.98 171.02C78.6653 169.86 77.2733 168.681 75.804 167.482C74.3347 166.245 72.9813 165.123 71.744 164.118ZM73.658 154.142L80.444 155.36C79.632 158.801 78.472 162.011 76.964 164.988C75.456 167.927 73.716 170.363 71.744 172.296C71.3187 171.948 70.7387 171.542 70.004 171.078C69.308 170.614 68.5733 170.169 67.8 169.744C67.0267 169.28 66.3693 168.913 65.828 168.642C67.8 166.979 69.4433 164.872 70.758 162.32C72.1113 159.768 73.078 157.042 73.658 154.142ZM118.782 139.642H125.8V147.472H118.782V139.642ZM97.264 143.006H147.318V151.996H140.822V148.4H103.528V151.996H97.264V143.006ZM100.744 150.372H120.116V154.316H100.744V150.372ZM101.498 156.056H119.652V159.536H101.498V156.056ZM121.102 155.882H146.274V159.362H121.102V155.882ZM98.308 161.798C101.092 161.682 104.456 161.527 108.4 161.334C112.383 161.141 116.443 160.967 120.58 160.812L120.522 165.104C116.617 165.375 112.731 165.626 108.864 165.858C105.036 166.051 101.672 166.225 98.772 166.38L98.308 161.798ZM107.878 151.996H113.62V162.842L107.878 163.306V151.996ZM125.336 148.284L130.034 149.038C129.338 150.546 128.545 151.957 127.656 153.272C126.767 154.587 125.645 155.843 124.292 157.042C123.828 156.539 123.209 156.037 122.436 155.534C121.701 154.993 121.025 154.587 120.406 154.316C121.566 153.427 122.552 152.441 123.364 151.358C124.176 150.275 124.833 149.251 125.336 148.284ZM127.018 150.778H142.678V154.258H124.988L127.018 150.778ZM130.556 152.228H136.298V163.596H130.556V152.228ZM122.726 159.826H127.54V162.204H139.488V159.826H144.592V165.684H122.726V159.826ZM110.488 175.95V177.69H134.964V175.95H110.488ZM110.488 181.112V182.91H134.964V181.112H110.488ZM110.488 170.846V172.528H134.964V170.846H110.488ZM103.76 167.192H142.04V186.564H103.76V167.192ZM124.814 188.652L129.338 184.882C131.503 185.423 133.727 186.023 136.008 186.68C138.328 187.299 140.513 187.937 142.562 188.594C144.65 189.213 146.429 189.773 147.898 190.276L141.866 194.278C140.59 193.737 139.043 193.137 137.226 192.48C135.409 191.861 133.437 191.223 131.31 190.566C129.183 189.909 127.018 189.271 124.814 188.652ZM114.374 184.824L119.826 188.594C118.202 189.406 116.288 190.179 114.084 190.914C111.88 191.649 109.579 192.287 107.182 192.828C104.823 193.369 102.542 193.814 100.338 194.162C99.8353 193.505 99.178 192.731 98.366 191.842C97.554 190.953 96.8193 190.199 96.162 189.58C98.3273 189.271 100.57 188.865 102.89 188.362C105.249 187.859 107.433 187.299 109.444 186.68C111.493 186.061 113.137 185.443 114.374 184.824ZM164.486 163.422H205.376V167.83H164.486V163.422ZM173.708 148.226H179.74V160H173.708V148.226ZM186.932 148.226H193.08V160H186.932V148.226ZM165.588 151.068H206.71V161.508H165.588V157.68H200.33V154.896H165.588V151.068ZM179.682 175.08L185.54 176.414C183.336 178.541 180.765 180.435 177.826 182.098C174.887 183.761 171.465 185.269 167.56 186.622C167.173 186.003 166.613 185.288 165.878 184.476C165.182 183.664 164.544 183.045 163.964 182.62C167.56 181.615 170.692 180.474 173.36 179.198C176.028 177.883 178.135 176.511 179.682 175.08ZM179.74 178.618H198.01V182.388H175.97L179.74 178.618ZM196.618 178.618H197.836L198.88 178.386L202.766 180.88C200.949 182.968 198.706 184.766 196.038 186.274C193.37 187.782 190.412 189.058 187.164 190.102C183.955 191.146 180.552 191.977 176.956 192.596C173.399 193.253 169.822 193.775 166.226 194.162C165.994 193.466 165.627 192.654 165.124 191.726C164.66 190.798 164.196 190.025 163.732 189.406C167.019 189.174 170.305 188.807 173.592 188.304C176.917 187.801 180.069 187.144 183.046 186.332C186.023 185.52 188.691 184.553 191.05 183.432C193.409 182.272 195.265 180.938 196.618 179.43V178.618ZM178 181.054C179.469 182.291 181.306 183.374 183.51 184.302C185.753 185.23 188.266 186.023 191.05 186.68C193.834 187.299 196.811 187.801 199.982 188.188C203.153 188.536 206.42 188.787 209.784 188.942C209.165 189.561 208.527 190.392 207.87 191.436C207.251 192.48 206.749 193.389 206.362 194.162C202.882 193.891 199.518 193.485 196.27 192.944C193.022 192.403 189.948 191.687 187.048 190.798C184.187 189.909 181.557 188.826 179.16 187.55C176.801 186.274 174.733 184.785 172.954 183.084L178 181.054ZM175.506 169.048H180.958V171.6C180.958 172.18 181.093 172.547 181.364 172.702C181.673 172.857 182.273 172.934 183.162 172.934C183.394 172.934 183.781 172.934 184.322 172.934C184.863 172.934 185.463 172.934 186.12 172.934C186.816 172.934 187.435 172.934 187.976 172.934C188.556 172.934 188.981 172.934 189.252 172.934C189.948 172.934 190.412 172.799 190.644 172.528C190.876 172.219 191.05 171.542 191.166 170.498C191.707 170.846 192.403 171.155 193.254 171.426C194.143 171.697 194.936 171.89 195.632 172.006C195.4 173.939 194.859 175.254 194.008 175.95C193.196 176.607 191.862 176.936 190.006 176.936C189.774 176.936 189.407 176.936 188.904 176.936C188.401 176.936 187.821 176.936 187.164 176.936C186.507 176.936 185.869 176.936 185.25 176.936C184.631 176.936 184.071 176.936 183.568 176.936C183.065 176.936 182.698 176.936 182.466 176.936C180.61 176.936 179.16 176.781 178.116 176.472C177.111 176.124 176.415 175.583 176.028 174.848C175.68 174.075 175.506 172.992 175.506 171.6V169.048ZM203.752 163.422H204.738L205.724 163.248L210.248 164.234C209.707 165.742 209.107 167.289 208.45 168.874C207.793 170.459 207.155 171.793 206.536 172.876L201.084 171.774C201.548 170.769 202.031 169.57 202.534 168.178C203.037 166.786 203.443 165.452 203.752 164.176V163.422ZM170.46 168.41L175.1 170.44C174.481 171.755 173.708 173.069 172.78 174.384C171.891 175.699 170.769 176.82 169.416 177.748L164.95 174.848C166.149 174.113 167.231 173.147 168.198 171.948C169.165 170.749 169.919 169.57 170.46 168.41ZM180.726 168.294L184.38 165.684C185.424 166.187 186.526 166.825 187.686 167.598C188.846 168.371 189.755 169.067 190.412 169.686L186.642 172.586C185.985 171.929 185.076 171.175 183.916 170.324C182.795 169.473 181.731 168.797 180.726 168.294ZM193.37 170.208L197.662 167.946C198.861 168.874 200.079 169.995 201.316 171.31C202.553 172.586 203.481 173.727 204.1 174.732L199.576 177.226C199.035 176.182 198.165 175.003 196.966 173.688C195.767 172.373 194.569 171.213 193.37 170.208ZM180.842 139.7H188.092V147.066H180.842V139.7ZM163.152 143.18H208.74V148.4H163.152V143.18ZM159.846 143.18H166.168V160.464C166.168 162.9 166.091 165.568 165.936 168.468C165.781 171.368 165.491 174.345 165.066 177.4C164.641 180.455 164.022 183.413 163.21 186.274C162.398 189.135 161.335 191.726 160.02 194.046C159.633 193.659 159.111 193.195 158.454 192.654C157.797 192.151 157.12 191.668 156.424 191.204C155.767 190.74 155.187 190.392 154.684 190.16C155.883 188.033 156.811 185.713 157.468 183.2C158.164 180.648 158.686 178.057 159.034 175.428C159.382 172.76 159.595 170.15 159.672 167.598C159.788 165.046 159.846 162.668 159.846 160.464V143.18ZM226.024 150.256H266.392V157.042H226.024V150.256ZM223.588 167.308H264.13V174.036H223.588V167.308ZM216.918 185.752H269.35V192.538H216.918V185.752ZM239.422 139.7H246.73V189.058H239.422V139.7ZM226.024 140.454L233.216 142.078C232.404 145.055 231.399 147.994 230.2 150.894C229.001 153.794 227.706 156.501 226.314 159.014C224.922 161.489 223.472 163.654 221.964 165.51C221.5 165.085 220.881 164.621 220.108 164.118C219.373 163.577 218.6 163.055 217.788 162.552C216.976 162.049 216.28 161.643 215.7 161.334C217.247 159.71 218.658 157.777 219.934 155.534C221.249 153.291 222.409 150.875 223.414 148.284C224.458 145.693 225.328 143.083 226.024 140.454ZM276.89 142.426H300.322V148.806H276.89V142.426ZM284.314 158.318V163.77H292.84V158.318H284.314ZM278.456 152.866H299.104V169.222H278.456V152.866ZM291.448 170.034L298.176 171.426C297.596 173.553 296.997 175.679 296.378 177.806C295.798 179.933 295.237 181.75 294.696 183.258L289.418 181.866C289.727 180.783 289.998 179.546 290.23 178.154C290.501 176.762 290.733 175.351 290.926 173.92C291.158 172.489 291.332 171.194 291.448 170.034ZM279.21 171.948L284.72 170.556C285.339 172.141 285.841 173.901 286.228 175.834C286.653 177.729 286.905 179.372 286.982 180.764L281.124 182.272C281.085 180.88 280.892 179.217 280.544 177.284C280.196 175.351 279.751 173.572 279.21 171.948ZM275.904 185.172C277.992 184.785 280.389 184.321 283.096 183.78C285.803 183.239 288.664 182.659 291.68 182.04C294.696 181.421 297.693 180.803 300.67 180.184L301.308 186.042C297.171 187.047 292.995 188.033 288.78 189C284.604 190.005 280.853 190.875 277.528 191.61L275.904 185.172ZM301.772 142.078H329.902V147.878H301.772V142.078ZM309.486 165.336V169.048H321.956V165.336H309.486ZM309.486 173.804V177.516H321.956V173.804H309.486ZM309.486 156.926V160.58H321.956V156.926H309.486ZM303.164 151.822H328.626V182.62H303.164V151.822ZM311.632 145.268L319.52 146.196C318.979 148.013 318.418 149.792 317.838 151.532C317.258 153.272 316.736 154.761 316.272 155.998L310.182 154.838C310.414 153.91 310.607 152.885 310.762 151.764C310.955 150.643 311.129 149.521 311.284 148.4C311.439 147.279 311.555 146.235 311.632 145.268ZM308.674 182.852L314.3 186.506C313.256 187.511 311.999 188.497 310.53 189.464C309.099 190.431 307.591 191.32 306.006 192.132C304.421 192.983 302.893 193.698 301.424 194.278C300.921 193.659 300.206 192.905 299.278 192.016C298.389 191.165 297.577 190.431 296.842 189.812C298.273 189.309 299.742 188.671 301.25 187.898C302.758 187.086 304.169 186.255 305.484 185.404C306.799 184.515 307.862 183.664 308.674 182.852ZM316.678 186.622L321.898 183.316C322.942 184.012 324.083 184.785 325.32 185.636C326.557 186.487 327.737 187.357 328.858 188.246C330.018 189.097 330.965 189.87 331.7 190.566L326.132 194.278C325.513 193.582 324.663 192.77 323.58 191.842C322.497 190.953 321.337 190.044 320.1 189.116C318.901 188.188 317.761 187.357 316.678 186.622ZM338.486 145.094H388.656V150.72H338.486V145.094ZM351.942 161.914H378.042V166.438H351.942V161.914ZM351.942 168.816H378.042V173.34H351.942V168.816ZM337.964 175.776H389.236V181.576H337.964V175.776ZM372.59 146.312C373.827 148.129 375.432 149.908 377.404 151.648C379.376 153.349 381.541 154.896 383.9 156.288C386.259 157.641 388.637 158.763 391.034 159.652C390.57 160.077 390.048 160.619 389.468 161.276C388.888 161.895 388.327 162.533 387.786 163.19C387.283 163.847 386.877 164.466 386.568 165.046C384.055 163.925 381.599 162.513 379.202 160.812C376.805 159.111 374.581 157.197 372.532 155.07C370.483 152.943 368.704 150.72 367.196 148.4L372.59 146.312ZM348.462 154.374H378.042V159.594H355.596V178.386H348.462V154.374ZM341.676 187.608C344.769 187.492 348.385 187.337 352.522 187.144C356.698 186.951 361.106 186.738 365.746 186.506C370.386 186.274 375.007 186.042 379.608 185.81L379.492 191.146C375.084 191.455 370.637 191.765 366.152 192.074C361.705 192.383 357.433 192.673 353.334 192.944C349.274 193.215 345.62 193.447 342.372 193.64L341.676 187.608ZM351.536 177.922L359.714 178.154C359.134 179.662 358.496 181.131 357.8 182.562C357.104 183.993 356.408 185.346 355.712 186.622C355.055 187.898 354.417 189.019 353.798 189.986L347.07 189.348C347.65 188.265 348.211 187.067 348.752 185.752C349.332 184.399 349.854 183.045 350.318 181.692C350.821 180.339 351.227 179.082 351.536 177.922ZM370.096 182.91L376.012 180.126C377.288 181.209 378.622 182.446 380.014 183.838C381.406 185.191 382.74 186.545 384.016 187.898C385.292 189.251 386.336 190.469 387.148 191.552L380.768 194.742C380.111 193.698 379.163 192.48 377.926 191.088C376.727 189.696 375.432 188.285 374.04 186.854C372.687 185.423 371.372 184.109 370.096 182.91ZM358.206 139.7L365.34 140.918C363.871 144.243 361.995 147.414 359.714 150.43C357.433 153.446 354.668 156.269 351.42 158.898C348.211 161.489 344.402 163.809 339.994 165.858C339.723 165.317 339.337 164.717 338.834 164.06C338.331 163.364 337.809 162.707 337.268 162.088C336.765 161.469 336.263 160.967 335.76 160.58C339.897 158.917 343.435 156.965 346.374 154.722C349.313 152.441 351.749 150.024 353.682 147.472C355.654 144.92 357.162 142.329 358.206 139.7Z" fill="white"/>
<ellipse cx="76.3204" cy="68" rx="54.1017" ry="56" fill="#6EE292"/>
<path d="M50.9341 102V89.358L77.4611 66.1335C79.4498 64.3343 81.1425 62.6889 82.5393 61.1974C83.936 59.6823 85.0014 58.1671 85.7353 56.652C86.4692 55.1132 86.8361 53.4441 86.8361 51.6449C86.8361 49.6326 86.3982 47.9162 85.5222 46.4957C84.6463 45.0516 83.4389 43.9389 81.9001 43.1577C80.3612 42.3764 78.5975 41.9858 76.6089 41.9858C74.5966 41.9858 72.8328 42.4001 71.3177 43.2287C69.8025 44.0336 68.6188 45.2055 67.7665 46.7443C66.9379 48.2831 66.5236 50.1534 66.5236 52.3551H49.8688C49.8688 47.4072 50.9815 43.134 53.2069 39.5355C55.4323 35.937 58.5573 33.1671 62.5819 31.2259C66.6302 29.2609 71.3295 28.2784 76.6799 28.2784C82.196 28.2784 86.99 29.2017 91.062 31.0483C95.134 32.8949 98.2826 35.4754 100.508 38.7898C102.757 42.0805 103.882 45.9039 103.882 50.2599C103.882 53.0298 103.325 55.776 102.213 58.4986C101.1 61.2211 99.0994 64.2277 96.2111 67.5185C93.3466 70.8092 89.2746 74.7509 83.9952 79.3438L75.2949 87.3693V87.831H104.769V102H50.9341Z" fill="white"/>
<path d="M492.187 199.494C495.56 217.541 516.916 253.845 461.366 253.845C401.704 253.845 426.432 214.957 426.432 202.595C426.433 188.825 415.192 159.185 461.367 159.185C502.304 159.185 488.815 181.448 492.187 199.494Z" fill="#93FFB4"/>
<ellipse cx="15.1916" cy="9.52043" rx="15.1916" ry="9.52043" transform="matrix(0.588919 0.808192 -0.788227 0.615385 424.009 144.382)" fill="#93FFB4"/>
<ellipse cx="15.2132" cy="9.50661" rx="15.2132" ry="9.50661" transform="matrix(-0.55323 0.833029 -0.81479 -0.579756 498.102 152.023)" fill="#93FFB4"/>
<path d="M530.298 187.248C534.45 209.47 560.747 254.172 492.347 254.172C418.882 254.172 449.331 206.288 449.331 191.066C449.331 174.11 435.491 137.613 492.347 137.613C542.754 137.613 526.145 165.027 530.298 187.248Z" fill="#73EB98"/>
<ellipse cx="18.7059" cy="11.7228" rx="18.7059" ry="11.7228" transform="matrix(0.588919 0.808192 -0.788227 0.615385 446.347 119.387)" fill="#73EB98"/>
<ellipse cx="18.7325" cy="11.7058" rx="18.7325" ry="11.7058" transform="matrix(-0.55323 0.833029 -0.81479 -0.579756 543 128.795)" fill="#73EB98"/>
</svg>
