<svg width="577" height="314" viewBox="0 0 577 314" fill="none" xmlns="http://www.w3.org/2000/svg">
<path d="M0 31.6289H546.998C563.567 31.6289 576.998 45.0604 576.998 61.6289V314H30C13.4315 314 0 300.569 0 284V31.6289Z" fill="#FF5F17"/>
<line x1="352.066" y1="221.5" x2="39.1183" y2="221.5" stroke="white"/>
<path d="M166.165 79.296H183.157V81.984H166.165V79.296ZM165.653 87.008H183.765V89.696H165.653V87.008ZM165.493 98.976H183.797V101.696H165.493V98.976ZM166.933 83.168H182.677V85.728H166.933V83.168ZM169.653 76.832H172.981V88.192H169.653V76.832ZM176.277 76.832H179.669V88.192H176.277V76.832ZM172.981 88.256H176.309V99.744H172.981V88.256ZM178.805 90.912H182.293V103.392C182.293 104.181 182.197 104.8 182.005 105.248C181.834 105.717 181.482 106.08 180.949 106.336C180.394 106.592 179.733 106.741 178.965 106.784C178.218 106.848 177.311 106.88 176.245 106.88C176.181 106.411 176.053 105.888 175.861 105.312C175.669 104.736 175.466 104.235 175.253 103.808C175.871 103.829 176.479 103.84 177.077 103.84C177.695 103.84 178.101 103.84 178.293 103.84C178.485 103.84 178.613 103.808 178.677 103.744C178.762 103.659 178.805 103.531 178.805 103.36V90.912ZM167.189 90.912H180.309V93.6H170.613V106.912H167.189V90.912ZM168.885 95.04H180.277V97.44H168.885V95.04ZM156.821 98.976L160.149 99.744C159.743 101.088 159.199 102.411 158.517 103.712C157.834 104.992 157.109 106.069 156.341 106.944C156.149 106.752 155.871 106.539 155.509 106.304C155.146 106.069 154.783 105.835 154.421 105.6C154.058 105.365 153.749 105.184 153.493 105.056C154.218 104.288 154.869 103.36 155.445 102.272C156.042 101.184 156.501 100.085 156.821 98.976ZM160.565 100.128L163.413 98.912C163.946 99.7227 164.469 100.619 164.981 101.6C165.514 102.56 165.919 103.403 166.197 104.128L163.221 105.536C163.071 105.045 162.847 104.491 162.549 103.872C162.271 103.232 161.962 102.592 161.621 101.952C161.279 101.291 160.927 100.683 160.565 100.128ZM158.549 86.848V89.856H161.717V86.848H158.549ZM158.549 92.672V95.68H161.717V92.672H158.549ZM158.549 81.056V84H161.717V81.056H158.549ZM155.285 78.016H165.077V98.752H155.285V78.016ZM207.189 80.992V83.2H211.221V80.992H207.189ZM200.085 80.992V83.2H203.989V80.992H200.085ZM193.077 80.992V83.2H196.885V80.992H193.077ZM189.525 78.144H214.965V86.048H189.525V78.144ZM195.125 93.632V95.2H209.173V93.632H195.125ZM195.125 97.472V99.072H209.173V97.472H195.125ZM195.125 89.824V91.36H209.173V89.824H195.125ZM191.253 87.392H213.205V101.472H191.253V87.392ZM203.925 103.168L206.997 101.216C208.191 101.6 209.407 102.016 210.645 102.464C211.903 102.912 213.098 103.36 214.229 103.808C215.359 104.235 216.33 104.629 217.141 104.992L212.981 106.912C212.319 106.549 211.498 106.155 210.517 105.728C209.557 105.301 208.511 104.864 207.381 104.416C206.25 103.968 205.098 103.552 203.925 103.168ZM196.853 101.184L200.341 102.752C199.466 103.328 198.442 103.883 197.269 104.416C196.095 104.949 194.879 105.429 193.621 105.856C192.383 106.304 191.21 106.688 190.101 107.008C189.887 106.731 189.61 106.411 189.269 106.048C188.927 105.707 188.575 105.365 188.213 105.024C187.85 104.683 187.53 104.405 187.253 104.192C188.405 103.979 189.578 103.723 190.773 103.424C191.967 103.104 193.087 102.752 194.133 102.368C195.199 101.984 196.106 101.589 196.853 101.184ZM223.861 82.88H231.861V85.6H223.861V82.88ZM238.645 82.88H246.709V85.6H238.645V82.88ZM245.173 78.08H249.077V102.208C249.077 103.317 248.938 104.171 248.661 104.768C248.383 105.387 247.903 105.845 247.221 106.144C246.517 106.464 245.621 106.656 244.533 106.72C243.445 106.805 242.122 106.848 240.565 106.848C240.522 106.485 240.426 106.059 240.277 105.568C240.127 105.099 239.957 104.619 239.765 104.128C239.594 103.659 239.402 103.253 239.189 102.912C239.871 102.955 240.565 102.987 241.269 103.008C241.973 103.008 242.591 103.008 243.125 103.008C243.679 103.008 244.063 103.008 244.277 103.008C244.618 103.008 244.853 102.944 244.981 102.816C245.109 102.688 245.173 102.475 245.173 102.176V78.08ZM224.149 78.08H234.229V90.528H224.149V87.424H230.645V81.184H224.149V78.08ZM247.253 78.08V81.184H240.085V87.52H247.253V90.592H236.437V78.08H247.253ZM221.973 78.08H225.781V106.88H221.973V78.08ZM272.757 101.28L275.573 99.392C276.405 99.7973 277.279 100.288 278.197 100.864C279.114 101.44 279.999 102.016 280.853 102.592C281.706 103.168 282.421 103.712 282.997 104.224L279.925 106.368C279.434 105.877 278.783 105.333 277.973 104.736C277.183 104.139 276.33 103.541 275.413 102.944C274.495 102.325 273.61 101.771 272.757 101.28ZM258.037 91.776H279.381V94.688H258.037V91.776ZM254.229 96.032H283.253V99.04H254.229V96.032ZM254.677 77.856H282.613V80.896H254.677V77.856ZM266.773 96.576H270.645V103.2C270.645 104.053 270.538 104.725 270.325 105.216C270.133 105.707 269.738 106.08 269.141 106.336C268.543 106.592 267.839 106.752 267.029 106.816C266.239 106.88 265.311 106.912 264.245 106.912C264.181 106.4 264.031 105.813 263.797 105.152C263.562 104.512 263.327 103.957 263.093 103.488C263.733 103.509 264.362 103.531 264.981 103.552C265.599 103.552 266.015 103.541 266.229 103.52C266.442 103.52 266.581 103.488 266.645 103.424C266.73 103.36 266.773 103.243 266.773 103.072V96.576ZM260.565 99.296L264.085 100.512C263.487 101.301 262.783 102.08 261.973 102.848C261.162 103.616 260.309 104.331 259.413 104.992C258.538 105.653 257.685 106.229 256.853 106.72C256.639 106.485 256.362 106.197 256.021 105.856C255.679 105.536 255.327 105.216 254.965 104.896C254.602 104.597 254.282 104.352 254.005 104.16C255.263 103.584 256.479 102.869 257.653 102.016C258.847 101.141 259.818 100.235 260.565 99.296ZM260.085 85.312V87.712H277.109V85.312H260.085ZM256.533 82.592H280.917V90.464H256.533V82.592ZM263.317 79.04H266.837V89.344H263.317V79.04ZM270.165 79.04H273.781V89.344H270.165V79.04ZM304.272 88.928H324.72V92.384H304.272V88.928ZM305.392 82.464H323.632V85.856H305.392V82.464ZM312.144 84.128H315.984V89.248C315.984 90.272 315.856 91.3387 315.6 92.448C315.365 93.5573 314.917 94.6667 314.256 95.776C313.616 96.864 312.688 97.92 311.472 98.944C310.277 99.9467 308.73 100.864 306.832 101.696C306.661 101.419 306.426 101.109 306.128 100.768C305.829 100.427 305.52 100.085 305.2 99.744C304.88 99.4027 304.57 99.1253 304.272 98.912C306.085 98.2507 307.514 97.5147 308.56 96.704C309.626 95.8933 310.405 95.0507 310.896 94.176C311.408 93.3013 311.738 92.448 311.888 91.616C312.058 90.7627 312.144 89.9627 312.144 89.216V84.128ZM316.56 91.36C317.221 93.1307 318.224 94.6347 319.568 95.872C320.933 97.088 322.682 97.9627 324.816 98.496C324.538 98.752 324.24 99.072 323.92 99.456C323.621 99.84 323.333 100.235 323.056 100.64C322.8 101.024 322.576 101.387 322.384 101.728C320.037 100.96 318.138 99.7547 316.688 98.112C315.237 96.4693 314.117 94.4533 313.328 92.064L316.56 91.36ZM302.992 89.28V101.088H299.248V92.832H295.536V89.28H302.992ZM302.992 99.424C303.653 100.469 304.581 101.237 305.776 101.728C306.97 102.219 308.4 102.496 310.064 102.56C311.002 102.603 312.112 102.635 313.392 102.656C314.693 102.656 316.058 102.645 317.488 102.624C318.917 102.603 320.314 102.56 321.68 102.496C323.066 102.432 324.293 102.357 325.36 102.272C325.232 102.571 325.082 102.955 324.912 103.424C324.741 103.893 324.581 104.373 324.432 104.864C324.304 105.355 324.208 105.792 324.144 106.176C323.184 106.24 322.085 106.283 320.848 106.304C319.61 106.347 318.341 106.368 317.04 106.368C315.738 106.389 314.48 106.389 313.264 106.368C312.048 106.347 310.96 106.315 310 106.272C308.037 106.187 306.362 105.877 304.976 105.344C303.589 104.832 302.362 103.957 301.296 102.72C300.592 103.317 299.866 103.936 299.12 104.576C298.394 105.216 297.594 105.877 296.72 106.56L294.832 102.56C295.578 102.112 296.357 101.621 297.168 101.088C297.978 100.555 298.757 100 299.504 99.424H302.992ZM295.568 79.872L298.416 77.568C299.077 77.9947 299.749 78.496 300.432 79.072C301.114 79.6267 301.754 80.2027 302.352 80.8C302.949 81.376 303.429 81.9093 303.792 82.4L300.752 84.96C300.432 84.448 299.984 83.8933 299.408 83.296C298.853 82.6987 298.234 82.1013 297.552 81.504C296.869 80.8853 296.208 80.3413 295.568 79.872ZM318.768 76.8L322.672 78.016C322.096 78.9333 321.498 79.84 320.88 80.736C320.282 81.6107 319.728 82.3573 319.216 82.976L316.08 81.888C316.4 81.3973 316.73 80.864 317.072 80.288C317.413 79.6907 317.733 79.0933 318.032 78.496C318.33 77.8773 318.576 77.312 318.768 76.8ZM306.224 78.208L309.456 76.864C310.053 77.5893 310.618 78.4107 311.152 79.328C311.685 80.2453 312.058 81.056 312.272 81.76L308.816 83.232C308.645 82.5493 308.304 81.7387 307.792 80.8C307.301 79.84 306.778 78.976 306.224 78.208Z" fill="white"/>
<path d="M43.7259 250.976H66.2859V253.64H43.7259V250.976ZM44.7099 237.896H65.3259V240.56H44.7099V237.896ZM48.4779 246.584H61.7259V249.032H48.4779V246.584ZM60.6699 242.144H63.5499V256.04C63.5499 256.76 63.4539 257.328 63.2619 257.744C63.0699 258.16 62.7259 258.48 62.2299 258.704C61.7339 258.928 61.1179 259.064 60.3819 259.112C59.6619 259.16 58.7979 259.184 57.7899 259.184C57.7099 258.8 57.5659 258.336 57.3579 257.792C57.1659 257.264 56.9739 256.824 56.7819 256.472C57.2299 256.488 57.6779 256.504 58.1259 256.52C58.5739 256.52 58.9739 256.52 59.3259 256.52C59.6939 256.52 59.9419 256.52 60.0699 256.52C60.2939 256.52 60.4459 256.48 60.5259 256.4C60.6219 256.32 60.6699 256.184 60.6699 255.992V242.144ZM46.4859 242.144H61.8219V244.736H49.3179V259.184H46.4859V242.144ZM53.4699 238.712H56.3499V251.912H53.4699V238.712ZM83.6139 239.096C83.1659 239.72 82.5979 240.368 81.9099 241.04C81.2219 241.712 80.4699 242.36 79.6539 242.984C78.8379 243.592 77.9819 244.12 77.0859 244.568C76.9579 244.216 76.7499 243.808 76.4619 243.344C76.1899 242.88 75.9339 242.496 75.6939 242.192C76.5739 241.792 77.4299 241.288 78.2619 240.68C79.0939 240.056 79.8539 239.392 80.5419 238.688C81.2299 237.984 81.7819 237.312 82.1979 236.672H84.8379C85.4299 237.376 86.0859 238.064 86.8059 238.736C87.5419 239.392 88.3179 239.984 89.1339 240.512C89.9499 241.024 90.7739 241.448 91.6059 241.784C91.3339 242.104 91.0539 242.504 90.7659 242.984C90.4779 243.464 90.2299 243.904 90.0219 244.304C89.2699 243.904 88.4939 243.424 87.6939 242.864C86.8939 242.288 86.1339 241.672 85.4139 241.016C84.7099 240.36 84.1099 239.72 83.6139 239.096ZM80.1819 241.4H87.0939V243.44H80.1819V241.4ZM79.1979 247.304H87.9819V248.864H79.1979V247.304ZM80.7099 256.376H88.8459V258.44H80.7099V256.376ZM79.0059 244.448H89.5179V251.792H79.0059V249.848H86.9259V246.368H79.0059V244.448ZM77.8299 244.448H80.4219V248.528C80.4219 249.312 80.3739 250.16 80.2779 251.072C80.1979 251.984 80.0379 252.912 79.7979 253.856C79.5739 254.784 79.2459 255.688 78.8139 256.568C78.3979 257.432 77.8459 258.216 77.1579 258.92C77.0299 258.744 76.8459 258.536 76.6059 258.296C76.3659 258.072 76.1099 257.848 75.8379 257.624C75.5819 257.4 75.3659 257.232 75.1899 257.12C75.9899 256.288 76.5739 255.368 76.9419 254.36C77.3259 253.352 77.5659 252.336 77.6619 251.312C77.7739 250.288 77.8299 249.344 77.8299 248.48V244.448ZM79.5819 252.752H89.8299V259.064H87.2859V254.768H82.0299V259.088H79.5819V252.752ZM68.8539 241.256H76.4379V243.92H68.8539V241.256ZM71.7339 236.624H74.4459V256.016C74.4459 256.688 74.3739 257.232 74.2299 257.648C74.0859 258.064 73.8219 258.384 73.4379 258.608C73.0379 258.832 72.5419 258.984 71.9499 259.064C71.3739 259.144 70.6699 259.176 69.8379 259.16C69.8059 258.792 69.7099 258.336 69.5499 257.792C69.4059 257.264 69.2379 256.808 69.0459 256.424C69.5259 256.44 69.9819 256.448 70.4139 256.448C70.8459 256.448 71.1419 256.44 71.3019 256.424C71.4619 256.424 71.5739 256.392 71.6379 256.328C71.7019 256.264 71.7339 256.152 71.7339 255.992V236.624ZM68.5419 248.84C69.5179 248.632 70.7099 248.352 72.1179 248C73.5419 247.632 74.9819 247.264 76.4379 246.896L76.7739 249.344C75.4619 249.776 74.1499 250.2 72.8379 250.616C71.5259 251.016 70.3099 251.392 69.1899 251.744L68.5419 248.84ZM105.07 242.072H113.326V244.424H105.07V242.072ZM100.942 255.992C101.662 255.88 102.494 255.744 103.438 255.584C104.398 255.424 105.414 255.256 106.486 255.08C107.558 254.888 108.622 254.696 109.678 254.504L109.918 257C108.526 257.32 107.126 257.632 105.718 257.936C104.31 258.256 103.03 258.536 101.878 258.776L100.942 255.992ZM103.438 237.68H106.222V256.64H103.438V237.68ZM105.07 237.68H114.646V248.912H105.07V246.44H111.79V240.152H105.07V237.68ZM110.062 247.256C110.366 248.696 110.782 250.032 111.31 251.264C111.838 252.48 112.51 253.552 113.326 254.48C114.142 255.408 115.142 256.128 116.326 256.64C116.118 256.832 115.894 257.064 115.654 257.336C115.414 257.624 115.182 257.92 114.958 258.224C114.75 258.544 114.582 258.832 114.454 259.088C113.158 258.4 112.07 257.504 111.19 256.4C110.326 255.28 109.614 253.984 109.054 252.512C108.494 251.04 108.038 249.424 107.686 247.664L110.062 247.256ZM113.542 249.08L115.798 250.64C115.142 251.28 114.446 251.912 113.71 252.536C112.99 253.144 112.326 253.664 111.718 254.096L109.942 252.728C110.326 252.408 110.734 252.04 111.166 251.624C111.614 251.208 112.046 250.776 112.462 250.328C112.878 249.88 113.238 249.464 113.542 249.08ZM94.7019 237.632H100.678V240.224H97.3899V259.16H94.7019V237.632ZM99.8859 237.632H100.39L100.798 237.536L102.766 238.664C102.542 239.368 102.302 240.112 102.046 240.896C101.79 241.68 101.534 242.456 101.278 243.224C101.022 243.992 100.766 244.688 100.51 245.312C101.294 246.24 101.798 247.12 102.022 247.952C102.262 248.768 102.382 249.528 102.382 250.232C102.382 251.032 102.294 251.688 102.118 252.2C101.942 252.712 101.654 253.112 101.254 253.4C101.062 253.544 100.838 253.656 100.582 253.736C100.342 253.816 100.094 253.88 99.8379 253.928C99.6139 253.96 99.3499 253.976 99.0459 253.976C98.7579 253.976 98.4619 253.976 98.1579 253.976C98.1419 253.608 98.0779 253.176 97.9659 252.68C97.8699 252.184 97.7259 251.76 97.5339 251.408C97.7579 251.424 97.9579 251.432 98.1339 251.432C98.3259 251.432 98.4939 251.432 98.6379 251.432C98.7659 251.432 98.8859 251.416 98.9979 251.384C99.1259 251.336 99.2459 251.28 99.3579 251.216C99.5019 251.104 99.6059 250.936 99.6699 250.712C99.7499 250.472 99.7819 250.184 99.7659 249.848C99.7659 249.288 99.6459 248.648 99.4059 247.928C99.1819 247.192 98.7099 246.424 97.9899 245.624C98.1659 245.08 98.3419 244.48 98.5179 243.824C98.7099 243.168 98.8859 242.512 99.0459 241.856C99.2219 241.184 99.3819 240.56 99.5259 239.984C99.6859 239.392 99.8059 238.904 99.8859 238.52V237.632ZM124.798 241.016V241.832H134.782V241.016H124.798ZM124.798 238.808V239.624H134.782V238.808H124.798ZM122.038 237.344H137.686V243.296H122.038V237.344ZM124.294 250.592V251.432H135.454V250.592H124.294ZM124.294 248.312V249.152H135.454V248.312H124.294ZM121.606 246.8H138.286V252.968H121.606V246.8ZM128.47 247.304H131.254V257.6H128.47V247.304ZM118.99 244.016H140.854V246.08H118.99V244.016ZM121.102 253.76H138.742V255.584H121.102V253.76ZM118.942 256.472H140.902V258.56H118.942V256.472ZM144.43 238.904L146.062 236.84C146.494 237.016 146.95 237.232 147.43 237.488C147.91 237.744 148.366 238.016 148.798 238.304C149.23 238.576 149.582 238.848 149.854 239.12L148.126 241.4C147.886 241.128 147.558 240.848 147.142 240.56C146.726 240.256 146.278 239.96 145.798 239.672C145.318 239.368 144.862 239.112 144.43 238.904ZM143.518 245.312L145.102 243.2C145.55 243.376 146.014 243.584 146.494 243.824C146.974 244.064 147.43 244.32 147.862 244.592C148.294 244.864 148.646 245.12 148.918 245.36L147.214 247.688C146.974 247.432 146.646 247.16 146.23 246.872C145.814 246.584 145.366 246.304 144.886 246.032C144.406 245.76 143.95 245.52 143.518 245.312ZM143.926 257.408C144.23 256.784 144.558 256.048 144.91 255.2C145.278 254.352 145.646 253.456 146.014 252.512C146.398 251.552 146.742 250.608 147.046 249.68L149.374 251.168C149.118 252.032 148.83 252.912 148.51 253.808C148.19 254.688 147.862 255.56 147.526 256.424C147.19 257.272 146.854 258.096 146.518 258.896L143.926 257.408ZM149.014 256.016C149.862 255.872 150.846 255.704 151.966 255.512C153.086 255.304 154.262 255.088 155.494 254.864C156.742 254.624 157.982 254.384 159.214 254.144L159.43 256.472C158.31 256.728 157.174 256.976 156.022 257.216C154.87 257.472 153.758 257.712 152.686 257.936C151.614 258.16 150.63 258.36 149.734 258.536L149.014 256.016ZM150.43 251.504L152.71 250.832C152.998 251.392 153.238 252.016 153.43 252.704C153.638 253.376 153.774 253.96 153.838 254.456L151.414 255.224C151.398 254.712 151.294 254.112 151.102 253.424C150.926 252.72 150.702 252.08 150.43 251.504ZM149.566 238.376H158.878V240.656H149.566V238.376ZM149.998 242H158.374V244.232H149.998V242ZM152.806 236.744H155.518V243.68H152.806V236.744ZM155.446 250.76L158.206 251.336C157.982 251.992 157.758 252.64 157.534 253.28C157.326 253.904 157.126 254.456 156.934 254.936L154.654 254.384C154.75 254.032 154.846 253.648 154.942 253.232C155.054 252.816 155.15 252.392 155.23 251.96C155.326 251.512 155.398 251.112 155.446 250.76ZM152.662 247.184V248.768H155.662V247.184H152.662ZM150.19 245.264H158.23V250.712H150.19V245.264ZM162.886 236.96L165.454 237.872C165.038 238.672 164.55 239.448 163.99 240.2C163.446 240.936 162.854 241.624 162.214 242.264C161.574 242.904 160.926 243.48 160.27 243.992C160.03 243.688 159.726 243.36 159.358 243.008C158.99 242.64 158.63 242.328 158.278 242.072C158.854 241.672 159.43 241.2 160.006 240.656C160.598 240.112 161.142 239.528 161.638 238.904C162.15 238.264 162.566 237.616 162.886 236.96ZM163.054 243.824L165.67 244.76C165.222 245.544 164.694 246.304 164.086 247.04C163.494 247.76 162.846 248.424 162.142 249.032C161.438 249.64 160.718 250.184 159.982 250.664C159.758 250.344 159.462 250 159.094 249.632C158.726 249.248 158.374 248.928 158.038 248.672C158.678 248.32 159.318 247.888 159.958 247.376C160.598 246.864 161.19 246.304 161.734 245.696C162.278 245.072 162.718 244.448 163.054 243.824ZM163.294 250.544L166.006 251.264C165.366 253.024 164.478 254.56 163.342 255.872C162.222 257.184 160.838 258.272 159.19 259.136C158.998 258.8 158.726 258.432 158.374 258.032C158.038 257.648 157.71 257.328 157.39 257.072C158.798 256.432 160.006 255.544 161.014 254.408C162.038 253.272 162.798 251.984 163.294 250.544ZM169.39 238.904L171.022 236.84C171.454 237.016 171.91 237.232 172.39 237.488C172.87 237.744 173.326 238.016 173.758 238.304C174.19 238.576 174.542 238.848 174.814 239.12L173.086 241.4C172.846 241.128 172.518 240.848 172.102 240.56C171.686 240.256 171.238 239.96 170.758 239.672C170.278 239.368 169.822 239.112 169.39 238.904ZM168.478 245.312L170.062 243.2C170.51 243.376 170.974 243.584 171.454 243.824C171.934 244.064 172.39 244.32 172.822 244.592C173.254 244.864 173.606 245.12 173.878 245.36L172.174 247.688C171.934 247.432 171.606 247.16 171.19 246.872C170.774 246.584 170.326 246.304 169.846 246.032C169.366 245.76 168.91 245.52 168.478 245.312ZM168.886 257.408C169.19 256.784 169.518 256.048 169.87 255.2C170.238 254.352 170.606 253.456 170.974 252.512C171.358 251.552 171.702 250.608 172.006 249.68L174.334 251.168C174.078 252.032 173.79 252.912 173.47 253.808C173.15 254.688 172.822 255.56 172.486 256.424C172.15 257.272 171.814 258.096 171.478 258.896L168.886 257.408ZM182.158 237.8H190.918V240.416H182.158V237.8ZM182.446 242.432H190.534V245.024H182.446V242.432ZM174.622 243.632H182.062V246.224H174.622V243.632ZM182.446 247.088H190.534V249.68H182.446V247.088ZM181.246 251.792H191.086V254.408H181.246V251.792ZM185.086 239.264H187.822V259.136H185.086V239.264ZM180.55 236.72L182.614 238.952C181.878 239.288 181.07 239.6 180.19 239.888C179.326 240.16 178.446 240.408 177.55 240.632C176.654 240.84 175.79 241.024 174.958 241.184C174.894 240.864 174.774 240.488 174.598 240.056C174.422 239.624 174.254 239.256 174.094 238.952C174.878 238.776 175.662 238.576 176.446 238.352C177.246 238.112 177.998 237.856 178.702 237.584C179.406 237.296 180.022 237.008 180.55 236.72ZM174.046 249.848C175.086 249.736 176.318 249.576 177.742 249.368C179.182 249.144 180.638 248.912 182.11 248.672L182.254 251.096C180.894 251.352 179.534 251.6 178.174 251.84C176.83 252.08 175.598 252.304 174.478 252.512L174.046 249.848ZM177.19 238.904H179.782V247.712C179.782 249.168 179.702 250.6 179.542 252.008C179.398 253.416 179.062 254.744 178.534 255.992C178.006 257.224 177.19 258.344 176.086 259.352C175.91 259.176 175.686 258.976 175.414 258.752C175.158 258.528 174.878 258.304 174.574 258.08C174.286 257.872 174.03 257.704 173.806 257.576C174.814 256.712 175.55 255.752 176.014 254.696C176.494 253.64 176.806 252.52 176.95 251.336C177.11 250.152 177.19 248.936 177.19 247.688V238.904ZM203.182 248.144H206.158V259.112H203.182V248.144ZM199.006 244.208V245.984H210.358V244.208H199.006ZM199.006 240.152V241.88H210.358V240.152H199.006ZM196.174 237.608H213.334V248.504H196.174V237.608ZM193.798 251.24H215.83V253.976H193.798V251.24ZM221.806 250.472H238.246V252.512H221.806V250.472ZM223.294 247.424H240.694V249.416H223.294V247.424ZM223.342 241.472H235.798V243.224H223.342V241.472ZM237.382 250.472H240.118C240.118 250.472 240.11 250.6 240.094 250.856C240.094 251.096 240.078 251.304 240.046 251.48C239.95 252.904 239.838 254.08 239.71 255.008C239.598 255.936 239.462 256.656 239.302 257.168C239.158 257.696 238.982 258.08 238.774 258.32C238.534 258.592 238.278 258.784 238.006 258.896C237.734 259.008 237.43 259.08 237.094 259.112C236.79 259.16 236.398 259.184 235.918 259.184C235.438 259.2 234.918 259.192 234.358 259.16C234.342 258.824 234.27 258.432 234.142 257.984C234.03 257.552 233.886 257.176 233.71 256.856C234.142 256.904 234.542 256.936 234.91 256.952C235.278 256.952 235.55 256.952 235.726 256.952C236.062 256.952 236.31 256.872 236.47 256.712C236.598 256.552 236.718 256.264 236.83 255.848C236.942 255.432 237.046 254.824 237.142 254.024C237.238 253.208 237.318 252.144 237.382 250.832V250.472ZM227.926 236.48L231.382 236.72C231.142 237.312 230.862 237.872 230.542 238.4C230.238 238.928 229.966 239.384 229.726 239.768L227.182 239.336C227.326 238.904 227.47 238.424 227.614 237.896C227.774 237.368 227.878 236.896 227.926 236.48ZM223.558 238.4H237.31V246.368H223.558V244.4H234.478V240.392H223.558V238.4ZM221.806 238.4H224.662V251.432H221.806V238.4ZM228.214 253.88L230.398 253.352C230.67 253.992 230.926 254.68 231.166 255.416C231.406 256.152 231.558 256.784 231.622 257.312L229.27 257.936C229.222 257.408 229.094 256.76 228.886 255.992C228.694 255.224 228.47 254.52 228.214 253.88ZM231.958 253.424L233.998 252.728C234.302 253.208 234.606 253.744 234.91 254.336C235.214 254.912 235.422 255.408 235.534 255.824L233.398 256.64C233.27 256.224 233.07 255.712 232.798 255.104C232.542 254.496 232.262 253.936 231.958 253.424ZM224.326 253.928L226.678 253.568C226.886 254.272 227.038 255.04 227.134 255.872C227.246 256.704 227.302 257.416 227.302 258.008L224.782 258.392C224.814 257.8 224.782 257.088 224.686 256.256C224.606 255.408 224.486 254.632 224.326 253.928ZM220.942 252.968L223.342 253.808C223.086 254.768 222.742 255.728 222.31 256.688C221.894 257.632 221.358 258.44 220.702 259.112L218.398 257.672C219.006 257.096 219.526 256.384 219.958 255.536C220.39 254.688 220.718 253.832 220.942 252.968ZM254.806 254.288L257.038 253.688C257.31 254.104 257.542 254.56 257.734 255.056C257.926 255.552 258.062 255.992 258.142 256.376L255.79 257.072C255.742 256.688 255.622 256.232 255.43 255.704C255.238 255.176 255.03 254.704 254.806 254.288ZM261.142 253.64L263.638 254.312C263.382 254.824 263.126 255.32 262.87 255.8C262.63 256.28 262.406 256.688 262.198 257.024L260.062 256.4C260.254 256.016 260.454 255.56 260.662 255.032C260.87 254.504 261.03 254.04 261.142 253.64ZM256.126 250.976V252.176H262.078V250.976H256.126ZM253.726 249.272H264.55V253.88H253.726V249.272ZM255.262 242.648V243.752H262.846V242.648H255.262ZM255.262 239.912V240.992H262.846V239.912H255.262ZM252.982 238.16H265.246V245.504H252.982V238.16ZM252.622 246.32H265.654V248.48H252.622V246.32ZM252.142 256.568H265.99V258.704H252.142V256.568ZM256.198 236.6H258.31V239.456H256.198V236.6ZM259.726 236.6H261.862V239.456H259.726V236.6ZM256.606 238.976H258.31V245.168H256.606V238.976ZM259.726 238.976H261.43V245.168H259.726V238.976ZM243.67 242.888H252.094V245.384H243.67V242.888ZM244.246 238.112H251.614V240.584H244.246V238.112ZM250.198 246.608H252.022V255.536H250.198V246.608ZM246.814 244.136H249.19V259.136H246.814V244.136ZM244.006 246.632H245.83V249.512C245.83 250.744 245.774 252.04 245.662 253.4C245.55 254.744 245.286 255.992 244.87 257.144C244.678 256.952 244.422 256.736 244.102 256.496C243.782 256.256 243.502 256.072 243.262 255.944C243.582 254.968 243.782 253.904 243.862 252.752C243.958 251.6 244.006 250.504 244.006 249.464V246.632Z" fill="white"/>
<path d="M69.768 142.846H92.446V148.646H69.768V142.846ZM76.438 145.166L82.934 145.572C82.47 150.096 81.3873 153.885 79.686 156.94C77.9847 159.995 75.6453 162.489 72.668 164.422C72.32 164.035 71.8173 163.591 71.16 163.088C70.5027 162.547 69.826 162.025 69.13 161.522C68.434 161.019 67.854 160.633 67.39 160.362C70.3287 158.931 72.494 156.959 73.886 154.446C75.3167 151.894 76.1673 148.801 76.438 145.166ZM88.85 142.846H95.462C95.462 142.846 95.462 143.155 95.462 143.774C95.462 144.393 95.4427 144.876 95.404 145.224C95.288 148.472 95.1333 151.159 94.94 153.286C94.7467 155.374 94.4953 157.017 94.186 158.216C93.9153 159.415 93.548 160.285 93.084 160.826C92.5427 161.483 91.9433 161.947 91.286 162.218C90.6673 162.489 89.9713 162.682 89.198 162.798C88.4633 162.914 87.516 162.991 86.356 163.03C85.2347 163.03 84.0167 163.011 82.702 162.972C82.6633 162.044 82.4893 161.039 82.18 159.956C81.8707 158.835 81.484 157.887 81.02 157.114C82.0253 157.191 82.9533 157.249 83.804 157.288C84.6547 157.288 85.2927 157.288 85.718 157.288C86.4913 157.327 87.052 157.153 87.4 156.766C87.6707 156.418 87.8833 155.799 88.038 154.91C88.1927 153.982 88.328 152.629 88.444 150.85C88.5987 149.033 88.734 146.674 88.85 143.774V142.846ZM44.886 146.674H68.028V152.706H44.886V146.674ZM43.552 158.042H69.072V164.132H43.552V158.042ZM57.124 170.454H68.318V176.486H57.124V170.454ZM53.412 140.758H59.792V161.232H53.412V140.758ZM54.456 161.638H60.662V187.39H54.456V161.638ZM50.57 173.064C51.3433 176.119 52.3293 178.574 53.528 180.43C54.7653 182.286 56.2733 183.697 58.052 184.664C59.8693 185.592 61.9767 186.23 64.374 186.578C66.7713 186.887 69.4973 187.042 72.552 187.042C73.2867 187.042 74.292 187.061 75.568 187.1C76.8827 187.1 78.3327 187.1 79.918 187.1C81.5033 187.061 83.1467 187.042 84.848 187.042C86.588 187.042 88.2893 187.042 89.952 187.042C91.6147 187.042 93.1227 187.023 94.476 186.984C95.8293 186.907 96.9507 186.868 97.84 186.868C97.492 187.371 97.144 188.028 96.796 188.84C96.448 189.652 96.1193 190.483 95.81 191.334C95.5393 192.223 95.3267 193.016 95.172 193.712H90.996H72.552C68.6853 193.712 65.2827 193.461 62.344 192.958C59.4053 192.494 56.8727 191.585 54.746 190.232C52.6193 188.879 50.802 186.945 49.294 184.432C47.8247 181.919 46.5873 178.632 45.582 174.572L50.57 173.064ZM45.408 167.09L51.498 167.496C51.4593 171.169 51.324 174.707 51.092 178.11C50.86 181.513 50.454 184.664 49.874 187.564C49.294 190.425 48.5013 192.958 47.496 195.162C47.1093 194.853 46.568 194.505 45.872 194.118C45.176 193.731 44.4607 193.345 43.726 192.958C43.03 192.61 42.4307 192.339 41.928 192.146C42.8947 190.213 43.6293 187.931 44.132 185.302C44.6347 182.673 44.9633 179.811 45.118 176.718C45.2727 173.625 45.3693 170.415 45.408 167.09ZM77.714 170.802V177.994H87.168V170.802H77.714ZM71.218 165.176H94.128V183.504H71.218V165.176ZM120.75 146.036H156.13V151.952H120.75V146.036ZM118.198 188.26H157.464V194.118H118.198V188.26ZM123.244 155.954H152.998V189.362H146.618V161.058H129.334V189.362H123.244V155.954ZM127.826 164.19H147.72V169.004H127.826V164.19ZM127.652 172.252H149.286V176.95H127.652V172.252ZM127.536 180.198H147.836V184.954H127.536V180.198ZM135.25 140.816L142.616 141.048C142.307 143.097 141.939 145.185 141.514 147.312C141.089 149.4 140.663 151.391 140.238 153.286C139.813 155.181 139.387 156.843 138.962 158.274L132.93 157.81C133.278 156.263 133.607 154.504 133.916 152.532C134.225 150.56 134.496 148.549 134.728 146.5C134.999 144.451 135.173 142.556 135.25 140.816ZM115.008 140.874L121.446 142.962C120.247 146.21 118.836 149.497 117.212 152.822C115.588 156.109 113.829 159.221 111.934 162.16C110.078 165.099 108.145 167.689 106.134 169.932C105.941 169.352 105.612 168.617 105.148 167.728C104.723 166.8 104.278 165.872 103.814 164.944C103.35 164.016 102.905 163.262 102.48 162.682C104.143 160.942 105.747 158.912 107.294 156.592C108.879 154.233 110.329 151.72 111.644 149.052C112.959 146.384 114.08 143.658 115.008 140.874ZM109.324 156.998L115.704 150.444L115.762 150.502V195.162H109.324V156.998ZM164.888 156.36H216.508V163.552H164.888V156.36ZM194.7 159.26C195.86 163.668 197.465 167.786 199.514 171.614C201.563 175.442 204.096 178.787 207.112 181.648C210.167 184.509 213.724 186.771 217.784 188.434C217.204 188.937 216.585 189.575 215.928 190.348C215.309 191.121 214.691 191.914 214.072 192.726C213.492 193.577 213.009 194.331 212.622 194.988C208.175 192.9 204.347 190.213 201.138 186.926C197.967 183.639 195.299 179.811 193.134 175.442C190.969 171.034 189.151 166.181 187.682 160.884L194.7 159.26ZM186.696 140.758H194.294C194.255 143.697 194.159 146.809 194.004 150.096C193.888 153.344 193.598 156.65 193.134 160.014C192.67 163.378 191.916 166.723 190.872 170.048C189.867 173.335 188.436 176.505 186.58 179.56C184.763 182.576 182.404 185.399 179.504 188.028C176.643 190.657 173.143 192.977 169.006 194.988C168.465 194.06 167.711 193.035 166.744 191.914C165.777 190.793 164.791 189.865 163.786 189.13C167.73 187.351 171.036 185.302 173.704 182.982C176.372 180.623 178.537 178.091 180.2 175.384C181.901 172.639 183.197 169.797 184.086 166.858C184.975 163.881 185.575 160.884 185.884 157.868C186.232 154.852 186.445 151.894 186.522 148.994C186.599 146.094 186.657 143.349 186.696 140.758ZM257.92 172.02H264.126V191.276H257.92V172.02ZM254.788 156.708V160.826H267.78V156.708H254.788ZM248.64 151.43H274.218V166.104H248.64V151.43ZM245.74 168.656H276.77V195.046H270.042V174.224H252.12V195.104H245.74V168.656ZM249.394 178.052H273.522V183.272H249.394V178.052ZM249.452 187.216H273.58V192.784H249.452V187.216ZM245.45 143.136H276.944V148.994H245.45V143.136ZM224.802 151.488H242.202V157.752H224.802V151.488ZM231.82 140.758H238.606V154.388H231.82V140.758ZM239.186 165.002C239.611 165.273 240.191 165.717 240.926 166.336C241.661 166.955 242.453 167.631 243.304 168.366C244.155 169.062 244.928 169.719 245.624 170.338C246.32 170.957 246.803 171.401 247.074 171.672L243.014 177.298C242.589 176.679 242.028 175.964 241.332 175.152C240.675 174.34 239.979 173.509 239.244 172.658C238.509 171.807 237.794 171.015 237.098 170.28C236.441 169.507 235.841 168.869 235.3 168.366L239.186 165.002ZM239.65 151.488H240.984L242.144 151.198L246.03 153.692C244.715 157.443 242.975 161.039 240.81 164.48C238.683 167.883 236.344 170.976 233.792 173.76C231.24 176.544 228.611 178.845 225.904 180.662C225.749 180.043 225.459 179.309 225.034 178.458C224.647 177.569 224.241 176.718 223.816 175.906C223.391 175.094 223.004 174.475 222.656 174.05C225.092 172.619 227.412 170.783 229.616 168.54C231.859 166.259 233.85 163.765 235.59 161.058C237.369 158.313 238.722 155.529 239.65 152.706V151.488ZM231.82 171.324L238.606 163.146V195.22H231.82V171.324ZM307.626 164.422H314.644V172.774H307.626V164.422ZM307.336 171.962L312.962 174.398C311.531 175.867 309.869 177.221 307.974 178.458C306.079 179.695 304.03 180.836 301.826 181.88C299.622 182.885 297.321 183.775 294.924 184.548C292.527 185.283 290.091 185.882 287.616 186.346C287.191 185.611 286.591 184.722 285.818 183.678C285.083 182.634 284.368 181.783 283.672 181.126C286.031 180.778 288.37 180.314 290.69 179.734C293.01 179.115 295.195 178.419 297.244 177.646C299.332 176.873 301.227 176.022 302.928 175.094C304.668 174.127 306.137 173.083 307.336 171.962ZM316.79 172.194C318.375 176.679 320.947 180.353 324.504 183.214C328.061 186.075 332.759 188.028 338.598 189.072C338.134 189.536 337.631 190.116 337.09 190.812C336.549 191.547 336.027 192.301 335.524 193.074C335.06 193.847 334.673 194.543 334.364 195.162C330.033 194.195 326.341 192.745 323.286 190.812C320.231 188.917 317.66 186.52 315.572 183.62C313.484 180.72 311.763 177.317 310.41 173.412L316.79 172.194ZM330.71 175.79L336.104 179.908C334.905 180.643 333.61 181.377 332.218 182.112C330.826 182.808 329.453 183.465 328.1 184.084C326.785 184.664 325.529 185.186 324.33 185.65L319.806 181.88C320.927 181.377 322.145 180.778 323.46 180.082C324.813 179.386 326.128 178.651 327.404 177.878C328.719 177.105 329.821 176.409 330.71 175.79ZM290.864 188.956C293.145 188.724 295.736 188.473 298.636 188.202C301.536 187.893 304.591 187.564 307.8 187.216C311.048 186.829 314.257 186.462 317.428 186.114L317.602 191.798C314.586 192.185 311.531 192.552 308.438 192.9C305.383 193.287 302.425 193.654 299.564 194.002C296.741 194.35 294.151 194.659 291.792 194.93L290.864 188.956ZM285.18 169.874H337.438V175.848H285.18V169.874ZM301.942 150.56L336.858 147.312L337.554 152.938L302.638 156.36L301.942 150.56ZM322.126 144.818L325.084 140.816C326.167 141.048 327.307 141.357 328.506 141.744C329.705 142.092 330.865 142.479 331.986 142.904C333.146 143.291 334.113 143.658 334.886 144.006L331.812 148.414C331.077 147.989 330.149 147.563 329.028 147.138C327.945 146.674 326.785 146.249 325.548 145.862C324.349 145.437 323.209 145.089 322.126 144.818ZM311.396 141.106H318.298C318.491 144.006 318.975 146.732 319.748 149.284C320.56 151.836 321.546 154.079 322.706 156.012C323.905 157.907 325.181 159.395 326.534 160.478C327.926 161.561 329.337 162.083 330.768 162.044C331.503 162.044 332.025 161.638 332.334 160.826C332.643 160.014 332.875 158.603 333.03 156.592C333.765 157.211 334.635 157.791 335.64 158.332C336.684 158.873 337.631 159.279 338.482 159.55C338.211 162.025 337.747 163.919 337.09 165.234C336.433 166.549 335.563 167.457 334.48 167.96C333.436 168.424 332.102 168.656 330.478 168.656C327.887 168.656 325.49 167.96 323.286 166.568C321.121 165.176 319.187 163.223 317.486 160.71C315.823 158.197 314.47 155.277 313.426 151.952C312.382 148.627 311.705 145.011 311.396 141.106ZM298.404 140.7L304.9 142.904C303.585 145.263 302 147.544 300.144 149.748C298.288 151.913 296.316 153.924 294.228 155.78C292.14 157.597 290.033 159.183 287.906 160.536C287.558 160.111 287.075 159.569 286.456 158.912C285.876 158.255 285.257 157.597 284.6 156.94C283.981 156.283 283.44 155.741 282.976 155.316C286.031 153.692 288.95 151.585 291.734 148.994C294.518 146.403 296.741 143.639 298.404 140.7ZM293.068 151.488L297.766 146.79L299.738 147.37V167.844H293.068V151.488ZM297.65 181.416L302.232 176.834L304.32 177.472V191.102H297.65V181.416Z" fill="white"/>
<ellipse cx="462.284" cy="197.585" rx="81.2844" ry="71.8013" fill="#FF9C1E"/>
<path d="M468.33 134.576L434.608 141.534L414.269 115.307L472.961 101L468.33 134.576Z" fill="#FF9C1E"/>
<circle cx="85.998" cy="68.0488" r="56" fill="#FF9C1E"/>
<path d="M96.136 29.3216V102.049H78.5934V45.7278H78.1673L61.9031 55.671V40.4721L79.8363 29.3216H96.136Z" fill="white"/>
<path d="M448.807 133.306C446.587 130.531 443.969 128.464 442.002 125.499C440.923 124.347 440.002 123.576 438.348 122.491C436.002 120.951 432.855 119.549 429.502 119.999C427.039 119.999 424.573 121.014 423.155 122.491C422.027 123.665 422.173 126.806 422.792 128.228C423.731 130.383 425.603 131.568 427.632 132.564C433.567 135.477 442.771 135.238 448.277 131.641C452.458 128.909 453.5 124.5 457.5 121C459 119 463.498 116.268 467.002 117.5C468.723 118.104 469.671 119.591 469.697 121.279C469.765 125.565 467.051 128.769 463.238 130.452C458.012 132.76 453.271 132.495 448.481 129.741C447.382 129.109 447.609 130.589 447.381 131.636C446.546 135.48 445.976 139.047 444.347 142.678C441.589 148.829 433.972 155.732 426.539 153.657" stroke="#FFB961" stroke-width="6" stroke-linecap="round"/>
<path d="M447.468 133.455C449.018 133.686 450.034 134.607 451.175 135.51C454.197 137.901 459.418 140.29 463.39 140.625C470.029 141.184 477.496 140.054 483.784 138.147C488.002 136.5 490.002 134.999 493.502 130.999" stroke="#FFB961" stroke-width="6" stroke-linecap="round"/>
</svg>
