<svg width="570" height="315" viewBox="0 0 570 315" fill="none" xmlns="http://www.w3.org/2000/svg">
<path d="M-0.0012207 31.9266H539.999C556.567 31.9266 569.999 45.3581 569.999 61.9266V314.298H29.9988C13.4302 314.298 -0.0012207 300.867 -0.0012207 284.298V31.9266Z" fill="#39BF63"/>
<line x1="347.795" y1="220.798" x2="38.6429" y2="220.798" stroke="white"/>
<path d="M166.057 84.7462C165.395 85.6849 164.606 86.6556 163.689 87.6582C162.771 88.6395 161.758 89.6209 160.649 90.6022C159.539 91.5622 158.355 92.4796 157.097 93.3542C155.859 94.2289 154.579 95.0289 153.257 95.7542C153.022 95.3062 152.659 94.7836 152.169 94.1862C151.699 93.5676 151.251 93.0662 150.825 92.6822C152.681 91.7222 154.451 90.5915 156.137 89.2902C157.822 87.9676 159.337 86.5809 160.681 85.1302C162.025 83.6795 163.091 82.3035 163.881 81.0022H167.881C168.734 82.2182 169.694 83.3915 170.761 84.5222C171.827 85.6529 172.947 86.7089 174.121 87.6902C175.315 88.6502 176.542 89.5249 177.801 90.3142C179.081 91.0822 180.361 91.7436 181.641 92.2982C181.15 92.7889 180.691 93.3329 180.265 93.9302C179.838 94.5276 179.443 95.1249 179.081 95.7222C177.865 95.0396 176.627 94.2716 175.369 93.4182C174.11 92.5435 172.905 91.6262 171.753 90.6662C170.601 89.6849 169.534 88.6929 168.553 87.6902C167.571 86.6875 166.739 85.7062 166.057 84.7462ZM155.209 99.7862H177.097V103.114H155.209V99.7862ZM156.841 92.6822H175.625V96.0742H156.841V92.6822ZM152.617 106.986H179.977V110.41H152.617V106.986ZM164.073 94.1862H168.105V108.874H164.073V94.1862ZM197.449 81.1302H201.417V85.7062H197.449V81.1302ZM185.897 83.6582H213.161V90.8582H209.225V87.1462H189.673V90.8582H185.897V83.6582ZM190.793 89.1622H208.073V92.4262H190.793V89.1622ZM193.897 94.8902L196.873 93.1622C198.387 94.2076 199.603 95.3809 200.521 96.6822C201.438 97.9622 202.11 99.2742 202.537 100.618C202.963 101.941 203.166 103.221 203.145 104.458C203.123 105.674 202.921 106.762 202.537 107.722C202.153 108.661 201.609 109.386 200.905 109.898C200.307 110.41 199.71 110.762 199.113 110.954C198.537 111.146 197.822 111.242 196.969 111.242C196.585 111.264 196.158 111.264 195.689 111.242C195.219 111.221 194.739 111.2 194.249 111.178C194.227 110.645 194.131 110.026 193.961 109.322C193.79 108.64 193.523 108.032 193.161 107.498C193.758 107.541 194.313 107.584 194.825 107.626C195.358 107.648 195.827 107.658 196.233 107.658C196.638 107.658 197.001 107.616 197.321 107.53C197.641 107.445 197.929 107.264 198.185 106.986C198.569 106.688 198.846 106.229 199.017 105.61C199.209 104.97 199.273 104.224 199.209 103.37C199.166 102.496 198.953 101.578 198.569 100.618C198.206 99.6369 197.641 98.6556 196.873 97.6742C196.126 96.6929 195.134 95.7649 193.897 94.8902ZM198.985 89.9942L202.153 91.3382C201.022 92.4902 199.657 93.5356 198.057 94.4742C196.457 95.3916 194.75 96.2022 192.937 96.9062C191.145 97.6102 189.363 98.1969 187.593 98.6662C187.465 98.4102 187.283 98.1009 187.049 97.7382C186.814 97.3542 186.569 96.9702 186.313 96.5862C186.057 96.2022 185.822 95.8929 185.609 95.6582C187.337 95.3169 189.043 94.8796 190.729 94.3462C192.435 93.8129 194.003 93.1836 195.433 92.4582C196.862 91.7116 198.046 90.8902 198.985 89.9942ZM196.489 96.3622L198.953 98.0902C198.078 98.7729 197.011 99.4769 195.753 100.202C194.494 100.928 193.182 101.6 191.817 102.218C190.473 102.837 189.203 103.36 188.009 103.786C187.795 103.36 187.507 102.858 187.145 102.282C186.782 101.706 186.43 101.237 186.089 100.874C186.942 100.661 187.849 100.394 188.809 100.074C189.79 99.7329 190.75 99.3596 191.689 98.9542C192.649 98.5489 193.545 98.1329 194.377 97.7062C195.209 97.2582 195.913 96.8102 196.489 96.3622ZM199.081 99.4342L201.705 101.386C200.851 102.197 199.838 103.008 198.665 103.818C197.513 104.629 196.265 105.408 194.921 106.154C193.598 106.88 192.254 107.552 190.889 108.17C189.523 108.789 188.211 109.312 186.953 109.738C186.718 109.248 186.409 108.704 186.025 108.106C185.662 107.488 185.299 106.965 184.937 106.538C186.195 106.24 187.497 105.834 188.841 105.322C190.185 104.81 191.497 104.234 192.777 103.594C194.057 102.954 195.241 102.282 196.329 101.578C197.417 100.853 198.334 100.138 199.081 99.4342ZM203.913 90.5382C204.446 92.7782 205.171 94.8796 206.089 96.8422C207.006 98.8049 208.147 100.533 209.513 102.026C210.899 103.52 212.542 104.693 214.441 105.546C214.163 105.802 213.854 106.122 213.513 106.506C213.171 106.89 212.841 107.296 212.521 107.722C212.222 108.149 211.966 108.533 211.753 108.874C209.747 107.786 208.03 106.378 206.601 104.65C205.171 102.901 203.987 100.896 203.049 98.6342C202.11 96.3516 201.331 93.8769 200.713 91.2102L203.913 90.5382ZM210.185 92.6182L213.161 95.2102C212.435 95.7649 211.657 96.3302 210.825 96.9062C209.993 97.4609 209.171 97.9836 208.361 98.4742C207.55 98.9436 206.793 99.3702 206.089 99.7542L203.657 97.4182C204.318 97.0342 205.043 96.5756 205.833 96.0422C206.643 95.4876 207.433 94.9116 208.201 94.3142C208.969 93.7169 209.63 93.1516 210.185 92.6182ZM224.777 91.4342H240.809V94.8262H224.777V91.4342ZM224.361 106.634H240.905V110.026H224.361V106.634ZM222.665 98.0262H243.081V111.21H239.113V101.386H226.441V111.21H222.665V98.0262ZM232.649 84.9062C231.774 86.1649 230.665 87.4449 229.321 88.7462C227.998 90.0476 226.515 91.2956 224.873 92.4902C223.251 93.6849 221.566 94.7622 219.817 95.7222C219.646 95.4236 219.422 95.0822 219.145 94.6982C218.889 94.3142 218.601 93.9409 218.281 93.5782C217.982 93.1942 217.683 92.8742 217.385 92.6182C219.241 91.7009 221.011 90.6022 222.697 89.3222C224.403 88.0422 225.929 86.6875 227.273 85.2582C228.617 83.8289 229.683 82.4635 230.473 81.1622H234.473C235.326 82.3782 236.286 83.5409 237.353 84.6502C238.419 85.7596 239.539 86.7942 240.713 87.7542C241.907 88.7142 243.145 89.5676 244.425 90.3142C245.705 91.0609 246.974 91.6902 248.233 92.2022C247.763 92.6929 247.315 93.2476 246.889 93.8662C246.462 94.4636 246.078 95.0609 245.737 95.6582C244.499 95.0182 243.251 94.2822 241.993 93.4502C240.734 92.5969 239.518 91.7009 238.345 90.7622C237.193 89.8022 236.126 88.8315 235.145 87.8502C234.163 86.8475 233.331 85.8662 232.649 84.9062ZM251.113 92.3302H269.769V95.2742H251.113V92.3302ZM258.697 90.4742H262.185V93.9622H258.697V90.4742ZM256.681 99.0502V101.002H264.201V99.0502H256.681ZM253.385 96.5862H267.657V103.466H253.385V96.5862ZM256.617 87.5622V88.8422H264.393V87.5622H256.617ZM256.617 84.2982V85.5782H264.393V84.2982H256.617ZM253.225 82.1862H267.945V90.9862H253.225V82.1862ZM258.697 101.802H262.185V107.914C262.185 108.64 262.089 109.205 261.897 109.61C261.726 110.037 261.363 110.368 260.809 110.602C260.275 110.837 259.678 110.986 259.017 111.05C258.355 111.114 257.587 111.146 256.713 111.146C256.585 110.677 256.382 110.165 256.105 109.61C255.827 109.056 255.561 108.586 255.305 108.202C255.923 108.224 256.51 108.245 257.065 108.266C257.619 108.266 257.993 108.256 258.185 108.234C258.377 108.234 258.505 108.213 258.569 108.17C258.654 108.106 258.697 107.989 258.697 107.818V101.802ZM254.089 103.914L257.289 104.778C256.841 105.781 256.265 106.794 255.561 107.818C254.878 108.821 254.185 109.674 253.481 110.378C253.289 110.186 253.022 109.973 252.681 109.738C252.361 109.504 252.019 109.269 251.657 109.034C251.315 108.821 251.017 108.65 250.761 108.522C251.443 107.925 252.073 107.221 252.649 106.41C253.246 105.6 253.726 104.768 254.089 103.914ZM263.177 105.322L266.025 103.946C266.601 104.608 267.219 105.365 267.881 106.218C268.542 107.05 269.043 107.776 269.385 108.394L266.377 109.93C266.185 109.525 265.907 109.056 265.545 108.522C265.182 107.989 264.787 107.445 264.361 106.89C263.955 106.314 263.561 105.792 263.177 105.322ZM276.297 81.6102L279.977 83.0822C279.251 84.1062 278.419 85.0876 277.481 86.0262C276.542 86.9435 275.55 87.7969 274.505 88.5862C273.481 89.3542 272.457 90.0476 271.433 90.6662C271.113 90.2396 270.697 89.7702 270.185 89.2582C269.673 88.7462 269.171 88.3089 268.681 87.9462C269.598 87.4769 270.537 86.9115 271.497 86.2502C272.457 85.5676 273.363 84.8316 274.217 84.0422C275.07 83.2315 275.763 82.4209 276.297 81.6102ZM276.873 90.5382L280.457 92.0422C279.689 93.0662 278.814 94.0582 277.833 95.0182C276.851 95.9569 275.827 96.8316 274.761 97.6422C273.694 98.4529 272.627 99.1782 271.561 99.8182C271.262 99.3916 270.857 98.9222 270.345 98.4102C269.833 97.8982 269.331 97.4609 268.841 97.0982C269.779 96.6076 270.75 96.0102 271.753 95.3062C272.777 94.6022 273.737 93.8449 274.633 93.0342C275.55 92.2022 276.297 91.3702 276.873 90.5382ZM277.577 99.2422L281.353 100.586C280.542 102.144 279.571 103.573 278.441 104.874C277.31 106.176 276.062 107.349 274.697 108.394C273.331 109.44 271.881 110.368 270.345 111.178C270.067 110.666 269.673 110.112 269.161 109.514C268.649 108.917 268.147 108.394 267.657 107.946C269.022 107.349 270.334 106.624 271.593 105.77C272.851 104.896 273.993 103.914 275.017 102.826C276.062 101.717 276.915 100.522 277.577 99.2422ZM284.361 97.3542C285.406 97.1409 286.579 96.8849 287.881 96.5862C289.203 96.2662 290.59 95.9249 292.041 95.5622C293.513 95.1996 294.963 94.8476 296.393 94.5062L296.873 98.1542C294.91 98.6876 292.915 99.2209 290.889 99.7542C288.883 100.288 287.059 100.768 285.417 101.194L284.361 97.3542ZM284.713 87.2102H296.361V90.8262H284.713V87.2102ZM288.841 81.0982H292.745V106.73C292.745 107.669 292.638 108.405 292.425 108.938C292.211 109.472 291.827 109.888 291.273 110.186C290.718 110.485 290.046 110.677 289.257 110.762C288.467 110.848 287.486 110.89 286.313 110.89C286.249 110.378 286.11 109.77 285.897 109.066C285.683 108.384 285.449 107.786 285.193 107.274C285.811 107.296 286.419 107.317 287.017 107.338C287.614 107.338 288.019 107.338 288.233 107.338C288.638 107.338 288.841 107.136 288.841 106.73V81.0982ZM296.873 83.5302H314.313V87.3702H296.873V83.5302ZM305.033 84.9382H309.161V106.154C309.161 107.264 309.011 108.128 308.713 108.746C308.435 109.386 307.934 109.877 307.209 110.218C306.483 110.56 305.577 110.773 304.489 110.858C303.401 110.944 302.11 110.986 300.617 110.986C300.553 110.581 300.435 110.122 300.265 109.61C300.094 109.098 299.902 108.586 299.689 108.074C299.497 107.562 299.294 107.136 299.081 106.794C299.742 106.816 300.414 106.837 301.097 106.858C301.801 106.88 302.43 106.89 302.985 106.89C303.539 106.89 303.923 106.89 304.137 106.89C304.457 106.89 304.681 106.837 304.809 106.73C304.958 106.602 305.033 106.389 305.033 106.09V84.9382ZM318.057 92.4262H347.209V96.2342H318.057V92.4262ZM332.329 85.0342H343.721V88.7142H332.329V85.0342ZM329.833 81.0982H333.929V94.2502H329.833V81.0982ZM329.833 94.8582H333.929V111.146H329.833V94.8582ZM332.745 100.97L334.697 97.8982C335.507 98.1329 336.393 98.4102 337.353 98.7302C338.313 99.0289 339.283 99.3596 340.265 99.7222C341.246 100.064 342.174 100.405 343.049 100.746C343.923 101.088 344.659 101.408 345.257 101.706L343.209 105.194C342.633 104.874 341.918 104.533 341.065 104.17C340.233 103.808 339.337 103.434 338.377 103.05C337.417 102.666 336.446 102.293 335.465 101.93C334.505 101.568 333.598 101.248 332.745 100.97ZM368.164 93.2262H388.612V96.6822H368.164V93.2262ZM369.284 86.7622H387.524V90.1542H369.284V86.7622ZM376.036 88.4262H379.876V93.5462C379.876 94.5702 379.748 95.6369 379.492 96.7462C379.257 97.8556 378.809 98.9649 378.148 100.074C377.508 101.162 376.58 102.218 375.364 103.242C374.169 104.245 372.622 105.162 370.724 105.994C370.553 105.717 370.318 105.408 370.02 105.066C369.721 104.725 369.412 104.384 369.092 104.042C368.772 103.701 368.462 103.424 368.164 103.21C369.977 102.549 371.406 101.813 372.452 101.002C373.518 100.192 374.297 99.3489 374.788 98.4742C375.3 97.5996 375.63 96.7462 375.78 95.9142C375.95 95.0609 376.036 94.2609 376.036 93.5142V88.4262ZM380.452 95.6582C381.113 97.4289 382.116 98.9329 383.46 100.17C384.825 101.386 386.574 102.261 388.708 102.794C388.43 103.05 388.132 103.37 387.812 103.754C387.513 104.138 387.225 104.533 386.948 104.938C386.692 105.322 386.468 105.685 386.276 106.026C383.929 105.258 382.03 104.053 380.58 102.41C379.129 100.768 378.009 98.7516 377.22 96.3622L380.452 95.6582ZM366.884 93.5782V105.386H363.14V97.1302H359.428V93.5782H366.884ZM366.884 103.722C367.545 104.768 368.473 105.536 369.668 106.026C370.862 106.517 372.292 106.794 373.956 106.858C374.894 106.901 376.004 106.933 377.284 106.954C378.585 106.954 379.95 106.944 381.38 106.922C382.809 106.901 384.206 106.858 385.572 106.794C386.958 106.73 388.185 106.656 389.252 106.57C389.124 106.869 388.974 107.253 388.804 107.722C388.633 108.192 388.473 108.672 388.324 109.162C388.196 109.653 388.1 110.09 388.036 110.474C387.076 110.538 385.977 110.581 384.74 110.602C383.502 110.645 382.233 110.666 380.932 110.666C379.63 110.688 378.372 110.688 377.156 110.666C375.94 110.645 374.852 110.613 373.892 110.57C371.929 110.485 370.254 110.176 368.868 109.642C367.481 109.13 366.254 108.256 365.188 107.018C364.484 107.616 363.758 108.234 363.012 108.874C362.286 109.514 361.486 110.176 360.612 110.858L358.724 106.858C359.47 106.41 360.249 105.92 361.06 105.386C361.87 104.853 362.649 104.298 363.396 103.722H366.884ZM359.46 84.1702L362.308 81.8662C362.969 82.2929 363.641 82.7942 364.324 83.3702C365.006 83.9249 365.646 84.5009 366.244 85.0982C366.841 85.6742 367.321 86.2076 367.684 86.6982L364.644 89.2582C364.324 88.7462 363.876 88.1916 363.3 87.5942C362.745 86.9969 362.126 86.3996 361.444 85.8022C360.761 85.1835 360.1 84.6395 359.46 84.1702ZM382.66 81.0982L386.564 82.3142C385.988 83.2315 385.39 84.1382 384.772 85.0342C384.174 85.9089 383.62 86.6556 383.108 87.2742L379.972 86.1862C380.292 85.6955 380.622 85.1622 380.964 84.5862C381.305 83.9889 381.625 83.3915 381.924 82.7942C382.222 82.1755 382.468 81.6102 382.66 81.0982ZM370.116 82.5062L373.348 81.1622C373.945 81.8876 374.51 82.7089 375.044 83.6262C375.577 84.5435 375.95 85.3542 376.164 86.0582L372.708 87.5302C372.537 86.8475 372.196 86.0369 371.684 85.0982C371.193 84.1382 370.67 83.2742 370.116 82.5062Z" fill="white"/>
<path d="M50.2934 241.29H58.2854V243.954H50.2934V241.29ZM50.5574 236.898L53.2934 237.282C53.0694 238.93 52.7734 240.538 52.4054 242.106C52.0534 243.674 51.6134 245.138 51.0854 246.498C50.5734 247.858 49.9654 249.05 49.2614 250.074C49.1334 249.898 48.9414 249.674 48.6854 249.402C48.4454 249.13 48.1894 248.866 47.9174 248.61C47.6454 248.338 47.4054 248.122 47.1974 247.962C47.8214 247.098 48.3494 246.082 48.7814 244.914C49.2134 243.746 49.5734 242.482 49.8614 241.122C50.1494 239.746 50.3814 238.338 50.5574 236.898ZM54.4214 242.85L57.1094 243.042C56.8374 245.698 56.3974 248.066 55.7894 250.146C55.1814 252.226 54.3254 254.042 53.2214 255.594C52.1174 257.146 50.6854 258.466 48.9254 259.554C48.8454 259.346 48.7094 259.09 48.5174 258.786C48.3414 258.498 48.1494 258.202 47.9414 257.898C47.7334 257.61 47.5414 257.37 47.3654 257.178C48.9494 256.314 50.2214 255.21 51.1814 253.866C52.1574 252.506 52.8934 250.906 53.3894 249.066C53.8854 247.226 54.2294 245.154 54.4214 242.85ZM51.8054 243.522C52.0934 245.538 52.4934 247.442 53.0054 249.234C53.5334 251.026 54.2294 252.61 55.0934 253.986C55.9734 255.346 57.0774 256.418 58.4054 257.202C58.2134 257.378 57.9894 257.602 57.7334 257.874C57.4934 258.146 57.2614 258.426 57.0374 258.714C56.8294 259.002 56.6614 259.266 56.5334 259.506C55.0774 258.53 53.8774 257.274 52.9334 255.738C52.0054 254.202 51.2614 252.434 50.7014 250.434C50.1414 248.418 49.7014 246.226 49.3814 243.858L51.8054 243.522ZM41.0294 236.898H43.4774V249.738H41.0294V236.898ZM39.6374 239.898V243.378H44.9894V239.898H39.6374ZM37.2614 238.098H47.4854V245.202H37.2614V238.098ZM39.1334 247.698V248.706H45.4694V247.698H39.1334ZM36.7814 245.97H47.9654V250.434H36.7814V245.97ZM35.7974 251.418C36.9334 251.418 38.2214 251.41 39.6614 251.394C41.1174 251.378 42.6454 251.362 44.2454 251.346C45.8614 251.314 47.4774 251.29 49.0934 251.274L48.9974 253.314C47.4294 253.346 45.8454 253.378 44.2454 253.41C42.6614 253.442 41.1494 253.474 39.7094 253.506C38.2854 253.522 37.0134 253.538 35.8934 253.554L35.7974 251.418ZM40.4534 249.93L42.8294 250.458C42.4774 251.098 42.1014 251.77 41.7014 252.474C41.3174 253.178 40.9254 253.85 40.5254 254.49C40.1414 255.13 39.7814 255.706 39.4454 256.218L37.1414 255.642C37.4774 255.146 37.8374 254.57 38.2214 253.914C38.6214 253.258 39.0134 252.586 39.3974 251.898C39.7974 251.194 40.1494 250.538 40.4534 249.93ZM38.9894 255.666L40.3574 253.986C41.2694 254.306 42.1894 254.666 43.1174 255.066C44.0454 255.45 44.9174 255.85 45.7334 256.266C46.5494 256.666 47.2374 257.05 47.7974 257.418L46.0454 259.194C45.5174 258.81 44.8694 258.402 44.1014 257.97C43.3494 257.554 42.5334 257.146 41.6534 256.746C40.7734 256.346 39.8854 255.986 38.9894 255.666ZM44.5334 252.426L46.9574 252.69C46.6214 254.114 46.0614 255.274 45.2774 256.17C44.5094 257.066 43.4774 257.77 42.1814 258.282C40.8854 258.81 39.2774 259.234 37.3574 259.554C37.2934 259.17 37.1574 258.77 36.9494 258.354C36.7574 257.954 36.5654 257.618 36.3734 257.346C37.9894 257.202 39.3414 256.954 40.4294 256.602C41.5334 256.25 42.4134 255.738 43.0694 255.066C43.7414 254.394 44.2294 253.514 44.5334 252.426ZM35.7254 240.618H38.1494V240.762H46.3334V240.618H49.0694V242.658H46.3334V242.514H38.1494V242.658H35.7254V240.618ZM66.8774 241.314V242.13H76.8614V241.314H66.8774ZM66.8774 239.106V239.922H76.8614V239.106H66.8774ZM64.1174 237.642H79.7654V243.594H64.1174V237.642ZM66.3734 250.89V251.73H77.5334V250.89H66.3734ZM66.3734 248.61V249.45H77.5334V248.61H66.3734ZM63.6854 247.098H80.3654V253.266H63.6854V247.098ZM70.5494 247.602H73.3334V257.898H70.5494V247.602ZM61.0694 244.314H82.9334V246.378H61.0694V244.314ZM63.1814 254.058H80.8214V255.882H63.1814V254.058ZM61.0214 256.77H82.9814V258.858H61.0214V256.77ZM86.2454 239.802H107.653V242.514H86.2454V239.802ZM92.7254 248.466H103.141V250.866H92.7254V248.466ZM90.5894 244.41H102.709V246.93H93.4214V259.434H90.5894V244.41ZM102.133 244.41H104.965V256.338C104.965 257.042 104.877 257.602 104.701 258.018C104.541 258.434 104.213 258.754 103.717 258.978C103.237 259.202 102.645 259.338 101.941 259.386C101.237 259.434 100.397 259.458 99.4214 259.458C99.3734 259.058 99.2614 258.586 99.0854 258.042C98.9254 257.514 98.7494 257.058 98.5574 256.674C98.9734 256.69 99.3894 256.706 99.8054 256.722C100.221 256.738 100.589 256.746 100.909 256.746C101.245 256.746 101.477 256.746 101.605 256.746C101.813 256.73 101.949 256.69 102.013 256.626C102.093 256.562 102.133 256.45 102.133 256.29V244.41ZM93.6854 236.898L96.6614 237.57C96.1014 239.362 95.3974 241.146 94.5494 242.922C93.7174 244.682 92.7094 246.322 91.5254 247.842C90.3574 249.362 88.9894 250.666 87.4214 251.754C87.2774 251.546 87.0854 251.306 86.8454 251.034C86.6214 250.746 86.3894 250.474 86.1494 250.218C85.9254 249.946 85.7174 249.722 85.5254 249.546C86.5814 248.842 87.5414 248.01 88.4054 247.05C89.2854 246.09 90.0614 245.05 90.7334 243.93C91.4214 242.794 92.0054 241.634 92.4854 240.45C92.9814 239.25 93.3814 238.066 93.6854 236.898ZM92.7254 252.426H103.141V254.826H92.7254V252.426ZM122.029 242.37H130.285V244.722H122.029V242.37ZM117.901 256.29C118.621 256.178 119.453 256.042 120.397 255.882C121.357 255.722 122.373 255.554 123.445 255.378C124.517 255.186 125.581 254.994 126.637 254.802L126.877 257.298C125.485 257.618 124.085 257.93 122.677 258.234C121.269 258.554 119.989 258.834 118.837 259.074L117.901 256.29ZM120.397 237.978H123.181V256.938H120.397V237.978ZM122.029 237.978H131.605V249.21H122.029V246.738H128.749V240.45H122.029V237.978ZM127.021 247.554C127.325 248.994 127.741 250.33 128.269 251.562C128.797 252.778 129.469 253.85 130.285 254.778C131.101 255.706 132.101 256.426 133.285 256.938C133.077 257.13 132.853 257.362 132.613 257.634C132.373 257.922 132.141 258.218 131.917 258.522C131.709 258.842 131.541 259.13 131.413 259.386C130.117 258.698 129.029 257.802 128.149 256.698C127.285 255.578 126.573 254.282 126.013 252.81C125.453 251.338 124.997 249.722 124.645 247.962L127.021 247.554ZM130.501 249.378L132.757 250.938C132.101 251.578 131.405 252.21 130.669 252.834C129.949 253.442 129.285 253.962 128.677 254.394L126.901 253.026C127.285 252.706 127.693 252.338 128.125 251.922C128.573 251.506 129.005 251.074 129.421 250.626C129.837 250.178 130.197 249.762 130.501 249.378ZM111.661 237.93H117.637V240.522H114.349V259.458H111.661V237.93ZM116.845 237.93H117.349L117.757 237.834L119.725 238.962C119.501 239.666 119.261 240.41 119.005 241.194C118.749 241.978 118.493 242.754 118.237 243.522C117.981 244.29 117.725 244.986 117.469 245.61C118.253 246.538 118.757 247.418 118.981 248.25C119.221 249.066 119.341 249.826 119.341 250.53C119.341 251.33 119.253 251.986 119.077 252.498C118.901 253.01 118.613 253.41 118.213 253.698C118.021 253.842 117.797 253.954 117.541 254.034C117.301 254.114 117.053 254.178 116.797 254.226C116.573 254.258 116.309 254.274 116.005 254.274C115.717 254.274 115.421 254.274 115.117 254.274C115.101 253.906 115.037 253.474 114.925 252.978C114.829 252.482 114.685 252.058 114.493 251.706C114.717 251.722 114.917 251.73 115.093 251.73C115.285 251.73 115.453 251.73 115.597 251.73C115.725 251.73 115.845 251.714 115.957 251.682C116.085 251.634 116.205 251.578 116.317 251.514C116.461 251.402 116.565 251.234 116.629 251.01C116.709 250.77 116.741 250.482 116.725 250.146C116.725 249.586 116.605 248.946 116.365 248.226C116.141 247.49 115.669 246.722 114.949 245.922C115.125 245.378 115.301 244.778 115.477 244.122C115.669 243.466 115.845 242.81 116.005 242.154C116.181 241.482 116.341 240.858 116.485 240.282C116.645 239.69 116.765 239.202 116.845 238.818V237.93ZM139.501 260.61L138.733 258.666C139.741 258.346 140.509 257.906 141.037 257.346C141.581 256.802 141.853 256.178 141.853 255.474L141.661 253.122L143.005 255.258C142.797 255.434 142.573 255.57 142.333 255.666C142.093 255.762 141.837 255.81 141.565 255.81C140.973 255.81 140.445 255.626 139.981 255.258C139.517 254.874 139.285 254.338 139.285 253.65C139.285 252.978 139.517 252.45 139.981 252.066C140.445 251.682 140.997 251.49 141.637 251.49C142.485 251.49 143.125 251.786 143.557 252.378C144.005 252.97 144.229 253.77 144.229 254.778C144.229 256.138 143.813 257.338 142.981 258.378C142.149 259.418 140.989 260.162 139.501 260.61ZM167.413 245.994H182.749V248.586H167.413V245.994ZM168.253 241.146H181.933V243.69H168.253V241.146ZM173.317 242.394H176.197V246.234C176.197 247.002 176.101 247.802 175.909 248.634C175.733 249.466 175.397 250.298 174.901 251.13C174.421 251.946 173.725 252.738 172.813 253.506C171.917 254.258 170.757 254.946 169.333 255.57C169.205 255.362 169.029 255.13 168.805 254.874C168.581 254.618 168.349 254.362 168.109 254.106C167.869 253.85 167.637 253.642 167.413 253.482C168.773 252.986 169.845 252.434 170.629 251.826C171.429 251.218 172.013 250.586 172.381 249.93C172.765 249.274 173.013 248.634 173.125 248.01C173.253 247.37 173.317 246.77 173.317 246.21V242.394ZM176.629 247.818C177.125 249.146 177.877 250.274 178.885 251.202C179.909 252.114 181.221 252.77 182.821 253.17C182.613 253.362 182.389 253.602 182.149 253.89C181.925 254.178 181.709 254.474 181.501 254.778C181.309 255.066 181.141 255.338 180.997 255.594C179.237 255.018 177.813 254.114 176.725 252.882C175.637 251.65 174.797 250.138 174.205 248.346L176.629 247.818ZM166.453 246.258V255.114H163.645V248.922H160.861V246.258H166.453ZM166.453 253.866C166.949 254.65 167.645 255.226 168.541 255.594C169.437 255.962 170.509 256.17 171.757 256.218C172.461 256.25 173.293 256.274 174.253 256.29C175.229 256.29 176.253 256.282 177.325 256.266C178.397 256.25 179.445 256.218 180.469 256.17C181.509 256.122 182.429 256.066 183.229 256.002C183.133 256.226 183.021 256.514 182.893 256.866C182.765 257.218 182.645 257.578 182.533 257.946C182.437 258.314 182.365 258.642 182.317 258.93C181.597 258.978 180.773 259.01 179.845 259.026C178.917 259.058 177.965 259.074 176.989 259.074C176.013 259.09 175.069 259.09 174.157 259.074C173.245 259.058 172.429 259.034 171.709 259.002C170.237 258.938 168.981 258.706 167.941 258.306C166.901 257.922 165.981 257.266 165.181 256.338C164.653 256.786 164.109 257.25 163.549 257.73C163.005 258.21 162.405 258.706 161.749 259.218L160.333 256.218C160.893 255.882 161.477 255.514 162.085 255.114C162.693 254.714 163.277 254.298 163.837 253.866H166.453ZM160.885 239.202L163.021 237.474C163.517 237.794 164.021 238.17 164.533 238.602C165.045 239.018 165.525 239.45 165.973 239.898C166.421 240.33 166.781 240.73 167.053 241.098L164.773 243.018C164.533 242.634 164.197 242.218 163.765 241.77C163.349 241.322 162.885 240.874 162.373 240.426C161.861 239.962 161.365 239.554 160.885 239.202ZM178.285 236.898L181.213 237.81C180.781 238.498 180.333 239.178 179.869 239.85C179.421 240.506 179.005 241.066 178.621 241.53L176.269 240.714C176.509 240.346 176.757 239.946 177.013 239.514C177.269 239.066 177.509 238.618 177.733 238.17C177.957 237.706 178.141 237.282 178.285 236.898ZM168.877 237.954L171.301 236.946C171.749 237.49 172.173 238.106 172.573 238.794C172.973 239.482 173.253 240.09 173.413 240.618L170.821 241.722C170.693 241.21 170.437 240.602 170.053 239.898C169.685 239.178 169.293 238.53 168.877 237.954ZM190.477 243.714H202.933V246.33H190.477V243.714ZM186.013 248.058H207.517V250.746H186.013V248.058ZM191.821 250.218H194.941C194.829 251.322 194.645 252.354 194.389 253.314C194.133 254.258 193.725 255.122 193.165 255.906C192.621 256.674 191.853 257.362 190.861 257.97C189.869 258.578 188.589 259.09 187.021 259.506C186.925 259.25 186.781 258.962 186.589 258.642C186.413 258.322 186.213 258.002 185.989 257.682C185.765 257.378 185.549 257.13 185.341 256.938C186.717 256.634 187.813 256.266 188.629 255.834C189.461 255.402 190.085 254.914 190.501 254.37C190.933 253.81 191.237 253.186 191.413 252.498C191.605 251.794 191.741 251.034 191.821 250.218ZM198.013 249.738H200.917V255.594C200.917 255.978 200.973 256.226 201.085 256.338C201.213 256.434 201.493 256.482 201.925 256.482C202.021 256.482 202.173 256.482 202.381 256.482C202.589 256.482 202.821 256.482 203.077 256.482C203.333 256.482 203.573 256.482 203.797 256.482C204.021 256.482 204.197 256.482 204.325 256.482C204.581 256.482 204.773 256.418 204.901 256.29C205.045 256.162 205.141 255.89 205.189 255.474C205.253 255.042 205.301 254.41 205.333 253.578C205.541 253.722 205.797 253.866 206.101 254.01C206.405 254.154 206.717 254.282 207.037 254.394C207.373 254.506 207.669 254.602 207.925 254.682C207.829 255.834 207.661 256.73 207.421 257.37C207.181 258.026 206.837 258.474 206.389 258.714C205.957 258.97 205.357 259.098 204.589 259.098C204.445 259.098 204.229 259.098 203.941 259.098C203.669 259.098 203.365 259.098 203.029 259.098C202.709 259.098 202.405 259.098 202.117 259.098C201.845 259.098 201.637 259.098 201.493 259.098C200.565 259.098 199.845 258.994 199.333 258.786C198.837 258.578 198.493 258.218 198.301 257.706C198.109 257.194 198.013 256.506 198.013 255.642V249.738ZM195.157 236.922H198.229V241.29H195.157V236.922ZM186.445 239.226H207.061V244.938H203.989V241.962H189.373V244.938H186.445V239.226ZM214.453 249.57H230.725V252.042H214.453V249.57ZM211.189 240.81H227.101V243.402H211.189V240.81ZM218.293 245.226H229.165V247.698H218.293V245.226ZM229.621 249.57H232.477C232.477 249.57 232.469 249.642 232.453 249.786C232.453 249.914 232.445 250.066 232.429 250.242C232.429 250.418 232.421 250.562 232.405 250.674C232.277 252.306 232.133 253.65 231.973 254.706C231.829 255.746 231.661 256.57 231.469 257.178C231.277 257.77 231.053 258.202 230.797 258.474C230.525 258.778 230.229 258.994 229.909 259.122C229.605 259.25 229.253 259.338 228.853 259.386C228.533 259.434 228.093 259.458 227.533 259.458C226.989 259.474 226.413 259.466 225.805 259.434C225.789 259.05 225.701 258.61 225.541 258.114C225.397 257.618 225.213 257.186 224.989 256.818C225.517 256.866 226.013 256.898 226.477 256.914C226.941 256.93 227.293 256.93 227.533 256.914C227.725 256.914 227.885 256.898 228.013 256.866C228.157 256.834 228.293 256.762 228.421 256.65C228.581 256.49 228.725 256.17 228.853 255.69C228.997 255.194 229.133 254.482 229.261 253.554C229.389 252.626 229.509 251.434 229.621 249.978V249.57ZM224.509 252.882L226.477 252.21C226.813 252.706 227.125 253.25 227.413 253.842C227.701 254.434 227.909 254.946 228.037 255.378L225.925 256.17C225.829 255.738 225.645 255.21 225.373 254.586C225.101 253.962 224.813 253.394 224.509 252.882ZM213.877 237.906L216.469 236.898C216.901 237.362 217.341 237.89 217.789 238.482C218.237 239.074 218.581 239.594 218.821 240.042L216.061 241.17C215.885 240.738 215.581 240.218 215.149 239.61C214.733 238.986 214.309 238.418 213.877 237.906ZM217.261 253.53L219.589 253.266C219.813 254.034 219.981 254.882 220.093 255.81C220.205 256.722 220.261 257.514 220.261 258.186L217.789 258.498C217.821 258.066 217.813 257.562 217.765 256.986C217.733 256.41 217.669 255.826 217.573 255.234C217.493 254.626 217.389 254.058 217.261 253.53ZM220.885 253.338L223.093 252.834C223.381 253.522 223.645 254.258 223.885 255.042C224.125 255.826 224.285 256.514 224.365 257.106L222.037 257.682C221.973 257.09 221.829 256.386 221.605 255.57C221.381 254.754 221.141 254.01 220.885 253.338ZM214.045 252.738L216.469 253.53C216.309 254.234 216.109 254.938 215.869 255.642C215.645 256.33 215.365 256.994 215.029 257.634C214.693 258.274 214.293 258.85 213.829 259.362L211.597 257.778C212.013 257.362 212.373 256.882 212.677 256.338C212.997 255.794 213.269 255.218 213.493 254.61C213.733 253.986 213.917 253.362 214.045 252.738ZM221.293 236.874L224.245 237.594C223.701 239.306 223.053 240.986 222.301 242.634C221.565 244.266 220.685 245.826 219.661 247.314C218.653 248.786 217.485 250.146 216.157 251.394C214.829 252.626 213.317 253.69 211.621 254.586C211.509 254.362 211.357 254.098 211.165 253.794C210.989 253.474 210.805 253.162 210.613 252.858C210.421 252.554 210.237 252.298 210.061 252.09C211.597 251.322 212.965 250.386 214.165 249.282C215.381 248.178 216.445 246.954 217.357 245.61C218.285 244.266 219.069 242.858 219.709 241.386C220.365 239.898 220.893 238.394 221.293 236.874ZM226.525 240.81H229.189C229.013 241.706 228.813 242.642 228.589 243.618C228.381 244.594 228.181 245.434 227.989 246.138L225.469 245.73C225.661 245.074 225.853 244.298 226.045 243.402C226.237 242.49 226.397 241.626 226.525 240.81ZM228.085 245.226H230.749C230.589 246.106 230.405 247.026 230.197 247.986C229.989 248.946 229.781 249.77 229.573 250.458L227.053 250.122C227.245 249.45 227.437 248.666 227.629 247.77C227.821 246.874 227.973 246.026 228.085 245.226ZM247.549 244.434H256.381V247.338H247.549V244.434ZM235.669 255.354H257.701V258.234H235.669V255.354ZM246.133 236.922H249.205V256.89H246.133V236.922ZM238.741 241.866H241.741V256.746H238.741V241.866Z" fill="white"/>
<path d="M42.396 140.99H48.544V194.988H42.396V140.99ZM35.03 160.072H54.112V166.568H35.03V160.072ZM42.338 163.494L46.224 165.408C45.76 167.341 45.1993 169.391 44.542 171.556C43.9233 173.683 43.2273 175.809 42.454 177.936C41.6807 180.063 40.8493 182.073 39.96 183.968C39.1093 185.863 38.22 187.506 37.292 188.898C37.06 188.163 36.7507 187.371 36.364 186.52C36.016 185.631 35.6293 184.761 35.204 183.91C34.8173 183.021 34.4307 182.267 34.044 181.648C35.204 180.217 36.306 178.458 37.35 176.37C38.4327 174.243 39.3993 172.059 40.25 169.816C41.1393 167.535 41.8353 165.427 42.338 163.494ZM48.718 167.032C49.066 167.419 49.588 168.076 50.284 169.004C51.0187 169.932 51.792 170.957 52.604 172.078C53.4547 173.161 54.228 174.185 54.924 175.152C55.62 176.08 56.1033 176.757 56.374 177.182L51.966 182.518C51.618 181.667 51.1733 180.681 50.632 179.56C50.1293 178.4 49.5493 177.201 48.892 175.964C48.2733 174.727 47.6547 173.567 47.036 172.484C46.4173 171.363 45.8953 170.415 45.47 169.642L48.718 167.032ZM34.972 145.456L39.496 144.354C39.9987 145.707 40.4433 147.196 40.83 148.82C41.2553 150.405 41.6033 151.952 41.874 153.46C42.1447 154.929 42.3187 156.263 42.396 157.462L37.582 158.68C37.5433 157.481 37.3887 156.128 37.118 154.62C36.886 153.112 36.5767 151.546 36.19 149.922C35.842 148.298 35.436 146.809 34.972 145.456ZM51.038 144.006L56.548 145.166C56.084 146.674 55.6007 148.259 55.098 149.922C54.5953 151.546 54.0927 153.112 53.59 154.62C53.126 156.089 52.662 157.404 52.198 158.564L48.08 157.346C48.4667 156.147 48.8533 154.775 49.24 153.228C49.6267 151.681 49.9747 150.096 50.284 148.472C50.632 146.848 50.8833 145.359 51.038 144.006ZM57.244 144.992H87.52V149.922H57.244V144.992ZM58.694 152.242H86.244V156.882H58.694V152.242ZM55.62 159.434H89.028V164.422H55.62V159.434ZM68.554 140.816H75.108V162.218H68.554V140.816ZM58.694 166.8H80.734V171.73H65.132V195.22H58.694V166.8ZM79.11 166.8H85.664V188.956C85.664 190.387 85.49 191.508 85.142 192.32C84.794 193.132 84.1173 193.77 83.112 194.234C82.1067 194.659 80.908 194.93 79.516 195.046C78.124 195.162 76.5 195.201 74.644 195.162C74.528 194.311 74.296 193.364 73.948 192.32C73.6 191.315 73.2327 190.425 72.846 189.652C73.9287 189.691 74.992 189.729 76.036 189.768C77.08 189.768 77.7953 189.749 78.182 189.71C78.5687 189.71 78.82 189.652 78.936 189.536C79.052 189.381 79.11 189.149 79.11 188.84V166.8ZM62.29 174.514H81.372V179.096H62.29V174.514ZM62.29 181.88H81.372V186.404H62.29V181.88ZM98.714 147.892H145.926V153.982H98.714V147.892ZM101.382 156.94H143.664V162.798H101.382V156.94ZM96.336 165.756H148.246V171.962H96.336V165.756ZM95.988 175.558H148.942V181.59H95.988V175.558ZM118.608 151.72H125.8V170.744H118.608V151.72ZM105.732 143.02L111.88 140.584C112.808 141.551 113.659 142.653 114.432 143.89C115.244 145.127 115.843 146.249 116.23 147.254L109.734 150.096C109.425 149.052 108.883 147.873 108.11 146.558C107.375 145.243 106.583 144.064 105.732 143.02ZM131.658 140.526L139.14 142.44C138.251 143.755 137.361 145.011 136.472 146.21C135.583 147.37 134.771 148.356 134.036 149.168L127.714 147.37C128.178 146.751 128.642 146.036 129.106 145.224C129.609 144.412 130.092 143.6 130.556 142.788C131.02 141.976 131.387 141.222 131.658 140.526ZM117.796 170.918H125.162C124.93 173.47 124.543 175.848 124.002 178.052C123.461 180.256 122.629 182.247 121.508 184.026C120.387 185.805 118.859 187.409 116.926 188.84C115.031 190.232 112.576 191.45 109.56 192.494C106.544 193.538 102.832 194.427 98.424 195.162C98.2693 194.505 97.9987 193.789 97.612 193.016C97.2253 192.281 96.7807 191.527 96.278 190.754C95.814 190.019 95.35 189.401 94.886 188.898C98.8687 188.357 102.175 187.719 104.804 186.984C107.472 186.211 109.618 185.321 111.242 184.316C112.866 183.272 114.123 182.093 115.012 180.778C115.901 179.463 116.539 177.994 116.926 176.37C117.313 174.707 117.603 172.89 117.796 170.918ZM126.844 177.356C128.507 180.991 131.233 183.717 135.022 185.534C138.811 187.313 143.857 188.415 150.16 188.84C149.657 189.343 149.135 189.981 148.594 190.754C148.053 191.527 147.55 192.301 147.086 193.074C146.622 193.886 146.255 194.621 145.984 195.278C141.344 194.737 137.381 193.809 134.094 192.494C130.846 191.179 128.12 189.381 125.916 187.1C123.751 184.78 121.914 181.919 120.406 178.516L126.844 177.356ZM179.044 141.512H186.642V186.462C186.642 188.627 186.371 190.251 185.83 191.334C185.289 192.417 184.361 193.248 183.046 193.828C181.693 194.369 179.991 194.717 177.942 194.872C175.931 195.065 173.515 195.143 170.692 195.104C170.576 194.447 170.363 193.673 170.054 192.784C169.745 191.933 169.397 191.063 169.01 190.174C168.662 189.285 168.295 188.531 167.908 187.912C169.184 187.951 170.46 187.989 171.736 188.028C173.012 188.067 174.153 188.086 175.158 188.086C176.163 188.047 176.879 188.028 177.304 188.028C177.923 188.028 178.367 187.912 178.638 187.68C178.909 187.448 179.044 187.042 179.044 186.462V141.512ZM192.964 156.766L199.808 154.214C201.393 156.959 202.921 159.898 204.39 163.03C205.898 166.123 207.213 169.178 208.334 172.194C209.494 175.171 210.325 177.878 210.828 180.314L203.172 183.33C202.785 180.971 202.07 178.284 201.026 175.268C200.021 172.213 198.803 169.081 197.372 165.872C195.98 162.624 194.511 159.589 192.964 156.766ZM163.848 154.852L171.736 156.186C171.079 159.047 170.286 162.102 169.358 165.35C168.43 168.559 167.328 171.633 166.052 174.572C164.815 177.472 163.384 180.005 161.76 182.17C161.18 181.745 160.465 181.3 159.614 180.836C158.802 180.372 157.971 179.947 157.12 179.56C156.308 179.135 155.573 178.787 154.916 178.516C156.501 176.544 157.874 174.205 159.034 171.498C160.233 168.753 161.238 165.93 162.05 163.03C162.862 160.091 163.461 157.365 163.848 154.852ZM243.25 183.446L248.644 181.996C249.301 183.001 249.862 184.103 250.326 185.302C250.79 186.501 251.119 187.564 251.312 188.492L245.628 190.174C245.512 189.246 245.222 188.144 244.758 186.868C244.294 185.592 243.791 184.451 243.25 183.446ZM258.562 181.88L264.594 183.504C263.975 184.741 263.357 185.94 262.738 187.1C262.158 188.26 261.617 189.246 261.114 190.058L255.952 188.55C256.416 187.622 256.899 186.52 257.402 185.244C257.905 183.968 258.291 182.847 258.562 181.88ZM246.44 175.442V178.342H260.824V175.442H246.44ZM240.64 171.324H266.798V182.46H240.64V171.324ZM244.352 155.316V157.984H262.68V155.316H244.352ZM244.352 148.704V151.314H262.68V148.704H244.352ZM238.842 144.47H268.48V162.218H238.842V144.47ZM237.972 164.19H269.466V169.41H237.972V164.19ZM236.812 188.956H270.278V194.118H236.812V188.956ZM246.614 140.7H251.718V147.602H246.614V140.7ZM255.14 140.7H260.302V147.602H255.14V140.7ZM247.6 146.442H251.718V161.406H247.6V146.442ZM255.14 146.442H259.258V161.406H255.14V146.442ZM216.338 155.896H236.696V161.928H216.338V155.896ZM217.73 144.354H235.536V150.328H217.73V144.354ZM232.114 164.886H236.522V186.462H232.114V164.886ZM223.936 158.912H229.678V195.162H223.936V158.912ZM217.15 164.944H221.558V171.904C221.558 174.881 221.423 178.013 221.152 181.3C220.881 184.548 220.243 187.564 219.238 190.348C218.774 189.884 218.155 189.362 217.382 188.782C216.609 188.202 215.932 187.757 215.352 187.448C216.125 185.089 216.609 182.518 216.802 179.734C217.034 176.95 217.15 174.301 217.15 171.788V164.944Z" fill="white"/>
<ellipse cx="76.3207" cy="68.2859" rx="54.1017" ry="56" fill="#6EE292"/>
<path d="M45.4582 90.212V76.5046L75.2523 29.5586H87.4327V48.1666H80.3659L62.9298 75.7944V76.3626H106.076V90.212H45.4582ZM80.579 102.286V86.0217L80.9341 80.0203V29.5586H97.3758V102.286H80.579Z" fill="white"/>
</svg>
