<svg width="570" height="311" viewBox="0 0 570 311" fill="none" xmlns="http://www.w3.org/2000/svg">
<path d="M0 28.6289H540C556.569 28.6289 570 42.0604 570 58.6289V311H30C13.4314 311 0 297.569 0 281V28.6289Z" fill="#FF5F17"/>
<line x1="347.797" y1="218.5" x2="38.6443" y2="218.5" stroke="white"/>
<path d="M157.378 102.782H161.186V106.43C161.186 106.856 161.293 107.134 161.506 107.262C161.719 107.368 162.21 107.422 162.978 107.422C163.149 107.422 163.437 107.422 163.842 107.422C164.247 107.422 164.685 107.422 165.154 107.422C165.623 107.422 166.071 107.422 166.498 107.422C166.925 107.422 167.255 107.422 167.49 107.422C167.895 107.422 168.194 107.368 168.386 107.262C168.599 107.134 168.759 106.878 168.866 106.494C168.973 106.11 169.037 105.534 169.058 104.766C169.442 105.022 169.965 105.278 170.626 105.534C171.309 105.768 171.906 105.928 172.418 106.014C172.269 107.272 172.034 108.232 171.714 108.894C171.394 109.555 170.925 110.014 170.306 110.27C169.709 110.526 168.887 110.654 167.842 110.654C167.671 110.654 167.405 110.654 167.042 110.654C166.701 110.654 166.306 110.654 165.858 110.654C165.41 110.654 164.962 110.654 164.514 110.654C164.066 110.654 163.661 110.654 163.298 110.654C162.957 110.654 162.701 110.654 162.53 110.654C161.143 110.654 160.077 110.526 159.33 110.27C158.583 110.035 158.071 109.608 157.794 108.99C157.517 108.392 157.378 107.56 157.378 106.494V102.782ZM161.314 102.238L163.906 100.382C164.439 100.723 164.994 101.118 165.57 101.566C166.146 101.992 166.679 102.44 167.17 102.91C167.661 103.379 168.045 103.827 168.322 104.254L165.57 106.27C165.165 105.651 164.557 104.968 163.746 104.222C162.957 103.475 162.146 102.814 161.314 102.238ZM171.33 104.062L174.37 102.398C174.989 102.974 175.618 103.624 176.258 104.35C176.898 105.054 177.485 105.768 178.018 106.494C178.551 107.198 178.957 107.859 179.234 108.478L175.906 110.366C175.671 109.768 175.298 109.096 174.786 108.35C174.295 107.624 173.751 106.888 173.154 106.142C172.557 105.374 171.949 104.68 171.33 104.062ZM149.826 84.4457L152.098 81.7257C152.738 82.0031 153.41 82.3337 154.114 82.7177C154.839 83.1017 155.522 83.4964 156.162 83.9017C156.802 84.2857 157.335 84.6591 157.762 85.0217L155.33 88.0297C154.967 87.6671 154.466 87.2724 153.826 86.8457C153.207 86.3977 152.535 85.9711 151.81 85.5657C151.106 85.1391 150.445 84.7657 149.826 84.4457ZM169.634 96.3497L171.682 95.5177C172.023 95.9017 172.354 96.3497 172.674 96.8617C172.994 97.3737 173.229 97.8217 173.378 98.2057L171.234 99.1337C171.106 98.7284 170.893 98.2697 170.594 97.7577C170.295 97.2244 169.975 96.7551 169.634 96.3497ZM165.858 96.7977L168.322 96.1257C168.621 96.6591 168.909 97.2564 169.186 97.9177C169.463 98.5791 169.645 99.1551 169.73 99.6458L167.17 100.414C167.085 99.9231 166.914 99.3471 166.658 98.6858C166.423 98.0031 166.157 97.3737 165.858 96.7977ZM153.282 102.11L156.514 103.39C156.066 104.67 155.49 105.939 154.786 107.198C154.082 108.435 153.218 109.502 152.194 110.398L149.09 108.254C150.071 107.507 150.914 106.59 151.618 105.502C152.322 104.414 152.877 103.283 153.282 102.11ZM159.746 82.0457H177.154V84.7657H163.394V94.0777H159.746V82.0457ZM162.338 85.8857H175.938V88.1257H162.338V85.8857ZM162.338 89.2778H175.938V91.5497H162.338V89.2778ZM159.746 92.7337H176.13V95.4217H159.746V92.7337ZM167.17 83.3897H170.626V93.9817H167.17V83.3897ZM149.346 97.4377C149.943 96.8404 150.605 96.1364 151.33 95.3257C152.077 94.5151 152.845 93.6404 153.634 92.7017C154.423 91.7631 155.181 90.8244 155.906 89.8857L158.21 92.3177C157.591 93.1711 156.951 94.0457 156.29 94.9417C155.65 95.8377 154.989 96.7231 154.306 97.5977C153.645 98.4724 152.973 99.3151 152.29 100.126L149.346 97.4377ZM158.594 95.4537L161.346 96.5417C161.047 97.4804 160.663 98.4297 160.194 99.3897C159.725 100.35 159.138 101.16 158.434 101.822L155.778 100.222C156.439 99.6457 157.005 98.9204 157.474 98.0457C157.965 97.1711 158.338 96.3071 158.594 95.4537ZM174.786 92.7337H178.178C178.178 92.7337 178.167 92.8831 178.146 93.1817C178.146 93.4591 178.125 93.7044 178.082 93.9177C177.997 95.4111 177.89 96.6484 177.762 97.6297C177.634 98.5897 177.495 99.3577 177.346 99.9337C177.197 100.488 177.005 100.894 176.77 101.15C176.514 101.448 176.226 101.672 175.906 101.822C175.586 101.971 175.245 102.056 174.882 102.078C174.583 102.142 174.178 102.184 173.666 102.206C173.154 102.206 172.589 102.195 171.97 102.174C171.949 101.747 171.863 101.278 171.714 100.766C171.586 100.232 171.426 99.7737 171.234 99.3897C171.661 99.4324 172.034 99.4644 172.354 99.4857C172.695 99.4857 172.941 99.4857 173.09 99.4857C173.453 99.4857 173.719 99.3897 173.89 99.1977C174.103 98.9631 174.274 98.4084 174.402 97.5337C174.551 96.6377 174.679 95.1764 174.786 93.1497V92.7337ZM161.73 96.8937L164.386 96.3497C164.621 96.9897 164.823 97.6937 164.994 98.4617C165.186 99.2084 165.314 99.8591 165.378 100.414L162.53 101.022C162.53 100.467 162.455 99.8057 162.306 99.0377C162.157 98.2484 161.965 97.5337 161.73 96.8937ZM190.338 101.758H202.69V103.838H190.338V101.758ZM192.098 98.9417H203.394V100.734H192.098V98.9417ZM192.098 96.1897H203.266V97.9497H192.098V96.1897ZM196.034 94.3657H198.914V102.974H196.034V94.3657ZM202.242 101.758H205.186C205.186 101.758 205.186 101.886 205.186 102.142C205.186 102.376 205.175 102.59 205.154 102.782C205.09 104.126 205.015 105.235 204.93 106.11C204.866 106.984 204.77 107.656 204.642 108.126C204.535 108.616 204.375 108.99 204.162 109.246C203.949 109.502 203.693 109.694 203.394 109.822C203.095 109.95 202.775 110.035 202.434 110.078C202.114 110.099 201.709 110.11 201.218 110.11C200.749 110.131 200.247 110.131 199.714 110.11C199.693 109.747 199.618 109.342 199.49 108.894C199.362 108.467 199.213 108.104 199.042 107.806C199.447 107.848 199.81 107.88 200.13 107.902C200.471 107.923 200.727 107.923 200.898 107.902C201.218 107.923 201.463 107.838 201.634 107.646C201.783 107.454 201.901 106.963 201.986 106.174C202.093 105.363 202.178 104.019 202.242 102.142V101.758ZM189.73 104.382L191.97 104.958C191.821 105.918 191.597 106.846 191.298 107.742C190.999 108.616 190.53 109.342 189.89 109.918L187.874 108.574C188.386 108.104 188.791 107.486 189.09 106.718C189.41 105.95 189.623 105.171 189.73 104.382ZM198.562 104.638L200.098 104.158C200.397 104.563 200.653 105.022 200.866 105.534C201.079 106.046 201.239 106.494 201.346 106.878L199.714 107.486C199.629 107.08 199.479 106.611 199.266 106.078C199.074 105.544 198.839 105.064 198.562 104.638ZM192.77 105.15L194.658 104.894C194.786 105.555 194.871 106.291 194.914 107.102C194.978 107.912 194.999 108.584 194.978 109.118L192.93 109.438C192.994 108.862 193.005 108.179 192.962 107.39C192.941 106.579 192.877 105.832 192.77 105.15ZM195.778 104.99L197.538 104.574C197.751 105.15 197.933 105.79 198.082 106.494C198.231 107.176 198.327 107.763 198.37 108.254L196.514 108.766C196.493 108.254 196.418 107.646 196.29 106.942C196.162 106.238 195.991 105.587 195.778 104.99ZM190.338 93.1177H204.194V95.2297H193.346V102.91H190.338V93.1177ZM185.698 85.6937H193.762V87.8697H185.698V85.6937ZM200.322 85.6937H208.45V87.8697H200.322V85.6937ZM207.298 81.9497H210.978V107.134C210.978 107.987 210.882 108.659 210.69 109.15C210.519 109.662 210.178 110.067 209.666 110.366C209.175 110.664 208.557 110.846 207.81 110.91C207.085 110.974 206.221 111.006 205.218 111.006C205.175 110.536 205.058 109.971 204.866 109.31C204.674 108.648 204.461 108.094 204.226 107.646C204.738 107.667 205.239 107.678 205.73 107.678C206.242 107.678 206.594 107.678 206.786 107.678C206.978 107.656 207.106 107.603 207.17 107.518C207.255 107.432 207.298 107.294 207.298 107.102V81.9497ZM186.05 81.9497H196.194V91.7097H186.05V89.2778H192.61V84.3817H186.05V81.9497ZM209.154 81.9497V84.3817H201.954V89.2457H209.154V91.6777H198.306V81.9497H209.154ZM183.778 81.9497H187.362V111.006H183.778V81.9497ZM227.49 97.8857L229.346 97.3097C229.709 97.8431 230.039 98.4404 230.338 99.1017C230.658 99.7417 230.871 100.307 230.978 100.798L229.026 101.47C228.919 100.958 228.717 100.371 228.418 99.7097C228.141 99.0484 227.831 98.4404 227.49 97.8857ZM222.146 95.4537L223.362 93.9817C223.938 94.3657 224.535 94.8244 225.154 95.3577C225.773 95.8911 226.231 96.3711 226.53 96.7977L225.25 98.4937C224.951 98.0457 224.503 97.5337 223.906 96.9577C223.309 96.3817 222.722 95.8804 222.146 95.4537ZM225.698 91.9338L227.906 92.7977C227.479 93.3311 227.042 93.8751 226.594 94.4297C226.167 94.9844 225.762 95.4431 225.378 95.8057L223.682 95.0697C224.023 94.6217 224.386 94.0991 224.77 93.5017C225.154 92.9044 225.463 92.3817 225.698 91.9338ZM227.874 94.2697L229.858 95.1337C229.325 95.7097 228.759 96.3071 228.162 96.9257C227.565 97.5444 226.978 98.1417 226.402 98.7177C225.826 99.2724 225.282 99.7631 224.77 100.19L223.298 99.4217C223.81 98.9524 224.343 98.4191 224.898 97.8217C225.474 97.2031 226.018 96.5844 226.53 95.9657C227.063 95.3257 227.511 94.7604 227.874 94.2697ZM231.202 101.374H233.826V110.334H231.202V101.374ZM221.858 99.1657C222.882 99.1017 224.034 99.0377 225.314 98.9737C226.615 98.8884 227.991 98.7924 229.442 98.6858V100.638C228.119 100.766 226.839 100.883 225.602 100.99C224.365 101.075 223.202 101.16 222.114 101.246L221.858 99.1657ZM235.554 97.6937L237.506 97.1177C237.89 97.7151 238.253 98.3764 238.594 99.1017C238.935 99.8057 239.17 100.435 239.298 100.99L237.282 101.63C237.175 101.096 236.962 100.467 236.642 99.7417C236.322 98.9951 235.959 98.3124 235.554 97.6937ZM229.762 95.2937L231.138 93.8857C231.778 94.3124 232.418 94.8244 233.058 95.4217C233.719 96.0191 234.21 96.5631 234.53 97.0537L233.122 98.6537C232.802 98.1417 232.322 97.5764 231.682 96.9577C231.042 96.3177 230.402 95.7631 229.762 95.2937ZM233.442 91.9017L235.778 92.7657C235.287 93.3844 234.797 93.9817 234.306 94.5577C233.815 95.1337 233.357 95.6457 232.93 96.0937L231.202 95.3257C231.586 94.8564 231.991 94.2911 232.418 93.6297C232.845 92.9684 233.186 92.3924 233.442 91.9017ZM235.746 94.2697L237.762 95.1977C237.207 95.7951 236.621 96.4137 236.002 97.0537C235.383 97.6937 234.765 98.3017 234.146 98.8777C233.527 99.4537 232.93 99.9657 232.354 100.414L230.882 99.5817C231.415 99.1124 231.981 98.5791 232.578 97.9817C233.197 97.3631 233.783 96.7337 234.338 96.0937C234.893 95.4324 235.362 94.8244 235.746 94.2697ZM230.402 99.1657C231.383 99.1231 232.503 99.0591 233.762 98.9737C235.042 98.8884 236.386 98.8031 237.794 98.7177V100.638C236.557 100.766 235.341 100.883 234.146 100.99C232.973 101.075 231.874 101.16 230.85 101.246L230.402 99.1657ZM222.85 101.918H225.186V104.67H228.642V106.814H222.85V101.918ZM235.81 101.918H238.21V106.814H233.282V104.67H235.81V101.918ZM227.138 101.374H229.666V104.478C229.666 105.31 229.559 106.12 229.346 106.91C229.133 107.699 228.695 108.424 228.034 109.086C227.373 109.747 226.359 110.312 224.994 110.782C224.845 110.462 224.599 110.099 224.258 109.694C223.917 109.288 223.618 108.958 223.362 108.702C224.471 108.382 225.293 107.998 225.826 107.55C226.359 107.08 226.711 106.579 226.882 106.046C227.053 105.512 227.138 104.968 227.138 104.414V101.374ZM218.978 86.2057H227.042V88.5417H218.978V86.2057ZM233.698 86.2057H241.826V88.5417H233.698V86.2057ZM240.546 82.1417H244.226V106.558C244.226 107.475 244.141 108.211 243.97 108.766C243.799 109.342 243.437 109.79 242.882 110.11C242.349 110.43 241.698 110.622 240.93 110.686C240.162 110.771 239.245 110.814 238.178 110.814C238.135 110.451 238.061 110.046 237.954 109.598C237.847 109.15 237.719 108.691 237.57 108.222C237.442 107.774 237.293 107.39 237.122 107.07C237.698 107.091 238.263 107.112 238.818 107.134C239.394 107.134 239.789 107.123 240.002 107.102C240.215 107.102 240.354 107.059 240.418 106.974C240.503 106.888 240.546 106.739 240.546 106.526V82.1417ZM219.33 82.1417H229.474V92.5737H219.33V90.0138H225.89V84.7017H219.33V82.1417ZM242.434 82.1417V84.7017H235.234V90.0138H242.434V92.5737H231.586V82.1417H242.434ZM217.058 82.1417H220.706V110.974H217.058V82.1417ZM249.314 92.2217H278.466V96.0297H249.314V92.2217ZM263.586 84.8297H274.978V88.5097H263.586V84.8297ZM261.09 80.8937H265.186V94.0457H261.09V80.8937ZM261.09 94.6537H265.186V110.942H261.09V94.6537ZM264.002 100.766L265.954 97.6937C266.765 97.9284 267.65 98.2057 268.61 98.5257C269.57 98.8244 270.541 99.1551 271.522 99.5177C272.503 99.8591 273.431 100.2 274.306 100.542C275.181 100.883 275.917 101.203 276.514 101.502L274.466 104.99C273.89 104.67 273.175 104.328 272.322 103.966C271.49 103.603 270.594 103.23 269.634 102.846C268.674 102.462 267.703 102.088 266.722 101.726C265.762 101.363 264.855 101.043 264.002 100.766ZM299.421 93.0217H319.869V96.4777H299.421V93.0217ZM300.541 86.5577H318.781V89.9497H300.541V86.5577ZM307.293 88.2217H311.133V93.3417C311.133 94.3657 311.005 95.4324 310.749 96.5417C310.514 97.6511 310.066 98.7604 309.405 99.8698C308.765 100.958 307.837 102.014 306.621 103.038C305.426 104.04 303.88 104.958 301.981 105.79C301.81 105.512 301.576 105.203 301.277 104.862C300.978 104.52 300.669 104.179 300.349 103.838C300.029 103.496 299.72 103.219 299.421 103.006C301.234 102.344 302.664 101.608 303.709 100.798C304.776 99.9871 305.554 99.1444 306.045 98.2697C306.557 97.3951 306.888 96.5417 307.037 95.7097C307.208 94.8564 307.293 94.0564 307.293 93.3097V88.2217ZM311.709 95.4537C312.37 97.2244 313.373 98.7284 314.717 99.9657C316.082 101.182 317.832 102.056 319.965 102.59C319.688 102.846 319.389 103.166 319.069 103.55C318.77 103.934 318.482 104.328 318.205 104.734C317.949 105.118 317.725 105.48 317.533 105.822C315.186 105.054 313.288 103.848 311.837 102.206C310.386 100.563 309.266 98.5471 308.477 96.1577L311.709 95.4537ZM298.141 93.3737V105.182H294.397V96.9257H290.685V93.3737H298.141ZM298.141 103.518C298.802 104.563 299.73 105.331 300.925 105.822C302.12 106.312 303.549 106.59 305.213 106.654C306.152 106.696 307.261 106.728 308.541 106.75C309.842 106.75 311.208 106.739 312.637 106.718C314.066 106.696 315.464 106.654 316.829 106.59C318.216 106.526 319.442 106.451 320.509 106.366C320.381 106.664 320.232 107.048 320.061 107.518C319.89 107.987 319.73 108.467 319.581 108.958C319.453 109.448 319.357 109.886 319.293 110.27C318.333 110.334 317.234 110.376 315.997 110.398C314.76 110.44 313.49 110.462 312.189 110.462C310.888 110.483 309.629 110.483 308.413 110.462C307.197 110.44 306.109 110.408 305.149 110.366C303.186 110.28 301.512 109.971 300.125 109.438C298.738 108.926 297.512 108.051 296.445 106.814C295.741 107.411 295.016 108.03 294.269 108.67C293.544 109.31 292.744 109.971 291.869 110.654L289.981 106.654C290.728 106.206 291.506 105.715 292.317 105.182C293.128 104.648 293.906 104.094 294.653 103.518H298.141ZM290.717 83.9657L293.565 81.6617C294.226 82.0884 294.898 82.5897 295.581 83.1657C296.264 83.7204 296.904 84.2964 297.501 84.8937C298.098 85.4697 298.578 86.0031 298.941 86.4937L295.901 89.0537C295.581 88.5417 295.133 87.9871 294.557 87.3897C294.002 86.7924 293.384 86.1951 292.701 85.5977C292.018 84.9791 291.357 84.4351 290.717 83.9657ZM313.917 80.8937L317.821 82.1097C317.245 83.0271 316.648 83.9337 316.029 84.8297C315.432 85.7044 314.877 86.4511 314.365 87.0697L311.229 85.9817C311.549 85.4911 311.88 84.9577 312.221 84.3817C312.562 83.7844 312.882 83.1871 313.181 82.5897C313.48 81.9711 313.725 81.4057 313.917 80.8937ZM301.373 82.3017L304.605 80.9577C305.202 81.6831 305.768 82.5044 306.301 83.4217C306.834 84.3391 307.208 85.1497 307.421 85.8537L303.965 87.3257C303.794 86.6431 303.453 85.8324 302.941 84.8937C302.45 83.9337 301.928 83.0697 301.373 82.3017Z" fill="white"/>
<path d="M48.1518 239.072H56.4078V241.424H48.1518V239.072ZM44.0238 252.992C44.7438 252.88 45.5758 252.744 46.5198 252.584C47.4798 252.424 48.4958 252.256 49.5678 252.08C50.6398 251.888 51.7038 251.696 52.7598 251.504L52.9998 254C51.6078 254.32 50.2078 254.632 48.7998 254.936C47.3918 255.256 46.1118 255.536 44.9598 255.776L44.0238 252.992ZM46.5198 234.68H49.3038V253.64H46.5198V234.68ZM48.1518 234.68H57.7278V245.912H48.1518V243.44H54.8718V237.152H48.1518V234.68ZM53.1438 244.256C53.4478 245.696 53.8638 247.032 54.3918 248.264C54.9198 249.48 55.5918 250.552 56.4078 251.48C57.2238 252.408 58.2238 253.128 59.4078 253.64C59.1998 253.832 58.9758 254.064 58.7358 254.336C58.4958 254.624 58.2638 254.92 58.0398 255.224C57.8318 255.544 57.6638 255.832 57.5358 256.088C56.2398 255.4 55.1518 254.504 54.2718 253.4C53.4078 252.28 52.6958 250.984 52.1358 249.512C51.5758 248.04 51.1198 246.424 50.7678 244.664L53.1438 244.256ZM56.6238 246.08L58.8798 247.64C58.2238 248.28 57.5278 248.912 56.7918 249.536C56.0718 250.144 55.4078 250.664 54.7998 251.096L53.0238 249.728C53.4078 249.408 53.8158 249.04 54.2478 248.624C54.6958 248.208 55.1278 247.776 55.5438 247.328C55.9598 246.88 56.3198 246.464 56.6238 246.08ZM37.7838 234.632H43.7598V237.224H40.4718V256.16H37.7838V234.632ZM42.9678 234.632H43.4718L43.8798 234.536L45.8478 235.664C45.6238 236.368 45.3838 237.112 45.1278 237.896C44.8718 238.68 44.6158 239.456 44.3598 240.224C44.1038 240.992 43.8478 241.688 43.5918 242.312C44.3758 243.24 44.8798 244.12 45.1038 244.952C45.3438 245.768 45.4638 246.528 45.4638 247.232C45.4638 248.032 45.3758 248.688 45.1998 249.2C45.0238 249.712 44.7358 250.112 44.3358 250.4C44.1438 250.544 43.9198 250.656 43.6638 250.736C43.4238 250.816 43.1758 250.88 42.9198 250.928C42.6958 250.96 42.4318 250.976 42.1278 250.976C41.8398 250.976 41.5438 250.976 41.2398 250.976C41.2238 250.608 41.1598 250.176 41.0478 249.68C40.9518 249.184 40.8078 248.76 40.6158 248.408C40.8398 248.424 41.0398 248.432 41.2158 248.432C41.4078 248.432 41.5758 248.432 41.7198 248.432C41.8478 248.432 41.9678 248.416 42.0798 248.384C42.2078 248.336 42.3278 248.28 42.4398 248.216C42.5838 248.104 42.6878 247.936 42.7518 247.712C42.8318 247.472 42.8638 247.184 42.8478 246.848C42.8478 246.288 42.7278 245.648 42.4878 244.928C42.2638 244.192 41.7918 243.424 41.0718 242.624C41.2478 242.08 41.4238 241.48 41.5998 240.824C41.7918 240.168 41.9678 239.512 42.1278 238.856C42.3038 238.184 42.4638 237.56 42.6078 236.984C42.7678 236.392 42.8878 235.904 42.9678 235.52V234.632ZM66.3198 240.848H79.5918V243.608H66.3198V240.848ZM72.9678 246.608H81.0558V249.32H72.9678V246.608ZM71.4558 242.456H74.4558V254.048L71.4558 253.688V242.456ZM65.7198 244.928L68.7198 245.24C68.3998 247.688 67.8558 249.848 67.0878 251.72C66.3198 253.592 65.2478 255.12 63.8718 256.304C63.7118 256.128 63.4878 255.912 63.1998 255.656C62.9118 255.4 62.6078 255.152 62.2878 254.912C61.9838 254.672 61.7198 254.48 61.4958 254.336C62.7918 253.376 63.7678 252.088 64.4238 250.472C65.0798 248.84 65.5118 246.992 65.7198 244.928ZM68.0478 247.952C68.4158 249.04 68.8958 249.928 69.4878 250.616C70.0958 251.288 70.7918 251.8 71.5758 252.152C72.3758 252.488 73.2478 252.72 74.1918 252.848C75.1358 252.976 76.1358 253.04 77.1918 253.04C77.4478 253.04 77.7918 253.04 78.2238 253.04C78.6718 253.04 79.1598 253.04 79.6878 253.04C80.2318 253.04 80.7838 253.04 81.3438 253.04C81.9038 253.024 82.4238 253.016 82.9038 253.016C83.3838 253 83.7838 252.984 84.1038 252.968C83.9598 253.208 83.8158 253.504 83.6718 253.856C83.5438 254.192 83.4238 254.544 83.3118 254.912C83.1998 255.28 83.1198 255.616 83.0718 255.92H81.8478H77.0478C75.6558 255.92 74.3758 255.824 73.2078 255.632C72.0398 255.44 70.9838 255.088 70.0398 254.576C69.1118 254.08 68.2798 253.36 67.5438 252.416C66.8238 251.472 66.2078 250.24 65.6958 248.72L68.0478 247.952ZM71.4078 233.648H74.4798V238.016H71.4078V233.648ZM62.6718 236.072H83.2878V242.096H80.3358V238.784H65.5038V242.096H62.6718V236.072ZM96.1998 236.168H108.488V238.664H96.1998V236.168ZM95.4078 240.776H109.184V243.296H95.4078V240.776ZM95.4558 245.336H109.016V247.856H95.4558V245.336ZM100.832 233.576H103.688V242.408H100.832V233.576ZM103.88 243.176H106.712V253.112C106.712 253.8 106.624 254.336 106.448 254.72C106.272 255.12 105.952 255.432 105.488 255.656C105.024 255.864 104.456 255.992 103.784 256.04C103.128 256.104 102.352 256.136 101.456 256.136C101.392 255.736 101.272 255.272 101.096 254.744C100.92 254.232 100.736 253.792 100.544 253.424C101.136 253.44 101.712 253.456 102.272 253.472C102.832 253.472 103.208 253.472 103.4 253.472C103.576 253.472 103.696 253.448 103.76 253.4C103.84 253.336 103.88 253.216 103.88 253.04V243.176ZM96.4158 249.488L98.6958 248.168C99.0798 248.536 99.4638 248.952 99.8478 249.416C100.232 249.88 100.584 250.344 100.904 250.808C101.224 251.272 101.472 251.696 101.648 252.08L99.1518 253.544C99.0238 253.16 98.8078 252.736 98.5038 252.272C98.1998 251.792 97.8638 251.312 97.4958 250.832C97.1438 250.336 96.7838 249.888 96.4158 249.488ZM88.8078 235.088H94.9758V251.504H88.8078V248.936H92.3118V237.656H88.8078V235.088ZM88.9518 241.904H93.6078V244.424H88.9518V241.904ZM87.4398 235.088H90.1038V253.64H87.4398V235.088ZM122 244.208H130.808V246.824H122V244.208ZM114.848 239.552H120.944V242.216H114.848V239.552ZM114.848 244.184H121.16V246.872H114.848V244.184ZM124.496 234.488H129.92V237.008H124.496V234.488ZM130.4 244.208H130.952L131.432 244.112L133.28 244.808C132.72 246.92 131.888 248.728 130.784 250.232C129.696 251.736 128.376 252.968 126.824 253.928C125.288 254.888 123.56 255.648 121.64 256.208C121.544 255.952 121.408 255.664 121.232 255.344C121.056 255.04 120.872 254.728 120.68 254.408C120.488 254.104 120.296 253.856 120.104 253.664C121.816 253.264 123.368 252.664 124.76 251.864C126.152 251.064 127.336 250.064 128.312 248.864C129.288 247.664 129.984 246.264 130.4 244.664V244.208ZM125.36 246.56C126.112 248.304 127.256 249.784 128.792 251C130.328 252.2 132.216 253.048 134.456 253.544C134.248 253.736 134.016 253.984 133.76 254.288C133.52 254.592 133.296 254.904 133.088 255.224C132.88 255.56 132.712 255.864 132.584 256.136C130.152 255.432 128.152 254.336 126.584 252.848C125.016 251.344 123.776 249.472 122.864 247.232L125.36 246.56ZM113.408 235.208L116.144 236.048V256.088H113.408V235.208ZM111.416 249.992C112.312 249.896 113.32 249.776 114.44 249.632C115.576 249.488 116.768 249.336 118.016 249.176C119.28 249.016 120.528 248.848 121.76 248.672L121.856 251.312C120.704 251.504 119.536 251.688 118.352 251.864C117.168 252.024 116.024 252.184 114.92 252.344C113.816 252.504 112.8 252.656 111.872 252.8L111.416 249.992ZM123.248 234.488H125.912V238.016C125.912 238.752 125.824 239.52 125.648 240.32C125.488 241.104 125.184 241.856 124.736 242.576C124.304 243.28 123.64 243.888 122.744 244.4C122.632 244.224 122.448 244.016 122.192 243.776C121.952 243.52 121.696 243.272 121.424 243.032C121.168 242.792 120.952 242.608 120.776 242.48C121.528 242.064 122.08 241.608 122.432 241.112C122.784 240.6 123.008 240.072 123.104 239.528C123.2 238.984 123.248 238.448 123.248 237.92V234.488ZM119.792 233.624L122.168 235.664C121.464 236.016 120.696 236.336 119.864 236.624C119.032 236.896 118.192 237.152 117.344 237.392C116.496 237.616 115.664 237.808 114.848 237.968C114.784 237.664 114.656 237.304 114.464 236.888C114.288 236.456 114.112 236.096 113.936 235.808C114.656 235.632 115.376 235.432 116.096 235.208C116.832 234.968 117.52 234.712 118.16 234.44C118.8 234.168 119.344 233.896 119.792 233.624ZM128.408 234.488H131.096V240.2C131.096 240.408 131.096 240.568 131.096 240.68C131.096 240.792 131.112 240.872 131.144 240.92C131.208 241 131.288 241.04 131.384 241.04C131.432 241.04 131.496 241.04 131.576 241.04C131.656 241.04 131.72 241.04 131.768 241.04C131.832 241.04 131.896 241.032 131.96 241.016C132.024 241 132.064 240.984 132.08 240.968C132.16 240.92 132.232 240.744 132.296 240.44C132.312 240.264 132.328 240.008 132.344 239.672C132.36 239.336 132.368 238.936 132.368 238.472C132.608 238.68 132.936 238.896 133.352 239.12C133.768 239.328 134.152 239.496 134.504 239.624C134.472 240.104 134.432 240.576 134.384 241.04C134.336 241.504 134.264 241.848 134.168 242.072C134.008 242.536 133.72 242.864 133.304 243.056C133.128 243.152 132.912 243.224 132.656 243.272C132.416 243.304 132.192 243.32 131.984 243.32C131.776 243.32 131.552 243.32 131.312 243.32C131.072 243.32 130.856 243.32 130.664 243.32C130.376 243.32 130.072 243.28 129.752 243.2C129.448 243.104 129.2 242.952 129.008 242.744C128.8 242.536 128.648 242.264 128.552 241.928C128.456 241.576 128.408 241.016 128.408 240.248V234.488ZM141.68 233.648L144.392 234.488C143.88 235.848 143.272 237.216 142.568 238.592C141.864 239.952 141.096 241.24 140.264 242.456C139.448 243.672 138.6 244.744 137.72 245.672C137.64 245.432 137.512 245.128 137.336 244.76C137.16 244.376 136.968 243.992 136.76 243.608C136.552 243.208 136.368 242.896 136.208 242.672C136.928 241.936 137.624 241.088 138.296 240.128C138.984 239.168 139.616 238.136 140.192 237.032C140.768 235.912 141.264 234.784 141.68 233.648ZM139.256 240.344L142.064 237.512L142.088 237.536V256.112H139.256V240.344ZM144.032 238.304H158.888V241.064H144.032V238.304ZM143.432 245.84H159.08V248.672H143.432V245.84ZM146.672 233.792H149.48V247.304H146.672V233.792ZM152.96 233.744H155.768V247.328H152.96V233.744ZM147.32 249.632L150.008 250.472C149.624 251.176 149.16 251.872 148.616 252.56C148.072 253.248 147.504 253.888 146.912 254.48C146.336 255.088 145.76 255.608 145.184 256.04C145.008 255.88 144.784 255.68 144.512 255.44C144.256 255.216 143.984 254.992 143.696 254.768C143.408 254.544 143.152 254.368 142.928 254.24C143.792 253.68 144.616 252.992 145.4 252.176C146.184 251.344 146.824 250.496 147.32 249.632ZM152.576 250.88L154.88 249.608C155.408 250.12 155.928 250.672 156.44 251.264C156.952 251.856 157.424 252.44 157.856 253.016C158.304 253.592 158.672 254.112 158.96 254.576L156.536 256.112C156.28 255.616 155.936 255.064 155.504 254.456C155.072 253.864 154.6 253.256 154.088 252.632C153.576 251.992 153.072 251.408 152.576 250.88ZM173.456 242.096H182.528V243.488H173.456V242.096ZM173.456 244.4H182.528V245.792H173.456V244.4ZM172.448 246.752H183.464V248.48H172.448V246.752ZM178.04 237.584L180.656 238.208C180.352 238.656 180.064 239.08 179.792 239.48C179.52 239.88 179.272 240.232 179.048 240.536L177.032 239.936C177.208 239.584 177.392 239.192 177.584 238.76C177.792 238.328 177.944 237.936 178.04 237.584ZM169.256 237.44L171.584 238.16C170.992 239.36 170.256 240.536 169.376 241.688C168.496 242.824 167.608 243.776 166.712 244.544C166.6 244.4 166.44 244.216 166.232 243.992C166.024 243.752 165.808 243.52 165.584 243.296C165.36 243.056 165.16 242.864 164.984 242.72C165.816 242.08 166.616 241.288 167.384 240.344C168.152 239.4 168.776 238.432 169.256 237.44ZM173.744 237.368L176.096 238.04C175.6 239.176 174.984 240.296 174.248 241.4C173.512 242.504 172.76 243.432 171.992 244.184C171.864 244.04 171.688 243.864 171.464 243.656C171.24 243.448 171 243.248 170.744 243.056C170.504 242.864 170.288 242.704 170.096 242.576C170.848 241.936 171.544 241.152 172.184 240.224C172.824 239.28 173.344 238.328 173.744 237.368ZM176.888 240.296H179.288V247.352H176.888V240.296ZM170.696 250.496H173.288V253.088C173.288 253.376 173.344 253.56 173.456 253.64C173.568 253.72 173.832 253.76 174.248 253.76C174.344 253.76 174.496 253.76 174.704 253.76C174.928 253.76 175.168 253.76 175.424 253.76C175.68 253.76 175.92 253.76 176.144 253.76C176.384 253.76 176.56 253.76 176.672 253.76C176.896 253.76 177.064 253.72 177.176 253.64C177.304 253.56 177.392 253.392 177.44 253.136C177.488 252.88 177.528 252.496 177.56 251.984C177.816 252.16 178.176 252.336 178.64 252.512C179.104 252.688 179.504 252.816 179.84 252.896C179.76 253.728 179.608 254.368 179.384 254.816C179.176 255.28 178.872 255.592 178.472 255.752C178.088 255.928 177.584 256.016 176.96 256.016C176.848 256.016 176.688 256.016 176.48 256.016C176.288 256.016 176.056 256.016 175.784 256.016C175.528 256.016 175.272 256.016 175.016 256.016C174.776 256.016 174.552 256.016 174.344 256.016C174.136 256.016 173.984 256.016 173.888 256.016C173.024 256.016 172.36 255.928 171.896 255.752C171.432 255.576 171.112 255.272 170.936 254.84C170.776 254.424 170.696 253.856 170.696 253.136V250.496ZM171.992 249.584L173.624 248.072C174.088 248.264 174.576 248.504 175.088 248.792C175.6 249.08 176.08 249.376 176.528 249.68C176.992 249.968 177.368 250.256 177.656 250.544L175.904 252.2C175.632 251.928 175.28 251.632 174.848 251.312C174.416 250.992 173.944 250.68 173.432 250.376C172.936 250.072 172.456 249.808 171.992 249.584ZM178.568 250.952L180.824 249.872C181.256 250.352 181.688 250.872 182.12 251.432C182.552 251.992 182.944 252.552 183.296 253.112C183.664 253.672 183.944 254.184 184.136 254.648L181.712 255.848C181.552 255.384 181.304 254.864 180.968 254.288C180.648 253.728 180.272 253.152 179.84 252.56C179.424 251.968 179 251.432 178.568 250.952ZM167.528 250.208L169.856 251.024C169.616 251.904 169.296 252.768 168.896 253.616C168.496 254.464 167.96 255.176 167.288 255.752L165.104 254.36C165.696 253.864 166.2 253.248 166.616 252.512C167.032 251.76 167.336 250.992 167.528 250.208ZM173.912 239.552H183.176V241.256H172.712L173.912 239.552ZM172.448 241.544L174.824 239.624V247.88H172.448V241.544ZM172.064 233.6H175.064V236.672H172.064V233.6ZM164.744 235.304H183.8V237.632H164.744V235.304ZM163.184 235.304H165.8V242.36C165.8 243.352 165.768 244.448 165.704 245.648C165.656 246.832 165.544 248.056 165.368 249.32C165.208 250.568 164.976 251.784 164.672 252.968C164.368 254.152 163.968 255.224 163.472 256.184C163.328 256.008 163.12 255.808 162.848 255.584C162.576 255.36 162.296 255.144 162.008 254.936C161.72 254.744 161.472 254.6 161.264 254.504C161.712 253.64 162.064 252.696 162.32 251.672C162.576 250.632 162.76 249.568 162.872 248.48C163 247.376 163.08 246.304 163.112 245.264C163.16 244.224 163.184 243.256 163.184 242.36V235.304ZM167.816 241.448L170.192 239.072L170.216 239.12V248.912H167.816V241.448ZM190.424 257.312L189.656 255.368C190.664 255.048 191.432 254.608 191.96 254.048C192.504 253.504 192.776 252.88 192.776 252.176L192.584 249.824L193.928 251.96C193.72 252.136 193.496 252.272 193.256 252.368C193.016 252.464 192.76 252.512 192.488 252.512C191.896 252.512 191.368 252.328 190.904 251.96C190.44 251.576 190.208 251.04 190.208 250.352C190.208 249.68 190.44 249.152 190.904 248.768C191.368 248.384 191.92 248.192 192.56 248.192C193.408 248.192 194.048 248.488 194.48 249.08C194.928 249.672 195.152 250.472 195.152 251.48C195.152 252.84 194.736 254.04 193.904 255.08C193.072 256.12 191.912 256.864 190.424 257.312ZM212.576 240.968H219.824V243.152H212.576V240.968ZM212.672 234.368H219.776V236.528H212.672V234.368ZM212.576 244.256H219.824V246.416H212.576V244.256ZM211.448 237.584H220.616V239.864H211.448V237.584ZM213.824 247.568H219.872V254.888H213.824V252.608H217.4V249.848H213.824V247.568ZM212.528 247.568H214.952V255.824H212.528V247.568ZM221.192 234.92H233.432V236.96H221.192V234.92ZM221.816 237.848H233.072V239.768H221.816V237.848ZM220.64 240.728H233.888V242.792H220.64V240.728ZM225.872 233.6H228.584V242.48H225.872V233.6ZM222.272 243.704H231.464V245.744H224.912V256.112H222.272V243.704ZM229.904 243.704H232.592V253.472C232.592 254.064 232.52 254.528 232.376 254.864C232.232 255.216 231.952 255.488 231.536 255.68C231.136 255.872 230.648 255.984 230.072 256.016C229.496 256.064 228.824 256.088 228.056 256.088C228.008 255.736 227.904 255.336 227.744 254.888C227.6 254.456 227.456 254.088 227.312 253.784C227.744 253.8 228.176 253.808 228.608 253.808C229.056 253.808 229.352 253.8 229.496 253.784C229.656 253.784 229.76 253.76 229.808 253.712C229.872 253.648 229.904 253.552 229.904 253.424V243.704ZM223.424 246.8H231.272V248.696H223.424V246.8ZM223.424 249.8H231.272V251.672H223.424V249.8ZM241.088 241.952H254.144V244.616H241.088V241.952ZM241.088 247.088H254.144V249.752H241.088V247.088ZM241.088 252.248H254.144V254.912H241.088V252.248ZM239.144 236.72H256.568V256.088H253.52V239.48H242.048V256.136H239.144V236.72ZM245.96 233.576L249.44 233.96C249.152 234.744 248.848 235.512 248.528 236.264C248.208 237.016 247.912 237.664 247.64 238.208L245 237.728C245.128 237.328 245.256 236.888 245.384 236.408C245.512 235.912 245.624 235.424 245.72 234.944C245.832 234.448 245.912 233.992 245.96 233.576ZM271.64 233.768H274.304V239.6H271.64V233.768ZM277.856 233.768H280.568V239.6H277.856V233.768ZM276.368 244.76H278.624V256.064H276.368V244.76ZM268.232 235.52H283.808V237.992H268.232V235.52ZM273.272 247.376H281.768V249.224H273.272V247.376ZM273.272 250.568H281.768V252.44H273.272V250.568ZM269.528 240.224H283.928V242.696H269.528V240.224ZM268.352 240.224H270.968V245.528C270.968 246.328 270.936 247.192 270.872 248.12C270.808 249.048 270.688 250 270.512 250.976C270.352 251.936 270.112 252.872 269.792 253.784C269.472 254.68 269.056 255.496 268.544 256.232C268.416 256.056 268.216 255.848 267.944 255.608C267.688 255.384 267.424 255.16 267.152 254.936C266.88 254.728 266.648 254.568 266.456 254.456C267.048 253.592 267.472 252.64 267.728 251.6C268 250.544 268.168 249.488 268.232 248.432C268.312 247.376 268.352 246.4 268.352 245.504V240.224ZM271.832 243.92H282.056V246.008H274.232V256.112H271.832V243.92ZM280.928 243.92H283.352V253.712C283.352 254.24 283.304 254.664 283.208 254.984C283.112 255.32 282.896 255.584 282.56 255.776C282.224 255.952 281.832 256.064 281.384 256.112C280.936 256.16 280.4 256.176 279.776 256.16C279.744 255.84 279.672 255.472 279.56 255.056C279.448 254.64 279.312 254.28 279.152 253.976C279.488 253.992 279.792 254 280.064 254C280.336 254 280.528 253.992 280.64 253.976C280.832 253.976 280.928 253.88 280.928 253.688V243.92ZM265.688 233.648L268.352 234.44C267.904 235.832 267.36 237.24 266.72 238.664C266.096 240.088 265.408 241.44 264.656 242.72C263.904 243.984 263.12 245.096 262.304 246.056C262.24 245.832 262.128 245.52 261.968 245.12C261.808 244.72 261.632 244.32 261.44 243.92C261.248 243.52 261.08 243.192 260.936 242.936C261.576 242.184 262.192 241.312 262.784 240.32C263.392 239.328 263.944 238.264 264.44 237.128C264.936 235.976 265.352 234.816 265.688 233.648ZM263.768 240.248L266.432 237.584L266.504 237.632V256.136H263.768V240.248ZM293.24 238.616L296 239.552C295.504 240.272 294.92 240.976 294.248 241.664C293.576 242.336 292.864 242.968 292.112 243.56C291.36 244.136 290.608 244.632 289.856 245.048C289.728 244.84 289.544 244.592 289.304 244.304C289.064 244.016 288.816 243.728 288.56 243.44C288.304 243.152 288.08 242.92 287.888 242.744C288.928 242.28 289.928 241.68 290.888 240.944C291.848 240.208 292.632 239.432 293.24 238.616ZM299.072 240.248L301.112 238.568C301.784 238.968 302.496 239.424 303.248 239.936C304.016 240.448 304.752 240.968 305.456 241.496C306.16 242.008 306.728 242.496 307.16 242.96L304.976 244.856C304.576 244.408 304.048 243.912 303.392 243.368C302.736 242.824 302.024 242.28 301.256 241.736C300.504 241.176 299.776 240.68 299.072 240.248ZM297.704 244.256C297.08 245.072 296.264 245.904 295.256 246.752C294.264 247.6 293.16 248.408 291.944 249.176C290.744 249.944 289.504 250.616 288.224 251.192C288.112 250.952 287.96 250.688 287.768 250.4C287.592 250.096 287.4 249.8 287.192 249.512C286.984 249.208 286.784 248.952 286.592 248.744C287.92 248.232 289.192 247.584 290.408 246.8C291.624 246.016 292.728 245.168 293.72 244.256C294.712 243.344 295.504 242.464 296.096 241.616H299.048C299.688 242.4 300.392 243.136 301.16 243.824C301.944 244.512 302.76 245.144 303.608 245.72C304.456 246.28 305.336 246.784 306.248 247.232C307.16 247.68 308.08 248.056 309.008 248.36C308.672 248.728 308.344 249.152 308.024 249.632C307.72 250.112 307.448 250.56 307.208 250.976C306.36 250.608 305.48 250.168 304.568 249.656C303.672 249.144 302.792 248.592 301.928 248C301.08 247.408 300.288 246.792 299.552 246.152C298.832 245.512 298.216 244.88 297.704 244.256ZM290.864 247.856H304.52V256.112H301.592V250.4H293.648V256.16H290.864V247.856ZM292.16 252.944H303.056V255.488H292.16V252.944ZM296.048 233.6H299.024V237.032H296.048V233.6ZM287.312 235.52H307.904V240.728H304.976V238.136H290.144V240.728H287.312V235.52ZM315.776 236.792V239.288H318.68V236.792H315.776ZM313.184 234.536H321.44V241.544H313.184V234.536ZM326.288 236.792V239.288H329.216V236.792H326.288ZM323.672 234.536H331.952V241.544H323.672V234.536ZM311.672 242.864H333.536V245.384H311.672V242.864ZM314.936 253.064H320.216V255.416H314.936V253.064ZM324.776 253.064H330.08V255.416H324.776V253.064ZM326.144 243.512C326.656 244.248 327.328 244.936 328.16 245.576C329.008 246.216 329.96 246.776 331.016 247.256C332.072 247.736 333.184 248.112 334.352 248.384C334.144 248.56 333.92 248.792 333.68 249.08C333.456 249.352 333.24 249.632 333.032 249.92C332.84 250.192 332.672 250.448 332.528 250.688C331.264 250.32 330.072 249.84 328.952 249.248C327.832 248.656 326.808 247.96 325.88 247.16C324.952 246.344 324.152 245.456 323.48 244.496L326.144 243.512ZM313.592 248.072H321.56V256.16H318.944V250.424H316.088V256.208H313.592V248.072ZM323.432 248.072H331.496V256.16H328.832V250.424H325.952V256.208H323.432V248.072ZM320.936 240.512L323.72 241.448C322.68 243.672 321.192 245.536 319.256 247.04C317.336 248.544 315.104 249.744 312.56 250.64C312.448 250.416 312.296 250.168 312.104 249.896C311.912 249.608 311.696 249.328 311.456 249.056C311.232 248.784 311.032 248.568 310.856 248.408C313.208 247.64 315.264 246.592 317.024 245.264C318.784 243.936 320.088 242.352 320.936 240.512Z" fill="white"/>
<path d="M63.35 150.018H83.302V155.702H63.35V150.018ZM53.374 183.658C55.114 183.387 57.1246 183.058 59.406 182.672C61.726 182.285 64.1813 181.879 66.772 181.454C69.3626 180.99 71.934 180.526 74.486 180.062L75.066 186.094C71.702 186.867 68.3186 187.621 64.916 188.356C61.5133 189.129 58.42 189.806 55.636 190.386L53.374 183.658ZM59.406 139.404H66.134V185.224H59.406V139.404ZM63.35 139.404H86.492V166.548H63.35V160.574H79.59V145.378H63.35V139.404ZM75.414 162.546C76.1486 166.026 77.154 169.254 78.43 172.232C79.706 175.17 81.33 177.761 83.302 180.004C85.274 182.246 87.6906 183.986 90.552 185.224C90.0493 185.688 89.508 186.248 88.928 186.906C88.348 187.602 87.7873 188.317 87.246 189.052C86.7433 189.825 86.3373 190.521 86.028 191.14C82.896 189.477 80.2666 187.312 78.14 184.644C76.052 181.937 74.3313 178.805 72.978 175.248C71.6246 171.69 70.5226 167.785 69.672 163.532L75.414 162.546ZM83.824 166.954L89.276 170.724C87.6906 172.27 86.0086 173.798 84.23 175.306C82.49 176.775 80.8853 178.032 79.416 179.076L75.124 175.77C76.052 174.996 77.038 174.107 78.082 173.102C79.1646 172.096 80.2086 171.052 81.214 169.97C82.2193 168.887 83.0893 167.882 83.824 166.954ZM38.294 139.288H52.736V145.552H44.79V191.314H38.294V139.288ZM50.822 139.288H52.04L53.026 139.056L57.782 141.782C57.2406 143.483 56.6606 145.281 56.042 147.176C55.4233 149.07 54.8046 150.946 54.186 152.802C53.5673 154.658 52.9486 156.34 52.33 157.848C54.2246 160.09 55.4426 162.217 55.984 164.228C56.564 166.2 56.854 168.036 56.854 169.738C56.854 171.671 56.6413 173.256 56.216 174.494C55.7906 175.731 55.0946 176.698 54.128 177.394C53.664 177.742 53.1226 178.012 52.504 178.206C51.924 178.399 51.3246 178.554 50.706 178.67C50.1646 178.747 49.5266 178.786 48.792 178.786C48.096 178.786 47.3806 178.786 46.646 178.786C46.6073 177.896 46.4526 176.852 46.182 175.654C45.95 174.455 45.602 173.43 45.138 172.58C45.6793 172.618 46.1626 172.638 46.588 172.638C47.052 172.638 47.458 172.638 47.806 172.638C48.1153 172.638 48.4053 172.599 48.676 172.522C48.9853 172.406 49.2753 172.27 49.546 172.116C49.894 171.845 50.1453 171.439 50.3 170.898C50.4933 170.318 50.5706 169.622 50.532 168.81C50.532 167.456 50.242 165.91 49.662 164.17C49.1206 162.391 47.98 160.535 46.24 158.602C46.6653 157.287 47.0906 155.837 47.516 154.252C47.98 152.666 48.4053 151.081 48.792 149.496C49.2173 147.872 49.604 146.364 49.952 144.972C50.3386 143.541 50.6286 142.362 50.822 141.434V139.288ZM111.026 147.466V149.438H135.154V147.466H111.026ZM111.026 142.13V144.102H135.154V142.13H111.026ZM104.356 138.592H142.172V152.976H104.356V138.592ZM109.808 170.608V172.638H136.778V170.608H109.808ZM109.808 165.098V167.128H136.778V165.098H109.808ZM103.312 161.444H143.622V176.35H103.312V161.444ZM119.9 162.662H126.628V187.544H119.9V162.662ZM96.99 154.716H149.828V159.704H96.99V154.716ZM102.094 178.264H144.724V182.672H102.094V178.264ZM96.874 184.818H149.944V189.864H96.874V184.818ZM195.474 153.788H201.796V168.404H195.474V153.788ZM189.616 171.13H195.706V185.862C195.706 187.176 195.551 188.182 195.242 188.878C194.971 189.574 194.372 190.115 193.444 190.502C192.593 190.927 191.569 191.178 190.37 191.256C189.21 191.333 187.837 191.372 186.252 191.372C186.097 190.637 185.807 189.786 185.382 188.82C184.995 187.892 184.589 187.099 184.164 186.442C185.131 186.48 186.059 186.5 186.948 186.5C187.876 186.5 188.475 186.48 188.746 186.442C189.326 186.442 189.616 186.21 189.616 185.746V171.13ZM201.738 167.65C202.473 168.616 203.381 169.602 204.464 170.608C205.547 171.574 206.726 172.464 208.002 173.276C209.317 174.088 210.612 174.745 211.888 175.248C211.269 175.789 210.593 176.485 209.858 177.336C209.123 178.186 208.524 178.96 208.06 179.656C206.707 178.921 205.373 177.993 204.058 176.872C202.743 175.75 201.525 174.532 200.404 173.218C199.283 171.903 198.335 170.569 197.562 169.216L201.738 167.65ZM195.532 182.846L198.606 179.308C200.655 180.236 202.705 181.299 204.754 182.498C206.803 183.658 208.485 184.721 209.8 185.688L206.088 189.458C204.851 188.491 203.246 187.389 201.274 186.152C199.341 184.914 197.427 183.812 195.532 182.846ZM200.984 172.696L204.928 175.132C204.193 176.021 203.439 176.852 202.666 177.626C201.893 178.36 201.197 178.998 200.578 179.54L197.098 177.22C197.678 176.64 198.355 175.905 199.128 175.016C199.901 174.126 200.52 173.353 200.984 172.696ZM176.102 157.442H208.872V162.198H176.102V157.442ZM174.362 164.866H210.844V169.68H174.362V164.866ZM182.946 153.788H189.21V168.404H182.946V153.788ZM174.42 184.644C176.121 184.064 178.113 183.31 180.394 182.382C182.714 181.454 185.073 180.506 187.47 179.54L188.572 183.716C186.484 184.682 184.396 185.649 182.308 186.616C180.259 187.621 178.306 188.549 176.45 189.4L174.42 184.644ZM183.99 167.65L188.63 169.506C187.741 170.782 186.658 172.077 185.382 173.392C184.106 174.706 182.714 175.924 181.206 177.046C179.737 178.128 178.267 179.037 176.798 179.772C176.373 179.076 175.773 178.283 175 177.394C174.227 176.504 173.511 175.808 172.854 175.306C174.246 174.764 175.638 174.088 177.03 173.276C178.461 172.464 179.775 171.574 180.974 170.608C182.211 169.602 183.217 168.616 183.99 167.65ZM180.626 175.77L184.628 173.16C185.324 173.74 186.02 174.436 186.716 175.248C187.412 176.021 187.934 176.736 188.282 177.394L184.106 180.294C183.797 179.636 183.313 178.882 182.656 178.032C181.999 177.181 181.322 176.427 180.626 175.77ZM183.642 148.626V150.83H201.332V148.626H183.642ZM183.642 142.478V144.624H201.332V142.478H183.642ZM177.61 138.186H207.596V155.064H177.61V138.186ZM163.864 137.432H169.838V157.558C169.838 161.463 169.645 165.407 169.258 169.39C168.91 173.372 168.098 177.22 166.822 180.932C165.546 184.644 163.574 188.085 160.906 191.256C160.558 190.792 160.113 190.25 159.572 189.632C159.069 189.052 158.528 188.472 157.948 187.892C157.368 187.312 156.846 186.867 156.382 186.558C158.625 183.812 160.268 180.835 161.312 177.626C162.356 174.416 163.033 171.091 163.342 167.65C163.69 164.208 163.864 160.825 163.864 157.5V137.432ZM158.586 149.09L163.168 149.67C163.207 151.642 163.129 153.633 162.936 155.644C162.781 157.616 162.491 159.53 162.066 161.386C161.641 163.203 161.041 164.788 160.268 166.142L155.976 163.474C156.633 162.391 157.136 161.057 157.484 159.472C157.871 157.886 158.141 156.185 158.296 154.368C158.489 152.55 158.586 150.791 158.586 149.09ZM172.274 146.306L177.784 148.336C176.933 150.424 176.102 152.589 175.29 154.832C174.478 157.036 173.705 158.911 172.97 160.458L169.084 158.776C169.471 157.654 169.857 156.359 170.244 154.89C170.669 153.42 171.056 151.932 171.404 150.424C171.791 148.916 172.081 147.543 172.274 146.306ZM168.852 168.752C169.2 169.138 169.722 169.815 170.418 170.782C171.153 171.748 171.926 172.812 172.738 173.972C173.589 175.093 174.343 176.137 175 177.104C175.696 178.07 176.199 178.766 176.508 179.192L171.926 183.832C171.539 182.981 171.017 182.014 170.36 180.932C169.741 179.849 169.084 178.728 168.388 177.568C167.692 176.408 167.015 175.325 166.358 174.32C165.701 173.276 165.14 172.425 164.676 171.768L168.852 168.752ZM217.862 158.544H270.12V165.562H217.862V158.544ZM240.192 136.852H247.674V191.314H240.192V136.852ZM260.434 139.346L268.206 142.362C267.201 144.063 266.157 145.784 265.074 147.524C263.991 149.225 262.909 150.849 261.826 152.396C260.743 153.942 259.719 155.315 258.752 156.514L252.662 153.788C253.59 152.512 254.537 151.042 255.504 149.38C256.471 147.678 257.379 145.958 258.23 144.218C259.119 142.478 259.854 140.854 260.434 139.346ZM220.588 142.362L226.91 139.636C227.993 140.95 229.037 142.4 230.042 143.986C231.086 145.571 232.014 147.137 232.826 148.684C233.677 150.23 234.295 151.642 234.682 152.918L227.78 155.992C227.432 154.754 226.891 153.362 226.156 151.816C225.421 150.23 224.551 148.626 223.546 147.002C222.579 145.339 221.593 143.792 220.588 142.362ZM237.466 162.198L243.556 164.518C242.28 166.992 240.811 169.428 239.148 171.826C237.485 174.184 235.687 176.446 233.754 178.612C231.859 180.777 229.868 182.768 227.78 184.586C225.731 186.403 223.643 188.008 221.516 189.4C221.129 188.82 220.627 188.162 220.008 187.428C219.389 186.693 218.751 185.978 218.094 185.282C217.475 184.586 216.895 184.006 216.354 183.542C218.403 182.382 220.433 181.009 222.444 179.424C224.493 177.838 226.446 176.118 228.302 174.262C230.197 172.367 231.917 170.395 233.464 168.346C235.049 166.296 236.383 164.247 237.466 162.198ZM250.11 161.734C251.231 163.783 252.585 165.832 254.17 167.882C255.794 169.892 257.573 171.845 259.506 173.74C261.439 175.634 263.45 177.394 265.538 179.018C267.626 180.603 269.695 181.956 271.744 183.078C271.164 183.542 270.545 184.141 269.888 184.876C269.231 185.572 268.593 186.287 267.974 187.022C267.355 187.795 266.833 188.51 266.408 189.168C264.32 187.737 262.232 186.094 260.144 184.238C258.056 182.382 256.026 180.371 254.054 178.206C252.121 176.04 250.303 173.778 248.602 171.42C246.939 169.022 245.431 166.606 244.078 164.17L250.11 161.734ZM291.348 153.15L298.25 155.296C296.935 158.002 295.389 160.632 293.61 163.184C291.831 165.736 289.937 168.114 287.926 170.318C285.954 172.522 283.963 174.436 281.952 176.06C281.527 175.596 280.966 175.054 280.27 174.436C279.574 173.817 278.859 173.218 278.124 172.638C277.389 172.019 276.751 171.516 276.21 171.13C278.221 169.738 280.173 168.094 282.068 166.2C283.963 164.305 285.703 162.236 287.288 159.994C288.873 157.751 290.227 155.47 291.348 153.15ZM304.688 154.194H311.532V181.048C311.532 182.324 311.706 183.136 312.054 183.484C312.402 183.832 313.214 184.006 314.49 184.006C314.799 184.006 315.302 184.006 315.998 184.006C316.694 184.006 317.448 184.006 318.26 184.006C319.072 184.006 319.826 184.006 320.522 184.006C321.257 184.006 321.779 184.006 322.088 184.006C322.9 184.006 323.519 183.793 323.944 183.368C324.369 182.904 324.659 182.072 324.814 180.874C325.007 179.636 325.162 177.819 325.278 175.422C325.819 175.808 326.457 176.195 327.192 176.582C327.927 176.93 328.681 177.239 329.454 177.51C330.266 177.78 330.981 178.012 331.6 178.206C331.329 181.299 330.885 183.754 330.266 185.572C329.686 187.35 328.797 188.607 327.598 189.342C326.399 190.076 324.775 190.444 322.726 190.444C322.417 190.444 321.953 190.444 321.334 190.444C320.715 190.444 320.019 190.444 319.246 190.444C318.511 190.444 317.757 190.444 316.984 190.444C316.249 190.444 315.573 190.444 314.954 190.444C314.374 190.444 313.929 190.444 313.62 190.444C311.261 190.444 309.425 190.173 308.11 189.632C306.834 189.09 305.945 188.124 305.442 186.732C304.939 185.378 304.688 183.484 304.688 181.048V154.194ZM324.234 158.196L329.512 163.474C327.579 164.672 325.491 165.832 323.248 166.954C321.005 168.036 318.724 169.08 316.404 170.086C314.084 171.052 311.822 171.961 309.618 172.812C309.386 172.077 309.038 171.207 308.574 170.202C308.11 169.196 307.646 168.346 307.182 167.65C309.27 166.799 311.339 165.852 313.388 164.808C315.476 163.725 317.448 162.623 319.304 161.502C321.199 160.342 322.842 159.24 324.234 158.196ZM278.472 141.724H330.092V148.394H278.472V141.724ZM291.348 136.794H298.25V153.788H291.348V136.794ZM310.546 136.794H317.448V153.904H310.546V136.794ZM287.056 165.33L293.958 158.486V158.544V191.314H287.056V165.33Z" fill="white"/>
<circle cx="79" cy="62" r="56" fill="#FF9C1E"/>
<path d="M79.0989 28.2784C83.0762 28.2784 86.8759 28.9294 90.498 30.2315C94.1202 31.5099 97.3517 33.5578 100.193 36.375C103.034 39.1686 105.271 42.8499 106.904 47.419C108.538 51.9882 109.355 57.5634 109.355 64.1449C109.378 70.2055 108.668 75.6387 107.224 80.4446C105.78 85.2268 103.708 89.2988 101.009 92.6605C98.3342 96.0223 95.1145 98.5909 91.3503 100.366C87.5861 102.118 83.3839 102.994 78.7438 102.994C73.6301 102.994 69.1202 102.012 65.214 100.047C61.3314 98.0582 58.2182 95.383 55.8745 92.0213C53.5544 88.6596 52.1694 84.8954 51.7196 80.7287H69.0137C69.5582 83.1435 70.7064 84.9664 72.4583 86.1974C74.2102 87.4048 76.3053 88.0085 78.7438 88.0085C83.1945 88.0085 86.5208 86.0791 88.7225 82.2202C90.9242 78.3613 92.025 73.1174 92.025 66.4886H91.5989C90.5809 68.6667 89.1368 70.5369 87.2665 72.0994C85.4199 73.6619 83.2774 74.8575 80.839 75.6861C78.4005 76.5147 75.8319 76.929 73.133 76.929C68.7769 76.929 64.9299 75.9347 61.5918 73.946C58.2774 71.9574 55.6732 69.223 53.7793 65.7429C51.909 62.2628 50.9621 58.2855 50.9384 53.8111C50.9147 48.7921 52.0866 44.3651 54.454 40.5298C56.8214 36.6709 60.124 33.6643 64.3617 31.5099C68.5994 29.3319 73.5118 28.2547 79.0989 28.2784ZM79.2054 41.7727C77.0274 41.7727 75.0861 42.2817 73.3816 43.2997C71.7007 44.3177 70.3749 45.6908 69.4043 47.419C68.4337 49.1473 67.9602 51.0885 67.9838 53.2429C68.0075 55.3973 68.4928 57.3385 69.4398 59.0668C70.4105 60.795 71.7244 62.1681 73.3816 63.1861C75.0624 64.2041 76.9801 64.7131 79.1344 64.7131C80.7443 64.7131 82.2357 64.4171 83.6088 63.8253C84.9819 63.2334 86.1775 62.4167 87.1955 61.375C88.2135 60.3097 89.0066 59.0786 89.5748 57.6818C90.1666 56.285 90.4507 54.7936 90.427 53.2074C90.4034 51.1004 89.9062 49.1828 88.9355 47.4545C87.9649 45.7263 86.6273 44.3532 84.9228 43.3352C83.2419 42.2936 81.3361 41.7727 79.2054 41.7727Z" fill="white"/>
<ellipse cx="469.908" cy="164.176" rx="11.9939" ry="10.8627" transform="rotate(162.691 469.908 164.176)" fill="#FFB961"/>
<ellipse cx="452.225" cy="162.607" rx="11.9939" ry="10.8627" transform="rotate(162.691 452.225 162.607)" fill="#FFB961"/>
<ellipse cx="464.665" cy="147.352" rx="11.9939" ry="10.8627" transform="rotate(162.691 464.665 147.352)" fill="#FFB961"/>
<ellipse cx="451.806" cy="152.593" rx="9.83885" ry="10.8627" transform="rotate(162.691 451.806 152.593)" fill="#FFB961"/>
<ellipse cx="496.042" cy="111.456" rx="12.5236" ry="13.7175" transform="rotate(6.44677 496.042 111.456)" fill="#FFB961"/>
<ellipse cx="512.116" cy="121.862" rx="12.5236" ry="13.7175" transform="rotate(6.44677 512.116 121.862)" fill="#FFB961"/>
<ellipse cx="481.943" cy="123.668" rx="12.5236" ry="13.7175" transform="rotate(6.44677 481.943 123.668)" fill="#FFB961"/>
<ellipse cx="493.544" cy="133.568" rx="12.5236" ry="13.7175" transform="rotate(6.44677 493.544 133.568)" fill="#FFB961"/>
<ellipse cx="508.066" cy="133.713" rx="10.2734" ry="13.7175" transform="rotate(6.44677 508.066 133.713)" fill="#FFB961"/>
<ellipse cx="437.397" cy="102.931" rx="11.9939" ry="10.8627" transform="rotate(-2.17006 437.397 102.931)" fill="#FFB961"/>
<ellipse cx="454.057" cy="109.064" rx="11.9939" ry="10.8627" transform="rotate(-2.17006 454.057 109.064)" fill="#FFB961"/>
<ellipse cx="438.064" cy="120.54" rx="11.9939" ry="10.8627" transform="rotate(-2.17006 438.064 120.54)" fill="#FFB961"/>
<ellipse cx="451.846" cy="118.84" rx="9.83885" ry="10.8627" transform="rotate(-2.17006 451.846 118.84)" fill="#FFB961"/>
<path d="M409.5 254L396 163H507L491.89 254H409.5Z" fill="#FF9C1E"/>
<ellipse cx="404.676" cy="134.452" rx="12.2813" ry="13.4521" fill="#FFB961"/>
<ellipse cx="421.484" cy="142.823" rx="12.2813" ry="13.4521" fill="#FFB961"/>
<ellipse cx="392.281" cy="147.904" rx="12.2813" ry="13.4521" fill="#FFB961"/>
<ellipse cx="404.676" cy="156.274" rx="12.2813" ry="13.4521" fill="#FFB961"/>
<ellipse cx="418.843" cy="154.817" rx="10.0746" ry="13.4521" fill="#FFB961"/>
<ellipse cx="452.181" cy="222" rx="19.322" ry="20" fill="white"/>
<path d="M450.062 224.4C449.975 223.707 450.027 223.1 450.218 222.58C450.426 222.06 450.712 221.592 451.076 221.176C451.457 220.76 451.873 220.379 452.324 220.032C452.792 219.685 453.225 219.347 453.624 219.018C454.04 218.689 454.378 218.351 454.638 218.004C454.898 217.657 455.028 217.276 455.028 216.86C455.028 216.34 454.898 215.898 454.638 215.534C454.378 215.17 453.996 214.893 453.494 214.702C453.008 214.511 452.419 214.416 451.726 214.416C450.928 214.416 450.2 214.589 449.542 214.936C448.883 215.283 448.233 215.794 447.592 216.47L445.46 214.494C446.292 213.541 447.271 212.778 448.398 212.206C449.542 211.617 450.798 211.322 452.168 211.322C453.433 211.322 454.551 211.513 455.522 211.894C456.51 212.275 457.281 212.856 457.836 213.636C458.408 214.399 458.694 215.361 458.694 216.522C458.694 217.163 458.555 217.727 458.278 218.212C458.018 218.68 457.671 219.105 457.238 219.486C456.822 219.85 456.38 220.205 455.912 220.552C455.444 220.881 455.01 221.228 454.612 221.592C454.213 221.956 453.901 222.363 453.676 222.814C453.45 223.265 453.364 223.793 453.416 224.4H450.062ZM451.752 231.316C451.093 231.316 450.547 231.099 450.114 230.666C449.68 230.233 449.464 229.687 449.464 229.028C449.464 228.352 449.68 227.797 450.114 227.364C450.547 226.931 451.093 226.714 451.752 226.714C452.41 226.714 452.956 226.931 453.39 227.364C453.823 227.797 454.04 228.352 454.04 229.028C454.04 229.687 453.823 230.233 453.39 230.666C452.956 231.099 452.41 231.316 451.752 231.316Z" fill="#FF5F17"/>
<path d="M421.22 184.28H423.68V188.7C423.68 189.02 423.727 189.227 423.82 189.32C423.927 189.4 424.167 189.44 424.54 189.44C424.607 189.44 424.733 189.44 424.92 189.44C425.107 189.44 425.307 189.44 425.52 189.44C425.747 189.44 425.96 189.44 426.16 189.44C426.36 189.44 426.507 189.44 426.6 189.44C426.827 189.44 426.993 189.38 427.1 189.26C427.22 189.14 427.307 188.9 427.36 188.54C427.413 188.167 427.453 187.613 427.48 186.88C427.653 187 427.867 187.127 428.12 187.26C428.387 187.38 428.66 187.487 428.94 187.58C429.22 187.673 429.467 187.747 429.68 187.8C429.6 188.813 429.46 189.6 429.26 190.16C429.06 190.72 428.767 191.107 428.38 191.32C428.007 191.533 427.493 191.64 426.84 191.64C426.733 191.64 426.587 191.64 426.4 191.64C426.227 191.64 426.033 191.64 425.82 191.64C425.607 191.64 425.387 191.64 425.16 191.64C424.947 191.64 424.753 191.64 424.58 191.64C424.407 191.64 424.273 191.64 424.18 191.64C423.393 191.64 422.78 191.547 422.34 191.36C421.913 191.187 421.62 190.887 421.46 190.46C421.3 190.033 421.22 189.453 421.22 188.72V184.28ZM416.6 185.06H419.14C419.02 185.887 418.833 186.647 418.58 187.34C418.34 188.033 417.967 188.667 417.46 189.24C416.953 189.8 416.267 190.293 415.4 190.72C414.533 191.147 413.427 191.52 412.08 191.84C412.013 191.627 411.907 191.387 411.76 191.12C411.613 190.867 411.453 190.613 411.28 190.36C411.107 190.12 410.94 189.913 410.78 189.74C411.953 189.54 412.9 189.293 413.62 189C414.34 188.693 414.9 188.347 415.3 187.96C415.7 187.573 415.993 187.14 416.18 186.66C416.367 186.167 416.507 185.633 416.6 185.06ZM416.28 180.52V183.2H424.34V180.52H416.28ZM413.94 178.36H426.8V185.34H413.94V178.36ZM418.38 173.48H423.78V175.66H418.38V173.48ZM415.6 174.3L418 175.08C417.6 175.84 417.113 176.58 416.54 177.3C415.967 178.007 415.353 178.667 414.7 179.28C414.047 179.88 413.387 180.4 412.72 180.84C412.6 180.68 412.427 180.48 412.2 180.24C411.973 180 411.74 179.767 411.5 179.54C411.26 179.3 411.047 179.113 410.86 178.98C411.82 178.46 412.72 177.787 413.56 176.96C414.413 176.12 415.093 175.233 415.6 174.3ZM421.9 173.48H424.46C424.82 174.187 425.28 174.88 425.84 175.56C426.4 176.227 427.027 176.847 427.72 177.42C428.413 177.993 429.133 178.467 429.88 178.84C429.693 178.987 429.48 179.173 429.24 179.4C429 179.627 428.767 179.86 428.54 180.1C428.327 180.327 428.147 180.54 428 180.74C427.24 180.247 426.507 179.673 425.8 179.02C425.107 178.367 424.473 177.667 423.9 176.92C423.327 176.173 422.833 175.433 422.42 174.7H421.9V173.48ZM441.06 172.96L443.28 173.32C442.84 174.387 442.28 175.42 441.6 176.42C440.933 177.42 440.053 178.333 438.96 179.16C438.787 178.893 438.54 178.62 438.22 178.34C437.913 178.047 437.633 177.827 437.38 177.68C438.033 177.24 438.593 176.76 439.06 176.24C439.54 175.72 439.947 175.18 440.28 174.62C440.613 174.047 440.873 173.493 441.06 172.96ZM441.62 174.44H445.54V176.28H440.5L441.62 174.44ZM441.92 179.08H443.62C443.58 179.72 443.493 180.3 443.36 180.82C443.227 181.34 443 181.8 442.68 182.2C442.36 182.587 441.9 182.92 441.3 183.2C441.207 183 441.06 182.773 440.86 182.52C440.66 182.267 440.473 182.067 440.3 181.92C440.94 181.64 441.36 181.267 441.56 180.8C441.773 180.333 441.893 179.76 441.92 179.08ZM444.38 179.16H446.12V180.78C446.12 180.967 446.133 181.08 446.16 181.12C446.2 181.16 446.293 181.18 446.44 181.18C446.493 181.18 446.567 181.18 446.66 181.18C446.767 181.18 446.873 181.18 446.98 181.18C447.1 181.18 447.18 181.18 447.22 181.18C447.34 181.18 447.42 181.167 447.46 181.14C447.513 181.1 447.553 181.04 447.58 180.96C447.74 181.067 447.967 181.173 448.26 181.28C448.553 181.387 448.82 181.467 449.06 181.52C448.967 181.96 448.793 182.267 448.54 182.44C448.287 182.6 447.933 182.68 447.48 182.68C447.413 182.68 447.32 182.68 447.2 182.68C447.08 182.68 446.953 182.68 446.82 182.68C446.687 182.68 446.56 182.68 446.44 182.68C446.333 182.68 446.247 182.68 446.18 182.68C445.687 182.68 445.307 182.627 445.04 182.52C444.787 182.4 444.613 182.207 444.52 181.94C444.427 181.66 444.38 181.273 444.38 180.78V179.16ZM437.8 184.98H450.24V186.96H437.8V184.98ZM445.22 185.64C445.58 186.787 446.18 187.707 447.02 188.4C447.86 189.08 449.04 189.527 450.56 189.74C450.32 189.967 450.067 190.28 449.8 190.68C449.547 191.08 449.353 191.433 449.22 191.74C448.033 191.487 447.047 191.107 446.26 190.6C445.473 190.093 444.833 189.453 444.34 188.68C443.847 187.893 443.453 186.96 443.16 185.88L445.22 185.64ZM440.66 177.72H448.06V179.6H440.66V184.36H438.68V177.72H438.7H440.66ZM447.54 177.72H449.58V184.34H447.54V177.72ZM444.74 174.44H445.24L445.58 174.34L447.1 175.3C446.9 175.7 446.667 176.133 446.4 176.6C446.147 177.053 445.88 177.493 445.6 177.92C445.32 178.333 445.053 178.707 444.8 179.04C444.6 178.893 444.34 178.72 444.02 178.52C443.7 178.32 443.42 178.16 443.18 178.04C443.38 177.747 443.58 177.407 443.78 177.02C443.993 176.633 444.18 176.247 444.34 175.86C444.513 175.46 444.647 175.12 444.74 174.84V174.44ZM442.88 183.36H445.06C444.993 184.48 444.86 185.493 444.66 186.4C444.46 187.307 444.12 188.107 443.64 188.8C443.16 189.493 442.473 190.087 441.58 190.58C440.687 191.087 439.513 191.507 438.06 191.84C437.967 191.56 437.8 191.233 437.56 190.86C437.333 190.5 437.113 190.207 436.9 189.98C438.193 189.74 439.227 189.433 440 189.06C440.773 188.673 441.353 188.213 441.74 187.68C442.14 187.147 442.413 186.527 442.56 185.82C442.72 185.1 442.827 184.28 442.88 183.36ZM431.52 183.06C432.32 182.887 433.273 182.653 434.38 182.36C435.5 182.067 436.627 181.76 437.76 181.44L438.06 183.6C437.033 183.907 435.993 184.213 434.94 184.52C433.9 184.827 432.933 185.107 432.04 185.36L431.52 183.06ZM431.84 176.8H437.96V179H431.84V176.8ZM433.94 173.02H436.14V189.26C436.14 189.807 436.08 190.24 435.96 190.56C435.853 190.893 435.647 191.153 435.34 191.34C435.047 191.527 434.673 191.653 434.22 191.72C433.78 191.787 433.227 191.813 432.56 191.8C432.533 191.507 432.46 191.14 432.34 190.7C432.22 190.273 432.087 189.9 431.94 189.58C432.313 189.593 432.653 189.607 432.96 189.62C433.28 189.62 433.5 189.613 433.62 189.6C433.74 189.6 433.82 189.58 433.86 189.54C433.913 189.487 433.94 189.393 433.94 189.26V173.02ZM463.32 180.52V182.64H467.64V180.52H463.32ZM461.12 178.48H469.98V184.7H461.12V178.48ZM465.76 184.1H468.02V188.9C468.02 189.18 468.04 189.36 468.08 189.44C468.12 189.507 468.213 189.54 468.36 189.54C468.4 189.54 468.467 189.54 468.56 189.54C468.667 189.54 468.767 189.54 468.86 189.54C468.967 189.54 469.047 189.54 469.1 189.54C469.207 189.54 469.287 189.48 469.34 189.36C469.407 189.24 469.453 189.007 469.48 188.66C469.52 188.3 469.547 187.753 469.56 187.02C469.707 187.14 469.893 187.26 470.12 187.38C470.36 187.5 470.607 187.607 470.86 187.7C471.127 187.793 471.36 187.867 471.56 187.92C471.507 188.907 471.393 189.667 471.22 190.2C471.06 190.747 470.827 191.12 470.52 191.32C470.227 191.533 469.833 191.64 469.34 191.64C469.26 191.64 469.153 191.64 469.02 191.64C468.9 191.64 468.773 191.64 468.64 191.64C468.52 191.64 468.4 191.64 468.28 191.64C468.16 191.64 468.053 191.64 467.96 191.64C467.36 191.64 466.9 191.553 466.58 191.38C466.26 191.207 466.04 190.92 465.92 190.52C465.813 190.133 465.76 189.6 465.76 188.92V184.1ZM462.4 184.4H464.76C464.707 185.267 464.6 186.073 464.44 186.82C464.293 187.553 464.06 188.233 463.74 188.86C463.42 189.487 462.973 190.047 462.4 190.54C461.84 191.033 461.107 191.467 460.2 191.84C460.12 191.64 460 191.42 459.84 191.18C459.68 190.953 459.513 190.727 459.34 190.5C459.167 190.273 458.993 190.087 458.82 189.94C459.58 189.673 460.187 189.36 460.64 189C461.093 188.627 461.44 188.213 461.68 187.76C461.92 187.293 462.087 186.787 462.18 186.24C462.287 185.68 462.36 185.067 462.4 184.4ZM462.98 173.56H467.82V175.72H462.98V173.56ZM461.58 175.34L463.92 175.94C463.587 176.753 463.18 177.587 462.7 178.44C462.233 179.28 461.713 179.987 461.14 180.56C460.9 180.347 460.6 180.12 460.24 179.88C459.88 179.627 459.567 179.427 459.3 179.28C459.807 178.773 460.26 178.153 460.66 177.42C461.073 176.673 461.38 175.98 461.58 175.34ZM466 173.56H468.48C468.68 174.2 468.94 174.84 469.26 175.48C469.58 176.107 469.94 176.7 470.34 177.26C470.74 177.82 471.153 178.293 471.58 178.68C471.38 178.8 471.147 178.947 470.88 179.12C470.627 179.293 470.38 179.48 470.14 179.68C469.9 179.867 469.7 180.04 469.54 180.2C468.887 179.48 468.293 178.627 467.76 177.64C467.227 176.653 466.787 175.66 466.44 174.66H466V173.56ZM453.44 179.14H459.48V180.96H453.44V179.14ZM453.52 173.64H459.44V175.44H453.52V173.64ZM453.44 181.88H459.48V183.68H453.44V181.88ZM452.5 176.32H460.14V178.22H452.5V176.32ZM454.48 184.64H459.52V190.74H454.48V188.84H457.46V186.54H454.48V184.64ZM453.4 184.64H455.42V191.52H453.4V184.64ZM475.34 174.1H481.1V186.38H475.34V184.2H478.88V176.28H475.34V174.1ZM475.38 179.1H479.74V181.24H475.38V179.1ZM483.92 173.82H490.04V176.04H483.92V173.82ZM483.92 178.58H490.04V180.74H483.92V178.58ZM483.88 183.32H490.02V185.48H483.88V183.32ZM474.08 174.1H476.3V188.12H474.08V174.1ZM489.16 173.82H491.54V189.04C491.54 189.667 491.46 190.153 491.3 190.5C491.153 190.86 490.88 191.14 490.48 191.34C490.08 191.527 489.587 191.647 489 191.7C488.413 191.753 487.7 191.78 486.86 191.78C486.82 191.553 486.753 191.293 486.66 191C486.58 190.72 486.48 190.44 486.36 190.16C486.253 189.893 486.14 189.66 486.02 189.46C486.38 189.473 486.74 189.487 487.1 189.5C487.46 189.5 487.78 189.5 488.06 189.5C488.353 189.487 488.553 189.48 488.66 189.48C488.847 189.48 488.973 189.447 489.04 189.38C489.12 189.313 489.16 189.193 489.16 189.02V173.82ZM482.48 173.82H484.84V181.08C484.84 181.933 484.787 182.853 484.68 183.84C484.573 184.827 484.373 185.813 484.08 186.8C483.8 187.773 483.38 188.707 482.82 189.6C482.26 190.48 481.52 191.26 480.6 191.94C480.48 191.78 480.307 191.593 480.08 191.38C479.867 191.18 479.64 190.98 479.4 190.78C479.173 190.58 478.967 190.433 478.78 190.34C479.633 189.713 480.307 189.027 480.8 188.28C481.293 187.52 481.66 186.733 481.9 185.92C482.14 185.093 482.293 184.267 482.36 183.44C482.44 182.613 482.48 181.82 482.48 181.06V173.82Z" fill="white"/>
</svg>
