<svg width="601" height="318" viewBox="0 0 601 318" fill="none" xmlns="http://www.w3.org/2000/svg">
<path d="M30.9988 34.7771H570.999C587.567 34.7771 600.999 48.2086 600.999 64.7771V317.149H60.9988C44.4302 317.149 30.9988 303.717 30.9988 287.149V34.7771Z" fill="#39BF63"/>
<line x1="378.795" y1="223.648" x2="69.6429" y2="223.648" stroke="white"/>
<path d="M194.079 88.7344V91.6464H201.215V88.7344H194.079ZM190.463 85.6624H204.991V94.6864H190.463V85.6624ZM189.471 96.3504H204.575V99.4864H193.215V114.654H189.471V96.3504ZM190.879 101.15H203.839V104.222H190.879V101.15ZM190.879 105.95H203.839V109.022H190.879V105.95ZM202.015 96.3504H205.951V110.718C205.951 111.614 205.844 112.318 205.631 112.83C205.417 113.342 205.012 113.758 204.415 114.078C203.839 114.356 203.135 114.526 202.303 114.59C201.471 114.654 200.5 114.686 199.391 114.686C199.305 114.153 199.156 113.545 198.943 112.862C198.751 112.201 198.537 111.625 198.303 111.134C198.9 111.156 199.519 111.177 200.159 111.198C200.799 111.198 201.225 111.198 201.439 111.198C201.823 111.198 202.015 111.017 202.015 110.654V96.3504ZM176.959 100.862C177.94 100.649 179.06 100.404 180.319 100.126C181.577 99.8491 182.9 99.5397 184.287 99.1984C185.673 98.8357 187.049 98.4837 188.415 98.1424L188.863 101.694C187.007 102.185 185.119 102.686 183.199 103.198C181.279 103.71 179.529 104.158 177.951 104.542L176.959 100.862ZM177.375 90.7184H188.799V94.2704H177.375V90.7184ZM181.343 84.6064H185.087V110.526C185.087 111.444 184.98 112.158 184.767 112.67C184.575 113.204 184.201 113.62 183.647 113.918C183.113 114.196 182.441 114.377 181.631 114.462C180.841 114.548 179.881 114.58 178.751 114.558C178.708 114.089 178.58 113.513 178.367 112.83C178.153 112.169 177.929 111.593 177.695 111.102C178.335 111.124 178.943 111.145 179.519 111.166C180.116 111.166 180.511 111.166 180.703 111.166C180.937 111.145 181.097 111.092 181.183 111.006C181.289 110.921 181.343 110.761 181.343 110.526V84.6064ZM226.047 96.5104V98.3344H235.903V96.5104H226.047ZM226.047 92.3184V94.0784H235.903V92.3184H226.047ZM222.751 89.6304H239.359V101.022H222.751V89.6304ZM224.063 102.398H238.207V114.686H234.559V105.246H227.551V114.686H224.063V102.398ZM234.879 84.5744L238.719 85.6944C238.228 86.5691 237.737 87.4117 237.247 88.2224C236.756 89.0117 236.308 89.6837 235.903 90.2384L232.735 89.2144C233.097 88.5531 233.481 87.7957 233.887 86.9424C234.313 86.0677 234.644 85.2784 234.879 84.5744ZM223.711 85.8864L226.879 84.7024C227.327 85.3637 227.764 86.1104 228.191 86.9424C228.639 87.7531 228.959 88.4677 229.151 89.0864L225.759 90.4304C225.609 89.8117 225.332 89.0864 224.927 88.2544C224.543 87.4011 224.137 86.6117 223.711 85.8864ZM226.175 106.75H236.127V109.438H226.175V106.75ZM226.175 111.006H236.127V113.79H226.175V111.006ZM229.151 90.9744H232.543V99.3904H229.151V90.9744ZM213.247 106.782L216.575 107.55C216.169 108.894 215.625 110.217 214.943 111.518C214.26 112.798 213.535 113.876 212.767 114.75C212.575 114.558 212.297 114.345 211.935 114.11C211.572 113.876 211.209 113.641 210.847 113.406C210.484 113.172 210.175 112.99 209.919 112.862C210.644 112.094 211.295 111.166 211.871 110.078C212.468 108.99 212.927 107.892 213.247 106.782ZM216.991 107.934L219.839 106.718C220.372 107.529 220.895 108.425 221.407 109.406C221.94 110.366 222.345 111.209 222.623 111.934L219.647 113.342C219.497 112.852 219.273 112.297 218.975 111.678C218.697 111.038 218.388 110.398 218.047 109.758C217.705 109.097 217.353 108.489 216.991 107.934ZM214.975 94.6544V97.6624H218.143V94.6544H214.975ZM214.975 100.478V103.486H218.143V100.478H214.975ZM214.975 88.8624V91.8064H218.143V88.8624H214.975ZM211.711 85.8224H221.503V106.558H211.711V85.8224ZM244.287 86.3344H272.927V89.3104H244.287V86.3344ZM249.823 95.4224H269.343V97.3424H249.823V95.4224ZM249.823 98.3984H269.375V100.318H249.823V98.3984ZM249.823 101.374H272.159V103.742H249.823V101.374ZM248.543 111.518H268.927V113.854H248.543V111.518ZM249.087 108.158H257.887V110.206H249.087V108.158ZM259.391 108.158H268.351V110.206H259.391V108.158ZM251.359 84.6064H255.071V90.7184H251.359V84.6064ZM261.919 84.6064H265.695V90.7184H261.919V84.6064ZM256.895 93.3744H260.511V102.622H256.895V93.3744ZM251.071 91.9664H270.815V94.3664H251.071V104.126H247.583V94.5264L250.079 91.9664H251.071ZM257.279 89.8544L261.247 90.1744C260.927 90.8144 260.596 91.4117 260.255 91.9664C259.913 92.4997 259.615 92.9797 259.359 93.4064L256.319 92.9584C256.511 92.4677 256.692 91.9344 256.863 91.3584C257.055 90.7824 257.193 90.2811 257.279 89.8544ZM259.135 104.798H270.783V114.654H266.943V107.006H259.135V104.798ZM246.527 104.574L250.335 105.438V114.686H246.527V104.574ZM256.159 103.582L258.431 105.534C257.556 105.854 256.575 106.142 255.487 106.398C254.399 106.633 253.279 106.836 252.127 107.006C250.996 107.177 249.897 107.316 248.831 107.422C248.788 107.145 248.681 106.804 248.511 106.398C248.34 105.993 248.18 105.641 248.031 105.342C249.012 105.214 250.004 105.054 251.007 104.862C252.009 104.67 252.959 104.468 253.855 104.254C254.772 104.041 255.54 103.817 256.159 103.582ZM249.471 89.9184L252.927 90.5264C252.18 91.9984 251.284 93.4491 250.239 94.8784C249.193 96.2864 247.924 97.5984 246.431 98.8144C246.281 98.5584 246.057 98.2811 245.759 97.9824C245.481 97.6837 245.183 97.3957 244.863 97.1184C244.564 96.8411 244.297 96.6277 244.063 96.4784C245.343 95.5184 246.441 94.4517 247.359 93.2784C248.276 92.0837 248.98 90.9637 249.471 89.9184ZM281.407 104.318H302.751V114.75H298.847V106.75H285.119V114.782H281.407V104.318ZM283.359 107.934H300.223V110.142H283.359V107.934ZM283.359 111.39H300.223V113.822H283.359V111.39ZM289.759 84.5104H293.631V102.398H289.759V84.5104ZM280.703 86.5264H302.591V96.0624H280.351V93.7904H298.783V88.7984H280.703V86.5264ZM277.407 89.9504H306.271V92.6064H277.407V89.9504ZM279.647 97.1824H303.903V99.4864H279.647V97.1824ZM277.375 100.67H306.271V103.326H277.375V100.67ZM327.418 96.7344H347.866V100.19H327.418V96.7344ZM328.538 90.2704H346.778V93.6624H328.538V90.2704ZM335.29 91.9344H339.13V97.0544C339.13 98.0784 339.002 99.1451 338.746 100.254C338.511 101.364 338.063 102.473 337.402 103.582C336.762 104.67 335.834 105.726 334.618 106.75C333.423 107.753 331.876 108.67 329.978 109.502C329.807 109.225 329.572 108.916 329.274 108.574C328.975 108.233 328.666 107.892 328.346 107.55C328.026 107.209 327.716 106.932 327.418 106.718C329.231 106.057 330.66 105.321 331.706 104.51C332.772 103.7 333.551 102.857 334.042 101.982C334.554 101.108 334.884 100.254 335.034 99.4224C335.204 98.5691 335.29 97.7691 335.29 97.0224V91.9344ZM339.706 99.1664C340.367 100.937 341.37 102.441 342.714 103.678C344.079 104.894 345.828 105.769 347.962 106.302C347.684 106.558 347.386 106.878 347.066 107.262C346.767 107.646 346.479 108.041 346.202 108.446C345.946 108.83 345.722 109.193 345.53 109.534C343.183 108.766 341.284 107.561 339.834 105.918C338.383 104.276 337.263 102.26 336.474 99.8704L339.706 99.1664ZM326.138 97.0864V108.894H322.394V100.638H318.682V97.0864H326.138ZM326.138 107.23C326.799 108.276 327.727 109.044 328.922 109.534C330.116 110.025 331.546 110.302 333.21 110.366C334.148 110.409 335.258 110.441 336.538 110.462C337.839 110.462 339.204 110.452 340.634 110.43C342.063 110.409 343.46 110.366 344.826 110.302C346.212 110.238 347.439 110.164 348.506 110.078C348.378 110.377 348.228 110.761 348.058 111.23C347.887 111.7 347.727 112.18 347.578 112.67C347.45 113.161 347.354 113.598 347.29 113.982C346.33 114.046 345.231 114.089 343.994 114.11C342.756 114.153 341.487 114.174 340.186 114.174C338.884 114.196 337.626 114.196 336.41 114.174C335.194 114.153 334.106 114.121 333.146 114.078C331.183 113.993 329.508 113.684 328.122 113.15C326.735 112.638 325.508 111.764 324.442 110.526C323.738 111.124 323.012 111.742 322.266 112.382C321.54 113.022 320.74 113.684 319.866 114.366L317.978 110.366C318.724 109.918 319.503 109.428 320.314 108.894C321.124 108.361 321.903 107.806 322.65 107.23H326.138ZM318.714 87.6784L321.562 85.3744C322.223 85.8011 322.895 86.3024 323.578 86.8784C324.26 87.4331 324.9 88.0091 325.498 88.6064C326.095 89.1824 326.575 89.7157 326.938 90.2064L323.898 92.7664C323.578 92.2544 323.13 91.6997 322.554 91.1024C321.999 90.5051 321.38 89.9077 320.698 89.3104C320.015 88.6917 319.354 88.1477 318.714 87.6784ZM341.914 84.6064L345.818 85.8224C345.242 86.7397 344.644 87.6464 344.026 88.5424C343.428 89.4171 342.874 90.1637 342.362 90.7824L339.226 89.6944C339.546 89.2037 339.876 88.6704 340.218 88.0944C340.559 87.4971 340.879 86.8997 341.178 86.3024C341.476 85.6837 341.722 85.1184 341.914 84.6064ZM329.37 86.0144L332.602 84.6704C333.199 85.3957 333.764 86.2171 334.298 87.1344C334.831 88.0517 335.204 88.8624 335.418 89.5664L331.962 91.0384C331.791 90.3557 331.45 89.5451 330.938 88.6064C330.447 87.6464 329.924 86.7824 329.37 86.0144Z" fill="white"/>
<path d="M81.611 246.348H93.347V248.868H81.611V246.348ZM79.955 256.596H97.307V259.092H79.955V256.596ZM80.555 242.292H97.427V244.86H80.555V242.292ZM92.195 246.348H95.051C95.051 246.348 95.051 246.428 95.051 246.588C95.051 246.748 95.043 246.932 95.027 247.14C95.027 247.332 95.027 247.492 95.027 247.62C94.963 249.94 94.891 251.908 94.811 253.524C94.731 255.124 94.643 256.436 94.547 257.46C94.451 258.484 94.331 259.276 94.187 259.836C94.043 260.396 93.875 260.812 93.683 261.084C93.411 261.484 93.115 261.756 92.795 261.9C92.475 262.06 92.107 262.172 91.691 262.236C91.307 262.284 90.827 262.308 90.251 262.308C89.675 262.324 89.075 262.316 88.451 262.284C88.435 261.98 88.363 261.612 88.235 261.18C88.123 260.748 87.971 260.38 87.779 260.076C88.323 260.124 88.811 260.156 89.243 260.172C89.691 260.188 90.043 260.188 90.299 260.172C90.507 260.172 90.675 260.148 90.803 260.1C90.931 260.052 91.051 259.948 91.163 259.788C91.307 259.612 91.427 259.26 91.523 258.732C91.635 258.188 91.731 257.42 91.811 256.428C91.891 255.42 91.963 254.14 92.027 252.588C92.091 251.02 92.147 249.14 92.195 246.948V246.348ZM80.267 246.348H83.147C83.035 247.484 82.899 248.676 82.739 249.924C82.579 251.156 82.419 252.388 82.259 253.62C82.099 254.836 81.931 255.996 81.755 257.1C81.595 258.188 81.435 259.172 81.275 260.052L78.347 259.836C78.523 258.972 78.699 257.988 78.875 256.884C79.067 255.78 79.251 254.628 79.427 253.428C79.603 252.228 79.755 251.028 79.883 249.828C80.027 248.612 80.155 247.452 80.267 246.348ZM81.371 239.604L84.395 240.492C83.915 241.58 83.355 242.668 82.715 243.756C82.075 244.828 81.403 245.844 80.699 246.804C80.011 247.748 79.315 248.572 78.611 249.276C78.419 249.1 78.155 248.9 77.819 248.676C77.483 248.452 77.139 248.236 76.787 248.028C76.451 247.804 76.155 247.628 75.899 247.5C76.635 246.876 77.339 246.14 78.011 245.292C78.699 244.444 79.331 243.532 79.907 242.556C80.483 241.58 80.971 240.596 81.371 239.604ZM84.515 249.828L86.099 248.292C86.563 248.484 87.043 248.724 87.539 249.012C88.035 249.284 88.499 249.564 88.931 249.852C89.363 250.14 89.723 250.42 90.011 250.692L88.331 252.372C88.075 252.116 87.731 251.836 87.299 251.532C86.883 251.212 86.427 250.908 85.931 250.62C85.451 250.316 84.979 250.052 84.515 249.828ZM84.203 254.796L85.787 253.26C86.251 253.468 86.739 253.716 87.251 254.004C87.763 254.292 88.235 254.588 88.667 254.892C89.115 255.196 89.483 255.492 89.771 255.78L88.115 257.484C87.843 257.196 87.491 256.892 87.059 256.572C86.627 256.236 86.163 255.916 85.667 255.612C85.171 255.308 84.683 255.036 84.203 254.796ZM75.995 251.412H81.059V251.508H93.467V251.412H98.363V253.98H93.467V253.884H81.059V253.98H75.995V251.412ZM110.099 240.324H113.411C113.379 240.996 113.323 241.86 113.243 242.916C113.163 243.972 113.011 245.148 112.787 246.444C112.579 247.724 112.259 249.068 111.827 250.476C111.395 251.884 110.803 253.292 110.051 254.7C109.315 256.092 108.371 257.428 107.219 258.708C106.083 259.972 104.699 261.1 103.067 262.092C102.811 261.724 102.459 261.332 102.011 260.916C101.579 260.5 101.123 260.124 100.643 259.788C102.243 258.892 103.587 257.868 104.675 256.716C105.763 255.564 106.651 254.356 107.339 253.092C108.027 251.812 108.555 250.532 108.923 249.252C109.291 247.956 109.555 246.732 109.715 245.58C109.875 244.428 109.971 243.396 110.003 242.484C110.035 241.572 110.067 240.852 110.099 240.324ZM113.291 240.972C113.307 241.276 113.339 241.756 113.387 242.412C113.435 243.068 113.531 243.852 113.675 244.764C113.819 245.676 114.035 246.668 114.323 247.74C114.627 248.796 115.027 249.884 115.523 251.004C116.019 252.124 116.635 253.22 117.371 254.292C118.107 255.364 118.995 256.356 120.035 257.268C121.091 258.18 122.323 258.972 123.731 259.644C123.267 259.98 122.835 260.372 122.435 260.82C122.051 261.268 121.739 261.692 121.499 262.092C120.027 261.356 118.739 260.484 117.635 259.476C116.547 258.452 115.611 257.348 114.827 256.164C114.059 254.964 113.419 253.748 112.907 252.516C112.395 251.284 111.979 250.076 111.659 248.892C111.355 247.692 111.123 246.58 110.963 245.556C110.803 244.532 110.691 243.644 110.627 242.892C110.579 242.14 110.539 241.596 110.507 241.26L113.291 240.972ZM137.219 245.22H145.475V247.572H137.219V245.22ZM133.091 259.14C133.811 259.028 134.643 258.892 135.587 258.732C136.547 258.572 137.563 258.404 138.635 258.228C139.707 258.036 140.771 257.844 141.827 257.652L142.067 260.148C140.675 260.468 139.275 260.78 137.867 261.084C136.459 261.404 135.179 261.684 134.027 261.924L133.091 259.14ZM135.587 240.828H138.371V259.788H135.587V240.828ZM137.219 240.828H146.795V252.06H137.219V249.588H143.939V243.3H137.219V240.828ZM142.211 250.404C142.515 251.844 142.931 253.18 143.459 254.412C143.987 255.628 144.659 256.7 145.475 257.628C146.291 258.556 147.291 259.276 148.475 259.788C148.267 259.98 148.043 260.212 147.803 260.484C147.563 260.772 147.331 261.068 147.107 261.372C146.899 261.692 146.731 261.98 146.603 262.236C145.307 261.548 144.219 260.652 143.339 259.548C142.475 258.428 141.763 257.132 141.203 255.66C140.643 254.188 140.187 252.572 139.835 250.812L142.211 250.404ZM145.691 252.228L147.947 253.788C147.291 254.428 146.595 255.06 145.859 255.684C145.139 256.292 144.475 256.812 143.867 257.244L142.091 255.876C142.475 255.556 142.883 255.188 143.315 254.772C143.763 254.356 144.195 253.924 144.611 253.476C145.027 253.028 145.387 252.612 145.691 252.228ZM126.851 240.78H132.827V243.372H129.539V262.308H126.851V240.78ZM132.035 240.78H132.539L132.947 240.684L134.915 241.812C134.691 242.516 134.451 243.26 134.195 244.044C133.939 244.828 133.683 245.604 133.427 246.372C133.171 247.14 132.915 247.836 132.659 248.46C133.443 249.388 133.947 250.268 134.171 251.1C134.411 251.916 134.531 252.676 134.531 253.38C134.531 254.18 134.443 254.836 134.267 255.348C134.091 255.86 133.803 256.26 133.403 256.548C133.211 256.692 132.987 256.804 132.731 256.884C132.491 256.964 132.243 257.028 131.987 257.076C131.763 257.108 131.499 257.124 131.195 257.124C130.907 257.124 130.611 257.124 130.307 257.124C130.291 256.756 130.227 256.324 130.115 255.828C130.019 255.332 129.875 254.908 129.683 254.556C129.907 254.572 130.107 254.58 130.283 254.58C130.475 254.58 130.643 254.58 130.787 254.58C130.915 254.58 131.035 254.564 131.147 254.532C131.275 254.484 131.395 254.428 131.507 254.364C131.651 254.252 131.755 254.084 131.819 253.86C131.899 253.62 131.931 253.332 131.915 252.996C131.915 252.436 131.795 251.796 131.555 251.076C131.331 250.34 130.859 249.572 130.139 248.772C130.315 248.228 130.491 247.628 130.667 246.972C130.859 246.316 131.035 245.66 131.195 245.004C131.371 244.332 131.531 243.708 131.675 243.132C131.835 242.54 131.955 242.052 132.035 241.668V240.78ZM161.987 239.7L164.651 240.132C164.123 241.412 163.451 242.652 162.635 243.852C161.835 245.052 160.779 246.148 159.467 247.14C159.259 246.82 158.963 246.492 158.579 246.156C158.211 245.804 157.875 245.54 157.571 245.364C158.355 244.836 159.027 244.26 159.587 243.636C160.163 243.012 160.651 242.364 161.051 241.692C161.451 241.004 161.763 240.34 161.987 239.7ZM162.659 241.476H167.363V243.684H161.315L162.659 241.476ZM163.019 247.044H165.059C165.011 247.812 164.907 248.508 164.747 249.132C164.587 249.756 164.315 250.308 163.931 250.788C163.547 251.252 162.995 251.652 162.275 251.988C162.163 251.748 161.987 251.476 161.747 251.172C161.507 250.868 161.283 250.628 161.075 250.452C161.843 250.116 162.347 249.668 162.587 249.108C162.843 248.548 162.987 247.86 163.019 247.044ZM165.971 247.14H168.059V249.084C168.059 249.308 168.075 249.444 168.107 249.492C168.155 249.54 168.267 249.564 168.443 249.564C168.507 249.564 168.595 249.564 168.707 249.564C168.835 249.564 168.963 249.564 169.091 249.564C169.235 249.564 169.331 249.564 169.379 249.564C169.523 249.564 169.619 249.548 169.667 249.516C169.731 249.468 169.779 249.396 169.811 249.3C170.003 249.428 170.275 249.556 170.627 249.684C170.979 249.812 171.299 249.908 171.587 249.972C171.475 250.5 171.267 250.868 170.963 251.076C170.659 251.268 170.235 251.364 169.691 251.364C169.611 251.364 169.499 251.364 169.355 251.364C169.211 251.364 169.059 251.364 168.899 251.364C168.739 251.364 168.587 251.364 168.443 251.364C168.315 251.364 168.211 251.364 168.131 251.364C167.539 251.364 167.083 251.3 166.763 251.172C166.459 251.028 166.251 250.796 166.139 250.476C166.027 250.14 165.971 249.676 165.971 249.084V247.14ZM158.075 254.124H173.003V256.5H158.075V254.124ZM166.979 254.916C167.411 256.292 168.131 257.396 169.139 258.228C170.147 259.044 171.563 259.58 173.387 259.836C173.099 260.108 172.795 260.484 172.475 260.964C172.171 261.444 171.939 261.868 171.779 262.236C170.355 261.932 169.171 261.476 168.227 260.868C167.283 260.26 166.515 259.492 165.923 258.564C165.331 257.62 164.859 256.5 164.507 255.204L166.979 254.916ZM161.507 245.412H170.387V247.668H161.507V253.38H159.131V245.412H159.155H161.507ZM169.763 245.412H172.211V253.356H169.763V245.412ZM166.403 241.476H167.003L167.411 241.356L169.235 242.508C168.995 242.988 168.715 243.508 168.395 244.068C168.091 244.612 167.771 245.14 167.435 245.652C167.099 246.148 166.779 246.596 166.475 246.996C166.235 246.82 165.923 246.612 165.539 246.372C165.155 246.132 164.819 245.94 164.531 245.796C164.771 245.444 165.011 245.036 165.251 244.572C165.507 244.108 165.731 243.644 165.923 243.18C166.131 242.7 166.291 242.292 166.403 241.956V241.476ZM164.171 252.18H166.787C166.707 253.524 166.547 254.74 166.307 255.828C166.067 256.916 165.659 257.876 165.083 258.708C164.507 259.54 163.683 260.252 162.611 260.844C161.539 261.452 160.131 261.956 158.387 262.356C158.275 262.02 158.075 261.628 157.787 261.18C157.515 260.748 157.251 260.396 156.995 260.124C158.547 259.836 159.787 259.468 160.715 259.02C161.643 258.556 162.339 258.004 162.803 257.364C163.283 256.724 163.611 255.98 163.787 255.132C163.979 254.268 164.107 253.284 164.171 252.18ZM150.539 251.82C151.499 251.612 152.643 251.332 153.971 250.98C155.315 250.628 156.667 250.26 158.027 249.876L158.387 252.468C157.155 252.836 155.907 253.204 154.643 253.572C153.395 253.94 152.235 254.276 151.163 254.58L150.539 251.82ZM150.923 244.308H158.267V246.948H150.923V244.308ZM153.443 239.772H156.083V259.26C156.083 259.916 156.011 260.436 155.867 260.82C155.739 261.22 155.491 261.532 155.123 261.756C154.771 261.98 154.323 262.132 153.779 262.212C153.251 262.292 152.587 262.324 151.787 262.308C151.755 261.956 151.667 261.516 151.523 260.988C151.379 260.476 151.219 260.028 151.043 259.644C151.491 259.66 151.899 259.676 152.267 259.692C152.651 259.692 152.915 259.684 153.059 259.668C153.203 259.668 153.299 259.644 153.347 259.596C153.411 259.532 153.443 259.42 153.443 259.26V239.772ZM190.469 242.694V260.148H186.259V246.631H186.157L182.253 249.018V245.37L186.557 242.694H190.469ZM201.533 244.428H222.749V247.356H201.533V244.428ZM206.453 255.3H217.613V258.228H206.453V255.3ZM210.581 239.772H213.629V262.308H210.581V239.772ZM209.717 245.484L212.357 246.324C211.669 248.052 210.837 249.7 209.861 251.268C208.885 252.836 207.789 254.26 206.573 255.54C205.373 256.804 204.077 257.884 202.685 258.78C202.525 258.54 202.317 258.276 202.061 257.988C201.805 257.684 201.549 257.388 201.293 257.1C201.053 256.796 200.813 256.556 200.573 256.38C201.565 255.836 202.517 255.172 203.429 254.388C204.341 253.604 205.189 252.732 205.973 251.772C206.773 250.812 207.485 249.804 208.109 248.748C208.749 247.676 209.285 246.588 209.717 245.484ZM214.517 245.556C215.093 246.964 215.845 248.348 216.773 249.708C217.717 251.052 218.789 252.276 219.989 253.38C221.189 254.484 222.453 255.388 223.781 256.092C223.541 256.284 223.277 256.532 222.989 256.836C222.717 257.14 222.453 257.46 222.197 257.796C221.941 258.116 221.725 258.412 221.549 258.684C220.157 257.82 218.853 256.764 217.637 255.516C216.437 254.252 215.357 252.844 214.397 251.292C213.437 249.74 212.605 248.116 211.901 246.42L214.517 245.556Z" fill="white"/>
<path d="M92.7668 148.461C91.5681 150.162 90.1374 151.921 88.4748 153.739C86.8121 155.517 84.9754 157.296 82.9648 159.075C80.9541 160.815 78.8081 162.477 76.5268 164.063C74.2841 165.648 71.9641 167.098 69.5668 168.413C69.1414 167.601 68.4841 166.653 67.5948 165.571C66.7441 164.449 65.9321 163.541 65.1588 162.845C68.5228 161.105 71.7321 159.055 74.7868 156.697C77.8414 154.299 80.5868 151.786 83.0228 149.157C85.4588 146.527 87.3921 144.033 88.8228 141.675H96.0728C97.6194 143.879 99.3594 146.005 101.293 148.055C103.226 150.104 105.256 152.018 107.383 153.797C109.548 155.537 111.771 157.122 114.053 158.553C116.373 159.945 118.693 161.143 121.013 162.149C120.123 163.038 119.292 164.024 118.519 165.107C117.745 166.189 117.03 167.272 116.373 168.355C114.169 167.117 111.926 165.725 109.645 164.179C107.363 162.593 105.179 160.931 103.091 159.191C101.003 157.412 99.0694 155.614 97.2908 153.797C95.5121 151.979 94.0041 150.201 92.7668 148.461ZM73.1048 175.721H112.777V181.753H73.1048V175.721ZM76.0628 162.845H110.109V168.993H76.0628V162.845ZM68.4068 188.771H117.997V194.977H68.4068V188.771ZM89.1708 165.571H96.4788V192.193H89.1708V165.571ZM156.509 161.047H178.201V167.485H156.509V161.047ZM125.073 147.649H151.231V153.275H125.073V147.649ZM124.551 170.733H151.173V176.591H124.551V170.733ZM124.377 160.583H151.695V166.267H124.377V160.583ZM165.905 163.889H172.691V196.079H165.905V163.889ZM134.817 142.371H141.545V150.143H134.817V142.371ZM134.817 165.919H141.545V196.253H134.817V165.919ZM153.377 146.431L161.497 148.751C161.458 149.253 160.975 149.582 160.047 149.737V166.789C160.047 168.954 159.931 171.332 159.699 173.923C159.505 176.475 159.099 179.104 158.481 181.811C157.862 184.479 156.953 187.069 155.755 189.583C154.556 192.096 152.971 194.397 150.999 196.485C150.728 195.943 150.283 195.363 149.665 194.745C149.085 194.126 148.466 193.527 147.809 192.947C147.19 192.405 146.591 191.999 146.011 191.729C147.712 189.95 149.046 188.036 150.013 185.987C151.018 183.899 151.753 181.753 152.217 179.549C152.719 177.345 153.029 175.16 153.145 172.995C153.299 170.791 153.377 168.683 153.377 166.673V146.431ZM172.343 142.487L177.911 147.533C175.939 148.422 173.793 149.234 171.473 149.969C169.153 150.703 166.775 151.361 164.339 151.941C161.941 152.482 159.621 152.965 157.379 153.391C157.185 152.656 156.876 151.767 156.451 150.723C156.025 149.679 155.6 148.809 155.175 148.113C157.263 147.649 159.37 147.127 161.497 146.547C163.623 145.928 165.615 145.271 167.471 144.575C169.365 143.879 170.989 143.183 172.343 142.487ZM141.081 176.823C141.506 177.055 142.125 177.48 142.937 178.099C143.787 178.717 144.677 179.394 145.605 180.129C146.533 180.825 147.364 181.482 148.099 182.101C148.872 182.681 149.452 183.106 149.839 183.377L145.779 188.365C145.315 187.823 144.715 187.166 143.981 186.393C143.285 185.581 142.511 184.769 141.661 183.957C140.849 183.145 140.056 182.371 139.283 181.637C138.509 180.902 137.852 180.303 137.311 179.839L141.081 176.823ZM127.973 154.145L133.367 152.869C133.869 153.913 134.314 155.092 134.701 156.407C135.087 157.683 135.339 158.785 135.455 159.713L129.829 161.279C129.751 160.312 129.539 159.171 129.191 157.857C128.881 156.503 128.475 155.266 127.973 154.145ZM142.415 152.753L148.621 153.971C148.079 155.285 147.557 156.561 147.055 157.799C146.552 158.997 146.088 160.022 145.663 160.873L140.095 159.713C140.365 159.055 140.655 158.321 140.965 157.509C141.274 156.697 141.564 155.885 141.835 155.073C142.105 154.222 142.299 153.449 142.415 152.753ZM134.875 174.097L139.747 175.953C138.819 178.041 137.697 180.148 136.383 182.275C135.068 184.363 133.637 186.315 132.091 188.133C130.544 189.95 128.997 191.477 127.451 192.715C126.948 191.98 126.252 191.129 125.363 190.163C124.473 189.157 123.661 188.365 122.927 187.785C124.435 186.818 125.943 185.6 127.451 184.131C128.959 182.623 130.351 181.018 131.627 179.317C132.941 177.577 134.024 175.837 134.875 174.097ZM206.215 144.807H229.821V151.187H206.215V144.807ZM204.243 164.933H236.317V171.545H204.243V164.933ZM216.539 158.205H223.499V188.597C223.499 190.337 223.286 191.709 222.861 192.715C222.435 193.72 221.662 194.493 220.541 195.035C219.381 195.576 217.989 195.924 216.365 196.079C214.779 196.272 212.923 196.349 210.797 196.311C210.642 195.344 210.313 194.203 209.811 192.889C209.308 191.574 208.805 190.433 208.303 189.467C209.772 189.505 211.183 189.544 212.537 189.583C213.89 189.621 214.818 189.621 215.321 189.583C215.785 189.583 216.094 189.505 216.249 189.351C216.442 189.196 216.539 188.925 216.539 188.539V158.205ZM227.269 144.807H229.009L230.401 144.401L234.925 147.823C233.803 149.524 232.527 151.303 231.097 153.159C229.705 154.976 228.235 156.735 226.689 158.437C225.142 160.099 223.615 161.569 222.107 162.845C221.643 162.226 221.005 161.511 220.193 160.699C219.381 159.887 218.685 159.249 218.105 158.785C219.265 157.702 220.444 156.407 221.643 154.899C222.841 153.391 223.924 151.863 224.891 150.317C225.896 148.77 226.689 147.417 227.269 146.257V144.807ZM182.145 153.391H200.937V159.887H182.145V153.391ZM189.975 141.849L196.471 142.545C195.929 145.638 195.311 148.886 194.615 152.289C193.957 155.691 193.261 159.094 192.527 162.497C191.792 165.861 191.057 169.128 190.323 172.299C189.588 175.431 188.873 178.292 188.177 180.883L182.493 177.925C183.15 175.643 183.807 173.033 184.465 170.095C185.161 167.156 185.837 164.063 186.495 160.815C187.152 157.528 187.771 154.28 188.351 151.071C188.969 147.823 189.511 144.749 189.975 141.849ZM185.567 176.939L189.337 172.009C191.347 173.285 193.455 174.715 195.659 176.301C197.901 177.886 199.97 179.491 201.865 181.115C203.798 182.739 205.325 184.285 206.447 185.755L202.271 191.381C201.188 189.911 199.719 188.326 197.863 186.625C196.007 184.885 193.996 183.164 191.831 181.463C189.704 179.761 187.616 178.253 185.567 176.939ZM198.501 153.391H199.661L200.879 153.275L204.997 153.971C204.571 161.511 203.624 168.026 202.155 173.517C200.724 178.969 198.713 183.57 196.123 187.321C193.571 191.071 190.361 194.145 186.495 196.543C186.069 195.692 185.451 194.706 184.639 193.585C183.827 192.502 183.053 191.651 182.319 191.033C185.605 189.293 188.389 186.741 190.671 183.377C192.952 180.013 194.731 175.914 196.007 171.081C197.321 166.247 198.153 160.795 198.501 154.725V153.391ZM248.091 177.577H286.777V196.485H279.701V181.985H254.819V196.543H248.091V177.577ZM251.629 184.131H282.195V188.133H251.629V184.131ZM251.629 190.395H282.195V194.803H251.629V190.395ZM263.229 141.675H270.247V174.097H263.229V141.675ZM246.815 145.329H286.487V162.613H246.177V158.495H279.585V149.447H246.815V145.329ZM240.841 151.535H293.157V156.349H240.841V151.535ZM244.901 164.643H288.865V168.819H244.901V164.643ZM240.783 170.965H293.157V175.779H240.783V170.965ZM304.735 168.308L297.703 194.43H296.979L304.01 168.308H304.735ZM313.062 153.623L318.688 154.783C317.992 157.915 317.025 160.911 315.788 163.773C314.551 166.634 313.081 169.012 311.38 170.907C311.071 170.559 310.645 170.133 310.104 169.631C309.601 169.128 309.079 168.625 308.538 168.123C307.997 167.62 307.513 167.214 307.088 166.905C308.557 165.319 309.795 163.367 310.8 161.047C311.805 158.688 312.559 156.213 313.062 153.623ZM308.422 172.763H334.58V178.795H308.422V172.763ZM308.19 147.301H334.87V153.391H308.19V147.301ZM318.398 168.993H325.01V196.253H318.398V168.993ZM318.398 141.849H325.01V150.897H318.398V141.849ZM324.314 178.505C324.855 178.814 325.609 179.355 326.576 180.129C327.543 180.863 328.567 181.656 329.65 182.507C330.733 183.357 331.719 184.169 332.608 184.943C333.536 185.677 334.193 186.219 334.58 186.567L330.752 191.961C330.172 191.265 329.437 190.472 328.548 189.583C327.697 188.655 326.789 187.707 325.822 186.741C324.855 185.774 323.908 184.865 322.98 184.015C322.091 183.125 321.337 182.41 320.718 181.869L324.314 178.505ZM317.702 175.547L322.516 178.331C321.627 180.264 320.525 182.236 319.21 184.247C317.895 186.257 316.484 188.152 314.976 189.931C313.468 191.709 311.941 193.237 310.394 194.513C310.123 193.971 309.775 193.333 309.35 192.599C308.963 191.903 308.557 191.207 308.132 190.511C307.707 189.815 307.262 189.254 306.798 188.829C308.19 187.901 309.582 186.721 310.974 185.291C312.366 183.86 313.642 182.294 314.802 180.593C316.001 178.891 316.967 177.209 317.702 175.547ZM324.604 153.623L330.172 154.609C329.553 157.818 328.587 160.795 327.272 163.541C325.996 166.247 324.449 168.529 322.632 170.385C322.323 170.037 321.897 169.631 321.356 169.167C320.853 168.664 320.312 168.2 319.732 167.775C319.191 167.311 318.707 166.924 318.282 166.615C319.945 165.107 321.298 163.212 322.342 160.931C323.386 158.649 324.14 156.213 324.604 153.623ZM312.946 161.395L315.788 157.683C316.677 158.263 317.586 158.959 318.514 159.771C319.442 160.583 320.157 161.317 320.66 161.975L317.76 166.093C317.296 165.397 316.6 164.604 315.672 163.715C314.744 162.825 313.835 162.052 312.946 161.395ZM324.662 162.671L327.794 158.727C328.954 159.655 330.191 160.737 331.506 161.975C332.859 163.173 333.903 164.217 334.638 165.107L331.448 169.515C330.752 168.587 329.727 167.485 328.374 166.209C327.059 164.894 325.822 163.715 324.662 162.671ZM339.046 164.295H360.97V170.153H339.046V164.295ZM339.046 175.721H360.97V181.579H339.046V175.721ZM338.872 187.379H362.014V193.643H338.872V187.379ZM340.728 141.849L347.166 143.415C346.354 146.353 345.387 149.273 344.266 152.173C343.145 155.073 341.927 157.818 340.612 160.409C339.297 162.961 337.905 165.203 336.436 167.137C336.088 166.711 335.585 166.228 334.928 165.687C334.309 165.107 333.671 164.546 333.014 164.005C332.357 163.425 331.796 162.961 331.332 162.613C332.685 160.95 333.942 158.997 335.102 156.755C336.301 154.512 337.364 152.115 338.292 149.563C339.259 147.011 340.071 144.439 340.728 141.849ZM351.632 142.487L358.302 143.995C357.49 146.237 356.62 148.461 355.692 150.665C354.803 152.869 353.952 154.744 353.14 156.291L347.514 154.841C348.055 153.719 348.577 152.443 349.08 151.013C349.583 149.582 350.066 148.132 350.53 146.663C350.994 145.155 351.361 143.763 351.632 142.487ZM343.338 152.695H361.434V158.901H343.338V196.427H337.132V159.307L343.28 152.695H343.338ZM348.384 155.595H354.59V190.511H348.384V155.595ZM399.714 142.023H406.79V166.325H399.714V142.023ZM395.248 175.489H401.802V188.307C401.802 189.08 401.86 189.583 401.976 189.815C402.131 190.008 402.479 190.105 403.02 190.105C403.136 190.105 403.31 190.105 403.542 190.105C403.813 190.105 404.083 190.105 404.354 190.105C404.625 190.105 404.895 190.105 405.166 190.105C405.437 190.105 405.63 190.105 405.746 190.105C406.133 190.105 406.423 189.969 406.616 189.699C406.809 189.428 406.945 188.867 407.022 188.017C407.099 187.166 407.157 185.909 407.196 184.247C407.853 184.749 408.743 185.233 409.864 185.697C411.024 186.161 412.029 186.509 412.88 186.741C412.725 189.138 412.397 190.994 411.894 192.309C411.43 193.662 410.773 194.59 409.922 195.093C409.071 195.634 407.931 195.905 406.5 195.905C406.229 195.905 405.881 195.905 405.456 195.905C405.069 195.905 404.644 195.905 404.18 195.905C403.716 195.905 403.271 195.905 402.846 195.905C402.421 195.905 402.092 195.905 401.86 195.905C400.043 195.905 398.651 195.673 397.684 195.209C396.756 194.745 396.118 193.952 395.77 192.831C395.422 191.748 395.248 190.259 395.248 188.365V175.489ZM389.1 176.997L394.726 178.505C394.533 180.245 394.262 182.023 393.914 183.841C393.566 185.658 393.102 187.398 392.522 189.061C391.942 190.685 391.169 192.135 390.202 193.411L385.156 189.641C385.929 188.635 386.567 187.456 387.07 186.103C387.611 184.749 388.037 183.299 388.346 181.753C388.694 180.167 388.945 178.582 389.1 176.997ZM395.77 171.835L400.062 167.601C401.299 168.181 402.595 168.877 403.948 169.689C405.34 170.501 406.635 171.332 407.834 172.183C409.071 173.033 410.057 173.845 410.792 174.619L406.268 179.317C405.572 178.543 404.644 177.712 403.484 176.823C402.324 175.895 401.067 175.005 399.714 174.155C398.361 173.265 397.046 172.492 395.77 171.835ZM408.82 178.389L414.214 175.953C415.258 177.422 416.205 179.027 417.056 180.767C417.945 182.468 418.68 184.169 419.26 185.871C419.879 187.533 420.323 189.061 420.594 190.453L414.736 193.063C414.543 191.709 414.156 190.182 413.576 188.481C412.996 186.779 412.3 185.039 411.488 183.261C410.676 181.482 409.787 179.858 408.82 178.389ZM387.882 149.679H418.97V156.001H387.882V149.679ZM389.1 162.439H418.216V168.703H389.1V162.439ZM368.046 159.655H385.04V164.933H368.046V159.655ZM368.278 143.705H384.924V148.925H368.278V143.705ZM368.046 167.601H385.04V172.821H368.046V167.601ZM365.436 151.477H386.548V156.987H365.436V151.477ZM371.062 175.605H385.156V193.295H371.062V187.785H379.356V181.115H371.062V175.605ZM367.93 175.605H373.672V195.557H367.93V175.605Z" fill="white"/>
<ellipse cx="107.321" cy="68.0068" rx="54.1017" ry="56" fill="#6EE292"/>
<path d="M109.331 103.001C105.354 103.001 101.542 102.362 97.8963 101.084C94.2504 99.7815 91.0071 97.7218 88.1662 94.9046C85.3252 92.0637 83.088 88.3468 81.4545 83.754C79.821 79.1375 79.0161 73.5149 79.0397 66.8861C79.0634 60.8965 79.7973 55.5225 81.2414 50.7639C82.6856 45.9817 84.7452 41.9216 87.4204 38.5835C90.1193 35.2455 93.339 32.7005 97.0795 30.9486C100.844 29.173 105.046 28.2852 109.686 28.2852C114.776 28.2852 119.262 29.2796 123.145 31.2682C127.051 33.2332 130.176 35.8847 132.52 39.2227C134.864 42.5371 136.249 46.2303 136.675 50.3023H119.381C118.86 48.0059 117.712 46.2658 115.936 45.0821C114.184 43.8747 112.101 43.271 109.686 43.271C105.235 43.271 101.909 45.2005 99.7073 49.0594C97.5293 52.9183 96.4166 58.0793 96.3693 64.5423H96.8309C97.8252 62.3643 99.2575 60.4941 101.128 58.9316C102.998 57.3691 105.141 56.1735 107.555 55.3449C109.994 54.4926 112.574 54.0665 115.297 54.0665C119.653 54.0665 123.5 55.0726 126.838 57.085C130.176 59.0973 132.792 61.8553 134.686 65.3591C136.58 68.8392 137.515 72.8283 137.491 77.3264C137.515 82.3927 136.331 86.8672 133.94 90.7497C131.549 94.6086 128.235 97.6153 123.997 99.7696C119.783 101.924 114.894 103.001 109.331 103.001ZM109.224 89.5068C111.379 89.5068 113.308 88.9978 115.013 87.9798C116.717 86.9619 118.055 85.5769 119.026 83.825C119.996 82.0731 120.47 80.0963 120.446 77.8946C120.47 75.6692 119.996 73.6924 119.026 71.9642C118.079 70.236 116.753 68.8629 115.048 67.8449C113.367 66.8269 111.438 66.3179 109.26 66.3179C107.674 66.3179 106.194 66.6138 104.821 67.2057C103.448 67.7976 102.252 68.6262 101.234 69.6915C100.24 70.7332 99.4588 71.9642 98.8906 73.3847C98.3224 74.7815 98.0265 76.2966 98.0028 77.9301C98.0265 80.0845 98.5236 82.0376 99.4943 83.7895C100.465 85.5414 101.791 86.9382 103.472 87.9798C105.152 88.9978 107.07 89.5068 109.224 89.5068Z" fill="white"/>
</svg>
