<svg width="570" height="316" viewBox="0 0 570 316" fill="none" xmlns="http://www.w3.org/2000/svg">
<path d="M-0.0012207 32.7495H539.999C556.567 32.7495 569.999 46.181 569.999 62.7495V315.121H29.9988C13.4302 315.121 -0.0012207 301.69 -0.0012207 285.121V32.7495Z" fill="#39BF63"/>
<line x1="347.795" y1="221.621" x2="38.6429" y2="221.621" stroke="white"/>
<path d="M154.055 105.786H166.407V107.866H154.055V105.786ZM155.815 102.97H167.111V104.762H155.815V102.97ZM155.815 100.218H166.983V101.978H155.815V100.218ZM159.751 98.3936H162.631V107.002H159.751V98.3936ZM165.959 105.786H168.903C168.903 105.786 168.903 105.914 168.903 106.17C168.903 106.404 168.892 106.618 168.871 106.81C168.807 108.154 168.732 109.263 168.647 110.138C168.583 111.012 168.487 111.684 168.359 112.154C168.252 112.644 168.092 113.018 167.879 113.274C167.665 113.53 167.409 113.722 167.111 113.85C166.812 113.978 166.492 114.063 166.151 114.106C165.831 114.127 165.425 114.138 164.935 114.138C164.465 114.159 163.964 114.159 163.431 114.138C163.409 113.775 163.335 113.37 163.207 112.922C163.079 112.495 162.929 112.132 162.759 111.834C163.164 111.876 163.527 111.908 163.847 111.93C164.188 111.951 164.444 111.951 164.615 111.93C164.935 111.951 165.18 111.866 165.351 111.674C165.5 111.482 165.617 110.991 165.703 110.202C165.809 109.391 165.895 108.047 165.959 106.17V105.786ZM153.447 108.41L155.687 108.986C155.537 109.946 155.313 110.874 155.015 111.77C154.716 112.644 154.247 113.37 153.607 113.946L151.591 112.602C152.103 112.132 152.508 111.514 152.807 110.746C153.127 109.978 153.34 109.199 153.447 108.41ZM162.279 108.666L163.815 108.186C164.113 108.591 164.369 109.05 164.583 109.562C164.796 110.074 164.956 110.522 165.063 110.906L163.431 111.514C163.345 111.108 163.196 110.639 162.983 110.106C162.791 109.572 162.556 109.092 162.279 108.666ZM156.487 109.178L158.375 108.922C158.503 109.583 158.588 110.319 158.631 111.13C158.695 111.94 158.716 112.612 158.695 113.146L156.647 113.466C156.711 112.89 156.721 112.207 156.679 111.418C156.657 110.607 156.593 109.86 156.487 109.178ZM159.495 109.018L161.255 108.602C161.468 109.178 161.649 109.818 161.799 110.522C161.948 111.204 162.044 111.791 162.087 112.282L160.231 112.794C160.209 112.282 160.135 111.674 160.007 110.97C159.879 110.266 159.708 109.615 159.495 109.018ZM154.055 97.1456H167.911V99.2576H157.063V106.938H154.055V97.1456ZM149.415 89.7216H157.479V91.8976H149.415V89.7216ZM164.039 89.7216H172.167V91.8976H164.039V89.7216ZM171.015 85.9776H174.695V111.162C174.695 112.015 174.599 112.687 174.407 113.178C174.236 113.69 173.895 114.095 173.383 114.394C172.892 114.692 172.273 114.874 171.527 114.938C170.801 115.002 169.937 115.034 168.935 115.034C168.892 114.564 168.775 113.999 168.583 113.338C168.391 112.676 168.177 112.122 167.943 111.674C168.455 111.695 168.956 111.706 169.447 111.706C169.959 111.706 170.311 111.706 170.503 111.706C170.695 111.684 170.823 111.631 170.887 111.546C170.972 111.46 171.015 111.322 171.015 111.13V85.9776ZM149.767 85.9776H159.911V95.7376H149.767V93.3056H156.327V88.4096H149.767V85.9776ZM172.871 85.9776V88.4096H165.671V93.2736H172.871V95.7056H162.023V85.9776H172.871ZM147.495 85.9776H151.079V115.034H147.495V85.9776ZM191.207 101.914L193.063 101.338C193.425 101.871 193.756 102.468 194.055 103.13C194.375 103.77 194.588 104.335 194.695 104.826L192.743 105.498C192.636 104.986 192.433 104.399 192.135 103.738C191.857 103.076 191.548 102.468 191.207 101.914ZM185.863 99.4816L187.079 98.0096C187.655 98.3936 188.252 98.8522 188.871 99.3856C189.489 99.9189 189.948 100.399 190.247 100.826L188.967 102.522C188.668 102.074 188.22 101.562 187.623 100.986C187.025 100.41 186.439 99.9082 185.863 99.4816ZM189.415 95.9616L191.623 96.8256C191.196 97.3589 190.759 97.9029 190.311 98.4576C189.884 99.0122 189.479 99.4709 189.095 99.8336L187.399 99.0976C187.74 98.6496 188.103 98.1269 188.487 97.5296C188.871 96.9322 189.18 96.4096 189.415 95.9616ZM191.591 98.2976L193.575 99.1616C193.041 99.7376 192.476 100.335 191.879 100.954C191.281 101.572 190.695 102.17 190.119 102.746C189.543 103.3 188.999 103.791 188.487 104.218L187.015 103.45C187.527 102.98 188.06 102.447 188.615 101.85C189.191 101.231 189.735 100.612 190.247 99.9936C190.78 99.3536 191.228 98.7882 191.591 98.2976ZM194.919 105.402H197.543V114.362H194.919V105.402ZM185.575 103.194C186.599 103.13 187.751 103.066 189.031 103.002C190.332 102.916 191.708 102.82 193.159 102.714V104.666C191.836 104.794 190.556 104.911 189.319 105.018C188.081 105.103 186.919 105.188 185.831 105.274L185.575 103.194ZM199.271 101.722L201.223 101.146C201.607 101.743 201.969 102.404 202.311 103.13C202.652 103.834 202.887 104.463 203.015 105.018L200.999 105.658C200.892 105.124 200.679 104.495 200.359 103.77C200.039 103.023 199.676 102.34 199.271 101.722ZM193.479 99.3216L194.855 97.9136C195.495 98.3402 196.135 98.8522 196.775 99.4496C197.436 100.047 197.927 100.591 198.247 101.082L196.839 102.682C196.519 102.17 196.039 101.604 195.399 100.986C194.759 100.346 194.119 99.7909 193.479 99.3216ZM197.159 95.9296L199.495 96.7936C199.004 97.4122 198.513 98.0096 198.023 98.5856C197.532 99.1616 197.073 99.6736 196.647 100.122L194.919 99.3536C195.303 98.8842 195.708 98.3189 196.135 97.6576C196.561 96.9962 196.903 96.4202 197.159 95.9296ZM199.463 98.2976L201.479 99.2256C200.924 99.8229 200.337 100.442 199.719 101.082C199.1 101.722 198.481 102.33 197.863 102.906C197.244 103.482 196.647 103.994 196.071 104.442L194.599 103.61C195.132 103.14 195.697 102.607 196.295 102.01C196.913 101.391 197.5 100.762 198.055 100.122C198.609 99.4602 199.079 98.8522 199.463 98.2976ZM194.119 103.194C195.1 103.151 196.22 103.087 197.479 103.002C198.759 102.916 200.103 102.831 201.511 102.746V104.666C200.273 104.794 199.057 104.911 197.863 105.018C196.689 105.103 195.591 105.188 194.567 105.274L194.119 103.194ZM186.567 105.946H188.903V108.698H192.359V110.842H186.567V105.946ZM199.527 105.946H201.927V110.842H196.999V108.698H199.527V105.946ZM190.855 105.402H193.383V108.506C193.383 109.338 193.276 110.148 193.063 110.938C192.849 111.727 192.412 112.452 191.751 113.114C191.089 113.775 190.076 114.34 188.711 114.81C188.561 114.49 188.316 114.127 187.975 113.722C187.633 113.316 187.335 112.986 187.079 112.73C188.188 112.41 189.009 112.026 189.543 111.578C190.076 111.108 190.428 110.607 190.599 110.074C190.769 109.54 190.855 108.996 190.855 108.442V105.402ZM182.695 90.2336H190.759V92.5696H182.695V90.2336ZM197.415 90.2336H205.543V92.5696H197.415V90.2336ZM204.263 86.1696H207.943V110.586C207.943 111.503 207.857 112.239 207.687 112.794C207.516 113.37 207.153 113.818 206.599 114.138C206.065 114.458 205.415 114.65 204.647 114.714C203.879 114.799 202.961 114.842 201.895 114.842C201.852 114.479 201.777 114.074 201.671 113.626C201.564 113.178 201.436 112.719 201.287 112.25C201.159 111.802 201.009 111.418 200.839 111.098C201.415 111.119 201.98 111.14 202.535 111.162C203.111 111.162 203.505 111.151 203.719 111.13C203.932 111.13 204.071 111.087 204.135 111.002C204.22 110.916 204.263 110.767 204.263 110.554V86.1696ZM183.047 86.1696H193.191V96.6016H183.047V94.0416H189.607V88.7296H183.047V86.1696ZM206.151 86.1696V88.7296H198.951V94.0416H206.151V96.6016H195.303V86.1696H206.151ZM180.775 86.1696H184.423V115.002H180.775V86.1696ZM213.095 104.634H242.023V107.674H213.095V104.634ZM219.239 92.6976H238.631V95.1936H219.239V92.6976ZM219.239 96.5376H238.695V99.0656H219.239V96.5376ZM218.471 88.4096H240.231V91.3856H218.471V88.4096ZM226.471 90.2976H230.151V101.53H226.471V90.2976ZM225.575 102.586H229.383V114.97H225.575V102.586ZM225.255 105.882L228.135 107.322C227.324 108.111 226.385 108.89 225.319 109.658C224.273 110.404 223.143 111.108 221.927 111.77C220.711 112.41 219.473 112.986 218.215 113.498C216.956 114.01 215.719 114.436 214.503 114.778C214.204 114.308 213.82 113.754 213.351 113.114C212.881 112.495 212.444 111.994 212.039 111.61C213.255 111.354 214.492 111.034 215.751 110.65C217.009 110.244 218.225 109.796 219.399 109.306C220.593 108.794 221.692 108.25 222.695 107.674C223.697 107.098 224.551 106.5 225.255 105.882ZM229.831 105.786C230.535 106.404 231.367 107.002 232.327 107.578C233.308 108.154 234.375 108.698 235.527 109.21C236.7 109.7 237.905 110.148 239.143 110.554C240.38 110.938 241.596 111.268 242.791 111.546C242.513 111.78 242.225 112.079 241.927 112.442C241.628 112.826 241.34 113.21 241.063 113.594C240.785 113.978 240.561 114.319 240.391 114.618C239.175 114.276 237.937 113.85 236.679 113.338C235.441 112.826 234.225 112.25 233.031 111.61C231.857 110.97 230.748 110.287 229.703 109.562C228.657 108.815 227.719 108.047 226.887 107.258L229.831 105.786ZM228.039 84.9216L232.359 85.4656C231.868 86.4042 231.345 87.3109 230.791 88.1856C230.257 89.0602 229.767 89.7962 229.319 90.3936L225.927 89.7536C226.311 89.0496 226.705 88.2496 227.111 87.3536C227.516 86.4576 227.825 85.6469 228.039 84.9216ZM219.847 84.8576L223.815 85.6576C223.089 86.8949 222.289 88.1216 221.415 89.3376C220.54 90.5536 219.569 91.7482 218.503 92.9216C217.436 94.0736 216.241 95.1722 214.919 96.2176C214.727 95.9402 214.471 95.6416 214.151 95.3216C213.831 94.9802 213.489 94.6602 213.127 94.3616C212.785 94.0416 212.476 93.7962 212.199 93.6256C213.393 92.7722 214.471 91.8549 215.431 90.8736C216.412 89.8709 217.276 88.8576 218.023 87.8336C218.769 86.7882 219.377 85.7962 219.847 84.8576ZM216.775 90.3616H220.391V100.442H241.159V103.322H216.775V90.3616ZM246.247 108.634H275.463V111.706H246.247V108.634ZM258.727 105.978H262.791V114.97H258.727V105.978ZM253.415 103.162V104.666H268.103V103.162H253.415ZM253.415 99.2896V100.762H268.103V99.2896H253.415ZM249.671 96.7296H272.039V107.226H249.671V96.7296ZM248.391 87.0656H273.447V90.0736H248.391V87.0656ZM246.375 92.4096H275.303V95.4496H246.375V92.4096ZM258.727 84.9216H262.791V89.2096H258.727V84.9216ZM265.255 89.4016L269.383 90.0736C269.041 90.7349 268.721 91.3429 268.423 91.8976C268.124 92.4522 267.847 92.9322 267.591 93.3376L263.975 92.6656C264.124 92.3456 264.273 91.9936 264.423 91.6096C264.593 91.2256 264.753 90.8416 264.903 90.4576C265.052 90.0522 265.169 89.7002 265.255 89.4016ZM252.615 90.1696L256.327 89.5296C256.647 89.9989 256.935 90.5216 257.191 91.0976C257.447 91.6522 257.628 92.1642 257.735 92.6336L253.831 93.4016C253.767 92.9749 253.617 92.4522 253.383 91.8336C253.148 91.2149 252.892 90.6602 252.615 90.1696ZM296.418 97.0496H316.866V100.506H296.418V97.0496ZM297.538 90.5856H315.778V93.9776H297.538V90.5856ZM304.29 92.2496H308.13V97.3696C308.13 98.3936 308.002 99.4602 307.746 100.57C307.511 101.679 307.063 102.788 306.402 103.898C305.762 104.986 304.834 106.042 303.618 107.066C302.423 108.068 300.876 108.986 298.978 109.818C298.807 109.54 298.572 109.231 298.274 108.89C297.975 108.548 297.666 108.207 297.346 107.866C297.026 107.524 296.716 107.247 296.418 107.034C298.231 106.372 299.66 105.636 300.706 104.826C301.772 104.015 302.551 103.172 303.042 102.298C303.554 101.423 303.884 100.57 304.034 99.7376C304.204 98.8842 304.29 98.0842 304.29 97.3376V92.2496ZM308.706 99.4816C309.367 101.252 310.37 102.756 311.714 103.994C313.079 105.21 314.828 106.084 316.962 106.618C316.684 106.874 316.386 107.194 316.066 107.578C315.767 107.962 315.479 108.356 315.202 108.762C314.946 109.146 314.722 109.508 314.53 109.85C312.183 109.082 310.284 107.876 308.834 106.234C307.383 104.591 306.263 102.575 305.474 100.186L308.706 99.4816ZM295.138 97.4016V109.21H291.394V100.954H287.682V97.4016H295.138ZM295.138 107.546C295.799 108.591 296.727 109.359 297.922 109.85C299.116 110.34 300.546 110.618 302.21 110.682C303.148 110.724 304.258 110.756 305.538 110.778C306.839 110.778 308.204 110.767 309.634 110.746C311.063 110.724 312.46 110.682 313.826 110.618C315.212 110.554 316.439 110.479 317.506 110.394C317.378 110.692 317.228 111.076 317.058 111.546C316.887 112.015 316.727 112.495 316.578 112.986C316.45 113.476 316.354 113.914 316.29 114.298C315.33 114.362 314.231 114.404 312.994 114.426C311.756 114.468 310.487 114.49 309.186 114.49C307.884 114.511 306.626 114.511 305.41 114.49C304.194 114.468 303.106 114.436 302.146 114.394C300.183 114.308 298.508 113.999 297.122 113.466C295.735 112.954 294.508 112.079 293.442 110.842C292.738 111.439 292.012 112.058 291.266 112.698C290.54 113.338 289.74 113.999 288.866 114.682L286.978 110.682C287.724 110.234 288.503 109.743 289.314 109.21C290.124 108.676 290.903 108.122 291.65 107.546H295.138ZM287.714 87.9936L290.562 85.6896C291.223 86.1162 291.895 86.6176 292.578 87.1936C293.26 87.7482 293.9 88.3242 294.498 88.9216C295.095 89.4976 295.575 90.0309 295.938 90.5216L292.898 93.0816C292.578 92.5696 292.13 92.0149 291.554 91.4176C290.999 90.8202 290.38 90.2229 289.698 89.6256C289.015 89.0069 288.354 88.4629 287.714 87.9936ZM310.914 84.9216L314.818 86.1376C314.242 87.0549 313.644 87.9616 313.026 88.8576C312.428 89.7322 311.874 90.4789 311.362 91.0976L308.226 90.0096C308.546 89.5189 308.876 88.9856 309.218 88.4096C309.559 87.8122 309.879 87.2149 310.178 86.6176C310.476 85.9989 310.722 85.4336 310.914 84.9216ZM298.37 86.3296L301.602 84.9856C302.199 85.7109 302.764 86.5322 303.298 87.4496C303.831 88.3669 304.204 89.1776 304.418 89.8816L300.962 91.3536C300.791 90.6709 300.45 89.8602 299.938 88.9216C299.447 87.9616 298.924 87.0976 298.37 86.3296Z" fill="white"/>
<path d="M40.7081 248.201H62.9321V251.345H40.7081V248.201ZM77.2121 243.161H85.9001V245.177H77.2121V243.161ZM77.2121 246.377H85.9001V248.393H77.2121V246.377ZM74.2121 249.665H88.0361V252.161H74.2121V249.665ZM75.9401 239.537H86.7881V241.985H78.7001V251.009H75.9401V239.537ZM74.0921 258.209C75.1001 258.097 76.3081 257.961 77.7161 257.801C79.1241 257.625 80.5481 257.441 81.9881 257.249L82.1081 259.745C80.7801 259.969 79.4601 260.177 78.1481 260.369C76.8361 260.561 75.6361 260.737 74.5481 260.897L74.0921 258.209ZM82.1081 251.009C82.4281 252.209 82.8601 253.329 83.4041 254.369C83.9481 255.393 84.6361 256.281 85.4681 257.033C86.3001 257.785 87.2841 258.369 88.4201 258.785C88.2121 258.977 87.9881 259.217 87.7481 259.505C87.5081 259.809 87.2761 260.121 87.0521 260.441C86.8441 260.761 86.6761 261.049 86.5481 261.305C85.2841 260.745 84.2121 259.985 83.3321 259.025C82.4681 258.065 81.7481 256.945 81.1721 255.665C80.5961 254.385 80.1241 252.969 79.7561 251.417L82.1081 251.009ZM85.6361 252.233L88.0121 253.529C87.3561 254.105 86.6761 254.673 85.9721 255.233C85.2681 255.777 84.6281 256.241 84.0521 256.625L82.2761 255.521C82.6441 255.233 83.0361 254.905 83.4521 254.537C83.8681 254.153 84.2681 253.761 84.6521 253.361C85.0361 252.945 85.3641 252.569 85.6361 252.233ZM76.0121 250.385H78.7721V258.593L76.0121 259.049V250.385ZM66.9881 250.409H72.7241V252.977H66.9881V250.409ZM71.4281 250.409H74.2841C74.2841 250.409 74.2761 250.481 74.2601 250.625C74.2601 250.753 74.2601 250.905 74.2601 251.081C74.2601 251.241 74.2521 251.385 74.2361 251.513C74.1241 253.369 74.0041 254.889 73.8761 256.073C73.7641 257.257 73.6201 258.177 73.4441 258.833C73.2681 259.489 73.0601 259.961 72.8201 260.249C72.5481 260.553 72.2601 260.769 71.9561 260.897C71.6681 261.041 71.3321 261.137 70.9481 261.185C70.6281 261.249 70.2041 261.281 69.6761 261.281C69.1641 261.297 68.6121 261.289 68.0201 261.257C68.0041 260.857 67.9241 260.401 67.7801 259.889C67.6361 259.377 67.4521 258.945 67.2281 258.593C67.7241 258.625 68.1801 258.649 68.5961 258.665C69.0121 258.681 69.3321 258.689 69.5561 258.689C69.7321 258.689 69.8841 258.673 70.0121 258.641C70.1561 258.593 70.2841 258.513 70.3961 258.401C70.5561 258.225 70.6921 257.873 70.8041 257.345C70.9321 256.801 71.0441 256.001 71.1401 254.945C71.2521 253.889 71.3481 252.521 71.4281 250.841V250.409ZM66.7241 245.417H69.3401C69.2441 246.329 69.1321 247.289 69.0041 248.297C68.8921 249.305 68.7721 250.281 68.6441 251.225C68.5321 252.153 68.4121 252.977 68.2841 253.697L65.6201 253.409C65.7641 252.705 65.9001 251.897 66.0281 250.985C66.1721 250.073 66.3081 249.129 66.4361 248.153C66.5641 247.177 66.6601 246.265 66.7241 245.417ZM66.9161 245.417H71.2601V242.585H66.0521V239.945H73.8761V248.057H66.9161V245.417ZM96.5081 254.369H105.772V255.929H96.5081V254.369ZM97.8281 252.257H106.3V253.601H97.8281V252.257ZM97.8281 250.193H106.204V251.513H97.8281V250.193ZM100.78 248.825H102.94V255.281H100.78V248.825ZM105.436 254.369H107.644C107.644 254.369 107.644 254.465 107.644 254.657C107.644 254.833 107.636 254.993 107.62 255.137C107.572 256.145 107.516 256.977 107.452 257.633C107.404 258.289 107.332 258.793 107.236 259.145C107.156 259.513 107.036 259.793 106.876 259.985C106.716 260.177 106.524 260.321 106.3 260.417C106.076 260.513 105.836 260.577 105.58 260.609C105.34 260.625 105.036 260.633 104.668 260.633C104.316 260.649 103.94 260.649 103.54 260.633C103.524 260.361 103.468 260.057 103.372 259.721C103.276 259.401 103.164 259.129 103.036 258.905C103.34 258.937 103.612 258.961 103.852 258.977C104.108 258.993 104.3 258.993 104.428 258.977C104.668 258.993 104.852 258.929 104.98 258.785C105.092 258.641 105.18 258.273 105.244 257.681C105.324 257.073 105.388 256.065 105.436 254.657V254.369ZM96.0521 256.337L97.7321 256.769C97.6201 257.489 97.4521 258.185 97.2281 258.857C97.0041 259.513 96.6521 260.057 96.1721 260.489L94.6601 259.481C95.0441 259.129 95.3481 258.665 95.5721 258.089C95.8121 257.513 95.9721 256.929 96.0521 256.337ZM102.676 256.529L103.828 256.169C104.052 256.473 104.244 256.817 104.404 257.201C104.564 257.585 104.684 257.921 104.764 258.209L103.54 258.665C103.476 258.361 103.364 258.009 103.204 257.609C103.06 257.209 102.884 256.849 102.676 256.529ZM98.3321 256.913L99.7481 256.721C99.8441 257.217 99.9081 257.769 99.9401 258.377C99.9881 258.985 100.004 259.489 99.9881 259.889L98.4521 260.129C98.5001 259.697 98.5081 259.185 98.4761 258.593C98.4601 257.985 98.4121 257.425 98.3321 256.913ZM100.588 256.793L101.908 256.481C102.068 256.913 102.204 257.393 102.316 257.921C102.428 258.433 102.5 258.873 102.532 259.241L101.14 259.625C101.124 259.241 101.068 258.785 100.972 258.257C100.876 257.729 100.748 257.241 100.588 256.793ZM96.5081 247.889H106.9V249.473H98.7641V255.233H96.5081V247.889ZM93.0281 242.321H99.0761V243.953H93.0281V242.321ZM103.996 242.321H110.092V243.953H103.996V242.321ZM109.228 239.513H111.988V258.401C111.988 259.041 111.916 259.545 111.772 259.913C111.644 260.297 111.388 260.601 111.004 260.825C110.636 261.049 110.172 261.185 109.612 261.233C109.068 261.281 108.42 261.305 107.668 261.305C107.636 260.953 107.548 260.529 107.404 260.033C107.26 259.537 107.1 259.121 106.924 258.785C107.308 258.801 107.684 258.809 108.052 258.809C108.436 258.809 108.7 258.809 108.844 258.809C108.988 258.793 109.084 258.753 109.132 258.689C109.196 258.625 109.228 258.521 109.228 258.377V239.513ZM93.2921 239.513H100.9V246.833H93.2921V245.009H98.2121V241.337H93.2921V239.513ZM110.62 239.513V241.337H105.22V244.985H110.62V246.809H102.484V239.513H110.62ZM91.5881 239.513H94.2761V261.305H91.5881V239.513ZM124.372 251.465L125.764 251.033C126.036 251.433 126.284 251.881 126.508 252.377C126.748 252.857 126.908 253.281 126.988 253.649L125.524 254.153C125.444 253.769 125.292 253.329 125.068 252.833C124.86 252.337 124.628 251.881 124.372 251.465ZM120.364 249.641L121.276 248.537C121.708 248.825 122.156 249.169 122.62 249.569C123.084 249.969 123.428 250.329 123.652 250.649L122.692 251.921C122.468 251.585 122.132 251.201 121.684 250.769C121.236 250.337 120.796 249.961 120.364 249.641ZM123.028 247.001L124.684 247.649C124.364 248.049 124.036 248.457 123.7 248.873C123.38 249.289 123.076 249.633 122.788 249.905L121.516 249.353C121.772 249.017 122.044 248.625 122.332 248.177C122.62 247.729 122.852 247.337 123.028 247.001ZM124.66 248.753L126.148 249.401C125.748 249.833 125.324 250.281 124.876 250.745C124.428 251.209 123.988 251.657 123.556 252.089C123.124 252.505 122.716 252.873 122.332 253.193L121.228 252.617C121.612 252.265 122.012 251.865 122.428 251.417C122.86 250.953 123.268 250.489 123.652 250.025C124.052 249.545 124.388 249.121 124.66 248.753ZM127.156 254.081H129.124V260.801H127.156V254.081ZM120.148 252.425C120.916 252.377 121.78 252.329 122.74 252.281C123.716 252.217 124.748 252.145 125.836 252.065V253.529C124.844 253.625 123.884 253.713 122.956 253.793C122.028 253.857 121.156 253.921 120.34 253.985L120.148 252.425ZM130.42 251.321L131.884 250.889C132.172 251.337 132.444 251.833 132.7 252.377C132.956 252.905 133.132 253.377 133.228 253.793L131.716 254.273C131.636 253.873 131.476 253.401 131.236 252.857C130.996 252.297 130.724 251.785 130.42 251.321ZM126.076 249.521L127.108 248.465C127.588 248.785 128.068 249.169 128.548 249.617C129.044 250.065 129.412 250.473 129.652 250.841L128.596 252.041C128.356 251.657 127.996 251.233 127.516 250.769C127.036 250.289 126.556 249.873 126.076 249.521ZM128.836 246.977L130.588 247.625C130.22 248.089 129.852 248.537 129.484 248.969C129.116 249.401 128.772 249.785 128.452 250.121L127.156 249.545C127.444 249.193 127.748 248.769 128.068 248.273C128.388 247.777 128.644 247.345 128.836 246.977ZM130.564 248.753L132.076 249.449C131.66 249.897 131.22 250.361 130.756 250.841C130.292 251.321 129.828 251.777 129.364 252.209C128.9 252.641 128.452 253.025 128.02 253.361L126.916 252.737C127.316 252.385 127.74 251.985 128.188 251.537C128.652 251.073 129.092 250.601 129.508 250.121C129.924 249.625 130.276 249.169 130.564 248.753ZM126.556 252.425C127.292 252.393 128.132 252.345 129.076 252.281C130.036 252.217 131.044 252.153 132.1 252.089V253.529C131.172 253.625 130.26 253.713 129.364 253.793C128.484 253.857 127.66 253.921 126.892 253.985L126.556 252.425ZM120.892 254.489H122.644V256.553H125.236V258.161H120.892V254.489ZM130.612 254.489H132.412V258.161H128.716V256.553H130.612V254.489ZM124.108 254.081H126.004V256.409C126.004 257.033 125.924 257.641 125.764 258.233C125.604 258.825 125.276 259.369 124.78 259.865C124.284 260.361 123.524 260.785 122.5 261.137C122.388 260.897 122.204 260.625 121.948 260.321C121.692 260.017 121.468 259.769 121.276 259.577C122.108 259.337 122.724 259.049 123.124 258.713C123.524 258.361 123.788 257.985 123.916 257.585C124.044 257.185 124.108 256.777 124.108 256.361V254.081ZM117.988 242.705H124.036V244.457H117.988V242.705ZM129.028 242.705H135.124V244.457H129.028V242.705ZM134.164 239.657H136.924V257.969C136.924 258.657 136.86 259.209 136.732 259.625C136.604 260.057 136.332 260.393 135.916 260.633C135.516 260.873 135.028 261.017 134.452 261.065C133.876 261.129 133.188 261.161 132.388 261.161C132.356 260.889 132.3 260.585 132.22 260.249C132.14 259.913 132.044 259.569 131.932 259.217C131.836 258.881 131.724 258.593 131.596 258.353C132.028 258.369 132.452 258.385 132.868 258.401C133.3 258.401 133.596 258.393 133.756 258.377C133.916 258.377 134.02 258.345 134.068 258.281C134.132 258.217 134.164 258.105 134.164 257.945V239.657ZM118.252 239.657H125.86V247.481H118.252V245.561H123.172V241.577H118.252V239.657ZM135.58 239.657V241.577H130.18V245.561H135.58V247.481H127.444V239.657H135.58ZM116.548 239.657H119.284V261.281H116.548V239.657ZM140.74 247.217H162.604V250.073H140.74V247.217ZM151.444 241.673H159.988V244.433H151.444V241.673ZM149.572 238.721H152.644V248.585H149.572V238.721ZM149.572 249.041H152.644V261.257H149.572V249.041ZM151.756 253.625L153.22 251.321C153.828 251.497 154.492 251.705 155.212 251.945C155.932 252.169 156.66 252.417 157.396 252.689C158.132 252.945 158.828 253.201 159.484 253.457C160.14 253.713 160.692 253.953 161.14 254.177L159.604 256.793C159.172 256.553 158.636 256.297 157.996 256.025C157.372 255.753 156.7 255.473 155.98 255.185C155.26 254.897 154.532 254.617 153.796 254.345C153.076 254.073 152.396 253.833 151.756 253.625ZM176.74 244.193H184.996V246.545H176.74V244.193ZM172.612 258.113C173.332 258.001 174.164 257.865 175.108 257.705C176.068 257.545 177.084 257.377 178.156 257.201C179.228 257.009 180.292 256.817 181.348 256.625L181.588 259.121C180.196 259.441 178.796 259.753 177.388 260.057C175.98 260.377 174.7 260.657 173.548 260.897L172.612 258.113ZM175.108 239.801H177.892V258.761H175.108V239.801ZM176.74 239.801H186.316V251.033H176.74V248.561H183.46V242.273H176.74V239.801ZM181.732 249.377C182.036 250.817 182.452 252.153 182.98 253.385C183.508 254.601 184.18 255.673 184.996 256.601C185.812 257.529 186.812 258.249 187.996 258.761C187.788 258.953 187.564 259.185 187.324 259.457C187.084 259.745 186.852 260.041 186.628 260.345C186.42 260.665 186.252 260.953 186.124 261.209C184.828 260.521 183.74 259.625 182.86 258.521C181.996 257.401 181.284 256.105 180.724 254.633C180.164 253.161 179.708 251.545 179.356 249.785L181.732 249.377ZM185.212 251.201L187.468 252.761C186.812 253.401 186.116 254.033 185.38 254.657C184.66 255.265 183.996 255.785 183.388 256.217L181.612 254.849C181.996 254.529 182.404 254.161 182.836 253.745C183.284 253.329 183.716 252.897 184.132 252.449C184.548 252.001 184.908 251.585 185.212 251.201ZM166.372 239.753H172.348V242.345H169.06V261.281H166.372V239.753ZM171.556 239.753H172.06L172.468 239.657L174.436 240.785C174.212 241.489 173.972 242.233 173.716 243.017C173.46 243.801 173.204 244.577 172.948 245.345C172.692 246.113 172.436 246.809 172.18 247.433C172.964 248.361 173.468 249.241 173.692 250.073C173.932 250.889 174.052 251.649 174.052 252.353C174.052 253.153 173.964 253.809 173.788 254.321C173.612 254.833 173.324 255.233 172.924 255.521C172.732 255.665 172.508 255.777 172.252 255.857C172.012 255.937 171.764 256.001 171.508 256.049C171.284 256.081 171.02 256.097 170.716 256.097C170.428 256.097 170.132 256.097 169.828 256.097C169.812 255.729 169.748 255.297 169.636 254.801C169.54 254.305 169.396 253.881 169.204 253.529C169.428 253.545 169.628 253.553 169.804 253.553C169.996 253.553 170.164 253.553 170.308 253.553C170.436 253.553 170.556 253.537 170.668 253.505C170.796 253.457 170.916 253.401 171.028 253.337C171.172 253.225 171.276 253.057 171.34 252.833C171.42 252.593 171.452 252.305 171.436 251.969C171.436 251.409 171.316 250.769 171.076 250.049C170.852 249.313 170.38 248.545 169.66 247.745C169.836 247.201 170.012 246.601 170.188 245.945C170.38 245.289 170.556 244.633 170.716 243.977C170.892 243.305 171.052 242.681 171.196 242.105C171.356 241.513 171.476 241.025 171.556 240.641V239.753ZM201.508 238.673L204.172 239.105C203.644 240.385 202.972 241.625 202.156 242.825C201.356 244.025 200.3 245.121 198.988 246.113C198.78 245.793 198.484 245.465 198.1 245.129C197.732 244.777 197.396 244.513 197.092 244.337C197.876 243.809 198.548 243.233 199.108 242.609C199.684 241.985 200.172 241.337 200.572 240.665C200.972 239.977 201.284 239.313 201.508 238.673ZM202.18 240.449H206.884V242.657H200.836L202.18 240.449ZM202.54 246.017H204.58C204.532 246.785 204.428 247.481 204.268 248.105C204.108 248.729 203.836 249.281 203.452 249.761C203.068 250.225 202.516 250.625 201.796 250.961C201.684 250.721 201.508 250.449 201.268 250.145C201.028 249.841 200.804 249.601 200.596 249.425C201.364 249.089 201.868 248.641 202.108 248.081C202.364 247.521 202.508 246.833 202.54 246.017ZM205.492 246.113H207.58V248.057C207.58 248.281 207.596 248.417 207.628 248.465C207.676 248.513 207.788 248.537 207.964 248.537C208.028 248.537 208.116 248.537 208.228 248.537C208.356 248.537 208.484 248.537 208.612 248.537C208.756 248.537 208.852 248.537 208.9 248.537C209.044 248.537 209.14 248.521 209.188 248.489C209.252 248.441 209.3 248.369 209.332 248.273C209.524 248.401 209.796 248.529 210.148 248.657C210.5 248.785 210.82 248.881 211.108 248.945C210.996 249.473 210.788 249.841 210.484 250.049C210.18 250.241 209.756 250.337 209.212 250.337C209.132 250.337 209.02 250.337 208.876 250.337C208.732 250.337 208.58 250.337 208.42 250.337C208.26 250.337 208.108 250.337 207.964 250.337C207.836 250.337 207.732 250.337 207.652 250.337C207.06 250.337 206.604 250.273 206.284 250.145C205.98 250.001 205.772 249.769 205.66 249.449C205.548 249.113 205.492 248.649 205.492 248.057V246.113ZM197.596 253.097H212.524V255.473H197.596V253.097ZM206.5 253.889C206.932 255.265 207.652 256.369 208.66 257.201C209.668 258.017 211.084 258.553 212.908 258.809C212.62 259.081 212.316 259.457 211.996 259.937C211.692 260.417 211.46 260.841 211.3 261.209C209.876 260.905 208.692 260.449 207.748 259.841C206.804 259.233 206.036 258.465 205.444 257.537C204.852 256.593 204.38 255.473 204.028 254.177L206.5 253.889ZM201.028 244.385H209.908V246.641H201.028V252.353H198.652V244.385H198.676H201.028ZM209.284 244.385H211.732V252.329H209.284V244.385ZM205.924 240.449H206.524L206.932 240.329L208.756 241.481C208.516 241.961 208.236 242.481 207.916 243.041C207.612 243.585 207.292 244.113 206.956 244.625C206.62 245.121 206.3 245.569 205.996 245.969C205.756 245.793 205.444 245.585 205.06 245.345C204.676 245.105 204.34 244.913 204.052 244.769C204.292 244.417 204.532 244.009 204.772 243.545C205.028 243.081 205.252 242.617 205.444 242.153C205.652 241.673 205.812 241.265 205.924 240.929V240.449ZM203.692 251.153H206.308C206.228 252.497 206.068 253.713 205.828 254.801C205.588 255.889 205.18 256.849 204.604 257.681C204.028 258.513 203.204 259.225 202.132 259.817C201.06 260.425 199.652 260.929 197.908 261.329C197.796 260.993 197.596 260.601 197.308 260.153C197.036 259.721 196.772 259.369 196.516 259.097C198.068 258.809 199.308 258.441 200.236 257.993C201.164 257.529 201.86 256.977 202.324 256.337C202.804 255.697 203.132 254.953 203.308 254.105C203.5 253.241 203.628 252.257 203.692 251.153ZM190.06 250.793C191.02 250.585 192.164 250.305 193.492 249.953C194.836 249.601 196.188 249.233 197.548 248.849L197.908 251.441C196.676 251.809 195.428 252.177 194.164 252.545C192.916 252.913 191.756 253.249 190.684 253.553L190.06 250.793ZM190.444 243.281H197.788V245.921H190.444V243.281ZM192.964 238.745H195.604V258.233C195.604 258.889 195.532 259.409 195.388 259.793C195.26 260.193 195.012 260.505 194.644 260.729C194.292 260.953 193.844 261.105 193.3 261.185C192.772 261.265 192.108 261.297 191.308 261.281C191.276 260.929 191.188 260.489 191.044 259.961C190.9 259.449 190.74 259.001 190.564 258.617C191.012 258.633 191.42 258.649 191.788 258.665C192.172 258.665 192.436 258.657 192.58 258.641C192.724 258.641 192.82 258.617 192.868 258.569C192.932 258.505 192.964 258.393 192.964 258.233V238.745ZM215.428 248.201H237.652V251.345H215.428V248.201ZM251.932 243.161H260.62V245.177H251.932V243.161ZM251.932 246.377H260.62V248.393H251.932V246.377ZM248.932 249.665H262.756V252.161H248.932V249.665ZM250.66 239.537H261.508V241.985H253.42V251.009H250.66V239.537ZM248.812 258.209C249.82 258.097 251.028 257.961 252.436 257.801C253.844 257.625 255.268 257.441 256.708 257.249L256.828 259.745C255.5 259.969 254.18 260.177 252.868 260.369C251.556 260.561 250.356 260.737 249.268 260.897L248.812 258.209ZM256.828 251.009C257.148 252.209 257.58 253.329 258.124 254.369C258.668 255.393 259.356 256.281 260.188 257.033C261.02 257.785 262.004 258.369 263.14 258.785C262.932 258.977 262.708 259.217 262.468 259.505C262.228 259.809 261.996 260.121 261.772 260.441C261.564 260.761 261.396 261.049 261.268 261.305C260.004 260.745 258.932 259.985 258.052 259.025C257.188 258.065 256.468 256.945 255.892 255.665C255.316 254.385 254.844 252.969 254.476 251.417L256.828 251.009ZM260.356 252.233L262.732 253.529C262.076 254.105 261.396 254.673 260.692 255.233C259.988 255.777 259.348 256.241 258.772 256.625L256.996 255.521C257.364 255.233 257.756 254.905 258.172 254.537C258.588 254.153 258.988 253.761 259.372 253.361C259.756 252.945 260.084 252.569 260.356 252.233ZM250.732 250.385H253.492V258.593L250.732 259.049V250.385ZM241.708 250.409H247.444V252.977H241.708V250.409ZM246.148 250.409H249.004C249.004 250.409 248.996 250.481 248.98 250.625C248.98 250.753 248.98 250.905 248.98 251.081C248.98 251.241 248.972 251.385 248.956 251.513C248.844 253.369 248.724 254.889 248.596 256.073C248.484 257.257 248.34 258.177 248.164 258.833C247.988 259.489 247.78 259.961 247.54 260.249C247.268 260.553 246.98 260.769 246.676 260.897C246.388 261.041 246.052 261.137 245.668 261.185C245.348 261.249 244.924 261.281 244.396 261.281C243.884 261.297 243.332 261.289 242.74 261.257C242.724 260.857 242.644 260.401 242.5 259.889C242.356 259.377 242.172 258.945 241.948 258.593C242.444 258.625 242.9 258.649 243.316 258.665C243.732 258.681 244.052 258.689 244.276 258.689C244.452 258.689 244.604 258.673 244.732 258.641C244.876 258.593 245.004 258.513 245.116 258.401C245.276 258.225 245.412 257.873 245.524 257.345C245.652 256.801 245.764 256.001 245.86 254.945C245.972 253.889 246.068 252.521 246.148 250.841V250.409ZM241.444 245.417H244.06C243.964 246.329 243.852 247.289 243.724 248.297C243.612 249.305 243.492 250.281 243.364 251.225C243.252 252.153 243.132 252.977 243.004 253.697L240.34 253.409C240.484 252.705 240.62 251.897 240.748 250.985C240.892 250.073 241.028 249.129 241.156 248.153C241.284 247.177 241.38 246.265 241.444 245.417ZM241.636 245.417H245.98V242.585H240.772V239.945H248.596V248.057H241.636V245.417Z" fill="white"/>
<path d="M60.2148 142.779H83.8208V149.159H60.2148V142.779ZM58.2428 162.905H90.3168V169.517H58.2428V162.905ZM70.5388 156.177H77.4988V186.569C77.4988 188.309 77.2861 189.682 76.8608 190.687C76.4354 191.692 75.6621 192.466 74.5408 193.007C73.3808 193.548 71.9888 193.896 70.3648 194.051C68.7794 194.244 66.9234 194.322 64.7968 194.283C64.6421 193.316 64.3134 192.176 63.8108 190.861C63.3081 189.546 62.8054 188.406 62.3028 187.439C63.7721 187.478 65.1834 187.516 66.5368 187.555C67.8901 187.594 68.8181 187.594 69.3208 187.555C69.7848 187.555 70.0941 187.478 70.2488 187.323C70.4421 187.168 70.5388 186.898 70.5388 186.511V156.177ZM81.2688 142.779H83.0088L84.4008 142.373L88.9248 145.795C87.8034 147.496 86.5274 149.275 85.0968 151.131C83.7048 152.948 82.2354 154.708 80.6888 156.409C79.1421 158.072 77.6148 159.541 76.1068 160.817C75.6428 160.198 75.0048 159.483 74.1928 158.671C73.3808 157.859 72.6848 157.221 72.1048 156.757C73.2648 155.674 74.4441 154.379 75.6428 152.871C76.8414 151.363 77.9241 149.836 78.8908 148.289C79.8961 146.742 80.6888 145.389 81.2688 144.229V142.779ZM36.1448 151.363H54.9368V157.859H36.1448V151.363ZM43.9748 139.821L50.4708 140.517C49.9294 143.61 49.3108 146.858 48.6148 150.261C47.9574 153.664 47.2614 157.066 46.5268 160.469C45.7921 163.833 45.0574 167.1 44.3228 170.271C43.5881 173.403 42.8728 176.264 42.1768 178.855L36.4928 175.897C37.1501 173.616 37.8074 171.006 38.4648 168.067C39.1608 165.128 39.8374 162.035 40.4948 158.787C41.1521 155.5 41.7708 152.252 42.3508 149.043C42.9694 145.795 43.5108 142.721 43.9748 139.821ZM39.5668 174.911L43.3368 169.981C45.3474 171.257 47.4548 172.688 49.6588 174.273C51.9014 175.858 53.9701 177.463 55.8648 179.087C57.7981 180.711 59.3254 182.258 60.4468 183.727L56.2708 189.353C55.1881 187.884 53.7188 186.298 51.8628 184.597C50.0068 182.857 47.9961 181.136 45.8308 179.435C43.7041 177.734 41.6161 176.226 39.5668 174.911ZM52.5008 151.363H53.6608L54.8788 151.247L58.9968 151.943C58.5714 159.483 57.6241 165.998 56.1548 171.489C54.7241 176.941 52.7134 181.542 50.1228 185.293C47.5708 189.044 44.3614 192.118 40.4948 194.515C40.0694 193.664 39.4508 192.678 38.6388 191.557C37.8268 190.474 37.0534 189.624 36.3188 189.005C39.6054 187.265 42.3894 184.713 44.6708 181.349C46.9521 177.985 48.7308 173.886 50.0068 169.053C51.3214 164.22 52.1528 158.768 52.5008 152.697V151.363ZM123.609 182.567L129.003 181.117C129.66 182.122 130.221 183.224 130.685 184.423C131.149 185.622 131.477 186.685 131.671 187.613L125.987 189.295C125.871 188.367 125.581 187.265 125.117 185.989C124.653 184.713 124.15 183.572 123.609 182.567ZM138.921 181.001L144.953 182.625C144.334 183.862 143.715 185.061 143.097 186.221C142.517 187.381 141.975 188.367 141.473 189.179L136.311 187.671C136.775 186.743 137.258 185.641 137.761 184.365C138.263 183.089 138.65 181.968 138.921 181.001ZM126.799 174.563V177.463H141.183V174.563H126.799ZM120.999 170.445H147.157V181.581H120.999V170.445ZM124.711 154.437V157.105H143.039V154.437H124.711ZM124.711 147.825V150.435H143.039V147.825H124.711ZM119.201 143.591H148.839V161.339H119.201V143.591ZM118.331 163.311H149.825V168.531H118.331V163.311ZM117.171 188.077H150.637V193.239H117.171V188.077ZM126.973 139.821H132.077V146.723H126.973V139.821ZM135.499 139.821H140.661V146.723H135.499V139.821ZM127.959 145.563H132.077V160.527H127.959V145.563ZM135.499 145.563H139.617V160.527H135.499V145.563ZM96.6968 155.017H117.055V161.049H96.6968V155.017ZM98.0888 143.475H115.895V149.449H98.0888V143.475ZM112.473 164.007H116.881V185.583H112.473V164.007ZM104.295 158.033H110.037V194.283H104.295V158.033ZM97.5088 164.065H101.917V171.025C101.917 174.002 101.781 177.134 101.511 180.421C101.24 183.669 100.602 186.685 99.5968 189.469C99.1328 189.005 98.5141 188.483 97.7408 187.903C96.9674 187.323 96.2908 186.878 95.7108 186.569C96.4841 184.21 96.9674 181.639 97.1608 178.855C97.3928 176.071 97.5088 173.422 97.5088 170.909V164.065ZM155.799 169.517C158.389 168.976 161.483 168.28 165.079 167.429C168.675 166.54 172.271 165.631 175.867 164.703L176.679 170.967C173.392 171.895 170.067 172.823 166.703 173.751C163.377 174.679 160.323 175.51 157.539 176.245L155.799 169.517ZM156.727 150.783H175.983V157.221H156.727V150.783ZM163.745 139.821H170.415V187.033C170.415 188.696 170.241 189.991 169.893 190.919C169.545 191.847 168.887 192.562 167.921 193.065C166.954 193.568 165.755 193.896 164.325 194.051C162.894 194.244 161.173 194.341 159.163 194.341C159.047 193.452 158.795 192.408 158.409 191.209C158.061 190.01 157.674 188.947 157.249 188.019C158.37 188.058 159.453 188.096 160.497 188.135C161.541 188.135 162.256 188.135 162.643 188.135C163.029 188.135 163.3 188.058 163.455 187.903C163.648 187.71 163.745 187.42 163.745 187.033V139.821ZM177.375 152.813H209.681V193.819H202.779V159.425H183.987V194.225H177.375V152.813ZM181.493 167.835H204.693V174.331H181.493V167.835ZM181.725 183.321H204.867V189.991H181.725V183.321ZM189.903 139.937H196.515V187.381H189.903V139.937ZM217.569 176.767H270.407V182.451H217.569V176.767ZM247.903 178.739C249.024 180.943 250.629 182.702 252.717 184.017C254.805 185.293 257.434 186.24 260.605 186.859C263.814 187.439 267.642 187.787 272.089 187.903C271.586 188.367 271.064 188.966 270.523 189.701C270.02 190.474 269.556 191.248 269.131 192.021C268.705 192.833 268.357 193.568 268.087 194.225C264.297 193.993 260.972 193.548 258.111 192.891C255.249 192.272 252.755 191.383 250.629 190.223C248.502 189.102 246.665 187.671 245.119 185.931C243.611 184.191 242.277 182.122 241.117 179.725L247.903 178.739ZM251.093 174.853L253.935 170.967C255.172 171.238 256.525 171.586 257.995 172.011C259.464 172.436 260.895 172.881 262.287 173.345C263.679 173.809 264.839 174.254 265.767 174.679L262.751 179.029C261.9 178.604 260.798 178.14 259.445 177.637C258.091 177.096 256.68 176.593 255.211 176.129C253.741 175.626 252.369 175.201 251.093 174.853ZM237.753 157.859H271.335V162.673H237.753V157.859ZM257.009 154.089H263.563V166.095C263.563 167.526 263.389 168.608 263.041 169.343C262.693 170.078 261.997 170.619 260.953 170.967C259.947 171.354 258.729 171.586 257.299 171.663C255.907 171.702 254.283 171.721 252.427 171.721C252.272 170.909 252.021 170.058 251.673 169.169C251.325 168.241 250.957 167.41 250.571 166.675C251.692 166.714 252.794 166.733 253.877 166.733C254.998 166.733 255.713 166.733 256.023 166.733C256.409 166.733 256.661 166.675 256.777 166.559C256.931 166.443 257.009 166.23 257.009 165.921V154.089ZM216.815 157.105H233.055V162.499H216.815V157.105ZM229.691 139.763H235.955V173.171H229.691V139.763ZM219.541 141.445H225.341V148.753H233.287V154.031H219.541V141.445ZM241.291 164.529L245.873 161.861C246.917 162.712 247.961 163.678 249.005 164.761C250.049 165.844 250.841 166.849 251.383 167.777L246.453 170.677C245.989 169.788 245.254 168.763 244.249 167.603C243.282 166.443 242.296 165.418 241.291 164.529ZM239.899 148.347L243.669 146.955C244.867 147.651 246.105 148.521 247.381 149.565C248.657 150.609 249.643 151.556 250.339 152.407L246.395 153.915C245.776 153.064 244.829 152.117 243.553 151.073C242.315 150.029 241.097 149.12 239.899 148.347ZM245.815 146.259L249.121 144.519C250.087 144.983 251.093 145.544 252.137 146.201C253.181 146.82 254.167 147.477 255.095 148.173C256.023 148.83 256.777 149.468 257.357 150.087L253.877 151.885C253.335 151.305 252.62 150.686 251.731 150.029C250.841 149.333 249.875 148.656 248.831 147.999C247.825 147.303 246.82 146.723 245.815 146.259ZM263.099 142.605H264.259L265.361 142.373L268.957 144.171C267.681 146.375 266.076 148.27 264.143 149.855C262.209 151.44 260.005 152.794 257.531 153.915C255.056 154.998 252.388 155.887 249.527 156.583C246.665 157.24 243.707 157.762 240.653 158.149C240.421 157.492 240.034 156.738 239.493 155.887C238.99 155.036 238.507 154.34 238.043 153.799C240.788 153.567 243.437 153.2 245.989 152.697C248.579 152.156 250.977 151.46 253.181 150.609C255.423 149.758 257.395 148.734 259.097 147.535C260.798 146.336 262.132 144.925 263.099 143.301V142.605ZM253.007 139.763L258.691 141.039C256.371 143.204 253.606 145.06 250.397 146.607C247.226 148.154 243.495 149.507 239.203 150.667C238.855 150.048 238.333 149.333 237.637 148.521C236.979 147.709 236.38 147.09 235.839 146.665C239.86 145.853 243.301 144.867 246.163 143.707C249.063 142.508 251.344 141.194 253.007 139.763ZM251.673 142.605H264.897V146.375H246.511L251.673 142.605ZM220.295 159.889H226.443V162.847C226.443 163.736 226.307 164.896 226.037 166.327C225.805 167.758 225.36 169.227 224.703 170.735C224.045 172.243 223.059 173.538 221.745 174.621C221.358 174.312 220.836 173.964 220.179 173.577C219.56 173.19 218.922 172.823 218.265 172.475C217.607 172.127 217.008 171.856 216.467 171.663C217.588 170.774 218.419 169.768 218.961 168.647C219.502 167.487 219.85 166.366 220.005 165.283C220.198 164.162 220.295 163.272 220.295 162.615V159.889ZM240.015 171.373H246.917V176.651C246.917 178.043 246.704 179.454 246.279 180.885C245.892 182.316 245.157 183.727 244.075 185.119C242.992 186.472 241.445 187.748 239.435 188.947C237.424 190.146 234.833 191.209 231.663 192.137C228.492 193.104 224.587 193.877 219.947 194.457C219.56 193.606 218.999 192.62 218.265 191.499C217.53 190.416 216.834 189.488 216.177 188.715C220.314 188.251 223.794 187.671 226.617 186.975C229.439 186.279 231.721 185.506 233.461 184.655C235.239 183.804 236.593 182.934 237.521 182.045C238.487 181.117 239.145 180.189 239.493 179.261C239.841 178.294 240.015 177.366 240.015 176.477V171.373ZM278.121 160.179H330.321V166.443H278.121V160.179ZM281.949 149.391H327.073V155.539H281.949V149.391ZM288.155 171.315H315.415V177.579H288.155V171.315ZM312.283 152.117C313.404 155.404 314.873 158.478 316.691 161.339C318.547 164.2 320.731 166.752 323.245 168.995C325.797 171.199 328.639 172.958 331.771 174.273C331.268 174.698 330.727 175.259 330.147 175.955C329.567 176.612 329.006 177.308 328.465 178.043C327.962 178.739 327.537 179.396 327.189 180.015C323.786 178.352 320.751 176.226 318.083 173.635C315.415 171.044 313.095 168.067 311.123 164.703C309.151 161.339 307.488 157.685 306.135 153.741L312.283 152.117ZM284.675 142.605L290.475 140.517C291.055 141.329 291.635 142.238 292.215 143.243C292.795 144.21 293.317 145.176 293.781 146.143C294.283 147.11 294.67 147.96 294.941 148.695L288.735 151.015C288.425 149.894 287.884 148.54 287.111 146.955C286.337 145.37 285.525 143.92 284.675 142.605ZM316.401 140.227L323.245 142.257C322.394 143.92 321.485 145.524 320.519 147.071C319.591 148.579 318.721 149.894 317.909 151.015L311.993 149.101C312.495 148.289 313.017 147.361 313.559 146.317C314.1 145.273 314.622 144.229 315.125 143.185C315.627 142.102 316.053 141.116 316.401 140.227ZM313.617 171.315H320.693C320.693 171.315 320.673 171.663 320.635 172.359C320.635 173.016 320.596 173.577 320.519 174.041C320.325 177.714 320.074 180.75 319.765 183.147C319.494 185.544 319.165 187.439 318.779 188.831C318.392 190.184 317.909 191.17 317.329 191.789C316.671 192.524 315.975 193.046 315.241 193.355C314.545 193.703 313.713 193.935 312.747 194.051C311.896 194.167 310.794 194.225 309.441 194.225C308.126 194.264 306.695 194.244 305.149 194.167C305.11 193.162 304.897 192.04 304.511 190.803C304.163 189.604 303.699 188.56 303.119 187.671C304.395 187.748 305.593 187.806 306.715 187.845C307.875 187.884 308.745 187.903 309.325 187.903C309.789 187.903 310.175 187.864 310.485 187.787C310.794 187.71 311.084 187.536 311.355 187.265C311.703 186.878 312.012 186.163 312.283 185.119C312.553 184.036 312.785 182.47 312.979 180.421C313.211 178.333 313.423 175.626 313.617 172.301V171.315ZM297.493 173.403H304.743C304.472 175.955 304.027 178.314 303.409 180.479C302.79 182.606 301.823 184.558 300.509 186.337C299.194 188.077 297.357 189.624 294.999 190.977C292.679 192.33 289.682 193.49 286.009 194.457C285.777 193.838 285.448 193.162 285.023 192.427C284.597 191.692 284.114 190.958 283.573 190.223C283.07 189.527 282.587 188.947 282.123 188.483C285.332 187.787 287.884 186.975 289.779 186.047C291.712 185.08 293.201 183.978 294.245 182.741C295.289 181.465 296.043 180.054 296.507 178.507C296.971 176.96 297.299 175.259 297.493 173.403ZM299.755 139.705L307.063 140.981C306.135 145.041 304.975 148.985 303.583 152.813C302.229 156.641 300.528 160.256 298.479 163.659C296.468 167.062 294.032 170.136 291.171 172.881C288.309 175.626 284.907 177.985 280.963 179.957C280.653 179.416 280.247 178.797 279.745 178.101C279.242 177.405 278.72 176.728 278.179 176.071C277.637 175.375 277.135 174.795 276.671 174.331C280.267 172.63 283.379 170.561 286.009 168.125C288.638 165.65 290.842 162.905 292.621 159.889C294.438 156.873 295.927 153.664 297.087 150.261C298.247 146.82 299.136 143.301 299.755 139.705Z" fill="white"/>
<ellipse cx="76.3209" cy="61.0005" rx="54.1017" ry="56" fill="#6EE292"/>
<path d="M61.6409 27.3111V92.7656H45.8526V42.0767H45.469L30.8313 51.0256V37.3466L46.9712 27.3111H61.6409ZM94.1812 94.3636C88.471 94.3636 83.5491 93.0107 79.4156 90.3047C75.2821 87.5774 72.0967 83.6676 69.8595 78.5753C67.6223 73.4616 66.5143 67.3146 66.5356 60.1342C66.5569 52.9538 67.6755 46.8601 69.8914 41.853C72.1287 36.8246 75.3034 33 79.4156 30.3793C83.5491 27.7372 88.471 26.4162 94.1812 26.4162C99.8914 26.4162 104.813 27.7372 108.947 30.3793C113.102 33 116.298 36.8246 118.535 41.853C120.772 46.8814 121.88 52.9751 121.859 60.1342C121.859 67.3359 120.74 73.4936 118.503 78.6072C116.266 83.7209 113.08 87.6307 108.947 90.3366C104.835 93.0213 99.9128 94.3636 94.1812 94.3636ZM94.1812 81.4197C97.5903 81.4197 100.35 79.6832 102.459 76.2102C104.568 72.7159 105.612 67.3572 105.591 60.1342C105.591 55.4041 105.112 51.505 104.153 48.4368C103.194 45.3473 101.862 43.0462 100.158 41.5334C98.4532 40.0206 96.461 39.2642 94.1812 39.2642C90.7934 39.2642 88.0555 40.9794 85.9674 44.4098C83.8794 47.8189 82.8247 53.0604 82.8034 60.1342C82.7821 64.9283 83.2402 68.902 84.1777 72.0554C85.1365 75.2088 86.4788 77.5632 88.2047 79.1186C89.9305 80.6527 91.9227 81.4197 94.1812 81.4197Z" fill="white"/>
</svg>
