<svg width="127" height="82" viewBox="0 0 127 82" fill="none" xmlns="http://www.w3.org/2000/svg">
<circle cx="62.5" cy="41.342" r="40.5" fill="#053786"/>
<path d="M36.8974 34.8044V31.9329H51.9841V34.8044H46.1396V50.842H42.7419V34.8044H36.8974ZM71.9909 41.3875C71.9909 43.4249 71.6092 45.1699 70.846 46.6226C70.0889 48.0691 69.0548 49.177 67.7437 49.9464C66.4388 50.7159 64.9584 51.1006 63.3026 51.1006C61.6469 51.1006 60.1634 50.7159 58.8524 49.9464C57.5474 49.1709 56.5133 48.0598 55.7501 46.6133C54.993 45.1607 54.6144 43.4187 54.6144 41.3875C54.6144 39.3501 54.993 37.6081 55.7501 36.1616C56.5133 34.709 57.5474 33.598 58.8524 32.8285C60.1634 32.0591 61.6469 31.6744 63.3026 31.6744C64.9584 31.6744 66.4388 32.0591 67.7437 32.8285C69.0548 33.598 70.0889 34.709 70.846 36.1616C71.6092 37.6081 71.9909 39.3501 71.9909 41.3875ZM68.547 41.3875C68.547 39.9533 68.3223 38.7438 67.873 37.7589C67.4298 36.7679 66.8142 36.0201 66.0264 35.5153C65.2385 35.0044 64.3306 34.749 63.3026 34.749C62.2747 34.749 61.3668 35.0044 60.5789 35.5153C59.791 36.0201 59.1724 36.7679 58.7231 37.7589C58.2799 38.7438 58.0583 39.9533 58.0583 41.3875C58.0583 42.8217 58.2799 44.0343 58.7231 45.0253C59.1724 46.0101 59.791 46.758 60.5789 47.2689C61.3668 47.7736 62.2747 48.026 63.3026 48.026C64.3306 48.026 65.2385 47.7736 66.0264 47.2689C66.8142 46.758 67.4298 46.0101 67.873 45.0253C68.3223 44.0343 68.547 42.8217 68.547 41.3875ZM76.2693 50.842V31.9329H83.3602C84.8129 31.9329 86.0316 32.2038 87.0165 32.7454C88.0075 33.2871 88.7553 34.0319 89.2601 34.9798C89.771 35.9216 90.0264 36.9926 90.0264 38.1929C90.0264 39.4055 89.771 40.4827 89.2601 41.4244C88.7492 42.3662 87.9952 43.1079 86.998 43.6496C86.0008 44.1851 84.7729 44.4528 83.3141 44.4528H78.6145V41.6368H82.8524C83.7018 41.6368 84.3974 41.4891 84.9391 41.1936C85.4807 40.8981 85.8808 40.4919 86.1393 39.9749C86.404 39.4578 86.5364 38.8638 86.5364 38.1929C86.5364 37.522 86.404 36.9311 86.1393 36.4202C85.8808 35.9093 85.4776 35.5123 84.9298 35.2291C84.3882 34.9398 83.6895 34.7952 82.8339 34.7952H79.6947V50.842H76.2693Z" fill="white"/>
</svg>
