<svg width="30" height="30" viewBox="0 0 30 30" fill="none" xmlns="http://www.w3.org/2000/svg">
<path fill-rule="evenodd" clip-rule="evenodd" d="M15 0C6.71573 0 0 6.71573 0 15C0 23.2843 6.71573 30 15 30C23.2843 30 30 23.2843 30 15C30 6.71573 23.2843 0 15 0ZM15.2499 7C20.3506 7 24.5 10.3431 24.5 14.4523C24.5 16.097 23.8579 17.578 22.5173 19.0374H22.5177C20.5771 21.2551 16.2372 23.9561 15.2499 24.3691C14.2905 24.7706 14.4013 24.1432 14.4452 23.8945C14.4464 23.8874 14.4476 23.8806 14.4488 23.8741C14.4722 23.7361 14.5807 23.0881 14.5807 23.0881C14.6119 22.8536 14.6442 22.4899 14.5509 22.2577C14.4472 22.002 14.0372 21.8693 13.7359 21.8049C9.29077 21.2214 6 18.1363 6 14.4523C6 10.3431 10.1499 7 15.2499 7Z" fill="white"/>
<path d="M13.3215 12.5H12.6787C12.5801 12.5 12.5 12.5827 12.5 12.6843V16.8157C12.5 16.9175 12.5801 17 12.6787 17H13.3215C13.4201 17 13.5 16.9175 13.5 16.8157V12.6843C13.5 12.5827 13.4201 12.5 13.3215 12.5Z" fill="white"/>
<path d="M17.8121 12.5H17.1354C17.0316 12.5 16.9475 12.5827 16.9475 12.6843V15.1388L15.0211 12.582C15.0166 12.5754 15.0117 12.5693 15.0065 12.5633L15.0052 12.5622C15.0015 12.558 14.9978 12.5543 14.9939 12.5507C14.9928 12.5496 14.9917 12.5487 14.9904 12.5476C14.9872 12.5447 14.9839 12.542 14.9804 12.5394C14.9789 12.538 14.9773 12.5369 14.9756 12.5356C14.9723 12.5334 14.9691 12.5311 14.9658 12.5291C14.9639 12.5278 14.9621 12.5267 14.9601 12.5258C14.9567 12.5238 14.9534 12.5218 14.9501 12.5202C14.948 12.5193 14.9462 12.5182 14.9441 12.5174C14.9406 12.5158 14.9371 12.5142 14.9334 12.5129C14.9312 12.5122 14.9294 12.5115 14.9273 12.5107C14.9236 12.5095 14.9199 12.5082 14.916 12.5073C14.914 12.5065 14.9118 12.5062 14.9096 12.5055C14.9059 12.5047 14.9023 12.5038 14.8988 12.5031C14.8962 12.5027 14.8935 12.5024 14.8909 12.5022C14.8876 12.5015 14.8842 12.5013 14.8809 12.5009C14.8778 12.5005 14.8746 12.5005 14.8713 12.5004C14.8689 12.5004 14.867 12.5 14.8646 12.5H14.1881C14.0843 12.5 14 12.5827 14 12.6843V16.8157C14 16.9175 14.0843 17 14.1881 17H14.8646C14.9686 17 15.0527 16.9175 15.0527 16.8157V14.3619L16.9815 16.922C16.9948 16.9406 17.0113 16.9557 17.0292 16.9676C17.0298 16.968 17.0305 16.9686 17.0311 16.9691C17.035 16.9715 17.0388 16.9738 17.0427 16.976C17.0446 16.9771 17.0462 16.9778 17.0481 16.9787C17.0509 16.9804 17.054 16.9818 17.057 16.9831C17.0601 16.9844 17.0629 16.9856 17.0662 16.9869C17.0681 16.9876 17.0699 16.9884 17.0718 16.9889C17.0762 16.9905 17.0803 16.9918 17.0845 16.9931C17.0854 16.9931 17.0864 16.9935 17.0873 16.9936C17.1026 16.9976 17.1187 17 17.1354 17H17.8121C17.916 17 18 16.9175 18 16.8157V12.6843C18 12.5827 17.916 12.5 17.8121 12.5Z" fill="white"/>
<path d="M11.8173 15.9655H10.0256V12.6847C10.0256 12.5827 9.94359 12.5 9.84267 12.5H9.1831C9.082 12.5 9 12.5827 9 12.6847V16.8152V16.8155C9 16.8651 9.01964 16.91 9.05118 16.9431C9.0519 16.944 9.05262 16.9449 9.0537 16.9458C9.0546 16.9467 9.05551 16.9475 9.05641 16.9484C9.08939 16.9804 9.13372 17 9.18292 17H11.8173C11.9184 17 12 16.9171 12 16.8152V16.1501C12 16.0482 11.9184 15.9655 11.8173 15.9655Z" fill="white"/>
<path d="M21.3173 13.5345C21.4184 13.5345 21.5 13.452 21.5 13.3499V12.6848C21.5 12.5829 21.4184 12.5 21.3173 12.5H18.6831H18.6827C18.6334 12.5 18.5888 12.52 18.5559 12.5522C18.5551 12.5529 18.5542 12.5534 18.5537 12.5542C18.5526 12.5553 18.5517 12.5563 18.5508 12.5574C18.5195 12.5905 18.5 12.6352 18.5 12.6847V12.6848V16.8153V16.8155C18.5 16.8651 18.5196 16.91 18.5512 16.9431C18.5519 16.944 18.5528 16.9451 18.5537 16.9458C18.5544 16.9467 18.5555 16.9477 18.5564 16.9484C18.5892 16.9802 18.6337 17 18.6827 17H21.3173C21.4184 17 21.5 16.9171 21.5 16.8153V16.1501C21.5 16.0483 21.4184 15.9655 21.3173 15.9655H19.5258V15.2672H21.3173C21.4184 15.2672 21.5 15.1845 21.5 15.0825V14.4175C21.5 14.3155 21.4184 14.2326 21.3173 14.2326H19.5258V13.5345H21.3173Z" fill="white"/>
</svg>
