<svg width="372" height="116" viewBox="0 0 372 116" fill="none" xmlns="http://www.w3.org/2000/svg">
<path d="M372 79C372 95.5686 358.569 109 342 109L29 109L29 36L372 36L372 79Z" fill="#FF5F17"/>
<path d="M120.902 76.02H127.108V95.334H120.902V76.02ZM117.828 60.708V64.826H130.82V60.708H117.828ZM111.68 55.43H137.258V70.104H111.68V55.43ZM108.722 72.656H139.752V99.104H133.082V78.224H115.16V99.162H108.722V72.656ZM112.434 82.11H136.562V87.272H112.434V82.11ZM112.492 91.274H136.62V96.842H112.492V91.274ZM108.432 47.194H139.984V53.052H108.432V47.194ZM87.842 55.488H105.184V61.752H87.842V55.488ZM94.802 44.816H101.588V58.446H94.802V44.816ZM102.226 69.06C103.85 70.104 108.896 74.57 110.114 75.73L106.054 81.298C104.256 78.804 100.312 74.454 98.34 72.366L102.226 69.06ZM102.632 55.488H104.024L105.184 55.256L109.012 57.692C105.01 68.944 96.948 79.21 88.944 84.72C88.364 82.864 86.682 79.384 85.638 78.108C92.888 73.758 99.79 65.232 102.632 56.764V55.488ZM94.802 75.324L101.588 67.146V99.22H94.802V75.324ZM170.608 68.422H177.684V76.832H170.608V68.422ZM170.318 75.962L176.002 78.456C170.202 84.256 160.516 88.548 150.656 90.346C149.786 88.838 148.046 86.46 146.712 85.184C156.108 83.734 165.562 80.37 170.318 75.962ZM179.772 76.194C182.962 85.242 189.864 90.984 201.638 93.072C200.13 94.522 198.274 97.306 197.404 99.22C184.412 96.262 177.51 89.186 173.392 77.47L179.772 76.194ZM193.75 79.79L199.144 83.908C195.432 86.17 190.792 88.374 187.37 89.65L182.788 85.88C186.21 84.43 190.966 81.762 193.75 79.79ZM153.904 93.014C160.632 92.376 170.898 91.216 180.468 90.114L180.584 95.856C171.536 96.958 161.792 98.118 154.832 98.988L153.904 93.014ZM148.22 73.874H200.42V79.906H148.22V73.874ZM164.924 54.56L199.84 51.312L200.536 56.996L165.678 60.418L164.924 54.56ZM185.166 48.818L188.124 44.874C191.198 45.57 195.548 46.962 197.868 48.006L194.794 52.414C192.648 51.254 188.356 49.688 185.166 48.818ZM174.436 45.164H181.28C182.092 56.706 188.066 66.16 193.808 66.102C195.258 66.102 195.722 64.594 196.012 60.592C197.462 61.868 199.782 63.028 201.522 63.55C200.594 71.09 198.332 72.656 193.46 72.656C183.252 72.656 175.538 60.708 174.436 45.164ZM161.386 44.758L167.94 46.962C163.88 53.98 157.21 60.534 150.888 64.594C149.844 63.26 147.408 60.592 145.958 59.374C152.164 56.068 158.08 50.674 161.386 44.758ZM156.05 55.546L160.806 50.79L162.72 51.428V71.844H156.05V55.546ZM160.632 85.416L165.214 80.834L167.302 81.53V95.16H160.632V85.416Z" fill="white"/>
<path d="M38.9077 1.5396C40.8774 3.90317 44.1021 3.90317 46.0717 1.5396C48.0414 -0.823966 50.5882 -0.420877 51.7333 2.43739C52.8784 5.29565 55.9474 6.29421 58.5492 4.65438C61.1509 3.01454 63.4504 4.18716 63.6611 7.25613C63.8718 10.3251 66.4735 12.2214 69.46 11.4702C72.4466 10.719 74.2696 12.5421 73.5093 15.5194C72.7489 18.4968 74.6544 21.1077 77.7234 21.3184C80.7923 21.5291 81.965 23.8194 80.3251 26.4303C78.6853 29.0412 79.6838 32.1011 82.5421 33.2462C85.4004 34.3913 85.8035 36.9381 83.4399 38.9078C81.0763 40.8774 81.0763 44.1021 83.4399 46.0717C85.8035 48.0414 85.4004 50.5882 82.5421 51.7333C79.6838 52.8784 78.6853 55.9474 80.3251 58.5492C81.965 61.1509 80.7923 63.4504 77.7234 63.6611C74.6544 63.8718 72.758 66.4735 73.5093 69.46C74.2605 72.4466 72.4374 74.2696 69.46 73.5092C66.4827 72.7489 63.8718 74.6544 63.6611 77.7234C63.4504 80.7923 61.1601 81.965 58.5492 80.3251C55.9383 78.6853 52.8784 79.6838 51.7333 82.5421C50.5882 85.4004 48.0414 85.8035 46.0717 83.4399C44.1021 81.0763 40.8774 81.0763 38.9077 83.4399C36.9381 85.8035 34.3913 85.4004 33.2462 82.5421C32.101 79.6838 29.0321 78.6853 26.4303 80.3251C23.8286 81.965 21.5291 80.7923 21.3184 77.7234C21.1077 74.6544 18.506 72.758 15.5194 73.5092C12.5329 74.2605 10.7099 72.4374 11.4702 69.46C12.2306 66.4827 10.3251 63.8718 7.25613 63.6611C4.18716 63.4504 3.01454 61.1601 4.65438 58.5492C6.29421 55.9383 5.29565 52.8784 2.43739 51.7333C-0.420877 50.5882 -0.823966 48.0414 1.5396 46.0717C3.90317 44.1021 3.90317 40.8774 1.5396 38.9078C-0.823966 36.9381 -0.420877 34.3913 2.43739 33.2462C5.29565 32.1011 6.29421 29.0321 4.65438 26.4303C3.01454 23.8286 4.18716 21.5291 7.25613 21.3184C10.3251 21.1077 12.2214 18.506 11.4702 15.5194C10.719 12.5329 12.5421 10.7099 15.5194 11.4702C18.4968 12.2306 21.1077 10.3251 21.3184 7.25613C21.5291 4.18716 23.8194 3.01454 26.4303 4.65438C29.0412 6.29421 32.101 5.29565 33.2462 2.43739C34.3913 -0.420877 36.9381 -0.823966 38.9077 1.5396Z" fill="#39BF63"/>
<path d="M23.8835 33.1915H32.8155V35.6335H23.8835V33.1915ZM23.1355 40.8475H35.2795V43.3335H23.1355V40.8475ZM27.7775 38.2735H30.4395V49.8235C30.4395 51.1435 30.1755 51.8475 29.3175 52.2655C28.4375 52.6615 27.2275 52.7495 25.5995 52.7275C25.4675 52.0015 25.0275 50.8575 24.6755 50.1535C25.7975 50.1975 26.9415 50.2195 27.3155 50.1975C27.6675 50.1755 27.7775 50.0875 27.7775 49.7795V38.2735ZM31.8695 33.1915H32.5075L33.0575 33.0595L34.7735 34.3575C33.4755 36.2715 31.6055 38.6035 29.8895 40.0555C29.5375 39.5935 28.8115 38.8675 28.3935 38.5155C29.6915 37.2615 31.2095 35.0835 31.8695 33.7635V33.1915ZM14.7535 36.4695H21.8595V38.9115H14.7535V36.4695ZM17.7015 32.0915L20.1875 32.3555C19.3515 37.0415 18.0755 42.9375 17.0415 46.8975L14.8855 45.7535C15.8315 42.2775 17.0195 36.4695 17.7015 32.0915ZM16.0295 45.3795L17.4815 43.5315C19.7695 44.9615 22.6735 47.0955 23.9495 48.7455L22.3655 50.8795C21.1335 49.2075 18.3395 46.8975 16.0295 45.3795ZM20.9575 36.4695H21.3755L21.8375 36.4035L23.3995 36.6675C22.8935 45.2475 20.7595 50.1095 16.4035 52.8155C16.0515 52.1775 15.3475 51.2315 14.8195 50.7255C18.5595 48.7675 20.5175 43.9055 20.9575 36.9535V36.4695ZM47.9295 48.2835L49.9535 47.7555C50.4375 48.5035 50.8335 49.5375 50.9655 50.2195L48.8315 50.8575C48.7435 50.1535 48.3475 49.0535 47.9295 48.2835ZM53.7375 47.6895L56.0255 48.3055C55.5415 49.2735 55.0575 50.1755 54.7055 50.8135L52.7475 50.2415C53.0995 49.5155 53.5175 48.4375 53.7375 47.6895ZM49.1175 45.2475V46.3695H54.5955V45.2475H49.1175ZM46.9395 43.7075H56.8615V47.9095H46.9395V43.7075ZM48.3475 37.6355V38.6255H55.2775V37.6355H48.3475ZM48.3475 35.1275V36.1175H55.2775V35.1275H48.3475ZM46.2355 33.4995H57.4995V40.2535H46.2355V33.4995ZM45.9275 40.9795H57.8515V42.9595H45.9275V40.9795ZM45.4875 50.3955H58.1595V52.3315H45.4875V50.3955ZM49.1835 32.0915H51.1415V34.7095H49.1835V32.0915ZM52.4395 32.0915H54.3975V34.7095H52.4395V32.0915ZM49.5795 34.2475H51.1195V39.9235H49.5795V34.2475ZM52.4395 34.2475H53.9795V39.9235H52.4395V34.2475ZM37.7215 37.8555H45.4435V40.1435H37.7215V37.8555ZM38.2495 33.4775H45.0035V35.7435H38.2495V33.4775ZM43.6835 41.2435H45.3555V49.4495H43.6835V41.2435ZM40.6035 38.9995H42.7815V52.7495H40.6035V38.9995ZM38.0295 41.2875H39.7015V43.9275C39.7015 46.1935 39.5915 48.8115 38.7995 50.9235C38.4695 50.5715 37.7875 50.0435 37.3255 49.8015C37.9195 48.0195 38.0295 45.7755 38.0295 43.8615V41.2875ZM67.9573 34.7695V50.7695H64.5745V37.9805H64.4807L60.8166 40.2773V37.2773L64.7776 34.7695H67.9573Z" fill="white"/>
<circle cx="244" cy="73" r="21" fill="#39BF63"/>
<circle cx="284" cy="73" r="21" fill="#39BF63"/>
<circle cx="324" cy="73" r="21" fill="#39BF63"/>
<path d="M244.82 70.064H253.388V72.724H244.82V70.064ZM243.168 60.404H253.472V63.344H246.192V85.52H243.168V60.404ZM251.764 60.404H254.872V65.696C254.872 67.124 254.592 67.964 253.5 68.412C252.408 68.86 250.896 68.888 248.824 68.888C248.712 68.02 248.292 66.816 247.9 66.004C249.272 66.06 250.812 66.06 251.204 66.06C251.652 66.032 251.764 65.948 251.764 65.64V60.404ZM248.348 72.024C249.748 76.672 252.576 80.9 256.524 82.888C255.796 83.504 254.816 84.708 254.312 85.548C250.168 83.056 247.424 78.268 245.828 72.668L248.348 72.024ZM252.408 70.064H252.996L253.528 69.924L255.544 70.652C254.536 77.036 251.96 82.468 247.76 85.576C247.256 84.82 246.276 83.84 245.548 83.28C249.384 80.62 251.708 75.776 252.408 70.708V70.064ZM230.848 61.72H241.6V64.492H230.848V61.72ZM230.652 77.512H241.908V80.34H230.652V77.512ZM229.84 66.424H242.636V69.252H229.84V66.424ZM230.4 72.5H242.216V75.328H230.4V72.5ZM234.824 59.312H237.932V67.488H234.824V59.312ZM234.824 73.676H237.932V85.436H234.824V73.676ZM238.632 68.832L241.404 69.504C240.844 70.792 240.368 72.052 239.92 72.92L237.54 72.248C237.932 71.296 238.408 69.84 238.632 68.832ZM231.604 69.504L234.096 68.888C234.628 69.924 235.132 71.38 235.244 72.248L232.612 72.976C232.5 72.08 232.08 70.624 231.604 69.504ZM280.308 81.376H292.852V84.428H280.308V81.376ZM278.908 61.972H288.82V64.94H278.908V61.972ZM279.636 59.06L283.416 59.816C281.036 63.904 277.676 67.656 272.636 70.68C272.16 69.84 271.04 68.608 270.284 68.02C274.904 65.584 278.012 62.168 279.636 59.06ZM287.756 61.972H288.4L288.96 61.804L291.284 63.036C288.008 71.744 280.532 77.456 272.188 80.256C271.768 79.332 270.928 77.96 270.228 77.26C277.956 75.02 285.18 69.588 287.756 62.532V61.972ZM275.24 68.132L277.732 65.948C279.664 67.32 282.212 69.308 283.444 70.764L280.728 73.2C279.664 71.744 277.172 69.588 275.24 68.132ZM291.284 72.836H294.784V85.548H291.284V72.836ZM281.736 72.836H292.964V75.888H281.736V85.492H278.376V75.328L280.924 72.836H281.736ZM319.129 69.84H337.049V72.836H319.129V69.84ZM320.109 64.184H336.097V67.124H320.109V64.184ZM326.045 65.612H329.405V70.12C329.405 73.676 328.033 78.1 321.369 80.984C320.949 80.284 319.913 79.136 319.129 78.548C325.457 76.252 326.045 72.668 326.045 70.064V65.612ZM329.909 71.968C331.029 75.076 333.409 77.26 337.105 78.212C336.377 78.884 335.453 80.172 335.005 81.04C330.861 79.668 328.453 76.784 327.081 72.556L329.909 71.968ZM318.037 70.148V80.452H314.761V73.256H311.485V70.148H318.037ZM318.037 78.996C319.157 80.844 321.285 81.656 324.197 81.768C327.473 81.908 333.829 81.824 337.609 81.516C337.245 82.3 336.685 83.924 336.545 84.932C333.157 85.1 327.501 85.156 324.141 85.016C320.697 84.876 318.373 84.064 316.553 81.88C315.321 82.972 314.061 84.036 312.549 85.268L310.897 81.768C312.157 80.984 313.669 80.004 314.957 78.996H318.037ZM311.541 61.888L314.033 59.872C315.713 61.048 317.785 62.812 318.737 64.128L316.049 66.34C315.209 65.024 313.193 63.148 311.541 61.888ZM331.813 59.2L335.257 60.264C334.221 61.888 333.129 63.54 332.233 64.632L329.489 63.652C330.301 62.42 331.309 60.572 331.813 59.2ZM320.837 60.432L323.693 59.284C324.729 60.544 325.765 62.308 326.157 63.54L323.105 64.856C322.797 63.652 321.817 61.804 320.837 60.432Z" fill="white"/>
</svg>
