<svg width="523" height="70" viewBox="0 0 523 70" fill="none" xmlns="http://www.w3.org/2000/svg">
<path d="M14.139 17.448H39.451V20.108H14.139V17.448ZM19.515 7.004H36.483V9.188H19.515V7.004ZM19.515 10.364H36.539V12.576H19.515V10.364ZM18.843 3.252H37.883V5.856H18.843V3.252ZM25.843 4.904H29.063V14.732H25.843V4.904ZM25.059 15.656H28.391V26.492H25.059V15.656ZM24.779 18.54L27.299 19.8C26.5897 20.4907 25.7683 21.172 24.835 21.844C23.9203 22.4973 22.931 23.1133 21.867 23.692C20.803 24.252 19.7203 24.756 18.619 25.204C17.5177 25.652 16.435 26.0253 15.371 26.324C15.1097 25.9133 14.7737 25.428 14.363 24.868C13.9523 24.3267 13.5697 23.888 13.215 23.552C14.279 23.328 15.3617 23.048 16.463 22.712C17.5643 22.3573 18.6283 21.9653 19.655 21.536C20.7003 21.088 21.6617 20.612 22.539 20.108C23.4163 19.604 24.163 19.0813 24.779 18.54ZM28.783 18.456C29.399 18.9973 30.127 19.52 30.967 20.024C31.8257 20.528 32.759 21.004 33.767 21.452C34.7937 21.8813 35.8483 22.2733 36.931 22.628C38.0137 22.964 39.0777 23.2533 40.123 23.496C39.8803 23.7013 39.6283 23.9627 39.367 24.28C39.1057 24.616 38.8537 24.952 38.611 25.288C38.3683 25.624 38.1723 25.9227 38.023 26.184C36.959 25.8853 35.8763 25.512 34.775 25.064C33.6923 24.616 32.6283 24.112 31.583 23.552C30.5563 22.992 29.5857 22.3947 28.671 21.76C27.7563 21.1067 26.935 20.4347 26.207 19.744L28.783 18.456ZM27.215 0.199999L30.995 0.675998C30.5657 1.49733 30.1083 2.29067 29.623 3.056C29.1563 3.82133 28.727 4.46533 28.335 4.988L25.367 4.428C25.703 3.812 26.0483 3.112 26.403 2.328C26.7577 1.544 27.0283 0.834666 27.215 0.199999ZM20.047 0.143998L23.519 0.843999C22.8843 1.92667 22.1843 3 21.419 4.064C20.6537 5.128 19.8043 6.17333 18.871 7.2C17.9377 8.208 16.8923 9.16933 15.735 10.084C15.567 9.84133 15.343 9.58 15.063 9.3C14.783 9.00133 14.4843 8.72133 14.167 8.46C13.8683 8.18 13.5977 7.96533 13.355 7.816C14.4003 7.06933 15.343 6.26667 16.183 5.408C17.0417 4.53067 17.7977 3.644 18.451 2.748C19.1043 1.83333 19.6363 0.965332 20.047 0.143998ZM17.359 4.96H20.523V13.78H38.695V16.3H17.359V4.96ZM49.923 2.188H68.823V5.128H49.923V2.188ZM53.871 14.592H56.111V16.636H53.871V14.592ZM57.735 8.908H60.675V26.324H57.735V8.908ZM65.351 10.84H68.319V23.636C68.319 24.2893 68.2443 24.7933 68.095 25.148C67.9457 25.5213 67.6563 25.8107 67.227 26.016C66.8163 26.2213 66.3123 26.3427 65.715 26.38C65.1363 26.436 64.4457 26.464 63.643 26.464C63.6057 26.0907 63.5123 25.6707 63.363 25.204C63.2323 24.7373 63.083 24.336 62.915 24C63.3443 24.0187 63.755 24.028 64.147 24.028C64.539 24.028 64.8097 24.0187 64.959 24C65.2203 24 65.351 23.8787 65.351 23.636V10.84ZM50.315 10.84H66.835V13.64H53.171V26.464H50.315V10.84ZM43.763 2.888L45.667 0.451999C46.171 0.657332 46.703 0.909332 47.263 1.208C47.8417 1.50667 48.383 1.824 48.887 2.16C49.4097 2.47733 49.8297 2.78533 50.147 3.084L48.131 5.772C47.851 5.45467 47.459 5.128 46.955 4.792C46.4697 4.43733 45.947 4.092 45.387 3.756C44.827 3.42 44.2857 3.13067 43.763 2.888ZM42.699 10.392L44.547 7.9C45.0697 8.10533 45.611 8.348 46.171 8.628C46.7497 8.88933 47.291 9.17867 47.795 9.496C48.3177 9.79467 48.7377 10.084 49.055 10.364L47.095 13.08C46.7963 12.8 46.395 12.492 45.891 12.156C45.4057 11.82 44.883 11.5027 44.323 11.204C43.763 10.8867 43.2217 10.616 42.699 10.392ZM43.175 24.476C43.5297 23.748 43.9123 22.8893 44.323 21.9C44.7523 20.9107 45.1817 19.8653 45.611 18.764C46.059 17.644 46.4603 16.5427 46.815 15.46L49.531 17.196C49.2323 18.204 48.8963 19.2307 48.523 20.276C48.1497 21.3027 47.767 22.32 47.375 23.328C46.983 24.3173 46.591 25.2787 46.199 26.212L43.175 24.476ZM53.731 0.172H56.895V6.696H61.655V0.172H64.959V9.524H53.731V0.172ZM54.683 14.592H56.643C56.6803 16.1413 56.8297 17.5227 57.091 18.736C57.371 19.9493 57.791 20.8547 58.351 21.452C58.1457 21.564 57.8937 21.76 57.595 22.04C57.2963 22.3013 57.0723 22.544 56.923 22.768C56.3257 22.0213 55.8777 21.0227 55.579 19.772C55.299 18.5213 55.131 17.1027 55.075 15.516H54.683V14.592ZM54.599 17.336H56.391C56.2977 18.4373 56.0737 19.5013 55.719 20.528C55.383 21.5547 54.823 22.4133 54.039 23.104C53.927 22.88 53.7403 22.6373 53.479 22.376C53.2363 22.1147 53.0123 21.9093 52.807 21.76C53.4043 21.2373 53.8337 20.5747 54.095 19.772C54.375 18.9507 54.543 18.1387 54.599 17.336ZM61.319 14.592H63.447V16.636H61.319V14.592ZM62.131 14.592H64.091C64.1283 16.1413 64.287 17.5227 64.567 18.736C64.8657 19.9493 65.3043 20.8453 65.883 21.424C65.6777 21.536 65.4257 21.732 65.127 22.012C64.8283 22.2733 64.595 22.516 64.427 22.74C63.8297 22.012 63.3723 21.0227 63.055 19.772C62.7563 18.5213 62.5697 17.1027 62.495 15.516H62.131V14.592ZM62.047 17.308H63.839C63.7457 18.3907 63.5217 19.4173 63.167 20.388C62.831 21.34 62.271 22.152 61.487 22.824C61.3563 22.6 61.1697 22.3573 60.927 22.096C60.6843 21.816 60.451 21.6107 60.227 21.48C60.8243 20.976 61.263 20.3507 61.543 19.604C61.823 18.8387 61.991 18.0733 62.047 17.308ZM81.5449 3.63636V24H77.2395V7.72301H77.1202L72.4569 10.6463V6.82812L77.4981 3.63636H81.5449ZM95.4892 24.4474C93.7789 24.4408 92.3073 24.0199 91.0744 23.1847C89.8481 22.3494 88.9035 21.1397 88.2406 19.5554C87.5843 17.9711 87.2595 16.0653 87.2661 13.8381C87.2661 11.6174 87.5943 9.7249 88.2505 8.16051C88.9134 6.59612 89.858 5.40625 91.0843 4.59091C92.3173 3.76894 93.7856 3.35795 95.4892 3.35795C97.1928 3.35795 98.6577 3.76894 99.884 4.59091C101.117 5.41288 102.065 6.60606 102.728 8.17045C103.391 9.72822 103.719 11.6174 103.712 13.8381C103.712 16.072 103.381 17.9811 102.718 19.5653C102.062 21.1496 101.12 22.3594 99.894 23.1946C98.6677 24.0298 97.1994 24.4474 95.4892 24.4474ZM95.4892 20.8778C96.6558 20.8778 97.5872 20.2912 98.2832 19.1179C98.9792 17.9446 99.3239 16.1847 99.3173 13.8381C99.3173 12.2936 99.1582 11.0076 98.84 9.98011C98.5285 8.95265 98.0843 8.1804 97.5076 7.66335C96.9376 7.14631 96.2647 6.88778 95.4892 6.88778C94.3291 6.88778 93.4011 7.4678 92.7051 8.62784C92.009 9.78788 91.6577 11.5246 91.6511 13.8381C91.6511 15.4025 91.8069 16.7083 92.1184 17.7557C92.4366 18.7964 92.884 19.5786 93.4608 20.1023C94.0375 20.6193 94.7136 20.8778 95.4892 20.8778ZM115.744 1.656H132.572V26.24H129.38V4.568H118.824V26.492H115.744V1.656ZM119.552 7.984H128.764V10.42H119.552V7.984ZM117.34 21.928H130.92V24.84H117.34V21.928ZM122.744 5.128H125.348V14.144H122.744V5.128ZM122.688 15.18V18.12H125.516V15.18H122.688ZM120.252 12.856H128.064V20.416H120.252V12.856ZM112.3 0.283998L115.352 1.236C114.829 2.84133 114.185 4.46533 113.42 6.108C112.673 7.732 111.852 9.272 110.956 10.728C110.06 12.1653 109.117 13.444 108.128 14.564C108.053 14.284 107.922 13.9107 107.736 13.444C107.549 12.9773 107.344 12.5107 107.12 12.044C106.896 11.5773 106.7 11.1947 106.532 10.896C107.316 10.0373 108.062 9.03867 108.772 7.9C109.5 6.76133 110.162 5.548 110.76 4.26C111.357 2.95333 111.87 1.628 112.3 0.283998ZM110.004 7.984L113.168 4.82L113.196 4.848V26.548H110.004V7.984ZM143.296 18.456H154.104V20.276H143.296V18.456ZM144.836 15.992H154.72V17.56H144.836V15.992ZM144.836 13.584H154.608V15.124H144.836V13.584ZM148.28 11.988H150.8V19.52H148.28V11.988ZM153.712 18.456H156.288C156.288 18.456 156.288 18.568 156.288 18.792C156.288 18.9973 156.278 19.184 156.26 19.352C156.204 20.528 156.138 21.4987 156.064 22.264C156.008 23.0293 155.924 23.6173 155.812 24.028C155.718 24.4573 155.578 24.784 155.392 25.008C155.205 25.232 154.981 25.4 154.72 25.512C154.458 25.624 154.178 25.6987 153.88 25.736C153.6 25.7547 153.245 25.764 152.816 25.764C152.405 25.7827 151.966 25.7827 151.5 25.764C151.481 25.4467 151.416 25.092 151.304 24.7C151.192 24.3267 151.061 24.0093 150.912 23.748C151.266 23.7853 151.584 23.8133 151.864 23.832C152.162 23.8507 152.386 23.8507 152.536 23.832C152.816 23.8507 153.03 23.776 153.18 23.608C153.31 23.44 153.413 23.0107 153.488 22.32C153.581 21.6107 153.656 20.4347 153.712 18.792V18.456ZM142.764 20.752L144.724 21.256C144.593 22.096 144.397 22.908 144.136 23.692C143.874 24.4573 143.464 25.092 142.904 25.596L141.14 24.42C141.588 24.0093 141.942 23.468 142.204 22.796C142.484 22.124 142.67 21.4427 142.764 20.752ZM150.492 20.976L151.836 20.556C152.097 20.9107 152.321 21.312 152.508 21.76C152.694 22.208 152.834 22.6 152.928 22.936L151.5 23.468C151.425 23.1133 151.294 22.7027 151.108 22.236C150.94 21.7693 150.734 21.3493 150.492 20.976ZM145.424 21.424L147.076 21.2C147.188 21.7787 147.262 22.4227 147.3 23.132C147.356 23.8413 147.374 24.4293 147.356 24.896L145.564 25.176C145.62 24.672 145.629 24.0747 145.592 23.384C145.573 22.6747 145.517 22.0213 145.424 21.424ZM148.056 21.284L149.596 20.92C149.782 21.424 149.941 21.984 150.072 22.6C150.202 23.1973 150.286 23.7107 150.324 24.14L148.7 24.588C148.681 24.14 148.616 23.608 148.504 22.992C148.392 22.376 148.242 21.8067 148.056 21.284ZM143.296 10.896H155.42V12.744H145.928V19.464H143.296V10.896ZM139.236 4.4H146.292V6.304H139.236V4.4ZM152.032 4.4H159.144V6.304H152.032V4.4ZM158.136 1.124H161.356V23.16C161.356 23.9067 161.272 24.4947 161.104 24.924C160.954 25.372 160.656 25.7267 160.208 25.988C159.778 26.2493 159.237 26.408 158.584 26.464C157.949 26.52 157.193 26.548 156.316 26.548C156.278 26.1373 156.176 25.6427 156.008 25.064C155.84 24.4853 155.653 24 155.448 23.608C155.896 23.6267 156.334 23.636 156.764 23.636C157.212 23.636 157.52 23.636 157.688 23.636C157.856 23.6173 157.968 23.5707 158.024 23.496C158.098 23.4213 158.136 23.3 158.136 23.132V1.124ZM139.544 1.124H148.42V9.664H139.544V7.536H145.284V3.252H139.544V1.124ZM159.76 1.124V3.252H153.46V7.508H159.76V9.636H150.268V1.124H159.76ZM137.556 1.124H140.692V26.548H137.556V1.124ZM175.804 15.068L177.428 14.564C177.745 15.0307 178.034 15.5533 178.296 16.132C178.576 16.692 178.762 17.1867 178.856 17.616L177.148 18.204C177.054 17.756 176.877 17.2427 176.616 16.664C176.373 16.0853 176.102 15.5533 175.804 15.068ZM171.128 12.94L172.192 11.652C172.696 11.988 173.218 12.3893 173.76 12.856C174.301 13.3227 174.702 13.7427 174.964 14.116L173.844 15.6C173.582 15.208 173.19 14.76 172.668 14.256C172.145 13.752 171.632 13.3133 171.128 12.94ZM174.236 9.86L176.168 10.616C175.794 11.0827 175.412 11.5587 175.02 12.044C174.646 12.5293 174.292 12.9307 173.956 13.248L172.472 12.604C172.77 12.212 173.088 11.7547 173.424 11.232C173.76 10.7093 174.03 10.252 174.236 9.86ZM176.14 11.904L177.876 12.66C177.409 13.164 176.914 13.6867 176.392 14.228C175.869 14.7693 175.356 15.292 174.852 15.796C174.348 16.2813 173.872 16.7107 173.424 17.084L172.136 16.412C172.584 16.0013 173.05 15.5347 173.536 15.012C174.04 14.4707 174.516 13.9293 174.964 13.388C175.43 12.828 175.822 12.3333 176.14 11.904ZM179.052 18.12H181.348V25.96H179.052V18.12ZM170.876 16.188C171.772 16.132 172.78 16.076 173.9 16.02C175.038 15.9453 176.242 15.8613 177.512 15.768V17.476C176.354 17.588 175.234 17.6907 174.152 17.784C173.069 17.8587 172.052 17.9333 171.1 18.008L170.876 16.188ZM182.86 14.9L184.568 14.396C184.904 14.9187 185.221 15.4973 185.52 16.132C185.818 16.748 186.024 17.2987 186.136 17.784L184.372 18.344C184.278 17.8773 184.092 17.3267 183.812 16.692C183.532 16.0387 183.214 15.4413 182.86 14.9ZM177.792 12.8L178.996 11.568C179.556 11.9413 180.116 12.3893 180.676 12.912C181.254 13.4347 181.684 13.9107 181.964 14.34L180.732 15.74C180.452 15.292 180.032 14.7973 179.472 14.256C178.912 13.696 178.352 13.2107 177.792 12.8ZM181.012 9.832L183.056 10.588C182.626 11.1293 182.197 11.652 181.768 12.156C181.338 12.66 180.937 13.108 180.564 13.5L179.052 12.828C179.388 12.4173 179.742 11.9227 180.116 11.344C180.489 10.7653 180.788 10.2613 181.012 9.832ZM183.028 11.904L184.792 12.716C184.306 13.2387 183.793 13.78 183.252 14.34C182.71 14.9 182.169 15.432 181.628 15.936C181.086 16.44 180.564 16.888 180.06 17.28L178.772 16.552C179.238 16.1413 179.733 15.6747 180.256 15.152C180.797 14.6107 181.31 14.06 181.796 13.5C182.281 12.9213 182.692 12.3893 183.028 11.904ZM178.352 16.188C179.21 16.1507 180.19 16.0947 181.292 16.02C182.412 15.9453 183.588 15.8707 184.82 15.796V17.476C183.737 17.588 182.673 17.6907 181.628 17.784C180.601 17.8587 179.64 17.9333 178.744 18.008L178.352 16.188ZM171.744 18.596H173.788V21.004H176.812V22.88H171.744V18.596ZM183.084 18.596H185.184V22.88H180.872V21.004H183.084V18.596ZM175.496 18.12H177.708V20.836C177.708 21.564 177.614 22.2733 177.428 22.964C177.241 23.6547 176.858 24.2893 176.28 24.868C175.701 25.4467 174.814 25.9413 173.62 26.352C173.489 26.072 173.274 25.7547 172.976 25.4C172.677 25.0453 172.416 24.756 172.192 24.532C173.162 24.252 173.881 23.916 174.348 23.524C174.814 23.1133 175.122 22.6747 175.272 22.208C175.421 21.7413 175.496 21.2653 175.496 20.78V18.12ZM168.356 4.848H175.412V6.892H168.356V4.848ZM181.236 4.848H188.348V6.892H181.236V4.848ZM187.228 1.292H190.448V22.656C190.448 23.4587 190.373 24.1027 190.224 24.588C190.074 25.092 189.757 25.484 189.272 25.764C188.805 26.044 188.236 26.212 187.564 26.268C186.892 26.3427 186.089 26.38 185.156 26.38C185.118 26.0627 185.053 25.708 184.96 25.316C184.866 24.924 184.754 24.5227 184.624 24.112C184.512 23.72 184.381 23.384 184.232 23.104C184.736 23.1227 185.23 23.1413 185.716 23.16C186.22 23.16 186.565 23.1507 186.752 23.132C186.938 23.132 187.06 23.0947 187.116 23.02C187.19 22.9453 187.228 22.8147 187.228 22.628V1.292ZM168.664 1.292H177.54V10.42H168.664V8.18H174.404V3.532H168.664V1.292ZM188.88 1.292V3.532H182.58V8.18H188.88V10.42H179.388V1.292H188.88ZM166.676 1.292H169.868V26.52H166.676V1.292ZM197.812 9.664H206.492V12.912H197.812V9.664ZM197.812 18.428H206.548V21.676H197.812V18.428ZM216.348 2.132H219.736V18.652C219.736 19.436 219.642 20.108 219.456 20.668C219.269 21.2093 218.914 21.62 218.392 21.9C217.85 22.1987 217.216 22.3947 216.488 22.488C215.778 22.5627 214.948 22.6 213.996 22.6C213.958 22.264 213.874 21.8813 213.744 21.452C213.613 21.004 213.454 20.5653 213.268 20.136C213.1 19.7067 212.922 19.3427 212.736 19.044C213.389 19.0627 214.014 19.0813 214.612 19.1C215.209 19.1 215.61 19.1 215.816 19.1C216.021 19.0813 216.161 19.0347 216.236 18.96C216.31 18.8853 216.348 18.7453 216.348 18.54V2.132ZM196.216 2.468L199.632 3.728V23.888H196.216V2.468ZM204.504 0.199999L207.276 3.084C206.361 3.51333 205.39 3.924 204.364 4.316C203.337 4.68933 202.301 5.044 201.256 5.38C200.21 5.716 199.184 6.01467 198.176 6.276C198.101 5.884 197.942 5.41733 197.7 4.876C197.476 4.316 197.252 3.84933 197.028 3.476C197.924 3.196 198.82 2.87867 199.716 2.524C200.63 2.15067 201.498 1.768 202.32 1.376C203.16 0.965332 203.888 0.573332 204.504 0.199999ZM207.976 2.132H218.084V5.464H211.392V26.436H207.976V2.132ZM223.964 20.948H249.528V23.636H223.964V20.948ZM234.884 18.624H238.44V26.492H234.884V18.624ZM230.236 16.16V17.476H243.088V16.16H230.236ZM230.236 12.772V14.06H243.088V12.772H230.236ZM226.96 10.532H246.532V19.716H226.96V10.532ZM225.84 2.076H247.764V4.708H225.84V2.076ZM224.076 6.752H249.388V9.412H224.076V6.752ZM234.884 0.199999H238.44V3.952H234.884V0.199999ZM240.596 4.12L244.208 4.708C243.909 5.28667 243.629 5.81867 243.368 6.304C243.106 6.78933 242.864 7.20933 242.64 7.564L239.476 6.976C239.606 6.696 239.737 6.388 239.868 6.052C240.017 5.716 240.157 5.38 240.288 5.044C240.418 4.68933 240.521 4.38133 240.596 4.12ZM229.536 4.792L232.784 4.232C233.064 4.64267 233.316 5.1 233.54 5.604C233.764 6.08933 233.922 6.53733 234.016 6.948L230.6 7.62C230.544 7.24667 230.413 6.78933 230.208 6.248C230.002 5.70667 229.778 5.22133 229.536 4.792ZM257.284 27.864L256.388 25.596C257.564 25.2227 258.46 24.7093 259.076 24.056C259.71 23.4213 260.028 22.6933 260.028 21.872L259.804 19.128L261.372 21.62C261.129 21.8253 260.868 21.984 260.588 22.096C260.308 22.208 260.009 22.264 259.692 22.264C259.001 22.264 258.385 22.0493 257.844 21.62C257.302 21.172 257.032 20.5467 257.032 19.744C257.032 18.96 257.302 18.344 257.844 17.896C258.385 17.448 259.029 17.224 259.776 17.224C260.765 17.224 261.512 17.5693 262.016 18.26C262.538 18.9507 262.8 19.884 262.8 21.06C262.8 22.6467 262.314 24.0467 261.344 25.26C260.373 26.4733 259.02 27.3413 257.284 27.864ZM287.328 0.199999H290.744V5.044H287.328V0.199999ZM282.176 3.392H295.84V6.444H282.176V3.392ZM295.644 7.172H308.02V10.364H295.644V7.172ZM286.544 10.756V13.164H291.444V10.756H286.544ZM283.492 8.012H294.72V15.936H283.492V8.012ZM287.552 14.788H290.772V23.132C290.772 23.8227 290.688 24.392 290.52 24.84C290.37 25.288 290.062 25.6427 289.596 25.904C289.129 26.1467 288.588 26.296 287.972 26.352C287.374 26.408 286.674 26.436 285.872 26.436C285.797 25.988 285.657 25.4747 285.452 24.896C285.265 24.3173 285.069 23.8227 284.864 23.412C285.33 23.4307 285.788 23.44 286.236 23.44C286.702 23.44 287.001 23.44 287.132 23.44C287.412 23.44 287.552 23.3093 287.552 23.048V14.788ZM283.716 17L286.74 17.644C286.46 18.9693 286.068 20.276 285.564 21.564C285.078 22.852 284.528 23.944 283.912 24.84C283.744 24.6533 283.501 24.4387 283.184 24.196C282.885 23.972 282.577 23.748 282.26 23.524C281.942 23.2813 281.662 23.0947 281.42 22.964C281.961 22.2173 282.418 21.312 282.792 20.248C283.184 19.184 283.492 18.1013 283.716 17ZM291.332 17.616L293.964 16.72C294.356 17.448 294.71 18.2693 295.028 19.184C295.364 20.08 295.606 20.8453 295.756 21.48L292.984 22.544C292.853 21.872 292.629 21.0787 292.312 20.164C292.013 19.2307 291.686 18.3813 291.332 17.616ZM302.504 1.992L305.136 0.815998C305.77 1.46933 306.349 2.216 306.872 3.056C307.394 3.87733 307.777 4.624 308.02 5.296L305.248 6.64C305.024 5.968 304.66 5.20267 304.156 4.344C303.652 3.46667 303.101 2.68267 302.504 1.992ZM298.808 0.172H302.056V7.368C302.056 8.78667 301.99 10.336 301.86 12.016C301.729 13.696 301.458 15.404 301.048 17.14C300.637 18.8573 300.021 20.528 299.2 22.152C298.397 23.776 297.305 25.2507 295.924 26.576C295.718 26.3707 295.448 26.1373 295.112 25.876C294.776 25.6333 294.421 25.3907 294.048 25.148C293.693 24.9053 293.366 24.7187 293.068 24.588C294.393 23.3933 295.429 22.068 296.176 20.612C296.941 19.1373 297.51 17.616 297.884 16.048C298.276 14.48 298.528 12.9587 298.64 11.484C298.752 9.99067 298.808 8.61867 298.808 7.368V0.172ZM301.048 11.54H304.1V22.404C304.1 22.4973 304.109 22.5907 304.128 22.684C304.146 22.7587 304.174 22.8147 304.212 22.852C304.324 22.9827 304.464 23.048 304.632 23.048C304.706 23.048 304.8 23.048 304.912 23.048C305.024 23.048 305.117 23.048 305.192 23.048C305.285 23.048 305.378 23.0387 305.472 23.02C305.565 22.9827 305.63 22.936 305.668 22.88C305.742 22.824 305.798 22.7307 305.836 22.6C305.873 22.4693 305.901 22.3387 305.92 22.208C305.957 21.9467 305.985 21.536 306.004 20.976C306.022 20.3973 306.022 19.7533 306.004 19.044C306.284 19.2867 306.657 19.5387 307.124 19.8C307.59 20.0613 308.02 20.248 308.412 20.36C308.393 20.864 308.365 21.3773 308.328 21.9C308.309 22.404 308.272 22.8613 308.216 23.272C308.178 23.6827 308.122 24 308.048 24.224C307.88 24.896 307.553 25.4093 307.068 25.764C306.862 25.9133 306.601 26.0253 306.284 26.1C305.985 26.1933 305.686 26.24 305.388 26.24C305.22 26.24 305.033 26.24 304.828 26.24C304.622 26.24 304.417 26.24 304.212 26.24C304.025 26.24 303.857 26.24 303.708 26.24C303.334 26.24 302.97 26.184 302.616 26.072C302.261 25.96 301.953 25.7733 301.692 25.512C301.524 25.3253 301.393 25.1293 301.3 24.924C301.206 24.7187 301.141 24.4387 301.104 24.084C301.066 23.7293 301.048 23.2533 301.048 22.656V11.54ZM315.188 0.0879991L318.688 0.815998C318.352 1.67466 317.988 2.54267 317.596 3.42C317.222 4.27867 316.84 5.1 316.448 5.884C316.074 6.64933 315.71 7.33067 315.356 7.928L312.416 7.172C312.77 6.53733 313.116 5.80933 313.452 4.988C313.806 4.16667 314.133 3.32667 314.432 2.468C314.749 1.60933 315.001 0.815999 315.188 0.0879991ZM310.932 5.828C311.94 5.79067 313.097 5.75333 314.404 5.716C315.71 5.66 317.082 5.59467 318.52 5.52C319.957 5.44533 321.404 5.38 322.86 5.324L322.832 8.264C321.45 8.35733 320.069 8.45067 318.688 8.544C317.306 8.63733 315.981 8.72133 314.712 8.796C313.442 8.87067 312.276 8.94533 311.212 9.02L310.932 5.828ZM312.612 10.336H321.488V13.08H315.72V26.492H312.612V10.336ZM319.892 10.336H323.224V23.104C323.224 23.832 323.14 24.4107 322.972 24.84C322.804 25.288 322.477 25.6333 321.992 25.876C321.525 26.1373 320.965 26.296 320.312 26.352C319.658 26.408 318.912 26.436 318.072 26.436C317.997 25.988 317.848 25.4747 317.624 24.896C317.418 24.336 317.204 23.86 316.98 23.468C317.484 23.4867 317.978 23.496 318.464 23.496C318.949 23.496 319.276 23.4867 319.444 23.468C319.63 23.468 319.752 23.44 319.808 23.384C319.864 23.328 319.892 23.216 319.892 23.048V10.336ZM314.012 14.564H321.796V17.056H314.012V14.564ZM314.012 18.68H321.796V21.172H314.012V18.68ZM325.436 0.312H328.768V8.74C328.768 9.22533 328.842 9.53333 328.992 9.664C329.141 9.79467 329.477 9.86 330 9.86C330.112 9.86 330.308 9.86 330.588 9.86C330.868 9.86 331.166 9.86 331.484 9.86C331.82 9.86 332.128 9.86 332.408 9.86C332.706 9.86 332.93 9.86 333.08 9.86C333.397 9.86 333.63 9.79467 333.78 9.664C333.929 9.51467 334.041 9.23467 334.116 8.824C334.19 8.39467 334.246 7.76933 334.284 6.948C334.508 7.13467 334.797 7.312 335.152 7.48C335.506 7.62933 335.87 7.76933 336.244 7.9C336.617 8.03067 336.953 8.13333 337.252 8.208C337.14 9.42133 336.944 10.364 336.664 11.036C336.402 11.708 336.01 12.184 335.488 12.464C334.965 12.7253 334.265 12.856 333.388 12.856C333.257 12.856 333.061 12.856 332.8 12.856C332.538 12.856 332.24 12.856 331.904 12.856C331.586 12.856 331.269 12.856 330.952 12.856C330.653 12.856 330.373 12.856 330.112 12.856C329.869 12.856 329.682 12.856 329.552 12.856C328.45 12.856 327.601 12.7347 327.004 12.492C326.406 12.2307 325.996 11.8107 325.772 11.232C325.548 10.6347 325.436 9.81333 325.436 8.768V0.312ZM333.836 1.964L335.964 4.428C335.124 4.82 334.218 5.20267 333.248 5.576C332.296 5.93067 331.325 6.26667 330.336 6.584C329.346 6.90133 328.385 7.18133 327.452 7.424C327.377 7.10667 327.237 6.724 327.032 6.276C326.845 5.828 326.668 5.44533 326.5 5.128C327.358 4.848 328.236 4.54 329.132 4.204C330.028 3.84933 330.877 3.476 331.68 3.084C332.501 2.692 333.22 2.31867 333.836 1.964ZM325.436 13.416H328.768V22.236C328.768 22.74 328.842 23.0573 328.992 23.188C329.16 23.3187 329.514 23.384 330.056 23.384C330.168 23.384 330.364 23.384 330.644 23.384C330.924 23.384 331.232 23.384 331.568 23.384C331.922 23.384 332.249 23.384 332.548 23.384C332.865 23.384 333.089 23.384 333.22 23.384C333.556 23.384 333.808 23.3 333.976 23.132C334.144 22.964 334.265 22.6373 334.34 22.152C334.433 21.6667 334.498 20.948 334.536 19.996C334.89 20.2573 335.357 20.5093 335.936 20.752C336.514 20.976 337.028 21.144 337.476 21.256C337.364 22.5627 337.168 23.58 336.888 24.308C336.626 25.0547 336.225 25.5773 335.684 25.876C335.161 26.1747 334.452 26.324 333.556 26.324C333.406 26.324 333.192 26.324 332.912 26.324C332.65 26.324 332.352 26.324 332.016 26.324C331.698 26.324 331.372 26.324 331.036 26.324C330.718 26.324 330.429 26.324 330.168 26.324C329.906 26.324 329.701 26.324 329.552 26.324C328.469 26.324 327.629 26.1933 327.032 25.932C326.434 25.6893 326.014 25.2693 325.772 24.672C325.548 24.0933 325.436 23.2907 325.436 22.264V13.416ZM334.032 14.564L336.244 17.028C335.404 17.4947 334.48 17.9333 333.472 18.344C332.464 18.736 331.446 19.1093 330.42 19.464C329.393 19.8187 328.385 20.136 327.396 20.416C327.321 20.0987 327.181 19.7067 326.976 19.24C326.789 18.7733 326.602 18.3813 326.416 18.064C327.33 17.7653 328.254 17.42 329.188 17.028C330.121 16.636 331.008 16.2347 331.848 15.824C332.688 15.3947 333.416 14.9747 334.032 14.564ZM318.996 3.14L321.824 2.076C322.29 2.748 322.738 3.476 323.168 4.26C323.616 5.044 324.017 5.81867 324.372 6.584C324.745 7.33067 325.025 8.012 325.212 8.628L322.132 9.832C321.982 9.23467 321.74 8.55333 321.404 7.788C321.086 7.02267 320.713 6.23867 320.284 5.436C319.873 4.61467 319.444 3.84933 318.996 3.14ZM354.5 15.992H357.944V22.18C357.944 22.628 358.009 22.9173 358.14 23.048C358.289 23.16 358.625 23.216 359.148 23.216C359.241 23.216 359.418 23.216 359.68 23.216C359.941 23.216 360.221 23.216 360.52 23.216C360.837 23.216 361.136 23.216 361.416 23.216C361.696 23.216 361.901 23.216 362.032 23.216C362.349 23.216 362.582 23.132 362.732 22.964C362.9 22.796 363.021 22.46 363.096 21.956C363.17 21.4333 363.226 20.6587 363.264 19.632C363.506 19.8 363.805 19.9773 364.16 20.164C364.533 20.332 364.916 20.4813 365.308 20.612C365.7 20.7427 366.045 20.8453 366.344 20.92C366.232 22.3387 366.036 23.44 365.756 24.224C365.476 25.008 365.065 25.5493 364.524 25.848C364.001 26.1467 363.282 26.296 362.368 26.296C362.218 26.296 362.013 26.296 361.752 26.296C361.509 26.296 361.238 26.296 360.94 26.296C360.641 26.296 360.333 26.296 360.016 26.296C359.717 26.296 359.446 26.296 359.204 26.296C358.961 26.296 358.774 26.296 358.644 26.296C357.542 26.296 356.684 26.1653 356.068 25.904C355.47 25.6613 355.06 25.2413 354.836 24.644C354.612 24.0467 354.5 23.2347 354.5 22.208V15.992ZM348.032 17.084H351.588C351.42 18.2413 351.158 19.3053 350.804 20.276C350.468 21.2467 349.945 22.1333 349.236 22.936C348.526 23.72 347.565 24.4107 346.352 25.008C345.138 25.6053 343.589 26.128 341.704 26.576C341.61 26.2773 341.461 25.9413 341.256 25.568C341.05 25.2133 340.826 24.8587 340.584 24.504C340.341 24.168 340.108 23.8787 339.884 23.636C341.526 23.356 342.852 23.0107 343.86 22.6C344.868 22.1707 345.652 21.6853 346.212 21.144C346.772 20.6027 347.182 19.996 347.444 19.324C347.705 18.6333 347.901 17.8867 348.032 17.084ZM347.584 10.728V14.48H358.868V10.728H347.584ZM344.308 7.704H362.312V17.476H344.308V7.704ZM350.524 0.871999H358.084V3.924H350.524V0.871999ZM346.632 2.02L349.992 3.112C349.432 4.176 348.75 5.212 347.948 6.22C347.145 7.20933 346.286 8.13333 345.372 8.992C344.457 9.832 343.533 10.56 342.6 11.176C342.432 10.952 342.189 10.672 341.872 10.336C341.554 10 341.228 9.67333 340.892 9.356C340.556 9.02 340.257 8.75867 339.996 8.572C341.34 7.844 342.6 6.90133 343.776 5.744C344.97 4.568 345.922 3.32667 346.632 2.02ZM355.452 0.871999H359.036C359.54 1.86133 360.184 2.832 360.968 3.784C361.752 4.71733 362.629 5.58533 363.6 6.388C364.57 7.19067 365.578 7.85333 366.624 8.376C366.362 8.58133 366.064 8.84267 365.728 9.16C365.392 9.47733 365.065 9.804 364.748 10.14C364.449 10.4573 364.197 10.756 363.992 11.036C362.928 10.3453 361.901 9.54267 360.912 8.628C359.941 7.71333 359.054 6.73333 358.252 5.688C357.449 4.64267 356.758 3.60667 356.18 2.58H355.452V0.871999ZM382.276 0.143998L385.384 0.647999C384.768 2.14133 383.984 3.588 383.032 4.988C382.098 6.388 380.866 7.66667 379.336 8.824C379.093 8.45067 378.748 8.068 378.3 7.676C377.87 7.26533 377.478 6.95733 377.124 6.752C378.038 6.136 378.822 5.464 379.476 4.736C380.148 4.008 380.717 3.252 381.184 2.468C381.65 1.66533 382.014 0.890665 382.276 0.143998ZM383.06 2.216H388.548V4.792H381.492L383.06 2.216ZM383.48 8.712H385.86C385.804 9.608 385.682 10.42 385.496 11.148C385.309 11.876 384.992 12.52 384.544 13.08C384.096 13.6213 383.452 14.088 382.612 14.48C382.481 14.2 382.276 13.8827 381.996 13.528C381.716 13.1733 381.454 12.8933 381.212 12.688C382.108 12.296 382.696 11.7733 382.976 11.12C383.274 10.4667 383.442 9.664 383.48 8.712ZM386.924 8.824H389.36V11.092C389.36 11.3533 389.378 11.512 389.416 11.568C389.472 11.624 389.602 11.652 389.808 11.652C389.882 11.652 389.985 11.652 390.116 11.652C390.265 11.652 390.414 11.652 390.564 11.652C390.732 11.652 390.844 11.652 390.9 11.652C391.068 11.652 391.18 11.6333 391.236 11.596C391.31 11.54 391.366 11.456 391.404 11.344C391.628 11.4933 391.945 11.6427 392.356 11.792C392.766 11.9413 393.14 12.0533 393.476 12.128C393.345 12.744 393.102 13.1733 392.748 13.416C392.393 13.64 391.898 13.752 391.264 13.752C391.17 13.752 391.04 13.752 390.872 13.752C390.704 13.752 390.526 13.752 390.34 13.752C390.153 13.752 389.976 13.752 389.808 13.752C389.658 13.752 389.537 13.752 389.444 13.752C388.753 13.752 388.221 13.6773 387.848 13.528C387.493 13.36 387.25 13.0893 387.12 12.716C386.989 12.324 386.924 11.7827 386.924 11.092V8.824ZM377.712 16.972H395.128V19.744H377.712V16.972ZM388.1 17.896C388.604 19.5013 389.444 20.7893 390.62 21.76C391.796 22.712 393.448 23.3373 395.576 23.636C395.24 23.9533 394.885 24.392 394.512 24.952C394.157 25.512 393.886 26.0067 393.7 26.436C392.038 26.0813 390.657 25.5493 389.556 24.84C388.454 24.1307 387.558 23.2347 386.868 22.152C386.177 21.0507 385.626 19.744 385.216 18.232L388.1 17.896ZM381.716 6.808H392.076V9.44H381.716V16.104H378.944V6.808H378.972H381.716ZM391.348 6.808H394.204V16.076H391.348V6.808ZM387.428 2.216H388.128L388.604 2.076L390.732 3.42C390.452 3.98 390.125 4.58667 389.752 5.24C389.397 5.87467 389.024 6.49067 388.632 7.088C388.24 7.66667 387.866 8.18933 387.512 8.656C387.232 8.45067 386.868 8.208 386.42 7.928C385.972 7.648 385.58 7.424 385.244 7.256C385.524 6.84533 385.804 6.36933 386.084 5.828C386.382 5.28667 386.644 4.74533 386.868 4.204C387.11 3.644 387.297 3.168 387.428 2.776V2.216ZM384.824 14.704H387.876C387.782 16.272 387.596 17.6907 387.316 18.96C387.036 20.2293 386.56 21.3493 385.888 22.32C385.216 23.2907 384.254 24.1213 383.004 24.812C381.753 25.5213 380.11 26.1093 378.076 26.576C377.945 26.184 377.712 25.7267 377.376 25.204C377.058 24.7 376.75 24.2893 376.452 23.972C378.262 23.636 379.709 23.2067 380.792 22.684C381.874 22.1427 382.686 21.4987 383.228 20.752C383.788 20.0053 384.17 19.1373 384.376 18.148C384.6 17.14 384.749 15.992 384.824 14.704ZM368.92 14.284C370.04 14.0413 371.374 13.7147 372.924 13.304C374.492 12.8933 376.069 12.464 377.656 12.016L378.076 15.04C376.638 15.4693 375.182 15.8987 373.708 16.328C372.252 16.7573 370.898 17.1493 369.648 17.504L368.92 14.284ZM369.368 5.52H377.936V8.6H369.368V5.52ZM372.308 0.227999H375.388V22.964C375.388 23.7293 375.304 24.336 375.136 24.784C374.986 25.2507 374.697 25.6147 374.268 25.876C373.857 26.1373 373.334 26.3147 372.7 26.408C372.084 26.5013 371.309 26.5387 370.376 26.52C370.338 26.1093 370.236 25.596 370.068 24.98C369.9 24.3827 369.713 23.86 369.508 23.412C370.03 23.4307 370.506 23.4493 370.936 23.468C371.384 23.468 371.692 23.4587 371.86 23.44C372.028 23.44 372.14 23.412 372.196 23.356C372.27 23.2813 372.308 23.1507 372.308 22.964V0.227999ZM398.012 14.536C399.262 14.2747 400.756 13.9387 402.492 13.528C404.228 13.0987 405.964 12.66 407.7 12.212L408.092 15.236C406.505 15.684 404.9 16.132 403.276 16.58C401.67 17.028 400.196 17.4293 398.852 17.784L398.012 14.536ZM398.46 5.492H407.756V8.6H398.46V5.492ZM401.848 0.199999H405.068V22.992C405.068 23.7947 404.984 24.42 404.816 24.868C404.648 25.316 404.33 25.6613 403.864 25.904C403.397 26.1467 402.818 26.3053 402.128 26.38C401.437 26.4733 400.606 26.52 399.636 26.52C399.58 26.0907 399.458 25.5867 399.272 25.008C399.104 24.4293 398.917 23.916 398.712 23.468C399.253 23.4867 399.776 23.5053 400.28 23.524C400.784 23.524 401.129 23.524 401.316 23.524C401.502 23.524 401.633 23.4867 401.708 23.412C401.801 23.3187 401.848 23.1787 401.848 22.992V0.199999ZM408.428 6.472H424.024V26.268H420.692V9.664H411.62V26.464H408.428V6.472ZM410.416 13.724H421.616V16.86H410.416V13.724ZM410.528 21.2H421.7V24.42H410.528V21.2ZM414.476 0.255999H417.668V23.16H414.476V0.255999ZM427.832 18.036H453.34V20.78H427.832V18.036ZM442.476 18.988C443.017 20.052 443.792 20.9013 444.8 21.536C445.808 22.152 447.077 22.6093 448.608 22.908C450.157 23.188 452.005 23.356 454.152 23.412C453.909 23.636 453.657 23.9253 453.396 24.28C453.153 24.6533 452.929 25.0267 452.724 25.4C452.518 25.792 452.35 26.1467 452.22 26.464C450.39 26.352 448.785 26.1373 447.404 25.82C446.022 25.5213 444.818 25.092 443.792 24.532C442.765 23.9907 441.878 23.3 441.132 22.46C440.404 21.62 439.76 20.6213 439.2 19.464L442.476 18.988ZM444.016 17.112L445.388 15.236C445.985 15.3667 446.638 15.5347 447.348 15.74C448.057 15.9453 448.748 16.16 449.42 16.384C450.092 16.608 450.652 16.8227 451.1 17.028L449.644 19.128C449.233 18.9227 448.701 18.6987 448.048 18.456C447.394 18.1947 446.713 17.952 446.004 17.728C445.294 17.4853 444.632 17.28 444.016 17.112ZM437.576 8.908H453.788V11.232H437.576V8.908ZM446.872 7.088H450.036V12.884C450.036 13.5747 449.952 14.0973 449.784 14.452C449.616 14.8067 449.28 15.068 448.776 15.236C448.29 15.4227 447.702 15.5347 447.012 15.572C446.34 15.5907 445.556 15.6 444.66 15.6C444.585 15.208 444.464 14.7973 444.296 14.368C444.128 13.92 443.95 13.5187 443.764 13.164C444.305 13.1827 444.837 13.192 445.36 13.192C445.901 13.192 446.246 13.192 446.396 13.192C446.582 13.192 446.704 13.164 446.76 13.108C446.834 13.052 446.872 12.9493 446.872 12.8V7.088ZM427.468 8.544H435.308V11.148H427.468V8.544ZM433.684 0.172H436.708V16.3H433.684V0.172ZM428.784 0.983999H431.584V4.512H435.42V7.06H428.784V0.983999ZM439.284 12.128L441.496 10.84C442 11.2507 442.504 11.7173 443.008 12.24C443.512 12.7627 443.894 13.248 444.156 13.696L441.776 15.096C441.552 14.6667 441.197 14.172 440.712 13.612C440.245 13.052 439.769 12.5573 439.284 12.128ZM438.612 4.316L440.432 3.644C441.01 3.98 441.608 4.4 442.224 4.904C442.84 5.408 443.316 5.86533 443.652 6.276L441.748 7.004C441.449 6.59333 440.992 6.136 440.376 5.632C439.778 5.128 439.19 4.68933 438.612 4.316ZM441.468 3.308L443.064 2.468C443.53 2.692 444.016 2.96267 444.52 3.28C445.024 3.57867 445.5 3.896 445.948 4.232C446.396 4.54933 446.76 4.85733 447.04 5.156L445.36 6.024C445.098 5.744 444.753 5.44533 444.324 5.128C443.894 4.792 443.428 4.46533 442.924 4.148C442.438 3.812 441.953 3.532 441.468 3.308ZM449.812 1.544H450.372L450.904 1.432L452.64 2.3C452.024 3.364 451.249 4.27867 450.316 5.044C449.382 5.80933 448.318 6.46267 447.124 7.004C445.929 7.52667 444.641 7.956 443.26 8.292C441.878 8.60933 440.45 8.86133 438.976 9.048C438.864 8.73067 438.677 8.36667 438.416 7.956C438.173 7.54533 437.94 7.20933 437.716 6.948C439.041 6.836 440.32 6.65867 441.552 6.416C442.802 6.15467 443.96 5.81867 445.024 5.408C446.106 4.99733 447.058 4.50267 447.88 3.924C448.701 3.34533 449.345 2.664 449.812 1.88V1.544ZM444.94 0.172L447.684 0.787998C446.564 1.83333 445.229 2.72933 443.68 3.476C442.149 4.22267 440.348 4.876 438.276 5.436C438.108 5.13733 437.856 4.792 437.52 4.4C437.202 4.008 436.913 3.70933 436.652 3.504C438.593 3.112 440.254 2.636 441.636 2.076C443.036 1.49733 444.137 0.862666 444.94 0.172ZM444.296 1.544H450.68V3.364H441.804L444.296 1.544ZM429.148 9.888H432.116V11.316C432.116 11.7453 432.05 12.3053 431.92 12.996C431.808 13.6867 431.593 14.396 431.276 15.124C430.958 15.852 430.482 16.4773 429.848 17C429.661 16.8507 429.409 16.6827 429.092 16.496C428.793 16.3093 428.485 16.132 428.168 15.964C427.85 15.796 427.561 15.6653 427.3 15.572C427.841 15.1427 428.242 14.6573 428.504 14.116C428.765 13.556 428.933 13.0147 429.008 12.492C429.101 11.9507 429.148 11.5213 429.148 11.204V9.888ZM438.668 15.432H442V17.98C442 18.652 441.897 19.3333 441.692 20.024C441.505 20.7147 441.15 21.396 440.628 22.068C440.105 22.7213 439.358 23.3373 438.388 23.916C437.417 24.4947 436.166 25.008 434.636 25.456C433.105 25.9227 431.22 26.296 428.98 26.576C428.793 26.1653 428.522 25.6893 428.168 25.148C427.813 24.6253 427.477 24.1773 427.16 23.804C429.157 23.58 430.837 23.3 432.2 22.964C433.562 22.628 434.664 22.2547 435.504 21.844C436.362 21.4333 437.016 21.0133 437.464 20.584C437.93 20.136 438.248 19.688 438.416 19.24C438.584 18.7733 438.668 18.3253 438.668 17.896V15.432ZM457.064 10.028H482.264V13.052H457.064V10.028ZM458.912 4.82H480.696V7.788H458.912V4.82ZM461.908 15.404H475.068V18.428H461.908V15.404ZM473.556 6.136C474.097 7.72267 474.806 9.20667 475.684 10.588C476.58 11.9693 477.634 13.2013 478.848 14.284C480.08 15.348 481.452 16.1973 482.964 16.832C482.721 17.0373 482.46 17.308 482.18 17.644C481.9 17.9613 481.629 18.2973 481.368 18.652C481.125 18.988 480.92 19.3053 480.752 19.604C479.109 18.8013 477.644 17.7747 476.356 16.524C475.068 15.2733 473.948 13.836 472.996 12.212C472.044 10.588 471.241 8.824 470.588 6.92L473.556 6.136ZM460.228 1.544L463.028 0.535998C463.308 0.927999 463.588 1.36667 463.868 1.852C464.148 2.31867 464.4 2.78533 464.624 3.252C464.866 3.71867 465.053 4.12933 465.184 4.484L462.188 5.604C462.038 5.06267 461.777 4.40933 461.404 3.644C461.03 2.87867 460.638 2.17867 460.228 1.544ZM475.544 0.395998L478.848 1.376C478.437 2.17867 477.998 2.95333 477.532 3.7C477.084 4.428 476.664 5.06267 476.272 5.604L473.416 4.68C473.658 4.288 473.91 3.84 474.172 3.336C474.433 2.832 474.685 2.328 474.928 1.824C475.17 1.30133 475.376 0.825332 475.544 0.395998ZM474.2 15.404H477.616C477.616 15.404 477.606 15.572 477.588 15.908C477.588 16.2253 477.569 16.496 477.532 16.72C477.438 18.4933 477.317 19.9587 477.168 21.116C477.037 22.2733 476.878 23.188 476.692 23.86C476.505 24.5133 476.272 24.9893 475.992 25.288C475.674 25.6427 475.338 25.8947 474.984 26.044C474.648 26.212 474.246 26.324 473.78 26.38C473.369 26.436 472.837 26.464 472.184 26.464C471.549 26.4827 470.858 26.4733 470.112 26.436C470.093 25.9507 469.99 25.4093 469.804 24.812C469.636 24.2333 469.412 23.7293 469.132 23.3C469.748 23.3373 470.326 23.3653 470.868 23.384C471.428 23.4027 471.848 23.412 472.128 23.412C472.352 23.412 472.538 23.3933 472.688 23.356C472.837 23.3187 472.977 23.2347 473.108 23.104C473.276 22.9173 473.425 22.572 473.556 22.068C473.686 21.5453 473.798 20.7893 473.892 19.8C474.004 18.792 474.106 17.4853 474.2 15.88V15.404ZM466.416 16.412H469.916C469.785 17.644 469.57 18.7827 469.272 19.828C468.973 20.8547 468.506 21.7973 467.872 22.656C467.237 23.496 466.35 24.2427 465.212 24.896C464.092 25.5493 462.645 26.1093 460.872 26.576C460.76 26.2773 460.601 25.9507 460.396 25.596C460.19 25.2413 459.957 24.8867 459.696 24.532C459.453 24.196 459.22 23.916 458.996 23.692C460.545 23.356 461.777 22.964 462.692 22.516C463.625 22.0493 464.344 21.5173 464.848 20.92C465.352 20.304 465.716 19.6227 465.94 18.876C466.164 18.1293 466.322 17.308 466.416 16.412ZM467.508 0.143998L471.036 0.759999C470.588 2.72 470.028 4.624 469.356 6.472C468.702 8.32 467.881 10.0653 466.892 11.708C465.921 13.3507 464.745 14.8347 463.364 16.16C461.982 17.4853 460.34 18.624 458.436 19.576C458.286 19.3147 458.09 19.016 457.848 18.68C457.605 18.344 457.353 18.0173 457.092 17.7C456.83 17.364 456.588 17.084 456.364 16.86C458.1 16.0387 459.602 15.04 460.872 13.864C462.141 12.6693 463.205 11.344 464.064 9.888C464.941 8.432 465.66 6.88267 466.22 5.24C466.78 3.57867 467.209 1.88 467.508 0.143998ZM497.384 16.804L496.628 7.228L496.488 3.056H501.136L500.996 7.228L500.24 16.804H497.384ZM498.812 24.252C498.102 24.252 497.514 24.0187 497.048 23.552C496.581 23.0853 496.348 22.4973 496.348 21.788C496.348 21.06 496.581 20.4627 497.048 19.996C497.514 19.5293 498.102 19.296 498.812 19.296C499.521 19.296 500.109 19.5293 500.576 19.996C501.042 20.4627 501.276 21.06 501.276 21.788C501.276 22.4973 501.042 23.0853 500.576 23.552C500.109 24.0187 499.521 24.252 498.812 24.252ZM13.9272 43.236H24.8752V46.036H13.9272V43.236ZM17.1472 44.356L20.2832 44.552C20.0592 46.736 19.5365 48.5653 18.7152 50.04C17.8938 51.5147 16.7645 52.7187 15.3272 53.652C15.1592 53.4653 14.9165 53.2507 14.5992 53.008C14.2818 52.7467 13.9552 52.4947 13.6192 52.252C13.2832 52.0093 13.0032 51.8227 12.7792 51.692C14.1978 51.0013 15.2432 50.0493 15.9152 48.836C16.6058 47.604 17.0165 46.1107 17.1472 44.356ZM23.1392 43.236H26.3312C26.3312 43.236 26.3312 43.3853 26.3312 43.684C26.3312 43.9827 26.3218 44.216 26.3032 44.384C26.2472 45.952 26.1725 47.2493 26.0792 48.276C25.9858 49.284 25.8645 50.0773 25.7152 50.656C25.5845 51.2347 25.4072 51.6547 25.1832 51.916C24.9218 52.2333 24.6325 52.4573 24.3152 52.588C24.0165 52.7187 23.6805 52.812 23.3072 52.868C22.9525 52.924 22.4952 52.9613 21.9352 52.98C21.3938 52.98 20.8058 52.9707 20.1712 52.952C20.1525 52.504 20.0685 52.0187 19.9192 51.496C19.7698 50.9547 19.5832 50.4973 19.3592 50.124C19.8445 50.1613 20.2925 50.1893 20.7032 50.208C21.1138 50.208 21.4218 50.208 21.6272 50.208C22.0005 50.2267 22.2712 50.1427 22.4392 49.956C22.5698 49.788 22.6725 49.4893 22.7472 49.06C22.8218 48.612 22.8872 47.9587 22.9432 47.1C23.0178 46.2227 23.0832 45.084 23.1392 43.684V43.236ZM1.91515 45.084H13.0872V47.996H1.91515V45.084ZM1.27115 50.572H13.5912V53.512H1.27115V50.572ZM7.82315 56.564H13.2272V59.476H7.82315V56.564ZM6.03115 42.228H9.11115V52.112H6.03115V42.228ZM6.53515 52.308H9.53115V64.74H6.53515V52.308ZM4.65915 57.824C5.03249 59.2987 5.50849 60.484 6.08715 61.38C6.68449 62.276 7.41249 62.9573 8.27115 63.424C9.14849 63.872 10.1658 64.18 11.3232 64.348C12.4805 64.4973 13.7965 64.572 15.2712 64.572C15.6258 64.572 16.1112 64.5813 16.7272 64.6C17.3618 64.6 18.0618 64.6 18.8272 64.6C19.5925 64.5813 20.3858 64.572 21.2072 64.572C22.0472 64.572 22.8685 64.572 23.6712 64.572C24.4738 64.572 25.2018 64.5627 25.8552 64.544C26.5085 64.5067 27.0498 64.488 27.4792 64.488C27.3112 64.7307 27.1432 65.048 26.9752 65.44C26.8072 65.832 26.6485 66.2333 26.4992 66.644C26.3685 67.0733 26.2658 67.456 26.1912 67.792H24.1752H15.2712C13.4045 67.792 11.7618 67.6707 10.3432 67.428C8.92449 67.204 7.70182 66.7653 6.67515 66.112C5.64849 65.4587 4.77115 64.5253 4.04315 63.312C3.33382 62.0987 2.73649 60.512 2.25115 58.552L4.65915 57.824ZM2.16715 54.94L5.10715 55.136C5.08849 56.9093 5.02315 58.6173 4.91115 60.26C4.79915 61.9027 4.60315 63.424 4.32315 64.824C4.04315 66.2053 3.66049 67.428 3.17515 68.492C2.98849 68.3427 2.72715 68.1747 2.39115 67.988C2.05515 67.8013 1.70982 67.6147 1.35515 67.428C1.01915 67.26 0.729821 67.1293 0.487154 67.036C0.953821 66.1027 1.30849 65.0013 1.55115 63.732C1.79382 62.4627 1.95249 61.0813 2.02715 59.588C2.10182 58.0947 2.14849 56.5453 2.16715 54.94ZM17.7632 56.732V60.204H22.3272V56.732H17.7632ZM14.6272 54.016H25.6872V62.864H14.6272V54.016ZM36.6072 53.12V63.452H33.3872V56.228H30.2232V53.12H36.6072ZM36.6072 62.108C37.1485 63.0413 37.9138 63.732 38.9032 64.18C39.8925 64.6093 41.0965 64.852 42.5152 64.908C43.3552 64.9453 44.3632 64.9733 45.5392 64.992C46.7338 64.992 47.9752 64.9827 49.2632 64.964C50.5698 64.9453 51.8392 64.9173 53.0712 64.88C54.3218 64.824 55.4418 64.7493 56.4312 64.656C56.3005 64.8987 56.1605 65.2253 56.0112 65.636C55.8805 66.028 55.7498 66.4293 55.6192 66.84C55.5072 67.2507 55.4232 67.6147 55.3672 67.932C54.5085 67.988 53.5192 68.0253 52.3992 68.044C51.2792 68.0627 50.1218 68.072 48.9272 68.072C47.7325 68.0907 46.5752 68.0907 45.4552 68.072C44.3352 68.072 43.3458 68.0533 42.4872 68.016C40.8072 67.9413 39.3792 67.6707 38.2032 67.204C37.0272 66.7373 36.0192 65.9627 35.1792 64.88C34.6378 65.44 34.0592 65.9907 33.4432 66.532C32.8458 67.092 32.1925 67.6707 31.4832 68.268L29.8872 64.936C30.4845 64.544 31.1098 64.1053 31.7632 63.62C32.4352 63.1347 33.0792 62.6307 33.6952 62.108H36.6072ZM30.3352 44.832L32.8832 42.928C33.4245 43.3387 33.9845 43.8053 34.5632 44.328C35.1418 44.8507 35.6738 45.3733 36.1592 45.896C36.6445 46.4187 37.0365 46.9133 37.3352 47.38L34.5632 49.508C34.3018 49.0413 33.9378 48.5373 33.4712 47.996C33.0232 47.436 32.5192 46.8853 31.9592 46.344C31.3992 45.784 30.8578 45.28 30.3352 44.832ZM38.5672 51.636H53.7152V54.184H41.4792V63.9H38.5672V51.636ZM45.2592 47.24H51.0272V49.34H47.6392V52.644H45.2592V47.24ZM40.6672 43.04H52.7912V52.364H49.7952V45.504H43.5792V52.364H40.6672V43.04ZM44.4472 55.332H50.2992V61.548H44.4472V59.42H47.8632V57.488H44.4472V55.332ZM51.8112 51.636H54.8632V61.044C54.8632 61.6787 54.7885 62.192 54.6392 62.584C54.5085 62.976 54.2285 63.284 53.7992 63.508C53.3698 63.7133 52.8658 63.844 52.2872 63.9C51.7085 63.9373 51.0365 63.956 50.2712 63.956C50.2338 63.564 50.1312 63.1253 49.9632 62.64C49.8138 62.136 49.6552 61.7067 49.4872 61.352C49.8978 61.3707 50.2898 61.38 50.6632 61.38C51.0365 61.38 51.2885 61.38 51.4192 61.38C51.6805 61.3613 51.8112 61.24 51.8112 61.016V51.636ZM42.9352 55.332H45.3432V62.388H42.9352V55.332ZM67.7451 66.2784C66.6977 66.2718 65.6868 66.0961 64.7124 65.7514C63.7446 65.4067 62.8762 64.8466 62.1073 64.071C61.3383 63.2955 60.7285 62.268 60.2777 60.9886C59.8336 59.7093 59.6115 58.1383 59.6115 56.2756C59.6182 54.5653 59.8137 53.0374 60.1982 51.6918C60.5893 50.3395 61.1461 49.1927 61.8686 48.2514C62.5978 47.3101 63.4695 46.5942 64.4837 46.1037C65.4979 45.6065 66.6347 45.358 67.8942 45.358C69.2531 45.358 70.4529 45.6231 71.4936 46.1534C72.5344 46.6771 73.3696 47.3897 73.9993 48.2912C74.6357 49.1927 75.0202 50.2036 75.1527 51.3239H70.907C70.7413 50.6146 70.3933 50.0578 69.863 49.6534C69.3327 49.2491 68.6764 49.0469 67.8942 49.0469C66.5685 49.0469 65.5609 49.6236 64.8715 50.777C64.1887 51.9304 63.8407 53.4981 63.8275 55.4801H63.9667C64.2716 54.8769 64.6826 54.3632 65.1996 53.9389C65.7233 53.508 66.3166 53.1799 66.9794 52.9545C67.6489 52.7225 68.3549 52.6065 69.0973 52.6065C70.3038 52.6065 71.3776 52.8916 72.3189 53.4616C73.2602 54.0251 74.0026 54.8007 74.5462 55.7884C75.0898 56.776 75.3615 57.9062 75.3615 59.179C75.3615 60.5578 75.04 61.7841 74.3971 62.858C73.7607 63.9318 72.8691 64.7737 71.7223 65.3835C70.5822 65.9867 69.2564 66.285 67.7451 66.2784ZM67.7252 62.8977C68.3881 62.8977 68.9813 62.7386 69.505 62.4205C70.0287 62.1023 70.4397 61.6714 70.738 61.1278C71.0363 60.5843 71.1854 59.9744 71.1854 59.2983C71.1854 58.6222 71.0363 58.0156 70.738 57.4787C70.4463 56.9418 70.0419 56.5142 69.5249 56.196C69.0078 55.8778 68.4179 55.7188 67.755 55.7188C67.2578 55.7188 66.7971 55.8116 66.3729 55.9972C65.9553 56.1828 65.5874 56.4413 65.2692 56.7727C64.9577 57.1042 64.7124 57.4886 64.5334 57.9261C64.3544 58.357 64.265 58.8177 64.265 59.3082C64.265 59.9645 64.4141 60.5644 64.7124 61.108C65.0173 61.6515 65.4283 62.0857 65.9453 62.4105C66.469 62.7353 67.0623 62.8977 67.7252 62.8977ZM87.5185 66.4474C85.8082 66.4408 84.3367 66.0199 83.1037 65.1847C81.8774 64.3494 80.9328 63.1397 80.2699 61.5554C79.6136 59.9711 79.2888 58.0653 79.2955 55.8381C79.2955 53.6174 79.6236 51.7249 80.2798 50.1605C80.9427 48.5961 81.8873 47.4062 83.1136 46.5909C84.3466 45.7689 85.8149 45.358 87.5185 45.358C89.2221 45.358 90.687 45.7689 91.9134 46.5909C93.1463 47.4129 94.0942 48.6061 94.7571 50.1705C95.42 51.7282 95.7481 53.6174 95.7415 55.8381C95.7415 58.072 95.41 59.9811 94.7472 61.5653C94.0909 63.1496 93.1496 64.3594 91.9233 65.1946C90.697 66.0298 89.2287 66.4474 87.5185 66.4474ZM87.5185 62.8778C88.6851 62.8778 89.6165 62.2912 90.3125 61.1179C91.0085 59.9446 91.3532 58.1847 91.3466 55.8381C91.3466 54.2936 91.1875 53.0076 90.8693 51.9801C90.5578 50.9527 90.1136 50.1804 89.5369 49.6634C88.9669 49.1463 88.294 48.8878 87.5185 48.8878C86.3584 48.8878 85.4304 49.4678 84.7344 50.6278C84.0384 51.7879 83.687 53.5246 83.6804 55.8381C83.6804 57.4025 83.8362 58.7083 84.1477 59.7557C84.4659 60.7964 84.9134 61.5786 85.4901 62.1023C86.0668 62.6193 86.7429 62.8778 87.5185 62.8778ZM107.773 43.656H124.601V68.24H121.409V46.568H110.853V68.492H107.773V43.656ZM111.581 49.984H120.793V52.42H111.581V49.984ZM109.369 63.928H122.949V66.84H109.369V63.928ZM114.773 47.128H117.377V56.144H114.773V47.128ZM114.717 57.18V60.12H117.545V57.18H114.717ZM112.281 54.856H120.093V62.416H112.281V54.856ZM104.329 42.284L107.381 43.236C106.858 44.8413 106.214 46.4653 105.449 48.108C104.702 49.732 103.881 51.272 102.985 52.728C102.089 54.1653 101.146 55.444 100.157 56.564C100.082 56.284 99.9515 55.9107 99.7649 55.444C99.5782 54.9773 99.3729 54.5107 99.1489 54.044C98.9249 53.5773 98.7289 53.1947 98.5609 52.896C99.3449 52.0373 100.092 51.0387 100.801 49.9C101.529 48.7613 102.192 47.548 102.789 46.26C103.386 44.9533 103.9 43.628 104.329 42.284ZM102.033 49.984L105.197 46.82L105.225 46.848V68.548H102.033V49.984ZM131.573 44.888H151.341V47.8H131.573V44.888ZM128.717 50.012H154.141V52.952H128.717V50.012ZM129.389 56.06H153.441V59H129.389V56.06ZM131.013 61.352H152.097V64.264H131.013V61.352ZM139.553 42.368H143.081V51.3H139.553V42.368ZM139.553 58.636H143.081V68.52H139.553V58.636ZM133.729 53.12L136.753 52.252C137.126 52.8493 137.5 53.5027 137.873 54.212C138.246 54.9213 138.508 55.5467 138.657 56.088L135.465 57.04C135.334 56.5173 135.101 55.892 134.765 55.164C134.448 54.4173 134.102 53.736 133.729 53.12ZM145.993 51.888L149.745 52.756C149.26 53.54 148.765 54.3147 148.261 55.08C147.757 55.8267 147.309 56.4707 146.917 57.012L144.089 56.144C144.332 55.7333 144.574 55.2853 144.817 54.8C145.06 54.296 145.284 53.792 145.489 53.288C145.694 52.784 145.862 52.3173 145.993 51.888ZM163.969 53.12V63.452H160.749V56.228H157.585V53.12H163.969ZM163.969 62.108C164.51 63.0413 165.276 63.732 166.265 64.18C167.254 64.6093 168.458 64.852 169.877 64.908C170.717 64.9453 171.725 64.9733 172.901 64.992C174.096 64.992 175.337 64.9827 176.625 64.964C177.932 64.9453 179.201 64.9173 180.433 64.88C181.684 64.824 182.804 64.7493 183.793 64.656C183.662 64.8987 183.522 65.2253 183.373 65.636C183.242 66.028 183.112 66.4293 182.981 66.84C182.869 67.2507 182.785 67.6147 182.729 67.932C181.87 67.988 180.881 68.0253 179.761 68.044C178.641 68.0627 177.484 68.072 176.289 68.072C175.094 68.0907 173.937 68.0907 172.817 68.072C171.697 68.072 170.708 68.0533 169.849 68.016C168.169 67.9413 166.741 67.6707 165.565 67.204C164.389 66.7373 163.381 65.9627 162.541 64.88C162 65.44 161.421 65.9907 160.805 66.532C160.208 67.092 159.554 67.6707 158.845 68.268L157.249 64.936C157.846 64.544 158.472 64.1053 159.125 63.62C159.797 63.1347 160.441 62.6307 161.057 62.108H163.969ZM157.697 44.832L160.245 42.928C160.786 43.3387 161.346 43.8053 161.925 44.328C162.504 44.8507 163.036 45.3733 163.521 45.896C164.006 46.4187 164.398 46.9133 164.697 47.38L161.925 49.508C161.664 49.0413 161.3 48.5373 160.833 47.996C160.385 47.436 159.881 46.8853 159.321 46.344C158.761 45.784 158.22 45.28 157.697 44.832ZM172.341 45.98H175.589V64.264H172.341V45.98ZM169.485 55.808V56.928H178.557V55.808H169.485ZM169.485 52.812V53.904H178.557V52.812H169.485ZM166.629 50.74H181.581V59H166.629V50.74ZM165.285 43.096H182.953V46.932H179.845V45.476H168.225V46.932H165.285V43.096ZM166.069 47.408H182.029V49.704H166.069V47.408ZM165.033 60.008H183.261V62.444H165.033V60.008ZM186.901 60.036H212.409V62.78H186.901V60.036ZM201.545 60.988C202.086 62.052 202.861 62.9013 203.869 63.536C204.877 64.152 206.146 64.6093 207.677 64.908C209.226 65.188 211.074 65.356 213.221 65.412C212.978 65.636 212.726 65.9253 212.465 66.28C212.222 66.6533 211.998 67.0267 211.793 67.4C211.588 67.792 211.42 68.1467 211.289 68.464C209.46 68.352 207.854 68.1373 206.473 67.82C205.092 67.5213 203.888 67.092 202.861 66.532C201.834 65.9907 200.948 65.3 200.201 64.46C199.473 63.62 198.829 62.6213 198.269 61.464L201.545 60.988ZM203.085 59.112L204.457 57.236C205.054 57.3667 205.708 57.5347 206.417 57.74C207.126 57.9453 207.817 58.16 208.489 58.384C209.161 58.608 209.721 58.8227 210.169 59.028L208.713 61.128C208.302 60.9227 207.77 60.6987 207.117 60.456C206.464 60.1947 205.782 59.952 205.073 59.728C204.364 59.4853 203.701 59.28 203.085 59.112ZM196.645 50.908H212.857V53.232H196.645V50.908ZM205.941 49.088H209.105V54.884C209.105 55.5747 209.021 56.0973 208.853 56.452C208.685 56.8067 208.349 57.068 207.845 57.236C207.36 57.4227 206.772 57.5347 206.081 57.572C205.409 57.5907 204.625 57.6 203.729 57.6C203.654 57.208 203.533 56.7973 203.365 56.368C203.197 55.92 203.02 55.5187 202.833 55.164C203.374 55.1827 203.906 55.192 204.429 55.192C204.97 55.192 205.316 55.192 205.465 55.192C205.652 55.192 205.773 55.164 205.829 55.108C205.904 55.052 205.941 54.9493 205.941 54.8V49.088ZM186.537 50.544H194.377V53.148H186.537V50.544ZM192.753 42.172H195.777V58.3H192.753V42.172ZM187.853 42.984H190.653V46.512H194.489V49.06H187.853V42.984ZM198.353 54.128L200.565 52.84C201.069 53.2507 201.573 53.7173 202.077 54.24C202.581 54.7627 202.964 55.248 203.225 55.696L200.845 57.096C200.621 56.6667 200.266 56.172 199.781 55.612C199.314 55.052 198.838 54.5573 198.353 54.128ZM197.681 46.316L199.501 45.644C200.08 45.98 200.677 46.4 201.293 46.904C201.909 47.408 202.385 47.8653 202.721 48.276L200.817 49.004C200.518 48.5933 200.061 48.136 199.445 47.632C198.848 47.128 198.26 46.6893 197.681 46.316ZM200.537 45.308L202.133 44.468C202.6 44.692 203.085 44.9627 203.589 45.28C204.093 45.5787 204.569 45.896 205.017 46.232C205.465 46.5493 205.829 46.8573 206.109 47.156L204.429 48.024C204.168 47.744 203.822 47.4453 203.393 47.128C202.964 46.792 202.497 46.4653 201.993 46.148C201.508 45.812 201.022 45.532 200.537 45.308ZM208.881 43.544H209.441L209.973 43.432L211.709 44.3C211.093 45.364 210.318 46.2787 209.385 47.044C208.452 47.8093 207.388 48.4627 206.193 49.004C204.998 49.5267 203.71 49.956 202.329 50.292C200.948 50.6093 199.52 50.8613 198.045 51.048C197.933 50.7307 197.746 50.3667 197.485 49.956C197.242 49.5453 197.009 49.2093 196.785 48.948C198.11 48.836 199.389 48.6587 200.621 48.416C201.872 48.1547 203.029 47.8187 204.093 47.408C205.176 46.9973 206.128 46.5027 206.949 45.924C207.77 45.3453 208.414 44.664 208.881 43.88V43.544ZM204.009 42.172L206.753 42.788C205.633 43.8333 204.298 44.7293 202.749 45.476C201.218 46.2227 199.417 46.876 197.345 47.436C197.177 47.1373 196.925 46.792 196.589 46.4C196.272 46.008 195.982 45.7093 195.721 45.504C197.662 45.112 199.324 44.636 200.705 44.076C202.105 43.4973 203.206 42.8627 204.009 42.172ZM203.365 43.544H209.749V45.364H200.873L203.365 43.544ZM188.217 51.888H191.185V53.316C191.185 53.7453 191.12 54.3053 190.989 54.996C190.877 55.6867 190.662 56.396 190.345 57.124C190.028 57.852 189.552 58.4773 188.917 59C188.73 58.8507 188.478 58.6827 188.161 58.496C187.862 58.3093 187.554 58.132 187.237 57.964C186.92 57.796 186.63 57.6653 186.369 57.572C186.91 57.1427 187.312 56.6573 187.573 56.116C187.834 55.556 188.002 55.0147 188.077 54.492C188.17 53.9507 188.217 53.5213 188.217 53.204V51.888ZM197.737 57.432H201.069V59.98C201.069 60.652 200.966 61.3333 200.761 62.024C200.574 62.7147 200.22 63.396 199.697 64.068C199.174 64.7213 198.428 65.3373 197.457 65.916C196.486 66.4947 195.236 67.008 193.705 67.456C192.174 67.9227 190.289 68.296 188.049 68.576C187.862 68.1653 187.592 67.6893 187.237 67.148C186.882 66.6253 186.546 66.1773 186.229 65.804C188.226 65.58 189.906 65.3 191.269 64.964C192.632 64.628 193.733 64.2547 194.573 63.844C195.432 63.4333 196.085 63.0133 196.533 62.584C197 62.136 197.317 61.688 197.485 61.24C197.653 60.7733 197.737 60.3253 197.737 59.896V57.432ZM216.021 45.224H225.681V48.332H216.021V45.224ZM219.157 47.044H222.545V60.288H219.157V47.044ZM215.265 60.288C216.161 60.0267 217.188 59.7187 218.345 59.364C219.521 59.0093 220.762 58.6267 222.069 58.216C223.394 57.8053 224.701 57.3853 225.989 56.956L226.549 59.896C224.832 60.5307 223.105 61.1653 221.369 61.8C219.633 62.4347 218.065 62.9947 216.665 63.48L215.265 60.288ZM226.017 43.348H241.977V46.148H226.017V43.348ZM230.301 54.632V56.424H237.637V54.632H230.301ZM230.301 58.72V60.512H237.637V58.72H230.301ZM230.301 50.572V52.336H237.637V50.572H230.301ZM227.165 48.108H240.913V62.948H227.165V48.108ZM232.093 44.888L236.013 45.364C235.733 46.2413 235.434 47.1 235.117 47.94C234.818 48.78 234.538 49.4987 234.277 50.096L231.281 49.564C231.449 48.8733 231.608 48.0987 231.757 47.24C231.925 46.3813 232.037 45.5973 232.093 44.888ZM230.133 62.892L232.849 64.824C232.233 65.2907 231.514 65.748 230.693 66.196C229.872 66.6627 229.013 67.092 228.117 67.484C227.24 67.8947 226.39 68.2307 225.569 68.492C225.345 68.1747 225.028 67.7827 224.617 67.316C224.225 66.868 223.861 66.4947 223.525 66.196C224.309 65.9347 225.121 65.6267 225.961 65.272C226.801 64.8987 227.585 64.5067 228.313 64.096C229.06 63.6667 229.666 63.2653 230.133 62.892ZM234.361 64.824L236.853 63.032C237.45 63.3493 238.094 63.7133 238.785 64.124C239.494 64.5347 240.176 64.9547 240.829 65.384C241.482 65.8133 242.024 66.2053 242.453 66.56L239.793 68.548C239.401 68.1933 238.897 67.792 238.281 67.344C237.665 66.9147 237.012 66.476 236.321 66.028C235.63 65.58 234.977 65.1787 234.361 64.824ZM249.313 69.864L248.417 67.596C249.593 67.2227 250.489 66.7093 251.105 66.056C251.74 65.4213 252.057 64.6933 252.057 63.872L251.833 61.128L253.401 63.62C253.158 63.8253 252.897 63.984 252.617 64.096C252.337 64.208 252.038 64.264 251.721 64.264C251.03 64.264 250.414 64.0493 249.873 63.62C249.332 63.172 249.061 62.5467 249.061 61.744C249.061 60.96 249.332 60.344 249.873 59.896C250.414 59.448 251.058 59.224 251.805 59.224C252.794 59.224 253.541 59.5693 254.045 60.26C254.568 60.9507 254.829 61.884 254.829 63.06C254.829 64.6467 254.344 66.0467 253.373 67.26C252.402 68.4733 251.049 69.3413 249.313 69.864ZM286.889 43.236H297.837V46.036H286.889V43.236ZM290.109 44.356L293.245 44.552C293.021 46.736 292.498 48.5653 291.677 50.04C290.856 51.5147 289.726 52.7187 288.289 53.652C288.121 53.4653 287.878 53.2507 287.561 53.008C287.244 52.7467 286.917 52.4947 286.581 52.252C286.245 52.0093 285.965 51.8227 285.741 51.692C287.16 51.0013 288.205 50.0493 288.877 48.836C289.568 47.604 289.978 46.1107 290.109 44.356ZM296.101 43.236H299.293C299.293 43.236 299.293 43.3853 299.293 43.684C299.293 43.9827 299.284 44.216 299.265 44.384C299.209 45.952 299.134 47.2493 299.041 48.276C298.948 49.284 298.826 50.0773 298.677 50.656C298.546 51.2347 298.369 51.6547 298.145 51.916C297.884 52.2333 297.594 52.4573 297.277 52.588C296.978 52.7187 296.642 52.812 296.269 52.868C295.914 52.924 295.457 52.9613 294.897 52.98C294.356 52.98 293.768 52.9707 293.133 52.952C293.114 52.504 293.03 52.0187 292.881 51.496C292.732 50.9547 292.545 50.4973 292.321 50.124C292.806 50.1613 293.254 50.1893 293.665 50.208C294.076 50.208 294.384 50.208 294.589 50.208C294.962 50.2267 295.233 50.1427 295.401 49.956C295.532 49.788 295.634 49.4893 295.709 49.06C295.784 48.612 295.849 47.9587 295.905 47.1C295.98 46.2227 296.045 45.084 296.101 43.684V43.236ZM274.877 45.084H286.049V47.996H274.877V45.084ZM274.233 50.572H286.553V53.512H274.233V50.572ZM280.785 56.564H286.189V59.476H280.785V56.564ZM278.993 42.228H282.073V52.112H278.993V42.228ZM279.497 52.308H282.493V64.74H279.497V52.308ZM277.621 57.824C277.994 59.2987 278.47 60.484 279.049 61.38C279.646 62.276 280.374 62.9573 281.233 63.424C282.11 63.872 283.128 64.18 284.285 64.348C285.442 64.4973 286.758 64.572 288.233 64.572C288.588 64.572 289.073 64.5813 289.689 64.6C290.324 64.6 291.024 64.6 291.789 64.6C292.554 64.5813 293.348 64.572 294.169 64.572C295.009 64.572 295.83 64.572 296.633 64.572C297.436 64.572 298.164 64.5627 298.817 64.544C299.47 64.5067 300.012 64.488 300.441 64.488C300.273 64.7307 300.105 65.048 299.937 65.44C299.769 65.832 299.61 66.2333 299.461 66.644C299.33 67.0733 299.228 67.456 299.153 67.792H297.137H288.233C286.366 67.792 284.724 67.6707 283.305 67.428C281.886 67.204 280.664 66.7653 279.637 66.112C278.61 65.4587 277.733 64.5253 277.005 63.312C276.296 62.0987 275.698 60.512 275.213 58.552L277.621 57.824ZM275.129 54.94L278.069 55.136C278.05 56.9093 277.985 58.6173 277.873 60.26C277.761 61.9027 277.565 63.424 277.285 64.824C277.005 66.2053 276.622 67.428 276.137 68.492C275.95 68.3427 275.689 68.1747 275.353 67.988C275.017 67.8013 274.672 67.6147 274.317 67.428C273.981 67.26 273.692 67.1293 273.449 67.036C273.916 66.1027 274.27 65.0013 274.513 63.732C274.756 62.4627 274.914 61.0813 274.989 59.588C275.064 58.0947 275.11 56.5453 275.129 54.94ZM290.725 56.732V60.204H295.289V56.732H290.725ZM287.589 54.016H298.649V62.864H287.589V54.016ZM313.265 43.824H323.625V46.904H313.265V43.824ZM322.225 43.824H322.589L323.093 43.712L325.333 43.992C325.184 45.0933 324.997 46.2787 324.773 47.548C324.568 48.7987 324.334 50.0587 324.073 51.328C323.83 52.5973 323.588 53.792 323.345 54.912L320.349 54.604C320.536 53.7453 320.722 52.84 320.909 51.888C321.096 50.9173 321.273 49.956 321.441 49.004C321.609 48.052 321.758 47.1653 321.889 46.344C322.038 45.504 322.15 44.776 322.225 44.16V43.824ZM322.701 50.824H327.013V53.848H321.805L322.701 50.824ZM325.893 50.824H326.509L327.041 50.74L329.057 51.468C328.534 54.324 327.76 56.8533 326.733 59.056C325.725 61.2587 324.512 63.144 323.093 64.712C321.674 66.2613 320.097 67.5027 318.361 68.436C318.212 68.1933 317.997 67.9133 317.717 67.596C317.456 67.2787 317.176 66.9707 316.877 66.672C316.597 66.3733 316.336 66.14 316.093 65.972C317.773 65.1507 319.266 64.068 320.573 62.724C321.898 61.38 323.009 59.7747 323.905 57.908C324.82 56.0227 325.482 53.876 325.893 51.468V50.824ZM318.501 48.052C318.818 50.18 319.248 52.1867 319.789 54.072C320.33 55.9387 321.03 57.6467 321.889 59.196C322.766 60.7267 323.84 62.0613 325.109 63.2C326.378 64.32 327.881 65.1973 329.617 65.832C329.393 66.0373 329.15 66.2893 328.889 66.588C328.628 66.9053 328.376 67.232 328.133 67.568C327.909 67.9227 327.722 68.2493 327.573 68.548C325.725 67.764 324.148 66.7373 322.841 65.468C321.553 64.18 320.461 62.6773 319.565 60.96C318.688 59.2427 317.969 57.3293 317.409 55.22C316.849 53.1107 316.392 50.8333 316.037 48.388L318.501 48.052ZM307.161 42.228L310.073 43.32C309.7 44.0293 309.308 44.7667 308.897 45.532C308.486 46.2973 308.085 47.0253 307.693 47.716C307.301 48.4067 306.928 49.004 306.573 49.508L304.333 48.556C304.669 47.9773 305.014 47.324 305.369 46.596C305.724 45.868 306.06 45.1213 306.377 44.356C306.694 43.5907 306.956 42.8813 307.161 42.228ZM310.381 45.56L313.125 46.792C312.453 47.856 311.716 48.976 310.913 50.152C310.11 51.3093 309.308 52.4293 308.505 53.512C307.702 54.576 306.946 55.5093 306.237 56.312L304.277 55.22C304.8 54.5853 305.341 53.876 305.901 53.092C306.461 52.2893 307.012 51.4587 307.553 50.6C308.113 49.7227 308.636 48.8547 309.121 47.996C309.606 47.1187 310.026 46.3067 310.381 45.56ZM302.849 48.864L304.473 46.568C304.958 46.9973 305.453 47.4733 305.957 47.996C306.48 48.5 306.956 49.0133 307.385 49.536C307.833 50.04 308.169 50.4973 308.393 50.908L306.685 53.512C306.461 53.064 306.134 52.5693 305.705 52.028C305.294 51.4867 304.837 50.936 304.333 50.376C303.829 49.816 303.334 49.312 302.849 48.864ZM309.933 52.224L312.145 51.3C312.518 51.9347 312.873 52.616 313.209 53.344C313.545 54.0533 313.834 54.7533 314.077 55.444C314.338 56.116 314.516 56.7227 314.609 57.264L312.229 58.328C312.154 57.7867 311.996 57.1707 311.753 56.48C311.51 55.7707 311.23 55.0427 310.913 54.296C310.596 53.5493 310.269 52.8587 309.933 52.224ZM302.821 54.548C304.109 54.5107 305.649 54.4547 307.441 54.38C309.252 54.3053 311.081 54.2307 312.929 54.156L312.901 56.816C311.165 56.9467 309.438 57.068 307.721 57.18C306.022 57.292 304.482 57.3947 303.101 57.488L302.821 54.548ZM310.269 59.168L312.621 58.412C312.976 59.14 313.302 59.952 313.601 60.848C313.9 61.7253 314.124 62.4907 314.273 63.144L311.781 64.04C311.65 63.368 311.436 62.584 311.137 61.688C310.857 60.7733 310.568 59.9333 310.269 59.168ZM304.053 58.664L306.825 59.168C306.676 60.512 306.452 61.8373 306.153 63.144C305.854 64.4507 305.509 65.552 305.117 66.448C304.93 66.3173 304.678 66.168 304.361 66C304.044 65.8507 303.717 65.7013 303.381 65.552C303.064 65.4027 302.784 65.2907 302.541 65.216C302.952 64.376 303.278 63.3773 303.521 62.22C303.764 61.044 303.941 59.8587 304.053 58.664ZM307.189 56.032H310.129V68.52H307.189V56.032ZM315.589 45.896H318.501V51.16C318.501 52.392 318.445 53.7547 318.333 55.248C318.221 56.7227 317.997 58.244 317.661 59.812C317.325 61.3613 316.821 62.8733 316.149 64.348C315.496 65.8227 314.609 67.176 313.489 68.408C313.321 68.2213 313.088 68.016 312.789 67.792C312.509 67.568 312.21 67.344 311.893 67.12C311.576 66.9147 311.296 66.7467 311.053 66.616C312.098 65.496 312.92 64.2733 313.517 62.948C314.114 61.604 314.562 60.2413 314.861 58.86C315.16 57.46 315.356 56.0973 315.449 54.772C315.542 53.428 315.589 52.2147 315.589 51.132V45.896ZM336.869 56.228H353.585V58.244H336.869V56.228ZM341.181 59.588L342.917 57.908C344.317 58.58 345.446 59.364 346.305 60.26C347.164 61.156 347.752 62.0707 348.069 63.004C348.386 63.9373 348.452 64.8053 348.265 65.608C348.097 66.392 347.705 67.0267 347.089 67.512C346.604 67.904 346.118 68.1653 345.633 68.296C345.148 68.4453 344.597 68.5293 343.981 68.548C343.682 68.548 343.337 68.548 342.945 68.548C342.553 68.548 342.17 68.5387 341.797 68.52C341.76 68.128 341.657 67.6707 341.489 67.148C341.34 66.6253 341.153 66.196 340.929 65.86C341.414 65.8973 341.881 65.9253 342.329 65.944C342.796 65.944 343.178 65.944 343.477 65.944C343.794 65.944 344.074 65.9253 344.317 65.888C344.56 65.8507 344.774 65.7573 344.961 65.608C345.278 65.4027 345.456 65.0853 345.493 64.656C345.53 64.208 345.409 63.6947 345.129 63.116C344.849 62.5373 344.382 61.94 343.729 61.324C343.094 60.708 342.245 60.1293 341.181 59.588ZM343.477 59.588L345.101 60.344C344.317 60.9973 343.337 61.6133 342.161 62.192C341.004 62.7707 339.762 63.2747 338.437 63.704C337.112 64.1333 335.814 64.4693 334.545 64.712C334.396 64.4507 334.19 64.152 333.929 63.816C333.668 63.48 333.425 63.2093 333.201 63.004C334.47 62.8173 335.758 62.556 337.065 62.22C338.372 61.884 339.585 61.492 340.705 61.044C341.844 60.596 342.768 60.1107 343.477 59.588ZM345.241 61.184L347.145 61.996C346.454 62.7613 345.624 63.48 344.653 64.152C343.701 64.8053 342.656 65.4027 341.517 65.944C340.378 66.4853 339.184 66.952 337.933 67.344C336.701 67.736 335.45 68.0627 334.181 68.324C334.032 68.0253 333.808 67.6707 333.509 67.26C333.229 66.868 332.968 66.5507 332.725 66.308C333.957 66.1213 335.18 65.8693 336.393 65.552C337.625 65.2347 338.792 64.852 339.893 64.404C341.013 63.956 342.03 63.4613 342.945 62.92C343.86 62.3787 344.625 61.8 345.241 61.184ZM348.825 56.844C349.478 59.0653 350.542 60.9413 352.017 62.472C353.51 64.0027 355.498 65.0667 357.981 65.664C357.664 65.9627 357.318 66.364 356.945 66.868C356.59 67.372 356.32 67.82 356.133 68.212C354.341 67.6707 352.801 66.896 351.513 65.888C350.225 64.88 349.152 63.6667 348.293 62.248C347.453 60.8293 346.772 59.196 346.249 57.348L348.825 56.844ZM354.397 58.412L356.665 60.12C355.806 60.6987 354.864 61.2493 353.837 61.772C352.829 62.2947 351.905 62.7333 351.065 63.088L349.133 61.464C349.693 61.2213 350.29 60.932 350.925 60.596C351.578 60.2413 352.213 59.8773 352.829 59.504C353.445 59.1307 353.968 58.7667 354.397 58.412ZM344.541 56.564L346.445 57.404C345.549 58.0573 344.457 58.6547 343.169 59.196C341.881 59.7187 340.518 60.1853 339.081 60.596C337.662 60.988 336.29 61.324 334.965 61.604C334.853 61.38 334.676 61.0627 334.433 60.652C334.19 60.2227 333.966 59.9053 333.761 59.7C335.049 59.5133 336.374 59.2707 337.737 58.972C339.1 58.6733 340.378 58.3187 341.573 57.908C342.768 57.4973 343.757 57.0493 344.541 56.564ZM332.725 44.16H357.785V46.484H332.725V44.16ZM343.365 42.2H346.893V45.952H343.365V42.2ZM333.005 53.092H357.561V57.852H354.509V55.304H335.917V58.02H333.005V53.092ZM339.837 49.2V50.488H350.589V49.2H339.837ZM336.505 47.408H354.145V52.28H336.505V47.408ZM374.501 62.836L377.105 62.136C377.422 62.6213 377.693 63.1533 377.917 63.732C378.141 64.3107 378.3 64.824 378.393 65.272L375.649 66.084C375.593 65.636 375.453 65.104 375.229 64.488C375.005 63.872 374.762 63.3213 374.501 62.836ZM381.893 62.08L384.805 62.864C384.506 63.4613 384.208 64.04 383.909 64.6C383.629 65.16 383.368 65.636 383.125 66.028L380.633 65.3C380.857 64.852 381.09 64.32 381.333 63.704C381.576 63.088 381.762 62.5467 381.893 62.08ZM376.041 58.972V60.372H382.985V58.972H376.041ZM373.241 56.984H385.869V62.36H373.241V56.984ZM375.033 49.256V50.544H383.881V49.256H375.033ZM375.033 46.064V47.324H383.881V46.064H375.033ZM372.373 44.02H386.681V52.588H372.373V44.02ZM371.953 53.54H387.157V56.06H371.953V53.54ZM371.393 65.496H387.549V67.988H371.393V65.496ZM376.125 42.2H378.589V45.532H376.125V42.2ZM380.241 42.2H382.733V45.532H380.241V42.2ZM376.601 44.972H378.589V52.196H376.601V44.972ZM380.241 44.972H382.229V52.196H380.241V44.972ZM361.509 49.536H371.337V52.448H361.509V49.536ZM362.181 43.964H370.777V46.848H362.181V43.964ZM369.125 53.876H371.253V64.292H369.125V53.876ZM365.177 50.992H367.949V68.492H365.177V50.992ZM361.901 53.904H364.029V57.264C364.029 58.7013 363.964 60.2133 363.833 61.8C363.702 63.368 363.394 64.824 362.909 66.168C362.685 65.944 362.386 65.692 362.013 65.412C361.64 65.132 361.313 64.9173 361.033 64.768C361.406 63.6293 361.64 62.388 361.733 61.044C361.845 59.7 361.901 58.4213 361.901 57.208V53.904ZM401.689 48.92H405.189V56.368H401.689V48.92ZM393.513 50.264H413.701V53.008H393.513V50.264ZM390.685 54.632H416.305V57.46H390.685V54.632ZM391.749 59.14H415.465V61.968H391.749V59.14ZM407.233 57.068H410.705V65.048C410.705 65.8507 410.593 66.476 410.369 66.924C410.164 67.372 409.762 67.7267 409.165 67.988C408.568 68.2307 407.868 68.3707 407.065 68.408C406.262 68.464 405.338 68.492 404.293 68.492C404.2 68.0253 404.032 67.4933 403.789 66.896C403.546 66.2987 403.304 65.7853 403.061 65.356C403.546 65.3747 404.032 65.3933 404.517 65.412C405.002 65.412 405.432 65.412 405.805 65.412C406.197 65.412 406.477 65.412 406.645 65.412C406.869 65.412 407.018 65.384 407.093 65.328C407.186 65.2533 407.233 65.132 407.233 64.964V57.068ZM394.241 44.216H403.173V46.988H394.241V44.216ZM405.385 44.216H416.165V46.988H405.385V44.216ZM394.465 41.976L397.685 42.844C397.088 44.244 396.341 45.5973 395.445 46.904C394.568 48.2107 393.681 49.3027 392.785 50.18C392.561 49.9933 392.281 49.788 391.945 49.564C391.609 49.3213 391.264 49.088 390.909 48.864C390.554 48.64 390.246 48.4533 389.985 48.304C390.9 47.5387 391.758 46.596 392.561 45.476C393.364 44.3373 393.998 43.1707 394.465 41.976ZM405.805 41.976L408.997 42.788C408.493 44.132 407.84 45.4293 407.037 46.68C406.253 47.9307 405.422 48.976 404.545 49.816C404.321 49.6293 404.041 49.4147 403.705 49.172C403.369 48.9293 403.024 48.696 402.669 48.472C402.333 48.248 402.034 48.0613 401.773 47.912C402.632 47.2027 403.416 46.3253 404.125 45.28C404.834 44.216 405.394 43.1147 405.805 41.976ZM395.305 46.344L398.021 45.308C398.376 45.8307 398.73 46.4187 399.085 47.072C399.44 47.7067 399.701 48.2667 399.869 48.752L396.985 49.928C396.854 49.4613 396.621 48.892 396.285 48.22C395.968 47.5293 395.641 46.904 395.305 46.344ZM407.513 46.428L410.229 45.336C410.658 45.84 411.097 46.4187 411.545 47.072C412.012 47.7067 412.357 48.2667 412.581 48.752L409.697 49.956C409.51 49.4893 409.202 48.92 408.773 48.248C408.362 47.576 407.942 46.9693 407.513 46.428ZM395.445 63.116L397.881 61.24C398.422 61.5947 398.973 62.0053 399.533 62.472C400.112 62.9387 400.644 63.4147 401.129 63.9C401.614 64.3853 401.997 64.8333 402.277 65.244L399.701 67.344C399.44 66.9147 399.076 66.448 398.609 65.944C398.142 65.44 397.638 64.9453 397.097 64.46C396.556 63.956 396.005 63.508 395.445 63.116ZM431.229 42.312L434.533 43.068C434.141 44.524 433.665 45.9707 433.105 47.408C432.545 48.8267 431.929 50.1613 431.257 51.412C430.604 52.644 429.904 53.7267 429.157 54.66C428.952 54.4547 428.681 54.212 428.345 53.932C428.028 53.652 427.692 53.3813 427.337 53.12C427.001 52.84 426.702 52.616 426.441 52.448C427.169 51.6453 427.832 50.7027 428.429 49.62C429.026 48.5373 429.558 47.3707 430.025 46.12C430.51 44.8693 430.912 43.6 431.229 42.312ZM430.445 54.744L433.721 55.416C433.46 56.6107 433.124 57.7867 432.713 58.944C432.321 60.0827 431.882 61.1653 431.397 62.192C430.912 63.2 430.408 64.0867 429.885 64.852C429.68 64.6653 429.4 64.46 429.045 64.236C428.69 63.9933 428.326 63.7693 427.953 63.564C427.598 63.34 427.29 63.1627 427.029 63.032C427.832 62.0427 428.522 60.8013 429.101 59.308C429.68 57.8147 430.128 56.2933 430.445 54.744ZM431.845 47.24H443.353V50.348H430.613L431.845 47.24ZM435.065 48.612H438.397V64.768C438.397 65.552 438.313 66.196 438.145 66.7C437.977 67.204 437.632 67.596 437.109 67.876C436.624 68.1373 436.036 68.3147 435.345 68.408C434.673 68.5013 433.88 68.548 432.965 68.548C432.909 68.044 432.76 67.4653 432.517 66.812C432.293 66.1587 432.06 65.608 431.817 65.16C432.414 65.1787 432.974 65.188 433.497 65.188C434.038 65.188 434.402 65.188 434.589 65.188C434.757 65.188 434.878 65.16 434.953 65.104C435.028 65.0293 435.065 64.8987 435.065 64.712V48.612ZM439.405 55.472L442.401 54.464C442.905 55.4347 443.362 56.4707 443.773 57.572C444.184 58.6547 444.538 59.728 444.837 60.792C445.136 61.8373 445.35 62.78 445.481 63.62L442.261 64.74C442.149 63.9187 441.953 62.9667 441.673 61.884C441.412 60.8013 441.085 59.7093 440.693 58.608C440.301 57.488 439.872 56.4427 439.405 55.472ZM442.429 47.24H442.877L443.409 47.128L445.789 47.576C445.621 48.7147 445.425 49.8907 445.201 51.104C444.977 52.2987 444.762 53.316 444.557 54.156L441.701 53.624C441.776 53.12 441.86 52.532 441.953 51.86C442.046 51.188 442.14 50.488 442.233 49.76C442.326 49.0133 442.392 48.3133 442.429 47.66V47.24ZM425.237 42.312L428.401 43.32C427.804 44.888 427.094 46.4747 426.273 48.08C425.452 49.6667 424.565 51.1787 423.613 52.616C422.661 54.0347 421.672 55.276 420.645 56.34C420.552 56.06 420.393 55.7053 420.169 55.276C419.964 54.828 419.74 54.38 419.497 53.932C419.254 53.484 419.04 53.12 418.853 52.84C419.693 51.9813 420.505 50.992 421.289 49.872C422.092 48.752 422.829 47.548 423.501 46.26C424.192 44.972 424.77 43.656 425.237 42.312ZM422.549 50.068L425.741 46.876V46.904V68.464H422.549V50.068ZM449.625 45.728H473.985V49.004H449.625V45.728ZM459.845 42.228H463.401V68.52H459.845V42.228ZM460.237 54.856L463.037 55.948C462.346 57.18 461.553 58.3653 460.657 59.504C459.78 60.6427 458.818 61.7067 457.773 62.696C456.728 63.6853 455.617 64.5813 454.441 65.384C453.284 66.1867 452.08 66.8867 450.829 67.484C450.661 67.1853 450.437 66.8493 450.157 66.476C449.877 66.1213 449.588 65.776 449.289 65.44C448.99 65.0853 448.71 64.796 448.449 64.572C449.644 64.1053 450.82 63.5267 451.977 62.836C453.153 62.1453 454.254 61.38 455.281 60.54C456.308 59.6813 457.241 58.776 458.081 57.824C458.94 56.8533 459.658 55.864 460.237 54.856ZM463.261 55.08C464.045 56.368 465.044 57.6093 466.257 58.804C467.489 59.9987 468.852 61.0813 470.345 62.052C471.838 63.004 473.388 63.7787 474.993 64.376C474.713 64.6 474.414 64.8987 474.097 65.272C473.798 65.6267 473.5 65.9907 473.201 66.364C472.921 66.756 472.688 67.12 472.501 67.456C470.896 66.7093 469.346 65.7667 467.853 64.628C466.36 63.4707 464.988 62.1733 463.737 60.736C462.486 59.2987 461.404 57.7773 460.489 56.172L463.261 55.08ZM453.013 53.848L455.141 51.748C455.57 52.084 456.037 52.476 456.541 52.924C457.045 53.3533 457.53 53.7733 457.997 54.184C458.464 54.5947 458.846 54.9587 459.145 55.276L456.905 57.656C456.644 57.32 456.28 56.928 455.813 56.48C455.365 56.032 454.898 55.584 454.413 55.136C453.928 54.6693 453.461 54.24 453.013 53.848ZM454.161 49.172L457.409 49.788C456.905 51.8227 456.168 53.6893 455.197 55.388C454.226 57.068 453.088 58.4493 451.781 59.532C451.594 59.3267 451.342 59.084 451.025 58.804C450.708 58.524 450.381 58.2533 450.045 57.992C449.728 57.712 449.438 57.4973 449.177 57.348C450.428 56.4333 451.473 55.2667 452.313 53.848C453.153 52.4293 453.769 50.8707 454.161 49.172ZM466.425 53.988L468.609 51.972C469.188 52.4013 469.832 52.896 470.541 53.456C471.269 53.9973 471.969 54.5387 472.641 55.08C473.313 55.6027 473.854 56.0693 474.265 56.48L471.941 58.776C471.549 58.3653 471.036 57.88 470.401 57.32C469.766 56.76 469.094 56.1907 468.385 55.612C467.676 55.0147 467.022 54.4733 466.425 53.988ZM467.349 49.172L470.625 49.76C470.233 51.4213 469.673 52.9707 468.945 54.408C468.217 55.8267 467.377 57.0027 466.425 57.936C466.22 57.768 465.94 57.572 465.585 57.348C465.249 57.124 464.894 56.9093 464.521 56.704C464.148 56.48 463.83 56.3027 463.569 56.172C464.521 55.3693 465.314 54.352 465.949 53.12C466.602 51.888 467.069 50.572 467.349 49.172ZM480.117 59.056H501.761V61.324H480.117V59.056ZM478.045 62.332H503.665V64.6H478.045V62.332ZM489.189 56.48H492.521V65.552C492.521 66.2987 492.409 66.8587 492.185 67.232C491.98 67.624 491.597 67.9227 491.037 68.128C490.477 68.3147 489.805 68.4267 489.021 68.464C488.237 68.52 487.304 68.5387 486.221 68.52C486.146 68.128 485.997 67.6893 485.773 67.204C485.568 66.7187 485.362 66.2987 485.157 65.944C485.605 65.9627 486.062 65.9813 486.529 66C487.014 66 487.444 66 487.817 66C488.19 66 488.452 66 488.601 66C488.806 65.9813 488.956 65.9347 489.049 65.86C489.142 65.7853 489.189 65.6547 489.189 65.468V56.48ZM498.317 55.192L500.445 57.012C499.176 57.236 497.757 57.432 496.189 57.6C494.64 57.7493 493.016 57.8707 491.317 57.964C489.637 58.0387 487.938 58.0947 486.221 58.132C484.522 58.1507 482.87 58.16 481.265 58.16C481.246 57.8613 481.181 57.516 481.069 57.124C480.957 56.7133 480.836 56.3773 480.705 56.116C482.254 56.116 483.85 56.1067 485.493 56.088C487.136 56.0507 488.75 55.9947 490.337 55.92C491.924 55.8453 493.398 55.752 494.761 55.64C496.142 55.528 497.328 55.3787 498.317 55.192ZM490.673 44.58C489.814 45.252 488.76 45.924 487.509 46.596C486.277 47.2493 484.942 47.8653 483.505 48.444C482.068 49.004 480.63 49.48 479.193 49.872C479.025 49.4987 478.782 49.0507 478.465 48.528C478.148 48.0053 477.849 47.576 477.569 47.24C479.062 46.904 480.537 46.484 481.993 45.98C483.449 45.4573 484.784 44.8693 485.997 44.216C487.21 43.5627 488.218 42.9 489.021 42.228H492.073C493.174 43.0307 494.378 43.7493 495.685 44.384C496.992 45 498.364 45.5227 499.801 45.952C501.238 46.3813 502.666 46.7267 504.085 46.988C503.73 47.3613 503.385 47.8093 503.049 48.332C502.713 48.836 502.433 49.3027 502.209 49.732C501.276 49.4893 500.277 49.1907 499.213 48.836C498.168 48.4813 497.122 48.08 496.077 47.632C495.032 47.1653 494.042 46.68 493.109 46.176C492.176 45.6533 491.364 45.1213 490.673 44.58ZM484.513 47.072H497.337V49.06H484.513V47.072ZM485.381 51.916V53.148H496.077V51.916H485.381ZM482.245 49.928H499.381V55.136H482.245V49.928ZM518.533 58.804L517.777 49.228L517.637 45.056H522.285L522.145 49.228L521.389 58.804H518.533ZM519.961 66.252C519.252 66.252 518.664 66.0187 518.197 65.552C517.73 65.0853 517.497 64.4973 517.497 63.788C517.497 63.06 517.73 62.4627 518.197 61.996C518.664 61.5293 519.252 61.296 519.961 61.296C520.67 61.296 521.258 61.5293 521.725 61.996C522.192 62.4627 522.425 63.06 522.425 63.788C522.425 64.4973 522.192 65.0853 521.725 65.552C521.258 66.0187 520.67 66.252 519.961 66.252Z" fill="black"/>
</svg>
