<svg width="364" height="69" viewBox="0 0 364 69" fill="none" xmlns="http://www.w3.org/2000/svg">
<path d="M0.879972 24V21.3352L7.94957 14.4048C8.62571 13.7221 9.18916 13.1155 9.63992 12.5852C10.0907 12.0549 10.4287 11.5412 10.6541 11.044C10.8795 10.5469 10.9922 10.0166 10.9922 9.45312C10.9922 8.81013 10.8464 8.25994 10.5547 7.80256C10.263 7.33854 9.86198 6.98059 9.35156 6.72869C8.84115 6.4768 8.26113 6.35085 7.61151 6.35085C6.942 6.35085 6.35535 6.49006 5.85156 6.76847C5.34777 7.04025 4.95668 7.42803 4.67827 7.93182C4.40649 8.43561 4.2706 9.03551 4.2706 9.73153H0.760653C0.760653 8.43892 1.05563 7.31534 1.6456 6.36079C2.23556 5.40625 3.04759 4.66714 4.08168 4.14347C5.1224 3.61979 6.31558 3.35795 7.66122 3.35795C9.02675 3.35795 10.2266 3.61316 11.2607 4.12358C12.2947 4.634 13.0968 5.33333 13.6669 6.22159C14.2436 7.10985 14.532 8.12405 14.532 9.2642C14.532 10.0265 14.3861 10.7756 14.0945 11.5114C13.8028 12.2472 13.2891 13.0625 12.5533 13.9574C11.8241 14.8523 10.8 15.9361 9.48082 17.2088L5.97088 20.7784V20.9176H14.8402V24H0.879972ZM25.7976 24.3878C24.1603 24.3878 22.755 23.9735 21.5817 23.1449C20.415 22.3097 19.5168 21.1065 18.8871 19.5355C18.264 17.9579 17.9524 16.0587 17.9524 13.8381C17.959 11.6174 18.2739 9.72822 18.897 8.17045C19.5268 6.60606 20.425 5.41288 21.5916 4.59091C22.7649 3.76894 24.1669 3.35795 25.7976 3.35795C27.4283 3.35795 28.8303 3.76894 30.0036 4.59091C31.1768 5.41288 32.075 6.60606 32.6982 8.17045C33.3279 9.73485 33.6428 11.6241 33.6428 13.8381C33.6428 16.0653 33.3279 17.9678 32.6982 19.5455C32.075 21.1165 31.1768 22.3163 30.0036 23.1449C28.8369 23.9735 27.4349 24.3878 25.7976 24.3878ZM25.7976 21.2756C27.0703 21.2756 28.0746 20.6491 28.8104 19.3963C29.5528 18.1368 29.924 16.2841 29.924 13.8381C29.924 12.2206 29.755 10.8617 29.4169 9.76136C29.0788 8.66098 28.6016 7.83239 27.9851 7.27557C27.3686 6.71212 26.6394 6.4304 25.7976 6.4304C24.5315 6.4304 23.5305 7.06013 22.7947 8.3196C22.0589 9.57244 21.6877 11.4119 21.6811 13.8381C21.6745 15.4621 21.8369 16.8277 22.1683 17.9347C22.5064 19.0417 22.9837 19.8769 23.6001 20.4403C24.2166 20.9972 24.9491 21.2756 25.7976 21.2756ZM36.9464 24V21.3352L44.016 14.4048C44.6921 13.7221 45.2556 13.1155 45.7063 12.5852C46.1571 12.0549 46.4951 11.5412 46.7205 11.044C46.9459 10.5469 47.0586 10.0166 47.0586 9.45312C47.0586 8.81013 46.9128 8.25994 46.6211 7.80256C46.3294 7.33854 45.9284 6.98059 45.418 6.72869C44.9076 6.4768 44.3275 6.35085 43.6779 6.35085C43.0084 6.35085 42.4218 6.49006 41.918 6.76847C41.4142 7.04025 41.0231 7.42803 40.7447 7.93182C40.4729 8.43561 40.337 9.03551 40.337 9.73153H36.8271C36.8271 8.43892 37.122 7.31534 37.712 6.36079C38.302 5.40625 39.114 4.66714 40.1481 4.14347C41.1888 3.61979 42.382 3.35795 43.7276 3.35795C45.0932 3.35795 46.293 3.61316 47.3271 4.12358C48.3612 4.634 49.1632 5.33333 49.7333 6.22159C50.31 7.10985 50.5984 8.12405 50.5984 9.2642C50.5984 10.0265 50.4525 10.7756 50.1609 11.5114C49.8692 12.2472 49.3555 13.0625 48.6197 13.9574C47.8905 14.8523 46.8664 15.9361 45.5472 17.2088L42.0373 20.7784V20.9176H50.9066V24H36.9464ZM61.4165 24.2784C60.0908 24.2784 58.9042 24.0298 57.8569 23.5327C56.8095 23.0289 55.9776 22.3395 55.3612 21.4645C54.7513 20.5895 54.4265 19.5885 54.3867 18.4616H57.9663C58.0326 19.2969 58.3938 19.9796 59.0501 20.5099C59.7063 21.0336 60.4951 21.2955 61.4165 21.2955C62.1391 21.2955 62.7821 21.1297 63.3455 20.7983C63.909 20.4669 64.3531 20.0062 64.6779 19.4162C65.0027 18.8262 65.1618 18.1534 65.1552 17.3977C65.1618 16.6288 64.9994 15.946 64.668 15.3494C64.3365 14.7528 63.8825 14.2855 63.3058 13.9474C62.729 13.6027 62.0662 13.4304 61.3171 13.4304C60.7073 13.4238 60.1074 13.5365 59.5174 13.7685C58.9274 14.0005 58.4601 14.3054 58.1154 14.6832L54.7844 14.1364L55.8484 3.63636H67.6609V6.71875H58.9009L58.3143 12.1179H58.4336C58.8114 11.6738 59.3451 11.3059 60.0344 11.0142C60.7238 10.7159 61.4795 10.5668 62.3015 10.5668C63.5344 10.5668 64.6348 10.8584 65.6026 11.4418C66.5704 12.0185 67.3327 12.8139 67.8896 13.8281C68.4464 14.8423 68.7248 16.0024 68.7248 17.3082C68.7248 18.6539 68.4132 19.8537 67.7901 20.9077C67.1737 21.955 66.3152 22.7803 65.2148 23.3835C64.1211 23.9801 62.855 24.2784 61.4165 24.2784ZM77.1901 0.115999L80.6061 0.983999C79.1221 5.156 76.6581 9.188 74.1661 11.708C73.5221 11.12 72.0941 10 71.2821 9.524C73.8021 7.34 75.9861 3.756 77.1901 0.115999ZM77.7781 3.308H95.5861V6.556H76.1541L77.7781 3.308ZM75.7901 9.916H94.9421V13.052H79.1781V18.932H75.7901V9.916ZM71.3661 17.28H97.1261V20.528H71.3661V17.28ZM84.0221 4.988H87.4941V26.52H84.0221V4.988ZM99.6879 20.2216V17.2884L108.328 3.63636H110.775V7.8125H109.283L103.466 17.0298V17.1889H115.527V20.2216H99.6879ZM109.402 24V19.3267L109.442 18.0142V3.63636H112.922V24H109.402ZM124.427 1.544H138.427V4.82H124.427V1.544ZM124.455 8.236H138.567V11.428H124.455V8.236ZM124.315 14.872H138.371V18.12H124.315V14.872ZM122.131 1.544H125.575V10.812C125.575 15.684 124.819 22.544 120.087 26.52C119.583 25.82 118.211 24.56 117.483 24.112C121.739 20.5 122.131 15.096 122.131 10.812V1.544ZM136.859 1.544H140.415V22.264C140.415 24.252 139.939 25.26 138.651 25.82C137.307 26.408 135.319 26.464 132.407 26.464C132.211 25.456 131.567 23.832 131.007 22.936C132.995 23.048 135.319 23.02 135.991 23.02C136.635 22.992 136.859 22.796 136.859 22.208V1.544ZM154.012 24.2784C152.581 24.2784 151.308 24.0331 150.194 23.5426C149.087 23.0521 148.212 22.3693 147.569 21.4943C146.926 20.6193 146.585 19.6084 146.545 18.4616H150.284C150.317 19.0118 150.499 19.4924 150.831 19.9034C151.162 20.3078 151.603 20.6226 152.153 20.848C152.703 21.0734 153.32 21.1861 154.002 21.1861C154.732 21.1861 155.378 21.0601 155.941 20.8082C156.505 20.5497 156.946 20.1918 157.264 19.7344C157.582 19.277 157.738 18.75 157.731 18.1534C157.738 17.5369 157.579 16.9934 157.254 16.5227C156.929 16.0521 156.458 15.6842 155.842 15.419C155.232 15.1539 154.496 15.0213 153.635 15.0213H151.835V12.1776H153.635C154.344 12.1776 154.964 12.0549 155.494 11.8097C156.031 11.5644 156.452 11.2197 156.757 10.7756C157.062 10.3248 157.211 9.80445 157.204 9.21449C157.211 8.63778 157.082 8.13731 156.816 7.71307C156.558 7.2822 156.19 6.94744 155.713 6.70881C155.242 6.47017 154.689 6.35085 154.052 6.35085C153.429 6.35085 152.852 6.46354 152.322 6.68892C151.792 6.9143 151.364 7.2358 151.039 7.65341C150.715 8.06439 150.542 8.55492 150.522 9.125H146.973C146.999 7.98485 147.327 6.9839 147.957 6.12216C148.593 5.25379 149.442 4.57765 150.502 4.09375C151.563 3.60322 152.753 3.35795 154.072 3.35795C155.431 3.35795 156.611 3.61316 157.612 4.12358C158.619 4.62737 159.398 5.30682 159.949 6.16193C160.499 7.01704 160.774 7.96165 160.774 8.99574C160.78 10.1425 160.442 11.1037 159.76 11.8793C159.083 12.6548 158.195 13.1619 157.095 13.4006V13.5597C158.527 13.7585 159.624 14.2888 160.386 15.1506C161.155 16.0057 161.536 17.0696 161.529 18.3423C161.529 19.4825 161.205 20.5033 160.555 21.4048C159.912 22.2997 159.024 23.0024 157.89 23.5128C156.763 24.0232 155.471 24.2784 154.012 24.2784ZM167.417 1.908H186.961V26.156H183.349V5.296H170.889V26.184H167.417V1.908ZM169.797 11.316H184.861V14.648H169.797V11.316ZM169.769 20.976H184.861V24.364H169.769V20.976ZM208.17 3.63636V24H204.482V7.22585H204.362L199.599 10.2685V6.88778L204.661 3.63636H208.17ZM220.868 24.3878C219.231 24.3878 217.825 23.9735 216.652 23.1449C215.485 22.3097 214.587 21.1065 213.957 19.5355C213.334 17.9579 213.023 16.0587 213.023 13.8381C213.029 11.6174 213.344 9.72822 213.967 8.17045C214.597 6.60606 215.495 5.41288 216.662 4.59091C217.835 3.76894 219.237 3.35795 220.868 3.35795C222.499 3.35795 223.901 3.76894 225.074 4.59091C226.247 5.41288 227.145 6.60606 227.768 8.17045C228.398 9.73485 228.713 11.6241 228.713 13.8381C228.713 16.0653 228.398 17.9678 227.768 19.5455C227.145 21.1165 226.247 22.3163 225.074 23.1449C223.907 23.9735 222.505 24.3878 220.868 24.3878ZM220.868 21.2756C222.141 21.2756 223.145 20.6491 223.881 19.3963C224.623 18.1368 224.994 16.2841 224.994 13.8381C224.994 12.2206 224.825 10.8617 224.487 9.76136C224.149 8.66098 223.672 7.83239 223.055 7.27557C222.439 6.71212 221.71 6.4304 220.868 6.4304C219.602 6.4304 218.601 7.06013 217.865 8.3196C217.129 9.57244 216.758 11.4119 216.751 13.8381C216.745 15.4621 216.907 16.8277 217.239 17.9347C217.577 19.0417 218.054 19.8769 218.67 20.4403C219.287 20.9972 220.019 21.2756 220.868 21.2756ZM234.274 21.554C233.671 21.554 233.154 21.3419 232.723 20.9176C232.292 20.4867 232.08 19.9697 232.086 19.3665C232.08 18.7699 232.292 18.2595 232.723 17.8352C233.154 17.411 233.671 17.1989 234.274 17.1989C234.857 17.1989 235.364 17.411 235.795 17.8352C236.233 18.2595 236.455 18.7699 236.461 19.3665C236.455 19.7708 236.349 20.1387 236.143 20.4702C235.944 20.8016 235.679 21.0668 235.348 21.2656C235.023 21.4579 234.665 21.554 234.274 21.554ZM234.274 11.4616C233.671 11.4616 233.154 11.2495 232.723 10.8253C232.292 10.3944 232.08 9.87737 232.086 9.27415C232.08 8.67756 232.292 8.16714 232.723 7.7429C233.154 7.31203 233.671 7.09659 234.274 7.09659C234.857 7.09659 235.364 7.31203 235.795 7.7429C236.233 8.16714 236.455 8.67756 236.461 9.27415C236.455 9.67187 236.349 10.0365 236.143 10.3679C235.944 10.6993 235.679 10.9645 235.348 11.1634C235.023 11.3622 234.665 11.4616 234.274 11.4616ZM247.446 24.2784C246.014 24.2784 244.741 24.0331 243.628 23.5426C242.521 23.0521 241.646 22.3693 241.003 21.4943C240.36 20.6193 240.018 19.6084 239.979 18.4616H243.717C243.75 19.0118 243.933 19.4924 244.264 19.9034C244.596 20.3078 245.036 20.6226 245.587 20.848C246.137 21.0734 246.753 21.1861 247.436 21.1861C248.165 21.1861 248.812 21.0601 249.375 20.8082C249.938 20.5497 250.379 20.1918 250.697 19.7344C251.016 19.277 251.171 18.75 251.165 18.1534C251.171 17.5369 251.012 16.9934 250.688 16.5227C250.363 16.0521 249.892 15.6842 249.276 15.419C248.666 15.1539 247.93 15.0213 247.068 15.0213H245.268V12.1776H247.068C247.777 12.1776 248.397 12.0549 248.928 11.8097C249.464 11.5644 249.885 11.2197 250.19 10.7756C250.495 10.3248 250.644 9.80445 250.638 9.21449C250.644 8.63778 250.515 8.13731 250.25 7.71307C249.991 7.2822 249.624 6.94744 249.146 6.70881C248.676 6.47017 248.122 6.35085 247.486 6.35085C246.863 6.35085 246.286 6.46354 245.756 6.68892C245.225 6.9143 244.798 7.2358 244.473 7.65341C244.148 8.06439 243.976 8.55492 243.956 9.125H240.406C240.433 7.98485 240.761 6.9839 241.391 6.12216C242.027 5.25379 242.875 4.57765 243.936 4.09375C244.997 3.60322 246.187 3.35795 247.506 3.35795C248.865 3.35795 250.045 3.61316 251.045 4.12358C252.053 4.62737 252.832 5.30682 253.382 6.16193C253.932 7.01704 254.207 7.96165 254.207 8.99574C254.214 10.1425 253.876 11.1037 253.193 11.8793C252.517 12.6548 251.629 13.1619 250.528 13.4006V13.5597C251.96 13.7585 253.057 14.2888 253.82 15.1506C254.589 16.0057 254.97 17.0696 254.963 18.3423C254.963 19.4825 254.638 20.5033 253.989 21.4048C253.346 22.2997 252.457 23.0024 251.324 23.5128C250.197 24.0232 248.904 24.2784 247.446 24.2784ZM265.903 24.3878C264.266 24.3878 262.86 23.9735 261.687 23.1449C260.52 22.3097 259.622 21.1065 258.993 19.5355C258.369 17.9579 258.058 16.0587 258.058 13.8381C258.065 11.6174 258.379 9.72822 259.002 8.17045C259.632 6.60606 260.53 5.41288 261.697 4.59091C262.87 3.76894 264.272 3.35795 265.903 3.35795C267.534 3.35795 268.936 3.76894 270.109 4.59091C271.282 5.41288 272.181 6.60606 272.804 8.17045C273.433 9.73485 273.748 11.6241 273.748 13.8381C273.748 16.0653 273.433 17.9678 272.804 19.5455C272.181 21.1165 271.282 22.3163 270.109 23.1449C268.942 23.9735 267.54 24.3878 265.903 24.3878ZM265.903 21.2756C267.176 21.2756 268.18 20.6491 268.916 19.3963C269.658 18.1368 270.029 16.2841 270.029 13.8381C270.029 12.2206 269.86 10.8617 269.522 9.76136C269.184 8.66098 268.707 7.83239 268.091 7.27557C267.474 6.71212 266.745 6.4304 265.903 6.4304C264.637 6.4304 263.636 7.06013 262.9 8.3196C262.164 9.57244 261.793 11.4119 261.787 13.8381C261.78 15.4621 261.942 16.8277 262.274 17.9347C262.612 19.0417 263.089 19.8769 263.706 20.4403C264.322 20.9972 265.055 21.2756 265.903 21.2756ZM286.349 12.3366V15.2997H277.181V12.3366H286.349ZM298.377 3.63636V24H294.689V7.22585H294.569L289.806 10.2685V6.88778L294.868 3.63636H298.377ZM310.627 24.2784C309.302 24.2784 308.115 24.0298 307.068 23.5327C306.02 23.0289 305.189 22.3395 304.572 21.4645C303.962 20.5895 303.637 19.5885 303.598 18.4616H307.177C307.243 19.2969 307.605 19.9796 308.261 20.5099C308.917 21.0336 309.706 21.2955 310.627 21.2955C311.35 21.2955 311.993 21.1297 312.556 20.7983C313.12 20.4669 313.564 20.0062 313.889 19.4162C314.214 18.8262 314.373 18.1534 314.366 17.3977C314.373 16.6288 314.21 15.946 313.879 15.3494C313.547 14.7528 313.093 14.2855 312.517 13.9474C311.94 13.6027 311.277 13.4304 310.528 13.4304C309.918 13.4238 309.318 13.5365 308.728 13.7685C308.138 14.0005 307.671 14.3054 307.326 14.6832L303.995 14.1364L305.059 3.63636H316.872V6.71875H308.112L307.525 12.1179H307.645C308.022 11.6738 308.556 11.3059 309.245 11.0142C309.935 10.7159 310.69 10.5668 311.512 10.5668C312.745 10.5668 313.846 10.8584 314.814 11.4418C315.781 12.0185 316.544 12.8139 317.1 13.8281C317.657 14.8423 317.936 16.0024 317.936 17.3082C317.936 18.6539 317.624 19.8537 317.001 20.9077C316.385 21.955 315.526 22.7803 314.426 23.3835C313.332 23.9801 312.066 24.2784 310.627 24.2784ZM323.524 21.554C322.921 21.554 322.404 21.3419 321.973 20.9176C321.542 20.4867 321.33 19.9697 321.336 19.3665C321.33 18.7699 321.542 18.2595 321.973 17.8352C322.404 17.411 322.921 17.1989 323.524 17.1989C324.107 17.1989 324.614 17.411 325.045 17.8352C325.483 18.2595 325.705 18.7699 325.711 19.3665C325.705 19.7708 325.599 20.1387 325.393 20.4702C325.194 20.8016 324.929 21.0668 324.598 21.2656C324.273 21.4579 323.915 21.554 323.524 21.554ZM323.524 11.4616C322.921 11.4616 322.404 11.2495 321.973 10.8253C321.542 10.3944 321.33 9.87737 321.336 9.27415C321.33 8.67756 321.542 8.16714 321.973 7.7429C322.404 7.31203 322.921 7.09659 323.524 7.09659C324.107 7.09659 324.614 7.31203 325.045 7.7429C325.483 8.16714 325.705 8.67756 325.711 9.27415C325.705 9.67187 325.599 10.0365 325.393 10.3679C325.194 10.6993 324.929 10.9645 324.598 11.1634C324.273 11.3622 323.915 11.4616 323.524 11.4616ZM336.915 24.3878C335.277 24.3878 333.872 23.9735 332.699 23.1449C331.532 22.3097 330.634 21.1065 330.004 19.5355C329.381 17.9579 329.07 16.0587 329.07 13.8381C329.076 11.6174 329.391 9.72822 330.014 8.17045C330.644 6.60606 331.542 5.41288 332.709 4.59091C333.882 3.76894 335.284 3.35795 336.915 3.35795C338.545 3.35795 339.947 3.76894 341.121 4.59091C342.294 5.41288 343.192 6.60606 343.815 8.17045C344.445 9.73485 344.76 11.6241 344.76 13.8381C344.76 16.0653 344.445 17.9678 343.815 19.5455C343.192 21.1165 342.294 22.3163 341.121 23.1449C339.954 23.9735 338.552 24.3878 336.915 24.3878ZM336.915 21.2756C338.188 21.2756 339.192 20.6491 339.928 19.3963C340.67 18.1368 341.041 16.2841 341.041 13.8381C341.041 12.2206 340.872 10.8617 340.534 9.76136C340.196 8.66098 339.719 7.83239 339.102 7.27557C338.486 6.71212 337.757 6.4304 336.915 6.4304C335.649 6.4304 334.648 7.06013 333.912 8.3196C333.176 9.57244 332.805 11.4119 332.798 13.8381C332.792 15.4621 332.954 16.8277 333.286 17.9347C333.624 19.0417 334.101 19.8769 334.717 20.4403C335.334 20.9972 336.066 21.2756 336.915 21.2756ZM355.591 24.3878C353.953 24.3878 352.548 23.9735 351.375 23.1449C350.208 22.3097 349.31 21.1065 348.68 19.5355C348.057 17.9579 347.745 16.0587 347.745 13.8381C347.752 11.6174 348.067 9.72822 348.69 8.17045C349.32 6.60606 350.218 5.41288 351.385 4.59091C352.558 3.76894 353.96 3.35795 355.591 3.35795C357.221 3.35795 358.623 3.76894 359.797 4.59091C360.97 5.41288 361.868 6.60606 362.491 8.17045C363.121 9.73485 363.436 11.6241 363.436 13.8381C363.436 16.0653 363.121 17.9678 362.491 19.5455C361.868 21.1165 360.97 22.3163 359.797 23.1449C358.63 23.9735 357.228 24.3878 355.591 24.3878ZM355.591 21.2756C356.863 21.2756 357.868 20.6491 358.603 19.3963C359.346 18.1368 359.717 16.2841 359.717 13.8381C359.717 12.2206 359.548 10.8617 359.21 9.76136C358.872 8.66098 358.395 7.83239 357.778 7.27557C357.162 6.71212 356.432 6.4304 355.591 6.4304C354.324 6.4304 353.324 7.06013 352.588 8.3196C351.852 9.57244 351.481 11.4119 351.474 13.8381C351.467 15.4621 351.63 16.8277 351.961 17.9347C352.299 19.0417 352.777 19.8769 353.393 20.4403C354.01 20.9972 354.742 21.2756 355.591 21.2756ZM100.66 51.496H111.104V54.604H100.66V51.496ZM85.484 45H98.084V47.744H85.484V45ZM85.204 56.144H98.056V58.972H85.204V56.144ZM85.12 51.244H98.308V54.016H85.12V51.244ZM105.196 52.84H108.444V68.38H105.196V52.84ZM90.16 42.452H93.436V46.232H90.16V42.452ZM90.16 53.848H93.436V68.492H90.16V53.848ZM99.148 44.44L103.068 45.532C103.04 45.812 102.844 45.952 102.34 46.036V54.268C102.34 58.44 101.808 64.628 98 68.576C97.58 67.848 96.348 66.7 95.592 66.28C98.84 62.836 99.148 58.048 99.148 54.212V44.44ZM108.304 42.508L110.992 44.944C108.136 46.232 104.328 47.184 101.052 47.8C100.884 47.072 100.408 45.896 100.016 45.252C103.012 44.58 106.316 43.572 108.304 42.508ZM93.184 59.084C94.052 59.616 96.74 61.716 97.412 62.276L95.48 64.684C94.556 63.564 92.428 61.464 91.392 60.54L93.184 59.084ZM86.884 48.164L89.46 47.548C89.964 48.556 90.356 49.928 90.496 50.852L87.752 51.58C87.696 50.656 87.332 49.228 86.884 48.164ZM93.856 47.492L96.824 48.052C96.292 49.34 95.816 50.544 95.396 51.412L92.736 50.852C93.128 49.9 93.604 48.472 93.856 47.492ZM90.188 57.796L92.568 58.664C91.196 61.744 88.872 64.964 86.632 66.784C86.1 66.056 85.12 64.936 84.42 64.404C86.632 62.976 88.956 60.26 90.188 57.796ZM113.54 48.864H121.856V52.224H113.54V48.864ZM127.232 42.704H130.732V62.892C130.732 64.46 130.9 64.684 131.908 64.684C132.384 64.684 134.316 64.684 134.82 64.684C135.884 64.684 136.08 63.536 136.276 59C137.088 59.644 138.544 60.316 139.468 60.54C139.16 65.916 138.32 67.988 135.156 67.988C134.484 67.988 132.02 67.988 131.404 67.988C128.184 67.988 127.232 66.812 127.232 62.836V42.704ZM120.204 42.676H123.704V68.212H120.204V42.676ZM136.5 46.876L138.908 49.9C136.024 51.86 132.468 53.82 129.304 55.416C129.052 54.66 128.408 53.484 127.932 52.756C130.984 51.188 134.26 48.78 136.5 46.876ZM112.56 61.576C114.828 60.904 118.384 59.644 121.744 58.44L122.36 61.492C119.56 62.752 116.508 64.012 114.044 65.02L112.56 61.576ZM141.568 49.76H166.488V53.232H141.568V49.76ZM155.932 51.16C157.612 57.572 161.168 62.892 167.104 65.244C166.264 66 165.144 67.456 164.584 68.436C158.172 65.44 154.672 59.644 152.544 51.944L155.932 51.16ZM152.068 42.228H155.764C155.624 50.768 155.568 62.64 143.556 68.436C143.024 67.512 141.988 66.308 141.008 65.58C152.488 60.456 151.984 49.816 152.068 42.228ZM170.24 45.196H179.928V48.08H170.24V45.196ZM173.6 64.292H180.628V67.008H173.6V64.292ZM173.6 59.812H180.712V62.36H173.6V59.812ZM169.036 50.376H183.372V53.288H169.036V50.376ZM173.936 42.452H177.044V52.308H173.936V42.452ZM181.3 43.46L184.324 44.328C181.468 51.664 176.568 57.348 170.24 60.764C169.876 60.036 168.896 58.636 168.308 57.964C174.328 55.108 178.864 50.068 181.3 43.46ZM174.664 55.36H180.572V58.048H174.664V68.464H171.64V57.292L173.46 55.36H174.664ZM179.228 55.36H182.42V68.072H179.228V55.36ZM184.268 43.796H192.5V46.932H187.572V68.492H184.268V43.796ZM191.716 43.796H192.36L192.864 43.656L195.3 45.168C194.32 47.856 193.06 51.048 191.94 53.54C194.292 56.032 194.796 58.244 194.796 60.092C194.796 62.192 194.32 63.564 193.228 64.292C192.668 64.684 191.996 64.936 191.24 65.02C190.568 65.104 189.672 65.132 188.804 65.076C188.776 64.18 188.44 62.724 187.908 61.828C188.636 61.884 189.196 61.912 189.7 61.884C190.12 61.884 190.54 61.8 190.848 61.632C191.38 61.324 191.576 60.68 191.576 59.728C191.576 58.188 190.932 56.116 188.636 53.96C189.784 51.216 191.1 46.96 191.716 44.944V43.796ZM203.028 52.42V55.948H216.86V52.42H203.028ZM200.228 50.348H219.828V58.02H200.228V50.348ZM205.044 47.156H214.928V49.34H205.044V47.156ZM208.488 51.02H211.204V56.928H208.488V51.02ZM209.832 44.832C207.34 47.24 202.776 49.844 198.352 51.384C197.988 50.628 197.204 49.424 196.616 48.724C201.208 47.352 205.8 44.72 208.096 42.228H211.288C214.48 45.196 219.016 47.408 223.356 48.5C222.628 49.256 221.9 50.404 221.396 51.272C217.504 49.956 212.548 47.352 209.832 44.832ZM204.008 53.036L206.332 52.392C206.836 53.344 207.284 54.576 207.452 55.416L204.988 56.144C204.876 55.304 204.484 54.016 204.008 53.036ZM213.276 52.28L216.048 52.952C215.432 54.156 214.872 55.332 214.424 56.116L212.128 55.5C212.52 54.576 213.052 53.204 213.276 52.28ZM201.768 58.916H218.344V68.436H214.9V61.1H205.072V68.52H201.768V58.916ZM203.672 62.22H216.328V64.432H203.672V62.22ZM203.672 65.58H216.328V67.764H203.672V65.58ZM235.2 52.448L239.232 53.428C237.384 57.824 234.892 62.752 232.82 65.972L229.712 64.992C231.728 61.604 233.996 56.452 235.2 52.448ZM226.464 63.956C231.756 63.788 239.96 63.396 247.296 63.032L247.212 66.308C240.016 66.812 232.232 67.232 226.912 67.512L226.464 63.956ZM240.632 58.636L243.908 57.124C246.372 60.148 249.004 64.124 250.348 66.812L246.876 68.66C245.7 65.972 242.984 61.716 240.632 58.636ZM232.232 42.872L236.068 43.936C234.276 48.36 231.336 52.7 228.48 55.388C227.752 54.688 226.128 53.456 225.204 52.896C228.116 50.6 230.776 46.764 232.232 42.872ZM243.516 42.9C245.168 46.204 248.36 50.124 250.936 52.476C250.012 53.176 248.724 54.52 248.08 55.416C245.448 52.588 242.228 48.164 240.156 44.272L243.516 42.9ZM258.076 50.712H273.728V52.588H258.076V50.712ZM259.42 47.8H272.58V49.648H259.42V47.8ZM264.348 46.652H267.4V51.832H264.348V46.652ZM264.012 58.356H266.98V63.9H264.012V58.356ZM267.12 57.824C268.548 59.588 271.46 61.128 274.344 61.8C273.784 62.304 273 63.284 272.636 63.928C269.584 62.948 266.644 60.932 264.964 58.608L267.12 57.824ZM265.776 56.648L268.324 57.572C266.168 60.036 262.528 62.108 259.252 63.312C258.888 62.78 257.964 61.688 257.432 61.212C260.652 60.26 264.012 58.636 265.776 56.648ZM271.908 57.432L273.896 58.72C272.692 59.672 271.264 60.512 270.144 61.1L268.464 59.952C269.584 59.308 271.068 58.188 271.908 57.432ZM262.304 55.136V56.564H269.556V55.136H262.304ZM259.532 53.456H272.468V58.244H259.532V53.456ZM253.988 43.292H277.984V68.548H274.68V46.316H257.124V68.548H253.988V43.292ZM255.976 64.516H276.472V67.512H255.976V64.516Z" fill="black"/>
</svg>
