<svg width="1065" height="757" viewBox="0 0 1065 757" fill="none" xmlns="http://www.w3.org/2000/svg">
<g filter="url(#filter0_d_68_3302)">
<path d="M974.861 393.622C990.992 373.666 1000.74 347.679 1000.74 319.386C1000.74 256.236 952.349 205.06 892.611 205.06C832.873 205.06 880.557 205.592 874.707 206.656C849.447 141.466 779.871 94.6361 697.976 94.6361C616.08 94.6361 655.432 97.9177 636.111 103.949C630.261 101.377 624.145 99.0708 617.941 96.8534C583.818 64.1255 535.07 43.726 480.916 43.726C394.5 43.726 321.822 95.8778 300.462 166.655C293.726 165.325 286.812 164.527 279.811 164.527C240.458 164.527 206.069 186.789 187.102 219.96C175.757 213.752 162.817 210.293 149.167 210.293C103.433 210.293 66.2965 249.495 66.2965 297.922C66.2965 346.349 71.4372 332.601 80.2117 346.437V348.743C48.3929 376.061 28.0076 417.747 28.0076 464.488C28.0076 546.707 91.0248 613.405 168.755 613.405C246.485 613.405 177.707 613.139 182.138 612.695C186.836 625.29 194.724 635.135 205.626 640.279C223.441 648.705 244.89 642.408 263.148 626C271.302 634.337 281.317 643.206 293.46 651.987C318.188 669.814 347.348 684.005 379.965 693.939C419.317 706.001 464.076 712.121 513.09 712.121C562.103 712.121 607.128 706.001 647.101 694.028C680.161 684.094 709.941 670.169 735.644 652.519C741.76 648.35 747.344 644.093 752.484 639.924C764.804 647.641 779.251 652.164 794.673 652.164C824.187 652.164 850.068 635.845 864.781 611.276C878.873 617.574 894.295 621.121 910.603 621.121C975.305 621.121 1027.69 565.688 1027.69 497.305C1027.69 428.922 1006.68 415.884 974.861 393.8V393.622Z" fill="#FFFBD2"/>
</g>
<path d="M210.103 554.542H206.458V562.4H200.878V554.542H187.895V550.442L199.17 532.106H206.345V549.986H209.989V554.542H210.103ZM200.878 549.872V543.722C200.878 542.014 200.992 539.167 201.106 537.458H200.992C200.308 539.053 199.397 540.761 198.6 542.356L193.931 549.872H200.992H200.878Z" fill="#DE5419"/>
<path d="M214.089 559.097C214.089 556.933 215.683 555.111 217.847 555.111C220.011 555.111 221.606 556.82 221.606 559.097C221.606 561.375 220.011 563.083 217.847 563.083C215.683 563.083 214.089 561.375 214.089 559.097Z" fill="#DE5419"/>
<path d="M225.592 558.756L228.439 554.883C230.261 556.592 232.425 557.958 235.158 557.958C237.892 557.958 240.283 556.478 240.283 553.744C240.283 551.011 238.575 548.847 231.856 548.847V544.519C237.436 544.519 239.258 542.583 239.258 539.85C239.258 537.117 237.778 536.092 235.158 535.978C232.995 535.978 231.172 537.003 229.464 538.711L226.389 535.067C229.008 532.789 231.97 531.308 235.5 531.308C241.422 531.308 245.295 534.156 245.295 539.394C245.295 544.633 243.472 545.089 240.17 546.342V546.569C243.586 547.481 246.206 550.1 246.206 554.086C246.206 558.072 241.308 562.856 235.5 562.856C229.692 562.856 227.414 561.033 225.364 558.642L225.592 558.756Z" fill="#DE5419"/>
<path d="M311.806 554.428C310.781 557.389 309.072 560.806 307.706 562.856C307.022 562.286 305.428 561.147 304.517 560.692C305.884 558.756 307.25 556.022 308.161 553.403L311.92 554.428H311.806ZM317.614 552.036V565.703H312.945V552.036H305.314V547.936H312.945V544.747H305.086V540.761H309.072C308.845 539.508 308.389 537.8 307.934 536.547L311.35 535.75H305.77V531.764H312.831C312.489 530.625 312.034 529.486 311.578 528.575L316.475 527.436C317.045 528.803 317.842 530.511 318.297 531.878H324.22V535.864H319.095L322.397 536.547C321.828 538.142 321.145 539.736 320.575 540.989H324.789V544.975H317.728V548.164H324.106V552.264H317.728L317.614 552.036ZM311.692 535.636C312.261 537.003 312.831 538.711 313.059 539.85L310.097 540.647H316.02C316.589 539.167 317.386 537.117 317.728 535.522H311.692V535.636ZM342.897 545.658H339.025V565.817H334.242V545.658H330.37V546.114C330.37 552.15 329.8 560.578 326.384 565.817C325.586 564.906 323.65 563.425 322.625 562.856C323.422 561.717 323.992 560.35 324.447 558.869L321.486 560.692C320.803 559.097 319.436 556.478 318.297 554.542L321.486 552.833C322.625 554.428 323.878 556.706 324.561 558.186C325.7 554.2 325.814 549.758 325.814 546V531.422C330.256 530.625 335.267 529.372 338.228 527.892L341.986 531.422C338.57 532.789 334.356 533.814 330.37 534.497V540.989H342.784V545.544L342.897 545.658Z" fill="#DE5419"/>
<path d="M363.625 554.2L364.536 558.528C358.728 561.033 352.464 563.539 347.567 565.475L345.403 560.464C348.25 559.553 352.122 558.3 356.336 556.82V542.242H346.883V537.345H356.336V528.347H361.461V554.997L363.739 554.2H363.625ZM376.95 560.008C378.431 560.008 378.658 558.072 379 550.783C380.139 551.695 382.303 552.72 383.67 553.061C383.214 561.603 382.075 564.792 377.406 564.792H372.508C367.953 564.792 366.586 563.083 366.586 557.389V528.347H371.711V537.345H382.417V542.242H371.711V557.503C371.711 559.667 371.939 560.122 373.306 560.122H376.95V560.008Z" fill="#DE5419"/>
<path d="M409.75 543.722C412.483 551.694 417.381 558.186 425.125 561.261C423.872 562.286 422.278 564.45 421.481 565.817C414.078 562.286 409.295 556.364 406.106 548.392C403.942 555.225 399.5 561.603 390.731 565.817C389.933 564.45 388.567 562.742 387.086 561.717C396.539 557.503 400.411 550.669 402.006 543.608H387.883V538.597H402.803C403.258 534.725 403.145 530.967 403.258 527.664H408.611C408.611 531.081 408.611 534.839 408.156 538.597H424.328V543.608H409.864L409.75 543.722Z" fill="#DE5419"/>
<path d="M466.353 531.992C464.872 535.978 463.05 540.533 461.342 544.178C464.872 547.822 465.556 551.125 465.556 553.745C465.556 556.364 464.872 558.87 463.278 559.895C462.594 560.464 461.569 560.806 460.431 561.033C459.519 561.147 458.153 561.147 456.9 561.033C456.9 559.667 456.444 557.617 455.647 556.364C456.672 556.364 457.469 556.478 458.267 556.364C458.836 556.364 459.519 556.25 459.861 556.022C460.658 555.567 460.886 554.542 460.886 553.289C460.886 551.011 459.975 548.05 456.672 544.861C457.811 541.9 459.292 537.8 460.317 534.611H455.078V566.045H450.294V530.853C449.042 533.928 447.675 536.889 445.853 539.622H448.928V543.836H442.778C441.867 544.861 441.069 545.886 440.158 546.797H447.561V565.361H442.892V563.767H436.286V565.817H431.844V553.403C431.161 553.858 430.478 554.314 429.794 554.656C429.225 553.631 427.858 551.581 426.947 550.556C430.592 548.847 433.894 546.57 436.742 543.836H427.972V539.622H435.147V536.206H429.794V531.992H435.147V528.006H439.703V531.992H443.917V534.042C444.714 532.561 445.283 531.081 445.967 529.486L450.294 530.625V529.828H462.822C462.822 529.714 466.353 531.878 466.353 531.878V531.992ZM443.006 550.67H436.4V553.289H443.006V550.67ZM443.006 559.895V556.933H436.4V559.895H443.006ZM440.614 539.508C441.411 538.483 442.094 537.345 442.892 536.092H439.817V539.508H440.614Z" fill="#DE5419"/>
<path d="M491.522 528.803C491.295 529.031 491.067 529.372 490.953 529.6C494.711 532.903 501.431 535.75 508.036 537.003C507.011 537.914 505.645 539.622 504.961 540.761C504.164 540.533 503.253 540.306 502.456 540.078V550.669H473.983V540.306C473.072 540.647 472.275 540.875 471.478 541.103C471.022 540.192 469.656 538.256 468.858 537.344C476.375 535.636 483.664 532.219 487.422 527.436L491.75 528.917L491.522 528.803ZM500.861 539.508C498.925 538.825 497.103 537.914 495.281 537.003V538.028H480.931V537.231C479.336 538.028 477.742 538.825 475.92 539.508H500.861ZM476.033 551.922H500.178V565.817H495.167V564.792H480.817V565.931H476.033V551.922ZM480.703 547.594C480.475 546.342 480.02 544.633 479.336 543.381L482.525 542.469H477.856V547.594H480.703ZM480.931 555.111V556.706H495.281V555.111H480.931ZM495.167 561.603V560.008H480.817V561.603H495.167ZM485.942 542.469H482.753C483.436 543.836 484.12 545.658 484.347 546.797L481.728 547.594H485.942V542.469ZM491.75 534.839C490.497 533.928 489.358 533.131 488.333 532.219C487.308 533.131 486.056 534.042 484.803 534.839H491.75ZM489.814 542.469V547.594H493.686L491.181 546.911C491.75 545.658 492.433 543.836 492.775 542.469H489.814ZM498.014 542.469H493.8L496.989 543.267C496.192 544.861 495.395 546.456 494.711 547.708H498.014V542.583V542.469Z" fill="#DE5419"/>
<path d="M526.145 530.283C523.183 537.003 518.4 543.95 513.958 548.278C513.047 547.253 510.883 545.089 509.631 544.064C513.958 540.42 518.286 534.497 520.792 528.461L526.258 530.17L526.145 530.283ZM537.647 549.189C540.95 553.745 544.708 559.553 546.758 563.311L541.747 565.931C541.178 564.792 540.494 563.425 539.583 561.945C519.767 563.539 516.919 563.767 514.983 564.45C514.642 563.425 513.731 560.692 512.933 559.211C514.3 558.87 515.439 557.731 517.033 555.908C518.742 554.2 523.867 547.139 527.169 540.306L532.864 542.697C529.675 548.278 525.803 553.745 521.817 558.186L536.85 557.161C535.483 555.111 534.231 552.947 532.864 551.125L537.647 548.961V549.189ZM538.444 528.575C540.153 534.27 543.911 540.078 549.036 543.153C547.897 544.178 546.189 546.57 545.392 548.05C540.722 544.52 537.078 538.939 534.8 533.586H528.194V528.575H538.558H538.444Z" fill="#DE5419"/>
<path d="M587.645 529.145V565.931H582.861V564.45H557.236V565.931H552.681V529.145H587.645ZM582.861 560.122V533.586H557.236V560.122H582.861ZM571.814 554.656C571.7 555.567 571.814 556.933 571.814 557.617C564.867 559.325 563.614 559.781 562.931 560.122C562.817 559.439 562.247 558.072 561.792 557.617C562.361 557.275 563.158 556.933 563.158 555.339V553.858C562.02 554.314 560.995 554.656 559.97 554.997C559.514 554.314 558.375 552.947 557.578 552.264C560.197 551.695 563.045 550.897 565.322 549.758H560.653V543.836H579.558V549.758H570.789C569.65 550.67 568.17 551.581 566.689 552.264V555.795L571.814 554.656ZM581.381 542.697H558.603V539.964H567.714V538.37H560.539V535.75H567.714V534.042H572.156V535.75H579.672V538.37H572.156V539.964H581.381V542.697ZM564.753 547.708H575.345V546H564.753V547.708ZM581.836 552.15C580.811 552.947 579.558 553.631 578.42 554.314C579.9 555.339 581.153 556.25 582.064 557.161L578.989 558.983C576.939 557.047 572.611 553.972 569.195 551.808L572.156 550.214C573.295 550.897 574.661 551.808 576.028 552.606C577.167 551.808 578.42 551.011 579.103 550.214L581.95 552.15H581.836Z" fill="#DE5419"/>
<path d="M609.967 557.503H616.458V538.256H610.992V534.497C614.067 533.928 616.117 533.131 618.053 531.992H622.495V557.503H628.189V562.4H609.967V557.503Z" fill="#DE5419"/>
<path d="M632.631 547.139C632.631 536.661 636.731 531.536 642.881 531.536C649.031 531.536 653.131 536.661 653.131 547.139C653.131 557.617 649.031 562.969 642.881 562.969C636.731 562.969 632.631 557.503 632.631 547.139ZM647.436 547.139C647.436 538.597 645.5 536.206 642.881 536.206C640.261 536.206 638.325 538.711 638.325 547.139C638.325 555.567 640.261 558.3 642.881 558.3C645.5 558.3 647.436 555.681 647.436 547.139Z" fill="#DE5419"/>
<path d="M657.914 543.495C657.914 541.217 659.509 539.508 661.672 539.508C663.836 539.508 665.431 541.217 665.431 543.495C665.431 545.772 663.836 547.367 661.672 547.367C659.509 547.367 657.914 545.658 657.914 543.495ZM657.914 559.097C657.914 556.933 659.509 555.111 661.672 555.111C663.836 555.111 665.431 556.82 665.431 559.097C665.431 561.375 663.836 563.083 661.672 563.083C659.509 563.083 657.914 561.375 657.914 559.097Z" fill="#DE5419"/>
<path d="M669.417 558.756L672.264 554.883C674.086 556.592 676.25 557.958 678.983 557.958C681.717 557.958 684.108 556.478 684.108 553.744C684.108 551.011 682.4 548.847 675.681 548.847V544.519C681.261 544.519 683.083 542.583 683.083 539.85C683.083 537.117 681.603 536.092 678.983 535.978C676.82 535.978 674.997 537.003 673.289 538.711L670.214 535.067C672.833 532.789 675.795 531.308 679.325 531.308C685.247 531.308 689.12 534.156 689.12 539.394C689.12 544.633 687.297 545.089 683.995 546.342V546.569C687.411 547.481 690.031 550.1 690.031 554.086C690.031 558.072 685.133 562.856 679.325 562.856C673.517 562.856 671.239 561.033 669.189 558.642L669.417 558.756Z" fill="#DE5419"/>
<path d="M694.245 547.139C694.245 536.661 698.345 531.536 704.495 531.536C710.645 531.536 714.745 536.661 714.745 547.139C714.745 557.617 710.645 562.969 704.495 562.969C698.345 562.969 694.245 557.503 694.245 547.139ZM709.164 547.139C709.164 538.597 707.228 536.206 704.609 536.206C701.989 536.206 700.053 538.711 700.053 547.139C700.053 555.567 701.989 558.3 704.609 558.3C707.228 558.3 709.164 555.681 709.164 547.139Z" fill="#DE5419"/>
<path d="M718.73 548.506H729.892V552.833H718.73V548.506Z" fill="#DE5419"/>
<path d="M735.245 557.503H741.736V538.256H736.27V534.497C739.345 533.928 741.395 533.131 743.331 531.992H747.772V557.503H753.467V562.4H735.245V557.503Z" fill="#DE5419"/>
<path d="M757.111 558.869L759.958 554.997C761.667 556.706 763.831 558.072 766.678 558.072C769.525 558.072 772.031 556.022 772.031 552.492C772.031 548.961 769.981 547.025 766.906 547.025C763.831 547.025 764.058 547.481 762.35 548.619L759.617 546.797L760.414 532.106H776.7V537.117H765.653L765.083 543.608C766.222 543.039 767.361 542.697 768.728 542.697C773.853 542.697 778.067 545.772 778.067 552.378C778.067 558.983 773.056 563.083 767.475 563.083C761.894 563.083 759.503 561.147 757.225 558.983L757.111 558.869Z" fill="#DE5419"/>
<path d="M783.078 543.495C783.078 541.217 784.672 539.508 786.836 539.508C789 539.508 790.595 541.217 790.595 543.495C790.595 545.772 789 547.367 786.836 547.367C784.672 547.367 783.078 545.658 783.078 543.495ZM783.078 559.097C783.078 556.933 784.672 555.111 786.836 555.111C789 555.111 790.595 556.82 790.595 559.097C790.595 561.375 789 563.083 786.836 563.083C784.672 563.083 783.078 561.375 783.078 559.097Z" fill="#DE5419"/>
<path d="M795.378 547.139C795.378 536.661 799.478 531.536 805.628 531.536C811.778 531.536 815.878 536.661 815.878 547.139C815.878 557.617 811.778 562.969 805.628 562.969C799.478 562.969 795.378 557.503 795.378 547.139ZM810.183 547.139C810.183 538.597 808.247 536.206 805.628 536.206C803.008 536.206 801.072 538.711 801.072 547.139C801.072 555.567 803.008 558.3 805.628 558.3C808.247 558.3 810.183 555.681 810.183 547.139Z" fill="#DE5419"/>
<path d="M819.522 547.139C819.522 536.661 823.622 531.536 829.772 531.536C835.922 531.536 840.022 536.661 840.022 547.139C840.022 557.617 835.922 562.969 829.772 562.969C823.622 562.969 819.522 557.503 819.522 547.139ZM834.442 547.139C834.442 538.597 832.506 536.206 829.886 536.206C827.267 536.206 825.331 538.711 825.331 547.139C825.331 555.567 827.267 558.3 829.886 558.3C832.506 558.3 834.442 555.681 834.442 547.139Z" fill="#DE5419"/>
<path d="M274.222 566.614C284.978 566.614 293.697 557.895 293.697 547.139C293.697 536.383 284.978 527.664 274.222 527.664C263.467 527.664 254.747 536.383 254.747 547.139C254.747 557.895 263.467 566.614 274.222 566.614Z" fill="#DE5419"/>
<path d="M283.447 538.142V555.111H280.828V553.858H268.414V555.225H265.908V538.142H283.561H283.447ZM280.714 551.467V549.189C280.372 549.189 280.03 549.189 279.689 549.189H277.867C275.93 549.189 275.475 548.164 275.475 546V540.533H273.425C273.425 545.658 272.855 548.733 269.553 550.442C269.325 549.872 268.642 548.961 268.186 548.506V551.353H280.6L280.714 551.467ZM268.3 540.533V548.506C270.805 547.025 271.033 544.747 271.033 540.533H268.3ZM280.714 540.533H277.867V546.114C277.867 546.797 277.867 547.139 278.322 547.139H279.689C280.03 547.139 280.486 547.139 280.828 547.139V540.647L280.714 540.533Z" fill="white"/>
<g clip-path="url(#clip0_68_3302)">
<path d="M247 252.13L248.36 244.43C259.61 235.74 268.19 228.25 274.1 221.98C280.01 215.7 283.39 210.12 284.25 205.23C284.86 201.79 284.45 199.12 283.04 197.22C281.62 195.32 279.32 194.37 276.12 194.37C272.14 194.37 267.63 196.66 262.59 201.25L256.62 194.01C260.5 190.51 264.21 187.94 267.76 186.31C271.31 184.68 275.28 183.87 279.69 183.87C286.03 183.87 290.8 185.76 293.99 189.53C297.19 193.3 298.24 198.3 297.14 204.52C295.34 214.72 285.73 227.1 268.32 241.64C272.87 241.16 276.57 240.92 279.4 240.92H293.89L291.91 252.15H247V252.13Z" fill="#E95513"/>
<path d="M338.83 250C333.72 256.04 327.67 259.05 320.66 259.05C313.65 259.05 308.65 256.03 305.64 250C302.63 243.96 302.12 235.3 304.11 224.01C306.1 212.72 309.63 204.15 314.71 198.3C319.79 192.45 325.84 189.52 332.87 189.52C339.9 189.52 344.92 192.45 347.94 198.3C350.95 204.15 351.46 212.73 349.47 224.01C347.48 235.29 343.93 243.96 338.82 250H338.83ZM316.66 224.24C313.79 240.51 315.72 248.64 322.45 248.64C329.18 248.64 333.98 240.51 336.85 224.24C339.72 207.97 337.79 199.84 331.06 199.84C324.33 199.84 319.53 207.97 316.66 224.24Z" fill="#E95513"/>
<path d="M353.66 246.47L355.02 238.77C366.27 230.08 374.85 222.59 380.76 216.32C386.67 210.04 390.05 204.46 390.91 199.57C391.52 196.13 391.11 193.46 389.7 191.56C388.28 189.66 385.98 188.71 382.78 188.71C378.8 188.71 374.29 191 369.25 195.59L363.28 188.35C367.16 184.85 370.87 182.28 374.42 180.65C377.97 179.02 381.94 178.21 386.35 178.21C392.69 178.21 397.46 180.1 400.65 183.87C403.85 187.64 404.9 192.64 403.8 198.86C402 209.06 392.39 221.44 374.98 235.98C379.53 235.5 383.23 235.26 386.06 235.26H400.55L398.57 246.49H353.66V246.47Z" fill="#E95513"/>
<path d="M425.6 252.27C416.6 252.27 409.6 249.22 404.58 243.12L412.24 234.61C416.09 239.14 420.61 241.4 425.8 241.4C429.36 241.4 432.42 240.31 434.98 238.14C437.54 235.97 439.15 232.95 439.84 229.09C440.52 225.23 440.02 222.24 438.34 220.13C436.66 218.02 434.1 216.96 430.66 216.96C428.73 216.96 427.04 217.22 425.59 217.73C424.14 218.24 422.27 219.16 419.99 220.49L414.63 216.51L422.19 183.91H458.05L456.07 195.14H431.71L427.94 209.36C430.88 208.09 433.68 207.46 436.33 207.46C442.31 207.46 446.92 209.27 450.18 212.89C453.44 216.51 454.44 221.85 453.19 228.92C451.94 235.98 448.67 241.64 443.36 245.9C438.05 250.16 432.14 252.28 425.62 252.28L425.6 252.27Z" fill="#E95513"/>
<path d="M529 198.91C529.8 216.53 537.93 228.27 553.22 234.38L555.43 223.96C545.25 219.28 539.78 210.93 538.85 198.9H560.13L561.9 190.56H522.96L525.85 176.97H561.1L562.85 168.81H527.6L530.68 157.11H520.15L517.07 168.81H482.03L480.29 176.97H515.34L512.44 190.56H473.72L471.95 198.9H492.99C488.84 210.21 479.96 218.84 466.11 224.75L464.03 234.55C473.01 231.59 481.26 227.02 488.7 220.63C494.75 215.6 499.53 208.41 502.97 198.9H510.67L495.49 261.96H506.01L521.2 198.9H529.02L529 198.91Z" fill="#E95513" stroke="white" stroke-width="8.26" stroke-linecap="round" stroke-linejoin="round"/>
<path d="M636.32 253.52L638.41 243.1C626.13 238.85 616.59 232.7 609.8 224.76C617.6 222.3 623.57 218.9 627.65 214.64C630.21 218.98 634.14 222.51 639.33 225.04L641.27 215.4C636.84 213.31 634.09 209.91 633.05 205.37C633.16 204.79 633.4 204.23 633.51 203.65L634.88 196.75H625.31L623.85 204.03C622.63 209.51 618.06 213.58 610.22 216.25L608.77 223.53C607.03 221.44 605.43 219.17 604.12 216.62L608.73 193.61H647.91L649.74 184.45H610.58L614.52 165.01H603.63L599.72 184.45H562.59L560.75 193.61H597.89L593.85 213.69C591.81 217.37 588.97 220.86 585.53 224.08L587.27 215.39C582.74 213.3 580.04 210.07 579.02 205.56C579.14 204.98 579.37 204.31 579.51 203.64L580.9 196.74H571.31L569.86 204.02C568.65 209.5 564.08 213.57 556.23 216.24L554.42 225.22C562.93 222.58 569.31 219.08 573.66 214.63C576.03 218.89 579.77 222.29 584.86 224.75C576.73 232.03 564.6 238.27 548.61 243.47L546.64 253.31C565.28 247.82 579.89 240.34 590.36 231.08L580.74 278.84H591.61L601.01 229.95C609.03 240.44 621.13 248.3 636.32 253.5" fill="#E95513"/>
<path d="M636.32 253.52L638.41 243.1C626.13 238.85 616.59 232.7 609.8 224.76C617.6 222.3 623.57 218.9 627.65 214.64C630.21 218.98 634.14 222.51 639.33 225.04L641.27 215.4C636.84 213.31 634.09 209.91 633.05 205.37C633.16 204.79 633.4 204.23 633.51 203.65L634.88 196.75H625.31L623.85 204.03C622.63 209.51 618.06 213.58 610.22 216.25L608.77 223.53C607.03 221.44 605.43 219.17 604.12 216.62L608.73 193.61H647.91L649.74 184.45H610.58L614.52 165.01H603.63L599.72 184.45H562.59L560.75 193.61H597.89L593.85 213.69C591.81 217.37 588.97 220.86 585.53 224.08L587.27 215.39C582.74 213.3 580.04 210.07 579.02 205.56C579.14 204.98 579.37 204.31 579.51 203.64L580.9 196.74H571.31L569.86 204.02C568.65 209.5 564.08 213.57 556.23 216.24L554.42 225.22C562.93 222.58 569.31 219.08 573.66 214.63C576.03 218.89 579.77 222.29 584.86 224.75C576.73 232.03 564.6 238.27 548.61 243.47L546.64 253.31C565.28 247.82 579.89 240.34 590.36 231.08L580.74 278.84H591.61L601.01 229.95C609.03 240.44 621.13 248.3 636.32 253.5" stroke="white" stroke-width="8.26" stroke-linecap="round" stroke-linejoin="round"/>
<path d="M778.55 204.17L780.2 197.05C788.63 192.95 797.59 187.54 805.53 181.95L808.6 169.21L747.89 169.06L745.34 180.11H790.49C784.21 184.14 776.6 188.35 770.15 191.16L767.14 204.17H730.65L728.07 215.31H764.55L759.39 237.59C759.02 239.18 758.27 239.65 756.22 239.74C754.54 239.82 744.47 239.83 738.91 239.6L736.15 251.47C744.73 251.47 760.22 251.42 760.47 251.42C765.78 251.42 769.23 246.78 770.56 240.98L775.97 215.31H811.72L814.3 204.17H778.55Z" fill="#E95513" stroke="white" stroke-width="8.26" stroke-linecap="round" stroke-linejoin="round"/>
<path d="M694.62 174.87H682.27C681.97 173 681.49 170.96 681 169.05H669.82L669.4 169.16C669.75 170.84 670.1 172.91 670.38 174.87H656.01L653.91 183.95H692.51L694.61 174.87H694.62Z" fill="#E95513" stroke="white" stroke-width="8.26" stroke-linecap="round" stroke-linejoin="round"/>
<path d="M650.08 225.55C649.35 227.55 643.18 233.38 640.19 233.83C640.19 233.83 637.83 245.14 637.91 245.14C644.03 242.72 654.78 233.98 658.55 225.76L650.08 225.55Z" fill="#E95513" stroke="white" stroke-width="8.26" stroke-linecap="round" stroke-linejoin="round"/>
<path d="M682.98 236.84C682.29 233.47 681.01 229.35 679.82 225.45L671.6 225.63C672.57 228.41 673.44 233.32 674.08 236.84H682.98Z" fill="#E95513" stroke="white" stroke-width="8.26" stroke-linecap="round" stroke-linejoin="round"/>
<path d="M698.8 213.8L700.14 208H717.46L716.12 213.8H698.8ZM703.5 193.49H720.82L719.48 199.3H702.16L703.5 193.49ZM706.84 179.07H724.16L722.82 184.87H705.5L706.84 179.07ZM718.28 234.09C716.73 239.9 716.62 241.98 714.94 241.98H712.55C711.54 241.98 711.42 241.7 711.98 239.26L715.64 223.44H724.21L736.73 169.33H699.32L686.8 223.44H691.5C688.74 232.27 684.99 239.68 674.67 243.08L672.32 253.28C689.01 250.75 697.12 237.37 701.54 223.44H705.69L702.01 239.36C699.93 248.35 700.87 251.44 708.61 251.44H713.95C722.39 251.44 723.37 246.9 727.2 234.09H718.28Z" fill="#E95513" stroke="white" stroke-width="8.26" stroke-linecap="round" stroke-linejoin="round"/>
<path d="M680.05 184.15L680.03 184.14V184.15H680.05Z" fill="#E95513" stroke="white" stroke-width="8.26" stroke-linecap="round" stroke-linejoin="round"/>
<path d="M689.37 186.23H679.19C677.76 189.61 675.83 193.53 674.18 196.69H649.3L647.14 206.05H664.74L663.25 212.51H646.57L644.42 221.78H661.1L653.88 252.96H663.83L671.05 221.78H684.23L686.37 212.51H673.19L674.69 206.05H689.34L691.51 196.69H683.4C685.22 193.54 687.24 189.93 689.38 186.23" fill="#E95513"/>
<path d="M689.37 186.23H679.19C677.76 189.61 675.83 193.53 674.18 196.69H649.3L647.14 206.05H664.74L663.25 212.51H646.57L644.42 221.78H661.1L653.88 252.96H663.83L671.05 221.78H684.23L686.37 212.51H673.19L674.69 206.05H689.34L691.51 196.69H683.4C685.22 193.54 687.24 189.93 689.38 186.23" stroke="white" stroke-width="8.26" stroke-linecap="round" stroke-linejoin="round"/>
<path d="M667.51 195.98C667.63 193.85 667.58 189.18 667.26 186.44H658.22L658.01 186.48C658.31 188.83 658.4 193.45 658.32 195.98H667.5H667.51Z" fill="#E95513" stroke="white" stroke-width="8.26" stroke-linecap="round" stroke-linejoin="round"/>
<path d="M529 198.91C529.8 216.53 537.93 228.27 553.22 234.38L555.43 223.96C545.25 219.28 539.78 210.93 538.85 198.9H560.13L561.9 190.56H522.96L525.85 176.97H561.1L562.85 168.81H527.6L530.68 157.11H520.15L517.07 168.81H482.03L480.29 176.97H515.34L512.44 190.56H473.72L471.95 198.9H492.99C488.84 210.21 479.96 218.84 466.11 224.75L464.03 234.55C473.01 231.59 481.26 227.02 488.7 220.63C494.75 215.6 499.53 208.41 502.97 198.9H510.67L495.49 261.96H506.01L521.2 198.9H529.02L529 198.91Z" fill="#E95513"/>
<path d="M636.32 253.52L638.41 243.1C626.13 238.85 616.59 232.7 609.8 224.76C617.6 222.3 623.57 218.9 627.65 214.64C630.21 218.98 634.14 222.51 639.33 225.04L641.27 215.4C636.84 213.31 634.09 209.91 633.05 205.37C633.16 204.79 633.4 204.23 633.51 203.65L634.88 196.75H625.31L623.85 204.03C622.63 209.51 618.06 213.58 610.22 216.25L608.77 223.53C607.03 221.44 605.43 219.17 604.12 216.62L608.73 193.61H647.91L649.74 184.45H610.58L614.52 165.01H603.63L599.72 184.45H562.59L560.75 193.61H597.89L593.85 213.69C591.81 217.37 588.97 220.86 585.53 224.08L587.27 215.39C582.74 213.3 580.04 210.07 579.02 205.56C579.14 204.98 579.37 204.31 579.51 203.64L580.9 196.74H571.31L569.86 204.02C568.65 209.5 564.08 213.57 556.23 216.24L554.42 225.22C562.93 222.58 569.31 219.08 573.66 214.63C576.03 218.89 579.77 222.29 584.86 224.75C576.73 232.03 564.6 238.27 548.61 243.47L546.64 253.31C565.28 247.82 579.89 240.34 590.36 231.08L580.74 278.84H591.61L601.01 229.95C609.03 240.44 621.13 248.3 636.32 253.5" fill="#E95513"/>
<path d="M778.55 204.17L780.2 197.05C788.63 192.95 797.59 187.54 805.53 181.95L808.6 169.21L747.89 169.06L745.34 180.11H790.49C784.21 184.14 776.6 188.35 770.15 191.16L767.14 204.17H730.65L728.07 215.31H764.55L759.39 237.59C759.02 239.18 758.27 239.65 756.22 239.74C754.54 239.82 744.47 239.83 738.91 239.6L736.15 251.47C744.73 251.47 760.22 251.42 760.47 251.42C765.78 251.42 769.23 246.78 770.56 240.98L775.97 215.31H811.72L814.3 204.17H778.55Z" fill="#E95513"/>
<path d="M694.62 174.87H682.27C681.97 173 681.49 170.96 681 169.05H669.82L669.4 169.16C669.75 170.84 670.1 172.91 670.38 174.87H656.01L653.91 183.95H692.51L694.61 174.87H694.62Z" fill="#E95513"/>
<path d="M650.08 225.55C649.35 227.55 643.18 233.38 640.19 233.83C640.19 233.83 637.83 245.14 637.91 245.14C644.03 242.72 654.78 233.98 658.55 225.76L650.08 225.55Z" fill="#E95513"/>
<path d="M682.98 236.84C682.29 233.47 681.01 229.35 679.82 225.45L671.6 225.63C672.57 228.41 673.44 233.32 674.08 236.84H682.98Z" fill="#E95513"/>
<path d="M698.8 213.8L700.14 208H717.46L716.12 213.8H698.8ZM703.5 193.49H720.82L719.48 199.3H702.16L703.5 193.49ZM706.84 179.07H724.16L722.82 184.87H705.5L706.84 179.07ZM718.28 234.09C716.73 239.9 716.62 241.98 714.94 241.98H712.55C711.54 241.98 711.42 241.7 711.98 239.26L715.64 223.44H724.21L736.73 169.33H699.32L686.8 223.44H691.5C688.74 232.27 684.99 239.68 674.67 243.08L672.32 253.28C689.01 250.75 697.12 237.37 701.54 223.44H705.69L702.01 239.36C699.93 248.35 700.87 251.44 708.61 251.44H713.95C722.39 251.44 723.37 246.9 727.2 234.09H718.28Z" fill="#E95513"/>
<path d="M680.05 184.15L680.03 184.14V184.15H680.05Z" fill="#E95513"/>
<path d="M689.37 186.23H679.19C677.76 189.61 675.83 193.53 674.18 196.69H649.3L647.14 206.05H664.74L663.25 212.51H646.57L644.42 221.78H661.1L653.88 252.96H663.83L671.05 221.78H684.23L686.37 212.51H673.19L674.69 206.05H689.34L691.51 196.69H683.4C685.22 193.54 687.24 189.93 689.38 186.23" fill="#E95513"/>
<path d="M667.51 195.98C667.63 193.85 667.58 189.18 667.26 186.44H658.22L658.01 186.48C658.31 188.83 658.4 193.45 658.32 195.98H667.5H667.51Z" fill="#E95513"/>
</g>
<g clip-path="url(#clip1_68_3302)">
<path d="M264.45 449.86C260.61 449.73 255.95 449.66 250.49 449.66C245.28 449.53 240.92 449.4 237.4 449.27C233.88 449.14 232 449.07 231.74 449.07V447.21C231.74 446.11 231.87 444.9 232.13 443.6C232.16 443.35 232.2 443.09 232.23 442.84L260.14 345.16L205.34 346.33H178.8L171.18 345.94L171.38 343.6C171.64 343.08 171.87 341.74 172.06 339.6C172.25 337.46 172.61 335.08 173.13 332.47L173.64 329.63L266.69 321.73V300.83H266.3L266.19 295.07L109.86 300.64V335.05L142.52 332.28C142.22 335.21 141.91 338.11 141.59 340.98C141 346.25 140.19 351.62 139.15 357.09C139.02 358.26 138.69 360.02 138.17 362.36C137.65 364.7 137.13 367.05 136.61 369.39C136.22 372 135.73 374.6 135.15 377.2C134.56 379.81 134.14 382.02 133.88 383.84C133.75 385.4 133.49 387.29 133.1 389.5C132.71 391.72 132.38 393.73 132.12 395.55C131.86 397.24 131.6 399.29 131.34 401.7C131.08 404.11 130.88 406.55 130.75 409.02C130.62 411.49 130.52 413.97 130.46 416.44C130.39 418.91 130.36 421.13 130.36 423.08L130.75 427.18H203.41V429.13C203.41 429.78 203.31 431.08 203.12 433.04C202.93 435 202.7 437.21 202.44 439.68L201.85 447.88L198.92 448.47C197.09 448.86 194.82 449.06 192.08 449.06C189.34 449.06 186.09 449.13 182.31 449.26C178.53 449.39 173.49 449.49 167.17 449.55C160.85 449.62 153.21 449.65 144.22 449.65L103.99 449.45V486.85L272.53 473.58C273.24 473.55 273.7 473.51 273.91 473.47C273.91 473.34 273.97 472.14 274.11 469.86C274.24 467.58 274.31 464.88 274.31 461.75V450.23H271.58C270.67 450.1 268.29 449.97 264.45 449.84V449.86ZM184.08 405.13H162.01L162.4 403.96C162.53 403.57 162.76 402.1 163.08 399.57C163.4 397.03 163.83 394.13 164.35 390.88C165 386.32 165.55 382.58 166.01 379.65C166.47 376.72 166.82 374.35 167.08 372.52C167.34 371.48 167.47 370.57 167.47 369.79C167.47 369.01 167.53 368.29 167.67 367.64C168.45 367.25 172.62 366.86 180.17 366.47C183.95 366.21 187.75 366.05 191.6 365.98C195.44 365.92 199.44 365.82 203.61 365.69H210.64L210.44 366.86C210.05 369.2 209.27 375.45 208.1 385.61C207.45 390.82 206.96 394.99 206.64 398.11C206.31 401.23 206.08 403.38 205.96 404.56C205.96 404.95 198.67 405.15 184.08 405.15V405.13Z" fill="#053793"/>
<path d="M860.15 458.65C858.39 458.65 857.32 458.52 856.93 458.26C856.54 458.26 856.73 457.02 857.52 454.55C857.78 453.51 858.11 452.53 858.5 451.62C858.89 450.71 859.09 450.19 859.09 450.06C859.09 449.15 854.4 447.26 845.03 444.4C844.64 444.4 844.28 444.47 843.96 444.6C843.63 444.73 843.28 444.86 842.89 444.99C842.76 445.38 842.24 446.33 841.33 447.82C840.42 449.32 839.5 451.04 838.6 453L834.69 460.03H815.35L814.57 457.49C814.31 456.71 814.05 455.77 813.79 454.66C813.53 453.56 813.2 452.54 812.81 451.63C812.42 450.72 812.13 449.97 811.93 449.38C811.73 448.79 811.51 448.5 811.25 448.5H805.39C804.22 448.5 803.11 448.53 802.07 448.6C801.03 448.67 800.31 448.77 799.92 448.89C799.53 448.89 798.85 448.92 797.87 448.99C796.89 449.06 795.82 449.09 794.65 449.09H790.16L790.75 450.65C791.14 451.69 791.6 453.42 792.12 455.83C792.64 458.24 793.1 459.96 793.49 461.01C793.88 461.4 793.29 461.63 791.73 461.69C790.17 461.76 786.46 461.79 780.6 461.79L767.71 462.18V491.79L876.11 480.93V458.86L866.93 458.66H860.19L860.15 458.65Z" fill="#053793"/>
<path d="M766.99 398.88C765.23 397.06 763.11 394.85 760.64 392.24C757.91 389.51 755.56 387.13 753.61 385.11C751.66 383.09 750.49 381.89 750.09 381.5C749.7 380.72 749.5 380.17 749.5 379.84C749.5 379.51 749.76 378.96 750.28 378.18C750.67 377.79 751.13 377.3 751.65 376.72C752.17 376.13 752.63 375.65 753.02 375.26C753.8 374.09 754.81 372.2 756.05 369.6C757.29 367 758.23 364.72 758.88 362.76C759.01 362.11 759.17 361.56 759.37 361.1C759.57 360.64 759.66 360.29 759.66 360.03C759.92 359.77 760.21 359.18 760.54 358.27C760.86 357.36 761.16 356.25 761.42 354.95C761.68 353.65 761.94 352.38 762.2 351.14C762.46 349.9 762.59 348.89 762.59 348.11C762.98 345.51 763.24 342.93 763.37 340.4C763.5 337.86 763.57 336.01 763.57 334.83C763.57 333.92 763.6 333.4 763.67 333.27C763.73 333.14 763.9 333.4 764.16 334.05C764.16 334.57 764.19 334.54 764.26 333.95C764.32 333.36 764.36 332.23 764.36 330.53C764.62 329.1 764.75 327.89 764.75 326.92V325.26C764.75 325 763.38 324.67 760.65 324.28C757.92 323.89 754.66 323.5 750.88 323.11C749.32 323.11 747.92 323.01 746.68 322.82C745.44 322.62 744.69 322.46 744.43 322.33C744.41 322.27 744.39 322.21 744.37 322.15L751.25 295.09L717.86 300.26L718.45 303.78C718.58 304.95 718.91 306.61 719.43 308.76C719.95 310.91 720.47 313.09 720.99 315.3C721.51 317.64 721.9 319.6 722.16 321.16C722.42 322.72 722.55 323.57 722.55 323.7C722.55 324.09 721.99 324.29 720.89 324.29H715.13C712.91 324.16 710.93 324.03 709.17 323.9C707.41 323.77 706.27 323.7 705.75 323.7H703.6V327.02C703.6 327.93 703.66 329.36 703.8 331.32C703.93 333.27 704.06 335.23 704.19 337.18L704.58 344.21L709.85 344.01C711.41 343.75 713.46 343.59 716 343.52C718.54 343.46 720.91 343.42 723.13 343.42C725.47 343.16 727.65 343 729.67 342.93C731.69 342.87 733.09 342.83 733.87 342.83C735.69 342.44 736.7 342.63 736.9 343.42C737.1 344.21 736.48 345.96 735.04 348.69C734.39 349.99 733.54 351.78 732.5 354.06C731.46 356.34 730.48 358.45 729.57 360.41C728.53 362.49 727.42 364.61 726.25 366.76C725.08 368.91 724.1 370.7 723.32 372.13C722.02 374.08 720.36 376.2 718.34 378.48C716.32 380.76 714.21 383.04 711.99 385.32C709.77 387.6 707.5 389.71 705.15 391.67C702.8 393.63 700.66 395.19 698.7 396.36C697.14 397.27 696.36 397.86 696.36 398.12C696.49 398.38 697.04 399.62 698.02 401.83C699 404.05 700.07 406.32 701.24 408.67C701.63 409.71 702.09 410.72 702.61 411.7C703.13 412.68 703.46 413.56 703.59 414.34C704.5 416.03 705.22 416.88 705.74 416.88C706.39 416.88 707.3 416.59 708.47 416C709.64 415.41 710.91 414.7 712.28 413.85C713.65 413 715.01 412.06 716.38 411.02C717.75 409.98 718.89 409 719.8 408.09L722.14 405.75C722.14 406.14 722.2 408.26 722.34 412.1C722.42 414.43 722.5 417.15 722.58 420.23L717.85 486.91H755.02L751.44 413.76L749.45 412.83L749.48 412.2L751.43 413.76C751.82 414.15 752.41 414.67 753.19 415.32C753.97 415.97 754.69 416.49 755.34 416.88L757.68 418.44L759.44 416.1C762.82 411.54 765.43 408.19 767.25 406.04C769.07 403.89 769.98 402.56 769.98 402.04C769.72 401.78 768.71 400.74 766.95 398.92L766.99 398.88Z" fill="#053793"/>
<path d="M868.65 398.49H839.06C835.61 398.49 832.16 398.52 828.71 398.59C825.26 398.66 821.9 398.72 818.65 398.79C815.39 398.86 812.46 398.96 809.86 399.08C804.78 399.08 799.93 399.18 795.31 399.37C790.69 399.57 787.4 399.66 785.45 399.66L779 399.86V407.48C779.13 410.09 779.26 413.08 779.39 416.46C779.52 419.85 779.71 423.75 779.98 428.18C780.24 432.61 780.4 436.06 780.47 438.53C780.53 441 780.63 442.5 780.76 443.02C780.76 443.15 782.78 443.12 786.81 442.92C790.84 442.72 795.99 442.56 802.24 442.43C805.36 442.3 808.59 442.17 811.91 442.04C815.23 441.91 818.45 441.78 821.58 441.65C824.7 441.52 827.66 441.42 830.47 441.36C833.27 441.3 835.65 441.26 837.6 441.26C843.46 440.87 849.12 440.48 854.59 440.09C860.06 439.7 864.48 439.18 867.87 438.53L869.63 438.33V426.22C869.63 422.97 869.56 419.42 869.43 415.58C869.3 411.74 869.23 408.65 869.23 406.3L868.64 398.49H868.65ZM847.95 425.64L826.86 425.44C820.61 425.44 815.43 425.38 811.33 425.24C807.23 425.11 804.98 425.04 804.59 425.04C803.94 424.78 803.61 423.74 803.61 421.92C803.61 421.14 803.58 420.26 803.51 419.28C803.44 418.3 803.41 417.42 803.41 416.64L803.02 413.91H825.29L847.95 413.71V425.62V425.64Z" fill="#053793"/>
<path d="M770.21 386.87V394H773.53C774.44 394 775.87 393.97 777.83 393.9C779.78 393.84 781.86 393.67 784.08 393.41C785.77 393.15 788.08 392.95 791.01 392.82C793.94 392.69 797.49 392.56 801.65 392.43C813.5 392.17 825.25 391.94 836.9 391.75C848.55 391.55 860.3 391.46 872.15 391.46C873.06 391.46 873.74 391.43 874.2 391.36C874.66 391.3 874.98 390.97 875.18 390.38C875.38 389.79 875.47 388.88 875.47 387.65V378.18L872.74 378.57C871.96 378.57 870.36 378.6 867.95 378.67C865.54 378.74 862.84 378.9 859.84 379.16H852.52C849.2 379.16 845.29 379.19 840.8 379.26C836.31 379.33 831.39 379.36 826.05 379.36H809.45L769.61 379.16L770 382.87C770.13 384.04 770.2 385.38 770.2 386.87H770.21Z" fill="#053793"/>
<path d="M772.95 374.67H779.4C782.52 374.67 786.56 374.61 791.51 374.47H808.89C809.15 374.47 810.84 374.41 813.97 374.27C817.09 374.14 821 374.01 825.69 373.88C835.19 373.62 843.33 373.36 850.1 373.1C856.87 372.84 861.23 372.51 863.19 372.12C863.97 371.86 864.85 371.7 865.83 371.63C866.81 371.57 867.75 371.53 868.66 371.53C869.44 371.53 870.22 371.47 871 371.33C871.78 371.2 872.5 371.07 873.15 370.94L874.32 370.35L881.39 305.78L851.99 306.81C851.85 306.77 851.74 306.72 851.66 306.67H849.9C849.77 306.54 849.64 305.99 849.51 305.01C849.38 304.03 849.44 302.64 849.71 300.81C849.71 299.25 849.64 297.95 849.51 296.9C849.38 295.86 849.25 295.34 849.12 295.34H846.58C845.15 295.34 843.46 295.41 841.5 295.54C839.28 295.54 837.3 295.61 835.54 295.74C833.78 295.87 832.71 295.94 832.32 295.94L830.56 296.14V307.58L820.35 307.94C820.03 307.06 819.91 305.48 820.01 303.18C820.01 302.01 819.98 300.93 819.91 299.96C819.84 298.98 819.81 298.24 819.81 297.71L819.22 295.56L810.04 295.95C807.57 295.95 805.45 296.05 803.69 296.24C801.93 296.43 800.92 296.53 800.66 296.53C800.66 296.66 800.63 297.38 800.56 298.68C800.49 299.98 800.46 301.48 800.46 303.17L800.12 308.65L772.53 309.62V335.3C772.53 338.23 772.5 341.16 772.43 344.09C772.36 347.02 772.33 349.82 772.33 352.49V359.81C772.2 363.2 772.1 365.9 772.04 367.92C771.97 369.94 771.94 371.47 771.94 372.51C771.94 373.55 772 374.2 772.14 374.46C772.27 374.72 772.53 374.79 772.92 374.66L772.95 374.67ZM800.48 351.81C800.48 353.64 800.41 355.16 800.28 356.4C800.15 357.64 800.02 358.39 799.89 358.65H790.12V352.79C789.99 350.97 789.95 349.47 790.02 348.3C790.08 347.13 790.25 346.48 790.51 346.35C790.77 345.96 792.53 345.76 795.78 345.76L800.66 345.96L800.46 351.82L800.48 351.81ZM801.07 331.89H790.52V328.37C790.52 327.46 790.55 326.61 790.62 325.83C790.68 325.05 790.85 324.53 791.11 324.27C791.37 324.01 791.86 323.85 792.57 323.78C793.28 323.72 794.1 323.68 795.01 323.68H799.89C800.41 323.94 800.74 324.3 800.87 324.75C801 325.21 801.07 326.35 801.07 328.17V331.88V331.89ZM829.78 356.89L820.4 357.48V345.76H825.09L829.39 345.96L829.78 351.62V356.89ZM829.2 331.31C828.55 331.31 827.8 331.38 826.95 331.51C826.1 331.64 825.16 331.71 824.12 331.71L821 332.3V327.22C821 326.05 821.03 324.97 821.1 324C821.16 323.02 821.2 322.47 821.2 322.34C821.46 322.08 822.01 321.95 822.86 321.95H825.89L830.38 322.34V326.64L830.58 331.33H829.21L829.2 331.31ZM857.52 350.64C857.39 352.2 857.32 353.47 857.32 354.45C857.32 355.43 857.19 356.05 856.93 356.31C856.8 356.44 856.34 356.54 855.56 356.6C854.78 356.67 853.96 356.67 853.12 356.6C852.27 356.54 851.49 356.47 850.78 356.4C850.06 356.34 849.57 356.3 849.32 356.3C849.19 356.04 849.12 355.32 849.12 354.15C849.12 352.98 849.18 351.74 849.32 350.44L849.71 345.17H853.42L857.52 345.37V350.64ZM849.12 331.31V320.76H856.93V331.89H855.17C854.78 331.89 854.26 331.86 853.61 331.79C852.96 331.73 852.24 331.69 851.46 331.69L849.12 331.3V331.31Z" fill="#053793"/>
<path d="M686.31 366.56C685.79 366.56 684.81 366.53 683.38 366.46C681.95 366.4 679.93 366.3 677.33 366.17C674.72 366.04 672.28 365.97 670.01 365.97H656.83L657.03 358.16C657.03 354.64 657.13 352.33 657.32 351.23C657.52 350.13 658 349.31 658.78 348.79C659.43 348.14 660.34 346.93 661.51 345.18C662.68 343.43 663.85 341.57 665.03 339.61C667.76 335.7 670.11 332.58 672.06 330.23C674.01 327.88 675.97 326.26 677.92 325.35C679.87 323.79 680.85 322.88 680.85 322.62C681.24 320.8 681.44 317.41 681.44 312.46C681.44 309.99 681.41 307.84 681.34 306.01C681.27 304.19 681.17 302.69 681.05 301.52C681.05 300.61 680.95 299.7 680.76 298.79C680.56 297.88 680.27 297.36 679.88 297.23C679.75 296.84 678.93 296.58 677.44 296.45C675.94 296.32 673.44 296.19 669.92 296.06C667.19 296.06 664.16 296 660.84 295.86C657.52 295.73 654.69 295.6 652.34 295.47C650.26 295.21 647.68 295.08 644.63 295.08C641.58 295.08 638.87 295.21 636.52 295.47C634.18 295.47 630.76 295.57 626.27 295.76C621.78 295.95 617.32 296.05 612.89 296.05L596.68 296.64L597.07 301.52C597.59 307.38 597.95 311.77 598.14 314.7C598.33 317.63 598.56 319.23 598.82 319.49H601.94C602.85 319.49 603.96 319.46 605.26 319.39C606.56 319.33 607.99 319.23 609.56 319.1C616.2 318.71 622.94 318.39 629.77 318.12C636.61 317.86 643.34 317.73 649.98 317.73C649.98 317.86 649.59 318.41 648.81 319.39C648.03 320.37 647.18 321.57 646.27 323C644.84 324.56 643.44 326.22 642.07 327.98C640.7 329.74 639.56 331.27 638.65 332.57C637.61 334 636.5 335.44 635.33 336.87C634.16 338.3 633.18 339.54 632.4 340.58C631.62 341.62 630.9 342.6 630.25 343.51C629.6 344.42 629.08 345.07 628.69 345.46C628.43 346.11 628.2 347.45 628.01 349.46C627.81 351.48 627.72 354.25 627.72 357.76C627.72 359.19 627.69 360.56 627.62 361.86C627.55 363.16 627.45 364.33 627.33 365.38C627.33 365.9 627.36 366.39 627.43 366.84C627.49 367.3 627.4 367.79 627.14 368.3C626.88 368.56 625.12 368.69 621.87 368.69H609.57L592.38 368.89V380.61L591.99 392.33L609.57 392.13L626.95 391.54L626.56 405.8C626.56 409.97 626.53 413.91 626.46 417.62C626.39 421.33 626.23 424.04 625.97 425.73C625.97 427.56 625.94 429.77 625.87 432.37C625.8 434.98 625.64 437.45 625.38 439.79C625.38 442.26 625.35 444.28 625.28 445.84C625.21 447.4 625.18 448.25 625.18 448.38C624.92 448.38 624.5 448.45 623.91 448.58C623.32 448.71 622.64 448.78 621.86 448.78C620.3 448.78 618.7 448.88 617.07 449.07C615.44 449.27 613.65 449.43 611.7 449.56L609.94 449.95L610.53 457.57C610.79 459.65 610.95 461.67 611.02 463.62C611.08 465.57 611.18 467.07 611.31 468.11C611.31 468.89 611.37 469.61 611.51 470.26C611.64 470.91 611.77 471.24 611.9 471.24C612.16 471.5 612.84 471.63 613.95 471.63L658.77 475.65L657.1 390.38H670.49L686.7 389.99L686.9 378.27C686.9 373.97 686.87 371.01 686.8 369.38C686.73 367.75 686.57 366.81 686.31 366.55V366.56Z" fill="#053793"/>
<path d="M590.6 433.85C589.56 432.61 588.19 431.41 586.5 430.24C586.11 429.98 585.29 429.39 584.06 428.48C582.82 427.57 581.52 426.53 580.15 425.36C578.78 424.19 577.54 423.08 576.44 422.04C575.33 421 574.78 420.22 574.78 419.7C574.78 419.44 574.91 418.89 575.17 418.04C575.43 417.19 575.88 416.18 576.54 415.01C577.45 412.8 578.46 410.03 579.57 406.71C580.67 403.39 581.43 400.69 581.82 398.6L583.58 391.57C584.49 388.05 585.24 384.18 585.83 379.95C586.42 375.72 587.03 371.58 587.69 367.55C588.21 362.47 588.73 357.98 589.25 354.07C589.77 350.16 590.1 348.02 590.23 347.62C590.49 347.62 590.85 347.52 591.3 347.33C591.76 347.13 592.31 347.04 592.96 347.04L595.5 346.65V337.08C595.63 334.35 595.7 332.2 595.7 330.63C595.7 329.06 595.57 327.93 595.31 327.21C595.05 326.5 594.59 326.07 593.94 325.94C593.29 325.81 592.38 325.81 591.21 325.94H588.48L588.28 322.03C588.28 319.56 588.08 318.12 587.69 317.73C587.69 317.47 587.01 317.34 585.64 317.34C584.27 317.34 580.92 317.47 575.58 317.73L567.77 317.93V322.42C567.9 324.11 567.87 325.22 567.67 325.74C567.47 326.26 567.11 326.59 566.6 326.72C566.21 326.85 565.46 326.92 564.35 326.92C563.24 326.92 562.04 326.89 560.74 326.82C559.44 326.76 558.1 326.69 556.74 326.62C555.37 326.56 554.17 326.52 553.13 326.52V326.32C553.13 326.19 553.16 326.06 553.23 325.93C553.29 325.8 553.33 325.67 553.33 325.54C553.72 324.37 554.18 322.22 554.7 319.09C555.22 315.97 555.74 312.38 556.26 308.35C556.52 305.75 556.78 303.44 557.04 301.42C557.3 299.4 557.56 298.2 557.82 297.81C557.95 297.16 558.08 296.51 558.21 295.86C558.34 295.21 558.47 294.56 558.6 293.91C558.6 292.61 558.4 291.66 558.01 291.08C557.62 290.5 556.77 290.07 555.47 289.81C552.86 289.42 550.39 289.1 548.05 288.83C545.71 288.57 543.3 288.31 540.82 288.05C538.09 287.92 536.33 287.89 535.55 287.95C534.77 288.02 534.25 288.37 533.99 289.02C533.73 289.41 533.47 290.39 533.21 291.95C532.95 293.51 532.62 295.34 532.23 297.42C531.71 300.15 531.19 302.96 530.67 305.82C530.15 308.69 529.66 311.36 529.21 313.83C528.75 316.3 528.33 318.52 527.94 320.47C527.55 322.42 527.22 323.92 526.96 324.96L526.37 327.69L510.55 328.28L510.75 333.55C510.75 335.11 510.81 336.87 510.95 338.82C511.08 340.77 511.21 342.4 511.34 343.7L511.73 348.78L516.61 348.98C519.73 348.98 521.49 349.18 521.88 349.57V351.52C521.88 352.56 521.81 353.8 521.68 355.23C521.42 356.79 521.16 358.97 520.9 361.77C520.64 364.57 520.38 367.34 520.12 370.07C520.12 371.9 519.95 374.56 519.63 378.08C519.3 381.6 518.78 385.24 518.07 389.02C517.35 392.8 516.54 396.34 515.63 399.66C514.72 402.98 513.68 405.36 512.51 406.79C512.12 407.31 511.99 407.74 512.12 408.06C512.25 408.39 512.77 408.81 513.68 409.33C514.33 409.72 515.34 410.28 516.71 410.99C518.08 411.71 519.41 412.45 520.71 413.24C522.27 414.02 524.13 414.9 526.28 415.88C528.43 416.86 530.41 417.74 532.24 418.52C536.02 419.82 538.49 420.83 539.66 421.55C540.57 422.1 541.11 422.6 541.32 423.04C532.77 436.45 519.78 451.5 503.54 453.89L528.14 491.78C528.14 491.78 549.17 470.36 561.57 444.39C561.83 444.51 562.26 444.77 562.9 445.18C563.81 445.77 564.92 446.64 566.22 447.82C569.21 450.55 571.62 452.64 573.45 454.07C575.27 455.5 576.9 456.74 578.33 457.78L580.67 459.34L582.43 456.61C582.95 455.83 583.41 455.05 583.8 454.27C584.19 453.49 584.51 453.03 584.78 452.9C584.91 452.51 585.33 451.73 586.05 450.56C586.76 449.39 587.51 448.09 588.3 446.65C590.12 443.13 591.39 440.73 592.11 439.42C592.82 438.12 592.99 437.08 592.6 436.3C592.34 435.91 591.69 435.1 590.65 433.86L590.6 433.85ZM563.26 349.77C563.13 350.16 563.06 350.65 563.06 351.23C563.06 351.81 562.93 352.44 562.67 353.09C562.54 354.52 562.31 356.31 561.99 358.46C561.66 360.61 561.43 362.66 561.31 364.61C561.18 365.91 560.79 368.42 560.14 372.13C559.49 375.84 558.71 379.72 557.8 383.75C556.89 387.79 555.97 391.5 555.07 394.88C554.16 398.27 553.38 400.35 552.73 401.13C552.6 401.13 552.37 401.1 552.05 401.03C551.72 400.97 551.37 400.8 550.98 400.54C550.59 400.41 549.87 399.95 548.83 399.17C547.79 398.39 546.55 397.48 545.12 396.44C543.82 395.27 542.71 394.29 541.8 393.51C540.89 392.73 540.43 392.14 540.43 391.75C540.43 391.62 540.53 391.1 540.72 390.19C540.92 389.28 541.21 388.37 541.6 387.46C541.99 385.64 542.48 383.23 543.06 380.23C543.65 377.24 544.07 373.98 544.33 370.46C544.59 367.86 544.85 366.55 545.11 366.55C545.37 366.42 545.53 365.87 545.6 364.89C545.66 363.91 545.83 362.71 546.09 361.28C546.09 359.72 546.15 358.06 546.29 356.3C546.42 354.54 546.61 353.01 546.88 351.71L547.47 347.22L555.09 347.61C557.43 347.61 559.35 347.64 560.85 347.71C562.35 347.78 563.16 347.94 563.29 348.2V349.76L563.26 349.77Z" fill="#053793"/>
<path d="M457.91 335.02C455.44 335.02 453.12 334.99 450.98 334.92C448.87 334.86 447.05 334.82 445.5 334.82L451.89 296.64H443.56C443.37 296.45 442.95 296.35 442.28 296.35C441.76 296.22 440.78 296.12 439.35 296.06C437.92 296 436.32 295.96 434.56 295.96C432.8 295.96 430.98 295.99 429.09 296.06C427.2 296.13 425.48 296.23 423.91 296.35C422.48 296.35 421.57 296.45 421.18 296.64C420.79 296.83 420.72 297.2 420.98 297.71C420.85 299.27 420.65 301.65 420.39 304.84C420.13 308.03 419.8 312.04 419.41 316.85C419.02 321.8 418.73 325.77 418.53 328.76C418.33 331.76 418.17 333.91 418.04 335.21C418.04 335.6 417.65 335.89 416.87 336.09C416.09 336.29 414.33 336.51 411.6 336.77C409.38 336.77 407.76 336.87 406.72 337.06C405.68 337.26 405.03 337.42 404.77 337.55C404.64 338.46 404.64 341.2 404.77 345.75C404.77 350.18 404.97 353.11 405.36 354.54C405.36 354.93 405.75 355.19 406.53 355.32C407.31 355.45 408.81 355.52 411.02 355.52C412.58 355.39 413.78 355.32 414.63 355.32C415.48 355.32 416.06 355.55 416.39 356C416.71 356.46 416.81 357.24 416.68 358.34C416.55 359.45 416.29 361.04 415.9 363.13C415.38 368.21 414.95 372.51 414.63 376.02C414.3 379.54 414.01 382.34 413.75 384.42C413.36 387.54 412.74 391.26 411.89 395.55C411.04 399.85 410.13 404.18 409.16 408.54C408.18 412.9 407.11 417.1 405.94 421.14C404.77 425.18 403.6 428.56 402.42 431.3C402.29 431.82 401.8 433.16 400.96 435.3C400.11 437.45 399.17 439.76 398.13 442.23C397.09 444.7 396.11 447.02 395.2 449.16C394.67 450.41 394.25 451.39 393.94 452.14L390.51 444.38L364.08 447.77C363.86 447.02 363.75 445.56 363.75 443.4L363.55 438.32H377.03C381.85 438.32 385.33 438.22 387.48 438.03C389.63 437.84 390.7 437.67 390.7 437.54C390.96 437.28 391.12 436.37 391.19 434.81C391.25 433.25 391.29 431.49 391.29 429.54V421.92L388.36 421.72C387.58 421.72 385.89 421.66 383.28 421.52C380.67 421.39 377.81 421.26 374.69 421.13C371.3 421.13 368.6 421.03 366.58 420.84C364.56 420.64 363.42 420.55 363.16 420.55C362.64 419.77 362.38 418.4 362.38 416.45C362.38 414.5 362.58 413.33 362.97 412.93C363.1 412.67 364.73 412.51 367.85 412.44C370.97 412.38 374.69 412.34 378.98 412.34H394.6V410.19C394.6 409.8 394.63 409.05 394.7 407.94C394.76 406.84 394.86 405.37 394.99 403.55C395.12 401.73 395.25 399.25 395.38 396.13C396.16 386.63 396.71 378.19 397.04 370.84C397.36 363.49 397.4 357.46 397.14 352.77V350.23L394.21 349.84C393.43 349.84 391.64 349.81 388.84 349.74C386.04 349.68 382.88 349.51 379.37 349.25C375.98 349.25 372.92 349.22 370.19 349.15C367.46 349.09 365.7 348.92 364.92 348.66L362.58 348.46L363.17 344.55C363.17 344.29 363.2 343.67 363.27 342.69C363.33 341.71 363.43 341.1 363.56 340.83C364.08 340.7 365.25 340.57 367.08 340.44C368.9 340.31 371.5 340.18 374.89 340.05C378.27 339.92 381.2 339.82 383.68 339.76C386.15 339.7 388.3 339.66 390.13 339.66H395.4V325.79L380.56 326.18H364.74C364.35 326.18 364.15 325.79 364.15 325.01V320.32C364.28 319.54 364.35 318.79 364.35 318.07C364.35 317.35 364.41 316.74 364.55 316.21C364.55 315.3 364.61 314.71 364.75 314.45C364.88 314.32 365.6 314.25 366.9 314.25C367.55 314.12 368.27 313.99 369.05 313.86C369.83 313.73 370.74 313.6 371.78 313.47C373.86 313.21 375.88 312.95 377.83 312.69C379.78 312.43 381.28 312.23 382.32 312.1C383.23 312.1 384.24 312.04 385.35 311.9C386.45 311.77 387.4 311.7 388.18 311.7H390.52L390.13 305.06C390.06 304.11 389.99 303.22 389.93 302.38L388.69 282.92L308.1 302.32L308.3 311.5V316.09C308.3 317.07 308.33 318.01 308.4 318.92C308.46 319.83 308.56 320.48 308.69 320.87C308.69 321.13 309.54 321 311.23 320.48C312.27 320.35 314.65 320.09 318.36 319.7C322.07 319.31 328.03 318.6 336.23 317.55L339.55 316.96V329.07L337.99 328.68C337.34 328.68 335.97 328.65 333.89 328.58C331.81 328.52 328.94 328.42 325.3 328.29C321.65 328.16 318.24 328.06 315.05 328C311.86 327.94 308.83 327.9 305.97 327.9L304.02 327.51L304.22 335.71V341.57C304.22 343.13 304.35 344.04 304.61 344.3C307.6 344.3 310.6 344.2 313.59 344.01C316.58 343.81 319.51 343.59 322.38 343.33C327.59 343.2 331.88 343.07 335.27 342.94C338.65 342.81 340.54 342.88 340.93 343.14C341.97 343.14 342.17 344.51 341.52 347.24C341.52 349.19 341.42 350.4 341.23 350.85C341.03 351.31 340.67 351.53 340.16 351.53H307.15L307.74 382.39C307.74 391.11 307.8 398.41 307.94 404.27C308.07 410.13 308.2 413.25 308.33 413.65H324.54L340.75 413.06L340.95 414.62C341.08 415.14 341.15 415.92 341.15 416.96C341.15 418 341.12 419.01 341.05 419.99C340.98 420.97 340.92 421.85 340.85 422.63C340.78 423.41 340.75 423.93 340.75 424.19C340.49 424.19 339.38 424.26 337.43 424.39C335.48 424.52 333.13 424.59 330.4 424.59C327.67 424.59 324.57 424.53 321.51 424.39C318.45 424.26 315.94 424.19 313.99 424.19H307.74V431.61C308 433.69 308.13 435.58 308.13 437.27V441.57H314.58C316.27 441.57 318.75 441.51 322 441.37C325.25 441.24 328.38 441.11 331.38 440.98L341.93 440.59L341.54 446.25V450.58L308.34 454.84V491.68L388.71 462.82C388.1 463.91 387.54 464.85 387.05 465.59L385.49 467.74L389.01 470.28C390.18 471.06 391.45 471.91 392.82 472.82C394.19 473.73 395.58 474.61 397.02 475.46C398.45 476.31 399.78 477.05 401.02 477.71C402.26 478.36 403.27 478.81 404.05 479.08C405.22 479.73 406.03 479.79 406.49 479.28C406.95 478.76 407.76 477.06 408.93 474.2C409.58 472.77 410.39 471.08 411.37 469.12C412.35 467.16 413.29 465.21 414.2 463.26C415.37 460.66 416.64 457.69 418.01 454.37C419.38 451.05 420.74 447.57 422.11 443.92C423.48 440.28 424.78 436.53 426.02 432.69C427.26 428.85 428.33 425.17 429.24 421.65C429.63 419.44 430.12 417.32 430.7 415.3C431.29 413.28 431.64 411.75 431.77 410.71C432.55 408.37 433.23 406.02 433.82 403.68C434.41 401.34 434.89 398.77 435.28 395.97L441.93 356.23C443.32 356.1 445.39 356.03 448.17 356.03L455.79 356.23L445.85 486.8H454.94L481.47 491.7L489.02 334.97H467.02C464.62 334.95 461.61 334.94 457.94 334.94L457.91 335.02ZM329.2 373.69C329.2 372.52 329.26 371.38 329.4 370.27C329.53 369.17 329.6 368.22 329.6 367.44V364.9H341.32V376.23C341.32 376.88 339.24 377.21 335.07 377.21H329.02L329.22 373.69H329.2ZM341.5 400.84L335.64 400.64C334.08 400.64 332.71 400.54 331.54 400.35C330.37 400.16 329.71 400.06 329.59 400.06C329.2 399.67 329 397.98 329 394.98V390.29H341.3V392.05C341.3 392.44 341.33 393.19 341.4 394.3C341.46 395.41 341.5 396.42 341.5 397.33V400.85V400.84ZM375.48 389.51C375.48 389.9 375.45 390.58 375.38 391.56C375.31 392.54 375.15 393.61 374.89 394.78L374.3 398.88H368.83C367.27 398.88 365.9 398.82 364.73 398.68C363.56 398.55 362.84 398.48 362.58 398.48C362.19 398.35 361.96 397.93 361.9 397.21C361.83 396.5 361.8 395.16 361.8 393.21V388.33H375.47V389.5L375.48 389.51ZM363.57 362.75H369.53C370.77 362.75 371.94 362.78 373.05 362.85C374.15 362.92 374.91 363.02 375.3 363.14C375.95 363.27 376.15 365.03 375.89 368.41V373.68L369.05 373.29C367.36 373.29 365.83 373.26 364.46 373.19C363.09 373.13 362.41 372.96 362.41 372.7C362.15 372.7 362.02 372.21 362.02 371.24V367.82C362.28 365.61 362.44 364.21 362.51 363.62C362.57 363.03 362.93 362.74 363.58 362.74L363.57 362.75Z" fill="#053793"/>
</g>
<defs>
<filter id="filter0_d_68_3302" x="28.0076" y="43.726" width="1010.58" height="685.095" filterUnits="userSpaceOnUse" color-interpolation-filters="sRGB">
<feFlood flood-opacity="0" result="BackgroundImageFix"/>
<feColorMatrix in="SourceAlpha" type="matrix" values="0 0 0 0 0 0 0 0 0 0 0 0 0 0 0 0 0 0 127 0" result="hardAlpha"/>
<feOffset dx="10.9" dy="16.7"/>
<feColorMatrix type="matrix" values="0 0 0 0 0.529412 0 0 0 0 0.27451 0 0 0 0 0.137255 0 0 0 1 0"/>
<feBlend mode="normal" in2="BackgroundImageFix" result="effect1_dropShadow_68_3302"/>
<feBlend mode="normal" in="SourceGraphic" in2="effect1_dropShadow_68_3302" result="shape"/>
</filter>
<clipPath id="clip0_68_3302">
<rect width="571.43" height="129.99" fill="white" transform="translate(247 153)"/>
</clipPath>
<clipPath id="clip1_68_3302">
<rect width="777.38" height="208.78" fill="white" transform="translate(104 283)"/>
</clipPath>
</defs>
</svg>
