<svg width="789" height="624" viewBox="0 0 789 624" fill="none" xmlns="http://www.w3.org/2000/svg">
<g filter="url(#filter0_d_887_1847)">
<path d="M722.359 321.422C734.308 304.972 741.53 283.55 741.53 260.228C741.53 208.173 705.684 165.988 661.434 165.988C617.185 165.988 652.506 166.427 648.173 167.304C629.462 113.568 577.925 74.9656 517.263 74.9656C456.6 74.9656 485.75 77.6707 471.438 82.6422C467.105 80.522 462.575 78.6211 457.979 76.7933C432.703 49.8155 396.594 33 356.481 33C292.471 33 238.636 75.9891 222.814 134.331C217.824 133.235 212.704 132.577 207.517 132.577C178.368 132.577 152.895 150.928 138.845 178.271C130.442 173.153 120.857 170.302 110.746 170.302C76.8698 170.302 49.3616 202.617 49.3616 242.535C49.3616 282.454 53.1694 271.122 59.669 282.527V284.428C36.0999 306.946 21 341.308 21 379.837C21 447.611 67.6785 502.59 125.255 502.59C182.832 502.59 131.886 502.371 135.169 502.005C138.648 512.387 144.491 520.502 152.566 524.743C165.762 531.688 181.65 526.497 195.174 512.972C201.214 519.844 208.633 527.155 217.627 534.393C235.944 549.089 257.544 560.786 281.704 568.975C310.853 578.918 344.007 583.962 380.313 583.962C416.618 583.962 449.969 578.918 479.578 569.048C504.067 560.859 526.126 549.381 545.165 534.832C549.695 531.396 553.831 527.887 557.639 524.45C566.764 530.811 577.465 534.54 588.889 534.54C610.751 534.54 629.921 521.087 640.82 500.836C651.258 506.026 662.682 508.951 674.762 508.951C722.688 508.951 761.488 463.257 761.488 406.888C761.488 350.52 745.928 339.773 722.359 321.568V321.422Z" fill="#FFFBD2"/>
</g>
<ellipse cx="543.945" cy="135.041" rx="114.674" ry="76.8002" transform="rotate(15.3204 543.945 135.041)" fill="#FFFBD2"/>
<ellipse cx="119.5" cy="239" rx="76.5" ry="73" fill="#FFFBD2"/>
<path d="M171.894 457.112H169.195V463.59H165.061V457.112H155.444V453.732L163.796 438.618H169.11V453.357H171.81V457.112H171.894ZM165.061 453.263V448.194C165.061 446.785 165.145 444.438 165.23 443.03H165.145C164.639 444.345 163.964 445.753 163.374 447.067L159.915 453.263H165.145H165.061Z" fill="#DE5419"/>
<path d="M174.847 460.867C174.847 459.084 176.028 457.582 177.631 457.582C179.234 457.582 180.415 458.99 180.415 460.867C180.415 462.745 179.234 464.153 177.631 464.153C176.028 464.153 174.847 462.745 174.847 460.867Z" fill="#DE5419"/>
<path d="M183.367 460.586L185.476 457.394C186.826 458.802 188.429 459.928 190.453 459.928C192.478 459.928 194.25 458.708 194.25 456.455C194.25 454.202 192.984 452.418 188.007 452.418V448.851C192.141 448.851 193.49 447.255 193.49 445.002C193.49 442.749 192.394 441.904 190.453 441.81C188.851 441.81 187.501 442.655 186.235 444.063L183.958 441.059C185.898 439.181 188.091 437.961 190.707 437.961C195.093 437.961 197.962 440.308 197.962 444.626C197.962 448.945 196.612 449.32 194.165 450.353V450.541C196.696 451.292 198.636 453.451 198.636 456.737C198.636 460.022 195.009 463.965 190.707 463.965C186.404 463.965 184.717 462.463 183.198 460.492L183.367 460.586Z" fill="#DE5419"/>
<path d="M247.228 457.018C246.469 459.459 245.203 462.275 244.191 463.965C243.685 463.496 242.504 462.557 241.829 462.182C242.841 460.586 243.854 458.333 244.528 456.173L247.312 457.018H247.228ZM251.53 455.047V466.312H248.072V455.047H242.419V451.667H248.072V449.038H242.251V445.753H245.203C245.035 444.72 244.697 443.312 244.36 442.279L246.89 441.622H242.757V438.336H247.987C247.734 437.397 247.397 436.459 247.059 435.708L250.687 434.769C251.109 435.895 251.699 437.304 252.036 438.43H256.423V441.716H252.627L255.073 442.279C254.652 443.593 254.145 444.908 253.724 445.94H256.845V449.226H251.615V451.855H256.339V455.234H251.615L251.53 455.047ZM247.144 441.528C247.565 442.655 247.987 444.063 248.156 445.002L245.963 445.659H250.349C250.771 444.438 251.362 442.749 251.615 441.434H247.144V441.528ZM270.258 449.789H267.39V466.406H263.847V449.789H260.979V450.165C260.979 455.141 260.557 462.088 258.026 466.406C257.436 465.655 256.001 464.435 255.242 463.965C255.833 463.026 256.255 461.9 256.592 460.68L254.399 462.182C253.892 460.867 252.88 458.708 252.036 457.112L254.399 455.704C255.242 457.018 256.17 458.896 256.676 460.116C257.52 456.83 257.604 453.169 257.604 450.071V438.055C260.894 437.397 264.606 436.365 266.8 435.144L269.583 438.055C267.053 439.181 263.931 440.026 260.979 440.589V445.94H270.174V449.696L270.258 449.789Z" fill="#DE5419"/>
<path d="M285.612 456.83L286.287 460.398C281.984 462.463 277.345 464.528 273.717 466.124L272.114 461.994C274.223 461.243 277.092 460.21 280.213 458.99V446.973H273.211V442.936H280.213V435.52H284.009V457.488L285.696 456.83H285.612ZM295.482 461.618C296.579 461.618 296.748 460.022 297.001 454.014C297.844 454.765 299.447 455.61 300.459 455.892C300.122 462.933 299.278 465.561 295.82 465.561H292.192C288.818 465.561 287.805 464.153 287.805 459.459V435.52H291.602V442.936H299.531V446.973H291.602V459.553C291.602 461.337 291.77 461.712 292.783 461.712H295.482V461.618Z" fill="#DE5419"/>
<path d="M319.778 448.194C321.803 454.765 325.43 460.116 331.167 462.651C330.239 463.496 329.058 465.28 328.467 466.406C322.984 463.496 319.441 458.614 317.078 452.043C315.476 457.675 312.186 462.933 305.69 466.406C305.099 465.28 304.087 463.871 302.99 463.026C309.992 459.553 312.86 453.92 314.041 448.1H303.581V443.969H314.632C314.969 440.777 314.885 437.679 314.969 434.957H318.934C318.934 437.773 318.934 440.871 318.597 443.969H330.576V448.1H319.862L319.778 448.194Z" fill="#DE5419"/>
<path d="M361.705 438.524C360.608 441.81 359.259 445.565 357.993 448.569C360.608 451.573 361.115 454.296 361.115 456.455C361.115 458.614 360.608 460.68 359.427 461.524C358.921 461.994 358.162 462.276 357.318 462.463C356.643 462.557 355.631 462.557 354.703 462.463C354.703 461.337 354.366 459.647 353.775 458.614C354.534 458.614 355.125 458.708 355.715 458.614C356.137 458.614 356.643 458.52 356.897 458.333C357.487 457.957 357.656 457.112 357.656 456.079C357.656 454.202 356.981 451.761 354.534 449.132C355.378 446.692 356.475 443.312 357.234 440.683H353.353V466.594H349.81V437.585C348.882 440.12 347.87 442.561 346.52 444.814H348.798V448.288H344.242C343.568 449.132 342.977 449.977 342.302 450.728H347.786V466.031H344.327V464.716H339.434V466.406H336.144V456.173C335.638 456.549 335.132 456.924 334.625 457.206C334.204 456.361 333.191 454.671 332.516 453.826C335.216 452.418 337.662 450.541 339.771 448.288H333.276V444.814H338.59V441.998H334.625V438.524H338.59V435.238H341.965V438.524H345.086V440.214C345.677 438.993 346.098 437.773 346.605 436.459L349.81 437.398V436.74H359.09C359.09 436.646 361.705 438.43 361.705 438.43V438.524ZM344.411 453.92H339.518V456.079H344.411V453.92ZM344.411 461.524V459.084H339.518V461.524H344.411ZM342.64 444.72C343.23 443.875 343.736 442.936 344.327 441.904H342.049V444.72H342.64Z" fill="#DE5419"/>
<path d="M380.349 435.895C380.18 436.083 380.011 436.365 379.927 436.553C382.711 439.275 387.688 441.622 392.581 442.655C391.822 443.406 390.809 444.814 390.303 445.753C389.713 445.565 389.038 445.377 388.447 445.189V453.92H367.357V445.377C366.682 445.659 366.092 445.847 365.501 446.034C365.164 445.283 364.152 443.687 363.561 442.936C369.129 441.528 374.528 438.712 377.312 434.769L380.517 435.989L380.349 435.895ZM387.266 444.72C385.832 444.157 384.482 443.406 383.133 442.655V443.5H372.503V442.842C371.322 443.5 370.141 444.157 368.791 444.72H387.266ZM368.876 454.953H386.76V466.406H383.048V465.561H372.419V466.5H368.876V454.953ZM372.335 451.385C372.166 450.353 371.828 448.945 371.322 447.912L373.684 447.161H370.226V451.385H372.335ZM372.503 457.581V458.896H383.133V457.581H372.503ZM383.048 462.933V461.618H372.419V462.933H383.048ZM376.215 447.161H373.853C374.359 448.287 374.865 449.789 375.034 450.728L373.094 451.385H376.215V447.161ZM380.517 440.871C379.59 440.12 378.746 439.463 377.987 438.712C377.227 439.463 376.299 440.214 375.371 440.871H380.517ZM379.083 447.161V451.385H381.952L380.096 450.822C380.517 449.789 381.024 448.287 381.277 447.161H379.083ZM385.157 447.161H382.036L384.398 447.818C383.808 449.132 383.217 450.447 382.711 451.479H385.157V447.255V447.161Z" fill="#DE5419"/>
<path d="M405.994 437.116C403.801 442.655 400.258 448.381 396.968 451.949C396.293 451.104 394.69 449.32 393.762 448.475C396.968 445.471 400.174 440.589 402.03 435.614L406.079 437.022L405.994 437.116ZM414.515 452.7C416.961 456.455 419.745 461.243 421.264 464.341L417.552 466.5C417.13 465.561 416.624 464.435 415.949 463.214C401.27 464.529 399.161 464.716 397.727 465.28C397.474 464.435 396.799 462.182 396.209 460.961C397.221 460.68 398.065 459.741 399.246 458.239C400.511 456.831 404.307 451.01 406.754 445.377L410.972 447.349C408.61 451.949 405.741 456.455 402.789 460.116L413.924 459.271C412.912 457.582 411.984 455.798 410.972 454.296L414.515 452.512V452.7ZM415.105 435.708C416.371 440.402 419.155 445.189 422.951 447.724C422.107 448.569 420.842 450.541 420.251 451.761C416.793 448.851 414.093 444.251 412.406 439.838H407.513V435.708H415.19H415.105Z" fill="#DE5419"/>
<path d="M451.549 436.177V466.5H448.006V465.28H429.025V466.5H425.65V436.177H451.549ZM448.006 461.712V439.838H429.025V461.712H448.006ZM439.823 457.206C439.739 457.957 439.823 459.084 439.823 459.647C434.677 461.055 433.749 461.431 433.243 461.712C433.158 461.149 432.737 460.022 432.399 459.647C432.821 459.365 433.412 459.084 433.412 457.769V456.549C432.568 456.924 431.809 457.206 431.049 457.488C430.712 456.924 429.868 455.798 429.278 455.235C431.218 454.765 433.327 454.108 435.014 453.169H431.556V448.287H445.559V453.169H439.064C438.22 453.92 437.123 454.671 436.027 455.235V458.145L439.823 457.206ZM446.909 447.349H430.037V445.096H436.786V443.781H431.471V441.622H436.786V440.214H440.076V441.622H445.644V443.781H440.076V445.096H446.909V447.349ZM434.593 451.479H442.438V450.071H434.593V451.479ZM447.247 455.141C446.487 455.798 445.559 456.361 444.716 456.924C445.813 457.769 446.74 458.52 447.415 459.271L445.138 460.773C443.619 459.177 440.413 456.643 437.883 454.859L440.076 453.545C440.92 454.108 441.932 454.859 442.944 455.516C443.788 454.859 444.716 454.202 445.222 453.545L447.331 455.141H447.247Z" fill="#DE5419"/>
<path d="M468.084 459.553H472.892V443.687H468.843V440.589C471.121 440.12 472.639 439.463 474.073 438.524H477.363V459.553H481.581V463.59H468.084V459.553Z" fill="#DE5419"/>
<path d="M484.871 451.01C484.871 442.373 487.908 438.148 492.464 438.148C497.019 438.148 500.056 442.373 500.056 451.01C500.056 459.647 497.019 464.059 492.464 464.059C487.908 464.059 484.871 459.553 484.871 451.01ZM495.838 451.01C495.838 443.969 494.404 441.997 492.464 441.997C490.523 441.997 489.089 444.063 489.089 451.01C489.089 457.957 490.523 460.21 492.464 460.21C494.404 460.21 495.838 458.051 495.838 451.01Z" fill="#DE5419"/>
<path d="M503.599 448.006C503.599 446.128 504.781 444.72 506.384 444.72C507.987 444.72 509.168 446.128 509.168 448.006C509.168 449.883 507.987 451.198 506.384 451.198C504.781 451.198 503.599 449.789 503.599 448.006ZM503.599 460.867C503.599 459.084 504.781 457.581 506.384 457.581C507.987 457.581 509.168 458.99 509.168 460.867C509.168 462.745 507.987 464.153 506.384 464.153C504.781 464.153 503.599 462.745 503.599 460.867Z" fill="#DE5419"/>
<path d="M512.12 460.586L514.229 457.394C515.579 458.802 517.182 459.928 519.206 459.928C521.231 459.928 523.002 458.708 523.002 456.455C523.002 454.202 521.737 452.418 516.76 452.418V448.851C520.893 448.851 522.243 447.255 522.243 445.002C522.243 442.749 521.146 441.904 519.206 441.81C517.603 441.81 516.254 442.655 514.988 444.063L512.71 441.059C514.651 439.181 516.844 437.961 519.459 437.961C523.846 437.961 526.714 440.308 526.714 444.626C526.714 448.945 525.364 449.32 522.918 450.353V450.541C525.449 451.292 527.389 453.451 527.389 456.737C527.389 460.022 523.762 463.965 519.459 463.965C515.157 463.965 513.47 462.463 511.951 460.492L512.12 460.586Z" fill="#DE5419"/>
<path d="M530.51 451.01C530.51 442.373 533.547 438.148 538.103 438.148C542.658 438.148 545.695 442.373 545.695 451.01C545.695 459.647 542.658 464.059 538.103 464.059C533.547 464.059 530.51 459.553 530.51 451.01ZM541.562 451.01C541.562 443.969 540.128 441.997 538.187 441.997C536.247 441.997 534.813 444.063 534.813 451.01C534.813 457.957 536.247 460.21 538.187 460.21C540.128 460.21 541.562 458.051 541.562 451.01Z" fill="#DE5419"/>
<path d="M548.648 452.136H556.915V455.704H548.648V452.136Z" fill="#DE5419"/>
<path d="M560.88 459.553H565.689V443.687H561.639V440.589C563.917 440.12 565.436 439.463 566.87 438.524H570.16V459.553H574.378V463.59H560.88V459.553Z" fill="#DE5419"/>
<path d="M577.077 460.68L579.186 457.488C580.452 458.896 582.055 460.022 584.164 460.022C586.273 460.022 588.129 458.333 588.129 455.422C588.129 452.512 586.61 450.916 584.332 450.916C582.055 450.916 582.223 451.292 580.958 452.23L578.933 450.728L579.524 438.618H591.587V442.749H583.404L582.983 448.1C583.826 447.63 584.67 447.349 585.682 447.349C589.478 447.349 592.6 449.883 592.6 455.328C592.6 460.773 588.888 464.153 584.754 464.153C580.621 464.153 578.849 462.557 577.162 460.773L577.077 460.68Z" fill="#DE5419"/>
<path d="M596.312 448.006C596.312 446.128 597.493 444.72 599.096 444.72C600.699 444.72 601.88 446.128 601.88 448.006C601.88 449.883 600.699 451.198 599.096 451.198C597.493 451.198 596.312 449.789 596.312 448.006ZM596.312 460.867C596.312 459.084 597.493 457.581 599.096 457.581C600.699 457.581 601.88 458.99 601.88 460.867C601.88 462.745 600.699 464.153 599.096 464.153C597.493 464.153 596.312 462.745 596.312 460.867Z" fill="#DE5419"/>
<path d="M605.422 451.01C605.422 442.373 608.459 438.148 613.015 438.148C617.57 438.148 620.607 442.373 620.607 451.01C620.607 459.647 617.57 464.059 613.015 464.059C608.459 464.059 605.422 459.553 605.422 451.01ZM616.389 451.01C616.389 443.969 614.955 441.997 613.015 441.997C611.075 441.997 609.64 444.063 609.64 451.01C609.64 457.957 611.075 460.21 613.015 460.21C614.955 460.21 616.389 458.051 616.389 451.01Z" fill="#DE5419"/>
<path d="M623.307 451.01C623.307 442.373 626.344 438.148 630.899 438.148C635.455 438.148 638.492 442.373 638.492 451.01C638.492 459.647 635.455 464.059 630.899 464.059C626.344 464.059 623.307 459.553 623.307 451.01ZM634.358 451.01C634.358 443.969 632.924 441.997 630.984 441.997C629.043 441.997 627.609 444.063 627.609 451.01C627.609 457.957 629.043 460.21 630.984 460.21C632.924 460.21 634.358 458.051 634.358 451.01Z" fill="#DE5419"/>
<path d="M219.389 467.063C227.356 467.063 233.815 459.876 233.815 451.01C233.815 442.144 227.356 434.957 219.389 434.957C211.422 434.957 204.963 442.144 204.963 451.01C204.963 459.876 211.422 467.063 219.389 467.063Z" fill="#DE5419"/>
<path d="M226.222 443.594V457.582H224.282V456.549H215.087V457.675H213.231V443.594H226.307H226.222ZM224.198 454.577V452.7C223.944 452.7 223.691 452.7 223.438 452.7H222.089C220.654 452.7 220.317 451.855 220.317 450.071V445.565H218.799C218.799 449.79 218.377 452.324 215.93 453.732C215.762 453.263 215.255 452.512 214.918 452.137V454.484H224.113L224.198 454.577ZM215.002 445.565V452.137C216.858 450.916 217.027 449.039 217.027 445.565H215.002ZM224.198 445.565H222.089V450.165C222.089 450.728 222.089 451.01 222.426 451.01H223.438C223.691 451.01 224.029 451.01 224.282 451.01V445.659L224.198 445.565Z" fill="white"/>
<g clip-path="url(#clip0_887_1847)">
<path d="M182.959 207.832L183.967 201.485C192.3 194.322 198.655 188.148 203.033 182.98C207.411 177.803 209.914 173.203 210.551 169.172C211.003 166.337 210.699 164.136 209.655 162.57C208.603 161.003 206.899 160.22 204.529 160.22C201.581 160.22 198.24 162.108 194.507 165.892L190.085 159.924C192.959 157.039 195.707 154.92 198.337 153.576C200.966 152.233 203.907 151.565 207.174 151.565C211.87 151.565 215.403 153.123 217.766 156.231C220.136 159.338 220.914 163.46 220.099 168.587C218.766 176.995 211.648 187.2 198.752 199.185C202.122 198.79 204.862 198.592 206.959 198.592H217.692L216.225 207.849H182.959V207.832Z" fill="#E95513"/>
<path d="M250.98 206.077C247.195 211.056 242.714 213.537 237.521 213.537C232.329 213.537 228.625 211.047 226.395 206.077C224.166 201.098 223.788 193.959 225.262 184.653C226.736 175.347 229.351 168.282 233.114 163.46C236.877 158.638 241.358 156.223 246.565 156.223C251.773 156.223 255.491 158.638 257.728 163.46C259.958 168.282 260.335 175.355 258.861 184.653C257.387 193.951 254.758 201.098 250.973 206.077H250.98ZM234.558 184.843C232.432 198.254 233.862 204.956 238.847 204.956C243.832 204.956 247.388 198.254 249.513 184.843C251.639 171.431 250.21 164.729 245.225 164.729C240.24 164.729 236.684 171.431 234.558 184.843Z" fill="#E95513"/>
<path d="M261.965 203.167L262.972 196.82C271.306 189.656 277.661 183.482 282.039 178.314C286.416 173.137 288.92 168.538 289.557 164.507C290.009 161.671 289.705 159.47 288.661 157.904C287.609 156.338 285.905 155.555 283.535 155.555C280.587 155.555 277.246 157.443 273.513 161.226L269.091 155.258C271.965 152.373 274.713 150.255 277.343 148.911C279.972 147.567 282.913 146.9 286.179 146.9C290.876 146.9 294.409 148.458 296.772 151.565C299.142 154.673 299.92 158.794 299.105 163.922C297.772 172.33 290.653 182.534 277.757 194.52C281.128 194.124 283.868 193.926 285.965 193.926H296.698L295.231 203.183H261.965V203.167Z" fill="#E95513"/>
<path d="M315.253 207.948C308.586 207.948 303.401 205.434 299.683 200.405L305.357 193.39C308.209 197.125 311.557 198.988 315.401 198.988C318.038 198.988 320.305 198.089 322.201 196.3C324.097 194.512 325.29 192.022 325.801 188.84C326.305 185.658 325.934 183.194 324.69 181.455C323.445 179.715 321.549 178.841 319.001 178.841C317.571 178.841 316.32 179.056 315.246 179.476C314.171 179.897 312.786 180.655 311.097 181.751L307.127 178.471L312.727 151.598H339.289L337.823 160.855H319.779L316.986 172.577C319.164 171.53 321.238 171.011 323.201 171.011C327.63 171.011 331.045 172.503 333.46 175.487C335.875 178.471 336.615 182.872 335.69 188.7C334.764 194.52 332.341 199.185 328.408 202.697C324.475 206.208 320.097 207.956 315.268 207.956L315.253 207.948Z" fill="#E95513"/>
<path d="M391.844 163.963C392.437 178.487 398.459 188.164 409.784 193.201L411.421 184.612C403.881 180.754 399.829 173.871 399.14 163.955H414.903L416.214 157.08H387.37L389.511 145.878H415.621L416.918 139.151H390.807L393.088 129.507H385.289L383.007 139.151H357.052L355.763 145.878H381.726L379.578 157.08H350.897L349.586 163.955H365.17C362.096 173.278 355.519 180.391 345.26 185.263L343.719 193.341C350.371 190.901 356.482 187.134 361.993 181.867C366.474 177.721 370.015 171.794 372.563 163.955H378.266L367.022 215.935H374.815L386.066 163.955H391.859L391.844 163.963Z" fill="#E95513" stroke="white" stroke-width="8.26" stroke-linecap="round" stroke-linejoin="round"/>
<path d="M471.339 208.978L472.887 200.389C463.791 196.886 456.724 191.816 451.695 185.271C457.472 183.243 461.894 180.441 464.917 176.929C466.813 180.507 469.724 183.416 473.568 185.502L475.005 177.556C471.724 175.833 469.687 173.03 468.917 169.288C468.998 168.81 469.176 168.348 469.257 167.87L470.272 162.182H463.183L462.102 168.183C461.198 172.7 457.813 176.055 452.006 178.256L450.932 184.257C449.643 182.534 448.458 180.663 447.487 178.561L450.902 159.594H479.924L481.279 152.043H452.272L455.191 136.019H447.124L444.228 152.043H416.725L415.362 159.594H442.873L439.88 176.146C438.369 179.179 436.265 182.056 433.717 184.711L435.006 177.547C431.651 175.825 429.651 173.162 428.895 169.444C428.984 168.966 429.154 168.414 429.258 167.862L430.288 162.174H423.184L422.11 168.175C421.214 172.692 417.829 176.047 412.014 178.248L410.673 185.65C416.977 183.474 421.703 180.589 424.925 176.921C426.68 180.432 429.451 183.235 433.221 185.263C427.199 191.264 418.214 196.407 406.37 200.694L404.91 208.805C418.718 204.28 429.54 198.114 437.295 190.481L430.169 229.85H438.221L445.184 189.549C451.124 198.196 460.087 204.675 471.339 208.962" fill="#E95513"/>
<path d="M471.339 208.978L472.887 200.389C463.791 196.886 456.724 191.816 451.695 185.271C457.472 183.243 461.894 180.441 464.917 176.929C466.813 180.507 469.724 183.416 473.568 185.502L475.005 177.556C471.724 175.833 469.687 173.03 468.917 169.288C468.998 168.81 469.176 168.348 469.257 167.87L470.272 162.182H463.183L462.102 168.183C461.198 172.7 457.813 176.055 452.006 178.256L450.932 184.257C449.643 182.534 448.458 180.663 447.487 178.561L450.902 159.594H479.924L481.279 152.043H452.272L455.191 136.019H447.124L444.228 152.043H416.725L415.362 159.594H442.873L439.88 176.146C438.369 179.179 436.265 182.056 433.717 184.711L435.006 177.547C431.651 175.825 429.651 173.162 428.895 169.444C428.984 168.966 429.154 168.414 429.258 167.862L430.288 162.174H423.184L422.11 168.175C421.214 172.692 417.829 176.047 412.014 178.248L410.673 185.65C416.977 183.474 421.703 180.589 424.925 176.921C426.68 180.432 429.451 183.235 433.221 185.263C427.199 191.264 418.214 196.407 406.37 200.694L404.91 208.805C418.718 204.28 429.54 198.114 437.295 190.481L430.169 229.85H438.221L445.184 189.549C451.124 198.196 460.087 204.675 471.339 208.962" stroke="white" stroke-width="8.26" stroke-linecap="round" stroke-linejoin="round"/>
<path d="M576.692 168.299L577.914 162.43C584.159 159.05 590.796 154.59 596.677 149.982L598.951 139.481L553.981 139.357L552.093 148.466H585.536C580.885 151.788 575.248 155.258 570.47 157.574L568.24 168.299H541.211L539.3 177.481H566.322L562.5 195.847C562.226 197.158 561.67 197.545 560.152 197.619C558.907 197.685 551.448 197.693 547.33 197.504L545.285 207.288C551.641 207.288 563.115 207.247 563.3 207.247C567.233 207.247 569.789 203.422 570.774 198.641L574.781 177.481H601.262L603.173 168.299H576.692Z" fill="#E95513" stroke="white" stroke-width="8.26" stroke-linecap="round" stroke-linejoin="round"/>
<path d="M514.523 144.147H505.375C505.153 142.605 504.797 140.924 504.434 139.349H496.153L495.842 139.44C496.101 140.825 496.361 142.531 496.568 144.147H485.924L484.368 151.631H512.96L514.516 144.147H514.523Z" fill="#E95513" stroke="white" stroke-width="8.26" stroke-linecap="round" stroke-linejoin="round"/>
<path d="M481.531 185.922C480.99 187.571 476.42 192.377 474.205 192.748C474.205 192.748 472.457 202.071 472.516 202.071C477.05 200.076 485.012 192.871 487.805 186.095L481.531 185.922Z" fill="#E95513" stroke="white" stroke-width="8.26" stroke-linecap="round" stroke-linejoin="round"/>
<path d="M505.901 195.229C505.39 192.451 504.442 189.055 503.56 185.84L497.471 185.988C498.19 188.28 498.834 192.327 499.308 195.229H505.901Z" fill="#E95513" stroke="white" stroke-width="8.26" stroke-linecap="round" stroke-linejoin="round"/>
<path d="M517.619 176.237L518.612 171.456H531.441L530.449 176.237H517.619ZM521.101 159.495H533.93L532.938 164.284H520.108L521.101 159.495ZM523.575 147.609H536.404L535.412 152.39H522.582L523.575 147.609ZM532.049 192.962C530.901 197.751 530.819 199.466 529.575 199.466H527.804C527.056 199.466 526.967 199.235 527.382 197.224L530.093 184.183H536.441L545.715 139.58H518.004L508.731 184.183H512.212C510.168 191.462 507.39 197.57 499.746 200.372L498.005 208.78C510.368 206.695 516.375 195.666 519.649 184.183H522.723L519.997 197.306C518.456 204.717 519.153 207.264 524.886 207.264H528.841C535.093 207.264 535.819 203.521 538.656 192.962H532.049Z" fill="#E95513" stroke="white" stroke-width="8.26" stroke-linecap="round" stroke-linejoin="round"/>
<path d="M503.731 151.796L503.716 151.788V151.796H503.731Z" fill="#E95513" stroke="white" stroke-width="8.26" stroke-linecap="round" stroke-linejoin="round"/>
<path d="M510.634 153.511H503.094C502.034 156.297 500.605 159.528 499.383 162.133H480.953L479.353 169.848H492.39L491.286 175.174H478.931L477.339 182.815H489.694L484.346 208.517H491.716L497.064 182.815H506.827L508.412 175.174H498.649L499.76 169.848H510.612L512.219 162.133H506.212C507.56 159.536 509.057 156.561 510.642 153.511" fill="#E95513"/>
<path d="M510.634 153.511H503.094C502.034 156.297 500.605 159.528 499.383 162.133H480.953L479.353 169.848H492.39L491.286 175.174H478.931L477.339 182.815H489.694L484.346 208.517H491.716L497.064 182.815H506.827L508.412 175.174H498.649L499.76 169.848H510.612L512.219 162.133H506.212C507.56 159.536 509.057 156.561 510.642 153.511" stroke="white" stroke-width="8.26" stroke-linecap="round" stroke-linejoin="round"/>
<path d="M494.442 161.548C494.531 159.792 494.494 155.942 494.257 153.684H487.561L487.405 153.717C487.627 155.654 487.694 159.462 487.635 161.548H494.435H494.442Z" fill="#E95513" stroke="white" stroke-width="8.26" stroke-linecap="round" stroke-linejoin="round"/>
<path d="M391.844 163.963C392.437 178.487 398.459 188.164 409.784 193.201L411.421 184.612C403.881 180.754 399.829 173.871 399.14 163.955H414.903L416.214 157.08H387.37L389.511 145.878H415.621L416.918 139.151H390.807L393.088 129.507H385.289L383.007 139.151H357.052L355.763 145.878H381.726L379.578 157.08H350.897L349.586 163.955H365.17C362.096 173.278 355.519 180.391 345.26 185.263L343.719 193.341C350.371 190.901 356.482 187.134 361.993 181.867C366.474 177.721 370.015 171.794 372.563 163.955H378.266L367.022 215.935H374.815L386.066 163.955H391.859L391.844 163.963Z" fill="#E95513"/>
<path d="M471.339 208.978L472.887 200.389C463.791 196.886 456.724 191.816 451.695 185.271C457.472 183.243 461.894 180.441 464.917 176.929C466.813 180.507 469.724 183.416 473.568 185.502L475.005 177.556C471.724 175.833 469.687 173.03 468.917 169.288C468.998 168.81 469.176 168.348 469.257 167.87L470.272 162.182H463.183L462.102 168.183C461.198 172.7 457.813 176.055 452.006 178.256L450.932 184.257C449.643 182.534 448.458 180.663 447.487 178.561L450.902 159.594H479.924L481.279 152.043H452.272L455.191 136.019H447.124L444.228 152.043H416.725L415.362 159.594H442.873L439.88 176.146C438.369 179.179 436.265 182.056 433.717 184.711L435.006 177.547C431.651 175.825 429.651 173.162 428.895 169.444C428.984 168.966 429.154 168.414 429.258 167.862L430.288 162.174H423.184L422.11 168.175C421.214 172.692 417.829 176.047 412.014 178.248L410.673 185.65C416.977 183.474 421.703 180.589 424.925 176.921C426.68 180.432 429.451 183.235 433.221 185.263C427.199 191.264 418.214 196.407 406.37 200.694L404.91 208.805C418.718 204.28 429.54 198.114 437.295 190.481L430.169 229.85H438.221L445.184 189.549C451.124 198.196 460.087 204.675 471.339 208.962" fill="#E95513"/>
<path d="M576.692 168.299L577.914 162.43C584.159 159.05 590.796 154.59 596.677 149.982L598.951 139.481L553.981 139.357L552.093 148.466H585.536C580.885 151.788 575.248 155.258 570.47 157.574L568.24 168.299H541.211L539.3 177.481H566.322L562.5 195.847C562.226 197.158 561.67 197.545 560.152 197.619C558.907 197.685 551.448 197.693 547.33 197.504L545.285 207.288C551.641 207.288 563.115 207.247 563.3 207.247C567.233 207.247 569.789 203.422 570.774 198.641L574.781 177.481H601.262L603.173 168.299H576.692Z" fill="#E95513"/>
<path d="M514.523 144.147H505.375C505.153 142.605 504.797 140.924 504.434 139.349H496.153L495.842 139.44C496.101 140.825 496.361 142.531 496.568 144.147H485.924L484.368 151.631H512.96L514.516 144.147H514.523Z" fill="#E95513"/>
<path d="M481.531 185.922C480.99 187.571 476.42 192.377 474.205 192.748C474.205 192.748 472.457 202.071 472.516 202.071C477.05 200.076 485.012 192.871 487.805 186.095L481.531 185.922Z" fill="#E95513"/>
<path d="M505.901 195.229C505.39 192.451 504.442 189.055 503.56 185.84L497.471 185.988C498.19 188.28 498.834 192.327 499.308 195.229H505.901Z" fill="#E95513"/>
<path d="M517.619 176.237L518.612 171.456H531.441L530.449 176.237H517.619ZM521.101 159.495H533.93L532.938 164.284H520.108L521.101 159.495ZM523.575 147.609H536.404L535.412 152.39H522.582L523.575 147.609ZM532.049 192.962C530.901 197.751 530.819 199.466 529.575 199.466H527.804C527.056 199.466 526.967 199.235 527.382 197.224L530.093 184.183H536.441L545.715 139.58H518.004L508.731 184.183H512.212C510.168 191.462 507.39 197.57 499.746 200.372L498.005 208.78C510.368 206.695 516.375 195.666 519.649 184.183H522.723L519.997 197.306C518.456 204.717 519.153 207.264 524.886 207.264H528.841C535.093 207.264 535.819 203.521 538.656 192.962H532.049Z" fill="#E95513"/>
<path d="M503.731 151.796L503.716 151.788V151.796H503.731Z" fill="#E95513"/>
<path d="M510.634 153.511H503.094C502.034 156.297 500.605 159.528 499.383 162.133H480.953L479.353 169.848H492.39L491.286 175.174H478.931L477.339 182.815H489.694L484.346 208.517H491.716L497.064 182.815H506.827L508.412 175.174H498.649L499.76 169.848H510.612L512.219 162.133H506.212C507.56 159.536 509.057 156.561 510.642 153.511" fill="#E95513"/>
<path d="M494.442 161.548C494.531 159.792 494.494 155.942 494.257 153.684H487.561L487.405 153.717C487.627 155.654 487.694 159.462 487.635 161.548H494.435H494.442Z" fill="#E95513"/>
</g>
<path d="M216.828 372.766C213.863 372.668 210.268 372.616 206.05 372.616C202.027 372.518 198.665 372.413 195.948 372.316C193.231 372.218 191.775 372.165 191.58 372.165V370.732C191.58 369.876 191.678 368.946 191.88 367.94C191.903 367.752 191.933 367.542 191.956 367.355L213.503 291.965L171.211 292.873H150.73L144.853 292.573L145.003 290.764C145.206 290.367 145.379 289.331 145.529 287.672C145.679 286.014 145.956 284.182 146.354 282.171L146.744 279.98L218.561 273.885V257.757H218.261L218.179 253.314L97.5106 257.607V284.167L122.72 282.028C122.488 284.288 122.255 286.524 122.007 288.738C121.557 292.806 120.927 296.956 120.124 301.174C120.026 302.082 119.771 303.433 119.373 305.242C118.968 307.051 118.57 308.859 118.165 310.668C117.865 312.68 117.489 314.691 117.032 316.695C116.581 318.706 116.251 320.417 116.048 321.821C115.951 323.029 115.748 324.485 115.448 326.189C115.148 327.9 114.893 329.454 114.697 330.865C114.495 332.17 114.292 333.754 114.097 335.615C113.894 337.477 113.744 339.36 113.647 341.267C113.549 343.173 113.467 345.087 113.422 346.993C113.369 348.899 113.346 350.611 113.346 352.119L113.647 355.286H169.725V356.795C169.725 357.298 169.65 358.303 169.5 359.812C169.35 361.32 169.17 363.032 168.975 364.938L168.524 371.272L166.265 371.723C164.854 372.023 163.098 372.173 160.989 372.173C158.88 372.173 156.366 372.225 153.454 372.323C150.535 372.421 146.647 372.503 141.769 372.548C136.89 372.601 130.991 372.623 124.056 372.623L93 372.473V401.345L223.087 391.101C223.635 391.071 223.995 391.048 224.153 391.018C224.153 390.921 224.205 389.99 224.303 388.226C224.4 386.47 224.453 384.384 224.453 381.967V373.074H222.344C221.638 372.976 219.807 372.871 216.843 372.773L216.828 372.766ZM154.79 338.242H137.753L138.053 337.334C138.151 337.034 138.331 335.9 138.579 333.942C138.827 331.983 139.157 329.746 139.562 327.232C140.065 323.712 140.493 320.823 140.845 318.564C141.198 316.305 141.468 314.473 141.671 313.062C141.874 312.259 141.971 311.554 141.971 310.953C141.971 310.353 142.024 309.798 142.121 309.295C142.722 308.994 145.941 308.694 151.773 308.387C154.685 308.184 157.627 308.064 160.591 308.011C163.556 307.959 166.648 307.884 169.86 307.786H175.287L175.136 308.694C174.836 310.503 174.228 315.329 173.328 323.164C172.825 327.187 172.45 330.399 172.194 332.816C171.939 335.225 171.767 336.884 171.669 337.792C171.669 338.092 166.04 338.242 154.782 338.242H154.79Z" fill="#053793"/>
<path d="M676.609 379.551C675.25 379.551 674.425 379.453 674.125 379.25C673.824 379.25 673.974 378.297 674.575 376.383C674.777 375.58 675.025 374.83 675.325 374.124C675.626 373.419 675.776 373.021 675.776 372.916C675.776 372.211 672.158 370.755 664.923 368.548C664.623 368.548 664.345 368.601 664.098 368.698C663.842 368.796 663.572 368.901 663.272 368.998C663.175 369.299 662.769 370.027 662.064 371.182C661.358 372.338 660.653 373.667 659.955 375.175L656.938 380.601H642.01L641.41 378.643C641.207 378.042 641.004 377.314 640.809 376.459C640.607 375.603 640.359 374.822 640.059 374.124C639.758 373.419 639.533 372.841 639.383 372.391C639.233 371.94 639.053 371.715 638.858 371.715H634.332C633.424 371.715 632.576 371.738 631.773 371.79C630.97 371.843 630.415 371.918 630.114 372.015C629.814 372.015 629.289 372.038 628.531 372.091C627.78 372.143 626.947 372.166 626.047 372.166H622.579L623.029 373.374C623.33 374.177 623.682 375.513 624.088 377.367C624.485 379.228 624.838 380.556 625.146 381.359C625.446 381.66 624.996 381.84 623.787 381.885C622.579 381.937 619.72 381.96 615.194 381.96L605.242 382.26V405.113L688.91 396.73V379.693L681.825 379.543H676.624L676.609 379.551Z" fill="#053793"/>
<path d="M604.702 333.424C603.343 332.02 601.707 330.309 599.801 328.298C597.692 326.189 595.883 324.358 594.375 322.797C592.866 321.243 591.965 320.312 591.658 320.005C591.358 319.404 591.207 318.976 591.207 318.721C591.207 318.466 591.41 318.046 591.808 317.438C592.108 317.138 592.461 316.762 592.866 316.305C593.264 315.854 593.617 315.479 593.924 315.171C594.525 314.263 595.305 312.815 596.258 310.803C597.212 308.792 597.94 307.036 598.442 305.527C598.54 305.024 598.668 304.597 598.818 304.244C598.968 303.891 599.043 303.621 599.043 303.418C599.245 303.216 599.471 302.765 599.718 302.06C599.966 301.354 600.191 300.506 600.394 299.501C600.596 298.495 600.792 297.519 600.994 296.559C601.197 295.605 601.294 294.825 601.294 294.224C601.595 292.213 601.797 290.232 601.895 288.273C601.992 286.314 602.045 284.88 602.045 283.98C602.045 283.274 602.067 282.877 602.12 282.772C602.173 282.674 602.293 282.869 602.495 283.372C602.495 283.777 602.518 283.747 602.57 283.297C602.623 282.847 602.645 281.968 602.645 280.655C602.848 279.552 602.946 278.621 602.946 277.863V276.58C602.946 276.377 601.887 276.129 599.778 275.829C597.669 275.529 595.155 275.229 592.243 274.921C591.035 274.921 589.954 274.846 589.001 274.696C588.048 274.546 587.47 274.418 587.267 274.321C587.252 274.276 587.237 274.223 587.222 274.178L592.536 253.291L566.771 257.284L567.221 260.001C567.319 260.909 567.574 262.185 567.972 263.844C568.369 265.502 568.775 267.183 569.18 268.894C569.578 270.703 569.885 272.212 570.088 273.42C570.291 274.628 570.388 275.281 570.388 275.379C570.388 275.679 569.96 275.829 569.105 275.829H564.654C562.943 275.732 561.412 275.627 560.054 275.529C558.695 275.431 557.817 275.379 557.412 275.379H555.753V277.938C555.753 278.644 555.806 279.747 555.903 281.255C556.001 282.764 556.106 284.273 556.203 285.781L556.504 291.207L560.571 291.057C561.78 290.855 563.363 290.734 565.322 290.682C567.281 290.629 569.112 290.607 570.823 290.607C572.632 290.404 574.313 290.284 575.874 290.232C577.428 290.179 578.516 290.157 579.117 290.157C580.52 289.856 581.301 290.007 581.451 290.607C581.601 291.207 581.121 292.566 580.017 294.675C579.514 295.68 578.861 297.061 578.058 298.818C577.255 300.574 576.497 302.21 575.799 303.718C574.996 305.325 574.141 306.961 573.24 308.619C572.339 310.278 571.581 311.659 570.981 312.762C569.975 314.271 568.692 315.907 567.138 317.663C565.577 319.419 563.949 321.183 562.238 322.939C560.526 324.695 558.77 326.331 556.961 327.84C555.153 329.349 553.494 330.557 551.985 331.457C550.777 332.163 550.177 332.613 550.177 332.816C550.274 333.019 550.702 333.972 551.46 335.683C552.211 337.394 553.044 339.15 553.944 340.959C554.245 341.762 554.597 342.543 555.003 343.293C555.4 344.044 555.656 344.727 555.753 345.327C556.459 346.633 557.006 347.286 557.412 347.286C557.915 347.286 558.62 347.061 559.521 346.61C560.421 346.16 561.404 345.605 562.463 344.952C563.521 344.299 564.572 343.571 565.63 342.768C566.688 341.965 567.566 341.214 568.272 340.509L570.08 338.7C570.08 339 570.133 340.636 570.231 343.601C570.291 345.402 570.351 347.496 570.411 349.875L566.763 401.338H595.455L592.694 344.884L591.162 344.164L591.185 343.676L592.694 344.884C592.994 345.184 593.444 345.59 594.052 346.093C594.652 346.595 595.208 347.001 595.711 347.301L597.519 348.509L598.878 346.7C601.49 343.181 603.501 340.599 604.904 338.94C606.308 337.282 607.013 336.253 607.013 335.848C606.811 335.645 606.03 334.842 604.679 333.439L604.702 333.424Z" fill="#053793"/>
<path d="M683.168 333.124H660.33C657.666 333.124 655.001 333.146 652.337 333.199C649.673 333.251 647.083 333.296 644.577 333.349C642.063 333.401 639.804 333.477 637.792 333.574C633.874 333.574 630.129 333.649 626.564 333.799C622.999 333.949 620.463 334.024 618.954 334.024L613.978 334.174V340.051C614.076 342.062 614.181 344.374 614.278 346.986C614.376 349.598 614.526 352.615 614.729 356.03C614.931 359.444 615.052 362.109 615.104 364.023C615.157 365.929 615.232 367.092 615.329 367.49C615.329 367.587 616.883 367.565 620.005 367.415C623.12 367.265 627.09 367.137 631.916 367.04C634.325 366.942 636.816 366.837 639.376 366.739C641.935 366.642 644.427 366.537 646.836 366.439C649.245 366.342 651.534 366.267 653.696 366.214C655.857 366.161 657.688 366.139 659.197 366.139C663.722 365.839 668.09 365.539 672.308 365.231C676.526 364.923 679.941 364.525 682.56 364.023L683.919 363.872V354.528C683.919 352.014 683.866 349.275 683.769 346.31C683.671 343.346 683.619 340.959 683.619 339.15L683.168 333.124ZM667.19 354.078L650.911 353.928C646.085 353.928 642.093 353.876 638.925 353.778C635.758 353.68 634.025 353.628 633.724 353.628C633.221 353.425 632.974 352.622 632.974 351.219C632.974 350.618 632.951 349.935 632.899 349.185C632.846 348.434 632.824 347.751 632.824 347.151L632.523 345.042H649.71L667.197 344.892V354.086L667.19 354.078Z" fill="#053793"/>
<path d="M607.186 324.148V329.649H609.745C610.451 329.649 611.554 329.626 613.062 329.574C614.571 329.521 616.177 329.401 617.888 329.199C619.194 328.996 620.98 328.846 623.239 328.748C625.499 328.651 628.238 328.546 631.458 328.448C640.599 328.246 649.673 328.073 658.671 327.923C667.663 327.773 676.736 327.698 685.885 327.698C686.591 327.698 687.116 327.675 687.469 327.623C687.821 327.57 688.069 327.322 688.219 326.872C688.369 326.422 688.444 325.716 688.444 324.763V317.453L686.335 317.753C685.735 317.753 684.504 317.776 682.643 317.828C680.782 317.881 678.695 318.009 676.384 318.204H670.732C668.173 318.204 665.156 318.226 661.688 318.279C658.221 318.331 654.423 318.354 650.311 318.354H637.499L606.743 318.204L607.043 321.071C607.141 321.979 607.193 323.007 607.193 324.163L607.186 324.148Z" fill="#053793"/>
<path d="M609.303 314.729H614.278C616.688 314.729 619.802 314.676 623.622 314.578H637.042C637.244 314.578 638.55 314.526 640.959 314.428C643.369 314.331 646.386 314.226 650.003 314.128C657.336 313.926 663.617 313.73 668.849 313.528C674.072 313.325 677.442 313.077 678.95 312.777C679.551 312.575 680.234 312.455 680.984 312.402C681.735 312.349 682.463 312.327 683.168 312.327C683.769 312.327 684.377 312.274 684.977 312.177C685.578 312.079 686.133 311.974 686.636 311.877L687.544 311.426L693 261.592L670.312 262.388C670.207 262.358 670.117 262.32 670.057 262.283H668.698C668.601 262.185 668.496 261.757 668.398 260.999C668.301 260.249 668.346 259.168 668.548 257.757C668.548 256.549 668.496 255.55 668.398 254.74C668.301 253.937 668.196 253.531 668.098 253.531H666.139C665.028 253.531 663.73 253.584 662.221 253.682C660.51 253.682 658.979 253.734 657.621 253.832C656.262 253.929 655.437 253.982 655.137 253.982L653.778 254.132V262.958L645.898 263.236C645.65 262.56 645.56 261.337 645.635 259.558C645.635 258.65 645.613 257.824 645.56 257.074C645.508 256.323 645.485 255.746 645.485 255.34L645.035 253.682L637.95 253.982C636.043 253.982 634.407 254.057 633.049 254.207C631.69 254.357 630.91 254.432 630.715 254.432C630.715 254.53 630.692 255.085 630.64 256.091C630.587 257.096 630.565 258.252 630.565 259.558L630.302 263.784L609.01 264.534V284.355C609.01 286.614 608.987 288.881 608.935 291.14C608.882 293.399 608.86 295.56 608.86 297.624V303.276C608.762 305.888 608.68 307.974 608.635 309.535C608.582 311.096 608.56 312.274 608.56 313.077C608.56 313.881 608.612 314.383 608.71 314.586C608.807 314.789 609.01 314.841 609.31 314.736L609.303 314.729ZM630.557 297.091C630.557 298.502 630.505 299.681 630.407 300.634C630.31 301.587 630.204 302.165 630.107 302.368H622.572V297.842C622.474 296.438 622.444 295.283 622.497 294.375C622.549 293.466 622.669 292.971 622.872 292.866C623.075 292.566 624.425 292.416 626.94 292.416L630.707 292.566L630.557 297.091ZM631.008 281.713H622.864V278.997C622.864 278.291 622.887 277.638 622.939 277.038C622.992 276.437 623.112 276.032 623.315 275.829C623.517 275.627 623.893 275.507 624.448 275.454C624.996 275.402 625.626 275.379 626.332 275.379H630.099C630.497 275.582 630.752 275.859 630.85 276.205C630.947 276.557 631 277.435 631 278.846V281.713H631.008ZM653.17 301.009L645.935 301.459V292.416H649.553L652.87 292.566L653.17 296.934V301.002V301.009ZM652.712 281.263C652.21 281.263 651.632 281.316 650.979 281.413C650.326 281.511 649.598 281.563 648.795 281.563L646.386 282.014V278.096C646.386 277.188 646.408 276.362 646.461 275.612C646.513 274.861 646.536 274.433 646.536 274.328C646.738 274.126 647.159 274.028 647.819 274.028H650.153L653.621 274.328V277.646L653.771 281.263H652.712ZM674.575 296.183C674.477 297.392 674.425 298.367 674.425 299.125C674.425 299.883 674.327 300.356 674.125 300.559C674.027 300.656 673.674 300.739 673.066 300.784C672.466 300.837 671.836 300.837 671.183 300.784C670.53 300.731 669.922 300.686 669.374 300.634C668.819 300.581 668.443 300.559 668.241 300.559C668.143 300.356 668.091 299.808 668.091 298.9C668.091 297.992 668.143 297.039 668.241 296.033L668.541 291.965H671.408L674.575 292.116V296.183ZM668.091 281.263V273.12H674.117V281.713H672.759C672.459 281.713 672.053 281.691 671.55 281.638C671.048 281.586 670.492 281.563 669.892 281.563L668.083 281.263H668.091Z" fill="#053793"/>
<path d="M542.432 308.477C542.026 308.477 541.276 308.454 540.172 308.402C539.062 308.349 537.508 308.274 535.497 308.177C533.485 308.079 531.602 308.026 529.845 308.026H519.668L519.818 302C519.818 299.283 519.894 297.504 520.044 296.649C520.194 295.793 520.569 295.17 521.177 294.765C521.68 294.262 522.385 293.331 523.286 291.973C524.186 290.614 525.095 289.181 526.003 287.68C528.112 284.663 529.92 282.254 531.429 280.445C532.938 278.636 534.446 277.383 535.955 276.677C537.463 275.469 538.214 274.771 538.214 274.568C538.514 273.165 538.664 270.553 538.664 266.733C538.664 264.827 538.641 263.168 538.589 261.757C538.536 260.354 538.461 259.198 538.364 258.29C538.364 257.584 538.289 256.886 538.139 256.181C537.988 255.475 537.763 255.078 537.463 254.972C537.366 254.672 536.735 254.47 535.579 254.372C534.424 254.274 532.487 254.169 529.778 254.072C527.669 254.072 525.327 254.019 522.768 253.922C520.209 253.824 518.017 253.719 516.208 253.622C514.602 253.419 512.614 253.321 510.257 253.321C507.9 253.321 505.806 253.419 503.998 253.622C502.189 253.622 499.547 253.697 496.08 253.847C492.612 253.997 489.167 254.072 485.753 254.072L473.241 254.522L473.542 258.29C473.939 262.815 474.217 266.208 474.367 268.467C474.517 270.726 474.69 271.957 474.893 272.159H477.302C478.007 272.159 478.855 272.137 479.861 272.084C480.867 272.032 481.97 271.957 483.178 271.859C488.304 271.559 493.505 271.311 498.782 271.109C504.058 270.906 509.259 270.808 514.385 270.808C514.385 270.906 514.085 271.334 513.477 272.092C512.869 272.85 512.216 273.773 511.518 274.884C510.407 276.092 509.334 277.368 508.276 278.726C507.217 280.085 506.339 281.263 505.634 282.269C504.831 283.379 503.975 284.483 503.074 285.586C502.166 286.697 501.416 287.65 500.815 288.453C500.215 289.256 499.66 290.014 499.157 290.712C498.654 291.417 498.249 291.92 497.948 292.221C497.746 292.723 497.573 293.752 497.423 295.313C497.273 296.874 497.198 299.005 497.198 301.722C497.198 302.833 497.175 303.884 497.123 304.889C497.07 305.895 496.995 306.796 496.898 307.606C496.898 308.011 496.92 308.387 496.973 308.739C497.025 309.092 496.95 309.467 496.748 309.873C496.545 310.075 495.187 310.173 492.68 310.173H483.186L469.917 310.323V319.367L469.616 328.41L483.186 328.26L496.605 327.81L496.305 338.813C496.305 342.032 496.282 345.072 496.23 347.931C496.177 350.798 496.05 352.885 495.854 354.191C495.854 355.602 495.832 357.305 495.779 359.317C495.727 361.328 495.599 363.234 495.404 365.043C495.404 366.949 495.382 368.511 495.329 369.719C495.277 370.927 495.254 371.58 495.254 371.678C495.051 371.678 494.729 371.73 494.271 371.828C493.821 371.925 493.288 371.978 492.687 371.978C491.479 371.978 490.248 372.053 488.995 372.203C487.734 372.353 486.353 372.481 484.852 372.578L483.494 372.879L483.944 378.755C484.146 380.361 484.267 381.922 484.319 383.431C484.372 384.939 484.447 386.095 484.544 386.898C484.544 387.499 484.597 388.054 484.694 388.557C484.792 389.06 484.897 389.307 484.995 389.307C485.197 389.51 485.723 389.607 486.578 389.607L521.177 392.715L519.886 326.902H530.221L542.732 326.602L542.882 317.558C542.882 314.241 542.859 311.959 542.807 310.698C542.754 309.445 542.627 308.717 542.432 308.514V308.477Z" fill="#053793"/>
<path d="M468.558 360.412C467.755 359.459 466.697 358.529 465.391 357.62C465.091 357.418 464.46 356.968 463.507 356.262C462.554 355.557 461.548 354.754 460.49 353.853C459.432 352.952 458.479 352.097 457.623 351.294C456.768 350.491 456.34 349.89 456.34 349.485C456.34 349.282 456.437 348.862 456.64 348.202C456.843 347.549 457.188 346.768 457.698 345.867C458.404 344.156 459.177 342.025 460.032 339.458C460.888 336.899 461.466 334.812 461.766 333.199L463.125 327.772C463.83 325.056 464.408 322.069 464.858 318.804C465.309 315.539 465.789 312.349 466.292 309.235C466.689 305.317 467.095 301.85 467.5 298.833C467.898 295.816 468.153 294.157 468.251 293.857C468.453 293.857 468.723 293.782 469.076 293.632C469.429 293.481 469.857 293.406 470.359 293.406L472.318 293.106V285.721C472.416 283.612 472.468 281.953 472.468 280.745C472.468 279.537 472.371 278.659 472.168 278.103C471.966 277.555 471.613 277.225 471.11 277.12C470.607 277.023 469.902 277.023 469.001 277.12H466.892L466.742 274.103C466.742 272.197 466.592 271.086 466.292 270.786C466.292 270.583 465.766 270.486 464.708 270.486C463.65 270.486 461.068 270.583 456.948 270.786L450.921 270.936V274.403C451.019 275.709 450.996 276.565 450.846 276.963C450.696 277.368 450.418 277.615 450.02 277.713C449.72 277.811 449.142 277.863 448.287 277.863C447.431 277.863 446.501 277.841 445.495 277.788C444.489 277.736 443.461 277.691 442.403 277.638C441.345 277.585 440.414 277.563 439.611 277.563V277.413C439.611 277.315 439.633 277.21 439.686 277.113C439.738 277.015 439.761 276.91 439.761 276.812C440.061 275.904 440.414 274.253 440.819 271.837C441.217 269.427 441.622 266.658 442.028 263.543C442.23 261.532 442.425 259.753 442.628 258.192C442.831 256.639 443.026 255.708 443.228 255.4C443.326 254.897 443.431 254.395 443.529 253.892C443.626 253.389 443.731 252.886 443.829 252.383C443.829 251.377 443.679 250.649 443.378 250.199C443.078 249.749 442.425 249.419 441.42 249.216C439.408 248.916 437.502 248.668 435.693 248.465C433.884 248.263 432.023 248.068 430.117 247.865C428.008 247.767 426.649 247.737 426.049 247.79C425.449 247.843 425.043 248.12 424.841 248.616C424.638 248.916 424.435 249.674 424.24 250.875C424.038 252.083 423.79 253.486 423.49 255.093C423.084 257.201 422.687 259.363 422.281 261.577C421.876 263.791 421.501 265.847 421.148 267.761C420.795 269.668 420.473 271.379 420.165 272.887C419.857 274.396 419.61 275.552 419.414 276.355L418.964 278.464L406.753 278.914L406.903 282.982C406.903 284.19 406.956 285.541 407.053 287.049C407.151 288.558 407.256 289.811 407.354 290.817L407.654 294.735L411.421 294.885C413.831 294.885 415.189 295.035 415.489 295.335V296.844C415.489 297.647 415.437 298.6 415.339 299.711C415.137 300.919 414.934 302.6 414.739 304.762C414.536 306.923 414.333 309.055 414.138 311.171C414.138 312.582 414.011 314.638 413.763 317.355C413.508 320.072 413.11 322.887 412.555 325.799C411.999 328.718 411.369 331.45 410.671 334.017C409.965 336.576 409.162 338.415 408.262 339.518C407.962 339.923 407.857 340.246 407.962 340.501C408.059 340.756 408.464 341.079 409.17 341.484C409.673 341.785 410.453 342.212 411.504 342.768C412.562 343.323 413.59 343.901 414.596 344.501C415.804 345.102 417.238 345.785 418.889 346.535C420.54 347.286 422.079 347.969 423.49 348.569C426.402 349.575 428.316 350.356 429.216 350.903C429.914 351.331 430.334 351.714 430.5 352.052C423.903 362.401 413.876 374.019 401.342 375.866L420.33 405.113C420.33 405.113 436.564 388.579 446.133 368.541C446.328 368.638 446.666 368.833 447.154 369.148C447.859 369.599 448.707 370.282 449.713 371.182C452.024 373.291 453.878 374.905 455.289 376.008C456.693 377.119 457.953 378.072 459.057 378.875L460.865 380.083L462.224 377.975C462.622 377.374 462.974 376.766 463.282 376.166C463.59 375.565 463.83 375.213 464.033 375.108C464.13 374.807 464.46 374.199 465.016 373.299C465.564 372.391 466.149 371.392 466.75 370.282C468.153 367.565 469.136 365.711 469.692 364.705C470.239 363.7 470.367 362.897 470.067 362.296C469.864 361.996 469.361 361.366 468.558 360.412ZM447.454 295.515C447.356 295.815 447.304 296.191 447.304 296.649C447.304 297.106 447.206 297.579 447.003 298.082C446.906 299.193 446.726 300.566 446.478 302.225C446.223 303.884 446.05 305.467 445.953 306.976C445.855 307.981 445.547 309.918 445.045 312.777C444.542 315.644 443.934 318.631 443.236 321.746C442.53 324.86 441.825 327.727 441.127 330.339C440.421 332.951 439.821 334.557 439.318 335.165C439.221 335.165 439.04 335.143 438.793 335.09C438.538 335.037 438.267 334.917 437.967 334.715C437.667 334.617 437.112 334.264 436.309 333.657C435.506 333.056 434.552 332.351 433.442 331.548C432.436 330.639 431.58 329.889 430.882 329.289C430.177 328.688 429.824 328.23 429.824 327.93C429.824 327.833 429.899 327.427 430.049 326.722C430.199 326.016 430.425 325.318 430.725 324.613C431.025 323.209 431.4 321.348 431.858 319.036C432.308 316.725 432.639 314.211 432.841 311.501C433.044 309.49 433.239 308.484 433.442 308.484C433.644 308.387 433.764 307.959 433.817 307.201C433.869 306.45 433.989 305.52 434.192 304.409C434.192 303.201 434.245 301.925 434.342 300.566C434.44 299.208 434.59 298.03 434.793 297.024L435.243 293.556L441.119 293.857C442.928 293.857 444.407 293.879 445.57 293.932C446.726 293.984 447.356 294.112 447.454 294.307V295.515Z" fill="#053793"/>
<path d="M366.143 284.13C364.237 284.13 362.45 284.108 360.792 284.055C359.163 284.002 357.76 283.98 356.566 283.98L361.497 254.507H355.073C354.923 254.357 354.607 254.282 354.09 254.282C353.684 254.184 352.934 254.109 351.83 254.057C350.72 254.004 349.496 253.982 348.138 253.982C346.779 253.982 345.376 254.004 343.92 254.057C342.464 254.109 341.128 254.184 339.927 254.282C338.817 254.282 338.119 254.357 337.818 254.507C337.518 254.657 337.466 254.935 337.668 255.333C337.571 256.541 337.413 258.372 337.218 260.834C337.015 263.296 336.768 266.388 336.467 270.103C336.167 273.923 335.942 276.985 335.792 279.297C335.642 281.608 335.514 283.267 335.417 284.273C335.417 284.573 335.116 284.798 334.509 284.948C333.901 285.098 332.55 285.278 330.441 285.474C328.73 285.474 327.476 285.549 326.673 285.699C325.87 285.849 325.367 285.976 325.165 286.074C325.067 286.779 325.067 288.888 325.165 292.408C325.165 295.823 325.315 298.09 325.615 299.193C325.615 299.493 325.915 299.696 326.523 299.793C327.123 299.891 328.279 299.943 329.99 299.943C331.199 299.846 332.122 299.793 332.782 299.793C333.443 299.793 333.886 299.973 334.141 300.319C334.388 300.671 334.464 301.272 334.366 302.127C334.268 302.983 334.066 304.214 333.766 305.82C333.36 309.738 333.038 313.055 332.782 315.772C332.527 318.489 332.302 320.65 332.107 322.256C331.807 324.665 331.326 327.532 330.673 330.85C330.02 334.167 329.315 337.507 328.564 340.877C327.814 344.246 326.981 347.489 326.08 350.603C325.172 353.718 324.272 356.33 323.363 358.439C323.266 358.844 322.883 359.872 322.23 361.531C321.577 363.189 320.849 364.976 320.046 366.882C319.243 368.788 318.485 370.575 317.787 372.233C317.382 373.194 317.059 373.959 316.819 374.53L314.17 368.541L293.771 371.16C293.598 370.575 293.515 369.456 293.515 367.79L293.365 363.872H303.767C307.482 363.872 310.177 363.797 311.835 363.647C313.494 363.497 314.32 363.37 314.32 363.272C314.522 363.069 314.642 362.364 314.695 361.163C314.747 359.955 314.77 358.604 314.77 357.095V351.219L312.511 351.069C311.911 351.069 310.605 351.016 308.593 350.919C306.582 350.821 304.375 350.716 301.959 350.618C299.347 350.618 297.26 350.543 295.699 350.393C294.138 350.243 293.26 350.168 293.058 350.168C292.652 349.568 292.457 348.509 292.457 347.001C292.457 345.492 292.607 344.592 292.907 344.284C293.005 344.081 294.266 343.961 296.675 343.909C299.084 343.856 301.951 343.834 305.268 343.834H317.329V342.175C317.329 341.875 317.352 341.297 317.404 340.441C317.457 339.586 317.532 338.46 317.629 337.049C317.727 335.646 317.832 333.732 317.93 331.323C318.53 323.99 318.958 317.476 319.213 311.802C319.461 306.128 319.491 301.475 319.288 297.857V295.898L317.029 295.598C316.429 295.598 315.04 295.575 312.886 295.523C310.725 295.47 308.286 295.35 305.576 295.148C302.964 295.148 300.6 295.125 298.491 295.073C296.382 295.02 295.024 294.9 294.424 294.697L292.615 294.547L293.065 291.53C293.065 291.328 293.088 290.855 293.14 290.097C293.193 289.346 293.268 288.866 293.365 288.663C293.763 288.566 294.671 288.461 296.082 288.363C297.486 288.265 299.497 288.16 302.109 288.063C304.721 287.965 306.98 287.89 308.893 287.838C310.8 287.785 312.458 287.763 313.869 287.763H317.937V277.06L306.477 277.36H294.266C293.966 277.36 293.816 277.06 293.816 276.452V272.835C293.913 272.234 293.966 271.657 293.966 271.101C293.966 270.546 294.018 270.073 294.116 269.668C294.116 268.962 294.168 268.512 294.266 268.309C294.363 268.212 294.919 268.159 295.925 268.159C296.427 268.062 296.983 267.956 297.583 267.859C298.184 267.761 298.889 267.656 299.692 267.559C301.298 267.356 302.859 267.161 304.368 266.958C305.876 266.756 307.032 266.606 307.835 266.508C308.541 266.508 309.314 266.455 310.169 266.358C311.025 266.26 311.753 266.208 312.353 266.208H314.162L313.862 261.082C313.809 260.354 313.757 259.663 313.704 259.018L312.744 244L250.541 258.973L250.691 266.058V269.6C250.691 270.351 250.713 271.086 250.766 271.784C250.819 272.49 250.894 272.992 250.991 273.293C250.991 273.495 251.644 273.39 252.95 272.992C253.753 272.895 255.592 272.692 258.451 272.392C261.311 272.092 265.911 271.536 272.246 270.733L274.805 270.283V279.627L273.597 279.327C273.094 279.327 272.036 279.304 270.429 279.252C268.823 279.199 266.609 279.124 263.795 279.027C260.981 278.929 258.339 278.854 255.877 278.801C253.415 278.749 251.074 278.726 248.867 278.726L247.359 278.426L247.509 284.761V289.286C247.509 290.494 247.606 291.192 247.809 291.395C250.121 291.395 252.432 291.32 254.744 291.17C257.055 291.02 259.314 290.847 261.528 290.645C265.544 290.547 268.861 290.442 271.48 290.344C274.092 290.247 275.548 290.292 275.848 290.494C276.651 290.494 276.801 291.553 276.299 293.662C276.299 295.17 276.223 296.101 276.073 296.454C275.923 296.806 275.646 296.979 275.248 296.979H249.768L250.218 320.8C250.218 327.532 250.271 333.161 250.368 337.687C250.466 342.213 250.571 344.622 250.668 344.922H263.18L275.691 344.472L275.841 345.68C275.938 346.085 275.991 346.686 275.991 347.489C275.991 348.292 275.968 349.072 275.916 349.823C275.863 350.573 275.818 351.256 275.766 351.857C275.713 352.457 275.691 352.862 275.691 353.065C275.488 353.065 274.632 353.118 273.131 353.215C271.623 353.313 269.814 353.365 267.705 353.365C265.596 353.365 263.21 353.313 260.845 353.215C258.481 353.118 256.552 353.065 255.044 353.065H250.218V358.791C250.421 360.398 250.518 361.861 250.518 363.159V366.477H255.494C256.8 366.477 258.706 366.424 261.221 366.327C263.735 366.229 266.144 366.124 268.456 366.026L276.599 365.726L276.299 370.094V373.441L250.668 376.729V405.158L312.706 382.883C312.233 383.724 311.805 384.452 311.423 385.022L310.214 386.681L312.931 388.639C313.839 389.24 314.815 389.9 315.873 390.598C316.931 391.304 318.005 391.979 319.115 392.632C320.219 393.285 321.247 393.863 322.208 394.366C323.161 394.869 323.941 395.221 324.542 395.424C325.45 395.927 326.073 395.972 326.425 395.574C326.778 395.169 327.409 393.863 328.309 391.657C328.812 390.553 329.443 389.247 330.193 387.739C330.944 386.23 331.672 384.722 332.377 383.213C333.285 381.202 334.261 378.92 335.319 376.354C336.377 373.787 337.428 371.1 338.486 368.285C339.545 365.471 340.543 362.582 341.503 359.617C342.457 356.652 343.29 353.815 343.988 351.099C344.288 349.387 344.663 347.759 345.121 346.198C345.571 344.644 345.849 343.458 345.946 342.655C346.547 340.847 347.08 339.038 347.53 337.229C347.98 335.42 348.356 333.439 348.663 331.278L353.797 300.604C354.87 300.506 356.469 300.454 358.615 300.454L364.492 300.604L356.821 401.383H363.839L384.313 405.166L390.137 284.198H373.153C371.299 284.183 368.972 284.175 366.143 284.175V284.13ZM266.797 313.978C266.797 313.07 266.85 312.192 266.947 311.336C267.045 310.481 267.097 309.753 267.097 309.152V307.193H276.141V315.937C276.141 316.44 274.535 316.687 271.315 316.687H266.639L266.79 313.971L266.797 313.978ZM276.299 334.933L271.773 334.782C270.565 334.782 269.514 334.707 268.606 334.557C267.698 334.407 267.195 334.332 267.097 334.332C266.797 334.032 266.647 332.726 266.647 330.414V326.797H276.141V328.155C276.141 328.456 276.163 329.033 276.216 329.889C276.269 330.745 276.291 331.525 276.291 332.223V334.94L276.299 334.933ZM302.529 326.189C302.529 326.489 302.507 327.015 302.454 327.773C302.401 328.523 302.274 329.356 302.079 330.257L301.628 333.424H297.411C296.202 333.424 295.151 333.371 294.243 333.274C293.335 333.176 292.787 333.124 292.585 333.124C292.285 333.026 292.104 332.696 292.059 332.141C292.007 331.593 291.984 330.557 291.984 329.048V325.281H302.537V326.189H302.529ZM293.328 305.535H297.928C298.882 305.535 299.79 305.557 300.645 305.61C301.501 305.662 302.079 305.737 302.379 305.835C302.882 305.933 303.032 307.291 302.829 309.903V313.971L297.553 313.67C296.247 313.67 295.069 313.648 294.011 313.595C292.952 313.543 292.427 313.423 292.427 313.22C292.224 313.22 292.127 312.845 292.127 312.087V309.445C292.33 307.734 292.45 306.653 292.502 306.203C292.555 305.752 292.825 305.527 293.328 305.527V305.535Z" fill="#053793"/>
<defs>
<filter id="filter0_d_887_1847" x="21" y="33" width="751.388" height="567.662" filterUnits="userSpaceOnUse" color-interpolation-filters="sRGB">
<feFlood flood-opacity="0" result="BackgroundImageFix"/>
<feColorMatrix in="SourceAlpha" type="matrix" values="0 0 0 0 0 0 0 0 0 0 0 0 0 0 0 0 0 0 127 0" result="hardAlpha"/>
<feOffset dx="10.9" dy="16.7"/>
<feColorMatrix type="matrix" values="0 0 0 0 0.529412 0 0 0 0 0.27451 0 0 0 0 0.137255 0 0 0 1 0"/>
<feBlend mode="normal" in2="BackgroundImageFix" result="effect1_dropShadow_887_1847"/>
<feBlend mode="normal" in="SourceGraphic" in2="effect1_dropShadow_887_1847" result="shape"/>
</filter>
<clipPath id="clip0_887_1847">
<rect width="423.273" height="107.152" fill="white" transform="translate(182.959 126.119)"/>
</clipPath>
</defs>
</svg>
