<svg width="789" height="624" viewBox="0 0 789 624" fill="none" xmlns="http://www.w3.org/2000/svg">
<g filter="url(#filter0_d_113_3559)">
<path d="M722.22 324.466C734.17 308.016 741.393 286.594 741.393 263.272C741.393 211.217 705.542 169.032 661.285 169.032C617.029 169.032 652.355 169.471 648.021 170.348C629.308 116.612 577.763 78.0093 517.09 78.0093C456.418 78.0093 485.572 80.7144 471.258 85.6859C466.924 83.5657 462.394 81.6648 457.797 79.837C432.517 52.8592 396.403 36.0437 356.283 36.0437C292.262 36.0437 238.419 79.0328 222.594 137.375C217.604 136.279 212.482 135.621 207.295 135.621C178.141 135.621 152.664 153.971 138.612 181.315C130.207 176.197 120.621 173.346 110.508 173.346C76.6267 173.346 49.1141 205.661 49.1141 245.579C49.1141 285.498 52.9225 274.165 59.4231 285.571V287.472C35.8503 309.99 20.7479 344.352 20.7479 382.881C20.7479 450.655 67.4339 505.634 125.02 505.634C182.606 505.634 131.652 505.415 134.935 505.049C138.415 515.431 144.259 523.546 152.335 527.786C165.534 534.732 181.424 529.541 194.95 516.016C200.991 522.888 208.411 530.199 217.407 537.437C235.727 552.132 257.33 563.83 281.494 572.018C310.648 581.962 343.807 587.006 380.119 587.006C416.43 587.006 449.786 581.962 479.4 572.092C503.892 563.903 525.955 552.425 544.997 537.876C549.528 534.44 553.664 530.93 557.473 527.494C566.6 533.855 577.303 537.583 588.728 537.583C610.594 537.583 629.767 524.131 640.667 503.879C651.107 509.07 662.533 511.995 674.615 511.995C722.548 511.995 761.355 466.3 761.355 409.932C761.355 353.564 745.793 342.816 722.22 324.612V324.466Z" fill="#FFFBD2"/>
</g>
<path d="M171.92 457.112H169.22V463.59H165.086V457.112H155.467V453.732L163.82 438.618H169.136V453.357H171.836V457.112H171.92ZM165.086 453.263V448.194C165.086 446.785 165.17 444.438 165.255 443.03H165.17C164.664 444.345 163.989 445.753 163.398 447.067L159.939 453.263H165.17H165.086Z" fill="#DE5419"/>
<path d="M174.873 460.867C174.873 459.084 176.054 457.582 177.658 457.582C179.261 457.582 180.442 458.99 180.442 460.867C180.442 462.745 179.261 464.153 177.658 464.153C176.054 464.153 174.873 462.745 174.873 460.867Z" fill="#DE5419"/>
<path d="M183.395 460.586L185.504 457.394C186.854 458.802 188.457 459.928 190.482 459.928C192.507 459.928 194.279 458.708 194.279 456.455C194.279 454.202 193.014 452.418 188.036 452.418V448.851C192.17 448.851 193.52 447.255 193.52 445.002C193.52 442.749 192.423 441.904 190.482 441.81C188.879 441.81 187.529 442.655 186.264 444.063L183.986 441.059C185.926 439.181 188.12 437.961 190.735 437.961C195.123 437.961 197.992 440.308 197.992 444.626C197.992 448.945 196.642 449.32 194.195 450.353V450.541C196.726 451.292 198.667 453.451 198.667 456.737C198.667 460.022 195.039 463.965 190.735 463.965C186.432 463.965 184.745 462.463 183.226 460.492L183.395 460.586Z" fill="#DE5419"/>
<path d="M247.266 457.018C246.507 459.459 245.241 462.275 244.229 463.965C243.722 463.496 242.541 462.557 241.866 462.182C242.879 460.586 243.891 458.333 244.566 456.173L247.351 457.018H247.266ZM251.569 455.047V466.312H248.11V455.047H242.457V451.667H248.11V449.038H242.288V445.753H245.241C245.072 444.72 244.735 443.312 244.397 442.279L246.929 441.622H242.794V438.336H248.026C247.772 437.397 247.435 436.459 247.097 435.708L250.725 434.769C251.147 435.895 251.738 437.304 252.075 438.43H256.463V441.716H252.666L255.113 442.279C254.691 443.593 254.185 444.908 253.763 445.94H256.885V449.226H251.654V451.855H256.379V455.234H251.654L251.569 455.047ZM247.182 441.528C247.604 442.655 248.026 444.063 248.194 445.002L246.001 445.659H250.388C250.81 444.438 251.4 442.749 251.654 441.434H247.182V441.528ZM270.3 449.789H267.432V466.406H263.888V449.789H261.019V450.165C261.019 455.141 260.597 462.088 258.066 466.406C257.475 465.655 256.041 464.435 255.282 463.965C255.872 463.026 256.294 461.9 256.632 460.68L254.438 462.182C253.932 460.867 252.919 458.708 252.075 457.112L254.438 455.704C255.282 457.018 256.21 458.896 256.716 460.116C257.56 456.83 257.644 453.169 257.644 450.071V438.055C260.935 437.397 264.647 436.365 266.841 435.144L269.625 438.055C267.094 439.181 263.972 440.026 261.019 440.589V445.94H270.216V449.696L270.3 449.789Z" fill="#DE5419"/>
<path d="M285.656 456.83L286.331 460.398C282.028 462.463 277.388 464.528 273.759 466.124L272.156 461.994C274.266 461.243 277.134 460.21 280.256 458.99V446.973H273.253V442.936H280.256V435.52H284.053V457.488L285.741 456.83H285.656ZM295.528 461.618C296.625 461.618 296.794 460.022 297.047 454.014C297.89 454.765 299.494 455.61 300.506 455.892C300.169 462.933 299.325 465.561 295.865 465.561H292.237C288.862 465.561 287.85 464.153 287.85 459.459V435.52H291.647V442.936H299.578V446.973H291.647V459.553C291.647 461.337 291.816 461.712 292.828 461.712H295.528V461.618Z" fill="#DE5419"/>
<path d="M319.828 448.194C321.853 454.765 325.481 460.116 331.218 462.651C330.29 463.496 329.109 465.28 328.518 466.406C323.034 463.496 319.49 458.614 317.128 452.043C315.525 457.675 312.234 462.933 305.737 466.406C305.147 465.28 304.134 463.871 303.037 463.026C310.04 459.553 312.909 453.92 314.09 448.1H303.628V443.969H314.681C315.018 440.777 314.934 437.679 315.018 434.957H318.984C318.984 437.773 318.984 440.871 318.647 443.969H330.628V448.1H319.912L319.828 448.194Z" fill="#DE5419"/>
<path d="M361.762 438.524C360.665 441.81 359.315 445.565 358.049 448.569C360.665 451.573 361.171 454.296 361.171 456.455C361.171 458.614 360.665 460.68 359.484 461.524C358.977 461.994 358.218 462.276 357.374 462.463C356.699 462.557 355.687 462.557 354.759 462.463C354.759 461.337 354.421 459.647 353.83 458.614C354.59 458.614 355.18 458.708 355.771 458.614C356.193 458.614 356.699 458.52 356.952 458.333C357.543 457.957 357.712 457.112 357.712 456.079C357.712 454.202 357.037 451.761 354.59 449.132C355.434 446.692 356.53 443.312 357.29 440.683H353.409V466.594H349.865V437.585C348.937 440.12 347.924 442.561 346.574 444.814H348.852V448.288H344.296C343.621 449.132 343.031 449.977 342.356 450.728H347.84V466.031H344.381V464.716H339.487V466.406H336.196V456.173C335.69 456.549 335.184 456.924 334.678 457.206C334.256 456.361 333.243 454.671 332.568 453.826C335.268 452.418 337.715 450.541 339.824 448.288H333.328V444.814H338.643V441.998H334.678V438.524H338.643V435.238H342.018V438.524H345.14V440.214C345.731 438.993 346.152 437.773 346.659 436.459L349.865 437.398V436.74H359.146C359.146 436.646 361.762 438.43 361.762 438.43V438.524ZM344.465 453.92H339.571V456.079H344.465V453.92ZM344.465 461.524V459.084H339.571V461.524H344.465ZM342.693 444.72C343.284 443.875 343.79 442.936 344.381 441.904H342.102V444.72H342.693Z" fill="#DE5419"/>
<path d="M380.408 435.895C380.239 436.083 380.071 436.365 379.986 436.553C382.771 439.275 387.749 441.622 392.642 442.655C391.883 443.406 390.871 444.814 390.364 445.753C389.774 445.565 389.099 445.377 388.508 445.189V453.92H367.415V445.377C366.74 445.659 366.149 445.847 365.558 446.034C365.221 445.283 364.208 443.687 363.618 442.936C369.186 441.528 374.586 438.712 377.371 434.769L380.577 435.989L380.408 435.895ZM387.327 444.72C385.893 444.157 384.543 443.406 383.193 442.655V443.5H372.561V442.842C371.38 443.5 370.199 444.157 368.849 444.72H387.327ZM368.933 454.953H386.821V466.406H383.108V465.561H372.477V466.5H368.933V454.953ZM372.393 451.385C372.224 450.353 371.886 448.945 371.38 447.912L373.743 447.161H370.283V451.385H372.393ZM372.561 457.581V458.896H383.193V457.581H372.561ZM383.108 462.933V461.618H372.477V462.933H383.108ZM376.274 447.161H373.911C374.418 448.287 374.924 449.789 375.093 450.728L373.152 451.385H376.274V447.161ZM380.577 440.871C379.649 440.12 378.805 439.463 378.046 438.712C377.286 439.463 376.358 440.214 375.43 440.871H380.577ZM379.143 447.161V451.385H382.011L380.155 450.822C380.577 449.789 381.083 448.287 381.336 447.161H379.143ZM385.218 447.161H382.096L384.458 447.818C383.868 449.132 383.277 450.447 382.771 451.479H385.218V447.255V447.161Z" fill="#DE5419"/>
<path d="M406.058 437.116C403.864 442.655 400.321 448.381 397.03 451.949C396.355 451.104 394.752 449.32 393.824 448.475C397.03 445.471 400.236 440.589 402.092 435.614L406.142 437.022L406.058 437.116ZM414.58 452.7C417.027 456.455 419.811 461.243 421.33 464.341L417.617 466.5C417.195 465.561 416.689 464.435 416.014 463.214C401.333 464.529 399.224 464.716 397.789 465.28C397.536 464.435 396.861 462.182 396.271 460.961C397.283 460.68 398.127 459.741 399.308 458.239C400.574 456.831 404.37 451.01 406.817 445.377L411.036 447.349C408.674 451.949 405.805 456.455 402.852 460.116L413.989 459.271C412.977 457.582 412.049 455.798 411.036 454.296L414.58 452.512V452.7ZM415.17 435.708C416.436 440.402 419.22 445.189 423.017 447.724C422.173 448.569 420.908 450.541 420.317 451.761C416.858 448.851 414.158 444.251 412.47 439.838H407.577V435.708H415.255H415.17Z" fill="#DE5419"/>
<path d="M451.62 436.177V466.5H448.076V465.28H429.092V466.5H425.717V436.177H451.62ZM448.076 461.712V439.838H429.092V461.712H448.076ZM439.892 457.206C439.808 457.957 439.892 459.084 439.892 459.647C434.745 461.055 433.817 461.431 433.311 461.712C433.226 461.149 432.805 460.022 432.467 459.647C432.889 459.365 433.48 459.084 433.48 457.769V456.549C432.636 456.924 431.876 457.206 431.117 457.488C430.78 456.924 429.936 455.798 429.345 455.235C431.286 454.765 433.395 454.108 435.083 453.169H431.623V448.287H445.629V453.169H439.133C438.289 453.92 437.192 454.671 436.095 455.235V458.145L439.892 457.206ZM446.979 447.349H430.105V445.096H436.855V443.781H431.539V441.622H436.855V440.214H440.145V441.622H445.714V443.781H440.145V445.096H446.979V447.349ZM434.661 451.479H442.508V450.071H434.661V451.479ZM447.317 455.141C446.558 455.798 445.629 456.361 444.786 456.924C445.883 457.769 446.811 458.52 447.486 459.271L445.208 460.773C443.689 459.177 440.483 456.643 437.951 454.859L440.145 453.545C440.989 454.108 442.001 454.859 443.014 455.516C443.858 454.859 444.786 454.202 445.292 453.545L447.401 455.141H447.317Z" fill="#DE5419"/>
<path d="M468.157 459.553H472.967V443.687H468.917V440.589C471.195 440.12 472.713 439.463 474.148 438.524H477.438V459.553H481.657V463.59H468.157V459.553Z" fill="#DE5419"/>
<path d="M484.948 451.01C484.948 442.373 487.985 438.148 492.541 438.148C497.098 438.148 500.135 442.373 500.135 451.01C500.135 459.647 497.098 464.059 492.541 464.059C487.985 464.059 484.948 459.553 484.948 451.01ZM495.916 451.01C495.916 443.969 494.482 441.997 492.541 441.997C490.601 441.997 489.166 444.063 489.166 451.01C489.166 457.957 490.601 460.21 492.541 460.21C494.482 460.21 495.916 458.051 495.916 451.01Z" fill="#DE5419"/>
<path d="M503.679 448.006C503.679 446.128 504.86 444.72 506.463 444.72C508.066 444.72 509.247 446.128 509.247 448.006C509.247 449.883 508.066 451.198 506.463 451.198C504.86 451.198 503.679 449.789 503.679 448.006ZM503.679 460.867C503.679 459.084 504.86 457.581 506.463 457.581C508.066 457.581 509.247 458.99 509.247 460.867C509.247 462.745 508.066 464.153 506.463 464.153C504.86 464.153 503.679 462.745 503.679 460.867Z" fill="#DE5419"/>
<path d="M512.2 460.586L514.31 457.394C515.66 458.802 517.263 459.928 519.288 459.928C521.313 459.928 523.085 458.708 523.085 456.455C523.085 454.202 521.819 452.418 516.841 452.418V448.851C520.975 448.851 522.325 447.255 522.325 445.002C522.325 442.749 521.229 441.904 519.288 441.81C517.685 441.81 516.335 442.655 515.069 444.063L512.791 441.059C514.732 439.181 516.925 437.961 519.541 437.961C523.928 437.961 526.797 440.308 526.797 444.626C526.797 448.945 525.447 449.32 523 450.353V450.541C525.532 451.292 527.472 453.451 527.472 456.737C527.472 460.022 523.844 463.965 519.541 463.965C515.238 463.965 513.55 462.463 512.032 460.492L512.2 460.586Z" fill="#DE5419"/>
<path d="M530.594 451.01C530.594 442.373 533.631 438.148 538.188 438.148C542.744 438.148 545.781 442.373 545.781 451.01C545.781 459.647 542.744 464.059 538.188 464.059C533.631 464.059 530.594 459.553 530.594 451.01ZM541.647 451.01C541.647 443.969 540.213 441.997 538.272 441.997C536.331 441.997 534.897 444.063 534.897 451.01C534.897 457.957 536.331 460.21 538.272 460.21C540.213 460.21 541.647 458.051 541.647 451.01Z" fill="#DE5419"/>
<path d="M548.734 452.136H557.003V455.704H548.734V452.136Z" fill="#DE5419"/>
<path d="M560.969 459.553H565.778V443.687H561.728V440.589C564.006 440.12 565.525 439.463 566.959 438.524H570.25V459.553H574.469V463.59H560.969V459.553Z" fill="#DE5419"/>
<path d="M577.168 460.68L579.278 457.488C580.543 458.896 582.147 460.022 584.256 460.022C586.365 460.022 588.221 458.333 588.221 455.422C588.221 452.512 586.703 450.916 584.425 450.916C582.147 450.916 582.315 451.292 581.05 452.23L579.025 450.728L579.615 438.618H591.681V442.749H583.497L583.075 448.1C583.918 447.63 584.762 447.349 585.775 447.349C589.571 447.349 592.693 449.883 592.693 455.328C592.693 460.773 588.981 464.153 584.846 464.153C580.712 464.153 578.94 462.557 577.253 460.773L577.168 460.68Z" fill="#DE5419"/>
<path d="M596.406 448.006C596.406 446.128 597.587 444.72 599.19 444.72C600.793 444.72 601.974 446.128 601.974 448.006C601.974 449.883 600.793 451.198 599.19 451.198C597.587 451.198 596.406 449.789 596.406 448.006ZM596.406 460.867C596.406 459.084 597.587 457.581 599.19 457.581C600.793 457.581 601.974 458.99 601.974 460.867C601.974 462.745 600.793 464.153 599.19 464.153C597.587 464.153 596.406 462.745 596.406 460.867Z" fill="#DE5419"/>
<path d="M605.518 451.01C605.518 442.373 608.556 438.148 613.112 438.148C617.668 438.148 620.705 442.373 620.705 451.01C620.705 459.647 617.668 464.059 613.112 464.059C608.556 464.059 605.518 459.553 605.518 451.01ZM616.487 451.01C616.487 443.969 615.052 441.997 613.112 441.997C611.171 441.997 609.737 444.063 609.737 451.01C609.737 457.957 611.171 460.21 613.112 460.21C615.052 460.21 616.487 458.051 616.487 451.01Z" fill="#DE5419"/>
<path d="M623.406 451.01C623.406 442.373 626.443 438.148 630.999 438.148C635.555 438.148 638.593 442.373 638.593 451.01C638.593 459.647 635.555 464.059 630.999 464.059C626.443 464.059 623.406 459.553 623.406 451.01ZM634.459 451.01C634.459 443.969 633.024 441.997 631.084 441.997C629.143 441.997 627.709 444.063 627.709 451.01C627.709 457.957 629.143 460.21 631.084 460.21C633.024 460.21 634.459 458.051 634.459 451.01Z" fill="#DE5419"/>
<path d="M219.423 467.063C227.391 467.063 233.851 459.876 233.851 451.01C233.851 442.144 227.391 434.957 219.423 434.957C211.454 434.957 204.995 442.144 204.995 451.01C204.995 459.876 211.454 467.063 219.423 467.063Z" fill="#DE5419"/>
<path d="M226.257 443.594V457.582H224.316V456.549H215.12V457.675H213.263V443.594H226.341H226.257ZM224.232 454.577V452.7C223.979 452.7 223.726 452.7 223.473 452.7H222.123C220.688 452.7 220.351 451.855 220.351 450.071V445.565H218.832C218.832 449.79 218.41 452.324 215.963 453.732C215.795 453.263 215.288 452.512 214.951 452.137V454.484H224.148L224.232 454.577ZM215.035 445.565V452.137C216.892 450.916 217.06 449.039 217.06 445.565H215.035ZM224.232 445.565H222.123V450.165C222.123 450.728 222.123 451.01 222.46 451.01H223.473C223.726 451.01 224.063 451.01 224.316 451.01V445.659L224.232 445.565Z" fill="white"/>
<g clip-path="url(#clip0_113_3559)">
<path d="M182.987 207.832L183.995 201.485C192.329 194.322 198.686 188.148 203.064 182.98C207.443 177.803 209.947 173.203 210.584 169.172C211.036 166.337 210.732 164.136 209.687 162.57C208.635 161.003 206.931 160.22 204.561 160.22C201.612 160.22 198.271 162.108 194.537 165.892L190.114 159.924C192.989 157.039 195.737 154.92 198.367 153.576C200.997 152.233 203.938 151.565 207.206 151.565C211.902 151.565 215.436 153.123 217.8 156.231C220.17 159.338 220.948 163.46 220.133 168.587C218.8 176.995 211.68 187.2 198.782 199.185C202.153 198.79 204.894 198.592 206.991 198.592H217.726L216.259 207.849H182.987V207.832Z" fill="#E95513"/>
<path d="M251.019 206.077C247.233 211.056 242.751 213.537 237.558 213.537C232.365 213.537 228.66 211.047 226.431 206.077C224.201 201.098 223.823 193.959 225.297 184.653C226.771 175.347 229.386 168.282 233.15 163.46C236.913 158.638 241.396 156.223 246.604 156.223C251.812 156.223 255.531 158.638 257.768 163.46C259.998 168.282 260.376 175.355 258.902 184.653C257.427 193.951 254.797 201.098 251.012 206.077H251.019ZM234.595 184.843C232.468 198.254 233.898 204.956 238.884 204.956C243.87 204.956 247.426 198.254 249.552 184.843C251.679 171.431 250.249 164.729 245.263 164.729C240.277 164.729 236.721 171.431 234.595 184.843Z" fill="#E95513"/>
<path d="M262.006 203.167L263.013 196.82C271.348 189.656 277.704 183.482 282.083 178.314C286.461 173.137 288.965 168.538 289.602 164.507C290.054 161.671 289.75 159.47 288.706 157.904C287.654 156.338 285.95 155.555 283.579 155.555C280.631 155.555 277.289 157.443 273.556 161.226L269.133 155.258C272.007 152.373 274.756 150.255 277.386 148.911C280.016 147.567 282.957 146.9 286.224 146.9C290.921 146.9 294.455 148.458 296.818 151.565C299.189 154.673 299.967 158.794 299.152 163.922C297.818 172.33 290.699 182.534 277.801 194.52C281.172 194.124 283.913 193.926 286.009 193.926H296.744L295.277 203.183H262.006V203.167Z" fill="#E95513"/>
<path d="M315.302 207.948C308.635 207.948 303.449 205.434 299.73 200.405L305.404 193.39C308.257 197.125 311.605 198.988 315.45 198.988C318.088 198.988 320.355 198.089 322.251 196.3C324.148 194.512 325.341 192.022 325.852 188.84C326.356 185.658 325.985 183.194 324.741 181.455C323.496 179.715 321.599 178.841 319.051 178.841C317.621 178.841 316.369 179.056 315.295 179.476C314.221 179.897 312.835 180.655 311.146 181.751L307.175 178.471L312.776 151.598H339.343L337.876 160.855H319.829L317.036 172.577C319.214 171.53 321.288 171.011 323.251 171.011C327.682 171.011 331.097 172.503 333.512 175.487C335.927 178.471 336.668 182.872 335.742 188.7C334.816 194.52 332.393 199.185 328.46 202.697C324.526 206.208 320.147 207.956 315.317 207.956L315.302 207.948Z" fill="#E95513"/>
<path d="M391.906 163.963C392.498 178.487 398.521 188.164 409.849 193.201L411.486 184.612C403.944 180.754 399.892 173.871 399.203 163.955H414.968L416.279 157.08H387.431L389.572 145.878H415.687L416.983 139.151H390.868L393.15 129.507H385.349L383.067 139.151H357.108L355.819 145.878H381.786L379.637 157.08H350.952L349.64 163.955H365.228C362.153 173.278 355.575 180.391 345.314 185.263L343.773 193.341C350.426 190.901 356.538 187.134 362.05 181.867C366.532 177.721 370.073 171.794 372.621 163.955H378.326L367.08 215.935H374.874L386.127 163.955H391.92L391.906 163.963Z" fill="#E95513" stroke="white" stroke-width="8.26" stroke-linecap="round" stroke-linejoin="round"/>
<path d="M471.413 208.978L472.961 200.389C463.864 196.886 456.796 191.816 451.766 185.271C457.544 183.243 461.967 180.441 464.99 176.929C466.887 180.507 469.798 183.416 473.643 185.502L475.08 177.556C471.798 175.833 469.761 173.03 468.991 169.288C469.072 168.81 469.25 168.348 469.331 167.87L470.346 162.182H463.256L462.175 168.183C461.271 172.7 457.885 176.055 452.077 178.256L451.003 184.257C449.714 182.534 448.528 180.663 447.558 178.561L450.973 159.594H479.999L481.355 152.043H452.344L455.263 136.019H447.195L444.298 152.043H416.791L415.427 159.594H442.942L439.949 176.146C438.438 179.179 436.334 182.056 433.786 184.711L435.075 177.547C431.719 175.825 429.718 173.162 428.963 169.444C429.052 168.966 429.222 168.414 429.326 167.862L430.355 162.174H423.251L422.177 168.175C421.28 172.692 417.894 176.047 412.079 178.248L410.738 185.65C417.042 183.474 421.769 180.589 424.992 176.921C426.748 180.432 429.518 183.235 433.289 185.263C427.266 191.264 418.28 196.407 406.434 200.694L404.974 208.805C418.783 204.28 429.607 198.114 437.364 190.481L430.237 229.85H438.29L445.254 189.549C451.195 198.196 460.16 204.675 471.413 208.962" fill="#E95513"/>
<path d="M471.413 208.978L472.961 200.389C463.864 196.886 456.796 191.816 451.766 185.271C457.544 183.243 461.967 180.441 464.99 176.929C466.887 180.507 469.798 183.416 473.643 185.502L475.08 177.556C471.798 175.833 469.761 173.03 468.991 169.288C469.072 168.81 469.25 168.348 469.331 167.87L470.346 162.182H463.256L462.175 168.183C461.271 172.7 457.885 176.055 452.077 178.256L451.003 184.257C449.714 182.534 448.528 180.663 447.558 178.561L450.973 159.594H479.999L481.355 152.043H452.344L455.263 136.019H447.195L444.298 152.043H416.791L415.427 159.594H442.942L439.949 176.146C438.438 179.179 436.334 182.056 433.786 184.711L435.075 177.547C431.719 175.825 429.718 173.162 428.963 169.444C429.052 168.966 429.222 168.414 429.326 167.862L430.355 162.174H423.251L422.177 168.175C421.28 172.692 417.894 176.047 412.079 178.248L410.738 185.65C417.042 183.474 421.769 180.589 424.992 176.921C426.748 180.432 429.518 183.235 433.289 185.263C427.266 191.264 418.28 196.407 406.434 200.694L404.974 208.805C418.783 204.28 429.607 198.114 437.364 190.481L430.237 229.85H438.29L445.254 189.549C451.195 198.196 460.16 204.675 471.413 208.962" stroke="white" stroke-width="8.26" stroke-linecap="round" stroke-linejoin="round"/>
<path d="M576.784 168.299L578.006 162.43C584.251 159.05 590.889 154.59 596.772 149.982L599.046 139.481L554.069 139.357L552.18 148.466H585.629C580.977 151.788 575.339 155.258 570.561 157.574L568.331 168.299H541.297L539.386 177.481H566.412L562.589 195.847C562.315 197.158 561.759 197.545 560.241 197.619C558.996 197.685 551.536 197.693 547.417 197.504L545.372 207.288C551.728 207.288 563.204 207.247 563.389 207.247C567.323 207.247 569.879 203.422 570.864 198.641L574.872 177.481H601.357L603.269 168.299H576.784Z" fill="#E95513" stroke="white" stroke-width="8.26" stroke-linecap="round" stroke-linejoin="round"/>
<path d="M514.604 144.147H505.455C505.233 142.605 504.877 140.924 504.514 139.349H496.231L495.92 139.44C496.18 140.825 496.439 142.531 496.646 144.147H486L484.445 151.631H513.041L514.597 144.147H514.604Z" fill="#E95513" stroke="white" stroke-width="8.26" stroke-linecap="round" stroke-linejoin="round"/>
<path d="M481.607 185.922C481.066 187.571 476.495 192.377 474.28 192.748C474.28 192.748 472.532 202.071 472.591 202.071C477.125 200.076 485.089 192.871 487.882 186.095L481.607 185.922Z" fill="#E95513" stroke="white" stroke-width="8.26" stroke-linecap="round" stroke-linejoin="round"/>
<path d="M505.981 195.229C505.47 192.451 504.522 189.055 503.64 185.84L497.55 185.988C498.269 188.28 498.913 192.327 499.387 195.229H505.981Z" fill="#E95513" stroke="white" stroke-width="8.26" stroke-linecap="round" stroke-linejoin="round"/>
<path d="M517.701 176.237L518.694 171.456H531.525L530.533 176.237H517.701ZM521.183 159.495H534.015L533.022 164.284H520.19L521.183 159.495ZM523.658 147.609H536.489L535.496 152.39H522.665L523.658 147.609ZM532.133 192.962C530.985 197.751 530.903 199.466 529.658 199.466H527.888C527.14 199.466 527.051 199.235 527.466 197.224L530.177 184.183H536.526L545.801 139.58H518.086L508.811 184.183H512.293C510.248 191.462 507.47 197.57 499.825 200.372L498.084 208.78C510.448 206.695 516.457 195.666 519.731 184.183H522.806L520.079 197.306C518.538 204.717 519.235 207.264 524.969 207.264H528.925C535.178 207.264 535.904 203.521 538.741 192.962H532.133Z" fill="#E95513" stroke="white" stroke-width="8.26" stroke-linecap="round" stroke-linejoin="round"/>
<path d="M503.811 151.796L503.796 151.788V151.796H503.811Z" fill="#E95513" stroke="white" stroke-width="8.26" stroke-linecap="round" stroke-linejoin="round"/>
<path d="M510.715 153.511H503.173C502.114 156.297 500.684 159.528 499.462 162.133H481.029L479.429 169.848H492.468L491.364 175.174H479.007L477.414 182.815H489.771L484.422 208.517H491.794L497.143 182.815H506.907L508.492 175.174H498.728L499.839 169.848H510.693L512.3 162.133H506.292C507.641 159.536 509.137 156.561 510.722 153.511" fill="#E95513"/>
<path d="M510.715 153.511H503.173C502.114 156.297 500.684 159.528 499.462 162.133H481.029L479.429 169.848H492.468L491.364 175.174H479.007L477.414 182.815H489.771L484.422 208.517H491.794L497.143 182.815H506.907L508.492 175.174H498.728L499.839 169.848H510.693L512.3 162.133H506.292C507.641 159.536 509.137 156.561 510.722 153.511" stroke="white" stroke-width="8.26" stroke-linecap="round" stroke-linejoin="round"/>
<path d="M494.52 161.548C494.609 159.792 494.572 155.942 494.335 153.684H487.638L487.482 153.717C487.704 155.654 487.771 159.462 487.712 161.548H494.513H494.52Z" fill="#E95513" stroke="white" stroke-width="8.26" stroke-linecap="round" stroke-linejoin="round"/>
<path d="M391.906 163.963C392.498 178.487 398.521 188.164 409.849 193.201L411.486 184.612C403.944 180.754 399.892 173.871 399.203 163.955H414.968L416.279 157.08H387.431L389.572 145.878H415.687L416.983 139.151H390.868L393.15 129.507H385.349L383.067 139.151H357.108L355.819 145.878H381.786L379.637 157.08H350.952L349.64 163.955H365.228C362.153 173.278 355.575 180.391 345.314 185.263L343.773 193.341C350.426 190.901 356.538 187.134 362.05 181.867C366.532 177.721 370.073 171.794 372.621 163.955H378.326L367.08 215.935H374.874L386.127 163.955H391.92L391.906 163.963Z" fill="#E95513"/>
<path d="M471.413 208.978L472.961 200.389C463.864 196.886 456.796 191.816 451.766 185.271C457.544 183.243 461.967 180.441 464.99 176.929C466.887 180.507 469.798 183.416 473.643 185.502L475.08 177.556C471.798 175.833 469.761 173.03 468.991 169.288C469.072 168.81 469.25 168.348 469.331 167.87L470.346 162.182H463.256L462.175 168.183C461.271 172.7 457.885 176.055 452.077 178.256L451.003 184.257C449.714 182.534 448.528 180.663 447.558 178.561L450.973 159.594H479.999L481.355 152.043H452.344L455.263 136.019H447.195L444.298 152.043H416.791L415.427 159.594H442.942L439.949 176.146C438.438 179.179 436.334 182.056 433.786 184.711L435.075 177.547C431.719 175.825 429.718 173.162 428.963 169.444C429.052 168.966 429.222 168.414 429.326 167.862L430.355 162.174H423.251L422.177 168.175C421.28 172.692 417.894 176.047 412.079 178.248L410.738 185.65C417.042 183.474 421.769 180.589 424.992 176.921C426.748 180.432 429.518 183.235 433.289 185.263C427.266 191.264 418.28 196.407 406.434 200.694L404.974 208.805C418.783 204.28 429.607 198.114 437.364 190.481L430.237 229.85H438.29L445.254 189.549C451.195 198.196 460.16 204.675 471.413 208.962" fill="#E95513"/>
<path d="M576.784 168.299L578.006 162.43C584.251 159.05 590.889 154.59 596.772 149.982L599.046 139.481L554.069 139.357L552.18 148.466H585.629C580.977 151.788 575.339 155.258 570.561 157.574L568.331 168.299H541.297L539.386 177.481H566.412L562.589 195.847C562.315 197.158 561.759 197.545 560.241 197.619C558.996 197.685 551.536 197.693 547.417 197.504L545.372 207.288C551.728 207.288 563.204 207.247 563.389 207.247C567.323 207.247 569.879 203.422 570.864 198.641L574.872 177.481H601.357L603.269 168.299H576.784Z" fill="#E95513"/>
<path d="M514.604 144.147H505.455C505.233 142.605 504.877 140.924 504.514 139.349H496.231L495.92 139.44C496.18 140.825 496.439 142.531 496.646 144.147H486L484.445 151.631H513.041L514.597 144.147H514.604Z" fill="#E95513"/>
<path d="M481.607 185.922C481.066 187.571 476.495 192.377 474.28 192.748C474.28 192.748 472.532 202.071 472.591 202.071C477.125 200.076 485.089 192.871 487.882 186.095L481.607 185.922Z" fill="#E95513"/>
<path d="M505.981 195.229C505.47 192.451 504.522 189.055 503.64 185.84L497.55 185.988C498.269 188.28 498.913 192.327 499.387 195.229H505.981Z" fill="#E95513"/>
<path d="M517.701 176.237L518.694 171.456H531.525L530.533 176.237H517.701ZM521.183 159.495H534.015L533.022 164.284H520.19L521.183 159.495ZM523.658 147.609H536.489L535.496 152.39H522.665L523.658 147.609ZM532.133 192.962C530.985 197.751 530.903 199.466 529.658 199.466H527.888C527.14 199.466 527.051 199.235 527.466 197.224L530.177 184.183H536.526L545.801 139.58H518.086L508.811 184.183H512.293C510.248 191.462 507.47 197.57 499.825 200.372L498.084 208.78C510.448 206.695 516.457 195.666 519.731 184.183H522.806L520.079 197.306C518.538 204.717 519.235 207.264 524.969 207.264H528.925C535.178 207.264 535.904 203.521 538.741 192.962H532.133Z" fill="#E95513"/>
<path d="M503.811 151.796L503.796 151.788V151.796H503.811Z" fill="#E95513"/>
<path d="M510.715 153.511H503.173C502.114 156.297 500.684 159.528 499.462 162.133H481.029L479.429 169.848H492.468L491.364 175.174H479.007L477.414 182.815H489.771L484.422 208.517H491.794L497.143 182.815H506.907L508.492 175.174H498.728L499.839 169.848H510.693L512.3 162.133H506.292C507.641 159.536 509.137 156.561 510.722 153.511" fill="#E95513"/>
<path d="M494.52 161.548C494.609 159.792 494.572 155.942 494.335 153.684H487.638L487.482 153.717C487.704 155.654 487.771 159.462 487.712 161.548H494.513H494.52Z" fill="#E95513"/>
</g>
<path d="M214.826 374.766C211.862 374.668 208.267 374.616 204.049 374.616C200.026 374.518 196.664 374.413 193.947 374.316C191.23 374.218 189.774 374.165 189.579 374.165V372.732C189.579 371.876 189.676 370.946 189.879 369.94C189.902 369.752 189.932 369.542 189.954 369.355L211.501 293.965L169.21 294.873H148.728L142.852 294.573L143.002 292.764C143.204 292.367 143.377 291.331 143.527 289.672C143.677 288.014 143.955 286.182 144.353 284.171L144.743 281.98L216.56 275.885V259.757H216.26L216.177 255.314L95.5091 259.607V286.167L120.719 284.028C120.486 286.288 120.254 288.524 120.006 290.738C119.556 294.806 118.925 298.956 118.122 303.174C118.025 304.082 117.769 305.433 117.372 307.242C116.966 309.051 116.569 310.859 116.163 312.668C115.863 314.68 115.488 316.691 115.03 318.695C114.58 320.706 114.25 322.417 114.047 323.821C113.949 325.029 113.747 326.485 113.446 328.189C113.146 329.9 112.891 331.454 112.696 332.865C112.493 334.17 112.291 335.754 112.096 337.615C111.893 339.477 111.743 341.36 111.645 343.267C111.548 345.173 111.465 347.087 111.42 348.993C111.368 350.899 111.345 352.611 111.345 354.119L111.645 357.286H167.724V358.795C167.724 359.298 167.649 360.303 167.499 361.812C167.349 363.32 167.168 365.032 166.973 366.938L166.523 373.272L164.264 373.723C162.853 374.023 161.097 374.173 158.988 374.173C156.879 374.173 154.365 374.225 151.453 374.323C148.533 374.421 144.645 374.503 139.767 374.548C134.889 374.601 128.99 374.623 122.055 374.623L90.9985 374.473V403.345L221.085 393.101C221.633 393.071 221.994 393.048 222.151 393.018C222.151 392.921 222.204 391.99 222.301 390.226C222.399 388.47 222.451 386.384 222.451 383.967V375.074H220.342C219.637 374.976 217.806 374.871 214.841 374.773L214.826 374.766ZM152.789 340.242H135.752L136.052 339.334C136.15 339.034 136.33 337.9 136.577 335.942C136.825 333.983 137.155 331.746 137.561 329.232C138.063 325.712 138.491 322.823 138.844 320.564C139.197 318.305 139.467 316.473 139.669 315.062C139.872 314.259 139.97 313.554 139.97 312.953C139.97 312.353 140.022 311.798 140.12 311.295C140.72 310.994 143.94 310.694 149.771 310.387C152.683 310.184 155.625 310.064 158.59 310.011C161.555 309.959 164.647 309.884 167.859 309.786H173.285L173.135 310.694C172.835 312.503 172.227 317.329 171.326 325.164C170.823 329.187 170.448 332.399 170.193 334.816C169.938 337.225 169.765 338.884 169.668 339.792C169.668 340.092 164.039 340.242 152.781 340.242H152.789Z" fill="#053793"/>
<path d="M674.607 381.551C673.249 381.551 672.423 381.453 672.123 381.25C671.823 381.25 671.973 380.297 672.573 378.383C672.776 377.58 673.024 376.83 673.324 376.124C673.624 375.419 673.774 375.021 673.774 374.916C673.774 374.211 670.157 372.755 662.922 370.548C662.622 370.548 662.344 370.601 662.096 370.698C661.841 370.796 661.571 370.901 661.271 370.998C661.173 371.299 660.768 372.027 660.062 373.182C659.357 374.338 658.651 375.667 657.953 377.175L654.936 382.601H640.008L639.408 380.643C639.205 380.042 639.003 379.314 638.808 378.459C638.605 377.603 638.357 376.822 638.057 376.124C637.757 375.419 637.532 374.841 637.382 374.391C637.232 373.94 637.051 373.715 636.856 373.715H632.331C631.423 373.715 630.574 373.738 629.771 373.79C628.968 373.843 628.413 373.918 628.113 374.015C627.813 374.015 627.287 374.038 626.529 374.091C625.779 374.143 624.946 374.166 624.045 374.166H620.578L621.028 375.374C621.328 376.177 621.681 377.513 622.086 379.367C622.484 381.228 622.837 382.556 623.144 383.359C623.445 383.66 622.994 383.84 621.786 383.885C620.578 383.937 617.718 383.96 613.193 383.96L603.241 384.26V407.113L686.908 398.73V381.693L679.823 381.543H674.622L674.607 381.551Z" fill="#053793"/>
<path d="M602.7 335.424C601.342 334.02 599.706 332.309 597.799 330.298C595.69 328.189 593.882 326.358 592.373 324.797C590.865 323.243 589.964 322.312 589.656 322.005C589.356 321.404 589.206 320.976 589.206 320.721C589.206 320.466 589.409 320.046 589.806 319.438C590.107 319.138 590.459 318.762 590.865 318.305C591.262 317.854 591.615 317.479 591.923 317.171C592.523 316.263 593.304 314.815 594.257 312.803C595.21 310.792 595.938 309.036 596.441 307.527C596.539 307.024 596.666 306.597 596.816 306.244C596.966 305.891 597.041 305.621 597.041 305.418C597.244 305.216 597.469 304.765 597.717 304.06C597.965 303.354 598.19 302.506 598.392 301.501C598.595 300.495 598.79 299.519 598.993 298.559C599.195 297.605 599.293 296.825 599.293 296.224C599.593 294.213 599.796 292.232 599.893 290.273C599.991 288.314 600.043 286.88 600.043 285.98C600.043 285.274 600.066 284.877 600.119 284.772C600.171 284.674 600.291 284.869 600.494 285.372C600.494 285.777 600.516 285.747 600.569 285.297C600.621 284.847 600.644 283.968 600.644 282.655C600.846 281.552 600.944 280.621 600.944 279.863V278.58C600.944 278.377 599.886 278.129 597.777 277.829C595.668 277.529 593.154 277.229 590.242 276.921C589.033 276.921 587.953 276.846 586.999 276.696C586.046 276.546 585.468 276.418 585.266 276.321C585.251 276.276 585.236 276.223 585.221 276.178L590.534 255.291L564.769 259.284L565.22 262.001C565.317 262.909 565.572 264.185 565.97 265.844C566.368 267.502 566.773 269.183 567.178 270.894C567.576 272.703 567.884 274.212 568.086 275.42C568.289 276.628 568.387 277.281 568.387 277.379C568.387 277.679 567.959 277.829 567.103 277.829H562.653C560.942 277.732 559.41 277.627 558.052 277.529C556.694 277.431 555.816 277.379 555.41 277.379H553.752V279.938C553.752 280.644 553.804 281.747 553.902 283.255C553.999 284.764 554.104 286.273 554.202 287.781L554.502 293.207L558.57 293.057C559.778 292.855 561.362 292.734 563.321 292.682C565.28 292.629 567.111 292.607 568.822 292.607C570.631 292.404 572.312 292.284 573.873 292.232C575.427 292.179 576.515 292.157 577.115 292.157C578.519 291.856 579.299 292.007 579.449 292.607C579.599 293.207 579.119 294.566 578.016 296.675C577.513 297.68 576.86 299.061 576.057 300.818C575.254 302.574 574.496 304.21 573.798 305.718C572.995 307.325 572.139 308.961 571.239 310.619C570.338 312.278 569.58 313.659 568.98 314.762C567.974 316.271 566.691 317.907 565.137 319.663C563.576 321.419 561.947 323.183 560.236 324.939C558.525 326.695 556.769 328.331 554.96 329.84C553.151 331.349 551.493 332.557 549.984 333.457C548.776 334.163 548.175 334.613 548.175 334.816C548.273 335.019 548.701 335.972 549.459 337.683C550.209 339.394 551.042 341.15 551.943 342.959C552.243 343.762 552.596 344.543 553.001 345.293C553.399 346.044 553.654 346.727 553.752 347.327C554.457 348.633 555.005 349.286 555.41 349.286C555.913 349.286 556.619 349.061 557.519 348.61C558.42 348.16 559.403 347.605 560.461 346.952C561.519 346.299 562.57 345.571 563.628 344.768C564.687 343.965 565.565 343.214 566.27 342.509L568.079 340.7C568.079 341 568.131 342.636 568.229 345.601C568.289 347.402 568.349 349.496 568.409 351.875L564.762 403.338H593.454L590.692 346.884L589.161 346.164L589.183 345.676L590.692 346.884C590.992 347.184 591.443 347.59 592.05 348.093C592.651 348.595 593.206 349.001 593.709 349.301L595.518 350.509L596.876 348.7C599.488 345.181 601.499 342.599 602.903 340.94C604.306 339.282 605.012 338.253 605.012 337.848C604.809 337.645 604.029 336.842 602.678 335.439L602.7 335.424Z" fill="#053793"/>
<path d="M681.167 335.124H658.329C655.664 335.124 653 335.146 650.336 335.199C647.671 335.251 645.082 335.296 642.575 335.349C640.061 335.401 637.802 335.477 635.791 335.574C631.873 335.574 628.128 335.649 624.563 335.799C620.998 335.949 618.461 336.024 616.953 336.024L611.977 336.174V342.051C612.074 344.062 612.179 346.374 612.277 348.986C612.375 351.598 612.525 354.615 612.727 358.03C612.93 361.444 613.05 364.109 613.103 366.023C613.155 367.929 613.23 369.092 613.328 369.49C613.328 369.587 614.881 369.565 618.003 369.415C621.118 369.265 625.088 369.137 629.914 369.04C632.323 368.942 634.815 368.837 637.374 368.739C639.934 368.642 642.425 368.537 644.834 368.439C647.244 368.342 649.533 368.267 651.694 368.214C653.856 368.161 655.687 368.139 657.195 368.139C661.721 367.839 666.089 367.539 670.307 367.231C674.525 366.923 677.94 366.525 680.559 366.023L681.917 365.872V356.528C681.917 354.014 681.865 351.275 681.767 348.31C681.67 345.346 681.617 342.959 681.617 341.15L681.167 335.124ZM665.188 356.078L648.91 355.928C644.084 355.928 640.091 355.876 636.924 355.778C633.757 355.68 632.023 355.628 631.723 355.628C631.22 355.425 630.972 354.622 630.972 353.219C630.972 352.618 630.95 351.935 630.897 351.185C630.845 350.434 630.822 349.751 630.822 349.151L630.522 347.042H647.709L665.196 346.892V356.086L665.188 356.078Z" fill="#053793"/>
<path d="M605.185 326.148V331.649H607.744C608.449 331.649 609.552 331.626 611.061 331.574C612.57 331.521 614.176 331.401 615.887 331.199C617.193 330.996 618.979 330.846 621.238 330.748C623.497 330.651 626.236 330.546 629.456 330.448C638.597 330.246 647.671 330.073 656.67 329.923C665.661 329.773 674.735 329.698 683.884 329.698C684.589 329.698 685.114 329.675 685.467 329.623C685.82 329.57 686.068 329.322 686.218 328.872C686.368 328.422 686.443 327.716 686.443 326.763V319.453L684.334 319.753C683.733 319.753 682.503 319.776 680.641 319.828C678.78 319.881 676.694 320.009 674.382 320.204H668.731C666.171 320.204 663.154 320.226 659.687 320.279C656.22 320.331 652.422 320.354 648.309 320.354H635.498L604.742 320.204L605.042 323.071C605.139 323.979 605.192 325.007 605.192 326.163L605.185 326.148Z" fill="#053793"/>
<path d="M607.301 316.729H612.277C614.686 316.729 617.801 316.676 621.621 316.578H635.04C635.243 316.578 636.549 316.526 638.958 316.428C641.367 316.331 644.384 316.226 648.001 316.128C655.334 315.926 661.616 315.73 666.847 315.528C672.071 315.325 675.44 315.077 676.949 314.777C677.549 314.575 678.232 314.455 678.983 314.402C679.733 314.349 680.461 314.327 681.167 314.327C681.767 314.327 682.375 314.274 682.976 314.177C683.576 314.079 684.131 313.974 684.634 313.877L685.542 313.426L690.999 263.592L668.31 264.388C668.205 264.358 668.115 264.32 668.055 264.283H666.697C666.599 264.185 666.494 263.757 666.397 262.999C666.299 262.249 666.344 261.168 666.547 259.757C666.547 258.549 666.494 257.55 666.397 256.74C666.299 255.937 666.194 255.531 666.096 255.531H664.138C663.027 255.531 661.728 255.584 660.22 255.682C658.509 255.682 656.978 255.734 655.619 255.832C654.261 255.929 653.435 255.982 653.135 255.982L651.777 256.132V264.958L643.896 265.236C643.648 264.56 643.558 263.337 643.633 261.558C643.633 260.65 643.611 259.824 643.558 259.074C643.506 258.323 643.483 257.746 643.483 257.34L643.033 255.682L635.948 255.982C634.042 255.982 632.406 256.057 631.047 256.207C629.689 256.357 628.908 256.432 628.713 256.432C628.713 256.53 628.691 257.085 628.638 258.091C628.586 259.096 628.563 260.252 628.563 261.558L628.3 265.784L607.008 266.534V286.355C607.008 288.614 606.986 290.881 606.933 293.14C606.881 295.399 606.858 297.56 606.858 299.624V305.276C606.761 307.888 606.678 309.974 606.633 311.535C606.581 313.096 606.558 314.274 606.558 315.077C606.558 315.881 606.611 316.383 606.708 316.586C606.806 316.789 607.008 316.841 607.308 316.736L607.301 316.729ZM628.556 299.091C628.556 300.502 628.503 301.681 628.406 302.634C628.308 303.587 628.203 304.165 628.105 304.368H620.57V299.842C620.473 298.438 620.443 297.283 620.495 296.375C620.548 295.466 620.668 294.971 620.87 294.866C621.073 294.566 622.424 294.416 624.938 294.416L628.706 294.566L628.556 299.091ZM629.006 283.713H620.863V280.997C620.863 280.291 620.885 279.638 620.938 279.038C620.99 278.437 621.111 278.032 621.313 277.829C621.516 277.627 621.891 277.507 622.446 277.454C622.994 277.402 623.625 277.379 624.33 277.379H628.098C628.496 277.582 628.751 277.859 628.848 278.205C628.946 278.557 628.998 279.435 628.998 280.846V283.713H629.006ZM651.169 303.009L643.934 303.459V294.416H647.551L650.868 294.566L651.169 298.934V303.002V303.009ZM650.711 283.263C650.208 283.263 649.63 283.316 648.977 283.413C648.324 283.511 647.596 283.563 646.793 283.563L644.384 284.014V280.096C644.384 279.188 644.407 278.362 644.459 277.612C644.512 276.861 644.534 276.433 644.534 276.328C644.737 276.126 645.157 276.028 645.817 276.028H648.152L651.619 276.328V279.646L651.769 283.263H650.711ZM672.573 298.183C672.476 299.392 672.423 300.367 672.423 301.125C672.423 301.883 672.326 302.356 672.123 302.559C672.026 302.656 671.673 302.739 671.065 302.784C670.464 302.837 669.834 302.837 669.181 302.784C668.528 302.731 667.92 302.686 667.372 302.634C666.817 302.581 666.442 302.559 666.239 302.559C666.141 302.356 666.089 301.808 666.089 300.9C666.089 299.992 666.141 299.039 666.239 298.033L666.539 293.965H669.406L672.573 294.116V298.183ZM666.089 283.263V275.12H672.116V283.713H670.757C670.457 283.713 670.052 283.691 669.549 283.638C669.046 283.586 668.491 283.563 667.89 283.563L666.081 283.263H666.089Z" fill="#053793"/>
<path d="M540.43 310.477C540.025 310.477 539.274 310.454 538.171 310.402C537.06 310.349 535.507 310.274 533.495 310.177C531.484 310.079 529.6 310.026 527.844 310.026H517.667L517.817 304C517.817 301.283 517.892 299.504 518.042 298.649C518.192 297.793 518.568 297.17 519.175 296.765C519.678 296.262 520.384 295.331 521.284 293.973C522.185 292.614 523.093 291.181 524.001 289.68C526.11 286.663 527.919 284.254 529.427 282.445C530.936 280.636 532.445 279.383 533.953 278.677C535.462 277.469 536.212 276.771 536.212 276.568C536.512 275.165 536.662 272.553 536.662 268.733C536.662 266.827 536.64 265.168 536.587 263.757C536.535 262.354 536.46 261.198 536.362 260.29C536.362 259.584 536.287 258.886 536.137 258.181C535.987 257.475 535.762 257.078 535.462 256.972C535.364 256.672 534.734 256.47 533.578 256.372C532.422 256.274 530.486 256.169 527.776 256.072C525.667 256.072 523.326 256.019 520.767 255.922C518.207 255.824 516.016 255.719 514.207 255.622C512.601 255.419 510.612 255.321 508.255 255.321C505.899 255.321 503.805 255.419 501.996 255.622C500.187 255.622 497.546 255.697 494.078 255.847C490.611 255.997 487.166 256.072 483.751 256.072L471.24 256.522L471.54 260.29C471.938 264.815 472.216 268.208 472.366 270.467C472.516 272.726 472.688 273.957 472.891 274.159H475.3C476.006 274.159 476.854 274.137 477.86 274.084C478.865 274.032 479.968 273.957 481.177 273.859C486.303 273.559 491.504 273.311 496.78 273.109C502.056 272.906 507.257 272.808 512.383 272.808C512.383 272.906 512.083 273.334 511.475 274.092C510.867 274.85 510.214 275.773 509.516 276.884C508.406 278.092 507.332 279.368 506.274 280.726C505.216 282.085 504.338 283.263 503.632 284.269C502.829 285.379 501.974 286.483 501.073 287.586C500.165 288.697 499.414 289.65 498.814 290.453C498.214 291.256 497.658 292.014 497.155 292.712C496.652 293.417 496.247 293.92 495.947 294.221C495.744 294.723 495.572 295.752 495.422 297.313C495.272 298.874 495.196 301.005 495.196 303.722C495.196 304.833 495.174 305.884 495.121 306.889C495.069 307.895 494.994 308.796 494.896 309.606C494.896 310.011 494.919 310.387 494.971 310.739C495.024 311.092 494.949 311.467 494.746 311.873C494.543 312.075 493.185 312.173 490.678 312.173H481.184L467.915 312.323V321.367L467.615 330.41L481.184 330.26L494.604 329.81L494.303 340.813C494.303 344.032 494.281 347.072 494.228 349.931C494.176 352.798 494.048 354.885 493.853 356.191C493.853 357.602 493.831 359.305 493.778 361.317C493.725 363.328 493.598 365.234 493.403 367.043C493.403 368.949 493.38 370.511 493.328 371.719C493.275 372.927 493.253 373.58 493.253 373.678C493.05 373.678 492.727 373.73 492.269 373.828C491.819 373.925 491.286 373.978 490.686 373.978C489.478 373.978 488.247 374.053 486.993 374.203C485.732 374.353 484.352 374.481 482.85 374.578L481.492 374.879L481.942 380.755C482.145 382.361 482.265 383.922 482.318 385.431C482.37 386.939 482.445 388.095 482.543 388.898C482.543 389.499 482.595 390.054 482.693 390.557C482.79 391.06 482.896 391.307 482.993 391.307C483.196 391.51 483.721 391.607 484.577 391.607L519.175 394.715L517.885 328.902H528.219L540.73 328.602L540.88 319.558C540.88 316.241 540.858 313.959 540.805 312.698C540.753 311.445 540.625 310.717 540.43 310.514V310.477Z" fill="#053793"/>
<path d="M466.557 362.412C465.754 361.459 464.695 360.529 463.389 359.62C463.089 359.418 462.459 358.968 461.506 358.262C460.553 357.557 459.547 356.754 458.489 355.853C457.43 354.952 456.477 354.097 455.622 353.294C454.766 352.491 454.338 351.89 454.338 351.485C454.338 351.282 454.436 350.862 454.638 350.202C454.841 349.549 455.186 348.768 455.697 347.867C456.402 346.156 457.175 344.025 458.031 341.458C458.886 338.899 459.464 336.812 459.764 335.199L461.123 329.772C461.828 327.056 462.406 324.069 462.857 320.804C463.307 317.539 463.787 314.349 464.29 311.235C464.688 307.317 465.093 303.85 465.498 300.833C465.896 297.816 466.151 296.157 466.249 295.857C466.452 295.857 466.722 295.782 467.075 295.632C467.427 295.481 467.855 295.406 468.358 295.406L470.317 295.106V287.721C470.414 285.612 470.467 283.953 470.467 282.745C470.467 281.537 470.369 280.659 470.167 280.103C469.964 279.555 469.611 279.225 469.108 279.12C468.606 279.023 467.9 279.023 466.999 279.12H464.891L464.74 276.103C464.74 274.197 464.59 273.086 464.29 272.786C464.29 272.583 463.765 272.486 462.707 272.486C461.648 272.486 459.067 272.583 454.946 272.786L448.92 272.936V276.403C449.017 277.709 448.995 278.565 448.844 278.963C448.694 279.368 448.417 279.615 448.019 279.713C447.719 279.811 447.141 279.863 446.285 279.863C445.43 279.863 444.499 279.841 443.493 279.788C442.488 279.736 441.459 279.691 440.401 279.638C439.343 279.585 438.412 279.563 437.609 279.563V279.413C437.609 279.315 437.632 279.21 437.684 279.113C437.737 279.015 437.759 278.91 437.759 278.812C438.06 277.904 438.412 276.253 438.818 273.837C439.215 271.427 439.621 268.658 440.026 265.543C440.229 263.532 440.424 261.753 440.626 260.192C440.829 258.639 441.024 257.708 441.227 257.4C441.324 256.897 441.429 256.395 441.527 255.892C441.625 255.389 441.73 254.886 441.827 254.383C441.827 253.377 441.677 252.649 441.377 252.199C441.077 251.749 440.424 251.419 439.418 251.216C437.407 250.916 435.5 250.668 433.692 250.465C431.883 250.263 430.022 250.068 428.115 249.865C426.006 249.767 424.648 249.737 424.047 249.79C423.447 249.843 423.042 250.12 422.839 250.616C422.636 250.916 422.434 251.674 422.239 252.875C422.036 254.083 421.788 255.486 421.488 257.093C421.083 259.201 420.685 261.363 420.28 263.577C419.875 265.791 419.499 267.847 419.147 269.761C418.794 271.668 418.471 273.379 418.163 274.887C417.856 276.396 417.608 277.552 417.413 278.355L416.963 280.464L404.752 280.914L404.902 284.982C404.902 286.19 404.954 287.541 405.052 289.049C405.149 290.558 405.255 291.811 405.352 292.817L405.652 296.735L409.42 296.885C411.829 296.885 413.187 297.035 413.488 297.335V298.844C413.488 299.647 413.435 300.6 413.338 301.711C413.135 302.919 412.932 304.6 412.737 306.762C412.535 308.923 412.332 311.055 412.137 313.171C412.137 314.582 412.009 316.638 411.761 319.355C411.506 322.072 411.109 324.887 410.553 327.799C409.998 330.718 409.367 333.45 408.669 336.017C407.964 338.576 407.161 340.415 406.26 341.518C405.96 341.923 405.855 342.246 405.96 342.501C406.058 342.756 406.463 343.079 407.168 343.484C407.671 343.785 408.452 344.212 409.502 344.768C410.561 345.323 411.589 345.901 412.595 346.501C413.803 347.102 415.236 347.785 416.888 348.535C418.539 349.286 420.077 349.969 421.488 350.569C424.4 351.575 426.314 352.356 427.215 352.903C427.913 353.331 428.333 353.714 428.498 354.052C421.901 364.401 411.874 376.019 399.34 377.866L418.328 407.113C418.328 407.113 434.562 390.579 444.131 370.541C444.326 370.638 444.664 370.833 445.152 371.148C445.857 371.599 446.706 372.282 447.711 373.182C450.023 375.291 451.877 376.905 453.288 378.008C454.691 379.119 455.952 380.072 457.055 380.875L458.864 382.083L460.222 379.975C460.62 379.374 460.973 378.766 461.281 378.166C461.588 377.565 461.828 377.213 462.031 377.108C462.129 376.807 462.459 376.199 463.014 375.299C463.562 374.391 464.147 373.392 464.748 372.282C466.151 369.565 467.135 367.711 467.69 366.705C468.238 365.7 468.365 364.897 468.065 364.296C467.863 363.996 467.36 363.366 466.557 362.412ZM445.452 297.515C445.355 297.815 445.302 298.191 445.302 298.649C445.302 299.106 445.204 299.579 445.002 300.082C444.904 301.193 444.724 302.566 444.476 304.225C444.221 305.884 444.049 307.467 443.951 308.976C443.854 309.981 443.546 311.918 443.043 314.777C442.54 317.644 441.932 320.631 441.234 323.746C440.529 326.86 439.823 329.727 439.125 332.339C438.42 334.951 437.819 336.557 437.317 337.165C437.219 337.165 437.039 337.143 436.791 337.09C436.536 337.037 436.266 336.917 435.966 336.715C435.665 336.617 435.11 336.264 434.307 335.657C433.504 335.056 432.551 334.351 431.44 333.548C430.434 332.639 429.579 331.889 428.881 331.289C428.175 330.688 427.823 330.23 427.823 329.93C427.823 329.833 427.898 329.427 428.048 328.722C428.198 328.016 428.423 327.318 428.723 326.613C429.023 325.209 429.399 323.348 429.856 321.036C430.307 318.725 430.637 316.211 430.84 313.501C431.042 311.49 431.237 310.484 431.44 310.484C431.643 310.387 431.763 309.959 431.815 309.201C431.868 308.45 431.988 307.52 432.191 306.409C432.191 305.201 432.243 303.925 432.341 302.566C432.438 301.208 432.588 300.03 432.791 299.024L433.241 295.556L439.118 295.857C440.927 295.857 442.405 295.879 443.568 295.932C444.724 295.984 445.355 296.112 445.452 296.307V297.515Z" fill="#053793"/>
<path d="M364.141 286.13C362.235 286.13 360.449 286.108 358.79 286.055C357.162 286.002 355.758 285.98 354.565 285.98L359.496 256.507H353.071C352.921 256.357 352.606 256.282 352.088 256.282C351.683 256.184 350.932 256.109 349.829 256.057C348.718 256.004 347.495 255.982 346.136 255.982C344.778 255.982 343.375 256.004 341.919 256.057C340.463 256.109 339.127 256.184 337.926 256.282C336.815 256.282 336.117 256.357 335.817 256.507C335.517 256.657 335.464 256.935 335.667 257.333C335.569 258.541 335.412 260.372 335.216 262.834C335.014 265.296 334.766 268.388 334.466 272.103C334.166 275.923 333.941 278.985 333.79 281.297C333.64 283.608 333.513 285.267 333.415 286.273C333.415 286.573 333.115 286.798 332.507 286.948C331.899 287.098 330.548 287.278 328.439 287.474C326.728 287.474 325.475 287.549 324.672 287.699C323.869 287.849 323.366 287.976 323.163 288.074C323.066 288.779 323.066 290.888 323.163 294.408C323.163 297.823 323.313 300.09 323.613 301.193C323.613 301.493 323.914 301.696 324.522 301.793C325.122 301.891 326.278 301.943 327.989 301.943C329.197 301.846 330.12 301.793 330.781 301.793C331.441 301.793 331.884 301.973 332.139 302.319C332.387 302.671 332.462 303.272 332.365 304.127C332.267 304.983 332.064 306.214 331.764 307.82C331.359 311.738 331.036 315.055 330.781 317.772C330.526 320.489 330.301 322.65 330.105 324.256C329.805 326.665 329.325 329.532 328.672 332.85C328.019 336.167 327.314 339.507 326.563 342.877C325.812 346.246 324.979 349.489 324.079 352.603C323.171 355.718 322.27 358.33 321.362 360.439C321.264 360.844 320.882 361.872 320.229 363.531C319.576 365.189 318.848 366.976 318.045 368.882C317.242 370.788 316.484 372.575 315.786 374.233C315.38 375.194 315.058 375.959 314.817 376.53L312.168 370.541L291.769 373.16C291.596 372.575 291.514 371.456 291.514 369.79L291.364 365.872H301.766C305.481 365.872 308.175 365.797 309.834 365.647C311.493 365.497 312.318 365.37 312.318 365.272C312.521 365.069 312.641 364.364 312.693 363.163C312.746 361.955 312.769 360.604 312.769 359.095V353.219L310.509 353.069C309.909 353.069 308.603 353.016 306.592 352.919C304.58 352.821 302.374 352.716 299.957 352.618C297.345 352.618 295.259 352.543 293.698 352.393C292.137 352.243 291.259 352.168 291.056 352.168C290.651 351.568 290.456 350.509 290.456 349.001C290.456 347.492 290.606 346.592 290.906 346.284C291.004 346.081 292.264 345.961 294.674 345.909C297.083 345.856 299.95 345.834 303.267 345.834H315.328V344.175C315.328 343.875 315.35 343.297 315.403 342.441C315.455 341.586 315.53 340.46 315.628 339.049C315.726 337.646 315.831 335.732 315.928 333.323C316.529 325.99 316.956 319.476 317.212 313.802C317.459 308.128 317.489 303.475 317.287 299.857V297.898L315.028 297.598C314.427 297.598 313.039 297.575 310.885 297.523C308.723 297.47 306.284 297.35 303.575 297.148C300.963 297.148 298.599 297.125 296.49 297.073C294.381 297.02 293.022 296.9 292.422 296.697L290.613 296.547L291.064 293.53C291.064 293.328 291.086 292.855 291.139 292.097C291.191 291.346 291.266 290.866 291.364 290.663C291.762 290.566 292.67 290.461 294.081 290.363C295.484 290.265 297.496 290.16 300.107 290.063C302.719 289.965 304.978 289.89 306.892 289.838C308.798 289.785 310.457 289.763 311.868 289.763H315.936V279.06L304.475 279.36H292.264C291.964 279.36 291.814 279.06 291.814 278.452V274.835C291.912 274.234 291.964 273.657 291.964 273.101C291.964 272.546 292.017 272.073 292.114 271.668C292.114 270.962 292.167 270.512 292.264 270.309C292.362 270.212 292.917 270.159 293.923 270.159C294.426 270.062 294.981 269.956 295.582 269.859C296.182 269.761 296.888 269.656 297.691 269.559C299.297 269.356 300.858 269.161 302.366 268.958C303.875 268.756 305.031 268.606 305.834 268.508C306.539 268.508 307.312 268.455 308.168 268.358C309.023 268.26 309.751 268.208 310.352 268.208H312.161L311.86 263.082C311.808 262.354 311.755 261.663 311.703 261.018L310.742 246L248.539 260.973L248.689 268.058V271.6C248.689 272.351 248.712 273.086 248.765 273.784C248.817 274.49 248.892 274.992 248.99 275.293C248.99 275.495 249.643 275.39 250.949 274.992C251.752 274.895 253.59 274.692 256.45 274.392C259.309 274.092 263.91 273.536 270.244 272.733L272.804 272.283V281.627L271.595 281.327C271.092 281.327 270.034 281.304 268.428 281.252C266.822 281.199 264.608 281.124 261.793 281.027C258.979 280.929 256.337 280.854 253.876 280.801C251.414 280.749 249.072 280.726 246.866 280.726L245.357 280.426L245.507 286.761V291.286C245.507 292.494 245.605 293.192 245.807 293.395C248.119 293.395 250.431 293.32 252.742 293.17C255.054 293.02 257.313 292.847 259.527 292.645C263.542 292.547 266.859 292.442 269.479 292.344C272.091 292.247 273.547 292.292 273.847 292.494C274.65 292.494 274.8 293.553 274.297 295.662C274.297 297.17 274.222 298.101 274.072 298.454C273.922 298.806 273.644 298.979 273.246 298.979H247.766L248.217 322.8C248.217 329.532 248.269 335.161 248.367 339.687C248.464 344.213 248.569 346.622 248.667 346.922H261.178L273.689 346.472L273.839 347.68C273.937 348.085 273.989 348.686 273.989 349.489C273.989 350.292 273.967 351.072 273.914 351.823C273.862 352.573 273.817 353.256 273.764 353.857C273.712 354.457 273.689 354.862 273.689 355.065C273.487 355.065 272.631 355.118 271.13 355.215C269.621 355.313 267.813 355.365 265.704 355.365C263.595 355.365 261.208 355.313 258.844 355.215C256.48 355.118 254.551 355.065 253.042 355.065H248.217V360.791C248.419 362.398 248.517 363.861 248.517 365.159V368.477H253.493C254.799 368.477 256.705 368.424 259.219 368.327C261.733 368.229 264.143 368.124 266.454 368.026L274.597 367.726L274.297 372.094V375.441L248.667 378.729V407.158L310.705 384.883C310.232 385.724 309.804 386.452 309.421 387.022L308.213 388.681L310.93 390.639C311.838 391.24 312.814 391.9 313.872 392.598C314.93 393.304 316.003 393.979 317.114 394.632C318.217 395.285 319.245 395.863 320.206 396.366C321.159 396.869 321.94 397.221 322.54 397.424C323.448 397.927 324.071 397.972 324.424 397.574C324.777 397.169 325.407 395.863 326.308 393.657C326.811 392.553 327.441 391.247 328.192 389.739C328.942 388.23 329.67 386.722 330.376 385.213C331.284 383.202 332.259 380.92 333.318 378.354C334.376 375.787 335.427 373.1 336.485 370.285C337.543 367.471 338.541 364.582 339.502 361.617C340.455 358.652 341.288 355.815 341.986 353.099C342.286 351.387 342.662 349.759 343.119 348.198C343.57 346.644 343.847 345.458 343.945 344.655C344.545 342.847 345.078 341.038 345.529 339.229C345.979 337.42 346.354 335.439 346.662 333.278L351.795 302.604C352.869 302.506 354.467 302.454 356.614 302.454L362.49 302.604L354.82 403.383H361.837L382.311 407.166L388.135 286.198H371.151C369.297 286.183 366.971 286.175 364.141 286.175V286.13ZM264.796 315.978C264.796 315.07 264.848 314.192 264.946 313.336C265.043 312.481 265.096 311.753 265.096 311.152V309.193H274.139V317.937C274.139 318.44 272.533 318.687 269.314 318.687H264.638L264.788 315.971L264.796 315.978ZM274.297 336.933L269.771 336.782C268.563 336.782 267.512 336.707 266.604 336.557C265.696 336.407 265.193 336.332 265.096 336.332C264.796 336.032 264.645 334.726 264.645 332.414V328.797H274.139V330.155C274.139 330.456 274.162 331.033 274.215 331.889C274.267 332.745 274.29 333.525 274.29 334.223V336.94L274.297 336.933ZM300.528 328.189C300.528 328.489 300.505 329.015 300.453 329.773C300.4 330.523 300.272 331.356 300.077 332.257L299.627 335.424H295.409C294.201 335.424 293.15 335.371 292.242 335.274C291.334 335.176 290.786 335.124 290.583 335.124C290.283 335.026 290.103 334.696 290.058 334.141C290.005 333.593 289.983 332.557 289.983 331.048V327.281H300.535V328.189H300.528ZM291.326 307.535H295.927C296.88 307.535 297.788 307.557 298.644 307.61C299.499 307.662 300.077 307.737 300.377 307.835C300.88 307.933 301.03 309.291 300.828 311.903V315.971L295.552 315.67C294.246 315.67 293.067 315.648 292.009 315.595C290.951 315.543 290.426 315.423 290.426 315.22C290.223 315.22 290.125 314.845 290.125 314.087V311.445C290.328 309.734 290.448 308.653 290.501 308.203C290.553 307.752 290.823 307.527 291.326 307.527V307.535Z" fill="#053793"/>
<defs>
<filter id="filter0_d_113_3559" x="20.7479" y="36.0437" width="751.507" height="567.662" filterUnits="userSpaceOnUse" color-interpolation-filters="sRGB">
<feFlood flood-opacity="0" result="BackgroundImageFix"/>
<feColorMatrix in="SourceAlpha" type="matrix" values="0 0 0 0 0 0 0 0 0 0 0 0 0 0 0 0 0 0 127 0" result="hardAlpha"/>
<feOffset dx="10.9" dy="16.7"/>
<feColorMatrix type="matrix" values="0 0 0 0 0.529412 0 0 0 0 0.27451 0 0 0 0 0.137255 0 0 0 1 0"/>
<feBlend mode="normal" in2="BackgroundImageFix" result="effect1_dropShadow_113_3559"/>
<feBlend mode="normal" in="SourceGraphic" in2="effect1_dropShadow_113_3559" result="shape"/>
</filter>
<clipPath id="clip0_113_3559">
<rect width="423.341" height="107.152" fill="white" transform="translate(182.987 126.119)"/>
</clipPath>
</defs>
</svg>
