<svg width="1039" height="729" viewBox="0 0 1039 729" fill="none" xmlns="http://www.w3.org/2000/svg">
<g filter="url(#filter0_d_97_354)">
<path d="M974.861 393.622C990.992 373.666 1000.74 347.679 1000.74 319.386C1000.74 256.236 952.349 205.06 892.611 205.06C832.873 205.06 880.557 205.592 874.707 206.656C849.447 141.466 779.871 94.6361 697.976 94.6361C616.08 94.6361 655.432 97.9177 636.111 103.949C630.261 101.377 624.145 99.0708 617.941 96.8534C583.818 64.1255 535.07 43.726 480.916 43.726C394.5 43.726 321.822 95.8778 300.462 166.655C293.726 165.325 286.812 164.527 279.811 164.527C240.458 164.527 206.069 186.789 187.102 219.96C175.757 213.752 162.817 210.293 149.167 210.293C103.433 210.293 66.2965 249.495 66.2965 297.922C66.2965 346.349 71.4372 332.601 80.2117 346.437V348.743C48.3929 376.061 28.0076 417.747 28.0076 464.488C28.0076 546.707 91.0248 613.405 168.755 613.405C246.485 613.405 177.707 613.139 182.138 612.695C186.836 625.29 194.724 635.135 205.626 640.279C223.441 648.705 244.89 642.408 263.148 626C271.302 634.337 281.317 643.206 293.46 651.987C318.188 669.814 347.348 684.005 379.965 693.939C419.317 706.001 464.076 712.121 513.09 712.121C562.103 712.121 607.128 706.001 647.101 694.028C680.161 684.094 709.941 670.169 735.644 652.519C741.76 648.35 747.344 644.093 752.484 639.924C764.804 647.641 779.251 652.164 794.673 652.164C824.187 652.164 850.068 635.845 864.781 611.276C878.873 617.574 894.295 621.121 910.603 621.121C975.305 621.121 1027.69 565.688 1027.69 497.305C1027.69 428.922 1006.68 415.884 974.861 393.8V393.622Z" fill="#FFFBD2"/>
</g>
<path d="M398.577 155.923L399.818 149.094C409.834 141.378 417.367 134.726 422.597 129.138C427.826 123.55 430.839 118.583 431.637 114.237C432.435 109.891 431.814 108.827 430.573 107.142C429.333 105.457 427.294 104.57 424.458 104.57C421.622 104.57 416.924 106.61 412.493 110.69L407.175 104.304C410.631 101.199 413.911 98.8934 417.013 97.4743C420.115 96.0552 423.66 95.3456 427.56 95.3456C433.144 95.3456 437.398 97.0308 440.234 100.401C443.071 103.772 443.957 108.206 443.071 113.705C441.475 122.752 432.967 133.75 417.545 146.611C421.622 146.167 424.812 145.99 427.383 145.99H440.234L438.462 155.923H398.666H398.577Z" fill="#E95513"/>
<path d="M479.941 153.972C475.421 159.294 470.015 162.043 463.81 162.043C457.606 162.043 453.175 159.382 450.516 153.972C447.857 148.65 447.414 140.934 449.186 130.912C450.959 120.889 454.061 113.262 458.581 108.118C463.101 102.885 468.419 100.312 474.712 100.312C481.005 100.312 485.437 102.885 488.096 108.118C490.754 113.35 491.198 120.889 489.425 130.912C487.652 140.934 484.55 148.65 480.03 153.972H479.941ZM460.265 131.178C457.695 145.635 459.467 152.819 465.406 152.819C471.344 152.819 475.598 145.635 478.169 131.178C480.739 116.721 478.966 109.537 473.028 109.537C467.09 109.537 462.835 116.721 460.265 131.178Z" fill="#E95513"/>
<path d="M493.059 150.868L494.3 144.038C504.315 136.322 511.849 129.67 517.078 124.082C522.307 118.495 525.321 113.528 526.118 109.182C526.65 106.166 526.296 103.772 525.055 102.086C523.814 100.401 521.776 99.5142 518.939 99.5142C516.103 99.5142 511.406 101.554 506.974 105.634L501.656 99.2482C505.113 96.1439 508.392 93.8378 511.494 92.4187C514.596 90.9996 518.142 90.2901 522.041 90.2901C527.625 90.2901 531.88 91.9753 534.716 95.3456C537.552 98.716 538.438 103.151 537.552 108.65C535.957 117.696 527.448 128.694 512.026 141.555C516.103 141.112 519.294 140.934 521.864 140.934H534.716L532.943 150.868H493.148H493.059Z" fill="#E95513"/>
<path d="M556.874 156.012C548.897 156.012 542.693 153.351 538.261 147.941L545.086 140.402C548.454 144.393 552.531 146.433 557.14 146.433C561.749 146.433 562.99 145.458 565.294 143.506C567.598 141.555 569.016 138.894 569.637 135.435C570.257 131.976 569.814 129.404 568.307 127.453C566.801 125.59 564.585 124.615 561.483 124.615C558.381 124.615 558.292 124.881 556.963 125.324C555.722 125.768 554.038 126.566 551.999 127.808L547.213 124.26L553.949 95.3456H585.768L583.995 105.279H562.369L559.001 117.874C561.571 116.721 564.053 116.189 566.446 116.189C571.764 116.189 575.841 117.785 578.677 120.978C581.602 124.171 582.489 128.961 581.336 135.169C580.273 141.466 577.348 146.433 572.65 150.247C567.953 154.061 562.724 155.923 556.963 155.923L556.874 156.012Z" fill="#E95513"/>
<path d="M331.394 243.287C332.635 271.669 345.753 290.56 370.392 300.405L373.938 283.642C357.541 276.103 348.766 262.622 347.259 243.287H381.56L384.396 229.894H321.734L326.342 207.987H383.067L385.903 194.86H329.179L334.142 175.968H317.213L312.25 194.86H255.88L253.044 207.987H309.414L304.716 229.894H242.408L239.572 243.287H273.429C266.782 261.469 252.423 275.394 230.177 284.973L226.809 300.76C241.256 295.971 254.551 288.609 266.516 278.321C276.265 270.249 283.976 258.631 289.472 243.287H301.88L277.418 344.841H294.346L318.809 243.287H331.394Z" fill="#E95513" stroke="white" stroke-width="15" stroke-linecap="round" stroke-linejoin="round"/>
<path d="M504.138 331.271L507.506 314.508C487.741 307.678 472.408 297.744 461.417 284.973C474.003 280.981 483.575 275.571 490.134 268.653C494.211 275.66 500.593 281.336 508.924 285.416L512.026 269.895C504.847 266.524 500.504 261.025 498.82 253.752C498.997 252.866 499.352 251.89 499.529 251.003L501.745 239.916H486.323L483.93 251.624C481.98 260.493 474.623 266.968 461.949 271.314L459.645 283.021C456.808 279.651 454.238 276.015 452.111 271.935L459.556 234.861H522.662L525.587 220.138H462.57L468.951 188.829H451.402L445.109 220.138H385.371L382.446 234.861H442.184L435.714 267.234C432.435 273.176 427.826 278.764 422.331 283.997L425.167 269.983C417.899 266.613 413.556 261.38 411.872 254.107C412.049 253.132 412.404 252.067 412.67 251.003L414.886 239.916H399.464L397.159 251.624C395.209 260.493 387.853 266.968 375.267 271.314L372.342 285.771C386.08 281.514 396.362 275.926 403.275 268.742C407.086 275.571 413.113 281.07 421.267 285.061C408.15 296.769 388.651 306.88 362.947 315.217L359.757 331.093C389.714 322.224 413.29 310.162 430.13 295.261L414.62 372.158H432.08L447.236 293.398C460.176 310.339 479.587 322.933 504.049 331.359" fill="#E95513"/>
<path d="M504.138 331.271L507.506 314.508C487.741 307.678 472.408 297.744 461.417 284.973C474.003 280.981 483.575 275.571 490.134 268.653C494.211 275.66 500.593 281.336 508.924 285.416L512.026 269.895C504.847 266.524 500.504 261.025 498.82 253.752C498.997 252.866 499.352 251.89 499.529 251.003L501.745 239.916H486.323L483.93 251.624C481.98 260.493 474.623 266.968 461.949 271.314L459.645 283.021C456.808 279.651 454.238 276.015 452.111 271.935L459.556 234.861H522.662L525.587 220.138H462.57L468.951 188.829H451.402L445.109 220.138H385.371L382.446 234.861H442.184L435.714 267.234C432.435 273.176 427.826 278.764 422.331 283.997L425.167 269.983C417.899 266.613 413.556 261.38 411.872 254.107C412.049 253.132 412.404 252.067 412.67 251.003L414.886 239.916H399.464L397.159 251.624C395.209 260.493 387.853 266.968 375.267 271.314L372.342 285.771C386.08 281.514 396.362 275.926 403.275 268.742C407.086 275.571 413.113 281.07 421.267 285.061C408.15 296.769 388.651 306.88 362.947 315.217L359.757 331.093C389.714 322.224 413.29 310.162 430.13 295.261L414.62 372.158H432.08L447.236 293.398C460.176 310.339 479.587 322.933 504.049 331.359" stroke="white" stroke-width="15" stroke-linecap="round" stroke-linejoin="round"/>
<path d="M733.074 251.712L735.733 240.271C749.293 233.708 763.74 224.927 776.503 215.969L781.467 195.481L683.706 195.215L679.629 213.042H752.307C742.203 219.517 729.972 226.346 719.602 230.869L714.727 251.801H655.964L651.798 269.717H710.561L702.23 305.638C701.609 308.21 700.457 308.92 697.089 309.097C694.43 309.186 678.211 309.275 669.259 308.831L664.827 327.989C678.654 327.989 703.559 327.989 704.002 327.989C712.511 327.989 718.095 320.539 720.222 311.137L728.908 269.806H786.43L790.596 251.89H733.074V251.712Z" fill="#E95513" stroke="white" stroke-width="15" stroke-linecap="round" stroke-linejoin="round"/>
<path d="M597.999 204.528H578.145C577.614 201.512 576.905 198.23 576.107 195.126H558.115L557.406 195.303C557.937 198.053 558.558 201.335 559.001 204.528H535.868L532.5 219.162H594.631L597.999 204.528Z" fill="#E95513" stroke="white" stroke-width="15" stroke-linecap="round" stroke-linejoin="round"/>
<path d="M526.296 286.214C525.144 289.407 515.217 298.809 510.342 299.518C510.342 299.518 506.531 317.701 506.708 317.701C516.546 313.798 533.829 299.696 539.945 286.48L526.296 286.126V286.214Z" fill="#E95513" stroke="white" stroke-width="15" stroke-linecap="round" stroke-linejoin="round"/>
<path d="M579.209 304.396C578.057 298.986 576.018 292.334 574.157 286.037L560.951 286.303C562.546 290.738 563.876 298.72 564.939 304.396H579.298H579.209Z" fill="#E95513" stroke="white" stroke-width="15" stroke-linecap="round" stroke-linejoin="round"/>
<path d="M604.735 267.234L606.862 257.921H634.781L632.654 267.234H604.735ZM612.269 234.506H640.188L638.061 243.819H610.141L612.269 234.506ZM617.675 211.268H645.594L643.467 220.581H615.548L617.675 211.268ZM636.111 299.962C633.629 309.275 633.452 312.645 630.704 312.645H626.893C625.297 312.645 625.032 312.201 626.007 308.299L631.856 282.844H645.683L665.802 195.658H605.621L585.502 282.844H593.036C588.604 297.035 582.577 309.009 565.914 314.508L562.103 330.916C588.958 326.836 601.987 305.283 609.167 282.844H615.814L609.876 308.476C606.508 322.933 608.014 327.9 620.511 327.9H629.109C642.669 327.9 644.265 320.627 650.469 299.962H636.111Z" fill="#E95513" stroke="white" stroke-width="15" stroke-linecap="round" stroke-linejoin="round"/>
<path d="M589.49 222.798H573.093C570.789 228.209 567.687 234.595 565.028 239.65H524.966L521.51 254.728H549.872L547.479 265.105H520.623L517.167 280.006H544.022L532.411 330.206H548.454L560.065 280.006H581.248L584.704 265.105H563.521L565.914 254.728H589.49L592.947 239.65H579.918C582.843 234.595 586.122 228.741 589.579 222.798" fill="#E95513"/>
<path d="M589.49 222.798H573.093C570.789 228.209 567.687 234.595 565.028 239.65H524.966L521.51 254.728H549.872L547.479 265.105H520.623L517.167 280.006H544.022L532.411 330.206H548.454L560.065 280.006H581.248L584.704 265.105H563.521L565.914 254.728H589.49L592.947 239.65H579.918C582.843 234.595 586.122 228.741 589.579 222.798" stroke="white" stroke-width="15" stroke-linecap="round" stroke-linejoin="round"/>
<path d="M554.392 238.586C554.569 235.127 554.481 227.677 554.038 223.242H539.147C539.591 227.144 539.768 234.506 539.679 238.586H554.481H554.392Z" fill="#E95513" stroke="white" stroke-width="15" stroke-linecap="round" stroke-linejoin="round"/>
<path d="M331.394 243.287C332.635 271.669 345.753 290.56 370.392 300.405L373.938 283.642C357.541 276.103 348.766 262.622 347.259 243.287H381.56L384.396 229.894H321.734L326.342 207.987H383.067L385.903 194.86H329.179L334.142 175.968H317.213L312.25 194.86H255.88L253.044 207.987H309.414L304.716 229.894H242.408L239.572 243.287H273.429C266.782 261.469 252.423 275.394 230.177 284.973L226.809 300.76C241.256 295.971 254.551 288.609 266.516 278.321C276.265 270.249 283.976 258.631 289.472 243.287H301.88L277.418 344.841H294.346L318.809 243.287H331.394Z" fill="#E95513"/>
<path d="M504.138 331.271L507.506 314.508C487.741 307.678 472.408 297.744 461.417 284.973C474.003 280.981 483.575 275.571 490.134 268.653C494.211 275.66 500.593 281.336 508.924 285.416L512.026 269.895C504.847 266.524 500.504 261.025 498.82 253.752C498.997 252.866 499.352 251.89 499.529 251.003L501.745 239.916H486.323L483.93 251.624C481.98 260.493 474.623 266.968 461.949 271.314L459.645 283.021C456.808 279.651 454.238 276.015 452.111 271.935L459.556 234.861H522.662L525.587 220.138H462.57L468.951 188.829H451.402L445.109 220.138H385.371L382.446 234.861H442.184L435.714 267.234C432.435 273.176 427.826 278.764 422.331 283.997L425.167 269.983C417.899 266.613 413.556 261.38 411.872 254.107C412.049 253.132 412.404 252.067 412.67 251.003L414.886 239.916H399.464L397.159 251.624C395.209 260.493 387.853 266.968 375.267 271.314L372.342 285.771C386.08 281.514 396.362 275.926 403.275 268.742C407.086 275.571 413.113 281.07 421.267 285.061C408.15 296.769 388.651 306.88 362.947 315.217L359.757 331.093C389.714 322.224 413.29 310.162 430.13 295.261L414.62 372.158H432.08L447.236 293.398C460.176 310.339 479.587 322.933 504.049 331.359" fill="#E95513"/>
<path d="M733.074 251.712L735.733 240.271C749.293 233.708 763.74 224.927 776.503 215.969L781.467 195.481L683.706 195.215L679.629 213.042H752.307C742.203 219.517 729.972 226.346 719.602 230.869L714.727 251.801H655.964L651.798 269.717H710.561L702.23 305.638C701.609 308.21 700.457 308.92 697.089 309.097C694.43 309.186 678.211 309.275 669.259 308.831L664.827 327.989C678.654 327.989 703.559 327.989 704.002 327.989C712.511 327.989 718.095 320.539 720.222 311.137L728.908 269.806H786.43L790.596 251.89H733.074V251.712Z" fill="#E95513"/>
<path d="M597.999 204.528H578.145C577.614 201.512 576.905 198.23 576.107 195.126H558.115L557.406 195.303C557.937 198.053 558.558 201.335 559.001 204.528H535.868L532.5 219.162H594.631L597.999 204.528Z" fill="#E95513"/>
<path d="M526.296 286.214C525.144 289.407 515.217 298.809 510.342 299.518C510.342 299.518 506.531 317.701 506.708 317.701C516.546 313.798 533.829 299.696 539.945 286.48L526.296 286.126V286.214Z" fill="#E95513"/>
<path d="M579.209 304.396C578.057 298.986 576.018 292.334 574.157 286.037L560.951 286.303C562.546 290.738 563.876 298.72 564.939 304.396H579.298H579.209Z" fill="#E95513"/>
<path d="M604.735 267.234L606.862 257.921H634.781L632.654 267.234H604.735ZM612.269 234.506H640.188L638.061 243.819H610.141L612.269 234.506ZM617.675 211.268H645.594L643.467 220.581H615.548L617.675 211.268ZM636.111 299.962C633.629 309.275 633.452 312.645 630.704 312.645H626.893C625.297 312.645 625.032 312.201 626.007 308.299L631.856 282.844H645.683L665.802 195.658H605.621L585.502 282.844H593.036C588.604 297.035 582.577 309.009 565.914 314.508L562.103 330.916C588.958 326.836 601.987 305.283 609.167 282.844H615.814L609.876 308.476C606.508 322.933 608.014 327.9 620.511 327.9H629.109C642.669 327.9 644.265 320.627 650.469 299.962H636.111Z" fill="#E95513"/>
<path d="M589.49 222.798H573.093C570.789 228.209 567.687 234.595 565.028 239.65H524.966L521.51 254.728H549.872L547.479 265.105H520.623L517.167 280.006H544.022L532.411 330.206H548.454L560.065 280.006H581.248L584.704 265.105H563.521L565.914 254.728H589.49L592.947 239.65H579.918C582.843 234.595 586.122 228.741 589.579 222.798" fill="#E95513"/>
<path d="M554.392 238.586C554.569 235.127 554.481 227.677 554.038 223.242H539.147C539.591 227.144 539.768 234.506 539.679 238.586H554.481H554.392Z" fill="#E95513"/>
<path d="M661.725 363.555H700.723V492.693H571.675V453.668C571.675 403.911 612.003 363.555 661.725 363.555Z" fill="#FAD6C0"/>
<path d="M263.768 365.506H319.34C359.934 365.506 392.816 398.5 392.816 439.033V494.644H263.768V365.506Z" fill="#FAD6C0"/>
<path d="M484.727 374.908H546.592V512.915H480.296C445.641 512.915 417.544 484.799 417.544 450.12V442.049C417.544 404.975 447.679 374.819 484.727 374.819V374.908Z" fill="#FAD6C0"/>
<path d="M681.756 498.636V494.644L608.103 491.363V498.636H580.893V377.924H708.966V498.636H681.756ZM608.103 464.222L681.756 467.504V444.266H608.103V464.222ZM608.103 417.037H681.756V395.307H608.103V417.037Z" fill="#033792"/>
<path d="M365.429 457.57V443.734H315.529V426.439H330.774L320.759 416.417L332.99 404.177L342.562 413.756L342.917 413.135C345.93 407.547 349.83 402.492 354.527 398.057L355.414 397.17H315.618V379.875H375.976V397.525C374.204 399.653 363.39 413.224 360.377 425.818L360.2 426.439H375.888V457.57H365.518H365.429Z" fill="#033792"/>
<path d="M247.726 508.037V485.243H265.541L266.073 472.914H247.637V455.619H266.782L267.313 443.734H247.549V379.875H307.907V443.734H288.674L289.206 455.619H307.907V472.914H290.003L290.535 485.243H307.907V508.037H247.549H247.726ZM283.356 426.439H291.776V417.037H283.356V426.439ZM264.034 426.439H272.897V417.037H264.034V426.439ZM283.356 406.66H291.776V397.259H283.356V406.66ZM264.034 406.66H272.897V397.259H264.034V406.66Z" fill="#033792"/>
<path d="M315.441 508.037V485.331H340.346L336.801 450.209H358.073L369.772 508.037H315.441Z" fill="#033792"/>
<path d="M412.847 430.874L438.55 428.39V420.496L412.847 422.98V405.685L438.55 403.201V389.454H448.92V391.937L473.117 389.631V396.549L448.92 398.855V402.226L473.117 399.92V442.492L412.758 448.346V431.051L412.847 430.874ZM448.92 419.432V427.326L456.808 426.528V418.634L448.92 419.432Z" fill="#033792"/>
<path d="M480.562 426.439V399.742H540.92V417.392C538.172 420.674 535.779 424.842 533.918 429.543L533.652 430.164L540.92 430.874V448.169L500.947 443.468L480.562 426.439ZM512.735 428.124L512.912 427.858C515.039 423.955 517.344 419.876 519.471 417.924L520.446 417.037H496.87L512.646 428.124H512.735Z" fill="#033792"/>
<path d="M476.839 463.956L412.847 470.342V453.047L476.839 446.661L540.92 453.047V470.342L476.839 463.956Z" fill="#033792"/>
<path d="M547.656 540.41C541.452 540.322 536.045 539.789 531.082 538.991C527.625 538.37 524.346 537.572 521.332 536.596C511.671 533.492 503.163 528.259 496.781 521.341C491.463 515.576 488.007 508.569 485.17 502.449V502.183H448.831L448.3 507.15H473.116V529.944H418.874L430.573 472.027H523.637V502.183H503.872L504.315 502.893C505.556 505.021 507.328 506.973 509.367 508.569C512.735 511.23 517.166 513.181 522.573 514.423H522.839L542.072 495.265L551.29 504.489L539.679 516.108H540.92C548.631 515.842 557.494 514.778 567.155 512.827C570.966 533.403 571.852 538.015 572.03 539.08C569.725 539.878 552.176 540.499 547.833 540.499C543.49 540.499 547.656 540.499 547.656 540.499V540.41ZM449.54 494.999H507.328V490.298H450.072L449.629 494.999H449.54ZM450.693 483.203H507.24V479.034H451.136L450.693 483.203Z" fill="#033792"/>
<path d="M204.103 589.542H200.458V597.4H194.878V589.542H181.895V585.442L193.17 567.106H200.345V584.986H203.989V589.542H204.103ZM194.878 584.872V578.722C194.878 577.014 194.992 574.167 195.106 572.458H194.992C194.308 574.053 193.397 575.761 192.6 577.356L187.931 584.872H194.992H194.878Z" fill="#DE5419"/>
<path d="M208.089 594.097C208.089 591.933 209.683 590.111 211.847 590.111C214.011 590.111 215.606 591.819 215.606 594.097C215.606 596.375 214.011 598.083 211.847 598.083C209.683 598.083 208.089 596.375 208.089 594.097Z" fill="#DE5419"/>
<path d="M219.592 593.756L222.439 589.883C224.261 591.592 226.425 592.958 229.158 592.958C231.892 592.958 234.283 591.478 234.283 588.744C234.283 586.011 232.575 583.847 225.856 583.847V579.519C231.436 579.519 233.258 577.583 233.258 574.85C233.258 572.117 231.778 571.092 229.158 570.978C226.995 570.978 225.172 572.003 223.464 573.711L220.389 570.067C223.008 567.789 225.97 566.308 229.5 566.308C235.422 566.308 239.295 569.156 239.295 574.394C239.295 579.633 237.472 580.089 234.17 581.342V581.569C237.586 582.481 240.206 585.1 240.206 589.086C240.206 593.072 235.308 597.856 229.5 597.856C223.692 597.856 221.414 596.033 219.364 593.642L219.592 593.756Z" fill="#DE5419"/>
<path d="M305.806 589.428C304.781 592.389 303.072 595.806 301.706 597.856C301.022 597.286 299.428 596.147 298.517 595.692C299.884 593.756 301.25 591.022 302.161 588.403L305.92 589.428H305.806ZM311.614 587.036V600.703H306.945V587.036H299.314V582.936H306.945V579.747H299.086V575.761H303.072C302.845 574.508 302.389 572.8 301.934 571.547L305.35 570.75H299.77V566.764H306.831C306.489 565.625 306.034 564.486 305.578 563.575L310.475 562.436C311.045 563.803 311.842 565.511 312.297 566.878H318.22V570.864H313.095L316.397 571.547C315.828 573.142 315.145 574.736 314.575 575.989H318.789V579.975H311.728V583.164H318.106V587.264H311.728L311.614 587.036ZM305.692 570.636C306.261 572.003 306.831 573.711 307.059 574.85L304.097 575.647H310.02C310.589 574.167 311.386 572.117 311.728 570.522H305.692V570.636ZM336.897 580.658H333.025V600.817H328.242V580.658H324.37V581.114C324.37 587.15 323.8 595.578 320.384 600.817C319.586 599.906 317.65 598.425 316.625 597.856C317.422 596.717 317.992 595.35 318.447 593.869L315.486 595.692C314.803 594.097 313.436 591.478 312.297 589.542L315.486 587.833C316.625 589.428 317.878 591.706 318.561 593.186C319.7 589.2 319.814 584.758 319.814 581V566.422C324.256 565.625 329.267 564.372 332.228 562.892L335.986 566.422C332.57 567.789 328.356 568.814 324.37 569.497V575.989H336.784V580.544L336.897 580.658Z" fill="#DE5419"/>
<path d="M357.625 589.2L358.536 593.528C352.728 596.033 346.464 598.539 341.567 600.475L339.403 595.464C342.25 594.553 346.122 593.3 350.336 591.819V577.242H340.883V572.344H350.336V563.347H355.461V589.997L357.739 589.2H357.625ZM370.95 595.008C372.431 595.008 372.658 593.072 373 585.783C374.139 586.694 376.303 587.719 377.67 588.061C377.214 596.603 376.075 599.792 371.406 599.792H366.508C361.953 599.792 360.586 598.083 360.586 592.389V563.347H365.711V572.344H376.417V577.242H365.711V592.503C365.711 594.667 365.939 595.122 367.306 595.122H370.95V595.008Z" fill="#DE5419"/>
<path d="M403.75 578.722C406.483 586.694 411.381 593.186 419.125 596.261C417.872 597.286 416.278 599.45 415.481 600.817C408.078 597.286 403.295 591.364 400.106 583.392C397.942 590.225 393.5 596.603 384.731 600.817C383.933 599.45 382.567 597.742 381.086 596.717C390.539 592.503 394.411 585.669 396.006 578.608H381.883V573.597H396.803C397.258 569.725 397.145 565.967 397.258 562.664H402.611C402.611 566.081 402.611 569.839 402.156 573.597H418.328V578.608H403.864L403.75 578.722Z" fill="#DE5419"/>
<path d="M460.353 566.992C458.872 570.978 457.05 575.533 455.342 579.178C458.872 582.822 459.556 586.125 459.556 588.744C459.556 591.364 458.872 593.869 457.278 594.894C456.594 595.464 455.569 595.806 454.431 596.033C453.519 596.147 452.153 596.147 450.9 596.033C450.9 594.667 450.444 592.617 449.647 591.364C450.672 591.364 451.469 591.478 452.267 591.364C452.836 591.364 453.519 591.25 453.861 591.022C454.658 590.567 454.886 589.542 454.886 588.289C454.886 586.011 453.975 583.05 450.672 579.861C451.811 576.9 453.292 572.8 454.317 569.611H449.078V601.044H444.294V565.853C443.042 568.928 441.675 571.889 439.853 574.622H442.928V578.836H436.778C435.867 579.861 435.069 580.886 434.158 581.797H441.561V600.361H436.892V598.767H430.286V600.817H425.844V588.403C425.161 588.858 424.478 589.314 423.794 589.656C423.225 588.631 421.858 586.581 420.947 585.556C424.592 583.847 427.894 581.569 430.742 578.836H421.972V574.622H429.147V571.206H423.794V566.992H429.147V563.006H433.703V566.992H437.917V569.042C438.714 567.561 439.283 566.081 439.967 564.486L444.294 565.625V564.828H456.822C456.822 564.714 460.353 566.878 460.353 566.878V566.992ZM437.006 585.669H430.4V588.289H437.006V585.669ZM437.006 594.894V591.933H430.4V594.894H437.006ZM434.614 574.508C435.411 573.483 436.094 572.344 436.892 571.092H433.817V574.508H434.614Z" fill="#DE5419"/>
<path d="M485.522 563.803C485.295 564.031 485.067 564.372 484.953 564.6C488.711 567.903 495.431 570.75 502.036 572.003C501.011 572.914 499.645 574.622 498.961 575.761C498.164 575.533 497.253 575.306 496.456 575.078V585.669H467.983V575.306C467.072 575.647 466.275 575.875 465.478 576.103C465.022 575.192 463.656 573.256 462.858 572.344C470.375 570.636 477.664 567.219 481.422 562.436L485.75 563.917L485.522 563.803ZM494.861 574.508C492.925 573.825 491.103 572.914 489.281 572.003V573.028H474.931V572.231C473.336 573.028 471.742 573.825 469.92 574.508H494.861ZM470.033 586.922H494.178V600.817H489.167V599.792H474.817V600.931H470.033V586.922ZM474.703 582.594C474.475 581.342 474.02 579.633 473.336 578.381L476.525 577.469H471.856V582.594H474.703ZM474.931 590.111V591.706H489.281V590.111H474.931ZM489.167 596.603V595.008H474.817V596.603H489.167ZM479.942 577.469H476.753C477.436 578.836 478.12 580.658 478.347 581.797L475.728 582.594H479.942V577.469ZM485.75 569.839C484.497 568.928 483.358 568.131 482.333 567.219C481.308 568.131 480.056 569.042 478.803 569.839H485.75ZM483.814 577.469V582.594H487.686L485.181 581.911C485.75 580.658 486.433 578.836 486.775 577.469H483.814ZM492.014 577.469H487.8L490.989 578.267C490.192 579.861 489.395 581.456 488.711 582.708H492.014V577.583V577.469Z" fill="#DE5419"/>
<path d="M520.145 565.283C517.183 572.003 512.4 578.95 507.958 583.278C507.047 582.253 504.883 580.089 503.631 579.064C507.958 575.419 512.286 569.497 514.792 563.461L520.258 565.169L520.145 565.283ZM531.647 584.189C534.95 588.744 538.708 594.553 540.758 598.311L535.747 600.931C535.178 599.792 534.494 598.425 533.583 596.944C513.767 598.539 510.919 598.767 508.983 599.45C508.642 598.425 507.731 595.692 506.933 594.211C508.3 593.869 509.439 592.731 511.033 590.908C512.742 589.2 517.867 582.139 521.169 575.306L526.864 577.697C523.675 583.278 519.803 588.744 515.817 593.186L530.85 592.161C529.483 590.111 528.231 587.947 526.864 586.125L531.647 583.961V584.189ZM532.444 563.575C534.153 569.269 537.911 575.078 543.036 578.153C541.897 579.178 540.189 581.569 539.392 583.05C534.722 579.519 531.078 573.939 528.8 568.586H522.194V563.575H532.558H532.444Z" fill="#DE5419"/>
<path d="M581.645 564.144V600.931H576.861V599.45H551.236V600.931H546.681V564.144H581.645ZM576.861 595.122V568.586H551.236V595.122H576.861ZM565.814 589.656C565.7 590.567 565.814 591.933 565.814 592.617C558.867 594.325 557.614 594.781 556.931 595.122C556.817 594.439 556.247 593.072 555.792 592.617C556.361 592.275 557.158 591.933 557.158 590.339V588.858C556.02 589.314 554.995 589.656 553.97 589.997C553.514 589.314 552.375 587.947 551.578 587.264C554.197 586.694 557.045 585.897 559.322 584.758H554.653V578.836H573.558V584.758H564.789C563.65 585.669 562.17 586.581 560.689 587.264V590.794L565.814 589.656ZM575.381 577.697H552.603V574.964H561.714V573.369H554.539V570.75H561.714V569.042H566.156V570.75H573.672V573.369H566.156V574.964H575.381V577.697ZM558.753 582.708H569.345V581H558.753V582.708ZM575.836 587.15C574.811 587.947 573.558 588.631 572.42 589.314C573.9 590.339 575.153 591.25 576.064 592.161L572.989 593.983C570.939 592.047 566.611 588.972 563.195 586.808L566.156 585.214C567.295 585.897 568.661 586.808 570.028 587.606C571.167 586.808 572.42 586.011 573.103 585.214L575.95 587.15H575.836Z" fill="#DE5419"/>
<path d="M603.967 592.503H610.458V573.256H604.992V569.497C608.067 568.928 610.117 568.131 612.053 566.992H616.495V592.503H622.189V597.4H603.967V592.503Z" fill="#DE5419"/>
<path d="M626.631 582.139C626.631 571.661 630.731 566.536 636.881 566.536C643.031 566.536 647.131 571.661 647.131 582.139C647.131 592.617 643.031 597.969 636.881 597.969C630.731 597.969 626.631 592.503 626.631 582.139ZM641.436 582.139C641.436 573.597 639.5 571.206 636.881 571.206C634.261 571.206 632.325 573.711 632.325 582.139C632.325 590.567 634.261 593.3 636.881 593.3C639.5 593.3 641.436 590.681 641.436 582.139Z" fill="#DE5419"/>
<path d="M651.914 578.494C651.914 576.217 653.509 574.508 655.672 574.508C657.836 574.508 659.431 576.217 659.431 578.494C659.431 580.772 657.836 582.367 655.672 582.367C653.509 582.367 651.914 580.658 651.914 578.494ZM651.914 594.097C651.914 591.933 653.509 590.111 655.672 590.111C657.836 590.111 659.431 591.819 659.431 594.097C659.431 596.375 657.836 598.083 655.672 598.083C653.509 598.083 651.914 596.375 651.914 594.097Z" fill="#DE5419"/>
<path d="M663.417 593.756L666.264 589.883C668.086 591.592 670.25 592.958 672.983 592.958C675.717 592.958 678.108 591.478 678.108 588.744C678.108 586.011 676.4 583.847 669.681 583.847V579.519C675.261 579.519 677.083 577.583 677.083 574.85C677.083 572.117 675.603 571.092 672.983 570.978C670.82 570.978 668.997 572.003 667.289 573.711L664.214 570.067C666.833 567.789 669.795 566.308 673.325 566.308C679.247 566.308 683.12 569.156 683.12 574.394C683.12 579.633 681.297 580.089 677.995 581.342V581.569C681.411 582.481 684.031 585.1 684.031 589.086C684.031 593.072 679.133 597.856 673.325 597.856C667.517 597.856 665.239 596.033 663.189 593.642L663.417 593.756Z" fill="#DE5419"/>
<path d="M688.245 582.139C688.245 571.661 692.345 566.536 698.495 566.536C704.645 566.536 708.745 571.661 708.745 582.139C708.745 592.617 704.645 597.969 698.495 597.969C692.345 597.969 688.245 592.503 688.245 582.139ZM703.164 582.139C703.164 573.597 701.228 571.206 698.609 571.206C695.989 571.206 694.053 573.711 694.053 582.139C694.053 590.567 695.989 593.3 698.609 593.3C701.228 593.3 703.164 590.681 703.164 582.139Z" fill="#DE5419"/>
<path d="M712.73 583.506H723.892V587.833H712.73V583.506Z" fill="#DE5419"/>
<path d="M729.245 592.503H735.736V573.256H730.27V569.497C733.345 568.928 735.395 568.131 737.331 566.992H741.772V592.503H747.467V597.4H729.245V592.503Z" fill="#DE5419"/>
<path d="M751.111 593.869L753.958 589.997C755.667 591.706 757.831 593.072 760.678 593.072C763.525 593.072 766.031 591.022 766.031 587.492C766.031 583.961 763.981 582.025 760.906 582.025C757.831 582.025 758.058 582.481 756.35 583.619L753.617 581.797L754.414 567.106H770.7V572.117H759.653L759.083 578.608C760.222 578.039 761.361 577.697 762.728 577.697C767.853 577.697 772.067 580.772 772.067 587.378C772.067 593.983 767.056 598.083 761.475 598.083C755.894 598.083 753.503 596.147 751.225 593.983L751.111 593.869Z" fill="#DE5419"/>
<path d="M777.078 578.494C777.078 576.217 778.672 574.508 780.836 574.508C783 574.508 784.595 576.217 784.595 578.494C784.595 580.772 783 582.367 780.836 582.367C778.672 582.367 777.078 580.658 777.078 578.494ZM777.078 594.097C777.078 591.933 778.672 590.111 780.836 590.111C783 590.111 784.595 591.819 784.595 594.097C784.595 596.375 783 598.083 780.836 598.083C778.672 598.083 777.078 596.375 777.078 594.097Z" fill="#DE5419"/>
<path d="M789.378 582.139C789.378 571.661 793.478 566.536 799.628 566.536C805.778 566.536 809.878 571.661 809.878 582.139C809.878 592.617 805.778 597.969 799.628 597.969C793.478 597.969 789.378 592.503 789.378 582.139ZM804.183 582.139C804.183 573.597 802.247 571.206 799.628 571.206C797.008 571.206 795.072 573.711 795.072 582.139C795.072 590.567 797.008 593.3 799.628 593.3C802.247 593.3 804.183 590.681 804.183 582.139Z" fill="#DE5419"/>
<path d="M813.522 582.139C813.522 571.661 817.622 566.536 823.772 566.536C829.922 566.536 834.022 571.661 834.022 582.139C834.022 592.617 829.922 597.969 823.772 597.969C817.622 597.969 813.522 592.503 813.522 582.139ZM828.442 582.139C828.442 573.597 826.506 571.206 823.886 571.206C821.267 571.206 819.331 573.711 819.331 582.139C819.331 590.567 821.267 593.3 823.886 593.3C826.506 593.3 828.442 590.681 828.442 582.139Z" fill="#DE5419"/>
<path d="M268.222 601.614C278.978 601.614 287.697 592.895 287.697 582.139C287.697 571.383 278.978 562.664 268.222 562.664C257.467 562.664 248.747 571.383 248.747 582.139C248.747 592.895 257.467 601.614 268.222 601.614Z" fill="#DE5419"/>
<path d="M277.447 573.142V590.111H274.828V588.858H262.414V590.225H259.908V573.142H277.561H277.447ZM274.714 586.467V584.189C274.372 584.189 274.03 584.189 273.689 584.189H271.867C269.93 584.189 269.475 583.164 269.475 581V575.533H267.425C267.425 580.658 266.855 583.733 263.553 585.442C263.325 584.872 262.642 583.961 262.186 583.506V586.353H274.6L274.714 586.467ZM262.3 575.533V583.506C264.805 582.025 265.033 579.747 265.033 575.533H262.3ZM274.714 575.533H271.867V581.114C271.867 581.797 271.867 582.139 272.322 582.139H273.689C274.03 582.139 274.486 582.139 274.828 582.139V575.647L274.714 575.533Z" fill="white"/>
<defs>
<filter id="filter0_d_97_354" x="28.0076" y="43.726" width="1010.58" height="685.095" filterUnits="userSpaceOnUse" color-interpolation-filters="sRGB">
<feFlood flood-opacity="0" result="BackgroundImageFix"/>
<feColorMatrix in="SourceAlpha" type="matrix" values="0 0 0 0 0 0 0 0 0 0 0 0 0 0 0 0 0 0 127 0" result="hardAlpha"/>
<feOffset dx="10.9" dy="16.7"/>
<feColorMatrix type="matrix" values="0 0 0 0 0.529412 0 0 0 0 0.27451 0 0 0 0 0.137255 0 0 0 1 0"/>
<feBlend mode="normal" in2="BackgroundImageFix" result="effect1_dropShadow_97_354"/>
<feBlend mode="normal" in="SourceGraphic" in2="effect1_dropShadow_97_354" result="shape"/>
</filter>
</defs>
</svg>
