<svg width="638" height="531" viewBox="0 0 638 531" fill="none" xmlns="http://www.w3.org/2000/svg">
<g filter="url(#filter0_d_245_136)">
<path d="M593.502 277.965C603.613 262.64 609.724 242.684 609.724 220.957C609.724 172.463 579.391 133.163 541.946 133.163C504.502 133.163 534.391 133.572 530.724 134.389C514.891 84.3286 471.279 48.3666 419.946 48.3666C368.612 48.3666 393.279 50.8866 381.168 55.5181C377.501 53.5429 373.668 51.7721 369.779 50.0693C348.39 24.9368 317.834 9.27148 283.89 9.27148C229.723 9.27148 186.887 41.3086 173.498 95.6604C169.276 94.6387 159.18 94.8176 155.39 95.239C124.228 97.346 106.12 114.202 99.7226 144.606C92.6114 139.838 84.5003 137.182 75.9447 137.182C47.2779 137.182 24.0001 167.287 24.0001 204.475C24.0001 241.663 27.2223 231.106 32.7223 241.731V243.502C12.7778 264.479 0 296.491 0 332.385C0 395.523 34.2169 443.929 81.6956 447.537C114.963 450.066 90.2878 446.192 93.0656 445.851C100.646 455.122 106.854 460.025 112.437 463.129C116.227 465.236 136.861 471.557 150.337 465.236C163.391 478.721 177.348 486.443 181.499 488.835C195.396 496.842 213.758 503.494 232.874 507.799C250.14 511.686 269.09 513.277 303.2 514.12C337.31 514.12 352.891 512.434 384.896 504.849C406.372 497.263 415.931 492.886 436.692 480.407C440.526 477.206 445.261 473.073 448.483 469.872C456.206 475.797 471.663 478.3 481.33 478.3C499.83 478.3 534.011 471.882 543.233 453.015C556.709 453.785 561.347 450.801 568.921 447.958C582.397 442.902 626.613 410.098 626.613 357.586C626.613 305.073 613.447 295.061 593.502 278.101V277.965Z" fill="#FFFBD2"/>
</g>
<ellipse cx="85.9067" cy="201.856" rx="72.4311" ry="69.5325" fill="#FFFBD2"/>
<ellipse cx="111.067" cy="77.9259" rx="111.067" ry="77.9259" transform="matrix(0.946968 0.321329 -0.273845 0.961774 364.408 0)" fill="#FFFBD2"/>
<path d="M131.25 443.614H128.968V448.607H125.474V443.614H117.346V441.009L124.405 429.359H128.897V440.72H131.179V443.614H131.25ZM125.474 440.647V436.74C125.474 435.655 125.546 433.846 125.617 432.76H125.546C125.118 433.773 124.548 434.859 124.048 435.872L121.125 440.647H125.546H125.474Z" fill="#DE5419"/>
<path d="M133.746 446.508C133.746 445.133 134.745 443.976 136.1 443.976C137.455 443.976 138.453 445.061 138.453 446.508C138.453 447.955 137.455 449.041 136.1 449.041C134.745 449.041 133.746 447.955 133.746 446.508Z" fill="#DE5419"/>
<path d="M140.948 446.291L142.73 443.831C143.871 444.916 145.226 445.784 146.937 445.784C148.649 445.784 150.146 444.844 150.146 443.107C150.146 441.371 149.077 439.996 144.87 439.996V437.246C148.364 437.246 149.504 436.016 149.504 434.279C149.504 432.543 148.577 431.892 146.937 431.819C145.583 431.819 144.442 432.47 143.372 433.556L141.447 431.24C143.087 429.793 144.941 428.853 147.151 428.853C150.859 428.853 153.284 430.662 153.284 433.99C153.284 437.318 152.143 437.608 150.075 438.404V438.549C152.214 439.127 153.854 440.792 153.854 443.324C153.854 445.857 150.788 448.896 147.151 448.896C143.515 448.896 142.089 447.738 140.805 446.219L140.948 446.291Z" fill="#DE5419"/>
<path d="M194.926 443.542C194.284 445.423 193.215 447.594 192.359 448.896C191.931 448.534 190.933 447.811 190.362 447.521C191.218 446.291 192.074 444.555 192.644 442.89L194.997 443.542H194.926ZM198.562 442.022V450.705H195.639V442.022H190.861V439.417H195.639V437.391H190.719V434.859H193.215C193.072 434.063 192.787 432.977 192.501 432.181L194.641 431.675H191.147V429.142H195.568C195.354 428.419 195.068 427.695 194.783 427.116L197.849 426.393C198.206 427.261 198.705 428.346 198.99 429.215H202.698V431.747H199.489L201.557 432.181C201.201 433.194 200.773 434.207 200.416 435.003H203.055V437.536H198.634V439.562H202.627V442.167H198.634L198.562 442.022ZM194.855 431.602C195.211 432.471 195.568 433.556 195.71 434.28L193.856 434.786H197.564C197.921 433.846 198.42 432.543 198.634 431.53H194.855V431.602ZM214.392 437.97H211.968V450.777H208.973V437.97H206.549V438.259C206.549 442.094 206.192 447.449 204.053 450.777C203.554 450.199 202.342 449.258 201.7 448.896C202.199 448.172 202.556 447.304 202.841 446.364L200.987 447.521C200.559 446.508 199.703 444.844 198.99 443.614L200.987 442.529C201.7 443.542 202.484 444.989 202.912 445.929C203.625 443.397 203.696 440.575 203.696 438.187V428.925C206.477 428.419 209.615 427.623 211.469 426.682L213.822 428.925C211.683 429.793 209.044 430.445 206.549 430.879V435.003H214.321V437.898L214.392 437.97Z" fill="#DE5419"/>
<path d="M227.37 443.397L227.94 446.147C224.304 447.739 220.382 449.33 217.316 450.561L215.961 447.377C217.744 446.798 220.168 446.002 222.806 445.061V435.799H216.888V432.688H222.806V426.972H226.015V443.904L227.441 443.397H227.37ZM235.712 447.087C236.639 447.087 236.782 445.857 236.996 441.226C237.709 441.805 239.064 442.456 239.919 442.673C239.634 448.1 238.921 450.126 235.998 450.126H232.932C230.079 450.126 229.224 449.041 229.224 445.423V426.972H232.432V432.688H239.135V435.799H232.432V445.495C232.432 446.87 232.575 447.16 233.431 447.16H235.712V447.087Z" fill="#DE5419"/>
<path d="M256.248 436.74C257.96 441.805 261.026 445.929 265.875 447.883C265.09 448.534 264.092 449.909 263.593 450.777C258.958 448.534 255.963 444.771 253.967 439.706C252.612 444.048 249.831 448.1 244.34 450.777C243.841 449.909 242.986 448.824 242.059 448.172C247.977 445.495 250.401 441.154 251.4 436.667H242.558V433.484H251.899C252.184 431.023 252.113 428.636 252.184 426.537H255.535C255.535 428.708 255.535 431.096 255.25 433.484H265.375V436.667H256.32L256.248 436.74Z" fill="#DE5419"/>
<path d="M291.687 429.286C290.76 431.819 289.619 434.713 288.549 437.029C290.76 439.344 291.188 441.443 291.188 443.107C291.188 444.771 290.76 446.363 289.761 447.014C289.334 447.376 288.692 447.593 287.979 447.738C287.408 447.81 286.553 447.81 285.768 447.738C285.768 446.87 285.483 445.567 284.984 444.771C285.626 444.771 286.125 444.844 286.624 444.771C286.981 444.771 287.408 444.699 287.622 444.554C288.121 444.265 288.264 443.613 288.264 442.817C288.264 441.37 287.694 439.489 285.626 437.463C286.339 435.582 287.266 432.977 287.908 430.951H284.628V450.922H281.633V428.563C280.848 430.517 279.993 432.398 278.852 434.134H280.777V436.812H276.927C276.356 437.463 275.857 438.114 275.287 438.693H279.921V450.487H276.998V449.474H272.862V450.777H270.081V442.89C269.653 443.179 269.226 443.469 268.798 443.686C268.441 443.035 267.586 441.732 267.015 441.081C269.297 439.996 271.365 438.548 273.147 436.812H267.657V434.134H272.149V431.964H268.798V429.286H272.149V426.754H275.001V429.286H277.64V430.589C278.139 429.648 278.495 428.708 278.923 427.695L281.633 428.418V427.912H289.476C289.476 427.839 291.687 429.214 291.687 429.214V429.286ZM277.069 441.153H272.933V442.817H277.069V441.153ZM277.069 447.014V445.133H272.933V447.014H277.069ZM275.572 434.062C276.071 433.411 276.499 432.687 276.998 431.891H275.073V434.062H275.572Z" fill="#DE5419"/>
<path d="M307.446 427.261C307.303 427.406 307.16 427.623 307.089 427.767C309.442 429.866 313.649 431.675 317.785 432.471C317.143 433.05 316.287 434.135 315.86 434.859C315.36 434.714 314.79 434.569 314.291 434.424V441.154H296.465V434.569C295.894 434.786 295.395 434.931 294.896 435.076C294.611 434.497 293.755 433.267 293.256 432.688C297.962 431.602 302.526 429.432 304.879 426.393L307.588 427.333L307.446 427.261ZM313.293 434.063C312.08 433.628 310.94 433.05 309.799 432.471V433.122H300.814V432.615C299.816 433.122 298.818 433.628 297.677 434.063H313.293ZM297.748 441.95H312.865V450.777H309.727V450.126H300.743V450.85H297.748V441.95ZM300.672 439.2C300.529 438.404 300.244 437.319 299.816 436.523L301.812 435.944H298.889V439.2H300.672ZM300.814 443.976V444.989H309.799V443.976H300.814ZM309.727 448.1V447.087H300.743V448.1H309.727ZM303.952 435.944H301.955C302.383 436.812 302.811 437.97 302.953 438.694L301.313 439.2H303.952V435.944ZM307.588 431.096C306.804 430.517 306.091 430.011 305.449 429.432C304.807 430.011 304.023 430.589 303.239 431.096H307.588ZM306.376 435.944V439.2H308.8L307.232 438.766C307.588 437.97 308.016 436.812 308.23 435.944H306.376ZM311.51 435.944H308.872L310.868 436.45C310.369 437.463 309.87 438.476 309.442 439.272H311.51V436.016V435.944Z" fill="#DE5419"/>
<path d="M329.122 428.202C327.269 432.471 324.274 436.885 321.493 439.634C320.922 438.983 319.568 437.608 318.783 436.957C321.493 434.642 324.202 430.879 325.771 427.044L329.194 428.129L329.122 428.202ZM336.324 440.213C338.392 443.108 340.745 446.798 342.029 449.186L338.891 450.85C338.535 450.126 338.107 449.258 337.536 448.317C325.129 449.33 323.347 449.475 322.135 449.909C321.921 449.258 321.35 447.521 320.851 446.581C321.707 446.364 322.42 445.64 323.418 444.482C324.488 443.397 327.696 438.911 329.764 434.569L333.329 436.089C331.333 439.634 328.909 443.108 326.413 445.93L335.825 445.278C334.969 443.976 334.185 442.601 333.329 441.443L336.324 440.068V440.213ZM336.823 427.116C337.893 430.734 340.246 434.425 343.455 436.378C342.742 437.029 341.672 438.549 341.173 439.49C338.25 437.246 335.968 433.701 334.542 430.3H330.406V427.116H336.895H336.823Z" fill="#DE5419"/>
<path d="M367.627 427.478V450.849H364.632V449.909H348.589V450.849H345.736V427.478H367.627ZM364.632 447.159V430.3H348.589V447.159H364.632ZM357.716 443.686C357.644 444.265 357.716 445.133 357.716 445.567C353.366 446.653 352.582 446.942 352.154 447.159C352.082 446.725 351.726 445.857 351.441 445.567C351.797 445.35 352.296 445.133 352.296 444.12V443.179C351.583 443.469 350.942 443.686 350.3 443.903C350.015 443.469 349.302 442.6 348.802 442.166C350.442 441.805 352.225 441.298 353.651 440.574H350.728V436.812H362.564V440.574H357.074C356.361 441.153 355.434 441.732 354.507 442.166V444.409L357.716 443.686ZM363.705 436.088H349.444V434.352H355.149V433.339H350.656V431.674H355.149V430.589H357.93V431.674H362.636V433.339H357.93V434.352H363.705V436.088ZM353.295 439.272H359.926V438.187H353.295V439.272ZM363.99 442.094C363.349 442.6 362.564 443.035 361.851 443.469C362.778 444.12 363.563 444.699 364.133 445.278L362.208 446.435C360.924 445.205 358.215 443.252 356.076 441.877L357.93 440.864C358.643 441.298 359.498 441.877 360.354 442.383C361.067 441.877 361.851 441.37 362.279 440.864L364.062 442.094H363.99Z" fill="#DE5419"/>
<path d="M381.603 445.495H385.667V433.267H382.245V430.879C384.17 430.517 385.454 430.011 386.666 429.287H389.447V445.495H393.012V448.607H381.603V445.495Z" fill="#DE5419"/>
<path d="M395.792 438.91C395.792 432.253 398.359 428.997 402.21 428.997C406.06 428.997 408.627 432.253 408.627 438.91C408.627 445.567 406.06 448.968 402.21 448.968C398.359 448.968 395.792 445.495 395.792 438.91ZM405.062 438.91C405.062 433.483 403.85 431.964 402.21 431.964C400.57 431.964 399.358 433.556 399.358 438.91C399.358 444.265 400.57 446.001 402.21 446.001C403.85 446.001 405.062 444.337 405.062 438.91Z" fill="#DE5419"/>
<path d="M411.623 436.595C411.623 435.148 412.621 434.062 413.976 434.062C415.331 434.062 416.329 435.148 416.329 436.595C416.329 438.042 415.331 439.055 413.976 439.055C412.621 439.055 411.623 437.97 411.623 436.595ZM411.623 446.508C411.623 445.133 412.621 443.976 413.976 443.976C415.331 443.976 416.329 445.061 416.329 446.508C416.329 447.955 415.331 449.041 413.976 449.041C412.621 449.041 411.623 447.955 411.623 446.508Z" fill="#DE5419"/>
<path d="M418.824 446.291L420.607 443.831C421.748 444.916 423.103 445.784 424.814 445.784C426.525 445.784 428.023 444.844 428.023 443.107C428.023 441.371 426.953 439.996 422.746 439.996V437.246C426.24 437.246 427.381 436.016 427.381 434.279C427.381 432.543 426.454 431.892 424.814 431.819C423.459 431.819 422.318 432.47 421.249 433.556L419.323 431.24C420.963 429.793 422.817 428.853 425.028 428.853C428.736 428.853 431.16 430.662 431.16 433.99C431.16 437.318 430.019 437.608 427.951 438.404V438.549C430.09 439.127 431.731 440.792 431.731 443.324C431.731 445.857 428.664 448.896 425.028 448.896C421.391 448.896 419.965 447.738 418.682 446.219L418.824 446.291Z" fill="#DE5419"/>
<path d="M434.369 438.91C434.369 432.253 436.936 428.997 440.786 428.997C444.637 428.997 447.204 432.253 447.204 438.91C447.204 445.567 444.637 448.968 440.786 448.968C436.936 448.968 434.369 445.495 434.369 438.91ZM443.71 438.91C443.71 433.483 442.497 431.964 440.857 431.964C439.217 431.964 438.005 433.556 438.005 438.91C438.005 444.265 439.217 446.001 440.857 446.001C442.497 446.001 443.71 444.337 443.71 438.91Z" fill="#DE5419"/>
<path d="M449.699 439.779H456.687V442.529H449.699V439.779Z" fill="#DE5419"/>
<path d="M460.039 445.495H464.103V433.267H460.68V430.879C462.606 430.517 463.889 430.011 465.101 429.287H467.882V445.495H471.447V448.607H460.039V445.495Z" fill="#DE5419"/>
<path d="M473.729 446.364L475.512 443.903C476.581 444.989 477.936 445.857 479.719 445.857C481.501 445.857 483.07 444.555 483.07 442.312C483.07 440.068 481.786 438.838 479.861 438.838C477.936 438.838 478.079 439.128 477.009 439.851L475.298 438.694L475.797 429.359H485.994V432.543H479.077L478.72 436.668C479.433 436.306 480.146 436.089 481.002 436.089C484.211 436.089 486.849 438.042 486.849 442.239C486.849 446.436 483.712 449.041 480.218 449.041C476.724 449.041 475.226 447.811 473.8 446.436L473.729 446.364Z" fill="#DE5419"/>
<path d="M489.987 436.595C489.987 435.148 490.985 434.062 492.34 434.062C493.695 434.062 494.694 435.148 494.694 436.595C494.694 438.042 493.695 439.055 492.34 439.055C490.985 439.055 489.987 437.97 489.987 436.595ZM489.987 446.508C489.987 445.133 490.985 443.976 492.34 443.976C493.695 443.976 494.694 445.061 494.694 446.508C494.694 447.955 493.695 449.041 492.34 449.041C490.985 449.041 489.987 447.955 489.987 446.508Z" fill="#DE5419"/>
<path d="M497.688 438.91C497.688 432.253 500.254 428.997 504.105 428.997C507.955 428.997 510.522 432.253 510.522 438.91C510.522 445.567 507.955 448.968 504.105 448.968C500.254 448.968 497.688 445.495 497.688 438.91ZM506.957 438.91C506.957 433.483 505.745 431.964 504.105 431.964C502.465 431.964 501.253 433.556 501.253 438.91C501.253 444.265 502.465 446.001 504.105 446.001C505.745 446.001 506.957 444.337 506.957 438.91Z" fill="#DE5419"/>
<path d="M512.805 438.91C512.805 432.253 515.372 428.997 519.222 428.997C523.073 428.997 525.64 432.253 525.64 438.91C525.64 445.567 523.073 448.968 519.222 448.968C515.372 448.968 512.805 445.495 512.805 438.91ZM522.146 438.91C522.146 433.483 520.934 431.964 519.293 431.964C517.653 431.964 516.441 433.556 516.441 438.91C516.441 444.265 517.653 446.001 519.293 446.001C520.934 446.001 522.146 444.337 522.146 438.91Z" fill="#DE5419"/>
<path d="M171.395 451.284C178.129 451.284 183.588 445.744 183.588 438.91C183.588 432.077 178.129 426.537 171.395 426.537C164.661 426.537 159.202 432.077 159.202 438.91C159.202 445.744 164.661 451.284 171.395 451.284Z" fill="#DE5419"/>
<path d="M177.171 433.194V443.976H175.531V443.18H167.759V444.048H166.19V433.194H177.242H177.171ZM175.46 441.66V440.213C175.246 440.213 175.032 440.213 174.818 440.213H173.677C172.465 440.213 172.18 439.562 172.18 438.187V434.714H170.896C170.896 437.97 170.54 439.924 168.472 441.009C168.329 440.647 167.901 440.068 167.616 439.779V441.588H175.388L175.46 441.66ZM167.687 434.714V439.779C169.256 438.838 169.399 437.391 169.399 434.714H167.687ZM175.46 434.714H173.677V438.259C173.677 438.694 173.677 438.911 173.962 438.911H174.818C175.032 438.911 175.317 438.911 175.531 438.911V434.786L175.46 434.714Z" fill="white"/>
<path d="M488.739 253.688H524.686V372.809H405.733V336.811C405.733 290.914 442.906 253.688 488.739 253.688Z" fill="#FAD6C0"/>
<path d="M121.913 255.488H173.138C210.555 255.488 240.866 285.923 240.866 323.311V374.608H121.913V255.488Z" fill="#FAD6C0"/>
<path d="M325.587 264.161H382.612V391.462H321.502C289.558 391.462 263.659 365.528 263.659 333.539V326.094C263.659 291.896 291.437 264.079 325.587 264.079V264.161Z" fill="#FAD6C0"/>
<path d="M507.203 378.29V374.609L439.311 371.582V378.29H414.23V266.942H532.284V378.29H507.203ZM439.311 346.547L507.203 349.574V328.139H439.311V346.547ZM439.311 303.022H507.203V282.978H439.311V303.022Z" fill="#033792"/>
<path d="M215.621 340.411V327.648H169.625V311.694H183.677L174.445 302.449L185.719 291.159L194.543 299.995L194.869 299.422C197.647 294.268 201.242 289.605 205.572 285.514L206.389 284.696H169.706V268.742H225.343V285.023C223.709 286.987 213.742 299.504 210.964 311.121L210.801 311.694H225.261V340.411H215.702H215.621Z" fill="#033792"/>
<path d="M107.125 386.962V365.936H123.547L124.037 354.564H107.044V338.611H124.69L125.181 327.648H106.962V268.742H162.599V327.648H144.87L145.36 338.611H162.599V354.564H146.096L146.586 365.936H162.599V386.962H106.962H107.125ZM139.968 311.694H147.729V303.022H139.968V311.694ZM122.158 311.694H130.328V303.022H122.158V311.694ZM139.968 293.45H147.729V284.778H139.968V293.45ZM122.158 293.45H130.328V284.778H122.158V293.45Z" fill="#033792"/>
<path d="M169.543 386.962V366.018H192.5L189.232 333.62H208.84L219.624 386.962H169.543Z" fill="#033792"/>
<path d="M259.33 315.785L283.022 313.494V306.213L259.33 308.504V292.55L283.022 290.259V277.578H292.581V279.869L314.885 277.742V284.123L292.581 286.25V289.359L314.885 287.232V326.502L259.248 331.902V315.949L259.33 315.785ZM292.581 305.231V312.512L299.852 311.776V304.495L292.581 305.231Z" fill="#033792"/>
<path d="M321.748 311.694V287.068H377.384V303.349C374.852 306.376 372.646 310.222 370.93 314.558L370.685 315.13L377.384 315.785V331.738L340.538 327.402L321.748 311.694ZM351.404 313.249L351.568 313.003C353.528 309.403 355.652 305.64 357.613 303.84L358.512 303.022H336.78L351.322 313.249H351.404Z" fill="#033792"/>
<path d="M318.316 346.301L259.33 352.192V336.238L318.316 330.348L377.384 336.238V352.192L318.316 346.301Z" fill="#033792"/>
<path d="M383.593 416.824C377.874 416.742 372.891 416.251 368.316 415.515C365.129 414.942 362.106 414.206 359.329 413.306C350.424 410.443 342.58 405.616 336.698 399.234C331.796 393.916 328.61 387.453 325.996 381.808V381.563H292.499L292.009 386.144H314.885V407.17H264.885L275.669 353.746H361.453V381.563H343.234L343.643 382.217C344.786 384.181 346.42 385.981 348.299 387.453C351.404 389.908 355.489 391.707 360.472 392.853H360.718L378.446 375.181L386.943 383.69L376.24 394.407H377.384C384.492 394.162 392.662 393.18 401.567 391.38C405.08 410.361 405.897 414.615 406.06 415.597C403.936 416.333 387.76 416.906 383.757 416.906C379.753 416.906 383.593 416.906 383.593 416.906V416.824ZM293.153 374.936H346.42V370.6H293.643L293.235 374.936H293.153ZM294.215 364.055H346.339V360.209H294.623L294.215 364.055Z" fill="#033792"/>
<path d="M246.771 107.607L247.74 102.61C255.568 96.9646 261.457 92.0975 265.544 88.0091C269.631 83.9207 271.986 80.2866 272.61 77.1068C273.233 73.9269 272.748 73.1482 271.778 71.9152C270.809 70.6822 269.215 70.0332 266.998 70.0332C264.782 70.0332 261.11 71.5258 257.646 74.511L253.49 69.8386C256.192 67.5672 258.755 65.88 261.179 64.8417C263.604 63.8033 266.375 63.2842 269.423 63.2842C273.787 63.2842 277.112 64.5172 279.329 66.9832C281.546 69.4492 282.239 72.6939 281.546 76.7174C280.299 83.3367 273.649 91.3836 261.595 100.793C264.782 100.469 267.276 100.339 269.285 100.339H279.329L277.944 107.607H246.84H246.771Z" fill="#E95513"/>
<path d="M310.364 106.179C306.831 110.073 302.605 112.085 297.756 112.085C292.907 112.085 289.443 110.138 287.365 106.179C285.287 102.286 284.94 96.6398 286.326 89.3067C287.711 81.9736 290.136 76.3926 293.669 72.6287C297.202 68.7999 301.358 66.918 306.277 66.918C311.195 66.918 314.659 68.7999 316.737 72.6287C318.815 76.4575 319.162 81.9736 317.776 89.3067C316.391 96.6398 313.966 102.286 310.433 106.179H310.364ZM294.985 89.5014C292.976 100.079 294.362 105.336 299.003 105.336C303.644 105.336 306.97 100.079 308.978 89.5014C310.987 78.9235 309.602 73.667 304.961 73.667C300.319 73.667 296.994 78.9235 294.985 89.5014Z" fill="#E95513"/>
<path d="M320.616 103.908L321.586 98.9112C329.414 93.2654 335.302 88.3983 339.389 84.3099C343.477 80.2215 345.832 76.5874 346.455 73.4076C346.871 71.2011 346.594 69.449 345.624 68.216C344.654 66.983 343.061 66.334 340.844 66.334C338.627 66.334 334.956 67.8266 331.492 70.8118L327.336 66.1393C330.037 63.868 332.601 62.1807 335.025 61.1424C337.45 60.1041 340.221 59.585 343.269 59.585C347.633 59.585 350.958 60.818 353.175 63.284C355.392 65.75 356.084 68.9947 355.392 73.0182C354.145 79.6375 347.494 87.6844 335.441 97.0942C338.627 96.7697 341.121 96.6399 343.13 96.6399H353.175L351.789 103.908H320.686H320.616Z" fill="#E95513"/>
<path d="M370.494 107.672C364.259 107.672 359.41 105.725 355.946 101.767L361.28 96.2507C363.913 99.171 367.099 100.664 370.702 100.664C374.304 100.664 375.274 99.9498 377.075 98.5221C378.876 97.0944 379.984 95.1475 380.469 92.6166C380.954 90.0857 380.608 88.2038 379.43 86.7761C378.253 85.4133 376.521 84.6995 374.096 84.6995C371.671 84.6995 371.602 84.8942 370.563 85.2186C369.593 85.5431 368.277 86.1272 366.684 87.0357L362.943 84.4399L368.208 63.2842H393.077L391.692 70.5524H374.789L372.156 79.7675C374.165 78.9238 376.105 78.5345 377.975 78.5345C382.132 78.5345 385.318 79.7026 387.535 82.0388C389.821 84.375 390.514 87.8793 389.613 92.4219C388.782 97.0295 386.496 100.664 382.825 103.454C379.153 106.245 375.066 107.607 370.563 107.607L370.494 107.672Z" fill="#E95513"/>
<mask id="mask0_245_136" style="mask-type:alpha" maskUnits="userSpaceOnUse" x="101" y="120" width="466" height="168">
<rect x="101.833" y="120.515" width="465" height="167" fill="#D9D9D9"/>
</mask>
<g mask="url(#mask0_245_136)">
<path d="M188.9 171.695C189.844 193.299 199.821 207.678 218.563 215.172L221.259 202.413C208.788 196.674 202.113 186.413 200.967 171.695H227.057L229.214 161.501H181.552L185.057 144.826H228.203L230.361 134.835H187.215L190.99 120.455H178.113L174.338 134.835H131.462L129.305 144.826H172.181L168.608 161.501H121.215L119.057 171.695H144.81C139.754 185.535 128.833 196.134 111.911 203.425L109.35 215.442C120.338 211.797 130.451 206.193 139.552 198.362C146.967 192.219 152.833 183.375 157.012 171.695H166.451L147.844 248.995H160.72L179.327 171.695H188.9Z" fill="#E95513" stroke="white" stroke-width="15" stroke-linecap="round" stroke-linejoin="round"/>
<path d="M320.293 238.666L322.854 225.906C307.821 220.708 296.158 213.147 287.798 203.425C297.371 200.387 304.652 196.269 309.641 191.003C312.742 196.337 317.596 200.657 323.933 203.763L326.293 191.949C320.832 189.383 317.529 185.198 316.248 179.662C316.382 178.987 316.652 178.244 316.787 177.569L318.472 169.13H306.742L304.922 178.041C303.439 184.792 297.843 189.721 288.203 193.029L286.45 201.94C284.293 199.375 282.338 196.607 280.72 193.501L286.383 165.282H334.382L336.607 154.075H288.675L293.529 130.244H280.18L275.394 154.075H229.956L227.731 165.282H273.169L268.248 189.923C265.753 194.446 262.248 198.7 258.068 202.683L260.225 192.016C254.697 189.451 251.394 185.468 250.113 179.932C250.248 179.189 250.517 178.379 250.72 177.569L252.405 169.13H240.675L238.922 178.041C237.439 184.792 231.843 189.721 222.27 193.029L220.046 204.033C230.495 200.792 238.315 196.539 243.574 191.071C246.473 196.269 251.057 200.455 257.259 203.493C247.282 212.404 232.45 220.1 212.9 226.446L210.473 238.531C233.259 231.78 251.192 222.598 264.001 211.256L252.203 269.788H265.484L277.012 209.839C286.854 222.733 301.618 232.32 320.225 238.733" fill="#E95513"/>
<path d="M320.293 238.666L322.854 225.906C307.821 220.708 296.158 213.147 287.798 203.425C297.371 200.387 304.652 196.269 309.641 191.003C312.742 196.337 317.596 200.657 323.933 203.763L326.293 191.949C320.832 189.383 317.529 185.198 316.248 179.662C316.382 178.987 316.652 178.244 316.787 177.569L318.472 169.13H306.742L304.922 178.041C303.439 184.792 297.843 189.721 288.203 193.029L286.45 201.94C284.293 199.375 282.338 196.607 280.72 193.501L286.383 165.282H334.382L336.607 154.075H288.675L293.529 130.244H280.18L275.394 154.075H229.956L227.731 165.282H273.169L268.248 189.923C265.753 194.446 262.248 198.7 258.068 202.683L260.225 192.016C254.697 189.451 251.394 185.468 250.113 179.932C250.248 179.189 250.517 178.379 250.72 177.569L252.405 169.13H240.675L238.922 178.041C237.439 184.792 231.843 189.721 222.27 193.029L220.046 204.033C230.495 200.792 238.315 196.539 243.574 191.071C246.473 196.269 251.057 200.455 257.259 203.493C247.282 212.404 232.45 220.1 212.9 226.446L210.473 238.531C233.259 231.78 251.192 222.598 264.001 211.256L252.203 269.788H265.484L277.012 209.839C286.854 222.733 301.618 232.32 320.225 238.733" stroke="white" stroke-width="15" stroke-linecap="round" stroke-linejoin="round"/>
<path d="M494.427 178.109L496.449 169.4C506.764 164.404 517.753 157.72 527.461 150.902L531.236 135.307L456.877 135.104L453.775 148.674H509.056C501.371 153.602 492.067 158.801 484.18 162.244L480.472 178.176H435.775L432.607 191.813H477.303L470.966 219.155C470.494 221.113 469.618 221.653 467.056 221.788C465.034 221.855 452.697 221.923 445.888 221.585L442.517 236.167C453.034 236.167 471.978 236.167 472.315 236.167C478.787 236.167 483.034 230.497 484.652 223.34L491.258 191.881H535.011L538.18 178.244H494.427V178.109Z" fill="#E95513" stroke="white" stroke-width="15" stroke-linecap="round" stroke-linejoin="round"/>
<path d="M391.686 142.193H376.585C376.18 139.898 375.641 137.4 375.034 135.037H361.349L360.81 135.172C361.214 137.265 361.686 139.763 362.023 142.193H344.428L341.866 153.332H389.124L391.686 142.193Z" fill="#E95513" stroke="white" stroke-width="15" stroke-linecap="round" stroke-linejoin="round"/>
<path d="M337.147 204.37C336.27 206.801 328.72 213.957 325.012 214.497C325.012 214.497 322.113 228.336 322.248 228.336C329.731 225.366 342.877 214.632 347.529 204.573L337.147 204.303V204.37Z" fill="#E95513" stroke="white" stroke-width="15" stroke-linecap="round" stroke-linejoin="round"/>
<path d="M377.393 218.21C376.517 214.092 374.966 209.029 373.551 204.235L363.506 204.438C364.719 207.813 365.731 213.889 366.54 218.21H377.461H377.393Z" fill="#E95513" stroke="white" stroke-width="15" stroke-linecap="round" stroke-linejoin="round"/>
<path d="M396.809 189.923L398.427 182.835H419.663L418.045 189.923H396.809ZM402.54 165.012H423.775L422.157 172.1H400.922L402.54 165.012ZM406.652 147.324H427.888L426.27 154.413H405.034L406.652 147.324ZM420.674 214.835C418.787 221.923 418.652 224.488 416.562 224.488H413.663C412.45 224.488 412.247 224.151 412.989 221.18L417.438 201.805H427.955L443.259 135.442H397.483L382.18 201.805H387.91C384.54 212.607 379.955 221.721 367.281 225.906L364.382 238.396C384.809 235.29 394.719 218.885 400.18 201.805H405.236L400.719 221.315C398.157 232.32 399.304 236.1 408.809 236.1H415.348C425.663 236.1 426.877 230.564 431.596 214.835H420.674Z" fill="#E95513" stroke="white" stroke-width="15" stroke-linecap="round" stroke-linejoin="round"/>
<path d="M385.214 156.101H372.742C370.989 160.219 368.629 165.079 366.607 168.928H336.135L333.506 180.404H355.079L353.259 188.303H332.832L330.203 199.645H350.63L341.798 237.856H354L362.832 199.645H378.944L381.573 188.303H365.461L367.281 180.404H385.214L387.843 168.928H377.933C380.158 165.079 382.652 160.624 385.281 156.101" fill="#E95513"/>
<path d="M385.214 156.101H372.742C370.989 160.219 368.629 165.079 366.607 168.928H336.135L333.506 180.404H355.079L353.259 188.303H332.832L330.203 199.645H350.63L341.798 237.856H354L362.832 199.645H378.944L381.573 188.303H365.461L367.281 180.404H385.214L387.843 168.928H377.933C380.158 165.079 382.652 160.624 385.281 156.101" stroke="white" stroke-width="15" stroke-linecap="round" stroke-linejoin="round"/>
<path d="M358.517 168.118C358.652 165.485 358.585 159.814 358.248 156.438H346.922C347.259 159.409 347.394 165.012 347.326 168.118H358.585H358.517Z" fill="#E95513" stroke="white" stroke-width="15" stroke-linecap="round" stroke-linejoin="round"/>
<path d="M188.9 171.695C189.844 193.299 199.821 207.678 218.563 215.172L221.259 202.413C208.788 196.674 202.113 186.413 200.967 171.695H227.057L229.214 161.501H181.552L185.057 144.826H228.203L230.361 134.835H187.215L190.99 120.455H178.113L174.338 134.835H131.462L129.305 144.826H172.181L168.608 161.501H121.215L119.057 171.695H144.81C139.754 185.535 128.833 196.134 111.911 203.425L109.35 215.442C120.338 211.797 130.451 206.193 139.552 198.362C146.967 192.219 152.833 183.375 157.012 171.695H166.451L147.844 248.995H160.72L179.327 171.695H188.9Z" fill="#E95513"/>
<path d="M320.293 238.666L322.854 225.906C307.821 220.708 296.158 213.147 287.798 203.425C297.371 200.387 304.652 196.269 309.641 191.003C312.742 196.337 317.596 200.657 323.933 203.763L326.293 191.949C320.832 189.383 317.529 185.198 316.248 179.662C316.382 178.987 316.652 178.244 316.787 177.569L318.472 169.13H306.742L304.922 178.041C303.439 184.792 297.843 189.721 288.203 193.029L286.45 201.94C284.293 199.375 282.338 196.607 280.72 193.501L286.383 165.282H334.382L336.607 154.075H288.675L293.529 130.244H280.18L275.394 154.075H229.956L227.731 165.282H273.169L268.248 189.923C265.753 194.446 262.248 198.7 258.068 202.683L260.225 192.016C254.697 189.451 251.394 185.468 250.113 179.932C250.248 179.189 250.517 178.379 250.72 177.569L252.405 169.13H240.675L238.922 178.041C237.439 184.792 231.843 189.721 222.27 193.029L220.046 204.033C230.495 200.792 238.315 196.539 243.574 191.071C246.473 196.269 251.057 200.455 257.259 203.493C247.282 212.404 232.45 220.1 212.9 226.446L210.473 238.531C233.259 231.78 251.192 222.598 264.001 211.256L252.203 269.788H265.484L277.012 209.839C286.854 222.733 301.618 232.32 320.225 238.733" fill="#E95513"/>
<path d="M494.427 178.109L496.449 169.4C506.764 164.404 517.753 157.72 527.461 150.902L531.236 135.307L456.877 135.104L453.775 148.674H509.056C501.371 153.602 492.067 158.801 484.18 162.244L480.472 178.176H435.775L432.607 191.813H477.303L470.966 219.155C470.494 221.113 469.618 221.653 467.056 221.788C465.034 221.855 452.697 221.923 445.888 221.585L442.517 236.167C453.034 236.167 471.978 236.167 472.315 236.167C478.787 236.167 483.034 230.497 484.652 223.34L491.258 191.881H535.011L538.18 178.244H494.427V178.109Z" fill="#E95513"/>
<path d="M391.686 142.193H376.585C376.18 139.898 375.641 137.4 375.034 135.037H361.349L360.81 135.172C361.214 137.265 361.686 139.763 362.023 142.193H344.428L341.866 153.332H389.124L391.686 142.193Z" fill="#E95513"/>
<path d="M337.147 204.37C336.27 206.801 328.72 213.957 325.012 214.497C325.012 214.497 322.113 228.336 322.248 228.336C329.731 225.366 342.877 214.632 347.529 204.573L337.147 204.303V204.37Z" fill="#E95513"/>
<path d="M377.393 218.21C376.517 214.092 374.966 209.029 373.551 204.235L363.506 204.438C364.719 207.813 365.731 213.889 366.54 218.21H377.461H377.393Z" fill="#E95513"/>
<path d="M396.809 189.923L398.427 182.835H419.663L418.045 189.923H396.809ZM402.54 165.012H423.775L422.157 172.1H400.922L402.54 165.012ZM406.652 147.324H427.888L426.27 154.413H405.034L406.652 147.324ZM420.674 214.835C418.787 221.923 418.652 224.488 416.562 224.488H413.663C412.45 224.488 412.247 224.151 412.989 221.18L417.438 201.805H427.955L443.259 135.442H397.483L382.18 201.805H387.91C384.54 212.607 379.955 221.721 367.281 225.906L364.382 238.396C384.809 235.29 394.719 218.885 400.18 201.805H405.236L400.719 221.315C398.157 232.32 399.304 236.1 408.809 236.1H415.348C425.663 236.1 426.877 230.564 431.596 214.835H420.674Z" fill="#E95513"/>
<path d="M385.214 156.101H372.742C370.989 160.219 368.629 165.079 366.607 168.928H336.135L333.506 180.404H355.079L353.259 188.303H332.832L330.203 199.645H350.63L341.798 237.856H354L362.832 199.645H378.944L381.573 188.303H365.461L367.281 180.404H385.214L387.843 168.928H377.933C380.158 165.079 382.652 160.624 385.281 156.101" fill="#E95513"/>
<path d="M358.517 168.118C358.652 165.485 358.585 159.814 358.248 156.438H346.922C347.259 159.409 347.394 165.012 347.326 168.118H358.585H358.517Z" fill="#E95513"/>
</g>
<defs>
<filter id="filter0_d_245_136" x="0" y="9.27148" width="637.513" height="521.549" filterUnits="userSpaceOnUse" color-interpolation-filters="sRGB">
<feFlood flood-opacity="0" result="BackgroundImageFix"/>
<feColorMatrix in="SourceAlpha" type="matrix" values="0 0 0 0 0 0 0 0 0 0 0 0 0 0 0 0 0 0 127 0" result="hardAlpha"/>
<feOffset dx="10.9" dy="16.7"/>
<feColorMatrix type="matrix" values="0 0 0 0 0.529412 0 0 0 0 0.27451 0 0 0 0 0.137255 0 0 0 1 0"/>
<feBlend mode="normal" in2="BackgroundImageFix" result="effect1_dropShadow_245_136"/>
<feBlend mode="normal" in="SourceGraphic" in2="effect1_dropShadow_245_136" result="shape"/>
</filter>
</defs>
</svg>
