<svg width="789" height="624" viewBox="0 0 789 624" fill="none" xmlns="http://www.w3.org/2000/svg">
<g filter="url(#filter0_d_747_2971)">
<path d="M722.221 324.466C734.172 308.016 741.394 286.594 741.394 263.272C741.394 211.217 705.543 169.032 661.286 169.032C617.03 169.032 652.356 169.471 648.022 170.348C629.309 116.612 577.764 78.0093 517.091 78.0093C456.419 78.0093 485.574 80.7144 471.259 85.6859C466.925 83.5657 462.395 81.6648 457.798 79.837C432.518 52.8592 396.404 36.0437 356.284 36.0437C292.263 36.0437 238.42 79.0328 222.595 137.375C217.605 136.279 212.483 135.621 207.296 135.621C178.142 135.621 152.665 153.971 138.613 181.315C130.208 176.197 120.622 173.346 110.51 173.346C76.6278 173.346 49.1152 205.661 49.1152 245.579C49.1152 285.498 52.9236 274.165 59.4242 285.571V287.472C35.8514 309.99 20.749 344.352 20.749 382.881C20.749 450.655 67.435 505.634 125.021 505.634C182.607 505.634 131.653 505.415 134.936 505.049C138.416 515.431 144.26 523.546 152.337 527.786C165.535 534.732 181.425 529.541 194.951 516.016C200.992 522.888 208.412 530.199 217.408 537.437C235.728 552.132 257.331 563.83 281.495 572.018C310.649 581.962 343.808 587.006 380.12 587.006C416.431 587.006 449.787 581.962 479.401 572.092C503.893 563.903 525.956 552.425 544.998 537.876C549.529 534.44 553.665 530.93 557.474 527.494C566.601 533.855 577.304 537.583 588.729 537.583C610.595 537.583 629.768 524.131 640.668 503.879C651.109 509.07 662.534 511.995 674.616 511.995C722.549 511.995 761.356 466.3 761.356 409.932C761.356 353.564 745.794 342.816 722.221 324.612V324.466Z" fill="#FFFBD2"/>
</g>
<path d="M171.922 457.112H169.222V463.59H165.087V457.112H155.469V453.732L163.822 438.618H169.137V453.357H171.837V457.112H171.922ZM165.087 453.263V448.194C165.087 446.785 165.172 444.438 165.256 443.03H165.172C164.666 444.345 163.991 445.753 163.4 447.067L159.941 453.263H165.172H165.087Z" fill="#DE5419"/>
<path d="M174.875 460.867C174.875 459.084 176.056 457.582 177.659 457.582C179.262 457.582 180.444 458.99 180.444 460.867C180.444 462.745 179.262 464.153 177.659 464.153C176.056 464.153 174.875 462.745 174.875 460.867Z" fill="#DE5419"/>
<path d="M183.396 460.586L185.506 457.394C186.856 458.802 188.459 459.928 190.484 459.928C192.509 459.928 194.281 458.708 194.281 456.455C194.281 454.202 193.015 452.418 188.037 452.418V448.851C192.171 448.851 193.521 447.255 193.521 445.002C193.521 442.749 192.424 441.904 190.484 441.81C188.881 441.81 187.531 442.655 186.265 444.063L183.987 441.059C185.928 439.181 188.121 437.961 190.737 437.961C195.124 437.961 197.993 440.308 197.993 444.626C197.993 448.945 196.643 449.32 194.196 450.353V450.541C196.727 451.292 198.668 453.451 198.668 456.737C198.668 460.022 195.04 463.965 190.737 463.965C186.434 463.965 184.746 462.463 183.228 460.492L183.396 460.586Z" fill="#DE5419"/>
<path d="M247.268 457.018C246.509 459.459 245.243 462.275 244.231 463.965C243.724 463.496 242.543 462.557 241.868 462.182C242.881 460.586 243.893 458.333 244.568 456.173L247.352 457.018H247.268ZM251.571 455.047V466.312H248.112V455.047H242.459V451.667H248.112V449.038H242.29V445.753H245.243C245.074 444.72 244.737 443.312 244.399 442.279L246.931 441.622H242.796V438.336H248.027C247.774 437.397 247.437 436.459 247.099 435.708L250.727 434.769C251.149 435.895 251.74 437.304 252.077 438.43H256.465V441.716H252.668L255.115 442.279C254.693 443.593 254.187 444.908 253.765 445.94H256.887V449.226H251.656V451.855H256.38V455.234H251.656L251.571 455.047ZM247.184 441.528C247.606 442.655 248.027 444.063 248.196 445.002L246.002 445.659H250.39C250.812 444.438 251.402 442.749 251.656 441.434H247.184V441.528ZM270.302 449.789H267.433V466.406H263.89V449.789H261.021V450.165C261.021 455.141 260.599 462.088 258.068 466.406C257.477 465.655 256.043 464.435 255.284 463.965C255.874 463.026 256.296 461.9 256.634 460.68L254.44 462.182C253.934 460.867 252.921 458.708 252.077 457.112L254.44 455.704C255.284 457.018 256.212 458.896 256.718 460.116C257.562 456.83 257.646 453.169 257.646 450.071V438.055C260.937 437.397 264.649 436.365 266.843 435.144L269.627 438.055C267.096 439.181 263.974 440.026 261.021 440.589V445.94H270.218V449.696L270.302 449.789Z" fill="#DE5419"/>
<path d="M285.658 456.83L286.333 460.398C282.03 462.463 277.389 464.528 273.761 466.124L272.158 461.994C274.268 461.243 277.136 460.21 280.258 458.99V446.973H273.255V442.936H280.258V435.52H284.055V457.488L285.742 456.83H285.658ZM295.53 461.618C296.627 461.618 296.795 460.022 297.049 454.014C297.892 454.765 299.495 455.61 300.508 455.892C300.17 462.933 299.327 465.561 295.867 465.561H292.239C288.864 465.561 287.852 464.153 287.852 459.459V435.52H291.649V442.936H299.58V446.973H291.649V459.553C291.649 461.337 291.817 461.712 292.83 461.712H295.53V461.618Z" fill="#DE5419"/>
<path d="M319.829 448.194C321.854 454.765 325.483 460.116 331.22 462.651C330.292 463.496 329.111 465.28 328.52 466.406C323.036 463.496 319.492 458.614 317.13 452.043C315.526 457.675 312.236 462.933 305.739 466.406C305.148 465.28 304.136 463.871 303.039 463.026C310.042 459.553 312.911 453.92 314.092 448.1H303.63V443.969H314.683C315.02 440.777 314.936 437.679 315.02 434.957H318.986C318.986 437.773 318.986 440.871 318.648 443.969H330.629V448.1H319.914L319.829 448.194Z" fill="#DE5419"/>
<path d="M361.763 438.524C360.666 441.81 359.316 445.565 358.05 448.569C360.666 451.573 361.172 454.296 361.172 456.455C361.172 458.614 360.666 460.68 359.485 461.524C358.978 461.994 358.219 462.276 357.375 462.463C356.7 462.557 355.688 462.557 354.76 462.463C354.76 461.337 354.422 459.647 353.832 458.614C354.591 458.614 355.182 458.708 355.772 458.614C356.194 458.614 356.7 458.52 356.953 458.333C357.544 457.957 357.713 457.112 357.713 456.079C357.713 454.202 357.038 451.761 354.591 449.132C355.435 446.692 356.532 443.312 357.291 440.683H353.41V466.594H349.866V437.585C348.938 440.12 347.925 442.561 346.575 444.814H348.854V448.288H344.297C343.622 449.132 343.032 449.977 342.357 450.728H347.841V466.031H344.382V464.716H339.488V466.406H336.197V456.173C335.691 456.549 335.185 456.924 334.679 457.206C334.257 456.361 333.244 454.671 332.569 453.826C335.269 452.418 337.716 450.541 339.825 448.288H333.329V444.814H338.644V441.998H334.679V438.524H338.644V435.238H342.019V438.524H345.141V440.214C345.732 438.993 346.154 437.773 346.66 436.459L349.866 437.398V436.74H359.147C359.147 436.646 361.763 438.43 361.763 438.43V438.524ZM344.466 453.92H339.572V456.079H344.466V453.92ZM344.466 461.524V459.084H339.572V461.524H344.466ZM342.694 444.72C343.285 443.875 343.791 442.936 344.382 441.904H342.104V444.72H342.694Z" fill="#DE5419"/>
<path d="M380.41 435.895C380.241 436.083 380.072 436.365 379.988 436.553C382.772 439.275 387.75 441.622 392.644 442.655C391.884 443.406 390.872 444.814 390.366 445.753C389.775 445.565 389.1 445.377 388.509 445.189V453.92H367.416V445.377C366.741 445.659 366.15 445.847 365.56 446.034C365.222 445.283 364.21 443.687 363.619 442.936C369.188 441.528 374.588 438.712 377.372 434.769L380.578 435.989L380.41 435.895ZM387.328 444.72C385.894 444.157 384.544 443.406 383.194 442.655V443.5H372.563V442.842C371.382 443.5 370.2 444.157 368.85 444.72H387.328ZM368.935 454.953H386.822V466.406H383.11V465.561H372.478V466.5H368.935V454.953ZM372.394 451.385C372.225 450.353 371.888 448.945 371.382 447.912L373.744 447.161H370.285V451.385H372.394ZM372.563 457.581V458.896H383.194V457.581H372.563ZM383.11 462.933V461.618H372.478V462.933H383.11ZM376.275 447.161H373.913C374.419 448.287 374.925 449.789 375.094 450.728L373.153 451.385H376.275V447.161ZM380.578 440.871C379.65 440.12 378.806 439.463 378.047 438.712C377.288 439.463 376.36 440.214 375.432 440.871H380.578ZM379.144 447.161V451.385H382.013L380.156 450.822C380.578 449.789 381.085 448.287 381.338 447.161H379.144ZM385.219 447.161H382.097L384.46 447.818C383.869 449.132 383.278 450.447 382.772 451.479H385.219V447.255V447.161Z" fill="#DE5419"/>
<path d="M406.059 437.116C403.866 442.655 400.322 448.381 397.031 451.949C396.356 451.104 394.753 449.32 393.825 448.475C397.031 445.471 400.238 440.589 402.094 435.614L406.144 437.022L406.059 437.116ZM414.581 452.7C417.028 456.455 419.812 461.243 421.331 464.341L417.619 466.5C417.197 465.561 416.691 464.435 416.016 463.214C401.334 464.529 399.225 464.716 397.791 465.28C397.538 464.435 396.863 462.182 396.272 460.961C397.285 460.68 398.128 459.741 399.31 458.239C400.575 456.831 404.372 451.01 406.819 445.377L411.037 447.349C408.675 451.949 405.806 456.455 402.853 460.116L413.991 459.271C412.978 457.582 412.05 455.798 411.037 454.296L414.581 452.512V452.7ZM415.172 435.708C416.437 440.402 419.222 445.189 423.019 447.724C422.175 448.569 420.909 450.541 420.319 451.761C416.859 448.851 414.159 444.251 412.472 439.838H407.578V435.708H415.256H415.172Z" fill="#DE5419"/>
<path d="M451.622 436.177V466.5H448.078V465.28H429.094V466.5H425.719V436.177H451.622ZM448.078 461.712V439.838H429.094V461.712H448.078ZM439.894 457.206C439.809 457.957 439.894 459.084 439.894 459.647C434.747 461.055 433.819 461.431 433.312 461.712C433.228 461.149 432.806 460.022 432.469 459.647C432.891 459.365 433.481 459.084 433.481 457.769V456.549C432.637 456.924 431.878 457.206 431.119 457.488C430.781 456.924 429.937 455.798 429.347 455.235C431.287 454.765 433.397 454.108 435.084 453.169H431.625V448.287H445.631V453.169H439.134C438.29 453.92 437.194 454.671 436.097 455.235V458.145L439.894 457.206ZM446.981 447.349H430.106V445.096H436.856V443.781H431.541V441.622H436.856V440.214H440.147V441.622H445.715V443.781H440.147V445.096H446.981V447.349ZM434.662 451.479H442.509V450.071H434.662V451.479ZM447.319 455.141C446.559 455.798 445.631 456.361 444.787 456.924C445.884 457.769 446.812 458.52 447.487 459.271L445.209 460.773C443.69 459.177 440.484 456.643 437.953 454.859L440.147 453.545C440.99 454.108 442.003 454.859 443.015 455.516C443.859 454.859 444.787 454.202 445.294 453.545L447.403 455.141H447.319Z" fill="#DE5419"/>
<path d="M468.159 459.553H472.969V443.687H468.919V440.589C471.197 440.12 472.715 439.463 474.15 438.524H477.44V459.553H481.659V463.59H468.159V459.553Z" fill="#DE5419"/>
<path d="M484.949 451.01C484.949 442.373 487.987 438.148 492.543 438.148C497.099 438.148 500.137 442.373 500.137 451.01C500.137 459.647 497.099 464.059 492.543 464.059C487.987 464.059 484.949 459.553 484.949 451.01ZM495.918 451.01C495.918 443.969 494.483 441.997 492.543 441.997C490.602 441.997 489.168 444.063 489.168 451.01C489.168 457.957 490.602 460.21 492.543 460.21C494.483 460.21 495.918 458.051 495.918 451.01Z" fill="#DE5419"/>
<path d="M503.681 448.006C503.681 446.128 504.862 444.72 506.465 444.72C508.068 444.72 509.249 446.128 509.249 448.006C509.249 449.883 508.068 451.198 506.465 451.198C504.862 451.198 503.681 449.789 503.681 448.006ZM503.681 460.867C503.681 459.084 504.862 457.581 506.465 457.581C508.068 457.581 509.249 458.99 509.249 460.867C509.249 462.745 508.068 464.153 506.465 464.153C504.862 464.153 503.681 462.745 503.681 460.867Z" fill="#DE5419"/>
<path d="M512.202 460.586L514.311 457.394C515.661 458.802 517.264 459.928 519.289 459.928C521.314 459.928 523.086 458.708 523.086 456.455C523.086 454.202 521.821 452.418 516.843 452.418V448.851C520.977 448.851 522.327 447.255 522.327 445.002C522.327 442.749 521.23 441.904 519.289 441.81C517.686 441.81 516.336 442.655 515.071 444.063L512.793 441.059C514.733 439.181 516.927 437.961 519.543 437.961C523.93 437.961 526.799 440.308 526.799 444.626C526.799 448.945 525.449 449.32 523.002 450.353V450.541C525.533 451.292 527.474 453.451 527.474 456.737C527.474 460.022 523.846 463.965 519.543 463.965C515.239 463.965 513.552 462.463 512.033 460.492L512.202 460.586Z" fill="#DE5419"/>
<path d="M530.596 451.01C530.596 442.373 533.633 438.148 538.189 438.148C542.746 438.148 545.783 442.373 545.783 451.01C545.783 459.647 542.746 464.059 538.189 464.059C533.633 464.059 530.596 459.553 530.596 451.01ZM541.649 451.01C541.649 443.969 540.214 441.997 538.274 441.997C536.333 441.997 534.899 444.063 534.899 451.01C534.899 457.957 536.333 460.21 538.274 460.21C540.214 460.21 541.649 458.051 541.649 451.01Z" fill="#DE5419"/>
<path d="M548.736 452.136H557.005V455.704H548.736V452.136Z" fill="#DE5419"/>
<path d="M560.971 459.553H565.78V443.687H561.73V440.589C564.008 440.12 565.527 439.463 566.961 438.524H570.252V459.553H574.471V463.59H560.971V459.553Z" fill="#DE5419"/>
<path d="M577.17 460.68L579.279 457.488C580.545 458.896 582.148 460.022 584.257 460.022C586.367 460.022 588.223 458.333 588.223 455.422C588.223 452.512 586.704 450.916 584.426 450.916C582.148 450.916 582.317 451.292 581.051 452.23L579.026 450.728L579.617 438.618H591.682V442.749H583.498L583.076 448.1C583.92 447.63 584.764 447.349 585.776 447.349C589.573 447.349 592.695 449.883 592.695 455.328C592.695 460.773 588.982 464.153 584.848 464.153C580.714 464.153 578.942 462.557 577.254 460.773L577.17 460.68Z" fill="#DE5419"/>
<path d="M596.407 448.006C596.407 446.128 597.588 444.72 599.192 444.72C600.795 444.72 601.976 446.128 601.976 448.006C601.976 449.883 600.795 451.198 599.192 451.198C597.588 451.198 596.407 449.789 596.407 448.006ZM596.407 460.867C596.407 459.084 597.588 457.581 599.192 457.581C600.795 457.581 601.976 458.99 601.976 460.867C601.976 462.745 600.795 464.153 599.192 464.153C597.588 464.153 596.407 462.745 596.407 460.867Z" fill="#DE5419"/>
<path d="M605.52 451.01C605.52 442.373 608.557 438.148 613.113 438.148C617.669 438.148 620.707 442.373 620.707 451.01C620.707 459.647 617.669 464.059 613.113 464.059C608.557 464.059 605.52 459.553 605.52 451.01ZM616.488 451.01C616.488 443.969 615.054 441.997 613.113 441.997C611.173 441.997 609.738 444.063 609.738 451.01C609.738 457.957 611.173 460.21 613.113 460.21C615.054 460.21 616.488 458.051 616.488 451.01Z" fill="#DE5419"/>
<path d="M623.407 451.01C623.407 442.373 626.445 438.148 631.001 438.148C635.557 438.148 638.595 442.373 638.595 451.01C638.595 459.647 635.557 464.059 631.001 464.059C626.445 464.059 623.407 459.553 623.407 451.01ZM634.46 451.01C634.46 443.969 633.026 441.997 631.085 441.997C629.145 441.997 627.71 444.063 627.71 451.01C627.71 457.957 629.145 460.21 631.085 460.21C633.026 460.21 634.46 458.051 634.46 451.01Z" fill="#DE5419"/>
<path d="M219.424 467.063C227.392 467.063 233.852 459.876 233.852 451.01C233.852 442.144 227.392 434.957 219.424 434.957C211.456 434.957 204.996 442.144 204.996 451.01C204.996 459.876 211.456 467.063 219.424 467.063Z" fill="#DE5419"/>
<path d="M226.258 443.594V457.582H224.318V456.549H215.121V457.675H213.265V443.594H226.343H226.258ZM224.233 454.577V452.7C223.98 452.7 223.727 452.7 223.474 452.7H222.124C220.69 452.7 220.352 451.855 220.352 450.071V445.565H218.833C218.833 449.79 218.411 452.324 215.965 453.732C215.796 453.263 215.29 452.512 214.952 452.137V454.484H224.149L224.233 454.577ZM215.037 445.565V452.137C216.893 450.916 217.061 449.039 217.061 445.565H215.037ZM224.233 445.565H222.124V450.165C222.124 450.728 222.124 451.01 222.461 451.01H223.474C223.727 451.01 224.065 451.01 224.318 451.01V445.659L224.233 445.565Z" fill="white"/>
<g clip-path="url(#clip0_747_2971)">
<path d="M182.988 207.832L183.996 201.485C192.33 194.322 198.687 188.148 203.065 182.98C207.444 177.803 209.948 173.203 210.585 169.172C211.037 166.337 210.733 164.136 209.688 162.57C208.636 161.003 206.932 160.22 204.562 160.22C201.613 160.22 198.272 162.108 194.538 165.892L190.115 159.924C192.99 157.039 195.738 154.92 198.368 153.576C200.998 152.233 203.939 151.565 207.207 151.565C211.903 151.565 215.437 153.123 217.801 156.231C220.171 159.338 220.949 163.46 220.134 168.587C218.801 176.995 211.681 187.2 198.783 199.185C202.154 198.79 204.895 198.592 206.992 198.592H217.727L216.26 207.849H182.988V207.832Z" fill="#E95513"/>
<path d="M251.02 206.077C247.235 211.056 242.752 213.537 237.559 213.537C232.366 213.537 228.662 211.047 226.432 206.077C224.202 201.098 223.824 193.959 225.298 184.653C226.772 175.347 229.388 168.282 233.151 163.46C236.915 158.638 241.397 156.223 246.605 156.223C251.813 156.223 255.532 158.638 257.769 163.46C259.999 168.282 260.377 175.355 258.903 184.653C257.429 193.951 254.799 201.098 251.013 206.077H251.02ZM234.596 184.843C232.469 198.254 233.899 204.956 238.885 204.956C243.871 204.956 247.427 198.254 249.553 184.843C251.68 171.431 250.25 164.729 245.264 164.729C240.278 164.729 236.722 171.431 234.596 184.843Z" fill="#E95513"/>
<path d="M262.007 203.167L263.014 196.82C271.349 189.656 277.705 183.482 282.084 178.314C286.462 173.137 288.966 168.538 289.603 164.507C290.055 161.671 289.751 159.47 288.707 157.904C287.655 156.338 285.951 155.555 283.58 155.555C280.632 155.555 277.29 157.443 273.557 161.226L269.134 155.258C272.008 152.373 274.757 150.255 277.387 148.911C280.017 147.567 282.958 146.9 286.225 146.9C290.922 146.9 294.456 148.458 296.819 151.565C299.19 154.673 299.968 158.794 299.153 163.922C297.819 172.33 290.7 182.534 277.802 194.52C281.172 194.124 283.914 193.926 286.01 193.926H296.745L295.278 203.183H262.007V203.167Z" fill="#E95513"/>
<path d="M315.303 207.948C308.635 207.948 303.45 205.434 299.73 200.405L305.405 193.39C308.258 197.125 311.606 198.988 315.451 198.988C318.089 198.988 320.356 198.089 322.252 196.3C324.149 194.512 325.341 192.022 325.853 188.84C326.356 185.658 325.986 183.194 324.741 181.455C323.497 179.715 321.6 178.841 319.052 178.841C317.622 178.841 316.37 179.056 315.296 179.476C314.221 179.897 312.836 180.655 311.147 181.751L307.176 178.471L312.777 151.598H339.343L337.877 160.855H319.83L317.037 172.577C319.215 171.53 321.289 171.011 323.252 171.011C327.683 171.011 331.098 172.503 333.513 175.487C335.928 178.471 336.669 182.872 335.743 188.7C334.817 194.52 332.394 199.185 328.46 202.697C324.527 206.208 320.148 207.956 315.318 207.956L315.303 207.948Z" fill="#E95513"/>
<path d="M391.906 163.963C392.499 178.487 398.522 188.164 409.849 193.201L411.487 184.612C403.945 180.754 399.892 173.871 399.203 163.955H414.969L416.28 157.08H387.431L389.572 145.878H415.687L416.984 139.151H390.869L393.151 129.507H385.35L383.068 139.151H357.109L355.82 145.878H381.786L379.638 157.08H350.952L349.641 163.955H365.228C362.154 173.278 355.575 180.391 345.314 185.263L343.773 193.341C350.426 190.901 356.538 187.134 362.05 181.867C366.532 177.721 370.073 171.794 372.622 163.955H378.326L367.08 215.935H374.874L386.128 163.955H391.921L391.906 163.963Z" fill="#E95513" stroke="white" stroke-width="8.26" stroke-linecap="round" stroke-linejoin="round"/>
<path d="M471.414 208.978L472.962 200.389C463.864 196.886 456.797 191.816 451.766 185.271C457.545 183.243 461.968 180.441 464.99 176.929C466.887 180.507 469.799 183.416 473.644 185.502L475.081 177.556C471.799 175.833 469.761 173.03 468.991 169.288C469.073 168.81 469.25 168.348 469.332 167.87L470.347 162.182H463.257L462.175 168.183C461.271 172.7 457.886 176.055 452.078 178.256L451.003 184.257C449.714 182.534 448.529 180.663 447.558 178.561L450.974 159.594H480L481.356 152.043H452.344L455.263 136.019H447.195L444.299 152.043H416.791L415.428 159.594H442.943L439.95 176.146C438.439 179.179 436.335 182.056 433.786 184.711L435.075 177.547C431.719 175.825 429.719 173.162 428.963 169.444C429.052 168.966 429.222 168.414 429.326 167.862L430.356 162.174H423.251L422.177 168.175C421.281 172.692 417.895 176.047 412.079 178.248L410.738 185.65C417.043 183.474 421.77 180.589 424.992 176.921C426.748 180.432 429.519 183.235 433.29 185.263C427.267 191.264 418.28 196.407 406.434 200.694L404.975 208.805C418.784 204.28 429.608 198.114 437.364 190.481L430.237 229.85H438.29L445.254 189.549C451.196 198.196 460.16 204.675 471.414 208.962" fill="#E95513"/>
<path d="M471.414 208.978L472.962 200.389C463.864 196.886 456.797 191.816 451.766 185.271C457.545 183.243 461.968 180.441 464.99 176.929C466.887 180.507 469.799 183.416 473.644 185.502L475.081 177.556C471.799 175.833 469.761 173.03 468.991 169.288C469.073 168.81 469.25 168.348 469.332 167.87L470.347 162.182H463.257L462.175 168.183C461.271 172.7 457.886 176.055 452.078 178.256L451.003 184.257C449.714 182.534 448.529 180.663 447.558 178.561L450.974 159.594H480L481.356 152.043H452.344L455.263 136.019H447.195L444.299 152.043H416.791L415.428 159.594H442.943L439.95 176.146C438.439 179.179 436.335 182.056 433.786 184.711L435.075 177.547C431.719 175.825 429.719 173.162 428.963 169.444C429.052 168.966 429.222 168.414 429.326 167.862L430.356 162.174H423.251L422.177 168.175C421.281 172.692 417.895 176.047 412.079 178.248L410.738 185.65C417.043 183.474 421.77 180.589 424.992 176.921C426.748 180.432 429.519 183.235 433.29 185.263C427.267 191.264 418.28 196.407 406.434 200.694L404.975 208.805C418.784 204.28 429.608 198.114 437.364 190.481L430.237 229.85H438.29L445.254 189.549C451.196 198.196 460.16 204.675 471.414 208.962" stroke="white" stroke-width="8.26" stroke-linecap="round" stroke-linejoin="round"/>
<path d="M576.784 168.299L578.006 162.43C584.251 159.05 590.889 154.59 596.772 149.982L599.046 139.481L554.069 139.357L552.18 148.466H585.629C580.977 151.788 575.339 155.258 570.561 157.574L568.331 168.299H541.297L539.386 177.481H566.412L562.589 195.847C562.315 197.158 561.759 197.545 560.241 197.619C558.996 197.685 551.536 197.693 547.417 197.504L545.372 207.288C551.728 207.288 563.204 207.247 563.389 207.247C567.323 207.247 569.879 203.422 570.864 198.641L574.872 177.481H601.357L603.269 168.299H576.784Z" fill="#E95513" stroke="white" stroke-width="8.26" stroke-linecap="round" stroke-linejoin="round"/>
<path d="M514.605 144.147H505.456C505.233 142.605 504.878 140.924 504.515 139.349H496.232L495.921 139.44C496.18 140.825 496.44 142.531 496.647 144.147H486.001L484.445 151.631H513.042L514.598 144.147H514.605Z" fill="#E95513" stroke="white" stroke-width="8.26" stroke-linecap="round" stroke-linejoin="round"/>
<path d="M481.607 185.922C481.067 187.571 476.496 192.377 474.28 192.748C474.28 192.748 472.532 202.071 472.591 202.071C477.125 200.076 485.089 192.871 487.882 186.095L481.607 185.922Z" fill="#E95513" stroke="white" stroke-width="8.26" stroke-linecap="round" stroke-linejoin="round"/>
<path d="M505.982 195.229C505.47 192.451 504.522 189.055 503.641 185.84L497.551 185.988C498.269 188.28 498.914 192.327 499.388 195.229H505.982Z" fill="#E95513" stroke="white" stroke-width="8.26" stroke-linecap="round" stroke-linejoin="round"/>
<path d="M517.702 176.237L518.694 171.456H531.526L530.533 176.237H517.702ZM521.184 159.495H534.015L533.022 164.284H520.191L521.184 159.495ZM523.658 147.609H536.489L535.497 152.39H522.665L523.658 147.609ZM532.133 192.962C530.985 197.751 530.903 199.466 529.659 199.466H527.888C527.14 199.466 527.051 199.235 527.466 197.224L530.177 184.183H536.526L545.802 139.58H518.087L508.811 184.183H512.293C510.249 191.462 507.47 197.57 499.825 200.372L498.084 208.78C510.449 206.695 516.457 195.666 519.731 184.183H522.806L520.08 197.306C518.539 204.717 519.235 207.264 524.969 207.264H528.925C535.178 207.264 535.904 203.521 538.742 192.962H532.133Z" fill="#E95513" stroke="white" stroke-width="8.26" stroke-linecap="round" stroke-linejoin="round"/>
<path d="M503.811 151.796L503.796 151.788V151.796H503.811Z" fill="#E95513" stroke="white" stroke-width="8.26" stroke-linecap="round" stroke-linejoin="round"/>
<path d="M510.715 153.511H503.173C502.114 156.297 500.684 159.528 499.462 162.133H481.029L479.429 169.848H492.468L491.364 175.174H479.007L477.414 182.815H489.771L484.422 208.517H491.794L497.143 182.815H506.907L508.492 175.174H498.728L499.839 169.848H510.693L512.3 162.133H506.292C507.641 159.536 509.137 156.561 510.722 153.511" fill="#E95513"/>
<path d="M510.715 153.511H503.173C502.114 156.297 500.684 159.528 499.462 162.133H481.029L479.429 169.848H492.468L491.364 175.174H479.007L477.414 182.815H489.771L484.422 208.517H491.794L497.143 182.815H506.907L508.492 175.174H498.728L499.839 169.848H510.693L512.3 162.133H506.292C507.641 159.536 509.137 156.561 510.722 153.511" stroke="white" stroke-width="8.26" stroke-linecap="round" stroke-linejoin="round"/>
<path d="M494.52 161.548C494.609 159.792 494.572 155.942 494.335 153.684H487.638L487.482 153.717C487.705 155.654 487.771 159.462 487.712 161.548H494.513H494.52Z" fill="#E95513" stroke="white" stroke-width="8.26" stroke-linecap="round" stroke-linejoin="round"/>
<path d="M391.906 163.963C392.499 178.487 398.522 188.164 409.849 193.201L411.487 184.612C403.945 180.754 399.892 173.871 399.203 163.955H414.969L416.28 157.08H387.431L389.572 145.878H415.687L416.984 139.151H390.869L393.151 129.507H385.35L383.068 139.151H357.109L355.82 145.878H381.786L379.638 157.08H350.952L349.641 163.955H365.228C362.154 173.278 355.575 180.391 345.314 185.263L343.773 193.341C350.426 190.901 356.538 187.134 362.05 181.867C366.532 177.721 370.073 171.794 372.622 163.955H378.326L367.08 215.935H374.874L386.128 163.955H391.921L391.906 163.963Z" fill="#E95513"/>
<path d="M471.414 208.978L472.962 200.389C463.864 196.886 456.797 191.816 451.766 185.271C457.545 183.243 461.968 180.441 464.99 176.929C466.887 180.507 469.799 183.416 473.644 185.502L475.081 177.556C471.799 175.833 469.761 173.03 468.991 169.288C469.073 168.81 469.25 168.348 469.332 167.87L470.347 162.182H463.257L462.175 168.183C461.271 172.7 457.886 176.055 452.078 178.256L451.003 184.257C449.714 182.534 448.529 180.663 447.558 178.561L450.974 159.594H480L481.356 152.043H452.344L455.263 136.019H447.195L444.299 152.043H416.791L415.428 159.594H442.943L439.95 176.146C438.439 179.179 436.335 182.056 433.786 184.711L435.075 177.547C431.719 175.825 429.719 173.162 428.963 169.444C429.052 168.966 429.222 168.414 429.326 167.862L430.356 162.174H423.251L422.177 168.175C421.281 172.692 417.895 176.047 412.079 178.248L410.738 185.65C417.043 183.474 421.77 180.589 424.992 176.921C426.748 180.432 429.519 183.235 433.29 185.263C427.267 191.264 418.28 196.407 406.434 200.694L404.975 208.805C418.784 204.28 429.608 198.114 437.364 190.481L430.237 229.85H438.29L445.254 189.549C451.196 198.196 460.16 204.675 471.414 208.962" fill="#E95513"/>
<path d="M576.784 168.299L578.006 162.43C584.251 159.05 590.889 154.59 596.772 149.982L599.046 139.481L554.069 139.357L552.18 148.466H585.629C580.977 151.788 575.339 155.258 570.561 157.574L568.331 168.299H541.297L539.386 177.481H566.412L562.589 195.847C562.315 197.158 561.759 197.545 560.241 197.619C558.996 197.685 551.536 197.693 547.417 197.504L545.372 207.288C551.728 207.288 563.204 207.247 563.389 207.247C567.323 207.247 569.879 203.422 570.864 198.641L574.872 177.481H601.357L603.269 168.299H576.784Z" fill="#E95513"/>
<path d="M514.605 144.147H505.456C505.233 142.605 504.878 140.924 504.515 139.349H496.232L495.921 139.44C496.18 140.825 496.44 142.531 496.647 144.147H486.001L484.445 151.631H513.042L514.598 144.147H514.605Z" fill="#E95513"/>
<path d="M481.607 185.922C481.067 187.571 476.496 192.377 474.28 192.748C474.28 192.748 472.532 202.071 472.591 202.071C477.125 200.076 485.089 192.871 487.882 186.095L481.607 185.922Z" fill="#E95513"/>
<path d="M505.982 195.229C505.47 192.451 504.522 189.055 503.641 185.84L497.551 185.988C498.269 188.28 498.914 192.327 499.388 195.229H505.982Z" fill="#E95513"/>
<path d="M517.702 176.237L518.694 171.456H531.526L530.533 176.237H517.702ZM521.184 159.495H534.015L533.022 164.284H520.191L521.184 159.495ZM523.658 147.609H536.489L535.497 152.39H522.665L523.658 147.609ZM532.133 192.962C530.985 197.751 530.903 199.466 529.659 199.466H527.888C527.14 199.466 527.051 199.235 527.466 197.224L530.177 184.183H536.526L545.802 139.58H518.087L508.811 184.183H512.293C510.249 191.462 507.47 197.57 499.825 200.372L498.084 208.78C510.449 206.695 516.457 195.666 519.731 184.183H522.806L520.08 197.306C518.539 204.717 519.235 207.264 524.969 207.264H528.925C535.178 207.264 535.904 203.521 538.742 192.962H532.133Z" fill="#E95513"/>
<path d="M503.811 151.796L503.796 151.788V151.796H503.811Z" fill="#E95513"/>
<path d="M510.715 153.511H503.173C502.114 156.297 500.684 159.528 499.462 162.133H481.029L479.429 169.848H492.468L491.364 175.174H479.007L477.414 182.815H489.771L484.422 208.517H491.794L497.143 182.815H506.907L508.492 175.174H498.728L499.839 169.848H510.693L512.3 162.133H506.292C507.641 159.536 509.137 156.561 510.722 153.511" fill="#E95513"/>
<path d="M494.52 161.548C494.609 159.792 494.572 155.942 494.335 153.684H487.638L487.482 153.717C487.705 155.654 487.771 159.462 487.712 161.548H494.513H494.52Z" fill="#E95513"/>
</g>
<path d="M606.465 334.736C605.9 334.736 605.404 334.691 604.975 334.593C604.546 334.503 604.238 334.45 604.05 334.45C602.816 334.36 600.521 334.307 597.166 334.307C593.811 334.307 589.289 334.262 583.617 334.164C577.944 334.074 573.468 334.044 570.21 334.096C566.945 334.149 564.891 334.217 564.041 334.307C563.943 334.217 563.876 334.54 563.83 335.3L560.641 388.783H611.723L608.172 334.728H606.472L606.465 334.736ZM592.983 367.515L586.032 367.372C584.045 367.372 582.368 367.327 580.991 367.229C579.622 367.138 578.884 367.041 578.794 366.943C578.606 366.755 578.508 365.829 578.508 364.174C578.508 362.519 578.599 360.51 578.794 358.141C578.884 355.681 578.982 353.529 579.08 351.686C579.17 349.843 579.223 348.729 579.223 348.353V346.796H592.848C592.848 346.984 592.87 348.029 592.915 349.918C592.96 351.814 592.983 354.266 592.983 357.298V367.515Z" fill="#053793"/>
<path d="M566.726 319.975C566.726 321.585 566.794 323.03 566.937 324.301C567.08 325.573 567.148 326.498 567.148 327.07L567.433 328.492L571.692 328.349C575.664 328.161 579.757 327.92 583.97 327.641C588.175 327.356 592.177 327.025 595.962 326.648L603.199 325.941V320.269L603.485 314.31L593.697 314.453C590.665 314.453 587.43 314.506 583.977 314.596C580.524 314.694 577.567 314.739 575.107 314.739H566.312L566.741 319.99L566.726 319.975Z" fill="#053793"/>
<path d="M560.768 281.095C560.956 282.517 561.077 283.788 561.122 284.925C561.167 286.061 561.19 286.768 561.19 287.054V287.904L569.134 287.618C593.916 287.054 606.502 286.339 606.878 285.489C607.066 285.203 607.141 284.639 607.089 283.789C607.036 282.938 607.021 281.802 607.021 280.381C607.021 277.544 606.878 275.836 606.592 275.272C606.495 275.182 604.132 275.129 599.498 275.129H592.968L592.088 252.567L569.811 253.891L579.133 275.558L585.362 275.37C583.646 275.498 581.578 275.558 579.133 275.558H570.549C567.712 275.37 565.373 275.325 563.522 275.415C561.679 275.513 560.708 275.558 560.61 275.558C560.61 275.656 560.633 276.243 560.678 277.334C560.723 278.424 560.746 279.673 560.746 281.095H560.768Z" fill="#053793"/>
<path d="M567.013 305.929L575.1 305.786C577.372 305.786 579.644 305.719 581.909 305.576C584.173 305.433 585.836 305.267 586.874 305.079C588.01 304.989 589.5 304.868 591.343 304.726C593.186 304.583 594.962 304.515 596.662 304.515C598.362 304.327 599.807 304.206 600.988 304.161C602.169 304.116 602.853 304.094 603.042 304.094V295.156H598.64C597.978 295.156 597.459 295.066 597.083 294.87C596.609 294.87 595.165 294.847 592.757 294.802C590.342 294.757 587.438 294.735 584.03 294.735C580.622 294.547 577.523 294.426 574.739 294.381C571.948 294.336 570.127 294.313 569.277 294.313L566.584 293.885L566.727 298.707C566.915 300.031 567.013 301.265 567.013 302.393V305.944V305.929Z" fill="#053793"/>
<path d="M686.428 346.796C685.435 345.946 684.939 345.615 684.939 345.803C684.841 346.277 684.374 347.39 683.517 349.136C682.667 350.888 681.719 352.754 680.68 354.74C679.635 356.726 678.642 358.57 677.701 360.277C677.521 360.601 677.355 360.894 677.197 361.165L675.85 363.257L674.895 361.428C674.647 360.39 674.398 358.923 674.15 357.012C674.052 356.538 673.962 355.733 673.864 354.597C673.767 353.461 673.676 351.949 673.578 350.053C673.481 348.353 673.458 345.773 673.511 342.319C673.556 338.866 673.631 334.54 673.721 329.334C673.812 321.954 673.864 314.672 673.864 307.479V268.313C673.864 264.153 673.812 261.452 673.721 260.226L673.436 258.526L671.306 258.24H668.395C666.838 258.24 664.867 258.217 662.504 258.172C660.142 258.127 657.419 258.104 654.342 258.104H644.479C641.071 258.104 637.783 258.082 634.616 258.037C631.448 257.992 628.605 257.969 626.099 257.969C623.594 257.969 621.488 257.946 619.787 257.901C618.087 257.856 616.951 257.834 616.379 257.834C613.919 257.743 612.595 257.834 612.407 258.12V259.113C612.407 259.301 612.43 259.82 612.475 260.67C612.512 261.385 612.603 262.205 612.746 263.122L613.791 278.41L625.174 277.176V278.267C624.986 282.901 624.82 287.513 624.677 292.102C624.535 296.691 624.467 301.303 624.467 305.937V310.902L618.365 311.045H611.978V319.419L611.692 327.649L615.522 327.935C616.56 327.935 617.673 327.958 618.855 328.003C620.036 328.055 620.908 328.071 621.48 328.071C622.24 328.071 622.849 328.123 623.323 328.213C623.797 328.311 624.128 328.401 624.316 328.499C624.407 328.499 624.504 328.973 624.602 329.921C624.693 330.869 624.745 331.96 624.745 333.186C624.745 334.413 624.768 336.263 624.813 338.723C624.858 341.183 624.933 343.997 625.024 347.164C625.114 350.332 625.212 353.815 625.309 357.592C625.4 361.376 625.498 365.258 625.595 369.23C625.686 372.066 625.783 374.812 625.881 377.46C625.972 380.109 626.024 381.907 626.024 382.855V386.541H643.192V376.325C643.192 373.39 643.215 369.87 643.26 365.754C643.305 361.639 643.38 356.884 643.47 351.49C643.561 346.096 643.613 341.582 643.613 337.941V329.357L643.899 325.949H650.001L656.245 325.806L656.674 332.757C656.862 334.653 657.05 336.685 657.238 338.859C657.426 341.033 657.614 343.35 657.802 345.81C657.99 348.368 658.156 350.49 658.299 352.197C658.442 353.905 658.607 355.177 658.795 356.027C658.795 356.313 658.863 357.042 659.006 358.224C659.149 359.405 659.36 360.706 659.645 362.128C659.653 362.256 659.668 362.369 659.683 362.497L661.887 385.969L675.828 396.005L712 357.163L686.398 346.803L686.428 346.796ZM655.989 283.367C655.989 286.399 655.921 289.612 655.779 293.02C655.636 296.428 655.568 299.264 655.568 301.536L655.425 309.202H649.609C648.097 309.202 646.721 309.157 645.494 309.059C644.26 308.969 643.598 308.871 643.508 308.773C643.222 308.773 643.034 308.345 642.944 307.494C642.846 306.644 642.891 304.846 643.087 302.1C643.177 300.302 643.297 298.008 643.44 295.217C643.583 292.425 643.749 289.755 643.937 287.197C644.027 284.925 644.125 282.705 644.223 280.524C644.313 278.349 644.366 276.837 644.366 275.98V275.084L656.395 273.783L656.004 283.36L655.989 283.367Z" fill="#053793"/>
<path d="M160.533 336.647C155.372 336.451 146.735 336.301 134.63 336.203C122.518 336.007 115.724 336.007 114.235 336.203C114.137 336.203 114.032 336.624 113.934 337.467C113.836 338.309 113.731 339.724 113.633 341.71C113.535 343.696 113.482 346.322 113.482 349.602V387.714H167.055L163.361 336.654H160.533V336.647ZM131.952 349.594H146.69V350.783C146.788 352.965 146.84 355.176 146.84 357.411V364.182C146.637 368.846 146.494 371.329 146.397 371.622C146.299 371.72 145.524 371.75 144.087 371.697C142.65 371.645 140.98 371.524 139.099 371.329L132.102 370.885L131.952 360.164V349.594Z" fill="#053793"/>
<path d="M118.252 302.995C118.35 303.492 118.403 303.943 118.403 304.334C118.403 304.726 118.455 305.132 118.553 305.523C118.553 306.117 118.606 306.471 118.704 306.569C119.599 306.667 123.466 306.516 130.319 306.125C133.69 305.929 136.624 305.779 139.107 305.681C141.589 305.583 143.673 305.433 145.358 305.237C146.848 305.042 148.338 304.914 149.827 304.869C151.317 304.816 152.505 304.696 153.401 304.5H156.229V294.976H149.233C148.24 294.976 147.593 294.878 147.299 294.675C146.901 294.675 145.584 294.652 143.357 294.599C141.123 294.547 138.52 294.524 135.541 294.524C132.561 294.329 129.71 294.201 126.979 294.156C124.248 294.103 122.39 294.08 121.397 294.08L117.522 293.636L117.823 296.766C117.823 297.661 117.899 298.7 118.049 299.896C118.2 301.084 118.275 302.13 118.275 303.025L118.252 302.995Z" fill="#053793"/>
<path d="M117.356 328.379C117.356 329.425 117.409 330.042 117.507 330.237C118.304 330.237 122.472 330.087 130.01 329.793C133.779 329.598 137.406 329.447 140.881 329.349C144.357 329.252 147.675 329.101 150.857 328.906L156.665 328.605V315.507H137.308C131.65 315.507 126.986 315.529 123.315 315.582C119.643 315.634 117.657 315.755 117.356 315.951C117.153 316.154 117.033 316.567 116.988 317.214C116.935 317.861 116.965 318.478 117.063 319.073C117.258 319.17 117.364 319.742 117.364 320.788V328.379H117.356Z" fill="#053793"/>
<path d="M235.118 343.342C232.538 343.342 230.108 343.395 227.821 343.493C225.533 343.591 223.803 343.643 222.607 343.643C221.516 343.741 220.576 343.771 219.778 343.719C218.981 343.666 218.484 343.643 218.289 343.643C218.191 343.448 218.063 343.342 217.92 343.342C217.777 343.342 217.694 343.44 217.694 343.643C217.491 343.643 217.296 343.741 217.1 343.944L216.949 344.095C216.852 344.095 216.746 344.042 216.649 343.944C216.551 343.847 216.596 343.749 216.799 343.643V343.493C216.799 343.297 216.701 343.102 216.498 342.899C216.4 342.899 216.295 342.079 216.197 340.439C216.099 338.798 216.047 336.496 216.047 333.517C216.047 329.552 216.099 326.994 216.197 325.851C216.295 324.715 216.498 324.136 216.792 324.136C217.085 324.136 218.131 324.113 219.921 324.06C221.704 324.008 223.788 323.887 226.173 323.692C228.558 323.692 230.664 323.669 232.5 323.617C234.336 323.564 235.502 323.444 235.998 323.248H237.337V309.255H227.068L216.942 308.954V290.943H224.834C228.701 290.943 232.079 290.891 234.96 290.793C237.841 290.695 239.572 290.597 240.174 290.492C240.369 290.296 240.497 289.725 240.542 288.777C240.595 287.836 240.618 286.076 240.618 283.495L240.467 276.792H232.801C231.755 276.792 231.041 276.739 230.642 276.642C229.844 276.642 229.378 276.566 229.227 276.416C229.077 276.265 229.25 275.897 229.747 275.302C229.942 274.806 230.288 273.835 230.792 272.398C231.289 270.962 231.808 269.419 232.357 267.787C232.56 267.185 232.748 266.606 232.936 266.034L238.812 252.236L214.474 248.068L211.021 276.544C209.923 276.612 208.192 276.649 205.785 276.649H200.993L192.996 252.236L184.532 255.148C183.93 255.313 183.336 255.471 182.711 255.659C181.019 256.156 179.461 256.652 178.024 257.149C176.587 257.645 175.662 258.044 175.271 258.338L175.715 260.121C175.91 260.617 176.159 261.234 176.459 261.979C176.76 262.724 177.106 263.491 177.505 264.288C178.1 265.981 178.641 267.591 179.145 269.126C179.642 270.668 179.988 271.729 180.191 272.323C180.387 272.918 180.59 273.437 180.785 273.888C180.981 274.332 181.131 274.558 181.229 274.558C181.229 274.761 181.282 274.956 181.38 275.152C181.477 275.355 181.53 275.596 181.53 275.897C181.628 276.393 181.455 276.717 181.011 276.867C180.567 277.018 179.446 276.995 177.663 276.792H174.09L173.646 278.432C173.548 280.02 173.548 282.404 173.646 285.579C173.646 288.257 173.744 290.101 173.947 291.086C174.248 291.289 175.512 291.387 177.746 291.387H197.321V301.656L197.171 311.925L192.853 311.625C191.664 311.625 190.618 311.602 189.723 311.549C188.828 311.497 188.331 311.376 188.233 311.181C188.03 311.181 187.24 311.158 185.848 311.105C184.457 311.053 182.869 310.932 181.086 310.737L174.09 310.586L174.534 318.772C174.534 321.059 174.586 322.962 174.684 324.504C174.782 326.047 174.88 326.912 174.985 327.107C175.286 327.01 175.925 326.957 176.918 326.957C177.513 326.859 178.235 326.806 179.078 326.806H181.681C183.464 326.709 185.45 326.611 187.639 326.505C189.821 326.408 191.513 326.355 192.702 326.355H197.314V346.45L192.702 346.299C186.45 346.104 181.184 345.93 176.918 345.78C172.653 345.63 170.366 345.66 170.072 345.855C170.072 346.254 170.17 347.247 170.373 348.834C170.569 350.422 170.764 352.085 170.968 353.822C171.163 355.56 171.389 357.17 171.637 358.66C171.885 360.149 172.058 361.09 172.156 361.488C172.156 361.586 176.324 361.639 184.66 361.639C188.03 361.541 190.912 361.488 193.296 361.488H197.163C197.163 361.586 197.186 362.956 197.239 365.581C197.291 368.214 197.314 371.464 197.314 375.331V389.174L206.545 389.024C209.028 388.82 211.232 388.655 213.173 388.504C215.106 388.354 216.227 388.279 216.521 388.279C217.017 388.181 217.288 387.91 217.341 387.459C217.393 387.015 217.363 385.894 217.265 384.111C217.168 382.027 217.062 379.717 216.965 377.189C216.867 374.662 216.761 371.953 216.664 369.079C216.566 366.198 216.491 363.941 216.438 362.309C216.385 360.669 216.415 359.653 216.513 359.254C216.709 359.059 218.101 358.953 220.681 358.953H241.227C242.22 358.953 242.867 358.901 243.16 358.803C243.461 358.705 243.604 358.607 243.604 358.502C243.702 358.201 243.755 357.313 243.755 355.824V350.76L243.604 343.32H235.118V343.342Z" fill="#053793"/>
<path d="M125.098 286.625C128.574 286.527 131.696 286.399 134.479 286.256C137.255 286.106 138.993 286.031 139.693 286.031C140.49 285.835 141.875 285.707 143.861 285.662C145.847 285.609 148.029 285.489 150.414 285.293C152.994 285.293 155.101 285.218 156.741 285.068C158.381 284.917 159.246 284.842 159.344 284.842V278.59L158.9 272.632H155.77C154.875 272.632 153.807 272.654 152.573 272.707C151.331 272.759 150.165 272.88 149.074 273.075C148.322 273.075 147.043 273.106 145.238 273.166L146.328 247L123.262 251.935L128.363 273.534L112 273.978V280.23C112 282.013 112.023 283.533 112.075 284.774C112.128 286.015 112.15 286.738 112.15 286.933C112.346 287.031 113.437 287.084 115.423 287.084C117.409 287.084 120.637 286.933 125.098 286.64V286.625Z" fill="#053793"/>
<path d="M397.243 255.208H389.652C387.47 255.208 385.657 255.23 384.22 255.283C382.783 255.336 382.008 255.358 381.91 255.358C381.512 255.456 377.592 255.607 370.152 255.802C363.306 255.9 354.722 256.05 344.4 256.246C339.043 256.246 334.446 256.321 330.632 256.472C326.81 256.622 324.606 256.697 324.004 256.697L322.665 257.141V270.096C322.861 273.873 322.989 277.018 323.034 279.553C323.086 282.081 323.109 283.397 323.109 283.495C323.305 284.488 323.41 289.649 323.41 298.978V315.506C323.41 321.465 323.463 328.161 323.56 335.601C323.56 344.035 323.583 351.43 323.636 357.78C323.688 364.129 323.711 369.538 323.711 374.007V381.154C323.711 383.336 323.763 385.375 323.861 387.255C324.162 387.255 324.975 387.203 326.321 387.105C327.66 387.007 329.376 386.955 331.46 386.955C333.544 386.955 335.184 386.902 336.372 386.804C337.561 386.706 338.456 386.578 339.051 386.435C339.645 386.293 340.021 386.044 340.164 385.691C340.315 385.345 340.39 384.968 340.39 384.577V382.937L343.662 382.787C344.558 382.591 346.912 382.463 350.734 382.418C354.556 382.365 358.844 382.245 363.614 382.049L380.143 381.899L380.737 383.389C380.932 383.885 381.136 384.359 381.331 384.803C381.527 385.247 381.722 385.472 381.926 385.472C382.919 385.773 385.65 385.773 390.111 385.472C391.931 385.314 393.436 385.202 394.625 385.141L399.936 385.277L403.638 255.208L397.295 255.358L397.25 255.208H397.243ZM354.293 336.421C354.24 339.551 354.12 342.996 353.924 346.765C353.924 350.339 353.901 353.687 353.849 356.817C353.796 359.946 353.676 362.098 353.48 363.294C353.48 364.881 353.405 365.897 353.254 366.348C353.104 366.792 352.833 367.018 352.434 367.018C351.742 367.116 350.847 367.191 349.756 367.244C348.665 367.296 347.371 367.319 345.882 367.319C344.49 367.319 343.354 367.296 342.459 367.244C341.563 367.191 340.871 367.116 340.375 367.018C340.074 366.424 339.953 364.558 340.006 361.436C340.059 358.306 340.33 354.311 340.826 349.451C340.826 348.857 340.849 347.668 340.901 345.878C340.954 344.095 341.074 342.206 341.27 340.22C341.27 338.339 341.293 336.594 341.345 335.007C341.398 333.419 341.518 332.328 341.714 331.734V325.926H344.986C348.462 325.828 350.794 325.776 351.983 325.776H353.917C354.112 325.873 354.24 326.22 354.285 326.814C354.338 327.408 354.36 328.454 354.36 329.944C354.36 331.132 354.338 333.291 354.285 336.421H354.293ZM354.217 290.943C354.014 295.51 353.894 299.407 353.849 302.627C353.796 305.854 353.774 307.517 353.774 307.615C353.57 307.818 352.931 307.938 351.84 307.983C350.749 308.036 349.357 308.058 347.672 308.058L341.714 308.502L341.864 302.544C342.06 300.761 342.188 298.248 342.233 295.028C342.286 291.808 342.308 288.649 342.308 285.572V274.851L346.777 274.55C347.966 274.452 349.162 274.4 350.351 274.4C351.539 274.4 352.382 274.302 352.878 274.099H354.368L354.217 290.921V290.943ZM380.27 355.553C380.27 359.329 380.218 361.609 380.12 362.399L379.819 365.077H375.651C373.868 365.077 372.619 365.024 371.927 364.927C371.235 364.829 370.836 364.626 370.738 364.332C370.438 364.137 370.34 361.902 370.438 357.629C370.438 355.846 370.513 353.138 370.663 349.519C370.814 345.893 370.987 342.199 371.182 338.43C371.28 334.758 371.378 331.659 371.483 329.123C371.581 326.596 371.634 325.226 371.634 325.031C371.935 324.73 373.417 324.587 376.103 324.587H380.12L380.27 342.304V355.553ZM380.571 278.432C380.571 280.019 380.519 282.374 380.421 285.504C380.323 288.633 380.27 291.929 380.27 295.404V307.163H370.445L370.889 297.639C370.889 294.757 370.942 291.756 371.039 288.634C371.137 285.504 371.19 282.856 371.19 280.666V273.226H381.015L380.571 278.439V278.432Z" fill="#053793"/>
<path d="M318.038 324.211C317.241 320.991 316.398 318.132 315.51 315.65C314.615 313.167 313.87 311.925 313.276 311.925C312.682 312.023 311.809 312.272 310.673 312.67C309.529 313.069 308.341 313.49 307.099 313.934C305.858 314.378 304.692 314.829 303.601 315.273C302.51 315.717 301.668 316.093 301.073 316.387V318.17C301.171 318.569 301.299 319.065 301.442 319.659C301.592 320.254 301.668 320.803 301.668 321.299L301.969 322.789L300.329 323.09C299.14 323.09 297.868 323.113 296.529 323.165C295.19 323.218 293.971 323.338 292.881 323.534C292.188 323.737 291.541 323.835 290.947 323.835C290.353 323.835 289.706 323.887 289.014 323.985C288.81 323.79 288.788 323.594 288.938 323.391C289.089 323.195 289.307 322.849 289.608 322.345C290.3 321.157 291.489 319.268 293.181 316.688C294.867 314.107 296.853 310.586 299.14 306.118C301.419 301.852 303.481 297.857 305.316 294.133C307.152 290.409 308.867 286.963 310.455 283.789C312.441 279.719 312.937 277.687 311.944 277.687C311.944 277.589 311.794 277.462 311.501 277.319C311.2 277.168 310.906 276.995 310.605 276.8L309.266 275.904C308.574 275.408 307.724 274.813 306.738 274.121C305.745 273.429 304.805 272.782 303.91 272.188L301.081 269.953L300.186 270.999C299.982 271.3 299.591 271.894 298.997 272.782C298.403 273.677 297.906 274.716 297.507 275.912C296.416 277.695 295.25 279.636 294.009 281.72C292.768 283.804 291.406 285.835 289.916 287.821L288.276 289.755H285.598C283.71 289.755 282.92 289.604 283.213 289.311C283.311 289.01 283.71 288.265 284.402 287.076C285.094 285.888 285.937 284.496 286.93 282.908C287.622 281.818 288.69 280.027 290.127 277.552C291.564 275.069 293.031 272.444 294.521 269.66C296.01 266.884 297.327 264.251 298.463 261.768C299.599 259.286 300.223 257.548 300.321 256.555C300.321 256.058 299.629 255.343 298.237 254.395C296.845 253.455 295.28 252.537 293.55 251.642C291.812 250.747 290.15 249.957 288.562 249.257C286.975 248.565 285.929 248.166 285.433 248.068L284.989 248.512C284.786 249.107 284.545 249.558 284.244 249.851C282.852 252.928 281.167 256.547 279.181 260.722C277.195 264.89 274.915 269.653 272.335 275.017C269.754 280.373 267.572 284.819 265.782 288.34C263.999 291.861 262.607 294.366 261.614 295.856L260.719 297.195L263.247 299.429C264.044 300.325 264.714 301.017 265.255 301.513C265.797 302.01 266.421 302.386 267.113 302.627C267.806 302.875 268.626 302.973 269.574 302.928C270.514 302.875 271.831 302.807 273.516 302.702C275.502 302.506 277.014 302.356 278.06 302.258C279.106 302.16 279.865 302.138 280.369 302.183C280.866 302.236 281.137 302.333 281.189 302.484C281.242 302.634 281.212 302.853 281.114 303.153C280.911 303.552 280.369 304.447 279.474 305.832C278.579 307.223 277.292 309.059 275.6 311.339C273.817 313.724 272.049 316.327 270.318 319.155C268.581 321.984 266.519 324.79 264.142 327.566L263.247 328.612L264.292 330.252C264.887 331.147 265.481 332.336 266.075 333.826C266.67 335.315 267.211 337 267.715 338.889L268.31 341.868L270.544 341.424C271.138 341.424 272.131 341.349 273.523 341.198C274.915 341.048 276.202 340.875 277.398 340.679C278.684 340.582 279.903 340.454 281.047 340.311C282.183 340.16 282.957 340.085 283.356 340.085H284.996V356.313C284.996 361.669 285.019 366.416 285.071 370.531C285.124 374.647 285.297 378.198 285.591 381.177C285.786 383.562 285.959 385.623 286.11 387.353C286.26 389.084 286.335 390.009 286.335 390.107C286.335 390.302 286.93 390.43 288.118 390.476C289.307 390.528 291.293 390.551 294.077 390.551C296.161 390.453 297.996 390.348 299.584 390.25C301.171 390.152 302.014 390.099 302.112 390.099C302.112 390.002 302.089 389.279 302.036 387.94C301.984 386.601 301.863 384.938 301.668 382.952C301.57 380.868 301.442 377.964 301.299 374.24C301.149 370.516 300.976 366.777 300.78 363.001C300.682 359.329 300.554 355.703 300.411 352.13C300.261 348.556 300.088 345.878 299.892 344.087C299.892 342.402 299.87 341.01 299.817 339.919C299.764 338.829 299.742 338.182 299.742 337.986H300.562C301.006 337.986 301.532 337.933 302.127 337.836H304.361L305.256 340.514C305.557 341.409 305.828 342.101 306.076 342.598C306.325 343.094 306.498 343.44 306.595 343.643C306.791 343.741 307.784 343.621 309.575 343.275C311.358 342.929 313.344 342.357 315.533 341.559C316.428 341.259 317.316 341.018 318.211 340.815C319.107 340.619 319.799 340.423 320.295 340.22C320.987 340.22 321.333 340.025 321.333 339.626C321.236 338.535 320.859 336.496 320.22 333.525C319.573 330.546 318.858 327.446 318.061 324.218L318.038 324.211Z" fill="#053793"/>
<path d="M317.595 363.445C317.294 361.361 317.001 359.502 316.7 357.862C316.399 356.222 316.256 355.056 316.256 354.364C316.256 353.469 316.03 352.95 315.586 352.799C315.143 352.649 313.773 352.724 311.494 353.025C310.802 353.025 309.929 353.047 308.891 353.1C307.845 353.153 306.927 353.175 306.137 353.175C305.144 353.378 304.422 353.499 303.978 353.544C303.534 353.597 303.309 353.717 303.309 353.913C303.309 354.01 303.384 354.484 303.534 355.327C303.685 356.17 303.805 357.087 303.903 358.08C304.994 363.241 305.889 368.207 306.581 372.969C306.777 373.864 306.95 374.684 307.1 375.429C307.251 376.174 307.371 376.595 307.469 376.693C307.665 376.896 308.289 376.919 309.327 376.768C310.365 376.618 311.637 376.399 313.126 376.099L318.19 375.354L318.49 372.969C318.49 372.171 318.363 370.885 318.122 369.094C317.874 367.311 317.701 365.423 317.603 363.437L317.595 363.445Z" fill="#053793"/>
<path d="M279.038 354.733C278.346 354.289 277.007 353.913 275.021 353.619C274.028 353.318 272.884 353.077 271.598 352.874C270.304 352.679 269.213 352.43 268.325 352.13C266.738 351.633 265.745 351.385 265.346 351.385C264.947 351.385 264.752 351.535 264.752 351.829L255.784 380.68L275.608 387.255L277.398 373.721C277.429 373.541 277.459 373.368 277.481 373.187C277.729 371.547 278 370.133 278.301 368.944C278.399 367.552 278.572 366.138 278.82 364.701C279.069 363.264 279.189 362.098 279.189 361.203C279.287 360.307 279.385 359.42 279.49 358.524C279.588 357.629 279.64 357.035 279.64 356.741C279.941 355.846 279.738 355.176 279.046 354.733H279.038Z" fill="#053793"/>
<path d="M432.376 301.807C433.174 301.611 434.927 301.039 437.665 300.091C440.396 299.151 443.248 298.135 446.227 297.037C449.206 295.946 451.907 294.878 454.337 293.84C456.767 292.794 458.136 292.034 458.429 291.53C458.332 291.033 458.083 290.266 457.685 289.22C457.286 288.175 456.865 287.084 456.421 285.948C455.977 284.812 455.503 283.736 455.006 282.75C454.51 281.757 454.111 281.11 453.818 280.817C453.667 280.817 453.457 280.877 453.216 280.96L414.915 290.191L418.586 307.163L432.091 301.867C432.188 301.844 432.286 301.829 432.384 301.807H432.376Z" fill="#053793"/>
<path d="M519.022 366.416C520.805 366.318 522.648 366.221 524.529 366.115C527.802 365.92 529.863 365.792 530.706 365.747C531.548 365.694 531.97 365.423 531.97 364.927C532.165 364.626 532.338 363.264 532.489 360.834C532.639 358.404 532.79 355.35 532.932 351.678C533.083 348.007 533.203 344.012 533.301 339.694C533.399 335.375 533.474 331.208 533.527 327.19C533.579 323.173 533.625 319.577 533.677 316.394C533.73 313.22 533.753 310.94 533.753 309.548C533.85 308.059 533.88 306.998 533.828 306.351C533.775 305.704 533.602 305.237 533.309 304.936C533.008 304.44 532.436 304.116 531.593 303.966C530.751 303.816 528.689 303.74 525.417 303.74C523.333 303.74 521.098 303.793 518.714 303.891C516.329 303.989 514.343 304.041 512.755 304.041C511.762 304.041 510.295 304.064 508.362 304.116C506.428 304.169 504.141 304.214 501.515 304.267C498.882 304.32 496.008 304.365 492.879 304.417C489.749 304.47 486.552 304.493 483.279 304.493H474.048C471.167 304.493 468.616 304.515 466.382 304.568C464.148 304.621 462.365 304.643 461.025 304.643H454.548C452.065 304.643 449.139 304.741 445.761 304.944H433.852V335.759L434.152 366.574L439.96 366.725C443.73 366.823 448.913 366.928 455.518 367.026C462.116 367.123 470.384 367.176 480.307 367.176C499.755 367.176 511.326 367.026 514.997 366.732C515.892 366.634 517.231 366.537 519.014 366.431L519.022 366.416ZM452.622 316.695L473.913 316.996H500.861C502.351 316.801 504.036 316.695 505.924 316.695C507.812 316.695 509.249 316.643 510.242 316.545H514.26V322.353L492.375 322.797C468.157 322.894 455.202 322.894 453.517 322.797C453.216 322.601 452.998 322.33 452.848 321.977C452.697 321.63 452.622 320.863 452.622 319.667V316.688V316.695ZM452.472 340.815C452.569 340.717 452.622 340.371 452.622 339.777V335.902L463.343 335.752C466.322 335.556 469.497 335.383 472.867 335.233C476.237 335.082 478.968 334.962 481.052 334.864C486.213 334.668 491.148 334.465 495.866 334.27C500.575 334.074 504.72 333.969 508.294 333.969L514.102 333.668L514.546 337.241C514.546 338.136 514.568 338.934 514.621 339.626C514.674 340.318 514.643 340.717 514.546 340.815C514.448 340.815 513.553 340.837 511.867 340.89C510.175 340.943 507.948 340.988 505.164 341.04C502.388 341.093 499.138 341.138 495.414 341.191C491.69 341.244 487.65 341.266 483.279 341.266C476.132 341.364 470.399 341.439 466.081 341.492C461.763 341.544 458.708 341.514 456.925 341.417C453.547 341.319 452.065 341.116 452.457 340.822L452.472 340.815ZM497.581 356.44C490.93 356.44 484.332 356.388 477.78 356.29C471.227 356.192 464.629 355.944 457.979 355.545L452.472 355.395V352.416L462.447 351.972C463.937 351.972 465.743 351.949 467.879 351.896C470.016 351.844 472.348 351.799 474.876 351.746C477.404 351.693 480.014 351.648 482.692 351.596C485.371 351.543 488.004 351.52 490.584 351.52C495.647 351.422 500.161 351.325 504.134 351.219C508.098 351.122 510.536 351.069 511.431 351.069H514.561L514.711 353.597C514.907 354.394 515.012 354.936 515.012 355.237V355.982C514.809 356.185 513.079 356.283 509.799 356.283C506.518 356.283 502.448 356.335 497.588 356.433L497.581 356.44Z" fill="#053793"/>
<path d="M543.434 290.492C542.742 290.296 541.892 290.101 540.906 289.897C539.816 289.8 538.424 289.551 536.739 289.153C535.046 288.761 533.466 288.355 531.976 287.964C528.403 286.873 524.98 285.654 521.707 284.315C518.435 282.976 515.501 281.509 512.92 279.922C512.521 279.726 512.025 279.478 511.43 279.177C510.836 278.876 510.242 278.68 509.647 278.582L507.864 277.838L509.204 276.055C510.099 275.062 510.467 274.339 510.317 273.896C510.167 273.452 509.249 272.782 507.564 271.887C506.969 271.39 506.45 271.044 505.999 270.841C505.555 270.645 505.427 270.54 505.63 270.54C506.127 270.442 506.969 270.39 508.158 270.39C508.955 270.292 509.873 270.217 510.911 270.164C511.957 270.111 513.071 270.089 514.259 270.089C516.644 269.893 518.45 269.788 519.691 269.788C520.932 269.788 521.828 269.886 522.369 270.089C522.911 270.292 523.167 270.638 523.114 271.134C523.061 271.631 522.888 272.323 522.595 273.218C522.098 274.61 521.85 275.505 521.85 275.897C522.219 276.265 524.167 276.732 527.673 277.273L542.614 280.809V264.695C542.637 264.507 542.667 264.326 542.689 264.13C542.99 261.851 543.036 260.113 542.84 258.917C542.84 258.119 542.765 257.63 542.614 257.427C542.464 257.232 542.193 257.126 541.794 257.126C535.144 257.126 528.471 257.051 521.767 256.901C515.064 256.75 508.391 256.577 501.741 256.381C499.657 256.284 497.874 256.186 496.384 256.08C494.894 255.983 493.999 255.93 493.706 255.93C493.111 255.734 493.059 255.087 493.555 253.997C494.15 252.605 494.398 251.762 494.3 251.469C494.202 251.168 493.653 250.822 492.66 250.423C492.066 250.227 491.321 250.024 490.426 249.829C489.53 249.633 488.786 249.43 488.191 249.234C487.1 249.137 485.882 248.888 484.542 248.49C483.203 248.098 481.939 247.594 480.743 247C480.344 247 479.254 248.189 477.471 250.574C476.673 251.664 475.755 252.981 474.717 254.516C473.671 256.058 472.708 257.42 471.813 258.608C471.121 259.797 470.12 261.136 468.834 262.626C467.54 264.115 466.404 265.454 465.411 266.643C464.32 267.734 463.402 268.674 462.657 269.472C461.913 270.269 461.544 270.766 461.544 270.961C462.341 271.759 463.056 272.602 463.703 273.489C464.35 274.385 464.967 275.325 465.561 276.318C468.541 279.591 470.128 281.231 470.324 281.231C471.512 280.93 472.927 280.185 474.567 278.996C476.207 277.808 477.967 276.371 479.848 274.678L483.865 270.661L489.967 270.51C491.358 270.209 492.795 270.164 494.285 270.36C495.082 270.36 495.572 270.412 495.775 270.51C495.677 270.909 495.256 271.578 494.511 272.519C493.766 273.467 492.818 274.527 491.682 275.716C490.538 276.905 489.275 278.146 487.883 279.44C486.491 280.734 485.107 281.968 483.715 283.164C479.547 286.835 474.785 289.77 469.421 291.951C468.33 292.35 467.532 292.719 467.036 293.065C466.539 293.411 466.238 293.787 466.141 294.178C466.043 294.577 466.118 295.126 466.366 295.818C466.615 296.51 466.938 297.458 467.337 298.647C468.134 301.032 468.676 302.469 468.977 302.965C469.278 303.462 469.722 303.657 470.316 303.56C470.91 303.56 471.828 303.387 473.07 303.041C474.311 302.694 475.725 302.273 477.313 301.777C478.9 301.28 480.51 300.708 482.15 300.061C483.79 299.414 485.25 298.797 486.544 298.203C488.628 297.112 490.734 295.773 492.871 294.186C495.007 292.598 496.866 291.109 498.453 289.717L499.943 288.378L501.583 289.717C502.771 290.71 504.283 291.801 506.127 292.989C507.962 294.178 509.723 295.171 511.415 295.969C513.003 296.864 514.613 297.586 516.253 298.128C517.893 298.677 520.15 299.294 523.024 299.986C524.31 300.287 525.973 300.731 528.012 301.325C530.043 301.92 531.954 302.416 533.744 302.815C537.017 303.808 539.402 304.304 540.891 304.304C541.884 304.304 542.381 303.958 542.381 303.259C542.577 302.461 542.802 301.521 543.051 300.43C543.299 299.339 543.547 298.218 543.795 297.082C544.044 295.946 544.239 294.825 544.39 293.734C544.54 292.643 544.615 291.748 544.615 291.056C544.518 290.86 544.119 290.665 543.427 290.462L543.434 290.492Z" fill="#053793"/>
<path d="M457.655 262.295L432.971 252.229L423.74 266.523L452.411 273.226L457.655 262.295Z" fill="#053793"/>
<path d="M494.338 380.936L531.006 395.584L537.912 384.908L501.207 367.311L494.338 380.936Z" fill="#053793"/>
<path d="M430.744 385.774L434.446 397.931L471.565 381.229L465.584 367.199L430.744 385.774Z" fill="#053793"/>
<defs>
<filter id="filter0_d_747_2971" x="20.749" y="36.0437" width="751.506" height="567.662" filterUnits="userSpaceOnUse" color-interpolation-filters="sRGB">
<feFlood flood-opacity="0" result="BackgroundImageFix"/>
<feColorMatrix in="SourceAlpha" type="matrix" values="0 0 0 0 0 0 0 0 0 0 0 0 0 0 0 0 0 0 127 0" result="hardAlpha"/>
<feOffset dx="10.9" dy="16.7"/>
<feColorMatrix type="matrix" values="0 0 0 0 0.529412 0 0 0 0 0.27451 0 0 0 0 0.137255 0 0 0 1 0"/>
<feBlend mode="normal" in2="BackgroundImageFix" result="effect1_dropShadow_747_2971"/>
<feBlend mode="normal" in="SourceGraphic" in2="effect1_dropShadow_747_2971" result="shape"/>
</filter>
<clipPath id="clip0_747_2971">
<rect width="423.341" height="107.152" fill="white" transform="translate(182.988 126.119)"/>
</clipPath>
</defs>
</svg>
