<svg width="789" height="624" viewBox="0 0 789 624" fill="none" xmlns="http://www.w3.org/2000/svg">
<g filter="url(#filter0_d_113_2282)">
<path d="M722.221 324.466C734.172 308.016 741.395 286.594 741.395 263.272C741.395 211.217 705.543 169.032 661.286 169.032C617.03 169.032 652.356 169.471 648.023 170.348C629.309 116.612 577.764 78.0093 517.092 78.0093C456.42 78.0093 485.574 80.7144 471.259 85.6859C466.926 83.5657 462.395 81.6648 457.799 79.837C432.519 52.8592 396.404 36.0437 356.284 36.0437C292.263 36.0437 238.42 79.0328 222.596 137.375C217.605 136.279 212.484 135.621 207.296 135.621C178.142 135.621 152.665 153.971 138.613 181.315C130.209 176.197 120.622 173.346 110.51 173.346C76.628 173.346 49.1154 205.661 49.1154 245.579C49.1154 285.498 52.9239 274.165 59.4244 285.571V287.472C35.8516 309.99 20.7493 344.352 20.7493 382.881C20.7493 450.655 67.4353 505.634 125.021 505.634C182.607 505.634 131.653 505.415 134.936 505.049C138.416 515.431 144.26 523.546 152.337 527.786C165.535 534.732 181.425 529.541 194.952 516.016C200.993 522.888 208.413 530.199 217.408 537.437C235.728 552.132 257.331 563.83 281.495 572.018C310.649 581.962 343.809 587.006 380.12 587.006C416.431 587.006 449.788 581.962 479.401 572.092C503.894 563.903 525.956 552.425 544.998 537.876C549.529 534.44 553.666 530.93 557.474 527.494C566.601 533.855 577.304 537.583 588.729 537.583C610.595 537.583 629.768 524.131 640.668 503.879C651.109 509.07 662.534 511.995 674.616 511.995C722.55 511.995 761.356 466.3 761.356 409.932C761.356 353.564 745.794 342.816 722.221 324.612V324.466Z" fill="#FFFBD2"/>
</g>
<path d="M171.922 457.112H169.222V463.59H165.087V457.112H155.469V453.732L163.822 438.618H169.137V453.357H171.837V457.112H171.922ZM165.087 453.263V448.194C165.087 446.785 165.172 444.438 165.256 443.03H165.172C164.666 444.345 163.991 445.753 163.4 447.067L159.941 453.263H165.172H165.087Z" fill="#DE5419"/>
<path d="M174.875 460.867C174.875 459.084 176.056 457.582 177.659 457.582C179.262 457.582 180.443 458.99 180.443 460.867C180.443 462.745 179.262 464.153 177.659 464.153C176.056 464.153 174.875 462.745 174.875 460.867Z" fill="#DE5419"/>
<path d="M183.397 460.586L185.506 457.394C186.856 458.802 188.459 459.928 190.484 459.928C192.509 459.928 194.281 458.708 194.281 456.455C194.281 454.202 193.015 452.418 188.037 452.418V448.851C192.171 448.851 193.521 447.255 193.521 445.002C193.521 442.749 192.425 441.904 190.484 441.81C188.881 441.81 187.531 442.655 186.265 444.063L183.987 441.059C185.928 439.181 188.121 437.961 190.737 437.961C195.125 437.961 197.993 440.308 197.993 444.626C197.993 448.945 196.643 449.32 194.196 450.353V450.541C196.728 451.292 198.668 453.451 198.668 456.737C198.668 460.022 195.04 463.965 190.737 463.965C186.434 463.965 184.747 462.463 183.228 460.492L183.397 460.586Z" fill="#DE5419"/>
<path d="M247.268 457.018C246.508 459.459 245.243 462.275 244.23 463.965C243.724 463.496 242.543 462.557 241.868 462.182C242.88 460.586 243.893 458.333 244.568 456.173L247.352 457.018H247.268ZM251.571 455.047V466.312H248.111V455.047H242.458V451.667H248.111V449.038H242.29V445.753H245.243C245.074 444.72 244.736 443.312 244.399 442.279L246.93 441.622H242.796V438.336H248.027C247.774 437.397 247.436 436.459 247.099 435.708L250.727 434.769C251.149 435.895 251.739 437.304 252.077 438.43H256.464V441.716H252.668L255.114 442.279C254.693 443.593 254.186 444.908 253.764 445.94H256.886V449.226H251.655V451.855H256.38V455.234H251.655L251.571 455.047ZM247.183 441.528C247.605 442.655 248.027 444.063 248.196 445.002L246.002 445.659H250.389C250.811 444.438 251.402 442.749 251.655 441.434H247.183V441.528ZM270.302 449.789H267.433V466.406H263.889V449.789H261.021V450.165C261.021 455.141 260.599 462.088 258.067 466.406C257.477 465.655 256.043 464.435 255.283 463.965C255.874 463.026 256.296 461.9 256.633 460.68L254.439 462.182C253.933 460.867 252.921 458.708 252.077 457.112L254.439 455.704C255.283 457.018 256.211 458.896 256.718 460.116C257.561 456.83 257.646 453.169 257.646 450.071V438.055C260.936 437.397 264.649 436.365 266.842 435.144L269.627 438.055C267.096 439.181 263.974 440.026 261.021 440.589V445.94H270.217V449.696L270.302 449.789Z" fill="#DE5419"/>
<path d="M285.658 456.83L286.333 460.398C282.03 462.463 277.389 464.528 273.761 466.124L272.158 461.994C274.267 461.243 277.136 460.21 280.258 458.99V446.973H273.255V442.936H280.258V435.52H284.055V457.488L285.742 456.83H285.658ZM295.53 461.618C296.626 461.618 296.795 460.022 297.048 454.014C297.892 454.765 299.495 455.61 300.508 455.892C300.17 462.933 299.326 465.561 295.867 465.561H292.239C288.864 465.561 287.852 464.153 287.852 459.459V435.52H291.648V442.936H299.58V446.973H291.648V459.553C291.648 461.337 291.817 461.712 292.83 461.712H295.53V461.618Z" fill="#DE5419"/>
<path d="M319.829 448.194C321.854 454.765 325.483 460.116 331.22 462.651C330.292 463.496 329.111 465.28 328.52 466.406C323.036 463.496 319.492 458.614 317.13 452.043C315.526 457.675 312.236 462.933 305.739 466.406C305.148 465.28 304.136 463.871 303.039 463.026C310.042 459.553 312.911 453.92 314.092 448.1H303.63V443.969H314.683C315.02 440.777 314.936 437.679 315.02 434.957H318.986C318.986 437.773 318.986 440.871 318.648 443.969H330.629V448.1H319.914L319.829 448.194Z" fill="#DE5419"/>
<path d="M361.763 438.524C360.666 441.81 359.316 445.565 358.051 448.569C360.666 451.573 361.173 454.296 361.173 456.455C361.173 458.614 360.666 460.68 359.485 461.524C358.979 461.994 358.22 462.276 357.376 462.463C356.701 462.557 355.688 462.557 354.76 462.463C354.76 461.337 354.423 459.647 353.832 458.614C354.591 458.614 355.182 458.708 355.773 458.614C356.195 458.614 356.701 458.52 356.954 458.333C357.545 457.957 357.713 457.112 357.713 456.079C357.713 454.202 357.038 451.761 354.591 449.132C355.435 446.692 356.532 443.312 357.291 440.683H353.41V466.594H349.866V437.585C348.938 440.12 347.926 442.561 346.576 444.814H348.854V448.288H344.298C343.623 449.132 343.032 449.977 342.357 450.728H347.842V466.031H344.382V464.716H339.488V466.406H336.198V456.173C335.692 456.549 335.185 456.924 334.679 457.206C334.257 456.361 333.245 454.671 332.57 453.826C335.27 452.418 337.717 450.541 339.826 448.288H333.329V444.814H338.645V441.998H334.679V438.524H338.645V435.238H342.02V438.524H345.142V440.214C345.732 438.993 346.154 437.773 346.66 436.459L349.866 437.398V436.74H359.148C359.148 436.646 361.763 438.43 361.763 438.43V438.524ZM344.467 453.92H339.573V456.079H344.467V453.92ZM344.467 461.524V459.084H339.573V461.524H344.467ZM342.695 444.72C343.285 443.875 343.792 442.936 344.382 441.904H342.104V444.72H342.695Z" fill="#DE5419"/>
<path d="M380.41 435.895C380.241 436.083 380.072 436.365 379.988 436.553C382.772 439.275 387.75 441.622 392.644 442.655C391.885 443.406 390.872 444.814 390.366 445.753C389.775 445.565 389.1 445.377 388.51 445.189V453.92H367.416V445.377C366.741 445.659 366.151 445.847 365.56 446.034C365.223 445.283 364.21 443.687 363.619 442.936C369.188 441.528 374.588 438.712 377.372 434.769L380.579 435.989L380.41 435.895ZM387.328 444.72C385.894 444.157 384.544 443.406 383.194 442.655V443.5H372.563V442.842C371.382 443.5 370.201 444.157 368.851 444.72H387.328ZM368.935 454.953H386.822V466.406H383.11V465.561H372.479V466.5H368.935V454.953ZM372.394 451.385C372.226 450.353 371.888 448.945 371.382 447.912L373.744 447.161H370.285V451.385H372.394ZM372.563 457.581V458.896H383.194V457.581H372.563ZM383.11 462.933V461.618H372.479V462.933H383.11ZM376.275 447.161H373.913C374.419 448.287 374.926 449.789 375.094 450.728L373.154 451.385H376.275V447.161ZM380.579 440.871C379.65 440.12 378.807 439.463 378.047 438.712C377.288 439.463 376.36 440.214 375.432 440.871H380.579ZM379.144 447.161V451.385H382.013L380.157 450.822C380.579 449.789 381.085 448.287 381.338 447.161H379.144ZM385.219 447.161H382.097L384.46 447.818C383.869 449.132 383.279 450.447 382.772 451.479H385.219V447.255V447.161Z" fill="#DE5419"/>
<path d="M406.06 437.116C403.866 442.655 400.322 448.381 397.032 451.949C396.357 451.104 394.754 449.32 393.825 448.475C397.032 445.471 400.238 440.589 402.094 435.614L406.144 437.022L406.06 437.116ZM414.581 452.7C417.028 456.455 419.813 461.243 421.331 464.341L417.619 466.5C417.197 465.561 416.691 464.435 416.016 463.214C401.335 464.529 399.225 464.716 397.791 465.28C397.538 464.435 396.863 462.182 396.272 460.961C397.285 460.68 398.129 459.741 399.31 458.239C400.575 456.831 404.372 451.01 406.819 445.377L411.038 447.349C408.675 451.949 405.807 456.455 402.853 460.116L413.991 459.271C412.978 457.582 412.05 455.798 411.038 454.296L414.581 452.512V452.7ZM415.172 435.708C416.438 440.402 419.222 445.189 423.019 447.724C422.175 448.569 420.909 450.541 420.319 451.761C416.86 448.851 414.16 444.251 412.472 439.838H407.578V435.708H415.256H415.172Z" fill="#DE5419"/>
<path d="M451.622 436.177V466.5H448.078V465.28H429.094V466.5H425.719V436.177H451.622ZM448.078 461.712V439.838H429.094V461.712H448.078ZM439.894 457.206C439.809 457.957 439.894 459.084 439.894 459.647C434.747 461.055 433.819 461.431 433.312 461.712C433.228 461.149 432.806 460.022 432.469 459.647C432.891 459.365 433.481 459.084 433.481 457.769V456.549C432.637 456.924 431.878 457.206 431.119 457.488C430.781 456.924 429.937 455.798 429.347 455.235C431.287 454.765 433.397 454.108 435.084 453.169H431.625V448.287H445.631V453.169H439.134C438.29 453.92 437.194 454.671 436.097 455.235V458.145L439.894 457.206ZM446.981 447.349H430.106V445.096H436.856V443.781H431.541V441.622H436.856V440.214H440.147V441.622H445.715V443.781H440.147V445.096H446.981V447.349ZM434.662 451.479H442.509V450.071H434.662V451.479ZM447.319 455.141C446.559 455.798 445.631 456.361 444.787 456.924C445.884 457.769 446.812 458.52 447.487 459.271L445.209 460.773C443.69 459.177 440.484 456.643 437.953 454.859L440.147 453.545C440.99 454.108 442.003 454.859 443.015 455.516C443.859 454.859 444.787 454.202 445.294 453.545L447.403 455.141H447.319Z" fill="#DE5419"/>
<path d="M468.159 459.553H472.968V443.687H468.918V440.589C471.196 440.12 472.715 439.463 474.149 438.524H477.44V459.553H481.659V463.59H468.159V459.553Z" fill="#DE5419"/>
<path d="M484.949 451.01C484.949 442.373 487.987 438.148 492.543 438.148C497.099 438.148 500.137 442.373 500.137 451.01C500.137 459.647 497.099 464.059 492.543 464.059C487.987 464.059 484.949 459.553 484.949 451.01ZM495.918 451.01C495.918 443.969 494.483 441.997 492.543 441.997C490.602 441.997 489.168 444.063 489.168 451.01C489.168 457.957 490.602 460.21 492.543 460.21C494.483 460.21 495.918 458.051 495.918 451.01Z" fill="#DE5419"/>
<path d="M503.68 448.006C503.68 446.128 504.861 444.72 506.465 444.72C508.068 444.72 509.249 446.128 509.249 448.006C509.249 449.883 508.068 451.198 506.465 451.198C504.861 451.198 503.68 449.789 503.68 448.006ZM503.68 460.867C503.68 459.084 504.861 457.581 506.465 457.581C508.068 457.581 509.249 458.99 509.249 460.867C509.249 462.745 508.068 464.153 506.465 464.153C504.861 464.153 503.68 462.745 503.68 460.867Z" fill="#DE5419"/>
<path d="M512.202 460.586L514.311 457.394C515.661 458.802 517.264 459.928 519.289 459.928C521.314 459.928 523.086 458.708 523.086 456.455C523.086 454.202 521.821 452.418 516.843 452.418V448.851C520.977 448.851 522.327 447.255 522.327 445.002C522.327 442.749 521.23 441.904 519.289 441.81C517.686 441.81 516.336 442.655 515.071 444.063L512.793 441.059C514.733 439.181 516.927 437.961 519.543 437.961C523.93 437.961 526.799 440.308 526.799 444.626C526.799 448.945 525.449 449.32 523.002 450.353V450.541C525.533 451.292 527.474 453.451 527.474 456.737C527.474 460.022 523.846 463.965 519.543 463.965C515.239 463.965 513.552 462.463 512.033 460.492L512.202 460.586Z" fill="#DE5419"/>
<path d="M530.596 451.01C530.596 442.373 533.633 438.148 538.189 438.148C542.746 438.148 545.783 442.373 545.783 451.01C545.783 459.647 542.746 464.059 538.189 464.059C533.633 464.059 530.596 459.553 530.596 451.01ZM541.649 451.01C541.649 443.969 540.214 441.997 538.274 441.997C536.333 441.997 534.899 444.063 534.899 451.01C534.899 457.957 536.333 460.21 538.274 460.21C540.214 460.21 541.649 458.051 541.649 451.01Z" fill="#DE5419"/>
<path d="M548.736 452.136H557.005V455.704H548.736V452.136Z" fill="#DE5419"/>
<path d="M560.97 459.553H565.78V443.687H561.73V440.589C564.008 440.12 565.526 439.463 566.961 438.524H570.251V459.553H574.47V463.59H560.97V459.553Z" fill="#DE5419"/>
<path d="M577.17 460.68L579.28 457.488C580.545 458.896 582.148 460.022 584.258 460.022C586.367 460.022 588.223 458.333 588.223 455.422C588.223 452.512 586.704 450.916 584.426 450.916C582.148 450.916 582.317 451.292 581.051 452.23L579.026 450.728L579.617 438.618H591.683V442.749H583.498L583.076 448.1C583.92 447.63 584.764 447.349 585.776 447.349C589.573 447.349 592.695 449.883 592.695 455.328C592.695 460.773 588.983 464.153 584.848 464.153C580.714 464.153 578.942 462.557 577.255 460.773L577.17 460.68Z" fill="#DE5419"/>
<path d="M596.407 448.006C596.407 446.128 597.588 444.72 599.192 444.72C600.795 444.72 601.976 446.128 601.976 448.006C601.976 449.883 600.795 451.198 599.192 451.198C597.588 451.198 596.407 449.789 596.407 448.006ZM596.407 460.867C596.407 459.084 597.588 457.581 599.192 457.581C600.795 457.581 601.976 458.99 601.976 460.867C601.976 462.745 600.795 464.153 599.192 464.153C597.588 464.153 596.407 462.745 596.407 460.867Z" fill="#DE5419"/>
<path d="M605.52 451.01C605.52 442.373 608.557 438.148 613.113 438.148C617.67 438.148 620.707 442.373 620.707 451.01C620.707 459.647 617.67 464.059 613.113 464.059C608.557 464.059 605.52 459.553 605.52 451.01ZM616.488 451.01C616.488 443.969 615.054 441.997 613.113 441.997C611.173 441.997 609.738 444.063 609.738 451.01C609.738 457.957 611.173 460.21 613.113 460.21C615.054 460.21 616.488 458.051 616.488 451.01Z" fill="#DE5419"/>
<path d="M623.407 451.01C623.407 442.373 626.444 438.148 631.001 438.148C635.557 438.148 638.594 442.373 638.594 451.01C638.594 459.647 635.557 464.059 631.001 464.059C626.444 464.059 623.407 459.553 623.407 451.01ZM634.46 451.01C634.46 443.969 633.026 441.997 631.085 441.997C629.144 441.997 627.71 444.063 627.71 451.01C627.71 457.957 629.144 460.21 631.085 460.21C633.026 460.21 634.46 458.051 634.46 451.01Z" fill="#DE5419"/>
<path d="M219.424 467.063C227.393 467.063 233.852 459.876 233.852 451.01C233.852 442.144 227.393 434.957 219.424 434.957C211.456 434.957 204.996 442.144 204.996 451.01C204.996 459.876 211.456 467.063 219.424 467.063Z" fill="#DE5419"/>
<path d="M226.258 443.594V457.582H224.318V456.549H215.121V457.675H213.265V443.594H226.343H226.258ZM224.234 454.577V452.7C223.98 452.7 223.727 452.7 223.474 452.7H222.124C220.69 452.7 220.352 451.855 220.352 450.071V445.565H218.834C218.834 449.79 218.412 452.324 215.965 453.732C215.796 453.263 215.29 452.512 214.952 452.137V454.484H224.149L224.234 454.577ZM215.037 445.565V452.137C216.893 450.916 217.062 449.039 217.062 445.565H215.037ZM224.234 445.565H222.124V450.165C222.124 450.728 222.124 451.01 222.462 451.01H223.474C223.727 451.01 224.065 451.01 224.318 451.01V445.659L224.234 445.565Z" fill="white"/>
<g clip-path="url(#clip0_113_2282)">
<path d="M182.989 207.832L183.996 201.485C192.331 194.322 198.687 188.148 203.066 182.98C207.444 177.803 209.948 173.203 210.585 169.172C211.037 166.337 210.733 164.136 209.689 162.57C208.637 161.003 206.933 160.22 204.562 160.22C201.614 160.22 198.272 162.108 194.539 165.892L190.116 159.924C192.99 157.039 195.739 154.92 198.369 153.576C200.999 152.233 203.94 151.565 207.207 151.565C211.904 151.565 215.438 153.123 217.801 156.231C220.172 159.338 220.95 163.46 220.135 168.587C218.801 176.995 211.682 187.2 198.784 199.185C202.154 198.79 204.896 198.592 206.992 198.592H217.727L216.26 207.849H182.989V207.832Z" fill="#E95513"/>
<path d="M251.02 206.077C247.235 211.056 242.753 213.537 237.559 213.537C232.366 213.537 228.662 211.047 226.432 206.077C224.202 201.098 223.824 193.959 225.298 184.653C226.773 175.347 229.388 168.282 233.151 163.46C236.915 158.638 241.397 156.223 246.605 156.223C251.813 156.223 255.532 158.638 257.77 163.46C260 168.282 260.377 175.355 258.903 184.653C257.429 193.951 254.799 201.098 251.013 206.077H251.02ZM234.596 184.843C232.47 198.254 233.9 204.956 238.885 204.956C243.871 204.956 247.427 198.254 249.554 184.843C251.68 171.431 250.25 164.729 245.264 164.729C240.278 164.729 236.722 171.431 234.596 184.843Z" fill="#E95513"/>
<path d="M262.007 203.167L263.015 196.82C271.349 189.656 277.706 183.482 282.084 178.314C286.463 173.137 288.967 168.538 289.604 164.507C290.056 161.671 289.752 159.47 288.707 157.904C287.655 156.338 285.951 155.555 283.581 155.555C280.632 155.555 277.291 157.443 273.557 161.226L269.134 155.258C272.009 152.373 274.757 150.255 277.387 148.911C280.017 147.567 282.958 146.9 286.226 146.9C290.923 146.9 294.456 148.458 296.82 151.565C299.19 154.673 299.968 158.794 299.153 163.922C297.82 172.33 290.7 182.534 277.802 194.52C281.173 194.124 283.914 193.926 286.011 193.926H296.746L295.279 203.183H262.007V203.167Z" fill="#E95513"/>
<path d="M315.304 207.948C308.636 207.948 303.45 205.434 299.731 200.405L305.406 193.39C308.258 197.125 311.607 198.988 315.452 198.988C318.089 198.988 320.356 198.089 322.253 196.3C324.149 194.512 325.342 192.022 325.853 188.84C326.357 185.658 325.987 183.194 324.742 181.455C323.498 179.715 321.601 178.841 319.052 178.841C317.623 178.841 316.371 179.056 315.296 179.476C314.222 179.897 312.837 180.655 311.148 181.751L307.177 178.471L312.777 151.598H339.344L337.877 160.855H319.83L317.037 172.577C319.215 171.53 321.29 171.011 323.253 171.011C327.683 171.011 331.099 172.503 333.514 175.487C335.929 178.471 336.67 182.872 335.744 188.7C334.818 194.52 332.395 199.185 328.461 202.697C324.527 206.208 320.149 207.956 315.319 207.956L315.304 207.948Z" fill="#E95513"/>
<path d="M391.907 163.963C392.5 178.487 398.523 188.164 409.85 193.201L411.488 184.612C403.946 180.754 399.893 173.871 399.204 163.955H414.97L416.281 157.08H387.432L389.573 145.878H415.688L416.985 139.151H390.87L393.152 129.507H385.351L383.069 139.151H357.11L355.821 145.878H381.787L379.639 157.08H350.953L349.642 163.955H365.229C362.155 173.278 355.576 180.391 345.315 185.263L343.774 193.341C350.427 190.901 356.539 187.134 362.051 181.867C366.533 177.721 370.074 171.794 372.623 163.955H378.327L367.081 215.935H374.875L386.129 163.955H391.922L391.907 163.963Z" fill="#E95513" stroke="white" stroke-width="8.26" stroke-linecap="round" stroke-linejoin="round"/>
<path d="M471.415 208.978L472.963 200.389C463.865 196.886 456.798 191.816 451.767 185.271C457.546 183.243 461.969 180.441 464.991 176.929C466.888 180.507 469.8 183.416 473.644 185.502L475.082 177.556C471.8 175.833 469.762 173.03 468.992 169.288C469.073 168.81 469.251 168.348 469.333 167.87L470.348 162.182H463.258L462.176 168.183C461.272 172.7 457.887 176.055 452.079 178.256L451.004 184.257C449.715 182.534 448.53 180.663 447.559 178.561L450.975 159.594H480.001L481.357 152.043H452.345L455.264 136.019H447.196L444.3 152.043H416.792L415.429 159.594H442.944L439.951 176.146C438.44 179.179 436.336 182.056 433.787 184.711L435.076 177.547C431.72 175.825 429.72 173.162 428.964 169.444C429.053 168.966 429.223 168.414 429.327 167.862L430.357 162.174H423.252L422.178 168.175C421.282 172.692 417.896 176.047 412.08 178.248L410.739 185.65C417.044 183.474 421.771 180.589 424.993 176.921C426.749 180.432 429.52 183.235 433.291 185.263C427.268 191.264 418.281 196.407 406.435 200.694L404.976 208.805C418.785 204.28 429.609 198.114 437.365 190.481L430.238 229.85H438.291L445.255 189.549C451.197 198.196 460.161 204.675 471.415 208.962" fill="#E95513"/>
<path d="M471.415 208.978L472.963 200.389C463.865 196.886 456.798 191.816 451.767 185.271C457.546 183.243 461.969 180.441 464.991 176.929C466.888 180.507 469.8 183.416 473.644 185.502L475.082 177.556C471.8 175.833 469.762 173.03 468.992 169.288C469.073 168.81 469.251 168.348 469.333 167.87L470.348 162.182H463.258L462.176 168.183C461.272 172.7 457.887 176.055 452.079 178.256L451.004 184.257C449.715 182.534 448.53 180.663 447.559 178.561L450.975 159.594H480.001L481.357 152.043H452.345L455.264 136.019H447.196L444.3 152.043H416.792L415.429 159.594H442.944L439.951 176.146C438.44 179.179 436.336 182.056 433.787 184.711L435.076 177.547C431.72 175.825 429.72 173.162 428.964 169.444C429.053 168.966 429.223 168.414 429.327 167.862L430.357 162.174H423.252L422.178 168.175C421.282 172.692 417.896 176.047 412.08 178.248L410.739 185.65C417.044 183.474 421.771 180.589 424.993 176.921C426.749 180.432 429.52 183.235 433.291 185.263C427.268 191.264 418.281 196.407 406.435 200.694L404.976 208.805C418.785 204.28 429.609 198.114 437.365 190.481L430.238 229.85H438.291L445.255 189.549C451.197 198.196 460.161 204.675 471.415 208.962" stroke="white" stroke-width="8.26" stroke-linecap="round" stroke-linejoin="round"/>
<path d="M576.785 168.299L578.007 162.43C584.253 159.05 590.891 154.59 596.773 149.982L599.047 139.481L554.071 139.357L552.182 148.466H585.631C580.978 151.788 575.34 155.258 570.562 157.574L568.332 168.299H541.299L539.387 177.481H566.413L562.59 195.847C562.316 197.158 561.761 197.545 560.242 197.619C558.997 197.685 551.537 197.693 547.418 197.504L545.373 207.288C551.73 207.288 563.205 207.247 563.391 207.247C567.324 207.247 569.88 203.422 570.866 198.641L574.874 177.481H601.359L603.27 168.299H576.785Z" fill="#E95513" stroke="white" stroke-width="8.26" stroke-linecap="round" stroke-linejoin="round"/>
<path d="M514.606 144.147H505.456C505.234 142.605 504.879 140.924 504.516 139.349H496.233L495.922 139.44C496.181 140.825 496.44 142.531 496.648 144.147H486.002L484.446 151.631H513.043L514.598 144.147H514.606Z" fill="#E95513" stroke="white" stroke-width="8.26" stroke-linecap="round" stroke-linejoin="round"/>
<path d="M481.609 185.922C481.068 187.571 476.497 192.377 474.282 192.748C474.282 192.748 472.533 202.071 472.593 202.071C477.127 200.076 485.091 192.871 487.884 186.095L481.609 185.922Z" fill="#E95513" stroke="white" stroke-width="8.26" stroke-linecap="round" stroke-linejoin="round"/>
<path d="M505.983 195.229C505.471 192.451 504.523 189.055 503.642 185.84L497.552 185.988C498.27 188.28 498.915 192.327 499.389 195.229H505.983Z" fill="#E95513" stroke="white" stroke-width="8.26" stroke-linecap="round" stroke-linejoin="round"/>
<path d="M517.703 176.237L518.695 171.456H531.527L530.534 176.237H517.703ZM521.185 159.495H534.016L533.023 164.284H520.192L521.185 159.495ZM523.659 147.609H536.49L535.498 152.39H522.666L523.659 147.609ZM532.134 192.962C530.986 197.751 530.904 199.466 529.66 199.466H527.889C527.141 199.466 527.052 199.235 527.467 197.224L530.178 184.183H536.527L545.803 139.58H518.088L508.812 184.183H512.294C510.25 191.462 507.471 197.57 499.826 200.372L498.085 208.78C510.45 206.695 516.458 195.666 519.732 184.183H522.807L520.081 197.306C518.54 204.717 519.236 207.264 524.97 207.264H528.926C535.179 207.264 535.905 203.521 538.743 192.962H532.134Z" fill="#E95513" stroke="white" stroke-width="8.26" stroke-linecap="round" stroke-linejoin="round"/>
<path d="M503.812 151.796L503.797 151.788V151.796H503.812Z" fill="#E95513" stroke="white" stroke-width="8.26" stroke-linecap="round" stroke-linejoin="round"/>
<path d="M510.716 153.511H503.175C502.115 156.297 500.685 159.528 499.463 162.133H481.031L479.431 169.848H492.469L491.366 175.174H479.008L477.416 182.815H489.773L484.424 208.517H491.795L497.144 182.815H506.909L508.494 175.174H498.73L499.841 169.848H510.694L512.302 162.133H506.294C507.642 159.536 509.139 156.561 510.724 153.511" fill="#E95513"/>
<path d="M510.716 153.511H503.175C502.115 156.297 500.685 159.528 499.463 162.133H481.031L479.431 169.848H492.469L491.366 175.174H479.008L477.416 182.815H489.773L484.424 208.517H491.795L497.144 182.815H506.909L508.494 175.174H498.73L499.841 169.848H510.694L512.302 162.133H506.294C507.642 159.536 509.139 156.561 510.724 153.511" stroke="white" stroke-width="8.26" stroke-linecap="round" stroke-linejoin="round"/>
<path d="M494.522 161.548C494.611 159.792 494.574 155.942 494.336 153.684H487.639L487.484 153.717C487.706 155.654 487.773 159.462 487.713 161.548H494.514H494.522Z" fill="#E95513" stroke="white" stroke-width="8.26" stroke-linecap="round" stroke-linejoin="round"/>
<path d="M391.907 163.963C392.5 178.487 398.523 188.164 409.85 193.201L411.488 184.612C403.946 180.754 399.893 173.871 399.204 163.955H414.97L416.281 157.08H387.432L389.573 145.878H415.688L416.985 139.151H390.87L393.152 129.507H385.351L383.069 139.151H357.11L355.821 145.878H381.787L379.639 157.08H350.953L349.642 163.955H365.229C362.155 173.278 355.576 180.391 345.315 185.263L343.774 193.341C350.427 190.901 356.539 187.134 362.051 181.867C366.533 177.721 370.074 171.794 372.623 163.955H378.327L367.081 215.935H374.875L386.129 163.955H391.922L391.907 163.963Z" fill="#E95513"/>
<path d="M471.415 208.978L472.963 200.389C463.865 196.886 456.798 191.816 451.767 185.271C457.546 183.243 461.969 180.441 464.991 176.929C466.888 180.507 469.8 183.416 473.644 185.502L475.082 177.556C471.8 175.833 469.762 173.03 468.992 169.288C469.073 168.81 469.251 168.348 469.333 167.87L470.348 162.182H463.258L462.176 168.183C461.272 172.7 457.887 176.055 452.079 178.256L451.004 184.257C449.715 182.534 448.53 180.663 447.559 178.561L450.975 159.594H480.001L481.357 152.043H452.345L455.264 136.019H447.196L444.3 152.043H416.792L415.429 159.594H442.944L439.951 176.146C438.44 179.179 436.336 182.056 433.787 184.711L435.076 177.547C431.72 175.825 429.72 173.162 428.964 169.444C429.053 168.966 429.223 168.414 429.327 167.862L430.357 162.174H423.252L422.178 168.175C421.282 172.692 417.896 176.047 412.08 178.248L410.739 185.65C417.044 183.474 421.771 180.589 424.993 176.921C426.749 180.432 429.52 183.235 433.291 185.263C427.268 191.264 418.281 196.407 406.435 200.694L404.976 208.805C418.785 204.28 429.609 198.114 437.365 190.481L430.238 229.85H438.291L445.255 189.549C451.197 198.196 460.161 204.675 471.415 208.962" fill="#E95513"/>
<path d="M576.785 168.299L578.007 162.43C584.253 159.05 590.891 154.59 596.773 149.982L599.047 139.481L554.071 139.357L552.182 148.466H585.631C580.978 151.788 575.34 155.258 570.562 157.574L568.332 168.299H541.299L539.387 177.481H566.413L562.59 195.847C562.316 197.158 561.761 197.545 560.242 197.619C558.997 197.685 551.537 197.693 547.418 197.504L545.373 207.288C551.73 207.288 563.205 207.247 563.391 207.247C567.324 207.247 569.88 203.422 570.866 198.641L574.874 177.481H601.359L603.27 168.299H576.785Z" fill="#E95513"/>
<path d="M514.606 144.147H505.456C505.234 142.605 504.879 140.924 504.516 139.349H496.233L495.922 139.44C496.181 140.825 496.44 142.531 496.648 144.147H486.002L484.446 151.631H513.043L514.598 144.147H514.606Z" fill="#E95513"/>
<path d="M481.609 185.922C481.068 187.571 476.497 192.377 474.282 192.748C474.282 192.748 472.533 202.071 472.593 202.071C477.127 200.076 485.091 192.871 487.884 186.095L481.609 185.922Z" fill="#E95513"/>
<path d="M505.983 195.229C505.471 192.451 504.523 189.055 503.642 185.84L497.552 185.988C498.27 188.28 498.915 192.327 499.389 195.229H505.983Z" fill="#E95513"/>
<path d="M517.703 176.237L518.695 171.456H531.527L530.534 176.237H517.703ZM521.185 159.495H534.016L533.023 164.284H520.192L521.185 159.495ZM523.659 147.609H536.49L535.498 152.39H522.666L523.659 147.609ZM532.134 192.962C530.986 197.751 530.904 199.466 529.66 199.466H527.889C527.141 199.466 527.052 199.235 527.467 197.224L530.178 184.183H536.527L545.803 139.58H518.088L508.812 184.183H512.294C510.25 191.462 507.471 197.57 499.826 200.372L498.085 208.78C510.45 206.695 516.458 195.666 519.732 184.183H522.807L520.081 197.306C518.54 204.717 519.236 207.264 524.97 207.264H528.926C535.179 207.264 535.905 203.521 538.743 192.962H532.134Z" fill="#E95513"/>
<path d="M503.812 151.796L503.797 151.788V151.796H503.812Z" fill="#E95513"/>
<path d="M510.716 153.511H503.175C502.115 156.297 500.685 159.528 499.463 162.133H481.031L479.431 169.848H492.469L491.366 175.174H479.008L477.416 182.815H489.773L484.424 208.517H491.795L497.144 182.815H506.909L508.494 175.174H498.73L499.841 169.848H510.694L512.302 162.133H506.294C507.642 159.536 509.139 156.561 510.724 153.511" fill="#E95513"/>
<path d="M494.522 161.548C494.611 159.792 494.574 155.942 494.336 153.684H487.639L487.484 153.717C487.706 155.654 487.773 159.462 487.713 161.548H494.514H494.522Z" fill="#E95513"/>
</g>
<path d="M190.746 323.671C188.682 323.768 186.768 323.866 184.997 323.963C183.225 324.158 180.869 324.286 177.927 324.331C174.977 324.384 172.125 324.504 169.379 324.699C166.527 324.699 164.2 324.721 162.376 324.774C160.56 324.826 159.554 324.849 159.359 324.849C159.359 325.044 159.262 327.063 159.066 330.891C158.871 334.718 158.526 340.617 158.038 348.573V354.021C158.038 356.183 158.016 358.517 157.963 361.024C157.911 363.53 157.888 366.18 157.888 368.979V377.16L158.038 395.87H166.286L174.685 396.163L175.127 389.536C175.127 387.569 175.15 385.61 175.202 383.644C175.255 381.678 175.278 380.109 175.278 378.931V375.103L183.09 374.953C185.252 374.758 187.804 374.638 190.753 374.585C193.703 374.533 196.45 374.51 199.001 374.51L207.107 374.218V383.794H205.336C204.06 383.599 203.294 383.847 203.054 384.53C202.806 385.22 202.784 387.089 202.979 390.129C202.979 391.795 203.001 393.168 203.054 394.256C203.107 395.337 203.227 395.975 203.422 396.17L224.196 400.275V323.528H196.052C194.581 323.528 192.81 323.581 190.746 323.678V323.671ZM176.448 362.72L176.598 359.185C176.794 358.592 176.891 358.082 176.891 357.639C176.891 357.196 176.944 356.828 177.041 356.536V355.65C177.529 355.552 178.069 355.5 178.662 355.5H180.576C181.657 355.402 182.955 355.327 184.479 355.282C186.002 355.23 187.646 355.207 189.417 355.207C192.855 355.207 195.752 355.155 198.108 355.057C200.465 354.96 201.696 354.862 201.793 354.764H206.949V358.742L207.099 362.72H176.448ZM203.707 337.375C204.983 337.375 205.816 337.397 206.214 337.45C206.604 337.503 206.754 337.525 206.656 337.525C207.144 337.72 207.144 338.801 206.656 340.767V343.859H191.924C187.796 344.055 184.284 344.107 181.387 344.01C178.49 343.912 176.989 343.859 176.891 343.859C176.696 343.762 176.598 343.417 176.598 342.831V340.617L177.041 337.525H189.417C193.05 337.428 196.022 337.375 198.333 337.375H203.714H203.707Z" fill="#053793"/>
<path d="M145.505 342.974C143.343 340.91 141.602 339.214 140.274 337.893C138.945 336.564 137.842 335.244 136.956 333.915C136.071 332.587 135.283 331.093 134.6 329.42C133.909 327.746 133.129 325.592 132.243 322.935C131.162 319.791 130.72 317.922 130.915 317.336C131.8 317.336 132.386 317.284 132.686 317.186H137.106L143.298 316.894V304.81L140.649 304.518C139.763 304.518 138.833 304.465 137.849 304.367C136.866 304.27 135.906 304.15 134.975 304C134.037 303.85 133.204 303.73 132.468 303.632C131.733 303.534 131.215 303.482 130.922 303.482C130.63 303.189 130.427 302.671 130.329 301.936C130.232 301.2 130.202 300.39 130.254 299.504C130.307 298.619 130.427 297.786 130.622 296.998C130.817 296.209 131.065 295.624 131.358 295.226C131.553 295.226 132.041 295.249 132.829 295.301C133.617 295.354 134.495 295.451 135.478 295.594C136.461 295.744 137.414 295.917 138.352 296.112C139.283 296.307 140.048 296.555 140.634 296.847C140.927 296.945 141.272 296.9 141.662 296.697C142.052 296.502 142.473 295.984 142.915 295.151C143.358 294.318 143.899 293.087 144.537 291.466C144.732 290.963 144.942 290.408 145.167 289.808L154.046 272.351L135.493 266.527L130.862 286.941C130.742 286.205 130.757 284.847 130.915 282.85C131.11 280.201 131.305 277.619 131.508 275.113C131.703 272.606 131.853 270.324 131.95 268.26C132.048 266.196 132.123 264.433 132.168 262.954C132.221 261.483 132.243 260.447 132.243 259.862V257.648H123.995L116.04 257.498L115.889 258.826C115.694 259.419 115.567 261.918 115.522 266.339C115.469 270.76 115.349 276.208 115.154 282.693C115.154 285.837 115.131 288.757 115.079 291.459C115.026 294.161 114.951 296.517 114.861 298.528C114.764 300.54 114.689 302.138 114.644 303.317C114.591 304.495 114.569 305.133 114.569 305.231H111.919C111.131 305.328 110.201 305.381 109.12 305.381C108.039 305.381 106.808 305.478 105.435 305.673C102.786 305.673 100.594 305.696 98.8754 305.748C97.1567 305.801 96.2486 305.824 96.151 305.824C96.0535 306.116 96.0009 306.687 96.0009 307.52C96.0009 308.353 96.0234 309.313 96.076 310.394C96.1285 311.475 96.1735 312.608 96.2261 313.786C96.2786 314.965 96.3011 316 96.3011 316.879L96.5938 319.385H100.572C101.75 319.385 103.153 319.333 104.774 319.235C106.396 319.138 107.889 319.085 109.27 319.085L113.69 318.642C113.69 318.642 96.7289 361.572 80 364.619L100.534 376.026C100.534 376.026 108.167 367.778 114.148 357.023C114.726 356.498 114.921 356.768 114.726 357.841C114.726 358.232 114.704 360.273 114.651 363.958C114.599 367.643 114.576 372.184 114.576 377.587L114.283 396.155H127.177C128.303 396.155 129.166 396.103 129.759 396.005C130.352 395.907 130.72 395.81 130.862 395.712C131.012 395.615 131.08 395.465 131.08 395.27C131.373 394.384 131.643 391.585 131.89 386.871C132.131 382.158 132.311 375.036 132.408 365.504C132.603 361.969 132.723 359.02 132.776 356.663C132.829 354.307 132.949 352.978 133.144 352.685C133.436 352.588 134.172 352.836 135.358 353.421C136.536 354.014 137.91 354.944 139.486 356.22C141.152 357.601 142.187 358.284 142.578 358.284C142.773 358.284 143.021 358.089 143.313 357.691C143.606 357.301 143.951 356.903 144.341 356.513C144.732 355.92 145.174 355.14 145.67 354.156C146.158 353.173 146.653 352.22 147.141 351.282C147.629 350.351 148.049 349.466 148.394 348.633C148.739 347.8 148.957 347.229 149.055 346.937C149.055 346.644 148.709 346.126 148.026 345.391C147.336 344.655 146.503 343.844 145.52 342.959L145.505 342.974Z" fill="#053793"/>
<path d="M525.226 371.118C525.129 370.825 524.491 370.383 523.312 369.79C522.134 369.197 520.708 368.461 519.042 367.576C515.897 365.902 512.73 363.966 509.541 361.752C506.351 359.538 503.476 357.406 500.917 355.342L499.026 353.661L515.822 347.132L505.848 328.879L485.877 339.889C485.577 339.431 485.194 338.869 484.706 338.171C483.918 337.045 482.89 335.499 481.614 333.532C480.338 331.566 479.355 330.02 478.664 328.894C477.974 327.769 477.531 327.003 477.336 326.613C477.824 326.613 478.169 326.56 478.364 326.463H480.571C486.17 326.463 493.442 326.313 502.381 326.02C506.899 325.825 510.509 325.727 513.211 325.727H518.884L521.684 325.577V318.95L521.534 312.323L497.367 312.03C490.59 312.03 484.894 312.008 480.278 311.955C475.662 311.903 473.208 311.88 472.908 311.88C472.608 311.88 472.465 310.409 472.465 307.46V303.189H489.554C491.521 303.189 492.647 303.137 492.947 303.039C493.435 303.039 494.47 303.017 496.039 302.964C497.607 302.912 499.259 302.867 500.977 302.814C502.696 302.762 504.242 302.694 505.615 302.596C506.989 302.499 507.724 302.401 507.822 302.304C507.919 302.206 507.972 301.643 507.972 300.607V296.405L507.822 291.099L502.666 290.806C501.195 290.708 499.544 290.656 497.727 290.656H492.939C491.468 290.656 489.547 290.581 487.19 290.438C484.834 290.288 482.477 290.123 480.12 289.92C478.057 289.92 476.413 289.868 475.182 289.77C473.951 289.673 473.066 289.425 472.533 289.035C471.992 288.644 471.67 288.074 471.572 287.338C471.475 286.603 471.475 285.642 471.572 284.464V281.072L481.742 281.364H492.129C496.106 281.364 499.619 281.267 502.666 281.072L513.713 280.922V266.482L471.572 267.217L475.167 254.954L447.503 251.306V268.516C446.97 268.501 446.302 268.486 445.492 268.471C443.428 268.418 440.478 268.35 436.651 268.253C432.823 268.155 428.793 268.08 424.568 268.035C420.342 267.983 415.877 267.863 411.156 267.668L403.643 267.375L403.351 270.024C403.351 271.698 403.403 273.214 403.501 274.595C403.598 275.976 403.696 277.987 403.793 280.636L404.086 284.907L407.328 284.614C408.507 284.614 410.886 284.539 414.473 284.396C418.061 284.246 422.211 284.179 426.924 284.179C431.442 284.081 435.518 283.961 439.158 283.811C442.79 283.661 445.102 283.593 446.085 283.593L449.477 283.301L449.184 287.721V292.142H431.502C426.489 292.044 422.046 291.992 418.166 291.992C414.286 291.992 411.854 291.894 410.871 291.699L408.221 291.549L408.514 297.883C408.514 299.654 408.537 301.125 408.589 302.304C408.642 303.482 408.762 304.172 408.957 304.368C409.054 304.368 410.968 304.315 414.706 304.218C418.436 304.12 423.254 304.067 429.146 304.067C434.744 303.97 439.458 303.872 443.293 303.775C447.12 303.677 449.087 303.722 449.184 303.925V308.788L448.742 313.359H435.33C431.202 313.261 426.857 313.164 422.286 313.066C417.715 312.968 413.76 312.871 410.428 312.773C407.381 312.773 404.777 312.721 402.615 312.623C400.454 312.526 399.32 312.473 399.223 312.473V315.273C399.223 316.653 399.275 318.567 399.373 321.021C399.373 325.832 399.523 328.684 399.816 329.57C400.108 329.57 401.219 329.495 403.133 329.352C405.047 329.202 407.726 329.037 411.163 328.834C414.601 328.639 418.016 328.414 421.408 328.174C424.8 327.934 428.163 327.708 431.502 327.513C432.973 327.416 434.279 327.318 435.405 327.221C436.531 327.123 437.244 327.168 437.544 327.371C437.837 327.468 437.544 328.009 436.658 328.992C435.773 329.975 434.497 331.056 432.831 332.234C432.14 332.827 431.285 333.51 430.249 334.298C429.221 335.086 428.305 335.867 427.525 336.655C425.168 338.621 422.931 340.287 420.822 341.668C418.706 343.049 415.787 344.618 412.057 346.381C410.285 347.072 408.664 347.635 407.193 348.077C405.722 348.52 404.004 348.986 402.037 349.481C400.168 349.774 398.87 350.074 398.135 350.366C397.399 350.659 397.031 350.862 397.031 350.959C397.031 351.252 397.181 351.965 397.474 353.098C397.767 354.232 398.067 355.53 398.36 357.001C398.652 358.57 398.975 360.071 399.32 361.497C399.666 362.923 399.838 363.981 399.838 364.664L400.281 366.87H401.902C402.788 366.87 403.913 366.75 405.294 366.502C406.668 366.262 408.116 365.94 409.64 365.542C411.163 365.152 412.709 364.634 414.278 363.996C415.847 363.358 417.273 362.697 418.548 362.007C419.141 361.684 419.644 361.451 420.072 361.279V402.069L469.388 384.41L468.915 382.428C468.728 381.528 468.54 380.552 468.352 379.471C468.157 378.346 467.91 377.137 467.617 375.861C467.324 374.585 467.024 373.452 466.731 372.469C466.138 370.405 465.771 369.107 465.628 368.566C465.478 368.026 465.163 367.906 464.667 368.199C463.857 368.536 463.054 368.852 462.251 369.167L442.1 372.762C442.085 372.326 442.062 371.839 442.054 371.291C442.002 368.837 441.979 365.842 441.979 362.3L441.687 349.631L445.664 346.832C446.55 346.239 447.653 345.338 448.982 344.107C450.31 342.876 451.631 341.6 452.959 340.28C454.288 338.951 455.541 337.675 456.719 336.452C457.898 335.221 458.731 334.313 459.226 333.728L459.819 332.699L461.148 335.942C461.635 337.022 462.131 338.081 462.619 339.109C463.106 340.137 463.504 340.948 463.797 341.54C464.09 341.833 464.315 342.133 464.457 342.426C464.607 342.719 464.772 342.966 464.975 343.162C465.17 343.357 465.268 343.507 465.268 343.604C465.268 343.702 465.32 343.8 465.418 343.897C465.516 344.49 465.958 345.466 466.746 346.847C467.534 348.227 468.442 349.698 469.471 351.267C470.499 352.836 471.512 354.284 472.488 355.613C473.471 356.941 474.206 357.894 474.694 358.487C475.58 359.568 476.661 360.769 477.936 362.097C479.212 363.425 480.518 364.776 481.839 366.15C483.168 367.531 484.511 368.897 485.892 370.278C487.265 371.659 488.541 372.927 489.72 374.105C490.508 374.698 491.243 375.208 491.934 375.651C492.616 376.094 493.382 376.589 494.215 377.122C495.048 377.663 496.031 378.256 497.165 378.893C498.29 379.531 499.641 380.297 501.217 381.175C505.345 383.044 509 384.59 512.197 385.813C515.387 387.044 517.331 387.562 518.021 387.359C518.021 387.164 518.239 386.699 518.682 385.956C519.125 385.22 519.537 384.357 519.935 383.374C520.423 382.196 521.038 380.897 521.774 379.471C522.509 378.045 523.177 376.747 523.763 375.569C525.136 372.717 525.624 371.246 525.234 371.148L525.226 371.118Z" fill="#053793"/>
<path d="M589.47 287.128L589.763 291.549H594.183C595.459 291.549 596.66 291.526 597.793 291.474C598.919 291.421 599.782 291.399 600.375 291.399L601.846 290.956V286.978C602.041 285.8 602.139 284.719 602.139 283.736C602.139 282.753 602.191 282.212 602.289 282.115C602.289 282.017 602.529 281.942 603.024 281.897C603.512 281.845 604.428 281.822 605.749 281.822H619.971C624.984 281.822 629.623 281.897 633.893 282.04C638.163 282.19 641.135 282.363 642.809 282.558C644.28 282.558 646.224 282.58 648.633 282.633C651.042 282.685 653.271 282.805 655.335 283.001H662.848L663.291 289.192L667.561 288.9C668.544 288.802 669.7 288.749 671.021 288.749H676.987L677.28 281.68V275.856C677.28 273.942 677.182 272.493 676.987 271.51C676.89 270.039 676.77 269.101 676.62 268.711C676.47 268.32 676.154 268.073 675.659 267.975C675.269 267.975 673.4 267.9 670.06 267.758C666.72 267.607 662.69 267.54 657.977 267.54C653.264 267.345 649.256 267.225 645.969 267.172C644.243 267.15 642.914 267.127 641.961 267.112V251.329L615.235 254.976L622.478 267.3L622.62 268.568L611.423 268.418C607.985 268.418 604.691 268.343 601.553 268.2C598.409 268.05 596 267.983 594.333 267.983L588.885 267.69L589.035 275.203C589.23 277.267 589.35 279.451 589.403 281.762C589.455 284.074 589.478 285.867 589.478 287.143L589.47 287.128Z" fill="#053793"/>
<path d="M654.742 368.912C659.455 368.912 663.456 368.889 666.75 368.837C670.045 368.784 671.929 368.762 672.424 368.762L673.452 368.319L673.895 364.491C674.09 361.639 674.241 358.945 674.338 356.386C674.436 353.834 674.533 351.252 674.631 348.648C674.728 346.043 674.803 343.297 674.848 340.4C674.901 337.503 674.968 334.283 675.066 330.748V314.094H674.999L675.066 311.062L644.775 312.443C644.633 311.948 644.565 311.032 644.565 309.674C644.565 308.788 644.588 307.902 644.64 307.024C644.693 306.139 644.715 305.501 644.715 305.111L645.158 303.782L655.62 303.489C658.57 303.489 661.069 303.414 663.133 303.272C665.197 303.129 666.278 303.054 666.375 303.054C666.375 302.957 666.45 302.416 666.593 301.433C666.743 300.45 666.81 299.324 666.81 298.041V294.138C666.81 293.5 666.66 293.087 666.368 292.885H656.348C651.042 292.885 643.77 292.832 634.538 292.735H600.945L599.174 292.885V304.375L607.865 304.225C610.319 304.03 612.804 303.91 615.303 303.857C617.809 303.805 619.648 303.782 620.827 303.782H625.247V304.81C625.247 305.103 625.225 305.771 625.172 306.799C625.119 307.827 625.097 308.938 625.097 310.117L624.894 313.351L600.698 314.454C600.405 314.454 600.112 314.454 599.827 314.462C596.735 314.514 594.889 314.537 594.303 314.537L592.39 314.83L592.832 369.347L615.52 369.197C618.86 369.197 622.35 369.174 625.983 369.122C629.615 369.069 633.15 369.047 636.595 369.047C640.04 369.047 643.319 369.024 646.464 368.972C649.609 368.919 652.356 368.897 654.712 368.897L654.742 368.912ZM658.72 327.213C658.72 327.806 658.667 328.542 658.57 329.427C658.472 330.313 658.42 331.198 658.42 332.076V334.726L653.849 334.433C652.468 334.433 651.17 334.411 649.946 334.358C648.716 334.305 647.807 334.283 647.222 334.283H645.008V325.442H659.155L658.712 327.213H658.72ZM624.684 356.536H611.573V353.736C611.573 352.948 611.55 352.093 611.498 351.154C611.445 350.224 611.423 349.361 611.423 348.573L611.13 346.216L616.286 345.923H624.684V356.536ZM625.127 336.197L620.857 336.047C619.581 336.047 618.297 335.972 617.029 335.829C615.753 335.679 614.77 335.611 614.079 335.611L611.573 335.319V330.898C611.573 329.622 611.625 328.542 611.723 327.656C611.82 326.77 611.873 326.23 611.873 326.035C611.97 326.035 612.661 326.012 613.937 325.96C615.213 325.907 616.789 325.885 618.65 325.885L624.842 326.035L625.134 331.191V336.204L625.127 336.197ZM645.023 345.338H658.435V355.507L655.785 355.065C655.095 355.065 654.112 355.012 652.836 354.915C651.56 354.817 650.329 354.719 649.151 354.622L645.023 354.329V345.338Z" fill="#053793"/>
<path d="M679.869 383.277C679.622 382.736 678.466 382.121 676.409 381.438C675.524 381.145 674.293 380.627 672.724 379.892C671.156 379.156 669.58 378.398 668.011 377.61C666.338 376.822 664.641 376.087 662.93 375.396C661.212 374.713 659.635 374.098 658.217 373.557C656.791 373.017 655.568 372.574 654.532 372.229C653.504 371.884 652.836 371.666 652.543 371.569C651.853 371.569 651.41 371.959 651.215 372.747C651.117 372.942 650.824 373.557 650.329 374.586C649.834 375.614 649.323 376.725 648.783 377.903C648.243 379.081 647.755 380.162 647.312 381.145C646.869 382.128 646.599 382.714 646.501 382.916C646.501 382.991 646.577 383.104 646.689 383.224L645.031 387.067L670.578 395.165V394.234C672.507 394.534 674.361 394.699 676.124 394.699C676.717 394.797 677.227 394.377 677.67 393.446C678.113 392.508 678.721 390.429 679.509 387.187C679.997 385.123 680.124 383.824 679.877 383.284L679.869 383.277Z" fill="#053793"/>
<path d="M582.836 346.216C582.543 346.021 581.875 345.773 580.847 345.481C579.819 345.188 578.655 344.843 577.387 344.452C576.006 343.965 574.565 343.469 573.042 342.981C571.518 342.493 570.317 341.998 569.432 341.51C569.041 341.315 568.643 341.165 568.253 341.068C567.863 340.97 567.465 340.827 567.075 340.625C566.685 340.43 566.339 340.279 566.047 340.182C565.852 340.182 565.656 340.43 565.454 340.917C564.471 344.452 563.66 347.304 563.022 349.466C562.384 351.627 561.791 353.616 561.251 355.432C560.711 357.249 560.44 358.209 560.44 358.307C559.555 361.256 558.669 364.423 557.791 367.808C556.913 371.193 556.17 374.023 555.577 376.282C554.984 378.541 554.474 380.432 554.031 381.955C553.588 383.479 553.318 384.387 553.22 384.68C552.83 384.972 553.025 385.415 553.813 386.008C554.301 386.203 554.939 386.526 555.727 386.969C556.515 387.412 557.348 387.779 558.234 388.072C559.12 388.365 560.125 388.808 561.251 389.401C562.377 389.993 563.39 390.481 564.268 390.872C565.641 391.464 566.625 391.877 567.218 392.125C567.81 392.365 568.246 392.395 568.546 392.2C569.229 391.907 570.017 390.872 570.903 389.108C571.788 387.344 572.966 384.395 574.437 380.267C575.03 378.203 575.593 376.439 576.134 374.961C576.674 373.49 576.997 372.657 577.094 372.454C577.289 371.771 577.612 370.788 578.055 369.504C578.498 368.229 578.865 366.953 579.158 365.677C579.451 364.889 579.676 364.206 579.819 363.613C579.969 363.02 580.089 362.682 580.186 362.585C580.479 362.097 580.847 360.791 581.29 358.682C581.732 356.573 582.198 354.389 582.686 352.123C582.783 351.139 582.903 350.306 583.053 349.616C583.203 348.933 583.369 348.535 583.571 348.438C584.059 347.552 583.811 346.816 582.836 346.231V346.216Z" fill="#053793"/>
<path d="M617.134 374.848C616.413 374.188 615.708 373.58 615.033 373.04C613.802 372.056 612.894 371.569 612.308 371.569C611.52 371.569 610.537 372.161 609.359 373.34C607.1 375.599 604.368 377.588 601.178 379.306C597.988 381.025 595.061 382.323 592.412 383.209C591.527 383.502 590.814 383.749 590.273 383.945C589.733 384.14 589.41 384.237 589.313 384.237C589.117 384.83 589.905 386.646 591.669 389.686C592.555 391.255 593.313 392.583 593.951 393.664C594.589 394.744 595.151 395.525 595.647 396.02C596.135 396.508 596.975 396.756 598.154 396.756C599.625 396.756 601.396 396.26 603.46 395.285C605.524 394.302 607.587 393.101 609.651 391.675C609.989 391.442 610.319 391.209 610.642 390.969L628.594 382.646L617.126 374.841L617.134 374.848Z" fill="#053793"/>
<path d="M570.752 322.793C571.54 323.085 572.178 322.943 572.666 322.35C572.764 322.155 573.011 321.614 573.402 320.729C573.792 319.843 574.19 318.89 574.58 317.854C574.97 316.826 575.338 315.843 575.683 314.905C576.028 313.974 576.201 313.411 576.201 313.209L577.087 311.437L576.058 310.109C574.88 309.126 573.432 308 571.713 306.717C569.994 305.441 568.223 304.187 566.407 302.957C564.591 301.726 562.774 300.547 560.958 299.422C559.142 298.296 557.498 297.38 556.02 296.697C554.842 295.909 554.106 295.444 553.813 295.294C553.521 295.144 553.318 295.316 553.22 295.812C552.628 297.68 551.967 299.474 551.232 301.193C550.496 302.912 549.828 304.413 549.243 305.688C548.852 306.476 548.53 307.189 548.282 307.827C548.034 308.465 547.914 308.886 547.914 309.081C547.914 309.141 548.012 309.238 548.199 309.366L545.505 316.121L570.76 322.785L570.752 322.793Z" fill="#053793"/>
<path d="M575.766 289.192L577.98 285.365C579.548 282.715 580.832 280.261 581.807 277.995C582.791 275.736 583.278 274.212 583.278 273.424C583.474 273.034 583.226 272.538 582.543 271.953C581.852 271.36 579.984 270.039 576.944 267.975C575.563 266.992 574.295 266.084 573.116 265.251C571.938 264.418 571.203 263.847 570.902 263.555C570.407 263.067 569.747 262.474 568.914 261.784C568.081 261.101 567.217 260.41 566.332 259.72C565.446 259.037 564.636 258.466 563.9 258.023C563.165 257.581 562.699 257.363 562.497 257.363C562.497 257.461 562.227 257.956 561.686 258.834C561.146 259.72 560.53 260.845 559.847 262.226C559.585 262.752 559.322 263.255 559.067 263.735L550.113 274.31L575.766 289.192Z" fill="#053793"/>
<path d="M381.894 274.677L361.39 258.932L330.551 288.254L339.385 300.555L381.894 274.677Z" fill="#053793"/>
<path d="M381.894 321.067L361.39 305.321L330.551 334.643L339.385 346.944L381.894 321.067Z" fill="#053793"/>
<path d="M323.706 382.758L331.699 393.536L388.731 369.197L375.041 350.952L323.706 382.758Z" fill="#053793"/>
<path d="M312.043 260.252L298.354 242L247.019 273.807L255.004 284.592L312.043 260.252Z" fill="#053793"/>
<path d="M255.26 289.958L258.141 311.828L273.144 308.368L269.962 288.119C269.962 288.119 257.939 290.115 255.267 289.958H255.26Z" fill="#053793"/>
<path d="M292.433 306.552V282.633H279.531L283.029 306.844L292.433 306.552Z" fill="#053793"/>
<path d="M298.196 306.844L305.078 309.861L322.573 286.31L305.078 277.184L298.196 306.844Z" fill="#053793"/>
<path d="M297.273 336.519C297.176 336.227 297.078 336.001 296.981 335.859C296.883 335.709 296.981 335.641 297.273 335.641H319.376V330.042C319.376 328.474 319.428 326.95 319.526 325.472C319.623 324.001 319.676 322.823 319.676 321.937L320.119 319.43L307.885 319.723H295.802V315.453C295.607 313.591 295.48 312.383 295.434 311.843C295.382 311.302 295.112 311.032 294.624 311.032H281.805L279.006 311.325V322.372H251.304L251.454 329.149C251.65 331.116 251.77 332.782 251.822 334.163C251.875 335.544 251.995 336.324 252.19 336.519H255.432C257.496 336.519 260.093 336.422 263.245 336.227C266.39 336.129 269.061 336.077 271.275 336.077H274.735C275.028 336.272 274.833 336.91 274.142 337.99C273.85 338.486 273.257 339.386 272.371 340.715C271.486 342.043 270.6 343.439 269.722 344.918C268.641 346.389 267.515 347.935 266.33 349.556C265.151 351.177 264.123 352.483 263.238 353.458C260.783 356.701 258.224 359.748 255.575 362.592C252.925 365.444 250.171 368.289 247.327 371.14C247.424 371.433 247.845 372.221 248.58 373.497C249.316 374.773 250.224 376.101 251.304 377.475C251.597 377.865 252.137 378.458 252.925 379.246C253.714 380.034 254.547 380.92 255.432 381.895L258.524 385.138L259.853 384.545C261.226 383.757 262.705 382.556 264.273 380.935C265.842 379.314 267.388 377.542 268.911 375.629C270.435 373.715 271.861 371.801 273.182 369.88C274.51 367.966 275.613 366.27 276.499 364.799C277.385 363.125 278.173 361.782 278.856 360.746C279.539 359.718 279.936 359.2 280.034 359.2C280.132 359.988 280.184 360.821 280.184 361.707V364.506C280.282 366.18 280.334 368.138 280.334 370.397C280.334 372.657 280.237 375.163 280.041 377.91V396.921L288.29 396.628C293.986 396.628 296.688 396.478 296.395 396.185C296.395 396.087 296.448 395.765 296.545 395.224C296.643 394.684 296.74 394.121 296.838 393.528C297.326 390.579 297.626 382.623 297.724 369.654C297.724 366.705 297.776 364.228 297.874 362.217C297.971 360.206 298.069 359.147 298.166 359.05L318.378 373.49L326.731 355.515L297.273 336.504V336.519Z" fill="#053793"/>
<path d="M112.497 296.855L112.347 294.206C112.347 293.523 112.249 292.367 112.054 290.746C112.039 290.648 112.032 290.551 112.017 290.453L110.396 268.823L93.0588 271.052L102.035 297.891L112.497 296.862V296.855Z" fill="#053793"/>
<path d="M201.14 296.292C202.281 296.097 205.973 296.044 212.255 296.119H223.453V285.365H218.004C215.152 285.365 212.45 285.312 209.899 285.214C207.339 285.117 204.938 285.019 202.679 284.922C202.326 284.869 202.011 284.802 201.725 284.727L202.048 278.295H202.228C203.894 278.295 205.861 278.272 208.12 278.22C210.379 278.167 212.931 278.1 215.783 278.002C221.479 277.905 224.774 277.762 225.652 277.559C225.847 277.559 225.967 277.094 226.02 276.156C226.072 275.225 226.042 273.574 225.945 271.217C225.945 269.544 225.892 268.103 225.794 266.872C225.697 265.641 225.644 264.936 225.644 264.733C225.547 264.636 224.263 264.538 221.817 264.44C219.363 264.343 216.368 264.29 212.826 264.29C208.232 264.29 204.878 264.245 202.746 264.155L203.392 251.329H180.839L181.574 266.677C181.274 266.714 180.884 266.759 180.403 266.797C179.225 266.895 177.724 266.97 175.908 267.015C174.092 267.067 172.05 267.067 169.791 267.015C167.532 266.962 165.221 266.895 162.864 266.797C161.295 266.602 159.937 266.482 158.811 266.429C157.678 266.377 157.115 266.407 157.115 266.504C156.822 266.699 156.725 267.608 156.822 269.229C156.92 270.85 157.017 272.598 157.115 274.46C157.31 275.841 157.43 276.989 157.483 277.92C157.535 278.858 157.558 279.421 157.558 279.616C157.46 280.006 157.633 280.254 158.076 280.351C158.519 280.449 159.524 280.404 161.093 280.201C162.174 280.201 163.472 280.179 164.995 280.126C166.519 280.073 168.012 279.953 169.491 279.758C170.864 279.661 172.441 279.563 174.204 279.466C175.975 279.368 177.597 279.27 179.068 279.173L182.152 278.97L182.505 286.243H180.981C180.291 286.34 178.79 286.393 176.486 286.393C174.182 286.393 171.698 286.49 169.048 286.686H162.346C160.53 286.686 159.524 286.738 159.329 286.836C159.427 287.031 159.479 287.428 159.479 288.014C159.577 288.509 159.652 288.997 159.697 289.485C159.749 289.98 159.772 290.513 159.772 291.106C159.772 291.399 159.794 291.842 159.847 292.434C159.899 293.027 159.967 293.665 160.065 294.348C160.162 295.039 160.26 295.677 160.357 296.262C160.455 296.855 160.552 297.245 160.65 297.44H172.441L183.038 297.298L183.488 306.717H181.867C181.477 306.717 180.118 306.694 177.814 306.642C175.503 306.589 172.876 306.469 169.934 306.274C166.887 306.176 164.11 306.079 161.611 305.981C159.104 305.884 157.408 305.831 156.53 305.831H154.023V316.143C154.023 317.712 154.121 318.792 154.316 319.385H156.38C156.972 319.385 157.678 319.363 158.519 319.31C159.352 319.258 160.312 319.19 161.393 319.093C163.457 319.093 166.331 319.018 170.016 318.875C173.701 318.725 177.356 318.605 180.996 318.507C186.888 318.117 192.637 317.824 198.236 317.622C203.834 317.427 209.583 317.231 215.475 317.029C218.912 316.834 221.712 316.736 223.873 316.736H228.294C229.082 316.736 229.472 316.586 229.472 316.293V305.388H200.66L201.118 296.277L201.14 296.292Z" fill="#053793"/>
<defs>
<filter id="filter0_d_113_2282" x="20.7493" y="36.0437" width="751.507" height="567.662" filterUnits="userSpaceOnUse" color-interpolation-filters="sRGB">
<feFlood flood-opacity="0" result="BackgroundImageFix"/>
<feColorMatrix in="SourceAlpha" type="matrix" values="0 0 0 0 0 0 0 0 0 0 0 0 0 0 0 0 0 0 127 0" result="hardAlpha"/>
<feOffset dx="10.9" dy="16.7"/>
<feColorMatrix type="matrix" values="0 0 0 0 0.529412 0 0 0 0 0.27451 0 0 0 0 0.137255 0 0 0 1 0"/>
<feBlend mode="normal" in2="BackgroundImageFix" result="effect1_dropShadow_113_2282"/>
<feBlend mode="normal" in="SourceGraphic" in2="effect1_dropShadow_113_2282" result="shape"/>
</filter>
<clipPath id="clip0_113_2282">
<rect width="423.341" height="107.152" fill="white" transform="translate(182.989 126.119)"/>
</clipPath>
</defs>
</svg>
