<svg width="789" height="624" viewBox="0 0 789 624" fill="none" xmlns="http://www.w3.org/2000/svg">
<g filter="url(#filter0_d_887_1575)">
<path d="M722.359 321.422C734.308 304.972 741.53 283.55 741.53 260.228C741.53 208.173 705.684 165.988 661.434 165.988C617.185 165.988 652.506 166.427 648.173 167.304C629.462 113.568 577.925 74.9656 517.263 74.9656C456.6 74.9656 485.75 77.6707 471.438 82.6422C467.105 80.522 462.575 78.6211 457.979 76.7933C432.703 49.8155 396.594 33 356.481 33C292.471 33 238.636 75.9891 222.814 134.331C217.824 133.235 212.704 132.577 207.517 132.577C178.368 132.577 152.895 150.928 138.845 178.271C130.442 173.153 120.857 170.302 110.746 170.302C76.8698 170.302 49.3616 202.617 49.3616 242.535C49.3616 282.454 53.1694 271.122 59.669 282.527V284.428C36.0999 306.946 21 341.308 21 379.837C21 447.611 67.6785 502.59 125.255 502.59C182.832 502.59 131.886 502.371 135.169 502.005C138.648 512.387 144.491 520.502 152.566 524.743C165.762 531.688 181.65 526.497 195.174 512.972C201.214 519.844 208.633 527.155 217.627 534.393C235.944 549.089 257.544 560.786 281.704 568.975C310.853 578.918 344.007 583.962 380.313 583.962C416.618 583.962 449.969 578.918 479.578 569.048C504.067 560.859 526.126 549.381 545.165 534.832C549.695 531.396 553.831 527.887 557.639 524.45C566.764 530.811 577.465 534.54 588.889 534.54C610.751 534.54 629.921 521.087 640.82 500.836C651.258 506.026 662.682 508.951 674.762 508.951C722.688 508.951 761.488 463.257 761.488 406.888C761.488 350.52 745.928 339.773 722.359 321.568V321.422Z" fill="#FFFBD2"/>
</g>
<ellipse cx="543.945" cy="135.041" rx="114.674" ry="76.8002" transform="rotate(15.3204 543.945 135.041)" fill="#FFFBD2"/>
<ellipse cx="119.5" cy="239" rx="76.5" ry="73" fill="#FFFBD2"/>
<path d="M123.497 297.855L123.347 295.206C123.347 294.523 123.249 293.367 123.054 291.746C123.039 291.648 123.032 291.551 123.017 291.453L121.395 269.823L104.059 272.052L113.035 298.891L123.497 297.862V297.855Z" fill="#053793"/>
<path d="M201.745 324.671C199.681 324.768 197.767 324.866 195.996 324.963C194.225 325.158 191.868 325.286 188.926 325.331C185.977 325.384 183.125 325.504 180.378 325.699C177.526 325.699 175.2 325.721 173.376 325.774C171.56 325.826 170.554 325.849 170.359 325.849C170.359 326.044 170.261 328.063 170.066 331.891C169.871 335.718 169.526 341.617 169.038 349.573V355.021C169.038 357.183 169.015 359.517 168.963 362.024C168.91 364.53 168.888 367.18 168.888 369.979V378.16L169.038 396.87H177.286L185.684 397.163L186.127 390.536C186.127 388.569 186.149 386.61 186.202 384.644C186.255 382.678 186.277 381.109 186.277 379.931V376.103L194.09 375.953C196.251 375.758 198.803 375.638 201.753 375.585C204.702 375.533 207.449 375.51 210.001 375.51L218.106 375.218V384.794H216.335C215.059 384.599 214.294 384.847 214.054 385.53C213.806 386.22 213.783 388.089 213.978 391.129C213.978 392.795 214.001 394.168 214.054 395.256C214.106 396.337 214.226 396.975 214.421 397.17L235.195 401.275V324.528H207.051C205.58 324.528 203.809 324.581 201.745 324.678V324.671ZM187.448 363.72L187.598 360.185C187.793 359.592 187.891 359.082 187.891 358.639C187.891 358.196 187.943 357.828 188.041 357.536V356.65C188.529 356.552 189.069 356.5 189.662 356.5H191.576C192.656 356.402 193.955 356.327 195.478 356.282C197.002 356.23 198.646 356.207 200.417 356.207C203.854 356.207 206.751 356.155 209.108 356.057C211.464 355.96 212.695 355.862 212.793 355.764H217.949V359.742L218.099 363.72H187.448ZM214.706 338.375C215.982 338.375 216.815 338.397 217.213 338.45C217.603 338.503 217.754 338.525 217.656 338.525C218.144 338.72 218.144 339.801 217.656 341.767V344.859H202.923C198.796 345.055 195.283 345.107 192.386 345.01C189.489 344.912 187.988 344.859 187.891 344.859C187.696 344.762 187.598 344.417 187.598 343.831V341.617L188.041 338.525H200.417C204.049 338.428 207.021 338.375 209.333 338.375H214.714H214.706Z" fill="#053793"/>
<path d="M156.505 343.974C154.343 341.91 152.602 340.214 151.274 338.893C149.945 337.564 148.842 336.244 147.956 334.915C147.071 333.587 146.283 332.093 145.6 330.42C144.909 328.746 144.129 326.592 143.243 323.935C142.162 320.791 141.72 318.922 141.915 318.336C142.8 318.336 143.386 318.284 143.686 318.186H148.106L154.298 317.894V305.81L151.649 305.518C150.763 305.518 149.833 305.465 148.849 305.367C147.866 305.27 146.906 305.15 145.975 305C145.037 304.85 144.204 304.73 143.468 304.632C142.733 304.534 142.215 304.482 141.922 304.482C141.63 304.189 141.427 303.671 141.329 302.936C141.232 302.2 141.202 301.39 141.254 300.504C141.307 299.619 141.427 298.786 141.622 297.998C141.817 297.209 142.065 296.624 142.358 296.226C142.553 296.226 143.041 296.249 143.829 296.301C144.617 296.354 145.495 296.451 146.478 296.594C147.461 296.744 148.414 296.917 149.352 297.112C150.283 297.307 151.048 297.555 151.634 297.847C151.927 297.945 152.272 297.9 152.662 297.697C153.052 297.502 153.473 296.984 153.915 296.151C154.358 295.318 154.899 294.087 155.537 292.466C155.732 291.963 155.942 291.408 156.167 290.808L165.046 273.351L146.493 267.527L141.862 287.941C141.742 287.205 141.757 285.847 141.915 283.85C142.11 281.201 142.305 278.619 142.508 276.113C142.703 273.606 142.853 271.324 142.95 269.26C143.048 267.196 143.123 265.433 143.168 263.954C143.221 262.483 143.243 261.447 143.243 260.862V258.648H134.995L127.04 258.498L126.889 259.826C126.694 260.419 126.567 262.918 126.522 267.339C126.469 271.76 126.349 277.208 126.154 283.693C126.154 286.837 126.131 289.757 126.079 292.459C126.026 295.161 125.951 297.517 125.861 299.528C125.764 301.54 125.689 303.138 125.644 304.317C125.591 305.495 125.569 306.133 125.569 306.231H122.919C122.131 306.328 121.201 306.381 120.12 306.381C119.039 306.381 117.808 306.478 116.435 306.673C113.786 306.673 111.594 306.696 109.875 306.748C108.157 306.801 107.249 306.824 107.151 306.824C107.053 307.116 107.001 307.687 107.001 308.52C107.001 309.353 107.023 310.313 107.076 311.394C107.129 312.475 107.174 313.608 107.226 314.786C107.279 315.965 107.301 317 107.301 317.879L107.594 320.385H111.572C112.75 320.385 114.153 320.333 115.774 320.235C117.396 320.138 118.889 320.085 120.27 320.085L124.69 319.642C124.69 319.642 107.729 362.572 91 365.619L111.534 377.026C111.534 377.026 119.167 368.778 125.148 358.023C125.726 357.498 125.921 357.768 125.726 358.841C125.726 359.232 125.704 361.273 125.651 364.958C125.599 368.643 125.576 373.184 125.576 378.587L125.283 397.155H138.177C139.303 397.155 140.166 397.103 140.759 397.005C141.352 396.907 141.72 396.81 141.862 396.712C142.012 396.615 142.08 396.465 142.08 396.27C142.373 395.384 142.643 392.585 142.89 387.871C143.131 383.158 143.311 376.036 143.408 366.504C143.603 362.969 143.723 360.02 143.776 357.663C143.829 355.307 143.949 353.978 144.144 353.685C144.436 353.588 145.172 353.836 146.358 354.421C147.536 355.014 148.91 355.944 150.486 357.22C152.152 358.601 153.187 359.284 153.578 359.284C153.773 359.284 154.021 359.089 154.313 358.691C154.606 358.301 154.951 357.903 155.341 357.513C155.732 356.92 156.174 356.14 156.67 355.156C157.158 354.173 157.653 353.22 158.141 352.282C158.629 351.351 159.049 350.466 159.394 349.633C159.739 348.8 159.957 348.229 160.055 347.937C160.055 347.644 159.709 347.126 159.026 346.391C158.336 345.655 157.503 344.844 156.52 343.959L156.505 343.974Z" fill="#053793"/>
<path d="M536.226 372.118C536.129 371.825 535.491 371.382 534.312 370.789C533.134 370.197 531.708 369.461 530.042 368.575C526.897 366.902 523.73 364.965 520.541 362.751C517.351 360.537 514.476 358.406 511.917 356.342L510.026 354.661L526.822 348.131L516.848 329.879L496.877 340.889C496.577 340.431 496.194 339.868 495.706 339.17C494.918 338.045 493.89 336.499 492.614 334.532C491.338 332.566 490.355 331.02 489.664 329.894C488.974 328.768 488.531 328.003 488.336 327.613C488.824 327.613 489.169 327.56 489.364 327.462H491.571C497.17 327.462 504.442 327.312 513.381 327.02C517.899 326.824 521.509 326.727 524.211 326.727H529.884L532.684 326.577V319.95L532.534 313.323L508.367 313.03C501.59 313.03 495.894 313.008 491.278 312.955C486.662 312.902 484.208 312.88 483.908 312.88C483.608 312.88 483.465 311.409 483.465 308.459V304.189H500.554C502.521 304.189 503.647 304.136 503.947 304.039C504.435 304.039 505.47 304.016 507.039 303.964C508.607 303.911 510.259 303.866 511.977 303.814C513.696 303.761 515.242 303.694 516.615 303.596C517.989 303.499 518.724 303.401 518.822 303.303C518.919 303.206 518.972 302.643 518.972 301.607V297.404L518.822 292.098L513.666 291.806C512.195 291.708 510.544 291.655 508.727 291.655H503.939C502.468 291.655 500.547 291.58 498.19 291.438C495.834 291.288 493.477 291.123 491.12 290.92C489.057 290.92 487.413 290.867 486.182 290.77C484.951 290.672 484.066 290.425 483.533 290.034C482.992 289.644 482.67 289.074 482.572 288.338C482.475 287.603 482.475 286.642 482.572 285.464V282.071L492.742 282.364H503.129C507.106 282.364 510.619 282.267 513.666 282.071L524.713 281.921V267.481L482.572 268.217L486.167 255.954L458.503 252.306V269.515C457.97 269.5 457.302 269.485 456.492 269.47C454.428 269.418 451.478 269.35 447.651 269.253C443.823 269.155 439.793 269.08 435.568 269.035C431.342 268.982 426.877 268.862 422.156 268.667L414.643 268.375L414.351 271.024C414.351 272.698 414.403 274.214 414.501 275.594C414.598 276.975 414.696 278.987 414.793 281.636L415.086 285.907L418.328 285.614C419.507 285.614 421.886 285.539 425.473 285.396C429.061 285.246 433.211 285.179 437.924 285.179C442.442 285.081 446.518 284.961 450.158 284.811C453.79 284.661 456.102 284.593 457.085 284.593L460.477 284.3L460.184 288.721V293.141H442.502C437.489 293.044 433.046 292.991 429.166 292.991C425.286 292.991 422.854 292.894 421.871 292.699L419.221 292.549L419.514 298.883C419.514 300.654 419.537 302.125 419.589 303.303C419.642 304.482 419.762 305.172 419.957 305.367C420.054 305.367 421.968 305.315 425.706 305.217C429.436 305.12 434.254 305.067 440.146 305.067C445.744 304.97 450.458 304.872 454.293 304.774C458.12 304.677 460.087 304.722 460.184 304.925V309.788L459.742 314.358H446.33C442.202 314.261 437.857 314.163 433.286 314.066C428.715 313.968 424.76 313.871 421.428 313.773C418.381 313.773 415.777 313.721 413.615 313.623C411.454 313.525 410.32 313.473 410.223 313.473V316.272C410.223 317.653 410.275 319.567 410.373 322.021C410.373 326.832 410.523 329.684 410.816 330.569C411.108 330.569 412.219 330.494 414.133 330.352C416.047 330.202 418.726 330.037 422.163 329.834C425.601 329.639 429.016 329.414 432.408 329.174C435.8 328.933 439.163 328.708 442.502 328.513C443.973 328.416 445.279 328.318 446.405 328.22C447.531 328.123 448.244 328.168 448.544 328.371C448.837 328.468 448.544 329.008 447.658 329.992C446.773 330.975 445.497 332.056 443.831 333.234C443.14 333.827 442.285 334.51 441.249 335.298C440.221 336.086 439.305 336.866 438.525 337.654C436.168 339.621 433.931 341.287 431.822 342.668C429.706 344.049 426.787 345.617 423.057 347.381C421.285 348.071 419.664 348.634 418.193 349.077C416.722 349.52 415.004 349.985 413.037 350.481C411.168 350.773 409.87 351.074 409.135 351.366C408.399 351.659 408.031 351.862 408.031 351.959C408.031 352.252 408.181 352.965 408.474 354.098C408.767 355.231 409.067 356.53 409.36 358.001C409.652 359.569 409.975 361.07 410.32 362.496C410.666 363.922 410.838 364.98 410.838 365.663L411.281 367.87H412.902C413.788 367.87 414.913 367.75 416.294 367.502C417.668 367.262 419.116 366.939 420.64 366.542C422.163 366.151 423.709 365.633 425.278 364.995C426.847 364.358 428.273 363.697 429.548 363.007C430.141 362.684 430.644 362.451 431.072 362.279V403.069L480.388 385.409L479.915 383.428C479.728 382.527 479.54 381.552 479.352 380.471C479.157 379.345 478.91 378.137 478.617 376.861C478.324 375.585 478.024 374.452 477.731 373.469C477.138 371.405 476.771 370.107 476.628 369.566C476.478 369.026 476.163 368.906 475.667 369.198C474.857 369.536 474.054 369.851 473.251 370.167L453.1 373.761C453.085 373.326 453.062 372.838 453.054 372.291C453.002 369.836 452.979 366.842 452.979 363.299L452.687 350.631L456.664 347.831C457.55 347.238 458.653 346.338 459.982 345.107C461.31 343.876 462.631 342.6 463.959 341.279C465.288 339.951 466.541 338.675 467.719 337.452C468.898 336.221 469.731 335.313 470.226 334.727L470.819 333.699L472.148 336.941C472.635 338.022 473.131 339.08 473.619 340.109C474.106 341.137 474.504 341.947 474.797 342.54C475.09 342.833 475.315 343.133 475.457 343.426C475.607 343.718 475.772 343.966 475.975 344.161C476.17 344.356 476.268 344.507 476.268 344.604C476.268 344.702 476.32 344.799 476.418 344.897C476.516 345.49 476.958 346.465 477.746 347.846C478.534 349.227 479.442 350.698 480.471 352.267C481.499 353.835 482.512 355.284 483.488 356.612C484.471 357.941 485.206 358.894 485.694 359.487C486.58 360.567 487.661 361.768 488.936 363.097C490.212 364.425 491.518 365.776 492.839 367.15C494.168 368.53 495.511 369.896 496.892 371.277C498.265 372.658 499.541 373.927 500.72 375.105C501.508 375.698 502.243 376.208 502.934 376.651C503.616 377.094 504.382 377.589 505.215 378.122C506.048 378.662 507.031 379.255 508.165 379.893C509.29 380.531 510.641 381.297 512.217 382.175C516.345 384.043 520 385.59 523.197 386.813C526.387 388.044 528.331 388.562 529.021 388.359C529.021 388.164 529.239 387.698 529.682 386.955C530.125 386.22 530.537 385.357 530.935 384.374C531.423 383.195 532.038 381.897 532.774 380.471C533.509 379.045 534.177 377.747 534.763 376.568C536.136 373.716 536.624 372.245 536.234 372.148L536.226 372.118Z" fill="#053793"/>
<path d="M600.47 288.128L600.763 292.549H605.183C606.459 292.549 607.66 292.526 608.793 292.474C609.919 292.421 610.782 292.399 611.375 292.399L612.846 291.956V287.978C613.041 286.8 613.139 285.719 613.139 284.736C613.139 283.753 613.191 283.212 613.289 283.115C613.289 283.017 613.529 282.942 614.024 282.897C614.512 282.845 615.428 282.822 616.749 282.822H630.971C635.984 282.822 640.623 282.897 644.893 283.04C649.163 283.19 652.135 283.363 653.809 283.558C655.28 283.558 657.224 283.58 659.633 283.633C662.042 283.685 664.271 283.805 666.335 284.001H673.848L674.291 290.192L678.561 289.9C679.544 289.802 680.7 289.749 682.021 289.749H687.987L688.28 282.68V276.856C688.28 274.942 688.182 273.493 687.987 272.51C687.89 271.039 687.77 270.101 687.62 269.711C687.47 269.32 687.154 269.073 686.659 268.975C686.269 268.975 684.4 268.9 681.06 268.758C677.72 268.607 673.69 268.54 668.977 268.54C664.264 268.345 660.256 268.225 656.969 268.172C655.243 268.15 653.914 268.127 652.961 268.112V252.329L626.235 255.976L633.478 268.3L633.62 269.568L622.423 269.418C618.985 269.418 615.691 269.343 612.553 269.2C609.409 269.05 607 268.983 605.333 268.983L599.885 268.69L600.035 276.203C600.23 278.267 600.35 280.451 600.403 282.762C600.455 285.074 600.478 286.867 600.478 288.143L600.47 288.128Z" fill="#053793"/>
<path d="M665.742 369.912C670.455 369.912 674.456 369.889 677.75 369.837C681.045 369.784 682.929 369.762 683.424 369.762L684.452 369.319L684.895 365.491C685.09 362.639 685.241 359.945 685.338 357.386C685.436 354.834 685.533 352.252 685.631 349.648C685.728 347.043 685.803 344.297 685.848 341.4C685.901 338.503 685.968 335.283 686.066 331.748V315.094H685.999L686.066 312.062L655.775 313.443C655.633 312.948 655.565 312.032 655.565 310.674C655.565 309.788 655.588 308.902 655.64 308.024C655.693 307.139 655.715 306.501 655.715 306.111L656.158 304.782L666.62 304.489C669.57 304.489 672.069 304.414 674.133 304.272C676.197 304.129 677.278 304.054 677.375 304.054C677.375 303.957 677.45 303.416 677.593 302.433C677.743 301.45 677.81 300.324 677.81 299.041V295.138C677.81 294.5 677.66 294.087 677.368 293.885H667.348C662.042 293.885 654.77 293.832 645.538 293.735H611.945L610.174 293.885V305.375L618.865 305.225C621.319 305.03 623.804 304.91 626.303 304.857C628.809 304.805 630.648 304.782 631.827 304.782H636.247V305.81C636.247 306.103 636.225 306.771 636.172 307.799C636.119 308.827 636.097 309.938 636.097 311.117L635.894 314.351L611.698 315.454C611.405 315.454 611.112 315.454 610.827 315.462C607.735 315.514 605.889 315.537 605.303 315.537L603.39 315.83L603.832 370.347L626.52 370.197C629.86 370.197 633.35 370.174 636.983 370.122C640.615 370.069 644.15 370.047 647.595 370.047C651.04 370.047 654.319 370.024 657.464 369.972C660.609 369.919 663.356 369.897 665.712 369.897L665.742 369.912ZM669.72 328.213C669.72 328.806 669.667 329.542 669.57 330.427C669.472 331.313 669.42 332.198 669.42 333.076V335.726L664.849 335.433C663.468 335.433 662.17 335.411 660.946 335.358C659.716 335.305 658.807 335.283 658.222 335.283H656.008V326.442H670.155L669.712 328.213H669.72ZM635.684 357.536H622.573V354.736C622.573 353.948 622.55 353.093 622.498 352.154C622.445 351.224 622.423 350.361 622.423 349.573L622.13 347.216L627.286 346.923H635.684V357.536ZM636.127 337.197L631.857 337.047C630.581 337.047 629.297 336.972 628.029 336.829C626.753 336.679 625.77 336.611 625.079 336.611L622.573 336.319V331.898C622.573 330.622 622.625 329.542 622.723 328.656C622.82 327.77 622.873 327.23 622.873 327.035C622.97 327.035 623.661 327.012 624.937 326.96C626.213 326.907 627.789 326.885 629.65 326.885L635.842 327.035L636.134 332.191V337.204L636.127 337.197ZM656.023 346.338H669.435V356.507L666.785 356.065C666.095 356.065 665.112 356.012 663.836 355.915C662.56 355.817 661.329 355.719 660.151 355.622L656.023 355.329V346.338Z" fill="#053793"/>
<path d="M690.869 384.277C690.621 383.736 689.466 383.121 687.409 382.438C686.524 382.145 685.293 381.627 683.724 380.892C682.156 380.156 680.58 379.398 679.011 378.61C677.337 377.822 675.641 377.087 673.93 376.396C672.211 375.713 670.635 375.098 669.217 374.557C667.791 374.017 666.567 373.574 665.532 373.229C664.504 372.884 663.836 372.666 663.543 372.569C662.852 372.569 662.41 372.959 662.214 373.747C662.117 373.942 661.824 374.557 661.329 375.586C660.834 376.614 660.323 377.725 659.783 378.903C659.242 380.081 658.755 381.162 658.312 382.145C657.869 383.128 657.599 383.714 657.501 383.916C657.501 383.991 657.576 384.104 657.689 384.224L656.03 388.067L681.578 396.165V395.234C683.507 395.534 685.36 395.699 687.124 395.699C687.717 395.797 688.227 395.377 688.67 394.446C689.113 393.508 689.721 391.429 690.509 388.187C690.997 386.123 691.124 384.824 690.877 384.284L690.869 384.277Z" fill="#053793"/>
<path d="M593.835 347.216C593.543 347.021 592.875 346.773 591.847 346.481C590.818 346.188 589.655 345.843 588.387 345.452C587.006 344.965 585.565 344.469 584.041 343.981C582.518 343.493 581.317 342.998 580.431 342.51C580.041 342.315 579.643 342.165 579.253 342.068C578.863 341.97 578.465 341.827 578.075 341.625C577.684 341.43 577.339 341.279 577.046 341.182C576.851 341.182 576.656 341.43 576.454 341.917C575.47 345.452 574.66 348.304 574.022 350.466C573.384 352.627 572.791 354.616 572.251 356.432C571.71 358.249 571.44 359.209 571.44 359.307C570.555 362.256 569.669 365.423 568.791 368.808C567.913 372.193 567.17 375.023 566.577 377.282C565.984 379.541 565.474 381.432 565.031 382.955C564.588 384.479 564.318 385.387 564.22 385.68C563.83 385.972 564.025 386.415 564.813 387.008C565.301 387.203 565.939 387.526 566.727 387.969C567.515 388.412 568.348 388.779 569.234 389.072C570.119 389.365 571.125 389.808 572.251 390.401C573.377 390.993 574.39 391.481 575.268 391.872C576.641 392.464 577.624 392.877 578.217 393.125C578.81 393.365 579.245 393.395 579.546 393.2C580.229 392.907 581.017 391.872 581.902 390.108C582.788 388.344 583.966 385.395 585.437 381.267C586.03 379.203 586.593 377.439 587.133 375.961C587.674 374.49 587.996 373.657 588.094 373.454C588.289 372.771 588.612 371.788 589.055 370.504C589.497 369.229 589.865 367.953 590.158 366.677C590.451 365.889 590.676 365.206 590.818 364.613C590.969 364.02 591.089 363.682 591.186 363.585C591.479 363.097 591.847 361.791 592.289 359.682C592.732 357.573 593.198 355.389 593.685 353.123C593.783 352.139 593.903 351.306 594.053 350.616C594.203 349.933 594.368 349.535 594.571 349.438C595.059 348.552 594.811 347.816 593.835 347.231V347.216Z" fill="#053793"/>
<path d="M628.134 375.848C627.413 375.188 626.708 374.58 626.032 374.04C624.801 373.056 623.893 372.569 623.308 372.569C622.52 372.569 621.537 373.161 620.358 374.34C618.099 376.599 615.368 378.588 612.178 380.306C608.988 382.025 606.061 383.323 603.412 384.209C602.526 384.502 601.813 384.749 601.273 384.945C600.733 385.14 600.41 385.237 600.312 385.237C600.117 385.83 600.905 387.646 602.669 390.686C603.554 392.255 604.313 393.583 604.95 394.664C605.588 395.744 606.151 396.525 606.647 397.02C607.134 397.508 607.975 397.756 609.153 397.756C610.624 397.756 612.396 397.26 614.459 396.285C616.523 395.302 618.587 394.101 620.651 392.675C620.989 392.442 621.319 392.209 621.642 391.969L639.594 383.646L628.126 375.841L628.134 375.848Z" fill="#053793"/>
<path d="M581.752 323.793C582.54 324.085 583.178 323.943 583.666 323.35C583.763 323.155 584.011 322.614 584.401 321.729C584.792 320.843 585.189 319.89 585.58 318.854C585.97 317.826 586.338 316.843 586.683 315.905C587.028 314.974 587.201 314.411 587.201 314.209L588.086 312.437L587.058 311.109C585.88 310.126 584.431 309 582.713 307.717C580.994 306.441 579.223 305.187 577.407 303.957C575.59 302.726 573.774 301.547 571.958 300.422C570.142 299.296 568.498 298.38 567.02 297.697C565.841 296.909 565.106 296.444 564.813 296.294C564.52 296.144 564.318 296.316 564.22 296.812C563.627 298.68 562.967 300.474 562.231 302.193C561.496 303.912 560.828 305.413 560.242 306.688C559.852 307.476 559.529 308.189 559.282 308.827C559.034 309.465 558.914 309.886 558.914 310.081C558.914 310.141 559.012 310.238 559.199 310.366L556.505 317.121L581.76 323.785L581.752 323.793Z" fill="#053793"/>
<path d="M586.766 290.192L588.98 286.365C590.548 283.715 591.832 281.261 592.807 278.995C593.791 276.736 594.278 275.212 594.278 274.424C594.474 274.034 594.226 273.538 593.543 272.953C592.852 272.36 590.984 271.039 587.944 268.975C586.563 267.992 585.295 267.084 584.116 266.251C582.938 265.418 582.203 264.847 581.902 264.555C581.407 264.067 580.747 263.474 579.914 262.784C579.081 262.101 578.217 261.41 577.332 260.72C576.446 260.037 575.636 259.466 574.9 259.023C574.165 258.581 573.699 258.363 573.497 258.363C573.497 258.461 573.227 258.956 572.686 259.834C572.146 260.72 571.53 261.845 570.847 263.226C570.585 263.752 570.322 264.255 570.067 264.735L561.113 275.31L586.766 290.192Z" fill="#053793"/>
<path d="M366 261.427L343.263 243L258 275.112L271.263 286L366 261.427Z" fill="#053793"/>
<path d="M272 290.861L276.834 313L302 309.498L296.662 289C296.662 289 276.494 291.021 272.013 290.861H272Z" fill="#053793"/>
<path d="M334 307.71V284H312L317.964 308L334 307.71Z" fill="#053793"/>
<path d="M343 307.953L354.575 311L384 287.216L354.575 278L343 307.953Z" fill="#053793"/>
<path d="M342.03 337.52C341.868 337.227 341.706 337.002 341.544 336.859C341.381 336.709 341.544 336.641 342.03 336.641H378.773V331.035C378.773 329.464 378.86 327.939 379.023 326.459C379.185 324.986 379.272 323.806 379.272 322.919L380.008 320.409L359.672 320.702H339.585V316.426C339.26 314.563 339.048 313.353 338.974 312.812C338.886 312.271 338.437 312 337.626 312H316.316L311.663 312.293V323.355H265.612L265.862 330.141C266.186 332.11 266.386 333.778 266.473 335.161C266.561 336.543 266.76 337.325 267.085 337.52H272.474C275.905 337.52 280.222 337.423 285.462 337.227C290.69 337.13 295.132 337.077 298.812 337.077H304.564C305.05 337.272 304.726 337.911 303.578 338.993C303.091 339.489 302.106 340.391 300.634 341.721C299.161 343.051 297.689 344.449 296.229 345.93C294.433 347.402 292.561 348.95 290.59 350.574C288.631 352.197 286.922 353.505 285.45 354.481C281.37 357.728 277.116 360.779 272.712 363.627C268.307 366.483 263.729 369.331 259 372.186C259.162 372.479 259.861 373.269 261.084 374.546C262.306 375.824 263.816 377.154 265.612 378.529C266.099 378.92 266.997 379.513 268.307 380.302C269.617 381.092 271.002 381.978 272.474 382.955L277.615 386.202L279.823 385.608C282.106 384.819 284.564 383.617 287.172 381.993C289.779 380.37 292.349 378.597 294.882 376.68C297.415 374.764 299.785 372.848 301.981 370.924C304.189 369.008 306.023 367.309 307.496 365.836C308.968 364.161 310.278 362.815 311.413 361.778C312.549 360.749 313.21 360.23 313.372 360.23C313.534 361.019 313.622 361.854 313.622 362.74V365.543C313.784 367.219 313.871 369.18 313.871 371.442C313.871 373.704 313.709 376.214 313.384 378.965V398L327.096 397.707C336.566 397.707 341.057 397.557 340.57 397.263C340.57 397.166 340.658 396.843 340.82 396.302C340.982 395.761 341.144 395.197 341.307 394.603C342.118 391.65 342.617 383.684 342.779 370.698C342.779 367.745 342.866 365.265 343.028 363.251C343.191 361.237 343.353 360.178 343.515 360.08L377.114 374.539L391 356.541L342.03 337.505V337.52Z" fill="#053793"/>
<path d="M212.141 297.292C213.281 297.097 216.974 297.044 223.256 297.119H234.453V286.365H229.005C226.153 286.365 223.451 286.312 220.899 286.214C218.34 286.117 215.938 286.019 213.679 285.922C213.326 285.869 213.011 285.802 212.726 285.727L213.049 279.295H213.229C214.895 279.295 216.861 279.272 219.12 279.22C221.379 279.167 223.931 279.1 226.783 279.002C232.479 278.905 235.774 278.762 236.652 278.559C236.847 278.559 236.968 278.094 237.02 277.156C237.073 276.225 237.043 274.574 236.945 272.217C236.945 270.544 236.892 269.103 236.795 267.872C236.697 266.641 236.645 265.936 236.645 265.733C236.547 265.636 235.264 265.538 232.817 265.44C230.363 265.343 227.368 265.29 223.826 265.29C219.233 265.29 215.878 265.245 213.747 265.155L214.392 252.329H191.839L192.575 267.677C192.275 267.714 191.884 267.759 191.404 267.797C190.226 267.895 188.725 267.97 186.908 268.015C185.092 268.067 183.051 268.067 180.792 268.015C178.533 267.962 176.221 267.895 173.864 267.797C172.296 267.602 170.937 267.482 169.812 267.429C168.678 267.377 168.116 267.407 168.116 267.504C167.823 267.699 167.725 268.608 167.823 270.229C167.92 271.85 168.018 273.598 168.116 275.46C168.311 276.841 168.431 277.989 168.483 278.92C168.536 279.858 168.558 280.421 168.558 280.616C168.461 281.006 168.633 281.254 169.076 281.351C169.519 281.449 170.525 281.404 172.093 281.201C173.174 281.201 174.472 281.179 175.996 281.126C177.519 281.073 179.013 280.953 180.491 280.758C181.865 280.661 183.441 280.563 185.205 280.466C186.976 280.368 188.597 280.27 190.068 280.173L193.153 279.97L193.505 287.243H191.982C191.291 287.34 189.79 287.393 187.486 287.393C185.182 287.393 182.698 287.49 180.049 287.686H173.347C171.53 287.686 170.525 287.738 170.33 287.836C170.427 288.031 170.48 288.428 170.48 289.014C170.577 289.509 170.652 289.997 170.697 290.485C170.75 290.98 170.772 291.513 170.772 292.106C170.772 292.399 170.795 292.842 170.847 293.434C170.9 294.027 170.967 294.665 171.065 295.348C171.163 296.039 171.26 296.677 171.358 297.262C171.455 297.855 171.553 298.245 171.65 298.44H183.441L194.038 298.298L194.489 307.717H192.867C192.477 307.717 191.119 307.694 188.815 307.642C186.503 307.589 183.876 307.469 180.934 307.274C177.887 307.176 175.11 307.079 172.611 306.981C170.104 306.884 168.408 306.831 167.53 306.831H165.023V317.143C165.023 318.712 165.121 319.792 165.316 320.385H167.38C167.973 320.385 168.678 320.363 169.519 320.31C170.352 320.258 171.313 320.19 172.393 320.093C174.457 320.093 177.332 320.018 181.017 319.875C184.702 319.725 188.357 319.605 191.997 319.507C197.888 319.117 203.637 318.824 209.236 318.622C214.835 318.427 220.584 318.231 226.475 318.029C229.913 317.834 232.712 317.736 234.874 317.736H239.294C240.082 317.736 240.472 317.586 240.472 317.293V306.388H211.66L212.118 297.277L212.141 297.292Z" fill="#053793"/>
<path d="M171.894 457.112H169.195V463.59H165.061V457.112H155.444V453.732L163.796 438.618H169.11V453.357H171.81V457.112H171.894ZM165.061 453.263V448.194C165.061 446.785 165.145 444.438 165.23 443.03H165.145C164.639 444.345 163.964 445.753 163.374 447.067L159.915 453.263H165.145H165.061Z" fill="#DE5419"/>
<path d="M174.847 460.867C174.847 459.084 176.028 457.582 177.631 457.582C179.234 457.582 180.415 458.99 180.415 460.867C180.415 462.745 179.234 464.153 177.631 464.153C176.028 464.153 174.847 462.745 174.847 460.867Z" fill="#DE5419"/>
<path d="M183.367 460.586L185.476 457.394C186.826 458.802 188.429 459.928 190.453 459.928C192.478 459.928 194.249 458.708 194.249 456.455C194.249 454.202 192.984 452.418 188.007 452.418V448.851C192.14 448.851 193.49 447.255 193.49 445.002C193.49 442.749 192.394 441.904 190.453 441.81C188.85 441.81 187.501 442.655 186.235 444.063L183.957 441.059C185.898 439.181 188.091 437.961 190.706 437.961C195.093 437.961 197.961 440.308 197.961 444.626C197.961 448.945 196.612 449.32 194.165 450.353V450.541C196.696 451.292 198.636 453.451 198.636 456.737C198.636 460.022 195.009 463.965 190.706 463.965C186.404 463.965 184.717 462.463 183.198 460.492L183.367 460.586Z" fill="#DE5419"/>
<path d="M247.228 457.018C246.469 459.459 245.204 462.275 244.191 463.965C243.685 463.496 242.504 462.557 241.829 462.182C242.841 460.586 243.854 458.333 244.529 456.173L247.313 457.018H247.228ZM251.531 455.047V466.312H248.072V455.047H242.42V451.667H248.072V449.038H242.251V445.753H245.204C245.035 444.72 244.697 443.312 244.36 442.279L246.891 441.622H242.757V438.336H247.987C247.734 437.397 247.397 436.459 247.059 435.708L250.687 434.769C251.109 435.895 251.699 437.304 252.037 438.43H256.423V441.716H252.627L255.074 442.279C254.652 443.593 254.146 444.908 253.724 445.94H256.845V449.226H251.615V451.855H256.339V455.234H251.615L251.531 455.047ZM247.144 441.528C247.566 442.655 247.987 444.063 248.156 445.002L245.963 445.659H250.35C250.771 444.438 251.362 442.749 251.615 441.434H247.144V441.528ZM270.259 449.789H267.39V466.406H263.847V449.789H260.979V450.165C260.979 455.141 260.557 462.088 258.026 466.406C257.436 465.655 256.002 464.435 255.242 463.965C255.833 463.026 256.255 461.9 256.592 460.68L254.399 462.182C253.893 460.867 252.88 458.708 252.037 457.112L254.399 455.704C255.242 457.018 256.17 458.896 256.677 460.116C257.52 456.83 257.605 453.169 257.605 450.071V438.055C260.895 437.397 264.606 436.365 266.8 435.144L269.584 438.055C267.053 439.181 263.932 440.026 260.979 440.589V445.94H270.174V449.696L270.259 449.789Z" fill="#DE5419"/>
<path d="M285.612 456.83L286.287 460.398C281.984 462.463 277.345 464.528 273.717 466.124L272.114 461.994C274.223 461.243 277.092 460.21 280.213 458.99V446.973H273.211V442.936H280.213V435.52H284.009V457.488L285.696 456.83H285.612ZM295.482 461.618C296.579 461.618 296.748 460.022 297.001 454.014C297.844 454.765 299.447 455.61 300.459 455.892C300.122 462.933 299.278 465.561 295.82 465.561H292.192C288.818 465.561 287.805 464.153 287.805 459.459V435.52H291.602V442.936H299.531V446.973H291.602V459.553C291.602 461.337 291.77 461.712 292.783 461.712H295.482V461.618Z" fill="#DE5419"/>
<path d="M319.778 448.194C321.803 454.765 325.43 460.116 331.167 462.651C330.239 463.496 329.058 465.28 328.467 466.406C322.984 463.496 319.441 458.614 317.078 452.043C315.476 457.675 312.186 462.933 305.69 466.406C305.099 465.28 304.087 463.871 302.99 463.026C309.992 459.553 312.86 453.92 314.041 448.1H303.581V443.969H314.632C314.969 440.777 314.885 437.679 314.969 434.957H318.934C318.934 437.773 318.934 440.871 318.597 443.969H330.576V448.1H319.862L319.778 448.194Z" fill="#DE5419"/>
<path d="M361.705 438.524C360.609 441.81 359.259 445.565 357.993 448.569C360.609 451.573 361.115 454.296 361.115 456.455C361.115 458.614 360.609 460.68 359.428 461.524C358.921 461.994 358.162 462.276 357.319 462.463C356.644 462.557 355.631 462.557 354.703 462.463C354.703 461.337 354.366 459.647 353.775 458.614C354.535 458.614 355.125 458.708 355.716 458.614C356.138 458.614 356.644 458.52 356.897 458.333C357.487 457.957 357.656 457.112 357.656 456.079C357.656 454.202 356.981 451.761 354.535 449.132C355.378 446.692 356.475 443.312 357.234 440.683H353.354V466.594H349.81V437.585C348.883 440.12 347.87 442.561 346.52 444.814H348.798V448.288H344.243C343.568 449.132 342.977 449.977 342.302 450.728H347.786V466.031H344.327V464.716H339.434V466.406H336.144V456.173C335.638 456.549 335.132 456.924 334.626 457.206C334.204 456.361 333.191 454.671 332.517 453.826C335.216 452.418 337.663 450.541 339.772 448.288H333.276V444.814H338.591V441.998H334.626V438.524H338.591V435.238H341.965V438.524H345.086V440.214C345.677 438.993 346.099 437.773 346.605 436.459L349.81 437.398V436.74H359.09C359.09 436.646 361.705 438.43 361.705 438.43V438.524ZM344.411 453.92H339.519V456.079H344.411V453.92ZM344.411 461.524V459.084H339.519V461.524H344.411ZM342.64 444.72C343.23 443.875 343.737 442.936 344.327 441.904H342.049V444.72H342.64Z" fill="#DE5419"/>
<path d="M380.349 435.895C380.18 436.083 380.011 436.365 379.927 436.553C382.711 439.275 387.688 441.622 392.581 442.655C391.822 443.406 390.809 444.814 390.303 445.753C389.713 445.565 389.038 445.377 388.447 445.189V453.92H367.357V445.377C366.682 445.659 366.092 445.847 365.501 446.034C365.164 445.283 364.152 443.687 363.561 442.936C369.129 441.528 374.528 438.712 377.312 434.769L380.517 435.989L380.349 435.895ZM387.266 444.72C385.832 444.157 384.482 443.406 383.133 442.655V443.5H372.503V442.842C371.322 443.5 370.141 444.157 368.791 444.72H387.266ZM368.876 454.953H386.76V466.406H383.048V465.561H372.419V466.5H368.876V454.953ZM372.335 451.385C372.166 450.353 371.828 448.945 371.322 447.912L373.684 447.161H370.226V451.385H372.335ZM372.503 457.581V458.896H383.133V457.581H372.503ZM383.048 462.933V461.618H372.419V462.933H383.048ZM376.215 447.161H373.853C374.359 448.287 374.865 449.789 375.034 450.728L373.094 451.385H376.215V447.161ZM380.517 440.871C379.59 440.12 378.746 439.463 377.987 438.712C377.227 439.463 376.299 440.214 375.371 440.871H380.517ZM379.083 447.161V451.385H381.952L380.096 450.822C380.517 449.789 381.024 448.287 381.277 447.161H379.083ZM385.157 447.161H382.036L384.398 447.818C383.808 449.132 383.217 450.447 382.711 451.479H385.157V447.255V447.161Z" fill="#DE5419"/>
<path d="M405.994 437.116C403.801 442.655 400.258 448.381 396.968 451.949C396.293 451.104 394.69 449.32 393.762 448.475C396.968 445.471 400.174 440.589 402.03 435.614L406.079 437.022L405.994 437.116ZM414.515 452.7C416.961 456.455 419.745 461.243 421.264 464.341L417.552 466.5C417.13 465.561 416.624 464.435 415.949 463.214C401.27 464.529 399.161 464.716 397.727 465.28C397.474 464.435 396.799 462.182 396.209 460.961C397.221 460.68 398.065 459.741 399.246 458.239C400.511 456.831 404.307 451.01 406.754 445.377L410.972 447.349C408.61 451.949 405.741 456.455 402.789 460.116L413.924 459.271C412.912 457.582 411.984 455.798 410.972 454.296L414.515 452.512V452.7ZM415.105 435.708C416.371 440.402 419.155 445.189 422.951 447.724C422.107 448.569 420.842 450.541 420.251 451.761C416.793 448.851 414.093 444.251 412.406 439.838H407.513V435.708H415.19H415.105Z" fill="#DE5419"/>
<path d="M451.549 436.177V466.5H448.006V465.28H429.025V466.5H425.65V436.177H451.549ZM448.006 461.712V439.838H429.025V461.712H448.006ZM439.823 457.206C439.739 457.957 439.823 459.084 439.823 459.647C434.677 461.055 433.749 461.431 433.243 461.712C433.158 461.149 432.737 460.022 432.399 459.647C432.821 459.365 433.412 459.084 433.412 457.769V456.549C432.568 456.924 431.809 457.206 431.049 457.488C430.712 456.924 429.868 455.798 429.278 455.235C431.218 454.765 433.327 454.108 435.014 453.169H431.556V448.287H445.559V453.169H439.064C438.22 453.92 437.123 454.671 436.027 455.235V458.145L439.823 457.206ZM446.909 447.349H430.037V445.096H436.786V443.781H431.471V441.622H436.786V440.214H440.076V441.622H445.644V443.781H440.076V445.096H446.909V447.349ZM434.593 451.479H442.438V450.071H434.593V451.479ZM447.247 455.141C446.487 455.798 445.559 456.361 444.716 456.924C445.813 457.769 446.74 458.52 447.415 459.271L445.138 460.773C443.619 459.177 440.413 456.643 437.883 454.859L440.076 453.545C440.92 454.108 441.932 454.859 442.944 455.516C443.788 454.859 444.716 454.202 445.222 453.545L447.331 455.141H447.247Z" fill="#DE5419"/>
<path d="M468.083 459.553H472.892V443.687H468.843V440.589C471.12 440.12 472.639 439.463 474.073 438.524H477.363V459.553H481.581V463.59H468.083V459.553Z" fill="#DE5419"/>
<path d="M484.872 451.01C484.872 442.373 487.909 438.148 492.464 438.148C497.019 438.148 500.056 442.373 500.056 451.01C500.056 459.647 497.019 464.059 492.464 464.059C487.909 464.059 484.872 459.553 484.872 451.01ZM495.838 451.01C495.838 443.969 494.404 441.997 492.464 441.997C490.524 441.997 489.09 444.063 489.09 451.01C489.09 457.957 490.524 460.21 492.464 460.21C494.404 460.21 495.838 458.051 495.838 451.01Z" fill="#DE5419"/>
<path d="M503.6 448.006C503.6 446.128 504.781 444.72 506.384 444.72C507.987 444.72 509.168 446.128 509.168 448.006C509.168 449.883 507.987 451.198 506.384 451.198C504.781 451.198 503.6 449.789 503.6 448.006ZM503.6 460.867C503.6 459.084 504.781 457.581 506.384 457.581C507.987 457.581 509.168 458.99 509.168 460.867C509.168 462.745 507.987 464.153 506.384 464.153C504.781 464.153 503.6 462.745 503.6 460.867Z" fill="#DE5419"/>
<path d="M512.12 460.586L514.229 457.394C515.579 458.802 517.182 459.928 519.206 459.928C521.231 459.928 523.002 458.708 523.002 456.455C523.002 454.202 521.737 452.418 516.76 452.418V448.851C520.893 448.851 522.243 447.255 522.243 445.002C522.243 442.749 521.146 441.904 519.206 441.81C517.603 441.81 516.254 442.655 514.988 444.063L512.71 441.059C514.651 439.181 516.844 437.961 519.459 437.961C523.846 437.961 526.714 440.308 526.714 444.626C526.714 448.945 525.364 449.32 522.918 450.353V450.541C525.449 451.292 527.389 453.451 527.389 456.737C527.389 460.022 523.762 463.965 519.459 463.965C515.157 463.965 513.47 462.463 511.951 460.492L512.12 460.586Z" fill="#DE5419"/>
<path d="M530.51 451.01C530.51 442.373 533.547 438.148 538.103 438.148C542.658 438.148 545.695 442.373 545.695 451.01C545.695 459.647 542.658 464.059 538.103 464.059C533.547 464.059 530.51 459.553 530.51 451.01ZM541.561 451.01C541.561 443.969 540.127 441.997 538.187 441.997C536.247 441.997 534.813 444.063 534.813 451.01C534.813 457.957 536.247 460.21 538.187 460.21C540.127 460.21 541.561 458.051 541.561 451.01Z" fill="#DE5419"/>
<path d="M548.648 452.136H556.915V455.704H548.648V452.136Z" fill="#DE5419"/>
<path d="M560.88 459.553H565.689V443.687H561.64V440.589C563.917 440.12 565.436 439.463 566.87 438.524H570.16V459.553H574.378V463.59H560.88V459.553Z" fill="#DE5419"/>
<path d="M577.077 460.68L579.186 457.488C580.452 458.896 582.054 460.022 584.163 460.022C586.272 460.022 588.128 458.333 588.128 455.422C588.128 452.512 586.61 450.916 584.332 450.916C582.054 450.916 582.223 451.292 580.958 452.23L578.933 450.728L579.524 438.618H591.587V442.749H583.404L582.982 448.1C583.826 447.63 584.67 447.349 585.682 447.349C589.478 447.349 592.599 449.883 592.599 455.328C592.599 460.773 588.888 464.153 584.754 464.153C580.62 464.153 578.849 462.557 577.161 460.773L577.077 460.68Z" fill="#DE5419"/>
<path d="M596.312 448.006C596.312 446.128 597.493 444.72 599.096 444.72C600.699 444.72 601.88 446.128 601.88 448.006C601.88 449.883 600.699 451.198 599.096 451.198C597.493 451.198 596.312 449.789 596.312 448.006ZM596.312 460.867C596.312 459.084 597.493 457.581 599.096 457.581C600.699 457.581 601.88 458.99 601.88 460.867C601.88 462.745 600.699 464.153 599.096 464.153C597.493 464.153 596.312 462.745 596.312 460.867Z" fill="#DE5419"/>
<path d="M605.422 451.01C605.422 442.373 608.459 438.148 613.015 438.148C617.57 438.148 620.607 442.373 620.607 451.01C620.607 459.647 617.57 464.059 613.015 464.059C608.459 464.059 605.422 459.553 605.422 451.01ZM616.389 451.01C616.389 443.969 614.955 441.997 613.015 441.997C611.075 441.997 609.64 444.063 609.64 451.01C609.64 457.957 611.075 460.21 613.015 460.21C614.955 460.21 616.389 458.051 616.389 451.01Z" fill="#DE5419"/>
<path d="M623.307 451.01C623.307 442.373 626.344 438.148 630.9 438.148C635.455 438.148 638.492 442.373 638.492 451.01C638.492 459.647 635.455 464.059 630.9 464.059C626.344 464.059 623.307 459.553 623.307 451.01ZM634.358 451.01C634.358 443.969 632.924 441.997 630.984 441.997C629.044 441.997 627.61 444.063 627.61 451.01C627.61 457.957 629.044 460.21 630.984 460.21C632.924 460.21 634.358 458.051 634.358 451.01Z" fill="#DE5419"/>
<path d="M219.389 467.063C227.356 467.063 233.815 459.876 233.815 451.01C233.815 442.144 227.356 434.957 219.389 434.957C211.422 434.957 204.963 442.144 204.963 451.01C204.963 459.876 211.422 467.063 219.389 467.063Z" fill="#DE5419"/>
<path d="M226.222 443.594V457.582H224.282V456.549H215.087V457.675H213.231V443.594H226.307H226.222ZM224.198 454.577V452.7C223.945 452.7 223.692 452.7 223.439 452.7H222.089C220.655 452.7 220.317 451.855 220.317 450.071V445.565H218.799C218.799 449.79 218.377 452.324 215.93 453.732C215.762 453.263 215.256 452.512 214.918 452.137V454.484H224.113L224.198 454.577ZM215.003 445.565V452.137C216.858 450.916 217.027 449.039 217.027 445.565H215.003ZM224.198 445.565H222.089V450.165C222.089 450.728 222.089 451.01 222.426 451.01H223.439C223.692 451.01 224.029 451.01 224.282 451.01V445.659L224.198 445.565Z" fill="white"/>
<g clip-path="url(#clip0_887_1575)">
<path d="M182.959 207.832L183.967 201.485C192.3 194.322 198.655 188.148 203.033 182.98C207.411 177.803 209.914 173.203 210.552 169.172C211.003 166.337 210.7 164.136 209.655 162.57C208.603 161.003 206.9 160.22 204.529 160.22C201.581 160.22 198.241 162.108 194.507 165.892L190.085 159.924C192.959 157.039 195.707 154.92 198.337 153.576C200.967 152.233 203.907 151.565 207.174 151.565C211.87 151.565 215.403 153.123 217.766 156.231C220.137 159.338 220.914 163.46 220.099 168.587C218.766 176.995 211.648 187.2 198.752 199.185C202.122 198.79 204.863 198.592 206.959 198.592H217.692L216.225 207.849H182.959V207.832Z" fill="#E95513"/>
<path d="M250.98 206.077C247.195 211.056 242.714 213.537 237.521 213.537C232.329 213.537 228.625 211.047 226.396 206.077C224.166 201.098 223.788 193.959 225.262 184.653C226.736 175.347 229.351 168.282 233.114 163.46C236.877 158.638 241.358 156.223 246.566 156.223C251.773 156.223 255.491 158.638 257.728 163.46C259.958 168.282 260.336 175.355 258.862 184.653C257.388 193.951 254.758 201.098 250.973 206.077H250.98ZM234.558 184.843C232.433 198.254 233.862 204.956 238.847 204.956C243.832 204.956 247.388 198.254 249.514 184.843C251.64 171.431 250.21 164.729 245.225 164.729C240.24 164.729 236.684 171.431 234.558 184.843Z" fill="#E95513"/>
<path d="M261.965 203.167L262.973 196.82C271.306 189.656 277.661 183.482 282.039 178.314C286.417 173.137 288.92 168.538 289.557 164.507C290.009 161.671 289.706 159.47 288.661 157.904C287.609 156.338 285.906 155.555 283.535 155.555C280.587 155.555 277.247 157.443 273.513 161.226L269.091 155.258C271.965 152.373 274.713 150.255 277.343 148.911C279.972 147.567 282.913 146.9 286.18 146.9C290.876 146.9 294.409 148.458 296.772 151.565C299.142 154.673 299.92 158.794 299.105 163.922C297.772 172.33 290.654 182.534 277.758 194.52C281.128 194.124 283.869 193.926 285.965 193.926H296.698L295.231 203.183H261.965V203.167Z" fill="#E95513"/>
<path d="M315.253 207.948C308.587 207.948 303.402 205.434 299.683 200.405L305.357 193.39C308.209 197.125 311.557 198.988 315.401 198.988C318.038 198.988 320.305 198.089 322.201 196.3C324.097 194.512 325.29 192.022 325.801 188.84C326.305 185.658 325.934 183.194 324.69 181.455C323.446 179.715 321.549 178.841 319.001 178.841C317.572 178.841 316.32 179.056 315.246 179.476C314.172 179.897 312.787 180.655 311.098 181.751L307.127 178.471L312.727 151.598H339.29L337.823 160.855H319.779L316.986 172.577C319.164 171.53 321.238 171.011 323.201 171.011C327.631 171.011 331.045 172.503 333.46 175.487C335.875 178.471 336.616 182.872 335.69 188.7C334.764 194.52 332.342 199.185 328.408 202.697C324.475 206.208 320.098 207.956 315.268 207.956L315.253 207.948Z" fill="#E95513"/>
<path d="M391.844 163.963C392.437 178.487 398.459 188.164 409.785 193.201L411.422 184.612C403.881 180.754 399.829 173.871 399.14 163.955H414.903L416.214 157.08H387.37L389.511 145.878H415.622L416.918 139.151H390.807L393.089 129.507H385.289L383.007 139.151H357.052L355.763 145.878H381.726L379.578 157.08H350.897L349.586 163.955H365.171C362.097 173.278 355.519 180.391 345.26 185.263L343.719 193.341C350.371 190.901 356.482 187.134 361.993 181.867C366.474 177.721 370.015 171.794 372.563 163.955H378.267L367.022 215.935H374.815L386.067 163.955H391.859L391.844 163.963Z" fill="#E95513" stroke="white" stroke-width="8.26" stroke-linecap="round" stroke-linejoin="round"/>
<path d="M471.339 208.978L472.887 200.389C463.791 196.886 456.724 191.816 451.695 185.271C457.473 183.243 461.895 180.441 464.917 176.929C466.813 180.507 469.724 183.416 473.569 185.502L475.006 177.556C471.724 175.833 469.687 173.03 468.917 169.288C468.998 168.81 469.176 168.348 469.257 167.87L470.272 162.182H463.184L462.102 168.183C461.198 172.7 457.813 176.055 452.006 178.256L450.932 184.257C449.643 182.534 448.458 180.663 447.488 178.561L450.902 159.594H479.924L481.279 152.043H452.273L455.191 136.019H447.125L444.228 152.043H416.725L415.362 159.594H442.873L439.88 176.146C438.369 179.179 436.266 182.056 433.717 184.711L435.006 177.547C431.651 175.825 429.651 173.162 428.895 169.444C428.984 168.966 429.155 168.414 429.258 167.862L430.288 162.174H423.184L422.11 168.175C421.214 172.692 417.829 176.047 412.014 178.248L410.673 185.65C416.977 183.474 421.703 180.589 424.925 176.921C426.681 180.432 429.451 183.235 433.221 185.263C427.199 191.264 418.214 196.407 406.37 200.694L404.911 208.805C418.718 204.28 429.54 198.114 437.295 190.481L430.169 229.85H438.221L445.184 189.549C451.125 198.196 460.087 204.675 471.339 208.962" fill="#E95513"/>
<path d="M471.339 208.978L472.887 200.389C463.791 196.886 456.724 191.816 451.695 185.271C457.473 183.243 461.895 180.441 464.917 176.929C466.813 180.507 469.724 183.416 473.569 185.502L475.006 177.556C471.724 175.833 469.687 173.03 468.917 169.288C468.998 168.81 469.176 168.348 469.258 167.87L470.272 162.182H463.184L462.102 168.183C461.198 172.7 457.813 176.055 452.006 178.256L450.932 184.257C449.643 182.534 448.458 180.663 447.488 178.561L450.902 159.594H479.924L481.279 152.043H452.273L455.191 136.019H447.125L444.228 152.043H416.725L415.362 159.594H442.873L439.88 176.146C438.369 179.179 436.266 182.056 433.717 184.711L435.006 177.547C431.651 175.825 429.651 173.162 428.895 169.444C428.984 168.966 429.155 168.414 429.258 167.862L430.288 162.174H423.184L422.11 168.175C421.214 172.692 417.829 176.047 412.014 178.248L410.673 185.65C416.977 183.474 421.703 180.589 424.925 176.921C426.681 180.432 429.451 183.235 433.221 185.263C427.199 191.264 418.214 196.407 406.37 200.694L404.911 208.805C418.718 204.28 429.54 198.114 437.295 190.481L430.169 229.85H438.221L445.184 189.549C451.125 198.196 460.087 204.675 471.339 208.962" stroke="white" stroke-width="8.26" stroke-linecap="round" stroke-linejoin="round"/>
<path d="M576.692 168.299L577.914 162.43C584.159 159.05 590.796 154.59 596.677 149.982L598.951 139.481L553.981 139.357L552.093 148.466H585.536C580.885 151.788 575.248 155.258 570.47 157.574L568.24 168.299H541.211L539.3 177.481H566.322L562.5 195.847C562.226 197.158 561.67 197.545 560.152 197.619C558.907 197.685 551.448 197.693 547.33 197.504L545.285 207.288C551.641 207.288 563.115 207.247 563.3 207.247C567.233 207.247 569.789 203.422 570.774 198.641L574.781 177.481H601.262L603.173 168.299H576.692Z" fill="#E95513" stroke="white" stroke-width="8.26" stroke-linecap="round" stroke-linejoin="round"/>
<path d="M514.523 144.147H505.375C505.153 142.605 504.797 140.924 504.434 139.349H496.153L495.842 139.44C496.101 140.825 496.361 142.531 496.568 144.147H485.924L484.368 151.631H512.96L514.516 144.147H514.523Z" fill="#E95513" stroke="white" stroke-width="8.26" stroke-linecap="round" stroke-linejoin="round"/>
<path d="M481.531 185.922C480.991 187.571 476.42 192.377 474.205 192.748C474.205 192.748 472.457 202.071 472.517 202.071C477.05 200.076 485.013 192.871 487.805 186.095L481.531 185.922Z" fill="#E95513" stroke="white" stroke-width="8.26" stroke-linecap="round" stroke-linejoin="round"/>
<path d="M505.901 195.229C505.39 192.451 504.442 189.055 503.56 185.84L497.472 185.988C498.19 188.28 498.835 192.327 499.309 195.229H505.901Z" fill="#E95513" stroke="white" stroke-width="8.26" stroke-linecap="round" stroke-linejoin="round"/>
<path d="M517.619 176.237L518.612 171.456H531.441L530.449 176.237H517.619ZM521.101 159.495H533.93L532.938 164.284H520.108L521.101 159.495ZM523.575 147.609H536.404L535.412 152.39H522.582L523.575 147.609ZM532.049 192.962C530.901 197.751 530.819 199.466 529.575 199.466H527.804C527.056 199.466 526.967 199.235 527.382 197.224L530.093 184.183H536.441L545.715 139.58H518.004L508.731 184.183H512.212C510.168 191.462 507.39 197.57 499.746 200.372L498.005 208.78C510.368 206.695 516.375 195.666 519.649 184.183H522.723L519.997 197.306C518.456 204.717 519.153 207.264 524.886 207.264H528.841C535.093 207.264 535.819 203.521 538.656 192.962H532.049Z" fill="#E95513" stroke="white" stroke-width="8.26" stroke-linecap="round" stroke-linejoin="round"/>
<path d="M503.731 151.796L503.716 151.788V151.796H503.731Z" fill="#E95513" stroke="white" stroke-width="8.26" stroke-linecap="round" stroke-linejoin="round"/>
<path d="M510.634 153.511H503.094C502.035 156.297 500.605 159.528 499.383 162.133H480.954L479.354 169.848H492.39L491.287 175.174H478.931L477.339 182.815H489.694L484.346 208.517H491.716L497.064 182.815H506.827L508.412 175.174H498.65L499.761 169.848H510.612L512.22 162.133H506.212C507.56 159.536 509.057 156.561 510.642 153.511" fill="#E95513"/>
<path d="M510.634 153.511H503.094C502.035 156.297 500.605 159.528 499.383 162.133H480.954L479.354 169.848H492.39L491.287 175.174H478.931L477.339 182.815H489.694L484.346 208.517H491.716L497.064 182.815H506.827L508.412 175.174H498.65L499.761 169.848H510.612L512.22 162.133H506.212C507.56 159.536 509.057 156.561 510.642 153.511" stroke="white" stroke-width="8.26" stroke-linecap="round" stroke-linejoin="round"/>
<path d="M494.442 161.548C494.531 159.792 494.494 155.942 494.257 153.684H487.561L487.405 153.717C487.627 155.654 487.694 159.462 487.635 161.548H494.435H494.442Z" fill="#E95513" stroke="white" stroke-width="8.26" stroke-linecap="round" stroke-linejoin="round"/>
<path d="M391.844 163.963C392.437 178.487 398.459 188.164 409.785 193.201L411.422 184.612C403.881 180.754 399.829 173.871 399.14 163.955H414.903L416.214 157.08H387.37L389.511 145.878H415.622L416.918 139.151H390.807L393.089 129.507H385.289L383.007 139.151H357.052L355.763 145.878H381.726L379.578 157.08H350.897L349.586 163.955H365.171C362.097 173.278 355.519 180.391 345.26 185.263L343.719 193.341C350.371 190.901 356.482 187.134 361.993 181.867C366.474 177.721 370.015 171.794 372.563 163.955H378.267L367.022 215.935H374.815L386.067 163.955H391.859L391.844 163.963Z" fill="#E95513"/>
<path d="M471.339 208.978L472.887 200.389C463.791 196.886 456.724 191.816 451.695 185.271C457.473 183.243 461.895 180.441 464.917 176.929C466.813 180.507 469.724 183.416 473.569 185.502L475.006 177.556C471.724 175.833 469.687 173.03 468.917 169.288C468.998 168.81 469.176 168.348 469.257 167.87L470.272 162.182H463.184L462.102 168.183C461.198 172.7 457.813 176.055 452.006 178.256L450.932 184.257C449.643 182.534 448.458 180.663 447.488 178.561L450.902 159.594H479.924L481.279 152.043H452.273L455.191 136.019H447.125L444.228 152.043H416.725L415.362 159.594H442.873L439.88 176.146C438.369 179.179 436.266 182.056 433.717 184.711L435.006 177.547C431.651 175.825 429.651 173.162 428.895 169.444C428.984 168.966 429.155 168.414 429.258 167.862L430.288 162.174H423.184L422.11 168.175C421.214 172.692 417.829 176.047 412.014 178.248L410.673 185.65C416.977 183.474 421.703 180.589 424.925 176.921C426.681 180.432 429.451 183.235 433.221 185.263C427.199 191.264 418.214 196.407 406.37 200.694L404.911 208.805C418.718 204.28 429.54 198.114 437.295 190.481L430.169 229.85H438.221L445.184 189.549C451.125 198.196 460.087 204.675 471.339 208.962" fill="#E95513"/>
<path d="M576.692 168.299L577.914 162.43C584.159 159.05 590.796 154.59 596.677 149.982L598.951 139.481L553.981 139.357L552.093 148.466H585.536C580.885 151.788 575.248 155.258 570.47 157.574L568.24 168.299H541.211L539.3 177.481H566.322L562.5 195.847C562.226 197.158 561.67 197.545 560.152 197.619C558.907 197.685 551.448 197.693 547.33 197.504L545.285 207.288C551.641 207.288 563.115 207.247 563.3 207.247C567.233 207.247 569.789 203.422 570.774 198.641L574.781 177.481H601.262L603.173 168.299H576.692Z" fill="#E95513"/>
<path d="M514.523 144.147H505.375C505.153 142.605 504.797 140.924 504.434 139.349H496.153L495.842 139.44C496.101 140.825 496.361 142.531 496.568 144.147H485.924L484.368 151.631H512.96L514.516 144.147H514.523Z" fill="#E95513"/>
<path d="M481.531 185.922C480.991 187.571 476.42 192.377 474.205 192.748C474.205 192.748 472.457 202.071 472.517 202.071C477.05 200.076 485.013 192.871 487.805 186.095L481.531 185.922Z" fill="#E95513"/>
<path d="M505.901 195.229C505.39 192.451 504.442 189.055 503.56 185.84L497.472 185.988C498.19 188.28 498.835 192.327 499.309 195.229H505.901Z" fill="#E95513"/>
<path d="M517.619 176.237L518.612 171.456H531.441L530.449 176.237H517.619ZM521.101 159.495H533.93L532.938 164.284H520.108L521.101 159.495ZM523.575 147.609H536.404L535.412 152.39H522.582L523.575 147.609ZM532.049 192.962C530.901 197.751 530.819 199.466 529.575 199.466H527.804C527.056 199.466 526.967 199.235 527.382 197.224L530.093 184.183H536.441L545.715 139.58H518.004L508.731 184.183H512.212C510.168 191.462 507.39 197.57 499.746 200.372L498.005 208.78C510.368 206.695 516.375 195.666 519.649 184.183H522.723L519.997 197.306C518.456 204.717 519.153 207.264 524.886 207.264H528.841C535.093 207.264 535.819 203.521 538.656 192.962H532.049Z" fill="#E95513"/>
<path d="M503.731 151.796L503.716 151.788V151.796H503.731Z" fill="#E95513"/>
<path d="M510.634 153.511H503.094C502.035 156.297 500.605 159.528 499.383 162.133H480.954L479.354 169.848H492.39L491.287 175.174H478.931L477.339 182.815H489.694L484.346 208.517H491.716L497.064 182.815H506.827L508.412 175.174H498.65L499.761 169.848H510.612L512.22 162.133H506.212C507.56 159.536 509.057 156.561 510.642 153.511" fill="#E95513"/>
<path d="M494.442 161.548C494.531 159.792 494.494 155.942 494.257 153.684H487.561L487.405 153.717C487.627 155.654 487.694 159.462 487.635 161.548H494.435H494.442Z" fill="#E95513"/>
</g>
<defs>
<filter id="filter0_d_887_1575" x="21" y="33" width="751.388" height="567.662" filterUnits="userSpaceOnUse" color-interpolation-filters="sRGB">
<feFlood flood-opacity="0" result="BackgroundImageFix"/>
<feColorMatrix in="SourceAlpha" type="matrix" values="0 0 0 0 0 0 0 0 0 0 0 0 0 0 0 0 0 0 127 0" result="hardAlpha"/>
<feOffset dx="10.9" dy="16.7"/>
<feColorMatrix type="matrix" values="0 0 0 0 0.529412 0 0 0 0 0.27451 0 0 0 0 0.137255 0 0 0 1 0"/>
<feBlend mode="normal" in2="BackgroundImageFix" result="effect1_dropShadow_887_1575"/>
<feBlend mode="normal" in="SourceGraphic" in2="effect1_dropShadow_887_1575" result="shape"/>
</filter>
<clipPath id="clip0_887_1575">
<rect width="423.273" height="107.152" fill="white" transform="translate(182.959 126.119)"/>
</clipPath>
</defs>
</svg>
