<svg width="148" height="56" viewBox="0 0 148 56" fill="none" xmlns="http://www.w3.org/2000/svg">
<path d="M29.1796 20.294C29.5012 27.398 32.7773 32.1333 38.9368 34.5953L39.8262 30.3951C35.7273 28.5081 33.5226 25.1425 33.1455 20.2918H41.7205L42.4325 16.9307H26.7442L27.9087 11.4539H42.1086L42.814 8.16382H28.614L29.8539 3.44629H25.613L24.3709 8.16382H10.2575L9.55655 11.4539H23.6744L22.5055 16.9307H6.90598L6.19177 20.2918H14.6669C12.9945 24.8539 9.41681 28.3305 3.83842 30.7148L3 34.6664C6.61764 33.472 9.94249 31.6294 12.9369 29.052C15.3745 27.0229 17.2998 24.128 18.686 20.2918H21.7891L15.6739 45.7176H19.9126L26.0322 20.2918H29.1818L29.1796 20.294Z" fill="#EA5514" stroke="white" stroke-width="6" stroke-linecap="round" stroke-linejoin="round"/>
<path d="M72.4093 42.31L73.2522 38.1097C68.3037 36.3959 64.4643 33.9183 61.7272 30.7148C64.8702 29.7225 67.2745 28.3505 68.9203 26.6345C69.9495 28.3838 71.5332 29.8069 73.6248 30.8281L74.4078 26.9408C72.6222 26.0972 71.5154 24.7252 71.0962 22.8959C71.1406 22.6628 71.236 22.4342 71.2803 22.2033L71.8326 19.4238H67.9776L67.3899 22.3587C66.8997 24.5698 65.0565 26.2082 61.898 27.2827L61.3124 30.2198C60.6137 29.3762 59.9683 28.4637 59.4382 27.4359L61.2947 18.1606H77.0783L77.8147 14.4665H62.0377L63.6258 6.62988H59.2408L57.6637 14.4665H42.7074L41.9666 18.1606H56.9251L55.2993 26.257C54.4786 27.74 53.3319 29.1497 51.95 30.4462L52.6487 26.9408C50.8233 26.0972 49.7386 24.7963 49.3239 22.9759C49.3727 22.7405 49.4636 22.4741 49.5213 22.2033L50.0802 19.4238H46.2186L45.633 22.3587C45.1473 24.5698 43.3041 26.2082 40.1456 27.2827L39.4136 30.9013C42.8427 29.8379 45.4134 28.4282 47.1635 26.6322C48.1172 28.3505 49.6233 29.7203 51.6772 30.7126C48.4012 33.6453 43.5148 36.165 37.0758 38.2629L36.2817 42.2323C43.7898 40.0189 49.6788 37.0041 53.8953 33.2679L50.0225 52.5265H54.401L58.185 32.8128C61.4144 37.0441 66.2897 40.2121 72.4093 42.3078" fill="#EA5514"/>
<path d="M72.4093 42.31L73.2522 38.1097C68.3037 36.3959 64.4643 33.9183 61.7272 30.7148C64.8702 29.7225 67.2745 28.3505 68.9203 26.6345C69.9495 28.3838 71.5332 29.8069 73.6248 30.8281L74.4078 26.9408C72.6222 26.0972 71.5154 24.7252 71.0962 22.8959C71.1406 22.6628 71.236 22.4342 71.2803 22.2033L71.8326 19.4238H67.9776L67.3899 22.3587C66.8997 24.5698 65.0565 26.2082 61.898 27.2827L61.3124 30.2198C60.6137 29.3762 59.9683 28.4637 59.4382 27.4359L61.2947 18.1606H77.0783L77.8147 14.4665H62.0377L63.6258 6.62988H59.2408L57.6637 14.4665H42.7074L41.9666 18.1606H56.9251L55.2993 26.257C54.4786 27.74 53.3319 29.1497 51.95 30.4462L52.6487 26.9408C50.8233 26.0972 49.7386 24.7963 49.3239 22.9759C49.3727 22.7405 49.4636 22.4741 49.5213 22.2033L50.0802 19.4238H46.2186L45.633 22.3587C45.1473 24.5698 43.3041 26.2082 40.1456 27.2827L39.4136 30.9013C42.8427 29.8379 45.4134 28.4282 47.1635 26.6322C48.1172 28.3505 49.6233 29.7203 51.6772 30.7126C48.4012 33.6453 43.5148 36.165 37.0758 38.2629L36.2817 42.2323C43.7898 40.0189 49.6787 37.0041 53.8953 33.2679L50.0225 52.5265H54.401L58.185 32.8128C61.4144 37.0441 66.2897 40.2121 72.4093 42.3078" stroke="white" stroke-width="6" stroke-linecap="round" stroke-linejoin="round"/>
<path d="M129.704 22.4097L130.367 19.5414C133.763 17.8898 137.372 15.7097 140.57 13.4542L141.808 8.31704L117.352 8.25488L116.322 12.7082H134.508C131.98 14.3311 128.914 16.0316 126.315 17.1616L125.102 22.4097H110.405L109.367 26.9008H124.063L121.987 35.8852C121.839 36.5268 121.535 36.7155 120.712 36.7532C120.036 36.7865 115.979 36.791 113.741 36.6955L112.627 41.4819C116.085 41.4819 122.322 41.4597 122.424 41.4597C124.565 41.4597 125.953 39.5904 126.488 37.2527L128.668 26.903H143.068L144.106 22.4119H129.706L129.704 22.4097Z" fill="#EA5514" stroke="white" stroke-width="6" stroke-linecap="round" stroke-linejoin="round"/>
<path d="M95.8917 10.6014H90.9188C90.7968 9.84663 90.6061 9.02301 90.4087 8.25488H85.9038L85.7352 8.29706C85.875 8.97639 86.0169 9.80667 86.1301 10.5992H80.3409L79.4937 14.2622H95.0444L95.8917 10.5992V10.6014Z" fill="#EA5514" stroke="white" stroke-width="6" stroke-linecap="round" stroke-linejoin="round"/>
<path d="M77.95 31.0342C77.655 31.8423 75.1708 34.1933 73.9664 34.3731C73.9664 34.3731 73.0171 38.933 73.0481 38.933C75.5146 37.9562 79.8442 34.4352 81.3614 31.1185L77.95 31.0342Z" fill="#EA5514" stroke="white" stroke-width="6" stroke-linecap="round" stroke-linejoin="round"/>
<path d="M91.2053 35.5834C90.9258 34.2248 90.409 32.5642 89.9321 30.9902L86.6206 31.0635C87.0132 32.1846 87.3614 34.1649 87.6187 35.5834H91.2053Z" fill="#EA5514" stroke="white" stroke-width="6" stroke-linecap="round" stroke-linejoin="round"/>
<path d="M97.5777 26.2973L98.1189 23.9574H105.097L104.556 26.2973H97.5777ZM99.4719 18.1054H106.448L105.906 20.4453H98.9285L99.4697 18.1054H99.4719ZM100.814 12.2934H107.792L107.251 14.6333H100.273L100.814 12.2934ZM105.425 34.478C104.802 36.8179 104.758 37.6593 104.079 37.6593H103.114C102.706 37.6593 102.657 37.5461 102.886 36.5649L104.361 30.1845H107.812L112.856 8.36621H97.7862L92.7424 30.1845H94.6344C93.5231 33.7432 92.0104 36.7314 87.856 38.1011L86.9111 42.2126C93.634 41.1936 96.9012 35.7967 98.6801 30.1823H100.35L98.8664 36.6004C98.0302 40.2234 98.4095 41.4689 101.526 41.4689H103.677C107.075 41.4689 107.472 39.6374 109.016 34.4758H105.423L105.425 34.478Z" fill="#EA5514" stroke="white" stroke-width="6" stroke-linecap="round" stroke-linejoin="round"/>
<path d="M90.0241 14.3399L90.0161 14.3379V14.3399H90.0241Z" fill="#EA5514" stroke="white" stroke-width="6" stroke-linecap="round" stroke-linejoin="round"/>
<path d="M93.7783 15.1768H89.6771C89.1026 16.5398 88.3219 18.1205 87.6609 19.3948H77.6398L76.7681 23.1688H83.857L83.2559 25.7729H76.5374L75.6724 29.5092H82.3908L79.4852 42.0789H83.4932L86.3988 29.5092H91.7066L92.5695 25.7729H87.2617L87.865 23.1688H93.7672L94.6389 19.3948H91.3739C92.1081 18.1249 92.9221 16.6686 93.7805 15.1768" fill="#EA5514"/>
<path d="M93.7783 15.1768H89.6771C89.1026 16.5398 88.3219 18.1205 87.6609 19.3948H77.6398L76.7681 23.1688H83.857L83.2559 25.7729H76.5374L75.6724 29.5092H82.3908L79.4852 42.0789H83.4932L86.3988 29.5092H91.7066L92.5695 25.7729H87.2617L87.865 23.1688H93.7672L94.6389 19.3948H91.3739C92.1081 18.1249 92.9221 16.6686 93.7805 15.1768" stroke="white" stroke-width="6" stroke-linecap="round" stroke-linejoin="round"/>
<path d="M84.9745 19.111C85.0211 18.2518 85.0034 16.3715 84.8747 15.2637H81.2349L81.1528 15.2814C81.2726 16.2294 81.3103 18.092 81.277 19.111H84.9767H84.9745Z" fill="#EA5514" stroke="white" stroke-width="6" stroke-linecap="round" stroke-linejoin="round"/>
<path d="M29.1796 19.8477C29.5012 26.9518 32.7773 31.6871 38.9368 34.1491L39.8262 29.9488C35.7273 28.0618 33.5226 24.6962 33.1455 19.8455H41.7205L42.4325 16.4844H26.7442L27.9087 11.0076H42.1086L42.814 7.71754H28.614L29.8539 3H25.613L24.3709 7.71754H10.2575L9.55655 11.0076H23.6744L22.5055 16.4844H6.90598L6.19177 19.8455H14.6669C12.9945 24.4076 9.41681 27.8842 3.83842 30.2685L3 34.2201C6.61764 33.0257 9.94249 31.1831 12.9369 28.6057C15.3745 26.5766 17.2998 23.6817 18.686 19.8455H21.7891L15.6739 45.2713H19.9126L26.0322 19.8455H29.1818L29.1796 19.8477Z" fill="#EA5514"/>
<path d="M72.4093 41.8637L73.2522 37.6634C68.3037 35.9496 64.4643 33.472 61.7272 30.2686C64.8702 29.2762 67.2745 27.9042 68.9203 26.1882C69.9495 27.9375 71.5332 29.3606 73.6248 30.3818L74.4078 26.4945C72.6222 25.6509 71.5154 24.2789 71.0962 22.4497C71.1406 22.2166 71.236 21.9879 71.2803 21.757L71.8326 18.9775H67.9776L67.3899 21.9124C66.8997 24.1235 65.0565 25.7619 61.898 26.8364L61.3124 29.7735C60.6137 28.9299 59.9683 28.0175 59.4382 26.9896L61.2947 17.7144H77.0783L77.8147 14.0203H62.0377L63.6258 6.18359H59.2408L57.6637 14.0203H42.7074L41.9666 17.7144H56.9251L55.2993 25.8108C54.4786 27.2937 53.3319 28.7034 51.95 29.9999L52.6487 26.4945C50.8233 25.6509 49.7386 24.35 49.3239 22.5296C49.3727 22.2943 49.4636 22.0278 49.5213 21.757L50.0802 18.9775H46.2186L45.633 21.9124C45.1473 24.1235 43.3041 25.7619 40.1456 26.8364L39.4136 30.455C42.8427 29.3916 45.4134 27.9819 47.1635 26.1859C48.1172 27.9042 49.6233 29.274 51.6772 30.2663C48.4012 33.199 43.5148 35.7187 37.0758 37.8166L36.2817 41.786C43.7898 39.5726 49.6788 36.5579 53.8953 32.8216L50.0225 52.0802H54.401L58.185 32.3665C61.4144 36.5978 66.2897 39.7658 72.4093 41.8615" fill="#EA5514"/>
<path d="M129.703 21.9634L130.367 19.0952C133.763 17.4435 137.371 15.2634 140.57 13.0079L141.807 7.87075L117.351 7.80859L116.322 12.2619H134.508C131.979 13.8848 128.914 15.5853 126.314 16.7153L125.101 21.9634H110.404L109.366 26.4545H124.063L121.987 35.4389C121.838 36.0805 121.534 36.2692 120.712 36.3069C120.035 36.3402 115.978 36.3447 113.74 36.2492L112.627 41.0356C116.085 41.0356 122.322 41.0134 122.424 41.0134C124.564 41.0134 125.953 39.1441 126.487 36.8064L128.668 26.4567H143.067L144.105 21.9656H129.706L129.703 21.9634Z" fill="#EA5514"/>
<path d="M95.8917 10.1552H90.9188C90.7968 9.40035 90.6061 8.57672 90.4087 7.80859H85.9038L85.7352 7.85077C85.875 8.5301 86.0169 9.36039 86.1301 10.1529H80.3409L79.4937 13.816H95.0444L95.8917 10.1529V10.1552Z" fill="#EA5514"/>
<path d="M77.95 30.5879C77.655 31.396 75.1708 33.747 73.9664 33.9268C73.9664 33.9268 73.0171 38.4867 73.0481 38.4867C75.5146 37.5099 79.8442 33.989 81.3614 30.6722L77.95 30.5879Z" fill="#EA5514"/>
<path d="M91.2048 35.1372C90.9254 33.7785 90.4085 32.1179 89.9317 30.5439L86.6201 30.6172C87.0127 31.7383 87.3609 33.7186 87.6182 35.1372H91.2048Z" fill="#EA5514"/>
<path d="M97.5772 25.851L98.1184 23.5111H105.096L104.555 25.851H97.5772ZM99.4715 17.6591H106.447L105.906 19.999H98.928L99.4692 17.6591H99.4715ZM100.813 11.8471H107.791L107.25 14.187H100.272L100.813 11.8471ZM105.425 34.0318C104.801 36.3717 104.757 37.213 104.078 37.213H103.113C102.705 37.213 102.657 37.0998 102.885 36.1186L104.36 29.7382H107.811L112.855 7.91992H97.7857L92.7419 29.7382H94.6339C93.5226 33.2969 92.0099 36.2851 87.8555 37.6548L86.9106 41.7663C93.6335 40.7473 96.9007 35.3504 98.6796 29.736H100.35L98.8659 36.1541C98.0297 39.7772 98.409 41.0226 101.525 41.0226H103.677C107.075 41.0226 107.472 39.1911 109.016 34.0295H105.422L105.425 34.0318Z" fill="#EA5514"/>
<path d="M90.0241 13.8936L90.0161 13.8916V13.8936H90.0241Z" fill="#EA5514"/>
<path d="M93.7778 14.7305H89.6766C89.1022 16.0936 88.3214 17.6742 87.6604 18.9485H77.6393L76.7676 22.7225H83.8565L83.2554 25.3266H76.5369L75.6719 29.0629H82.3903L79.4847 41.6326H83.4927L86.3984 29.0629H91.7061L92.569 25.3266H87.2612L87.8645 22.7225H93.7667L94.6384 18.9485H91.3734C92.1076 17.6786 92.9216 16.2223 93.78 14.7305" fill="#EA5514"/>
<path d="M84.9745 18.6647C85.0211 17.8055 85.0034 15.9252 84.8747 14.8174H81.2349L81.1528 14.8351C81.2726 15.7831 81.3103 17.6457 81.277 18.6647H84.9767H84.9745Z" fill="#EA5514"/>
</svg>
