<svg width="82" height="79" viewBox="0 0 82 79" fill="none" xmlns="http://www.w3.org/2000/svg">
<path fill-rule="evenodd" clip-rule="evenodd" d="M81.3032 39.5C81.3032 60.832 63.2162 78.125 40.9048 78.125C18.5933 78.125 0.506348 60.832 0.506348 39.5C0.506348 18.168 18.5933 0.875 40.9048 0.875C63.2162 0.875 81.3032 18.168 81.3032 39.5ZM55.8165 53.7571C55.0181 54.5205 53.7237 54.5205 52.9253 53.7571L40.9048 42.2643L28.8842 53.7571C28.0859 54.5205 26.7914 54.5205 25.9931 53.7571C25.1947 52.9938 25.1947 51.7562 25.9931 50.9929L38.0136 39.5L25.9931 28.0071C25.1947 27.2438 25.1947 26.0062 25.9931 25.2429C26.7914 24.4795 28.0859 24.4795 28.8842 25.2429L40.9048 36.7357L52.9253 25.2429C53.7237 24.4795 55.0181 24.4795 55.8165 25.2429C56.6149 26.0062 56.6149 27.2438 55.8165 28.0071L43.796 39.5L55.8165 50.9929C56.6149 51.7562 56.6149 52.9938 55.8165 53.7571Z" fill="#39BF63"/>
</svg>
