<svg width="320" height="84" viewBox="0 0 320 84" fill="none" xmlns="http://www.w3.org/2000/svg">
<circle cx="41.5063" cy="41.5063" r="41.5063" fill="white"/>
<circle cx="120.502" cy="41.5063" r="41.5063" fill="white"/>
<circle cx="199.497" cy="41.5063" r="41.5063" fill="white"/>
<circle cx="278.494" cy="41.5063" r="41.5063" fill="white"/>
<path d="M21.72 13.3H28.08V69.16H21.72V13.3ZM14.1 33.04H33.84V39.76H14.1V33.04ZM21.66 36.58L25.68 38.56C25.2 40.56 24.62 42.68 23.94 44.92C23.3 47.12 22.58 49.32 21.78 51.52C20.98 53.72 20.12 55.8 19.2 57.76C18.32 59.72 17.4 61.42 16.44 62.86C16.2 62.1 15.88 61.28 15.48 60.4C15.12 59.48 14.72 58.58 14.28 57.7C13.88 56.78 13.48 56 13.08 55.36C14.28 53.88 15.42 52.06 16.5 49.9C17.62 47.7 18.62 45.44 19.5 43.12C20.42 40.76 21.14 38.58 21.66 36.58ZM28.26 40.24C28.62 40.64 29.16 41.32 29.88 42.28C30.64 43.24 31.44 44.3 32.28 45.46C33.16 46.58 33.96 47.64 34.68 48.64C35.4 49.6 35.9 50.3 36.18 50.74L31.62 56.26C31.26 55.38 30.8 54.36 30.24 53.2C29.72 52 29.12 50.76 28.44 49.48C27.8 48.2 27.16 47 26.52 45.88C25.88 44.72 25.34 43.74 24.9 42.94L28.26 40.24ZM14.04 17.92L18.72 16.78C19.24 18.18 19.7 19.72 20.1 21.4C20.54 23.04 20.9 24.64 21.18 26.2C21.46 27.72 21.64 29.1 21.72 30.34L16.74 31.6C16.7 30.36 16.54 28.96 16.26 27.4C16.02 25.84 15.7 24.22 15.3 22.54C14.94 20.86 14.52 19.32 14.04 17.92ZM30.66 16.42L36.36 17.62C35.88 19.18 35.38 20.82 34.86 22.54C34.34 24.22 33.82 25.84 33.3 27.4C32.82 28.92 32.34 30.28 31.86 31.48L27.6 30.22C28 28.98 28.4 27.56 28.8 25.96C29.2 24.36 29.56 22.72 29.88 21.04C30.24 19.36 30.5 17.82 30.66 16.42ZM37.08 17.44H68.4V22.54H37.08V17.44ZM38.58 24.94H67.08V29.74H38.58V24.94ZM35.4 32.38H69.96V37.54H35.4V32.38ZM48.78 13.12H55.56V35.26H48.78V13.12ZM38.58 40H61.38V45.1H45.24V69.4H38.58V40ZM59.7 40H66.48V62.92C66.48 64.4 66.3 65.56 65.94 66.4C65.58 67.24 64.88 67.9 63.84 68.38C62.8 68.82 61.56 69.1 60.12 69.22C58.68 69.34 57 69.38 55.08 69.34C54.96 68.46 54.72 67.48 54.36 66.4C54 65.36 53.62 64.44 53.22 63.64C54.34 63.68 55.44 63.72 56.52 63.76C57.6 63.76 58.34 63.74 58.74 63.7C59.14 63.7 59.4 63.64 59.52 63.52C59.64 63.36 59.7 63.12 59.7 62.8V40ZM42.3 47.98H62.04V52.72H42.3V47.98ZM42.3 55.6H62.04V60.28H42.3V55.6ZM136.5 22.48L143.88 25.36C142.92 27.08 141.88 28.82 140.76 30.58C139.68 32.34 138.6 34.02 137.52 35.62C136.44 37.22 135.4 38.64 134.4 39.88L128.4 37.18C129.36 35.9 130.34 34.42 131.34 32.74C132.34 31.06 133.28 29.32 134.16 27.52C135.08 25.72 135.86 24.04 136.5 22.48ZM97.68 28L103.74 25.42C105.02 27.06 106.22 28.88 107.34 30.88C108.46 32.88 109.24 34.66 109.68 36.22L103.08 39.04C102.72 37.52 102.02 35.74 100.98 33.7C99.98 31.62 98.88 29.72 97.68 28ZM113.52 25.66L120.06 23.44C120.7 24.52 121.3 25.68 121.86 26.92C122.42 28.16 122.9 29.38 123.3 30.58C123.74 31.78 124.04 32.86 124.2 33.82L117.18 36.34C117.02 34.9 116.58 33.18 115.86 31.18C115.18 29.18 114.4 27.34 113.52 25.66ZM115.98 36.04H123.66V69.16H115.98V36.04ZM93.24 41.08H146.82V48.16H93.24V41.08ZM138.78 13.24L144.48 19.78C141 20.38 137.26 20.92 133.26 21.4C129.26 21.88 125.16 22.3 120.96 22.66C116.76 22.98 112.54 23.26 108.3 23.5C104.1 23.74 100.02 23.92 96.06 24.04C96.02 23.36 95.9 22.6 95.7 21.76C95.5 20.92 95.26 20.1 94.98 19.3C94.74 18.46 94.5 17.76 94.26 17.2C98.18 17.08 102.16 16.9 106.2 16.66C110.28 16.42 114.28 16.14 118.2 15.82C122.12 15.46 125.82 15.08 129.3 14.68C132.82 14.24 135.98 13.76 138.78 13.24ZM114.48 43.6L120.9 46.3C119.46 48.5 117.82 50.64 115.98 52.72C114.18 54.8 112.22 56.76 110.1 58.6C108.02 60.44 105.84 62.12 103.56 63.64C101.28 65.16 98.98 66.48 96.66 67.6C96.26 66.92 95.74 66.18 95.1 65.38C94.5 64.58 93.86 63.8 93.18 63.04C92.5 62.28 91.86 61.64 91.26 61.12C93.54 60.24 95.8 59.16 98.04 57.88C100.28 56.6 102.42 55.2 104.46 53.68C106.54 52.16 108.42 50.54 110.1 48.82C111.82 47.1 113.28 45.36 114.48 43.6ZM125.1 43.6C126.3 45.32 127.76 47.02 129.48 48.7C131.24 50.38 133.16 52 135.24 53.56C137.32 55.08 139.48 56.48 141.72 57.76C144 59 146.28 60.06 148.56 60.94C148 61.42 147.38 62.04 146.7 62.8C146.02 63.56 145.36 64.34 144.72 65.14C144.12 65.98 143.6 66.74 143.16 67.42C140.88 66.34 138.6 65.04 136.32 63.52C134.04 62 131.84 60.32 129.72 58.48C127.6 56.64 125.62 54.7 123.78 52.66C121.94 50.58 120.3 48.46 118.86 46.3L125.1 43.6ZM173.52 17.02H222.72V23.14H173.52V17.02ZM176.34 26.2H220.38V31.9H176.34V26.2ZM171.3 35.26H224.58V41.38H171.3V35.26ZM194.22 13H201.48V40.36H194.22V13ZM194.28 37.48L200.52 40.48C198.88 42.2 197.02 43.86 194.94 45.46C192.9 47.06 190.7 48.56 188.34 49.96C185.98 51.32 183.56 52.56 181.08 53.68C178.6 54.76 176.12 55.68 173.64 56.44C173.32 55.88 172.88 55.24 172.32 54.52C171.8 53.8 171.24 53.1 170.64 52.42C170.08 51.7 169.54 51.1 169.02 50.62C171.38 49.98 173.78 49.2 176.22 48.28C178.66 47.36 181 46.32 183.24 45.16C185.48 44 187.54 42.78 189.42 41.5C191.34 40.22 192.96 38.88 194.28 37.48ZM204.66 38.62C205.7 42.58 207.16 46.18 209.04 49.42C210.92 52.66 213.32 55.42 216.24 57.7C219.16 59.94 222.66 61.64 226.74 62.8C226.22 63.32 225.66 63.94 225.06 64.66C224.46 65.42 223.9 66.2 223.38 67C222.86 67.84 222.42 68.58 222.06 69.22C217.62 67.7 213.84 65.58 210.72 62.86C207.64 60.1 205.08 56.8 203.04 52.96C201.04 49.12 199.38 44.76 198.06 39.88L204.66 38.62ZM218.46 42.22L224.46 46.72C222.94 47.8 221.36 48.88 219.72 49.96C218.08 51 216.46 51.98 214.86 52.9C213.26 53.82 211.76 54.64 210.36 55.36L205.86 51.46C207.18 50.66 208.6 49.74 210.12 48.7C211.68 47.66 213.18 46.58 214.62 45.46C216.1 44.34 217.38 43.26 218.46 42.22ZM175.38 62.62C177.82 62.18 180.6 61.66 183.72 61.06C186.88 60.42 190.18 59.74 193.62 59.02C197.1 58.3 200.54 57.56 203.94 56.8L204.6 63.28C201.48 64 198.3 64.72 195.06 65.44C191.86 66.16 188.76 66.84 185.76 67.48C182.8 68.12 180.06 68.72 177.54 69.28L175.38 62.62ZM183.6 50.44L188.34 45.7L190.86 46.36V63.58H183.6V50.44ZM265.26 17.8H303.48V28.9H296.58V23.62H271.8V28.9H265.26V17.8ZM280.2 13H287.58V22.54H280.2V13ZM280.44 30.94H287.28V54.46H280.44V30.94ZM286.26 60.7L291.78 57.1C293.14 57.86 294.6 58.74 296.16 59.74C297.76 60.7 299.28 61.68 300.72 62.68C302.2 63.64 303.44 64.54 304.44 65.38L298.5 69.4C297.66 68.6 296.52 67.68 295.08 66.64C293.68 65.64 292.2 64.62 290.64 63.58C289.08 62.54 287.62 61.58 286.26 60.7ZM275.28 57.7L282.12 60.28C280.92 61.48 279.52 62.68 277.92 63.88C276.32 65.04 274.64 66.12 272.88 67.12C271.16 68.12 269.5 68.98 267.9 69.7C267.5 69.26 266.96 68.7 266.28 68.02C265.6 67.34 264.92 66.68 264.24 66.04C263.56 65.44 262.94 64.94 262.38 64.54C264.78 63.74 267.16 62.74 269.52 61.54C271.88 60.3 273.8 59.02 275.28 57.7ZM274.2 49.3V52.48H294.12V49.3H274.2ZM274.2 41.14V44.32H294.12V41.14H274.2ZM267.84 35.86H300.78V57.82H267.84V35.86ZM270.06 27.28H298.5V32.98H270.06V27.28ZM250.8 18.58L254.76 13.24C255.96 13.68 257.22 14.24 258.54 14.92C259.9 15.56 261.18 16.24 262.38 16.96C263.62 17.68 264.6 18.36 265.32 19L261.12 24.94C260.44 24.26 259.5 23.54 258.3 22.78C257.14 21.98 255.9 21.22 254.58 20.5C253.26 19.74 252 19.1 250.8 18.58ZM247.68 34.84L251.58 29.44C252.78 29.84 254.04 30.34 255.36 30.94C256.72 31.54 258 32.18 259.2 32.86C260.4 33.54 261.38 34.22 262.14 34.9L258 40.9C257.28 40.22 256.32 39.52 255.12 38.8C253.96 38.04 252.72 37.32 251.4 36.64C250.12 35.96 248.88 35.36 247.68 34.84ZM249.18 64.42C250.14 62.86 251.18 61.02 252.3 58.9C253.42 56.78 254.58 54.54 255.78 52.18C256.98 49.78 258.08 47.4 259.08 45.04L264.72 49.36C263.84 51.52 262.88 53.72 261.84 55.96C260.84 58.16 259.82 60.34 258.78 62.5C257.74 64.66 256.7 66.72 255.66 68.68L249.18 64.42Z" fill="#FF5F17"/>
</svg>
