<svg width="321" height="84" viewBox="0 0 321 84" fill="none" xmlns="http://www.w3.org/2000/svg">
<circle cx="42.1117" cy="42.3481" r="41.5063" fill="white"/>
<circle cx="121.108" cy="42.3481" r="41.5063" fill="white"/>
<circle cx="200.103" cy="42.3481" r="41.5063" fill="white"/>
<circle cx="279.099" cy="42.3481" r="41.5063" fill="white"/>
<path d="M23.6555 47.2794H43.5155V51.4794H23.6555V47.2794ZM23.6555 53.8194H43.5155V58.0194H23.6555V53.8194ZM23.5955 60.3594H45.0155V65.2194H23.5955V60.3594ZM15.7955 14.9994H46.5155V20.2194H15.7955V14.9994ZM30.9755 43.4394H36.9755V62.8194H30.9755V43.4394ZM21.9155 11.5194H28.1555V23.1594H21.9155V11.5194ZM33.7955 11.5194H40.1555V23.1594H33.7955V11.5194ZM21.9155 28.3194V31.8594H25.0355V28.3194H21.9155ZM17.2355 24.1194H30.0155V36.1194H17.2355V24.1194ZM36.4955 28.3194V31.8594H39.9155V28.3194H36.4955ZM31.8155 24.1194H44.8955V36.1194H31.8155V24.1194ZM26.0555 40.1994H45.1355V44.9394H26.0555V67.6194H19.9955V45.9594L25.3355 40.1994H26.0555ZM32.9555 35.7594L39.2555 37.1394C37.8155 39.6594 36.4355 42.1194 35.4155 43.8594L30.6155 42.4794C31.5155 40.4994 32.4755 37.7394 32.9555 35.7594ZM22.1555 35.5194L28.0355 37.0794C25.8755 44.0394 22.2755 51.1794 18.1355 55.7394C17.4755 54.3594 15.6155 51.3594 14.5355 50.0394C17.8355 46.4394 20.5955 41.0394 22.1555 35.5194ZM50.4155 22.3194H67.2755V28.7994H50.4155V22.3194ZM57.8555 24.8394H61.2755V35.1594C61.2155 40.9794 63.1355 54.2394 72.1355 61.5594C70.8755 63.0594 68.8955 66.0594 67.8755 67.7994C61.3955 62.6394 58.4555 52.4994 57.8555 47.3994C57.0755 52.6194 53.6555 62.4594 46.5155 67.7994C45.7355 66.2394 43.7555 63.1794 42.5555 61.8594C52.5155 54.4194 54.4355 41.0994 54.3755 35.1594V24.8394H57.8555ZM49.9955 11.3394L57.0755 12.3594C55.6955 23.1594 53.1155 33.7194 48.9155 40.3794C47.7155 39.2394 44.7155 37.0194 43.0355 36.0594C46.9355 30.2994 49.0355 20.8794 49.9955 11.3394ZM64.8755 22.3194H65.8955L66.9155 21.8994L71.6555 23.5794C71.0555 29.4594 69.9155 36.1194 68.4755 40.6194L63.3755 37.7394C64.0955 34.0194 64.6355 28.1394 64.8755 23.3994V22.3194ZM94.9355 45.6594H148.516V51.8994H94.9355V45.6594ZM117.916 40.9794H125.236V67.7394H117.916V40.9794ZM115.696 48.3594L121.576 50.9394C116.116 58.0194 106.996 64.1394 98.1155 67.3194C97.0355 65.5194 94.8755 62.7594 93.3155 61.3194C101.956 58.8594 111.076 53.8794 115.696 48.3594ZM127.396 48.5394C132.136 53.7594 141.316 58.4994 150.076 60.7794C148.516 62.2194 146.296 65.0394 145.276 66.8394C136.396 63.8394 127.156 57.9594 121.456 51.2994L127.396 48.5394ZM118.516 31.9794V36.4794H124.576V31.9794H118.516ZM118.516 22.4994V26.9394H124.576V22.4994H118.516ZM112.516 17.0994H130.816V41.8794H112.516V17.0994ZM118.816 11.3994L126.076 12.2394C124.936 15.3594 123.796 18.4194 122.836 20.5194L117.136 19.4994C117.796 17.0994 118.516 13.7994 118.816 11.3994ZM94.3955 24.8394L97.2155 19.9794C100.276 22.1394 104.176 25.3194 105.916 27.4794L102.916 32.9994C101.236 30.5994 97.3955 27.1794 94.3955 24.8394ZM105.916 32.3994L110.356 31.0194C111.796 34.6194 113.176 39.2994 113.536 42.1794L108.796 43.9194C108.496 40.9194 107.236 36.0594 105.916 32.3994ZM106.756 20.2194L112.156 22.3794C108.796 28.3194 104.536 35.2194 100.996 39.6594L96.5555 37.4994C100.036 32.9994 104.356 25.6794 106.756 20.2194ZM101.956 11.8794L107.536 13.8594C105.556 17.9394 103.336 22.4394 101.476 25.4394L96.8555 23.5194C98.5955 20.3994 100.816 15.4794 101.956 11.8794ZM94.2755 36.8994C98.4155 36.6594 104.236 36.2394 110.356 35.7594L110.416 40.6794C104.896 41.5194 99.4955 42.1794 94.9355 42.8394L94.2755 36.8994ZM129.256 24.2394L132.496 19.6794C135.616 22.2594 139.516 25.9194 141.256 28.3794L137.836 33.5994C136.216 30.8994 132.376 26.9994 129.256 24.2394ZM141.076 32.1594L145.756 30.4794C147.436 34.2594 149.116 39.2394 149.656 42.2994L144.616 44.3394C144.136 41.1594 142.636 36.0594 141.076 32.1594ZM141.856 20.3394L147.316 22.5594C143.896 28.4994 139.456 35.3994 135.856 39.8394L131.416 37.7394C134.956 33.1794 139.396 25.7994 141.856 20.3394ZM137.296 11.8194L142.936 13.7994C140.836 17.9394 138.556 22.3794 136.636 25.3194L132.016 23.4594C133.816 20.3394 136.156 15.4194 137.296 11.8194ZM129.676 36.7794C133.936 36.5994 139.876 36.2394 146.056 35.8794V40.9194C140.536 41.5794 135.016 42.1794 130.456 42.7194L129.676 36.7794ZM170.896 42.1794C176.236 41.0394 184.156 39.0594 191.656 37.1994L192.496 43.6794C185.656 45.5994 178.396 47.5794 172.696 49.0794L170.896 42.1794ZM171.796 22.7994H191.776V29.4594H171.796V22.7994ZM179.056 11.4594H186.016V60.2994C186.016 63.6594 185.356 65.4594 183.376 66.5394C181.396 67.6194 178.516 67.7994 174.316 67.7994C174.136 65.9994 173.236 63.1194 172.336 61.3194C174.676 61.3794 177.136 61.3794 177.916 61.3794C178.756 61.3794 179.056 61.0794 179.056 60.2394V11.4594ZM193.156 24.8994H226.636V67.3194H219.436V31.7394H199.996V67.6794H193.156V24.8994ZM197.476 40.3794H221.416V47.0994H197.476V40.3794ZM197.656 56.4594H221.656V63.3594H197.656V56.4594ZM206.176 11.5794H212.956V60.6594H206.176V11.5794ZM250.336 49.6794H304.996V55.5594H250.336V49.6794ZM281.776 51.6594C285.196 58.5594 292.996 60.8994 306.736 61.1994C305.236 62.6994 303.436 65.6994 302.656 67.7394C286.996 66.6594 279.436 62.7594 274.696 52.6794L281.776 51.6594ZM285.016 47.6994L287.956 43.6194C291.856 44.4594 297.316 46.1994 300.196 47.4594L297.136 52.0194C294.376 50.6994 289.036 48.7794 285.016 47.6994ZM271.276 30.0594H305.956V35.0394H271.276V30.0594ZM291.196 26.1594H297.976V38.6394C297.976 41.5194 297.376 42.8994 295.276 43.6794C293.116 44.4594 290.296 44.4594 286.396 44.4594C286.096 42.7794 285.256 40.6794 284.476 39.2394C286.816 39.2994 289.456 39.2994 290.176 39.2394C290.896 39.2394 291.196 39.0594 291.196 38.3994V26.1594ZM249.616 29.2794H266.416V34.9194H249.616V29.2794ZM262.876 11.3994H269.416V45.9594H262.876V11.3994ZM252.376 13.1394H258.376V20.6394H266.596V26.1594H252.376V13.1394ZM274.876 36.9594L279.676 34.1994C281.776 35.9394 284.236 38.4594 285.316 40.3194L280.216 43.3194C279.316 41.5194 276.976 38.8194 274.876 36.9594ZM273.496 20.2794L277.396 18.7794C279.856 20.2794 282.796 22.6794 284.236 24.4194L280.216 25.9794C278.836 24.2994 275.956 21.8994 273.496 20.2794ZM279.616 18.0594L282.976 16.3194C286.036 17.7594 289.696 20.1594 291.556 22.0194L287.956 23.9394C286.276 22.0794 282.676 19.6194 279.616 18.0594ZM297.496 14.2794H298.636L299.776 14.0994L303.496 15.8994C298.276 25.0794 286.996 28.7394 274.216 30.3594C273.736 29.0394 272.476 27.0594 271.516 25.9194C282.916 24.8394 293.416 21.7194 297.496 15.0594V14.2794ZM286.996 11.3994L292.876 12.7194C288.136 17.1594 281.656 20.2194 272.716 22.6794C271.996 21.3594 270.436 19.4394 269.236 18.5394C277.576 16.8594 283.636 14.3394 286.996 11.3994ZM285.676 14.2794H299.356V18.1794H280.336L285.676 14.2794ZM253.216 32.2194H259.516V35.2194C259.516 38.0394 258.736 44.0394 254.716 47.3994C253.516 46.4394 250.816 45.0594 249.256 44.3394C252.676 41.6394 253.216 37.1394 253.216 35.0394V32.2194ZM273.556 44.0394H280.696V49.4994C280.696 56.7594 276.856 64.9194 252.796 67.9194C252.016 66.2394 250.216 63.5994 248.896 62.0394C270.316 59.5194 273.556 53.9994 273.556 49.3194V44.0394Z" fill="#39BF63"/>
</svg>
