<svg width="321" height="84" viewBox="0 0 321 84" fill="none" xmlns="http://www.w3.org/2000/svg">
<circle cx="42.1117" cy="41.5063" r="41.5063" fill="white"/>
<circle cx="121.108" cy="41.5063" r="41.5063" fill="white"/>
<circle cx="200.103" cy="41.5063" r="41.5063" fill="white"/>
<circle cx="279.099" cy="41.5063" r="41.5063" fill="white"/>
<path d="M37.3055 15.22H66.1055V21.28H37.3055V15.22ZM53.5655 25H66.5255V30.7H53.5655V25ZM42.4655 26.2H52.2455V31.6H42.4655V26.2ZM42.4655 36.7H52.2455V42.16H42.4655V36.7ZM49.7855 17.92H55.4255V60.04H49.7855V17.92ZM39.8855 17.44H45.4655V50.74L39.8855 51.58V17.44ZM36.2255 50.86C40.3055 50.08 46.1855 48.94 52.0655 47.68L52.6655 53.02C47.3855 54.34 41.8655 55.66 37.3655 56.68L36.2255 50.86ZM65.0855 25H66.2855L67.3655 24.88L71.0255 25.96C69.5255 41.68 65.5055 53.26 59.0855 59.2C58.3655 57.76 56.3255 55.18 55.1255 54.22C60.7655 49 64.0655 39.16 65.0855 26.2V25ZM60.1655 32.02C62.1455 41.56 66.2855 50.62 72.4055 55C71.0855 56.08 69.2255 58.18 68.3255 59.68C61.7855 54.34 57.7055 44.2 55.3655 33.1L60.1655 32.02ZM17.7455 19.12H37.6655V25.36H17.7455V19.12ZM16.3655 30.28H38.6255V36.58H16.3655V30.28ZM28.6055 42.04H38.2655V48.34H28.6055V42.04ZM25.4855 13.06H31.9055V34.3H25.4855V13.06ZM26.7455 34.42H32.9855V61.18H26.7455V34.42ZM23.7455 46.48C27.2255 59.08 34.4855 60.94 47.1455 60.94C51.4655 60.94 66.8855 61 72.1055 60.7C70.9655 62.38 69.7655 65.68 69.2855 67.84H47.0855C31.3055 67.84 23.0855 64.9 18.5855 48.04L23.7455 46.48ZM18.0455 40L23.9255 40.3C24.2255 50.02 23.8055 61 19.1255 69.34C18.1655 67.9 15.8855 65.8 14.5055 65.14C18.1655 58 18.4055 48.34 18.0455 40ZM115.005 36.4H149.505V43.24H115.005V36.4ZM116.925 22.06H147.585V28.9H116.925V22.06ZM127.965 13.54H135.225V69.22H127.965V13.54ZM127.245 40.6L132.945 42.28C129.285 52.06 123.045 60.88 115.365 65.74C114.285 64 112.125 61.42 110.505 60.04C117.825 56.2 124.065 48.52 127.245 40.6ZM135.825 40.36C138.765 47.86 144.345 55.66 150.285 59.86C148.545 61.24 146.145 63.94 144.945 65.86C138.945 60.52 133.605 51.22 130.425 42.1L135.825 40.36ZM98.9855 18.28H113.445V54.28H98.9855V47.32H106.905V25.18H98.9855V18.28ZM95.3255 18.28H101.865V59.14H95.3255V18.28ZM186.585 52.12H209.685V56.08H186.585V52.12ZM189.885 46.9H211.065V50.2H189.885V46.9ZM189.885 41.68H210.825V45.04H189.885V41.68ZM197.265 38.26H202.665V54.4H197.265V38.26ZM208.845 52.12H214.425C214.425 52.12 214.425 53.38 214.365 54.04C214.005 61.66 213.585 64.84 212.505 66.16C211.605 67.18 210.525 67.6 209.205 67.72C208.065 67.84 206.145 67.9 204.105 67.78C204.045 66.52 203.505 64.66 202.905 63.52C204.465 63.64 205.725 63.7 206.385 63.64C206.985 63.7 207.345 63.58 207.705 63.22C208.305 62.44 208.605 59.86 208.845 52.9V52.12ZM185.445 57.04L189.585 58.18C189.045 61.72 188.085 65.26 185.685 67.42L181.905 64.96C183.885 63.16 185.025 60.1 185.445 57.04ZM202.005 57.58L204.885 56.68C205.905 58.18 206.805 60.4 207.225 61.78L204.105 62.86C203.805 61.42 202.965 59.2 202.005 57.58ZM191.085 58.48L194.625 58C195.165 60.58 195.345 63.88 195.225 65.98L191.445 66.52C191.685 64.36 191.505 61.12 191.085 58.48ZM196.725 58.24L200.025 57.4C200.865 59.62 201.465 62.5 201.645 64.36L198.105 65.26C198.045 63.34 197.505 60.46 196.725 58.24ZM186.585 35.92H212.505V39.88H192.225V54.34H186.585V35.92ZM177.885 22.06H192.945V26.14H177.885V22.06ZM205.305 22.06H220.545V26.14H205.305V22.06ZM218.385 14.98H225.285V62.26C225.285 65.44 224.685 67.18 222.825 68.32C220.905 69.34 218.205 69.52 214.485 69.52C214.305 67.72 213.405 64.84 212.565 63.16C214.545 63.28 216.705 63.22 217.365 63.22C218.145 63.22 218.385 62.92 218.385 62.2V14.98ZM178.545 14.98H197.565V33.28H178.545V28.72H190.785V19.6H178.545V14.98ZM221.865 14.98V19.6H208.305V28.72H221.865V33.28H201.465V14.98H221.865ZM174.285 14.98H180.945V69.46H174.285V14.98ZM271.785 44.86L275.265 43.78C276.645 45.82 277.965 48.52 278.325 50.32L274.725 51.58C274.305 49.78 273.105 46.96 271.785 44.86ZM261.765 40.3L264.105 37.54C266.265 39.04 268.845 41.26 270.045 42.88L267.645 46.06C266.505 44.32 263.925 41.92 261.765 40.3ZM268.425 33.7L272.625 35.32C270.945 37.42 269.205 39.58 267.825 41.02L264.705 39.64C265.965 37.96 267.585 35.38 268.425 33.7ZM272.505 38.08L276.225 39.76C273.285 43 269.565 46.84 266.685 49.18L263.925 47.8C266.805 45.22 270.465 40.96 272.505 38.08ZM278.805 51.46H283.665V68.26H278.805V51.46ZM261.285 47.32C265.005 47.08 270.045 46.78 275.445 46.36L275.505 50.02C270.525 50.5 265.785 50.92 261.705 51.22L261.285 47.32ZM286.965 44.5L290.565 43.48C292.065 45.64 293.505 48.64 293.985 50.68L290.205 51.94C289.785 49.9 288.405 46.84 286.965 44.5ZM276.045 40L278.625 37.36C280.965 39.04 283.785 41.56 285.045 43.3L282.345 46.3C281.145 44.5 278.385 41.8 276.045 40ZM283.005 33.64L287.325 35.32C285.465 37.6 283.545 39.94 281.985 41.5L278.805 40.06C280.185 38.32 282.045 35.5 283.005 33.64ZM287.265 38.14L291.105 39.88C287.985 43.24 284.085 47.14 280.965 49.6L278.145 48.1C281.205 45.52 285.105 41.14 287.265 38.14ZM277.245 47.32C280.965 47.14 285.825 46.84 291.105 46.48L291.165 50.08C286.545 50.56 281.985 50.86 278.085 51.22L277.245 47.32ZM263.085 52.42H267.525V57.64H274.005V61.6H263.085V52.42ZM287.445 52.42H291.885V61.6H282.645V57.64H287.445V52.42ZM271.125 51.46H275.925V57.28C275.925 61.96 274.785 66.46 267.165 69.1C266.565 67.96 265.065 66.1 264.045 65.2C270.285 63.34 271.125 60.28 271.125 57.1V51.46ZM255.885 23.02H270.945V27.34H255.885V23.02ZM283.485 23.02H298.725V27.34H283.485V23.02ZM296.265 15.34H303.225V61.18C303.225 64.6 302.685 66.58 300.645 67.78C298.605 68.98 295.845 69.1 291.885 69.1C291.645 67.18 290.745 63.94 289.845 62.08C292.065 62.2 294.465 62.2 295.245 62.2C296.025 62.2 296.265 61.9 296.265 61.12V15.34ZM256.545 15.34H275.565V34.96H256.545V30.1H268.785V20.2H256.545V15.34ZM299.865 15.34V20.2H286.305V30.1H299.865V34.96H279.465V15.34H299.865ZM252.285 15.34H259.125V69.4H252.285V15.34Z" fill="#39BF63"/>
</svg>
