<svg width="388" height="294" viewBox="0 0 388 294" fill="none" xmlns="http://www.w3.org/2000/svg">
<path d="M388 50.7077C388 41.3723 380.378 33.8051 370.976 33.8051C370.912 33.8051 370.852 33.8088 370.789 33.8088V33.7977C370.852 33.7977 370.912 33.8014 370.976 33.8014C380.378 33.8014 388 26.2343 388 16.8988C388 7.56343 380.378 0 370.976 0C363.523 0 357.192 4.75501 354.887 11.3786C352.582 4.75872 346.252 0 338.798 0C331.345 0 325.015 4.75501 322.71 11.3786C320.405 4.75872 314.074 0 306.621 0C299.168 0 292.837 4.75501 290.532 11.3786C288.227 4.75872 281.897 0 274.444 0C266.99 0 260.66 4.75501 258.355 11.3786C256.05 4.75872 249.719 0 242.266 0C234.813 0 228.482 4.75501 226.177 11.3786C223.873 4.75872 217.542 0 210.089 0C202.636 0 196.305 4.75501 194 11.3786C191.695 4.75872 185.364 0 177.911 0C170.458 0 164.127 4.75501 161.823 11.3786C159.518 4.75872 153.187 0 145.734 0C138.281 0 131.95 4.75501 129.645 11.3786C127.34 4.75872 121.01 0 113.556 0C106.103 0 99.7725 4.75501 97.4677 11.3786C95.1629 4.75501 88.8322 0 81.379 0C73.9258 0 67.5951 4.75501 65.2903 11.3786C62.9855 4.75501 56.6547 0 49.2015 0C41.7483 0 35.4176 4.75501 33.1128 11.3786C30.808 4.75501 24.4773 0 17.0241 0C7.62156 0 0 7.56715 0 16.9026C0 26.238 7.52054 33.7011 16.837 33.8014V33.8126C7.52054 33.9129 0 41.4391 0 50.7114C0 58.1114 4.7892 64.3969 11.4604 66.6853C4.7892 68.9699 0 75.2554 0 82.6554C0 90.0554 4.7892 96.3409 11.4604 98.6292C4.79294 100.918 0 107.203 0 114.603C0 122.003 4.7892 128.289 11.4604 130.577C4.79294 132.865 0 139.151 0 146.551C0 153.951 4.7892 160.236 11.4604 162.525C4.79294 164.813 0 171.099 0 178.499C0 185.898 4.7892 192.184 11.4604 194.472C4.79294 196.761 0 203.046 0 210.446C0 217.846 4.7892 224.132 11.4604 226.42C4.79294 228.708 0 234.994 0 242.394C0 251.666 7.52054 259.192 16.837 259.293V259.304C7.52054 259.404 0 266.93 0 276.203C0 285.475 7.62156 293.105 17.0241 293.105C24.4773 293.105 30.808 288.35 33.1128 281.727C35.4176 288.347 41.7483 293.105 49.2015 293.105C56.6547 293.105 62.9855 288.35 65.2903 281.727C67.5951 288.347 73.9258 293.105 81.379 293.105C88.8322 293.105 95.1629 288.35 97.4677 281.727C99.7725 288.347 106.103 293.105 113.556 293.105C121.01 293.105 127.34 288.35 129.645 281.727C131.95 288.347 138.281 293.105 145.734 293.105C153.187 293.105 159.518 288.35 161.823 281.727C164.127 288.347 170.458 293.105 177.911 293.105C185.364 293.105 191.695 288.35 194 281.727C196.305 288.347 202.636 293.105 210.089 293.105C217.542 293.105 223.873 288.35 226.177 281.727C228.482 288.347 234.813 293.105 242.266 293.105C249.719 293.105 256.05 288.35 258.355 281.727C260.66 288.347 266.99 293.105 274.444 293.105C281.897 293.105 288.227 288.35 290.532 281.727C292.837 288.347 299.168 293.105 306.621 293.105C314.074 293.105 320.405 288.35 322.71 281.727C325.015 288.347 331.345 293.105 338.798 293.105C346.252 293.105 352.582 288.35 354.887 281.727C357.192 288.347 363.523 293.105 370.976 293.105C380.378 293.105 388 285.538 388 276.203C388 266.867 380.378 259.3 370.976 259.3C370.912 259.3 370.852 259.304 370.789 259.304V259.293C370.852 259.293 370.912 259.296 370.976 259.296C380.378 259.296 388 251.729 388 242.394C388 234.994 383.211 228.708 376.54 226.42C383.207 224.132 388 217.846 388 210.446C388 203.046 383.211 196.761 376.54 194.472C383.207 192.184 388 185.898 388 178.499C388 171.099 383.211 164.813 376.54 162.525C383.207 160.236 388 153.951 388 146.551C388 139.151 383.211 132.865 376.54 130.577C383.207 128.289 388 122.003 388 114.603C388 107.203 383.211 100.918 376.54 98.6292C383.207 96.3409 388 90.0554 388 82.6554C388 75.2554 383.211 68.9699 376.54 66.6815C383.207 64.3932 388 58.1077 388 50.7077ZM33.4832 269.698C33.3485 270.018 33.2251 270.344 33.1128 270.675C32.9968 270.344 32.8771 270.018 32.7424 269.698H33.487H33.4832ZM65.6607 269.698C65.526 270.018 65.4025 270.344 65.2903 270.675C65.1743 270.344 65.0545 270.018 64.9198 269.698H65.6644H65.6607ZM97.8381 269.698C97.7034 270.018 97.5799 270.344 97.4677 270.675C97.3517 270.344 97.232 270.018 97.0973 269.698H97.8419H97.8381ZM130.016 269.698C129.881 270.018 129.757 270.344 129.645 270.675C129.529 270.344 129.409 270.018 129.275 269.698H130.019H130.016ZM162.193 269.698C162.058 270.018 161.935 270.344 161.823 270.675C161.707 270.344 161.587 270.018 161.452 269.698H162.197H162.193ZM194.37 269.698C194.236 270.018 194.112 270.344 194 270.675C193.884 270.344 193.764 270.018 193.63 269.698H194.374H194.37ZM226.548 269.698C226.413 270.018 226.29 270.344 226.177 270.675C226.061 270.344 225.942 270.018 225.807 269.698H226.552H226.548ZM258.725 269.698C258.591 270.018 258.467 270.344 258.355 270.675C258.239 270.344 258.119 270.018 257.984 269.698H258.729H258.725ZM290.903 269.698C290.768 270.018 290.645 270.344 290.532 270.675C290.416 270.344 290.297 270.018 290.162 269.698H290.906H290.903ZM323.08 269.698C322.945 270.018 322.822 270.344 322.71 270.675C322.594 270.344 322.474 270.018 322.339 269.698H323.084H323.08ZM354.517 269.698H355.261C355.127 270.018 355.003 270.344 354.891 270.675C354.775 270.344 354.655 270.018 354.521 269.698H354.517Z" fill="white"/>
</svg>
