<svg width="125" height="125" viewBox="0 0 125 125" fill="none" xmlns="http://www.w3.org/2000/svg">
<g clip-path="url(#clip0_646_139)">
<path d="M68.986 4.08778L72.3904 0L74.3647 4.94837C76.3263 9.84611 82.2365 11.7698 86.704 8.96021L91.2094 6.12534L91.5637 11.4407C91.9181 16.7055 96.955 20.363 102.068 19.0721L107.231 17.7686L105.928 22.9321C104.637 28.045 108.295 33.0819 113.559 33.4363L118.875 33.7906L116.04 38.296C113.23 42.7635 115.154 48.6737 120.052 50.6353L125 52.6096L120.912 56.014C116.862 59.393 116.862 65.6196 120.912 68.986L125 72.3904L120.052 74.3647C115.154 76.3263 113.23 82.2365 116.04 86.704L118.875 91.2094L113.559 91.5637C108.295 91.9181 104.637 96.955 105.928 102.068L107.231 107.231L102.068 105.928C96.955 104.637 91.9181 108.295 91.5637 113.559L91.2094 118.875L86.704 116.04C82.2365 113.23 76.3263 115.154 74.3647 120.052L72.3904 125L68.986 120.912C65.607 116.862 59.3804 116.862 56.014 120.912L52.6096 125L50.6353 120.052C48.6737 115.154 42.7635 113.23 38.296 116.04L33.7906 118.875L33.4363 113.559C33.0819 108.295 28.045 104.637 22.9321 105.928L17.7686 107.231L19.0721 102.068C20.363 96.955 16.7055 91.9181 11.4407 91.5637L6.12534 91.2094L8.96021 86.704C11.7698 82.2365 9.84611 76.3263 4.94837 74.3647L0 72.3904L4.08778 68.986C8.13759 65.607 8.13759 59.3804 4.08778 56.014L0 52.6096L4.94837 50.6353C9.84611 48.6737 11.7698 42.7635 8.96021 38.296L6.12534 33.7906L11.4407 33.4363C16.7055 33.0819 20.363 28.045 19.0721 22.9321L17.7686 17.7686L22.9321 19.0721C28.045 20.363 33.0819 16.7055 33.4363 11.4407L33.7906 6.12534L38.296 8.96021C42.7635 11.7698 48.6737 9.84611 50.6353 4.94837L52.6096 0L56.014 4.08778C59.393 8.13759 65.6196 8.13759 68.986 4.08778Z" fill="#FF5F17"/>
<path d="M47.34 37.6734H61.44V39.1934H47.34V37.6734ZM50.52 32.4334H52.6V36.4934H50.52V32.4334ZM55.08 32.4334H57.2V36.4934H55.08V32.4334ZM47.72 33.4134H61.9V37.0134H47.72V35.6934H59.7V34.7334H47.72V33.4134ZM52.58 41.6934L54.6 42.1534C53.84 42.8867 52.9533 43.5401 51.94 44.1134C50.9267 44.6867 49.7467 45.2067 48.4 45.6734C48.2667 45.4601 48.0733 45.2134 47.82 44.9334C47.58 44.6534 47.36 44.4401 47.16 44.2934C48.4 43.9467 49.48 43.5534 50.4 43.1134C51.32 42.6601 52.0467 42.1867 52.58 41.6934ZM52.6 42.9134H58.9V44.2134H51.3L52.6 42.9134ZM58.42 42.9134H58.84L59.2 42.8334L60.54 43.6934C59.9133 44.4134 59.14 45.0334 58.22 45.5534C57.3 46.0734 56.28 46.5134 55.16 46.8734C54.0533 47.2334 52.88 47.5201 51.64 47.7334C50.4133 47.9601 49.18 48.1401 47.94 48.2734C47.86 48.0334 47.7333 47.7534 47.56 47.4334C47.4 47.1134 47.24 46.8467 47.08 46.6334C48.2133 46.5534 49.3467 46.4267 50.48 46.2534C51.6267 46.0801 52.7133 45.8534 53.74 45.5734C54.7667 45.2934 55.6867 44.9601 56.5 44.5734C57.3133 44.1734 57.9533 43.7134 58.42 43.1934V42.9134ZM52 43.7534C52.5067 44.1801 53.14 44.5534 53.9 44.8734C54.6733 45.1934 55.54 45.4667 56.5 45.6934C57.46 45.9067 58.4867 46.0801 59.58 46.2134C60.6733 46.3334 61.8 46.4201 62.96 46.4734C62.7467 46.6867 62.5267 46.9734 62.3 47.3334C62.0867 47.6934 61.9133 48.0067 61.78 48.2734C60.58 48.1801 59.42 48.0401 58.3 47.8534C57.18 47.6667 56.12 47.4201 55.12 47.1134C54.1333 46.8067 53.2267 46.4334 52.4 45.9934C51.5867 45.5534 50.8733 45.0401 50.26 44.4534L52 43.7534ZM51.14 39.6134H53.02V40.4934C53.02 40.6934 53.0667 40.8201 53.16 40.8734C53.2667 40.9267 53.4733 40.9534 53.78 40.9534C53.86 40.9534 53.9933 40.9534 54.18 40.9534C54.3667 40.9534 54.5733 40.9534 54.8 40.9534C55.04 40.9534 55.2533 40.9534 55.44 40.9534C55.64 40.9534 55.7867 40.9534 55.88 40.9534C56.12 40.9534 56.28 40.9067 56.36 40.8134C56.44 40.7067 56.5 40.4734 56.54 40.1134C56.7267 40.2334 56.9667 40.3401 57.26 40.4334C57.5667 40.5267 57.84 40.5934 58.08 40.6334C58 41.3001 57.8133 41.7534 57.52 41.9934C57.24 42.2201 56.78 42.3334 56.14 42.3334C56.06 42.3334 55.9333 42.3334 55.76 42.3334C55.5867 42.3334 55.3867 42.3334 55.16 42.3334C54.9333 42.3334 54.7133 42.3334 54.5 42.3334C54.2867 42.3334 54.0933 42.3334 53.92 42.3334C53.7467 42.3334 53.62 42.3334 53.54 42.3334C52.9 42.3334 52.4 42.2801 52.04 42.1734C51.6933 42.0534 51.4533 41.8667 51.32 41.6134C51.2 41.3467 51.14 40.9734 51.14 40.4934V39.6134ZM60.88 37.6734H61.22L61.56 37.6134L63.12 37.9534C62.9333 38.4734 62.7267 39.0067 62.5 39.5534C62.2733 40.1001 62.0533 40.5601 61.84 40.9334L59.96 40.5534C60.12 40.2067 60.2867 39.7934 60.46 39.3134C60.6333 38.8334 60.7733 38.3734 60.88 37.9334V37.6734ZM49.4 39.3934L51 40.0934C50.7867 40.5467 50.52 41.0001 50.2 41.4534C49.8933 41.9067 49.5067 42.2934 49.04 42.6134L47.5 41.6134C47.9133 41.3601 48.2867 41.0267 48.62 40.6134C48.9533 40.2001 49.2133 39.7934 49.4 39.3934ZM52.94 39.3534L54.2 38.4534C54.56 38.6267 54.94 38.8467 55.34 39.1134C55.74 39.3801 56.0533 39.6201 56.28 39.8334L54.98 40.8334C54.7533 40.6067 54.44 40.3467 54.04 40.0534C53.6533 39.7601 53.2867 39.5267 52.94 39.3534ZM57.3 40.0134L58.78 39.2334C59.1933 39.5534 59.6133 39.9401 60.04 40.3934C60.4667 40.8334 60.7867 41.2267 61 41.5734L59.44 42.4334C59.2533 42.0734 58.9533 41.6667 58.54 41.2134C58.1267 40.7601 57.7133 40.3601 57.3 40.0134ZM52.98 29.4934H55.48V32.0334H52.98V29.4934ZM46.88 30.6934H62.6V32.4934H46.88V30.6934ZM45.74 30.6934H47.92V36.6534C47.92 37.4934 47.8933 38.4134 47.84 39.4134C47.7867 40.4134 47.6867 41.4401 47.54 42.4934C47.3933 43.5467 47.18 44.5667 46.9 45.5534C46.62 46.5401 46.2533 47.4334 45.8 48.2334C45.6667 48.1001 45.4867 47.9401 45.26 47.7534C45.0333 47.5801 44.8 47.4134 44.56 47.2534C44.3333 47.0934 44.1333 46.9734 43.96 46.8934C44.3733 46.1601 44.6933 45.3601 44.92 44.4934C45.16 43.6134 45.34 42.7201 45.46 41.8134C45.58 40.8934 45.6533 39.9934 45.68 39.1134C45.72 38.2334 45.74 37.4134 45.74 36.6534V30.6934ZM68.56 33.1334H82.48V35.4734H68.56V33.1334ZM67.72 39.0134H81.7V41.3334H67.72V39.0134ZM65.42 45.3734H83.5V47.7134H65.42V45.3734ZM73.18 29.4934H75.7V46.5134H73.18V29.4934ZM68.56 29.7534L71.04 30.3134C70.76 31.3401 70.4133 32.3534 70 33.3534C69.5867 34.3534 69.14 35.2867 68.66 36.1534C68.18 37.0067 67.68 37.7534 67.16 38.3934C67 38.2467 66.7867 38.0867 66.52 37.9134C66.2667 37.7267 66 37.5467 65.72 37.3734C65.44 37.2001 65.2 37.0601 65 36.9534C65.5333 36.3934 66.02 35.7267 66.46 34.9534C66.9133 34.1801 67.3133 33.3467 67.66 32.4534C68.02 31.5601 68.32 30.6601 68.56 29.7534ZM31.64 57.2734H41.28V59.4534H31.64V57.2734ZM30.46 61.1534H42.16V63.3934H30.46V61.1534ZM30.88 65.1934H41.98V67.3934H30.88V65.1934ZM35.22 55.4734H37.6V62.3934H35.22V55.4734ZM37.58 63.1334H39.96V71.6134C39.96 72.2134 39.8867 72.6867 39.74 73.0334C39.6067 73.3801 39.34 73.6534 38.94 73.8534C38.5267 74.0267 38.0333 74.1334 37.46 74.1734C36.8867 74.2267 36.2267 74.2534 35.48 74.2534C35.4267 73.9067 35.3333 73.5067 35.2 73.0534C35.0667 72.6001 34.9133 72.2067 34.74 71.8734C35.2333 71.8867 35.72 71.9001 36.2 71.9134C36.68 71.9134 37 71.9134 37.16 71.9134C37.32 71.9001 37.4267 71.8734 37.48 71.8334C37.5467 71.7934 37.58 71.7067 37.58 71.5734V63.1334ZM31.58 68.4734L33.36 67.3734C33.6667 67.6667 33.9733 67.9934 34.28 68.3534C34.5867 68.7134 34.8733 69.0734 35.14 69.4334C35.42 69.7801 35.6333 70.1001 35.78 70.3934L33.88 71.6334C33.7467 71.3401 33.5533 71.0134 33.3 70.6534C33.0467 70.2801 32.7667 69.9067 32.46 69.5334C32.1667 69.1467 31.8733 68.7934 31.58 68.4734ZM23.34 66.1534C23.9933 66.0067 24.7333 65.8267 25.56 65.6134C26.4 65.4001 27.28 65.1667 28.2 64.9134C29.1333 64.6467 30.06 64.3801 30.98 64.1134L31.28 66.2334C30.0267 66.6201 28.7467 67.0134 27.44 67.4134C26.1467 67.8001 24.9733 68.1467 23.92 68.4534L23.34 66.1534ZM26.92 55.5134H29.12V74.2934H26.92V55.5134ZM24.28 56.5334L26.3 56.8734C26.2067 57.7534 26.0933 58.6401 25.96 59.5334C25.8267 60.4134 25.6667 61.2467 25.48 62.0334C25.2933 62.8201 25.08 63.5134 24.84 64.1134C24.72 64.0067 24.5533 63.8867 24.34 63.7534C24.1267 63.6201 23.9133 63.4867 23.7 63.3534C23.4867 63.2067 23.3 63.0934 23.14 63.0134C23.3533 62.4801 23.5333 61.8601 23.68 61.1534C23.84 60.4467 23.9667 59.7001 24.06 58.9134C24.1667 58.1134 24.24 57.3201 24.28 56.5334ZM24.84 59.2734H30.8V61.5534H24.38L24.84 59.2734ZM55.06 57.9334H57.38V69.2534H55.06V57.9334ZM59.78 55.9134H62.16V71.3734C62.16 72.0801 62.0733 72.6201 61.9 72.9934C61.74 73.3667 61.4533 73.6534 61.04 73.8534C60.6267 74.0401 60.0867 74.1601 59.42 74.2134C58.7533 74.2801 57.96 74.3134 57.04 74.3134C57.0133 74.0734 56.9533 73.8001 56.86 73.4934C56.7667 73.2001 56.66 72.9001 56.54 72.5934C56.4333 72.3001 56.32 72.0467 56.2 71.8334C56.8533 71.8467 57.4733 71.8601 58.06 71.8734C58.6467 71.8734 59.04 71.8734 59.24 71.8734C59.4267 71.8734 59.56 71.8401 59.64 71.7734C59.7333 71.6934 59.78 71.5601 59.78 71.3734V55.9134ZM47.96 65.0534H52.56V67.1534H47.96V65.0534ZM51.5 65.0534H53.72C53.72 65.0534 53.7133 65.1134 53.7 65.2334C53.7 65.3401 53.7 65.4667 53.7 65.6134C53.7 65.7467 53.7 65.8534 53.7 65.9334C53.6333 67.5467 53.56 68.8667 53.48 69.8934C53.4 70.9067 53.3 71.6867 53.18 72.2334C53.0733 72.7667 52.9267 73.1534 52.74 73.3934C52.54 73.6467 52.32 73.8267 52.08 73.9334C51.84 74.0401 51.56 74.1134 51.24 74.1534C50.9733 74.1934 50.62 74.2201 50.18 74.2334C49.74 74.2467 49.2867 74.2401 48.82 74.2134C48.8067 73.8934 48.74 73.5334 48.62 73.1334C48.5 72.7467 48.3533 72.4134 48.18 72.1334C48.5933 72.1734 48.98 72.2001 49.34 72.2134C49.7133 72.2267 49.9867 72.2334 50.16 72.2334C50.3067 72.2334 50.4267 72.2201 50.52 72.1934C50.6267 72.1534 50.7267 72.0801 50.82 71.9734C50.94 71.8401 51.04 71.5467 51.12 71.0934C51.2 70.6267 51.2733 69.9401 51.34 69.0334C51.4067 68.1134 51.46 66.9067 51.5 65.4134V65.0534ZM47.46 58.5534V61.2934H51.22V58.5534H47.46ZM45.28 56.4334H53.54V63.4134H45.28V56.4334ZM47.32 62.7734H49.66C49.6067 63.8267 49.52 64.8934 49.4 65.9734C49.28 67.0401 49.08 68.0801 48.8 69.0934C48.5333 70.0934 48.1467 71.0401 47.64 71.9334C47.1467 72.8134 46.4933 73.6001 45.68 74.2934C45.5067 74.0001 45.2667 73.6867 44.96 73.3534C44.6533 73.0201 44.3533 72.7534 44.06 72.5534C44.78 71.9801 45.3467 71.3134 45.76 70.5534C46.1733 69.7934 46.4867 68.9801 46.7 68.1134C46.9133 67.2467 47.06 66.3601 47.14 65.4534C47.22 64.5467 47.28 63.6534 47.32 62.7734ZM74.3 57.7934C73.8867 58.3934 73.3933 59.0134 72.82 59.6534C72.2467 60.2934 71.6067 60.9267 70.9 61.5534C70.2067 62.1801 69.4667 62.7801 68.68 63.3534C67.9067 63.9134 67.1 64.4267 66.26 64.8934C66.1667 64.7067 66.0333 64.4934 65.86 64.2534C65.6867 64.0134 65.5 63.7801 65.3 63.5534C65.1 63.3267 64.9133 63.1267 64.74 62.9534C65.9 62.3534 67.0133 61.6334 68.08 60.7934C69.1467 59.9401 70.1 59.0401 70.94 58.0934C71.7933 57.1467 72.4667 56.2534 72.96 55.4134H75.44C75.9867 56.2001 76.5933 56.9601 77.26 57.6934C77.9267 58.4267 78.6333 59.1067 79.38 59.7334C80.1267 60.3601 80.9 60.9267 81.7 61.4334C82.5 61.9401 83.3067 62.3667 84.12 62.7134C83.8133 63.0201 83.52 63.3667 83.24 63.7534C82.9733 64.1267 82.7267 64.5001 82.5 64.8734C81.7133 64.4334 80.9267 63.9401 80.14 63.3934C79.3667 62.8334 78.6133 62.2401 77.88 61.6134C77.1467 60.9867 76.4733 60.3467 75.86 59.6934C75.2467 59.0401 74.7267 58.4067 74.3 57.7934ZM74.44 65.4134H81.14V67.5534H74.44V65.4134ZM65.86 71.5734H82.96V73.7534H65.86V71.5734ZM73.24 61.1334H75.78V72.7334H73.24V61.1334ZM68.04 64.5934H70.4V72.6934H68.04V64.5934ZM97.86 57.9334H100.04V69.2534H97.86V57.9334ZM101.66 55.9134H103.92V71.5134C103.92 72.1401 103.847 72.6267 103.7 72.9734C103.567 73.3334 103.32 73.6067 102.96 73.7934C102.6 73.9801 102.133 74.1001 101.56 74.1534C101 74.2201 100.327 74.2534 99.54 74.2534C99.5 73.9334 99.4067 73.5401 99.26 73.0734C99.1267 72.6201 98.98 72.2267 98.82 71.8934C99.34 71.9067 99.8267 71.9201 100.28 71.9334C100.733 71.9334 101.04 71.9334 101.2 71.9334C101.373 71.9334 101.493 71.9067 101.56 71.8534C101.627 71.7867 101.66 71.6734 101.66 71.5134V55.9134ZM85.88 58.5134H97.3V59.9734H85.88V58.5134ZM86.88 62.5734H96.48V63.8934H86.88V62.5734ZM86 64.4934H97.22V66.0134H86V64.4934ZM90.64 66.9934H92.64V70.7734H90.64V66.9934ZM90.42 55.4934H92.56V65.5134H90.42V55.4934ZM85.88 71.9734C86.84 71.9467 87.94 71.9201 89.18 71.8934C90.42 71.8534 91.7333 71.8067 93.12 71.7534C94.52 71.6867 95.9067 71.6267 97.28 71.5734L97.2 73.3734C95.88 73.4267 94.54 73.4801 93.18 73.5334C91.82 73.6001 90.5267 73.6534 89.3 73.6934C88.0733 73.7467 86.9867 73.7934 86.04 73.8334L85.88 71.9734ZM86.98 56.5734H96.26V61.9734H86.92V60.6734H94.22V57.8934H86.98V56.5734ZM88.8 69.4134V70.0734H94.4V69.4134H88.8ZM88.8 67.6934V68.3534H94.4V67.6934H88.8ZM86.94 66.5934H96.34V71.1734H86.94V66.5934ZM58.8801 98.4934V96.2775L64.0577 91.4835C64.498 91.0573 64.8674 90.6738 65.1657 90.3329C65.4687 89.992 65.6983 89.6582 65.8546 89.3315C66.0108 89 66.089 88.6426 66.089 88.259C66.089 87.8329 65.9919 87.4659 65.7978 87.1582C65.6036 86.8457 65.3385 86.6066 65.0023 86.4409C64.6661 86.2704 64.285 86.1852 63.8588 86.1852C63.4138 86.1852 63.0255 86.2751 62.6941 86.4551C62.3626 86.635 62.1069 86.893 61.927 87.2292C61.7471 87.5654 61.6571 87.9655 61.6571 88.4295H58.7381C58.7381 87.4778 58.9535 86.6516 59.3844 85.9508C59.8153 85.25 60.419 84.7079 61.1955 84.3244C61.972 83.9409 62.8669 83.7491 63.8801 83.7491C64.9218 83.7491 65.8285 83.9337 66.6003 84.3031C67.3768 84.6677 67.9805 85.1743 68.4114 85.823C68.8423 86.4716 69.0577 87.215 69.0577 88.0531C69.0577 88.6023 68.9488 89.1444 68.731 89.6795C68.5179 90.2145 68.1368 90.8087 67.5875 91.4622C67.0383 92.1108 66.2641 92.8897 65.2651 93.7988L63.1415 95.8798V95.9792H69.2495V98.4934H58.8801Z" fill="white"/>
</g>
<defs>
<clipPath id="clip0_646_139">
<rect width="125" height="125" fill="white"/>
</clipPath>
</defs>
</svg>
