<svg width="174" height="42" viewBox="0 0 174 42" fill="none" xmlns="http://www.w3.org/2000/svg">
<path d="M50.7405 35.7019C55.1797 35.7019 55.89 34.5144 56.6003 28.0288C57.9321 28.851 60.3293 29.7644 61.8386 30.1298C60.862 38.5337 58.9087 41 51.0069 41H36.6237C28.1891 41 25.6143 39.2644 25.6143 32.5048V11.6779H30.9414V17.7981H50.7405V8.29808H23.8386V3H56.0676V25.1971H50.6517V23.0962H30.8526V32.5962C30.8526 35.3365 31.6517 35.7933 36.4461 35.7933H50.6517L50.7405 35.7019Z" fill="#FF5F17"/>
<path d="M99.275 36.5572C100.714 36.5572 100.893 35.8315 101.163 31.2052C102.242 32.0216 104.4 32.838 105.839 33.2009C105.299 39.6415 103.861 41.365 99.7246 41.365H94.2399C89.1149 41.365 87.8562 39.7322 87.8562 34.9244V26.3974H81.922C81.3825 34.9244 79.3145 39.6415 67.6259 42C67.2663 40.6393 65.8277 38.5529 64.8386 37.4644C74.8189 35.8315 76.1676 32.838 76.5272 26.3974H65.6478V21.4082H104.94V26.3974H93.161V34.9244C93.161 36.3758 93.4307 36.5572 94.9592 36.5572H99.1851H99.275ZM71.7619 16.1469H66.547V5.07991H82.6413C82.1917 3.90065 81.6522 2.72138 81.1127 1.63283L86.5075 0C87.4066 1.54212 88.3057 3.44708 88.8452 5.07991H104.04V16.1469H98.5557V10.1598H71.672V16.1469H71.7619ZM73.7399 18.2333V13.3348H96.4877V18.2333H73.7399Z" fill="#FF5F17"/>
<path d="M146.839 21.8113V25.6356H119.147V27.1475H114.072V15.2299C113.181 16.2082 112.202 17.1866 111.4 17.987C110.688 17.0087 108.907 14.8742 107.839 13.8959C111.756 10.872 115.407 5.89154 117.633 1L122.441 2.60087C121.996 3.57918 121.462 4.64642 120.928 5.62473H128.14C127.784 4.55748 127.25 3.4013 126.804 2.51193L131.613 1.08894C132.325 2.42299 133.215 4.1128 133.75 5.62473H145.77V9.27115H133.393V11.2278H143.544V14.5184H133.393V16.4751H143.633V19.8547H133.393V21.9892H146.839V21.8113ZM113.893 28.0369H144.345V42H138.914V40.2213H119.058V42H113.893V28.0369ZM119.147 32.039V36.1302H139.003V32.039H119.147ZM128.318 9.18221H119.236V11.1388H128.318V9.18221ZM128.318 14.4295H119.236V16.3861H128.318V14.4295ZM119.236 21.8113H128.318V19.6768H119.236V21.8113Z" fill="#FF5F17"/>
<path d="M3.09145 2.0676L0 2.9599L11.0546 41.2595L14.1461 40.3672L3.09145 2.0676Z" fill="#FF5F17"/>
<path d="M159.692 40.3457L162.784 41.238L173.839 2.93836L170.747 2.04606L159.692 40.3457Z" fill="#FF5F17"/>
</svg>
