<svg width="116" height="72" viewBox="0 0 116 72" fill="none" xmlns="http://www.w3.org/2000/svg">
<path d="M53.0819 47.5433C54.1709 47.4042 54.2372 46.8405 53.9966 43.3319C54.8918 43.8422 56.6037 44.2481 57.7275 44.3821C57.9384 49.2825 57.0152 50.719 53.8844 51.1189L49.7328 51.6491C45.8535 52.1446 44.7437 51.0372 44.2814 47.4181L43.4616 40.9993L38.9697 41.573C39.3812 48.044 38.2693 51.7947 29.6484 54.7002C29.2453 53.7107 27.9558 52.2792 27.1025 51.5554C34.5001 49.3614 35.2331 46.9776 34.8861 42.0946L26.651 43.1464L26.1713 39.3908L55.9131 35.592L56.3928 39.3477L47.4771 40.4865L48.2969 46.9052C48.4364 47.9978 48.6581 48.1083 49.8151 47.9605L53.0819 47.5433ZM30.2935 34.8391L26.346 35.3433L25.282 27.0126L37.4646 25.4566C37.0109 24.6123 36.4892 23.7768 35.9762 23.0095L39.9027 21.2588C40.7316 22.3327 41.5953 23.6798 42.1607 24.8568L53.6627 23.3877L54.7267 31.7184L50.5751 32.2487L49.9995 27.7419L29.6498 30.341L30.2254 34.8478L30.2935 34.8391ZM31.9914 36.2184L31.5204 32.5311L48.7394 30.3318L49.2103 34.0192L31.9914 36.2184Z" fill="#39BF63"/>
<path d="M88.3267 31.5909L88.7017 34.5271L67.5353 37.2306L67.6836 38.3914L63.8042 38.8869L62.6355 29.7367C62.0509 30.5748 61.3982 31.4215 60.8641 32.1143C60.2237 31.4327 58.6532 29.9677 57.7406 29.3209C60.4386 26.6168 62.7407 22.4364 63.9625 18.4634L67.7946 19.2231C67.5503 20.0177 67.2466 20.8893 66.9342 21.6926L72.4469 20.9885C72.0701 20.2038 71.5483 19.3683 71.1208 18.7289L74.6565 17.1669C75.3318 18.1217 76.1781 19.3322 76.7347 20.4409L85.9227 19.2673L86.2802 22.067L76.82 23.2753L77.0119 24.7776L84.7706 23.7866L85.0933 26.3131L77.3346 27.3041L77.5265 28.8064L85.3533 27.8067L85.6847 30.4015L77.8579 31.4012L78.0672 33.04L88.3441 31.7274L88.3267 31.5909ZM63.7553 39.5871L87.0315 36.6142L88.4008 47.3349L84.2492 47.8652L84.0748 46.4995L68.8976 48.438L69.072 49.8037L65.1246 50.3078L63.7553 39.5871ZM68.1633 42.1471L68.5645 45.2882L83.7416 43.3497L83.3405 40.2086L68.1633 42.1471ZM72.9319 23.7025L65.9899 24.5892L66.1818 26.0914L73.1238 25.2048L72.9319 23.7025ZM73.4465 27.7313L66.5045 28.618L66.6963 30.1202L73.6384 29.2336L73.4465 27.7313ZM67.2284 34.2856L74.1704 33.399L73.9611 31.7601L67.019 32.6468L67.2284 34.2856Z" fill="#39BF63"/>
<path d="M95.9754 3.20156L12.2627 13.8936C6.24867 14.6617 1.99805 20.176 2.76874 26.21L7.04229 59.6696C7.81298 65.7036 13.3131 69.9725 19.3272 69.2043L103.04 58.5123C109.054 57.7442 113.305 52.2299 112.534 46.1959L108.26 12.7363C107.49 6.70228 101.99 2.43343 95.9754 3.20156Z" stroke="#39BF63" stroke-width="5" stroke-miterlimit="10" stroke-linecap="round"/>
</svg>
