<svg width="51" height="51" viewBox="0 0 51 51" fill="none" xmlns="http://www.w3.org/2000/svg">
<path d="M7.37486 0.593228L23.1754 8.80809C24.6435 9.57715 26.3564 9.57715 27.8246 8.80809L43.6251 0.593228C47.9947 -1.67897 52.679 3.00526 50.4068 7.37487L42.1919 23.1754C41.4229 24.6436 41.4229 26.3565 42.1919 27.8246L50.4068 43.6251C52.679 47.9947 47.9947 52.679 43.6251 50.4068L27.8246 42.1919C26.3564 41.4229 24.6435 41.4229 23.1754 42.1919L7.37486 50.4068C3.00525 52.679 -1.67897 47.9947 0.593229 43.6251L8.80809 27.8246C9.57714 26.3565 9.57714 24.6436 8.80809 23.1754L0.593229 7.37487C-1.67897 3.00526 3.00525 -1.67897 7.37486 0.593228Z" fill="white"/>
</svg>
