<svg width="229" height="146" viewBox="0 0 229 146" fill="none" xmlns="http://www.w3.org/2000/svg">
<path d="M0.205444 125.888L0.66464 125.388L1.0473 124.964L1.42996 124.541L1.81262 124.156C2.31008 123.617 2.8458 123.078 3.34326 122.577L4.87389 121.038L6.40453 119.536C8.43262 117.534 10.4607 115.571 12.5271 113.646C13.5603 112.683 14.5934 111.721 15.6266 110.797C16.6598 109.835 17.693 108.911 18.7262 107.987L21.864 105.176L25.0018 102.405C33.4203 95.0899 42.0684 88.1218 50.9078 81.4617C68.5867 68.1029 87.1074 56.053 106.24 45.2736C115.845 39.9224 125.603 34.9176 135.514 30.2594C138.001 29.1044 140.488 27.988 143.014 26.8716L146.764 25.1777L150.552 23.5992C153.078 22.5598 155.603 21.4819 158.129 20.4809L165.782 17.5551L167.695 16.8236L168.652 16.4771L169.609 16.1306L173.474 14.7832L177.338 13.4358C178.639 13.0123 179.902 12.5118 181.203 12.1269C186.408 10.5099 191.535 8.77753 196.816 7.39161L200.719 6.31366L202.671 5.7747L203.665 5.5052L204.66 5.27422L212.543 3.34932C213.844 3.04134 215.183 2.69485 216.484 2.42537L220.464 1.61692L228.385 0L220.694 2.57936L216.867 3.8498C215.604 4.27328 214.342 4.77375 213.079 5.23572L205.502 8.04607L204.546 8.39255L203.627 8.77753L201.752 9.54749L198.04 11.0874C193.027 13.0508 188.168 15.3607 183.308 17.5551C182.083 18.094 180.897 18.71 179.673 19.2875L176.076 21.0584L172.479 22.8293L171.56 23.2528L170.68 23.7147L168.92 24.6387L161.802 28.373C159.468 29.6434 157.134 30.9908 154.8 32.2998L151.318 34.2632L147.874 36.3421C145.578 37.728 143.282 39.0754 141.024 40.4613C131.993 46.1205 123.154 52.0877 114.506 58.3244C97.3244 70.9132 80.9848 84.503 65.755 99.1707C58.1401 106.485 50.7547 114.031 43.6755 121.808L41.0352 124.733L38.4331 127.698C37.553 128.66 36.7112 129.661 35.8693 130.662C35.0275 131.663 34.1473 132.625 33.3437 133.626C31.66 135.628 30.0146 137.63 28.4074 139.632L27.2212 141.133L26.0732 142.635C25.6906 143.135 25.3079 143.636 24.9252 144.136L24.6574 144.521L24.3895 144.868L24.1217 145.214L24.0451 145.291V145.368C24.0069 145.368 23.9303 145.484 23.9303 145.484L0.281981 125.927L0.205444 125.888Z" fill="white"/>
</svg>
