<svg width="426" height="511" viewBox="0 0 426 511" fill="none" xmlns="http://www.w3.org/2000/svg">
<rect x="3.08105" y="51.2275" width="420.417" height="456.322" rx="23.5" fill="white" stroke="#FF5F17" stroke-width="5"/>
<path d="M76.8346 188.555V214.01H71.4528V193.664H71.3037L65.4745 197.318V192.545L71.776 188.555H76.8346ZM99.6512 194.69H110.116V198.47H99.6512V194.69ZM99.6512 203.475H110.116V207.255H99.6512V203.475ZM97.4812 186.045H112.496V214.78H108.261V189.825H101.541V214.78H97.4812V186.045ZM94.2612 212.47H114.841V216.25H94.2612V212.47ZM87.1212 184.33L90.8312 185.625C89.3962 188.355 87.7512 191.47 86.3862 193.395L83.5512 192.24C84.8112 190.14 86.3162 186.78 87.1212 184.33ZM91.3212 188.46L94.8562 189.93C92.2662 193.955 88.8362 198.82 86.1412 201.795L83.5862 200.5C86.2812 197.35 89.4662 192.205 91.3212 188.46ZM81.7312 192.625L83.6912 189.72C85.5812 191.33 87.7512 193.57 88.6612 195.11L86.5262 198.4C85.6512 196.72 83.5162 194.305 81.7312 192.625ZM90.4462 196.895L93.4212 195.6C94.8212 197.945 96.2212 200.99 96.6762 203.02L93.4912 204.49C93.0712 202.495 91.7762 199.31 90.4462 196.895ZM81.6962 199.73C84.9512 199.625 89.7812 199.415 94.4712 199.17V202.495C90.0612 202.845 85.5112 203.16 82.0462 203.37L81.6962 199.73ZM91.0762 205.68L94.1562 204.665C95.0662 206.765 96.0112 209.495 96.4312 211.28L93.1412 212.47C92.8262 210.65 91.9162 207.815 91.0762 205.68ZM83.2012 204.875L86.6662 205.47C86.3162 208.83 85.5462 212.33 84.5312 214.57C83.7962 214.115 82.2212 213.38 81.3462 213.03C82.3612 210.965 82.9212 207.85 83.2012 204.875ZM87.2612 201.585H91.0062V217.195H87.2612V201.585ZM141.037 214.045C137.992 214.045 133.687 212.855 131.307 210.51L133.617 207.01C135.787 208.935 138.447 209.845 141.037 209.845C144.572 209.845 146.182 208.76 146.182 206.73C146.182 202.145 132.357 203.58 132.357 195.25C132.357 190.7 135.997 187.76 141.492 187.76C145.692 187.76 148.457 189.335 150.837 191.47L148.247 194.55C146.217 192.87 144.082 191.96 141.702 191.96C139.077 191.96 137.292 192.905 137.292 194.9C137.292 199.24 151.117 197.77 151.117 206.275C151.117 210.86 147.477 214.045 141.037 214.045ZM139.917 189.475V183.42H143.347V189.475H139.917ZM139.917 218.42V211.98H143.347V218.42H139.917ZM346.862 198.96H351.202V211.07C351.202 212.435 351.412 212.61 352.532 212.61C353.022 212.61 355.087 212.61 355.717 212.61C356.907 212.61 357.117 211.735 357.257 206.66C358.167 207.395 360.022 208.13 361.142 208.41C360.722 214.745 359.672 216.565 356.102 216.565C355.297 216.565 352.637 216.565 351.867 216.565C347.877 216.565 346.862 215.2 346.862 211.105V198.96ZM329.082 196.265H360.477V200.36H329.082V196.265ZM332.267 186.745H357.257V190.805H332.267V186.745ZM337.097 199.485H341.612C341.052 207.185 339.722 213.52 330.902 217.055C330.447 216.005 329.257 214.465 328.312 213.66C336.012 210.79 336.677 205.645 337.097 199.485Z" fill="black"/>
<path d="M186.299 151.346C189.479 151.346 192.537 151.88 195.475 152.946C198.433 154.013 201.07 155.713 203.384 158.047C205.718 160.382 207.559 163.481 208.908 167.344C210.276 171.188 210.97 175.907 210.99 181.501C210.99 186.753 210.397 191.442 209.209 195.567C208.042 199.672 206.362 203.163 204.169 206.041C201.975 208.919 199.329 211.112 196.23 212.621C193.131 214.11 189.67 214.855 185.846 214.855C181.721 214.855 178.079 214.06 174.92 212.47C171.76 210.86 169.215 208.677 167.283 205.92C165.371 203.143 164.214 200.024 163.812 196.563H176.701C177.204 198.817 178.26 200.568 179.87 201.815C181.48 203.043 183.472 203.656 185.846 203.656C189.871 203.656 192.93 201.906 195.023 198.404C197.115 194.883 198.172 190.063 198.192 183.946H197.769C196.844 185.757 195.596 187.316 194.026 188.624C192.457 189.912 190.656 190.908 188.623 191.613C186.611 192.317 184.468 192.669 182.194 192.669C178.552 192.669 175.302 191.814 172.444 190.104C169.587 188.393 167.333 186.039 165.683 183.04C164.033 180.042 163.208 176.621 163.208 172.778C163.188 168.632 164.144 164.94 166.076 161.7C168.007 158.46 170.704 155.924 174.165 154.093C177.646 152.242 181.691 151.326 186.299 151.346ZM186.39 161.609C184.357 161.609 182.546 162.092 180.957 163.058C179.387 164.024 178.139 165.322 177.214 166.952C176.308 168.582 175.865 170.403 175.886 172.415C175.886 174.448 176.328 176.279 177.214 177.909C178.119 179.519 179.347 180.807 180.896 181.773C182.466 182.718 184.257 183.191 186.269 183.191C187.778 183.191 189.177 182.91 190.465 182.346C191.753 181.783 192.869 181.008 193.815 180.022C194.781 179.016 195.536 177.859 196.079 176.551C196.622 175.243 196.894 173.854 196.894 172.385C196.874 170.433 196.411 168.642 195.506 167.012C194.6 165.382 193.352 164.074 191.763 163.088C190.173 162.102 188.382 161.609 186.39 161.609ZM242.413 151.346C245.592 151.346 248.651 151.88 251.589 152.946C254.547 154.013 257.183 155.713 259.497 158.047C261.831 160.382 263.673 163.481 265.021 167.344C266.389 171.188 267.083 175.907 267.104 181.501C267.104 186.753 266.51 191.442 265.323 195.567C264.156 199.672 262.475 203.163 260.282 206.041C258.088 208.919 255.442 211.112 252.343 212.621C249.244 214.11 245.783 214.855 241.96 214.855C237.834 214.855 234.192 214.06 231.033 212.47C227.874 210.86 225.328 208.677 223.396 205.92C221.484 203.143 220.327 200.024 219.925 196.563H232.814C233.317 198.817 234.373 200.568 235.983 201.815C237.593 203.043 239.585 203.656 241.96 203.656C245.984 203.656 249.043 201.906 251.136 198.404C253.229 194.883 254.285 190.063 254.305 183.946H253.883C252.957 185.757 251.709 187.316 250.14 188.624C248.57 189.912 246.769 190.908 244.737 191.613C242.724 192.317 240.581 192.669 238.307 192.669C234.665 192.669 231.415 191.814 228.558 190.104C225.7 188.393 223.446 186.039 221.796 183.04C220.146 180.042 219.321 176.621 219.321 172.778C219.301 168.632 220.257 164.94 222.189 161.7C224.121 158.46 226.817 155.924 230.278 154.093C233.76 152.242 237.804 151.326 242.413 151.346ZM242.503 161.609C240.471 161.609 238.66 162.092 237.07 163.058C235.5 164.024 234.253 165.322 233.327 166.952C232.421 168.582 231.979 170.403 231.999 172.415C231.999 174.448 232.442 176.279 233.327 177.909C234.232 179.519 235.46 180.807 237.009 181.773C238.579 182.718 240.37 183.191 242.382 183.191C243.892 183.191 245.29 182.91 246.578 182.346C247.866 181.783 248.983 181.008 249.928 180.022C250.894 179.016 251.649 177.859 252.192 176.551C252.736 175.243 253.007 173.854 253.007 172.385C252.987 170.433 252.524 168.642 251.619 167.012C250.713 165.382 249.466 164.074 247.876 163.088C246.286 162.102 244.495 161.609 242.503 161.609ZM298.526 151.346C301.705 151.346 304.764 151.88 307.702 152.946C310.66 154.013 313.296 155.713 315.61 158.047C317.945 160.382 319.786 163.481 321.134 167.344C322.502 171.188 323.197 175.907 323.217 181.501C323.217 186.753 322.623 191.442 321.436 195.567C320.269 199.672 318.589 203.163 316.395 206.041C314.202 208.919 311.555 211.112 308.457 212.621C305.358 214.11 301.896 214.855 298.073 214.855C293.948 214.855 290.305 214.06 287.146 212.47C283.987 210.86 281.441 208.677 279.509 205.92C277.598 203.143 276.441 200.024 276.038 196.563H288.927C289.43 198.817 290.487 200.568 292.096 201.815C293.706 203.043 295.698 203.656 298.073 203.656C302.098 203.656 305.156 201.906 307.249 198.404C309.342 194.883 310.398 190.063 310.419 183.946H309.996C309.07 185.757 307.823 187.316 306.253 188.624C304.683 189.912 302.882 190.908 300.85 191.613C298.838 192.317 296.695 192.669 294.421 192.669C290.778 192.669 287.529 191.814 284.671 190.104C281.814 188.393 279.56 186.039 277.91 183.04C276.26 180.042 275.435 176.621 275.435 172.778C275.414 168.632 276.37 164.94 278.302 161.7C280.234 158.46 282.93 155.924 286.392 154.093C289.873 152.242 293.918 151.326 298.526 151.346ZM298.616 161.609C296.584 161.609 294.773 162.092 293.183 163.058C291.613 164.024 290.366 165.322 289.44 166.952C288.535 168.582 288.092 170.403 288.112 172.415C288.112 174.448 288.555 176.279 289.44 177.909C290.346 179.519 291.573 180.807 293.123 181.773C294.692 182.718 296.483 183.191 298.496 183.191C300.005 183.191 301.403 182.91 302.691 182.346C303.979 181.783 305.096 181.008 306.042 180.022C307.008 179.016 307.762 177.859 308.306 176.551C308.849 175.243 309.121 173.854 309.121 172.385C309.1 170.433 308.638 168.642 307.732 167.012C306.827 165.382 305.579 164.074 303.989 163.088C302.399 162.102 300.609 161.609 298.616 161.609Z" fill="#FF5F17"/>
<path d="M36.8956 265.748C36.1508 265.748 35.4706 265.567 34.8551 265.203C34.2396 264.834 33.7471 264.342 33.3778 263.726C33.0147 263.111 32.8331 262.43 32.8331 261.686C32.8331 260.935 33.0147 260.255 33.3778 259.645C33.7471 259.03 34.2396 258.54 34.8551 258.177C35.4706 257.808 36.1508 257.623 36.8956 257.623C37.6465 257.623 38.3267 257.808 38.9361 258.177C39.5516 258.54 40.0409 259.03 40.4041 259.645C40.7734 260.255 40.9581 260.935 40.9581 261.686C40.9581 262.43 40.7734 263.111 40.4041 263.726C40.0409 264.342 39.5516 264.834 38.9361 265.203C38.3267 265.567 37.6465 265.748 36.8956 265.748ZM58.3826 264.072H68.4186V265.762H58.3826V264.072ZM59.8126 261.784H68.9906V263.24H59.8126V261.784ZM59.8126 259.548H68.8866V260.978H59.8126V259.548ZM63.0106 258.066H65.3506V265.06H63.0106V258.066ZM68.0546 264.072H70.4466C70.4466 264.072 70.4466 264.176 70.4466 264.384C70.4466 264.574 70.4379 264.748 70.4206 264.904C70.3686 265.996 70.3079 266.897 70.2386 267.608C70.1866 268.318 70.1086 268.864 70.0046 269.246C69.9179 269.644 69.7879 269.948 69.6146 270.156C69.4412 270.364 69.2332 270.52 68.9906 270.624C68.7479 270.728 68.4879 270.797 68.2106 270.832C67.9506 270.849 67.6212 270.858 67.2226 270.858C66.8412 270.875 66.4339 270.875 66.0006 270.858C65.9832 270.563 65.9226 270.234 65.8186 269.87C65.7146 269.523 65.5932 269.228 65.4546 268.986C65.7839 269.02 66.0786 269.046 66.3386 269.064C66.6159 269.081 66.8239 269.081 66.9626 269.064C67.2226 269.081 67.4219 269.012 67.5606 268.856C67.6819 268.7 67.7772 268.301 67.8466 267.66C67.9332 267.001 68.0026 265.909 68.0546 264.384V264.072ZM57.8886 266.204L59.7086 266.672C59.5872 267.452 59.4052 268.206 59.1626 268.934C58.9199 269.644 58.5386 270.234 58.0186 270.702L56.3806 269.61C56.7966 269.228 57.1259 268.726 57.3686 268.102C57.6286 267.478 57.8019 266.845 57.8886 266.204ZM65.0646 266.412L66.3126 266.022C66.5552 266.351 66.7632 266.724 66.9366 267.14C67.1099 267.556 67.2399 267.92 67.3266 268.232L66.0006 268.726C65.9312 268.396 65.8099 268.015 65.6366 267.582C65.4806 267.148 65.2899 266.758 65.0646 266.412ZM60.3586 266.828L61.8926 266.62C61.9966 267.157 62.0659 267.755 62.1006 268.414C62.1526 269.072 62.1699 269.618 62.1526 270.052L60.4886 270.312C60.5406 269.844 60.5492 269.289 60.5146 268.648C60.4972 267.989 60.4452 267.382 60.3586 266.828ZM62.8026 266.698L64.2326 266.36C64.4059 266.828 64.5532 267.348 64.6746 267.92C64.7959 268.474 64.8739 268.951 64.9086 269.35L63.4006 269.766C63.3832 269.35 63.3226 268.856 63.2186 268.284C63.1146 267.712 62.9759 267.183 62.8026 266.698ZM58.3826 257.052H69.6406V258.768H60.8266V265.008H58.3826V257.052ZM54.6126 251.02H61.1646V252.788H54.6126V251.02ZM66.4946 251.02H73.0986V252.788H66.4946V251.02ZM72.1626 247.978H75.1526V268.44C75.1526 269.133 75.0746 269.679 74.9186 270.078C74.7799 270.494 74.5026 270.823 74.0866 271.066C73.6879 271.308 73.1852 271.456 72.5786 271.508C71.9892 271.56 71.2872 271.586 70.4726 271.586C70.4379 271.204 70.3426 270.745 70.1866 270.208C70.0306 269.67 69.8572 269.22 69.6666 268.856C70.0826 268.873 70.4899 268.882 70.8886 268.882C71.3046 268.882 71.5906 268.882 71.7466 268.882C71.9026 268.864 72.0066 268.821 72.0586 268.752C72.1279 268.682 72.1626 268.57 72.1626 268.414V247.978ZM54.8986 247.978H63.1406V255.908H54.8986V253.932H60.2286V249.954H54.8986V247.978ZM73.6706 247.978V249.954H67.8206V253.906H73.6706V255.882H64.8566V247.978H73.6706ZM53.0526 247.978H55.9646V271.586H53.0526V247.978ZM88.5686 260.926L90.0766 260.458C90.3712 260.891 90.6399 261.376 90.8826 261.914C91.1426 262.434 91.3159 262.893 91.4026 263.292L89.8166 263.838C89.7299 263.422 89.5652 262.945 89.3226 262.408C89.0972 261.87 88.8459 261.376 88.5686 260.926ZM84.2266 258.95L85.2146 257.754C85.6826 258.066 86.1679 258.438 86.6706 258.872C87.1732 259.305 87.5459 259.695 87.7886 260.042L86.7486 261.42C86.5059 261.056 86.1419 260.64 85.6566 260.172C85.1712 259.704 84.6946 259.296 84.2266 258.95ZM87.1126 256.09L88.9066 256.792C88.5599 257.225 88.2046 257.667 87.8406 258.118C87.4939 258.568 87.1646 258.941 86.8526 259.236L85.4746 258.638C85.7519 258.274 86.0466 257.849 86.3586 257.364C86.6706 256.878 86.9219 256.454 87.1126 256.09ZM88.8806 257.988L90.4926 258.69C90.0592 259.158 89.5999 259.643 89.1146 260.146C88.6292 260.648 88.1526 261.134 87.6846 261.602C87.2166 262.052 86.7746 262.451 86.3586 262.798L85.1626 262.174C85.5786 261.792 86.0119 261.359 86.4626 260.874C86.9306 260.371 87.3726 259.868 87.7886 259.366C88.2219 258.846 88.5859 258.386 88.8806 257.988ZM91.5846 263.76H93.7166V271.04H91.5846V263.76ZM83.9926 261.966C84.8246 261.914 85.7606 261.862 86.8006 261.81C87.8579 261.74 88.9759 261.662 90.1546 261.576V263.162C89.0799 263.266 88.0399 263.361 87.0346 263.448C86.0292 263.517 85.0846 263.586 84.2006 263.656L83.9926 261.966ZM95.1206 260.77L96.7066 260.302C97.0186 260.787 97.3132 261.324 97.5906 261.914C97.8679 262.486 98.0586 262.997 98.1626 263.448L96.5246 263.968C96.4379 263.534 96.2646 263.023 96.0046 262.434C95.7446 261.827 95.4499 261.272 95.1206 260.77ZM90.4146 258.82L91.5326 257.676C92.0526 258.022 92.5726 258.438 93.0926 258.924C93.6299 259.409 94.0286 259.851 94.2886 260.25L93.1446 261.55C92.8846 261.134 92.4946 260.674 91.9746 260.172C91.4546 259.652 90.9346 259.201 90.4146 258.82ZM93.4046 256.064L95.3026 256.766C94.9039 257.268 94.5052 257.754 94.1066 258.222C93.7079 258.69 93.3352 259.106 92.9886 259.47L91.5846 258.846C91.8966 258.464 92.2259 258.005 92.5726 257.468C92.9192 256.93 93.1966 256.462 93.4046 256.064ZM95.2766 257.988L96.9146 258.742C96.4639 259.227 95.9872 259.73 95.4846 260.25C94.9819 260.77 94.4792 261.264 93.9766 261.732C93.4739 262.2 92.9886 262.616 92.5206 262.98L91.3246 262.304C91.7579 261.922 92.2172 261.489 92.7026 261.004C93.2052 260.501 93.6819 259.99 94.1326 259.47C94.5832 258.932 94.9646 258.438 95.2766 257.988ZM90.9346 261.966C91.7319 261.931 92.6419 261.879 93.6646 261.81C94.7046 261.74 95.7966 261.671 96.9406 261.602V263.162C95.9352 263.266 94.9472 263.361 93.9766 263.448C93.0232 263.517 92.1306 263.586 91.2986 263.656L90.9346 261.966ZM84.7986 264.202H86.6966V266.438H89.5046V268.18H84.7986V264.202ZM95.3286 264.202H97.2786V268.18H93.2746V266.438H95.3286V264.202ZM88.2826 263.76H90.3366V266.282C90.3366 266.958 90.2499 267.616 90.0766 268.258C89.9032 268.899 89.5479 269.488 89.0106 270.026C88.4732 270.563 87.6499 271.022 86.5406 271.404C86.4192 271.144 86.2199 270.849 85.9426 270.52C85.6652 270.19 85.4226 269.922 85.2146 269.714C86.1159 269.454 86.7832 269.142 87.2166 268.778C87.6499 268.396 87.9359 267.989 88.0746 267.556C88.2132 267.122 88.2826 266.68 88.2826 266.23V263.76ZM81.6526 251.436H88.2046V253.334H81.6526V251.436ZM93.6126 251.436H100.217V253.334H93.6126V251.436ZM99.1766 248.134H102.167V267.972C102.167 268.717 102.097 269.315 101.959 269.766C101.82 270.234 101.525 270.598 101.075 270.858C100.641 271.118 100.113 271.274 99.4886 271.326C98.8646 271.395 98.1192 271.43 97.2526 271.43C97.2179 271.135 97.1572 270.806 97.0706 270.442C96.9839 270.078 96.8799 269.705 96.7586 269.324C96.6546 268.96 96.5332 268.648 96.3946 268.388C96.8626 268.405 97.3219 268.422 97.7726 268.44C98.2406 268.44 98.5612 268.431 98.7346 268.414C98.9079 268.414 99.0206 268.379 99.0726 268.31C99.1419 268.24 99.1766 268.119 99.1766 267.946V248.134ZM81.9386 248.134H90.1806V256.61H81.9386V254.53H87.2686V250.214H81.9386V248.134ZM100.711 248.134V250.214H94.8606V254.53H100.711V256.61H91.8966V248.134H100.711ZM80.0926 248.134H83.0566V271.56H80.0926V248.134ZM106.301 256.324H129.987V259.418H106.301V256.324ZM117.897 250.318H127.153V253.308H117.897V250.318ZM115.869 247.12H119.197V257.806H115.869V247.12ZM115.869 258.3H119.197V271.534H115.869V258.3ZM118.235 263.266L119.821 260.77C120.479 260.96 121.199 261.186 121.979 261.446C122.759 261.688 123.547 261.957 124.345 262.252C125.142 262.529 125.896 262.806 126.607 263.084C127.317 263.361 127.915 263.621 128.401 263.864L126.737 266.698C126.269 266.438 125.688 266.16 124.995 265.866C124.319 265.571 123.591 265.268 122.811 264.956C122.031 264.644 121.242 264.34 120.445 264.046C119.665 263.751 118.928 263.491 118.235 263.266ZM133.133 257.39H157.209V260.796H133.133V257.39ZM172.679 251.93H182.091V254.114H172.679V251.93ZM172.679 255.414H182.091V257.598H172.679V255.414ZM169.429 258.976H184.405V261.68H169.429V258.976ZM171.301 248.004H183.053V250.656H174.291V260.432H171.301V248.004ZM169.299 268.232C170.391 268.11 171.699 267.963 173.225 267.79C174.75 267.599 176.293 267.4 177.853 267.192L177.983 269.896C176.544 270.138 175.114 270.364 173.693 270.572C172.271 270.78 170.971 270.97 169.793 271.144L169.299 268.232ZM177.983 260.432C178.329 261.732 178.797 262.945 179.387 264.072C179.976 265.181 180.721 266.143 181.623 266.958C182.524 267.772 183.59 268.405 184.821 268.856C184.595 269.064 184.353 269.324 184.093 269.636C183.833 269.965 183.581 270.303 183.339 270.65C183.113 270.996 182.931 271.308 182.793 271.586C181.423 270.979 180.262 270.156 179.309 269.116C178.373 268.076 177.593 266.862 176.969 265.476C176.345 264.089 175.833 262.555 175.435 260.874L177.983 260.432ZM181.805 261.758L184.379 263.162C183.668 263.786 182.931 264.401 182.169 265.008C181.406 265.597 180.713 266.1 180.089 266.516L178.165 265.32C178.563 265.008 178.988 264.652 179.439 264.254C179.889 263.838 180.323 263.413 180.739 262.98C181.155 262.529 181.51 262.122 181.805 261.758ZM171.379 259.756H174.369V268.648L171.379 269.142V259.756ZM161.603 259.782H167.817V262.564H161.603V259.782ZM166.413 259.782H169.507C169.507 259.782 169.498 259.86 169.481 260.016C169.481 260.154 169.481 260.319 169.481 260.51C169.481 260.683 169.472 260.839 169.455 260.978C169.333 262.988 169.203 264.635 169.065 265.918C168.943 267.2 168.787 268.197 168.597 268.908C168.406 269.618 168.181 270.13 167.921 270.442C167.626 270.771 167.314 271.005 166.985 271.144C166.673 271.3 166.309 271.404 165.893 271.456C165.546 271.525 165.087 271.56 164.515 271.56C163.96 271.577 163.362 271.568 162.721 271.534C162.703 271.1 162.617 270.606 162.461 270.052C162.305 269.497 162.105 269.029 161.863 268.648C162.4 268.682 162.894 268.708 163.345 268.726C163.795 268.743 164.142 268.752 164.385 268.752C164.575 268.752 164.74 268.734 164.879 268.7C165.035 268.648 165.173 268.561 165.295 268.44C165.468 268.249 165.615 267.868 165.737 267.296C165.875 266.706 165.997 265.84 166.101 264.696C166.222 263.552 166.326 262.07 166.413 260.25V259.782ZM161.317 254.374H164.151C164.047 255.362 163.925 256.402 163.787 257.494C163.665 258.586 163.535 259.643 163.397 260.666C163.275 261.671 163.145 262.564 163.007 263.344L160.121 263.032C160.277 262.269 160.424 261.394 160.563 260.406C160.719 259.418 160.866 258.395 161.005 257.338C161.143 256.28 161.247 255.292 161.317 254.374ZM161.525 254.374H166.231V251.306H160.589V248.446H169.065V257.234H161.525V254.374ZM36.8956 304.748C36.1508 304.748 35.4706 304.567 34.8551 304.203C34.2396 303.834 33.7471 303.342 33.3778 302.726C33.0147 302.111 32.8331 301.43 32.8331 300.686C32.8331 299.935 33.0147 299.255 33.3778 298.645C33.7471 298.03 34.2396 297.54 34.8551 297.177C35.4706 296.808 36.1508 296.623 36.8956 296.623C37.6465 296.623 38.3267 296.808 38.9361 297.177C39.5516 297.54 40.0409 298.03 40.4041 298.645C40.7734 299.255 40.9581 299.935 40.9581 300.686C40.9581 301.43 40.7734 302.111 40.4041 302.726C40.0409 303.342 39.5516 303.834 38.9361 304.203C38.3267 304.567 37.6465 304.748 36.8956 304.748ZM65.2206 300.784H68.4186V306.53C68.4186 306.946 68.4792 307.214 68.6006 307.336C68.7392 307.44 69.0512 307.492 69.5366 307.492C69.6232 307.492 69.7879 307.492 70.0306 307.492C70.2732 307.492 70.5332 307.492 70.8106 307.492C71.1052 307.492 71.3826 307.492 71.6426 307.492C71.9026 307.492 72.0932 307.492 72.2146 307.492C72.5092 307.492 72.7259 307.414 72.8646 307.258C73.0206 307.102 73.1332 306.79 73.2026 306.322C73.2719 305.836 73.3239 305.117 73.3586 304.164C73.5839 304.32 73.8612 304.484 74.1906 304.658C74.5372 304.814 74.8926 304.952 75.2566 305.074C75.6206 305.195 75.9412 305.29 76.2186 305.36C76.1146 306.677 75.9326 307.7 75.6726 308.428C75.4126 309.156 75.0312 309.658 74.5286 309.936C74.0432 310.213 73.3759 310.352 72.5266 310.352C72.3879 310.352 72.1972 310.352 71.9546 310.352C71.7292 310.352 71.4779 310.352 71.2006 310.352C70.9232 310.352 70.6372 310.352 70.3426 310.352C70.0652 310.352 69.8139 310.352 69.5886 310.352C69.3632 310.352 69.1899 310.352 69.0686 310.352C68.0459 310.352 67.2486 310.23 66.6766 309.988C66.1219 309.762 65.7406 309.372 65.5326 308.818C65.3246 308.263 65.2206 307.509 65.2206 306.556V300.784ZM59.2146 301.798H62.5166C62.3606 302.872 62.1179 303.86 61.7886 304.762C61.4766 305.663 60.9912 306.486 60.3326 307.232C59.6739 307.96 58.7812 308.601 57.6546 309.156C56.5279 309.71 55.0892 310.196 53.3386 310.612C53.2519 310.334 53.1132 310.022 52.9226 309.676C52.7319 309.346 52.5239 309.017 52.2986 308.688C52.0732 308.376 51.8566 308.107 51.6486 307.882C53.1739 307.622 54.4046 307.301 55.3406 306.92C56.2766 306.521 57.0046 306.07 57.5246 305.568C58.0446 305.065 58.4259 304.502 58.6686 303.878C58.9112 303.236 59.0932 302.543 59.2146 301.798ZM58.7986 295.896V299.38H69.2766V295.896H58.7986ZM55.7566 293.088H72.4746V302.162H55.7566V293.088ZM61.5286 286.744H68.5486V289.578H61.5286V286.744ZM57.9146 287.81L61.0346 288.824C60.5146 289.812 59.8819 290.774 59.1366 291.71C58.3912 292.628 57.5939 293.486 56.7446 294.284C55.8952 295.064 55.0372 295.74 54.1706 296.312C54.0146 296.104 53.7892 295.844 53.4946 295.532C53.1999 295.22 52.8966 294.916 52.5846 294.622C52.2726 294.31 51.9952 294.067 51.7526 293.894C53.0006 293.218 54.1706 292.342 55.2626 291.268C56.3719 290.176 57.2559 289.023 57.9146 287.81ZM66.1046 286.744H69.4326C69.9006 287.662 70.4986 288.564 71.2266 289.448C71.9546 290.314 72.7692 291.12 73.6706 291.866C74.5719 292.611 75.5079 293.226 76.4786 293.712C76.2359 293.902 75.9586 294.145 75.6466 294.44C75.3346 294.734 75.0312 295.038 74.7366 295.35C74.4592 295.644 74.2252 295.922 74.0346 296.182C73.0466 295.54 72.0932 294.795 71.1746 293.946C70.2732 293.096 69.4499 292.186 68.7046 291.216C67.9592 290.245 67.3179 289.283 66.7806 288.33H66.1046V286.744ZM91.0126 286.068L93.8986 286.536C93.3266 287.922 92.5986 289.266 91.7146 290.566C90.8479 291.866 89.7039 293.053 88.2826 294.128C88.0572 293.781 87.7366 293.426 87.3206 293.062C86.9219 292.68 86.5579 292.394 86.2286 292.204C87.0779 291.632 87.8059 291.008 88.4126 290.332C89.0366 289.656 89.5652 288.954 89.9986 288.226C90.4319 287.48 90.7699 286.761 91.0126 286.068ZM91.7406 287.992H96.8366V290.384H90.2846L91.7406 287.992ZM92.1306 294.024H94.3406C94.2886 294.856 94.1759 295.61 94.0026 296.286C93.8292 296.962 93.5346 297.56 93.1186 298.08C92.7026 298.582 92.1046 299.016 91.3246 299.38C91.2032 299.12 91.0126 298.825 90.7526 298.496C90.4926 298.166 90.2499 297.906 90.0246 297.716C90.8566 297.352 91.4026 296.866 91.6626 296.26C91.9399 295.653 92.0959 294.908 92.1306 294.024ZM95.3286 294.128H97.5906V296.234C97.5906 296.476 97.6079 296.624 97.6426 296.676C97.6946 296.728 97.8159 296.754 98.0066 296.754C98.0759 296.754 98.1712 296.754 98.2926 296.754C98.4312 296.754 98.5699 296.754 98.7086 296.754C98.8646 296.754 98.9686 296.754 99.0206 296.754C99.1766 296.754 99.2806 296.736 99.3326 296.702C99.4019 296.65 99.4539 296.572 99.4886 296.468C99.6966 296.606 99.9912 296.745 100.373 296.884C100.754 297.022 101.101 297.126 101.413 297.196C101.291 297.768 101.066 298.166 100.737 298.392C100.407 298.6 99.9479 298.704 99.3586 298.704C99.2719 298.704 99.1506 298.704 98.9946 298.704C98.8386 298.704 98.6739 298.704 98.5006 298.704C98.3272 298.704 98.1626 298.704 98.0066 298.704C97.8679 298.704 97.7552 298.704 97.6686 298.704C97.0272 298.704 96.5332 298.634 96.1866 298.496C95.8572 298.34 95.6319 298.088 95.5106 297.742C95.3892 297.378 95.3286 296.875 95.3286 296.234V294.128ZM86.7746 301.694H102.947V304.268H86.7746V301.694ZM96.4206 302.552C96.8886 304.042 97.6686 305.238 98.7606 306.14C99.8526 307.024 101.387 307.604 103.363 307.882C103.051 308.176 102.721 308.584 102.375 309.104C102.045 309.624 101.794 310.083 101.621 310.482C100.078 310.152 98.7952 309.658 97.7726 309C96.7499 308.341 95.9179 307.509 95.2766 306.504C94.6352 305.481 94.1239 304.268 93.7426 302.864L96.4206 302.552ZM90.4926 292.256H100.113V294.7H90.4926V300.888H87.9186V292.256H87.9446H90.4926ZM99.4366 292.256H102.089V300.862H99.4366V292.256ZM95.7966 287.992H96.4466L96.8886 287.862L98.8646 289.11C98.6046 289.63 98.3012 290.193 97.9546 290.8C97.6252 291.389 97.2786 291.961 96.9146 292.516C96.5506 293.053 96.2039 293.538 95.8746 293.972C95.6146 293.781 95.2766 293.556 94.8606 293.296C94.4446 293.036 94.0806 292.828 93.7686 292.672C94.0286 292.29 94.2886 291.848 94.5486 291.346C94.8259 290.843 95.0686 290.34 95.2766 289.838C95.5019 289.318 95.6752 288.876 95.7966 288.512V287.992ZM93.3786 299.588H96.2126C96.1259 301.044 95.9526 302.361 95.6926 303.54C95.4326 304.718 94.9906 305.758 94.3666 306.66C93.7426 307.561 92.8499 308.332 91.6886 308.974C90.5272 309.632 89.0019 310.178 87.1126 310.612C86.9912 310.248 86.7746 309.823 86.4626 309.338C86.1679 308.87 85.8819 308.488 85.6046 308.194C87.2859 307.882 88.6292 307.483 89.6346 306.998C90.6399 306.495 91.3939 305.897 91.8966 305.204C92.4166 304.51 92.7719 303.704 92.9626 302.786C93.1706 301.85 93.3092 300.784 93.3786 299.588ZM78.6106 299.198C79.6506 298.972 80.8899 298.669 82.3286 298.288C83.7846 297.906 85.2492 297.508 86.7226 297.092L87.1126 299.9C85.7779 300.298 84.4259 300.697 83.0566 301.096C81.7046 301.494 80.4479 301.858 79.2866 302.188L78.6106 299.198ZM79.0266 291.06H86.9826V293.92H79.0266V291.06ZM81.7566 286.146H84.6166V307.258C84.6166 307.968 84.5386 308.532 84.3826 308.948C84.2439 309.381 83.9752 309.719 83.5766 309.962C83.1952 310.204 82.7099 310.369 82.1206 310.456C81.5486 310.542 80.8292 310.577 79.9626 310.56C79.9279 310.178 79.8326 309.702 79.6766 309.13C79.5206 308.575 79.3472 308.09 79.1566 307.674C79.6419 307.691 80.0839 307.708 80.4826 307.726C80.8986 307.726 81.1846 307.717 81.3406 307.7C81.4966 307.7 81.6006 307.674 81.6526 307.622C81.7219 307.552 81.7566 307.431 81.7566 307.258V286.146ZM105.625 299.432C106.786 299.189 108.173 298.877 109.785 298.496C111.397 298.097 113.009 297.69 114.621 297.274L114.985 300.082C113.511 300.498 112.021 300.914 110.513 301.33C109.022 301.746 107.653 302.118 106.405 302.448L105.625 299.432ZM106.041 291.034H114.673V293.92H106.041V291.034ZM109.187 286.12H112.177V307.284C112.177 308.029 112.099 308.61 111.943 309.026C111.787 309.442 111.492 309.762 111.059 309.988C110.625 310.213 110.088 310.36 109.447 310.43C108.805 310.516 108.034 310.56 107.133 310.56C107.081 310.161 106.968 309.693 106.795 309.156C106.639 308.618 106.465 308.142 106.275 307.726C106.777 307.743 107.263 307.76 107.731 307.778C108.199 307.778 108.519 307.778 108.693 307.778C108.866 307.778 108.987 307.743 109.057 307.674C109.143 307.587 109.187 307.457 109.187 307.284V286.12ZM115.297 291.944H129.779V310.326H126.685V294.908H118.261V310.508H115.297V291.944ZM117.143 298.678H127.543V301.59H117.143V298.678ZM117.247 305.62H127.621V308.61H117.247V305.62ZM120.913 286.172H123.877V307.44H120.913V286.172ZM133.315 302.682H157.001V305.23H133.315V302.682ZM146.913 303.566C147.415 304.554 148.135 305.342 149.071 305.932C150.007 306.504 151.185 306.928 152.607 307.206C154.045 307.466 155.761 307.622 157.755 307.674C157.529 307.882 157.295 308.15 157.053 308.48C156.827 308.826 156.619 309.173 156.429 309.52C156.238 309.884 156.082 310.213 155.961 310.508C154.262 310.404 152.771 310.204 151.489 309.91C150.206 309.632 149.088 309.234 148.135 308.714C147.181 308.211 146.358 307.57 145.665 306.79C144.989 306.01 144.391 305.082 143.871 304.008L146.913 303.566ZM148.343 301.824L149.617 300.082C150.171 300.203 150.778 300.359 151.437 300.55C152.095 300.74 152.737 300.94 153.361 301.148C153.985 301.356 154.505 301.555 154.921 301.746L153.569 303.696C153.187 303.505 152.693 303.297 152.087 303.072C151.48 302.829 150.847 302.604 150.189 302.396C149.53 302.17 148.915 301.98 148.343 301.824ZM142.363 294.206H157.417V296.364H142.363V294.206ZM150.995 292.516H153.933V297.898C153.933 298.539 153.855 299.024 153.699 299.354C153.543 299.683 153.231 299.926 152.763 300.082C152.312 300.255 151.766 300.359 151.125 300.394C150.501 300.411 149.773 300.42 148.941 300.42C148.871 300.056 148.759 299.674 148.603 299.276C148.447 298.86 148.282 298.487 148.109 298.158C148.611 298.175 149.105 298.184 149.591 298.184C150.093 298.184 150.414 298.184 150.553 298.184C150.726 298.184 150.839 298.158 150.891 298.106C150.96 298.054 150.995 297.958 150.995 297.82V292.516ZM132.977 293.868H140.257V296.286H132.977V293.868ZM138.749 286.094H141.557V301.07H138.749V286.094ZM134.199 286.848H136.799V290.124H140.361V292.49H134.199V286.848ZM143.949 297.196L146.003 296C146.471 296.381 146.939 296.814 147.407 297.3C147.875 297.785 148.23 298.236 148.473 298.652L146.263 299.952C146.055 299.553 145.725 299.094 145.275 298.574C144.841 298.054 144.399 297.594 143.949 297.196ZM143.325 289.942L145.015 289.318C145.552 289.63 146.107 290.02 146.679 290.488C147.251 290.956 147.693 291.38 148.005 291.762L146.237 292.438C145.959 292.056 145.535 291.632 144.963 291.164C144.408 290.696 143.862 290.288 143.325 289.942ZM145.977 289.006L147.459 288.226C147.892 288.434 148.343 288.685 148.811 288.98C149.279 289.257 149.721 289.552 150.137 289.864C150.553 290.158 150.891 290.444 151.151 290.722L149.591 291.528C149.348 291.268 149.027 290.99 148.629 290.696C148.23 290.384 147.797 290.08 147.329 289.786C146.878 289.474 146.427 289.214 145.977 289.006ZM153.725 287.368H154.245L154.739 287.264L156.351 288.07C155.779 289.058 155.059 289.907 154.193 290.618C153.326 291.328 152.338 291.935 151.229 292.438C150.119 292.923 148.923 293.322 147.641 293.634C146.358 293.928 145.032 294.162 143.663 294.336C143.559 294.041 143.385 293.703 143.143 293.322C142.917 292.94 142.701 292.628 142.493 292.386C143.723 292.282 144.911 292.117 146.055 291.892C147.216 291.649 148.291 291.337 149.279 290.956C150.284 290.574 151.168 290.115 151.931 289.578C152.693 289.04 153.291 288.408 153.725 287.68V287.368ZM149.201 286.094L151.749 286.666C150.709 287.636 149.469 288.468 148.031 289.162C146.609 289.855 144.937 290.462 143.013 290.982C142.857 290.704 142.623 290.384 142.311 290.02C142.016 289.656 141.747 289.378 141.505 289.188C143.307 288.824 144.85 288.382 146.133 287.862C147.433 287.324 148.455 286.735 149.201 286.094ZM148.603 287.368H154.531V289.058H146.289L148.603 287.368ZM134.537 295.116H137.293V296.442C137.293 296.84 137.232 297.36 137.111 298.002C137.007 298.643 136.807 299.302 136.513 299.978C136.218 300.654 135.776 301.234 135.187 301.72C135.013 301.581 134.779 301.425 134.485 301.252C134.207 301.078 133.921 300.914 133.627 300.758C133.332 300.602 133.063 300.48 132.821 300.394C133.323 299.995 133.696 299.544 133.939 299.042C134.181 298.522 134.337 298.019 134.407 297.534C134.493 297.031 134.537 296.632 134.537 296.338V295.116ZM143.377 300.264H146.471V302.63C146.471 303.254 146.375 303.886 146.185 304.528C146.011 305.169 145.682 305.802 145.197 306.426C144.711 307.032 144.018 307.604 143.117 308.142C142.215 308.679 141.054 309.156 139.633 309.572C138.211 310.005 136.461 310.352 134.381 310.612C134.207 310.23 133.956 309.788 133.627 309.286C133.297 308.8 132.985 308.384 132.691 308.038C134.545 307.83 136.105 307.57 137.371 307.258C138.636 306.946 139.659 306.599 140.439 306.218C141.236 305.836 141.843 305.446 142.259 305.048C142.692 304.632 142.987 304.216 143.143 303.8C143.299 303.366 143.377 302.95 143.377 302.552V300.264ZM160.173 296.39H184.249V299.796H160.173V296.39ZM199.719 290.93H209.131V293.114H199.719V290.93ZM199.719 294.414H209.131V296.598H199.719V294.414ZM196.469 297.976H211.445V300.68H196.469V297.976ZM198.341 287.004H210.093V289.656H201.331V299.432H198.341V287.004ZM196.339 307.232C197.431 307.11 198.739 306.963 200.265 306.79C201.79 306.599 203.333 306.4 204.893 306.192L205.023 308.896C203.584 309.138 202.154 309.364 200.733 309.572C199.311 309.78 198.011 309.97 196.833 310.144L196.339 307.232ZM205.023 299.432C205.369 300.732 205.837 301.945 206.427 303.072C207.016 304.181 207.761 305.143 208.663 305.958C209.564 306.772 210.63 307.405 211.861 307.856C211.635 308.064 211.393 308.324 211.133 308.636C210.873 308.965 210.621 309.303 210.379 309.65C210.153 309.996 209.971 310.308 209.833 310.586C208.463 309.979 207.302 309.156 206.349 308.116C205.413 307.076 204.633 305.862 204.009 304.476C203.385 303.089 202.873 301.555 202.475 299.874L205.023 299.432ZM208.845 300.758L211.419 302.162C210.708 302.786 209.971 303.401 209.209 304.008C208.446 304.597 207.753 305.1 207.129 305.516L205.205 304.32C205.603 304.008 206.028 303.652 206.479 303.254C206.929 302.838 207.363 302.413 207.779 301.98C208.195 301.529 208.55 301.122 208.845 300.758ZM198.419 298.756H201.409V307.648L198.419 308.142V298.756ZM188.643 298.782H194.857V301.564H188.643V298.782ZM193.453 298.782H196.547C196.547 298.782 196.538 298.86 196.521 299.016C196.521 299.154 196.521 299.319 196.521 299.51C196.521 299.683 196.512 299.839 196.495 299.978C196.373 301.988 196.243 303.635 196.105 304.918C195.983 306.2 195.827 307.197 195.637 307.908C195.446 308.618 195.221 309.13 194.961 309.442C194.666 309.771 194.354 310.005 194.025 310.144C193.713 310.3 193.349 310.404 192.933 310.456C192.586 310.525 192.127 310.56 191.555 310.56C191 310.577 190.402 310.568 189.761 310.534C189.743 310.1 189.657 309.606 189.501 309.052C189.345 308.497 189.145 308.029 188.903 307.648C189.44 307.682 189.934 307.708 190.385 307.726C190.835 307.743 191.182 307.752 191.425 307.752C191.615 307.752 191.78 307.734 191.919 307.7C192.075 307.648 192.213 307.561 192.335 307.44C192.508 307.249 192.655 306.868 192.777 306.296C192.915 305.706 193.037 304.84 193.141 303.696C193.262 302.552 193.366 301.07 193.453 299.25V298.782ZM188.357 293.374H191.191C191.087 294.362 190.965 295.402 190.827 296.494C190.705 297.586 190.575 298.643 190.437 299.666C190.315 300.671 190.185 301.564 190.047 302.344L187.161 302.032C187.317 301.269 187.464 300.394 187.603 299.406C187.759 298.418 187.906 297.395 188.045 296.338C188.183 295.28 188.287 294.292 188.357 293.374ZM188.565 293.374H193.271V290.306H187.629V287.446H196.105V296.234H188.565V293.374ZM36.8956 343.748C36.1508 343.748 35.4706 343.567 34.8551 343.203C34.2396 342.834 33.7471 342.342 33.3778 341.726C33.0147 341.111 32.8331 340.43 32.8331 339.686C32.8331 338.935 33.0147 338.255 33.3778 337.645C33.7471 337.03 34.2396 336.54 34.8551 336.177C35.4706 335.808 36.1508 335.623 36.8956 335.623C37.6465 335.623 38.3267 335.808 38.9361 336.177C39.5516 336.54 40.0409 337.03 40.4041 337.645C40.7734 338.255 40.9581 338.935 40.9581 339.686C40.9581 340.43 40.7734 341.111 40.4041 341.726C40.0409 342.342 39.5516 342.834 38.9361 343.203C38.3267 343.567 37.6465 343.748 36.8956 343.748ZM61.2166 339.004H74.8666V349.404H71.8766V341.838H64.0766V349.534H61.2166V339.004ZM72.7866 325.12L75.1786 327.564C73.9132 328.049 72.5092 328.474 70.9666 328.838C69.4239 329.184 67.8379 329.47 66.2086 329.696C64.5966 329.921 63.0192 330.103 61.4766 330.242C61.4246 329.878 61.3032 329.436 61.1126 328.916C60.9392 328.378 60.7659 327.936 60.5926 327.59C61.7019 327.468 62.8199 327.33 63.9466 327.174C65.0906 327.018 66.1999 326.836 67.2746 326.628C68.3492 326.42 69.3546 326.194 70.2906 325.952C71.2266 325.692 72.0586 325.414 72.7866 325.12ZM66.5466 328.058H69.5106V340.642H66.5466V328.058ZM59.6046 332.712H76.1666V335.676H59.6046V332.712ZM63.2706 345.634H73.1246V348.468H63.2706V345.634ZM53.1826 327.72L54.9506 325.458C55.4359 325.7 55.9819 325.978 56.5886 326.29C57.1952 326.602 57.7846 326.914 58.3566 327.226C58.9459 327.538 59.4226 327.815 59.7866 328.058L57.9406 330.58C57.5939 330.32 57.1432 330.025 56.5886 329.696C56.0339 329.366 55.4532 329.028 54.8466 328.682C54.2399 328.318 53.6852 327.997 53.1826 327.72ZM51.9346 334.922L53.6246 332.608C54.1099 332.816 54.6646 333.076 55.2886 333.388C55.9126 333.7 56.5192 334.012 57.1086 334.324C57.6979 334.618 58.1746 334.887 58.5386 335.13L56.7966 337.73C56.4499 337.47 55.9906 337.175 55.4186 336.846C54.8639 336.516 54.2746 336.178 53.6506 335.832C53.0266 335.485 52.4546 335.182 51.9346 334.922ZM52.3246 347.142C52.7926 346.483 53.3039 345.712 53.8586 344.828C54.4306 343.926 55.0112 342.973 55.6006 341.968C56.1899 340.945 56.7446 339.931 57.2646 338.926L59.5526 341.006C59.1019 341.907 58.6166 342.834 58.0966 343.788C57.5939 344.741 57.0739 345.677 56.5366 346.596C56.0166 347.514 55.4879 348.398 54.9506 349.248L52.3246 347.142ZM79.5726 341.942H91.7146V344.152H79.5726V341.942ZM79.0006 329.566H92.0006V331.828H79.0006V329.566ZM84.1486 327.746H86.9826V346.388H84.1486V327.746ZM78.8446 346.076C79.9366 346.006 81.1846 345.92 82.5886 345.816C83.9926 345.712 85.4746 345.599 87.0346 345.478C88.6119 345.339 90.1806 345.2 91.7406 345.062L91.7666 347.428C90.2932 347.584 88.8026 347.74 87.2946 347.896C85.8039 348.052 84.3652 348.19 82.9786 348.312C81.6092 348.45 80.3526 348.58 79.2086 348.702L78.8446 346.076ZM82.1466 337.808V338.978H89.0106V337.808H82.1466ZM82.1466 334.792V335.962H89.0106V334.792H82.1466ZM79.6766 332.842H91.5846V340.928H79.6766V332.842ZM90.3366 325.276L91.6886 327.59C90.5966 327.815 89.3659 328.014 87.9966 328.188C86.6446 328.344 85.2579 328.474 83.8366 328.578C82.4152 328.664 81.0546 328.725 79.7546 328.76C79.7026 328.43 79.6072 328.058 79.4686 327.642C79.3472 327.208 79.2086 326.836 79.0526 326.524C80.0232 326.472 81.0199 326.411 82.0426 326.342C83.0652 326.255 84.0706 326.16 85.0586 326.056C86.0639 325.952 87.0086 325.839 87.8926 325.718C88.7939 325.579 89.6086 325.432 90.3366 325.276ZM91.9746 331.022H100.997V333.882H91.9746V331.022ZM99.7226 331.022H102.713C102.713 331.022 102.713 331.108 102.713 331.282C102.713 331.455 102.713 331.654 102.713 331.88C102.713 332.088 102.713 332.261 102.713 332.4C102.643 335.069 102.574 337.34 102.505 339.212C102.435 341.066 102.357 342.6 102.271 343.814C102.201 345.01 102.089 345.946 101.933 346.622C101.794 347.298 101.621 347.783 101.413 348.078C101.118 348.511 100.806 348.814 100.477 348.988C100.165 349.178 99.7919 349.317 99.3586 349.404C98.9599 349.473 98.4746 349.508 97.9026 349.508C97.3306 349.525 96.7326 349.525 96.1086 349.508C96.0912 349.074 95.9959 348.572 95.8226 348C95.6666 347.428 95.4672 346.934 95.2246 346.518C95.7792 346.57 96.2906 346.604 96.7586 346.622C97.2266 346.639 97.5819 346.648 97.8246 346.648C98.0326 346.648 98.2059 346.613 98.3446 346.544C98.4832 346.474 98.6132 346.362 98.7346 346.206C98.8732 345.998 98.9946 345.599 99.0986 345.01C99.2026 344.403 99.2892 343.545 99.3586 342.436C99.4452 341.309 99.5146 339.862 99.5666 338.094C99.6359 336.326 99.6879 334.185 99.7226 331.672V331.022ZM94.4706 325.562H97.4606C97.4606 327.78 97.4346 329.886 97.3826 331.88C97.3479 333.873 97.2352 335.754 97.0446 337.522C96.8712 339.272 96.5679 340.902 96.1346 342.41C95.7186 343.9 95.1292 345.261 94.3666 346.492C93.6039 347.722 92.6246 348.806 91.4286 349.742C91.2726 349.482 91.0646 349.204 90.8046 348.91C90.5619 348.615 90.3019 348.329 90.0246 348.052C89.7646 347.792 89.5046 347.575 89.2446 347.402C90.3366 346.57 91.2206 345.616 91.8966 344.542C92.5726 343.45 93.0926 342.245 93.4566 340.928C93.8206 339.593 94.0719 338.137 94.2106 336.56C94.3492 334.965 94.4272 333.258 94.4446 331.438C94.4619 329.6 94.4706 327.642 94.4706 325.562ZM121.225 339.16H124.007V347.792H121.225V339.16ZM119.821 332.296V334.142H125.645V332.296H119.821ZM117.065 329.93H128.531V336.508H117.065V329.93ZM115.765 337.652H129.675V349.482H126.659V340.148H118.625V349.508H115.765V337.652ZM117.403 341.864H128.219V344.204H117.403V341.864ZM117.429 345.972H128.245V348.468H117.429V345.972ZM115.635 326.212H129.753V328.838H115.635V326.212ZM106.379 329.956H114.179V332.764H106.379V329.956ZM109.525 325.146H112.567V331.256H109.525V325.146ZM112.827 336.014C113.017 336.135 113.277 336.334 113.607 336.612C113.936 336.889 114.291 337.192 114.673 337.522C115.054 337.834 115.401 338.128 115.713 338.406C116.025 338.683 116.241 338.882 116.363 339.004L114.543 341.526C114.352 341.248 114.101 340.928 113.789 340.564C113.494 340.2 113.182 339.827 112.853 339.446C112.523 339.064 112.203 338.709 111.891 338.38C111.596 338.033 111.327 337.747 111.085 337.522L112.827 336.014ZM113.035 329.956H113.633L114.153 329.826L115.895 330.944C115.305 332.625 114.525 334.237 113.555 335.78C112.601 337.305 111.553 338.692 110.409 339.94C109.265 341.188 108.086 342.219 106.873 343.034C106.803 342.756 106.673 342.427 106.483 342.046C106.309 341.647 106.127 341.266 105.937 340.902C105.746 340.538 105.573 340.26 105.417 340.07C106.509 339.428 107.549 338.605 108.537 337.6C109.542 336.577 110.435 335.459 111.215 334.246C112.012 333.015 112.619 331.767 113.035 330.502V329.956ZM109.525 338.848L112.567 335.182V349.56H109.525V338.848ZM143.507 335.754H146.653V339.498H143.507V335.754ZM143.377 339.134L145.899 340.226C145.257 340.884 144.512 341.491 143.663 342.046C142.813 342.6 141.895 343.112 140.907 343.58C139.919 344.03 138.887 344.429 137.813 344.776C136.738 345.105 135.646 345.374 134.537 345.582C134.346 345.252 134.077 344.854 133.731 344.386C133.401 343.918 133.081 343.536 132.769 343.242C133.826 343.086 134.875 342.878 135.915 342.618C136.955 342.34 137.934 342.028 138.853 341.682C139.789 341.335 140.638 340.954 141.401 340.538C142.181 340.104 142.839 339.636 143.377 339.134ZM147.615 339.238C148.325 341.248 149.478 342.895 151.073 344.178C152.667 345.46 154.773 346.336 157.391 346.804C157.183 347.012 156.957 347.272 156.715 347.584C156.472 347.913 156.238 348.251 156.013 348.598C155.805 348.944 155.631 349.256 155.493 349.534C153.551 349.1 151.896 348.45 150.527 347.584C149.157 346.734 148.005 345.66 147.069 344.36C146.133 343.06 145.361 341.534 144.755 339.784L147.615 339.238ZM153.855 340.85L156.273 342.696C155.735 343.025 155.155 343.354 154.531 343.684C153.907 343.996 153.291 344.29 152.685 344.568C152.095 344.828 151.532 345.062 150.995 345.27L148.967 343.58C149.469 343.354 150.015 343.086 150.605 342.774C151.211 342.462 151.801 342.132 152.373 341.786C152.962 341.439 153.456 341.127 153.855 340.85ZM135.993 346.752C137.015 346.648 138.177 346.535 139.477 346.414C140.777 346.275 142.146 346.128 143.585 345.972C145.041 345.798 146.479 345.634 147.901 345.478L147.979 348.026C146.627 348.199 145.257 348.364 143.871 348.52C142.501 348.693 141.175 348.858 139.893 349.014C138.627 349.17 137.466 349.308 136.409 349.43L135.993 346.752ZM133.445 338.198H156.871V340.876H133.445V338.198ZM140.959 329.54L156.611 328.084L156.923 330.606L141.271 332.14L140.959 329.54ZM150.007 326.966L151.333 325.172C151.818 325.276 152.329 325.414 152.867 325.588C153.404 325.744 153.924 325.917 154.427 326.108C154.947 326.281 155.38 326.446 155.727 326.602L154.349 328.578C154.019 328.387 153.603 328.196 153.101 328.006C152.615 327.798 152.095 327.607 151.541 327.434C151.003 327.243 150.492 327.087 150.007 326.966ZM145.197 325.302H148.291C148.377 326.602 148.594 327.824 148.941 328.968C149.305 330.112 149.747 331.117 150.267 331.984C150.804 332.833 151.376 333.5 151.983 333.986C152.607 334.471 153.239 334.705 153.881 334.688C154.21 334.688 154.444 334.506 154.583 334.142C154.721 333.778 154.825 333.145 154.895 332.244C155.224 332.521 155.614 332.781 156.065 333.024C156.533 333.266 156.957 333.448 157.339 333.57C157.217 334.679 157.009 335.528 156.715 336.118C156.42 336.707 156.03 337.114 155.545 337.34C155.077 337.548 154.479 337.652 153.751 337.652C152.589 337.652 151.515 337.34 150.527 336.716C149.556 336.092 148.689 335.216 147.927 334.09C147.181 332.963 146.575 331.654 146.107 330.164C145.639 328.673 145.335 327.052 145.197 325.302ZM139.373 325.12L142.285 326.108C141.695 327.165 140.985 328.188 140.153 329.176C139.321 330.146 138.437 331.048 137.501 331.88C136.565 332.694 135.62 333.405 134.667 334.012C134.511 333.821 134.294 333.578 134.017 333.284C133.757 332.989 133.479 332.694 133.185 332.4C132.907 332.105 132.665 331.862 132.457 331.672C133.826 330.944 135.135 329.999 136.383 328.838C137.631 327.676 138.627 326.437 139.373 325.12ZM136.981 329.956L139.087 327.85L139.971 328.11V337.288H136.981V329.956ZM139.035 343.372L141.089 341.318L142.025 341.604V347.714H139.035V343.372ZM160.173 335.39H184.249V338.796H160.173V335.39ZM204.789 326.836L206.843 325.12C207.241 325.38 207.657 325.683 208.091 326.03C208.541 326.376 208.957 326.723 209.339 327.07C209.737 327.416 210.058 327.728 210.301 328.006L208.091 329.904C207.883 329.592 207.588 329.262 207.207 328.916C206.843 328.552 206.444 328.188 206.011 327.824C205.595 327.46 205.187 327.13 204.789 326.836ZM187.551 329.566H210.951V332.608H187.551V329.566ZM188.539 335.572H199.797V338.588H188.539V335.572ZM192.465 337.288H195.585V346.102H192.465V337.288ZM187.551 345.686C188.591 345.512 189.813 345.313 191.217 345.088C192.638 344.845 194.137 344.585 195.715 344.308C197.309 344.03 198.895 343.744 200.473 343.45L200.681 346.232C199.259 346.544 197.821 346.856 196.365 347.168C194.909 347.462 193.505 347.748 192.153 348.026C190.801 348.32 189.553 348.589 188.409 348.832L187.551 345.686ZM200.343 325.224H203.697C203.645 327.373 203.671 329.47 203.775 331.516C203.896 333.561 204.087 335.476 204.347 337.262C204.607 339.047 204.919 340.616 205.283 341.968C205.647 343.32 206.045 344.377 206.479 345.14C206.929 345.902 207.406 346.284 207.909 346.284C208.203 346.284 208.42 345.911 208.559 345.166C208.715 344.42 208.827 343.224 208.897 341.578C209.261 341.942 209.694 342.297 210.197 342.644C210.717 342.99 211.193 343.242 211.627 343.398C211.488 345.044 211.254 346.318 210.925 347.22C210.613 348.104 210.188 348.71 209.651 349.04C209.131 349.386 208.455 349.56 207.623 349.56C206.687 349.56 205.855 349.239 205.127 348.598C204.399 347.956 203.766 347.072 203.229 345.946C202.691 344.802 202.241 343.458 201.877 341.916C201.513 340.373 201.218 338.7 200.993 336.898C200.767 335.078 200.603 333.18 200.499 331.204C200.395 329.228 200.343 327.234 200.343 325.224ZM36.8956 382.748C36.1508 382.748 35.4706 382.567 34.8551 382.203C34.2396 381.834 33.7471 381.342 33.3778 380.726C33.0147 380.111 32.8331 379.43 32.8331 378.686C32.8331 377.935 33.0147 377.255 33.3778 376.645C33.7471 376.03 34.2396 375.54 34.8551 375.177C35.4706 374.808 36.1508 374.623 36.8956 374.623C37.6465 374.623 38.3267 374.808 38.9361 375.177C39.5516 375.54 40.0409 376.03 40.4041 376.645C40.7734 377.255 40.9581 377.935 40.9581 378.686C40.9581 379.43 40.7734 380.111 40.4041 380.726C40.0409 381.342 39.5516 381.834 38.9361 382.203C38.3267 382.567 37.6465 382.748 36.8956 382.748Z" fill="black"/>
<path d="M71.7466 364.198L73.6966 366.668C72.3446 366.893 70.8799 367.084 69.3026 367.24C67.7426 367.396 66.1306 367.526 64.4666 367.63C62.8026 367.734 61.1299 367.82 59.4486 367.89C57.7672 367.959 56.1379 368.002 54.5606 368.02C54.5432 367.638 54.4652 367.205 54.3266 366.72C54.1879 366.217 54.0492 365.801 53.9106 365.472C55.4706 365.454 57.0652 365.411 58.6946 365.342C60.3239 365.255 61.9272 365.16 63.5046 365.056C65.0819 364.952 66.5726 364.83 67.9766 364.692C69.3806 364.536 70.6372 364.371 71.7466 364.198ZM62.3606 366.746H65.4806V388.56H62.3606V366.746ZM52.4026 369.528H75.6726V372.336H52.4026V369.528ZM57.5246 373.168H60.4106V386.896H57.5246V373.168ZM52.7406 376.054H59.1106V378.784H52.7406V376.054ZM51.9866 382.996C52.8186 382.77 53.8239 382.476 55.0026 382.112C56.1812 381.73 57.3859 381.34 58.6166 380.942L59.1106 383.386C58.1226 383.802 57.1259 384.226 56.1206 384.66C55.1326 385.093 54.1966 385.483 53.3126 385.83L51.9866 382.996ZM73.6186 375.118L75.7246 377.38C74.7886 377.917 73.7746 378.428 72.6826 378.914C71.6079 379.382 70.5679 379.798 69.5626 380.162C69.4932 379.867 69.3632 379.512 69.1726 379.096C68.9992 378.68 68.8259 378.324 68.6526 378.03C69.2419 377.77 69.8399 377.475 70.4466 377.146C71.0532 376.816 71.6252 376.478 72.1626 376.132C72.7172 375.785 73.2026 375.447 73.6186 375.118ZM67.4306 373.194H70.3426V382.996C70.3426 383.429 70.3772 383.706 70.4466 383.828C70.5332 383.932 70.7326 383.984 71.0446 383.984C71.0966 383.984 71.2006 383.984 71.3566 383.984C71.5299 383.984 71.7032 383.984 71.8766 383.984C72.0672 383.984 72.2492 383.984 72.4226 383.984C72.5959 383.984 72.7172 383.984 72.7866 383.984C72.9772 383.984 73.1246 383.923 73.2286 383.802C73.3326 383.663 73.4019 383.412 73.4366 383.048C73.4886 382.684 73.5319 382.138 73.5666 381.41C73.8612 381.635 74.2599 381.86 74.7626 382.086C75.2826 382.294 75.7419 382.441 76.1406 382.528C76.0539 383.62 75.8979 384.469 75.6726 385.076C75.4472 385.665 75.1266 386.081 74.7106 386.324C74.2946 386.584 73.7486 386.714 73.0726 386.714C72.9512 386.714 72.7692 386.714 72.5266 386.714C72.3012 386.714 72.0586 386.714 71.7986 386.714C71.5386 386.714 71.2959 386.714 71.0706 386.714C70.8452 386.714 70.6719 386.714 70.5506 386.714C69.7186 386.714 69.0772 386.601 68.6266 386.376C68.1759 386.15 67.8639 385.769 67.6906 385.232C67.5172 384.677 67.4306 383.932 67.4306 382.996V373.194ZM98.7866 364.198L100.737 366.668C99.3846 366.893 97.9199 367.084 96.3426 367.24C94.7826 367.396 93.1706 367.526 91.5066 367.63C89.8426 367.734 88.1699 367.82 86.4886 367.89C84.8072 367.959 83.1779 368.002 81.6006 368.02C81.5832 367.638 81.5052 367.205 81.3666 366.72C81.2279 366.217 81.0892 365.801 80.9506 365.472C82.5106 365.454 84.1052 365.411 85.7346 365.342C87.3639 365.255 88.9672 365.16 90.5446 365.056C92.1219 364.952 93.6126 364.83 95.0166 364.692C96.4206 364.536 97.6772 364.371 98.7866 364.198ZM89.4006 366.746H92.5206V388.56H89.4006V366.746ZM79.4426 369.528H102.713V372.336H79.4426V369.528ZM84.5646 373.168H87.4506V386.896H84.5646V373.168ZM79.7806 376.054H86.1506V378.784H79.7806V376.054ZM79.0266 382.996C79.8586 382.77 80.8639 382.476 82.0426 382.112C83.2212 381.73 84.4259 381.34 85.6566 380.942L86.1506 383.386C85.1626 383.802 84.1659 384.226 83.1606 384.66C82.1726 385.093 81.2366 385.483 80.3526 385.83L79.0266 382.996ZM100.659 375.118L102.765 377.38C101.829 377.917 100.815 378.428 99.7226 378.914C98.6479 379.382 97.6079 379.798 96.6026 380.162C96.5332 379.867 96.4032 379.512 96.2126 379.096C96.0392 378.68 95.8659 378.324 95.6926 378.03C96.2819 377.77 96.8799 377.475 97.4866 377.146C98.0932 376.816 98.6652 376.478 99.2026 376.132C99.7572 375.785 100.243 375.447 100.659 375.118ZM94.4706 373.194H97.3826V382.996C97.3826 383.429 97.4172 383.706 97.4866 383.828C97.5732 383.932 97.7726 383.984 98.0846 383.984C98.1366 383.984 98.2406 383.984 98.3966 383.984C98.5699 383.984 98.7432 383.984 98.9166 383.984C99.1072 383.984 99.2892 383.984 99.4626 383.984C99.6359 383.984 99.7572 383.984 99.8266 383.984C100.017 383.984 100.165 383.923 100.269 383.802C100.373 383.663 100.442 383.412 100.477 383.048C100.529 382.684 100.572 382.138 100.607 381.41C100.901 381.635 101.3 381.86 101.803 382.086C102.323 382.294 102.782 382.441 103.181 382.528C103.094 383.62 102.938 384.469 102.713 385.076C102.487 385.665 102.167 386.081 101.751 386.324C101.335 386.584 100.789 386.714 100.113 386.714C99.9912 386.714 99.8092 386.714 99.5666 386.714C99.3412 386.714 99.0986 386.714 98.8386 386.714C98.5786 386.714 98.3359 386.714 98.1106 386.714C97.8852 386.714 97.7119 386.714 97.5906 386.714C96.7586 386.714 96.1172 386.601 95.6666 386.376C95.2159 386.15 94.9039 385.769 94.7306 385.232C94.5572 384.677 94.4706 383.932 94.4706 382.996V373.194ZM106.145 368.982H114.725V371.868H106.145V368.982ZM109.161 364.12H112.047V388.534H109.161V364.12ZM109.135 371.114L110.799 371.816C110.625 372.821 110.4 373.844 110.123 374.884C109.863 375.924 109.551 376.946 109.187 377.952C108.84 378.957 108.459 379.893 108.043 380.76C107.644 381.626 107.219 382.372 106.769 382.996C106.682 382.684 106.561 382.337 106.405 381.956C106.249 381.557 106.075 381.176 105.885 380.812C105.694 380.43 105.521 380.092 105.365 379.798C105.781 379.312 106.171 378.732 106.535 378.056C106.916 377.38 107.271 376.652 107.601 375.872C107.947 375.074 108.251 374.268 108.511 373.454C108.771 372.639 108.979 371.859 109.135 371.114ZM111.839 372.544C111.977 372.717 112.185 372.994 112.463 373.376C112.757 373.757 113.061 374.173 113.373 374.624C113.702 375.074 113.997 375.499 114.257 375.898C114.517 376.279 114.707 376.556 114.829 376.73L113.035 378.836C112.913 378.489 112.74 378.082 112.515 377.614C112.289 377.146 112.047 376.66 111.787 376.158C111.544 375.655 111.301 375.187 111.059 374.754C110.833 374.303 110.634 373.93 110.461 373.636L111.839 372.544ZM115.219 364.978H126.763V367.578H115.219V364.978ZM117.195 370.23L118.521 368.124C119.37 368.332 120.271 368.609 121.225 368.956C122.178 369.302 123.088 369.675 123.955 370.074C124.839 370.455 125.567 370.836 126.139 371.218L124.709 373.584C124.171 373.202 123.478 372.804 122.629 372.388C121.779 371.972 120.878 371.573 119.925 371.192C118.971 370.793 118.061 370.472 117.195 370.23ZM114.803 371.92H127.647V374.624H117.611V388.534H114.803V371.92ZM116.493 376.34H127.725V378.992H116.493V376.34ZM116.493 380.838H127.725V383.516H116.493V380.838ZM126.269 371.92H129.181V385.44C129.181 386.098 129.111 386.627 128.973 387.026C128.834 387.442 128.565 387.771 128.167 388.014C127.768 388.239 127.3 388.378 126.763 388.43C126.225 388.499 125.593 388.534 124.865 388.534C124.847 388.135 124.752 387.658 124.579 387.104C124.405 386.566 124.223 386.116 124.033 385.752C124.414 385.769 124.787 385.778 125.151 385.778C125.515 385.778 125.757 385.778 125.879 385.778C126.139 385.778 126.269 385.656 126.269 385.414V371.92ZM120.445 373.298H123.279V388.404H120.445V373.298ZM125.671 364.978H126.373L126.945 364.822L128.869 366.252C128.331 366.91 127.716 367.569 127.023 368.228C126.329 368.886 125.593 369.51 124.813 370.1C124.033 370.672 123.244 371.166 122.447 371.582C122.256 371.287 121.996 370.949 121.667 370.568C121.337 370.169 121.043 369.857 120.783 369.632C121.441 369.285 122.083 368.878 122.707 368.41C123.331 367.942 123.903 367.456 124.423 366.954C124.96 366.451 125.376 365.983 125.671 365.55V364.978ZM133.133 374.39H157.209V377.796H133.133V374.39ZM160.069 372.986H170.261V375.638H160.069V372.986ZM173.121 380.188H183.287V381.956H173.121V380.188ZM173.121 382.892H183.287V384.66H173.121V382.892ZM173.043 385.596H184.405V387.728H173.043V385.596ZM170.105 365.654H184.197V368.098H170.105V365.654ZM162.253 367.162H169.767V369.788H162.253V367.162ZM161.681 382.84H168.909V385.388H161.681V382.84ZM160.667 377.172H162.851V387.312H160.667V377.172ZM167.843 377.146H170.027V386.584H167.843V377.146ZM176.917 377.978H179.595V386.948H176.917V377.978ZM164.021 368.176H166.673V384.14H164.021V368.176ZM173.147 364.12H175.955V369.268H173.147V364.12ZM178.607 364.12H181.467V369.268H178.607V364.12ZM161.733 364.068L164.463 364.614C164.289 365.636 164.081 366.668 163.839 367.708C163.596 368.748 163.319 369.727 163.007 370.646C162.712 371.564 162.391 372.37 162.045 373.064C161.871 372.925 161.637 372.769 161.343 372.596C161.048 372.405 160.745 372.232 160.433 372.076C160.138 371.902 159.878 371.764 159.653 371.66C160.155 370.724 160.58 369.571 160.927 368.202C161.291 366.832 161.559 365.454 161.733 364.068ZM172.965 371.608V373.194H174.525V371.608H172.965ZM170.833 369.684H176.761V375.092H170.833V369.684ZM179.907 371.608V373.194H181.467V371.608H179.907ZM177.749 369.684H183.729V375.092H177.749V369.684ZM174.499 377.172H184.015V379.252H174.499V388.586H171.795V378.966L173.485 377.172H174.499ZM178.035 374.962L181.025 375.612C180.678 376.166 180.331 376.704 179.985 377.224C179.655 377.744 179.352 378.194 179.075 378.576L176.735 377.952C176.977 377.518 177.22 377.024 177.463 376.47C177.705 375.898 177.896 375.395 178.035 374.962ZM172.965 374.65L175.617 375.43C175.27 376.262 174.845 377.094 174.343 377.926C173.857 378.74 173.337 379.512 172.783 380.24C172.245 380.968 171.699 381.6 171.145 382.138C171.023 381.964 170.841 381.756 170.599 381.514C170.356 381.254 170.105 380.994 169.845 380.734C169.585 380.474 169.351 380.266 169.143 380.11C169.923 379.434 170.651 378.61 171.327 377.64C172.003 376.669 172.549 375.672 172.965 374.65Z" fill="#FF5F17"/>
<rect x="2" y="109" width="150" height="33" fill="#FF5F17"/>
<path d="M22.12 120.56H29V122.52H22.12V120.56ZM18.68 132.16C19.28 132.067 19.9733 131.953 20.76 131.82C21.56 131.687 22.4067 131.547 23.3 131.4C24.1933 131.24 25.08 131.08 25.96 130.92L26.16 133C25 133.267 23.8333 133.527 22.66 133.78C21.4867 134.047 20.42 134.28 19.46 134.48L18.68 132.16ZM20.76 116.9H23.08V132.7H20.76V116.9ZM22.12 116.9H30.1V126.26H22.12V124.2H27.72V118.96H22.12V116.9ZM26.28 124.88C26.5333 126.08 26.88 127.193 27.32 128.22C27.76 129.233 28.32 130.127 29 130.9C29.68 131.673 30.5133 132.273 31.5 132.7C31.3267 132.86 31.14 133.053 30.94 133.28C30.74 133.52 30.5467 133.767 30.36 134.02C30.1867 134.287 30.0467 134.527 29.94 134.74C28.86 134.167 27.9533 133.42 27.22 132.5C26.5 131.567 25.9067 130.487 25.44 129.26C24.9733 128.033 24.5933 126.687 24.3 125.22L26.28 124.88ZM29.18 126.4L31.06 127.7C30.5133 128.233 29.9333 128.76 29.32 129.28C28.72 129.787 28.1667 130.22 27.66 130.58L26.18 129.44C26.5 129.173 26.84 128.867 27.2 128.52C27.5733 128.173 27.9333 127.813 28.28 127.44C28.6267 127.067 28.9267 126.72 29.18 126.4ZM13.48 116.86H18.46V119.02H15.72V134.8H13.48V116.86ZM17.8 116.86H18.22L18.56 116.78L20.2 117.72C20.0133 118.307 19.8133 118.927 19.6 119.58C19.3867 120.233 19.1733 120.88 18.96 121.52C18.7467 122.16 18.5333 122.74 18.32 123.26C18.9733 124.033 19.3933 124.767 19.58 125.46C19.78 126.14 19.88 126.773 19.88 127.36C19.88 128.027 19.8067 128.573 19.66 129C19.5133 129.427 19.2733 129.76 18.94 130C18.78 130.12 18.5933 130.213 18.38 130.28C18.18 130.347 17.9733 130.4 17.76 130.44C17.5733 130.467 17.3533 130.48 17.1 130.48C16.86 130.48 16.6133 130.48 16.36 130.48C16.3467 130.173 16.2933 129.813 16.2 129.4C16.12 128.987 16 128.633 15.84 128.34C16.0267 128.353 16.1933 128.36 16.34 128.36C16.5 128.36 16.64 128.36 16.76 128.36C16.8667 128.36 16.9667 128.347 17.06 128.32C17.1667 128.28 17.2667 128.233 17.36 128.18C17.48 128.087 17.5667 127.947 17.62 127.76C17.6867 127.56 17.7133 127.32 17.7 127.04C17.7 126.573 17.6 126.04 17.4 125.44C17.2133 124.827 16.82 124.187 16.22 123.52C16.3667 123.067 16.5133 122.567 16.66 122.02C16.82 121.473 16.9667 120.927 17.1 120.38C17.2467 119.82 17.38 119.3 17.5 118.82C17.6333 118.327 17.7333 117.92 17.8 117.6V116.86ZM38.56 119.68V120.36H46.88V119.68H38.56ZM38.56 117.84V118.52H46.88V117.84H38.56ZM36.26 116.62H49.3V121.58H36.26V116.62ZM38.14 127.66V128.36H47.44V127.66H38.14ZM38.14 125.76V126.46H47.44V125.76H38.14ZM35.9 124.5H49.8V129.64H35.9V124.5ZM41.62 124.92H43.94V133.5H41.62V124.92ZM33.72 122.18H51.94V123.9H33.72V122.18ZM35.48 130.3H50.18V131.82H35.48V130.3ZM33.68 132.56H51.98V134.3H33.68V132.56ZM60.2079 133V130.784L65.3854 125.99C65.8258 125.564 66.1951 125.18 66.4934 124.839C66.7964 124.499 67.0261 124.165 67.1823 123.838C67.3386 123.507 67.4167 123.149 67.4167 122.766C67.4167 122.339 67.3196 121.973 67.1255 121.665C66.9314 121.352 66.6662 121.113 66.33 120.947C65.9939 120.777 65.6127 120.692 65.1866 120.692C64.7415 120.692 64.3532 120.782 64.0218 120.962C63.6904 121.142 63.4347 121.4 63.2548 121.736C63.0748 122.072 62.9849 122.472 62.9849 122.936H60.0658C60.0658 121.984 60.2813 121.158 60.7121 120.457C61.143 119.757 61.7467 119.214 62.5232 118.831C63.2997 118.447 64.1946 118.256 65.2079 118.256C66.2496 118.256 67.1563 118.44 67.9281 118.81C68.7046 119.174 69.3083 119.681 69.7391 120.33C70.17 120.978 70.3854 121.722 70.3854 122.56C70.3854 123.109 70.2765 123.651 70.0587 124.186C69.8457 124.721 69.4645 125.315 68.9153 125.969C68.366 126.617 67.5919 127.396 66.5928 128.305L64.4692 130.386V130.486H70.5772V133H60.2079ZM79.3087 133.32C78.0871 133.315 77.0359 133.014 76.1553 132.418C75.2793 131.821 74.6046 130.957 74.1311 129.825C73.6624 128.694 73.4304 127.332 73.4351 125.741C73.4351 124.155 73.6695 122.804 74.1382 121.686C74.6117 120.569 75.2864 119.719 76.1624 119.136C77.043 118.549 78.0918 118.256 79.3087 118.256C80.5255 118.256 81.5719 118.549 82.4479 119.136C83.3286 119.723 84.0056 120.576 84.4791 121.693C84.9526 122.806 85.187 124.155 85.1822 125.741C85.1822 127.337 84.9455 128.701 84.472 129.832C84.0033 130.964 83.3309 131.828 82.455 132.425C81.579 133.021 80.5303 133.32 79.3087 133.32ZM79.3087 130.77C80.142 130.77 80.8072 130.351 81.3044 129.513C81.8016 128.675 82.0478 127.418 82.043 125.741C82.043 124.638 81.9294 123.72 81.7021 122.986C81.4796 122.252 81.1624 121.7 80.7504 121.331C80.3432 120.962 79.8626 120.777 79.3087 120.777C78.4801 120.777 77.8172 121.191 77.32 122.02C76.8229 122.848 76.5719 124.089 76.5672 125.741C76.5672 126.859 76.6785 127.792 76.901 128.54C77.1283 129.283 77.4479 129.842 77.8598 130.216C78.2717 130.585 78.7547 130.77 79.3087 130.77ZM93.8782 133.32C92.6566 133.315 91.6055 133.014 90.7248 132.418C89.8488 131.821 89.1741 130.957 88.7006 129.825C88.2319 128.694 87.9999 127.332 88.0046 125.741C88.0046 124.155 88.239 122.804 88.7077 121.686C89.1812 120.569 89.8559 119.719 90.7319 119.136C91.6126 118.549 92.6613 118.256 93.8782 118.256C95.0951 118.256 96.1415 118.549 97.0174 119.136C97.8981 119.723 98.5752 120.576 99.0487 121.693C99.5221 122.806 99.7565 124.155 99.7518 125.741C99.7518 127.337 99.515 128.701 99.0415 129.832C98.5728 130.964 97.9005 131.828 97.0245 132.425C96.1486 133.021 95.0998 133.32 93.8782 133.32ZM93.8782 130.77C94.7115 130.77 95.3768 130.351 95.8739 129.513C96.3711 128.675 96.6173 127.418 96.6126 125.741C96.6126 124.638 96.4989 123.72 96.2717 122.986C96.0491 122.252 95.7319 121.7 95.32 121.331C94.9128 120.962 94.4322 120.777 93.8782 120.777C93.0496 120.777 92.3867 121.191 91.8896 122.02C91.3924 122.848 91.1415 124.089 91.1367 125.741C91.1367 126.859 91.248 127.792 91.4705 128.54C91.6978 129.283 92.0174 129.842 92.4293 130.216C92.8413 130.585 93.3242 130.77 93.8782 130.77ZM117.775 121.96H123.735V124.12H117.775V121.96ZM117.775 126.96H123.735V129.12H117.775V126.96ZM116.535 117.02H125.095V133.42H122.675V119.18H118.835V133.42H116.535V117.02ZM114.675 132.1H126.455V134.26H114.675V132.1ZM110.595 116.02L112.715 116.76C112.448 117.28 112.168 117.813 111.875 118.36C111.581 118.893 111.295 119.413 111.015 119.92C110.735 120.413 110.461 120.847 110.195 121.22L108.575 120.56C108.815 120.147 109.061 119.68 109.315 119.16C109.568 118.627 109.808 118.087 110.035 117.54C110.261 116.993 110.448 116.487 110.595 116.02ZM112.995 118.4L115.035 119.24C114.541 120 114.008 120.8 113.435 121.64C112.861 122.467 112.281 123.26 111.695 124.02C111.108 124.78 110.561 125.447 110.055 126.02L108.595 125.28C108.981 124.827 109.375 124.313 109.775 123.74C110.175 123.167 110.568 122.573 110.955 121.96C111.355 121.347 111.728 120.733 112.075 120.12C112.435 119.493 112.741 118.92 112.995 118.4ZM107.515 120.76L108.655 119.12C109.001 119.413 109.361 119.747 109.735 120.12C110.108 120.48 110.448 120.84 110.755 121.2C111.075 121.56 111.315 121.893 111.475 122.2L110.255 124.06C110.095 123.753 109.861 123.407 109.555 123.02C109.261 122.62 108.935 122.227 108.575 121.84C108.215 121.44 107.861 121.08 107.515 120.76ZM112.515 123.22L114.215 122.48C114.481 122.92 114.741 123.393 114.995 123.9C115.248 124.407 115.468 124.907 115.655 125.4C115.841 125.88 115.981 126.313 116.075 126.7L114.235 127.54C114.155 127.167 114.028 126.733 113.855 126.24C113.681 125.733 113.475 125.22 113.235 124.7C113.008 124.167 112.768 123.673 112.515 123.22ZM107.515 124.82C108.435 124.793 109.541 124.753 110.835 124.7C112.141 124.647 113.468 124.587 114.815 124.52L114.795 126.42C113.541 126.513 112.295 126.607 111.055 126.7C109.815 126.78 108.701 126.847 107.715 126.9L107.515 124.82ZM112.855 128.22L114.615 127.64C114.895 128.24 115.155 128.893 115.395 129.6C115.635 130.307 115.808 130.92 115.915 131.44L114.055 132.12C113.961 131.587 113.801 130.96 113.575 130.24C113.348 129.507 113.108 128.833 112.855 128.22ZM108.375 127.76L110.355 128.12C110.248 129.08 110.088 130.027 109.875 130.96C109.661 131.893 109.415 132.68 109.135 133.32C109.001 133.227 108.821 133.12 108.595 133C108.368 132.893 108.135 132.787 107.895 132.68C107.668 132.573 107.468 132.493 107.295 132.44C107.588 131.84 107.821 131.127 107.995 130.3C108.168 129.46 108.295 128.613 108.375 127.76ZM110.695 125.88H112.815V134.8H110.695V125.88ZM136.775 127.86L136.235 121.02L136.135 118.04H139.455L139.355 121.02L138.815 127.86H136.775ZM137.795 133.18C137.288 133.18 136.868 133.013 136.535 132.68C136.201 132.347 136.035 131.927 136.035 131.42C136.035 130.9 136.201 130.473 136.535 130.14C136.868 129.807 137.288 129.64 137.795 129.64C138.301 129.64 138.721 129.807 139.055 130.14C139.388 130.473 139.555 130.9 139.555 131.42C139.555 131.927 139.388 132.347 139.055 132.68C138.721 133.013 138.301 133.18 137.795 133.18ZM157.575 127.86L157.035 121.02L156.935 118.04H160.255L160.155 121.02L159.615 127.86H157.575ZM158.595 133.18C158.088 133.18 157.668 133.013 157.335 132.68C157.001 132.347 156.835 131.927 156.835 131.42C156.835 130.9 157.001 130.473 157.335 130.14C157.668 129.807 158.088 129.64 158.595 129.64C159.101 129.64 159.521 129.807 159.855 130.14C160.188 130.473 160.355 130.9 160.355 131.42C160.355 131.927 160.188 132.347 159.855 132.68C159.521 133.013 159.101 133.18 158.595 133.18Z" fill="white"/>
<path d="M29.2998 225.531H390.352" stroke="black"/>
<g clip-path="url(#clip0_912_331)">
<path d="M112.028 79.4373L110.222 91.0001L121.919 88.8117L112.028 79.4373Z" fill="#FF5F17"/>
<path d="M105.732 83.4539C128.227 83.4539 146.464 65.3802 146.464 43.0853C146.464 20.7903 128.227 2.71667 105.732 2.71667C83.2363 2.71667 65 20.7903 65 43.0853C65 65.3802 83.2363 83.4539 105.732 83.4539Z" fill="#FF5F17"/>
<path d="M199.069 13.5763L208.58 6.66807L198.751 0L199.069 13.5763Z" fill="#FF5F17"/>
<path d="M206.446 72.3091C222.319 56.5442 222.291 30.9571 206.385 15.1587C190.478 -0.639746 164.715 -0.666891 148.842 15.098C132.969 30.8629 132.996 56.4501 148.903 72.2485C164.81 88.0469 190.573 88.0741 206.446 72.3091Z" fill="#FF5F17"/>
<path d="M255.698 79.4373L253.892 91.0001L265.589 88.8117L255.698 79.4373Z" fill="#FF5F17"/>
<path d="M249.402 83.4539C271.898 83.4539 290.134 65.3802 290.134 43.0853C290.134 20.7903 271.898 2.71667 249.402 2.71667C226.906 2.71667 208.67 20.7903 208.67 43.0853C208.67 65.3802 226.906 83.4539 249.402 83.4539Z" fill="#FF5F17"/>
<path d="M342.739 13.5763L352.25 6.66807L342.422 0L342.739 13.5763Z" fill="#FF5F17"/>
<path d="M350.114 72.3069C365.987 56.542 365.96 30.9549 350.053 15.1565C334.147 -0.641944 308.384 -0.669089 292.511 15.0958C276.638 30.8608 276.665 56.4479 292.572 72.2463C308.479 88.0447 334.241 88.0719 350.114 72.3069Z" fill="#FF5F17"/>
</g>
<path d="M96.2772 38.5498H126.635V41.7748H96.2772V38.5498ZM103.114 27.2408H107.586V35.9698H103.114V27.2408ZM112.918 27.2408H117.519V35.9698H112.918V27.2408ZM97.1372 29.3478H127.581V37.1308H97.1372V34.2498H122.851V32.2288H97.1372V29.3478ZM107.586 47.1928L111.929 48.1388C108.618 51.3208 104.318 53.7288 98.5562 55.7498C97.9972 54.8038 96.7932 53.3848 95.8902 52.7828C101.222 51.3208 105.264 49.2568 107.586 47.1928ZM107.586 49.7728H121.174V52.5678H104.791L107.586 49.7728ZM120.142 49.7728H121.002L121.776 49.6008L124.657 51.4498C119.325 57.6418 108.231 60.2218 97.6102 61.2968C97.2232 60.2648 96.4062 58.6738 95.7182 57.7708C105.522 57.1258 116.014 54.8898 120.142 50.3748V49.7728ZM106.296 51.5788C110.682 55.2768 119.884 57.0398 129.903 57.4698C129 58.4158 127.925 60.1788 127.366 61.3398C117.003 60.5658 107.844 58.1578 102.555 53.1268L106.296 51.5788ZM104.447 42.7208H108.532V44.5698C108.532 45.4728 108.79 45.6018 110.166 45.6018C110.811 45.6018 113.864 45.6018 114.681 45.6018C115.713 45.6018 115.928 45.3008 116.1 43.7958C116.874 44.2688 118.379 44.6988 119.411 44.9138C119.067 47.7518 117.992 48.5258 115.24 48.5258C114.337 48.5258 110.467 48.5258 109.65 48.5258C105.436 48.5258 104.447 47.6658 104.447 44.6128V42.7208ZM125.431 38.5498H126.119L126.85 38.4208L130.247 39.1088C129.43 41.3878 128.355 43.9248 127.495 45.5588L123.41 44.6988C124.098 43.2368 124.958 40.9578 125.431 39.0658V38.5498ZM100.706 42.2478L104.146 43.7098C103.243 45.6878 101.953 47.7948 99.9322 49.1278L96.6642 46.9778C98.4272 45.9028 99.9322 43.9678 100.706 42.2478ZM108.36 42.1188L111.026 40.1838C112.617 41.0008 114.509 42.2478 115.498 43.1508L112.703 45.3438C111.757 44.3118 109.822 42.8928 108.36 42.1188ZM117.691 43.5378L120.873 41.8608C122.679 43.2798 124.743 45.3868 125.689 46.9348L122.292 48.7408C121.475 47.2358 119.497 45.0858 117.691 43.5378ZM108.446 20.9628H113.821V26.4238H108.446V20.9628ZM95.2882 23.4998H129.129V27.3698H95.2882V23.4998ZM92.8372 23.4998H97.5242V36.3568C97.5242 43.4948 96.9222 54.3738 92.9662 61.2108C92.1492 60.3508 90.0852 58.8458 89.0532 58.3728C92.5792 52.0088 92.8372 42.8498 92.8372 36.3568V23.4998ZM165.98 28.7458H195.908V33.7768H165.98V28.7458ZM164.217 41.4308H194.274V46.3758H164.217V41.4308ZM159.229 55.0618H198.101V60.0928H159.229V55.0618ZM175.956 20.9628H181.331V57.5558H175.956V20.9628ZM166.023 21.4788L171.355 22.6828C169.463 29.3478 166.324 35.9698 162.97 40.0978C161.938 39.1948 159.659 37.6898 158.326 36.9588C161.723 33.3468 164.475 27.4128 166.023 21.4788ZM228.76 24.9188H265.955V29.0898H228.76V24.9188ZM238.736 37.3888H258.086V40.7428H238.736V37.3888ZM238.736 42.5058H258.086V45.9028H238.736V42.5058ZM228.33 47.7088H266.342V51.9658H228.33V47.7088ZM254.044 25.8218C256.796 29.9068 262.3 33.8198 267.675 35.7118C266.6 36.6578 265.095 38.5068 264.364 39.7108C258.817 37.2598 253.313 32.5728 250.045 27.3698L254.044 25.8218ZM236.156 31.7988H258.043V35.6688H241.445V49.6008H236.156V31.7988ZM231.125 56.4378C237.962 56.2228 248.97 55.6638 259.247 55.1048L259.161 59.0608C249.314 59.8348 238.779 60.4798 231.641 60.9528L231.125 56.4378ZM238.392 49.2568L244.498 49.4718C243.165 52.7828 241.445 56.0508 240.112 58.2438L235.124 57.7708C236.371 55.3198 237.704 51.8368 238.392 49.2568ZM252.195 52.9978L256.581 50.9338C259.29 53.3848 262.988 56.9968 264.794 59.3618L260.107 61.7698C258.516 59.4048 254.99 55.6208 252.195 52.9978ZM243.337 20.9628L248.669 21.8658C245.315 29.2188 239.596 35.7978 229.835 40.3128C229.233 39.1088 227.771 37.3028 226.739 36.4428C235.855 32.7018 241.015 26.7678 243.337 20.9628ZM321.64 53.8578L325.424 51.2778C328.692 53.0408 333.078 55.7498 335.357 57.7708L331.272 60.6518C329.294 58.7168 324.994 55.7928 321.64 53.8578ZM301.817 41.0438H330.541V44.9568H301.817V41.0438ZM296.7 46.7628H335.701V50.8478H296.7V46.7628ZM297.302 22.3818H334.841V26.4238H297.302V22.3818ZM313.556 47.4938H318.802V56.4378C318.802 58.7168 318.415 59.9208 316.738 60.6088C315.104 61.3398 313.04 61.3828 310.202 61.3828C309.987 60.0068 309.256 58.0718 308.654 56.8248C310.331 56.9108 312.266 56.9108 312.825 56.8678C313.427 56.8678 313.556 56.7388 313.556 56.2658V47.4938ZM305.257 51.1918L309.987 52.8258C307.536 56.0078 303.623 59.1898 300.269 61.1248C299.409 60.2218 297.517 58.5018 296.399 57.7278C299.753 56.1798 303.236 53.6858 305.257 51.1918ZM304.612 32.4008V35.5828H327.488V32.4008H304.612ZM299.839 28.7028H332.605V39.3238H299.839V28.7028ZM308.912 23.9298H313.642V37.8188H308.912V23.9298ZM318.157 23.9298H322.973V37.8188H318.157V23.9298Z" fill="white"/>
<defs>
<clipPath id="clip0_912_331">
<rect width="297" height="91" fill="white" transform="translate(65)"/>
</clipPath>
</defs>
</svg>
