<svg width="372" height="463" viewBox="0 0 372 463" fill="none" xmlns="http://www.w3.org/2000/svg">
<rect x="2.5" y="52.3154" width="366.941" height="408.051" rx="23.5" fill="white" stroke="#68BE83" stroke-width="5"/>
<path d="M63.2821 190V186.43H69.8821V172.33H64.6621V169.57C66.0621 169.31 67.2721 169.08 68.2921 168.88C69.3121 168.66 70.2321 168.27 71.0521 167.71H74.2921V186.43H80.2921V190H63.2821ZM102.792 173.44H111.732V176.68H102.792V173.44ZM102.792 180.94H111.732V184.18H102.792V180.94ZM100.932 166.03H113.772V190.63H110.142V169.27H104.382V190.63H100.932V166.03ZM98.1421 188.65H115.812V191.89H98.1421V188.65ZM92.0221 164.53L95.2021 165.64C94.8021 166.42 94.3821 167.22 93.9421 168.04C93.5021 168.84 93.0721 169.62 92.6521 170.38C92.2321 171.12 91.8221 171.77 91.4221 172.33L88.9921 171.34C89.3521 170.72 89.7221 170.02 90.1021 169.24C90.4821 168.44 90.8421 167.63 91.1821 166.81C91.5221 165.99 91.8021 165.23 92.0221 164.53ZM95.6221 168.1L98.6821 169.36C97.9421 170.5 97.1421 171.7 96.2821 172.96C95.4221 174.2 94.5521 175.39 93.6721 176.53C92.7921 177.67 91.9721 178.67 91.2121 179.53L89.0221 178.42C89.6021 177.74 90.1921 176.97 90.7921 176.11C91.3921 175.25 91.9821 174.36 92.5621 173.44C93.1621 172.52 93.7221 171.6 94.2421 170.68C94.7821 169.74 95.2421 168.88 95.6221 168.1ZM87.4021 171.64L89.1121 169.18C89.6321 169.62 90.1721 170.12 90.7321 170.68C91.2921 171.22 91.8021 171.76 92.2621 172.3C92.7421 172.84 93.1021 173.34 93.3421 173.8L91.5121 176.59C91.2721 176.13 90.9221 175.61 90.4621 175.03C90.0221 174.43 89.5321 173.84 88.9921 173.26C88.4521 172.66 87.9221 172.12 87.4021 171.64ZM94.9021 175.33L97.4521 174.22C97.8521 174.88 98.2421 175.59 98.6221 176.35C99.0021 177.11 99.3321 177.86 99.6121 178.6C99.8921 179.32 100.102 179.97 100.242 180.55L97.4821 181.81C97.3621 181.25 97.1721 180.6 96.9121 179.86C96.6521 179.1 96.3421 178.33 95.9821 177.55C95.6421 176.75 95.2821 176.01 94.9021 175.33ZM87.4021 177.73C88.7821 177.69 90.4421 177.63 92.3821 177.55C94.3421 177.47 96.3321 177.38 98.3521 177.28L98.3221 180.13C96.4421 180.27 94.5721 180.41 92.7121 180.55C90.8521 180.67 89.1821 180.77 87.7021 180.85L87.4021 177.73ZM95.4121 182.83L98.0521 181.96C98.4721 182.86 98.8621 183.84 99.2221 184.9C99.5821 185.96 99.8421 186.88 100.002 187.66L97.2121 188.68C97.0721 187.88 96.8321 186.94 96.4921 185.86C96.1521 184.76 95.7921 183.75 95.4121 182.83ZM88.6921 182.14L91.6621 182.68C91.5021 184.12 91.2621 185.54 90.9421 186.94C90.6221 188.34 90.2521 189.52 89.8321 190.48C89.6321 190.34 89.3621 190.18 89.0221 190C88.6821 189.84 88.3321 189.68 87.9721 189.52C87.6321 189.36 87.3321 189.24 87.0721 189.16C87.5121 188.26 87.8621 187.19 88.1221 185.95C88.3821 184.69 88.5721 183.42 88.6921 182.14ZM92.1721 179.32H95.3521V192.7H92.1721V179.32ZM138.235 190C137.375 190 136.425 189.89 135.385 189.67C134.365 189.45 133.365 189.12 132.385 188.68C131.425 188.22 130.595 187.65 129.895 186.97L131.875 184C132.815 184.82 133.835 185.43 134.935 185.83C136.035 186.23 137.135 186.43 138.235 186.43C139.755 186.43 140.865 186.2 141.565 185.74C142.285 185.28 142.645 184.61 142.645 183.73C142.645 183.17 142.435 182.7 142.015 182.32C141.595 181.94 141.025 181.61 140.305 181.33C139.605 181.03 138.835 180.75 137.995 180.49C137.155 180.21 136.315 179.9 135.475 179.56C134.635 179.2 133.855 178.78 133.135 178.3C132.435 177.8 131.875 177.2 131.455 176.5C131.035 175.8 130.825 174.94 130.825 173.92C130.825 172.6 131.145 171.46 131.785 170.5C132.425 169.54 133.335 168.8 134.515 168.28C135.715 167.76 137.095 167.5 138.655 167.5C139.855 167.5 140.925 167.64 141.865 167.92C142.805 168.18 143.665 168.55 144.445 169.03C145.245 169.51 145.985 170.06 146.665 170.68L144.445 173.32C143.865 172.84 143.265 172.44 142.645 172.12C142.045 171.78 141.425 171.52 140.785 171.34C140.165 171.16 139.505 171.07 138.805 171.07C137.705 171.07 136.805 171.28 136.105 171.7C135.405 172.12 135.055 172.76 135.055 173.62C135.055 174.16 135.265 174.61 135.685 174.97C136.105 175.31 136.665 175.62 137.365 175.9C138.085 176.18 138.865 176.46 139.705 176.74C140.545 177 141.385 177.3 142.225 177.64C143.065 177.98 143.835 178.4 144.535 178.9C145.255 179.38 145.825 179.98 146.245 180.7C146.665 181.42 146.875 182.3 146.875 183.34C146.875 184.66 146.535 185.82 145.855 186.82C145.195 187.82 144.225 188.6 142.945 189.16C141.665 189.72 140.095 190 138.235 190ZM137.275 168.94V163.75H140.215V168.94H137.275ZM137.275 193.75V188.23H140.215V193.75H137.275ZM297.208 177.07H300.928V187.48C300.928 188.06 300.988 188.43 301.108 188.59C301.248 188.73 301.568 188.8 302.068 188.8C302.168 188.8 302.338 188.8 302.578 188.8C302.818 188.8 303.078 188.8 303.358 188.8C303.658 188.8 303.928 188.8 304.168 188.8C304.428 188.8 304.638 188.8 304.798 188.8C305.138 188.8 305.388 188.68 305.548 188.44C305.728 188.18 305.858 187.69 305.938 186.97C306.018 186.23 306.078 185.14 306.118 183.7C306.378 183.9 306.708 184.1 307.108 184.3C307.508 184.5 307.918 184.68 308.338 184.84C308.758 185 309.128 185.12 309.448 185.2C309.328 187 309.118 188.41 308.818 189.43C308.538 190.43 308.108 191.13 307.528 191.53C306.948 191.95 306.148 192.16 305.128 192.16C304.948 192.16 304.688 192.16 304.348 192.16C304.028 192.16 303.678 192.16 303.298 192.16C302.918 192.16 302.558 192.16 302.218 192.16C301.898 192.16 301.648 192.16 301.468 192.16C300.348 192.16 299.478 192.01 298.858 191.71C298.238 191.43 297.808 190.95 297.568 190.27C297.328 189.59 297.208 188.67 297.208 187.51V177.07ZM281.968 174.79H308.878V178.27H281.968V174.79ZM284.698 166.63H306.118V170.08H284.698V166.63ZM288.838 177.55H292.708C292.588 179.19 292.388 180.75 292.108 182.23C291.828 183.71 291.378 185.1 290.758 186.4C290.138 187.68 289.248 188.85 288.088 189.91C286.928 190.95 285.408 191.85 283.528 192.61C283.328 192.15 283.008 191.63 282.568 191.05C282.128 190.49 281.708 190.03 281.308 189.67C282.948 189.07 284.248 188.35 285.208 187.51C286.168 186.65 286.898 185.71 287.398 184.69C287.898 183.65 288.238 182.53 288.418 181.33C288.598 180.11 288.738 178.85 288.838 177.55Z" fill="black"/>
<path d="M174.702 190.636C171.202 190.636 168.088 190.068 165.361 188.932C162.649 187.78 160.52 186.212 158.975 184.227C157.429 182.242 156.656 179.992 156.656 177.477C156.656 175.538 157.096 173.758 157.975 172.136C158.868 170.5 160.081 169.144 161.611 168.068C163.141 166.977 164.853 166.28 166.747 165.977V165.659C164.262 165.159 162.247 163.955 160.702 162.045C159.156 160.121 158.384 157.886 158.384 155.341C158.384 152.932 159.088 150.788 160.497 148.909C161.906 147.015 163.838 145.53 166.293 144.455C168.762 143.364 171.565 142.818 174.702 142.818C177.838 142.818 180.634 143.364 183.088 144.455C185.558 145.545 187.497 147.038 188.906 148.932C190.315 150.811 191.028 152.947 191.043 155.341C191.028 157.902 190.24 160.136 188.679 162.045C187.118 163.955 185.118 165.159 182.679 165.659V165.977C184.543 166.28 186.232 166.977 187.747 168.068C189.278 169.144 190.49 170.5 191.384 172.136C192.293 173.758 192.755 175.538 192.77 177.477C192.755 179.992 191.975 182.242 190.429 184.227C188.884 186.212 186.747 187.78 184.02 188.932C181.308 190.068 178.202 190.636 174.702 190.636ZM174.702 183.409C176.262 183.409 177.626 183.129 178.793 182.568C179.959 181.992 180.868 181.205 181.52 180.205C182.187 179.189 182.52 178.023 182.52 176.705C182.52 175.356 182.179 174.167 181.497 173.136C180.815 172.091 179.891 171.273 178.725 170.682C177.558 170.076 176.217 169.773 174.702 169.773C173.202 169.773 171.861 170.076 170.679 170.682C169.497 171.273 168.565 172.091 167.884 173.136C167.217 174.167 166.884 175.356 166.884 176.705C166.884 178.023 167.209 179.189 167.861 180.205C168.512 181.205 169.429 181.992 170.611 182.568C171.793 183.129 173.156 183.409 174.702 183.409ZM174.702 162.614C176.005 162.614 177.164 162.348 178.179 161.818C179.194 161.288 179.99 160.553 180.565 159.614C181.141 158.674 181.429 157.591 181.429 156.364C181.429 155.152 181.141 154.091 180.565 153.182C179.99 152.258 179.202 151.538 178.202 151.023C177.202 150.492 176.035 150.227 174.702 150.227C173.384 150.227 172.217 150.492 171.202 151.023C170.187 151.538 169.391 152.258 168.815 153.182C168.255 154.091 167.975 155.152 167.975 156.364C167.975 157.591 168.262 158.674 168.838 159.614C169.414 160.553 170.209 161.288 171.225 161.818C172.24 162.348 173.399 162.614 174.702 162.614ZM216.492 142.818C218.886 142.818 221.189 143.22 223.401 144.023C225.628 144.826 227.613 146.106 229.355 147.864C231.113 149.621 232.499 151.955 233.514 154.864C234.545 157.758 235.067 161.311 235.082 165.523C235.082 169.477 234.636 173.008 233.742 176.114C232.863 179.205 231.598 181.833 229.946 184C228.295 186.167 226.302 187.818 223.969 188.955C221.636 190.076 219.029 190.636 216.151 190.636C213.045 190.636 210.302 190.038 207.923 188.841C205.545 187.629 203.628 185.985 202.173 183.909C200.734 181.818 199.863 179.47 199.56 176.864H209.264C209.643 178.561 210.439 179.879 211.651 180.818C212.863 181.742 214.363 182.205 216.151 182.205C219.181 182.205 221.484 180.886 223.06 178.25C224.636 175.598 225.431 171.97 225.446 167.364H225.128C224.431 168.727 223.492 169.902 222.31 170.886C221.128 171.856 219.772 172.606 218.242 173.136C216.726 173.667 215.113 173.932 213.401 173.932C210.658 173.932 208.211 173.288 206.06 172C203.908 170.712 202.211 168.939 200.969 166.682C199.726 164.424 199.105 161.848 199.105 158.955C199.09 155.833 199.81 153.053 201.264 150.614C202.719 148.174 204.749 146.265 207.355 144.886C209.976 143.492 213.022 142.803 216.492 142.818ZM216.56 150.545C215.029 150.545 213.666 150.909 212.469 151.636C211.287 152.364 210.348 153.341 209.651 154.568C208.969 155.795 208.636 157.167 208.651 158.682C208.651 160.212 208.984 161.591 209.651 162.818C210.332 164.03 211.257 165 212.423 165.727C213.605 166.439 214.954 166.795 216.469 166.795C217.605 166.795 218.658 166.583 219.628 166.159C220.598 165.735 221.439 165.152 222.151 164.409C222.878 163.652 223.446 162.78 223.855 161.795C224.264 160.811 224.469 159.765 224.469 158.659C224.454 157.189 224.105 155.841 223.423 154.614C222.742 153.386 221.802 152.402 220.605 151.659C219.408 150.917 218.06 150.545 216.56 150.545ZM258.742 142.818C261.136 142.818 263.439 143.22 265.651 144.023C267.878 144.826 269.863 146.106 271.605 147.864C273.363 149.621 274.749 151.955 275.764 154.864C276.795 157.758 277.317 161.311 277.332 165.523C277.332 169.477 276.886 173.008 275.992 176.114C275.113 179.205 273.848 181.833 272.196 184C270.545 186.167 268.552 187.818 266.219 188.955C263.886 190.076 261.279 190.636 258.401 190.636C255.295 190.636 252.552 190.038 250.173 188.841C247.795 187.629 245.878 185.985 244.423 183.909C242.984 181.818 242.113 179.47 241.81 176.864H251.514C251.893 178.561 252.689 179.879 253.901 180.818C255.113 181.742 256.613 182.205 258.401 182.205C261.431 182.205 263.734 180.886 265.31 178.25C266.886 175.598 267.681 171.97 267.696 167.364H267.378C266.681 168.727 265.742 169.902 264.56 170.886C263.378 171.856 262.022 172.606 260.492 173.136C258.976 173.667 257.363 173.932 255.651 173.932C252.908 173.932 250.461 173.288 248.31 172C246.158 170.712 244.461 168.939 243.219 166.682C241.976 164.424 241.355 161.848 241.355 158.955C241.34 155.833 242.06 153.053 243.514 150.614C244.969 148.174 246.999 146.265 249.605 144.886C252.226 143.492 255.272 142.803 258.742 142.818ZM258.81 150.545C257.279 150.545 255.916 150.909 254.719 151.636C253.537 152.364 252.598 153.341 251.901 154.568C251.219 155.795 250.886 157.167 250.901 158.682C250.901 160.212 251.234 161.591 251.901 162.818C252.582 164.03 253.507 165 254.673 165.727C255.855 166.439 257.204 166.795 258.719 166.795C259.855 166.795 260.908 166.583 261.878 166.159C262.848 165.735 263.689 165.152 264.401 164.409C265.128 163.652 265.696 162.78 266.105 161.795C266.514 160.811 266.719 159.765 266.719 158.659C266.704 157.189 266.355 155.841 265.673 154.614C264.992 153.386 264.052 152.402 262.855 151.659C261.658 150.917 260.31 150.545 258.81 150.545Z" fill="#39BF63"/>
<path d="M31.0291 245.528C30.2843 245.528 29.6042 245.347 28.9886 244.984C28.3731 244.614 27.8807 244.122 27.5114 243.506C27.1482 242.891 26.9666 242.211 26.9666 241.466C26.9666 240.715 27.1482 240.035 27.5114 239.425C27.8807 238.81 28.3731 238.321 28.9886 237.957C29.6042 237.588 30.2843 237.403 31.0291 237.403C31.7801 237.403 32.4602 237.588 33.0696 237.957C33.6851 238.321 34.1745 238.81 34.5376 239.425C34.907 240.035 35.0916 240.715 35.0916 241.466C35.0916 242.211 34.907 242.891 34.5376 243.506C34.1745 244.122 33.6851 244.614 33.0696 244.984C32.4602 245.347 31.7801 245.528 31.0291 245.528ZM52.5161 243.852H62.5261V245.568H52.5161V243.852ZM53.9461 241.59H63.1241V243.02H53.9461V241.59ZM53.9461 239.328H63.0201V240.784H53.9461V239.328ZM57.1441 237.846H59.4841V244.84H57.1441V237.846ZM62.1621 243.852H64.5801C64.5801 243.852 64.5801 244.398 64.5541 244.684C64.3981 247.986 64.2161 249.364 63.7481 249.936C63.3581 250.378 62.8901 250.56 62.3181 250.612C61.8241 250.664 60.9921 250.69 60.1081 250.638C60.0821 250.092 59.8481 249.286 59.5881 248.792C60.2641 248.844 60.8101 248.87 61.0961 248.844C61.3561 248.87 61.5121 248.818 61.6681 248.662C61.9281 248.324 62.0581 247.206 62.1621 244.19V243.852ZM52.0221 245.984L53.8161 246.478C53.5821 248.012 53.1661 249.546 52.1261 250.482L50.4881 249.416C51.3461 248.636 51.8401 247.31 52.0221 245.984ZM59.1981 246.218L60.4461 245.828C60.8881 246.478 61.2781 247.44 61.4601 248.038L60.1081 248.506C59.9781 247.882 59.6141 246.92 59.1981 246.218ZM54.4661 246.608L56.0001 246.4C56.2341 247.518 56.3121 248.948 56.2601 249.858L54.6221 250.092C54.7261 249.156 54.6481 247.752 54.4661 246.608ZM56.9101 246.504L58.3401 246.14C58.7041 247.102 58.9641 248.35 59.0421 249.156L57.5081 249.546C57.4821 248.714 57.2481 247.466 56.9101 246.504ZM52.5161 236.832H63.7481V238.548H54.9601V244.814H52.5161V236.832ZM48.7461 230.826H55.2721V232.594H48.7461V230.826ZM60.6281 230.826H67.2321V232.594H60.6281V230.826ZM66.2961 227.758H69.2861V248.246C69.2861 249.624 69.0261 250.378 68.2201 250.872C67.3881 251.314 66.2181 251.392 64.6061 251.392C64.5281 250.612 64.1381 249.364 63.7741 248.636C64.6321 248.688 65.5681 248.662 65.8541 248.662C66.1921 248.662 66.2961 248.532 66.2961 248.22V227.758ZM49.0321 227.758H57.2741V235.688H49.0321V233.712H54.3361V229.76H49.0321V227.758ZM67.8041 227.758V229.76H61.9281V233.712H67.8041V235.688H58.9641V227.758H67.8041ZM47.1861 227.758H50.0721V251.366H47.1861V227.758ZM82.6761 240.706L84.1841 240.238C84.7821 241.122 85.3541 242.292 85.5101 243.072L83.9501 243.618C83.7681 242.838 83.2481 241.616 82.6761 240.706ZM78.3341 238.73L79.3481 237.534C80.2841 238.184 81.4021 239.146 81.9221 239.848L80.8821 241.226C80.3881 240.472 79.2701 239.432 78.3341 238.73ZM81.2201 235.87L83.0401 236.572C82.3121 237.482 81.5581 238.418 80.9601 239.042L79.6081 238.444C80.1541 237.716 80.8561 236.598 81.2201 235.87ZM82.9881 237.768L84.6001 238.496C83.3261 239.9 81.7141 241.564 80.4661 242.578L79.2701 241.98C80.5181 240.862 82.1041 239.016 82.9881 237.768ZM85.7181 243.566H87.8241V250.846H85.7181V243.566ZM78.1261 241.772C79.7381 241.668 81.9221 241.538 84.2621 241.356L84.2881 242.942C82.1301 243.15 80.0761 243.332 78.3081 243.462L78.1261 241.772ZM89.2541 240.55L90.8141 240.108C91.4641 241.044 92.0881 242.344 92.2961 243.228L90.6581 243.774C90.4761 242.89 89.8781 241.564 89.2541 240.55ZM84.5221 238.6L85.6401 237.456C86.6541 238.184 87.8761 239.276 88.4221 240.03L87.2521 241.33C86.7321 240.55 85.5361 239.38 84.5221 238.6ZM87.5381 235.844L89.4101 236.572C88.6041 237.56 87.7721 238.574 87.0961 239.25L85.7181 238.626C86.3161 237.872 87.1221 236.65 87.5381 235.844ZM89.3841 237.794L91.0481 238.548C89.6961 240.004 88.0061 241.694 86.6541 242.76L85.4321 242.11C86.7581 240.992 88.4481 239.094 89.3841 237.794ZM85.0421 241.772C86.6541 241.694 88.7601 241.564 91.0481 241.408L91.0741 242.968C89.0721 243.176 87.0961 243.306 85.4061 243.462L85.0421 241.772ZM78.9061 243.982H80.8301V246.244H83.6381V247.96H78.9061V243.982ZM89.4621 243.982H91.3861V247.96H87.3821V246.244H89.4621V243.982ZM82.3901 243.566H84.4701V246.088C84.4701 248.116 83.9761 250.066 80.6741 251.21C80.4141 250.716 79.7641 249.91 79.3221 249.52C82.0261 248.714 82.3901 247.388 82.3901 246.01V243.566ZM75.7861 231.242H82.3121V233.114H75.7861V231.242ZM87.7461 231.242H94.3501V233.114H87.7461V231.242ZM93.2841 227.914H96.3001V247.778C96.3001 249.26 96.0661 250.118 95.1821 250.638C94.2981 251.158 93.1021 251.21 91.3861 251.21C91.2821 250.378 90.8921 248.974 90.5021 248.168C91.4641 248.22 92.5041 248.22 92.8421 248.22C93.1801 248.22 93.2841 248.09 93.2841 247.752V227.914ZM76.0721 227.914H84.3141V236.416H76.0721V234.31H81.3761V230.02H76.0721V227.914ZM94.8441 227.914V230.02H88.9681V234.31H94.8441V236.416H86.0041V227.914H94.8441ZM74.2261 227.914H77.1901V251.34H74.2261V227.914ZM100.408 236.104H124.094V239.198H100.408V236.104ZM112.03 230.098H121.286V233.088H112.03V230.098ZM110.002 226.926H113.304V237.586H110.002V226.926ZM110.002 238.106H113.304V251.314H110.002V238.106ZM112.368 243.072L113.928 240.55C116.528 241.304 120.506 242.682 122.534 243.67L120.87 246.478C118.972 245.49 115.098 243.956 112.368 243.072ZM127.266 237.17H151.342V240.576H127.266V237.17ZM166.786 231.736H176.198V233.894H166.786V231.736ZM166.786 235.22H176.198V237.404H166.786V235.22ZM163.562 238.756H178.512V241.486H163.562V238.756ZM165.408 227.81H177.186V230.462H168.398V240.212H165.408V227.81ZM163.432 248.012C165.616 247.804 168.84 247.388 171.986 246.998L172.09 249.702C169.256 250.17 166.266 250.586 163.9 250.95L163.432 248.012ZM172.116 240.212C173.104 244.164 175.236 247.31 178.954 248.662C178.252 249.286 177.342 250.56 176.9 251.392C172.818 249.52 170.738 245.724 169.542 240.654L172.116 240.212ZM175.938 241.564L178.512 242.968C177.056 244.216 175.444 245.49 174.196 246.296L172.272 245.126C173.468 244.19 175.054 242.656 175.938 241.564ZM165.486 239.562H168.476V248.428L165.486 248.948V239.562ZM155.71 239.562H161.95V242.344H155.71V239.562ZM160.546 239.562H163.64C163.64 239.562 163.614 240.394 163.562 240.758C163.198 246.79 162.834 249.312 162.054 250.222C161.456 250.898 160.858 251.158 160.026 251.262C159.324 251.366 158.102 251.392 156.854 251.34C156.802 250.456 156.464 249.208 155.996 248.428C157.036 248.532 158.024 248.558 158.492 248.558C158.908 248.558 159.168 248.48 159.402 248.22C159.896 247.674 160.26 245.516 160.546 240.03V239.562ZM155.45 234.18H158.258C157.972 237.118 157.53 240.81 157.14 243.124L154.254 242.812C154.696 240.55 155.216 236.962 155.45 234.18ZM155.632 234.18H160.364V231.086H154.696V228.226H163.172V237.04H155.632V234.18ZM31.0291 284.528C30.2843 284.528 29.6042 284.347 28.9886 283.984C28.3731 283.614 27.8807 283.122 27.5114 282.506C27.1482 281.891 26.9666 281.211 26.9666 280.466C26.9666 279.715 27.1482 279.035 27.5114 278.425C27.8807 277.81 28.3731 277.321 28.9886 276.957C29.6042 276.588 30.2843 276.403 31.0291 276.403C31.7801 276.403 32.4602 276.588 33.0696 276.957C33.6851 277.321 34.1745 277.81 34.5376 278.425C34.907 279.035 35.0916 279.715 35.0916 280.466C35.0916 281.211 34.907 281.891 34.5376 282.506C34.1745 283.122 33.6851 283.614 33.0696 283.984C32.4602 284.347 31.7801 284.528 31.0291 284.528ZM59.3281 280.564H62.5521V286.336C62.5521 287.168 62.7081 287.298 63.6441 287.298C64.0601 287.298 65.8021 287.298 66.3481 287.298C67.2321 287.298 67.3621 286.83 67.4921 283.944C68.1421 284.438 69.4941 284.958 70.3261 285.166C70.0141 289.118 69.1561 290.158 66.6341 290.158C65.9841 290.158 63.8001 290.158 63.1761 290.158C60.0821 290.158 59.3281 289.222 59.3281 286.362V280.564ZM53.3221 281.578H56.6241C56.0261 285.894 54.4661 288.806 47.4721 290.392C47.1861 289.612 46.3801 288.338 45.7821 287.688C51.8661 286.596 52.8281 284.594 53.3221 281.578ZM52.9061 275.676V279.16H63.3841V275.676H52.9061ZM49.8901 272.894H66.6081V281.942H49.8901V272.894ZM55.6621 266.55H62.6821V269.358H55.6621V266.55ZM52.0221 267.616L55.1681 268.63C53.5561 271.568 50.8521 274.376 48.3041 276.118C47.7581 275.468 46.5881 274.246 45.8601 273.674C48.3561 272.322 50.7221 270.034 52.0221 267.616ZM60.2121 266.55H63.5661C64.9441 269.28 67.6741 272.036 70.6121 273.518C69.8581 274.064 68.7141 275.208 68.1681 275.962C65.1781 274.064 62.5001 271.022 60.8881 268.11H60.2121V266.55ZM85.1201 265.874L88.0061 266.316C86.8881 269.124 85.2501 271.776 82.3901 273.908C81.9481 273.258 80.9861 272.374 80.3361 271.984C82.8581 270.294 84.3921 267.98 85.1201 265.874ZM85.8481 267.772H90.9441V270.164H84.4181L85.8481 267.772ZM86.2641 273.804H88.4741C88.2921 276.326 87.7461 278.094 85.4581 279.186C85.1981 278.64 84.6001 277.886 84.1321 277.522C85.7961 276.794 86.1861 275.598 86.2641 273.804ZM89.4621 273.908H91.7241V276.04C91.7241 276.508 91.7501 276.56 92.1401 276.56C92.2961 276.56 92.9461 276.56 93.1281 276.56C93.4401 276.56 93.5441 276.482 93.5961 276.248C94.0121 276.56 94.8961 276.872 95.5201 276.976C95.2861 278.12 94.6621 278.484 93.4661 278.484C93.1021 278.484 92.1401 278.484 91.7761 278.484C89.8521 278.484 89.4621 277.938 89.4621 276.04V273.908ZM80.8821 281.5H97.0801V284.074H80.8821V281.5ZM90.5541 282.358C91.4641 285.322 93.5441 287.09 97.4961 287.688C96.8461 288.26 96.0921 289.482 95.7281 290.262C91.1261 289.3 89.0201 286.856 87.8501 282.644L90.5541 282.358ZM84.6261 272.036H94.2461V274.48H84.6261V280.694H82.0261V272.036H84.6261ZM93.5701 272.036H96.2221V280.642H93.5701V272.036ZM89.9301 267.772H90.5541L90.9961 267.668L92.9721 268.916C92.2181 270.502 90.9701 272.504 90.0081 273.778C89.4361 273.362 88.5261 272.79 87.9021 272.478C88.6821 271.308 89.5401 269.436 89.9301 268.292V267.772ZM87.5121 279.368H90.3461C89.9561 285.244 88.7861 288.676 81.2461 290.418C80.9861 289.69 80.2841 288.572 79.7121 288C86.4721 286.7 87.2001 284.126 87.5121 279.368ZM72.7181 279.004C74.7981 278.536 77.8921 277.704 80.8301 276.872L81.2461 279.68C78.5681 280.512 75.7081 281.344 73.4201 281.994L72.7181 279.004ZM73.1341 270.866H81.0901V273.726H73.1341V270.866ZM75.8901 265.952H78.7501V287.038C78.7501 288.494 78.4901 289.3 77.6841 289.768C76.9041 290.262 75.7861 290.366 74.0961 290.366C74.0181 289.586 73.6541 288.312 73.2901 287.454C74.2261 287.506 75.1361 287.506 75.4481 287.48C75.7601 287.48 75.8901 287.402 75.8901 287.038V265.952ZM99.7581 279.238C102.072 278.744 105.504 277.886 108.754 277.08L109.118 279.888C106.154 280.72 103.008 281.578 100.538 282.228L99.7581 279.238ZM100.148 270.84H108.806V273.726H100.148V270.84ZM103.294 265.926H106.31V287.09C106.31 288.546 106.024 289.326 105.166 289.794C104.308 290.262 103.06 290.34 101.24 290.34C101.162 289.56 100.772 288.312 100.382 287.532C101.396 287.558 102.462 287.558 102.8 287.558C103.164 287.558 103.294 287.428 103.294 287.064V265.926ZM109.404 271.75H123.912V290.132H120.792V274.714H112.368V290.288H109.404V271.75ZM111.276 278.458H121.65V281.37H111.276V278.458ZM111.354 285.426H121.754V288.416H111.354V285.426ZM115.046 265.978H117.984V287.246H115.046V265.978ZM127.422 282.488H151.108V285.036H127.422V282.488ZM141.046 283.346C142.528 286.336 145.908 287.35 151.862 287.48C151.212 288.13 150.432 289.43 150.094 290.314C143.308 289.846 140.032 288.156 137.978 283.788L141.046 283.346ZM142.45 281.63L143.724 279.862C145.414 280.226 147.78 280.98 149.028 281.526L147.702 283.502C146.506 282.93 144.192 282.098 142.45 281.63ZM136.496 273.986H151.524V276.144H136.496V273.986ZM145.128 272.296H148.066V277.704C148.066 278.952 147.806 279.55 146.896 279.888C145.96 280.226 144.738 280.226 143.048 280.226C142.918 279.498 142.554 278.588 142.216 277.964C143.23 277.99 144.374 277.99 144.686 277.964C144.998 277.964 145.128 277.886 145.128 277.6V272.296ZM127.11 273.648H134.39V276.092H127.11V273.648ZM132.856 265.9H135.69V280.876H132.856V265.9ZM128.306 266.654H130.906V269.904H134.468V272.296H128.306V266.654ZM138.056 276.976L140.136 275.78C141.046 276.534 142.112 277.626 142.58 278.432L140.37 279.732C139.98 278.952 138.966 277.782 138.056 276.976ZM137.458 269.748L139.148 269.098C140.214 269.748 141.488 270.788 142.112 271.542L140.37 272.218C139.772 271.49 138.524 270.45 137.458 269.748ZM140.11 268.786L141.566 268.032C142.892 268.656 144.478 269.696 145.284 270.502L143.724 271.334C142.996 270.528 141.436 269.462 140.11 268.786ZM147.858 267.148H148.352L148.846 267.07L150.458 267.85C148.196 271.828 143.308 273.414 137.77 274.116C137.562 273.544 137.016 272.686 136.6 272.192C141.54 271.724 146.09 270.372 147.858 267.486V267.148ZM143.308 265.9L145.856 266.472C143.802 268.396 140.994 269.722 137.12 270.788C136.808 270.216 136.132 269.384 135.612 268.994C139.226 268.266 141.852 267.174 143.308 265.9ZM142.736 267.148H148.664V268.838H140.422L142.736 267.148ZM128.67 274.922H131.4V276.222C131.4 277.444 131.062 280.044 129.32 281.5C128.8 281.084 127.63 280.486 126.954 280.174C128.436 279.004 128.67 277.054 128.67 276.144V274.922ZM137.484 280.044H140.578V282.41C140.578 285.556 138.914 289.092 128.488 290.392C128.15 289.664 127.37 288.52 126.798 287.844C136.08 286.752 137.484 284.36 137.484 282.332V280.044ZM154.566 275.026H177.992V277.86H154.566V275.026ZM156.282 270.216H176.536V272.946H156.282V270.216ZM159.064 280.044H171.31V282.852H159.064V280.044ZM169.906 271.438C171.362 275.832 174.404 279.602 178.642 281.37C177.94 281.942 177.004 283.138 176.588 283.918C171.986 281.708 168.944 277.496 167.124 272.166L169.906 271.438ZM157.504 267.148L160.104 266.212C160.91 267.33 161.768 268.864 162.106 269.904L159.324 270.944C159.064 269.93 158.258 268.344 157.504 267.148ZM171.726 266.082L174.82 266.992C174.014 268.474 173.13 269.956 172.428 270.918L169.75 270.06C170.426 268.994 171.284 267.304 171.726 266.082ZM170.478 280.044H173.676C173.676 280.044 173.65 280.85 173.598 281.24C173.286 286.206 172.896 288.39 172.168 289.196C171.57 289.898 170.946 290.106 170.088 290.236C169.334 290.314 168.06 290.314 166.708 290.288C166.656 289.378 166.292 288.156 165.798 287.35C166.942 287.454 168.034 287.48 168.554 287.48C168.97 287.48 169.23 287.428 169.49 287.168C169.932 286.726 170.244 284.932 170.478 280.486V280.044ZM163.276 280.98H166.526C166.006 285.504 164.732 288.676 158.102 290.392C157.816 289.612 157.01 288.338 156.36 287.714C162.08 286.518 162.86 284.256 163.276 280.98ZM164.264 265.848L167.566 266.42C165.902 273.752 162.886 280.408 155.866 283.892C155.424 283.164 154.54 281.994 153.916 281.37C160.39 278.38 163.146 272.296 164.264 265.848ZM181.346 276.17H205.422V279.576H181.346V276.17ZM220.866 270.736H230.278V272.894H220.866V270.736ZM220.866 274.22H230.278V276.404H220.866V274.22ZM217.642 277.756H232.592V280.486H217.642V277.756ZM219.488 266.81H231.266V269.462H222.478V279.212H219.488V266.81ZM217.512 287.012C219.696 286.804 222.92 286.388 226.066 285.998L226.17 288.702C223.336 289.17 220.346 289.586 217.98 289.95L217.512 287.012ZM226.196 279.212C227.184 283.164 229.316 286.31 233.034 287.662C232.332 288.286 231.422 289.56 230.98 290.392C226.898 288.52 224.818 284.724 223.622 279.654L226.196 279.212ZM230.018 280.564L232.592 281.968C231.136 283.216 229.524 284.49 228.276 285.296L226.352 284.126C227.548 283.19 229.134 281.656 230.018 280.564ZM219.566 278.562H222.556V287.428L219.566 287.948V278.562ZM209.79 278.562H216.03V281.344H209.79V278.562ZM214.626 278.562H217.72C217.72 278.562 217.694 279.394 217.642 279.758C217.278 285.79 216.914 288.312 216.134 289.222C215.536 289.898 214.938 290.158 214.106 290.262C213.404 290.366 212.182 290.392 210.934 290.34C210.882 289.456 210.544 288.208 210.076 287.428C211.116 287.532 212.104 287.558 212.572 287.558C212.988 287.558 213.248 287.48 213.482 287.22C213.976 286.674 214.34 284.516 214.626 279.03V278.562ZM209.53 273.18H212.338C212.052 276.118 211.61 279.81 211.22 282.124L208.334 281.812C208.776 279.55 209.296 275.962 209.53 273.18ZM209.712 273.18H214.444V270.086H208.776V267.226H217.252V276.04H209.712V273.18ZM31.0291 323.528C30.2843 323.528 29.6042 323.347 28.9886 322.984C28.3731 322.614 27.8807 322.122 27.5114 321.506C27.1482 320.891 26.9666 320.211 26.9666 319.466C26.9666 318.715 27.1482 318.035 27.5114 317.425C27.8807 316.81 28.3731 316.321 28.9886 315.957C29.6042 315.588 30.2843 315.403 31.0291 315.403C31.7801 315.403 32.4602 315.588 33.0696 315.957C33.6851 316.321 34.1745 316.81 34.5376 317.425C34.907 318.035 35.0916 318.715 35.0916 319.466C35.0916 320.211 34.907 320.891 34.5376 321.506C34.1745 322.122 33.6851 322.614 33.0696 322.984C32.4602 323.347 31.7801 323.528 31.0291 323.528ZM55.3501 318.784H68.9741V329.21H66.0101V321.618H58.1841V329.314H55.3501V318.784ZM66.9201 304.926L69.3121 307.37C65.4901 308.826 60.2121 309.632 55.6101 310.048C55.4801 309.294 55.0641 308.072 54.7261 307.37C59.1461 306.928 64.0341 306.07 66.9201 304.926ZM60.6801 307.838H63.6441V320.422H60.6801V307.838ZM53.7121 312.492H70.3001V315.482H53.7121V312.492ZM57.3781 325.44H67.2321V328.248H57.3781V325.44ZM47.3161 307.5L49.0581 305.264C50.5141 305.992 52.7761 307.136 53.8941 307.864L52.0481 310.386C51.0081 309.606 48.7981 308.358 47.3161 307.5ZM46.0421 314.702L47.7321 312.388C49.2141 313.09 51.5281 314.208 52.6721 314.936L50.9301 317.51C49.8641 316.782 47.6021 315.534 46.0421 314.702ZM46.4321 326.922C47.8361 324.972 49.8381 321.722 51.3981 318.732L53.6861 320.786C52.3081 323.542 50.6441 326.506 49.0841 329.028L46.4321 326.922ZM73.7061 321.748H85.8481V323.958H73.7061V321.748ZM73.1081 309.372H86.1081V311.634H73.1081V309.372ZM78.2821 307.526H81.0901V326.168H78.2821V307.526ZM72.9781 325.882C76.2021 325.648 81.1681 325.284 85.8481 324.868L85.8741 327.234C81.4541 327.702 76.7221 328.17 73.3421 328.482L72.9781 325.882ZM76.2801 317.588V318.784H83.1441V317.588H76.2801ZM76.2801 314.598V315.768H83.1441V314.598H76.2801ZM73.7841 312.648H85.7181V320.734H73.7841V312.648ZM84.4441 305.056L85.8221 307.396C82.4941 308.072 77.7621 308.462 73.8621 308.54C73.7581 307.916 73.4721 306.928 73.1861 306.33C77.0601 306.148 81.5841 305.68 84.4441 305.056ZM86.1081 310.802H95.1041V313.662H86.1081V310.802ZM93.8561 310.802H96.8461C96.8461 310.802 96.8201 311.816 96.8201 312.18C96.5861 322.892 96.3781 326.688 95.5201 327.858C94.9481 328.742 94.3501 329.028 93.4921 329.184C92.6861 329.34 91.4641 329.34 90.2421 329.288C90.1641 328.43 89.8261 327.156 89.3321 326.324C90.4501 326.428 91.4381 326.428 91.9581 326.428C92.3481 326.428 92.6081 326.35 92.8421 325.986C93.4401 325.206 93.6481 321.54 93.8561 311.478V310.802ZM88.6041 305.368H91.5941C91.5681 316.47 91.5421 324.816 85.5361 329.548C85.0941 328.794 84.0801 327.728 83.3781 327.208C88.8641 323.022 88.5781 315.742 88.6041 305.368ZM115.332 318.94H118.114V327.598H115.332V318.94ZM113.954 312.076V313.922H119.778V312.076H113.954ZM111.198 309.71H122.664V316.288H111.198V309.71ZM109.872 317.432H123.782V329.288H120.792V319.928H112.758V329.314H109.872V317.432ZM111.536 321.67H122.352V323.984H111.536V321.67ZM111.562 325.778H122.378V328.274H111.562V325.778ZM109.742 306.018H123.886V308.644H109.742V306.018ZM100.512 309.736H108.286V312.544H100.512V309.736ZM103.632 304.952H106.674V311.062H103.632V304.952ZM106.96 315.82C107.688 316.288 109.95 318.29 110.496 318.81L108.676 321.306C107.87 320.188 106.102 318.238 105.218 317.302L106.96 315.82ZM107.142 309.736H107.766L108.286 309.632L110.002 310.724C108.208 315.768 104.594 320.37 101.006 322.84C100.746 322.008 99.9921 320.448 99.5241 319.876C102.774 317.926 105.868 314.104 107.142 310.308V309.736ZM103.632 318.628L106.674 314.962V329.34H103.632V318.628ZM137.614 315.534H140.786V319.304H137.614V315.534ZM137.484 318.914L140.032 320.032C137.432 322.632 133.09 324.556 128.67 325.362C128.28 324.686 127.5 323.62 126.902 323.048C131.114 322.398 135.352 320.89 137.484 318.914ZM141.722 319.018C143.152 323.074 146.246 325.648 151.524 326.584C150.848 327.234 150.016 328.482 149.626 329.34C143.802 328.014 140.708 324.842 138.862 319.59L141.722 319.018ZM147.988 320.63L150.406 322.476C148.742 323.49 146.662 324.478 145.128 325.05L143.074 323.36C144.608 322.71 146.74 321.514 147.988 320.63ZM130.126 326.558C133.142 326.272 137.744 325.752 142.034 325.258L142.086 327.832C138.03 328.326 133.662 328.846 130.542 329.236L130.126 326.558ZM127.578 317.978H150.978V320.682H127.578V317.978ZM135.066 309.32L150.718 307.864L151.03 310.412L135.404 311.946L135.066 309.32ZM144.14 306.746L145.466 304.978C146.844 305.29 148.794 305.914 149.834 306.382L148.456 308.358C147.494 307.838 145.57 307.136 144.14 306.746ZM139.33 305.108H142.398C142.762 310.282 145.44 314.52 148.014 314.494C148.664 314.494 148.872 313.818 149.002 312.024C149.652 312.596 150.692 313.116 151.472 313.35C151.056 316.73 150.042 317.432 147.858 317.432C143.282 317.432 139.824 312.076 139.33 305.108ZM133.48 304.926L136.418 305.914C134.598 309.06 131.608 311.998 128.774 313.818C128.306 313.22 127.214 312.024 126.564 311.478C129.346 309.996 131.998 307.578 133.48 304.926ZM131.088 309.762L133.22 307.63L134.078 307.916V317.068H131.088V309.762ZM133.142 323.152L135.196 321.098L136.132 321.41V327.52H133.142V323.152ZM154.306 315.17H178.382V318.576H154.306V315.17ZM198.896 306.642L200.976 304.926C202.146 305.732 203.68 306.954 204.408 307.812L202.224 309.684C201.548 308.8 200.092 307.5 198.896 306.642ZM181.684 309.346H205.084V312.388H181.684V309.346ZM182.646 315.378H193.904V318.394H182.646V315.378ZM186.598 317.094H189.718V325.908H186.598V317.094ZM181.658 325.466C184.804 324.998 189.9 324.114 194.58 323.23L194.814 326.012C190.524 326.948 185.922 327.91 182.542 328.612L181.658 325.466ZM194.45 305.03H197.804C197.57 315.716 199.546 326.09 202.016 326.09C202.588 326.09 202.874 324.66 203.03 321.384C203.732 322.112 204.876 322.866 205.76 323.178C205.292 328.144 204.226 329.366 201.756 329.366C196.114 329.366 194.476 317.068 194.45 305.03Z" fill="black"/>
<path d="M28.3848 206.912H346.492" stroke="black"/>
<path d="M117.987 82.9268L116.374 93.25L126.817 91.2963L117.987 82.9268Z" fill="#39BF63"/>
<path d="M112.365 86.513C132.45 86.513 148.731 70.3768 148.731 50.4718C148.731 30.5668 132.45 14.4307 112.365 14.4307C92.2814 14.4307 76 30.5668 76 50.4718C76 70.3768 92.2814 86.513 112.365 86.513Z" fill="#39BF63"/>
<path d="M195.697 24.1263L204.189 17.9586L195.414 12.0054L195.697 24.1263Z" fill="#39BF63"/>
<path d="M202.283 76.563C216.454 62.488 216.43 39.6438 202.228 25.5389C188.027 11.4341 165.026 11.4098 150.854 25.4848C136.683 39.5597 136.707 62.404 150.909 76.5088C165.11 90.6137 188.111 90.6379 202.283 76.563Z" fill="#39BF63"/>
<path d="M246.255 82.9268L244.643 93.25L255.086 91.2963L246.255 82.9268Z" fill="#39BF63"/>
<path d="M240.635 86.513C260.719 86.513 277 70.3768 277 50.4718C277 30.5668 260.719 14.4307 240.635 14.4307C220.55 14.4307 204.269 30.5668 204.269 50.4718C204.269 70.3768 220.55 86.513 240.635 86.513Z" fill="#39BF63"/>
<path d="M110.392 45.392H115.104V68.42H110.392V45.392ZM103.97 52.156V54.17H121.944V52.156H103.97ZM103.97 46.836V48.888H121.944V46.836H103.97ZM99.524 43.34H126.656V57.666H99.524V43.34ZM95.914 59.642H129.962V63.594H95.914V59.642ZM102.184 36.918V39.122H107.542V36.918H102.184ZM98.156 34.182H111.836V41.858H98.156V34.182ZM118.144 36.918V39.122H123.578V36.918H118.144ZM114.078 34.182H127.872V41.858H114.078V34.182ZM178.982 44.024H190.306V48.128H178.982V44.024ZM178.982 53.524H190.306V57.628H178.982V53.524ZM176.626 34.638H192.89V65.798H188.292V38.742H180.996V65.798H176.626V34.638ZM173.092 63.29H195.474V67.394H173.092V63.29ZM165.34 32.738L169.368 34.144C168.861 35.132 168.329 36.1453 167.772 37.184C167.215 38.1973 166.67 39.1853 166.138 40.148C165.606 41.0853 165.087 41.9087 164.58 42.618L161.502 41.364C161.958 40.5787 162.427 39.692 162.908 38.704C163.389 37.6907 163.845 36.6647 164.276 35.626C164.707 34.5873 165.061 33.6247 165.34 32.738ZM169.9 37.26L173.776 38.856C172.839 40.3 171.825 41.82 170.736 43.416C169.647 44.9867 168.545 46.494 167.43 47.938C166.315 49.382 165.277 50.6487 164.314 51.738L161.54 50.332C162.275 49.4707 163.022 48.4953 163.782 47.406C164.542 46.3167 165.289 45.1893 166.024 44.024C166.784 42.8587 167.493 41.6933 168.152 40.528C168.836 39.3373 169.419 38.248 169.9 37.26ZM159.488 41.744L161.654 38.628C162.313 39.1853 162.997 39.8187 163.706 40.528C164.415 41.212 165.061 41.896 165.644 42.58C166.252 43.264 166.708 43.8973 167.012 44.48L164.694 48.014C164.39 47.4313 163.947 46.7727 163.364 46.038C162.807 45.278 162.186 44.5307 161.502 43.796C160.818 43.036 160.147 42.352 159.488 41.744ZM168.988 46.418L172.218 45.012C172.725 45.848 173.219 46.7473 173.7 47.71C174.181 48.6727 174.599 49.6227 174.954 50.56C175.309 51.472 175.575 52.2953 175.752 53.03L172.256 54.626C172.104 53.9167 171.863 53.0933 171.534 52.156C171.205 51.1933 170.812 50.218 170.356 49.23C169.925 48.2167 169.469 47.2793 168.988 46.418ZM159.488 49.458C161.236 49.4073 163.339 49.3313 165.796 49.23C168.279 49.1287 170.799 49.0147 173.358 48.888L173.32 52.498C170.939 52.6753 168.57 52.8527 166.214 53.03C163.858 53.182 161.743 53.3087 159.868 53.41L159.488 49.458ZM169.634 55.918L172.978 54.816C173.51 55.956 174.004 57.1973 174.46 58.54C174.916 59.8827 175.245 61.048 175.448 62.036L171.914 63.328C171.737 62.3147 171.433 61.124 171.002 59.756C170.571 58.3627 170.115 57.0833 169.634 55.918ZM161.122 55.044L164.884 55.728C164.681 57.552 164.377 59.3507 163.972 61.124C163.567 62.8973 163.098 64.392 162.566 65.608C162.313 65.4307 161.971 65.228 161.54 65C161.109 64.7973 160.666 64.5947 160.21 64.392C159.779 64.1893 159.399 64.0373 159.07 63.936C159.627 62.796 160.071 61.4407 160.4 59.87C160.729 58.274 160.97 56.6653 161.122 55.044ZM165.53 51.472H169.558V68.42H165.53V51.472ZM246.926 61.77L250.27 59.528C251.258 60.0093 252.297 60.592 253.386 61.276C254.475 61.96 255.527 62.644 256.54 63.328C257.553 64.012 258.402 64.658 259.086 65.266L255.438 67.812C254.855 67.2293 254.083 66.5833 253.12 65.874C252.183 65.1647 251.169 64.4553 250.08 63.746C248.991 63.0113 247.939 62.3527 246.926 61.77ZM229.446 50.484H254.792V53.942H229.446V50.484ZM224.924 55.538H259.39V59.11H224.924V55.538ZM225.456 33.954H258.63V37.564H225.456V33.954ZM239.82 56.184H244.418V64.05C244.418 65.0633 244.291 65.8613 244.038 66.444C243.81 67.0267 243.341 67.47 242.632 67.774C241.923 68.078 241.087 68.268 240.124 68.344C239.187 68.42 238.085 68.458 236.818 68.458C236.742 67.85 236.565 67.1533 236.286 66.368C236.007 65.608 235.729 64.9493 235.45 64.392C236.21 64.4173 236.957 64.4427 237.692 64.468C238.427 64.468 238.921 64.4553 239.174 64.43C239.427 64.43 239.592 64.392 239.668 64.316C239.769 64.24 239.82 64.1007 239.82 63.898V56.184ZM232.448 59.414L236.628 60.858C235.919 61.7953 235.083 62.72 234.12 63.632C233.157 64.544 232.144 65.3927 231.08 66.178C230.041 66.9633 229.028 67.6473 228.04 68.23C227.787 67.9513 227.457 67.6093 227.052 67.204C226.647 66.824 226.229 66.444 225.798 66.064C225.367 65.7093 224.987 65.418 224.658 65.19C226.153 64.506 227.597 63.6573 228.99 62.644C230.409 61.6053 231.561 60.5287 232.448 59.414ZM231.878 42.808V45.658H252.094V42.808H231.878ZM227.66 39.578H256.616V48.926H227.66V39.578ZM235.716 35.36H239.896V47.596H235.716V35.36ZM243.848 35.36H248.142V47.596H243.848V35.36Z" fill="white"/>
</svg>
