<svg width="372" height="463" viewBox="0 0 372 463" fill="none" xmlns="http://www.w3.org/2000/svg">
<path d="M23.3 50.4H349.6C360.9 50.4 370.1 59.9 370.1 71.6V441.1C370.1 452.8 360.9 462.3 349.6 462.3H23.3C12 462.3 2.79999 452.8 2.79999 441.1V71.6C2.79999 59.9 12 50.4 23.3 50.4Z" fill="#E2E2E2" stroke="#39BF63" stroke-width="4.4"/>
<path d="M54.7 196.8V193.2H61.4V178.8H56.1V176C57.5 175.7 58.8 175.5 59.8 175.3C60.8 175.1 61.8 174.7 62.6 174.1H65.9V193.2H72V196.8H54.7ZM95 179.9H104.1V183.2H95V179.9ZM95 187.6H104.1V190.9H95V187.6ZM93.1 172.4H106.2V197.5H102.5V175.7H96.6V197.5H93.1V172.4ZM90.3 195.4H108.3V198.7H90.3V195.4ZM84 170.8L87.2 171.9C86.8 172.7 86.4 173.5 85.9 174.3C85.5 175.1 85 175.9 84.6 176.7C84.2 177.5 83.8 178.1 83.3 178.7L80.8 177.7C81.2 177.1 81.5 176.4 81.9 175.6C82.3 174.8 82.7 174 83 173.1C83.3 172.3 83.6 171.5 83.9 170.8H84ZM87.7 174.5L90.8 175.8C90 177 89.2 178.2 88.4 179.5C87.5 180.8 86.6 182 85.7 183.1C84.8 184.3 84 185.3 83.2 186.2L81 185.1C81.6 184.4 82.2 183.6 82.8 182.7C83.4 181.8 84 180.9 84.6 180C85.2 179.1 85.8 178.1 86.3 177.2C86.9 176.2 87.3 175.4 87.7 174.6V174.5ZM79.3 178.1L81 175.6C81.5 176 82.1 176.6 82.7 177.1C83.3 177.7 83.8 178.2 84.3 178.8C84.8 179.4 85.2 179.9 85.4 180.3L83.5 183.1C83.3 182.6 82.9 182.1 82.4 181.5C82 180.9 81.5 180.3 80.9 179.7C80.3 179.1 79.8 178.5 79.3 178V178.1ZM87 181.8L89.6 180.7C90 181.4 90.4 182.1 90.8 182.9C91.2 183.7 91.5 184.4 91.8 185.2C92.1 185.9 92.3 186.6 92.4 187.2L89.6 188.5C89.6 187.9 89.3 187.3 89 186.5C88.7 185.7 88.4 184.9 88.1 184.1C87.8 183.3 87.4 182.5 87 181.8ZM79.3 184.3C80.7 184.3 82.4 184.2 84.4 184.1C86.4 184.1 88.4 183.9 90.5 183.8V186.7C88.6 186.8 86.6 187 84.7 187.1C82.8 187.2 81.1 187.3 79.6 187.4L79.3 184.2V184.3ZM87.5 189.5L90.2 188.6C90.6 189.5 91 190.5 91.4 191.6C91.8 192.7 92 193.6 92.2 194.4L89.4 195.4C89.4 194.6 89 193.6 88.7 192.5C88.4 191.4 88 190.3 87.6 189.4L87.5 189.5ZM80.6 188.8L83.6 189.4C83.4 190.9 83.2 192.3 82.9 193.7C82.6 195.1 82.2 196.3 81.8 197.3C81.6 197.2 81.3 197 81 196.8C80.7 196.6 80.3 196.5 79.9 196.3C79.6 196.1 79.2 196 79 195.9C79.4 195 79.8 193.9 80.1 192.6C80.4 191.3 80.6 190 80.7 188.7L80.6 188.8ZM84.2 185.9H87.4V199.5H84.2V185.9ZM131.1 196.8C130.2 196.8 129.3 196.7 128.2 196.5C127.2 196.3 126.1 195.9 125.1 195.5C124.1 195 123.3 194.4 122.6 193.8L124.6 190.8C125.6 191.6 126.6 192.3 127.7 192.7C128.8 193.1 129.9 193.3 131.1 193.3C132.3 193.3 133.8 193.1 134.5 192.6C135.2 192.1 135.6 191.4 135.6 190.6C135.6 189.8 135.4 189.5 135 189.2C134.6 188.8 134 188.5 133.3 188.2C132.6 187.9 131.8 187.6 130.9 187.3C130 187 129.2 186.7 128.3 186.4C127.4 186 126.6 185.6 125.9 185.1C125.2 184.6 124.6 184 124.2 183.3C123.8 182.6 123.6 181.7 123.6 180.7C123.6 179.7 123.9 178.2 124.6 177.2C125.3 176.2 126.2 175.5 127.4 174.9C128.6 174.4 130 174.1 131.6 174.1C133.2 174.1 133.9 174.2 134.9 174.5C135.9 174.8 136.7 175.1 137.5 175.6C138.3 176.1 139.1 176.6 139.8 177.3L137.5 180C136.9 179.5 136.3 179.1 135.7 178.8C135.1 178.5 134.5 178.2 133.8 178C133.2 177.8 132.5 177.7 131.8 177.7C130.7 177.7 129.8 177.9 129 178.3C128.3 178.7 127.9 179.4 127.9 180.3C127.9 181.2 128.1 181.3 128.5 181.7C128.9 182 129.5 182.4 130.2 182.6C130.9 182.9 131.7 183.2 132.6 183.5C133.5 183.8 134.3 184.1 135.2 184.4C136.1 184.7 136.8 185.2 137.6 185.7C138.3 186.2 138.9 186.8 139.3 187.5C139.7 188.2 139.9 189.1 139.9 190.2C139.9 191.3 139.6 192.7 138.9 193.7C138.2 194.7 137.2 195.5 135.9 196.1C134.6 196.7 133 197 131.1 197V196.8ZM130.2 175.3V170H133.2V175.3H130.2ZM130.2 200.6V195H133.2V200.6H130.2ZM311 183.6H314.8V194.2C314.8 194.8 314.8 195.2 315 195.3C315.1 195.4 315.5 195.5 316 195.5H318.8C319.1 195.5 319.4 195.4 319.6 195.1C319.8 194.8 319.9 194.3 320 193.6C320 192.8 320.1 191.7 320.2 190.3C320.5 190.5 320.8 190.7 321.2 190.9C321.6 191.1 322 191.3 322.5 191.5C322.9 191.7 323.3 191.8 323.6 191.9C323.5 193.7 323.3 195.2 323 196.2C322.7 197.2 322.3 197.9 321.7 198.3C321.1 198.7 320.3 198.9 319.3 198.9H315.6C314.5 198.9 313.6 198.7 312.9 198.4C312.3 198.1 311.8 197.6 311.6 196.9C311.4 196.2 311.2 195.3 311.2 194.1V183.5H311V183.6ZM295.5 181.3H322.9V184.8H295.5V181.3ZM298.3 173H320.1V176.5H298.3V173ZM302.5 184.1H306.4C306.3 185.8 306.1 187.4 305.8 188.9C305.5 190.4 305.1 191.8 304.4 193.2C303.8 194.5 302.9 195.7 301.7 196.8C300.5 197.9 299 198.8 297.1 199.6C296.9 199.1 296.6 198.6 296.1 198C295.7 197.4 295.2 197 294.8 196.6C296.5 196 297.8 195.3 298.8 194.4C299.8 193.5 300.5 192.6 301 191.5C301.5 190.4 301.9 189.3 302 188.1C302.2 186.9 302.3 185.6 302.4 184.2H302.5V184.1Z" fill="black"/>
<path d="M166.7 143C169.5 143 172.2 143.5 174.7 144.4C177.3 145.3 179.6 146.8 181.6 148.9C183.6 150.9 185.2 153.6 186.4 157C187.6 160.4 188.2 164.5 188.2 169.4C188.2 174.3 187.7 178.1 186.6 181.7C185.6 185.3 184.1 188.3 182.2 190.9C180.3 193.4 178 195.3 175.3 196.7C172.6 198 169.6 198.7 166.2 198.7C162.8 198.7 159.4 198 156.7 196.6C153.9 195.2 151.7 193.3 150 190.9C148.3 188.5 147.3 185.7 147 182.7H158.3C158.7 184.7 159.7 186.2 161.1 187.3C162.5 188.4 164.2 188.9 166.3 188.9C169.8 188.9 172.5 187.4 174.3 184.3C176.1 181.2 177.1 177 177.1 171.7H176.7C175.9 173.3 174.8 174.6 173.4 175.8C172 176.9 170.5 177.8 168.7 178.4C166.9 179 165.1 179.3 163.1 179.3C159.9 179.3 157.1 178.6 154.6 177.1C152.1 175.6 150.1 173.5 148.7 170.9C147.3 168.3 146.5 165.3 146.5 161.9C146.5 158.5 147.3 155.1 149 152.2C150.7 149.4 153 147.2 156.1 145.6C159.1 144 162.7 143.2 166.7 143.2V143ZM166.8 152C165 152 163.4 152.4 162.1 153.3C160.7 154.1 159.6 155.3 158.8 156.7C158 158.1 157.6 159.7 157.6 161.5C157.6 163.3 158 164.9 158.8 166.3C159.6 167.7 160.7 168.8 162 169.7C163.4 170.5 164.9 170.9 166.7 170.9C168.5 170.9 169.2 170.7 170.4 170.2C171.5 169.7 172.5 169 173.3 168.2C174.1 167.3 174.8 166.3 175.3 165.2C175.8 164.1 176 162.8 176 161.6C176 159.9 175.6 158.3 174.8 156.9C174 155.5 172.9 154.3 171.5 153.5C170.1 152.6 168.5 152.2 166.8 152.2V152ZM215.7 143C218.5 143 221.2 143.5 223.7 144.4C226.3 145.3 228.6 146.8 230.6 148.9C232.6 150.9 234.2 153.6 235.4 157C236.6 160.4 237.2 164.5 237.2 169.4C237.2 174.3 236.7 178.1 235.6 181.7C234.6 185.3 233.1 188.3 231.2 190.9C229.3 193.4 227 195.3 224.3 196.7C221.6 198 218.6 198.7 215.2 198.7C211.8 198.7 208.4 198 205.7 196.6C202.9 195.2 200.7 193.3 199 190.9C197.3 188.5 196.3 185.7 196 182.7H207.3C207.7 184.7 208.7 186.2 210.1 187.3C211.5 188.4 213.2 188.9 215.3 188.9C218.8 188.9 221.5 187.4 223.3 184.3C225.1 181.2 226.1 177 226.1 171.7H225.7C224.9 173.3 223.8 174.6 222.4 175.8C221 176.9 219.5 177.8 217.7 178.4C215.9 179 214.1 179.3 212.1 179.3C208.9 179.3 206.1 178.6 203.6 177.1C201.1 175.6 199.1 173.5 197.7 170.9C196.3 168.3 195.5 165.3 195.5 161.9C195.5 158.5 196.3 155.1 198 152.2C199.7 149.4 202 147.2 205.1 145.6C208.1 144 211.7 143.2 215.7 143.2V143ZM215.8 152C214 152 212.4 152.4 211.1 153.3C209.7 154.1 208.6 155.3 207.8 156.7C207 158.1 206.6 159.7 206.6 161.5C206.6 163.3 207 164.9 207.8 166.3C208.6 167.7 209.7 168.8 211 169.7C212.4 170.5 213.9 170.9 215.7 170.9C217.5 170.9 218.2 170.7 219.4 170.2C220.5 169.7 221.5 169 222.3 168.2C223.1 167.3 223.8 166.3 224.3 165.2C224.8 164.1 225 162.8 225 161.6C225 159.9 224.6 158.3 223.8 156.9C223 155.5 221.9 154.3 220.5 153.5C219.1 152.6 217.5 152.2 215.8 152.2V152ZM264.8 143C267.6 143 270.3 143.5 272.8 144.4C275.4 145.3 277.7 146.8 279.7 148.9C281.7 150.9 283.3 153.6 284.5 157C285.7 160.4 286.3 164.5 286.3 169.4C286.3 174.3 285.8 178.1 284.7 181.7C283.7 185.3 282.2 188.3 280.3 190.9C278.4 193.4 276.1 195.3 273.4 196.7C270.7 198 267.7 198.7 264.3 198.7C260.9 198.7 257.5 198 254.8 196.6C252 195.2 249.8 193.3 248.1 190.9C246.4 188.5 245.4 185.7 245.1 182.7H256.4C256.8 184.7 257.8 186.2 259.2 187.3C260.6 188.4 262.3 188.9 264.4 188.9C267.9 188.9 270.6 187.4 272.4 184.3C274.2 181.2 275.2 177 275.2 171.7H274.8C274 173.3 272.9 174.6 271.5 175.8C270.1 176.9 268.6 177.8 266.8 178.4C265 179 263.2 179.3 261.2 179.3C258 179.3 255.2 178.6 252.7 177.1C250.2 175.6 248.2 173.5 246.8 170.9C245.4 168.3 244.6 165.3 244.6 161.9C244.6 158.5 245.4 155.1 247.1 152.2C248.8 149.4 251.1 147.2 254.2 145.6C257.2 144 260.8 143.2 264.8 143.2V143ZM264.9 152C263.1 152 261.5 152.4 260.2 153.3C258.8 154.1 257.7 155.3 256.9 156.7C256.1 158.1 255.7 159.7 255.7 161.5C255.7 163.3 256.1 164.9 256.9 166.3C257.7 167.7 258.8 168.8 260.1 169.7C261.5 170.5 263 170.9 264.8 170.9C266.6 170.9 267.3 170.7 268.5 170.2C269.6 169.7 270.6 169 271.4 168.2C272.2 167.3 272.9 166.3 273.4 165.2C273.9 164.1 274.1 162.8 274.1 161.6C274.1 159.9 273.7 158.3 272.9 156.9C272.1 155.5 271 154.3 269.6 153.5C268.2 152.6 266.6 152.2 264.9 152.2V152Z" fill="#39BF63"/>
<path d="M32.3 252.8C31.6 252.8 31.1 252.6 30.5 252.3C30 252 29.5 251.5 29.2 251C28.9 250.5 28.7 249.9 28.7 249.2C28.7 248.5 28.9 247.9 29.2 247.4C29.5 246.9 30 246.4 30.5 246.1C31 245.8 31.6 245.6 32.3 245.6C33 245.6 33.6 245.8 34.1 246.1C34.6 246.4 35.1 246.8 35.4 247.4C35.7 247.9 35.9 248.5 35.9 249.2C35.9 249.9 35.7 250.4 35.4 251C35.1 251.5 34.7 252 34.1 252.3C33.6 252.6 33 252.8 32.3 252.8ZM51.1 251.3H59.9V252.8H51.1V251.3ZM52.3 249.3H60.3V250.6H52.3V249.3ZM52.3 247.3H60.2V248.5H52.3V247.3ZM55.1 246.1H57.1V252.2H55.1V246.1ZM59.5 251.3H61.6V252.1C61.6 253.1 61.6 253.8 61.4 254.5C61.4 255.1 61.4 255.6 61.2 255.9C61.2 256.2 61 256.5 60.9 256.7C60.7 256.9 60.6 257 60.4 257.1C60.2 257.1 60 257.3 59.7 257.3H57.7C57.7 257 57.7 256.8 57.5 256.4C57.5 256.1 57.3 255.8 57.2 255.6H58.5C58.7 255.6 58.9 255.6 59 255.4C59 255.3 59.2 254.9 59.2 254.4C59.2 253.9 59.2 252.9 59.4 251.5V251.2H59.5V251.3ZM50.7 253.2L52.3 253.6C52.3 254.3 52 254.9 51.8 255.6C51.6 256.2 51.3 256.7 50.8 257.1L49.4 256.1C49.8 255.8 50.1 255.3 50.3 254.8C50.5 254.3 50.7 253.7 50.8 253.1L50.7 253.2ZM56.9 253.3L58 253C58.2 253.3 58.4 253.6 58.5 254C58.7 254.4 58.8 254.7 58.8 255L57.6 255.4C57.6 255.1 57.4 254.8 57.3 254.4C57.2 254 57 253.7 56.8 253.4H56.9V253.3ZM52.8 253.7L54.1 253.5C54.1 254 54.3 254.5 54.3 255.1V256.5L52.8 256.7V255.2C52.8 254.6 52.8 254.1 52.8 253.6V253.7ZM55 253.6L56.2 253.3C56.4 253.7 56.5 254.2 56.6 254.7C56.6 255.2 56.8 255.6 56.8 255.9L55.5 256.3C55.5 255.9 55.5 255.5 55.3 255C55.1 254.5 55.1 254 54.9 253.6H55ZM51.1 245.2H60.9V246.7H53.2V252.2H51.1V245.2ZM47.8 239.9H53.5V241.4H47.8V239.9ZM58.2 239.9H64V241.4H58.2V239.9ZM63.1 237.2H65.7V255.1C65.7 255.7 65.7 256.2 65.5 256.5C65.5 256.9 65.1 257.2 64.8 257.4C64.5 257.6 64 257.7 63.5 257.8H61.7C61.7 257.5 61.7 257.1 61.5 256.6C61.5 256.1 61.2 255.7 61 255.4H62.8C62.8 255.4 63 255.4 63.1 255.3V237.1V237.2ZM48 237.2H55.2V244.1H48V242.4H52.7V238.9H48V237.2ZM64.5 237.2V238.9H59.4V242.4H64.5V244.1H56.8V237.2H64.5ZM46.4 237.2H48.9V257.8H46.4V237.2ZM77.5 248.6L78.8 248.2C79.1 248.6 79.3 249 79.5 249.5C79.7 250 79.9 250.4 80 250.7L78.6 251.2C78.6 250.8 78.4 250.4 78.2 250C78 249.5 77.8 249.1 77.5 248.7V248.6ZM73.7 246.8L74.6 245.8C75 246.1 75.4 246.4 75.9 246.8C76.3 247.2 76.7 247.5 76.9 247.8L76 249C75.8 248.7 75.5 248.3 75 247.9C74.6 247.5 74.2 247.1 73.8 246.8H73.7ZM76.2 244.3L77.8 244.9C77.5 245.3 77.2 245.7 76.9 246.1C76.6 246.5 76.3 246.8 76 247.1L74.8 246.6C75 246.3 75.3 245.9 75.6 245.5C75.9 245.1 76.1 244.7 76.3 244.4L76.2 244.3ZM77.7 246L79.1 246.6C78.7 247 78.3 247.4 77.9 247.9C77.5 248.3 77.1 248.8 76.7 249.2C76.3 249.6 75.9 249.9 75.5 250.2L74.5 249.7C74.9 249.4 75.2 249 75.6 248.6C76 248.2 76.4 247.7 76.8 247.3C77.2 246.8 77.5 246.4 77.8 246.1H77.7V246ZM80.1 251H82V257.4H80.1V251ZM73.5 249.5C74.2 249.5 75 249.5 76 249.4C76.9 249.4 77.9 249.3 78.9 249.2V250.6C78 250.6 77.1 250.8 76.2 250.8C75.3 250.8 74.5 250.9 73.7 251L73.5 249.5ZM83.2 248.4L84.6 248C84.9 248.4 85.1 248.9 85.4 249.4C85.6 249.9 85.8 250.3 85.9 250.7L84.5 251.2C84.5 250.8 84.3 250.4 84 249.9C83.8 249.4 83.5 248.9 83.2 248.4ZM79.1 246.7L80.1 245.7C80.6 246 81 246.4 81.5 246.8C82 247.2 82.3 247.6 82.5 248L81.5 249.1C81.3 248.7 80.9 248.3 80.5 247.9C80 247.4 79.6 247.1 79.1 246.7ZM81.7 244.3L83.4 244.9C83.1 245.3 82.7 245.8 82.4 246.2C82.1 246.6 81.7 247 81.4 247.3L80.2 246.8C80.5 246.5 80.8 246.1 81.1 245.6C81.4 245.1 81.6 244.7 81.8 244.4L81.7 244.3ZM83.3 246L84.7 246.7C84.3 247.1 83.9 247.6 83.5 248C83.1 248.5 82.6 248.9 82.2 249.3C81.8 249.7 81.3 250.1 80.9 250.4L79.9 249.8C80.3 249.5 80.7 249.1 81.1 248.7C81.5 248.3 82 247.8 82.3 247.4C82.7 246.9 83 246.5 83.3 246.1V246ZM79.5 249.5C80.2 249.5 81 249.5 81.9 249.4C82.8 249.4 83.8 249.3 84.8 249.2V250.6C83.9 250.6 83.1 250.8 82.2 250.8C81.3 250.8 80.6 250.9 79.9 251L79.6 249.5H79.5ZM74.2 251.4H75.9V253.4H78.4V254.9H74.3V251.4H74.2ZM83.4 251.4H85.1V254.9H81.6V253.4H83.4V251.4ZM77.2 251H79V253.2C79 253.8 79 254.4 78.8 254.9C78.6 255.5 78.3 256 77.9 256.4C77.4 256.9 76.7 257.3 75.7 257.6C75.7 257.4 75.4 257.1 75.2 256.8C75 256.5 74.7 256.3 74.6 256.1C75.4 255.9 76 255.6 76.3 255.3C76.7 255 76.9 254.6 77 254.2C77.1 253.8 77.2 253.4 77.2 253V250.8V251ZM71.4 240.3H77.1V242H71.4V240.3ZM81.9 240.3H87.7V242H81.9V240.3ZM86.7 237.4H89.3V254.7C89.3 255.4 89.3 255.9 89.1 256.3C89.1 256.7 88.7 257 88.3 257.3C87.9 257.5 87.5 257.7 86.9 257.7H84.9C84.9 257.4 84.9 257.2 84.7 256.8C84.7 256.5 84.5 256.2 84.4 255.8C84.4 255.5 84.2 255.2 84.1 255H86.4V237.4H86.7ZM71.7 237.4H78.9V244.8H71.7V243H76.4V239.2H71.7V237.4ZM88.1 237.4V239.2H83V243H88.1V244.8H80.4V237.4H88.1ZM70.1 237.4H72.7V257.9H70.1V237.4ZM93 244.5H113.7V247.2H93V244.5ZM103.1 239.3H111.2V241.9H103.1V239.3ZM101.3 236.5H104.2V245.8H101.3V236.5ZM101.3 246.3H104.2V257.9H101.3V246.3ZM103.4 250.6L104.8 248.4C105.4 248.6 106 248.8 106.7 249C107.4 249.2 108.1 249.4 108.8 249.7C109.5 249.9 110.2 250.2 110.8 250.4C111.4 250.6 111.9 250.9 112.4 251.1L110.9 253.6C110.5 253.4 110 253.1 109.4 252.9C108.8 252.6 108.2 252.4 107.5 252.1C106.8 251.8 106.1 251.6 105.4 251.3C104.7 251 104.1 250.8 103.5 250.6H103.4ZM116.4 245.5H137.4V248.5H116.4V245.5ZM151 240.7H159.2V242.6H151V240.7ZM151 243.7H159.2V245.6H151V243.7ZM148.1 246.8H161.2V249.2H148.1V246.8ZM149.8 237.3H160.1V239.6H152.4V248.1H149.8V237.2V237.3ZM148 254.9C149 254.8 150.1 254.7 151.4 254.5C152.7 254.3 154.1 254.2 155.4 254V256.4C154.3 256.6 153 256.8 151.8 257C150.6 257.2 149.4 257.3 148.4 257.5L148 255V254.9ZM155.6 248.1C155.9 249.2 156.3 250.3 156.8 251.3C157.3 252.3 158 253.1 158.8 253.8C159.6 254.5 160.5 255.1 161.6 255.5C161.4 255.7 161.2 255.9 161 256.2C160.8 256.5 160.6 256.8 160.3 257.1C160.1 257.4 159.9 257.7 159.8 257.9C158.6 257.4 157.6 256.7 156.8 255.7C156 254.8 155.3 253.7 154.8 252.5C154.3 251.3 153.8 249.9 153.5 248.5L155.7 248.1H155.6ZM159 249.3L161.2 250.5C160.6 251 159.9 251.6 159.3 252.1C158.6 252.6 158 253.1 157.5 253.4L155.8 252.4C156.1 252.1 156.5 251.8 156.9 251.5C157.3 251.1 157.7 250.8 158 250.4C158.4 250 158.7 249.7 158.9 249.3H159ZM149.8 247.5H152.4V255.3L149.8 255.7V247.5ZM141.3 247.6H146.7V250H141.3V247.6ZM145.5 247.6H148.2V248.6C148.1 250.4 148 251.8 147.9 252.9C147.8 254 147.7 254.9 147.5 255.5C147.3 256.1 147.1 256.6 146.9 256.8C146.6 257.1 146.4 257.3 146.1 257.4C145.8 257.5 145.5 257.6 145.1 257.7H142.3C142.3 257.3 142.3 256.9 142.1 256.4C142 255.9 141.8 255.5 141.6 255.2H144.2C144.3 255.2 144.5 255.1 144.6 255C144.8 254.8 144.9 254.5 145 254C145.1 253.5 145.2 252.7 145.3 251.7C145.4 250.7 145.5 249.4 145.6 247.8V247.4V247.6H145.5ZM141.1 242.8H143.6C143.6 243.7 143.4 244.6 143.3 245.5C143.2 246.5 143.1 247.4 143 248.3C142.9 249.2 142.8 250 142.7 250.6L140.2 250.3C140.3 249.6 140.5 248.9 140.6 248C140.7 247.1 140.9 246.2 141 245.3C141.1 244.4 141.2 243.5 141.3 242.7H141.1V242.8ZM141.2 242.8H145.3V240.1H140.4V237.6H147.8V245.3H141.2V242.8ZM32.3 286.8C31.6 286.8 31.1 286.6 30.5 286.3C30 286 29.5 285.5 29.2 285C28.9 284.5 28.7 283.9 28.7 283.2C28.7 282.5 28.9 281.9 29.2 281.4C29.5 280.9 30 280.4 30.5 280.1C31 279.8 31.6 279.6 32.3 279.6C33 279.6 33.6 279.8 34.1 280.1C34.6 280.4 35.1 280.8 35.4 281.4C35.7 281.9 35.9 282.5 35.9 283.2C35.9 283.9 35.7 284.4 35.4 285C35.1 285.5 34.7 286 34.1 286.3C33.6 286.6 33 286.8 32.3 286.8ZM57.1 283.4H59.9V288.4C59.9 288.8 59.9 289 60.1 289.1C60.1 289.1 60.5 289.2 60.9 289.2H63.2C63.5 289.2 63.6 289.2 63.8 289C64 288.8 64 288.6 64.1 288.2C64.1 287.8 64.1 287.1 64.1 286.3C64.3 286.4 64.5 286.6 64.8 286.7C65.1 286.8 65.4 287 65.7 287.1C66 287.2 66.3 287.3 66.5 287.3C66.5 288.5 66.3 289.3 66 290C65.8 290.6 65.4 291.1 65 291.3C64.6 291.5 64 291.7 63.3 291.7H60.3C59.4 291.7 58.7 291.6 58.2 291.4C57.7 291.2 57.4 290.9 57.2 290.4C57 289.9 56.9 289.3 56.9 288.4V283.4H57.1ZM51.8 284.3H54.7C54.7 285.2 54.4 286.1 54.1 286.9C53.8 287.7 53.4 288.4 52.8 289.1C52.2 289.7 51.4 290.3 50.5 290.8C49.5 291.3 48.3 291.7 46.7 292.1C46.7 291.9 46.5 291.6 46.3 291.3C46.1 291 46 290.7 45.8 290.4C45.6 290.1 45.4 289.9 45.2 289.7C46.5 289.5 47.6 289.2 48.4 288.9C49.2 288.6 49.9 288.2 50.3 287.7C50.8 287.3 51.1 286.8 51.3 286.2C51.5 285.6 51.7 285 51.8 284.4V284.3ZM51.5 279.1V282.1H60.7V279.1H51.5ZM48.8 276.7H63.4V284.6H48.8V276.7ZM53.8 271.1H59.9V273.6H53.8V271.1ZM50.7 272L53.4 272.9C52.9 273.8 52.4 274.6 51.7 275.4C51 276.2 50.4 277 49.6 277.6C48.9 278.3 48.1 278.9 47.4 279.4C47.4 279.2 47.1 279 46.8 278.7C46.5 278.4 46.3 278.2 46 277.9C45.7 277.6 45.5 277.4 45.3 277.3C46.4 276.7 47.4 275.9 48.4 275C49.4 274 50.1 273 50.7 272ZM57.8 271.1H60.7C61.1 271.9 61.6 272.7 62.3 273.5C62.9 274.3 63.6 275 64.4 275.6C65.2 276.3 66 276.8 66.9 277.2C66.7 277.4 66.4 277.6 66.2 277.8C65.9 278.1 65.7 278.3 65.4 278.6C65.2 278.9 65 279.1 64.8 279.3C63.9 278.7 63.1 278.1 62.3 277.3C61.5 276.6 60.8 275.8 60.1 274.9C59.4 274.1 58.9 273.2 58.4 272.4H57.8V271V271.1ZM79.6 270.5L82.1 270.9C81.6 272.1 81 273.3 80.2 274.4C79.4 275.5 78.4 276.6 77.2 277.5C77 277.2 76.7 276.9 76.4 276.6C76.1 276.3 75.7 276 75.4 275.9C76.1 275.4 76.8 274.9 77.3 274.3C77.8 273.7 78.3 273.1 78.7 272.5C79.1 271.8 79.4 271.2 79.6 270.6V270.5ZM80.2 272.2H84.7V274.3H79L80.3 272.2H80.2ZM80.6 277.5H82.5C82.5 278.2 82.5 278.9 82.2 279.5C82 280.1 81.8 280.6 81.4 281.1C81 281.5 80.5 281.9 79.8 282.2C79.8 282 79.5 281.7 79.3 281.4C79.1 281.1 78.9 280.9 78.7 280.7C79.4 280.4 79.9 280 80.1 279.4C80.3 278.9 80.5 278.2 80.5 277.4L80.6 277.5ZM83.4 277.6H85.4V279.8H86.9C86.9 279.8 86.9 279.7 86.9 279.6C87.1 279.7 87.3 279.8 87.7 280C88 280.1 88.3 280.2 88.6 280.3C88.6 280.8 88.3 281.1 88 281.3C87.7 281.5 87.3 281.6 86.8 281.6H85.3C84.7 281.6 84.3 281.6 84 281.4C83.7 281.3 83.5 281 83.4 280.7C83.4 280.4 83.2 279.9 83.2 279.4V277.6H83.4ZM75.9 284.2H90V286.4H75.9V284.2ZM84.3 284.9C84.7 286.2 85.4 287.2 86.3 288C87.3 288.8 88.6 289.3 90.3 289.5C90 289.8 89.7 290.1 89.4 290.6C89.1 291.1 88.9 291.5 88.7 291.8C87.4 291.5 86.2 291.1 85.3 290.5C84.4 289.9 83.7 289.2 83.1 288.3C82.5 287.4 82.1 286.3 81.8 285.1L84.1 284.8H84.3V284.9ZM79.2 275.9H87.6V278H79.2V283.4H77V275.9H79.2ZM87 275.9H89.3V283.4H87V275.9ZM83.8 272.2H84.8C84.8 272.1 86.5 273.2 86.5 273.2C86.3 273.7 86 274.1 85.7 274.7C85.4 275.2 85.1 275.7 84.8 276.2C84.5 276.7 84.2 277.1 83.9 277.5C83.7 277.3 83.4 277.1 83 276.9C82.6 276.7 82.3 276.5 82 276.4C82.2 276.1 82.5 275.7 82.7 275.2C82.9 274.8 83.2 274.3 83.3 273.9C83.5 273.4 83.6 273.1 83.8 272.7V272.2ZM81.7 282.3H84.2C84.2 283.6 84 284.7 83.7 285.8C83.5 286.8 83.1 287.7 82.5 288.5C82 289.3 81.2 290 80.2 290.5C79.2 291.1 77.9 291.6 76.2 291.9C76.2 291.6 75.9 291.2 75.6 290.8C75.3 290.4 75.1 290.1 74.9 289.8C76.4 289.5 77.5 289.2 78.4 288.8C79.3 288.4 79.9 287.8 80.4 287.2C80.9 286.6 81.2 285.9 81.3 285.1C81.5 284.3 81.6 283.4 81.7 282.3ZM68.8 282C69.7 281.8 70.8 281.5 72 281.2C73.3 280.9 74.6 280.5 75.8 280.2L76.1 282.7C74.9 283 73.8 283.4 72.6 283.7C71.4 284 70.3 284.4 69.3 284.7L68.7 282.1L68.8 282ZM69.1 274.9H76.1V277.4H69.1V274.9ZM71.5 270.6H74V289.1C74 289.7 74 290.2 73.8 290.6C73.8 291 73.4 291.3 73.1 291.5C72.8 291.7 72.3 291.9 71.8 291.9C71.3 291.9 70.7 292 69.9 291.9C69.9 291.6 69.9 291.2 69.7 290.7C69.5 290.2 69.4 289.8 69.2 289.4H71.4V270.6H71.5ZM92.4 282.2C93.4 282 94.6 281.7 96 281.4C97.4 281.1 98.8 280.7 100.2 280.3L100.5 282.8C99.2 283.2 97.9 283.5 96.6 283.9C95.3 284.3 94.1 284.6 93 284.9L92.3 282.3L92.4 282.2ZM92.7 274.9H100.2V277.4H92.7V274.9ZM95.5 270.6H98.1V289.1C98.1 289.8 98.1 290.3 97.9 290.6C97.9 291 97.5 291.2 97.1 291.4C96.7 291.6 96.3 291.7 95.7 291.8C95.1 291.8 94.5 291.9 93.7 291.9C93.7 291.6 93.7 291.1 93.4 290.7C93.4 290.2 93.1 289.8 92.9 289.5H95.3C95.3 289.5 95.3 289.3 95.3 289.2V270.7L95.5 270.6ZM100.8 275.7H113.5V291.8H110.8V278.3H103.4V291.9H100.8V275.7ZM102.4 281.5H111.5V284H102.4V281.5ZM102.5 287.6H111.6V290.2H102.5V287.6ZM105.7 270.6H108.3V289.2H105.7V270.6ZM116.6 285H137.3V287.2H116.6V285ZM128.5 285.8C128.9 286.7 129.6 287.4 130.4 287.9C131.2 288.4 132.2 288.8 133.5 289C134.8 289.2 136.3 289.4 138 289.4C137.8 289.6 137.6 289.8 137.4 290.1C137.2 290.4 137 290.7 136.9 291C136.7 291.3 136.6 291.6 136.5 291.9C135 291.9 133.7 291.6 132.6 291.4C131.5 291.2 130.5 290.8 129.7 290.4C128.9 290 128.1 289.4 127.5 288.7C126.9 288 126.4 287.2 125.9 286.3L128.6 285.9H128.5V285.8ZM129.7 284.3L130.8 282.8C131.3 282.9 131.8 283 132.4 283.2C133 283.4 133.5 283.5 134.1 283.7C134.6 283.9 135.1 284.1 135.5 284.2L134.3 285.9C134 285.7 133.5 285.6 133 285.4C132.5 285.2 131.9 285 131.3 284.8C130.7 284.6 130.2 284.4 129.7 284.3ZM124.5 277.6H137.7V279.5H124.5V277.6ZM132 276.2H134.6V280.9C134.6 281.5 134.6 281.9 134.4 282.2C134.3 282.5 134 282.7 133.6 282.8C133.2 283 132.7 283 132.2 283.1H130.3C130.3 282.8 130.1 282.4 130 282.1C129.9 281.7 129.7 281.4 129.6 281.1H132V276.3V276.2ZM116.3 277.3H122.7V279.4H116.3V277.3ZM121.3 270.5H123.8V283.6H121.3V270.5ZM117.4 271.2H119.7V274.1H122.8V276.2H117.4V271.3V271.2ZM125.9 280.2L127.7 279.2C128.1 279.5 128.5 279.9 128.9 280.3C129.3 280.7 129.6 281.1 129.8 281.5L127.9 282.6C127.7 282.3 127.4 281.9 127 281.4C126.6 280.9 126.2 280.5 125.8 280.2H125.9ZM125.3 273.9L126.8 273.4C127.3 273.7 127.8 274 128.3 274.4C128.8 274.8 129.2 275.2 129.5 275.5L128 276.1C127.8 275.8 127.4 275.4 126.9 275C126.4 274.6 125.9 274.2 125.5 273.9H125.3ZM127.6 273.1L128.9 272.4C129.3 272.6 129.7 272.8 130.1 273.1C130.5 273.3 130.9 273.6 131.3 273.9C131.7 274.2 132 274.4 132.2 274.6L130.8 275.3C130.6 275.1 130.3 274.8 130 274.6C129.7 274.3 129.3 274.1 128.9 273.8C128.5 273.5 128.1 273.3 127.7 273.1H127.6ZM134.4 271.7H135.3L136.7 272.3C136.2 273.2 135.6 273.9 134.8 274.5C134 275.1 133.2 275.7 132.2 276.1C131.2 276.5 130.2 276.9 129.1 277.1C128 277.4 126.8 277.6 125.6 277.7C125.6 277.4 125.4 277.1 125.1 276.8C124.9 276.5 124.7 276.2 124.5 276C125.6 276 126.6 275.8 127.6 275.6C128.6 275.4 129.6 275.1 130.4 274.8C131.3 274.5 132.1 274.1 132.7 273.6C133.4 273.1 133.9 272.6 134.3 271.9V271.6H134.4V271.7ZM130.5 270.5L132.7 271C131.8 271.8 130.7 272.6 129.5 273.2C128.3 273.8 126.8 274.3 125.1 274.8C125.1 274.6 124.8 274.3 124.5 274C124.2 273.7 124 273.4 123.8 273.3C125.4 273 126.7 272.6 127.8 272.1C128.9 271.6 129.8 271.1 130.5 270.6V270.5ZM129.9 271.7H135.1V273.2H127.9L129.9 271.7ZM117.6 278.4H120V279.6C120 279.9 120 280.4 119.8 281C119.8 281.6 119.5 282.1 119.3 282.7C119 283.3 118.7 283.8 118.1 284.2C117.9 284.1 117.7 283.9 117.5 283.8C117.3 283.6 117 283.5 116.8 283.4C116.5 283.3 116.3 283.2 116.1 283.1C116.5 282.8 116.9 282.4 117.1 281.9C117.3 281.4 117.4 281 117.5 280.6C117.5 280.2 117.5 279.8 117.5 279.6V278.5L117.6 278.4ZM125.4 282.9H128.1V285C128.1 285.5 128.1 286.1 127.9 286.7C127.7 287.3 127.5 287.8 127 288.4C126.6 288.9 126 289.4 125.2 289.9C124.4 290.4 123.4 290.8 122.2 291.1C121 291.5 119.4 291.8 117.6 292C117.4 291.7 117.2 291.3 116.9 290.8C116.6 290.4 116.3 290 116.1 289.7C117.7 289.5 119.1 289.3 120.2 289C121.3 288.7 122.2 288.4 122.9 288.1C123.6 287.8 124.1 287.4 124.5 287.1C124.9 286.7 125.1 286.4 125.3 286C125.3 285.6 125.5 285.3 125.5 284.9V282.9H125.4ZM140.1 279.5H161.1V282.5H140.1V279.5ZM174.6 274.8H182.8V276.7H174.6V274.8ZM174.6 277.8H182.8V279.7H174.6V277.8ZM171.8 280.9H184.9V283.3H171.8V280.9ZM173.4 271.3H183.7V273.6H176V282.1H173.4V271.2V271.3ZM171.7 289C172.7 288.9 173.8 288.8 175.1 288.6C176.4 288.4 177.8 288.3 179.1 288.1V290.5C178 290.7 176.7 290.9 175.5 291.1C174.3 291.3 173.1 291.4 172.1 291.6L171.7 289.1V289ZM179.2 282.2C179.5 283.3 179.9 284.4 180.4 285.4C180.9 286.4 181.6 287.2 182.4 287.9C183.2 288.6 184.1 289.2 185.2 289.6C185 289.8 184.8 290 184.6 290.3C184.4 290.6 184.2 290.9 183.9 291.2C183.7 291.5 183.5 291.8 183.4 292C182.2 291.5 181.2 290.8 180.4 289.8C179.6 288.9 178.9 287.8 178.4 286.6C177.9 285.4 177.4 284 177.1 282.6L179.3 282.2H179.2ZM182.6 283.4L184.8 284.6C184.2 285.1 183.5 285.7 182.9 286.2C182.2 286.7 181.6 287.2 181.1 287.5L179.4 286.5C179.7 286.2 180.1 285.9 180.5 285.6C180.9 285.2 181.3 284.9 181.6 284.5C182 284.1 182.3 283.8 182.5 283.4H182.6ZM173.5 281.6H176.1V289.4L173.5 289.8V281.6ZM164.9 281.6H170.3V284H164.9V281.6ZM169.1 281.6H171.8V282.6C171.7 284.4 171.6 285.8 171.5 286.9C171.4 288 171.3 288.9 171.1 289.5C170.9 290.1 170.7 290.6 170.5 290.8C170.2 291.1 170 291.3 169.7 291.4C169.4 291.5 169.1 291.6 168.7 291.7H165.9C165.9 291.3 165.9 290.9 165.7 290.4C165.6 289.9 165.4 289.5 165.2 289.2H167.8C167.9 289.2 168.1 289.1 168.2 289C168.4 288.8 168.5 288.5 168.6 288C168.7 287.5 168.8 286.7 168.9 285.7C169 284.7 169.1 283.4 169.2 281.8V281.4V281.6H169.1ZM164.7 276.9H167.2C167.2 277.8 167 278.7 166.9 279.6C166.8 280.6 166.7 281.5 166.6 282.4C166.5 283.3 166.4 284.1 166.3 284.7L163.8 284.4C163.9 283.7 164.1 283 164.2 282.1C164.3 281.2 164.5 280.3 164.6 279.4C164.7 278.5 164.8 277.6 164.9 276.8H164.7V276.9ZM164.9 276.9H169V274.2H164.1V271.7H171.5V279.4H164.9V276.9ZM32.3 320.9C31.6 320.9 31.1 320.7 30.5 320.4C30 320.1 29.5 319.6 29.2 319.1C28.9 318.6 28.7 318 28.7 317.3C28.7 316.6 28.9 316 29.2 315.5C29.5 315 30 314.5 30.5 314.2C31 313.9 31.6 313.7 32.3 313.7C33 313.7 33.6 313.9 34.1 314.2C34.6 314.5 35.1 314.9 35.4 315.5C35.7 316 35.9 316.6 35.9 317.3C35.9 318 35.7 318.5 35.4 319.1C35.1 319.6 34.7 320.1 34.1 320.4C33.6 320.7 33 320.9 32.3 320.9ZM53.6 316.8H65.5V325.9H62.9V319.3H56.1V326H53.6V316.8ZM63.7 304.7L65.8 306.8C64.7 307.2 63.5 307.6 62.1 307.9C60.8 308.2 59.4 308.5 57.9 308.6C56.5 308.8 55.1 309 53.8 309.1C53.8 308.8 53.6 308.4 53.5 307.9C53.3 307.4 53.2 307 53 306.7C54 306.6 54.9 306.5 55.9 306.3C56.9 306.2 57.9 306 58.8 305.8C59.7 305.6 60.6 305.4 61.4 305.2C62.2 305 62.9 304.7 63.6 304.5V304.7H63.7ZM58.2 307.2H60.8V318.2H58.2V307.2ZM52.2 311.3H66.7V313.9H52.2V311.3ZM55.4 322.6H64V325.1H55.4V322.6ZM46.5 306.9L48 304.9C48.4 305.1 48.9 305.4 49.4 305.6C49.9 305.9 50.4 306.1 50.9 306.4C51.4 306.7 51.8 306.9 52.1 307.1L50.5 309.3C50.2 309.1 49.8 308.8 49.3 308.5C48.8 308.2 48.3 307.9 47.8 307.6C47.3 307.3 46.8 307 46.3 306.8H46.5V306.9ZM45.5 313.2L47 311.2C47.4 311.4 47.9 311.6 48.5 311.9C49.1 312.2 49.6 312.4 50.1 312.7C50.6 313 51 313.2 51.3 313.4L49.8 315.7C49.5 315.5 49.1 315.2 48.6 314.9C48.1 314.6 47.6 314.3 47.1 314C46.6 313.7 46.1 313.4 45.6 313.2H45.5ZM45.8 323.9C46.2 323.3 46.7 322.7 47.1 321.9C47.6 321.1 48.1 320.3 48.6 319.4C49.1 318.5 49.6 317.6 50.1 316.7L52.1 318.5C51.7 319.3 51.3 320.1 50.8 320.9C50.4 321.7 49.9 322.6 49.4 323.4C48.9 324.2 48.5 325 48 325.7L45.7 323.9H45.8ZM69.6 319.4H80.2V321.3H69.6V319.4ZM69.1 308.5H80.5V310.5H69.1V308.5ZM73.6 306.9H76.1V323.2H73.6V306.9ZM69 323C70 323 71 322.9 72.3 322.8C73.6 322.7 74.8 322.6 76.2 322.5C77.6 322.4 78.9 322.3 80.3 322.1V324.2C79 324.3 77.7 324.5 76.4 324.6C75.1 324.7 73.8 324.9 72.6 325C71.4 325.1 70.3 325.2 69.3 325.3L69 323ZM71.9 315.7V316.7H77.9V315.7H71.9ZM71.9 313.1V314.1H77.9V313.1H71.9ZM69.7 311.4H80.1V318.5H69.7V311.4ZM79 304.8L80.2 306.8C79.2 307 78.2 307.2 77 307.3C75.8 307.4 74.6 307.5 73.4 307.6C72.2 307.6 71 307.7 69.8 307.8C69.8 307.5 69.8 307.2 69.6 306.8C69.4 306.4 69.4 306.1 69.2 305.8C70 305.8 70.9 305.8 71.8 305.6C72.7 305.6 73.6 305.4 74.4 305.4C75.2 305.4 76.1 305.2 76.9 305.1C77.7 305 78.4 304.9 79 304.7V304.8ZM80.5 309.8H88.4V312.3H80.5V309.8ZM87.2 309.8H89.8V311C89.8 313.3 89.8 315.3 89.6 317C89.6 318.6 89.6 320 89.4 321C89.4 322 89.2 322.9 89.1 323.5C89.1 324.1 88.8 324.5 88.6 324.8C88.3 325.2 88.1 325.4 87.8 325.6C87.5 325.8 87.2 325.9 86.8 326H83.9C83.9 325.6 83.9 325.2 83.7 324.7C83.7 324.2 83.4 323.8 83.2 323.4H85.9C85.9 323.4 86.1 323.2 86.2 323.1C86.2 322.9 86.4 322.6 86.5 322.1C86.5 321.6 86.7 320.8 86.7 319.9C86.7 319 86.7 317.7 86.9 316.1C86.9 314.6 86.9 312.7 86.9 310.5V309.9H87.1L87.2 309.8ZM82.6 305H85.2V310.5C85.2 312.2 85.2 313.9 84.9 315.4C84.7 316.9 84.5 318.4 84.1 319.7C83.7 321 83.2 322.2 82.6 323.3C81.9 324.4 81.1 325.3 80 326.1C80 325.9 79.7 325.6 79.5 325.4C79.3 325.1 79.1 324.9 78.8 324.7C78.6 324.5 78.3 324.3 78.1 324.1C79.1 323.4 79.8 322.5 80.4 321.6C81 320.6 81.4 319.6 81.8 318.4C82.1 317.2 82.3 316 82.5 314.6C82.5 313.2 82.7 311.7 82.7 310.1V305H82.6ZM106 316.9H108.4V324.4H106V316.9ZM104.8 310.9V312.5H109.9V310.9H104.8ZM102.4 308.9H112.4V314.6H102.4V308.9ZM101.2 315.6H113.4V325.9H110.8V317.7H103.8V325.9H101.3V315.5L101.2 315.6ZM102.7 319.3H112.2V321.3H102.7V319.3ZM102.7 322.9H112.2V325.1H102.7V322.9ZM101.1 305.6H113.4V307.9H101.1V305.6ZM93 308.9H99.8V311.4H93V308.9ZM95.8 304.7H98.5V310H95.8V304.7ZM98.7 314.2C98.9 314.3 99.1 314.5 99.4 314.7C99.7 314.9 100 315.2 100.3 315.5C100.6 315.8 100.9 316 101.2 316.3C101.5 316.5 101.7 316.7 101.8 316.8L100.2 319C100 318.8 99.8 318.5 99.5 318.2C99.2 317.9 99 317.6 98.7 317.2C98.4 316.9 98.1 316.6 97.9 316.3C97.6 316 97.4 315.7 97.2 315.6L98.7 314.3V314.2ZM98.9 308.9H99.9C99.9 308.8 101.4 309.8 101.4 309.8C100.9 311.3 100.2 312.7 99.4 314C98.6 315.3 97.7 316.5 96.7 317.6C95.7 318.7 94.7 319.6 93.6 320.3C93.6 320.1 93.4 319.8 93.3 319.4C93.1 319.1 93 318.7 92.8 318.4C92.6 318.1 92.5 317.8 92.3 317.7C93.3 317.1 94.2 316.4 95 315.5C95.9 314.6 96.7 313.6 97.3 312.6C98 311.5 98.5 310.4 98.9 309.3V308.8V308.9ZM95.8 316.7L98.5 313.5V326.1H95.8V316.7ZM125.5 313.9H128.2V317.2H125.5V313.9ZM125.4 316.9L127.6 317.9C127 318.5 126.4 319 125.6 319.5C124.9 320 124.1 320.4 123.2 320.8C122.3 321.2 121.4 321.5 120.5 321.8C119.6 322.1 118.6 322.3 117.6 322.5C117.4 322.2 117.2 321.9 116.9 321.5C116.6 321.1 116.3 320.8 116.1 320.5C117 320.4 117.9 320.2 118.8 320C119.7 319.8 120.6 319.5 121.4 319.2C122.2 318.9 123 318.6 123.6 318.2C124.3 317.8 124.9 317.4 125.3 317H125.4V316.9ZM129.1 317C129.7 318.8 130.7 320.2 132.1 321.3C133.5 322.4 135.3 323.2 137.6 323.6C137.4 323.8 137.2 324 137 324.3C136.8 324.6 136.6 324.9 136.4 325.2C136.2 325.5 136.1 325.8 135.9 326C134.2 325.6 132.8 325.1 131.6 324.3C130.4 323.6 129.4 322.6 128.6 321.5C127.8 320.4 127.1 319 126.6 317.5L129.1 317ZM134.5 318.4L136.6 320C136.1 320.3 135.6 320.6 135.1 320.9C134.6 321.2 134 321.4 133.5 321.7C133 321.9 132.5 322.1 132 322.3L130.2 320.8C130.6 320.6 131.1 320.4 131.6 320.1C132.1 319.8 132.6 319.5 133.1 319.2C133.6 318.9 134 318.6 134.4 318.4H134.5ZM118.9 323.6C119.8 323.6 120.8 323.4 121.9 323.3C123 323.2 124.2 323.1 125.5 322.9C126.8 322.7 128 322.6 129.3 322.5V324.7C128.2 324.9 127 325 125.8 325.1C124.6 325.3 123.4 325.4 122.3 325.5C121.2 325.6 120.2 325.8 119.3 325.9L118.9 323.6ZM116.7 316.1H137.2V318.4H116.7V316.1ZM123.3 308.5L137 307.2L137.3 309.4L123.6 310.7L123.3 308.4V308.5ZM131.2 306.3L132.4 304.7C132.8 304.7 133.3 304.9 133.7 305.1C134.2 305.2 134.6 305.4 135.1 305.6C135.6 305.8 135.9 305.9 136.2 306L135 307.7C134.7 307.5 134.3 307.4 133.9 307.2C133.5 307 133 306.9 132.5 306.7C132 306.5 131.6 306.4 131.2 306.3ZM127 304.8H129.7C129.7 305.9 130 307 130.3 308C130.6 309 131 309.9 131.5 310.6C132 311.3 132.5 311.9 133 312.3C133.5 312.7 134.1 312.9 134.7 312.9C135.3 312.9 135.2 312.7 135.3 312.4C135.4 312.1 135.5 311.5 135.6 310.7C135.9 310.9 136.2 311.2 136.6 311.4C137 311.6 137.4 311.8 137.7 311.9C137.6 312.9 137.4 313.6 137.2 314.1C136.9 314.6 136.6 315 136.2 315.2C135.8 315.4 135.3 315.5 134.6 315.5C133.6 315.5 132.6 315.2 131.8 314.7C131 314.2 130.2 313.4 129.5 312.4C128.8 311.4 128.3 310.3 127.9 309C127.5 307.7 127.2 306.3 127.1 304.8H127ZM121.9 304.7L124.4 305.6C123.9 306.5 123.3 307.4 122.5 308.3C121.8 309.1 121 309.9 120.2 310.7C119.4 311.4 118.6 312 117.7 312.6C117.7 312.4 117.4 312.2 117.1 312C116.9 311.7 116.6 311.5 116.4 311.2C116.2 310.9 115.9 310.7 115.8 310.6C117 310 118.1 309.1 119.2 308.1C120.3 307.1 121.2 306 121.8 304.9V304.7H121.9ZM119.8 308.9L121.6 307.1L122.4 307.3V315.3H119.8V308.9ZM121.6 320.6L123.4 318.8L124.2 319V324.3H121.6V320.5V320.6ZM140.1 313.6H161.1V316.6H140.1V313.6ZM179 306.2L180.8 304.7C181.1 304.9 181.5 305.2 181.9 305.5C182.3 305.8 182.7 306.1 183 306.4C183.3 306.7 183.6 307 183.8 307.2L181.9 308.9C181.7 308.6 181.5 308.3 181.1 308C180.8 307.7 180.4 307.4 180.1 307C179.7 306.7 179.4 306.4 179 306.1V306.2ZM164 308.5H184.5V311.2H164V308.5ZM164.8 313.8H174.6V316.4H164.8V313.8ZM168.3 315.3H171V323H168.3V315.3ZM164 322.6C164.9 322.4 166 322.3 167.2 322.1C168.4 321.9 169.8 321.7 171.1 321.4C172.5 321.2 173.9 320.9 175.3 320.7L175.5 323.1C174.3 323.4 173 323.6 171.7 323.9C170.4 324.2 169.2 324.4 168 324.6C166.8 324.9 165.7 325.1 164.7 325.3L164 322.6ZM175.2 304.7H178.1V310.2C178.2 312 178.4 313.7 178.6 315.2C178.8 316.8 179.1 318.1 179.4 319.3C179.7 320.5 180.1 321.4 180.4 322.1C180.8 322.8 181.2 323.1 181.6 323.1C182 323.1 182 322.8 182.2 322.1C182.3 321.4 182.4 320.4 182.5 319C182.8 319.3 183.2 319.6 183.6 319.9C184.1 320.2 184.5 320.4 184.8 320.6C184.7 322 184.5 323.2 184.2 323.9C183.9 324.7 183.6 325.2 183.1 325.5C182.6 325.8 182.1 326 181.3 326C180.5 326 179.8 325.7 179.1 325.2C178.5 324.6 177.9 323.9 177.4 322.9C176.9 321.9 176.5 320.7 176.2 319.4C175.9 318.1 175.6 316.6 175.4 315C175.2 313.4 175.1 311.8 175 310C175 308.3 174.9 306.5 174.9 304.8H175.2V304.7ZM32.3 355C31.6 355 31.1 354.8 30.5 354.5C30 354.2 29.5 353.7 29.2 353.2C28.9 352.7 28.7 352.1 28.7 351.4C28.7 350.7 28.9 350.1 29.2 349.6C29.5 349.1 30 348.6 30.5 348.3C31 348 31.6 347.8 32.3 347.8C33 347.8 33.6 348 34.1 348.3C34.6 348.6 35.1 349 35.4 349.6C35.7 350.1 35.9 350.7 35.9 351.4C35.9 352.1 35.7 352.6 35.4 353.2C35.1 353.7 34.7 354.2 34.1 354.5C33.6 354.8 33 355 32.3 355Z" fill="black"/>
<path d="M62.8 338.8L64.5 341C63.3 341.2 62 341.4 60.7 341.5C59.3 341.6 57.9 341.7 56.5 341.8C55.1 341.9 53.6 342 52.1 342C50.6 342 49.2 342 47.8 342.1C47.8 341.8 47.8 341.4 47.6 341C47.6 340.6 47.4 340.2 47.2 339.9C48.6 339.9 50 339.9 51.4 339.8C52.8 339.8 54.2 339.6 55.6 339.6C57 339.6 58.3 339.4 59.5 339.3C60.7 339.2 61.8 339 62.8 338.9V338.8ZM54.6 341H57.3V360.1H54.6V341ZM45.9 343.5H66.2V346H45.9V343.5ZM50.3 346.6H52.8V358.6H50.3V346.6ZM46.2 349.2H51.8V351.6H46.2V349.2ZM45.5 355.2C46.2 355 47.1 354.7 48.1 354.4C49.1 354.1 50.2 353.7 51.3 353.4L51.7 355.5C50.8 355.9 50 356.2 49.1 356.6C48.2 357 47.4 357.3 46.6 357.6L45.4 355.1L45.5 355.2ZM64.4 348.3L66.2 350.3C65.4 350.8 64.5 351.2 63.5 351.6C62.6 352 61.7 352.4 60.8 352.7C60.8 352.4 60.6 352.1 60.5 351.8C60.3 351.4 60.2 351.1 60 350.9C60.5 350.7 61 350.4 61.6 350.1C62.1 349.8 62.6 349.5 63.1 349.2C63.6 348.9 64 348.6 64.4 348.3ZM59 346.7H61.5V356C61.5 356 61.7 356.1 62 356.1H63.5C63.7 356.1 63.8 356.1 63.9 355.9C63.9 355.8 64.1 355.6 64.1 355.2C64.1 354.8 64.1 354.4 64.1 353.8C64.4 354 64.7 354.2 65.1 354.4C65.6 354.6 66 354.7 66.3 354.8C66.3 355.8 66.1 356.5 65.9 357C65.7 357.5 65.4 357.9 65.1 358.1C64.7 358.3 64.3 358.4 63.7 358.4H61.5C60.8 358.4 60.2 358.4 59.8 358.1C59.4 357.9 59.1 357.6 59 357.1C58.8 356.6 58.8 356 58.8 355.1V346.5V346.7H59ZM86.4 338.8L88.1 341C86.9 341.2 85.6 341.4 84.3 341.5C82.9 341.6 81.5 341.7 80.1 341.8C78.7 341.9 77.2 342 75.7 342C74.2 342 72.8 342 71.4 342.1C71.4 341.8 71.4 341.4 71.2 341C71.2 340.6 71 340.2 70.8 339.9C72.2 339.9 73.6 339.9 75 339.8C76.4 339.8 77.8 339.6 79.2 339.6C80.6 339.6 81.9 339.4 83.1 339.3C84.3 339.2 85.4 339 86.4 338.9V338.8ZM78.2 341H80.9V360.1H78.2V341ZM69.5 343.5H89.8V346H69.5V343.5ZM74 346.6H76.5V358.6H74V346.6ZM69.8 349.2H75.4V351.6H69.8V349.2ZM69.1 355.2C69.8 355 70.7 354.7 71.7 354.4C72.7 354.1 73.8 353.7 74.9 353.4L75.3 355.5C74.4 355.9 73.6 356.2 72.7 356.6C71.8 357 71 357.3 70.2 357.6L69 355.1L69.1 355.2ZM88 348.3L89.8 350.3C89 350.8 88.1 351.2 87.1 351.6C86.2 352 85.3 352.4 84.4 352.7C84.4 352.4 84.2 352.1 84.1 351.8C83.9 351.4 83.8 351.1 83.6 350.9C84.1 350.7 84.6 350.4 85.2 350.1C85.7 349.8 86.2 349.5 86.7 349.2C87.2 348.9 87.6 348.6 88 348.3ZM82.6 346.7H85.1V356C85.1 356 85.3 356.1 85.6 356.1H87.1C87.3 356.1 87.4 356.1 87.5 355.9C87.5 355.8 87.7 355.6 87.7 355.2C87.7 354.8 87.7 354.4 87.7 353.8C88 354 88.3 354.2 88.7 354.4C89.2 354.6 89.6 354.7 89.9 354.8C89.9 355.8 89.7 356.5 89.5 357C89.3 357.5 89 357.9 88.7 358.1C88.3 358.3 87.9 358.4 87.3 358.4H85.1C84.4 358.4 83.8 358.4 83.4 358.1C83 357.9 82.7 357.6 82.6 357.1C82.4 356.6 82.4 356 82.4 355.1V346.5V346.7H82.6ZM92.8 343H100.3V345.5H92.8V343ZM95.5 338.7H98V360H95.5V338.7ZM95.4 344.8L96.9 345.4C96.7 346.3 96.6 347.2 96.3 348.1C96.1 349 95.8 349.9 95.5 350.8C95.2 351.7 94.9 352.5 94.5 353.3C94.2 354.1 93.8 354.7 93.4 355.3C93.4 355 93.2 354.7 93.1 354.4C93.1 354.1 92.8 353.7 92.6 353.4C92.4 353.1 92.3 352.8 92.1 352.5C92.5 352.1 92.8 351.6 93.1 351C93.4 350.4 93.7 349.8 94 349.1C94.3 348.4 94.6 347.7 94.8 347C95 346.3 95.2 345.6 95.3 345V344.8H95.4ZM97.8 346.1C97.8 346.3 98.1 346.5 98.3 346.8C98.6 347.1 98.8 347.5 99.1 347.9C99.4 348.3 99.6 348.7 99.9 349C100.1 349.3 100.3 349.6 100.4 349.7L98.8 351.5C98.8 351.2 98.5 350.8 98.3 350.4C98.1 350 97.9 349.6 97.7 349.1C97.5 348.7 97.3 348.3 97.1 347.9C96.9 347.5 96.7 347.2 96.6 346.9L97.8 345.9V346.1ZM100.8 339.5H110.9V341.8H100.8V339.5ZM102.5 344.1L103.7 342.3C104.4 342.5 105.2 342.7 106.1 343C106.9 343.3 107.7 343.6 108.5 344C109.3 344.3 109.9 344.7 110.4 345L109.2 347.1C108.7 346.8 108.1 346.4 107.4 346.1C106.7 345.7 105.9 345.4 105 345.1C104.2 344.8 103.4 344.5 102.6 344.3V344.1H102.5ZM100.4 345.6H111.6V348H102.8V360.2H100.3V345.7H100.4V345.6ZM101.9 349.4H111.7V351.7H101.9V349.4ZM101.9 353.3H111.7V355.6H101.9V353.3ZM110.4 345.6H112.9V357.4C112.9 358 112.9 358.4 112.7 358.8C112.7 359.2 112.3 359.5 112 359.7C111.7 359.9 111.2 360 110.8 360.1H109.1C109.1 359.8 109.1 359.3 108.9 358.9C108.7 358.4 108.6 358 108.4 357.7H110C110.2 357.7 110.3 357.6 110.3 357.4V345.6H110.4ZM105.3 346.8H107.8V360H105.3V346.8ZM109.9 339.5H111C111 339.4 112.7 340.6 112.7 340.6C112.2 341.2 111.7 341.8 111.1 342.3C110.5 342.9 109.9 343.4 109.2 343.9C108.5 344.4 107.8 344.8 107.1 345.2C106.9 344.9 106.7 344.6 106.4 344.3C106.1 344 105.9 343.7 105.6 343.5C106.2 343.2 106.7 342.8 107.3 342.4C107.8 342 108.3 341.6 108.8 341.1C109.3 340.7 109.6 340.3 109.9 339.9V339.4V339.5ZM116.4 347.7H137.4V350.7H116.4V347.7ZM140 346.5H148.9V348.8H140V346.5ZM151.4 352.8H160.3V354.3H151.4V352.8ZM151.4 355.1H160.3V356.6H151.4V355.1ZM151.3 357.5H161.2V359.4H151.3V357.5ZM148.7 340.1H161V342.2H148.7V340.1ZM141.9 341.4H148.5V343.7H141.9V341.4ZM141.4 355.1H147.7V357.3H141.4V355.1ZM140.5 350.1H142.4V359H140.5V350.1ZM146.8 350.1H148.7V358.3H146.8V350.1ZM154.7 350.8H157V358.6H154.7V350.8ZM143.4 342.3H145.7V356.3H143.4V342.3ZM151.4 338.7H153.9V343.2H151.4V338.7ZM156.2 338.7H158.7V343.2H156.2V338.7ZM141.4 338.7L143.8 339.2C143.6 340.1 143.5 341 143.3 341.9C143.1 342.8 142.8 343.7 142.6 344.5C142.3 345.3 142.1 346 141.8 346.6C141.6 346.5 141.4 346.3 141.2 346.2C140.9 346 140.7 345.9 140.4 345.7C140.1 345.5 139.9 345.4 139.7 345.3C140.1 344.5 140.5 343.5 140.8 342.3C141.1 341.1 141.4 339.9 141.5 338.7H141.4ZM151.2 345.3V346.7H152.6V345.3H151.2ZM149.4 343.6H154.6V348.3H149.4V343.6ZM157.3 345.3V346.7H158.7V345.3H157.3ZM155.4 343.6H160.6V348.3H155.4V343.6ZM152.6 350.1H160.9V351.9H152.6V360.1H150.2V351.7L151.7 350.1H152.6ZM155.7 348.2L158.3 348.8C158 349.3 157.7 349.8 157.4 350.2C157.1 350.7 156.8 351 156.6 351.4L154.6 350.9C154.8 350.5 155 350.1 155.2 349.6C155.4 349.1 155.6 348.7 155.7 348.3V348.2ZM151.2 347.9L153.5 348.6C153.2 349.3 152.8 350.1 152.4 350.8C152 351.5 151.5 352.2 151 352.8C150.5 353.4 150.1 354 149.6 354.5C149.5 354.3 149.3 354.2 149.1 354C148.9 353.8 148.7 353.5 148.4 353.3C148.2 353.1 148 352.9 147.8 352.8C148.5 352.2 149.1 351.5 149.7 350.6C150.3 349.8 150.8 348.9 151.1 348H151.2V347.9Z" fill="#39BF63"/>
<path d="M132.9 104H1.79999V132.8H132.9V104Z" fill="#39BF63"/>
<path d="M19.4 114.1H25.4V115.8H19.4V114.1ZM16.4 124.3C16.9 124.3 17.5 124.1 18.2 124C18.9 123.9 19.6 123.8 20.4 123.6C21.2 123.5 22 123.3 22.7 123.2L22.9 125C21.9 125.2 20.9 125.5 19.8 125.7C18.8 125.9 17.8 126.1 17 126.3L16.3 124.3H16.4ZM18.2 110.9H20.2V124.7H18.2V110.9ZM19.4 110.9H26.4V119.1H19.4V117.3H24.3V112.7H19.4V110.9ZM23 117.9C23.2 118.9 23.5 119.9 23.9 120.8C24.3 121.7 24.8 122.5 25.4 123.1C26 123.8 26.7 124.3 27.6 124.7C27.4 124.8 27.3 125 27.1 125.2C26.9 125.4 26.8 125.6 26.6 125.8C26.4 126 26.3 126.2 26.2 126.4C25.3 125.9 24.5 125.2 23.8 124.4C23.2 123.6 22.7 122.6 22.2 121.6C21.8 120.5 21.5 119.4 21.2 118.1L22.9 117.8L23 117.9ZM25.6 119.2L27.2 120.3C26.7 120.8 26.2 121.2 25.7 121.7C25.2 122.1 24.7 122.5 24.2 122.8L22.9 121.8C23.2 121.6 23.5 121.3 23.8 121C24.1 120.7 24.4 120.4 24.7 120.1C25 119.8 25.3 119.5 25.5 119.2H25.6ZM11.9 110.9H16.3V112.8H13.9V126.6H11.9V110.9ZM15.6 110.9H16.3L17.7 111.7C17.5 112.2 17.4 112.8 17.2 113.3C17 113.9 16.8 114.4 16.6 115C16.4 115.6 16.2 116.1 16 116.5C16.6 117.2 16.9 117.8 17.1 118.4C17.3 119 17.4 119.5 17.4 120.1C17.4 120.7 17.4 121.2 17.2 121.5C17 121.8 16.9 122.2 16.6 122.4C16.5 122.5 16.3 122.6 16.1 122.6C15.9 122.6 15.7 122.7 15.6 122.7H14.4C14.4 122.4 14.4 122.1 14.3 121.8C14.3 121.4 14.1 121.1 14 120.9H15.1C15.1 120.9 15.3 120.9 15.4 120.8C15.5 120.8 15.6 120.6 15.6 120.4V119.8C15.6 119.4 15.6 118.9 15.3 118.4C15.1 117.9 14.8 117.3 14.3 116.7C14.4 116.3 14.6 115.9 14.7 115.4C14.8 114.9 15 114.4 15.1 114C15.2 113.5 15.3 113.1 15.4 112.6C15.5 112.2 15.6 111.8 15.7 111.5V110.9H15.6ZM33.8 113.4V114H41.1V113.4H33.8ZM33.8 111.8V112.4H41.1V111.8H33.8ZM31.8 110.7H43.2V115H31.8V110.7ZM33.4 120.3V120.9H41.5V120.3H33.4ZM33.4 118.7V119.3H41.5V118.7H33.4ZM31.4 117.6H43.5V122.1H31.4V117.6ZM36.4 117.9H38.4V125.4H36.4V117.9ZM29.5 115.5H45.4V117H29.5V115.5ZM31.1 122.6H43.9V123.9H31.1V122.6ZM29.5 124.6H45.5V126.1H29.5V124.6ZM52.7 125V123.1L57.2 118.9C57.6 118.5 57.9 118.2 58.2 117.9C58.5 117.6 58.7 117.3 58.8 117C58.9 116.7 59 116.4 59 116.1C59 115.8 59 115.4 58.7 115.1C58.5 114.8 58.3 114.6 58 114.5C57.7 114.4 57.4 114.3 57 114.3C56.6 114.3 56.3 114.3 56 114.5C55.7 114.7 55.5 114.9 55.3 115.2C55.1 115.5 55.1 115.8 55.1 116.2H52.5C52.5 115.4 52.7 114.6 53.1 114C53.5 113.4 54 112.9 54.7 112.6C55.4 112.3 56.2 112.1 57 112.1C57.8 112.1 58.7 112.3 59.4 112.6C60.1 112.9 60.6 113.4 61 113.9C61.4 114.5 61.6 115.1 61.6 115.8C61.6 116.5 61.6 116.8 61.3 117.2C61.1 117.7 60.8 118.2 60.3 118.8C59.8 119.4 59.1 120 58.3 120.8L56.4 122.6H61.7V124.8H52.6V125H52.7ZM69.4 125.3C68.3 125.3 67.4 125 66.6 124.5C65.8 124 65.2 123.2 64.8 122.2C64.4 121.2 64.2 120 64.2 118.6C64.2 117.2 64.4 116 64.8 115.1C65.2 114.1 65.8 113.4 66.6 112.9C67.4 112.4 68.3 112.1 69.3 112.1C70.3 112.1 71.3 112.4 72 112.9C72.8 113.4 73.4 114.2 73.8 115.1C74.2 116.1 74.4 117.3 74.4 118.6C74.4 119.9 74.2 121.2 73.8 122.2C73.4 123.2 72.8 123.9 72 124.5C71.2 125 70.3 125.3 69.3 125.3H69.4ZM69.4 123.1C70.1 123.1 70.7 122.7 71.1 122C71.5 121.3 71.7 120.2 71.7 118.7C71.7 117.2 71.7 116.9 71.4 116.3C71.2 115.7 70.9 115.2 70.6 114.9C70.2 114.6 69.8 114.4 69.3 114.4C68.8 114.4 68 114.8 67.6 115.5C67.2 116.2 66.9 117.3 66.9 118.8C66.9 120.3 66.9 120.6 67.2 121.2C67.4 121.8 67.7 122.3 68 122.7C68.4 123 68.8 123.2 69.3 123.2L69.4 123.1ZM82.1 125.3C81 125.3 80.1 125 79.3 124.5C78.5 124 77.9 123.2 77.5 122.2C77.1 121.2 76.9 120 76.9 118.6C76.9 117.2 77.1 116 77.5 115.1C77.9 114.1 78.5 113.4 79.3 112.9C80.1 112.4 81 112.1 82 112.1C83 112.1 84 112.4 84.7 112.9C85.5 113.4 86.1 114.2 86.5 115.1C86.9 116.1 87.1 117.3 87.1 118.6C87.1 119.9 86.9 121.2 86.5 122.2C86.1 123.2 85.5 123.9 84.7 124.5C83.9 125 83 125.3 82 125.3H82.1ZM82.1 123.1C82.8 123.1 83.4 122.7 83.8 122C84.2 121.3 84.4 120.2 84.4 118.7C84.4 117.2 84.4 116.9 84.1 116.3C83.9 115.7 83.6 115.2 83.3 114.9C82.9 114.6 82.5 114.4 82 114.4C81.5 114.4 80.7 114.8 80.3 115.5C79.9 116.2 79.6 117.3 79.6 118.8C79.6 120.3 79.6 120.6 79.9 121.2C80.1 121.8 80.4 122.3 80.7 122.7C81.1 123 81.5 123.2 82 123.2L82.1 123.1ZM103 115.4H108.2V117.3H103V115.4ZM103 119.7H108.2V121.6H103V119.7ZM101.9 111H109.4V125.3H107.3V112.9H103.9V125.3H101.9V111ZM100.3 124.2H110.6V126.1H100.3V124.2ZM96.7 110.2L98.6 110.8C98.4 111.3 98.1 111.7 97.9 112.2C97.6 112.7 97.4 113.1 97.1 113.6C96.9 114 96.6 114.4 96.4 114.7L95 114.1C95.2 113.7 95.4 113.3 95.6 112.9C95.8 112.4 96 112 96.2 111.5C96.4 111 96.6 110.6 96.7 110.2ZM98.8 112.2L100.6 112.9C100.2 113.6 99.7 114.3 99.2 115C98.7 115.7 98.2 116.4 97.7 117.1C97.2 117.8 96.7 118.3 96.3 118.8L95 118.2C95.3 117.8 95.7 117.4 96 116.9C96.3 116.4 96.7 115.9 97 115.3C97.3 114.8 97.7 114.2 98 113.7C98.3 113.2 98.6 112.7 98.8 112.2ZM94 114.3L95 112.9C95.3 113.2 95.6 113.4 95.9 113.8L96.8 114.7C97.1 115 97.3 115.3 97.4 115.6L96.3 117.2C96.3 116.9 96 116.6 95.7 116.3C95.4 116 95.2 115.6 94.8 115.3C94.5 115 94.2 114.6 93.9 114.4L94 114.3ZM98.4 116.5L99.9 115.9C100.1 116.3 100.4 116.7 100.6 117.1C100.8 117.5 101 118 101.2 118.4C101.4 118.8 101.5 119.2 101.6 119.5L100 120.2C100 119.9 99.8 119.5 99.7 119.1C99.5 118.7 99.4 118.2 99.2 117.8C99 117.3 98.8 116.9 98.6 116.5H98.4ZM94 117.9C94.8 117.9 95.8 117.9 96.9 117.9C98 117.9 99.2 117.9 100.4 117.7V119.4C99.3 119.4 98.2 119.6 97.1 119.6C96 119.6 95 119.7 94.2 119.8L94 118V117.9ZM98.7 120.8L100.2 120.3C100.4 120.8 100.7 121.4 100.9 122C101.1 122.6 101.3 123.2 101.4 123.6L99.8 124.2C99.8 123.7 99.6 123.2 99.4 122.6C99.2 122 99 121.4 98.8 120.8H98.7ZM94.8 120.4L96.5 120.7C96.5 121.5 96.3 122.4 96.1 123.2C95.9 124 95.7 124.7 95.5 125.3C95.5 125.3 95.2 125.1 95 125C94.8 125 94.6 124.8 94.4 124.7C94.2 124.7 94 124.5 93.9 124.5C94.2 124 94.4 123.4 94.5 122.6C94.7 121.9 94.8 121.1 94.8 120.4ZM96.8 118.8H98.7V126.6H96.8V118.8ZM119.6 120.5L119.1 114.5V111.9H121.9V114.5L121.3 120.5H119.5H119.6ZM120.5 125.2C120.1 125.2 119.7 125.1 119.4 124.8C119.1 124.5 119 124.1 119 123.7C119 123.3 119 122.9 119.4 122.6C119.8 122.3 120.1 122.2 120.5 122.2C120.9 122.2 121.3 122.3 121.6 122.6C121.9 122.9 122 123.3 122 123.7C122 124.1 122 124.5 121.6 124.8C121.2 125.1 120.9 125.2 120.5 125.2Z" fill="#DADADA"/>
<path d="M25.7 206.9H341.2H25.7Z" fill="#9B9B9B"/>
<path d="M25.7 206.9H341.2" stroke="#9B9B9B" stroke-width="0.9"/>
<mask id="mask0_1579_211" style="mask-type:luminance" maskUnits="userSpaceOnUse" x="49" y="0" width="274" height="85">
<path d="M323 0.699951H49.9V84.4H323V0.699951Z" fill="white"/>
</mask>
<g mask="url(#mask0_1579_211)">
<path d="M93.2 73.7L91.5 84.3L102.3 82.3L93.2 73.7Z" fill="#39BF63"/>
<path d="M87.4 77.4C108.1 77.4 124.9 60.7999 124.9 40.2999C124.9 19.7999 108.1 3.19995 87.4 3.19995C66.7 3.19995 49.9 19.7999 49.9 40.2999C49.9 60.7999 66.7 77.4 87.4 77.4Z" fill="#39BF63"/>
<path d="M173.2 13.1L181.9 6.69998L172.9 0.599976L173.2 13.1Z" fill="#39BF63"/>
<path d="M180 67.0999C194.6 52.5999 194.6 29.0999 180 14.4999C165.4 -6.48499e-05 141.7 -0.100065 127.1 14.4999C112.5 28.9999 112.5 52.4999 127.1 67.0999C141.7 81.5999 165.4 81.6999 180 67.0999Z" fill="#39BF63"/>
<path d="M225.3 73.7L223.6 84.3L234.4 82.3L225.3 73.7Z" fill="#39BF63"/>
<path d="M219.5 77.4C240.2 77.4 257 60.7999 257 40.2999C257 19.7999 240.2 3.19995 219.5 3.19995C198.8 3.19995 182 19.7999 182 40.2999C182 60.7999 198.8 77.4 219.5 77.4Z" fill="#39BF63"/>
<path d="M305.3 13.1L314 6.69998L305 0.599976L305.3 13.1Z" fill="#39BF63"/>
<path d="M312.1 67.0999C326.7 52.5999 326.7 29.0999 312.1 14.4999C297.5 -6.48499e-05 273.8 -0.100065 259.2 14.4999C244.6 28.9999 244.6 52.4999 259.2 67.0999C273.8 81.5999 297.5 81.6999 312.1 67.0999Z" fill="#39BF63"/>
</g>
<path d="M78.7 36.1H106.6V39.1H78.7V36.1ZM85 25.7H89.1V33.7H85V25.7ZM94 25.7H98.2V33.7H94V25.7ZM79.5 27.6H107.5V34.8H79.5V32.2H103.1V30.3H79.5V27.7V27.6ZM89.1 44L93.1 44.9C90.1 47.8 86.1 50 80.8 51.9C80.3 51 79.2 49.7 78.3 49.2C83.2 47.9 86.9 46 89.1 44.1V44ZM89.1 46.4H101.6V49H86.5L89.1 46.4ZM100.6 46.4H101.4L102.1 46.2L104.7 47.9C99.8 53.6 89.6 56 79.8 57C79.4 56.1 78.7 54.6 78.1 53.8C87.1 53.2 96.8 51.2 100.6 47V46.4ZM87.9 48.1C91.9 51.5 100.4 53.1 109.6 53.5C108.8 54.4 107.8 56 107.3 57.1C97.8 56.4 89.3 54.2 84.5 49.5L87.9 48.1ZM86.2 39.9H90V41.6C90 42.4 90.2 42.5 91.5 42.5H95.7C96.6 42.5 96.8 42.2 97 40.8C97.7 41.2 99.1 41.6 100 41.8C99.7 44.4 98.7 45.1 96.2 45.1H91.1C87.2 45.1 86.3 44.3 86.3 41.5V39.8L86.2 39.9ZM105.5 36.1H106.8L109.9 36.6C109.1 38.7 108.2 41 107.4 42.5L103.6 41.7C104.2 40.4 105 38.3 105.5 36.5V36V36.1ZM82.8 39.5L86 40.8C85.2 42.6 84 44.6 82.1 45.8L79.1 43.8C80.7 42.8 82.1 41 82.8 39.5ZM89.8 39.4L92.3 37.6C93.8 38.4 95.5 39.5 96.4 40.3L93.8 42.3C92.9 41.4 91.2 40 89.8 39.3V39.4ZM98.4 40.7L101.3 39.2C103 40.5 104.9 42.4 105.7 43.9L102.6 45.6C101.8 44.2 100 42.2 98.4 40.8V40.7ZM89.9 19.9H94.8V24.9H89.9V19.9ZM77.8 22.3H108.9V25.9H77.8V22.3ZM75.5 22.3H79.8V34.1C79.8 40.7 79.2 50.7 75.6 57C74.8 56.2 73 54.8 72 54.4C75.2 48.5 75.5 40.1 75.5 34.2V22.4V22.3ZM142.8 27.1H170.3V31.7H142.8V27.1ZM141.2 38.8H168.8V43.3H141.2V38.8ZM136.6 51.3H172.3V55.9H136.6V51.3ZM152 19.9H156.9V53.5H152V19.9ZM142.8 20.4L147.7 21.5C146 27.6 143.1 33.7 140 37.5C139.1 36.7 137 35.3 135.7 34.6C138.8 31.3 141.4 25.8 142.8 20.4ZM200.5 23.6H234.7V27.4H200.5V23.6ZM209.7 35H227.5V38.1H209.7V35ZM209.7 39.7H227.5V42.8H209.7V39.7ZM200.1 44.5H235.1V48.4H200.1V44.5ZM223.8 24.4C226.3 28.2 231.4 31.8 236.3 33.5C235.3 34.4 233.9 36.1 233.3 37.2C228.2 34.9 223.1 30.6 220.1 25.9L223.8 24.5V24.4ZM207.3 29.9H227.4V33.5H212.1V46.3H207.2V29.9H207.3ZM202.7 52.5C209 52.3 219.1 51.8 228.6 51.3V54.9C219.5 55.6 209.8 56.2 203.2 56.6L202.7 52.4V52.5ZM209.4 45.9L215 46.1C213.8 49.1 212.2 52.1 211 54.2L206.4 53.8C207.5 51.5 208.8 48.3 209.4 46V45.9ZM222.1 49.4L226.1 47.5C228.6 49.8 232 53.1 233.7 55.2L229.4 57.4C227.9 55.2 224.7 51.7 222.1 49.3V49.4ZM213.9 19.9L218.8 20.7C215.7 27.5 210.5 33.5 201.5 37.7C200.9 36.6 199.6 34.9 198.7 34.1C207.1 30.7 211.8 25.2 214 19.9H213.9ZM285.9 50.2L289.4 47.8C292.4 49.4 296.4 51.9 298.5 53.8L294.7 56.4C292.9 54.6 288.9 51.9 285.8 50.2H285.9ZM267.7 38.4H294.1V42H267.7V38.4ZM263 43.7H298.9V47.5H263V43.7ZM263.5 21.2H298V24.9H263.5V21.2ZM278.5 44.3H283.3V52.5C283.3 54.6 282.9 55.7 281.4 56.3C279.9 57 278 57 275.4 57C275.2 55.7 274.5 54 274 52.8H277.8C278.4 52.8 278.5 52.8 278.5 52.2V44.1V44.3ZM270.8 47.7L275.1 49.2C272.8 52.1 269.2 55.1 266.2 56.8C265.4 56 263.7 54.4 262.6 53.7C265.7 52.3 268.9 50 270.7 47.7H270.8ZM270.3 30.4V33.3H291.3V30.4H270.3ZM265.9 27H296V36.8H265.9V27ZM274.2 22.7H278.5V35.5H274.2V22.7ZM282.7 22.7H287.1V35.5H282.7V22.7Z" fill="white"/>
</svg>
