<svg width="426" height="511" viewBox="0 0 426 511" fill="none" xmlns="http://www.w3.org/2000/svg">
<rect x="3.08105" y="51.2275" width="420.417" height="456.322" rx="23.5" fill="white" stroke="#FF5F17" stroke-width="5"/>
<path d="M62.5291 214.01V209.845H70.2291V193.395H64.1391V190.175C65.7725 189.871 67.1841 189.603 68.3741 189.37C69.5641 189.113 70.6375 188.658 71.5941 188.005H75.3741V209.845H82.3741V214.01H62.5291ZM108.624 194.69H119.054V198.47H108.624V194.69ZM108.624 203.44H119.054V207.22H108.624V203.44ZM106.454 186.045H121.434V214.745H117.199V189.825H110.479V214.745H106.454V186.045ZM103.199 212.435H123.814V216.215H103.199V212.435ZM96.0591 184.295L99.7691 185.59C99.3025 186.5 98.8125 187.433 98.2991 188.39C97.7858 189.323 97.2841 190.233 96.7941 191.12C96.3041 191.983 95.8258 192.741 95.3591 193.395L92.5241 192.24C92.9441 191.516 93.3758 190.7 93.8191 189.79C94.2625 188.856 94.6825 187.911 95.0791 186.955C95.4758 185.998 95.8025 185.111 96.0591 184.295ZM100.259 188.46L103.829 189.93C102.966 191.26 102.032 192.66 101.029 194.13C100.026 195.576 99.0108 196.965 97.9841 198.295C96.9575 199.625 96.0008 200.791 95.1141 201.795L92.5591 200.5C93.2358 199.706 93.9241 198.808 94.6241 197.805C95.3241 196.801 96.0125 195.763 96.6891 194.69C97.3891 193.616 98.0425 192.543 98.6491 191.47C99.2791 190.373 99.8158 189.37 100.259 188.46ZM90.6691 192.59L92.6641 189.72C93.2708 190.233 93.9008 190.816 94.5541 191.47C95.2075 192.1 95.8025 192.73 96.3391 193.36C96.8991 193.99 97.3191 194.573 97.5991 195.11L95.4641 198.365C95.1841 197.828 94.7758 197.221 94.2391 196.545C93.7258 195.845 93.1541 195.156 92.5241 194.48C91.8941 193.78 91.2758 193.15 90.6691 192.59ZM99.4191 196.895L102.394 195.6C102.861 196.37 103.316 197.198 103.759 198.085C104.202 198.971 104.587 199.846 104.914 200.71C105.241 201.55 105.486 202.308 105.649 202.985L102.429 204.455C102.289 203.801 102.067 203.043 101.764 202.18C101.461 201.293 101.099 200.395 100.679 199.485C100.282 198.551 99.8625 197.688 99.4191 196.895ZM90.6691 199.695C92.2791 199.648 94.2158 199.578 96.4791 199.485C98.7658 199.391 101.087 199.286 103.444 199.17L103.409 202.495C101.216 202.658 99.0341 202.821 96.8641 202.985C94.6941 203.125 92.7458 203.241 91.0191 203.335L90.6691 199.695ZM100.014 205.645L103.094 204.63C103.584 205.68 104.039 206.823 104.459 208.06C104.879 209.296 105.182 210.37 105.369 211.28L102.114 212.47C101.951 211.536 101.671 210.44 101.274 209.18C100.877 207.896 100.457 206.718 100.014 205.645ZM92.1741 204.84L95.6391 205.47C95.4525 207.15 95.1725 208.806 94.7991 210.44C94.4258 212.073 93.9941 213.45 93.5041 214.57C93.2708 214.406 92.9558 214.22 92.5591 214.01C92.1625 213.823 91.7541 213.636 91.3341 213.45C90.9375 213.263 90.5875 213.123 90.2841 213.03C90.7975 211.98 91.2058 210.731 91.5091 209.285C91.8125 207.815 92.0341 206.333 92.1741 204.84ZM96.2341 201.55H99.9441V217.16H96.2341V201.55ZM149.975 214.01C148.971 214.01 147.863 213.881 146.65 213.625C145.46 213.368 144.293 212.983 143.15 212.47C142.03 211.933 141.061 211.268 140.245 210.475L142.555 207.01C143.651 207.966 144.841 208.678 146.125 209.145C147.408 209.611 148.691 209.845 149.975 209.845C151.748 209.845 153.043 209.576 153.86 209.04C154.7 208.503 155.12 207.721 155.12 206.695C155.12 206.041 154.875 205.493 154.385 205.05C153.895 204.606 153.23 204.221 152.39 203.895C151.573 203.545 150.675 203.218 149.695 202.915C148.715 202.588 147.735 202.226 146.755 201.83C145.775 201.41 144.865 200.92 144.025 200.36C143.208 199.776 142.555 199.076 142.065 198.26C141.575 197.443 141.33 196.44 141.33 195.25C141.33 193.71 141.703 192.38 142.45 191.26C143.196 190.14 144.258 189.276 145.635 188.67C147.035 188.063 148.645 187.76 150.465 187.76C151.865 187.76 153.113 187.923 154.21 188.25C155.306 188.553 156.31 188.985 157.22 189.545C158.153 190.105 159.016 190.746 159.81 191.47L157.22 194.55C156.543 193.99 155.843 193.523 155.12 193.15C154.42 192.753 153.696 192.45 152.95 192.24C152.226 192.03 151.456 191.925 150.64 191.925C149.356 191.925 148.306 192.17 147.49 192.66C146.673 193.15 146.265 193.896 146.265 194.9C146.265 195.53 146.51 196.055 147 196.475C147.49 196.871 148.143 197.233 148.96 197.56C149.8 197.886 150.71 198.213 151.69 198.54C152.67 198.843 153.65 199.193 154.63 199.59C155.61 199.986 156.508 200.476 157.325 201.06C158.165 201.62 158.83 202.32 159.32 203.16C159.81 204 160.055 205.026 160.055 206.24C160.055 207.78 159.658 209.133 158.865 210.3C158.095 211.466 156.963 212.376 155.47 213.03C153.976 213.683 152.145 214.01 149.975 214.01ZM148.855 189.44V183.385H152.285V189.44H148.855ZM148.855 218.385V211.945H152.285V218.385H148.855ZM355.835 198.925H360.175V211.07C360.175 211.746 360.245 212.178 360.385 212.365C360.548 212.528 360.921 212.61 361.505 212.61C361.621 212.61 361.82 212.61 362.1 212.61C362.38 212.61 362.683 212.61 363.01 212.61C363.36 212.61 363.675 212.61 363.955 212.61C364.258 212.61 364.503 212.61 364.69 212.61C365.086 212.61 365.378 212.47 365.565 212.19C365.775 211.886 365.926 211.315 366.02 210.475C366.113 209.611 366.183 208.34 366.23 206.66C366.533 206.893 366.918 207.126 367.385 207.36C367.851 207.593 368.33 207.803 368.82 207.99C369.31 208.176 369.741 208.316 370.115 208.41C369.975 210.51 369.73 212.155 369.38 213.345C369.053 214.511 368.551 215.328 367.875 215.795C367.198 216.285 366.265 216.53 365.075 216.53C364.865 216.53 364.561 216.53 364.165 216.53C363.791 216.53 363.383 216.53 362.94 216.53C362.496 216.53 362.076 216.53 361.68 216.53C361.306 216.53 361.015 216.53 360.805 216.53C359.498 216.53 358.483 216.355 357.76 216.005C357.036 215.678 356.535 215.118 356.255 214.325C355.975 213.531 355.835 212.458 355.835 211.105V198.925ZM338.055 196.265H369.45V200.325H338.055V196.265ZM341.24 186.745H366.23V190.77H341.24V186.745ZM346.07 199.485H350.585C350.445 201.398 350.211 203.218 349.885 204.945C349.558 206.671 349.033 208.293 348.31 209.81C347.586 211.303 346.548 212.668 345.195 213.905C343.841 215.118 342.068 216.168 339.875 217.055C339.641 216.518 339.268 215.911 338.755 215.235C338.241 214.581 337.751 214.045 337.285 213.625C339.198 212.925 340.715 212.085 341.835 211.105C342.955 210.101 343.806 209.005 344.39 207.815C344.973 206.601 345.37 205.295 345.58 203.895C345.79 202.471 345.953 201.001 346.07 199.485Z" fill="black"/>
<path d="M195.237 151.346C198.417 151.346 201.475 151.88 204.413 152.946C207.371 154.013 210.008 155.713 212.322 158.047C214.656 160.382 216.497 163.481 217.846 167.344C219.214 171.188 219.908 175.907 219.928 181.501C219.928 186.753 219.335 191.442 218.147 195.567C216.98 199.672 215.3 203.163 213.107 206.041C210.913 208.919 208.267 211.112 205.168 212.621C202.069 214.11 198.608 214.855 194.784 214.855C190.659 214.855 187.017 214.06 183.858 212.47C180.698 210.86 178.153 208.677 176.221 205.92C174.309 203.143 173.152 200.024 172.75 196.563H185.638C186.142 198.817 187.198 200.568 188.808 201.815C190.418 203.043 192.41 203.656 194.784 203.656C198.809 203.656 201.868 201.906 203.961 198.404C206.053 194.883 207.11 190.063 207.13 183.946H206.707C205.782 185.757 204.534 187.316 202.964 188.624C201.395 189.912 199.594 190.908 197.561 191.613C195.549 192.317 193.406 192.669 191.132 192.669C187.49 192.669 184.24 191.814 181.382 190.104C178.525 188.393 176.271 186.039 174.621 183.04C172.971 180.042 172.146 176.621 172.146 172.778C172.126 168.632 173.082 164.94 175.013 161.7C176.945 158.46 179.642 155.924 183.103 154.093C186.584 152.242 190.629 151.326 195.237 151.346ZM195.328 161.609C193.295 161.609 191.484 162.092 189.895 163.058C188.325 164.024 187.077 165.322 186.152 166.952C185.246 168.582 184.803 170.403 184.824 172.415C184.824 174.448 185.266 176.279 186.152 177.909C187.057 179.519 188.285 180.807 189.834 181.773C191.404 182.718 193.195 183.191 195.207 183.191C196.716 183.191 198.115 182.91 199.403 182.346C200.691 181.783 201.807 181.008 202.753 180.022C203.719 179.016 204.474 177.859 205.017 176.551C205.56 175.243 205.832 173.854 205.832 172.385C205.812 170.433 205.349 168.642 204.444 167.012C203.538 165.382 202.29 164.074 200.701 163.088C199.111 162.102 197.32 161.609 195.328 161.609ZM251.35 151.346C254.53 151.346 257.589 151.88 260.527 152.946C263.485 154.013 266.121 155.713 268.435 158.047C270.769 160.382 272.611 163.481 273.959 167.344C275.327 171.188 276.021 175.907 276.042 181.501C276.042 186.753 275.448 191.442 274.261 195.567C273.094 199.672 271.413 203.163 269.22 206.041C267.026 208.919 264.38 211.112 261.281 212.621C258.182 214.11 254.721 214.855 250.898 214.855C246.772 214.855 243.13 214.06 239.971 212.47C236.812 210.86 234.266 208.677 232.334 205.92C230.422 203.143 229.265 200.024 228.863 196.563H241.752C242.255 198.817 243.311 200.568 244.921 201.815C246.531 203.043 248.523 203.656 250.898 203.656C254.922 203.656 257.981 201.906 260.074 198.404C262.167 194.883 263.223 190.063 263.243 183.946H262.821C261.895 185.757 260.647 187.316 259.078 188.624C257.508 189.912 255.707 190.908 253.675 191.613C251.662 192.317 249.519 192.669 247.245 192.669C243.603 192.669 240.353 191.814 237.496 190.104C234.638 188.393 232.384 186.039 230.734 183.04C229.084 180.042 228.259 176.621 228.259 172.778C228.239 168.632 229.195 164.94 231.127 161.7C233.059 158.46 235.755 155.924 239.216 154.093C242.698 152.242 246.742 151.326 251.35 151.346ZM251.441 161.609C249.409 161.609 247.598 162.092 246.008 163.058C244.438 164.024 243.191 165.322 242.265 166.952C241.359 168.582 240.917 170.403 240.937 172.415C240.937 174.448 241.379 176.279 242.265 177.909C243.17 179.519 244.398 180.807 245.947 181.773C247.517 182.718 249.308 183.191 251.32 183.191C252.83 183.191 254.228 182.91 255.516 182.346C256.804 181.783 257.921 181.008 258.866 180.022C259.832 179.016 260.587 177.859 261.13 176.551C261.674 175.243 261.945 173.854 261.945 172.385C261.925 170.433 261.462 168.642 260.557 167.012C259.651 165.382 258.404 164.074 256.814 163.088C255.224 162.102 253.433 161.609 251.441 161.609ZM307.464 151.346C310.643 151.346 313.702 151.88 316.64 152.946C319.598 154.013 322.234 155.713 324.548 158.047C326.883 160.382 328.724 163.481 330.072 167.344C331.44 171.188 332.135 175.907 332.155 181.501C332.155 186.753 331.561 191.442 330.374 195.567C329.207 199.672 327.527 203.163 325.333 206.041C323.14 208.919 320.493 211.112 317.395 212.621C314.296 214.11 310.834 214.855 307.011 214.855C302.886 214.855 299.243 214.06 296.084 212.47C292.925 210.86 290.379 208.677 288.447 205.92C286.536 203.143 285.379 200.024 284.976 196.563H297.865C298.368 198.817 299.425 200.568 301.034 201.815C302.644 203.043 304.636 203.656 307.011 203.656C311.036 203.656 314.094 201.906 316.187 198.404C318.28 194.883 319.336 190.063 319.357 183.946H318.934C318.008 185.757 316.761 187.316 315.191 188.624C313.621 189.912 311.82 190.908 309.788 191.613C307.776 192.317 305.633 192.669 303.359 192.669C299.716 192.669 296.466 191.814 293.609 190.104C290.752 188.393 288.498 186.039 286.848 183.04C285.198 180.042 284.373 176.621 284.373 172.778C284.352 168.632 285.308 164.94 287.24 161.7C289.172 158.46 291.868 155.924 295.33 154.093C298.811 152.242 302.856 151.326 307.464 151.346ZM307.554 161.609C305.522 161.609 303.711 162.092 302.121 163.058C300.551 164.024 299.304 165.322 298.378 166.952C297.473 168.582 297.03 170.403 297.05 172.415C297.05 174.448 297.493 176.279 298.378 177.909C299.284 179.519 300.511 180.807 302.061 181.773C303.63 182.718 305.421 183.191 307.434 183.191C308.943 183.191 310.341 182.91 311.629 182.346C312.917 181.783 314.034 181.008 314.98 180.022C315.946 179.016 316.7 177.859 317.244 176.551C317.787 175.243 318.059 173.854 318.059 172.385C318.038 170.433 317.576 168.642 316.67 167.012C315.765 165.382 314.517 164.074 312.927 163.088C311.337 162.102 309.547 161.609 307.554 161.609Z" fill="#FF5F17"/>
<path d="M36.8956 267.748C36.1508 267.748 35.4706 267.567 34.8551 267.203C34.2396 266.834 33.7471 266.342 33.3778 265.726C33.0147 265.111 32.8331 264.43 32.8331 263.686C32.8331 262.935 33.0147 262.255 33.3778 261.645C33.7471 261.03 34.2396 260.54 34.8551 260.177C35.4706 259.808 36.1508 259.623 36.8956 259.623C37.6465 259.623 38.3267 259.808 38.9361 260.177C39.5516 260.54 40.0409 261.03 40.4041 261.645C40.7734 262.255 40.9581 262.935 40.9581 263.686C40.9581 264.43 40.7734 265.111 40.4041 265.726C40.0409 266.342 39.5516 266.834 38.9361 267.203C38.3267 267.567 37.6465 267.748 36.8956 267.748ZM58.3826 266.072H68.4186V267.762H58.3826V266.072ZM59.8126 263.784H68.9906V265.24H59.8126V263.784ZM59.8126 261.548H68.8866V262.978H59.8126V261.548ZM63.0106 260.066H65.3506V267.06H63.0106V260.066ZM68.0546 266.072H70.4466C70.4466 266.072 70.4466 266.176 70.4466 266.384C70.4466 266.574 70.4379 266.748 70.4206 266.904C70.3686 267.996 70.3079 268.897 70.2386 269.608C70.1866 270.318 70.1086 270.864 70.0046 271.246C69.9179 271.644 69.7879 271.948 69.6146 272.156C69.4412 272.364 69.2332 272.52 68.9906 272.624C68.7479 272.728 68.4879 272.797 68.2106 272.832C67.9506 272.849 67.6212 272.858 67.2226 272.858C66.8412 272.875 66.4339 272.875 66.0006 272.858C65.9832 272.563 65.9226 272.234 65.8186 271.87C65.7146 271.523 65.5932 271.228 65.4546 270.986C65.7839 271.02 66.0786 271.046 66.3386 271.064C66.6159 271.081 66.8239 271.081 66.9626 271.064C67.2226 271.081 67.4219 271.012 67.5606 270.856C67.6819 270.7 67.7772 270.301 67.8466 269.66C67.9332 269.001 68.0026 267.909 68.0546 266.384V266.072ZM57.8886 268.204L59.7086 268.672C59.5872 269.452 59.4052 270.206 59.1626 270.934C58.9199 271.644 58.5386 272.234 58.0186 272.702L56.3806 271.61C56.7966 271.228 57.1259 270.726 57.3686 270.102C57.6286 269.478 57.8019 268.845 57.8886 268.204ZM65.0646 268.412L66.3126 268.022C66.5552 268.351 66.7632 268.724 66.9366 269.14C67.1099 269.556 67.2399 269.92 67.3266 270.232L66.0006 270.726C65.9312 270.396 65.8099 270.015 65.6366 269.582C65.4806 269.148 65.2899 268.758 65.0646 268.412ZM60.3586 268.828L61.8926 268.62C61.9966 269.157 62.0659 269.755 62.1006 270.414C62.1526 271.072 62.1699 271.618 62.1526 272.052L60.4886 272.312C60.5406 271.844 60.5492 271.289 60.5146 270.648C60.4972 269.989 60.4452 269.382 60.3586 268.828ZM62.8026 268.698L64.2326 268.36C64.4059 268.828 64.5532 269.348 64.6746 269.92C64.7959 270.474 64.8739 270.951 64.9086 271.35L63.4006 271.766C63.3832 271.35 63.3226 270.856 63.2186 270.284C63.1146 269.712 62.9759 269.183 62.8026 268.698ZM58.3826 259.052H69.6406V260.768H60.8266V267.008H58.3826V259.052ZM54.6126 253.02H61.1646V254.788H54.6126V253.02ZM66.4946 253.02H73.0986V254.788H66.4946V253.02ZM72.1626 249.978H75.1526V270.44C75.1526 271.133 75.0746 271.679 74.9186 272.078C74.7799 272.494 74.5026 272.823 74.0866 273.066C73.6879 273.308 73.1852 273.456 72.5786 273.508C71.9892 273.56 71.2872 273.586 70.4726 273.586C70.4379 273.204 70.3426 272.745 70.1866 272.208C70.0306 271.67 69.8572 271.22 69.6666 270.856C70.0826 270.873 70.4899 270.882 70.8886 270.882C71.3046 270.882 71.5906 270.882 71.7466 270.882C71.9026 270.864 72.0066 270.821 72.0586 270.752C72.1279 270.682 72.1626 270.57 72.1626 270.414V249.978ZM54.8986 249.978H63.1406V257.908H54.8986V255.932H60.2286V251.954H54.8986V249.978ZM73.6706 249.978V251.954H67.8206V255.906H73.6706V257.882H64.8566V249.978H73.6706ZM53.0526 249.978H55.9646V273.586H53.0526V249.978ZM88.5686 262.926L90.0766 262.458C90.3712 262.891 90.6399 263.376 90.8826 263.914C91.1426 264.434 91.3159 264.893 91.4026 265.292L89.8166 265.838C89.7299 265.422 89.5652 264.945 89.3226 264.408C89.0972 263.87 88.8459 263.376 88.5686 262.926ZM84.2266 260.95L85.2146 259.754C85.6826 260.066 86.1679 260.438 86.6706 260.872C87.1732 261.305 87.5459 261.695 87.7886 262.042L86.7486 263.42C86.5059 263.056 86.1419 262.64 85.6566 262.172C85.1712 261.704 84.6946 261.296 84.2266 260.95ZM87.1126 258.09L88.9066 258.792C88.5599 259.225 88.2046 259.667 87.8406 260.118C87.4939 260.568 87.1646 260.941 86.8526 261.236L85.4746 260.638C85.7519 260.274 86.0466 259.849 86.3586 259.364C86.6706 258.878 86.9219 258.454 87.1126 258.09ZM88.8806 259.988L90.4926 260.69C90.0592 261.158 89.5999 261.643 89.1146 262.146C88.6292 262.648 88.1526 263.134 87.6846 263.602C87.2166 264.052 86.7746 264.451 86.3586 264.798L85.1626 264.174C85.5786 263.792 86.0119 263.359 86.4626 262.874C86.9306 262.371 87.3726 261.868 87.7886 261.366C88.2219 260.846 88.5859 260.386 88.8806 259.988ZM91.5846 265.76H93.7166V273.04H91.5846V265.76ZM83.9926 263.966C84.8246 263.914 85.7606 263.862 86.8006 263.81C87.8579 263.74 88.9759 263.662 90.1546 263.576V265.162C89.0799 265.266 88.0399 265.361 87.0346 265.448C86.0292 265.517 85.0846 265.586 84.2006 265.656L83.9926 263.966ZM95.1206 262.77L96.7066 262.302C97.0186 262.787 97.3132 263.324 97.5906 263.914C97.8679 264.486 98.0586 264.997 98.1626 265.448L96.5246 265.968C96.4379 265.534 96.2646 265.023 96.0046 264.434C95.7446 263.827 95.4499 263.272 95.1206 262.77ZM90.4146 260.82L91.5326 259.676C92.0526 260.022 92.5726 260.438 93.0926 260.924C93.6299 261.409 94.0286 261.851 94.2886 262.25L93.1446 263.55C92.8846 263.134 92.4946 262.674 91.9746 262.172C91.4546 261.652 90.9346 261.201 90.4146 260.82ZM93.4046 258.064L95.3026 258.766C94.9039 259.268 94.5052 259.754 94.1066 260.222C93.7079 260.69 93.3352 261.106 92.9886 261.47L91.5846 260.846C91.8966 260.464 92.2259 260.005 92.5726 259.468C92.9192 258.93 93.1966 258.462 93.4046 258.064ZM95.2766 259.988L96.9146 260.742C96.4639 261.227 95.9872 261.73 95.4846 262.25C94.9819 262.77 94.4792 263.264 93.9766 263.732C93.4739 264.2 92.9886 264.616 92.5206 264.98L91.3246 264.304C91.7579 263.922 92.2172 263.489 92.7026 263.004C93.2052 262.501 93.6819 261.99 94.1326 261.47C94.5832 260.932 94.9646 260.438 95.2766 259.988ZM90.9346 263.966C91.7319 263.931 92.6419 263.879 93.6646 263.81C94.7046 263.74 95.7966 263.671 96.9406 263.602V265.162C95.9352 265.266 94.9472 265.361 93.9766 265.448C93.0232 265.517 92.1306 265.586 91.2986 265.656L90.9346 263.966ZM84.7986 266.202H86.6966V268.438H89.5046V270.18H84.7986V266.202ZM95.3286 266.202H97.2786V270.18H93.2746V268.438H95.3286V266.202ZM88.2826 265.76H90.3366V268.282C90.3366 268.958 90.2499 269.616 90.0766 270.258C89.9032 270.899 89.5479 271.488 89.0106 272.026C88.4732 272.563 87.6499 273.022 86.5406 273.404C86.4192 273.144 86.2199 272.849 85.9426 272.52C85.6652 272.19 85.4226 271.922 85.2146 271.714C86.1159 271.454 86.7832 271.142 87.2166 270.778C87.6499 270.396 87.9359 269.989 88.0746 269.556C88.2132 269.122 88.2826 268.68 88.2826 268.23V265.76ZM81.6526 253.436H88.2046V255.334H81.6526V253.436ZM93.6126 253.436H100.217V255.334H93.6126V253.436ZM99.1766 250.134H102.167V269.972C102.167 270.717 102.097 271.315 101.959 271.766C101.82 272.234 101.525 272.598 101.075 272.858C100.641 273.118 100.113 273.274 99.4886 273.326C98.8646 273.395 98.1192 273.43 97.2526 273.43C97.2179 273.135 97.1572 272.806 97.0706 272.442C96.9839 272.078 96.8799 271.705 96.7586 271.324C96.6546 270.96 96.5332 270.648 96.3946 270.388C96.8626 270.405 97.3219 270.422 97.7726 270.44C98.2406 270.44 98.5612 270.431 98.7346 270.414C98.9079 270.414 99.0206 270.379 99.0726 270.31C99.1419 270.24 99.1766 270.119 99.1766 269.946V250.134ZM81.9386 250.134H90.1806V258.61H81.9386V256.53H87.2686V252.214H81.9386V250.134ZM100.711 250.134V252.214H94.8606V256.53H100.711V258.61H91.8966V250.134H100.711ZM80.0926 250.134H83.0566V273.56H80.0926V250.134ZM106.301 258.324H129.987V261.418H106.301V258.324ZM117.897 252.318H127.153V255.308H117.897V252.318ZM115.869 249.12H119.197V259.806H115.869V249.12ZM115.869 260.3H119.197V273.534H115.869V260.3ZM118.235 265.266L119.821 262.77C120.479 262.96 121.199 263.186 121.979 263.446C122.759 263.688 123.547 263.957 124.345 264.252C125.142 264.529 125.896 264.806 126.607 265.084C127.317 265.361 127.915 265.621 128.401 265.864L126.737 268.698C126.269 268.438 125.688 268.16 124.995 267.866C124.319 267.571 123.591 267.268 122.811 266.956C122.031 266.644 121.242 266.34 120.445 266.046C119.665 265.751 118.928 265.491 118.235 265.266ZM133.133 259.39H157.209V262.796H133.133V259.39ZM172.679 253.93H182.091V256.114H172.679V253.93ZM172.679 257.414H182.091V259.598H172.679V257.414ZM169.429 260.976H184.405V263.68H169.429V260.976ZM171.301 250.004H183.053V252.656H174.291V262.432H171.301V250.004ZM169.299 270.232C170.391 270.11 171.699 269.963 173.225 269.79C174.75 269.599 176.293 269.4 177.853 269.192L177.983 271.896C176.544 272.138 175.114 272.364 173.693 272.572C172.271 272.78 170.971 272.97 169.793 273.144L169.299 270.232ZM177.983 262.432C178.329 263.732 178.797 264.945 179.387 266.072C179.976 267.181 180.721 268.143 181.623 268.958C182.524 269.772 183.59 270.405 184.821 270.856C184.595 271.064 184.353 271.324 184.093 271.636C183.833 271.965 183.581 272.303 183.339 272.65C183.113 272.996 182.931 273.308 182.793 273.586C181.423 272.979 180.262 272.156 179.309 271.116C178.373 270.076 177.593 268.862 176.969 267.476C176.345 266.089 175.833 264.555 175.435 262.874L177.983 262.432ZM181.805 263.758L184.379 265.162C183.668 265.786 182.931 266.401 182.169 267.008C181.406 267.597 180.713 268.1 180.089 268.516L178.165 267.32C178.563 267.008 178.988 266.652 179.439 266.254C179.889 265.838 180.323 265.413 180.739 264.98C181.155 264.529 181.51 264.122 181.805 263.758ZM171.379 261.756H174.369V270.648L171.379 271.142V261.756ZM161.603 261.782H167.817V264.564H161.603V261.782ZM166.413 261.782H169.507C169.507 261.782 169.498 261.86 169.481 262.016C169.481 262.154 169.481 262.319 169.481 262.51C169.481 262.683 169.472 262.839 169.455 262.978C169.333 264.988 169.203 266.635 169.065 267.918C168.943 269.2 168.787 270.197 168.597 270.908C168.406 271.618 168.181 272.13 167.921 272.442C167.626 272.771 167.314 273.005 166.985 273.144C166.673 273.3 166.309 273.404 165.893 273.456C165.546 273.525 165.087 273.56 164.515 273.56C163.96 273.577 163.362 273.568 162.721 273.534C162.703 273.1 162.617 272.606 162.461 272.052C162.305 271.497 162.105 271.029 161.863 270.648C162.4 270.682 162.894 270.708 163.345 270.726C163.795 270.743 164.142 270.752 164.385 270.752C164.575 270.752 164.74 270.734 164.879 270.7C165.035 270.648 165.173 270.561 165.295 270.44C165.468 270.249 165.615 269.868 165.737 269.296C165.875 268.706 165.997 267.84 166.101 266.696C166.222 265.552 166.326 264.07 166.413 262.25V261.782ZM161.317 256.374H164.151C164.047 257.362 163.925 258.402 163.787 259.494C163.665 260.586 163.535 261.643 163.397 262.666C163.275 263.671 163.145 264.564 163.007 265.344L160.121 265.032C160.277 264.269 160.424 263.394 160.563 262.406C160.719 261.418 160.866 260.395 161.005 259.338C161.143 258.28 161.247 257.292 161.317 256.374ZM161.525 256.374H166.231V253.306H160.589V250.446H169.065V259.234H161.525V256.374ZM36.8956 306.748C36.1508 306.748 35.4706 306.567 34.8551 306.203C34.2396 305.834 33.7471 305.342 33.3778 304.726C33.0147 304.111 32.8331 303.43 32.8331 302.686C32.8331 301.935 33.0147 301.255 33.3778 300.645C33.7471 300.03 34.2396 299.54 34.8551 299.177C35.4706 298.808 36.1508 298.623 36.8956 298.623C37.6465 298.623 38.3267 298.808 38.9361 299.177C39.5516 299.54 40.0409 300.03 40.4041 300.645C40.7734 301.255 40.9581 301.935 40.9581 302.686C40.9581 303.43 40.7734 304.111 40.4041 304.726C40.0409 305.342 39.5516 305.834 38.9361 306.203C38.3267 306.567 37.6465 306.748 36.8956 306.748ZM65.2206 302.784H68.4186V308.53C68.4186 308.946 68.4792 309.214 68.6006 309.336C68.7392 309.44 69.0512 309.492 69.5366 309.492C69.6232 309.492 69.7879 309.492 70.0306 309.492C70.2732 309.492 70.5332 309.492 70.8106 309.492C71.1052 309.492 71.3826 309.492 71.6426 309.492C71.9026 309.492 72.0932 309.492 72.2146 309.492C72.5092 309.492 72.7259 309.414 72.8646 309.258C73.0206 309.102 73.1332 308.79 73.2026 308.322C73.2719 307.836 73.3239 307.117 73.3586 306.164C73.5839 306.32 73.8612 306.484 74.1906 306.658C74.5372 306.814 74.8926 306.952 75.2566 307.074C75.6206 307.195 75.9412 307.29 76.2186 307.36C76.1146 308.677 75.9326 309.7 75.6726 310.428C75.4126 311.156 75.0312 311.658 74.5286 311.936C74.0432 312.213 73.3759 312.352 72.5266 312.352C72.3879 312.352 72.1972 312.352 71.9546 312.352C71.7292 312.352 71.4779 312.352 71.2006 312.352C70.9232 312.352 70.6372 312.352 70.3426 312.352C70.0652 312.352 69.8139 312.352 69.5886 312.352C69.3632 312.352 69.1899 312.352 69.0686 312.352C68.0459 312.352 67.2486 312.23 66.6766 311.988C66.1219 311.762 65.7406 311.372 65.5326 310.818C65.3246 310.263 65.2206 309.509 65.2206 308.556V302.784ZM59.2146 303.798H62.5166C62.3606 304.872 62.1179 305.86 61.7886 306.762C61.4766 307.663 60.9912 308.486 60.3326 309.232C59.6739 309.96 58.7812 310.601 57.6546 311.156C56.5279 311.71 55.0892 312.196 53.3386 312.612C53.2519 312.334 53.1132 312.022 52.9226 311.676C52.7319 311.346 52.5239 311.017 52.2986 310.688C52.0732 310.376 51.8566 310.107 51.6486 309.882C53.1739 309.622 54.4046 309.301 55.3406 308.92C56.2766 308.521 57.0046 308.07 57.5246 307.568C58.0446 307.065 58.4259 306.502 58.6686 305.878C58.9112 305.236 59.0932 304.543 59.2146 303.798ZM58.7986 297.896V301.38H69.2766V297.896H58.7986ZM55.7566 295.088H72.4746V304.162H55.7566V295.088ZM61.5286 288.744H68.5486V291.578H61.5286V288.744ZM57.9146 289.81L61.0346 290.824C60.5146 291.812 59.8819 292.774 59.1366 293.71C58.3912 294.628 57.5939 295.486 56.7446 296.284C55.8952 297.064 55.0372 297.74 54.1706 298.312C54.0146 298.104 53.7892 297.844 53.4946 297.532C53.1999 297.22 52.8966 296.916 52.5846 296.622C52.2726 296.31 51.9952 296.067 51.7526 295.894C53.0006 295.218 54.1706 294.342 55.2626 293.268C56.3719 292.176 57.2559 291.023 57.9146 289.81ZM66.1046 288.744H69.4326C69.9006 289.662 70.4986 290.564 71.2266 291.448C71.9546 292.314 72.7692 293.12 73.6706 293.866C74.5719 294.611 75.5079 295.226 76.4786 295.712C76.2359 295.902 75.9586 296.145 75.6466 296.44C75.3346 296.734 75.0312 297.038 74.7366 297.35C74.4592 297.644 74.2252 297.922 74.0346 298.182C73.0466 297.54 72.0932 296.795 71.1746 295.946C70.2732 295.096 69.4499 294.186 68.7046 293.216C67.9592 292.245 67.3179 291.283 66.7806 290.33H66.1046V288.744ZM91.0126 288.068L93.8986 288.536C93.3266 289.922 92.5986 291.266 91.7146 292.566C90.8479 293.866 89.7039 295.053 88.2826 296.128C88.0572 295.781 87.7366 295.426 87.3206 295.062C86.9219 294.68 86.5579 294.394 86.2286 294.204C87.0779 293.632 87.8059 293.008 88.4126 292.332C89.0366 291.656 89.5652 290.954 89.9986 290.226C90.4319 289.48 90.7699 288.761 91.0126 288.068ZM91.7406 289.992H96.8366V292.384H90.2846L91.7406 289.992ZM92.1306 296.024H94.3406C94.2886 296.856 94.1759 297.61 94.0026 298.286C93.8292 298.962 93.5346 299.56 93.1186 300.08C92.7026 300.582 92.1046 301.016 91.3246 301.38C91.2032 301.12 91.0126 300.825 90.7526 300.496C90.4926 300.166 90.2499 299.906 90.0246 299.716C90.8566 299.352 91.4026 298.866 91.6626 298.26C91.9399 297.653 92.0959 296.908 92.1306 296.024ZM95.3286 296.128H97.5906V298.234C97.5906 298.476 97.6079 298.624 97.6426 298.676C97.6946 298.728 97.8159 298.754 98.0066 298.754C98.0759 298.754 98.1712 298.754 98.2926 298.754C98.4312 298.754 98.5699 298.754 98.7086 298.754C98.8646 298.754 98.9686 298.754 99.0206 298.754C99.1766 298.754 99.2806 298.736 99.3326 298.702C99.4019 298.65 99.4539 298.572 99.4886 298.468C99.6966 298.606 99.9912 298.745 100.373 298.884C100.754 299.022 101.101 299.126 101.413 299.196C101.291 299.768 101.066 300.166 100.737 300.392C100.407 300.6 99.9479 300.704 99.3586 300.704C99.2719 300.704 99.1506 300.704 98.9946 300.704C98.8386 300.704 98.6739 300.704 98.5006 300.704C98.3272 300.704 98.1626 300.704 98.0066 300.704C97.8679 300.704 97.7552 300.704 97.6686 300.704C97.0272 300.704 96.5332 300.634 96.1866 300.496C95.8572 300.34 95.6319 300.088 95.5106 299.742C95.3892 299.378 95.3286 298.875 95.3286 298.234V296.128ZM86.7746 303.694H102.947V306.268H86.7746V303.694ZM96.4206 304.552C96.8886 306.042 97.6686 307.238 98.7606 308.14C99.8526 309.024 101.387 309.604 103.363 309.882C103.051 310.176 102.721 310.584 102.375 311.104C102.045 311.624 101.794 312.083 101.621 312.482C100.078 312.152 98.7952 311.658 97.7726 311C96.7499 310.341 95.9179 309.509 95.2766 308.504C94.6352 307.481 94.1239 306.268 93.7426 304.864L96.4206 304.552ZM90.4926 294.256H100.113V296.7H90.4926V302.888H87.9186V294.256H87.9446H90.4926ZM99.4366 294.256H102.089V302.862H99.4366V294.256ZM95.7966 289.992H96.4466L96.8886 289.862L98.8646 291.11C98.6046 291.63 98.3012 292.193 97.9546 292.8C97.6252 293.389 97.2786 293.961 96.9146 294.516C96.5506 295.053 96.2039 295.538 95.8746 295.972C95.6146 295.781 95.2766 295.556 94.8606 295.296C94.4446 295.036 94.0806 294.828 93.7686 294.672C94.0286 294.29 94.2886 293.848 94.5486 293.346C94.8259 292.843 95.0686 292.34 95.2766 291.838C95.5019 291.318 95.6752 290.876 95.7966 290.512V289.992ZM93.3786 301.588H96.2126C96.1259 303.044 95.9526 304.361 95.6926 305.54C95.4326 306.718 94.9906 307.758 94.3666 308.66C93.7426 309.561 92.8499 310.332 91.6886 310.974C90.5272 311.632 89.0019 312.178 87.1126 312.612C86.9912 312.248 86.7746 311.823 86.4626 311.338C86.1679 310.87 85.8819 310.488 85.6046 310.194C87.2859 309.882 88.6292 309.483 89.6346 308.998C90.6399 308.495 91.3939 307.897 91.8966 307.204C92.4166 306.51 92.7719 305.704 92.9626 304.786C93.1706 303.85 93.3092 302.784 93.3786 301.588ZM78.6106 301.198C79.6506 300.972 80.8899 300.669 82.3286 300.288C83.7846 299.906 85.2492 299.508 86.7226 299.092L87.1126 301.9C85.7779 302.298 84.4259 302.697 83.0566 303.096C81.7046 303.494 80.4479 303.858 79.2866 304.188L78.6106 301.198ZM79.0266 293.06H86.9826V295.92H79.0266V293.06ZM81.7566 288.146H84.6166V309.258C84.6166 309.968 84.5386 310.532 84.3826 310.948C84.2439 311.381 83.9752 311.719 83.5766 311.962C83.1952 312.204 82.7099 312.369 82.1206 312.456C81.5486 312.542 80.8292 312.577 79.9626 312.56C79.9279 312.178 79.8326 311.702 79.6766 311.13C79.5206 310.575 79.3472 310.09 79.1566 309.674C79.6419 309.691 80.0839 309.708 80.4826 309.726C80.8986 309.726 81.1846 309.717 81.3406 309.7C81.4966 309.7 81.6006 309.674 81.6526 309.622C81.7219 309.552 81.7566 309.431 81.7566 309.258V288.146ZM105.625 301.432C106.786 301.189 108.173 300.877 109.785 300.496C111.397 300.097 113.009 299.69 114.621 299.274L114.985 302.082C113.511 302.498 112.021 302.914 110.513 303.33C109.022 303.746 107.653 304.118 106.405 304.448L105.625 301.432ZM106.041 293.034H114.673V295.92H106.041V293.034ZM109.187 288.12H112.177V309.284C112.177 310.029 112.099 310.61 111.943 311.026C111.787 311.442 111.492 311.762 111.059 311.988C110.625 312.213 110.088 312.36 109.447 312.43C108.805 312.516 108.034 312.56 107.133 312.56C107.081 312.161 106.968 311.693 106.795 311.156C106.639 310.618 106.465 310.142 106.275 309.726C106.777 309.743 107.263 309.76 107.731 309.778C108.199 309.778 108.519 309.778 108.693 309.778C108.866 309.778 108.987 309.743 109.057 309.674C109.143 309.587 109.187 309.457 109.187 309.284V288.12ZM115.297 293.944H129.779V312.326H126.685V296.908H118.261V312.508H115.297V293.944ZM117.143 300.678H127.543V303.59H117.143V300.678ZM117.247 307.62H127.621V310.61H117.247V307.62ZM120.913 288.172H123.877V309.44H120.913V288.172ZM133.315 304.682H157.001V307.23H133.315V304.682ZM146.913 305.566C147.415 306.554 148.135 307.342 149.071 307.932C150.007 308.504 151.185 308.928 152.607 309.206C154.045 309.466 155.761 309.622 157.755 309.674C157.529 309.882 157.295 310.15 157.053 310.48C156.827 310.826 156.619 311.173 156.429 311.52C156.238 311.884 156.082 312.213 155.961 312.508C154.262 312.404 152.771 312.204 151.489 311.91C150.206 311.632 149.088 311.234 148.135 310.714C147.181 310.211 146.358 309.57 145.665 308.79C144.989 308.01 144.391 307.082 143.871 306.008L146.913 305.566ZM148.343 303.824L149.617 302.082C150.171 302.203 150.778 302.359 151.437 302.55C152.095 302.74 152.737 302.94 153.361 303.148C153.985 303.356 154.505 303.555 154.921 303.746L153.569 305.696C153.187 305.505 152.693 305.297 152.087 305.072C151.48 304.829 150.847 304.604 150.189 304.396C149.53 304.17 148.915 303.98 148.343 303.824ZM142.363 296.206H157.417V298.364H142.363V296.206ZM150.995 294.516H153.933V299.898C153.933 300.539 153.855 301.024 153.699 301.354C153.543 301.683 153.231 301.926 152.763 302.082C152.312 302.255 151.766 302.359 151.125 302.394C150.501 302.411 149.773 302.42 148.941 302.42C148.871 302.056 148.759 301.674 148.603 301.276C148.447 300.86 148.282 300.487 148.109 300.158C148.611 300.175 149.105 300.184 149.591 300.184C150.093 300.184 150.414 300.184 150.553 300.184C150.726 300.184 150.839 300.158 150.891 300.106C150.96 300.054 150.995 299.958 150.995 299.82V294.516ZM132.977 295.868H140.257V298.286H132.977V295.868ZM138.749 288.094H141.557V303.07H138.749V288.094ZM134.199 288.848H136.799V292.124H140.361V294.49H134.199V288.848ZM143.949 299.196L146.003 298C146.471 298.381 146.939 298.814 147.407 299.3C147.875 299.785 148.23 300.236 148.473 300.652L146.263 301.952C146.055 301.553 145.725 301.094 145.275 300.574C144.841 300.054 144.399 299.594 143.949 299.196ZM143.325 291.942L145.015 291.318C145.552 291.63 146.107 292.02 146.679 292.488C147.251 292.956 147.693 293.38 148.005 293.762L146.237 294.438C145.959 294.056 145.535 293.632 144.963 293.164C144.408 292.696 143.862 292.288 143.325 291.942ZM145.977 291.006L147.459 290.226C147.892 290.434 148.343 290.685 148.811 290.98C149.279 291.257 149.721 291.552 150.137 291.864C150.553 292.158 150.891 292.444 151.151 292.722L149.591 293.528C149.348 293.268 149.027 292.99 148.629 292.696C148.23 292.384 147.797 292.08 147.329 291.786C146.878 291.474 146.427 291.214 145.977 291.006ZM153.725 289.368H154.245L154.739 289.264L156.351 290.07C155.779 291.058 155.059 291.907 154.193 292.618C153.326 293.328 152.338 293.935 151.229 294.438C150.119 294.923 148.923 295.322 147.641 295.634C146.358 295.928 145.032 296.162 143.663 296.336C143.559 296.041 143.385 295.703 143.143 295.322C142.917 294.94 142.701 294.628 142.493 294.386C143.723 294.282 144.911 294.117 146.055 293.892C147.216 293.649 148.291 293.337 149.279 292.956C150.284 292.574 151.168 292.115 151.931 291.578C152.693 291.04 153.291 290.408 153.725 289.68V289.368ZM149.201 288.094L151.749 288.666C150.709 289.636 149.469 290.468 148.031 291.162C146.609 291.855 144.937 292.462 143.013 292.982C142.857 292.704 142.623 292.384 142.311 292.02C142.016 291.656 141.747 291.378 141.505 291.188C143.307 290.824 144.85 290.382 146.133 289.862C147.433 289.324 148.455 288.735 149.201 288.094ZM148.603 289.368H154.531V291.058H146.289L148.603 289.368ZM134.537 297.116H137.293V298.442C137.293 298.84 137.232 299.36 137.111 300.002C137.007 300.643 136.807 301.302 136.513 301.978C136.218 302.654 135.776 303.234 135.187 303.72C135.013 303.581 134.779 303.425 134.485 303.252C134.207 303.078 133.921 302.914 133.627 302.758C133.332 302.602 133.063 302.48 132.821 302.394C133.323 301.995 133.696 301.544 133.939 301.042C134.181 300.522 134.337 300.019 134.407 299.534C134.493 299.031 134.537 298.632 134.537 298.338V297.116ZM143.377 302.264H146.471V304.63C146.471 305.254 146.375 305.886 146.185 306.528C146.011 307.169 145.682 307.802 145.197 308.426C144.711 309.032 144.018 309.604 143.117 310.142C142.215 310.679 141.054 311.156 139.633 311.572C138.211 312.005 136.461 312.352 134.381 312.612C134.207 312.23 133.956 311.788 133.627 311.286C133.297 310.8 132.985 310.384 132.691 310.038C134.545 309.83 136.105 309.57 137.371 309.258C138.636 308.946 139.659 308.599 140.439 308.218C141.236 307.836 141.843 307.446 142.259 307.048C142.692 306.632 142.987 306.216 143.143 305.8C143.299 305.366 143.377 304.95 143.377 304.552V302.264ZM160.173 298.39H184.249V301.796H160.173V298.39ZM199.719 292.93H209.131V295.114H199.719V292.93ZM199.719 296.414H209.131V298.598H199.719V296.414ZM196.469 299.976H211.445V302.68H196.469V299.976ZM198.341 289.004H210.093V291.656H201.331V301.432H198.341V289.004ZM196.339 309.232C197.431 309.11 198.739 308.963 200.265 308.79C201.79 308.599 203.333 308.4 204.893 308.192L205.023 310.896C203.584 311.138 202.154 311.364 200.733 311.572C199.311 311.78 198.011 311.97 196.833 312.144L196.339 309.232ZM205.023 301.432C205.369 302.732 205.837 303.945 206.427 305.072C207.016 306.181 207.761 307.143 208.663 307.958C209.564 308.772 210.63 309.405 211.861 309.856C211.635 310.064 211.393 310.324 211.133 310.636C210.873 310.965 210.621 311.303 210.379 311.65C210.153 311.996 209.971 312.308 209.833 312.586C208.463 311.979 207.302 311.156 206.349 310.116C205.413 309.076 204.633 307.862 204.009 306.476C203.385 305.089 202.873 303.555 202.475 301.874L205.023 301.432ZM208.845 302.758L211.419 304.162C210.708 304.786 209.971 305.401 209.209 306.008C208.446 306.597 207.753 307.1 207.129 307.516L205.205 306.32C205.603 306.008 206.028 305.652 206.479 305.254C206.929 304.838 207.363 304.413 207.779 303.98C208.195 303.529 208.55 303.122 208.845 302.758ZM198.419 300.756H201.409V309.648L198.419 310.142V300.756ZM188.643 300.782H194.857V303.564H188.643V300.782ZM193.453 300.782H196.547C196.547 300.782 196.538 300.86 196.521 301.016C196.521 301.154 196.521 301.319 196.521 301.51C196.521 301.683 196.512 301.839 196.495 301.978C196.373 303.988 196.243 305.635 196.105 306.918C195.983 308.2 195.827 309.197 195.637 309.908C195.446 310.618 195.221 311.13 194.961 311.442C194.666 311.771 194.354 312.005 194.025 312.144C193.713 312.3 193.349 312.404 192.933 312.456C192.586 312.525 192.127 312.56 191.555 312.56C191 312.577 190.402 312.568 189.761 312.534C189.743 312.1 189.657 311.606 189.501 311.052C189.345 310.497 189.145 310.029 188.903 309.648C189.44 309.682 189.934 309.708 190.385 309.726C190.835 309.743 191.182 309.752 191.425 309.752C191.615 309.752 191.78 309.734 191.919 309.7C192.075 309.648 192.213 309.561 192.335 309.44C192.508 309.249 192.655 308.868 192.777 308.296C192.915 307.706 193.037 306.84 193.141 305.696C193.262 304.552 193.366 303.07 193.453 301.25V300.782ZM188.357 295.374H191.191C191.087 296.362 190.965 297.402 190.827 298.494C190.705 299.586 190.575 300.643 190.437 301.666C190.315 302.671 190.185 303.564 190.047 304.344L187.161 304.032C187.317 303.269 187.464 302.394 187.603 301.406C187.759 300.418 187.906 299.395 188.045 298.338C188.183 297.28 188.287 296.292 188.357 295.374ZM188.565 295.374H193.271V292.306H187.629V289.446H196.105V298.234H188.565V295.374ZM36.8956 345.748C36.1508 345.748 35.4706 345.567 34.8551 345.203C34.2396 344.834 33.7471 344.342 33.3778 343.726C33.0147 343.111 32.8331 342.43 32.8331 341.686C32.8331 340.935 33.0147 340.255 33.3778 339.645C33.7471 339.03 34.2396 338.54 34.8551 338.177C35.4706 337.808 36.1508 337.623 36.8956 337.623C37.6465 337.623 38.3267 337.808 38.9361 338.177C39.5516 338.54 40.0409 339.03 40.4041 339.645C40.7734 340.255 40.9581 340.935 40.9581 341.686C40.9581 342.43 40.7734 343.111 40.4041 343.726C40.0409 344.342 39.5516 344.834 38.9361 345.203C38.3267 345.567 37.6465 345.748 36.8956 345.748ZM61.2166 341.004H74.8666V351.404H71.8766V343.838H64.0766V351.534H61.2166V341.004ZM72.7866 327.12L75.1786 329.564C73.9132 330.049 72.5092 330.474 70.9666 330.838C69.4239 331.184 67.8379 331.47 66.2086 331.696C64.5966 331.921 63.0192 332.103 61.4766 332.242C61.4246 331.878 61.3032 331.436 61.1126 330.916C60.9392 330.378 60.7659 329.936 60.5926 329.59C61.7019 329.468 62.8199 329.33 63.9466 329.174C65.0906 329.018 66.1999 328.836 67.2746 328.628C68.3492 328.42 69.3546 328.194 70.2906 327.952C71.2266 327.692 72.0586 327.414 72.7866 327.12ZM66.5466 330.058H69.5106V342.642H66.5466V330.058ZM59.6046 334.712H76.1666V337.676H59.6046V334.712ZM63.2706 347.634H73.1246V350.468H63.2706V347.634ZM53.1826 329.72L54.9506 327.458C55.4359 327.7 55.9819 327.978 56.5886 328.29C57.1952 328.602 57.7846 328.914 58.3566 329.226C58.9459 329.538 59.4226 329.815 59.7866 330.058L57.9406 332.58C57.5939 332.32 57.1432 332.025 56.5886 331.696C56.0339 331.366 55.4532 331.028 54.8466 330.682C54.2399 330.318 53.6852 329.997 53.1826 329.72ZM51.9346 336.922L53.6246 334.608C54.1099 334.816 54.6646 335.076 55.2886 335.388C55.9126 335.7 56.5192 336.012 57.1086 336.324C57.6979 336.618 58.1746 336.887 58.5386 337.13L56.7966 339.73C56.4499 339.47 55.9906 339.175 55.4186 338.846C54.8639 338.516 54.2746 338.178 53.6506 337.832C53.0266 337.485 52.4546 337.182 51.9346 336.922ZM52.3246 349.142C52.7926 348.483 53.3039 347.712 53.8586 346.828C54.4306 345.926 55.0112 344.973 55.6006 343.968C56.1899 342.945 56.7446 341.931 57.2646 340.926L59.5526 343.006C59.1019 343.907 58.6166 344.834 58.0966 345.788C57.5939 346.741 57.0739 347.677 56.5366 348.596C56.0166 349.514 55.4879 350.398 54.9506 351.248L52.3246 349.142ZM79.5726 343.942H91.7146V346.152H79.5726V343.942ZM79.0006 331.566H92.0006V333.828H79.0006V331.566ZM84.1486 329.746H86.9826V348.388H84.1486V329.746ZM78.8446 348.076C79.9366 348.006 81.1846 347.92 82.5886 347.816C83.9926 347.712 85.4746 347.599 87.0346 347.478C88.6119 347.339 90.1806 347.2 91.7406 347.062L91.7666 349.428C90.2932 349.584 88.8026 349.74 87.2946 349.896C85.8039 350.052 84.3652 350.19 82.9786 350.312C81.6092 350.45 80.3526 350.58 79.2086 350.702L78.8446 348.076ZM82.1466 339.808V340.978H89.0106V339.808H82.1466ZM82.1466 336.792V337.962H89.0106V336.792H82.1466ZM79.6766 334.842H91.5846V342.928H79.6766V334.842ZM90.3366 327.276L91.6886 329.59C90.5966 329.815 89.3659 330.014 87.9966 330.188C86.6446 330.344 85.2579 330.474 83.8366 330.578C82.4152 330.664 81.0546 330.725 79.7546 330.76C79.7026 330.43 79.6072 330.058 79.4686 329.642C79.3472 329.208 79.2086 328.836 79.0526 328.524C80.0232 328.472 81.0199 328.411 82.0426 328.342C83.0652 328.255 84.0706 328.16 85.0586 328.056C86.0639 327.952 87.0086 327.839 87.8926 327.718C88.7939 327.579 89.6086 327.432 90.3366 327.276ZM91.9746 333.022H100.997V335.882H91.9746V333.022ZM99.7226 333.022H102.713C102.713 333.022 102.713 333.108 102.713 333.282C102.713 333.455 102.713 333.654 102.713 333.88C102.713 334.088 102.713 334.261 102.713 334.4C102.643 337.069 102.574 339.34 102.505 341.212C102.435 343.066 102.357 344.6 102.271 345.814C102.201 347.01 102.089 347.946 101.933 348.622C101.794 349.298 101.621 349.783 101.413 350.078C101.118 350.511 100.806 350.814 100.477 350.988C100.165 351.178 99.7919 351.317 99.3586 351.404C98.9599 351.473 98.4746 351.508 97.9026 351.508C97.3306 351.525 96.7326 351.525 96.1086 351.508C96.0912 351.074 95.9959 350.572 95.8226 350C95.6666 349.428 95.4672 348.934 95.2246 348.518C95.7792 348.57 96.2906 348.604 96.7586 348.622C97.2266 348.639 97.5819 348.648 97.8246 348.648C98.0326 348.648 98.2059 348.613 98.3446 348.544C98.4832 348.474 98.6132 348.362 98.7346 348.206C98.8732 347.998 98.9946 347.599 99.0986 347.01C99.2026 346.403 99.2892 345.545 99.3586 344.436C99.4452 343.309 99.5146 341.862 99.5666 340.094C99.6359 338.326 99.6879 336.185 99.7226 333.672V333.022ZM94.4706 327.562H97.4606C97.4606 329.78 97.4346 331.886 97.3826 333.88C97.3479 335.873 97.2352 337.754 97.0446 339.522C96.8712 341.272 96.5679 342.902 96.1346 344.41C95.7186 345.9 95.1292 347.261 94.3666 348.492C93.6039 349.722 92.6246 350.806 91.4286 351.742C91.2726 351.482 91.0646 351.204 90.8046 350.91C90.5619 350.615 90.3019 350.329 90.0246 350.052C89.7646 349.792 89.5046 349.575 89.2446 349.402C90.3366 348.57 91.2206 347.616 91.8966 346.542C92.5726 345.45 93.0926 344.245 93.4566 342.928C93.8206 341.593 94.0719 340.137 94.2106 338.56C94.3492 336.965 94.4272 335.258 94.4446 333.438C94.4619 331.6 94.4706 329.642 94.4706 327.562ZM121.225 341.16H124.007V349.792H121.225V341.16ZM119.821 334.296V336.142H125.645V334.296H119.821ZM117.065 331.93H128.531V338.508H117.065V331.93ZM115.765 339.652H129.675V351.482H126.659V342.148H118.625V351.508H115.765V339.652ZM117.403 343.864H128.219V346.204H117.403V343.864ZM117.429 347.972H128.245V350.468H117.429V347.972ZM115.635 328.212H129.753V330.838H115.635V328.212ZM106.379 331.956H114.179V334.764H106.379V331.956ZM109.525 327.146H112.567V333.256H109.525V327.146ZM112.827 338.014C113.017 338.135 113.277 338.334 113.607 338.612C113.936 338.889 114.291 339.192 114.673 339.522C115.054 339.834 115.401 340.128 115.713 340.406C116.025 340.683 116.241 340.882 116.363 341.004L114.543 343.526C114.352 343.248 114.101 342.928 113.789 342.564C113.494 342.2 113.182 341.827 112.853 341.446C112.523 341.064 112.203 340.709 111.891 340.38C111.596 340.033 111.327 339.747 111.085 339.522L112.827 338.014ZM113.035 331.956H113.633L114.153 331.826L115.895 332.944C115.305 334.625 114.525 336.237 113.555 337.78C112.601 339.305 111.553 340.692 110.409 341.94C109.265 343.188 108.086 344.219 106.873 345.034C106.803 344.756 106.673 344.427 106.483 344.046C106.309 343.647 106.127 343.266 105.937 342.902C105.746 342.538 105.573 342.26 105.417 342.07C106.509 341.428 107.549 340.605 108.537 339.6C109.542 338.577 110.435 337.459 111.215 336.246C112.012 335.015 112.619 333.767 113.035 332.502V331.956ZM109.525 340.848L112.567 337.182V351.56H109.525V340.848ZM143.507 337.754H146.653V341.498H143.507V337.754ZM143.377 341.134L145.899 342.226C145.257 342.884 144.512 343.491 143.663 344.046C142.813 344.6 141.895 345.112 140.907 345.58C139.919 346.03 138.887 346.429 137.813 346.776C136.738 347.105 135.646 347.374 134.537 347.582C134.346 347.252 134.077 346.854 133.731 346.386C133.401 345.918 133.081 345.536 132.769 345.242C133.826 345.086 134.875 344.878 135.915 344.618C136.955 344.34 137.934 344.028 138.853 343.682C139.789 343.335 140.638 342.954 141.401 342.538C142.181 342.104 142.839 341.636 143.377 341.134ZM147.615 341.238C148.325 343.248 149.478 344.895 151.073 346.178C152.667 347.46 154.773 348.336 157.391 348.804C157.183 349.012 156.957 349.272 156.715 349.584C156.472 349.913 156.238 350.251 156.013 350.598C155.805 350.944 155.631 351.256 155.493 351.534C153.551 351.1 151.896 350.45 150.527 349.584C149.157 348.734 148.005 347.66 147.069 346.36C146.133 345.06 145.361 343.534 144.755 341.784L147.615 341.238ZM153.855 342.85L156.273 344.696C155.735 345.025 155.155 345.354 154.531 345.684C153.907 345.996 153.291 346.29 152.685 346.568C152.095 346.828 151.532 347.062 150.995 347.27L148.967 345.58C149.469 345.354 150.015 345.086 150.605 344.774C151.211 344.462 151.801 344.132 152.373 343.786C152.962 343.439 153.456 343.127 153.855 342.85ZM135.993 348.752C137.015 348.648 138.177 348.535 139.477 348.414C140.777 348.275 142.146 348.128 143.585 347.972C145.041 347.798 146.479 347.634 147.901 347.478L147.979 350.026C146.627 350.199 145.257 350.364 143.871 350.52C142.501 350.693 141.175 350.858 139.893 351.014C138.627 351.17 137.466 351.308 136.409 351.43L135.993 348.752ZM133.445 340.198H156.871V342.876H133.445V340.198ZM140.959 331.54L156.611 330.084L156.923 332.606L141.271 334.14L140.959 331.54ZM150.007 328.966L151.333 327.172C151.818 327.276 152.329 327.414 152.867 327.588C153.404 327.744 153.924 327.917 154.427 328.108C154.947 328.281 155.38 328.446 155.727 328.602L154.349 330.578C154.019 330.387 153.603 330.196 153.101 330.006C152.615 329.798 152.095 329.607 151.541 329.434C151.003 329.243 150.492 329.087 150.007 328.966ZM145.197 327.302H148.291C148.377 328.602 148.594 329.824 148.941 330.968C149.305 332.112 149.747 333.117 150.267 333.984C150.804 334.833 151.376 335.5 151.983 335.986C152.607 336.471 153.239 336.705 153.881 336.688C154.21 336.688 154.444 336.506 154.583 336.142C154.721 335.778 154.825 335.145 154.895 334.244C155.224 334.521 155.614 334.781 156.065 335.024C156.533 335.266 156.957 335.448 157.339 335.57C157.217 336.679 157.009 337.528 156.715 338.118C156.42 338.707 156.03 339.114 155.545 339.34C155.077 339.548 154.479 339.652 153.751 339.652C152.589 339.652 151.515 339.34 150.527 338.716C149.556 338.092 148.689 337.216 147.927 336.09C147.181 334.963 146.575 333.654 146.107 332.164C145.639 330.673 145.335 329.052 145.197 327.302ZM139.373 327.12L142.285 328.108C141.695 329.165 140.985 330.188 140.153 331.176C139.321 332.146 138.437 333.048 137.501 333.88C136.565 334.694 135.62 335.405 134.667 336.012C134.511 335.821 134.294 335.578 134.017 335.284C133.757 334.989 133.479 334.694 133.185 334.4C132.907 334.105 132.665 333.862 132.457 333.672C133.826 332.944 135.135 331.999 136.383 330.838C137.631 329.676 138.627 328.437 139.373 327.12ZM136.981 331.956L139.087 329.85L139.971 330.11V339.288H136.981V331.956ZM139.035 345.372L141.089 343.318L142.025 343.604V349.714H139.035V345.372ZM160.173 337.39H184.249V340.796H160.173V337.39ZM204.789 328.836L206.843 327.12C207.241 327.38 207.657 327.683 208.091 328.03C208.541 328.376 208.957 328.723 209.339 329.07C209.737 329.416 210.058 329.728 210.301 330.006L208.091 331.904C207.883 331.592 207.588 331.262 207.207 330.916C206.843 330.552 206.444 330.188 206.011 329.824C205.595 329.46 205.187 329.13 204.789 328.836ZM187.551 331.566H210.951V334.608H187.551V331.566ZM188.539 337.572H199.797V340.588H188.539V337.572ZM192.465 339.288H195.585V348.102H192.465V339.288ZM187.551 347.686C188.591 347.512 189.813 347.313 191.217 347.088C192.638 346.845 194.137 346.585 195.715 346.308C197.309 346.03 198.895 345.744 200.473 345.45L200.681 348.232C199.259 348.544 197.821 348.856 196.365 349.168C194.909 349.462 193.505 349.748 192.153 350.026C190.801 350.32 189.553 350.589 188.409 350.832L187.551 347.686ZM200.343 327.224H203.697C203.645 329.373 203.671 331.47 203.775 333.516C203.896 335.561 204.087 337.476 204.347 339.262C204.607 341.047 204.919 342.616 205.283 343.968C205.647 345.32 206.045 346.377 206.479 347.14C206.929 347.902 207.406 348.284 207.909 348.284C208.203 348.284 208.42 347.911 208.559 347.166C208.715 346.42 208.827 345.224 208.897 343.578C209.261 343.942 209.694 344.297 210.197 344.644C210.717 344.99 211.193 345.242 211.627 345.398C211.488 347.044 211.254 348.318 210.925 349.22C210.613 350.104 210.188 350.71 209.651 351.04C209.131 351.386 208.455 351.56 207.623 351.56C206.687 351.56 205.855 351.239 205.127 350.598C204.399 349.956 203.766 349.072 203.229 347.946C202.691 346.802 202.241 345.458 201.877 343.916C201.513 342.373 201.218 340.7 200.993 338.898C200.767 337.078 200.603 335.18 200.499 333.204C200.395 331.228 200.343 329.234 200.343 327.224ZM36.8956 384.748C36.1508 384.748 35.4706 384.567 34.8551 384.203C34.2396 383.834 33.7471 383.342 33.3778 382.726C33.0147 382.111 32.8331 381.43 32.8331 380.686C32.8331 379.935 33.0147 379.255 33.3778 378.645C33.7471 378.03 34.2396 377.54 34.8551 377.177C35.4706 376.808 36.1508 376.623 36.8956 376.623C37.6465 376.623 38.3267 376.808 38.9361 377.177C39.5516 377.54 40.0409 378.03 40.4041 378.645C40.7734 379.255 40.9581 379.935 40.9581 380.686C40.9581 381.43 40.7734 382.111 40.4041 382.726C40.0409 383.342 39.5516 383.834 38.9361 384.203C38.3267 384.567 37.6465 384.748 36.8956 384.748Z" fill="black"/>
<path d="M71.7466 366.198L73.6966 368.668C72.3446 368.893 70.8799 369.084 69.3026 369.24C67.7426 369.396 66.1306 369.526 64.4666 369.63C62.8026 369.734 61.1299 369.82 59.4486 369.89C57.7672 369.959 56.1379 370.002 54.5606 370.02C54.5432 369.638 54.4652 369.205 54.3266 368.72C54.1879 368.217 54.0492 367.801 53.9106 367.472C55.4706 367.454 57.0652 367.411 58.6946 367.342C60.3239 367.255 61.9272 367.16 63.5046 367.056C65.0819 366.952 66.5726 366.83 67.9766 366.692C69.3806 366.536 70.6372 366.371 71.7466 366.198ZM62.3606 368.746H65.4806V390.56H62.3606V368.746ZM52.4026 371.528H75.6726V374.336H52.4026V371.528ZM57.5246 375.168H60.4106V388.896H57.5246V375.168ZM52.7406 378.054H59.1106V380.784H52.7406V378.054ZM51.9866 384.996C52.8186 384.77 53.8239 384.476 55.0026 384.112C56.1812 383.73 57.3859 383.34 58.6166 382.942L59.1106 385.386C58.1226 385.802 57.1259 386.226 56.1206 386.66C55.1326 387.093 54.1966 387.483 53.3126 387.83L51.9866 384.996ZM73.6186 377.118L75.7246 379.38C74.7886 379.917 73.7746 380.428 72.6826 380.914C71.6079 381.382 70.5679 381.798 69.5626 382.162C69.4932 381.867 69.3632 381.512 69.1726 381.096C68.9992 380.68 68.8259 380.324 68.6526 380.03C69.2419 379.77 69.8399 379.475 70.4466 379.146C71.0532 378.816 71.6252 378.478 72.1626 378.132C72.7172 377.785 73.2026 377.447 73.6186 377.118ZM67.4306 375.194H70.3426V384.996C70.3426 385.429 70.3772 385.706 70.4466 385.828C70.5332 385.932 70.7326 385.984 71.0446 385.984C71.0966 385.984 71.2006 385.984 71.3566 385.984C71.5299 385.984 71.7032 385.984 71.8766 385.984C72.0672 385.984 72.2492 385.984 72.4226 385.984C72.5959 385.984 72.7172 385.984 72.7866 385.984C72.9772 385.984 73.1246 385.923 73.2286 385.802C73.3326 385.663 73.4019 385.412 73.4366 385.048C73.4886 384.684 73.5319 384.138 73.5666 383.41C73.8612 383.635 74.2599 383.86 74.7626 384.086C75.2826 384.294 75.7419 384.441 76.1406 384.528C76.0539 385.62 75.8979 386.469 75.6726 387.076C75.4472 387.665 75.1266 388.081 74.7106 388.324C74.2946 388.584 73.7486 388.714 73.0726 388.714C72.9512 388.714 72.7692 388.714 72.5266 388.714C72.3012 388.714 72.0586 388.714 71.7986 388.714C71.5386 388.714 71.2959 388.714 71.0706 388.714C70.8452 388.714 70.6719 388.714 70.5506 388.714C69.7186 388.714 69.0772 388.601 68.6266 388.376C68.1759 388.15 67.8639 387.769 67.6906 387.232C67.5172 386.677 67.4306 385.932 67.4306 384.996V375.194ZM98.7866 366.198L100.737 368.668C99.3846 368.893 97.9199 369.084 96.3426 369.24C94.7826 369.396 93.1706 369.526 91.5066 369.63C89.8426 369.734 88.1699 369.82 86.4886 369.89C84.8072 369.959 83.1779 370.002 81.6006 370.02C81.5832 369.638 81.5052 369.205 81.3666 368.72C81.2279 368.217 81.0892 367.801 80.9506 367.472C82.5106 367.454 84.1052 367.411 85.7346 367.342C87.3639 367.255 88.9672 367.16 90.5446 367.056C92.1219 366.952 93.6126 366.83 95.0166 366.692C96.4206 366.536 97.6772 366.371 98.7866 366.198ZM89.4006 368.746H92.5206V390.56H89.4006V368.746ZM79.4426 371.528H102.713V374.336H79.4426V371.528ZM84.5646 375.168H87.4506V388.896H84.5646V375.168ZM79.7806 378.054H86.1506V380.784H79.7806V378.054ZM79.0266 384.996C79.8586 384.77 80.8639 384.476 82.0426 384.112C83.2212 383.73 84.4259 383.34 85.6566 382.942L86.1506 385.386C85.1626 385.802 84.1659 386.226 83.1606 386.66C82.1726 387.093 81.2366 387.483 80.3526 387.83L79.0266 384.996ZM100.659 377.118L102.765 379.38C101.829 379.917 100.815 380.428 99.7226 380.914C98.6479 381.382 97.6079 381.798 96.6026 382.162C96.5332 381.867 96.4032 381.512 96.2126 381.096C96.0392 380.68 95.8659 380.324 95.6926 380.03C96.2819 379.77 96.8799 379.475 97.4866 379.146C98.0932 378.816 98.6652 378.478 99.2026 378.132C99.7572 377.785 100.243 377.447 100.659 377.118ZM94.4706 375.194H97.3826V384.996C97.3826 385.429 97.4172 385.706 97.4866 385.828C97.5732 385.932 97.7726 385.984 98.0846 385.984C98.1366 385.984 98.2406 385.984 98.3966 385.984C98.5699 385.984 98.7432 385.984 98.9166 385.984C99.1072 385.984 99.2892 385.984 99.4626 385.984C99.6359 385.984 99.7572 385.984 99.8266 385.984C100.017 385.984 100.165 385.923 100.269 385.802C100.373 385.663 100.442 385.412 100.477 385.048C100.529 384.684 100.572 384.138 100.607 383.41C100.901 383.635 101.3 383.86 101.803 384.086C102.323 384.294 102.782 384.441 103.181 384.528C103.094 385.62 102.938 386.469 102.713 387.076C102.487 387.665 102.167 388.081 101.751 388.324C101.335 388.584 100.789 388.714 100.113 388.714C99.9912 388.714 99.8092 388.714 99.5666 388.714C99.3412 388.714 99.0986 388.714 98.8386 388.714C98.5786 388.714 98.3359 388.714 98.1106 388.714C97.8852 388.714 97.7119 388.714 97.5906 388.714C96.7586 388.714 96.1172 388.601 95.6666 388.376C95.2159 388.15 94.9039 387.769 94.7306 387.232C94.5572 386.677 94.4706 385.932 94.4706 384.996V375.194ZM106.145 370.982H114.725V373.868H106.145V370.982ZM109.161 366.12H112.047V390.534H109.161V366.12ZM109.135 373.114L110.799 373.816C110.625 374.821 110.4 375.844 110.123 376.884C109.863 377.924 109.551 378.946 109.187 379.952C108.84 380.957 108.459 381.893 108.043 382.76C107.644 383.626 107.219 384.372 106.769 384.996C106.682 384.684 106.561 384.337 106.405 383.956C106.249 383.557 106.075 383.176 105.885 382.812C105.694 382.43 105.521 382.092 105.365 381.798C105.781 381.312 106.171 380.732 106.535 380.056C106.916 379.38 107.271 378.652 107.601 377.872C107.947 377.074 108.251 376.268 108.511 375.454C108.771 374.639 108.979 373.859 109.135 373.114ZM111.839 374.544C111.977 374.717 112.185 374.994 112.463 375.376C112.757 375.757 113.061 376.173 113.373 376.624C113.702 377.074 113.997 377.499 114.257 377.898C114.517 378.279 114.707 378.556 114.829 378.73L113.035 380.836C112.913 380.489 112.74 380.082 112.515 379.614C112.289 379.146 112.047 378.66 111.787 378.158C111.544 377.655 111.301 377.187 111.059 376.754C110.833 376.303 110.634 375.93 110.461 375.636L111.839 374.544ZM115.219 366.978H126.763V369.578H115.219V366.978ZM117.195 372.23L118.521 370.124C119.37 370.332 120.271 370.609 121.225 370.956C122.178 371.302 123.088 371.675 123.955 372.074C124.839 372.455 125.567 372.836 126.139 373.218L124.709 375.584C124.171 375.202 123.478 374.804 122.629 374.388C121.779 373.972 120.878 373.573 119.925 373.192C118.971 372.793 118.061 372.472 117.195 372.23ZM114.803 373.92H127.647V376.624H117.611V390.534H114.803V373.92ZM116.493 378.34H127.725V380.992H116.493V378.34ZM116.493 382.838H127.725V385.516H116.493V382.838ZM126.269 373.92H129.181V387.44C129.181 388.098 129.111 388.627 128.973 389.026C128.834 389.442 128.565 389.771 128.167 390.014C127.768 390.239 127.3 390.378 126.763 390.43C126.225 390.499 125.593 390.534 124.865 390.534C124.847 390.135 124.752 389.658 124.579 389.104C124.405 388.566 124.223 388.116 124.033 387.752C124.414 387.769 124.787 387.778 125.151 387.778C125.515 387.778 125.757 387.778 125.879 387.778C126.139 387.778 126.269 387.656 126.269 387.414V373.92ZM120.445 375.298H123.279V390.404H120.445V375.298ZM125.671 366.978H126.373L126.945 366.822L128.869 368.252C128.331 368.91 127.716 369.569 127.023 370.228C126.329 370.886 125.593 371.51 124.813 372.1C124.033 372.672 123.244 373.166 122.447 373.582C122.256 373.287 121.996 372.949 121.667 372.568C121.337 372.169 121.043 371.857 120.783 371.632C121.441 371.285 122.083 370.878 122.707 370.41C123.331 369.942 123.903 369.456 124.423 368.954C124.96 368.451 125.376 367.983 125.671 367.55V366.978ZM133.133 376.39H157.209V379.796H133.133V376.39ZM160.225 370.982H168.805V373.868H160.225V370.982ZM163.241 366.12H166.127V390.534H163.241V366.12ZM163.215 373.114L164.879 373.816C164.705 374.821 164.48 375.844 164.203 376.884C163.943 377.924 163.631 378.946 163.267 379.952C162.92 380.957 162.539 381.893 162.123 382.76C161.724 383.626 161.299 384.372 160.849 384.996C160.762 384.684 160.641 384.337 160.485 383.956C160.329 383.557 160.155 383.176 159.965 382.812C159.774 382.43 159.601 382.092 159.445 381.798C159.861 381.312 160.251 380.732 160.615 380.056C160.996 379.38 161.351 378.652 161.681 377.872C162.027 377.074 162.331 376.268 162.591 375.454C162.851 374.639 163.059 373.859 163.215 373.114ZM165.919 374.544C166.057 374.717 166.265 374.994 166.543 375.376C166.837 375.757 167.141 376.173 167.453 376.624C167.782 377.074 168.077 377.499 168.337 377.898C168.597 378.279 168.787 378.556 168.909 378.73L167.115 380.836C166.993 380.489 166.82 380.082 166.595 379.614C166.369 379.146 166.127 378.66 165.867 378.158C165.624 377.655 165.381 377.187 165.139 376.754C164.913 376.303 164.714 375.93 164.541 375.636L165.919 374.544ZM169.299 366.978H180.843V369.578H169.299V366.978ZM171.275 372.23L172.601 370.124C173.45 370.332 174.351 370.609 175.305 370.956C176.258 371.302 177.168 371.675 178.035 372.074C178.919 372.455 179.647 372.836 180.219 373.218L178.789 375.584C178.251 375.202 177.558 374.804 176.709 374.388C175.859 373.972 174.958 373.573 174.005 373.192C173.051 372.793 172.141 372.472 171.275 372.23ZM168.883 373.92H181.727V376.624H171.691V390.534H168.883V373.92ZM170.573 378.34H181.805V380.992H170.573V378.34ZM170.573 382.838H181.805V385.516H170.573V382.838ZM180.349 373.92H183.261V387.44C183.261 388.098 183.191 388.627 183.053 389.026C182.914 389.442 182.645 389.771 182.247 390.014C181.848 390.239 181.38 390.378 180.843 390.43C180.305 390.499 179.673 390.534 178.945 390.534C178.927 390.135 178.832 389.658 178.659 389.104C178.485 388.566 178.303 388.116 178.113 387.752C178.494 387.769 178.867 387.778 179.231 387.778C179.595 387.778 179.837 387.778 179.959 387.778C180.219 387.778 180.349 387.656 180.349 387.414V373.92ZM174.525 375.298H177.359V390.404H174.525V375.298ZM179.751 366.978H180.453L181.025 366.822L182.949 368.252C182.411 368.91 181.796 369.569 181.103 370.228C180.409 370.886 179.673 371.51 178.893 372.1C178.113 372.672 177.324 373.166 176.527 373.582C176.336 373.287 176.076 372.949 175.747 372.568C175.417 372.169 175.123 371.857 174.863 371.632C175.521 371.285 176.163 370.878 176.787 370.41C177.411 369.942 177.983 369.456 178.503 368.954C179.04 368.451 179.456 367.983 179.751 367.55V366.978Z" fill="#FF5F17"/>
<rect x="2" y="109" width="150" height="33" fill="#FF5F17"/>
<path d="M22.12 120.56H29V122.52H22.12V120.56ZM18.68 132.16C19.28 132.067 19.9733 131.953 20.76 131.82C21.56 131.687 22.4067 131.547 23.3 131.4C24.1933 131.24 25.08 131.08 25.96 130.92L26.16 133C25 133.267 23.8333 133.527 22.66 133.78C21.4867 134.047 20.42 134.28 19.46 134.48L18.68 132.16ZM20.76 116.9H23.08V132.7H20.76V116.9ZM22.12 116.9H30.1V126.26H22.12V124.2H27.72V118.96H22.12V116.9ZM26.28 124.88C26.5333 126.08 26.88 127.193 27.32 128.22C27.76 129.233 28.32 130.127 29 130.9C29.68 131.673 30.5133 132.273 31.5 132.7C31.3267 132.86 31.14 133.053 30.94 133.28C30.74 133.52 30.5467 133.767 30.36 134.02C30.1867 134.287 30.0467 134.527 29.94 134.74C28.86 134.167 27.9533 133.42 27.22 132.5C26.5 131.567 25.9067 130.487 25.44 129.26C24.9733 128.033 24.5933 126.687 24.3 125.22L26.28 124.88ZM29.18 126.4L31.06 127.7C30.5133 128.233 29.9333 128.76 29.32 129.28C28.72 129.787 28.1667 130.22 27.66 130.58L26.18 129.44C26.5 129.173 26.84 128.867 27.2 128.52C27.5733 128.173 27.9333 127.813 28.28 127.44C28.6267 127.067 28.9267 126.72 29.18 126.4ZM13.48 116.86H18.46V119.02H15.72V134.8H13.48V116.86ZM17.8 116.86H18.22L18.56 116.78L20.2 117.72C20.0133 118.307 19.8133 118.927 19.6 119.58C19.3867 120.233 19.1733 120.88 18.96 121.52C18.7467 122.16 18.5333 122.74 18.32 123.26C18.9733 124.033 19.3933 124.767 19.58 125.46C19.78 126.14 19.88 126.773 19.88 127.36C19.88 128.027 19.8067 128.573 19.66 129C19.5133 129.427 19.2733 129.76 18.94 130C18.78 130.12 18.5933 130.213 18.38 130.28C18.18 130.347 17.9733 130.4 17.76 130.44C17.5733 130.467 17.3533 130.48 17.1 130.48C16.86 130.48 16.6133 130.48 16.36 130.48C16.3467 130.173 16.2933 129.813 16.2 129.4C16.12 128.987 16 128.633 15.84 128.34C16.0267 128.353 16.1933 128.36 16.34 128.36C16.5 128.36 16.64 128.36 16.76 128.36C16.8667 128.36 16.9667 128.347 17.06 128.32C17.1667 128.28 17.2667 128.233 17.36 128.18C17.48 128.087 17.5667 127.947 17.62 127.76C17.6867 127.56 17.7133 127.32 17.7 127.04C17.7 126.573 17.6 126.04 17.4 125.44C17.2133 124.827 16.82 124.187 16.22 123.52C16.3667 123.067 16.5133 122.567 16.66 122.02C16.82 121.473 16.9667 120.927 17.1 120.38C17.2467 119.82 17.38 119.3 17.5 118.82C17.6333 118.327 17.7333 117.92 17.8 117.6V116.86ZM38.56 119.68V120.36H46.88V119.68H38.56ZM38.56 117.84V118.52H46.88V117.84H38.56ZM36.26 116.62H49.3V121.58H36.26V116.62ZM38.14 127.66V128.36H47.44V127.66H38.14ZM38.14 125.76V126.46H47.44V125.76H38.14ZM35.9 124.5H49.8V129.64H35.9V124.5ZM41.62 124.92H43.94V133.5H41.62V124.92ZM33.72 122.18H51.94V123.9H33.72V122.18ZM35.48 130.3H50.18V131.82H35.48V130.3ZM33.68 132.56H51.98V134.3H33.68V132.56ZM60.2079 133V130.784L65.3854 125.99C65.8258 125.564 66.1951 125.18 66.4934 124.839C66.7964 124.499 67.0261 124.165 67.1823 123.838C67.3386 123.507 67.4167 123.149 67.4167 122.766C67.4167 122.339 67.3196 121.973 67.1255 121.665C66.9314 121.352 66.6662 121.113 66.33 120.947C65.9939 120.777 65.6127 120.692 65.1866 120.692C64.7415 120.692 64.3532 120.782 64.0218 120.962C63.6904 121.142 63.4347 121.4 63.2548 121.736C63.0748 122.072 62.9849 122.472 62.9849 122.936H60.0658C60.0658 121.984 60.2813 121.158 60.7121 120.457C61.143 119.757 61.7467 119.214 62.5232 118.831C63.2997 118.447 64.1946 118.256 65.2079 118.256C66.2496 118.256 67.1563 118.44 67.9281 118.81C68.7046 119.174 69.3083 119.681 69.7391 120.33C70.17 120.978 70.3854 121.722 70.3854 122.56C70.3854 123.109 70.2765 123.651 70.0587 124.186C69.8457 124.721 69.4645 125.315 68.9153 125.969C68.366 126.617 67.5919 127.396 66.5928 128.305L64.4692 130.386V130.486H70.5772V133H60.2079ZM79.3087 133.32C78.0871 133.315 77.0359 133.014 76.1553 132.418C75.2793 131.821 74.6046 130.957 74.1311 129.825C73.6624 128.694 73.4304 127.332 73.4351 125.741C73.4351 124.155 73.6695 122.804 74.1382 121.686C74.6117 120.569 75.2864 119.719 76.1624 119.136C77.043 118.549 78.0918 118.256 79.3087 118.256C80.5255 118.256 81.5719 118.549 82.4479 119.136C83.3286 119.723 84.0056 120.576 84.4791 121.693C84.9526 122.806 85.187 124.155 85.1822 125.741C85.1822 127.337 84.9455 128.701 84.472 129.832C84.0033 130.964 83.3309 131.828 82.455 132.425C81.579 133.021 80.5303 133.32 79.3087 133.32ZM79.3087 130.77C80.142 130.77 80.8072 130.351 81.3044 129.513C81.8016 128.675 82.0478 127.418 82.043 125.741C82.043 124.638 81.9294 123.72 81.7021 122.986C81.4796 122.252 81.1624 121.7 80.7504 121.331C80.3432 120.962 79.8626 120.777 79.3087 120.777C78.4801 120.777 77.8172 121.191 77.32 122.02C76.8229 122.848 76.5719 124.089 76.5672 125.741C76.5672 126.859 76.6785 127.792 76.901 128.54C77.1283 129.283 77.4479 129.842 77.8598 130.216C78.2717 130.585 78.7547 130.77 79.3087 130.77ZM93.8782 133.32C92.6566 133.315 91.6055 133.014 90.7248 132.418C89.8488 131.821 89.1741 130.957 88.7006 129.825C88.2319 128.694 87.9999 127.332 88.0046 125.741C88.0046 124.155 88.239 122.804 88.7077 121.686C89.1812 120.569 89.8559 119.719 90.7319 119.136C91.6126 118.549 92.6613 118.256 93.8782 118.256C95.0951 118.256 96.1415 118.549 97.0174 119.136C97.8981 119.723 98.5752 120.576 99.0487 121.693C99.5221 122.806 99.7565 124.155 99.7518 125.741C99.7518 127.337 99.515 128.701 99.0415 129.832C98.5728 130.964 97.9005 131.828 97.0245 132.425C96.1486 133.021 95.0998 133.32 93.8782 133.32ZM93.8782 130.77C94.7115 130.77 95.3768 130.351 95.8739 129.513C96.3711 128.675 96.6173 127.418 96.6126 125.741C96.6126 124.638 96.4989 123.72 96.2717 122.986C96.0491 122.252 95.7319 121.7 95.32 121.331C94.9128 120.962 94.4322 120.777 93.8782 120.777C93.0496 120.777 92.3867 121.191 91.8896 122.02C91.3924 122.848 91.1415 124.089 91.1367 125.741C91.1367 126.859 91.248 127.792 91.4705 128.54C91.6978 129.283 92.0174 129.842 92.4293 130.216C92.8413 130.585 93.3242 130.77 93.8782 130.77ZM117.775 121.96H123.735V124.12H117.775V121.96ZM117.775 126.96H123.735V129.12H117.775V126.96ZM116.535 117.02H125.095V133.42H122.675V119.18H118.835V133.42H116.535V117.02ZM114.675 132.1H126.455V134.26H114.675V132.1ZM110.595 116.02L112.715 116.76C112.448 117.28 112.168 117.813 111.875 118.36C111.581 118.893 111.295 119.413 111.015 119.92C110.735 120.413 110.461 120.847 110.195 121.22L108.575 120.56C108.815 120.147 109.061 119.68 109.315 119.16C109.568 118.627 109.808 118.087 110.035 117.54C110.261 116.993 110.448 116.487 110.595 116.02ZM112.995 118.4L115.035 119.24C114.541 120 114.008 120.8 113.435 121.64C112.861 122.467 112.281 123.26 111.695 124.02C111.108 124.78 110.561 125.447 110.055 126.02L108.595 125.28C108.981 124.827 109.375 124.313 109.775 123.74C110.175 123.167 110.568 122.573 110.955 121.96C111.355 121.347 111.728 120.733 112.075 120.12C112.435 119.493 112.741 118.92 112.995 118.4ZM107.515 120.76L108.655 119.12C109.001 119.413 109.361 119.747 109.735 120.12C110.108 120.48 110.448 120.84 110.755 121.2C111.075 121.56 111.315 121.893 111.475 122.2L110.255 124.06C110.095 123.753 109.861 123.407 109.555 123.02C109.261 122.62 108.935 122.227 108.575 121.84C108.215 121.44 107.861 121.08 107.515 120.76ZM112.515 123.22L114.215 122.48C114.481 122.92 114.741 123.393 114.995 123.9C115.248 124.407 115.468 124.907 115.655 125.4C115.841 125.88 115.981 126.313 116.075 126.7L114.235 127.54C114.155 127.167 114.028 126.733 113.855 126.24C113.681 125.733 113.475 125.22 113.235 124.7C113.008 124.167 112.768 123.673 112.515 123.22ZM107.515 124.82C108.435 124.793 109.541 124.753 110.835 124.7C112.141 124.647 113.468 124.587 114.815 124.52L114.795 126.42C113.541 126.513 112.295 126.607 111.055 126.7C109.815 126.78 108.701 126.847 107.715 126.9L107.515 124.82ZM112.855 128.22L114.615 127.64C114.895 128.24 115.155 128.893 115.395 129.6C115.635 130.307 115.808 130.92 115.915 131.44L114.055 132.12C113.961 131.587 113.801 130.96 113.575 130.24C113.348 129.507 113.108 128.833 112.855 128.22ZM108.375 127.76L110.355 128.12C110.248 129.08 110.088 130.027 109.875 130.96C109.661 131.893 109.415 132.68 109.135 133.32C109.001 133.227 108.821 133.12 108.595 133C108.368 132.893 108.135 132.787 107.895 132.68C107.668 132.573 107.468 132.493 107.295 132.44C107.588 131.84 107.821 131.127 107.995 130.3C108.168 129.46 108.295 128.613 108.375 127.76ZM110.695 125.88H112.815V134.8H110.695V125.88ZM136.775 127.86L136.235 121.02L136.135 118.04H139.455L139.355 121.02L138.815 127.86H136.775ZM137.795 133.18C137.288 133.18 136.868 133.013 136.535 132.68C136.201 132.347 136.035 131.927 136.035 131.42C136.035 130.9 136.201 130.473 136.535 130.14C136.868 129.807 137.288 129.64 137.795 129.64C138.301 129.64 138.721 129.807 139.055 130.14C139.388 130.473 139.555 130.9 139.555 131.42C139.555 131.927 139.388 132.347 139.055 132.68C138.721 133.013 138.301 133.18 137.795 133.18ZM157.575 127.86L157.035 121.02L156.935 118.04H160.255L160.155 121.02L159.615 127.86H157.575ZM158.595 133.18C158.088 133.18 157.668 133.013 157.335 132.68C157.001 132.347 156.835 131.927 156.835 131.42C156.835 130.9 157.001 130.473 157.335 130.14C157.668 129.807 158.088 129.64 158.595 129.64C159.101 129.64 159.521 129.807 159.855 130.14C160.188 130.473 160.355 130.9 160.355 131.42C160.355 131.927 160.188 132.347 159.855 132.68C159.521 133.013 159.101 133.18 158.595 133.18Z" fill="white"/>
<path d="M29.2998 225.531H390.352" stroke="black"/>
<g clip-path="url(#clip0_912_331)">
<path d="M112.028 79.4373L110.222 91.0001L121.919 88.8117L112.028 79.4373Z" fill="#FF5F17"/>
<path d="M105.732 83.4539C128.227 83.4539 146.464 65.3802 146.464 43.0853C146.464 20.7903 128.227 2.71667 105.732 2.71667C83.2363 2.71667 65 20.7903 65 43.0853C65 65.3802 83.2363 83.4539 105.732 83.4539Z" fill="#FF5F17"/>
<path d="M199.069 13.5763L208.58 6.66807L198.751 0L199.069 13.5763Z" fill="#FF5F17"/>
<path d="M206.446 72.3091C222.319 56.5442 222.291 30.9571 206.385 15.1587C190.478 -0.639746 164.715 -0.666891 148.842 15.098C132.969 30.8629 132.996 56.4501 148.903 72.2485C164.81 88.0469 190.573 88.0741 206.446 72.3091Z" fill="#FF5F17"/>
<path d="M255.698 79.4373L253.892 91.0001L265.589 88.8117L255.698 79.4373Z" fill="#FF5F17"/>
<path d="M249.402 83.4539C271.898 83.4539 290.134 65.3802 290.134 43.0853C290.134 20.7903 271.898 2.71667 249.402 2.71667C226.906 2.71667 208.67 20.7903 208.67 43.0853C208.67 65.3802 226.906 83.4539 249.402 83.4539Z" fill="#FF5F17"/>
<path d="M342.739 13.5763L352.25 6.66807L342.422 0L342.739 13.5763Z" fill="#FF5F17"/>
<path d="M350.114 72.3069C365.987 56.542 365.96 30.9549 350.053 15.1565C334.147 -0.641944 308.384 -0.669089 292.511 15.0958C276.638 30.8608 276.665 56.4479 292.572 72.2463C308.479 88.0447 334.241 88.0719 350.114 72.3069Z" fill="#FF5F17"/>
</g>
<path d="M96.2772 38.5498H126.635V41.7748H96.2772V38.5498ZM103.114 27.2408H107.586V35.9698H103.114V27.2408ZM112.918 27.2408H117.519V35.9698H112.918V27.2408ZM97.1372 29.3478H127.581V37.1308H97.1372V34.2498H122.851V32.2288H97.1372V29.3478ZM107.586 47.1928L111.929 48.1388C108.618 51.3208 104.318 53.7288 98.5562 55.7498C97.9972 54.8038 96.7932 53.3848 95.8902 52.7828C101.222 51.3208 105.264 49.2568 107.586 47.1928ZM107.586 49.7728H121.174V52.5678H104.791L107.586 49.7728ZM120.142 49.7728H121.002L121.776 49.6008L124.657 51.4498C119.325 57.6418 108.231 60.2218 97.6102 61.2968C97.2232 60.2648 96.4062 58.6738 95.7182 57.7708C105.522 57.1258 116.014 54.8898 120.142 50.3748V49.7728ZM106.296 51.5788C110.682 55.2768 119.884 57.0398 129.903 57.4698C129 58.4158 127.925 60.1788 127.366 61.3398C117.003 60.5658 107.844 58.1578 102.555 53.1268L106.296 51.5788ZM104.447 42.7208H108.532V44.5698C108.532 45.4728 108.79 45.6018 110.166 45.6018C110.811 45.6018 113.864 45.6018 114.681 45.6018C115.713 45.6018 115.928 45.3008 116.1 43.7958C116.874 44.2688 118.379 44.6988 119.411 44.9138C119.067 47.7518 117.992 48.5258 115.24 48.5258C114.337 48.5258 110.467 48.5258 109.65 48.5258C105.436 48.5258 104.447 47.6658 104.447 44.6128V42.7208ZM125.431 38.5498H126.119L126.85 38.4208L130.247 39.1088C129.43 41.3878 128.355 43.9248 127.495 45.5588L123.41 44.6988C124.098 43.2368 124.958 40.9578 125.431 39.0658V38.5498ZM100.706 42.2478L104.146 43.7098C103.243 45.6878 101.953 47.7948 99.9322 49.1278L96.6642 46.9778C98.4272 45.9028 99.9322 43.9678 100.706 42.2478ZM108.36 42.1188L111.026 40.1838C112.617 41.0008 114.509 42.2478 115.498 43.1508L112.703 45.3438C111.757 44.3118 109.822 42.8928 108.36 42.1188ZM117.691 43.5378L120.873 41.8608C122.679 43.2798 124.743 45.3868 125.689 46.9348L122.292 48.7408C121.475 47.2358 119.497 45.0858 117.691 43.5378ZM108.446 20.9628H113.821V26.4238H108.446V20.9628ZM95.2882 23.4998H129.129V27.3698H95.2882V23.4998ZM92.8372 23.4998H97.5242V36.3568C97.5242 43.4948 96.9222 54.3738 92.9662 61.2108C92.1492 60.3508 90.0852 58.8458 89.0532 58.3728C92.5792 52.0088 92.8372 42.8498 92.8372 36.3568V23.4998ZM165.98 28.7458H195.908V33.7768H165.98V28.7458ZM164.217 41.4308H194.274V46.3758H164.217V41.4308ZM159.229 55.0618H198.101V60.0928H159.229V55.0618ZM175.956 20.9628H181.331V57.5558H175.956V20.9628ZM166.023 21.4788L171.355 22.6828C169.463 29.3478 166.324 35.9698 162.97 40.0978C161.938 39.1948 159.659 37.6898 158.326 36.9588C161.723 33.3468 164.475 27.4128 166.023 21.4788ZM228.76 24.9188H265.955V29.0898H228.76V24.9188ZM238.736 37.3888H258.086V40.7428H238.736V37.3888ZM238.736 42.5058H258.086V45.9028H238.736V42.5058ZM228.33 47.7088H266.342V51.9658H228.33V47.7088ZM254.044 25.8218C256.796 29.9068 262.3 33.8198 267.675 35.7118C266.6 36.6578 265.095 38.5068 264.364 39.7108C258.817 37.2598 253.313 32.5728 250.045 27.3698L254.044 25.8218ZM236.156 31.7988H258.043V35.6688H241.445V49.6008H236.156V31.7988ZM231.125 56.4378C237.962 56.2228 248.97 55.6638 259.247 55.1048L259.161 59.0608C249.314 59.8348 238.779 60.4798 231.641 60.9528L231.125 56.4378ZM238.392 49.2568L244.498 49.4718C243.165 52.7828 241.445 56.0508 240.112 58.2438L235.124 57.7708C236.371 55.3198 237.704 51.8368 238.392 49.2568ZM252.195 52.9978L256.581 50.9338C259.29 53.3848 262.988 56.9968 264.794 59.3618L260.107 61.7698C258.516 59.4048 254.99 55.6208 252.195 52.9978ZM243.337 20.9628L248.669 21.8658C245.315 29.2188 239.596 35.7978 229.835 40.3128C229.233 39.1088 227.771 37.3028 226.739 36.4428C235.855 32.7018 241.015 26.7678 243.337 20.9628ZM321.64 53.8578L325.424 51.2778C328.692 53.0408 333.078 55.7498 335.357 57.7708L331.272 60.6518C329.294 58.7168 324.994 55.7928 321.64 53.8578ZM301.817 41.0438H330.541V44.9568H301.817V41.0438ZM296.7 46.7628H335.701V50.8478H296.7V46.7628ZM297.302 22.3818H334.841V26.4238H297.302V22.3818ZM313.556 47.4938H318.802V56.4378C318.802 58.7168 318.415 59.9208 316.738 60.6088C315.104 61.3398 313.04 61.3828 310.202 61.3828C309.987 60.0068 309.256 58.0718 308.654 56.8248C310.331 56.9108 312.266 56.9108 312.825 56.8678C313.427 56.8678 313.556 56.7388 313.556 56.2658V47.4938ZM305.257 51.1918L309.987 52.8258C307.536 56.0078 303.623 59.1898 300.269 61.1248C299.409 60.2218 297.517 58.5018 296.399 57.7278C299.753 56.1798 303.236 53.6858 305.257 51.1918ZM304.612 32.4008V35.5828H327.488V32.4008H304.612ZM299.839 28.7028H332.605V39.3238H299.839V28.7028ZM308.912 23.9298H313.642V37.8188H308.912V23.9298ZM318.157 23.9298H322.973V37.8188H318.157V23.9298Z" fill="white"/>
<defs>
<clipPath id="clip0_912_331">
<rect width="297" height="91" fill="white" transform="translate(65)"/>
</clipPath>
</defs>
</svg>
