<svg width="523" height="99" viewBox="0 0 523 99" fill="none" xmlns="http://www.w3.org/2000/svg">
<path d="M0.769531 0H65.7695C82.3381 0 95.7695 13.4315 95.7695 30V98H0.769531V0Z" fill="#FF5F17"/>
<path d="M108.77 0H171.77C188.338 0 201.77 13.4315 201.77 30V98H108.77V0Z" fill="#39BF63"/>
<path d="M214.77 0H278.77C295.338 0 308.77 13.4315 308.77 30V98H214.77V0Z" fill="#FF5F17"/>
<path d="M321.77 0H384.77C401.338 0 414.77 13.4315 414.77 30V98H321.77V0Z" fill="#39BF63"/>
<path d="M427.77 1H492.77C509.338 1 522.77 14.4315 522.77 31V99H427.77V1Z" fill="#FF5F17"/>
<path d="M58.325 58.4V72.5H50.975V58.4H58.325ZM71.525 52.025V83.75H63.425V52.025H71.525ZM82.625 68.75V75.5H44V68.75H82.625ZM80.675 55.475V62.45H47.9V55.475H80.675ZM27.125 62.075C28.075 62.675 29.075 63.4 30.125 64.25C31.175 65.05 32.15 65.875 33.05 66.725C33.95 67.525 34.7 68.275 35.3 68.975L29.3 73.025C28.8 72.325 28.1 71.55 27.2 70.7C26.35 69.85 25.425 69 24.425 68.15C23.425 67.25 22.45 66.45 21.5 65.75L27.125 62.075ZM41.6 55.85L42.95 55.625L47.75 57.875C46.2 62.575 44.05 66.625 41.3 70.025C38.6 73.425 35.45 76.25 31.85 78.5C28.3 80.75 24.425 82.525 20.225 83.825C19.975 83.225 19.55 82.525 18.95 81.725C18.35 80.925 17.725 80.125 17.075 79.325C16.425 78.525 15.85 77.925 15.35 77.525C19.3 76.475 22.9 75.05 26.15 73.25C29.45 71.4 32.275 69.15 34.625 66.5C37.025 63.8 38.8 60.625 39.95 56.975V55.85H41.6ZM35.75 52.325C33.8 55.975 31.25 59.3 28.1 62.3C24.95 65.3 21.675 67.75 18.275 69.65C17.925 69.2 17.4 68.65 16.7 68C16.05 67.3 15.375 66.625 14.675 65.975C14.025 65.275 13.425 64.725 12.875 64.325C16.175 62.725 19.225 60.725 22.025 58.325C24.875 55.925 27.075 53.275 28.625 50.375L35.75 52.325ZM71.6 22.25V47.525H63.275V22.25H71.6ZM58.55 22.25V47.525H51.125V22.25H58.55ZM46.325 22.25V47.525H38.9V22.25H46.325ZM34.25 22.25V47.525H26.15V22.25H34.25ZM81.05 44.15V51.2H16.625V44.15H81.05ZM81.95 31.925V39.125H15.2V31.925H81.95ZM42.5 55.85V61.7H23.375L29.225 55.85H42.5ZM78.65 19.775V26.825H22.1L29.075 19.775H78.65ZM36.125 14.675C34.275 17.775 32.15 20.75 29.75 23.6C27.4 26.45 24.6 29.125 21.35 31.625C20.6 30.725 19.575 29.775 18.275 28.775C16.975 27.725 15.825 26.925 14.825 26.375C17.775 24.475 20.325 22.325 22.475 19.925C24.625 17.525 26.325 15.225 27.575 13.025L36.125 14.675ZM134 71.975H175.325V80.675H134V71.975ZM129.95 50.375H180.125V83.6H170.45V59H139.175V83.675H129.95V50.375ZM144.65 12.725L154.925 16.1C153.275 19.15 151.5 22.275 149.6 25.475C147.75 28.625 145.875 31.625 143.975 34.475C142.075 37.275 140.275 39.775 138.575 41.975L130.475 38.675C132.175 36.375 133.9 33.75 135.65 30.8C137.4 27.8 139.05 24.725 140.6 21.575C142.2 18.425 143.55 15.475 144.65 12.725ZM162.65 26.075L169.775 20.825C172.275 22.825 174.825 25.075 177.425 27.575C180.075 30.025 182.5 32.525 184.7 35.075C186.95 37.575 188.725 39.9 190.025 42.05L182.225 48.05C181.025 45.9 179.35 43.55 177.2 41C175.1 38.4 172.775 35.8 170.225 33.2C167.675 30.6 165.15 28.225 162.65 26.075ZM121.925 34.55C125.725 34.45 129.95 34.325 134.6 34.175C139.3 33.975 144.225 33.775 149.375 33.575C154.575 33.375 159.85 33.175 165.2 32.975C170.55 32.775 175.8 32.575 180.95 32.375L180.575 41.075C175.375 41.375 170.125 41.65 164.825 41.9C159.525 42.1 154.325 42.325 149.225 42.575C144.175 42.775 139.375 42.975 134.825 43.175C130.275 43.325 126.15 43.475 122.45 43.625L121.925 34.55ZM256.1 21.275H294.5V29.075H256.1V21.275ZM253.625 35.675H296.675V43.55H253.625V35.675ZM253.775 49.925H296.15V57.8H253.775V49.925ZM270.575 13.175H279.5V40.775H270.575V13.175ZM280.1 43.175H288.95V74.225C288.95 76.375 288.675 78.05 288.125 79.25C287.575 80.5 286.575 81.475 285.125 82.175C283.675 82.825 281.9 83.225 279.8 83.375C277.75 83.575 275.325 83.675 272.525 83.675C272.325 82.425 271.95 80.975 271.4 79.325C270.85 77.725 270.275 76.35 269.675 75.2C271.525 75.25 273.325 75.3 275.075 75.35C276.825 75.35 278 75.35 278.6 75.35C279.15 75.35 279.525 75.275 279.725 75.125C279.975 74.925 280.1 74.55 280.1 74V43.175ZM256.775 62.9L263.9 58.775C265.1 59.925 266.3 61.225 267.5 62.675C268.7 64.125 269.8 65.575 270.8 67.025C271.8 68.475 272.575 69.8 273.125 71L265.325 75.575C264.925 74.375 264.25 73.05 263.3 71.6C262.35 70.1 261.3 68.6 260.15 67.1C259.05 65.55 257.925 64.15 256.775 62.9ZM233 17.9H252.275V69.2H233V61.175H243.95V25.925H233V17.9ZM233.45 39.2H248V47.075H233.45V39.2ZM228.725 17.9H237.05V75.875H228.725V17.9ZM377.45 49.4H386.45V79.625H377.45V49.4ZM362.525 46.1H401.525V53.825H362.525V46.1ZM359.6 74.225H403.175V82.1H359.6V74.225ZM364.325 60.05H399.725V67.625H364.325V60.05ZM373.25 23.675V34.025H390.8V23.675H373.25ZM364.925 16.1H399.5V41.6H364.925V16.1ZM344.375 20.3H353.075V83.675H344.375V20.3ZM333.575 34.4H361.1V42.725H333.575V34.4ZM344.825 37.775L350.075 40.025C349.375 42.725 348.525 45.525 347.525 48.425C346.525 51.325 345.425 54.2 344.225 57.05C343.025 59.85 341.75 62.5 340.4 65C339.05 67.5 337.65 69.675 336.2 71.525C335.75 70.225 335.1 68.775 334.25 67.175C333.45 65.525 332.7 64.125 332 62.975C333.3 61.475 334.575 59.725 335.825 57.725C337.125 55.675 338.35 53.5 339.5 51.2C340.65 48.9 341.675 46.6 342.575 44.3C343.475 42 344.225 39.825 344.825 37.775ZM356 14.075L362.075 20.975C359.525 21.925 356.725 22.8 353.675 23.6C350.625 24.4 347.5 25.1 344.3 25.7C341.15 26.25 338.125 26.725 335.225 27.125C335.025 26.125 334.675 24.975 334.175 23.675C333.675 22.325 333.175 21.175 332.675 20.225C335.425 19.775 338.225 19.25 341.075 18.65C343.975 18 346.7 17.275 349.25 16.475C351.85 15.675 354.1 14.875 356 14.075ZM352.925 44.825C353.375 45.175 354.05 45.825 354.95 46.775C355.9 47.675 356.9 48.675 357.95 49.775C359.05 50.875 360.025 51.9 360.875 52.85C361.725 53.75 362.35 54.4 362.75 54.8L357.575 61.925C357.125 60.975 356.525 59.9 355.775 58.7C355.075 57.5 354.3 56.25 353.45 54.95C352.65 53.65 351.85 52.425 351.05 51.275C350.25 50.075 349.55 49.1 348.95 48.35L352.925 44.825ZM443.9 18.275H505.4V25.925H443.9V18.275ZM447.425 29.75H502.475V36.875H447.425V29.75ZM441.125 41.075H507.725V48.725H441.125V41.075ZM469.775 13.25H478.85V47.45H469.775V13.25ZM469.85 43.85L477.65 47.6C475.6 49.75 473.275 51.825 470.675 53.825C468.125 55.825 465.375 57.7 462.425 59.45C459.475 61.15 456.45 62.7 453.35 64.1C450.25 65.45 447.15 66.6 444.05 67.55C443.65 66.85 443.1 66.05 442.4 65.15C441.75 64.25 441.05 63.375 440.3 62.525C439.6 61.625 438.925 60.875 438.275 60.275C441.225 59.475 444.225 58.5 447.275 57.35C450.325 56.2 453.25 54.9 456.05 53.45C458.85 52 461.425 50.475 463.775 48.875C466.175 47.275 468.2 45.6 469.85 43.85ZM482.825 45.275C484.125 50.225 485.95 54.725 488.3 58.775C490.65 62.825 493.65 66.275 497.3 69.125C500.95 71.925 505.325 74.05 510.425 75.5C509.775 76.15 509.075 76.925 508.325 77.825C507.575 78.775 506.875 79.75 506.225 80.75C505.575 81.8 505.025 82.725 504.575 83.525C499.025 81.625 494.3 78.975 490.4 75.575C486.55 72.125 483.35 68 480.8 63.2C478.3 58.4 476.225 52.95 474.575 46.85L482.825 45.275ZM500.075 49.775L507.575 55.4C505.675 56.75 503.7 58.1 501.65 59.45C499.6 60.75 497.575 61.975 495.575 63.125C493.575 64.275 491.7 65.3 489.95 66.2L484.325 61.325C485.975 60.325 487.75 59.175 489.65 57.875C491.6 56.575 493.475 55.225 495.275 53.825C497.125 52.425 498.725 51.075 500.075 49.775ZM446.225 75.275C449.275 74.725 452.75 74.075 456.65 73.325C460.6 72.525 464.725 71.675 469.025 70.775C473.375 69.875 477.675 68.95 481.925 68L482.75 76.1C478.85 77 474.875 77.9 470.825 78.8C466.825 79.7 462.95 80.55 459.2 81.35C455.5 82.15 452.075 82.9 448.925 83.6L446.225 75.275ZM456.5 60.05L462.425 54.125L465.575 54.95V76.475H456.5V60.05Z" fill="white"/>
</svg>
