<svg width="859" height="131" viewBox="0 0 859 131" fill="none" xmlns="http://www.w3.org/2000/svg">
<path d="M67.3152 97.2099L67.2652 97.1799C67.2352 97.2699 67.1952 97.3499 67.3152 97.2099Z" fill="#39BF63"/>
<path d="M161.605 4.01L158.645 4.5C157.655 4.67 156.685 4.88 155.705 5.07L149.805 6.25L149.065 6.4L148.335 6.57L146.865 6.92L143.925 7.61L140.985 8.31L140.245 8.49L139.515 8.69L138.055 9.09L132.195 10.69C130.255 11.26 128.325 11.88 126.375 12.47L123.455 13.38L120.565 14.38L117.675 15.38C116.715 15.72 115.735 16.04 114.785 16.41L109.045 18.61C108.075 18.97 107.145 19.38 106.195 19.77L103.345 20.96C102.395 21.37 101.435 21.74 100.495 22.18L97.6754 23.46L94.8554 24.75C94.3854 24.96 93.9154 25.19 93.4554 25.42L92.0654 26.11C84.6054 29.74 77.2654 33.78 70.1254 38.27C67.0154 40.22 63.9454 42.26 60.9154 44.39L58.6454 36.42C56.6754 29.51 46.9854 29.22 44.6154 36.01L36.0554 60.55C35.2654 62.81 33.4254 64.55 31.1154 65.21L6.11538 72.32C-0.794616 74.29 -1.08462 83.98 5.70538 86.35L30.2454 94.91C32.5054 95.7 34.2454 97.54 34.9054 99.85L42.0154 124.85C43.9854 131.76 53.6754 132.05 56.0454 125.26L64.6054 100.72C65.1054 99.28 66.0354 98.06 67.2354 97.19H67.2454C67.2454 97.19 67.2454 97.19 67.2454 97.18C67.9254 96.69 68.6954 96.31 69.5254 96.07L94.5254 88.96C101.435 86.99 101.725 77.3 94.9354 74.93L85.2454 71.55C87.2054 69.3 89.2354 67.08 91.3254 64.91C101.325 54.52 112.705 45.08 125.035 36.67C125.795 36.12 126.585 35.63 127.365 35.12L129.715 33.59L132.075 32.06L134.485 30.61C136.095 29.65 137.695 28.65 139.325 27.71L144.275 24.95L145.515 24.26L146.135 23.91L146.765 23.59L149.295 22.29L151.825 20.99L153.095 20.34L153.735 20.01L154.375 19.71L159.545 17.27C160.415 16.87 161.275 16.44 162.145 16.06L164.775 14.93C178.825 8.83 193.565 3.85 208.735 0C193.095 0.1 177.315 1.39 161.565 4.05L161.605 4.01Z" fill="#39BF63"/>
<g opacity="0.9">
<path d="M810.062 46.1324L814.672 60.7124C815.102 62.0524 816.152 63.1124 817.492 63.5324L832.072 68.1424C836.102 69.4224 836.102 75.1224 832.072 76.4024L817.492 81.0124C816.152 81.4424 815.092 82.4924 814.672 83.8324L810.062 98.4124C808.782 102.442 803.082 102.442 801.802 98.4124L797.192 83.8324C796.762 82.4924 795.712 81.4324 794.372 81.0124L779.792 76.4024C775.762 75.1224 775.762 69.4224 779.792 68.1424L794.372 63.5324C795.712 63.1024 796.772 62.0524 797.192 60.7124L801.802 46.1324C803.082 42.1024 808.782 42.1024 810.062 46.1324Z" fill="#39BF63"/>
<path d="M858.252 44.1524L854.752 50.8924C854.432 51.5124 854.432 52.2524 854.752 52.8724L858.252 59.6124C859.222 61.4724 857.212 63.4824 855.352 62.5124L848.612 59.0124C847.992 58.6924 847.252 58.6924 846.632 59.0124L839.892 62.5124C838.032 63.4824 836.022 61.4724 836.992 59.6124L840.492 52.8724C840.812 52.2524 840.812 51.5124 840.492 50.8924L836.992 44.1524C836.022 42.2924 838.032 40.2824 839.892 41.2524L846.632 44.7524C847.252 45.0724 847.992 45.0724 848.612 44.7524L855.352 41.2524C857.212 40.2824 859.222 42.2924 858.252 44.1524Z" fill="#39BF63"/>
</g>
<g clip-path="url(#clip0_179_188)">
<path d="M152.845 80.9261H153.905C154.467 80.9261 155.216 80.9261 156.214 81.051C157.213 81.1759 158.024 81.2384 158.772 81.2384C159.521 81.2384 160.145 81.2384 160.644 81.3632C161.081 81.4881 161.58 81.5506 162.204 81.5506C162.828 81.5506 163.327 81.5506 163.889 81.5506L165.511 81.6755L165.636 78.1784V70.8097L165.511 67.0628H163.078C162.454 67.0628 161.643 67.0628 160.644 67.1253C159.646 67.1877 158.835 67.2502 158.086 67.2502C156.589 67.5624 155.653 67.6249 155.216 67.5C155.091 67.3751 154.966 67.0004 154.966 66.3135V65.5641C154.966 65.5641 154.904 65.4392 154.904 65.2519C154.779 65.2519 154.717 64.9396 154.717 64.44C154.717 63.9405 154.717 63.2535 154.717 62.4417C154.717 61.6924 154.717 60.943 154.654 60.3185C154.592 59.694 154.592 59.2569 154.592 59.0696C154.592 58.8198 154.592 58.6949 154.592 58.6949C154.592 58.6949 154.779 58.6949 154.966 58.6949C155.153 58.6949 155.902 58.8198 157.213 58.8822C158.523 58.9447 160.457 59.0696 163.078 59.132H166.073L165.948 51.5135V43.77H166.822C166.822 43.77 167.446 43.77 168.007 43.7076C168.569 43.6451 169.13 43.6451 169.692 43.6451C170.254 43.6451 171.002 43.5202 171.876 43.5202C172.749 43.5202 173.561 43.4578 174.309 43.4578H176.868V45.0189L176.93 58.1953H192.841V51.3886C192.904 49.0156 192.966 47.267 193.028 46.143C193.091 45.0189 193.216 44.4569 193.278 44.332C193.278 44.332 193.84 44.332 194.838 44.332C195.836 44.332 197.022 44.332 198.395 44.332H203.386L203.636 45.0189V51.8881L203.386 58.008L204.073 58.2578C204.073 58.2578 204.884 58.2578 205.882 58.3202C206.881 58.3827 208.066 58.3827 209.376 58.3827H213.994V65.5016L208.565 65.6265H203.074V66.1261C203.074 66.6881 203.074 67.5 202.95 68.7489C202.825 69.9978 202.762 71.4966 202.575 73.4949C202.201 77.4915 201.951 79.7396 201.889 80.2392C201.639 80.5514 201.889 80.7388 202.575 80.8637C203.262 80.9886 204.821 81.051 207.13 81.1135C208.565 81.1135 209.938 81.1135 211.248 81.2384C212.559 81.3632 213.495 81.4257 214.181 81.4881H216.178V84.8603C216.178 85.7346 216.178 86.5464 216.115 87.2957C216.053 88.0451 216.053 88.4822 216.053 88.6071C216.053 88.8569 215.866 88.9818 215.679 89.1067C215.491 89.2316 214.93 89.2316 214.056 89.2316C212.559 89.3565 209.938 89.3565 206.257 89.3565C202.575 89.3565 197.583 89.3565 191.406 89.294C185.229 89.2316 180.175 89.2316 176.244 89.2316C172.313 89.2316 169.442 89.2316 167.633 89.1067C166.385 89.1067 164.95 88.9818 163.203 88.9194C161.456 88.8569 159.833 88.7945 158.273 88.7945L153.219 88.6696V87.7953C153.219 86.1092 153.094 84.7354 153.094 83.6738C153.094 82.6122 152.97 81.9253 152.97 81.6755C152.97 81.3632 152.97 81.2384 153.032 81.2384L152.845 80.9261ZM156.776 107.841C156.776 107.841 157.025 107.466 157.587 107.154C158.46 106.592 159.521 105.78 160.832 104.719C162.142 103.657 163.452 102.408 164.763 101.097C166.073 99.7852 167.321 98.4738 168.444 97.1624C169.567 95.851 170.441 94.7894 171.002 93.9776L171.938 92.5413C172.188 92.1666 172.375 91.9793 172.437 91.9793C173.249 92.4789 173.935 93.0409 174.434 93.7278C174.933 94.2898 175.432 94.8519 175.994 95.289C176.556 95.7261 176.93 96.1008 177.117 96.3506C177.679 96.7877 177.991 97.2873 177.991 97.7869C177.991 98.2865 177.679 99.0983 177.117 100.097C176.556 101.284 175.869 102.346 175.12 103.282C174.372 104.219 173.436 105.343 172.25 106.592C171.377 107.466 170.441 108.34 169.505 109.09C168.569 109.839 167.633 110.589 166.697 111.213C165.761 111.838 164.95 112.337 164.201 112.649C163.452 112.962 162.828 113.211 162.329 113.211C162.017 113.211 161.518 113.086 160.956 112.774C160.769 112.649 160.457 112.4 159.958 111.9C159.459 111.4 159.022 110.901 158.523 110.339C158.024 109.777 157.587 109.215 157.213 108.715C156.838 108.216 156.651 107.903 156.651 107.716L156.776 107.841ZM176.493 79.6772V80.4265C176.493 80.4265 176.992 80.5514 177.616 80.5514C178.24 80.5514 179.051 80.6139 179.987 80.6139C180.986 80.6139 182.234 80.6763 183.606 80.6763C184.979 80.6763 186.352 80.6763 187.6 80.8012H190.47C191.219 80.8012 191.593 80.8012 191.593 80.6763C191.593 80.5514 191.656 80.3641 191.656 80.1143C191.656 79.8645 191.718 79.6147 191.78 79.3649C191.843 79.1151 191.78 78.8654 191.78 78.6156C191.905 76.7422 192.092 74.3067 192.217 71.2468C192.342 68.3742 192.467 66.7506 192.467 66.4384C192.467 66.4384 192.155 66.3759 191.718 66.3759H184.542C182.982 66.3759 181.61 66.3759 180.487 66.5008C179.8 66.5008 179.176 66.5632 178.677 66.5632C178.178 66.5632 177.616 66.5632 177.117 66.6257C177.117 66.6257 177.055 67.0628 177.055 67.9371C177.055 68.8114 177.055 69.8105 176.93 71.0595C176.93 72.3084 176.93 73.6198 176.868 74.9312C176.805 76.2426 176.743 77.2417 176.618 77.8662C176.618 78.2409 176.556 78.6156 176.493 78.8654C176.431 79.1151 176.493 79.4274 176.493 79.6772ZM188.473 96.2257L189.347 95.3514C189.784 94.9143 190.221 94.4147 190.72 93.9151C191.281 93.478 191.718 93.1033 192.092 92.7911C192.467 92.4789 192.654 92.2915 192.716 92.1666C192.841 92.1666 193.403 92.4164 194.401 92.9784C194.713 93.1658 195.15 93.4156 195.649 93.6654C196.148 93.9151 196.523 94.1649 196.897 94.3523C197.895 94.7894 198.707 95.289 199.331 95.7886C199.954 96.2881 200.828 97.0375 201.951 97.9742C202.513 98.4738 203.137 98.9734 203.948 99.5979C204.759 100.222 205.757 100.847 207.005 101.471C207.567 101.784 208.066 102.096 208.628 102.47C209.189 102.845 209.626 103.095 210 103.22C210.375 103.345 210.812 103.594 211.436 103.969C212.06 104.344 212.746 104.656 213.495 104.968C214.368 105.405 214.992 105.718 215.304 105.967C215.616 106.217 215.803 106.342 215.803 106.529C215.803 106.842 215.616 107.341 215.429 108.091C215.242 108.84 214.992 109.527 214.68 110.276C214.368 111.026 214.056 111.65 213.682 112.275C213.307 112.899 212.871 113.149 212.434 113.149C211.623 113.149 210.437 112.899 208.877 112.337C207.317 111.775 205.508 110.963 203.449 109.839C202.014 109.09 200.204 107.903 198.083 106.28C195.961 104.656 193.715 102.533 191.219 99.9725L188.099 96.7253L188.536 96.2257H188.473Z" fill="#FF5F17"/>
<path d="M227.659 106.155C227.659 106.155 227.846 105.655 228.158 104.844C228.47 104.032 228.782 103.095 229.219 101.971C229.905 100.285 230.467 98.7237 230.966 97.3499C231.465 95.976 231.839 94.6022 232.151 93.2283C232.463 91.8545 232.713 90.4807 232.962 89.0444C233.212 87.6081 233.337 85.9845 233.524 84.1735C233.649 83.4866 233.711 82.9246 233.711 82.4874C233.711 82.0503 233.774 81.8005 233.898 81.7381C233.898 81.4258 233.898 81.176 233.961 81.0511V79.7397C234.398 76.3051 234.71 72.8081 234.834 69.2486C234.834 68.4992 234.834 67.8748 234.897 67.3752C234.959 66.8756 235.022 66.5634 235.146 66.5634C235.146 66.5634 235.521 66.5009 236.207 66.4385C236.893 66.376 237.892 66.4385 239.14 66.376C240.388 66.3136 241.823 66.376 243.508 66.376H248.936C250.808 66.376 252.618 66.3136 254.302 66.2511C255.987 66.1887 257.422 66.2511 258.67 66.2511H263.038C263.038 66.2511 263.225 66.5634 263.225 67.1254C263.225 67.6874 263.225 68.3743 263.225 69.1862C263.225 69.998 263.225 70.9971 263.225 72.1212C263.225 73.2452 263.163 74.3068 263.038 75.4309C263.038 76.5549 263.038 77.8663 262.913 79.4275C262.788 80.9887 262.788 82.425 262.788 83.7988C262.788 85.0478 262.663 86.1718 262.539 87.171V88.5448C262.539 88.5448 261.852 88.6073 260.979 88.6073C260.105 88.6073 258.857 88.6073 257.172 88.7321C255.488 88.857 253.803 88.9195 252.118 88.9819C250.434 89.0444 248.624 89.1068 246.752 89.2317C245.13 89.2317 243.882 89.2317 242.884 89.3566C241.885 89.4815 241.386 89.4815 241.261 89.544C241.074 89.7937 240.949 90.2309 240.887 90.7929C240.824 91.3549 240.887 91.7921 241.012 91.9794C241.136 91.9794 242.322 91.9794 244.506 92.0419C246.69 92.1043 249.498 92.1043 252.867 92.1043C256.112 92.1043 258.857 92.2292 261.104 92.2292C263.35 92.2292 264.535 92.2916 264.785 92.2916C264.91 92.2916 264.972 92.3541 264.972 92.5414C264.972 92.7288 264.972 93.041 265.097 93.5406C265.222 94.0402 265.159 94.7271 265.159 95.6013V99.1608C265.159 101.097 265.159 102.908 265.097 104.531C265.035 106.155 264.972 107.217 264.972 107.654C264.847 108.091 264.785 108.528 264.785 108.965C264.785 109.402 264.785 109.652 264.785 109.777C264.785 110.089 264.723 110.276 264.535 110.276C264.411 110.401 263.849 110.464 262.851 110.464C261.852 110.464 260.604 110.526 259.107 110.651C257.672 110.651 255.925 110.776 254.053 110.776C252.181 110.776 250.434 110.901 248.998 110.901C247.439 111.026 245.941 111.088 244.568 111.088C243.196 111.088 242.197 111.088 241.511 111.088H239.14V109.839C239.077 109.402 239.015 108.778 238.953 107.966C238.89 107.154 238.828 106.217 238.828 105.281C238.703 104.219 238.641 103.407 238.578 102.908V101.971C238.578 101.971 238.079 102.408 237.58 103.969C237.143 105.281 236.644 106.467 236.02 107.529C235.396 108.59 235.022 109.152 234.772 109.215C234.647 109.215 234.398 109.152 234.086 108.965C233.774 108.778 233.337 108.653 232.775 108.465C232.338 108.216 231.777 107.966 231.153 107.654C230.529 107.341 229.905 107.092 229.406 106.904C228.22 106.592 227.659 106.342 227.659 106.092V106.155ZM230.591 60.0689C230.591 60.0689 231.028 59.7566 231.527 59.4444C232.026 59.1321 232.588 58.695 233.212 58.133C236.02 56.322 238.516 54.1988 240.637 51.7634C242.759 49.3279 244.818 46.7676 246.877 44.0824C247.002 43.9575 247.064 43.7701 247.127 43.6452C247.189 43.5203 247.314 43.3954 247.376 43.2705C247.376 43.2705 247.439 43.1456 247.501 43.1456C247.563 43.1456 247.501 43.0208 247.626 43.0208C247.751 43.0208 248.063 43.2081 248.749 43.6452C249.435 44.0824 250.059 44.5195 250.808 45.0191C251.557 45.5186 252.181 46.0182 252.805 46.5802C253.429 47.1423 253.741 47.4545 253.741 47.6418C253.741 47.7667 253.928 47.9541 254.302 48.2663C254.677 48.5786 255.113 48.9532 255.675 49.3279C256.237 49.7026 256.798 50.1397 257.422 50.5144C258.046 50.8891 258.67 51.2638 259.232 51.576C259.606 51.7634 260.105 52.0132 260.667 52.2629C261.228 52.5127 261.79 52.7625 262.351 53.0123C262.913 53.2621 263.412 53.5119 263.849 53.6992C264.286 53.8866 264.598 54.0739 264.723 54.0739C264.723 54.0739 264.91 54.0739 265.097 54.1988C265.284 54.3237 265.471 54.4486 265.658 54.6984C266.033 54.8857 266.282 55.0731 266.407 55.198C266.532 55.3229 266.532 55.5727 266.407 55.8849C266.282 56.1971 266.22 56.6343 266.095 57.0714C265.97 57.5085 265.846 57.9456 265.721 58.3828C265.596 58.8199 265.409 59.1321 265.222 59.5068C265.035 59.8815 264.91 60.0064 264.723 60.0689C264.535 60.1313 264.286 60.0689 263.911 60.0689C263.537 60.0689 263.1 59.944 262.601 59.8191C262.102 59.6942 261.665 59.5693 261.166 59.3819C260.667 59.1946 260.23 59.0697 259.793 58.8824C259.419 58.7575 258.982 58.5701 258.545 58.3203L257.422 57.7583C257.11 57.5085 256.611 57.2587 255.987 56.9465C255.363 56.6343 254.739 56.2596 254.177 55.8849C253.616 55.5727 252.992 55.2604 252.368 54.8857C251.744 54.511 251.245 54.1988 250.87 53.949C250.558 53.6368 250.246 53.4494 249.934 53.387C249.622 53.3245 249.498 53.2621 249.435 53.2621C249.435 53.387 249.248 53.6368 248.998 54.0115C248.749 54.3862 248.499 54.7608 248.187 55.1355C247.875 55.5102 247.563 55.9473 247.251 56.4469C246.939 56.9465 246.627 57.2587 246.378 57.571L245.255 58.695L247.314 58.8199C248.312 58.9448 249.622 58.9448 251.12 58.9448C252.618 58.9448 254.115 58.8199 255.675 58.6326L256.985 58.5077L257.235 59.0697C257.235 59.0697 257.422 59.5693 257.547 60.0064C257.672 60.4435 257.672 60.8182 257.672 61.3178C257.796 61.9423 257.859 62.3794 257.859 62.6292C257.859 62.879 257.734 63.0663 257.609 63.3161C257.484 63.441 257.172 63.5659 256.798 63.5659C256.424 63.5659 255.55 63.5659 254.365 63.5659H251.744C250.87 63.5659 250.184 63.5659 249.747 63.6908C249.186 63.6908 248.562 63.8157 247.751 63.8157C246.939 63.8157 246.191 63.9406 245.442 63.9406C244.069 63.9406 243.196 63.8781 242.821 63.6908C242.447 63.5035 242.322 63.0663 242.322 62.3794V61.63L241.823 62.0672C241.199 62.6292 240.45 63.0663 239.639 63.5035C238.828 63.9406 237.954 64.3777 236.956 64.9397C235.022 66.0013 233.898 66.5009 233.586 66.5009L233.337 66.0638C233.337 66.0638 233.15 65.8764 233.087 65.7516C233.025 65.6267 232.962 65.5018 232.838 65.4393C232.089 64.69 231.527 63.9406 231.34 63.3786C231.153 62.8165 230.903 62.1921 230.654 61.5676C230.467 61.068 230.342 60.7558 230.279 60.6309C230.217 60.506 230.279 60.3186 230.404 60.1937L230.591 60.0689ZM246.253 75.7431C247.501 75.7431 248.749 75.7431 250.059 75.7431C251.37 75.7431 252.43 75.6807 253.117 75.5558H255.675L255.55 73.7448V72.0587H254.24C253.928 72.0587 253.304 72.0587 252.493 72.1212C251.682 72.1836 250.87 72.2461 249.997 72.2461C249.186 72.371 248.25 72.4334 247.189 72.4334C246.128 72.4334 245.317 72.4959 244.568 72.6208H242.072V74.2444L241.948 75.9305L246.253 75.8056V75.7431ZM241.948 83.1119V83.9862L248.686 83.8613C251.37 83.8613 253.179 83.8613 254.115 83.8613C255.051 83.8613 255.488 83.7364 255.488 83.6115C255.488 83.4866 255.613 83.2992 255.613 82.9245C255.613 82.5499 255.675 82.1752 255.675 81.7381V80.1144H254.427C254.427 80.1144 253.678 80.1144 252.992 80.1144C252.306 80.1144 251.682 80.1769 251.058 80.3018C250.371 80.3018 249.498 80.3018 248.437 80.4267C247.376 80.5516 246.44 80.5516 245.567 80.5516L242.26 80.8013L242.01 81.4883C242.01 81.4883 242.01 81.9254 241.948 82.3001C241.885 82.6748 241.885 82.987 241.885 83.2368L241.948 83.1119ZM247.751 103.22C247.751 103.22 248.686 103.345 249.622 103.345C250.558 103.345 251.682 103.407 252.867 103.407C254.489 103.407 255.613 103.407 256.237 103.407C256.861 103.407 257.172 103.345 257.172 103.22C257.172 103.22 257.297 102.845 257.297 102.283C257.297 101.721 257.36 101.097 257.36 100.347V97.7246H255.238C253.117 97.7246 251.307 97.7245 249.622 97.8494C247.938 97.9743 247.064 97.9743 246.877 97.9743C246.877 98.0992 246.877 98.349 246.877 98.7862C246.877 99.2233 246.815 99.8478 246.69 100.535V102.97L247.688 103.095L247.751 103.22ZM268.466 79.8646C268.466 79.3026 268.466 78.5532 268.466 77.6165C268.466 76.6798 268.466 75.4933 268.529 74.2444C268.591 72.9954 268.529 71.5591 268.591 70.0604C268.654 68.5617 268.591 67.0629 268.591 65.5642C268.591 64.1279 268.654 62.6916 268.716 61.3802C268.778 60.0689 268.716 58.8199 268.778 57.8208C268.841 56.8216 268.778 55.8849 268.841 55.1355C268.903 54.3862 268.841 53.949 268.966 53.7617V52.3254H270.151C270.151 52.3254 270.9 52.2005 271.461 52.2005L273.209 52.0756C273.77 52.0756 274.269 52.0756 274.706 52.0132C275.143 51.9507 275.517 51.9507 275.767 51.9507H276.266L276.204 61.3178V69.2486C276.204 71.7465 276.204 74.1819 276.141 76.6174C276.079 79.0528 276.016 80.9887 276.016 82.4874C276.016 83.9862 275.892 85.1727 275.767 85.8596C275.767 86.3591 275.767 86.9212 275.704 87.6705C275.642 88.4199 275.58 89.0444 275.58 89.6689C275.58 90.4182 275.58 91.0427 275.58 91.5423C275.58 92.0419 275.455 92.3541 275.33 92.6039C275.205 92.8537 274.956 92.9786 274.706 93.041C274.456 93.1035 274.082 93.1035 273.645 93.1035C273.084 93.1035 272.522 93.2283 271.898 93.2283C271.274 93.2283 270.713 93.2908 270.151 93.2908H268.591L268.342 91.1676C268.217 89.9186 268.154 88.4199 268.154 86.6089C268.154 84.798 268.154 82.6123 268.342 79.9271L268.466 79.8646ZM276.952 104.157C276.952 104.157 277.202 104.032 277.639 103.969C278.075 103.907 278.512 103.844 279.011 103.844C280.322 103.719 281.258 103.532 281.882 103.407C282.506 103.282 282.818 103.033 282.88 102.72C282.88 102.595 282.88 102.158 282.88 101.471C282.88 100.784 282.88 100.035 282.88 99.2857C282.755 98.0368 282.693 95.8511 282.693 92.7912C282.693 89.7313 282.693 85.922 282.693 81.3634C282.693 80.7389 282.693 79.6773 282.693 78.241C282.693 76.8047 282.693 75.306 282.693 73.6824V68.2494C282.693 66.2511 282.693 64.5026 282.755 63.0663C282.755 62.317 282.818 61.3802 282.88 60.3811C282.942 59.3819 282.88 58.3203 282.942 57.1963C283.005 56.0722 282.942 54.9482 282.942 53.8241V43.3954L286.686 43.2705C287.809 43.2705 288.745 43.2705 289.494 43.2705C290.243 43.2705 290.68 43.2705 290.804 43.2705C290.804 43.1456 290.929 43.333 290.929 43.7701C290.929 44.2072 290.992 45.0191 290.992 46.1431C290.992 46.8925 290.992 47.6418 290.992 48.2663C290.992 48.8908 290.992 49.2655 290.992 49.4528V51.4511C290.992 52.6376 290.992 54.3862 291.054 56.6343C291.116 58.8824 291.116 61.3802 291.116 64.1904C291.116 67.0005 291.116 70.0604 291.179 73.4326C291.179 84.2359 291.179 92.479 291.304 98.2866C291.428 104.094 291.491 107.404 291.553 108.278C291.553 108.403 291.553 108.653 291.553 108.965C291.553 109.277 291.553 109.59 291.491 109.964C291.428 110.339 291.491 110.589 291.366 110.901C291.241 111.213 291.241 111.338 291.241 111.4C291.241 111.463 290.992 111.525 290.555 111.588C290.118 111.65 289.619 111.775 289.057 111.838C288.433 111.838 287.622 111.963 286.686 112.15C285.75 112.337 284.939 112.4 284.19 112.525C283.005 112.712 281.819 112.837 280.571 112.899C279.323 112.962 278.45 112.962 277.951 112.899C277.701 112.899 277.576 112.275 277.576 111.026C277.576 110.526 277.452 110.089 277.452 109.652C277.452 109.215 277.327 108.903 277.327 108.653C277.202 108.403 277.077 108.091 277.015 107.654C276.952 107.217 276.89 106.842 276.89 106.342C276.89 105.843 276.89 105.53 276.89 105.156C276.89 104.781 276.89 104.531 276.952 104.469V104.157Z" fill="#FF5F17"/>
<path d="M302.597 66.1887C303.159 65.4393 303.658 64.4402 304.22 63.3786C304.781 62.317 305.156 61.2554 305.468 60.2562C305.655 59.7566 305.842 59.2571 305.967 58.7575C306.092 58.2579 306.154 57.6959 306.216 57.1338C306.216 56.5718 306.341 55.6976 306.341 54.5111C306.341 53.3246 306.466 51.7634 306.591 49.89C306.591 48.8908 306.591 48.079 306.653 47.4545C306.716 46.83 306.778 46.4554 306.778 46.3929C306.778 46.3305 307.09 46.268 307.527 46.2056C307.964 46.1431 308.525 46.0807 309.212 45.9558C309.898 45.8309 310.647 45.8309 311.52 45.7684C312.394 45.706 313.267 45.706 314.141 45.706C315.202 45.5811 316.574 45.4562 318.259 45.2064C319.944 44.9566 321.504 44.7068 322.876 44.4571C323.5 44.3322 324.374 44.0824 325.497 43.7701C326.62 43.4579 327.806 43.0832 329.116 42.7085C329.366 42.7085 329.553 42.5836 329.74 42.5836C329.927 42.5836 329.99 42.5836 329.99 42.6461C330.115 42.771 330.302 43.2706 330.489 44.0199C330.676 44.7693 330.863 45.5811 331.05 46.3929C331.175 47.0174 331.238 47.4545 331.238 47.7043C331.238 47.9541 331.113 48.079 330.988 48.2039C330.427 48.641 328.991 49.0781 326.683 49.5777C324.374 50.0773 321.504 50.452 318.01 50.8891C317.261 50.8891 316.637 51.014 316.138 51.0765C315.638 51.1389 315.326 51.2638 315.202 51.3263C315.202 51.3263 315.077 51.576 315.014 51.8258L314.765 52.825V54.1364L315.763 54.1988C316.512 54.1988 318.633 54.3237 322.253 54.4486C324.062 54.4486 325.684 54.5111 327.244 54.5735C328.804 54.636 330.115 54.5735 331.362 54.6984H332.673V59.5068H330.052L327.494 59.6317V60.7558C327.431 62.1921 327.369 63.5659 327.244 64.8773C327.119 66.1887 327.057 66.8756 327.057 67.1254C326.745 67.1254 325.622 67.1254 323.812 67.1254C322.065 67.1254 321.005 67.063 320.568 66.8756C320.443 66.6258 320.318 65.9389 320.256 64.8149C320.193 63.6908 320.069 62.5668 320.006 61.3803V60.6933H318.259C317.76 60.6933 317.261 60.6933 316.699 60.6933C316.138 60.6933 315.701 60.6933 315.389 60.6933L314.203 60.8182L313.205 62.8165C312.831 63.5659 312.394 64.3777 311.832 65.252C311.271 66.1263 310.834 66.8132 310.272 67.5001C309.711 68.187 309.274 68.749 308.9 69.2486C308.525 69.7482 308.151 69.998 307.901 70.1229C307.589 70.2478 307.028 69.998 306.092 69.436C305.156 68.8739 304.157 68.1246 303.097 67.1879C302.722 66.8756 302.473 66.6883 302.473 66.5634C302.473 66.4385 302.473 66.3136 302.473 66.1887H302.597ZM308.213 107.341C310.709 106.717 312.831 106.092 314.64 105.53C316.45 104.968 318.134 104.282 319.757 103.47C320.505 103.157 321.129 102.845 321.629 102.533L322.564 102.033C322.564 102.033 323.126 102.033 323.376 102.221C323.625 102.408 324.062 102.908 324.624 103.657C325.372 104.656 325.872 105.468 326.246 105.968C326.62 106.467 326.745 106.842 326.745 107.092C326.745 107.404 326.371 107.779 325.56 108.341C324.748 108.903 323.937 109.402 323.064 109.964C320.942 110.901 319.257 111.65 317.885 112.212C316.512 112.774 315.389 113.211 314.453 113.524C312.768 114.086 311.645 114.398 311.021 114.585C310.397 114.773 309.898 114.835 309.461 114.835C309.024 114.96 308.712 114.96 308.588 114.835C308.463 114.71 308.276 114.523 308.151 114.148C308.026 113.836 307.901 113.461 307.652 112.899C307.402 112.337 307.152 111.65 306.903 110.838C306.653 110.089 306.466 109.465 306.279 108.965C306.092 108.465 306.029 108.153 305.967 107.903C305.967 107.779 306.716 107.591 308.151 107.217L308.213 107.341ZM311.146 80.3018C311.146 77.2419 311.208 74.8064 311.208 73.1203V69.8731C311.208 69.8731 312.019 69.5609 313.642 69.5609C314.39 69.436 315.202 69.3735 316.2 69.3735C317.198 69.3735 318.072 69.3111 319.008 69.1862C319.881 69.1862 321.129 69.0613 322.814 68.9988C324.499 68.9364 326.121 68.8739 327.743 68.8739C329.428 68.749 331.113 68.6866 332.985 68.6866C334.857 68.6866 336.292 68.6866 337.477 68.6866C338.788 68.6866 340.41 68.6241 342.407 68.5617C344.403 68.4992 346.65 68.5617 349.27 68.5617C351.891 68.5617 353.95 68.5617 355.385 68.5617C356.82 68.5617 357.694 68.5617 358.068 68.6866C358.068 68.5617 358.131 69.1237 358.131 70.2478C358.131 70.9971 358.131 72.5583 358.068 74.9313C358.006 77.3043 357.944 80.6765 357.944 84.9853V90.668C357.944 92.4165 357.944 93.9777 357.944 95.2891C357.944 96.6005 357.944 97.6621 357.944 98.4115V99.7229C357.944 99.7229 357.881 99.9102 357.569 99.9727C357.257 100.035 356.633 100.098 355.76 100.098C355.073 100.098 354.325 100.222 353.513 100.285C352.702 100.347 352.016 100.41 351.454 100.41C349.27 100.66 347.087 100.847 345.027 100.972C342.968 101.097 340.847 101.222 338.725 101.347C336.541 101.471 334.17 101.534 331.674 101.534C329.179 101.534 326.371 101.534 323.313 101.534H316.699C315.077 101.534 313.891 101.534 313.205 101.471C311.895 101.471 311.271 101.409 311.333 101.222C311.333 101.097 311.208 100.535 311.208 99.598C311.208 98.6613 311.146 96.9752 311.146 94.4773C311.146 92.7912 311.271 90.7305 311.271 88.4199C311.271 86.1094 311.395 83.3617 311.395 80.3018H311.146ZM321.129 78.0537C321.129 78.0537 321.629 78.0537 322.377 78.0537C323.126 78.0537 324.124 78.0537 325.31 78.0537C326.496 78.0537 327.993 78.0537 329.678 78.0537C331.362 78.0537 333.11 78.0537 335.044 78.0537H348.584V76.3052C348.584 75.7431 348.584 75.306 348.584 74.9313C348.584 74.5566 348.584 74.3068 348.584 74.1819C348.896 73.9946 348.584 73.8697 347.898 73.8697C347.211 73.8697 345.464 73.9946 342.906 74.1819C341.845 74.3068 340.285 74.3693 338.226 74.4942C336.167 74.6191 334.108 74.744 332.111 74.8689C330.115 74.9938 328.18 75.1187 326.433 75.2436C324.686 75.3684 323.5 75.4309 322.876 75.4309H320.755V76.7423C320.755 77.1794 320.755 77.4917 320.755 77.6165C320.755 77.7414 320.942 77.8663 321.067 77.9288L321.129 78.0537ZM320.942 87.4832H348.958V86.9836C348.958 86.9836 348.958 86.4216 348.896 86.0469C348.834 85.6722 348.834 85.2351 348.834 84.798L348.584 83.3617H342.781C342.781 83.3617 341.533 83.549 339.474 83.549C337.415 83.549 334.857 83.549 331.799 83.549L320.88 83.6739V87.4832H320.942ZM321.129 96.2258L325.934 96.1009C328.305 95.976 330.614 95.9136 332.985 95.7887C335.356 95.6638 337.789 95.6014 340.285 95.4765C342.656 95.3516 344.528 95.2891 345.901 95.1642C347.274 95.0393 348.085 94.9769 348.334 94.852C348.334 94.7271 348.334 94.6022 348.397 94.5398V93.603L348.522 92.479L342.844 92.6039C341.159 92.6039 339.349 92.6039 337.54 92.6039C335.73 92.6039 334.233 92.6039 333.172 92.6039C332.049 92.7288 330.739 92.7288 329.241 92.7288C327.743 92.7288 326.371 92.7288 325.123 92.7912H321.129V96.0385V96.2258ZM334.358 61.1305C334.482 60.6309 334.67 60.1313 334.857 59.5068C335.044 58.8824 335.231 58.4452 335.356 58.0706C335.481 57.3212 335.668 55.9473 335.793 53.949C335.917 51.9507 336.042 49.9524 336.105 47.8917L336.229 46.2056H336.916C336.916 46.2056 337.54 45.9558 338.226 45.8933C338.913 45.8309 339.599 45.7684 340.472 45.7684C341.471 45.6436 342.594 45.5811 343.779 45.4562C344.965 45.3313 346.088 45.2064 347.211 45.0815C348.334 44.9566 349.395 44.8317 350.331 44.7068C351.267 44.5819 352.141 44.4571 352.765 44.3946C353.326 44.2697 354.075 44.0824 354.949 43.895C355.822 43.7077 356.571 43.5203 357.195 43.2706C357.944 43.0208 358.505 42.8334 359.004 42.7085C359.504 42.5836 359.753 42.4587 359.816 42.4587C359.94 42.5836 360.003 42.8334 360.128 43.2706C360.252 43.7077 360.377 44.2073 360.502 44.8317C360.627 45.4562 360.751 46.0182 360.876 46.6427C361.001 47.2672 361.063 47.7668 361.126 48.2039C361.126 48.5161 361.126 48.7035 361.126 48.8284C361.126 48.9533 360.939 48.9533 360.751 48.8284C360.751 48.8284 360.502 48.8284 360.252 48.9533C360.003 49.0781 359.691 49.1406 359.379 49.203C358.817 49.3279 358.006 49.5153 356.945 49.7651C355.885 50.0149 354.574 50.1398 353.077 50.3271C352.765 50.3271 352.078 50.452 351.142 50.5144C350.206 50.5769 349.146 50.7018 348.022 50.8267L344.279 51.2014L343.967 52.1381L343.592 53.387C343.592 53.8241 348.397 53.949 358.006 53.6992H365.993V59.8191H361.75L357.132 59.7566C357.008 59.7566 356.883 59.8815 356.883 60.1938C356.883 60.506 356.883 61.068 356.945 62.0047C356.945 62.5668 356.945 63.1912 357.07 63.8157C357.195 64.4402 357.195 64.9398 357.195 65.1895C357.32 65.814 357.32 66.1263 357.195 66.1263C356.945 66.1263 356.508 66.2511 355.885 66.2511C355.261 66.2511 354.449 66.376 353.451 66.376C352.453 66.376 351.642 66.4385 351.018 66.5009C350.394 66.5634 350.019 66.5009 349.832 66.5009C349.832 66.376 349.832 66.0014 349.707 65.3769C349.582 64.7524 349.582 63.9406 349.582 63.0039L349.333 59.5693H346.338C345.402 59.3819 344.653 59.3195 344.091 59.3195C343.53 59.3195 343.218 59.3195 343.156 59.4444C343.031 59.4444 342.844 59.6942 342.719 60.1313C342.594 60.5684 342.407 61.0056 342.157 61.5052C342.032 62.0672 341.845 62.6292 341.596 63.1912C341.346 63.7533 341.221 64.2528 341.034 64.5651C340.847 65.252 340.66 65.6891 340.535 65.814C340.41 65.9389 340.16 66.0638 339.848 66.0638C339.412 66.0638 338.725 65.9389 337.789 65.6267C336.853 65.3144 335.793 64.9398 334.67 64.3777C333.921 64.1904 333.546 63.9406 333.546 63.5659C333.546 63.1912 333.734 62.3794 334.233 61.068L334.358 61.1305ZM344.403 107.654C344.403 107.654 344.715 107.092 344.965 106.655C345.215 106.217 345.339 105.655 345.527 105.218C345.901 103.969 346.213 103.22 346.338 103.095C346.338 102.97 346.899 102.97 348.022 103.095C349.146 103.22 351.205 103.72 354.262 104.531C354.949 104.719 355.76 104.906 356.633 105.093C357.507 105.281 358.443 105.468 359.441 105.655C360.439 105.843 361.313 105.968 362.249 106.092C363.185 106.217 363.996 106.28 364.682 106.28V107.029C364.682 107.529 364.558 108.091 364.371 108.715C364.183 109.34 364.059 109.964 363.934 110.589C363.809 111.213 363.622 111.713 363.497 112.15C363.372 112.587 363.247 112.837 363.123 112.962C362.499 113.149 360.252 112.837 356.384 112.087C354.449 111.713 352.702 111.338 351.142 110.963C349.582 110.589 348.272 110.214 347.149 109.839C346.712 109.714 346.275 109.59 345.901 109.465C345.527 109.34 345.215 109.277 345.09 109.215C344.715 109.09 344.466 108.965 344.403 108.715C344.341 108.465 344.403 108.153 344.528 107.716L344.403 107.654Z" fill="#FF5F17"/>
<path d="M374.417 106.155C374.541 105.53 374.729 104.719 374.916 103.782C375.103 102.845 375.228 102.033 375.352 101.346C375.477 100.597 375.602 99.7853 375.789 98.7861C375.976 97.787 376.164 96.9127 376.351 95.976C377.037 92.8536 377.599 89.5439 378.098 85.9844C378.597 82.4249 378.847 79.0528 378.847 75.868C378.972 75.2435 379.034 74.4941 379.096 73.6199C379.159 72.7456 379.221 72.0587 379.221 71.4342C379.221 70.8098 379.346 69.873 379.408 68.6241C379.471 67.3751 379.596 66.1262 379.658 64.8148C379.783 62.9414 379.845 61.0055 379.97 59.0697C380.095 57.1338 380.095 55.1979 380.095 53.3245V50.0773H391.888C394.945 50.0773 397.94 50.0773 400.748 50.0773C403.556 50.0773 406.426 50.0773 409.296 49.9524C412.104 49.9524 414.226 49.8899 415.786 49.8899C417.346 49.8899 418.282 49.8899 418.656 49.8275C418.656 49.7026 418.781 49.4528 418.781 49.0157C418.781 48.5785 418.843 47.8292 418.843 46.7676C418.843 45.9557 418.843 45.2064 418.843 44.6443C418.843 44.0823 418.843 43.7701 418.843 43.7076C418.968 43.7076 419.218 43.7076 419.654 43.6452C420.091 43.5827 420.715 43.5203 421.402 43.5203C422.025 43.5203 422.587 43.5203 423.086 43.3954C423.585 43.2705 423.835 43.2705 423.897 43.2705C424.085 43.1456 424.521 43.1456 425.208 43.1456C425.894 43.1456 426.268 43.2705 426.518 43.4579C426.643 43.5827 426.705 44.2072 426.83 45.4562C426.83 45.9557 426.83 46.4553 426.892 46.9549C426.955 47.4545 427.017 47.8916 427.017 48.1414L427.142 49.0157L432.071 49.1406C433.507 49.1406 434.879 49.2654 436.002 49.2654C437.126 49.2654 437.999 49.3279 438.436 49.3279L439.746 49.5777V56.3844H427.454L427.579 59.7566C427.579 60.5684 427.704 61.4427 427.704 62.3794C427.704 63.3161 427.828 64.1903 427.953 65.1895C428.078 66.1887 428.14 67.0005 428.203 67.5625C428.265 68.1245 428.328 68.4368 428.328 68.5616C428.452 68.5616 428.702 68.2494 429.139 67.5625C429.576 66.8756 430.137 66.0013 430.761 65.0022C431.135 64.4401 431.572 63.8781 431.947 63.2536C432.321 62.6292 432.758 62.0047 433.132 61.3178C433.507 61.5051 433.943 61.8173 434.442 62.1296C434.942 62.4418 435.441 62.8789 435.94 63.3161C436.439 63.7532 436.938 64.1903 437.438 64.6899C437.937 65.1895 438.311 65.5017 438.623 65.814C438.623 66.1262 438.374 66.8756 437.812 67.9372C437.25 68.9988 436.626 70.1228 435.94 71.3093C435.254 72.4958 434.567 73.6823 433.881 74.7439C433.195 75.8055 432.758 76.5549 432.508 76.992C432.009 77.7414 431.635 78.4283 431.323 78.9903C431.011 79.5524 430.761 79.9895 430.636 80.4266C430.511 80.8638 430.449 81.3009 430.449 81.8005C430.449 82.3 430.574 82.8621 430.761 83.6114C430.886 84.0486 431.011 84.673 431.135 85.4849C431.26 86.2967 431.385 87.1085 431.447 87.8579C431.759 89.6064 432.134 91.3549 432.571 93.1034C433.007 94.8519 433.507 96.3507 434.006 97.4747C434.255 98.0368 434.505 98.7237 434.817 99.3481C435.129 99.9726 435.441 100.66 435.753 101.222C436.065 101.784 436.377 102.283 436.626 102.658C436.876 103.033 437.126 103.22 437.25 103.22L437.313 103.095C437.313 103.095 437.313 102.97 437.375 102.97C437.5 102.72 437.625 102.533 437.75 102.408C437.874 102.158 437.999 101.908 438.124 101.659C438.249 101.409 438.498 101.097 438.748 100.722C438.873 100.597 438.997 100.347 439.122 99.9726C439.247 99.5979 439.497 99.2233 439.684 98.7861C439.871 98.349 440.058 97.9743 440.183 97.5996C440.308 97.2249 440.37 96.9751 440.37 96.8503C440.37 96.8503 440.62 96.8503 440.932 97.0376C441.244 97.2249 441.618 97.3498 441.993 97.5372C442.367 97.7245 442.804 98.0368 443.24 98.2865C443.677 98.5363 444.052 98.8486 444.364 99.1608L445.674 100.035L444.738 102.845C444.488 103.595 444.301 104.219 444.052 104.781C443.802 105.343 443.677 105.843 443.428 106.342C443.178 106.842 442.928 107.341 442.679 107.779C442.429 108.216 442.055 108.778 441.681 109.402C440.994 110.464 440.37 111.213 439.871 111.65C439.372 112.087 438.623 112.275 437.75 112.337C436.751 112.462 435.878 112.462 435.066 112.337C434.255 112.212 433.382 111.838 432.446 111.4C431.011 110.714 429.825 109.777 428.952 108.59C428.078 107.404 427.204 105.655 426.393 103.282C425.832 101.409 425.27 99.3481 424.833 96.9752C424.397 94.6022 424.022 92.4165 423.71 90.4182C423.71 89.9186 423.585 89.6064 423.461 89.4815V89.1692L421.589 91.0427C421.09 91.5422 420.653 91.9794 420.216 92.3541C419.779 92.7287 419.53 92.9161 419.405 92.9161C419.28 92.9161 418.968 92.6663 418.469 92.2292C417.97 91.792 417.533 91.3549 417.034 90.8553C416.535 90.3557 416.035 89.9186 415.661 89.419C415.287 88.9195 415.037 88.6697 414.975 88.4823C414.975 88.4823 414.975 88.295 415.099 88.1076C415.224 87.9203 415.287 87.733 415.411 87.6081C416.41 86.1718 417.221 84.9853 417.782 84.2359C418.344 83.4865 418.781 82.6123 419.218 81.738C419.592 81.176 419.904 80.5515 420.154 79.9895C420.403 79.4275 420.59 78.9903 420.653 78.6781C420.653 78.3659 420.653 77.8038 420.653 76.992C420.653 76.1802 420.528 74.8688 420.403 73.1203C420.278 71.4967 420.091 69.6857 419.966 67.5625C419.842 65.4393 419.717 63.441 419.592 61.5051C419.592 60.3811 419.592 59.4443 419.467 58.6325C419.342 57.8207 419.342 57.3211 419.342 57.1962C419.342 57.1962 418.344 57.1338 416.535 57.1338C414.725 57.1338 411.605 57.2587 407.237 57.446C405.927 57.5709 404.242 57.6334 402.183 57.6334C400.124 57.6334 398.19 57.6958 396.256 57.8207H389.766V59.3819C389.766 61.4427 389.766 63.441 389.641 65.3768C389.517 67.3127 389.392 69.311 389.142 71.3718C389.142 71.4967 389.142 71.8714 389.017 72.6207C388.893 73.3701 388.83 74.1819 388.705 75.1186C388.705 76.1178 388.581 76.992 388.518 77.6165C388.456 78.241 388.331 78.6781 388.269 78.7406C388.269 78.7406 388.144 79.0528 388.081 79.7397C388.019 80.4266 387.894 81.3009 387.832 82.3C387.645 84.7979 387.458 86.7338 387.208 88.1076C386.958 89.4815 386.834 90.1684 386.646 90.1684C386.522 90.1684 386.522 90.2308 386.522 90.4182C386.646 90.5431 386.709 90.668 386.584 90.7929C386.584 90.9178 386.584 90.9802 386.522 91.0427C386.522 91.0427 386.397 91.1676 386.397 91.3549C386.397 91.5422 386.272 91.8545 386.272 92.1043C386.272 92.4165 386.272 92.9161 386.085 93.4781C385.898 94.0401 385.898 94.5397 385.835 95.0393C385.71 95.6013 385.523 96.4131 385.336 97.3498C385.149 98.2865 384.962 99.2233 384.774 100.098C384.4 101.971 383.901 103.969 383.339 106.092C382.778 108.216 382.091 110.152 381.467 111.9C381.218 112.337 381.031 112.649 380.906 112.712C380.781 112.774 380.656 112.837 380.407 112.712C380.095 112.712 379.596 112.462 378.784 112.025C377.973 111.588 377.1 111.151 376.101 110.464C375.789 110.276 375.477 110.089 375.165 109.839C374.853 109.589 374.541 109.465 374.354 109.34C374.042 109.215 373.855 108.965 373.855 108.653C373.855 108.341 374.105 107.466 374.541 106.03L374.417 106.155ZM385.336 105.655C385.648 104.531 386.022 103.282 386.272 101.908C386.522 100.535 386.771 99.1608 386.834 97.8494C386.834 97.4123 386.958 96.9752 387.021 96.4756C387.083 95.976 387.146 95.6638 387.146 95.4764C387.27 95.2266 387.333 95.0393 387.333 94.9144C387.333 94.7895 387.395 94.6646 387.52 94.6646C387.832 94.6646 388.206 94.7895 388.705 94.8519C389.205 94.9144 389.641 94.9768 390.141 95.1017C390.64 95.2266 391.014 95.2266 391.389 95.2891C391.763 95.3515 392.013 95.3515 392.137 95.3515C392.137 95.6638 392.075 97.2249 391.763 100.098C391.638 101.409 391.513 102.533 391.389 103.407C391.264 104.281 391.139 105.031 390.889 105.593C390.577 106.405 390.265 107.154 389.953 107.841C389.641 108.528 389.267 108.903 388.955 109.027C388.83 109.027 388.643 109.027 388.393 109.027C388.144 109.027 387.77 108.84 387.208 108.653C386.771 108.465 386.397 108.278 386.085 108.153C385.773 108.028 385.523 107.966 385.398 107.903L384.837 107.654L385.398 105.655H385.336ZM390.64 76.8671C390.765 73.1827 390.889 71.122 391.077 70.6224C391.638 70.4975 392.325 70.4351 393.011 70.4351C393.697 70.4351 394.696 70.4351 395.881 70.3102C397.067 70.1853 398.564 70.1853 400.311 70.1853C402.807 70.1853 404.929 70.1853 406.613 70.1853C408.298 70.1853 409.234 70.1228 409.296 69.9979H415.661L415.599 71.3093C415.599 71.7465 415.599 72.4958 415.536 73.6199C415.474 74.7439 415.474 75.9304 415.474 77.1794C415.474 78.4283 415.474 79.5524 415.411 80.4266C415.349 81.3009 415.287 82.0503 415.287 82.7372C415.287 83.4241 415.162 83.9861 415.099 84.4857C415.037 84.9853 414.912 85.5473 414.85 86.0469L414.538 87.9203H412.666C412.167 87.9827 411.605 88.0452 410.856 88.1701C410.108 88.295 409.484 88.3574 408.922 88.4823C407.924 88.6072 406.551 88.7321 404.929 88.857C403.306 88.9819 401.247 89.1068 398.939 89.2317C396.63 89.3566 394.758 89.419 393.448 89.4815C392.137 89.5439 391.326 89.5439 390.952 89.4815C390.952 89.3566 390.952 89.0443 390.827 88.4199C390.702 87.7954 390.702 87.046 390.64 86.0469C390.64 84.7979 390.577 83.3616 390.577 81.8629C390.577 80.3642 390.577 78.6781 390.702 76.8671H390.64ZM391.513 60.8182H399.001C401.185 60.9431 403.369 60.9431 405.553 60.9431C407.737 60.9431 409.421 60.9431 410.544 61.0055L414.538 61.1304V66.5009L411.855 66.7507C411.044 66.7507 410.045 66.7507 408.797 66.8756C407.549 67.0005 406.426 67.0005 405.303 67.0005C402.745 67.1254 399.999 67.3127 397.129 67.4376C393.697 67.5625 391.95 67.6249 391.888 67.5625C391.888 67.4376 391.825 67.1878 391.763 66.8756C391.701 66.5633 391.763 66.1887 391.763 65.8764V64.1279L391.513 60.8182ZM393.448 94.9768C393.448 94.9768 393.76 94.7895 394.072 94.7895C394.384 94.7895 394.758 94.7271 395.195 94.6022C395.632 94.6022 396.131 94.6022 396.755 94.6022C397.379 94.6022 397.94 94.6022 398.564 94.6022C399.375 94.6022 399.937 94.6022 400.187 94.6022C400.436 94.6022 400.561 94.727 400.561 94.8519C400.686 95.2266 400.811 96.1633 400.935 97.5372C401.06 98.911 401.185 100.41 401.31 101.971C401.31 103.595 401.434 104.656 401.622 105.156C401.809 105.655 402.121 105.968 402.62 105.968C403.494 106.217 404.554 106.28 405.865 106.092C407.175 105.905 408.236 105.655 409.109 105.281L410.232 104.781V103.47C410.232 103.095 410.232 102.658 410.295 102.221C410.357 101.784 410.357 101.409 410.357 101.097C410.357 100.535 410.544 100.16 410.919 100.035C411.293 99.9102 412.229 99.8477 413.664 99.7853L415.723 99.5355L415.848 100.035C415.848 100.035 416.035 100.847 416.035 101.846C416.035 102.845 416.035 103.907 416.035 105.156C416.035 107.529 415.973 109.09 415.786 109.964C415.599 110.838 415.287 111.4 414.787 111.713C414.351 112.025 413.727 112.275 412.853 112.525C411.98 112.774 411.044 112.962 409.92 113.211C408.797 113.461 407.674 113.524 406.489 113.649C405.303 113.773 404.118 113.773 402.932 113.773C401.934 113.773 401.185 113.649 400.748 113.586C400.311 113.524 399.875 113.336 399.375 113.024C397.191 112.025 395.694 110.589 394.945 108.84C394.196 107.092 393.697 105.031 393.572 102.783L393.448 99.9726C393.448 99.0359 393.385 98.2241 393.385 97.4747C393.385 96.7254 393.385 96.1633 393.385 95.6638C393.385 95.1642 393.385 94.9144 393.51 94.8519L393.448 94.9768ZM399.188 82.7372C399.188 82.7372 400.623 82.987 403.119 82.987H406.863L407.113 82.0503C407.113 82.0503 407.113 81.3009 407.175 80.6764C407.237 80.0519 407.237 79.4275 407.237 78.8654V76.8047H399.313L399.188 79.7397C399.188 80.5515 399.188 81.3009 399.188 81.8629C399.188 82.4249 399.188 82.7372 399.188 82.7996V82.7372ZM402.058 93.4781C402.058 93.4781 402.433 93.1659 402.807 93.041C403.182 92.9161 403.494 92.7287 403.743 92.6038C404.991 92.0418 405.865 91.8545 406.364 92.1667C406.613 92.4165 407.113 93.4157 407.924 95.1642C408.298 96.0384 408.673 96.7878 408.922 97.3498C409.172 97.9119 409.421 98.4114 409.546 98.7237C409.671 98.8486 409.546 99.0359 409.234 99.2857C408.922 99.5355 408.298 99.9102 407.237 100.41C406.239 100.909 405.553 101.222 405.178 101.346C404.804 101.471 404.679 101.346 404.679 101.159C404.554 100.909 404.367 100.535 404.118 100.098C403.868 99.6604 403.681 99.1608 403.431 98.5988C403.182 98.0368 402.994 97.5372 402.745 96.9752C402.495 96.4131 402.37 95.9135 402.183 95.4764L401.497 93.8528L401.934 93.4781H402.058ZM417.221 97.5996C417.221 97.5996 417.533 97.4747 417.97 97.2874C418.406 97.1 418.843 96.9127 419.405 96.7254C420.59 96.3507 421.402 96.1009 421.838 96.1009C422.275 96.1009 422.525 96.1009 422.649 96.3507C422.649 96.4756 422.837 96.9752 423.086 97.7245C423.336 98.4739 423.585 99.4106 423.835 100.41C424.147 101.534 424.397 102.595 424.709 103.657C425.021 104.719 425.27 105.468 425.52 106.03C425.645 106.53 425.769 106.904 425.894 107.216C426.019 107.529 425.956 107.716 425.832 107.841C425.645 107.966 425.333 108.091 424.958 108.216C424.584 108.341 424.022 108.59 423.336 108.778C421.838 109.152 421.027 109.34 420.902 109.277C420.778 109.277 420.59 108.715 420.216 107.529C419.842 106.342 419.28 104.406 418.469 101.659C418.344 101.284 418.282 100.909 418.157 100.535C418.032 100.16 417.97 99.9102 417.845 99.7228C417.845 99.473 417.72 99.2233 417.595 99.0359C417.47 98.8486 417.408 98.5988 417.283 98.4114C417.096 97.9119 417.034 97.6621 417.159 97.5372L417.221 97.5996ZM430.324 42.5836C430.324 42.5836 431.073 42.0216 431.759 41.5844C432.446 41.1473 432.945 40.96 433.319 40.96C433.444 40.96 433.694 41.1473 434.006 41.4595C434.318 41.7718 434.692 42.1465 435.004 42.646C435.316 43.1456 435.753 43.5827 436.065 44.1448C436.377 44.7068 436.626 45.1439 436.814 45.5811C437.126 46.3304 436.564 47.0798 435.254 47.7667C434.068 48.3287 433.132 48.4536 432.446 48.0165C432.321 47.8916 432.071 47.5794 431.759 47.2047C431.447 46.83 431.198 46.3929 430.886 45.9557C430.574 45.5186 430.324 45.0815 430.075 44.7068C429.825 44.3321 429.638 44.0199 429.513 43.8325C429.388 43.6452 429.638 43.2081 430.262 42.5836H430.324Z" fill="#FF5F17"/>
<path d="M471.257 47.3921H476.436C478.308 47.3921 480.242 47.3921 482.363 47.4546C484.485 47.517 486.232 47.517 487.605 47.5795C488.977 47.6419 490.101 47.5795 490.912 47.5795C491.848 47.5795 492.659 47.6419 493.345 47.6419H494.468C494.468 47.6419 494.78 47.3921 494.78 47.1423C494.78 46.8925 494.468 46.2681 493.969 45.4563C493.532 44.7069 493.283 44.0824 493.283 43.6453C493.283 43.2082 493.47 43.0208 493.782 43.0208C493.907 43.0208 494.156 43.0208 494.531 43.0208C494.905 43.0208 495.28 43.0208 495.654 43.0208C496.091 43.0208 496.652 43.0208 497.339 42.8959C498.025 42.771 498.649 42.771 499.211 42.771C500.022 42.6461 500.646 42.5212 501.082 42.5212C501.519 42.5212 501.894 42.5212 502.143 42.6461C502.393 42.771 502.642 42.9584 502.83 43.3331C503.017 43.7077 503.266 44.0824 503.578 44.6444C503.953 45.2065 504.327 45.6436 504.577 46.0807C504.826 46.5179 505.076 46.7677 505.263 46.8301C505.263 46.8301 505.45 46.8925 505.887 46.955C506.324 47.0174 507.01 46.955 508.009 47.0174C509.007 47.0799 510.38 47.0174 512.002 47.0174H530.908V47.4546C530.908 47.4546 531.158 48.5162 531.158 49.89C531.158 51.2639 531.22 53.0124 531.345 55.0731V62.317H530.534H529.161C528.537 62.317 527.851 62.317 527.164 62.1921C526.416 62.1921 525.729 62.1921 525.293 62.1297C524.856 62.0672 524.481 61.9423 524.232 61.755C523.982 61.5677 523.857 61.2554 523.795 60.8183C523.733 60.3812 523.67 59.8816 523.67 59.1322V56.8841H496.091C493.657 56.8841 491.411 56.8841 489.289 56.8217C487.106 56.8217 485.358 56.7592 484.11 56.7592H481.615L478.994 56.5094V57.8208C478.994 57.8208 478.994 58.5702 478.932 59.2571C478.869 59.944 478.807 60.5685 478.682 61.3179C478.557 62.0672 478.432 62.6917 478.308 63.3162C478.183 63.9406 478.058 64.3778 477.933 64.6276C477.684 64.7525 477.309 64.7525 476.748 64.7525C476.186 64.7525 475.5 64.7525 474.564 64.6276C472.817 64.6276 471.756 64.4402 471.319 64.1904C471.319 63.9406 471.194 63.3786 471.194 62.4419C471.194 61.5052 471.069 60.2563 471.069 58.5702C471.069 57.009 471.007 55.5727 470.945 54.1989C470.882 52.825 470.945 51.6385 470.945 50.5769V49.0158C470.945 48.2664 470.945 47.7044 471.069 47.4546L471.257 47.3921ZM473.253 77.4917C473.253 77.4917 473.753 77.2419 474.377 76.9921C475.001 76.7423 475.812 76.555 476.748 76.3677C478.183 76.0554 479.618 75.5558 481.115 74.8689C482.613 74.182 484.422 73.0579 486.544 71.6217C487.23 71.1845 487.917 70.7474 488.665 70.2478C489.414 69.7482 489.976 69.436 490.413 69.1862C491.723 68.2495 492.284 67.6875 492.035 67.4377C492.035 67.4377 491.661 67.3752 491.099 67.3752C490.537 67.3752 489.851 67.3752 489.102 67.4377C488.291 67.4377 487.293 67.4377 486.232 67.5626C485.171 67.6875 484.173 67.6875 483.424 67.6875L480.367 67.9373V65.0647C480.367 64.3153 480.367 63.5035 480.304 62.8166C480.242 62.1297 480.242 61.5677 480.242 61.2554V60.3812L486.794 60.2563C487.792 60.2563 488.977 60.2563 490.413 60.2563C491.848 60.2563 493.47 60.2563 495.217 60.1938C496.964 60.1314 498.836 60.1938 500.708 60.1314C502.58 60.0689 504.577 60.1314 506.449 60.1314C508.321 60.1314 510.005 60.1314 511.628 60.1314C513.25 60.1314 514.685 60.1314 515.995 60.0689C517.306 60.0065 518.366 60.0689 519.178 60.0065C519.989 59.944 520.55 60.0065 520.8 60.0065H522.048V67.625H520.176C519.614 67.8124 518.429 67.8748 516.807 67.8748C515.184 67.8748 513.25 67.9373 511.128 68.0622C509.069 68.0622 507.385 68.0622 506.012 68.0622C504.639 68.0622 503.953 68.1246 503.89 68.2495L504.015 68.4993C504.826 69.7482 505.513 70.9972 506.074 72.371C506.636 73.7449 507.135 75.0563 507.634 76.4301C508.196 77.8664 508.508 78.6158 508.757 78.6158C509.319 78.4909 510.13 78.1786 511.253 77.4917C512.376 76.8048 513.437 76.1179 514.435 75.306C514.747 75.0563 515.184 74.6816 515.871 74.182C516.557 73.6824 517.243 73.1204 517.992 72.6208C518.741 72.1212 519.49 71.6217 520.176 71.1845C520.862 70.7474 521.362 70.5601 521.736 70.4976C522.048 70.4976 522.422 70.8098 522.859 71.4968C523.296 72.1837 523.795 72.9331 524.232 73.7449C524.669 74.5567 525.043 75.3685 525.355 76.1179C525.667 76.8672 525.854 77.2419 525.854 77.3668C525.854 77.679 525.542 77.9288 524.981 78.0537C524.606 78.3035 523.857 78.7406 522.797 79.4276C521.736 80.1145 520.613 80.8639 519.49 81.8006C519.24 81.9255 519.178 82.0504 519.178 82.3001C519.178 82.5499 519.365 82.9871 519.552 83.7364C519.989 84.9854 520.613 86.2968 521.362 87.733C522.11 89.1693 522.921 90.5432 523.608 91.6672C524.357 92.7913 524.918 93.6031 525.417 94.1027C525.917 94.6023 526.54 95.1643 527.352 95.8512C527.664 96.1634 528.038 96.5381 528.537 97.0377C529.036 97.5373 529.536 97.9744 530.035 98.4115C530.471 98.7238 530.908 99.1609 531.407 99.598C531.907 100.035 532.281 100.347 532.593 100.472C533.342 101.034 533.966 101.471 534.465 101.909C534.964 102.346 535.214 102.658 535.214 102.783C535.214 102.908 534.964 103.407 534.402 104.219C533.903 104.968 533.529 105.718 533.155 106.467C532.78 107.217 532.593 107.841 532.593 108.403C532.468 108.84 532.281 109.152 531.969 109.277C531.657 109.402 531.095 109.402 530.222 109.152C529.348 108.903 528.412 108.528 527.352 108.028C526.291 107.529 525.293 106.967 524.232 106.28C523.171 105.593 522.235 104.844 521.299 104.032C520.363 103.22 519.552 102.346 518.803 101.471C518.054 100.535 517.431 99.7229 516.931 98.9736C516.432 98.2242 515.933 97.4748 515.559 96.7879C515.184 96.101 514.81 95.3516 514.435 94.6647C514.061 93.9778 513.749 93.166 513.499 92.3541C513.063 91.1676 512.688 90.2934 512.314 89.6689C511.94 89.0444 511.752 88.7947 511.752 88.8571C511.628 88.982 511.628 89.4191 511.752 90.106C511.877 90.5432 511.94 91.1677 512.002 92.0419C512.064 92.9162 512.127 93.9778 512.127 95.2267C512.127 96.4757 512.127 97.6622 512.127 98.6613C512.127 99.6605 512.064 100.535 511.94 101.284C511.815 102.72 511.628 103.782 511.44 104.594C511.253 105.406 510.941 106.217 510.504 106.967C509.631 108.84 508.383 110.339 506.823 111.338C505.263 112.337 503.142 113.149 500.521 113.711C499.086 114.023 497.9 114.148 496.964 114.211C496.028 114.273 495.404 114.211 495.155 113.961C495.155 113.836 495.03 113.774 494.905 113.649C494.78 113.524 494.718 113.399 494.718 113.274C494.718 113.149 494.593 112.899 494.531 112.525C494.468 112.15 494.344 111.838 494.281 111.588C494.156 111.213 494.032 110.776 493.907 110.277C493.782 109.777 493.657 109.34 493.595 108.903C493.532 108.466 493.47 108.091 493.408 107.716C493.345 107.341 493.345 107.154 493.345 107.154C493.345 107.154 493.595 107.154 493.844 107.154C494.094 107.154 494.531 107.092 494.968 106.967C496.964 106.842 498.399 106.592 499.273 106.28C500.147 105.968 500.833 105.468 501.27 104.719C501.706 104.219 502.018 103.657 502.206 102.97C502.393 102.283 502.518 101.409 502.705 100.285L502.83 98.5364L502.018 99.2858C501.332 99.9103 500.583 100.535 499.772 101.097C498.961 101.659 498.087 102.221 497.151 102.783C496.652 103.033 495.841 103.407 494.78 103.969C493.72 104.531 492.472 105.093 491.099 105.718C489.726 106.342 488.353 106.967 486.856 107.591C485.358 108.216 483.986 108.84 482.613 109.402C481.24 109.964 480.055 110.401 479.056 110.776C478.058 111.151 477.247 111.276 476.81 111.276C476.498 111.401 476.248 111.213 476.061 110.776C475.874 110.339 475.562 109.215 475.125 107.466C475.001 106.717 474.813 106.093 474.626 105.468C474.439 104.844 474.377 104.531 474.377 104.469C474.377 104.344 474.751 104.094 475.5 103.782C475.874 103.657 476.498 103.345 477.372 102.97C478.245 102.595 479.306 102.033 480.679 101.347C482.051 100.66 483.299 100.035 484.547 99.4731C485.795 98.9111 486.856 98.2866 487.917 97.7246C488.79 97.225 489.851 96.6006 491.037 95.8512C492.222 95.1018 493.47 94.29 494.718 93.4157C495.966 92.5415 497.089 91.6672 498.212 90.793C499.335 89.9187 500.084 89.0444 500.708 88.2951C501.082 87.8579 501.27 87.4833 501.27 87.171C501.27 86.8588 501.082 86.2343 500.708 85.3601L500.396 84.236L497.963 86.047C495.841 87.4833 493.72 88.9195 491.598 90.1685C489.477 91.4174 487.168 92.5415 484.797 93.4782C484.36 93.6655 483.799 93.9153 483.05 94.2276C482.301 94.5398 481.615 94.7896 480.803 95.1018C479.992 95.4141 479.244 95.6639 478.557 95.8512C477.871 96.0385 477.247 96.2259 476.748 96.3508C476.623 96.4757 475.999 95.4141 474.876 93.2284C474.564 92.6664 474.377 92.2917 474.252 91.917C474.127 91.5423 474.127 91.355 474.252 91.1676C474.377 90.9803 474.689 90.793 475.125 90.6056C475.562 90.4183 476.186 90.2309 476.935 89.9187C478.37 89.2942 479.93 88.5449 481.552 87.733C483.175 86.9212 484.797 86.047 486.357 85.1103C487.917 84.1736 489.539 83.2368 491.099 82.3001C492.659 81.3634 494.032 80.4267 495.404 79.49C496.216 78.928 496.715 78.4909 496.777 78.1786C496.839 77.8664 496.652 77.3044 496.216 76.4301L495.467 75.306C495.467 75.306 495.155 74.8689 495.092 74.8689C494.78 74.8689 494.344 75.1187 493.782 75.6807C493.096 76.3677 492.222 76.9921 491.099 77.4917C489.976 77.9913 488.541 78.7406 486.794 79.6774C485.546 80.3018 484.485 80.8639 483.549 81.2385C482.613 81.6132 481.739 81.9879 480.928 82.2377C480.117 82.4875 479.368 82.6748 478.557 82.8622C477.746 83.0495 476.997 83.1744 476.124 83.3617H475.188L474.751 81.8006C474.626 81.2385 474.439 80.739 474.189 80.2394C473.94 79.7398 473.753 79.3027 473.69 78.928C473.565 78.6158 473.503 78.366 473.441 78.1162C473.378 77.8664 473.316 77.679 473.316 77.6166L473.253 77.4917Z" fill="#FF5F17"/>
<path d="M546.32 107.966C546.32 107.966 546.383 107.216 546.57 106.217C546.757 105.218 546.944 104.219 547.132 103.095C547.319 101.971 547.568 101.034 547.693 100.16C547.818 99.2856 547.943 98.8485 548.005 98.786C548.005 98.5362 548.005 98.0991 548.192 97.5371C548.38 96.9751 548.442 96.2881 548.629 95.4763C548.816 94.6645 548.941 93.8527 549.128 93.0409C549.316 92.2291 549.44 91.4172 549.503 90.6679C549.69 89.5438 549.877 88.0451 550.002 86.2341C550.127 84.4232 550.252 81.8628 550.376 78.678C550.376 76.8046 550.376 75.181 550.501 73.932C550.626 72.6831 550.626 71.9962 550.626 71.8713C550.751 71.559 550.813 69.7481 550.875 66.3759C550.875 64.6898 550.938 62.8789 551 60.943C551.063 59.0071 551 57.0088 551.125 54.8856C551.125 52.8248 551.125 51.2012 551.125 49.9523C551.125 48.7033 551.187 48.0164 551.312 47.954C552.56 47.954 553.995 47.8291 555.493 47.8291C556.803 47.8291 558.301 47.8291 560.048 47.8291C561.795 47.8291 563.604 47.8291 565.539 47.8291L579.641 47.954V47.1421C579.641 47.1421 579.516 46.6426 579.391 46.2054C579.266 45.7683 579.141 45.3936 579.017 45.0814C578.829 44.2696 578.767 43.7075 578.892 43.5202C579.017 43.3329 579.453 43.208 580.264 43.208C580.576 43.208 580.951 43.208 581.512 43.0831C582.074 42.9582 582.636 42.9582 583.197 42.8957C583.759 42.8957 584.258 42.8957 584.819 42.7708C585.381 42.6459 585.818 42.7084 586.192 42.7708H587.128L587.503 43.8949C587.503 43.8949 587.814 44.5194 587.939 44.894C588.064 45.2687 588.189 45.581 588.251 45.8932C588.376 46.143 588.438 46.3928 588.563 46.5801C588.688 46.7675 588.75 46.9548 588.875 46.9548C588.875 46.9548 588.938 47.0797 589.25 47.0797C589.562 47.0797 590.123 47.2046 590.997 47.2046C591.87 47.2046 592.993 47.267 594.491 47.3295C595.989 47.3919 597.86 47.3295 600.169 47.3295L611.276 47.4544V55.1354H601.916C597.049 55.2603 591.371 55.3227 584.944 55.3852C581.575 55.3852 578.517 55.4476 575.834 55.4476C573.151 55.4476 570.655 55.4476 568.471 55.5101C566.288 55.5725 564.603 55.5725 563.417 55.5725H561.545C561.545 55.5725 561.545 56.0097 561.545 56.5092C561.545 57.0088 561.545 57.5708 561.421 58.1953C561.296 58.8198 561.296 59.5067 561.296 60.2561C561.296 61.0054 561.171 61.6299 561.171 62.2544C561.171 63.1286 561.046 64.3151 560.984 65.8139C560.921 67.3126 560.797 68.8113 560.734 70.3725C560.734 71.8088 560.609 73.1827 560.609 74.494C560.609 75.8054 560.547 76.7421 560.547 77.1793C560.422 80.9886 560.11 84.7354 559.611 88.4198C559.112 92.1042 558.488 95.851 557.926 99.5354C557.739 100.972 557.302 102.595 556.678 104.531C556.054 106.467 555.43 108.153 554.869 109.527C554.744 109.964 554.557 110.401 554.37 110.838C554.183 111.275 554.058 111.588 553.995 111.775C553.871 112.524 553.434 112.899 552.685 112.899C551.936 112.899 551.25 112.712 550.501 112.4C549.378 111.837 548.504 111.463 547.818 111.213C547.132 110.963 546.695 110.776 546.445 110.713C546.258 110.713 546.133 110.464 546.133 110.089C546.133 109.714 546.258 109.027 546.57 108.091L546.32 107.966ZM559.424 107.529C559.424 107.529 559.611 107.341 559.736 107.279C559.861 107.216 559.985 107.154 560.11 107.029C560.422 106.779 560.859 106.405 561.296 105.843C561.733 105.281 562.232 104.656 562.669 104.032C563.105 103.407 563.542 102.72 563.854 102.096C564.166 101.471 564.416 100.972 564.416 100.535C564.416 100.222 564.416 99.9725 564.416 99.7227C564.416 99.4729 564.166 99.1607 563.854 98.7236C563.168 97.662 562.544 96.4755 562.045 95.2265C561.545 93.9776 561.046 92.5413 560.734 90.9177C560.609 90.1683 560.485 89.6687 560.422 89.3565C560.36 89.0443 560.422 88.9194 560.547 88.8569C560.797 88.732 561.171 88.5447 561.608 88.4198C562.045 88.2949 562.606 88.1075 563.168 87.9827C563.729 87.8578 564.291 87.7329 564.79 87.608C565.289 87.4831 565.726 87.4206 566.1 87.3582C566.35 87.3582 566.537 87.4206 566.6 87.608C566.662 87.7953 566.849 88.0451 566.974 88.5447C567.223 89.3565 567.473 90.1683 567.785 90.9801C568.097 91.7919 568.347 92.2915 568.471 92.4164C568.783 92.7286 569.22 91.6046 569.782 89.1067C570.094 87.6704 570.406 86.359 570.718 85.1101C571.03 83.8611 571.092 83.1118 571.092 82.9869C570.967 82.9869 570.593 82.9244 570.094 82.862C569.595 82.7995 568.846 82.862 567.91 82.9869C566.974 83.1118 566.225 83.1742 565.664 83.2367C565.102 83.2991 564.728 83.3616 564.478 83.424C564.228 83.4864 564.104 83.2991 563.979 82.9244C563.854 82.5497 563.792 81.5506 563.667 79.9894C563.667 79.24 563.542 78.5531 563.542 77.8662C563.542 77.1793 563.417 76.6797 563.417 76.4299L563.292 75.4308L564.291 74.9312C564.291 74.9312 564.852 74.6189 565.102 74.4316C565.352 74.2443 565.539 74.1194 565.601 74.0569C565.726 73.8696 565.976 73.37 566.35 72.6206C566.724 71.8713 567.099 70.997 567.473 70.0603C567.847 69.1236 568.222 68.2493 568.596 67.4375C568.971 66.6257 569.095 66.0637 569.158 65.7514C569.033 65.7514 568.783 65.689 568.284 65.689C568.035 65.689 567.723 65.6265 567.348 65.6265H562.98V59.6316H566.537C567.535 59.8189 568.846 59.8814 570.343 59.8814C571.841 59.8814 573.214 59.8814 574.462 59.8814L578.642 60.1312L579.329 61.1303C579.641 61.5675 579.765 61.8797 579.765 62.1295C579.765 62.3793 579.703 62.6291 579.516 62.9413C579.391 63.5033 579.079 64.3151 578.58 65.3767C578.081 66.4383 577.706 67.4375 577.269 68.3118C576.333 69.9978 575.585 71.3717 574.898 72.4957C574.212 73.6198 573.775 74.4316 573.463 74.8687L572.59 76.0552L573.526 76.1801C573.526 76.1801 574.274 76.2426 574.961 76.2426C575.647 76.2426 576.333 76.2426 577.207 76.3675H579.89L580.015 76.8046C580.015 77.1168 580.015 77.6789 580.015 78.3658C580.015 79.0527 580.015 79.927 579.89 81.051C579.89 82.6746 579.765 84.1734 579.578 85.4848C579.391 86.7962 579.204 88.17 578.892 89.4814C578.58 90.7928 578.205 92.0417 577.706 93.3531C577.207 94.6645 576.583 96.0383 575.834 97.4746C575.21 98.7236 574.898 99.4729 574.898 99.8476C574.898 99.9725 575.148 100.16 575.709 100.41C576.271 100.659 577.145 100.972 578.517 101.409C579.079 101.659 579.64 101.846 580.14 101.971C580.639 102.096 581.2 102.221 581.762 102.346C582.324 102.47 583.072 102.533 583.946 102.658C584.819 102.783 585.818 102.908 587.003 103.032C587.752 103.157 588.563 103.282 589.374 103.407C590.186 103.532 590.685 103.594 591.059 103.719C591.496 103.719 592.245 103.844 593.243 103.969C594.241 104.094 595.427 104.156 596.675 104.156C597.86 104.156 598.984 104.281 600.044 104.344C601.105 104.406 601.916 104.531 602.415 104.594C602.852 104.594 603.476 104.719 604.35 104.781C605.223 104.843 606.097 104.968 607.033 105.031C607.906 105.031 608.655 105.156 609.279 105.218C609.903 105.281 610.277 105.343 610.277 105.343C610.402 105.468 610.465 105.843 610.527 106.529C610.589 107.216 610.652 108.028 610.714 108.902C610.777 109.777 610.777 110.589 610.839 111.4C610.901 112.212 610.839 112.712 610.839 112.962L611.089 114.086H610.277C609.778 114.21 609.03 114.273 607.906 114.335C606.783 114.398 605.473 114.335 603.726 114.335C601.979 114.335 600.481 114.21 599.108 114.21C597.736 114.21 596.55 114.086 595.552 113.961C594.366 113.836 593.305 113.711 592.307 113.586C591.309 113.461 590.373 113.274 589.437 113.086C588.501 112.899 587.565 112.712 586.567 112.462C585.568 112.212 584.445 111.962 583.197 111.65C582.885 111.525 582.386 111.4 581.7 111.275C581.013 111.151 580.264 110.963 579.516 110.838C578.018 110.526 576.583 110.151 575.148 109.714C573.713 109.277 572.59 108.84 571.591 108.34L570.78 107.966C570.78 107.966 570.343 107.778 570.281 107.778C570.281 107.778 570.094 107.903 569.907 108.091C569.719 108.278 569.532 108.528 569.345 108.902C569.22 109.215 568.846 109.652 568.347 110.214C567.847 110.776 567.286 111.275 566.787 111.775C566.038 112.524 565.476 112.962 565.164 113.211C564.852 113.461 564.54 113.524 564.353 113.524C563.979 113.524 563.48 113.336 562.918 112.962C562.357 112.587 561.982 112.15 561.733 111.65C561.608 111.4 561.358 111.088 561.046 110.713C560.734 110.339 560.485 109.902 560.173 109.465C559.861 109.027 559.611 108.653 559.424 108.34C559.237 108.028 559.112 107.841 559.112 107.778L559.361 107.529H559.424ZM583.572 99.2232C583.572 99.2232 583.572 98.6611 583.509 97.9118C583.447 97.1624 583.509 96.3506 583.572 95.3514V92.0417H587.752C588.938 91.8544 589.936 91.7919 590.685 91.7919C591.434 91.7919 591.933 91.7919 591.995 91.7919C592.12 91.4797 592.182 90.2308 592.245 87.9827V81.7379L584.944 82.1126L584.695 81.6755C584.695 81.6755 584.507 81.1759 584.507 80.6139C584.507 80.0518 584.445 79.4274 584.32 78.8029C584.32 78.0535 584.32 77.4915 584.32 76.9919C584.32 76.4924 584.32 76.2426 584.32 76.1801C584.507 76.1801 584.695 76.1177 584.882 76.1177C585.069 76.1177 585.319 76.1177 585.568 76.0552C585.943 76.0552 586.379 76.0552 586.879 76.0552C587.378 76.0552 587.877 76.0552 588.501 76.0552L592.744 75.9303V71.9337L592.869 67.7497H591.995C591.995 67.7497 591.309 67.9995 590.685 68.062C590.061 68.1244 589.437 68.2493 588.75 68.3742C586.816 68.6864 585.506 68.8113 584.944 68.8738C584.383 68.9362 584.071 68.8738 584.071 68.6864C584.071 68.6864 584.071 68.3742 583.946 67.8746C583.821 67.3751 583.821 66.8755 583.821 66.251C583.696 65.6265 583.634 65.0021 583.634 64.44C583.634 63.878 583.634 63.4409 583.634 63.1286L583.509 62.2544H585.256C586.504 62.2544 588.064 62.1295 589.811 61.9421C591.558 61.7548 593.305 61.505 595.053 61.1303C595.801 61.0054 596.675 60.8181 597.798 60.6308C598.921 60.4434 599.982 60.2561 600.98 60.1312C601.916 60.0063 602.79 59.8189 603.663 59.694C604.537 59.5691 605.098 59.4443 605.41 59.3818C605.972 59.2569 606.346 59.132 606.534 59.0696C606.721 59.0071 606.783 59.0696 606.846 59.1945C606.97 59.4443 607.22 60.0063 607.532 60.943C607.844 61.8797 608.031 62.754 608.218 63.6282C608.343 64.44 608.406 65.0021 608.281 65.2519C608.156 65.5016 607.844 65.6265 607.345 65.6265C607.033 65.6265 606.658 65.6265 606.159 65.689C605.66 65.7514 605.099 65.8139 604.599 65.8763C604.1 65.9388 603.539 66.0637 603.102 66.1261C602.665 66.1886 602.291 66.3135 602.103 66.4383L601.604 66.6881V75.743L609.716 75.9928V79.0527C609.716 80.3641 609.716 81.1759 609.716 81.5506C609.716 81.9253 609.591 82.0502 609.466 82.0502C609.092 82.0502 608.53 81.9877 607.844 81.9253C607.158 81.8628 606.284 81.9253 605.223 81.9253C604.163 81.9253 603.351 81.9877 602.727 81.9877C602.103 81.9877 601.729 81.9877 601.542 82.0502C601.417 82.1751 601.292 82.9244 601.23 84.2983C601.167 85.6721 601.043 87.3582 600.98 89.4189V91.4797H611.276V100.035H610.839C610.839 100.035 610.34 100.035 609.591 100.035C608.842 100.035 607.844 100.035 606.658 99.9725C605.473 99.9101 603.975 99.9725 602.353 99.9101C600.731 99.8476 598.984 99.9101 597.174 99.9101C590.81 99.7852 586.941 99.7227 585.568 99.6603C584.195 99.6603 583.634 99.5354 583.821 99.3481L583.572 99.2232Z" fill="#FF5F17"/>
<path d="M620.822 102.72C620.822 102.72 621.259 102.72 621.945 102.72C622.632 102.72 623.568 102.72 624.753 102.658C625.939 102.595 627.312 102.658 628.871 102.595C630.431 102.533 632.179 102.595 633.926 102.595H647.029V90.4805C647.029 89.4189 647.029 88.6071 646.967 88.0451C646.904 87.4831 646.904 87.0459 646.842 86.8586C646.779 86.6713 646.779 86.6088 646.655 86.7337C646.53 86.7337 646.031 86.7337 645.219 86.7337C644.408 86.7337 643.348 86.7337 642.1 86.7337C640.852 86.8586 639.479 86.9211 637.857 86.9211C636.234 86.9211 634.799 86.9835 633.551 87.1084H629.183L629.121 85.6721C628.996 85.3599 628.934 84.7354 628.934 83.9236C628.934 83.1118 628.871 82.3 628.747 81.4881V78.8029L633.738 79.0527C634.986 79.0527 636.234 79.1151 637.545 79.1776C638.855 79.24 640.228 79.24 641.663 79.3649C644.471 79.4898 646.28 79.6772 647.029 79.8021H647.403C647.403 79.0527 647.466 77.9911 647.466 76.6797C647.466 75.3683 647.466 73.6198 647.528 71.559C647.591 69.4983 647.528 67.9371 647.528 66.7506C647.528 65.5641 647.466 64.8147 647.341 64.44C647.091 64.3151 646.093 64.3151 644.346 64.44C643.597 64.5649 642.786 64.6274 641.912 64.6274C641.039 64.6274 640.353 64.6898 639.853 64.8147H638.356C637.919 64.8147 637.545 64.8147 637.295 64.8772L636.546 65.0021L635.735 67.4375C635.423 68.062 635.174 68.7489 634.862 69.5607C634.55 70.3725 634.3 70.997 633.988 71.4341C633.988 71.6215 633.801 71.9962 633.614 72.4333C633.426 72.8704 633.114 73.4324 632.802 73.932C632.49 74.4316 632.179 74.9312 631.867 75.3059C631.555 75.6805 631.305 75.9303 631.118 75.9303C630.868 75.9303 630.244 75.6805 629.308 75.1185C628.684 74.8063 627.998 74.4316 627.249 73.9945C626.5 73.5573 625.814 73.1202 625.19 72.6831C624.566 72.2459 623.942 71.8088 623.381 71.3717C622.819 70.9346 622.445 70.6223 622.133 70.3725L621.321 69.6856L621.883 68.9987C622.382 68.4367 622.944 67.6873 623.505 66.6257C624.067 65.5641 624.753 64.3151 625.315 62.8789C625.876 61.4426 626.5 59.8189 627.124 58.0704C627.748 56.3219 628.247 54.5109 628.684 52.5751C628.809 52.2004 628.934 51.5759 629.183 50.7641C629.433 49.9523 629.683 49.1405 629.932 48.2662C630.182 47.3919 630.494 46.6426 630.743 45.8932C630.993 45.1438 631.305 44.6443 631.492 44.332C631.492 44.332 631.555 44.3945 631.617 44.3945C631.679 44.3945 631.617 44.3945 631.742 44.4569C631.867 44.4569 631.991 44.4569 632.179 44.5818C632.678 44.8316 633.239 45.1438 633.988 45.4561C634.737 45.7683 635.423 46.143 636.172 46.4552C636.921 46.7675 637.607 47.0797 638.356 47.3295C639.105 47.5793 639.666 47.7666 640.165 47.8915C640.602 47.8915 640.852 48.1413 640.852 48.7033C640.852 48.8282 640.852 49.2654 640.665 50.0147C640.477 50.7641 640.415 51.5135 640.29 52.3877C640.165 53.262 639.978 54.0113 639.853 54.7607C639.729 55.5101 639.604 55.8848 639.479 56.0721V56.5092C639.479 56.5092 639.916 56.6341 640.727 56.6341C641.538 56.6341 642.412 56.6966 643.535 56.6966C645.407 56.6966 646.53 56.6966 647.029 56.6966C647.528 56.6966 647.715 56.5717 647.715 56.4468C647.84 56.3219 647.903 55.635 647.903 54.5109C647.903 53.3869 647.903 51.8257 647.903 49.9523C647.903 48.2038 647.903 46.7675 647.965 45.6434C648.027 44.5194 648.09 43.8949 648.09 43.8324C648.215 43.8324 648.464 43.8324 648.901 43.8324C649.338 43.8324 649.962 43.77 650.71 43.6451H651.709C651.709 43.6451 652.208 43.6451 652.458 43.5827H653.144C653.144 43.5827 653.518 43.4578 654.08 43.4578H656.014L658.635 43.5827L658.884 44.2696C658.884 44.2696 659.072 45.0814 659.196 46.2054C659.321 47.3295 659.384 48.5784 659.508 50.0772C659.508 50.8265 659.571 51.5135 659.571 52.1379C659.571 52.7624 659.571 53.3244 659.633 53.7616V54.5734C659.633 54.5734 659.633 55.073 659.696 55.3227C659.696 55.3227 660.132 55.3227 660.881 55.3227C661.63 55.3227 662.566 55.3852 663.689 55.5101C664.875 55.5101 666.372 55.5101 668.306 55.635C670.241 55.7599 672.05 55.7599 673.86 55.8223C675.607 55.9472 677.104 56.0097 678.29 56.0097C679.475 56.0097 680.162 56.0097 680.162 56.0097C680.162 56.1346 680.224 56.5092 680.224 57.1337C680.224 57.4459 680.287 57.8831 680.287 58.3202V63.6907H678.851C673.61 63.6907 668.306 63.8156 663.065 64.1278L659.571 64.3776V77.9911H662.129C662.753 78.0535 663.689 78.116 664.937 78.116C666.185 78.116 667.37 78.2409 668.556 78.2409C669.742 78.2409 670.802 78.2409 671.863 78.3033C672.924 78.3658 673.61 78.3658 674.047 78.3658C674.421 78.3658 674.92 78.4907 675.482 78.4907C676.044 78.4907 676.605 78.5531 677.042 78.5531C677.541 78.5531 677.978 78.5531 678.352 78.5531C678.727 78.5531 678.914 78.6156 678.914 78.7405C679.039 78.8654 679.039 79.3025 679.039 80.0519V86.0468L673.173 86.1717C671.551 86.1717 669.804 86.2966 667.994 86.2966C666.185 86.2966 664.625 86.359 663.439 86.359L659.321 86.6088L659.446 89.6687C659.446 90.543 659.571 91.667 659.633 92.9784C659.696 94.2898 659.82 95.6012 659.883 96.9126C659.883 98.0991 660.008 99.0983 660.07 99.8476C660.132 100.597 660.195 101.097 660.195 101.159C660.195 101.284 661.193 101.409 663.127 101.534C665.062 101.659 667.87 101.721 671.551 101.721C676.543 101.721 680.661 101.846 683.906 102.158H684.779L684.904 103.594C685.029 104.219 685.029 104.906 685.029 105.593C685.029 106.28 685.029 107.092 685.029 107.903C685.029 109.527 684.904 110.464 684.779 110.713C684.779 110.713 684.218 110.776 683.282 110.838C682.346 110.901 681.035 110.838 679.413 110.901C677.791 110.963 675.856 110.901 673.61 110.963C671.364 111.026 668.993 110.963 666.31 111.088C656.451 111.088 648.152 111.213 641.476 111.338C634.799 111.463 629.558 111.588 625.814 111.838C624.566 111.962 623.568 111.962 622.694 111.962H621.321C621.321 111.962 621.197 111.213 621.197 110.464C621.197 109.714 621.072 108.653 621.072 107.341C621.072 106.03 621.009 104.968 620.947 104.219C620.885 103.47 620.947 102.97 620.947 102.72H620.822Z" fill="#FF5F17"/>
<path d="M695.636 71.7465L696.073 70.8722C696.073 70.8722 696.26 70.0604 696.572 69.2486C696.884 68.4368 697.134 67.625 697.384 66.7507C697.633 65.8764 697.945 65.1271 698.132 64.565C698.32 64.003 698.444 63.6908 698.444 63.6283C698.756 63.7532 699.443 64.003 700.441 64.4401C701.439 64.8773 702.75 65.5642 704.372 66.376C705.994 67.1878 707.43 67.9372 708.615 68.5617C709.801 69.1861 710.737 69.6857 711.423 70.0604C712.172 70.4975 712.608 70.8722 712.733 71.1844C712.858 71.4967 712.733 71.8714 712.359 72.3085C712.359 72.3085 712.172 72.6832 711.86 73.2452C711.548 73.8072 711.173 74.4317 710.799 75.1186C710.425 75.8055 710.05 76.43 709.676 77.1169C709.301 77.8039 709.114 78.1161 708.989 78.3034C708.865 78.3034 708.428 78.1161 707.617 77.7414C706.806 77.3667 705.932 76.992 704.996 76.5549C704.06 76.1178 703.187 75.6806 702.375 75.306C701.564 74.9313 701.065 74.6815 700.815 74.5566C700.004 74.1195 699.193 73.6823 698.444 73.2452C697.696 72.8081 696.947 72.4334 696.198 72.1212L695.512 71.8089L695.636 71.7465ZM697.633 107.966C697.633 107.966 697.696 107.903 697.696 107.841C697.696 107.779 697.696 107.841 697.758 107.716C697.82 107.591 697.883 107.591 697.883 107.529C697.883 107.466 698.008 107.341 698.132 107.279C698.694 106.717 699.38 105.406 700.191 103.345C701.003 101.284 701.814 98.911 702.75 96.1009C702.999 95.1017 703.311 93.9777 703.748 92.7288C704.185 91.4798 704.622 90.2933 704.996 89.1693L706.182 85.36L706.618 85.6722C706.618 85.6722 707.242 85.9844 707.804 86.2342C708.365 86.484 708.927 86.6714 709.613 86.9212C712.671 87.9828 714.231 88.7321 714.231 89.1693C714.106 89.5439 713.856 90.2309 713.544 91.1051C713.232 91.9794 712.983 92.8536 712.733 93.7279C712.733 94.2275 712.608 94.6022 712.484 94.9768C712.359 95.3515 712.297 95.4764 712.234 95.4764C712.234 95.7887 712.109 96.2882 711.922 97.0376C711.735 97.787 711.423 98.6612 711.049 99.7228C710.674 100.784 710.3 101.846 709.801 103.033C709.301 104.219 708.865 105.343 708.428 106.342C707.991 107.341 707.554 108.341 707.18 109.152C706.806 109.964 706.494 110.526 706.306 110.901C706.057 111.276 705.87 111.588 705.682 111.838C705.495 112.087 705.433 112.275 705.433 112.337L704.996 112.087C704.996 112.087 704.497 111.775 704.122 111.65C703.748 111.4 703.187 111.088 702.375 110.714C701.564 110.339 700.878 109.964 700.191 109.527C699.505 109.09 698.881 108.778 698.382 108.528C697.883 108.278 697.571 108.091 697.571 108.028L697.633 107.966ZM698.944 51.4511C698.944 51.4511 699.006 51.014 699.193 50.5144C699.38 50.0148 699.505 49.5152 699.692 48.9532C700.004 48.3287 700.316 47.7043 700.503 47.2047C700.691 46.7051 700.94 46.1431 701.127 45.6435C701.127 45.2688 701.252 44.8941 701.377 44.6444C701.502 44.3946 701.564 44.2072 701.627 44.1448C701.751 44.0199 701.939 43.9574 702.251 44.0823C702.563 44.2072 703.249 44.5819 704.31 45.2688C704.996 45.6435 705.807 46.1431 706.743 46.7051C707.679 47.2671 708.802 48.0165 710.05 48.8283C711.298 49.6401 712.359 50.3271 713.108 50.8891C713.856 51.4511 714.418 51.8258 714.855 52.0756C715.541 52.3878 715.666 52.9498 715.292 53.6368C715.167 53.6368 715.104 53.8241 714.98 54.0114C714.855 54.1988 714.792 54.4486 714.668 54.6984C714.543 54.9482 714.418 55.3228 714.106 55.8849C713.794 56.4469 713.544 57.0089 713.232 57.6334C712.92 58.2579 712.608 58.7574 712.296 59.257C711.985 59.7566 711.735 60.0688 711.548 60.1937C711.548 60.1937 711.298 60.0688 710.924 59.819C710.549 59.5693 710.113 59.257 709.551 59.0072C708.989 58.695 708.241 58.1954 707.43 57.6334C706.618 57.0714 705.807 56.5718 705.058 56.1347L702.687 54.6984C701.814 54.1988 701.127 53.7617 700.628 53.387C699.88 52.825 699.38 52.3878 699.068 52.2005C698.756 52.0131 698.694 51.7633 698.756 51.5136L698.944 51.4511ZM717.787 64.3777C717.787 64.3777 717.975 64.1279 717.975 64.003C717.975 63.8781 718.037 63.8781 718.162 63.8781H719.098C719.659 63.8781 720.408 63.8781 721.282 63.7532C722.155 63.7532 723.278 63.7532 724.651 63.7532C726.024 63.7532 727.397 63.6908 728.645 63.5659C729.83 63.5659 730.828 63.5659 731.577 63.5659C732.326 63.5659 732.825 63.5659 732.888 63.5659C732.888 63.1287 732.825 61.7549 732.638 59.5693C732.513 57.2587 732.388 55.9473 732.388 55.5726C732.388 55.5726 731.577 55.5726 730.142 55.6975C728.707 55.8224 726.835 56.0098 724.464 56.1971C723.715 56.322 722.966 56.4469 722.28 56.5093C721.594 56.5718 721.157 56.6342 720.907 56.6342H720.221V51.2638C720.221 51.2638 720.159 50.8266 720.159 50.452C720.034 50.452 719.909 50.452 719.909 50.3895C719.909 50.2646 719.971 50.1397 720.159 50.1397C720.346 50.1397 720.283 50.0148 720.159 49.765C720.034 49.5777 720.034 49.4528 720.159 49.4528C720.159 49.3279 720.159 49.203 720.221 49.1406C720.221 49.1406 719.971 48.641 719.971 48.2039V47.7043H721.282C721.781 47.8292 722.467 47.8292 723.403 47.8292C724.339 47.8292 725.525 47.7667 726.897 47.6418C728.27 47.5169 729.58 47.4545 730.766 47.3296C731.952 47.2047 733.012 47.0798 734.011 46.9549C734.759 46.9549 735.695 46.7676 736.881 46.4553C738.066 46.1431 739.19 45.9558 740.313 45.7684C741.311 45.4562 742.497 45.2064 743.807 44.8942C745.117 44.5819 746.303 44.3321 747.301 44.0823C748.237 43.9574 749.111 43.7701 749.984 43.5828C750.858 43.3954 751.482 43.2081 751.919 43.0207C752.355 42.8334 752.855 42.7085 753.354 42.7085C753.666 42.7085 753.853 42.8334 754.04 43.0207C754.227 43.2081 754.29 43.6452 754.414 44.2072C754.976 45.6435 755.226 47.0174 755.288 48.2039C755.288 48.3287 755.288 48.5785 755.413 48.8908C755.538 49.203 755.538 49.4528 755.538 49.7026C755.662 50.0148 755.662 50.2646 755.538 50.3895C755.413 50.5144 755.35 50.6393 755.226 50.7642C755.038 50.9515 754.789 51.0764 754.414 51.0764C754.414 51.0764 754.04 51.1389 753.479 51.3262C752.917 51.5136 752.293 51.6385 751.544 51.8882C750.795 52.0756 749.922 52.3254 748.924 52.5752C747.925 52.825 747.052 53.0747 746.303 53.2621L743.433 53.949V56.0722C743.37 56.6342 743.308 57.3836 743.308 58.2579C743.308 59.1321 743.245 59.8815 743.245 60.506V62.9414H757.846C757.846 62.9414 758.096 63.1287 758.096 63.5034C758.096 63.8781 758.158 64.6899 758.283 65.9389C758.283 66.6882 758.408 67.5001 758.408 68.187C758.408 68.8739 758.47 69.4359 758.47 69.7482V70.6224L757.347 70.7473C756.91 70.7473 755.974 70.7473 754.539 70.8722C753.104 70.9971 751.482 70.9971 749.672 71.0596L743.308 71.4342V82.1752H749.423C751.107 82.1752 752.543 82.1752 753.728 82.1752C754.914 82.1752 755.6 82.1752 755.6 82.1752H756.037C756.037 82.1752 756.286 83.1743 756.286 84.9853C756.286 86.7963 756.224 88.857 756.037 91.4174C756.037 91.9794 756.037 92.7912 756.037 93.8528C756.037 94.9144 756.037 96.2258 755.974 97.5996C755.912 98.9735 755.974 100.41 755.85 101.908C755.725 103.407 755.725 104.781 755.662 106.03C755.6 107.279 755.538 108.403 755.413 109.34C755.288 110.276 755.226 110.838 755.163 111.088C755.163 111.088 754.415 111.213 753.167 111.213C751.919 111.213 750.296 111.338 748.362 111.338C746.49 111.463 744.431 111.525 742.309 111.588C740.188 111.65 738.441 111.713 737.068 111.775C731.452 112.087 726.96 112.212 723.59 112.275C720.221 112.337 718.411 112.275 718.162 112.212C718.162 111.588 718.099 110.089 718.037 107.716C717.975 105.343 718.037 102.033 718.037 97.7245C718.037 89.2942 718.037 84.3608 718.037 82.987C718.037 82.8621 718.411 82.7372 719.223 82.6747C720.034 82.6123 721.594 82.5498 723.965 82.5498C725.587 82.5498 727.022 82.5498 728.333 82.4874C729.643 82.425 730.516 82.4249 730.891 82.4249H732.076L732.326 79.0528C732.451 78.0536 732.513 76.992 732.513 75.9929C732.513 74.9937 732.513 74.1819 732.513 73.6199L732.388 71.5591H725.4L718.411 71.8714L717.975 70.4975C717.787 69.311 717.6 68.1245 717.475 66.938C717.351 65.7515 717.351 64.8773 717.475 64.4401L717.787 64.3777ZM731.64 103.282C732.513 103.282 733.823 103.282 735.508 103.282C737.193 103.282 738.94 103.282 740.812 103.282H747.052V90.106H741.374C739.751 90.106 738.129 90.106 736.382 90.106C734.635 90.106 733.324 90.106 732.388 90.106L729.019 90.2309V96.6005L728.894 102.97L731.764 103.095L731.64 103.282Z" fill="#FF5F17"/>
</g>
<defs>
<clipPath id="clip0_179_188">
<rect width="606" height="74" fill="white" transform="translate(152.782 40.96)"/>
</clipPath>
</defs>
</svg>
