<svg width="414" height="101" viewBox="0 0 414 101" fill="none" xmlns="http://www.w3.org/2000/svg">
<path d="M0 0H65C81.5685 0 95 13.4315 95 30V98H0V0Z" fill="#FF5F17"/>
<path d="M108 0H171C187.569 0 201 13.4315 201 30V98H108V0Z" fill="#39BF63"/>
<path d="M214 0H278C294.569 0 308 13.4315 308 30V98H214V0Z" fill="#FF5F17"/>
<path d="M321 0H384C400.569 0 414 13.4315 414 30V98H321V0Z" fill="#39BF63"/>
<path d="M43.775 25.675H52.625V84.7H43.775V25.675ZM26.75 51.25L31.925 46.225C33.175 46.975 34.55 47.825 36.05 48.775C37.55 49.725 39 50.675 40.4 51.625C41.8 52.525 42.975 53.35 43.925 54.1L38.525 59.65C37.675 58.85 36.575 57.975 35.225 57.025C33.875 56.075 32.45 55.075 30.95 54.025C29.45 52.975 28.05 52.05 26.75 51.25ZM26.3 65.5L31.55 60.55C32.8 61.4 34.2 62.375 35.75 63.475C37.3 64.525 38.775 65.575 40.175 66.625C41.625 67.675 42.8 68.6 43.7 69.4L38.225 75.025C37.375 74.175 36.25 73.2 34.85 72.1C33.45 70.95 32 69.8 30.5 68.65C29 67.5 27.6 66.45 26.3 65.5ZM53.225 51.25L58.325 46.15C59.625 46.85 61.05 47.675 62.6 48.625C64.2 49.575 65.725 50.5 67.175 51.4C68.675 52.3 69.9 53.125 70.85 53.875L65.6 59.575C64.75 58.825 63.6 57.975 62.15 57.025C60.75 56.025 59.25 55.025 57.65 54.025C56.05 52.975 54.575 52.05 53.225 51.25ZM52.325 65.2L57.5 60.25C58.8 61.05 60.25 62 61.85 63.1C63.5 64.15 65.075 65.175 66.575 66.175C68.075 67.175 69.325 68.075 70.325 68.875L64.925 74.65C64.025 73.8 62.825 72.85 61.325 71.8C59.875 70.7 58.35 69.575 56.75 68.425C55.15 67.225 53.675 66.15 52.325 65.2ZM17.75 35.5H74.45V43.9H26.375V85.6H17.75V35.5ZM70.925 35.5H79.775V76.15C79.775 78.3 79.475 79.975 78.875 81.175C78.325 82.375 77.325 83.3 75.875 83.95C74.425 84.6 72.625 85 70.475 85.15C68.325 85.3 65.8 85.375 62.9 85.375C62.7 84.225 62.3 82.875 61.7 81.325C61.15 79.825 60.575 78.55 59.975 77.5C61.225 77.55 62.475 77.6 63.725 77.65C64.975 77.65 66.1 77.65 67.1 77.65C68.15 77.6 68.85 77.575 69.2 77.575C69.85 77.525 70.3 77.4 70.55 77.2C70.8 77 70.925 76.625 70.925 76.075V35.5ZM14.525 19.6H82.55V28.45H14.525V19.6ZM150.35 15.775H158.675V34H150.35V15.775ZM169.775 15.775H178.25V34H169.775V15.775ZM165.125 50.125H172.175V85.45H165.125V50.125ZM139.7 21.25H188.375V28.975H139.7V21.25ZM155.45 58.3H182V64.075H155.45V58.3ZM155.45 68.275H182V74.125H155.45V68.275ZM143.75 35.95H188.75V43.675H143.75V35.95ZM140.075 35.95H148.25V52.525C148.25 55.025 148.15 57.725 147.95 60.625C147.75 63.525 147.375 66.5 146.825 69.55C146.325 72.55 145.575 75.475 144.575 78.325C143.575 81.125 142.275 83.675 140.675 85.975C140.275 85.425 139.65 84.775 138.8 84.025C138 83.325 137.175 82.625 136.325 81.925C135.475 81.275 134.75 80.775 134.15 80.425C136 77.725 137.325 74.75 138.125 71.5C138.975 68.2 139.5 64.9 139.7 61.6C139.95 58.3 140.075 55.25 140.075 52.45V35.95ZM150.95 47.5H182.9V54.025H158.45V85.6H150.95V47.5ZM179.375 47.5H186.95V78.1C186.95 79.75 186.8 81.075 186.5 82.075C186.2 83.125 185.525 83.95 184.475 84.55C183.425 85.1 182.2 85.45 180.8 85.6C179.4 85.75 177.725 85.8 175.775 85.75C175.675 84.75 175.45 83.6 175.1 82.3C174.75 81 174.325 79.875 173.825 78.925C174.875 78.975 175.825 79 176.675 79C177.525 79 178.125 78.975 178.475 78.925C179.075 78.925 179.375 78.625 179.375 78.025V47.5ZM131.75 15.4L140.075 17.875C138.675 22.225 136.975 26.625 134.975 31.075C133.025 35.525 130.875 39.75 128.525 43.75C126.175 47.7 123.725 51.175 121.175 54.175C120.975 53.475 120.625 52.5 120.125 51.25C119.625 50 119.075 48.75 118.475 47.5C117.875 46.25 117.35 45.225 116.9 44.425C118.9 42.075 120.825 39.35 122.675 36.25C124.575 33.15 126.3 29.825 127.85 26.275C129.4 22.675 130.7 19.05 131.75 15.4ZM125.75 36.025L134.075 27.7L134.3 27.85V85.675H125.75V36.025ZM246.275 45.55H293.825V53.125H246.275V45.55ZM254.45 56.65H285.275V63.775H254.45V56.65ZM257.3 48.325L265.025 50.275C263.175 54.575 260.65 58.55 257.45 62.2C254.3 65.8 250.95 68.775 247.4 71.125C246.95 70.625 246.35 70.025 245.6 69.325C244.9 68.575 244.15 67.875 243.35 67.225C242.6 66.575 241.925 66.05 241.325 65.65C244.825 63.75 247.975 61.3 250.775 58.3C253.625 55.25 255.8 51.925 257.3 48.325ZM283.925 56.65H292.25C292.25 56.65 292.225 57.05 292.175 57.85C292.175 58.6 292.125 59.25 292.025 59.8C291.725 64.65 291.35 68.65 290.9 71.8C290.5 74.9 290.05 77.3 289.55 79C289.05 80.75 288.45 82 287.75 82.75C287.05 83.6 286.275 84.2 285.425 84.55C284.625 84.9 283.725 85.15 282.725 85.3C281.875 85.4 280.775 85.475 279.425 85.525C278.125 85.575 276.7 85.55 275.15 85.45C275.1 84.4 274.9 83.175 274.55 81.775C274.2 80.425 273.725 79.3 273.125 78.4C274.325 78.5 275.4 78.575 276.35 78.625C277.3 78.625 278.025 78.625 278.525 78.625C279.025 78.625 279.425 78.575 279.725 78.475C280.075 78.375 280.4 78.15 280.7 77.8C281.15 77.3 281.55 76.35 281.9 74.95C282.3 73.5 282.65 71.4 282.95 68.65C283.3 65.9 283.625 62.325 283.925 57.925V56.65ZM260.9 32.875V36.475H280.25V32.875H260.9ZM260.9 23.425V26.95H280.25V23.425H260.9ZM252.875 17.2H288.575V42.7H252.875V17.2ZM224.375 31.075H247.25V39.55H224.375V31.075ZM231.95 16.225H240.35V62.875H231.95V16.225ZM222.65 64.375C224.6 63.675 226.85 62.8 229.4 61.75C232 60.7 234.75 59.575 237.65 58.375C240.55 57.125 243.425 55.875 246.275 54.625L248.225 62.35C244.475 64.3 240.65 66.25 236.75 68.2C232.85 70.15 229.275 71.925 226.025 73.525L222.65 64.375ZM275.3 58.15L281.375 61.45C280.475 64.45 279.2 67.525 277.55 70.675C275.9 73.775 274.05 76.675 272 79.375C269.95 82.075 267.8 84.3 265.55 86.05C264.8 85.2 263.825 84.3 262.625 83.35C261.425 82.4 260.25 81.625 259.1 81.025C261.55 79.475 263.825 77.475 265.925 75.025C268.025 72.575 269.875 69.875 271.475 66.925C273.125 63.975 274.4 61.05 275.3 58.15ZM263.975 58.225L269.825 61.675C268.575 64.275 266.925 66.9 264.875 69.55C262.875 72.2 260.675 74.675 258.275 76.975C255.875 79.275 253.475 81.175 251.075 82.675C250.375 81.775 249.475 80.825 248.375 79.825C247.325 78.825 246.275 78 245.225 77.35C247.675 76.1 250.1 74.45 252.5 72.4C254.95 70.35 257.175 68.1 259.175 65.65C261.175 63.15 262.775 60.675 263.975 58.225ZM372.35 15.25H380.75V68.2H372.35V15.25ZM350.15 45.475L389 28.9L392.225 36.625L353.45 53.425L350.15 45.475ZM357.575 22.525H366.125V71.125C366.125 72.575 366.225 73.675 366.425 74.425C366.675 75.125 367.175 75.6 367.925 75.85C368.725 76.1 369.875 76.225 371.375 76.225C371.825 76.225 372.525 76.225 373.475 76.225C374.475 76.225 375.575 76.225 376.775 76.225C378.025 76.225 379.25 76.225 380.45 76.225C381.7 76.225 382.8 76.225 383.75 76.225C384.75 76.225 385.5 76.225 386 76.225C387.35 76.225 388.375 75.975 389.075 75.475C389.775 74.975 390.3 74.05 390.65 72.7C391 71.35 391.275 69.375 391.475 66.775C392.425 67.475 393.65 68.15 395.15 68.8C396.7 69.4 398.1 69.825 399.35 70.075C398.95 73.625 398.325 76.425 397.475 78.475C396.625 80.525 395.35 82 393.65 82.9C391.95 83.8 389.65 84.25 386.75 84.25C386.25 84.25 385.45 84.25 384.35 84.25C383.25 84.25 382.025 84.25 380.675 84.25C379.325 84.25 377.975 84.25 376.625 84.25C375.275 84.25 374.05 84.25 372.95 84.25C371.9 84.25 371.15 84.25 370.7 84.25C367.3 84.25 364.625 83.875 362.675 83.125C360.775 82.375 359.45 81.05 358.7 79.15C357.95 77.25 357.575 74.575 357.575 71.125V22.525ZM387.275 29.875H386.675L388.25 28.75L389.9 27.7L396.125 29.95L395.825 31.45C395.825 35 395.8 38.25 395.75 41.2C395.75 44.1 395.725 46.675 395.675 48.925C395.675 51.125 395.625 52.975 395.525 54.475C395.475 55.975 395.4 57.1 395.3 57.85C395.2 59.6 394.825 60.975 394.175 61.975C393.525 62.925 392.625 63.65 391.475 64.15C390.375 64.65 389.075 64.95 387.575 65.05C386.125 65.15 384.8 65.2 383.6 65.2C383.5 64.05 383.275 62.75 382.925 61.3C382.575 59.8 382.175 58.575 381.725 57.625C382.375 57.675 383.05 57.725 383.75 57.775C384.45 57.775 384.975 57.775 385.325 57.775C385.775 57.775 386.125 57.675 386.375 57.475C386.675 57.275 386.875 56.825 386.975 56.125C387.025 55.775 387.075 54.975 387.125 53.725C387.175 52.475 387.2 50.8 387.2 48.7C387.2 46.55 387.2 43.925 387.2 40.825C387.25 37.675 387.275 34.025 387.275 29.875ZM328.55 32.65H353.375V41.2H328.55V32.65ZM337.325 16.3H345.725V66.025H337.325V16.3ZM327.575 66.1C329.625 65.35 332.025 64.45 334.775 63.4C337.525 62.3 340.425 61.1 343.475 59.8C346.575 58.5 349.65 57.225 352.7 55.975L354.725 63.925C350.725 65.925 346.65 67.9 342.5 69.85C338.4 71.8 334.625 73.55 331.175 75.1L327.575 66.1Z" fill="white"/>
</svg>
