<svg width="123" height="123" viewBox="0 0 123 123" fill="none" xmlns="http://www.w3.org/2000/svg">
<path d="M56.8501 2.21058C59.6781 5.60422 64.3082 5.60422 67.1363 2.21058C69.9643 -1.18306 73.621 -0.604301 75.2652 3.49963C76.9094 7.60357 81.3159 9.03732 85.0515 6.68282C88.7871 4.32831 92.0887 6.01198 92.3912 10.4184C92.6938 14.8249 96.4294 17.5477 100.717 16.4691C105.006 15.3905 107.623 18.0081 106.531 22.283C105.44 26.558 108.176 30.3068 112.582 30.6093C116.989 30.9118 118.672 34.2002 116.318 37.949C113.963 41.6978 115.397 46.0911 119.501 47.7353C123.605 49.3795 124.184 53.0362 120.79 55.8643C117.396 58.6923 117.396 63.3224 120.79 66.1504C124.184 68.9785 123.605 72.6352 119.501 74.2794C115.397 75.9236 113.963 80.33 116.318 84.0657C118.672 87.8013 116.989 91.1029 112.582 91.4054C108.176 91.7079 105.453 95.4436 106.531 99.7317C107.61 104.02 104.992 106.637 100.717 105.546C96.4426 104.454 92.6938 107.19 92.3912 111.596C92.0887 116.003 88.8003 117.686 85.0515 115.332C81.3027 112.977 76.9094 114.411 75.2652 118.515C73.621 122.619 69.9643 123.198 67.1363 119.804C64.3082 116.41 59.6781 116.41 56.8501 119.804C54.0221 123.198 50.3654 122.619 48.7212 118.515C47.077 114.411 42.6705 112.977 38.9349 115.332C35.1992 117.686 31.8977 116.003 31.5951 111.596C31.2926 107.19 27.557 104.467 23.2689 105.546C18.9808 106.624 16.3632 104.007 17.455 99.7317C18.5467 95.4567 15.8108 91.7079 11.4043 91.4054C6.99782 91.1029 5.31415 87.8145 7.66866 84.0657C10.0232 80.3169 8.58941 75.9236 4.48547 74.2794C0.381539 72.6352 -0.197221 68.9785 3.19642 66.1504C6.59006 63.3224 6.59006 58.6923 3.19642 55.8643C-0.197221 53.0362 0.381539 49.3795 4.48547 47.7353C8.58941 46.0911 10.0232 41.6847 7.66866 37.949C5.31415 34.2134 6.99782 30.9118 11.4043 30.6093C15.8108 30.3068 18.5336 26.5711 17.455 22.283C16.3764 17.9949 18.9939 15.3774 23.2689 16.4691C27.5438 17.5609 31.2926 14.8249 31.5951 10.4184C31.8977 6.01198 35.1861 4.32831 38.9349 6.68282C42.6836 9.03732 47.077 7.60357 48.7212 3.49963C50.3654 -0.604301 54.0221 -1.18306 56.8501 2.21058Z" fill="#39BF63"/>
<path d="M35.464 47.432H48.456V50.984H35.464V47.432ZM34.376 58.568H52.04V62.184H34.376V58.568ZM41.128 54.824H45V71.624C45 73.544 44.616 74.568 43.368 75.176C42.088 75.752 40.328 75.88 37.96 75.848C37.768 74.792 37.128 73.128 36.616 72.104C38.248 72.168 39.912 72.2 40.456 72.168C40.968 72.136 41.128 72.008 41.128 71.56V54.824ZM47.08 47.432H48.008L48.808 47.24L51.304 49.128C49.416 51.912 46.696 55.304 44.2 57.416C43.688 56.744 42.632 55.688 42.024 55.176C43.912 53.352 46.12 50.184 47.08 48.264V47.432ZM22.184 52.2H32.52V55.752H22.184V52.2ZM26.472 45.832L30.088 46.216C28.872 53.032 27.016 61.608 25.512 67.368L22.376 65.704C23.752 60.648 25.48 52.2 26.472 45.832ZM24.04 65.16L26.152 62.472C29.48 64.552 33.704 67.656 35.56 70.056L33.256 73.16C31.464 70.728 27.4 67.368 24.04 65.16ZM31.208 52.2H31.816L32.488 52.104L34.76 52.488C34.024 64.968 30.92 72.04 24.584 75.976C24.072 75.048 23.048 73.672 22.28 72.936C27.72 70.088 30.568 63.016 31.208 52.904V52.2ZM70.44 69.384L73.384 68.616C74.088 69.704 74.664 71.208 74.856 72.2L71.752 73.128C71.624 72.104 71.048 70.504 70.44 69.384ZM78.888 68.52L82.216 69.416C81.512 70.824 80.808 72.136 80.296 73.064L77.448 72.232C77.96 71.176 78.568 69.608 78.888 68.52ZM72.168 64.968V66.6H80.136V64.968H72.168ZM69 62.728H83.432V68.84H69V62.728ZM71.048 53.896V55.336H81.128V53.896H71.048ZM71.048 50.248V51.688H81.128V50.248H71.048ZM67.976 47.88H84.36V57.704H67.976V47.88ZM67.528 58.76H84.872V61.64H67.528V58.76ZM66.888 72.456H85.32V75.272H66.888V72.456ZM72.264 45.832H75.112V49.64H72.264V45.832ZM77 45.832H79.848V49.64H77V45.832ZM72.84 48.968H75.08V57.224H72.84V48.968ZM77 48.968H79.24V57.224H77V48.968ZM55.592 54.216H66.824V57.544H55.592V54.216ZM56.36 47.848H66.184V51.144H56.36V47.848ZM64.264 59.144H66.696V71.08H64.264V59.144ZM59.784 55.88H62.952V75.88H59.784V55.88ZM56.04 59.208H58.472V63.048C58.472 66.344 58.312 70.152 57.16 73.224C56.68 72.712 55.688 71.944 55.016 71.592C55.88 69 56.04 65.736 56.04 62.952V59.208ZM99.5714 49.7273V73H94.6509V54.3977H94.5145L89.185 57.7386V53.375L94.9464 49.7273H99.5714Z" fill="white"/>
</svg>
