<svg width="395" height="112" viewBox="0 0 395 112" fill="none" xmlns="http://www.w3.org/2000/svg">
<path d="M50.8664 3.63636V24H47.1775V7.22585H47.0582L42.2954 10.2685V6.88778L47.3565 3.63636H50.8664ZM64.6839 24.3878C63.0465 24.3878 61.6412 23.9735 60.4679 23.1449C59.3013 22.3097 58.4031 21.1065 57.7733 19.5355C57.1502 17.9579 56.8387 16.0587 56.8387 13.8381C56.8453 11.6174 57.1602 9.72822 57.7833 8.17045C58.413 6.60606 59.3112 5.41288 60.4779 4.59091C61.6512 3.76894 63.0532 3.35795 64.6839 3.35795C66.3145 3.35795 67.7165 3.76894 68.8898 4.59091C70.0631 5.41288 70.9613 6.60606 71.5844 8.17045C72.2142 9.73485 72.529 11.6241 72.529 13.8381C72.529 16.0653 72.2142 17.9678 71.5844 19.5455C70.9613 21.1165 70.0631 22.3163 68.8898 23.1449C67.7232 23.9735 66.3212 24.3878 64.6839 24.3878ZM64.6839 21.2756C65.9566 21.2756 66.9608 20.6491 67.6966 19.3963C68.4391 18.1368 68.8103 16.2841 68.8103 13.8381C68.8103 12.2206 68.6412 10.8617 68.3032 9.76136C67.9651 8.66098 67.4878 7.83239 66.8714 7.27557C66.2549 6.71212 65.5257 6.4304 64.6839 6.4304C63.4178 6.4304 62.4168 7.06013 61.681 8.3196C60.9452 9.57244 60.574 11.4119 60.5674 13.8381C60.5607 15.4621 60.7232 16.8277 61.0546 17.9347C61.3927 19.0417 61.8699 19.8769 62.4864 20.4403C63.1029 20.9972 63.8354 21.2756 64.6839 21.2756ZM76.711 7.76H101.631V11.232H76.711V7.76ZM91.103 9.16C91.663 11.288 92.4377 13.276 93.427 15.124C94.4163 16.972 95.639 18.5867 97.095 19.968C98.5697 21.3493 100.287 22.4413 102.247 23.244C101.967 23.4867 101.668 23.7947 101.351 24.168C101.052 24.5413 100.754 24.924 100.455 25.316C100.175 25.7267 99.9417 26.0907 99.755 26.408C97.6083 25.4 95.7603 24.1027 94.211 22.516C92.6803 20.9293 91.3923 19.0813 90.347 16.972C89.3017 14.844 88.4243 12.5013 87.715 9.944L91.103 9.16ZM87.239 0.227999H90.907C90.8883 1.64667 90.8417 3.14933 90.767 4.736C90.711 6.304 90.571 7.9 90.347 9.524C90.123 11.148 89.759 12.7627 89.255 14.368C88.7697 15.9547 88.079 17.4853 87.183 18.96C86.3057 20.416 85.167 21.7787 83.767 23.048C82.3857 24.3173 80.6963 25.4373 78.699 26.408C78.4377 25.96 78.0737 25.4653 77.607 24.924C77.1403 24.3827 76.6643 23.9347 76.179 23.58C78.083 22.7213 79.679 21.732 80.967 20.612C82.255 19.4733 83.3003 18.2507 84.103 16.944C84.9243 15.6187 85.5497 14.2467 85.979 12.828C86.4083 11.3907 86.6977 9.944 86.847 8.488C87.015 7.032 87.1177 5.604 87.155 4.204C87.1923 2.804 87.2203 1.47867 87.239 0.227999ZM106.419 1.684H130.331V4.82H106.419V1.684ZM113.027 7.984H124.199V10.98H113.027V7.984ZM111.599 15.544H123.303V18.54H111.599V15.544ZM105.523 22.208H131.115V25.344H105.523V22.208ZM112.523 3.924H116.191C115.948 5.24933 115.678 6.63067 115.379 8.068C115.08 9.50533 114.772 10.9427 114.455 12.38C114.156 13.7987 113.858 15.152 113.559 16.44C113.26 17.7093 112.98 18.8573 112.719 19.884L109.051 19.576C109.35 18.5493 109.658 17.4013 109.975 16.132C110.292 14.844 110.61 13.5 110.927 12.1C111.244 10.7 111.534 9.3 111.795 7.9C112.075 6.5 112.318 5.17467 112.523 3.924ZM122.631 7.984H126.271C126.14 9.272 125.991 10.616 125.823 12.016C125.674 13.3973 125.506 14.7787 125.319 16.16C125.151 17.5227 124.974 18.8293 124.787 20.08C124.619 21.312 124.451 22.4227 124.283 23.412H120.587C120.774 22.404 120.97 21.2747 121.175 20.024C121.38 18.7547 121.576 17.4387 121.763 16.076C121.95 14.6947 122.118 13.3133 122.267 11.932C122.416 10.5507 122.538 9.23467 122.631 7.984ZM135.007 18.316H148.083V20.696H135.007V18.316ZM134.391 4.988H148.391V7.424H134.391V4.988ZM139.935 3.028H142.987V23.104H139.935V3.028ZM134.223 22.768C135.399 22.6933 136.743 22.6 138.255 22.488C139.767 22.376 141.363 22.2547 143.043 22.124C144.742 21.9747 146.431 21.8253 148.111 21.676L148.139 24.224C146.552 24.392 144.947 24.56 143.323 24.728C141.718 24.896 140.168 25.0453 138.675 25.176C137.2 25.3253 135.847 25.4653 134.615 25.596L134.223 22.768ZM137.779 13.864V15.124H145.171V13.864H137.779ZM137.779 10.616V11.876H145.171V10.616H137.779ZM135.119 8.516H147.943V17.224H135.119V8.516ZM146.599 0.367999L148.055 2.86C146.879 3.10267 145.554 3.31733 144.079 3.504C142.623 3.672 141.13 3.812 139.599 3.924C138.068 4.01733 136.603 4.08267 135.203 4.12C135.147 3.76533 135.044 3.364 134.895 2.916C134.764 2.44933 134.615 2.048 134.447 1.712C135.492 1.656 136.566 1.59067 137.667 1.516C138.768 1.42267 139.851 1.32 140.915 1.208C141.998 1.096 143.015 0.974665 143.967 0.843999C144.938 0.694666 145.815 0.535999 146.599 0.367999ZM148.363 6.556H158.079V9.636H148.363V6.556ZM156.707 6.556H159.927C159.927 6.556 159.927 6.64933 159.927 6.836C159.927 7.02267 159.927 7.23733 159.927 7.48C159.927 7.704 159.927 7.89067 159.927 8.04C159.852 10.9147 159.778 13.36 159.703 15.376C159.628 17.3733 159.544 19.0253 159.451 20.332C159.376 21.62 159.255 22.628 159.087 23.356C158.938 24.084 158.751 24.6067 158.527 24.924C158.21 25.3907 157.874 25.7173 157.519 25.904C157.183 26.1093 156.782 26.2587 156.315 26.352C155.886 26.4267 155.363 26.464 154.747 26.464C154.131 26.4827 153.487 26.4827 152.815 26.464C152.796 25.9973 152.694 25.456 152.507 24.84C152.339 24.224 152.124 23.692 151.863 23.244C152.46 23.3 153.011 23.3373 153.515 23.356C154.019 23.3747 154.402 23.384 154.663 23.384C154.887 23.384 155.074 23.3467 155.223 23.272C155.372 23.1973 155.512 23.076 155.643 22.908C155.792 22.684 155.923 22.2547 156.035 21.62C156.147 20.9667 156.24 20.0427 156.315 18.848C156.408 17.6347 156.483 16.076 156.539 14.172C156.614 12.268 156.67 9.96267 156.707 7.256V6.556ZM151.051 0.675998H154.271C154.271 3.06533 154.243 5.33333 154.187 7.48C154.15 9.62667 154.028 11.652 153.823 13.556C153.636 15.4413 153.31 17.196 152.843 18.82C152.395 20.4253 151.76 21.8907 150.939 23.216C150.118 24.5413 149.063 25.708 147.775 26.716C147.607 26.436 147.383 26.1373 147.103 25.82C146.842 25.5027 146.562 25.1947 146.263 24.896C145.983 24.616 145.703 24.3827 145.423 24.196C146.599 23.3 147.551 22.2733 148.279 21.116C149.007 19.94 149.567 18.6427 149.959 17.224C150.351 15.7867 150.622 14.2187 150.771 12.52C150.92 10.8027 151.004 8.964 151.023 7.004C151.042 5.02533 151.051 2.916 151.051 0.675998ZM175.159 1.628H186.555V4.708H175.159V1.628ZM174.207 11.344H189.691V14.536H174.207V11.344ZM180.143 8.096H183.503V22.768C183.503 23.608 183.4 24.2707 183.195 24.756C182.99 25.2413 182.616 25.6147 182.075 25.876C181.515 26.1373 180.843 26.3053 180.059 26.38C179.294 26.4733 178.398 26.5107 177.371 26.492C177.296 26.0253 177.138 25.4747 176.895 24.84C176.652 24.2053 176.41 23.6547 176.167 23.188C176.876 23.2067 177.558 23.2253 178.211 23.244C178.864 23.2627 179.312 23.2627 179.555 23.244C179.779 23.244 179.928 23.2067 180.003 23.132C180.096 23.0573 180.143 22.9267 180.143 22.74V8.096ZM185.323 1.628H186.163L186.835 1.432L189.019 3.084C188.478 3.90533 187.862 4.764 187.171 5.66C186.499 6.53733 185.79 7.38667 185.043 8.208C184.296 9.01067 183.559 9.72 182.831 10.336C182.607 10.0373 182.299 9.692 181.907 9.3C181.515 8.908 181.179 8.6 180.899 8.376C181.459 7.85333 182.028 7.228 182.607 6.5C183.186 5.772 183.708 5.03467 184.175 4.288C184.66 3.54133 185.043 2.888 185.323 2.328V1.628ZM163.539 5.772H172.611V8.908H163.539V5.772ZM167.319 0.199999L170.455 0.535998C170.194 2.02933 169.895 3.59733 169.559 5.24C169.242 6.88267 168.906 8.52533 168.551 10.168C168.196 11.792 167.842 13.3693 167.487 14.9C167.132 16.412 166.787 17.7933 166.451 19.044L163.707 17.616C164.024 16.5147 164.342 15.2547 164.659 13.836C164.995 12.4173 165.322 10.924 165.639 9.356C165.956 7.76933 166.255 6.20133 166.535 4.652C166.834 3.084 167.095 1.6 167.319 0.199999ZM165.191 17.14L167.011 14.76C167.982 15.376 168.999 16.0667 170.063 16.832C171.146 17.5973 172.144 18.372 173.059 19.156C173.992 19.94 174.73 20.6867 175.271 21.396L173.255 24.112C172.732 23.4027 172.023 22.6373 171.127 21.816C170.231 20.976 169.26 20.1453 168.215 19.324C167.188 18.5027 166.18 17.7747 165.191 17.14ZM171.435 5.772H171.995L172.583 5.716L174.571 6.052C174.366 9.692 173.908 12.8373 173.199 15.488C172.508 18.12 171.538 20.3413 170.287 22.152C169.055 23.9627 167.506 25.4467 165.639 26.604C165.434 26.1933 165.135 25.7173 164.743 25.176C164.351 24.6533 163.978 24.2427 163.623 23.944C165.21 23.104 166.554 21.872 167.655 20.248C168.756 18.624 169.615 16.6453 170.231 14.312C170.866 11.9787 171.267 9.34667 171.435 6.416V5.772ZM205.763 20.836L208.367 20.136C208.684 20.6213 208.955 21.1533 209.179 21.732C209.403 22.3107 209.562 22.824 209.655 23.272L206.911 24.084C206.855 23.636 206.715 23.104 206.491 22.488C206.267 21.872 206.024 21.3213 205.763 20.836ZM213.155 20.08L216.067 20.864C215.768 21.4613 215.47 22.04 215.171 22.6C214.891 23.16 214.63 23.636 214.387 24.028L211.895 23.3C212.119 22.852 212.352 22.32 212.595 21.704C212.838 21.088 213.024 20.5467 213.155 20.08ZM207.303 16.972V18.372H214.247V16.972H207.303ZM204.503 14.984H217.131V20.36H204.503V14.984ZM206.295 7.256V8.544H215.143V7.256H206.295ZM206.295 4.064V5.324H215.143V4.064H206.295ZM203.635 2.02H217.943V10.588H203.635V2.02ZM203.215 11.54H218.419V14.06H203.215V11.54ZM202.655 23.496H218.811V25.988H202.655V23.496ZM207.387 0.199999H209.851V3.532H207.387V0.199999ZM211.503 0.199999H213.995V3.532H211.503V0.199999ZM207.863 2.972H209.851V10.196H207.863V2.972ZM211.503 2.972H213.491V10.196H211.503V2.972ZM192.771 7.536H202.599V10.448H192.771V7.536ZM193.443 1.964H202.039V4.848H193.443V1.964ZM200.387 11.876H202.515V22.292H200.387V11.876ZM196.439 8.992H199.211V26.492H196.439V8.992ZM193.163 11.904H195.291V15.264C195.291 16.7013 195.226 18.2133 195.095 19.8C194.964 21.368 194.656 22.824 194.171 24.168C193.947 23.944 193.648 23.692 193.275 23.412C192.902 23.132 192.575 22.9173 192.295 22.768C192.668 21.6293 192.902 20.388 192.995 19.044C193.107 17.7 193.163 16.4213 193.163 15.208V11.904ZM234.743 24.364C233.082 24.364 231.663 24.112 230.487 23.608C229.311 23.104 228.415 22.4227 227.799 21.564C227.183 20.7053 226.875 19.744 226.875 18.68C226.875 17.4107 227.174 16.356 227.771 15.516C228.387 14.6573 229.283 13.9013 230.459 13.248V13.136C229.526 12.6133 228.826 11.9693 228.359 11.204C227.892 10.4387 227.65 9.57067 227.631 8.6C227.612 7.46133 227.892 6.472 228.471 5.632C229.068 4.77333 229.899 4.10133 230.963 3.616C232.046 3.112 233.296 2.86 234.715 2.86C236.152 2.86 237.394 3.10267 238.439 3.588C239.484 4.05467 240.287 4.708 240.847 5.548C241.426 6.36933 241.715 7.32133 241.715 8.404C241.734 9.43067 241.5 10.336 241.015 11.12C240.53 11.904 239.811 12.632 238.859 13.304V13.416C240.203 14.1253 241.164 14.9093 241.743 15.768C242.322 16.608 242.611 17.588 242.611 18.708C242.611 19.7347 242.294 20.6773 241.659 21.536C241.024 22.3947 240.119 23.0853 238.943 23.608C237.767 24.112 236.367 24.364 234.743 24.364ZM236.451 12.296C237.16 11.6613 237.646 11.0827 237.907 10.56C238.168 10.0373 238.29 9.468 238.271 8.852C238.271 8.32933 238.14 7.83467 237.879 7.368C237.618 6.90133 237.207 6.51867 236.647 6.22C236.106 5.92133 235.406 5.772 234.547 5.772C233.912 5.772 233.343 5.89333 232.839 6.136C232.335 6.37867 231.943 6.71467 231.663 7.144C231.402 7.57333 231.271 8.068 231.271 8.628C231.29 9.3 231.542 9.86 232.027 10.308C232.512 10.756 233.138 11.1387 233.903 11.456C234.687 11.7733 235.536 12.0533 236.451 12.296ZM234.855 21.48C235.658 21.48 236.339 21.3493 236.899 21.088C237.459 20.808 237.879 20.4533 238.159 20.024C238.458 19.576 238.607 19.0907 238.607 18.568C238.607 18.0453 238.486 17.5973 238.243 17.224C238 16.832 237.627 16.496 237.123 16.216C236.638 15.9173 236.031 15.6373 235.303 15.376C234.594 15.1147 233.772 14.844 232.839 14.564C232.074 15.124 231.495 15.7027 231.103 16.3C230.73 16.8973 230.543 17.5507 230.543 18.26C230.543 18.876 230.72 19.4267 231.075 19.912C231.448 20.3973 231.962 20.78 232.615 21.06C233.268 21.34 234.015 21.48 234.855 21.48ZM268.119 3.112C267.596 3.84 266.934 4.596 266.131 5.38C265.328 6.164 264.451 6.92 263.499 7.648C262.547 8.35733 261.548 8.97333 260.503 9.496C260.354 9.08533 260.111 8.60933 259.775 8.068C259.458 7.52667 259.159 7.07867 258.879 6.724C259.906 6.25733 260.904 5.66933 261.875 4.96C262.846 4.232 263.732 3.45733 264.535 2.636C265.338 1.81467 265.982 1.03067 266.467 0.283998H269.547C270.238 1.10533 271.003 1.908 271.843 2.692C272.702 3.45733 273.607 4.148 274.559 4.764C275.511 5.36133 276.472 5.856 277.443 6.248C277.126 6.62133 276.799 7.088 276.463 7.648C276.127 8.208 275.838 8.72133 275.595 9.188C274.718 8.72133 273.812 8.16133 272.879 7.508C271.946 6.836 271.059 6.11733 270.219 5.352C269.398 4.58667 268.698 3.84 268.119 3.112ZM264.115 5.8H272.179V8.18H264.115V5.8ZM262.967 12.688H273.215V14.508H262.967V12.688ZM264.731 23.272H274.223V25.68H264.731V23.272ZM262.743 9.356H275.007V17.924H262.743V15.656H271.983V11.596H262.743V9.356ZM261.371 9.356H264.395V14.116C264.395 15.0307 264.339 16.02 264.227 17.084C264.134 18.148 263.947 19.2307 263.667 20.332C263.406 21.4147 263.023 22.4693 262.519 23.496C262.034 24.504 261.39 25.4187 260.587 26.24C260.438 26.0347 260.223 25.792 259.943 25.512C259.663 25.2507 259.364 24.9893 259.047 24.728C258.748 24.4667 258.496 24.2707 258.291 24.14C259.224 23.1693 259.906 22.096 260.335 20.92C260.783 19.744 261.063 18.5587 261.175 17.364C261.306 16.1693 261.371 15.068 261.371 14.06V9.356ZM263.415 19.044H275.371V26.408H272.403V21.396H266.271V26.436H263.415V19.044ZM250.899 5.632H259.747V8.74H250.899V5.632ZM254.259 0.227999H257.423V22.852C257.423 23.636 257.339 24.2707 257.171 24.756C257.003 25.2413 256.695 25.6147 256.247 25.876C255.78 26.1373 255.202 26.3147 254.511 26.408C253.839 26.5013 253.018 26.5387 252.047 26.52C252.01 26.0907 251.898 25.5587 251.711 24.924C251.543 24.308 251.347 23.776 251.123 23.328C251.683 23.3467 252.215 23.356 252.719 23.356C253.223 23.356 253.568 23.3467 253.755 23.328C253.942 23.328 254.072 23.2907 254.147 23.216C254.222 23.1413 254.259 23.0107 254.259 22.824V0.227999ZM250.535 14.48C251.674 14.2373 253.064 13.9107 254.707 13.5C256.368 13.0707 258.048 12.6413 259.747 12.212L260.139 15.068C258.608 15.572 257.078 16.0667 255.547 16.552C254.016 17.0187 252.598 17.4573 251.291 17.868L250.535 14.48ZM294.775 14.284H298.163V21.844C298.163 22.3107 298.219 22.6093 298.331 22.74C298.462 22.852 298.742 22.908 299.171 22.908C299.283 22.908 299.442 22.908 299.647 22.908C299.871 22.908 300.114 22.908 300.375 22.908C300.636 22.908 300.879 22.908 301.103 22.908C301.327 22.908 301.504 22.908 301.635 22.908C301.915 22.908 302.12 22.824 302.251 22.656C302.4 22.4693 302.503 22.1053 302.559 21.564C302.634 21.004 302.69 20.1733 302.727 19.072C302.951 19.24 303.24 19.4173 303.595 19.604C303.968 19.7907 304.351 19.9493 304.743 20.08C305.154 20.2107 305.499 20.3227 305.779 20.416C305.667 21.8907 305.48 23.048 305.219 23.888C304.958 24.7093 304.566 25.2787 304.043 25.596C303.52 25.9133 302.82 26.072 301.943 26.072C301.775 26.072 301.542 26.072 301.243 26.072C300.944 26.072 300.627 26.072 300.291 26.072C299.955 26.072 299.638 26.072 299.339 26.072C299.059 26.072 298.844 26.072 298.695 26.072C297.631 26.072 296.819 25.9413 296.259 25.68C295.699 25.4187 295.307 24.98 295.083 24.364C294.878 23.748 294.775 22.9173 294.775 21.872V14.284ZM280.523 11.792H305.527V15.04H280.523V11.792ZM285.143 4.008H303.315V7.228H285.143V4.008ZM287.243 14.312H290.771C290.64 15.6373 290.426 16.9067 290.127 18.12C289.847 19.3333 289.399 20.472 288.783 21.536C288.186 22.5813 287.355 23.5333 286.291 24.392C285.246 25.2693 283.874 26.0253 282.175 26.66C282.063 26.3427 281.886 25.9973 281.643 25.624C281.4 25.2693 281.139 24.9147 280.859 24.56C280.598 24.224 280.336 23.9347 280.075 23.692C281.568 23.2067 282.763 22.6373 283.659 21.984C284.574 21.3307 285.264 20.6027 285.731 19.8C286.216 18.9787 286.562 18.1107 286.767 17.196C286.991 16.2813 287.15 15.32 287.243 14.312ZM285.087 0.619999L288.503 1.292C288.223 2.39333 287.868 3.54133 287.439 4.736C287.028 5.93067 286.562 7.07867 286.039 8.18C285.516 9.28133 284.938 10.252 284.303 11.092C284.042 10.9053 283.734 10.7187 283.379 10.532C283.024 10.3267 282.66 10.14 282.287 9.972C281.914 9.804 281.596 9.67333 281.335 9.58C281.932 8.796 282.474 7.89067 282.959 6.864C283.463 5.83733 283.892 4.78267 284.247 3.7C284.62 2.59867 284.9 1.572 285.087 0.619999ZM291.303 0.199999H294.719V12.772H291.303V0.199999ZM315.215 12.604H331.931V26.576H328.571V15.124H318.407V26.576H315.215V12.604ZM309.615 8.768H334.591V11.428H309.615V8.768ZM311.575 5.044H333.051V7.564H311.575V5.044ZM317.371 16.328H329.915V18.428H317.371V16.328ZM317.371 19.66H329.915V21.76H317.371V19.66ZM317.007 23.02H329.943V25.568H317.007V23.02ZM331.007 0.312L332.939 2.692C331.502 2.93467 329.924 3.14 328.207 3.308C326.508 3.45733 324.735 3.588 322.887 3.7C321.039 3.79333 319.182 3.85867 317.315 3.896C315.448 3.93333 313.647 3.94267 311.911 3.924C311.892 3.56933 311.818 3.14933 311.687 2.664C311.556 2.17867 311.416 1.768 311.267 1.432C312.984 1.432 314.748 1.41333 316.559 1.376C318.388 1.32 320.18 1.24533 321.935 1.152C323.69 1.05867 325.342 0.946665 326.891 0.815998C328.44 0.666666 329.812 0.498666 331.007 0.312ZM319.079 2.636L322.551 3.336C321.916 5.65067 321.095 7.9 320.087 10.084C319.098 12.268 317.847 14.2747 316.335 16.104C314.823 17.9147 312.994 19.4453 310.847 20.696C310.679 20.4347 310.474 20.136 310.231 19.8C309.988 19.464 309.736 19.1373 309.475 18.82C309.214 18.5027 308.971 18.2413 308.747 18.036C310.726 16.9533 312.396 15.6 313.759 13.976C315.14 12.3333 316.26 10.532 317.119 8.572C317.978 6.612 318.631 4.63333 319.079 2.636ZM349.795 16.804L349.039 7.228L348.899 3.056H353.547L353.407 7.228L352.651 16.804H349.795ZM351.223 24.252C350.514 24.252 349.926 24.0187 349.459 23.552C348.992 23.0853 348.759 22.4973 348.759 21.788C348.759 21.06 348.992 20.4627 349.459 19.996C349.926 19.5293 350.514 19.296 351.223 19.296C351.932 19.296 352.52 19.5293 352.987 19.996C353.454 20.4627 353.687 21.06 353.687 21.788C353.687 22.4973 353.454 23.0853 352.987 23.552C352.52 24.0187 351.932 24.252 351.223 24.252ZM13.6065 45.392C13.0279 46.2133 12.3372 47.0627 11.5345 47.94C10.7319 48.7987 9.8452 49.6573 8.87454 50.516C7.90387 51.356 6.86787 52.1587 5.76654 52.924C4.68387 53.6893 3.56387 54.3893 2.40654 55.024C2.2012 54.632 1.88387 54.1747 1.45454 53.652C1.04387 53.1107 0.65187 52.672 0.278536 52.336C1.90254 51.496 3.45187 50.5067 4.92654 49.368C6.4012 48.2107 7.72654 46.9973 8.90254 45.728C10.0785 44.4587 11.0119 43.2547 11.7025 42.116H15.2025C15.9492 43.18 16.7892 44.2067 17.7225 45.196C18.6559 46.1853 19.6359 47.1093 20.6625 47.968C21.7079 48.808 22.7812 49.5733 23.8825 50.264C25.0025 50.936 26.1225 51.5147 27.2425 52C26.8132 52.4293 26.4119 52.9053 26.0385 53.428C25.6652 53.9507 25.3199 54.4733 25.0025 54.996C23.9385 54.3987 22.8559 53.7267 21.7545 52.98C20.6532 52.2147 19.5985 51.412 18.5905 50.572C17.5825 49.7133 16.6492 48.8453 15.7905 47.968C14.9319 47.0907 14.2039 46.232 13.6065 45.392ZM4.11454 58.552H23.2665V61.464H4.11454V58.552ZM5.54254 52.336H21.9785V55.304H5.54254V52.336ZM1.84654 64.852H25.7865V67.848H1.84654V64.852ZM11.8705 53.652H15.3985V66.504H11.8705V53.652ZM38.2745 53.512H56.0265V56.34H38.2745V53.512ZM41.3265 57.656H52.8345V60.316H41.3265V57.656ZM42.3905 54.548L45.2745 55.276C44.5839 56.8813 43.6412 58.3653 42.4465 59.728C41.2705 61.072 40.0199 62.1827 38.6945 63.06C38.5265 62.8733 38.3025 62.6493 38.0225 62.388C37.7612 62.108 37.4812 61.8467 37.1825 61.604C36.9025 61.3613 36.6505 61.1653 36.4265 61.016C37.7332 60.3067 38.9092 59.392 39.9545 58.272C41.0185 57.1333 41.8305 55.892 42.3905 54.548ZM52.3305 57.656H55.4385C55.4385 57.656 55.4292 57.8053 55.4105 58.104C55.4105 58.384 55.3919 58.6267 55.3545 58.832C55.2425 60.6427 55.1025 62.136 54.9345 63.312C54.7852 64.4693 54.6172 65.3653 54.4305 66C54.2439 66.6533 54.0199 67.12 53.7585 67.4C53.4972 67.7173 53.2079 67.9413 52.8905 68.072C52.5919 68.2027 52.2559 68.296 51.8825 68.352C51.5652 68.3893 51.1545 68.4173 50.6505 68.436C50.1652 68.4547 49.6332 68.4453 49.0545 68.408C49.0359 68.016 48.9612 67.5587 48.8305 67.036C48.6999 66.532 48.5225 66.112 48.2985 65.776C48.7465 65.8133 49.1479 65.8413 49.5025 65.86C49.8572 65.86 50.1279 65.86 50.3145 65.86C50.5012 65.86 50.6505 65.8413 50.7625 65.804C50.8932 65.7667 51.0145 65.6827 51.1265 65.552C51.2945 65.3653 51.4439 65.0107 51.5745 64.488C51.7239 63.9467 51.8545 63.1627 51.9665 62.136C52.0972 61.1093 52.2185 59.7747 52.3305 58.132V57.656ZM43.7345 48.78V50.124H50.9585V48.78H43.7345ZM43.7345 45.252V46.568H50.9585V45.252H43.7345ZM40.7385 42.928H54.0665V52.448H40.7385V42.928ZM30.0985 48.108H38.6385V51.272H30.0985V48.108ZM32.9265 42.564H36.0625V59.98H32.9265V42.564ZM29.4545 60.54C30.1825 60.2787 31.0225 59.952 31.9745 59.56C32.9452 59.168 33.9719 58.748 35.0545 58.3C36.1372 57.8333 37.2105 57.3667 38.2745 56.9L39.0025 59.784C37.6025 60.512 36.1745 61.24 34.7185 61.968C33.2625 62.696 31.9279 63.3587 30.7145 63.956L29.4545 60.54ZM49.1105 58.216L51.3785 59.448C51.0425 60.568 50.5665 61.716 49.9505 62.892C49.3345 64.0493 48.6439 65.132 47.8785 66.14C47.1132 67.148 46.3105 67.9787 45.4705 68.632C45.1905 68.3147 44.8265 67.9787 44.3785 67.624C43.9305 67.2693 43.4919 66.98 43.0625 66.756C43.9772 66.1773 44.8265 65.4307 45.6105 64.516C46.3945 63.6013 47.0852 62.5933 47.6825 61.492C48.2985 60.3907 48.7745 59.2987 49.1105 58.216ZM44.8825 58.244L47.0665 59.532C46.5999 60.5027 45.9839 61.4827 45.2185 62.472C44.4719 63.4613 43.6505 64.3853 42.7545 65.244C41.8585 66.1027 40.9625 66.812 40.0665 67.372C39.8052 67.036 39.4692 66.6813 39.0585 66.308C38.6665 65.9347 38.2745 65.6267 37.8825 65.384C38.7972 64.9173 39.7025 64.3013 40.5985 63.536C41.5132 62.7707 42.3439 61.9307 43.0905 61.016C43.8372 60.0827 44.4345 59.1587 44.8825 58.244ZM68.9345 57.152H83.6345V68.352H80.4145V60.204H72.0145V68.492H68.9345V57.152ZM81.3945 42.2L83.9705 44.832C82.6079 45.3547 81.0959 45.812 79.4345 46.204C77.7732 46.5773 76.0652 46.8853 74.3105 47.128C72.5745 47.3707 70.8759 47.5667 69.2145 47.716C69.1585 47.324 69.0279 46.848 68.8225 46.288C68.6359 45.7093 68.4492 45.2333 68.2625 44.86C69.4572 44.7293 70.6612 44.58 71.8745 44.412C73.1065 44.244 74.3012 44.048 75.4585 43.824C76.6159 43.6 77.6985 43.3573 78.7065 43.096C79.7145 42.816 80.6105 42.5173 81.3945 42.2ZM74.6745 45.364H77.8665V58.916H74.6745V45.364ZM67.1985 50.376H85.0345V53.568H67.1985V50.376ZM71.1465 64.292H81.7585V67.344H71.1465V64.292ZM60.2825 45L62.1865 42.564C62.7092 42.8253 63.2972 43.124 63.9505 43.46C64.6039 43.796 65.2385 44.132 65.8545 44.468C66.4892 44.804 67.0025 45.1027 67.3945 45.364L65.4065 48.08C65.0332 47.8 64.5479 47.4827 63.9505 47.128C63.3532 46.7733 62.7279 46.4093 62.0745 46.036C61.4212 45.644 60.8239 45.2987 60.2825 45ZM58.9385 52.756L60.7585 50.264C61.2812 50.488 61.8785 50.768 62.5505 51.104C63.2225 51.44 63.8759 51.776 64.5105 52.112C65.1452 52.4293 65.6585 52.7187 66.0505 52.98L64.1745 55.78C63.8012 55.5 63.3065 55.1827 62.6905 54.828C62.0932 54.4733 61.4585 54.1093 60.7865 53.736C60.1145 53.3627 59.4985 53.036 58.9385 52.756ZM59.3585 65.916C59.8625 65.2067 60.4132 64.376 61.0105 63.424C61.6265 62.4533 62.2519 61.4267 62.8865 60.344C63.5212 59.2427 64.1185 58.1507 64.6785 57.068L67.1425 59.308C66.6572 60.2787 66.1345 61.2773 65.5745 62.304C65.0332 63.3307 64.4732 64.3387 63.8945 65.328C63.3345 66.3173 62.7652 67.2693 62.1865 68.184L59.3585 65.916ZM88.7025 60.316H101.779V62.696H88.7025V60.316ZM88.0865 46.988H102.087V49.424H88.0865V46.988ZM93.6305 45.028H96.6825V65.104H93.6305V45.028ZM87.9185 64.768C89.0945 64.6933 90.4385 64.6 91.9505 64.488C93.4625 64.376 95.0585 64.2547 96.7385 64.124C98.4372 63.9747 100.127 63.8253 101.807 63.676L101.835 66.224C100.248 66.392 98.6425 66.56 97.0185 66.728C95.4132 66.896 93.8639 67.0453 92.3705 67.176C90.8959 67.3253 89.5425 67.4653 88.3105 67.596L87.9185 64.768ZM91.4745 55.864V57.124H98.8665V55.864H91.4745ZM91.4745 52.616V53.876H98.8665V52.616H91.4745ZM88.8145 50.516H101.639V59.224H88.8145V50.516ZM100.295 42.368L101.751 44.86C100.575 45.1027 99.2492 45.3173 97.7745 45.504C96.3185 45.672 94.8252 45.812 93.2945 45.924C91.7639 46.0173 90.2985 46.0827 88.8985 46.12C88.8425 45.7653 88.7399 45.364 88.5905 44.916C88.4599 44.4493 88.3105 44.048 88.1425 43.712C89.1879 43.656 90.2612 43.5907 91.3625 43.516C92.4639 43.4227 93.5465 43.32 94.6105 43.208C95.6932 43.096 96.7105 42.9747 97.6625 42.844C98.6332 42.6947 99.5105 42.536 100.295 42.368ZM102.059 48.556H111.775V51.636H102.059V48.556ZM110.403 48.556H113.623C113.623 48.556 113.623 48.6493 113.623 48.836C113.623 49.0227 113.623 49.2373 113.623 49.48C113.623 49.704 113.623 49.8907 113.623 50.04C113.548 52.9147 113.473 55.36 113.399 57.376C113.324 59.3733 113.24 61.0253 113.147 62.332C113.072 63.62 112.951 64.628 112.783 65.356C112.633 66.084 112.447 66.6067 112.223 66.924C111.905 67.3907 111.569 67.7173 111.215 67.904C110.879 68.1093 110.477 68.2587 110.011 68.352C109.581 68.4267 109.059 68.464 108.443 68.464C107.827 68.4827 107.183 68.4827 106.511 68.464C106.492 67.9973 106.389 67.456 106.203 66.84C106.035 66.224 105.82 65.692 105.559 65.244C106.156 65.3 106.707 65.3373 107.211 65.356C107.715 65.3747 108.097 65.384 108.359 65.384C108.583 65.384 108.769 65.3467 108.919 65.272C109.068 65.1973 109.208 65.076 109.339 64.908C109.488 64.684 109.619 64.2547 109.731 63.62C109.843 62.9667 109.936 62.0427 110.011 60.848C110.104 59.6347 110.179 58.076 110.235 56.172C110.309 54.268 110.365 51.9627 110.403 49.256V48.556ZM104.747 42.676H107.967C107.967 45.0653 107.939 47.3333 107.883 49.48C107.845 51.6267 107.724 53.652 107.519 55.556C107.332 57.4413 107.005 59.196 106.539 60.82C106.091 62.4253 105.456 63.8907 104.635 65.216C103.813 66.5413 102.759 67.708 101.471 68.716C101.303 68.436 101.079 68.1373 100.799 67.82C100.537 67.5027 100.257 67.1947 99.9585 66.896C99.6785 66.616 99.3985 66.3827 99.1185 66.196C100.295 65.3 101.247 64.2733 101.975 63.116C102.703 61.94 103.263 60.6427 103.655 59.224C104.047 57.7867 104.317 56.2187 104.467 54.52C104.616 52.8027 104.7 50.964 104.719 49.004C104.737 47.0253 104.747 44.916 104.747 42.676ZM139.411 43.6C139.485 45.8027 139.597 47.9867 139.747 50.152C139.915 52.2987 140.139 54.3427 140.419 56.284C140.717 58.2067 141.109 59.9707 141.595 61.576C142.08 63.1627 142.696 64.488 143.443 65.552C143.181 65.7573 142.892 66.0187 142.575 66.336C142.257 66.6533 141.959 66.98 141.679 67.316C141.399 67.652 141.165 67.9693 140.979 68.268C140.12 66.9427 139.411 65.412 138.851 63.676C138.291 61.9213 137.843 59.9987 137.507 57.908C137.189 55.7987 136.937 53.5587 136.751 51.188C136.583 48.8173 136.443 46.344 136.331 43.768L139.411 43.6ZM131.011 43.964L134.259 44.132C134.147 47.6227 133.951 50.8893 133.671 53.932C133.391 56.956 132.943 59.7093 132.327 62.192C131.711 64.6747 130.824 66.84 129.667 68.688C129.48 68.3707 129.237 68.0347 128.939 67.68C128.64 67.3253 128.332 66.98 128.015 66.644C127.697 66.3267 127.399 66.0653 127.119 65.86C127.865 64.74 128.472 63.396 128.939 61.828C129.405 60.2413 129.779 58.496 130.059 56.592C130.339 54.688 130.544 52.672 130.675 50.544C130.824 48.3973 130.936 46.204 131.011 43.964ZM120.959 46.12V49.732H124.795V46.12H120.959ZM118.187 43.264H127.707V52.56H118.187V43.264ZM121.799 51.748H124.851V64.264H121.799V51.748ZM118.019 54.912H120.707V65.104H118.019V54.912ZM116.787 64.46C117.701 64.236 118.756 63.9467 119.951 63.592C121.145 63.2373 122.405 62.864 123.731 62.472C125.075 62.0613 126.4 61.6507 127.707 61.24L128.239 64.068C126.409 64.684 124.552 65.3 122.667 65.916C120.8 66.532 119.12 67.092 117.627 67.596L116.787 64.46ZM123.031 55.752H128.071V58.664H123.031V55.752ZM168.531 43.6C168.605 45.8027 168.717 47.9867 168.867 50.152C169.035 52.2987 169.259 54.3427 169.539 56.284C169.837 58.2067 170.229 59.9707 170.715 61.576C171.2 63.1627 171.816 64.488 172.563 65.552C172.301 65.7573 172.012 66.0187 171.695 66.336C171.377 66.6533 171.079 66.98 170.799 67.316C170.519 67.652 170.285 67.9693 170.099 68.268C169.24 66.9427 168.531 65.412 167.971 63.676C167.411 61.9213 166.963 59.9987 166.627 57.908C166.309 55.7987 166.057 53.5587 165.871 51.188C165.703 48.8173 165.563 46.344 165.451 43.768L168.531 43.6ZM160.131 43.964L163.379 44.132C163.267 47.6227 163.071 50.8893 162.791 53.932C162.511 56.956 162.063 59.7093 161.447 62.192C160.831 64.6747 159.944 66.84 158.787 68.688C158.6 68.3707 158.357 68.0347 158.059 67.68C157.76 67.3253 157.452 66.98 157.135 66.644C156.817 66.3267 156.519 66.0653 156.239 65.86C156.985 64.74 157.592 63.396 158.059 61.828C158.525 60.2413 158.899 58.496 159.179 56.592C159.459 54.688 159.664 52.672 159.795 50.544C159.944 48.3973 160.056 46.204 160.131 43.964ZM150.079 46.12V49.732H153.915V46.12H150.079ZM147.307 43.264H156.827V52.56H147.307V43.264ZM150.919 51.748H153.971V64.264H150.919V51.748ZM147.139 54.912H149.827V65.104H147.139V54.912ZM145.907 64.46C146.821 64.236 147.876 63.9467 149.071 63.592C150.265 63.2373 151.525 62.864 152.851 62.472C154.195 62.0613 155.52 61.6507 156.827 61.24L157.359 64.068C155.529 64.684 153.672 65.3 151.787 65.916C149.92 66.532 148.24 67.092 146.747 67.596L145.907 64.46ZM152.151 55.752H157.191V58.664H152.151V55.752ZM188.439 57.432H199.051V60.428H188.439V57.432ZM182.223 58.496C182.764 59.8587 183.445 60.9693 184.267 61.828C185.107 62.668 186.059 63.3213 187.123 63.788C188.205 64.236 189.372 64.544 190.623 64.712C191.873 64.8613 193.189 64.936 194.571 64.936C194.832 64.936 195.187 64.936 195.635 64.936C196.101 64.936 196.605 64.936 197.147 64.936C197.707 64.936 198.276 64.936 198.855 64.936C199.433 64.936 199.965 64.936 200.451 64.936C200.955 64.9173 201.365 64.908 201.683 64.908C201.515 65.1507 201.356 65.468 201.207 65.86C201.057 66.252 200.917 66.644 200.787 67.036C200.656 67.4467 200.563 67.82 200.507 68.156H199.219H194.375C192.657 68.156 191.052 68.0347 189.559 67.792C188.065 67.568 186.693 67.148 185.443 66.532C184.192 65.916 183.072 65.048 182.083 63.928C181.112 62.7893 180.272 61.3147 179.563 59.504L182.223 58.496ZM178.471 45.084H198.715V48.164H178.471V45.084ZM175.979 50.908H200.927V54.016H175.979V50.908ZM186.619 42.228H190.063V52.644H186.619V42.228ZM186.619 52.952H190.063V66.196L186.619 64.964V52.952ZM179.899 55.192L183.371 55.584C183.109 57.152 182.745 58.748 182.279 60.372C181.812 61.996 181.196 63.5267 180.431 64.964C179.665 66.3827 178.704 67.568 177.547 68.52C177.36 68.296 177.108 68.044 176.791 67.764C176.492 67.5027 176.184 67.2413 175.867 66.98C175.568 66.7187 175.288 66.5133 175.027 66.364C176.091 65.524 176.949 64.488 177.603 63.256C178.275 62.024 178.788 60.6987 179.143 59.28C179.516 57.8613 179.768 56.4987 179.899 55.192ZM208.991 69.864L208.095 67.596C209.271 67.2227 210.167 66.7093 210.783 66.056C211.417 65.4213 211.735 64.6933 211.735 63.872L211.511 61.128L213.079 63.62C212.836 63.8253 212.575 63.984 212.295 64.096C212.015 64.208 211.716 64.264 211.399 64.264C210.708 64.264 210.092 64.0493 209.551 63.62C209.009 63.172 208.739 62.5467 208.739 61.744C208.739 60.96 209.009 60.344 209.551 59.896C210.092 59.448 210.736 59.224 211.483 59.224C212.472 59.224 213.219 59.5693 213.723 60.26C214.245 60.9507 214.507 61.884 214.507 63.06C214.507 64.6467 214.021 66.0467 213.051 67.26C212.08 68.4733 210.727 69.3413 208.991 69.864ZM245.335 43.628H256.731V46.708H245.335V43.628ZM244.383 53.344H259.867V56.536H244.383V53.344ZM250.319 50.096H253.679V64.768C253.679 65.608 253.576 66.2707 253.371 66.756C253.165 67.2413 252.792 67.6147 252.251 67.876C251.691 68.1373 251.019 68.3053 250.235 68.38C249.469 68.4733 248.573 68.5107 247.547 68.492C247.472 68.0253 247.313 67.4747 247.071 66.84C246.828 66.2053 246.585 65.6547 246.343 65.188C247.052 65.2067 247.733 65.2253 248.387 65.244C249.04 65.2627 249.488 65.2627 249.731 65.244C249.955 65.244 250.104 65.2067 250.179 65.132C250.272 65.0573 250.319 64.9267 250.319 64.74V50.096ZM255.499 43.628H256.339L257.011 43.432L259.195 45.084C258.653 45.9053 258.037 46.764 257.347 47.66C256.675 48.5373 255.965 49.3867 255.219 50.208C254.472 51.0107 253.735 51.72 253.007 52.336C252.783 52.0373 252.475 51.692 252.083 51.3C251.691 50.908 251.355 50.6 251.075 50.376C251.635 49.8533 252.204 49.228 252.783 48.5C253.361 47.772 253.884 47.0347 254.351 46.288C254.836 45.5413 255.219 44.888 255.499 44.328V43.628ZM233.715 47.772H242.787V50.908H233.715V47.772ZM237.495 42.2L240.631 42.536C240.369 44.0293 240.071 45.5973 239.735 47.24C239.417 48.8827 239.081 50.5253 238.727 52.168C238.372 53.792 238.017 55.3693 237.663 56.9C237.308 58.412 236.963 59.7933 236.627 61.044L233.883 59.616C234.2 58.5147 234.517 57.2547 234.835 55.836C235.171 54.4173 235.497 52.924 235.815 51.356C236.132 49.7693 236.431 48.2013 236.711 46.652C237.009 45.084 237.271 43.6 237.495 42.2ZM235.367 59.14L237.187 56.76C238.157 57.376 239.175 58.0667 240.239 58.832C241.321 59.5973 242.32 60.372 243.235 61.156C244.168 61.94 244.905 62.6867 245.447 63.396L243.431 66.112C242.908 65.4027 242.199 64.6373 241.303 63.816C240.407 62.976 239.436 62.1453 238.391 61.324C237.364 60.5027 236.356 59.7747 235.367 59.14ZM241.611 47.772H242.171L242.759 47.716L244.747 48.052C244.541 51.692 244.084 54.8373 243.375 57.488C242.684 60.12 241.713 62.3413 240.463 64.152C239.231 65.9627 237.681 67.4467 235.815 68.604C235.609 68.1933 235.311 67.7173 234.919 67.176C234.527 66.6533 234.153 66.2427 233.799 65.944C235.385 65.104 236.729 63.872 237.831 62.248C238.932 60.624 239.791 58.6453 240.407 56.312C241.041 53.9787 241.443 51.3467 241.611 48.416V47.772ZM275.939 62.836L278.543 62.136C278.86 62.6213 279.131 63.1533 279.355 63.732C279.579 64.3107 279.737 64.824 279.831 65.272L277.087 66.084C277.031 65.636 276.891 65.104 276.667 64.488C276.443 63.872 276.2 63.3213 275.939 62.836ZM283.331 62.08L286.243 62.864C285.944 63.4613 285.645 64.04 285.347 64.6C285.067 65.16 284.805 65.636 284.563 66.028L282.071 65.3C282.295 64.852 282.528 64.32 282.771 63.704C283.013 63.088 283.2 62.5467 283.331 62.08ZM277.479 58.972V60.372H284.423V58.972H277.479ZM274.679 56.984H287.307V62.36H274.679V56.984ZM276.471 49.256V50.544H285.319V49.256H276.471ZM276.471 46.064V47.324H285.319V46.064H276.471ZM273.811 44.02H288.119V52.588H273.811V44.02ZM273.391 53.54H288.595V56.06H273.391V53.54ZM272.831 65.496H288.987V67.988H272.831V65.496ZM277.563 42.2H280.027V45.532H277.563V42.2ZM281.679 42.2H284.171V45.532H281.679V42.2ZM278.039 44.972H280.027V52.196H278.039V44.972ZM281.679 44.972H283.667V52.196H281.679V44.972ZM262.947 49.536H272.775V52.448H262.947V49.536ZM263.619 43.964H272.215V46.848H263.619V43.964ZM270.563 53.876H272.691V64.292H270.563V53.876ZM266.615 50.992H269.387V68.492H266.615V50.992ZM263.339 53.904H265.467V57.264C265.467 58.7013 265.401 60.2133 265.271 61.8C265.14 63.368 264.832 64.824 264.347 66.168C264.123 65.944 263.824 65.692 263.451 65.412C263.077 65.132 262.751 64.9173 262.471 64.768C262.844 63.6293 263.077 62.388 263.171 61.044C263.283 59.7 263.339 58.4213 263.339 57.208V53.904ZM294.195 59.056H315.839V61.324H294.195V59.056ZM292.123 62.332H317.743V64.6H292.123V62.332ZM303.267 56.48H306.599V65.552C306.599 66.2987 306.487 66.8587 306.263 67.232C306.057 67.624 305.675 67.9227 305.115 68.128C304.555 68.3147 303.883 68.4267 303.099 68.464C302.315 68.52 301.381 68.5387 300.299 68.52C300.224 68.128 300.075 67.6893 299.851 67.204C299.645 66.7187 299.44 66.2987 299.235 65.944C299.683 65.9627 300.14 65.9813 300.607 66C301.092 66 301.521 66 301.895 66C302.268 66 302.529 66 302.679 66C302.884 65.9813 303.033 65.9347 303.127 65.86C303.22 65.7853 303.267 65.6547 303.267 65.468V56.48ZM312.395 55.192L314.523 57.012C313.253 57.236 311.835 57.432 310.267 57.6C308.717 57.7493 307.093 57.8707 305.395 57.964C303.715 58.0387 302.016 58.0947 300.299 58.132C298.6 58.1507 296.948 58.16 295.343 58.16C295.324 57.8613 295.259 57.516 295.147 57.124C295.035 56.7133 294.913 56.3773 294.783 56.116C296.332 56.116 297.928 56.1067 299.571 56.088C301.213 56.0507 302.828 55.9947 304.415 55.92C306.001 55.8453 307.476 55.752 308.839 55.64C310.22 55.528 311.405 55.3787 312.395 55.192ZM304.751 44.58C303.892 45.252 302.837 45.924 301.587 46.596C300.355 47.2493 299.02 47.8653 297.583 48.444C296.145 49.004 294.708 49.48 293.271 49.872C293.103 49.4987 292.86 49.0507 292.543 48.528C292.225 48.0053 291.927 47.576 291.647 47.24C293.14 46.904 294.615 46.484 296.071 45.98C297.527 45.4573 298.861 44.8693 300.075 44.216C301.288 43.5627 302.296 42.9 303.099 42.228H306.151C307.252 43.0307 308.456 43.7493 309.763 44.384C311.069 45 312.441 45.5227 313.879 45.952C315.316 46.3813 316.744 46.7267 318.163 46.988C317.808 47.3613 317.463 47.8093 317.127 48.332C316.791 48.836 316.511 49.3027 316.287 49.732C315.353 49.4893 314.355 49.1907 313.291 48.836C312.245 48.4813 311.2 48.08 310.155 47.632C309.109 47.1653 308.12 46.68 307.187 46.176C306.253 45.6533 305.441 45.1213 304.751 44.58ZM298.591 47.072H311.415V49.06H298.591V47.072ZM299.459 51.916V53.148H310.155V51.916H299.459ZM296.323 49.928H313.459V55.136H296.323V49.928ZM321.859 44.076H346.275V47.52H321.859V44.076ZM335.383 53.484L337.987 51.3C338.733 51.8413 339.536 52.4387 340.395 53.092C341.272 53.7267 342.14 54.3893 342.999 55.08C343.876 55.7707 344.688 56.452 345.435 57.124C346.181 57.7773 346.816 58.3747 347.339 58.916L344.483 61.52C344.016 60.96 343.419 60.344 342.691 59.672C341.981 58.9813 341.207 58.272 340.367 57.544C339.545 56.816 338.696 56.1067 337.819 55.416C336.96 54.7253 336.148 54.0813 335.383 53.484ZM334.263 45.364L337.987 46.68C336.923 48.64 335.653 50.5533 334.179 52.42C332.723 54.2867 331.08 56.0133 329.251 57.6C327.421 59.168 325.433 60.512 323.287 61.632C323.119 61.3333 322.895 60.9973 322.615 60.624C322.335 60.2507 322.045 59.8867 321.747 59.532C321.467 59.1587 321.205 58.8413 320.963 58.58C322.475 57.8893 323.903 57.0493 325.247 56.06C326.591 55.052 327.832 53.96 328.971 52.784C330.128 51.608 331.145 50.3947 332.023 49.144C332.919 47.8747 333.665 46.6147 334.263 45.364ZM332.219 52.14L335.887 48.472V68.464H332.219V52.14ZM358.287 44.692H376.123V47.52H358.287V44.692ZM365.343 42.256H368.703V46.036H365.343V42.256ZM363.271 50.768V52.308H370.915V50.768H363.271ZM360.107 48.556H374.275V54.52H360.107V48.556ZM357.615 55.584H376.487V60.988H373.407V58.132H360.555V61.016H357.615V55.584ZM361.507 59.308H372.623V61.968H361.507V59.308ZM365.343 59.952H368.675V65.244C368.675 66.028 368.572 66.644 368.367 67.092C368.18 67.54 367.797 67.876 367.219 68.1C366.64 68.3053 365.94 68.4267 365.119 68.464C364.316 68.52 363.383 68.548 362.319 68.548C362.263 68.0813 362.141 67.568 361.955 67.008C361.787 66.448 361.591 65.944 361.367 65.496C361.833 65.5147 362.291 65.5333 362.739 65.552C363.205 65.5707 363.625 65.58 363.999 65.58C364.372 65.5613 364.624 65.552 364.755 65.552C364.979 65.552 365.128 65.524 365.203 65.468C365.296 65.3933 365.343 65.2813 365.343 65.132V59.952ZM355.795 42.312L358.959 43.32C358.361 44.888 357.652 46.4747 356.831 48.08C356.009 49.6667 355.123 51.1787 354.171 52.616C353.219 54.0347 352.229 55.276 351.203 56.34C351.109 56.06 350.951 55.7053 350.727 55.276C350.521 54.828 350.297 54.38 350.055 53.932C349.812 53.484 349.597 53.12 349.411 52.84C350.251 51.9813 351.063 50.992 351.847 49.872C352.649 48.752 353.387 47.548 354.059 46.26C354.749 44.972 355.328 43.656 355.795 42.312ZM353.107 50.068L356.299 46.876V46.904V68.464H353.107V50.068ZM390.851 58.804L390.095 49.228L389.955 45.056H394.603L394.463 49.228L393.707 58.804H390.851ZM392.279 66.252C391.569 66.252 390.981 66.0187 390.515 65.552C390.048 65.0853 389.815 64.4973 389.815 63.788C389.815 63.06 390.048 62.4627 390.515 61.996C390.981 61.5293 391.569 61.296 392.279 61.296C392.988 61.296 393.576 61.5293 394.043 61.996C394.509 62.4627 394.743 63.06 394.743 63.788C394.743 64.4973 394.509 65.0853 394.043 65.552C393.576 66.0187 392.988 66.252 392.279 66.252ZM43.5665 97.444H55.0185V110.38H51.7985V100.496H46.5905V110.492H43.5665V97.444ZM47.2905 84.256H50.5385V98.284H47.2905V84.256ZM49.2225 90.024H55.9705V93.132H49.2225V90.024ZM45.1625 106.348H53.3105V109.4H45.1625V106.348ZM33.1785 87.308V93.44H39.9825V87.308H33.1785ZM30.6865 85.068H42.5865V95.68H30.6865V85.068ZM33.1225 88.512L34.5225 88.12C34.7465 88.7547 34.9425 89.4453 35.1105 90.192C35.2785 90.9387 35.3812 91.5827 35.4185 92.124L33.9345 92.6C33.9159 92.0587 33.8319 91.4053 33.6825 90.64C33.5332 89.8747 33.3465 89.1653 33.1225 88.512ZM33.8225 104.584L35.8665 104.332C36.0345 105.097 36.1652 105.937 36.2585 106.852C36.3705 107.767 36.4359 108.56 36.4545 109.232L34.2985 109.512C34.3172 108.84 34.2799 108.047 34.1865 107.132C34.0932 106.199 33.9719 105.349 33.8225 104.584ZM36.6225 104.444L38.6105 104.08C38.8905 104.827 39.1425 105.629 39.3665 106.488C39.5905 107.328 39.7492 108.075 39.8425 108.728L37.7425 109.148C37.6865 108.513 37.5465 107.757 37.3225 106.88C37.1172 106.003 36.8839 105.191 36.6225 104.444ZM39.3385 104.22L41.3265 103.464C41.7932 104.136 42.2319 104.883 42.6425 105.704C43.0532 106.525 43.3425 107.244 43.5105 107.86L41.3825 108.728C41.2332 108.093 40.9625 107.356 40.5705 106.516C40.1972 105.676 39.7865 104.911 39.3385 104.22ZM31.3585 104.416L33.6265 105.06C33.4585 106.068 33.2252 107.067 32.9265 108.056C32.6465 109.045 32.2079 109.867 31.6105 110.52L29.4265 109.4C29.9492 108.803 30.3692 108.056 30.6865 107.16C31.0039 106.245 31.2279 105.331 31.3585 104.416ZM38.6105 88.092L40.2905 88.652C40.0292 89.324 39.7585 90.0333 39.4785 90.78C39.2172 91.5267 38.9745 92.152 38.7505 92.656L37.4905 92.18C37.6399 91.788 37.7799 91.3587 37.9105 90.892C38.0599 90.4067 38.1999 89.9213 38.3305 89.436C38.4612 88.932 38.5545 88.484 38.6105 88.092ZM30.0425 100.916C31.1439 100.897 32.3945 100.869 33.7945 100.832C35.2132 100.776 36.7065 100.72 38.2745 100.664C39.8425 100.608 41.4105 100.543 42.9785 100.468L42.9225 103.1C41.4105 103.175 39.8799 103.259 38.3305 103.352C36.7999 103.427 35.3345 103.501 33.9345 103.576C32.5532 103.632 31.2839 103.688 30.1265 103.744L30.0425 100.916ZM30.7425 96.884H42.5305V99.432H30.7425V96.884ZM35.5305 86.216H37.5465V94.644H38.0225V101.952H35.0545V94.644H35.5305V86.216ZM61.2905 101.476H82.8785V103.52H61.2905V101.476ZM59.4425 104.444H84.5585V106.6H59.4425V104.444ZM70.3065 99.18H73.6385V107.636C73.6385 108.383 73.5265 108.933 73.3025 109.288C73.0972 109.661 72.7145 109.941 72.1545 110.128C71.5945 110.315 70.9225 110.427 70.1385 110.464C69.3545 110.501 68.4212 110.52 67.3385 110.52C67.2452 110.128 67.0959 109.699 66.8905 109.232C66.6852 108.765 66.4799 108.364 66.2745 108.028C66.7225 108.047 67.1799 108.056 67.6465 108.056C68.1319 108.056 68.5612 108.047 68.9345 108.028C69.3079 108.028 69.5692 108.028 69.7185 108.028C69.9239 108.028 70.0732 108 70.1665 107.944C70.2599 107.869 70.3065 107.739 70.3065 107.552V99.18ZM78.6785 98.088L80.6385 99.74C79.4252 99.9453 78.0812 100.113 76.6065 100.244C75.1505 100.375 73.6199 100.477 72.0145 100.552C70.4279 100.627 68.8319 100.683 67.2265 100.72C65.6212 100.739 64.0625 100.729 62.5505 100.692C62.5319 100.449 62.4665 100.141 62.3545 99.768C62.2425 99.3947 62.1399 99.096 62.0465 98.872C63.5025 98.872 65.0052 98.8627 66.5545 98.844C68.1039 98.8067 69.6252 98.76 71.1185 98.704C72.6119 98.6293 74.0025 98.5453 75.2905 98.452C76.5972 98.3587 77.7265 98.2373 78.6785 98.088ZM59.5825 85.488H71.8465V87.14H59.5825V85.488ZM59.1625 93.272H71.9305V94.896H59.1625V93.272ZM62.5225 90.752V91.452H68.8785V90.752H62.5225ZM62.5225 88.96V89.632H68.8785V88.96H62.5225ZM60.3385 87.812H71.1465V92.6H60.3385V87.812ZM64.3425 84.228H66.8905V97.892H64.3425V84.228ZM72.3785 91.06H81.9825V93.16H72.3785V91.06ZM75.2625 84.984H80.2465V87.252H75.2625V84.984ZM80.9185 91.06H81.4225L81.9265 91.004L83.4665 91.452C82.9439 92.908 82.1785 94.112 81.1705 95.064C80.1625 95.9973 78.9585 96.7253 77.5585 97.248C76.1585 97.7707 74.5812 98.1627 72.8265 98.424C72.7332 98.088 72.5745 97.7147 72.3505 97.304C72.1452 96.8747 71.9305 96.5293 71.7065 96.268C73.1999 96.1187 74.5625 95.8573 75.7945 95.484C77.0265 95.092 78.0812 94.56 78.9585 93.888C79.8359 93.216 80.4892 92.3573 80.9185 91.312V91.06ZM75.9065 92.908C76.7279 93.9907 77.9599 94.8773 79.6025 95.568C81.2452 96.2587 83.1119 96.716 85.2025 96.94C84.9039 97.22 84.5865 97.5933 84.2505 98.06C83.9332 98.508 83.6905 98.9093 83.5225 99.264C82.0105 99.0213 80.6199 98.648 79.3505 98.144C78.0812 97.64 76.9519 97.0147 75.9625 96.268C74.9732 95.5027 74.1519 94.6253 73.4985 93.636L75.9065 92.908ZM73.6385 84.984H76.4105V86.72C76.4105 87.28 76.3359 87.8587 76.1865 88.456C76.0372 89.0347 75.7665 89.5947 75.3745 90.136C75.0012 90.6587 74.4412 91.1253 73.6945 91.536C73.5452 91.3307 73.3399 91.1067 73.0785 90.864C72.8172 90.6027 72.5465 90.3507 72.2665 90.108C71.9865 89.8467 71.7532 89.66 71.5665 89.548C72.4812 89.1 73.0505 88.6333 73.2745 88.148C73.5172 87.6627 73.6385 87.1587 73.6385 86.636V84.984ZM78.7345 84.984H81.5625V87.448C81.5625 87.84 81.5812 88.0733 81.6185 88.148C81.6745 88.2227 81.7679 88.26 81.8985 88.26C81.9545 88.26 82.0199 88.26 82.0945 88.26C82.1879 88.26 82.2625 88.26 82.3185 88.26C82.3932 88.26 82.4585 88.26 82.5145 88.26C82.5705 88.2413 82.6172 88.2227 82.6545 88.204C82.6919 88.1667 82.7292 88.1293 82.7665 88.092C82.8225 88.036 82.8599 87.952 82.8785 87.84C82.9159 87.7467 82.9345 87.588 82.9345 87.364C82.9532 87.14 82.9719 86.888 82.9905 86.608C83.2145 86.8133 83.5132 87.0187 83.8865 87.224C84.2785 87.4107 84.6425 87.56 84.9785 87.672C84.9412 88.0453 84.8852 88.4187 84.8105 88.792C84.7545 89.1467 84.6799 89.408 84.5865 89.576C84.3812 89.968 84.0919 90.2293 83.7185 90.36C83.5319 90.4533 83.3172 90.5187 83.0745 90.556C82.8319 90.5747 82.6079 90.584 82.4025 90.584C82.2159 90.584 81.9919 90.584 81.7305 90.584C81.4879 90.584 81.2825 90.584 81.1145 90.584C80.7972 90.584 80.4705 90.5373 80.1345 90.444C79.7985 90.3507 79.5279 90.2013 79.3225 89.996C79.1172 89.772 78.9679 89.492 78.8745 89.156C78.7812 88.8013 78.7345 88.26 78.7345 87.532V84.984ZM60.5065 95.092H62.8025V96.492H68.5145V95.092H70.8945V98.172H60.5065V95.092ZM103.879 84.2H107.267V89.184H103.879V84.2ZM97.8305 87.84H113.987V93.776H110.711V90.752H100.967V93.804H97.8305V87.84ZM103.067 91.368L106.427 91.872C106.072 92.936 105.699 94.056 105.307 95.232C104.915 96.3893 104.513 97.5373 104.103 98.676C103.692 99.8147 103.291 100.916 102.899 101.98C102.507 103.025 102.133 103.977 101.779 104.836L98.7265 103.856C99.0625 103.053 99.4265 102.148 99.8185 101.14C100.211 100.113 100.593 99.04 100.967 97.92C101.359 96.8 101.732 95.68 102.087 94.56C102.46 93.4213 102.787 92.3573 103.067 91.368ZM97.6345 95.344H114.267V98.34H97.6345V95.344ZM108.415 97.248L111.971 97.388C111.616 99.4413 111.084 101.215 110.375 102.708C109.684 104.183 108.788 105.424 107.687 106.432C106.585 107.44 105.241 108.271 103.655 108.924C102.087 109.596 100.257 110.137 98.1665 110.548C98.1105 110.287 97.9892 109.969 97.8025 109.596C97.6159 109.241 97.4105 108.887 97.1865 108.532C96.9812 108.177 96.7852 107.879 96.5985 107.636C99.0999 107.281 101.172 106.721 102.815 105.956C104.476 105.191 105.764 104.108 106.679 102.708C107.593 101.289 108.172 99.4693 108.415 97.248ZM100.519 103.52L102.423 101.084C103.449 101.457 104.523 101.896 105.643 102.4C106.763 102.904 107.864 103.455 108.947 104.052C110.029 104.631 111.028 105.228 111.943 105.844C112.876 106.441 113.669 107.029 114.323 107.608L112.167 110.408C111.569 109.829 110.823 109.223 109.927 108.588C109.049 107.953 108.079 107.328 107.015 106.712C105.969 106.096 104.887 105.517 103.767 104.976C102.647 104.416 101.564 103.931 100.519 103.52ZM87.6385 98.536C88.8892 98.2747 90.3825 97.9387 92.1185 97.528C93.8545 97.0987 95.5905 96.66 97.3265 96.212L97.7185 99.236C96.1319 99.684 94.5265 100.132 92.9025 100.58C91.2972 101.028 89.8225 101.429 88.4785 101.784L87.6385 98.536ZM88.0865 89.492H97.3825V92.6H88.0865V89.492ZM91.4745 84.2H94.6945V106.992C94.6945 107.795 94.6105 108.42 94.4425 108.868C94.2745 109.316 93.9572 109.661 93.4905 109.904C93.0239 110.147 92.4452 110.305 91.7545 110.38C91.0639 110.473 90.2332 110.52 89.2625 110.52C89.2065 110.091 89.0852 109.587 88.8985 109.008C88.7305 108.429 88.5439 107.916 88.3385 107.468C88.8799 107.487 89.4025 107.505 89.9065 107.524C90.4105 107.524 90.7559 107.524 90.9425 107.524C91.1292 107.524 91.2599 107.487 91.3345 107.412C91.4279 107.319 91.4745 107.179 91.4745 106.992V84.2ZM129.415 85.712H139.999V88.904H129.415V85.712ZM128.743 95.624H143.359V98.816H128.743V95.624ZM127.567 106.488H143.387V109.68H127.567V106.488ZM132.327 86.776L135.547 86.972C135.453 88.3533 135.341 89.8 135.211 91.312C135.08 92.8053 134.949 94.3173 134.819 95.848C134.688 97.3787 134.548 98.872 134.399 100.328C134.249 101.784 134.1 103.165 133.951 104.472C133.801 105.76 133.652 106.927 133.503 107.972H130.283C130.451 106.908 130.609 105.713 130.759 104.388C130.927 103.044 131.085 101.635 131.235 100.16C131.403 98.6667 131.552 97.1547 131.683 95.624C131.832 94.0933 131.953 92.572 132.047 91.06C132.159 89.548 132.252 88.12 132.327 86.776ZM138.123 85.712H141.399C141.38 87.1867 141.343 88.7267 141.287 90.332C141.249 91.9187 141.203 93.524 141.147 95.148C141.109 96.7533 141.053 98.3307 140.979 99.88C140.923 101.411 140.857 102.876 140.783 104.276C140.708 105.657 140.624 106.899 140.531 108H137.143C137.236 106.861 137.329 105.592 137.423 104.192C137.535 102.792 137.628 101.317 137.703 99.768C137.796 98.2187 137.871 96.6413 137.927 95.036C137.983 93.412 138.02 91.816 138.039 90.248C138.076 88.68 138.104 87.168 138.123 85.712ZM118.859 91.172H127.203V93.972H118.859V91.172ZM117.627 96.016H128.015V98.872H117.627V96.016ZM117.823 100.496L120.007 99.936C120.249 100.701 120.473 101.532 120.679 102.428C120.884 103.324 121.024 104.089 121.099 104.724L118.775 105.396C118.737 104.705 118.625 103.912 118.439 103.016C118.252 102.12 118.047 101.28 117.823 100.496ZM117.291 106.908C118.224 106.777 119.297 106.628 120.511 106.46C121.724 106.273 123.003 106.068 124.347 105.844C125.709 105.62 127.063 105.405 128.407 105.2L128.575 108.028C127.361 108.252 126.12 108.476 124.851 108.7C123.6 108.924 122.387 109.139 121.211 109.344C120.035 109.549 118.952 109.736 117.963 109.904L117.291 106.908ZM125.691 99.684L128.211 100.3C127.931 101.121 127.66 101.971 127.399 102.848C127.137 103.707 126.895 104.435 126.671 105.032L124.655 104.444C124.785 103.996 124.916 103.492 125.047 102.932C125.177 102.372 125.299 101.812 125.411 101.252C125.541 100.673 125.635 100.151 125.691 99.684ZM121.463 92.348H124.375V107.384L121.463 107.916V92.348ZM121.463 84.2H123.283V84.844H124.235V85.712C123.88 86.4213 123.441 87.2053 122.919 88.064C122.415 88.904 121.817 89.772 121.127 90.668C120.436 91.564 119.624 92.4413 118.691 93.3C118.541 93.0573 118.345 92.7867 118.103 92.488C117.86 92.1893 117.608 91.9093 117.347 91.648C117.085 91.3867 116.843 91.1813 116.619 91.032C117.421 90.36 118.121 89.6413 118.719 88.876C119.335 88.092 119.867 87.2987 120.315 86.496C120.781 85.6933 121.164 84.928 121.463 84.2ZM121.883 84.2H124.207C124.785 84.6853 125.392 85.2267 126.027 85.824C126.661 86.4027 127.249 87 127.791 87.616C128.351 88.2133 128.808 88.764 129.163 89.268L126.979 91.844C126.68 91.3587 126.269 90.7987 125.747 90.164C125.243 89.5107 124.701 88.8667 124.123 88.232C123.563 87.5787 123.003 87.028 122.443 86.58H121.883V84.2ZM150.751 111.864L149.855 109.596C151.031 109.223 151.927 108.709 152.543 108.056C153.177 107.421 153.495 106.693 153.495 105.872L153.271 103.128L154.839 105.62C154.596 105.825 154.335 105.984 154.055 106.096C153.775 106.208 153.476 106.264 153.159 106.264C152.468 106.264 151.852 106.049 151.311 105.62C150.769 105.172 150.499 104.547 150.499 103.744C150.499 102.96 150.769 102.344 151.311 101.896C151.852 101.448 152.496 101.224 153.243 101.224C154.232 101.224 154.979 101.569 155.483 102.26C156.005 102.951 156.267 103.884 156.267 105.06C156.267 106.647 155.781 108.047 154.811 109.26C153.84 110.473 152.487 111.341 150.751 111.864ZM181.551 96.604H198.267V110.576H194.907V99.124H184.743V110.576H181.551V96.604ZM175.951 92.768H200.927V95.428H175.951V92.768ZM177.911 89.044H199.387V91.564H177.911V89.044ZM183.707 100.328H196.251V102.428H183.707V100.328ZM183.707 103.66H196.251V105.76H183.707V103.66ZM183.343 107.02H196.279V109.568H183.343V107.02ZM197.343 84.312L199.275 86.692C197.837 86.9347 196.26 87.14 194.543 87.308C192.844 87.4573 191.071 87.588 189.223 87.7C187.375 87.7933 185.517 87.8587 183.651 87.896C181.784 87.9333 179.983 87.9427 178.247 87.924C178.228 87.5693 178.153 87.1493 178.023 86.664C177.892 86.1787 177.752 85.768 177.603 85.432C179.32 85.432 181.084 85.4133 182.895 85.376C184.724 85.32 186.516 85.2453 188.271 85.152C190.025 85.0587 191.677 84.9467 193.227 84.816C194.776 84.6667 196.148 84.4987 197.343 84.312ZM185.415 86.636L188.887 87.336C188.252 89.6507 187.431 91.9 186.423 94.084C185.433 96.268 184.183 98.2747 182.671 100.104C181.159 101.915 179.329 103.445 177.183 104.696C177.015 104.435 176.809 104.136 176.567 103.8C176.324 103.464 176.072 103.137 175.811 102.82C175.549 102.503 175.307 102.241 175.083 102.036C177.061 100.953 178.732 99.6 180.095 97.976C181.476 96.3333 182.596 94.532 183.455 92.572C184.313 90.612 184.967 88.6333 185.415 86.636ZM205.239 85.488H229.907V88.484H205.239V85.488ZM216.019 86.748H219.547V98.06C219.547 99.1987 219.435 100.291 219.211 101.336C218.987 102.381 218.595 103.371 218.035 104.304C217.493 105.237 216.737 106.096 215.767 106.88C214.815 107.664 213.592 108.364 212.099 108.98C210.605 109.596 208.804 110.119 206.695 110.548C206.564 110.287 206.377 109.969 206.135 109.596C205.911 109.223 205.668 108.849 205.407 108.476C205.145 108.121 204.893 107.813 204.651 107.552C206.667 107.253 208.356 106.871 209.719 106.404C211.081 105.937 212.183 105.415 213.023 104.836C213.863 104.239 214.497 103.585 214.927 102.876C215.356 102.167 215.645 101.411 215.795 100.608C215.944 99.7867 216.019 98.928 216.019 98.032V86.748ZM210.867 97.164V98.984H224.811V97.164H210.867ZM210.867 92.824V94.644H224.811V92.824H210.867ZM207.675 90.108H228.143V101.7H207.675V90.108ZM211.007 101.56C211.996 102.811 213.144 103.8 214.451 104.528C215.776 105.256 217.26 105.797 218.903 106.152C220.564 106.488 222.403 106.703 224.419 106.796C226.453 106.871 228.665 106.908 231.055 106.908C230.756 107.281 230.467 107.785 230.187 108.42C229.907 109.055 229.72 109.652 229.627 110.212C227.163 110.175 224.857 110.053 222.711 109.848C220.564 109.661 218.585 109.307 216.775 108.784C214.964 108.28 213.331 107.543 211.875 106.572C210.419 105.601 209.159 104.323 208.095 102.736L211.007 101.56ZM239.427 91.172L241.667 89.296C242.245 89.5573 242.852 89.8653 243.487 90.22C244.121 90.5747 244.719 90.9387 245.279 91.312C245.857 91.6853 246.324 92.04 246.679 92.376L244.327 94.448C243.991 94.112 243.543 93.748 242.983 93.356C242.423 92.964 241.835 92.572 241.219 92.18C240.603 91.788 240.005 91.452 239.427 91.172ZM252.055 86.328H252.671L253.231 86.16L255.387 87.448C254.491 89.128 253.343 90.6307 251.943 91.956C250.543 93.2627 248.965 94.4013 247.211 95.372C245.475 96.3427 243.627 97.1733 241.667 97.864C239.707 98.536 237.719 99.0773 235.703 99.488C235.553 99.0587 235.329 98.564 235.031 98.004C234.751 97.4253 234.461 96.9587 234.163 96.604C236.048 96.3053 237.905 95.876 239.735 95.316C241.564 94.7373 243.281 94.0373 244.887 93.216C246.492 92.3947 247.911 91.452 249.143 90.388C250.375 89.3053 251.345 88.1107 252.055 86.804V86.328ZM243.179 86.328H252.811V89.072H243.179V86.328ZM244.747 84.116L248.415 84.9C246.977 86.524 245.297 87.9987 243.375 89.324C241.471 90.6493 239.221 91.8347 236.627 92.88C236.459 92.6187 236.244 92.3293 235.983 92.012C235.74 91.6947 235.469 91.3867 235.171 91.088C234.891 90.7893 234.629 90.556 234.387 90.388C236.029 89.8653 237.513 89.2587 238.839 88.568C240.164 87.8773 241.321 87.1587 242.311 86.412C243.3 85.6467 244.112 84.8813 244.747 84.116ZM243.235 101.784L245.671 99.88C246.249 100.197 246.856 100.552 247.491 100.944C248.125 101.336 248.732 101.747 249.311 102.176C249.889 102.587 250.356 102.969 250.711 103.324L248.107 105.396C247.789 105.041 247.351 104.649 246.791 104.22C246.249 103.791 245.661 103.361 245.027 102.932C244.411 102.503 243.813 102.12 243.235 101.784ZM255.583 96.52H256.255L256.843 96.38L259.055 97.528C258.196 99.6187 257.067 101.411 255.667 102.904C254.285 104.397 252.671 105.648 250.823 106.656C248.993 107.664 246.987 108.476 244.803 109.092C242.637 109.708 240.351 110.184 237.943 110.52C237.812 110.072 237.607 109.549 237.327 108.952C237.047 108.355 236.767 107.86 236.487 107.468C238.708 107.244 240.827 106.88 242.843 106.376C244.859 105.872 246.707 105.209 248.387 104.388C250.067 103.548 251.513 102.521 252.727 101.308C253.959 100.076 254.911 98.6387 255.583 96.996V96.52ZM247.323 96.52H256.479V99.32H247.323V96.52ZM249.283 93.804L252.951 94.644C251.401 96.492 249.516 98.1627 247.295 99.656C245.092 101.131 242.432 102.428 239.315 103.548C239.203 103.268 239.025 102.969 238.783 102.652C238.54 102.316 238.288 101.989 238.027 101.672C237.765 101.355 237.513 101.103 237.271 100.916C239.231 100.319 240.976 99.6467 242.507 98.9C244.056 98.1347 245.391 97.3227 246.511 96.464C247.649 95.5867 248.573 94.7 249.283 93.804ZM272.775 99.152H287.475V110.352H284.255V102.204H275.855V110.492H272.775V99.152ZM285.235 84.2L287.811 86.832C286.448 87.3547 284.936 87.812 283.275 88.204C281.613 88.5773 279.905 88.8853 278.151 89.128C276.415 89.3707 274.716 89.5667 273.055 89.716C272.999 89.324 272.868 88.848 272.663 88.288C272.476 87.7093 272.289 87.2333 272.103 86.86C273.297 86.7293 274.501 86.58 275.715 86.412C276.947 86.244 278.141 86.048 279.299 85.824C280.456 85.6 281.539 85.3573 282.547 85.096C283.555 84.816 284.451 84.5173 285.235 84.2ZM278.515 87.364H281.707V100.916H278.515V87.364ZM271.039 92.376H288.875V95.568H271.039V92.376ZM274.987 106.292H285.599V109.344H274.987V106.292ZM264.123 87L266.027 84.564C266.549 84.8253 267.137 85.124 267.791 85.46C268.444 85.796 269.079 86.132 269.695 86.468C270.329 86.804 270.843 87.1027 271.235 87.364L269.247 90.08C268.873 89.8 268.388 89.4827 267.791 89.128C267.193 88.7733 266.568 88.4093 265.915 88.036C265.261 87.644 264.664 87.2987 264.123 87ZM262.779 94.756L264.599 92.264C265.121 92.488 265.719 92.768 266.391 93.104C267.063 93.44 267.716 93.776 268.351 94.112C268.985 94.4293 269.499 94.7187 269.891 94.98L268.015 97.78C267.641 97.5 267.147 97.1827 266.531 96.828C265.933 96.4733 265.299 96.1093 264.627 95.736C263.955 95.3627 263.339 95.036 262.779 94.756ZM263.199 107.916C263.703 107.207 264.253 106.376 264.851 105.424C265.467 104.453 266.092 103.427 266.727 102.344C267.361 101.243 267.959 100.151 268.519 99.068L270.983 101.308C270.497 102.279 269.975 103.277 269.415 104.304C268.873 105.331 268.313 106.339 267.735 107.328C267.175 108.317 266.605 109.269 266.027 110.184L263.199 107.916ZM292.543 102.316H305.619V104.696H292.543V102.316ZM291.927 88.988H305.927V91.424H291.927V88.988ZM297.471 87.028H300.523V107.104H297.471V87.028ZM291.759 106.768C292.935 106.693 294.279 106.6 295.791 106.488C297.303 106.376 298.899 106.255 300.579 106.124C302.277 105.975 303.967 105.825 305.647 105.676L305.675 108.224C304.088 108.392 302.483 108.56 300.859 108.728C299.253 108.896 297.704 109.045 296.211 109.176C294.736 109.325 293.383 109.465 292.151 109.596L291.759 106.768ZM295.315 97.864V99.124H302.707V97.864H295.315ZM295.315 94.616V95.876H302.707V94.616H295.315ZM292.655 92.516H305.479V101.224H292.655V92.516ZM304.135 84.368L305.591 86.86C304.415 87.1027 303.089 87.3173 301.615 87.504C300.159 87.672 298.665 87.812 297.135 87.924C295.604 88.0173 294.139 88.0827 292.739 88.12C292.683 87.7653 292.58 87.364 292.431 86.916C292.3 86.4493 292.151 86.048 291.983 85.712C293.028 85.656 294.101 85.5907 295.203 85.516C296.304 85.4227 297.387 85.32 298.451 85.208C299.533 85.096 300.551 84.9747 301.503 84.844C302.473 84.6947 303.351 84.536 304.135 84.368ZM305.899 90.556H315.615V93.636H305.899V90.556ZM314.243 90.556H317.463C317.463 90.556 317.463 90.6493 317.463 90.836C317.463 91.0227 317.463 91.2373 317.463 91.48C317.463 91.704 317.463 91.8907 317.463 92.04C317.388 94.9147 317.313 97.36 317.239 99.376C317.164 101.373 317.08 103.025 316.987 104.332C316.912 105.62 316.791 106.628 316.623 107.356C316.473 108.084 316.287 108.607 316.063 108.924C315.745 109.391 315.409 109.717 315.055 109.904C314.719 110.109 314.317 110.259 313.851 110.352C313.421 110.427 312.899 110.464 312.283 110.464C311.667 110.483 311.023 110.483 310.351 110.464C310.332 109.997 310.229 109.456 310.043 108.84C309.875 108.224 309.66 107.692 309.399 107.244C309.996 107.3 310.547 107.337 311.051 107.356C311.555 107.375 311.937 107.384 312.199 107.384C312.423 107.384 312.609 107.347 312.759 107.272C312.908 107.197 313.048 107.076 313.179 106.908C313.328 106.684 313.459 106.255 313.571 105.62C313.683 104.967 313.776 104.043 313.851 102.848C313.944 101.635 314.019 100.076 314.075 98.172C314.149 96.268 314.205 93.9627 314.243 91.256V90.556ZM308.587 84.676H311.807C311.807 87.0653 311.779 89.3333 311.723 91.48C311.685 93.6267 311.564 95.652 311.359 97.556C311.172 99.4413 310.845 101.196 310.379 102.82C309.931 104.425 309.296 105.891 308.475 107.216C307.653 108.541 306.599 109.708 305.311 110.716C305.143 110.436 304.919 110.137 304.639 109.82C304.377 109.503 304.097 109.195 303.799 108.896C303.519 108.616 303.239 108.383 302.959 108.196C304.135 107.3 305.087 106.273 305.815 105.116C306.543 103.94 307.103 102.643 307.495 101.224C307.887 99.7867 308.157 98.2187 308.307 96.52C308.456 94.8027 308.54 92.964 308.559 91.004C308.577 89.0253 308.587 86.916 308.587 84.676ZM336.027 94.728V97.696H342.075V94.728H336.027ZM332.947 91.872H345.351V100.58H332.947V91.872ZM339.443 99.74H342.607V106.46C342.607 106.852 342.635 107.104 342.691 107.216C342.747 107.309 342.877 107.356 343.083 107.356C343.139 107.356 343.232 107.356 343.363 107.356C343.512 107.356 343.652 107.356 343.783 107.356C343.932 107.356 344.044 107.356 344.119 107.356C344.268 107.356 344.38 107.272 344.455 107.104C344.548 106.936 344.613 106.609 344.651 106.124C344.707 105.62 344.744 104.855 344.763 103.828C344.968 103.996 345.229 104.164 345.547 104.332C345.883 104.5 346.228 104.649 346.583 104.78C346.956 104.911 347.283 105.013 347.563 105.088C347.488 106.469 347.329 107.533 347.087 108.28C346.863 109.045 346.536 109.568 346.107 109.848C345.696 110.147 345.145 110.296 344.455 110.296C344.343 110.296 344.193 110.296 344.007 110.296C343.839 110.296 343.661 110.296 343.475 110.296C343.307 110.296 343.139 110.296 342.971 110.296C342.803 110.296 342.653 110.296 342.523 110.296C341.683 110.296 341.039 110.175 340.591 109.932C340.143 109.689 339.835 109.288 339.667 108.728C339.517 108.187 339.443 107.44 339.443 106.488V99.74ZM334.739 100.16H338.043C337.968 101.373 337.819 102.503 337.595 103.548C337.389 104.575 337.063 105.527 336.615 106.404C336.167 107.281 335.541 108.065 334.739 108.756C333.955 109.447 332.928 110.053 331.659 110.576C331.547 110.296 331.379 109.988 331.155 109.652C330.931 109.335 330.697 109.017 330.455 108.7C330.212 108.383 329.969 108.121 329.727 107.916C330.791 107.543 331.64 107.104 332.275 106.6C332.909 106.077 333.395 105.499 333.731 104.864C334.067 104.211 334.3 103.501 334.431 102.736C334.58 101.952 334.683 101.093 334.739 100.16ZM335.551 84.984H342.327V88.008H335.551V84.984ZM333.591 87.476L336.867 88.316C336.4 89.4547 335.831 90.6213 335.159 91.816C334.505 92.992 333.777 93.9813 332.975 94.784C332.639 94.4853 332.219 94.168 331.715 93.832C331.211 93.4773 330.772 93.1973 330.399 92.992C331.108 92.2827 331.743 91.4147 332.303 90.388C332.881 89.3427 333.311 88.372 333.591 87.476ZM339.779 84.984H343.251C343.531 85.88 343.895 86.776 344.343 87.672C344.791 88.5493 345.295 89.38 345.855 90.164C346.415 90.948 346.993 91.6107 347.591 92.152C347.311 92.32 346.984 92.5253 346.611 92.768C346.256 93.0107 345.911 93.272 345.575 93.552C345.239 93.8133 344.959 94.056 344.735 94.28C343.82 93.272 342.989 92.0773 342.243 90.696C341.496 89.3147 340.88 87.924 340.395 86.524H339.779V84.984ZM322.195 92.796H330.651V95.344H322.195V92.796ZM322.307 85.096H330.595V87.616H322.307V85.096ZM322.195 96.632H330.651V99.152H322.195V96.632ZM320.879 88.848H331.575V91.508H320.879V88.848ZM323.651 100.496H330.707V109.036H323.651V106.376H327.823V103.156H323.651V100.496ZM322.139 100.496H324.967V110.128H322.139V100.496ZM352.855 85.74H360.919V102.932H352.855V99.88H357.811V88.792H352.855V85.74ZM352.911 92.74H359.015V95.736H352.911V92.74ZM364.867 85.348H373.435V88.456H364.867V85.348ZM364.867 92.012H373.435V95.036H364.867V92.012ZM364.811 98.648H373.407V101.672H364.811V98.648ZM351.091 85.74H354.199V105.368H351.091V85.74ZM372.203 85.348H375.535V106.656C375.535 107.533 375.423 108.215 375.199 108.7C374.993 109.204 374.611 109.596 374.051 109.876C373.491 110.137 372.8 110.305 371.979 110.38C371.157 110.455 370.159 110.492 368.983 110.492C368.927 110.175 368.833 109.811 368.703 109.4C368.591 109.008 368.451 108.616 368.283 108.224C368.133 107.851 367.975 107.524 367.807 107.244C368.311 107.263 368.815 107.281 369.319 107.3C369.823 107.3 370.271 107.3 370.663 107.3C371.073 107.281 371.353 107.272 371.503 107.272C371.764 107.272 371.941 107.225 372.035 107.132C372.147 107.039 372.203 106.871 372.203 106.628V85.348ZM362.851 85.348H366.155V95.512C366.155 96.7067 366.08 97.9947 365.931 99.376C365.781 100.757 365.501 102.139 365.091 103.52C364.699 104.883 364.111 106.189 363.327 107.44C362.543 108.672 361.507 109.764 360.219 110.716C360.051 110.492 359.808 110.231 359.491 109.932C359.192 109.652 358.875 109.372 358.539 109.092C358.221 108.812 357.932 108.607 357.671 108.476C358.865 107.599 359.808 106.637 360.499 105.592C361.189 104.528 361.703 103.427 362.039 102.288C362.375 101.131 362.589 99.9733 362.683 98.816C362.795 97.6587 362.851 96.548 362.851 95.484V85.348Z" fill="black"/>
</svg>
