<svg width="599" height="137" viewBox="0 0 599 137" fill="none" xmlns="http://www.w3.org/2000/svg">
<path d="M37 0H102C118.569 0 132 13.4315 132 30V98H37V0Z" fill="#FF5F17"/>
<path d="M145 0H208C224.569 0 238 13.4315 238 30V98H145V0Z" fill="#39BF63"/>
<path d="M251 0H315C331.569 0 345 13.4315 345 30V98H251V0Z" fill="#FF5F17"/>
<path d="M358 0H421C437.569 0 451 13.4315 451 30V98H358V0Z" fill="#39BF63"/>
<path d="M464 1H529C545.569 1 559 14.4315 559 31V99H464V1Z" fill="#FF5F17"/>
<path d="M52.6 59.45H120.4V66.65H52.6V59.45ZM67 31.55H112.45V37.4H67V31.55ZM67 40.55H112.525V46.4H67V40.55ZM65.2 21.425H116.2V28.475H65.2V21.425ZM83.875 25.85H92.5V52.175H83.875V25.85ZM81.775 54.65H90.775V83.675H81.775V54.65ZM81.1 62.45L87.85 65.75C80.125 73.4 67.225 80 55.825 83.3C54.55 81.05 52 77.75 50.05 75.875C61.45 73.475 74.425 68.225 81.1 62.45ZM91.75 62.225C98.2 67.925 110.875 73.175 122.125 75.65C120.25 77.45 117.775 80.75 116.5 82.925C105.175 79.7 92.575 73.1 84.925 65.6L91.75 62.225ZM87.625 13.325L97.75 14.525C95.35 19.025 92.65 23.225 90.55 26.15L82.6 24.575C84.475 21.35 86.575 16.7 87.625 13.325ZM68.425 13.175L77.65 14.975C72.625 23.75 66.025 32.375 56.8 39.8C55.375 37.775 52.45 35 50.425 33.725C58.825 27.65 64.975 19.775 68.425 13.175ZM61.15 26H69.7V49.625H118.375V56.45H61.15V26ZM158.725 68.9H227.2V76.025H158.725V68.9ZM188.05 62.6H197.5V83.75H188.05V62.6ZM175.6 56.075V59.6H210.025V56.075H175.6ZM175.6 46.925V50.45H210.025V46.925H175.6ZM166.825 40.925H219.175V65.6H166.825V40.925ZM163.825 18.275H222.475V25.325H163.825V18.275ZM159.025 30.875H226.825V37.925H159.025V30.875ZM187.975 13.325H197.5V23.3H187.975V13.325ZM203.35 23.75L212.95 25.4C211.375 28.475 209.95 31.1 208.825 33.05L200.275 31.475C201.325 29.225 202.675 26 203.35 23.75ZM173.725 25.625L182.425 24.125C183.85 26.225 185.2 29.225 185.65 31.325L176.575 33.2C176.2 31.1 175 27.875 173.725 25.625ZM266.05 56.075H333.025V63.875H266.05V56.075ZM294.775 50.225H303.925V83.675H294.775V50.225ZM292 59.45L299.35 62.675C292.525 71.525 281.125 79.175 270.025 83.15C268.675 80.9 265.975 77.45 264.025 75.65C274.825 72.575 286.225 66.35 292 59.45ZM306.625 59.675C312.55 66.2 324.025 72.125 334.975 74.975C333.025 76.775 330.25 80.3 328.975 82.55C317.875 78.8 306.325 71.45 299.2 63.125L306.625 59.675ZM295.525 38.975V44.6H303.1V38.975H295.525ZM295.525 27.125V32.675H303.1V27.125H295.525ZM288.025 20.375H310.9V51.35H288.025V20.375ZM295.9 13.25L304.975 14.3C303.55 18.2 302.125 22.025 300.925 24.65L293.8 23.375C294.625 20.375 295.525 16.25 295.9 13.25ZM265.375 30.05L268.9 23.975C272.725 26.675 277.6 30.65 279.775 33.35L276.025 40.25C273.925 37.25 269.125 32.975 265.375 30.05ZM279.775 39.5L285.325 37.775C287.125 42.275 288.85 48.125 289.3 51.725L283.375 53.9C283 50.15 281.425 44.075 279.775 39.5ZM280.825 24.275L287.575 26.975C283.375 34.4 278.05 43.025 273.625 48.575L268.075 45.875C272.425 40.25 277.825 31.1 280.825 24.275ZM274.825 13.85L281.8 16.325C279.325 21.425 276.55 27.05 274.225 30.8L268.45 28.4C270.625 24.5 273.4 18.35 274.825 13.85ZM265.225 45.125C270.4 44.825 277.675 44.3 285.325 43.7L285.4 49.85C278.5 50.9 271.75 51.725 266.05 52.55L265.225 45.125ZM308.95 29.3L313 23.6C316.9 26.825 321.775 31.4 323.95 34.475L319.675 41C317.65 37.625 312.85 32.75 308.95 29.3ZM323.725 39.2L329.575 37.1C331.675 41.825 333.775 48.05 334.45 51.875L328.15 54.425C327.55 50.45 325.675 44.075 323.725 39.2ZM324.7 24.425L331.525 27.2C327.25 34.625 321.7 43.25 317.2 48.8L311.65 46.175C316.075 40.475 321.625 31.25 324.7 24.425ZM319 13.775L326.05 16.25C323.425 21.425 320.575 26.975 318.175 30.65L312.4 28.325C314.65 24.425 317.575 18.275 319 13.775ZM309.475 44.975C314.8 44.75 322.225 44.3 329.95 43.85V50.15C323.05 50.975 316.15 51.725 310.45 52.4L309.475 44.975ZM389.725 62.15H418.6V67.1H389.725V62.15ZM393.85 55.625H420.325V59.75H393.85V55.625ZM393.85 49.1H420.025V53.3H393.85V49.1ZM403.075 44.825H409.825V65H403.075V44.825ZM417.55 62.15H424.525C424.525 62.15 424.525 63.725 424.45 64.55C424 74.075 423.475 78.05 422.125 79.7C421 80.975 419.65 81.5 418 81.65C416.575 81.8 414.175 81.875 411.625 81.725C411.55 80.15 410.875 77.825 410.125 76.4C412.075 76.55 413.65 76.625 414.475 76.55C415.225 76.625 415.675 76.475 416.125 76.025C416.875 75.05 417.25 71.825 417.55 63.125V62.15ZM388.3 68.3L393.475 69.725C392.8 74.15 391.6 78.575 388.6 81.275L383.875 78.2C386.35 75.95 387.775 72.125 388.3 68.3ZM409 68.975L412.6 67.85C413.875 69.725 415 72.5 415.525 74.225L411.625 75.575C411.25 73.775 410.2 71 409 68.975ZM395.35 70.1L399.775 69.5C400.45 72.725 400.675 76.85 400.525 79.475L395.8 80.15C396.1 77.45 395.875 73.4 395.35 70.1ZM402.4 69.8L406.525 68.75C407.575 71.525 408.325 75.125 408.55 77.45L404.125 78.575C404.05 76.175 403.375 72.575 402.4 69.8ZM389.725 41.9H422.125V46.85H396.775V64.925H389.725V41.9ZM378.85 24.575H397.675V29.675H378.85V24.575ZM413.125 24.575H432.175V29.675H413.125V24.575ZM429.475 15.725H438.1V74.825C438.1 78.8 437.35 80.975 435.025 82.4C432.625 83.675 429.25 83.9 424.6 83.9C424.375 81.65 423.25 78.05 422.2 75.95C424.675 76.1 427.375 76.025 428.2 76.025C429.175 76.025 429.475 75.65 429.475 74.75V15.725ZM379.675 15.725H403.45V38.6H379.675V32.9H394.975V21.5H379.675V15.725ZM433.825 15.725V21.5H416.875V32.9H433.825V38.6H408.325V15.725H433.825ZM374.35 15.725H382.675V83.825H374.35V15.725ZM505.225 53.075L509.575 51.725C511.3 54.275 512.95 57.65 513.4 59.9L508.9 61.475C508.375 59.225 506.875 55.7 505.225 53.075ZM492.7 47.375L495.625 43.925C498.325 45.8 501.55 48.575 503.05 50.6L500.05 54.575C498.625 52.4 495.4 49.4 492.7 47.375ZM501.025 39.125L506.275 41.15C504.175 43.775 502 46.475 500.275 48.275L496.375 46.55C497.95 44.45 499.975 41.225 501.025 39.125ZM506.125 44.6L510.775 46.7C507.1 50.75 502.45 55.55 498.85 58.475L495.4 56.75C499 53.525 503.575 48.2 506.125 44.6ZM514 61.325H520.075V82.325H514V61.325ZM492.1 56.15C496.75 55.85 503.05 55.475 509.8 54.95L509.875 59.525C503.65 60.125 497.725 60.65 492.625 61.025L492.1 56.15ZM524.2 52.625L528.7 51.35C530.575 54.05 532.375 57.8 532.975 60.35L528.25 61.925C527.725 59.375 526 55.55 524.2 52.625ZM510.55 47L513.775 43.7C516.7 45.8 520.225 48.95 521.8 51.125L518.425 54.875C516.925 52.625 513.475 49.25 510.55 47ZM519.25 39.05L524.65 41.15C522.325 44 519.925 46.925 517.975 48.875L514 47.075C515.725 44.9 518.05 41.375 519.25 39.05ZM524.575 44.675L529.375 46.85C525.475 51.05 520.6 55.925 516.7 59L513.175 57.125C517 53.9 521.875 48.425 524.575 44.675ZM512.05 56.15C516.7 55.925 522.775 55.55 529.375 55.1L529.45 59.6C523.675 60.2 517.975 60.575 513.1 61.025L512.05 56.15ZM494.35 62.525H499.9V69.05H508V74H494.35V62.525ZM524.8 62.525H530.35V74H518.8V69.05H524.8V62.525ZM504.4 61.325H510.4V68.6C510.4 74.45 508.975 80.075 499.45 83.375C498.7 81.95 496.825 79.625 495.55 78.5C503.35 76.175 504.4 72.35 504.4 68.375V61.325ZM485.35 25.775H504.175V31.175H485.35V25.775ZM519.85 25.775H538.9V31.175H519.85V25.775ZM535.825 16.175H544.525V73.475C544.525 77.75 543.85 80.225 541.3 81.725C538.75 83.225 535.3 83.375 530.35 83.375C530.05 80.975 528.925 76.925 527.8 74.6C530.575 74.75 533.575 74.75 534.55 74.75C535.525 74.75 535.825 74.375 535.825 73.4V16.175ZM486.175 16.175H509.95V40.7H486.175V34.625H501.475V22.25H486.175V16.175ZM540.325 16.175V22.25H523.375V34.625H540.325V40.7H514.825V16.175H540.325ZM480.85 16.175H489.4V83.75H480.85V16.175Z" fill="white"/>
</svg>
