<svg width="125" height="125" viewBox="0 0 125 125" fill="none" xmlns="http://www.w3.org/2000/svg">
<g clip-path="url(#clip0_574_121)">
<path d="M68.986 4.08778L72.3904 0L74.3647 4.94837C76.3263 9.84611 82.2365 11.7698 86.704 8.96021L91.2094 6.12534L91.5637 11.4407C91.9181 16.7055 96.955 20.363 102.068 19.0721L107.231 17.7686L105.928 22.9321C104.637 28.045 108.295 33.0819 113.559 33.4363L118.875 33.7906L116.04 38.296C113.23 42.7635 115.154 48.6737 120.052 50.6353L125 52.6096L120.912 56.014C116.862 59.393 116.862 65.6196 120.912 68.986L125 72.3904L120.052 74.3647C115.154 76.3263 113.23 82.2365 116.04 86.704L118.875 91.2094L113.559 91.5637C108.295 91.9181 104.637 96.955 105.928 102.068L107.231 107.231L102.068 105.928C96.955 104.637 91.9181 108.295 91.5637 113.559L91.2094 118.875L86.704 116.04C82.2365 113.23 76.3263 115.154 74.3647 120.052L72.3904 125L68.986 120.912C65.607 116.862 59.3804 116.862 56.014 120.912L52.6096 125L50.6353 120.052C48.6737 115.154 42.7635 113.23 38.296 116.04L33.7906 118.875L33.4363 113.559C33.0819 108.295 28.045 104.637 22.9321 105.928L17.7686 107.231L19.0721 102.068C20.363 96.955 16.7055 91.9181 11.4407 91.5637L6.12534 91.2094L8.96021 86.704C11.7698 82.2365 9.84611 76.3263 4.94837 74.3647L0 72.3904L4.08778 68.986C8.13759 65.607 8.13759 59.3804 4.08778 56.014L0 52.6096L4.94837 50.6353C9.84611 48.6737 11.7698 42.7635 8.96021 38.296L6.12534 33.7906L11.4407 33.4363C16.7055 33.0819 20.363 28.045 19.0721 22.9321L17.7686 17.7686L22.9321 19.0721C28.045 20.363 33.0819 16.7055 33.4363 11.4407L33.7906 6.12534L38.296 8.96021C42.7635 11.7698 48.6737 9.84611 50.6353 4.94837L52.6096 0L56.014 4.08778C59.393 8.13759 65.6196 8.13759 68.986 4.08778Z" fill="#FF5F17"/>
</g>
<path d="M46.32 41.2H60.44V42.7H46.32V41.2ZM49.5 35.94H51.58V40H49.5V35.94ZM54.06 35.94H56.2V40H54.06V35.94ZM46.72 36.92H60.88V40.54H46.72V39.2H58.68V38.26H46.72V36.92ZM51.58 45.22L53.6 45.66C52.06 47.14 50.06 48.26 47.38 49.2C47.12 48.76 46.56 48.1 46.14 47.82C48.62 47.14 50.5 46.18 51.58 45.22ZM51.58 46.42H57.9V47.72H50.28L51.58 46.42ZM57.42 46.42H57.82L58.18 46.34L59.52 47.2C57.04 50.08 51.88 51.28 46.94 51.78C46.76 51.3 46.38 50.56 46.06 50.14C50.62 49.84 55.5 48.8 57.42 46.7V46.42ZM50.98 47.26C53.02 48.98 57.3 49.8 61.96 50C61.54 50.44 61.04 51.26 60.78 51.8C55.96 51.44 51.7 50.32 49.24 47.98L50.98 47.26ZM50.12 43.14H52.02V44C52.02 44.42 52.14 44.48 52.78 44.48C53.08 44.48 54.5 44.48 54.88 44.48C55.36 44.48 55.46 44.34 55.54 43.64C55.9 43.86 56.6 44.06 57.08 44.16C56.92 45.48 56.42 45.84 55.14 45.84C54.72 45.84 52.92 45.84 52.54 45.84C50.58 45.84 50.12 45.44 50.12 44.02V43.14ZM59.88 41.2H60.2L60.54 41.14L62.12 41.46C61.74 42.52 61.24 43.7 60.84 44.46L58.94 44.06C59.26 43.38 59.66 42.32 59.88 41.44V41.2ZM48.38 42.92L49.98 43.6C49.56 44.52 48.96 45.5 48.02 46.12L46.5 45.12C47.32 44.62 48.02 43.72 48.38 42.92ZM51.94 42.86L53.18 41.96C53.92 42.34 54.8 42.92 55.26 43.34L53.96 44.36C53.52 43.88 52.62 43.22 51.94 42.86ZM56.28 43.52L57.76 42.74C58.6 43.4 59.56 44.38 60 45.1L58.42 45.94C58.04 45.24 57.12 44.24 56.28 43.52ZM51.98 33.02H54.48V35.56H51.98V33.02ZM45.86 34.2H61.6V36H45.86V34.2ZM44.72 34.2H46.9V40.18C46.9 43.5 46.62 48.56 44.78 51.74C44.4 51.34 43.44 50.64 42.96 50.42C44.6 47.46 44.72 43.2 44.72 40.18V34.2ZM67.54 36.64H81.46V38.98H67.54V36.64ZM66.72 42.54H80.7V44.84H66.72V42.54ZM64.4 48.88H82.48V51.22H64.4V48.88ZM72.18 33.02H74.68V50.04H72.18V33.02ZM67.56 33.26L70.04 33.82C69.16 36.92 67.7 40 66.14 41.92C65.66 41.5 64.6 40.8 63.98 40.46C65.56 38.78 66.84 36.02 67.56 33.26ZM30.64 60.8H40.28V62.98H30.64V60.8ZM29.44 64.68H41.16V66.9H29.44V64.68ZM29.88 68.7H40.96V70.92H29.88V68.7ZM34.2 59H36.58V65.9H34.2V59ZM36.58 66.66H38.96V75.12C38.96 76.34 38.72 77 37.92 77.36C37.12 77.72 35.98 77.78 34.46 77.78C34.38 77.08 34.06 76.06 33.74 75.4C34.72 75.44 35.82 75.44 36.16 75.42C36.48 75.42 36.58 75.36 36.58 75.08V66.66ZM30.58 72L32.36 70.9C33.24 71.78 34.3 73.04 34.78 73.92L32.88 75.16C32.46 74.28 31.44 72.96 30.58 72ZM22.32 69.68C24.28 69.24 27.2 68.42 29.96 67.64L30.28 69.74C27.76 70.54 25.02 71.36 22.9 71.98L22.32 69.68ZM25.92 59.02H28.12V77.8H25.92V59.02ZM23.28 60.06L25.28 60.4C25.02 63.04 24.54 65.82 23.82 67.62C23.46 67.32 22.6 66.78 22.12 66.54C22.76 64.92 23.1 62.42 23.28 60.06ZM23.82 62.8H29.78V65.08H23.38L23.82 62.8ZM54.04 61.46H56.38V72.78H54.04V61.46ZM58.76 59.42H61.14V74.9C61.14 76.3 60.86 76.96 60.04 77.36C59.2 77.74 57.88 77.82 56.04 77.82C55.92 77.14 55.54 76.02 55.2 75.34C56.52 75.4 57.8 75.4 58.22 75.38C58.6 75.38 58.76 75.26 58.76 74.88V59.42ZM46.96 68.58H51.56V70.68H46.96V68.58ZM50.5 68.58H52.72C52.72 68.58 52.7 69.18 52.68 69.46C52.48 74.3 52.28 76.22 51.72 76.9C51.32 77.42 50.86 77.58 50.22 77.68C49.68 77.76 48.76 77.76 47.8 77.74C47.76 77.1 47.52 76.22 47.16 75.66C48 75.74 48.78 75.74 49.14 75.74C49.44 75.74 49.64 75.7 49.82 75.5C50.16 75.1 50.34 73.4 50.5 68.94V68.58ZM46.44 62.06V64.8H50.22V62.06H46.44ZM44.28 59.96H52.52V66.94H44.28V59.96ZM46.3 66.28H48.66C48.44 70.52 47.92 75.06 44.68 77.82C44.32 77.22 43.64 76.46 43.06 76.08C45.88 73.76 46.16 69.8 46.3 66.28ZM73.3 61.3C71.66 63.74 68.58 66.54 65.26 68.42C64.94 67.86 64.26 66.98 63.72 66.48C67.2 64.68 70.44 61.5 71.94 58.92H74.44C76.6 62.12 79.88 64.84 83.1 66.24C82.5 66.86 81.94 67.66 81.48 68.38C78.38 66.66 75.02 63.78 73.3 61.3ZM73.42 68.94H80.14V71.08H73.42V68.94ZM64.86 75.1H81.96V77.26H64.86V75.1ZM72.22 64.64H74.78V76.26H72.22V64.64ZM67.04 68.1H69.4V76.2H67.04V68.1ZM96.84 61.46H99.04V72.78H96.84V61.46ZM100.64 59.42H102.92V75.04C102.92 76.3 102.66 76.94 101.94 77.32C101.22 77.7 100.12 77.78 98.52 77.78C98.44 77.14 98.12 76.08 97.82 75.42C98.86 75.46 99.86 75.46 100.2 75.46C100.52 75.44 100.64 75.34 100.64 75.02V59.42ZM84.86 62.02H96.28V63.5H84.86V62.02ZM85.88 66.1H95.46V67.42H85.88V66.1ZM84.98 68.02H96.2V69.54H84.98V68.02ZM89.62 70.5H91.62V74.3H89.62V70.5ZM89.4 59H91.54V69.02H89.4V59ZM84.86 75.5C87.72 75.42 92.14 75.28 96.26 75.1L96.2 76.88C92.18 77.08 87.9 77.24 85.02 77.34L84.86 75.5ZM85.98 60.1H95.26V65.5H85.92V64.2H93.22V61.4H85.98V60.1ZM87.78 72.92V73.58H93.4V72.92H87.78ZM87.78 71.22V71.86H93.4V71.22H87.78ZM85.92 70.1H95.34V74.7H85.92V70.1Z" fill="white"/>
<defs>
<clipPath id="clip0_574_121">
<rect width="125" height="125" fill="white"/>
</clipPath>
</defs>
</svg>
