<svg width="415" height="98" viewBox="0 0 415 98" fill="none" xmlns="http://www.w3.org/2000/svg">
<path d="M0.769531 0H65.7695C82.3381 0 95.7695 13.4315 95.7695 30V98H0.769531V0Z" fill="#FF5F17"/>
<path d="M108.77 0H171.77C188.338 0 201.77 13.4315 201.77 30V98H108.77V0Z" fill="#39BF63"/>
<path d="M214.77 0H278.77C295.338 0 308.77 13.4315 308.77 30V98H214.77V0Z" fill="#FF5F17"/>
<path d="M321.77 0H384.77C401.338 0 414.77 13.4315 414.77 30V98H321.77V0Z" fill="#39BF63"/>
<path d="M27.475 74.15H67.375V81.2H27.475V74.15ZM27.55 30.65H73.15V36.5H27.55V30.65ZM27.55 39.95H73.3V45.8H27.55V39.95ZM22.6 59.375H73.9V83.75H64.525V66.5H31.6V83.75H22.6V59.375ZM48.775 13.175L58.15 15.425C57.1 17.525 56.025 19.55 54.925 21.5C53.875 23.45 52.9 25.125 52 26.525L44.275 24.35C45.075 22.85 45.9 21.05 46.75 18.95C47.6 16.85 48.275 14.925 48.775 13.175ZM28.375 12.95L36.925 15.725C35.375 19.125 33.55 22.5 31.45 25.85C29.4 29.15 27.2 32.275 24.85 35.225C22.5 38.125 20.15 40.65 17.8 42.8C17.4 42.2 16.8 41.45 16 40.55C15.25 39.6 14.475 38.675 13.675 37.775C12.925 36.825 12.225 36.075 11.575 35.525C13.825 33.675 15.975 31.55 18.025 29.15C20.125 26.75 22.05 24.175 23.8 21.425C25.6 18.625 27.125 15.8 28.375 12.95ZM44.425 24.275H53.2V52.775H44.425V24.275ZM27.55 20.975H77.125V27.35H24.4L27.55 20.975ZM22.375 26H31.075V49.625H79.975V56.225H22.375V26ZM163.525 70.625L170.125 66.2C172.075 67.15 174.125 68.3 176.275 69.65C178.425 71 180.5 72.35 182.5 73.7C184.5 75.05 186.175 76.325 187.525 77.525L180.325 82.55C179.175 81.4 177.65 80.125 175.75 78.725C173.9 77.325 171.9 75.925 169.75 74.525C167.6 73.075 165.525 71.775 163.525 70.625ZM129.025 48.35H179.05V55.175H129.025V48.35ZM120.1 58.325H188.125V65.375H120.1V58.325ZM121.15 15.725H186.625V22.85H121.15V15.725ZM149.5 59.6H158.575V75.125C158.575 77.125 158.325 78.7 157.825 79.85C157.375 81 156.45 81.875 155.05 82.475C153.65 83.075 152 83.45 150.1 83.6C148.25 83.75 146.075 83.825 143.575 83.825C143.425 82.625 143.075 81.25 142.525 79.7C141.975 78.2 141.425 76.9 140.875 75.8C142.375 75.85 143.85 75.9 145.3 75.95C146.75 75.95 147.725 75.925 148.225 75.875C148.725 75.875 149.05 75.8 149.2 75.65C149.4 75.5 149.5 75.225 149.5 74.825V59.6ZM134.95 65.975L143.2 68.825C141.8 70.675 140.15 72.5 138.25 74.3C136.35 76.1 134.35 77.775 132.25 79.325C130.2 80.875 128.2 82.225 126.25 83.375C125.75 82.825 125.1 82.15 124.3 81.35C123.5 80.6 122.675 79.85 121.825 79.1C120.975 78.4 120.225 77.825 119.575 77.375C122.525 76.025 125.375 74.35 128.125 72.35C130.925 70.3 133.2 68.175 134.95 65.975ZM133.825 33.2V38.825H173.725V33.2H133.825ZM125.5 26.825H182.65V45.275H125.5V26.825ZM141.4 18.5H149.65V42.65H141.4V18.5ZM157.45 18.5H165.925V42.65H157.45V18.5ZM228.925 20.525L232.9 14.375C234.6 14.775 236.425 15.3 238.375 15.95C240.325 16.55 242.225 17.2 244.075 17.9C245.975 18.55 247.55 19.175 248.8 19.775L244.75 26.6C243.55 26 242.05 25.325 240.25 24.575C238.45 23.775 236.55 23.025 234.55 22.325C232.55 21.625 230.675 21.025 228.925 20.525ZM225.625 33.2C228.375 32.7 231.675 32 235.525 31.1C239.425 30.2 243.35 29.3 247.3 28.4L248.125 35.45C244.875 36.5 241.575 37.5 238.225 38.45C234.925 39.35 231.85 40.2 229 41L225.625 33.2ZM258.85 18.275H287.65V24.65H253.825L258.85 18.275ZM285.55 18.275H286.825L288.175 17.975L294.1 19.55C293.15 21.55 292.025 23.6 290.725 25.7C289.475 27.8 288.25 29.55 287.05 30.95L280 28.775C281 27.575 282.025 26.1 283.075 24.35C284.125 22.55 284.95 20.875 285.55 19.325V18.275ZM266.575 20.975H274.6C274.25 23.625 273.65 26.05 272.8 28.25C271.95 30.4 270.7 32.325 269.05 34.025C267.45 35.675 265.275 37.125 262.525 38.375C259.825 39.625 256.35 40.675 252.1 41.525C251.75 40.575 251.175 39.475 250.375 38.225C249.575 36.925 248.8 35.9 248.05 35.15C251.65 34.55 254.6 33.825 256.9 32.975C259.2 32.125 260.975 31.15 262.225 30.05C263.525 28.9 264.5 27.575 265.15 26.075C265.8 24.575 266.275 22.875 266.575 20.975ZM274.15 22.85C274.45 24.25 274.95 25.6 275.65 26.9C276.4 28.2 277.525 29.4 279.025 30.5C280.525 31.55 282.625 32.5 285.325 33.35C288.025 34.15 291.5 34.8 295.75 35.3C294.9 36.2 294.05 37.375 293.2 38.825C292.35 40.275 291.7 41.575 291.25 42.725C286.6 41.975 282.775 40.925 279.775 39.575C276.825 38.225 274.5 36.7 272.8 35C271.15 33.3 269.875 31.475 268.975 29.525C268.125 27.525 267.45 25.55 266.95 23.6L274.15 22.85ZM258.625 13.25L266.575 14.6C265.125 17.55 263.425 20.4 261.475 23.15C259.525 25.85 257.125 28.35 254.275 30.65C253.475 29.85 252.4 29.05 251.05 28.25C249.75 27.45 248.55 26.825 247.45 26.375C250.2 24.475 252.5 22.375 254.35 20.075C256.2 17.725 257.625 15.45 258.625 13.25ZM244.525 54.125V57.275H277.15V54.125H244.525ZM244.525 62.375V65.675H277.15V62.375H244.525ZM244.525 45.8V49.025H277.15V45.8H244.525ZM235.825 40.475H286.225V71H235.825V40.475ZM264.7 74.975L272.2 70.7C274.9 71.65 277.625 72.675 280.375 73.775C283.175 74.825 285.825 75.9 288.325 77C290.875 78.05 293.025 79 294.775 79.85L284.275 83.9C282.875 83.1 281.125 82.175 279.025 81.125C276.925 80.075 274.65 79 272.2 77.9C269.8 76.85 267.3 75.875 264.7 74.975ZM248.125 70.4L256.3 74.15C254.3 75.45 251.95 76.725 249.25 77.975C246.55 79.225 243.775 80.35 240.925 81.35C238.075 82.4 235.375 83.275 232.825 83.975C232.275 83.375 231.6 82.65 230.8 81.8C230.05 81 229.25 80.175 228.4 79.325C227.55 78.525 226.8 77.875 226.15 77.375C228.8 76.875 231.475 76.275 234.175 75.575C236.925 74.875 239.5 74.075 241.9 73.175C244.35 72.275 246.425 71.35 248.125 70.4ZM361.075 16.25H390.175V24.8H361.075V16.25ZM360.175 41.45H384.025V49.85H360.175V41.45ZM368.425 21.95H376.975V40.925C376.975 44.475 376.825 48.125 376.525 51.875C376.225 55.625 375.6 59.375 374.65 63.125C373.75 66.875 372.375 70.5 370.525 74C368.675 77.45 366.225 80.7 363.175 83.75C362.725 83.1 362.1 82.35 361.3 81.5C360.5 80.7 359.675 79.925 358.825 79.175C358.025 78.425 357.275 77.825 356.575 77.375C359.225 74.725 361.35 71.9 362.95 68.9C364.55 65.9 365.725 62.825 366.475 59.675C367.275 56.475 367.8 53.3 368.05 50.15C368.3 46.95 368.425 43.825 368.425 40.775V21.95ZM385.45 16.25H394.675C394.575 20.5 394.5 24.85 394.45 29.3C394.4 33.75 394.375 38.1 394.375 42.35C394.425 46.55 394.525 50.525 394.675 54.275C394.825 57.975 395.025 61.275 395.275 64.175C395.575 67.025 395.925 69.325 396.325 71.075C396.725 72.775 397.225 73.7 397.825 73.85C398.025 73.9 398.2 73.425 398.35 72.425C398.5 71.425 398.625 70.125 398.725 68.525C398.875 66.925 398.975 65.275 399.025 63.575C399.475 64.325 400 65.2 400.6 66.2C401.2 67.2 401.8 68.125 402.4 68.975C403 69.825 403.525 70.475 403.975 70.925C403.575 74.825 402.875 77.775 401.875 79.775C400.925 81.775 399.775 83 398.425 83.45C397.075 83.9 395.575 83.775 393.925 83.075C392.125 82.425 390.675 80.7 389.575 77.9C388.475 75.15 387.65 71.625 387.1 67.325C386.55 62.975 386.15 58.075 385.9 52.625C385.7 47.125 385.575 41.275 385.525 35.075C385.475 28.875 385.45 22.6 385.45 16.25ZM335.275 36.275H357.925V43.1H335.275V36.275ZM335.575 15.65H357.775V22.4H335.575V15.65ZM335.275 46.55H357.925V53.3H335.275V46.55ZM331.75 25.7H360.4V32.825H331.75V25.7ZM339.175 56.9H358.075V79.775H339.175V72.65H350.35V64.025H339.175V56.9ZM335.125 56.9H342.7V82.7H335.125V56.9Z" fill="white"/>
</svg>
