<svg width="27" height="29" viewBox="0 0 27 29" fill="none" xmlns="http://www.w3.org/2000/svg">
<path d="M4.24833 22.173C2.33892 21.9923 0.734141 20.5708 0.469737 18.6379C0.167181 16.4261 -0.000976562 14.1521 -0.000976562 11.8114C-0.000976562 9.38805 0.167243 7.00352 0.491171 4.72052C0.747369 2.91492 2.19555 1.55202 3.97837 1.36146C6.99018 1.03953 10.1368 0.865967 13.3547 0.865967C16.5626 0.865967 19.6536 1.04998 22.6682 1.36719C24.4814 1.55798 25.9539 2.94919 26.2114 4.7857C26.529 7.05104 26.7104 9.40902 26.7104 11.8114C26.7104 14.1948 26.5121 16.512 26.1999 18.7617C25.9402 20.6333 24.4442 22.0616 22.5964 22.2528C19.611 22.5614 16.5333 22.7569 13.3547 22.7569C13.2786 22.7569 13.2026 22.7567 13.1266 22.7565C10.8852 25.3802 9.16677 26.677 6.16319 28.0499V22.3535C5.67619 22.3087 5.19199 22.2626 4.71076 22.2169C4.5563 22.2023 4.40217 22.1875 4.24833 22.173Z" fill="#FF5F17"/>
<path d="M13.3563 12.7796C13.3563 12.0485 13.9406 11.6001 14.9715 10.8991C15.9276 10.2489 16.432 9.40548 16.2076 8.25764C15.9833 7.10983 15.0514 6.16141 13.9235 5.93309C12.153 5.5747 10.4492 6.99772 10.4492 8.83479" stroke="white" stroke-width="3.17691" stroke-linecap="round" stroke-linejoin="round"/>
<path d="M13.3545 17.842V17.2983" stroke="white" stroke-width="3.17691" stroke-linecap="round" stroke-linejoin="round"/>
</svg>
